<?xml version="1.0" encoding="UTF-8" standalone="no"?>
<!DOCTYPE svg PUBLIC "-//W3C//DTD SVG 1.1//EN"
 "http://www.w3.org/Graphics/SVG/1.1/DTD/svg11.dtd">
<!-- Generated by graphviz version 10.0.1 (0)
 -->
<!-- Title: angle.h Pages: 1 -->
<!--zoomable 459 -->

<svg id="main" version="1.1" xmlns="http://www.w3.org/2000/svg" xmlns:xlink="http://www.w3.org/1999/xlink" xml:space="preserve" onload="init(evt)">
<style type="text/css"><![CDATA[
.node, .edge {opacity: 0.7;}
.node.selected, .edge.selected {opacity: 1;}
.edge:hover path { stroke: red; }
.edge:hover polygon { stroke: red; fill: red; }
]]></style>

<defs>
  <circle id="rim" cx="0" cy="0" r="7"/>
  <circle id="rim2" cx="0" cy="0" r="3.5"/>
  <g id="zoomPlus">
    <use xlink:href="#rim" fill="#404040"><set attributeName="fill" to="#808080" begin="zoomplus.mouseover" end="zoomplus.mouseout"/></use>
    <path d="M-4,0h8M0,-4v8" fill="none" stroke="white" stroke-width="1.5" pointer-events="none"/>
  </g>
  <g id="zoomMin">
    <use xlink:href="#rim" fill="#404040"><set attributeName="fill" to="#808080" begin="zoomminus.mouseover" end="zoomminus.mouseout"/></use>
    <path d="M-4,0h8" fill="none" stroke="white" stroke-width="1.5" pointer-events="none"/>
  </g>
  <g id="arrowUp" transform="translate(30 24)">
    <use xlink:href="#rim"/>
    <path pointer-events="none" fill="none" stroke="white" stroke-width="1.5" d="M0,-3.0v7 M-2.5,-0.5L0,-3.0L2.5,-0.5"/>
  </g>
  <g id="arrowRight" transform="rotate(90) translate(36 -43)">
    <use xlink:href="#rim"/>
    <path pointer-events="none" fill="none" stroke="white" stroke-width="1.5" d="M0,-3.0v7 M-2.5,-0.5L0,-3.0L2.5,-0.5"/>
  </g>
  <g id="arrowDown" transform="rotate(180) translate(-30 -48)">
    <use xlink:href="#rim"/>
    <path pointer-events="none" fill="none" stroke="white" stroke-width="1.5" d="M0,-3.0v7 M-2.5,-0.5L0,-3.0L2.5,-0.5"/>
  </g>
  <g id="arrowLeft" transform="rotate(270) translate(-36 17)">
    <use xlink:href="#rim"/>
    <path pointer-events="none" fill="none" stroke="white" stroke-width="1.5" d="M0,-3.0v7 M-2.5,-0.5L0,-3.0L2.5,-0.5"/>
  </g>
  <g id="resetDef">
    <use xlink:href="#rim2" fill="#404040"><set attributeName="fill" to="#808080" begin="reset.mouseover" end="reset.mouseout"/></use>
  </g>
</defs>
<script type="application/ecmascript">
var viewWidth = 1385;
var viewHeight = 459;
var sectionId = 'dynsection-0';
</script>
<script type="application/ecmascript" xlink:href="svg.min.js"/>
<svg id="graph" class="graph">
<g id="viewport">
<title>angle.h</title>
<!-- Node1 -->
<g id="Node000001" class="node">
<title>Node1</title>
<g id="a_Node000001"><a xlink:title="Newtype describing an angle.">
<polygon fill="#999999" stroke="#666666" points="121.12,-451 69.88,-451 69.88,-431.75 121.12,-431.75 121.12,-451"/>
<text text-anchor="middle" x="95.5" y="-436.55" font-family="Helvetica,sans-Serif" font-size="11.00">angle.h</text>
</a>
</g>
</g>
<!-- Node2 -->
<g id="Node000002" class="node">
<title>Node2</title>
<g id="a_Node000002"><a xlink:href="math_8h_source.html" target="_top" xlink:title=" ">
<polygon fill="white" stroke="#666666" points="109,-201.88 0,-201.88 0,-182.62 109,-182.62 109,-201.88"/>
<text text-anchor="middle" x="54.5" y="-187.43" font-family="Helvetica,sans-Serif" font-size="11.00">floppy/detail/math.h</text>
</a>
</g>
</g>
<!-- Node1&#45;&gt;Node2 -->
<g id="edge1_Node000001_Node000002" class="edge">
<title>Node1&#45;&gt;Node2</title>
<g id="a_edge1_Node000001_Node000002"><a xlink:title=" ">
<path fill="none" stroke="#63b8ff" d="M90.05,-431.43C75.63,-407.2 36.71,-337.8 23.5,-274 20.75,-260.73 19.8,-256.54 23.5,-243.5 26.79,-231.89 33.61,-220.34 40.02,-211.24"/>
<polygon fill="#63b8ff" stroke="#63b8ff" points="42.74,-213.44 45.95,-203.35 37.14,-209.23 42.74,-213.44"/>
</a>
</g>
</g>
<!-- Node20 -->
<g id="Node000020" class="node">
<title>Node20</title>
<g id="a_Node000020"><a xlink:href="traits_8h_source.html" target="_top" xlink:title=" ">
<polygon fill="white" stroke="#666666" points="596.38,-395.75 516.62,-395.75 516.62,-376.5 596.38,-376.5 596.38,-395.75"/>
<text text-anchor="middle" x="556.5" y="-381.3" font-family="Helvetica,sans-Serif" font-size="11.00">floppy/traits.h</text>
</a>
</g>
</g>
<!-- Node1&#45;&gt;Node20 -->
<g id="edge21_Node000001_Node000020" class="edge">
<title>Node1&#45;&gt;Node20</title>
<g id="a_edge21_Node000001_Node000020"><a xlink:title=" ">
<path fill="none" stroke="#63b8ff" d="M121.61,-437.36C195.37,-428.84 406.34,-404.47 504.77,-393.1"/>
<polygon fill="#63b8ff" stroke="#63b8ff" points="505.16,-396.58 514.69,-391.95 504.36,-389.62 505.16,-396.58"/>
</a>
</g>
</g>
<!-- Node37 -->
<g id="Node000037" class="node">
<title>Node37</title>
<g id="a_Node000037"><a xlink:href="nt__traits_8h.html" target="_top" xlink:title=" ">
<polygon fill="white" stroke="#666666" points="147.38,-274 43.62,-274 43.62,-243.5 147.38,-243.5 147.38,-274"/>
<text text-anchor="start" x="51.62" y="-259.55" font-family="Helvetica,sans-Serif" font-size="11.00">floppy/euclid/detail</text>
<text text-anchor="middle" x="95.5" y="-248.3" font-family="Helvetica,sans-Serif" font-size="11.00">/nt_traits.h</text>
</a>
</g>
</g>
<!-- Node1&#45;&gt;Node37 -->
<g id="edge64_Node000001_Node000037" class="edge">
<title>Node1&#45;&gt;Node37</title>
<g id="a_edge64_Node000001_Node000037"><a xlink:title=" ">
<path fill="none" stroke="#63b8ff" d="M95.5,-431.66C95.5,-405.49 95.5,-326.81 95.5,-285.58"/>
<polygon fill="#63b8ff" stroke="#63b8ff" points="99,-285.84 95.5,-275.84 92,-285.84 99,-285.84"/>
</a>
</g>
</g>
<!-- Node3 -->
<g id="Node000003" class="node">
<title>Node3</title>
<g id="a_Node000003"><a xlink:title=" ">
<polygon fill="#e0e0e0" stroke="#999999" points="147.12,-141 101.88,-141 101.88,-121.75 147.12,-121.75 147.12,-141"/>
<text text-anchor="middle" x="124.5" y="-126.55" font-family="Helvetica,sans-Serif" font-size="11.00">cmath</text>
</a>
</g>
</g>
<!-- Node2&#45;&gt;Node3 -->
<g id="edge2_Node000002_Node000003" class="edge">
<title>Node2&#45;&gt;Node3</title>
<g id="a_edge2_Node000002_Node000003"><a xlink:title=" ">
<path fill="none" stroke="#63b8ff" d="M65.13,-182.31C75.72,-173.4 92.21,-159.53 105.13,-148.67"/>
<polygon fill="#63b8ff" stroke="#63b8ff" points="107.21,-151.49 112.61,-142.38 102.7,-146.13 107.21,-151.49"/>
</a>
</g>
</g>
<!-- Node4 -->
<g id="Node000004" class="node">
<title>Node4</title>
<g id="a_Node000004"><a xlink:title=" ">
<polygon fill="#e0e0e0" stroke="#999999" points="69.5,-80.12 29.5,-80.12 29.5,-60.88 69.5,-60.88 69.5,-80.12"/>
<text text-anchor="middle" x="49.5" y="-65.67" font-family="Helvetica,sans-Serif" font-size="11.00">limits</text>
</a>
</g>
</g>
<!-- Node2&#45;&gt;Node4 -->
<g id="edge3_Node000002_Node000004" class="edge">
<title>Node2&#45;&gt;Node4</title>
<g id="a_edge3_Node000002_Node000004"><a xlink:title=" ">
<path fill="none" stroke="#63b8ff" d="M44.83,-182.35C35.52,-173.07 22.07,-157.59 16.5,-141 10.29,-122.48 21.94,-102.44 33.08,-88.66"/>
<polygon fill="#63b8ff" stroke="#63b8ff" points="35.52,-91.18 39.48,-81.35 30.26,-86.56 35.52,-91.18"/>
</a>
</g>
</g>
<!-- Node5 -->
<g id="Node000005" class="node">
<title>Node5</title>
<g id="a_Node000005"><a xlink:title=" ">
<polygon fill="#e0e0e0" stroke="#999999" points="83.5,-141 25.5,-141 25.5,-121.75 83.5,-121.75 83.5,-141"/>
<text text-anchor="middle" x="54.5" y="-126.55" font-family="Helvetica,sans-Serif" font-size="11.00">numbers</text>
</a>
</g>
</g>
<!-- Node2&#45;&gt;Node5 -->
<g id="edge4_Node000002_Node000005" class="edge">
<title>Node2&#45;&gt;Node5</title>
<g id="a_edge4_Node000002_Node000005"><a xlink:title=" ">
<path fill="none" stroke="#63b8ff" d="M54.5,-182.31C54.5,-174.53 54.5,-162.95 54.5,-152.91"/>
<polygon fill="#63b8ff" stroke="#63b8ff" points="58,-152.91 54.5,-142.91 51,-152.91 58,-152.91"/>
</a>
</g>
</g>
<!-- Node6 -->
<g id="Node000006" class="node">
<title>Node6</title>
<g id="a_Node000006"><a xlink:title=" ">
<polygon fill="#e0e0e0" stroke="#999999" points="883.5,-141 825.5,-141 825.5,-121.75 883.5,-121.75 883.5,-141"/>
<text text-anchor="middle" x="854.5" y="-126.55" font-family="Helvetica,sans-Serif" font-size="11.00">compare</text>
</a>
</g>
</g>
<!-- Node2&#45;&gt;Node6 -->
<g id="edge5_Node000002_Node000006" class="edge">
<title>Node2&#45;&gt;Node6</title>
<g id="a_edge5_Node000002_Node000006"><a xlink:title=" ">
<path fill="none" stroke="#63b8ff" d="M109.49,-187.2C260.95,-176.06 681.73,-145.09 814.1,-135.35"/>
<polygon fill="#63b8ff" stroke="#63b8ff" points="814.05,-138.86 823.77,-134.64 813.54,-131.88 814.05,-138.86"/>
</a>
</g>
</g>
<!-- Node7 -->
<g id="Node000007" class="node">
<title>Node7</title>
<g id="a_Node000007"><a xlink:href="export_8h_source.html" target="_top" xlink:title=" ">
<polygon fill="white" stroke="#666666" points="952,-80.12 837,-80.12 837,-60.88 952,-60.88 952,-80.12"/>
<text text-anchor="middle" x="894.5" y="-65.67" font-family="Helvetica,sans-Serif" font-size="11.00">floppy/detail/export.h</text>
</a>
</g>
</g>
<!-- Node2&#45;&gt;Node7 -->
<g id="edge6_Node000002_Node000007" class="edge">
<title>Node2&#45;&gt;Node7</title>
<g id="a_edge6_Node000002_Node000007"><a xlink:title=" ">
<path fill="none" stroke="#63b8ff" d="M76.75,-182.19C115.42,-166.89 197.86,-136.16 270.5,-121.75 375.1,-101 685.99,-82.54 825.45,-75.04"/>
<polygon fill="#63b8ff" stroke="#63b8ff" points="825.49,-78.55 835.29,-74.52 825.11,-71.56 825.49,-78.55"/>
</a>
</g>
</g>
<!-- Node12 -->
<g id="Node000012" class="node">
<title>Node12</title>
<g id="a_Node000012"><a xlink:href="concepts_8h_source.html" target="_top" xlink:title=" ">
<polygon fill="white" stroke="#666666" points="407.38,-141 279.62,-141 279.62,-121.75 407.38,-121.75 407.38,-141"/>
<text text-anchor="middle" x="343.5" y="-126.55" font-family="Helvetica,sans-Serif" font-size="11.00">floppy/detail/concepts.h</text>
</a>
</g>
</g>
<!-- Node2&#45;&gt;Node12 -->
<g id="edge11_Node000002_Node000012" class="edge">
<title>Node2&#45;&gt;Node12</title>
<g id="a_edge11_Node000002_Node000012"><a xlink:title=" ">
<path fill="none" stroke="#63b8ff" d="M98.3,-182.18C106.66,-180.46 115.35,-178.67 123.5,-177 179.17,-165.61 242.79,-152.71 287.25,-143.73"/>
<polygon fill="#63b8ff" stroke="#63b8ff" points="287.81,-147.18 296.92,-141.77 286.43,-140.32 287.81,-147.18"/>
</a>
</g>
</g>
<!-- Node8 -->
<g id="Node000008" class="node">
<title>Node8</title>
<g id="a_Node000008"><a xlink:title=" ">
<polygon fill="#e0e0e0" stroke="#999999" points="915.62,-19.25 873.38,-19.25 873.38,0 915.62,0 915.62,-19.25"/>
<text text-anchor="middle" x="894.5" y="-4.8" font-family="Helvetica,sans-Serif" font-size="11.00">string</text>
</a>
</g>
</g>
<!-- Node7&#45;&gt;Node8 -->
<g id="edge7_Node000007_Node000008" class="edge">
<title>Node7&#45;&gt;Node8</title>
<g id="a_edge7_Node000007_Node000008"><a xlink:title=" ">
<path fill="none" stroke="#63b8ff" d="M894.5,-60.56C894.5,-52.78 894.5,-41.2 894.5,-31.16"/>
<polygon fill="#63b8ff" stroke="#63b8ff" points="898,-31.16 894.5,-21.16 891,-31.16 898,-31.16"/>
</a>
</g>
</g>
<!-- Node9 -->
<g id="Node000009" class="node">
<title>Node9</title>
<g id="a_Node000009"><a xlink:title=" ">
<polygon fill="#e0e0e0" stroke="#999999" points="1099.5,-19.25 1029.5,-19.25 1029.5,0 1099.5,0 1099.5,-19.25"/>
<text text-anchor="middle" x="1064.5" y="-4.8" font-family="Helvetica,sans-Serif" font-size="11.00">string_view</text>
</a>
</g>
</g>
<!-- Node7&#45;&gt;Node9 -->
<g id="edge8_Node000007_Node000009" class="edge">
<title>Node7&#45;&gt;Node9</title>
<g id="a_edge8_Node000007_Node000009"><a xlink:title=" ">
<path fill="none" stroke="#63b8ff" d="M920.69,-60.43C949.27,-50.53 995.24,-34.61 1027.49,-23.44"/>
<polygon fill="#63b8ff" stroke="#63b8ff" points="1028.55,-26.78 1036.85,-20.2 1026.26,-20.17 1028.55,-26.78"/>
</a>
</g>
</g>
<!-- Node10 -->
<g id="Node000010" class="node">
<title>Node10</title>
<g id="a_Node000010"><a xlink:title=" ">
<polygon fill="#e0e0e0" stroke="#999999" points="1290.12,-19.25 1232.88,-19.25 1232.88,0 1290.12,0 1290.12,-19.25"/>
<text text-anchor="middle" x="1261.5" y="-4.8" font-family="Helvetica,sans-Serif" font-size="11.00">iostream</text>
</a>
</g>
</g>
<!-- Node7&#45;&gt;Node10 -->
<g id="edge9_Node000007_Node000010" class="edge">
<title>Node7&#45;&gt;Node10</title>
<g id="a_edge9_Node000007_Node000010"><a xlink:title=" ">
<path fill="none" stroke="#63b8ff" d="M938.61,-60.44C947.81,-58.64 957.46,-56.83 966.5,-55.25 1057.25,-39.41 1164.29,-24.04 1221.18,-16.13"/>
<polygon fill="#63b8ff" stroke="#63b8ff" points="1221.61,-19.61 1231.04,-14.77 1220.65,-12.67 1221.61,-19.61"/>
</a>
</g>
</g>
<!-- Node11 -->
<g id="Node000011" class="node">
<title>Node11</title>
<g id="a_Node000011"><a xlink:title=" ">
<polygon fill="#e0e0e0" stroke="#999999" points="834.38,-19.25 760.62,-19.25 760.62,0 834.38,0 834.38,-19.25"/>
<text text-anchor="middle" x="797.5" y="-4.8" font-family="Helvetica,sans-Serif" font-size="11.00">fmt/format.h</text>
</a>
</g>
</g>
<!-- Node7&#45;&gt;Node11 -->
<g id="edge10_Node000007_Node000011" class="edge">
<title>Node7&#45;&gt;Node11</title>
<g id="a_edge10_Node000007_Node000011"><a xlink:title=" ">
<path fill="none" stroke="#63b8ff" d="M879.77,-60.56C864.46,-51.26 840.23,-36.56 822.03,-25.51"/>
<polygon fill="#63b8ff" stroke="#63b8ff" points="824.03,-22.63 813.66,-20.44 820.4,-28.62 824.03,-22.63"/>
</a>
</g>
</g>
<!-- Node13 -->
<g id="Node000013" class="node">
<title>Node13</title>
<g id="a_Node000013"><a xlink:title=" ">
<polygon fill="#e0e0e0" stroke="#999999" points="445.88,-80.12 387.12,-80.12 387.12,-60.88 445.88,-60.88 445.88,-80.12"/>
<text text-anchor="middle" x="416.5" y="-65.67" font-family="Helvetica,sans-Serif" font-size="11.00">concepts</text>
</a>
</g>
</g>
<!-- Node12&#45;&gt;Node13 -->
<g id="edge12_Node000012_Node000013" class="edge">
<title>Node12&#45;&gt;Node13</title>
<g id="a_edge12_Node000012_Node000013"><a xlink:title=" ">
<path fill="none" stroke="#63b8ff" d="M354.59,-121.43C365.74,-112.44 383.16,-98.39 396.69,-87.48"/>
<polygon fill="#63b8ff" stroke="#63b8ff" points="398.54,-90.48 404.13,-81.48 394.15,-85.03 398.54,-90.48"/>
</a>
</g>
</g>
<!-- Node14 -->
<g id="Node000014" class="node">
<title>Node14</title>
<g id="a_Node000014"><a xlink:href="type__traits_8h_source.html" target="_top" xlink:title=" ">
<polygon fill="white" stroke="#666666" points="229.62,-85.75 133.38,-85.75 133.38,-55.25 229.62,-55.25 229.62,-85.75"/>
<text text-anchor="start" x="141.38" y="-71.3" font-family="Helvetica,sans-Serif" font-size="11.00">floppy/detail/type</text>
<text text-anchor="middle" x="181.5" y="-60.05" font-family="Helvetica,sans-Serif" font-size="11.00">_traits.h</text>
</a>
</g>
</g>
<!-- Node12&#45;&gt;Node14 -->
<g id="edge13_Node000012_Node000014" class="edge">
<title>Node12&#45;&gt;Node14</title>
<g id="a_edge13_Node000012_Node000014"><a xlink:title=" ">
<path fill="none" stroke="#63b8ff" d="M318.54,-121.3C295.72,-113.01 261.25,-100.48 232.6,-90.07"/>
<polygon fill="#63b8ff" stroke="#63b8ff" points="233.95,-86.84 223.36,-86.71 231.56,-93.42 233.95,-86.84"/>
</a>
</g>
</g>
<!-- Node16 -->
<g id="Node000016" class="node">
<title>Node16</title>
<g id="a_Node000016"><a xlink:href="types_8h_source.html" target="_top" xlink:title=" ">
<polygon fill="white" stroke="#666666" points="577.75,-80.12 467.25,-80.12 467.25,-60.88 577.75,-60.88 577.75,-80.12"/>
<text text-anchor="middle" x="522.5" y="-65.67" font-family="Helvetica,sans-Serif" font-size="11.00">floppy/detail/types.h</text>
</a>
</g>
</g>
<!-- Node12&#45;&gt;Node16 -->
<g id="edge15_Node000012_Node000016" class="edge">
<title>Node12&#45;&gt;Node16</title>
<g id="a_edge15_Node000012_Node000016"><a xlink:title=" ">
<path fill="none" stroke="#63b8ff" d="M371.08,-121.3C401.3,-111.36 449.99,-95.35 483.98,-84.17"/>
<polygon fill="#63b8ff" stroke="#63b8ff" points="485.05,-87.5 493.45,-81.05 482.86,-80.85 485.05,-87.5"/>
</a>
</g>
</g>
<!-- Node15 -->
<g id="Node000015" class="node">
<title>Node15</title>
<g id="a_Node000015"><a xlink:title=" ">
<polygon fill="#e0e0e0" stroke="#999999" points="329.25,-19.25 263.75,-19.25 263.75,0 329.25,0 329.25,-19.25"/>
<text text-anchor="middle" x="296.5" y="-4.8" font-family="Helvetica,sans-Serif" font-size="11.00">type_traits</text>
</a>
</g>
</g>
<!-- Node14&#45;&gt;Node15 -->
<g id="edge14_Node000014_Node000015" class="edge">
<title>Node14&#45;&gt;Node15</title>
<g id="a_edge14_Node000014_Node000015"><a xlink:title=" ">
<path fill="none" stroke="#63b8ff" d="M210.22,-54.8C228.24,-45.57 251.34,-33.75 269.1,-24.65"/>
<polygon fill="#63b8ff" stroke="#63b8ff" points="270.21,-28.02 277.52,-20.34 267.02,-21.79 270.21,-28.02"/>
</a>
</g>
</g>
<!-- Node16&#45;&gt;Node11 -->
<g id="edge20_Node000016_Node000011" class="edge">
<title>Node16&#45;&gt;Node11</title>
<g id="a_edge20_Node000016_Node000011"><a xlink:title=" ">
<path fill="none" stroke="#63b8ff" d="M564.87,-60.43C614.7,-49.76 697.22,-32.09 749.41,-20.92"/>
<polygon fill="#63b8ff" stroke="#63b8ff" points="749.85,-24.4 758.9,-18.89 748.39,-17.56 749.85,-24.4"/>
</a>
</g>
</g>
<!-- Node16&#45;&gt;Node15 -->
<g id="edge19_Node000016_Node000015" class="edge">
<title>Node16&#45;&gt;Node15</title>
<g id="a_edge19_Node000016_Node000015"><a xlink:title=" ">
<path fill="none" stroke="#63b8ff" d="M487.68,-60.43C448.13,-50.13 383.51,-33.29 340.5,-22.09"/>
<polygon fill="#63b8ff" stroke="#63b8ff" points="341.54,-18.74 330.98,-19.61 339.78,-25.52 341.54,-18.74"/>
</a>
</g>
</g>
<!-- Node17 -->
<g id="Node000017" class="node">
<title>Node17</title>
<g id="a_Node000017"><a xlink:title=" ">
<polygon fill="#e0e0e0" stroke="#999999" points="570.75,-19.25 520.25,-19.25 520.25,0 570.75,0 570.75,-19.25"/>
<text text-anchor="middle" x="545.5" y="-4.8" font-family="Helvetica,sans-Serif" font-size="11.00">cstddef</text>
</a>
</g>
</g>
<!-- Node16&#45;&gt;Node17 -->
<g id="edge16_Node000016_Node000017" class="edge">
<title>Node16&#45;&gt;Node17</title>
<g id="a_edge16_Node000016_Node000017"><a xlink:title=" ">
<path fill="none" stroke="#63b8ff" d="M525.99,-60.56C529.13,-52.52 533.86,-40.43 537.87,-30.16"/>
<polygon fill="#63b8ff" stroke="#63b8ff" points="541.04,-31.65 541.42,-21.06 534.52,-29.1 541.04,-31.65"/>
</a>
</g>
</g>
<!-- Node18 -->
<g id="Node000018" class="node">
<title>Node18</title>
<g id="a_Node000018"><a xlink:title=" ">
<polygon fill="#e0e0e0" stroke="#999999" points="661.88,-19.25 615.12,-19.25 615.12,0 661.88,0 661.88,-19.25"/>
<text text-anchor="middle" x="638.5" y="-4.8" font-family="Helvetica,sans-Serif" font-size="11.00">cstdint</text>
</a>
</g>
</g>
<!-- Node16&#45;&gt;Node18 -->
<g id="edge17_Node000016_Node000018" class="edge">
<title>Node16&#45;&gt;Node18</title>
<g id="a_edge17_Node000016_Node000018"><a xlink:title=" ">
<path fill="none" stroke="#63b8ff" d="M540.37,-60.43C559.16,-50.89 588.96,-35.77 610.8,-24.68"/>
<polygon fill="#63b8ff" stroke="#63b8ff" points="612.12,-27.94 619.45,-20.29 608.95,-21.7 612.12,-27.94"/>
</a>
</g>
</g>
<!-- Node19 -->
<g id="Node000019" class="node">
<title>Node19</title>
<g id="a_Node000019"><a xlink:title=" ">
<polygon fill="#e0e0e0" stroke="#999999" points="502.25,-19.25 448.75,-19.25 448.75,0 502.25,0 502.25,-19.25"/>
<text text-anchor="middle" x="475.5" y="-4.8" font-family="Helvetica,sans-Serif" font-size="11.00">optional</text>
</a>
</g>
</g>
<!-- Node16&#45;&gt;Node19 -->
<g id="edge18_Node000016_Node000019" class="edge">
<title>Node16&#45;&gt;Node19</title>
<g id="a_edge18_Node000016_Node000019"><a xlink:title=" ">
<path fill="none" stroke="#63b8ff" d="M515.36,-60.56C508.6,-52.09 498.25,-39.12 489.79,-28.52"/>
<polygon fill="#63b8ff" stroke="#63b8ff" points="492.62,-26.47 483.65,-20.83 487.15,-30.83 492.62,-26.47"/>
</a>
</g>
</g>
<!-- Node20&#45;&gt;Node10 -->
<g id="edge22_Node000020_Node000010" class="edge">
<title>Node20&#45;&gt;Node10</title>
<g id="a_edge22_Node000020_Node000010"><a xlink:title=" ">
<path fill="none" stroke="#63b8ff" d="M596.61,-383.28C761.24,-375.18 1376.5,-339.59 1376.5,-259.75 1376.5,-259.75 1376.5,-259.75 1376.5,-130.38 1376.5,-81 1325.02,-44.09 1290.95,-25.07"/>
<polygon fill="#63b8ff" stroke="#63b8ff" points="1292.81,-22.1 1282.34,-20.46 1289.5,-28.27 1292.81,-22.1"/>
</a>
</g>
</g>
<!-- Node21 -->
<g id="Node000021" class="node">
<title>Node21</title>
<g id="a_Node000021"><a xlink:title=" ">
<polygon fill="#e0e0e0" stroke="#999999" points="684.12,-340.5 554.88,-340.5 554.88,-310 684.12,-310 684.12,-340.5"/>
<text text-anchor="start" x="562.88" y="-326.05" font-family="Helvetica,sans-Serif" font-size="11.00">experimental/propagate</text>
<text text-anchor="middle" x="619.5" y="-314.8" font-family="Helvetica,sans-Serif" font-size="11.00">_const</text>
</a>
</g>
</g>
<!-- Node20&#45;&gt;Node21 -->
<g id="edge23_Node000020_Node000021" class="edge">
<title>Node20&#45;&gt;Node21</title>
<g id="a_edge23_Node000020_Node000021"><a xlink:title=" ">
<path fill="none" stroke="#63b8ff" d="M566.07,-376.18C573.92,-368.84 585.38,-358.13 595.68,-348.51"/>
<polygon fill="#63b8ff" stroke="#63b8ff" points="597.93,-351.2 602.84,-341.82 593.15,-346.09 597.93,-351.2"/>
</a>
</g>
</g>
<!-- Node22 -->
<g id="Node000022" class="node">
<title>Node22</title>
<g id="a_Node000022"><a xlink:href="floppy_8h_source.html" target="_top" xlink:title=" ">
<polygon fill="white" stroke="#666666" points="537,-334.88 452,-334.88 452,-315.62 537,-315.62 537,-334.88"/>
<text text-anchor="middle" x="494.5" y="-320.43" font-family="Helvetica,sans-Serif" font-size="11.00">floppy/floppy.h</text>
</a>
</g>
</g>
<!-- Node20&#45;&gt;Node22 -->
<g id="edge24_Node000020_Node000022" class="edge">
<title>Node20&#45;&gt;Node22</title>
<g id="a_edge24_Node000020_Node000022"><a xlink:title=" ">
<path fill="none" stroke="#63b8ff" d="M547.08,-376.18C537.89,-367.45 523.66,-353.94 512.33,-343.18"/>
<polygon fill="#63b8ff" stroke="#63b8ff" points="514.76,-340.67 505.1,-336.32 509.94,-345.74 514.76,-340.67"/>
</a>
</g>
</g>
<!-- Node22&#45;&gt;Node2 -->
<g id="edge51_Node000022_Node000002" class="edge">
<title>Node22&#45;&gt;Node2</title>
<g id="a_edge51_Node000022_Node000002"><a xlink:title=" ">
<path fill="none" stroke="#63b8ff" d="M451.87,-322.77C343.15,-318.57 62.12,-304.8 34.5,-274 19.11,-256.83 30.69,-229.67 41.59,-211.66"/>
<polygon fill="#63b8ff" stroke="#63b8ff" points="44.37,-213.81 46.9,-203.52 38.51,-209.99 44.37,-213.81"/>
</a>
</g>
</g>
<!-- Node22&#45;&gt;Node7 -->
<g id="edge49_Node000022_Node000007" class="edge">
<title>Node22&#45;&gt;Node7</title>
<g id="a_edge49_Node000022_Node000007"><a xlink:title=" ">
<path fill="none" stroke="#63b8ff" d="M525.12,-315.15C531.8,-313.32 538.86,-311.49 545.5,-310 708.21,-273.36 767.55,-299.75 906.5,-207.5 947.49,-180.29 1000.54,-164.67 976.5,-121.75 967.04,-104.86 949.33,-92.96 932.78,-85"/>
<polygon fill="#63b8ff" stroke="#63b8ff" points="934.66,-82 924.1,-81.15 931.83,-88.4 934.66,-82"/>
</a>
</g>
</g>
<!-- Node22&#45;&gt;Node12 -->
<g id="edge40_Node000022_Node000012" class="edge">
<title>Node22&#45;&gt;Node12</title>
<g id="a_edge40_Node000022_Node000012"><a xlink:title=" ">
<path fill="none" stroke="#63b8ff" d="M476.85,-315.21C460.89,-306.37 437.5,-291.68 421.5,-274 387.23,-236.14 362.27,-180.56 350.7,-151.57"/>
<polygon fill="#63b8ff" stroke="#63b8ff" points="354.12,-150.69 347.24,-142.63 347.59,-153.22 354.12,-150.69"/>
</a>
</g>
</g>
<!-- Node22&#45;&gt;Node14 -->
<g id="edge62_Node000022_Node000014" class="edge">
<title>Node22&#45;&gt;Node14</title>
<g id="a_edge62_Node000022_Node000014"><a xlink:title=" ">
<path fill="none" stroke="#63b8ff" d="M451.63,-315.23C420.99,-307.48 379.66,-294.3 347.5,-274 274.68,-228.03 218.73,-139.2 194.56,-96.12"/>
<polygon fill="#63b8ff" stroke="#63b8ff" points="197.72,-94.61 189.84,-87.54 191.59,-97.98 197.72,-94.61"/>
</a>
</g>
</g>
<!-- Node22&#45;&gt;Node16 -->
<g id="edge63_Node000022_Node000016" class="edge">
<title>Node22&#45;&gt;Node16</title>
<g id="a_edge63_Node000022_Node000016"><a xlink:title=" ">
<path fill="none" stroke="#63b8ff" d="M488.83,-315.22C471.12,-285.72 419.96,-190.22 454.5,-121.75 462.32,-106.25 477.43,-94.34 491.43,-86.02"/>
<polygon fill="#63b8ff" stroke="#63b8ff" points="492.9,-89.21 499.97,-81.32 489.52,-83.07 492.9,-89.21"/>
</a>
</g>
</g>
<!-- Node23 -->
<g id="Node000023" class="node">
<title>Node23</title>
<g id="a_Node000023"><a xlink:href="backports_8h_source.html" target="_top" xlink:title=" ">
<polygon fill="white" stroke="#666666" points="671.62,-201.88 539.38,-201.88 539.38,-182.62 671.62,-182.62 671.62,-201.88"/>
<text text-anchor="middle" x="605.5" y="-187.43" font-family="Helvetica,sans-Serif" font-size="11.00">floppy/detail/backports.h</text>
</a>
</g>
</g>
<!-- Node22&#45;&gt;Node23 -->
<g id="edge25_Node000022_Node000023" class="edge">
<title>Node22&#45;&gt;Node23</title>
<g id="a_edge25_Node000022_Node000023"><a xlink:title=" ">
<path fill="none" stroke="#63b8ff" d="M502.13,-315.25C520.35,-293.74 566.65,-239.1 590.62,-210.81"/>
<polygon fill="#63b8ff" stroke="#63b8ff" points="593.04,-213.36 596.84,-203.47 587.7,-208.84 593.04,-213.36"/>
</a>
</g>
</g>
<!-- Node25 -->
<g id="Node000025" class="node">
<title>Node25</title>
<g id="a_Node000025"><a xlink:href="platform_8h_source.html" target="_top" xlink:title=" ">
<polygon fill="white" stroke="#666666" points="587.5,-141 463.5,-141 463.5,-121.75 587.5,-121.75 587.5,-141"/>
<text text-anchor="middle" x="525.5" y="-126.55" font-family="Helvetica,sans-Serif" font-size="11.00">floppy/detail/platform.h</text>
</a>
</g>
</g>
<!-- Node22&#45;&gt;Node25 -->
<g id="edge59_Node000022_Node000025" class="edge">
<title>Node22&#45;&gt;Node25</title>
<g id="a_edge59_Node000022_Node000025"><a xlink:title=" ">
<path fill="none" stroke="#63b8ff" d="M495.95,-315.25C500.67,-286.04 515.65,-193.37 522.28,-152.3"/>
<polygon fill="#63b8ff" stroke="#63b8ff" points="525.7,-153.06 523.84,-142.63 518.79,-151.94 525.7,-153.06"/>
</a>
</g>
</g>
<!-- Node26 -->
<g id="Node000026" class="node">
<title>Node26</title>
<g id="a_Node000026"><a xlink:href="predefs_8h_source.html" target="_top" xlink:title=" ">
<polygon fill="white" stroke="#666666" points="369,-80.12 248,-80.12 248,-60.88 369,-60.88 369,-80.12"/>
<text text-anchor="middle" x="308.5" y="-65.67" font-family="Helvetica,sans-Serif" font-size="11.00">floppy/detail/predefs.h</text>
</a>
</g>
</g>
<!-- Node22&#45;&gt;Node26 -->
<g id="edge60_Node000022_Node000026" class="edge">
<title>Node22&#45;&gt;Node26</title>
<g id="a_edge60_Node000022_Node000026"><a xlink:title=" ">
<path fill="none" stroke="#63b8ff" d="M470.67,-315.29C449.28,-306.6 417.64,-292.09 393.5,-274 329.07,-225.72 299.85,-215.97 270.5,-141 263.18,-122.3 276.57,-102.32 289.43,-88.61"/>
<polygon fill="#63b8ff" stroke="#63b8ff" points="291.84,-91.15 296.5,-81.64 286.92,-86.17 291.84,-91.15"/>
</a>
</g>
</g>
<!-- Node27 -->
<g id="Node000027" class="node">
<title>Node27</title>
<g id="a_Node000027"><a xlink:href="formatters_8h_source.html" target="_top" xlink:title=" ">
<polygon fill="white" stroke="#666666" points="1195.38,-141 1061.62,-141 1061.62,-121.75 1195.38,-121.75 1195.38,-141"/>
<text text-anchor="middle" x="1128.5" y="-126.55" font-family="Helvetica,sans-Serif" font-size="11.00">floppy/detail/formatters.h</text>
</a>
</g>
</g>
<!-- Node22&#45;&gt;Node27 -->
<g id="edge50_Node000022_Node000027" class="edge">
<title>Node22&#45;&gt;Node27</title>
<g id="a_edge50_Node000022_Node000027"><a xlink:title=" ">
<path fill="none" stroke="#63b8ff" d="M523.13,-315.19C530.37,-313.19 538.17,-311.29 545.5,-310 753.14,-273.46 817.21,-336.71 1018.5,-274 1074.5,-256.55 1103.29,-258.36 1132.5,-207.5 1142.14,-190.71 1139.28,-168.18 1135.16,-152.18"/>
<polygon fill="#63b8ff" stroke="#63b8ff" points="1138.59,-151.46 1132.38,-142.88 1131.89,-153.46 1138.59,-151.46"/>
</a>
</g>
</g>
<!-- Node30 -->
<g id="Node000030" class="node">
<title>Node30</title>
<g id="a_Node000030"><a xlink:href="corefn_8h_source.html" target="_top" xlink:title=" ">
<polygon fill="white" stroke="#666666" points="702,-268.38 587,-268.38 587,-249.12 702,-249.12 702,-268.38"/>
<text text-anchor="middle" x="644.5" y="-253.93" font-family="Helvetica,sans-Serif" font-size="11.00">floppy/detail/corefn.h</text>
</a>
</g>
</g>
<!-- Node22&#45;&gt;Node30 -->
<g id="edge41_Node000022_Node000030" class="edge">
<title>Node22&#45;&gt;Node30</title>
<g id="a_edge41_Node000022_Node000030"><a xlink:title=" ">
<path fill="none" stroke="#63b8ff" d="M515.67,-315.15C541.02,-304.25 583.71,-285.89 612.95,-273.32"/>
<polygon fill="#63b8ff" stroke="#63b8ff" points="614.24,-276.57 622.04,-269.41 611.47,-270.14 614.24,-276.57"/>
</a>
</g>
</g>
<!-- Node32 -->
<g id="Node000032" class="node">
<title>Node32</title>
<g id="a_Node000032"><a xlink:href="print__helpers_8h_source.html" target="_top" xlink:title=" ">
<polygon fill="white" stroke="#666666" points="897,-207.5 800,-207.5 800,-177 897,-177 897,-207.5"/>
<text text-anchor="start" x="808" y="-193.05" font-family="Helvetica,sans-Serif" font-size="11.00">floppy/detail/print</text>
<text text-anchor="middle" x="848.5" y="-181.8" font-family="Helvetica,sans-Serif" font-size="11.00">_helpers.h</text>
</a>
</g>
</g>
<!-- Node22&#45;&gt;Node32 -->
<g id="edge61_Node000022_Node000032" class="edge">
<title>Node22&#45;&gt;Node32</title>
<g id="a_edge61_Node000022_Node000032"><a xlink:title=" ">
<path fill="none" stroke="#63b8ff" d="M525.98,-315.14C532.42,-313.37 539.16,-311.57 545.5,-310 618.77,-291.83 641.2,-301.52 711.5,-274 751.11,-258.5 792.67,-232.4 819.48,-214.08"/>
<polygon fill="#63b8ff" stroke="#63b8ff" points="821.19,-217.16 827.42,-208.58 817.2,-211.4 821.19,-217.16"/>
</a>
</g>
</g>
<!-- Node34 -->
<g id="Node000034" class="node">
<title>Node34</title>
<g id="a_Node000034"><a xlink:href="memory_8h_source.html" target="_top" xlink:title=" ">
<polygon fill="white" stroke="#666666" points="1123.12,-201.88 999.88,-201.88 999.88,-182.62 1123.12,-182.62 1123.12,-201.88"/>
<text text-anchor="middle" x="1061.5" y="-187.43" font-family="Helvetica,sans-Serif" font-size="11.00">floppy/detail/memory.h</text>
</a>
</g>
</g>
<!-- Node22&#45;&gt;Node34 -->
<g id="edge52_Node000022_Node000034" class="edge">
<title>Node22&#45;&gt;Node34</title>
<g id="a_edge52_Node000022_Node000034"><a xlink:title=" ">
<path fill="none" stroke="#63b8ff" d="M523.41,-315.14C530.56,-313.17 538.26,-311.3 545.5,-310 642.07,-292.72 897.11,-316.55 985.5,-274 1013.89,-260.33 1037.05,-231.13 1050.06,-211.85"/>
<polygon fill="#63b8ff" stroke="#63b8ff" points="1052.9,-213.89 1055.39,-203.59 1047.02,-210.09 1052.9,-213.89"/>
</a>
</g>
</g>
<!-- Node23&#45;&gt;Node11 -->
<g id="edge28_Node000023_Node000011" class="edge">
<title>Node23&#45;&gt;Node11</title>
<g id="a_edge28_Node000023_Node000011"><a xlink:title=" ">
<path fill="none" stroke="#63b8ff" d="M621.24,-182.29C637,-172.96 661.56,-157.44 680.5,-141 722.05,-104.94 763.3,-54.74 783.92,-28.4"/>
<polygon fill="#63b8ff" stroke="#63b8ff" points="786.5,-30.79 789.85,-20.74 780.96,-26.5 786.5,-30.79"/>
</a>
</g>
</g>
<!-- Node23&#45;&gt;Node12 -->
<g id="edge34_Node000023_Node000012" class="edge">
<title>Node23&#45;&gt;Node12</title>
<g id="a_edge34_Node000023_Node000012"><a xlink:title=" ">
<path fill="none" stroke="#63b8ff" d="M565.14,-182.18C519.46,-171.92 444.95,-155.17 395.09,-143.97"/>
<polygon fill="#63b8ff" stroke="#63b8ff" points="395.91,-140.57 385.39,-141.79 394.38,-147.39 395.91,-140.57"/>
</a>
</g>
</g>
<!-- Node23&#45;&gt;Node18 -->
<g id="edge26_Node000023_Node000018" class="edge">
<title>Node23&#45;&gt;Node18</title>
<g id="a_edge26_Node000023_Node000018"><a xlink:title=" ">
<path fill="none" stroke="#63b8ff" d="M622.84,-182.13C636.99,-173.61 655.98,-159.44 664.5,-141 681.61,-103.95 662.68,-55.88 649.33,-29.69"/>
<polygon fill="#63b8ff" stroke="#63b8ff" points="652.44,-28.09 644.62,-20.94 646.28,-31.4 652.44,-28.09"/>
</a>
</g>
</g>
<!-- Node24 -->
<g id="Node000024" class="node">
<title>Node24</title>
<g id="a_Node000024"><a xlink:title=" ">
<polygon fill="#e0e0e0" stroke="#999999" points="655,-141 606,-141 606,-121.75 655,-121.75 655,-141"/>
<text text-anchor="middle" x="630.5" y="-126.55" font-family="Helvetica,sans-Serif" font-size="11.00">ranges</text>
</a>
</g>
</g>
<!-- Node23&#45;&gt;Node24 -->
<g id="edge27_Node000023_Node000024" class="edge">
<title>Node23&#45;&gt;Node24</title>
<g id="a_edge27_Node000023_Node000024"><a xlink:title=" ">
<path fill="none" stroke="#63b8ff" d="M609.3,-182.31C612.71,-174.27 617.84,-162.18 622.21,-151.91"/>
<polygon fill="#63b8ff" stroke="#63b8ff" points="625.39,-153.37 626.08,-142.79 618.95,-150.63 625.39,-153.37"/>
</a>
</g>
</g>
<!-- Node23&#45;&gt;Node25 -->
<g id="edge29_Node000023_Node000025" class="edge">
<title>Node23&#45;&gt;Node25</title>
<g id="a_edge29_Node000023_Node000025"><a xlink:title=" ">
<path fill="none" stroke="#63b8ff" d="M593.35,-182.31C581.02,-173.23 561.67,-158.99 546.78,-148.04"/>
<polygon fill="#63b8ff" stroke="#63b8ff" points="549.11,-145.41 538.98,-142.3 544.96,-151.04 549.11,-145.41"/>
</a>
</g>
</g>
<!-- Node23&#45;&gt;Node27 -->
<g id="edge35_Node000023_Node000027" class="edge">
<title>Node23&#45;&gt;Node27</title>
<g id="a_edge35_Node000023_Node000027"><a xlink:title=" ">
<path fill="none" stroke="#63b8ff" d="M649.81,-182.16C659.87,-180.28 670.53,-178.44 680.5,-177 809.45,-158.36 960.42,-145.08 1050.06,-138.07"/>
<polygon fill="#63b8ff" stroke="#63b8ff" points="1050.27,-141.57 1059.97,-137.31 1049.73,-134.59 1050.27,-141.57"/>
</a>
</g>
</g>
<!-- Node25&#45;&gt;Node4 -->
<g id="edge30_Node000025_Node000004" class="edge">
<title>Node25&#45;&gt;Node4</title>
<g id="a_edge30_Node000025_Node000004"><a xlink:title=" ">
<path fill="none" stroke="#63b8ff" d="M463.14,-124.93C384.11,-117.7 243.82,-103.7 124.5,-85.75 110.11,-83.58 94.26,-80.65 80.85,-78.01"/>
<polygon fill="#63b8ff" stroke="#63b8ff" points="81.78,-74.63 71.28,-76.09 80.4,-81.49 81.78,-74.63"/>
</a>
</g>
</g>
<!-- Node25&#45;&gt;Node7 -->
<g id="edge31_Node000025_Node000007" class="edge">
<title>Node25&#45;&gt;Node7</title>
<g id="a_edge31_Node000025_Node000007"><a xlink:title=" ">
<path fill="none" stroke="#63b8ff" d="M582.35,-121.3C648.03,-110.82 756.06,-93.59 826.23,-82.39"/>
<polygon fill="#63b8ff" stroke="#63b8ff" points="826.77,-85.85 836.09,-80.82 825.67,-78.94 826.77,-85.85"/>
</a>
</g>
</g>
<!-- Node25&#45;&gt;Node16 -->
<g id="edge32_Node000025_Node000016" class="edge">
<title>Node25&#45;&gt;Node16</title>
<g id="a_edge32_Node000025_Node000016"><a xlink:title=" ">
<path fill="none" stroke="#63b8ff" d="M525.04,-121.43C524.64,-113.57 524.05,-101.82 523.53,-91.7"/>
<polygon fill="#63b8ff" stroke="#63b8ff" points="527.04,-91.85 523.04,-82.04 520.05,-92.2 527.04,-91.85"/>
</a>
</g>
</g>
<!-- Node25&#45;&gt;Node26 -->
<g id="edge33_Node000025_Node000026" class="edge">
<title>Node25&#45;&gt;Node26</title>
<g id="a_edge33_Node000025_Node000026"><a xlink:title=" ">
<path fill="none" stroke="#63b8ff" d="M492.07,-121.3C454.8,-111.19 394.34,-94.79 353.07,-83.59"/>
<polygon fill="#63b8ff" stroke="#63b8ff" points="354,-80.22 343.43,-80.98 352.16,-86.97 354,-80.22"/>
</a>
</g>
</g>
<!-- Node27&#45;&gt;Node9 -->
<g id="edge36_Node000027_Node000009" class="edge">
<title>Node27&#45;&gt;Node9</title>
<g id="a_edge36_Node000027_Node000009"><a xlink:title=" ">
<path fill="none" stroke="#63b8ff" d="M1132.63,-121.38C1138.77,-106.57 1148.37,-76.57 1136.5,-55.25 1128.86,-41.53 1115.07,-31.49 1101.58,-24.45"/>
<polygon fill="#63b8ff" stroke="#63b8ff" points="1103.34,-21.41 1092.81,-20.29 1100.34,-27.73 1103.34,-21.41"/>
</a>
</g>
</g>
<!-- Node27&#45;&gt;Node11 -->
<g id="edge39_Node000027_Node000011" class="edge">
<title>Node27&#45;&gt;Node11</title>
<g id="a_edge39_Node000027_Node000011"><a xlink:title=" ">
<path fill="none" stroke="#63b8ff" d="M1128.36,-121.31C1127.6,-105.28 1123.52,-72.02 1103.5,-55.25 1098.59,-51.14 930.72,-28.33 845.75,-17"/>
<polygon fill="#63b8ff" stroke="#63b8ff" points="846.46,-13.57 836.08,-15.72 845.54,-20.51 846.46,-13.57"/>
</a>
</g>
</g>
<!-- Node28 -->
<g id="Node000028" class="node">
<title>Node28</title>
<g id="a_Node000028"><a xlink:title=" ">
<polygon fill="#e0e0e0" stroke="#999999" points="1029.62,-80.12 975.38,-80.12 975.38,-60.88 1029.62,-60.88 1029.62,-80.12"/>
<text text-anchor="middle" x="1002.5" y="-65.67" font-family="Helvetica,sans-Serif" font-size="11.00">sstream</text>
</a>
</g>
</g>
<!-- Node27&#45;&gt;Node28 -->
<g id="edge37_Node000027_Node000028" class="edge">
<title>Node27&#45;&gt;Node28</title>
<g id="a_edge37_Node000027_Node000028"><a xlink:title=" ">
<path fill="none" stroke="#63b8ff" d="M1109.09,-121.3C1088.5,-111.68 1055.72,-96.37 1031.94,-85.26"/>
<polygon fill="#63b8ff" stroke="#63b8ff" points="1033.64,-82.19 1023.1,-81.12 1030.68,-88.53 1033.64,-82.19"/>
</a>
</g>
</g>
<!-- Node29 -->
<g id="Node000029" class="node">
<title>Node29</title>
<g id="a_Node000029"><a xlink:title=" ">
<polygon fill="#e0e0e0" stroke="#999999" points="1094.88,-80.12 1048.12,-80.12 1048.12,-60.88 1094.88,-60.88 1094.88,-80.12"/>
<text text-anchor="middle" x="1071.5" y="-65.67" font-family="Helvetica,sans-Serif" font-size="11.00">iosfwd</text>
</a>
</g>
</g>
<!-- Node27&#45;&gt;Node29 -->
<g id="edge38_Node000027_Node000029" class="edge">
<title>Node27&#45;&gt;Node29</title>
<g id="a_edge38_Node000027_Node000029"><a xlink:title=" ">
<path fill="none" stroke="#63b8ff" d="M1119.84,-121.43C1111.47,-112.79 1098.57,-99.46 1088.2,-88.75"/>
<polygon fill="#63b8ff" stroke="#63b8ff" points="1090.76,-86.36 1081.29,-81.61 1085.73,-91.23 1090.76,-86.36"/>
</a>
</g>
</g>
<!-- Node30&#45;&gt;Node7 -->
<g id="edge43_Node000030_Node000007" class="edge">
<title>Node30&#45;&gt;Node7</title>
<g id="a_edge43_Node000030_Node000007"><a xlink:title=" ">
<path fill="none" stroke="#63b8ff" d="M673.27,-248.77C696.36,-240.58 728.75,-226.81 752.5,-207.5 789.4,-177.5 781.74,-154.2 816.5,-121.75 831.67,-107.59 851.31,-94.96 867.1,-85.91"/>
<polygon fill="#63b8ff" stroke="#63b8ff" points="868.47,-89.15 875.5,-81.23 865.06,-83.03 868.47,-89.15"/>
</a>
</g>
</g>
<!-- Node30&#45;&gt;Node12 -->
<g id="edge45_Node000030_Node000012" class="edge">
<title>Node30&#45;&gt;Node12</title>
<g id="a_edge45_Node000030_Node000012"><a xlink:title=" ">
<path fill="none" stroke="#63b8ff" d="M622.85,-248.73C570.59,-226.96 437.28,-171.44 375.65,-145.77"/>
<polygon fill="#63b8ff" stroke="#63b8ff" points="377.33,-142.67 366.75,-142.06 374.64,-149.14 377.33,-142.67"/>
</a>
</g>
</g>
<!-- Node30&#45;&gt;Node23 -->
<g id="edge44_Node000030_Node000023" class="edge">
<title>Node30&#45;&gt;Node23</title>
<g id="a_edge44_Node000030_Node000023"><a xlink:title=" ">
<path fill="none" stroke="#63b8ff" d="M639.08,-248.78C633.31,-239.25 624.04,-223.91 616.7,-211.77"/>
<polygon fill="#63b8ff" stroke="#63b8ff" points="619.83,-210.18 611.66,-203.44 613.84,-213.81 619.83,-210.18"/>
</a>
</g>
</g>
<!-- Node31 -->
<g id="Node000031" class="node">
<title>Node31</title>
<g id="a_Node000031"><a xlink:title=" ">
<polygon fill="#e0e0e0" stroke="#999999" points="743.25,-201.88 689.75,-201.88 689.75,-182.62 743.25,-182.62 743.25,-201.88"/>
<text text-anchor="middle" x="716.5" y="-187.43" font-family="Helvetica,sans-Serif" font-size="11.00">typeinfo</text>
</a>
</g>
</g>
<!-- Node30&#45;&gt;Node31 -->
<g id="edge42_Node000030_Node000031" class="edge">
<title>Node30&#45;&gt;Node31</title>
<g id="a_edge42_Node000030_Node000031"><a xlink:title=" ">
<path fill="none" stroke="#63b8ff" d="M654.51,-248.78C665.8,-238.67 684.37,-222.03 698.25,-209.6"/>
<polygon fill="#63b8ff" stroke="#63b8ff" points="700.33,-212.43 705.45,-203.15 695.66,-207.22 700.33,-212.43"/>
</a>
</g>
</g>
<!-- Node30&#45;&gt;Node32 -->
<g id="edge46_Node000030_Node000032" class="edge">
<title>Node30&#45;&gt;Node32</title>
<g id="a_edge46_Node000030_Node000032"><a xlink:title=" ">
<path fill="none" stroke="#63b8ff" d="M673.3,-248.65C703.91,-238.96 753.14,-223.4 791.62,-211.23"/>
<polygon fill="#63b8ff" stroke="#63b8ff" points="792.25,-214.71 800.73,-208.36 790.14,-208.03 792.25,-214.71"/>
</a>
</g>
</g>
<!-- Node32&#45;&gt;Node11 -->
<g id="edge47_Node000032_Node000011" class="edge">
<title>Node32&#45;&gt;Node11</title>
<g id="a_edge47_Node000032_Node000011"><a xlink:title=" ">
<path fill="none" stroke="#63b8ff" d="M836.91,-176.74C829.87,-167.15 821.33,-153.99 816.5,-141 802.66,-103.77 798.85,-57.05 797.84,-30.86"/>
<polygon fill="#63b8ff" stroke="#63b8ff" points="801.34,-30.89 797.57,-20.99 794.34,-31.08 801.34,-30.89"/>
</a>
</g>
</g>
<!-- Node33 -->
<g id="Node000033" class="node">
<title>Node33</title>
<g id="a_Node000033"><a xlink:title=" ">
<polygon fill="#e0e0e0" stroke="#999999" points="967.25,-141 901.75,-141 901.75,-121.75 967.25,-121.75 967.25,-141"/>
<text text-anchor="middle" x="934.5" y="-126.55" font-family="Helvetica,sans-Serif" font-size="11.00">fmt/color.h</text>
</a>
</g>
</g>
<!-- Node32&#45;&gt;Node33 -->
<g id="edge48_Node000032_Node000033" class="edge">
<title>Node32&#45;&gt;Node33</title>
<g id="a_edge48_Node000032_Node000033"><a xlink:title=" ">
<path fill="none" stroke="#63b8ff" d="M869.76,-176.7C882.6,-167.9 898.95,-156.71 912.01,-147.77"/>
<polygon fill="#63b8ff" stroke="#63b8ff" points="913.72,-150.84 919.99,-142.31 909.76,-145.07 913.72,-150.84"/>
</a>
</g>
</g>
<!-- Node34&#45;&gt;Node6 -->
<g id="edge54_Node000034_Node000006" class="edge">
<title>Node34&#45;&gt;Node6</title>
<g id="a_edge54_Node000034_Node000006"><a xlink:title=" ">
<path fill="none" stroke="#63b8ff" d="M1029.61,-182.18C993.38,-171.88 934.19,-155.04 894.79,-143.84"/>
<polygon fill="#63b8ff" stroke="#63b8ff" points="895.78,-140.48 885.2,-141.11 893.86,-147.21 895.78,-140.48"/>
</a>
</g>
</g>
<!-- Node34&#45;&gt;Node7 -->
<g id="edge56_Node000034_Node000007" class="edge">
<title>Node34&#45;&gt;Node7</title>
<g id="a_edge56_Node000034_Node000007"><a xlink:title=" ">
<path fill="none" stroke="#63b8ff" d="M1056.89,-182.41C1048.96,-167.96 1031.47,-139.16 1009.5,-121.75 988.22,-104.89 960.41,-92.53 937.47,-84.3"/>
<polygon fill="#63b8ff" stroke="#63b8ff" points="938.67,-81.01 928.08,-81.07 936.4,-87.63 938.67,-81.01"/>
</a>
</g>
</g>
<!-- Node34&#45;&gt;Node12 -->
<g id="edge58_Node000034_Node000012" class="edge">
<title>Node34&#45;&gt;Node12</title>
<g id="a_edge58_Node000034_Node000012"><a xlink:title=" ">
<path fill="none" stroke="#63b8ff" d="M999.67,-185.39C971.29,-182.74 937.19,-179.63 906.5,-177 813.83,-169.07 549.3,-148.38 418.54,-138.2"/>
<polygon fill="#63b8ff" stroke="#63b8ff" points="419.2,-134.75 408.96,-137.46 418.66,-141.72 419.2,-134.75"/>
</a>
</g>
</g>
<!-- Node34&#45;&gt;Node27 -->
<g id="edge57_Node000034_Node000027" class="edge">
<title>Node34&#45;&gt;Node27</title>
<g id="a_edge57_Node000034_Node000027"><a xlink:title=" ">
<path fill="none" stroke="#63b8ff" d="M1071.68,-182.31C1081.71,-173.49 1097.29,-159.8 1109.6,-148.98"/>
<polygon fill="#63b8ff" stroke="#63b8ff" points="1111.89,-151.63 1117.09,-142.4 1107.27,-146.37 1111.89,-151.63"/>
</a>
</g>
</g>
<!-- Node35 -->
<g id="Node000035" class="node">
<title>Node35</title>
<g id="a_Node000035"><a xlink:title=" ">
<polygon fill="#e0e0e0" stroke="#999999" points="1348,-141 1293,-141 1293,-121.75 1348,-121.75 1348,-141"/>
<text text-anchor="middle" x="1320.5" y="-126.55" font-family="Helvetica,sans-Serif" font-size="11.00">memory</text>
</a>
</g>
</g>
<!-- Node34&#45;&gt;Node35 -->
<g id="edge53_Node000034_Node000035" class="edge">
<title>Node34&#45;&gt;Node35</title>
<g id="a_edge53_Node000034_Node000035"><a xlink:title=" ">
<path fill="none" stroke="#63b8ff" d="M1102.64,-182.15C1145.14,-172.72 1213.7,-157.39 1281.7,-141.63"/>
<polygon fill="#63b8ff" stroke="#63b8ff" points="1282.18,-145.11 1291.13,-139.44 1280.59,-138.29 1282.18,-145.11"/>
</a>
</g>
</g>
<!-- Node36 -->
<g id="Node000036" class="node">
<title>Node36</title>
<g id="a_Node000036"><a xlink:title=" ">
<polygon fill="#e0e0e0" stroke="#999999" points="1275.38,-141 1213.62,-141 1213.62,-121.75 1275.38,-121.75 1275.38,-141"/>
<text text-anchor="middle" x="1244.5" y="-126.55" font-family="Helvetica,sans-Serif" font-size="11.00">stdexcept</text>
</a>
</g>
</g>
<!-- Node34&#45;&gt;Node36 -->
<g id="edge55_Node000034_Node000036" class="edge">
<title>Node34&#45;&gt;Node36</title>
<g id="a_edge55_Node000034_Node000036"><a xlink:title=" ">
<path fill="none" stroke="#63b8ff" d="M1089.69,-182.18C1120.72,-172.2 1170.81,-156.08 1205.57,-144.9"/>
<polygon fill="#63b8ff" stroke="#63b8ff" points="1206.39,-148.31 1214.83,-141.92 1204.24,-141.65 1206.39,-148.31"/>
</a>
</g>
</g>
<!-- Node37&#45;&gt;Node2 -->
<g id="edge65_Node000037_Node000002" class="edge">
<title>Node37&#45;&gt;Node2</title>
<g id="a_edge65_Node000037_Node000002"><a xlink:title=" ">
<path fill="none" stroke="#63b8ff" d="M86.2,-243.11C80.23,-233.73 72.45,-221.49 66.09,-211.48"/>
<polygon fill="#63b8ff" stroke="#63b8ff" points="69.24,-209.91 60.92,-203.35 63.33,-213.67 69.24,-209.91"/>
</a>
</g>
</g>
<!-- Node37&#45;&gt;Node12 -->
<g id="edge66_Node000037_Node000012" class="edge">
<title>Node37&#45;&gt;Node12</title>
<g id="a_edge66_Node000037_Node000012"><a xlink:title=" ">
<path fill="none" stroke="#63b8ff" d="M124.43,-243.12C172.44,-218.85 267.96,-170.56 315.41,-146.58"/>
<polygon fill="#63b8ff" stroke="#63b8ff" points="316.88,-149.75 324.23,-142.12 313.72,-143.51 316.88,-149.75"/>
</a>
</g>
</g>
</g>
</svg>

<g id="navigator" transform="translate(0 0)" fill="#404254">
  <rect fill="#f2f5e9" fill-opacity="0.5" stroke="#606060" stroke-width=".5" x="0" y="0" width="60" height="60"/>
  <use id="zoomplus" xlink:href="#zoomPlus" x="17" y="9" onmousedown="handleZoom(evt,'in')"/>
  <use id="zoomminus" xlink:href="#zoomMin" x="42" y="9" onmousedown="handleZoom(evt,'out')"/>
  <use id="reset" xlink:href="#resetDef" x="30" y="36" onmousedown="handleReset()"/>
   <use id="arrowup" xlink:href="#arrowUp" x="0" y="0" onmousedown="handlePan(0,-1)"/>
  <use id="arrowright" xlink:href="#arrowRight" x="0" y="0" onmousedown="handlePan(1,0)"/>
  <use id="arrowdown" xlink:href="#arrowDown" x="0" y="0" onmousedown="handlePan(0,1)"/>
  <use id="arrowleft" xlink:href="#arrowLeft" x="0" y="0" onmousedown="handlePan(-1,0)"/>
</g>
<svg viewBox="0 0 15 15" width="100%" height="30px" preserveAspectRatio="xMaxYMin meet">
 <g id="arrow_out" transform="scale(0.3 0.3)">
  <a xlink:href="angle_8h__incl_org.svg" target="_base">
   <rect id="button" ry="5" rx="5" y="6" x="6" height="38" width="38"
        fill="#f2f5e9" fill-opacity="0.5" stroke="#606060" stroke-width="1.0"/>
   <path id="arrow"
     d="M 11.500037,31.436501 C 11.940474,20.09759 22.043105,11.32322 32.158766,21.979434 L 37.068811,17.246167 C 37.068811,17.246167 37.088388,32 37.088388,32 L 22.160133,31.978069 C 22.160133,31.978069 26.997745,27.140456 26.997745,27.140456 C 18.528582,18.264221 13.291696,25.230495 11.500037,31.436501 z"
     style="fill:#404040;"/>
  </a>
 </g>
</svg>

<style type='text/css'>
<![CDATA[
[data-mouse-over-selected='false'] { opacity: 0.7; }
[data-mouse-over-selected='true']  { opacity: 1.0; }
]]>
</style>
<script type="application/ecmascript"><![CDATA[
document.addEventListener('DOMContentLoaded', (event) => {
  highlightEdges();
  highlightAdjacentNodes();
});
]]></script>
</svg>
