<?xml version="1.0" encoding="UTF-8" standalone="no"?>
<!DOCTYPE svg PUBLIC "-//W3C//DTD SVG 1.1//EN"
 "http://www.w3.org/Graphics/SVG/1.1/DTD/svg11.dtd">
<!-- Generated by graphviz version 10.0.1 (0)
 -->
<!-- Title: angle.h Pages: 1 -->
<svg width="130pt" height="193pt"
 viewBox="0.00 0.00 129.75 193.00" xmlns="http://www.w3.org/2000/svg" xmlns:xlink="http://www.w3.org/1999/xlink">

<svg id="main" version="1.1" xmlns="http://www.w3.org/2000/svg" xmlns:xlink="http://www.w3.org/1999/xlink" xml:space="preserve" onload="init(evt)">
<style type="text/css"><![CDATA[
.node, .edge {opacity: 0.7;}
.node.selected, .edge.selected {opacity: 1;}
.edge:hover path { stroke: red; }
.edge:hover polygon { stroke: red; fill: red; }
]]></style>
<script type="application/ecmascript" xlink:href="svg.min.js"/>
<svg id="graph" class="graph">
<g id="graph0" class="graph" transform="scale(1 1) rotate(0) translate(4 189)">
<title>angle.h</title>
<!-- Node1 -->
<g id="Node000001" class="node">
<title>Node1</title>
<g id="a_Node000001"><a xlink:title="Newtype describing an angle.">
<polygon fill="#999999" stroke="#666666" points="51.25,-185 0,-185 0,-165.75 51.25,-165.75 51.25,-185"/>
<text text-anchor="middle" x="25.62" y="-170.55" font-family="Helvetica,sans-Serif" font-size="11.00">angle.h</text>
</a>
</g>
</g>
<!-- Node2 -->
<g id="Node000002" class="node">
<title>Node2</title>
<g id="a_Node000002"><a xlink:href="euclid_8h.html" target="_top" xlink:title="Small collection of classes and functions for geometric types with a focus on 2d graphics and layout.">
<polygon fill="white" stroke="#666666" points="60,-19.25 7.25,-19.25 7.25,0 60,0 60,-19.25"/>
<text text-anchor="middle" x="33.62" y="-4.8" font-family="Helvetica,sans-Serif" font-size="11.00">euclid.h</text>
</a>
</g>
</g>
<!-- Node1&#45;&gt;Node2 -->
<g id="edge1_Node000001_Node000002" class="edge">
<title>Node1&#45;&gt;Node2</title>
<g id="a_edge1_Node000001_Node000002"><a xlink:title=" ">
<path fill="none" stroke="#63b8ff" d="M19.56,-154.23C17.57,-146.63 15.61,-137.87 14.62,-129.75 9.6,-88.38 23.87,-39.34 30.47,-19.56"/>
<polygon fill="#63b8ff" stroke="#63b8ff" points="16.18,-155.14 22.28,-163.81 22.92,-153.23 16.18,-155.14"/>
</a>
</g>
</g>
<!-- Node3 -->
<g id="Node000003" class="node">
<title>Node3</title>
<g id="a_Node000003"><a xlink:href="vector2d_8h.html" target="_top" xlink:title="A two&#45;dimensional vector tagged with a unit.">
<polygon fill="white" stroke="#666666" points="89.75,-129.75 23.5,-129.75 23.5,-110.5 89.75,-110.5 89.75,-129.75"/>
<text text-anchor="middle" x="56.62" y="-115.3" font-family="Helvetica,sans-Serif" font-size="11.00">vector2d.h</text>
</a>
</g>
</g>
<!-- Node1&#45;&gt;Node3 -->
<g id="edge2_Node000001_Node000003" class="edge">
<title>Node1&#45;&gt;Node3</title>
<g id="a_edge2_Node000001_Node000003"><a xlink:title=" ">
<path fill="none" stroke="#63b8ff" d="M36.4,-155.87C41.48,-147.14 47.3,-137.14 51.39,-130.11"/>
<polygon fill="#63b8ff" stroke="#63b8ff" points="33.51,-153.87 31.51,-164.27 39.56,-157.39 33.51,-153.87"/>
</a>
</g>
</g>
<!-- Node3&#45;&gt;Node2 -->
<g id="edge3_Node000003_Node000002" class="edge">
<title>Node3&#45;&gt;Node2</title>
<g id="a_edge3_Node000003_Node000002"><a xlink:title=" ">
<path fill="none" stroke="#63b8ff" d="M52.38,-99.1C47.36,-75.4 39.21,-36.97 35.53,-19.63"/>
<polygon fill="#63b8ff" stroke="#63b8ff" points="48.93,-99.71 54.43,-108.77 55.78,-98.26 48.93,-99.71"/>
</a>
</g>
</g>
<!-- Node4 -->
<g id="Node000004" class="node">
<title>Node4</title>
<g id="a_Node000004"><a xlink:href="point2d_8h.html" target="_top" xlink:title="A two&#45;dimensional point tagged with a unit.">
<polygon fill="white" stroke="#666666" points="121.75,-74.5 61.5,-74.5 61.5,-55.25 121.75,-55.25 121.75,-74.5"/>
<text text-anchor="middle" x="91.62" y="-60.05" font-family="Helvetica,sans-Serif" font-size="11.00">point2d.h</text>
</a>
</g>
</g>
<!-- Node3&#45;&gt;Node4 -->
<g id="edge4_Node000003_Node000004" class="edge">
<title>Node3&#45;&gt;Node4</title>
<g id="a_edge4_Node000003_Node000004"><a xlink:title=" ">
<path fill="none" stroke="#63b8ff" d="M68.6,-100.9C74.38,-92.11 81.05,-81.96 85.72,-74.86"/>
<polygon fill="#63b8ff" stroke="#63b8ff" points="65.8,-98.79 63.24,-109.07 71.65,-102.63 65.8,-98.79"/>
</a>
</g>
</g>
<!-- Node4&#45;&gt;Node2 -->
<g id="edge5_Node000004_Node000002" class="edge">
<title>Node4&#45;&gt;Node2</title>
<g id="a_edge5_Node000004_Node000002"><a xlink:title=" ">
<path fill="none" stroke="#63b8ff" d="M73.36,-47.11C63.41,-37.97 51.49,-27.03 43.32,-19.52"/>
<polygon fill="#63b8ff" stroke="#63b8ff" points="70.94,-49.63 80.67,-53.82 75.67,-44.48 70.94,-49.63"/>
</a>
</g>
</g>
</g>
</svg>
</svg>

<style type='text/css'>
<![CDATA[
[data-mouse-over-selected='false'] { opacity: 0.7; }
[data-mouse-over-selected='true']  { opacity: 1.0; }
]]>
</style>
<script type="application/ecmascript"><![CDATA[
document.addEventListener('DOMContentLoaded', (event) => {
  highlightEdges();
  highlightAdjacentNodes();
});
]]></script>
</svg>
