<?xml version="1.0" encoding="UTF-8" standalone="no"?>
<!DOCTYPE svg PUBLIC "-//W3C//DTD SVG 1.1//EN"
 "http://www.w3.org/Graphics/SVG/1.1/DTD/svg11.dtd">
<!-- Generated by graphviz version 10.0.1 (0)
 -->
<!-- Title: angle.h Pages: 1 -->
<!--zoomable 459 -->

<svg id="main" version="1.1" xmlns="http://www.w3.org/2000/svg" xmlns:xlink="http://www.w3.org/1999/xlink" xml:space="preserve" onload="init(evt)">
<style type="text/css"><![CDATA[
.node, .edge {opacity: 0.7;}
.node.selected, .edge.selected {opacity: 1;}
.edge:hover path { stroke: red; }
.edge:hover polygon { stroke: red; fill: red; }
]]></style>

<defs>
  <circle id="rim" cx="0" cy="0" r="7"/>
  <circle id="rim2" cx="0" cy="0" r="3.5"/>
  <g id="zoomPlus">
    <use xlink:href="#rim" fill="#404040"><set attributeName="fill" to="#808080" begin="zoomplus.mouseover" end="zoomplus.mouseout"/></use>
    <path d="M-4,0h8M0,-4v8" fill="none" stroke="white" stroke-width="1.5" pointer-events="none"/>
  </g>
  <g id="zoomMin">
    <use xlink:href="#rim" fill="#404040"><set attributeName="fill" to="#808080" begin="zoomminus.mouseover" end="zoomminus.mouseout"/></use>
    <path d="M-4,0h8" fill="none" stroke="white" stroke-width="1.5" pointer-events="none"/>
  </g>
  <g id="arrowUp" transform="translate(30 24)">
    <use xlink:href="#rim"/>
    <path pointer-events="none" fill="none" stroke="white" stroke-width="1.5" d="M0,-3.0v7 M-2.5,-0.5L0,-3.0L2.5,-0.5"/>
  </g>
  <g id="arrowRight" transform="rotate(90) translate(36 -43)">
    <use xlink:href="#rim"/>
    <path pointer-events="none" fill="none" stroke="white" stroke-width="1.5" d="M0,-3.0v7 M-2.5,-0.5L0,-3.0L2.5,-0.5"/>
  </g>
  <g id="arrowDown" transform="rotate(180) translate(-30 -48)">
    <use xlink:href="#rim"/>
    <path pointer-events="none" fill="none" stroke="white" stroke-width="1.5" d="M0,-3.0v7 M-2.5,-0.5L0,-3.0L2.5,-0.5"/>
  </g>
  <g id="arrowLeft" transform="rotate(270) translate(-36 17)">
    <use xlink:href="#rim"/>
    <path pointer-events="none" fill="none" stroke="white" stroke-width="1.5" d="M0,-3.0v7 M-2.5,-0.5L0,-3.0L2.5,-0.5"/>
  </g>
  <g id="resetDef">
    <use xlink:href="#rim2" fill="#404040"><set attributeName="fill" to="#808080" begin="reset.mouseover" end="reset.mouseout"/></use>
  </g>
</defs>
<script type="application/ecmascript">
var viewWidth = 1385;
var viewHeight = 459;
var sectionId = 'dynsection-0';
</script>
<script type="application/ecmascript" xlink:href="svg.min.js"/>
<svg id="graph" class="graph">
<g id="viewport">
<title>angle.h</title>
<!-- Node1 -->
<g id="Node000001" class="node">
<title>Node1</title>
<g id="a_Node000001"><a xlink:title="Newtype describing an angle.">
<polygon fill="#999999" stroke="#666666" points="121.12,-451 69.88,-451 69.88,-431.75 121.12,-431.75 121.12,-451"/>
<text text-anchor="middle" x="95.5" y="-436.55" font-family="Helvetica,sans-Serif" font-size="11.00">angle.h</text>
</a>
</g>
</g>
<!-- Node2 -->
<g id="Node000002" class="node">
<title>Node2</title>
<g id="a_Node000002"><a xlink:href="math_8h_source.html" target="_top" xlink:title=" ">
<polygon fill="white" stroke="#666666" points="109,-201.88 0,-201.88 0,-182.62 109,-182.62 109,-201.88"/>
<text text-anchor="middle" x="54.5" y="-187.43" font-family="Helvetica,sans-Serif" font-size="11.00">floppy/detail/math.h</text>
</a>
</g>
</g>
<!-- Node1&#45;&gt;Node2 -->
<g id="edge1_Node000001_Node000002" class="edge">
<title>Node1&#45;&gt;Node2</title>
<g id="a_edge1_Node000001_Node000002"><a xlink:title=" ">
<path fill="none" stroke="#63b8ff" d="M90.05,-431.43C75.63,-407.2 36.71,-337.8 23.5,-274 20.75,-260.73 19.8,-256.54 23.5,-243.5 26.79,-231.89 33.61,-220.34 40.02,-211.24"/>
<polygon fill="#63b8ff" stroke="#63b8ff" points="42.74,-213.44 45.95,-203.35 37.14,-209.23 42.74,-213.44"/>
</a>
</g>
</g>
<!-- Node21 -->
<g id="Node000021" class="node">
<title>Node21</title>
<g id="a_Node000021"><a xlink:href="traits_8h_source.html" target="_top" xlink:title=" ">
<polygon fill="white" stroke="#666666" points="641.38,-395.75 561.62,-395.75 561.62,-376.5 641.38,-376.5 641.38,-395.75"/>
<text text-anchor="middle" x="601.5" y="-381.3" font-family="Helvetica,sans-Serif" font-size="11.00">floppy/traits.h</text>
</a>
</g>
</g>
<!-- Node1&#45;&gt;Node21 -->
<g id="edge22_Node000001_Node000021" class="edge">
<title>Node1&#45;&gt;Node21</title>
<g id="a_edge22_Node000001_Node000021"><a xlink:title=" ">
<path fill="none" stroke="#63b8ff" d="M121.29,-437.66C200.78,-429.3 443.1,-403.79 549.95,-392.55"/>
<polygon fill="#63b8ff" stroke="#63b8ff" points="550.3,-396.03 559.88,-391.51 549.57,-389.07 550.3,-396.03"/>
</a>
</g>
</g>
<!-- Node38 -->
<g id="Node000038" class="node">
<title>Node38</title>
<g id="a_Node000038"><a xlink:href="nt__traits_8h.html" target="_top" xlink:title=" ">
<polygon fill="white" stroke="#666666" points="147.38,-274 43.62,-274 43.62,-243.5 147.38,-243.5 147.38,-274"/>
<text text-anchor="start" x="51.62" y="-259.55" font-family="Helvetica,sans-Serif" font-size="11.00">floppy/euclid/detail</text>
<text text-anchor="middle" x="95.5" y="-248.3" font-family="Helvetica,sans-Serif" font-size="11.00">/nt_traits.h</text>
</a>
</g>
</g>
<!-- Node1&#45;&gt;Node38 -->
<g id="edge65_Node000001_Node000038" class="edge">
<title>Node1&#45;&gt;Node38</title>
<g id="a_edge65_Node000001_Node000038"><a xlink:title=" ">
<path fill="none" stroke="#63b8ff" d="M95.5,-431.66C95.5,-405.49 95.5,-326.81 95.5,-285.58"/>
<polygon fill="#63b8ff" stroke="#63b8ff" points="99,-285.84 95.5,-275.84 92,-285.84 99,-285.84"/>
</a>
</g>
</g>
<!-- Node3 -->
<g id="Node000003" class="node">
<title>Node3</title>
<g id="a_Node000003"><a xlink:title=" ">
<polygon fill="#e0e0e0" stroke="#999999" points="147.12,-141 101.88,-141 101.88,-121.75 147.12,-121.75 147.12,-141"/>
<text text-anchor="middle" x="124.5" y="-126.55" font-family="Helvetica,sans-Serif" font-size="11.00">cmath</text>
</a>
</g>
</g>
<!-- Node2&#45;&gt;Node3 -->
<g id="edge2_Node000002_Node000003" class="edge">
<title>Node2&#45;&gt;Node3</title>
<g id="a_edge2_Node000002_Node000003"><a xlink:title=" ">
<path fill="none" stroke="#63b8ff" d="M65.13,-182.31C75.72,-173.4 92.21,-159.53 105.13,-148.67"/>
<polygon fill="#63b8ff" stroke="#63b8ff" points="107.21,-151.49 112.61,-142.38 102.7,-146.13 107.21,-151.49"/>
</a>
</g>
</g>
<!-- Node4 -->
<g id="Node000004" class="node">
<title>Node4</title>
<g id="a_Node000004"><a xlink:title=" ">
<polygon fill="#e0e0e0" stroke="#999999" points="69.5,-80.12 29.5,-80.12 29.5,-60.88 69.5,-60.88 69.5,-80.12"/>
<text text-anchor="middle" x="49.5" y="-65.67" font-family="Helvetica,sans-Serif" font-size="11.00">limits</text>
</a>
</g>
</g>
<!-- Node2&#45;&gt;Node4 -->
<g id="edge3_Node000002_Node000004" class="edge">
<title>Node2&#45;&gt;Node4</title>
<g id="a_edge3_Node000002_Node000004"><a xlink:title=" ">
<path fill="none" stroke="#63b8ff" d="M44.83,-182.35C35.52,-173.07 22.07,-157.59 16.5,-141 10.29,-122.48 21.94,-102.44 33.08,-88.66"/>
<polygon fill="#63b8ff" stroke="#63b8ff" points="35.52,-91.18 39.48,-81.35 30.26,-86.56 35.52,-91.18"/>
</a>
</g>
</g>
<!-- Node5 -->
<g id="Node000005" class="node">
<title>Node5</title>
<g id="a_Node000005"><a xlink:title=" ">
<polygon fill="#e0e0e0" stroke="#999999" points="83.5,-141 25.5,-141 25.5,-121.75 83.5,-121.75 83.5,-141"/>
<text text-anchor="middle" x="54.5" y="-126.55" font-family="Helvetica,sans-Serif" font-size="11.00">numbers</text>
</a>
</g>
</g>
<!-- Node2&#45;&gt;Node5 -->
<g id="edge4_Node000002_Node000005" class="edge">
<title>Node2&#45;&gt;Node5</title>
<g id="a_edge4_Node000002_Node000005"><a xlink:title=" ">
<path fill="none" stroke="#63b8ff" d="M54.5,-182.31C54.5,-174.53 54.5,-162.95 54.5,-152.91"/>
<polygon fill="#63b8ff" stroke="#63b8ff" points="58,-152.91 54.5,-142.91 51,-152.91 58,-152.91"/>
</a>
</g>
</g>
<!-- Node6 -->
<g id="Node000006" class="node">
<title>Node6</title>
<g id="a_Node000006"><a xlink:title=" ">
<polygon fill="#e0e0e0" stroke="#999999" points="883.5,-141 825.5,-141 825.5,-121.75 883.5,-121.75 883.5,-141"/>
<text text-anchor="middle" x="854.5" y="-126.55" font-family="Helvetica,sans-Serif" font-size="11.00">compare</text>
</a>
</g>
</g>
<!-- Node2&#45;&gt;Node6 -->
<g id="edge5_Node000002_Node000006" class="edge">
<title>Node2&#45;&gt;Node6</title>
<g id="a_edge5_Node000002_Node000006"><a xlink:title=" ">
<path fill="none" stroke="#63b8ff" d="M109.49,-187.2C260.95,-176.06 681.73,-145.09 814.1,-135.35"/>
<polygon fill="#63b8ff" stroke="#63b8ff" points="814.05,-138.86 823.77,-134.64 813.54,-131.88 814.05,-138.86"/>
</a>
</g>
</g>
<!-- Node7 -->
<g id="Node000007" class="node">
<title>Node7</title>
<g id="a_Node000007"><a xlink:href="export_8h_source.html" target="_top" xlink:title=" ">
<polygon fill="white" stroke="#666666" points="946,-80.12 831,-80.12 831,-60.88 946,-60.88 946,-80.12"/>
<text text-anchor="middle" x="888.5" y="-65.67" font-family="Helvetica,sans-Serif" font-size="11.00">floppy/detail/export.h</text>
</a>
</g>
</g>
<!-- Node2&#45;&gt;Node7 -->
<g id="edge6_Node000002_Node000007" class="edge">
<title>Node2&#45;&gt;Node7</title>
<g id="a_edge6_Node000002_Node000007"><a xlink:title=" ">
<path fill="none" stroke="#63b8ff" d="M76.75,-182.2C115.42,-166.9 197.86,-136.19 270.5,-121.75 373.96,-101.18 681.23,-82.66 819.6,-75.1"/>
<polygon fill="#63b8ff" stroke="#63b8ff" points="819.55,-78.61 829.35,-74.57 819.17,-71.62 819.55,-78.61"/>
</a>
</g>
</g>
<!-- Node12 -->
<g id="Node000012" class="node">
<title>Node12</title>
<g id="a_Node000012"><a xlink:href="concepts_8h_source.html" target="_top" xlink:title=" ">
<polygon fill="white" stroke="#666666" points="407.38,-141 279.62,-141 279.62,-121.75 407.38,-121.75 407.38,-141"/>
<text text-anchor="middle" x="343.5" y="-126.55" font-family="Helvetica,sans-Serif" font-size="11.00">floppy/detail/concepts.h</text>
</a>
</g>
</g>
<!-- Node2&#45;&gt;Node12 -->
<g id="edge11_Node000002_Node000012" class="edge">
<title>Node2&#45;&gt;Node12</title>
<g id="a_edge11_Node000002_Node000012"><a xlink:title=" ">
<path fill="none" stroke="#63b8ff" d="M98.3,-182.18C106.66,-180.46 115.35,-178.67 123.5,-177 179.17,-165.61 242.79,-152.71 287.25,-143.73"/>
<polygon fill="#63b8ff" stroke="#63b8ff" points="287.81,-147.18 296.92,-141.77 286.43,-140.32 287.81,-147.18"/>
</a>
</g>
</g>
<!-- Node8 -->
<g id="Node000008" class="node">
<title>Node8</title>
<g id="a_Node000008"><a xlink:title=" ">
<polygon fill="#e0e0e0" stroke="#999999" points="909.62,-19.25 867.38,-19.25 867.38,0 909.62,0 909.62,-19.25"/>
<text text-anchor="middle" x="888.5" y="-4.8" font-family="Helvetica,sans-Serif" font-size="11.00">string</text>
</a>
</g>
</g>
<!-- Node7&#45;&gt;Node8 -->
<g id="edge7_Node000007_Node000008" class="edge">
<title>Node7&#45;&gt;Node8</title>
<g id="a_edge7_Node000007_Node000008"><a xlink:title=" ">
<path fill="none" stroke="#63b8ff" d="M888.5,-60.56C888.5,-52.78 888.5,-41.2 888.5,-31.16"/>
<polygon fill="#63b8ff" stroke="#63b8ff" points="892,-31.16 888.5,-21.16 885,-31.16 892,-31.16"/>
</a>
</g>
</g>
<!-- Node9 -->
<g id="Node000009" class="node">
<title>Node9</title>
<g id="a_Node000009"><a xlink:title=" ">
<polygon fill="#e0e0e0" stroke="#999999" points="1096.5,-19.25 1026.5,-19.25 1026.5,0 1096.5,0 1096.5,-19.25"/>
<text text-anchor="middle" x="1061.5" y="-4.8" font-family="Helvetica,sans-Serif" font-size="11.00">string_view</text>
</a>
</g>
</g>
<!-- Node7&#45;&gt;Node9 -->
<g id="edge8_Node000007_Node000009" class="edge">
<title>Node7&#45;&gt;Node9</title>
<g id="a_edge8_Node000007_Node000009"><a xlink:title=" ">
<path fill="none" stroke="#63b8ff" d="M915.15,-60.43C944.36,-50.49 991.43,-34.47 1024.27,-23.29"/>
<polygon fill="#63b8ff" stroke="#63b8ff" points="1025.05,-26.73 1033.38,-20.19 1022.79,-20.1 1025.05,-26.73"/>
</a>
</g>
</g>
<!-- Node10 -->
<g id="Node000010" class="node">
<title>Node10</title>
<g id="a_Node000010"><a xlink:title=" ">
<polygon fill="#e0e0e0" stroke="#999999" points="1291.12,-19.25 1233.88,-19.25 1233.88,0 1291.12,0 1291.12,-19.25"/>
<text text-anchor="middle" x="1262.5" y="-4.8" font-family="Helvetica,sans-Serif" font-size="11.00">iostream</text>
</a>
</g>
</g>
<!-- Node7&#45;&gt;Node10 -->
<g id="edge9_Node000007_Node000010" class="edge">
<title>Node7&#45;&gt;Node10</title>
<g id="a_edge9_Node000007_Node000010"><a xlink:title=" ">
<path fill="none" stroke="#63b8ff" d="M936.72,-60.45C946.57,-58.67 956.86,-56.86 966.5,-55.25 1057.67,-40.05 1165.03,-24.43 1222.08,-16.31"/>
<polygon fill="#63b8ff" stroke="#63b8ff" points="1222.55,-19.78 1231.96,-14.91 1221.57,-12.85 1222.55,-19.78"/>
</a>
</g>
</g>
<!-- Node11 -->
<g id="Node000011" class="node">
<title>Node11</title>
<g id="a_Node000011"><a xlink:title=" ">
<polygon fill="#e0e0e0" stroke="#999999" points="834.38,-19.25 760.62,-19.25 760.62,0 834.38,0 834.38,-19.25"/>
<text text-anchor="middle" x="797.5" y="-4.8" font-family="Helvetica,sans-Serif" font-size="11.00">fmt/format.h</text>
</a>
</g>
</g>
<!-- Node7&#45;&gt;Node11 -->
<g id="edge10_Node000007_Node000011" class="edge">
<title>Node7&#45;&gt;Node11</title>
<g id="a_edge10_Node000007_Node000011"><a xlink:title=" ">
<path fill="none" stroke="#63b8ff" d="M874.68,-60.56C860.38,-51.31 837.8,-36.7 820.75,-25.67"/>
<polygon fill="#63b8ff" stroke="#63b8ff" points="823.02,-22.97 812.72,-20.47 819.22,-28.84 823.02,-22.97"/>
</a>
</g>
</g>
<!-- Node13 -->
<g id="Node000013" class="node">
<title>Node13</title>
<g id="a_Node000013"><a xlink:title=" ">
<polygon fill="#e0e0e0" stroke="#999999" points="313.88,-80.12 255.12,-80.12 255.12,-60.88 313.88,-60.88 313.88,-80.12"/>
<text text-anchor="middle" x="284.5" y="-65.67" font-family="Helvetica,sans-Serif" font-size="11.00">concepts</text>
</a>
</g>
</g>
<!-- Node12&#45;&gt;Node13 -->
<g id="edge12_Node000012_Node000013" class="edge">
<title>Node12&#45;&gt;Node13</title>
<g id="a_edge12_Node000012_Node000013"><a xlink:title=" ">
<path fill="none" stroke="#63b8ff" d="M334.54,-121.43C325.79,-112.7 312.25,-99.19 301.46,-88.43"/>
<polygon fill="#63b8ff" stroke="#63b8ff" points="304.17,-86.18 294.62,-81.6 299.22,-91.14 304.17,-86.18"/>
</a>
</g>
</g>
<!-- Node14 -->
<g id="Node000014" class="node">
<title>Node14</title>
<g id="a_Node000014"><a xlink:href="type__traits_8h_source.html" target="_top" xlink:title=" ">
<polygon fill="white" stroke="#666666" points="236.62,-85.75 140.38,-85.75 140.38,-55.25 236.62,-55.25 236.62,-85.75"/>
<text text-anchor="start" x="148.38" y="-71.3" font-family="Helvetica,sans-Serif" font-size="11.00">floppy/detail/type</text>
<text text-anchor="middle" x="188.5" y="-60.05" font-family="Helvetica,sans-Serif" font-size="11.00">_traits.h</text>
</a>
</g>
</g>
<!-- Node12&#45;&gt;Node14 -->
<g id="edge13_Node000012_Node000014" class="edge">
<title>Node12&#45;&gt;Node14</title>
<g id="a_edge13_Node000012_Node000014"><a xlink:title=" ">
<path fill="none" stroke="#63b8ff" d="M319.62,-121.3C297.88,-113.05 265.1,-100.59 237.75,-90.21"/>
<polygon fill="#63b8ff" stroke="#63b8ff" points="239.19,-87.01 228.6,-86.73 236.71,-93.55 239.19,-87.01"/>
</a>
</g>
</g>
<!-- Node16 -->
<g id="Node000016" class="node">
<title>Node16</title>
<g id="a_Node000016"><a xlink:href="types_8h_source.html" target="_top" xlink:title=" ">
<polygon fill="white" stroke="#666666" points="581.75,-80.12 471.25,-80.12 471.25,-60.88 581.75,-60.88 581.75,-80.12"/>
<text text-anchor="middle" x="526.5" y="-65.67" font-family="Helvetica,sans-Serif" font-size="11.00">floppy/detail/types.h</text>
</a>
</g>
</g>
<!-- Node12&#45;&gt;Node16 -->
<g id="edge15_Node000012_Node000016" class="edge">
<title>Node12&#45;&gt;Node16</title>
<g id="a_edge15_Node000012_Node000016"><a xlink:title=" ">
<path fill="none" stroke="#63b8ff" d="M371.69,-121.3C402.72,-111.32 452.81,-95.21 487.57,-84.02"/>
<polygon fill="#63b8ff" stroke="#63b8ff" points="488.39,-87.44 496.83,-81.04 486.24,-80.77 488.39,-87.44"/>
</a>
</g>
</g>
<!-- Node15 -->
<g id="Node000015" class="node">
<title>Node15</title>
<g id="a_Node000015"><a xlink:title=" ">
<polygon fill="#e0e0e0" stroke="#999999" points="307.25,-19.25 241.75,-19.25 241.75,0 307.25,0 307.25,-19.25"/>
<text text-anchor="middle" x="274.5" y="-4.8" font-family="Helvetica,sans-Serif" font-size="11.00">type_traits</text>
</a>
</g>
</g>
<!-- Node14&#45;&gt;Node15 -->
<g id="edge14_Node000014_Node000015" class="edge">
<title>Node14&#45;&gt;Node15</title>
<g id="a_edge14_Node000014_Node000015"><a xlink:title=" ">
<path fill="none" stroke="#63b8ff" d="M209.76,-54.95C222.6,-46.15 238.95,-34.96 252.01,-26.02"/>
<polygon fill="#63b8ff" stroke="#63b8ff" points="253.72,-29.09 259.99,-20.56 249.76,-23.32 253.72,-29.09"/>
</a>
</g>
</g>
<!-- Node16&#45;&gt;Node11 -->
<g id="edge20_Node000016_Node000011" class="edge">
<title>Node16&#45;&gt;Node11</title>
<g id="a_edge20_Node000016_Node000011"><a xlink:title=" ">
<path fill="none" stroke="#63b8ff" d="M568.25,-60.43C617.11,-49.81 697.88,-32.27 749.35,-21.09"/>
<polygon fill="#63b8ff" stroke="#63b8ff" points="749.99,-24.53 759.02,-18.99 748.5,-17.69 749.99,-24.53"/>
</a>
</g>
</g>
<!-- Node16&#45;&gt;Node15 -->
<g id="edge19_Node000016_Node000015" class="edge">
<title>Node16&#45;&gt;Node15</title>
<g id="a_edge19_Node000016_Node000015"><a xlink:title=" ">
<path fill="none" stroke="#63b8ff" d="M487.68,-60.43C442.05,-49.77 366.5,-32.12 318.67,-20.94"/>
<polygon fill="#63b8ff" stroke="#63b8ff" points="319.74,-17.6 309.2,-18.73 318.15,-24.42 319.74,-17.6"/>
</a>
</g>
</g>
<!-- Node17 -->
<g id="Node000017" class="node">
<title>Node17</title>
<g id="a_Node000017"><a xlink:title=" ">
<polygon fill="#e0e0e0" stroke="#999999" points="639.75,-19.25 589.25,-19.25 589.25,0 639.75,0 639.75,-19.25"/>
<text text-anchor="middle" x="614.5" y="-4.8" font-family="Helvetica,sans-Serif" font-size="11.00">cstddef</text>
</a>
</g>
</g>
<!-- Node16&#45;&gt;Node17 -->
<g id="edge16_Node000016_Node000017" class="edge">
<title>Node16&#45;&gt;Node17</title>
<g id="a_edge16_Node000016_Node000017"><a xlink:title=" ">
<path fill="none" stroke="#63b8ff" d="M539.87,-60.56C553.56,-51.39 575.12,-36.97 591.56,-25.98"/>
<polygon fill="#63b8ff" stroke="#63b8ff" points="593.39,-28.96 599.75,-20.49 589.49,-23.14 593.39,-28.96"/>
</a>
</g>
</g>
<!-- Node18 -->
<g id="Node000018" class="node">
<title>Node18</title>
<g id="a_Node000018"><a xlink:title=" ">
<polygon fill="#e0e0e0" stroke="#999999" points="705.88,-19.25 659.12,-19.25 659.12,0 705.88,0 705.88,-19.25"/>
<text text-anchor="middle" x="682.5" y="-4.8" font-family="Helvetica,sans-Serif" font-size="11.00">cstdint</text>
</a>
</g>
</g>
<!-- Node16&#45;&gt;Node18 -->
<g id="edge17_Node000016_Node000018" class="edge">
<title>Node16&#45;&gt;Node18</title>
<g id="a_edge17_Node000016_Node000018"><a xlink:title=" ">
<path fill="none" stroke="#63b8ff" d="M550.53,-60.43C576.6,-50.59 618.45,-34.8 648.02,-23.64"/>
<polygon fill="#63b8ff" stroke="#63b8ff" points="649.16,-26.95 657.28,-20.14 646.69,-20.4 649.16,-26.95"/>
</a>
</g>
</g>
<!-- Node19 -->
<g id="Node000019" class="node">
<title>Node19</title>
<g id="a_Node000019"><a xlink:title=" ">
<polygon fill="#e0e0e0" stroke="#999999" points="464.25,-19.25 410.75,-19.25 410.75,0 464.25,0 464.25,-19.25"/>
<text text-anchor="middle" x="437.5" y="-4.8" font-family="Helvetica,sans-Serif" font-size="11.00">optional</text>
</a>
</g>
</g>
<!-- Node16&#45;&gt;Node19 -->
<g id="edge18_Node000016_Node000019" class="edge">
<title>Node16&#45;&gt;Node19</title>
<g id="a_edge18_Node000016_Node000019"><a xlink:title=" ">
<path fill="none" stroke="#63b8ff" d="M512.98,-60.56C499.13,-51.39 477.32,-36.97 460.7,-25.98"/>
<polygon fill="#63b8ff" stroke="#63b8ff" points="462.68,-23.08 452.41,-20.49 458.82,-28.92 462.68,-23.08"/>
</a>
</g>
</g>
<!-- Node20 -->
<g id="Node000020" class="node">
<title>Node20</title>
<g id="a_Node000020"><a xlink:title=" ">
<polygon fill="#e0e0e0" stroke="#999999" points="570.88,-19.25 482.12,-19.25 482.12,0 570.88,0 570.88,-19.25"/>
<text text-anchor="middle" x="526.5" y="-4.8" font-family="Helvetica,sans-Serif" font-size="11.00">tl/expected.hpp</text>
</a>
</g>
</g>
<!-- Node16&#45;&gt;Node20 -->
<g id="edge21_Node000016_Node000020" class="edge">
<title>Node16&#45;&gt;Node20</title>
<g id="a_edge21_Node000016_Node000020"><a xlink:title=" ">
<path fill="none" stroke="#63b8ff" d="M526.5,-60.56C526.5,-52.78 526.5,-41.2 526.5,-31.16"/>
<polygon fill="#63b8ff" stroke="#63b8ff" points="530,-31.16 526.5,-21.16 523,-31.16 530,-31.16"/>
</a>
</g>
</g>
<!-- Node21&#45;&gt;Node10 -->
<g id="edge23_Node000021_Node000010" class="edge">
<title>Node21&#45;&gt;Node10</title>
<g id="a_edge23_Node000021_Node000010"><a xlink:title=" ">
<path fill="none" stroke="#63b8ff" d="M641.81,-382.91C800.89,-373.65 1376.5,-334.93 1376.5,-259.75 1376.5,-259.75 1376.5,-259.75 1376.5,-130.38 1376.5,-81.08 1325.2,-44.03 1291.42,-24.98"/>
<polygon fill="#63b8ff" stroke="#63b8ff" points="1293.37,-22.06 1282.91,-20.38 1290.04,-28.22 1293.37,-22.06"/>
</a>
</g>
</g>
<!-- Node22 -->
<g id="Node000022" class="node">
<title>Node22</title>
<g id="a_Node000022"><a xlink:title=" ">
<polygon fill="#e0e0e0" stroke="#999999" points="729.12,-340.5 599.88,-340.5 599.88,-310 729.12,-310 729.12,-340.5"/>
<text text-anchor="start" x="607.88" y="-326.05" font-family="Helvetica,sans-Serif" font-size="11.00">experimental/propagate</text>
<text text-anchor="middle" x="664.5" y="-314.8" font-family="Helvetica,sans-Serif" font-size="11.00">_const</text>
</a>
</g>
</g>
<!-- Node21&#45;&gt;Node22 -->
<g id="edge24_Node000021_Node000022" class="edge">
<title>Node21&#45;&gt;Node22</title>
<g id="a_edge24_Node000021_Node000022"><a xlink:title=" ">
<path fill="none" stroke="#63b8ff" d="M611.07,-376.18C618.92,-368.84 630.38,-358.13 640.68,-348.51"/>
<polygon fill="#63b8ff" stroke="#63b8ff" points="642.93,-351.2 647.84,-341.82 638.15,-346.09 642.93,-351.2"/>
</a>
</g>
</g>
<!-- Node23 -->
<g id="Node000023" class="node">
<title>Node23</title>
<g id="a_Node000023"><a xlink:href="floppy_8h_source.html" target="_top" xlink:title=" ">
<polygon fill="white" stroke="#666666" points="582,-334.88 497,-334.88 497,-315.62 582,-315.62 582,-334.88"/>
<text text-anchor="middle" x="539.5" y="-320.43" font-family="Helvetica,sans-Serif" font-size="11.00">floppy/floppy.h</text>
</a>
</g>
</g>
<!-- Node21&#45;&gt;Node23 -->
<g id="edge25_Node000021_Node000023" class="edge">
<title>Node21&#45;&gt;Node23</title>
<g id="a_edge25_Node000021_Node000023"><a xlink:title=" ">
<path fill="none" stroke="#63b8ff" d="M592.08,-376.18C582.89,-367.45 568.66,-353.94 557.33,-343.18"/>
<polygon fill="#63b8ff" stroke="#63b8ff" points="559.76,-340.67 550.1,-336.32 554.94,-345.74 559.76,-340.67"/>
</a>
</g>
</g>
<!-- Node23&#45;&gt;Node2 -->
<g id="edge52_Node000023_Node000002" class="edge">
<title>Node23&#45;&gt;Node2</title>
<g id="a_edge52_Node000023_Node000002"><a xlink:title=" ">
<path fill="none" stroke="#63b8ff" d="M496.56,-323.21C380.17,-319.94 65.29,-308 34.5,-274 19.02,-256.91 30.63,-229.72 41.56,-211.69"/>
<polygon fill="#63b8ff" stroke="#63b8ff" points="44.34,-213.82 46.88,-203.54 38.48,-210 44.34,-213.82"/>
</a>
</g>
</g>
<!-- Node23&#45;&gt;Node7 -->
<g id="edge50_Node000023_Node000007" class="edge">
<title>Node23&#45;&gt;Node7</title>
<g id="a_edge50_Node000023_Node000007"><a xlink:title=" ">
<path fill="none" stroke="#63b8ff" d="M570.11,-315.13C576.8,-313.3 583.86,-311.48 590.5,-310 684.2,-289.05 714,-308.75 803.5,-274 854.3,-254.28 863.67,-241.19 906.5,-207.5 945.17,-177.08 1001.2,-164.3 976.5,-121.75 966.48,-104.49 948.06,-92.66 930.65,-84.83"/>
<polygon fill="#63b8ff" stroke="#63b8ff" points="932,-81.61 921.42,-81.04 929.34,-88.08 932,-81.61"/>
</a>
</g>
</g>
<!-- Node23&#45;&gt;Node12 -->
<g id="edge41_Node000023_Node000012" class="edge">
<title>Node23&#45;&gt;Node12</title>
<g id="a_edge41_Node000023_Node000012"><a xlink:title=" ">
<path fill="none" stroke="#63b8ff" d="M501.93,-315.2C476.8,-307.6 444.29,-294.61 421.5,-274 383.43,-239.59 359.96,-182.1 349.65,-152.05"/>
<polygon fill="#63b8ff" stroke="#63b8ff" points="353.04,-151.17 346.6,-142.75 346.39,-153.35 353.04,-151.17"/>
</a>
</g>
</g>
<!-- Node23&#45;&gt;Node14 -->
<g id="edge63_Node000023_Node000014" class="edge">
<title>Node23&#45;&gt;Node14</title>
<g id="a_edge63_Node000023_Node000014"><a xlink:title=" ">
<path fill="none" stroke="#63b8ff" d="M496.65,-320.39C455.02,-315.06 391.26,-302.61 343.5,-274 271.35,-230.78 220.93,-140.2 199.72,-96.34"/>
<polygon fill="#63b8ff" stroke="#63b8ff" points="202.92,-94.94 195.49,-87.38 196.59,-97.92 202.92,-94.94"/>
</a>
</g>
</g>
<!-- Node23&#45;&gt;Node16 -->
<g id="edge64_Node000023_Node000016" class="edge">
<title>Node23&#45;&gt;Node16</title>
<g id="a_edge64_Node000023_Node000016"><a xlink:title=" ">
<path fill="none" stroke="#63b8ff" d="M533.55,-315.23C516.95,-289.42 470.29,-212.58 454.5,-141 452.66,-132.65 450.54,-129.34 454.5,-121.75 462.8,-105.83 478.71,-93.92 493.47,-85.7"/>
<polygon fill="#63b8ff" stroke="#63b8ff" points="494.76,-88.97 502.05,-81.29 491.55,-82.75 494.76,-88.97"/>
</a>
</g>
</g>
<!-- Node24 -->
<g id="Node000024" class="node">
<title>Node24</title>
<g id="a_Node000024"><a xlink:href="backports_8h_source.html" target="_top" xlink:title=" ">
<polygon fill="white" stroke="#666666" points="671.62,-201.88 539.38,-201.88 539.38,-182.62 671.62,-182.62 671.62,-201.88"/>
<text text-anchor="middle" x="605.5" y="-187.43" font-family="Helvetica,sans-Serif" font-size="11.00">floppy/detail/backports.h</text>
</a>
</g>
</g>
<!-- Node23&#45;&gt;Node24 -->
<g id="edge26_Node000023_Node000024" class="edge">
<title>Node23&#45;&gt;Node24</title>
<g id="a_edge26_Node000023_Node000024"><a xlink:title=" ">
<path fill="none" stroke="#63b8ff" d="M544.04,-315.25C554.68,-294.12 581.45,-240.99 595.9,-212.31"/>
<polygon fill="#63b8ff" stroke="#63b8ff" points="598.88,-214.17 600.25,-203.67 592.63,-211.02 598.88,-214.17"/>
</a>
</g>
</g>
<!-- Node26 -->
<g id="Node000026" class="node">
<title>Node26</title>
<g id="a_Node000026"><a xlink:href="platform_8h_source.html" target="_top" xlink:title=" ">
<polygon fill="white" stroke="#666666" points="587.5,-141 463.5,-141 463.5,-121.75 587.5,-121.75 587.5,-141"/>
<text text-anchor="middle" x="525.5" y="-126.55" font-family="Helvetica,sans-Serif" font-size="11.00">floppy/detail/platform.h</text>
</a>
</g>
</g>
<!-- Node23&#45;&gt;Node26 -->
<g id="edge60_Node000023_Node000026" class="edge">
<title>Node23&#45;&gt;Node26</title>
<g id="a_edge60_Node000023_Node000026"><a xlink:title=" ">
<path fill="none" stroke="#63b8ff" d="M538.77,-315.17C537.19,-295.53 533.38,-247.65 530.5,-207.5 529.15,-188.76 527.74,-167.38 526.76,-152.23"/>
<polygon fill="#63b8ff" stroke="#63b8ff" points="530.28,-152.43 526.15,-142.68 523.3,-152.88 530.28,-152.43"/>
</a>
</g>
</g>
<!-- Node27 -->
<g id="Node000027" class="node">
<title>Node27</title>
<g id="a_Node000027"><a xlink:href="predefs_8h_source.html" target="_top" xlink:title=" ">
<polygon fill="white" stroke="#666666" points="453,-80.12 332,-80.12 332,-60.88 453,-60.88 453,-80.12"/>
<text text-anchor="middle" x="392.5" y="-65.67" font-family="Helvetica,sans-Serif" font-size="11.00">floppy/detail/predefs.h</text>
</a>
</g>
</g>
<!-- Node23&#45;&gt;Node27 -->
<g id="edge61_Node000023_Node000027" class="edge">
<title>Node23&#45;&gt;Node27</title>
<g id="a_edge61_Node000023_Node000027"><a xlink:title=" ">
<path fill="none" stroke="#63b8ff" d="M496.76,-315.62C465.99,-308.03 424.44,-294.88 392.5,-274 325.36,-230.11 299.59,-215.75 270.5,-141 267.4,-133.03 265.74,-128.86 270.5,-121.75 279.73,-107.96 317.61,-93.68 348.74,-83.88"/>
<polygon fill="#63b8ff" stroke="#63b8ff" points="349.43,-87.33 357.96,-81.06 347.38,-80.64 349.43,-87.33"/>
</a>
</g>
</g>
<!-- Node28 -->
<g id="Node000028" class="node">
<title>Node28</title>
<g id="a_Node000028"><a xlink:href="formatters_8h_source.html" target="_top" xlink:title=" ">
<polygon fill="white" stroke="#666666" points="1195.38,-141 1061.62,-141 1061.62,-121.75 1195.38,-121.75 1195.38,-141"/>
<text text-anchor="middle" x="1128.5" y="-126.55" font-family="Helvetica,sans-Serif" font-size="11.00">floppy/detail/formatters.h</text>
</a>
</g>
</g>
<!-- Node23&#45;&gt;Node28 -->
<g id="edge51_Node000023_Node000028" class="edge">
<title>Node23&#45;&gt;Node28</title>
<g id="a_edge51_Node000023_Node000028"><a xlink:title=" ">
<path fill="none" stroke="#63b8ff" d="M568.41,-315.15C575.57,-313.18 583.26,-311.3 590.5,-310 778.81,-276.1 837.05,-331.62 1019.5,-274 1075.43,-256.34 1104.29,-258.36 1133.5,-207.5 1143.15,-190.7 1139.95,-168.17 1135.54,-152.18"/>
<polygon fill="#63b8ff" stroke="#63b8ff" points="1138.95,-151.34 1132.59,-142.87 1132.28,-153.46 1138.95,-151.34"/>
</a>
</g>
</g>
<!-- Node31 -->
<g id="Node000031" class="node">
<title>Node31</title>
<g id="a_Node000031"><a xlink:href="corefn_8h_source.html" target="_top" xlink:title=" ">
<polygon fill="white" stroke="#666666" points="762,-268.38 647,-268.38 647,-249.12 762,-249.12 762,-268.38"/>
<text text-anchor="middle" x="704.5" y="-253.93" font-family="Helvetica,sans-Serif" font-size="11.00">floppy/detail/corefn.h</text>
</a>
</g>
</g>
<!-- Node23&#45;&gt;Node31 -->
<g id="edge42_Node000023_Node000031" class="edge">
<title>Node23&#45;&gt;Node31</title>
<g id="a_edge42_Node000023_Node000031"><a xlink:title=" ">
<path fill="none" stroke="#63b8ff" d="M562.79,-315.15C590.92,-304.15 638.46,-285.56 670.64,-272.99"/>
<polygon fill="#63b8ff" stroke="#63b8ff" points="671.88,-276.26 679.92,-269.36 669.33,-269.74 671.88,-276.26"/>
</a>
</g>
</g>
<!-- Node33 -->
<g id="Node000033" class="node">
<title>Node33</title>
<g id="a_Node000033"><a xlink:href="print__helpers_8h_source.html" target="_top" xlink:title=" ">
<polygon fill="white" stroke="#666666" points="897,-207.5 800,-207.5 800,-177 897,-177 897,-207.5"/>
<text text-anchor="start" x="808" y="-193.05" font-family="Helvetica,sans-Serif" font-size="11.00">floppy/detail/print</text>
<text text-anchor="middle" x="848.5" y="-181.8" font-family="Helvetica,sans-Serif" font-size="11.00">_helpers.h</text>
</a>
</g>
</g>
<!-- Node23&#45;&gt;Node33 -->
<g id="edge62_Node000023_Node000033" class="edge">
<title>Node23&#45;&gt;Node33</title>
<g id="a_edge62_Node000023_Node000033"><a xlink:title=" ">
<path fill="none" stroke="#63b8ff" d="M570.69,-315.13C577.21,-313.34 584.06,-311.54 590.5,-310 670.28,-290.95 699.63,-313.52 771.5,-274 796.54,-260.23 818.28,-235.53 832.22,-217.05"/>
<polygon fill="#63b8ff" stroke="#63b8ff" points="835.01,-219.17 838.06,-209.02 829.35,-215.05 835.01,-219.17"/>
</a>
</g>
</g>
<!-- Node35 -->
<g id="Node000035" class="node">
<title>Node35</title>
<g id="a_Node000035"><a xlink:href="memory_8h_source.html" target="_top" xlink:title=" ">
<polygon fill="white" stroke="#666666" points="1124.12,-201.88 1000.88,-201.88 1000.88,-182.62 1124.12,-182.62 1124.12,-201.88"/>
<text text-anchor="middle" x="1062.5" y="-187.43" font-family="Helvetica,sans-Serif" font-size="11.00">floppy/detail/memory.h</text>
</a>
</g>
</g>
<!-- Node23&#45;&gt;Node35 -->
<g id="edge53_Node000023_Node000035" class="edge">
<title>Node23&#45;&gt;Node35</title>
<g id="a_edge53_Node000023_Node000035"><a xlink:title=" ">
<path fill="none" stroke="#63b8ff" d="M568.41,-315.19C575.57,-313.22 583.27,-311.33 590.5,-310 677.41,-294.04 907.06,-312.69 986.5,-274 1014.83,-260.2 1038,-231.04 1051.03,-211.8"/>
<polygon fill="#63b8ff" stroke="#63b8ff" points="1053.87,-213.85 1056.37,-203.56 1048,-210.05 1053.87,-213.85"/>
</a>
</g>
</g>
<!-- Node24&#45;&gt;Node11 -->
<g id="edge29_Node000024_Node000011" class="edge">
<title>Node24&#45;&gt;Node11</title>
<g id="a_edge29_Node000024_Node000011"><a xlink:title=" ">
<path fill="none" stroke="#63b8ff" d="M622.02,-182.23C638.25,-172.97 663.3,-157.6 682.5,-141 723.79,-105.28 764.15,-54.95 784.27,-28.48"/>
<polygon fill="#63b8ff" stroke="#63b8ff" points="786.84,-30.9 790.05,-20.8 781.24,-26.69 786.84,-30.9"/>
</a>
</g>
</g>
<!-- Node24&#45;&gt;Node12 -->
<g id="edge35_Node000024_Node000012" class="edge">
<title>Node24&#45;&gt;Node12</title>
<g id="a_edge35_Node000024_Node000012"><a xlink:title=" ">
<path fill="none" stroke="#63b8ff" d="M565.14,-182.18C519.46,-171.92 444.95,-155.17 395.09,-143.97"/>
<polygon fill="#63b8ff" stroke="#63b8ff" points="395.91,-140.57 385.39,-141.79 394.38,-147.39 395.91,-140.57"/>
</a>
</g>
</g>
<!-- Node24&#45;&gt;Node18 -->
<g id="edge27_Node000024_Node000018" class="edge">
<title>Node24&#45;&gt;Node18</title>
<g id="a_edge27_Node000024_Node000018"><a xlink:title=" ">
<path fill="none" stroke="#63b8ff" d="M621.66,-182.16C635.47,-173.48 654.61,-159.05 664.5,-141 683.75,-105.87 685.08,-57.71 684,-30.85"/>
<polygon fill="#63b8ff" stroke="#63b8ff" points="687.5,-30.81 683.43,-21.03 680.51,-31.21 687.5,-30.81"/>
</a>
</g>
</g>
<!-- Node25 -->
<g id="Node000025" class="node">
<title>Node25</title>
<g id="a_Node000025"><a xlink:title=" ">
<polygon fill="#e0e0e0" stroke="#999999" points="655,-141 606,-141 606,-121.75 655,-121.75 655,-141"/>
<text text-anchor="middle" x="630.5" y="-126.55" font-family="Helvetica,sans-Serif" font-size="11.00">ranges</text>
</a>
</g>
</g>
<!-- Node24&#45;&gt;Node25 -->
<g id="edge28_Node000024_Node000025" class="edge">
<title>Node24&#45;&gt;Node25</title>
<g id="a_edge28_Node000024_Node000025"><a xlink:title=" ">
<path fill="none" stroke="#63b8ff" d="M609.3,-182.31C612.71,-174.27 617.84,-162.18 622.21,-151.91"/>
<polygon fill="#63b8ff" stroke="#63b8ff" points="625.39,-153.37 626.08,-142.79 618.95,-150.63 625.39,-153.37"/>
</a>
</g>
</g>
<!-- Node24&#45;&gt;Node26 -->
<g id="edge30_Node000024_Node000026" class="edge">
<title>Node24&#45;&gt;Node26</title>
<g id="a_edge30_Node000024_Node000026"><a xlink:title=" ">
<path fill="none" stroke="#63b8ff" d="M593.35,-182.31C581.02,-173.23 561.67,-158.99 546.78,-148.04"/>
<polygon fill="#63b8ff" stroke="#63b8ff" points="549.11,-145.41 538.98,-142.3 544.96,-151.04 549.11,-145.41"/>
</a>
</g>
</g>
<!-- Node24&#45;&gt;Node28 -->
<g id="edge36_Node000024_Node000028" class="edge">
<title>Node24&#45;&gt;Node28</title>
<g id="a_edge36_Node000024_Node000028"><a xlink:title=" ">
<path fill="none" stroke="#63b8ff" d="M649.81,-182.16C659.87,-180.28 670.53,-178.44 680.5,-177 809.45,-158.36 960.42,-145.08 1050.06,-138.07"/>
<polygon fill="#63b8ff" stroke="#63b8ff" points="1050.27,-141.57 1059.97,-137.31 1049.73,-134.59 1050.27,-141.57"/>
</a>
</g>
</g>
<!-- Node26&#45;&gt;Node4 -->
<g id="edge31_Node000026_Node000004" class="edge">
<title>Node26&#45;&gt;Node4</title>
<g id="a_edge31_Node000026_Node000004"><a xlink:title=" ">
<path fill="none" stroke="#63b8ff" d="M463.26,-124.48C385.47,-116.84 248.37,-102.51 131.5,-85.75 114.63,-83.33 95.9,-80.12 80.61,-77.35"/>
<polygon fill="#63b8ff" stroke="#63b8ff" points="81.62,-73.98 71.15,-75.62 80.36,-80.87 81.62,-73.98"/>
</a>
</g>
</g>
<!-- Node26&#45;&gt;Node7 -->
<g id="edge32_Node000026_Node000007" class="edge">
<title>Node26&#45;&gt;Node7</title>
<g id="a_edge32_Node000026_Node000007"><a xlink:title=" ">
<path fill="none" stroke="#63b8ff" d="M581.42,-121.3C646.04,-110.82 752.31,-93.59 821.34,-82.39"/>
<polygon fill="#63b8ff" stroke="#63b8ff" points="821.71,-85.88 831.02,-80.82 820.59,-78.97 821.71,-85.88"/>
</a>
</g>
</g>
<!-- Node26&#45;&gt;Node16 -->
<g id="edge33_Node000026_Node000016" class="edge">
<title>Node26&#45;&gt;Node16</title>
<g id="a_edge33_Node000026_Node000016"><a xlink:title=" ">
<path fill="none" stroke="#63b8ff" d="M525.65,-121.43C525.78,-113.65 525.98,-102.08 526.15,-92.03"/>
<polygon fill="#63b8ff" stroke="#63b8ff" points="529.65,-92.1 526.32,-82.04 522.65,-91.98 529.65,-92.1"/>
</a>
</g>
</g>
<!-- Node26&#45;&gt;Node27 -->
<g id="edge34_Node000026_Node000027" class="edge">
<title>Node26&#45;&gt;Node27</title>
<g id="a_edge34_Node000026_Node000027"><a xlink:title=" ">
<path fill="none" stroke="#63b8ff" d="M505.01,-121.3C483.18,-111.64 448.36,-96.23 423.24,-85.11"/>
<polygon fill="#63b8ff" stroke="#63b8ff" points="424.74,-81.94 414.18,-81.1 421.91,-88.34 424.74,-81.94"/>
</a>
</g>
</g>
<!-- Node28&#45;&gt;Node9 -->
<g id="edge37_Node000028_Node000009" class="edge">
<title>Node28&#45;&gt;Node9</title>
<g id="a_edge37_Node000028_Node000009"><a xlink:title=" ">
<path fill="none" stroke="#63b8ff" d="M1132.67,-121.35C1138.87,-106.51 1148.56,-76.46 1136.5,-55.25 1128.62,-41.4 1114.56,-31.39 1100.72,-24.41"/>
<polygon fill="#63b8ff" stroke="#63b8ff" points="1102.21,-21.25 1091.66,-20.28 1099.31,-27.62 1102.21,-21.25"/>
</a>
</g>
</g>
<!-- Node28&#45;&gt;Node11 -->
<g id="edge40_Node000028_Node000011" class="edge">
<title>Node28&#45;&gt;Node11</title>
<g id="a_edge40_Node000028_Node000011"><a xlink:title=" ">
<path fill="none" stroke="#63b8ff" d="M1128.36,-121.31C1127.6,-105.28 1123.52,-72.02 1103.5,-55.25 1102.27,-54.22 932.16,-29.83 846.14,-17.56"/>
<polygon fill="#63b8ff" stroke="#63b8ff" points="846.73,-14.1 836.34,-16.16 845.74,-21.03 846.73,-14.1"/>
</a>
</g>
</g>
<!-- Node29 -->
<g id="Node000029" class="node">
<title>Node29</title>
<g id="a_Node000029"><a xlink:title=" ">
<polygon fill="#e0e0e0" stroke="#999999" points="1029.62,-80.12 975.38,-80.12 975.38,-60.88 1029.62,-60.88 1029.62,-80.12"/>
<text text-anchor="middle" x="1002.5" y="-65.67" font-family="Helvetica,sans-Serif" font-size="11.00">sstream</text>
</a>
</g>
</g>
<!-- Node28&#45;&gt;Node29 -->
<g id="edge38_Node000028_Node000029" class="edge">
<title>Node28&#45;&gt;Node29</title>
<g id="a_edge38_Node000028_Node000029"><a xlink:title=" ">
<path fill="none" stroke="#63b8ff" d="M1109.09,-121.3C1088.5,-111.68 1055.72,-96.37 1031.94,-85.26"/>
<polygon fill="#63b8ff" stroke="#63b8ff" points="1033.64,-82.19 1023.1,-81.12 1030.68,-88.53 1033.64,-82.19"/>
</a>
</g>
</g>
<!-- Node30 -->
<g id="Node000030" class="node">
<title>Node30</title>
<g id="a_Node000030"><a xlink:title=" ">
<polygon fill="#e0e0e0" stroke="#999999" points="1094.88,-80.12 1048.12,-80.12 1048.12,-60.88 1094.88,-60.88 1094.88,-80.12"/>
<text text-anchor="middle" x="1071.5" y="-65.67" font-family="Helvetica,sans-Serif" font-size="11.00">iosfwd</text>
</a>
</g>
</g>
<!-- Node28&#45;&gt;Node30 -->
<g id="edge39_Node000028_Node000030" class="edge">
<title>Node28&#45;&gt;Node30</title>
<g id="a_edge39_Node000028_Node000030"><a xlink:title=" ">
<path fill="none" stroke="#63b8ff" d="M1119.84,-121.43C1111.47,-112.79 1098.57,-99.46 1088.2,-88.75"/>
<polygon fill="#63b8ff" stroke="#63b8ff" points="1090.76,-86.36 1081.29,-81.61 1085.73,-91.23 1090.76,-86.36"/>
</a>
</g>
</g>
<!-- Node31&#45;&gt;Node7 -->
<g id="edge44_Node000031_Node000007" class="edge">
<title>Node31&#45;&gt;Node7</title>
<g id="a_edge44_Node000031_Node000007"><a xlink:title=" ">
<path fill="none" stroke="#63b8ff" d="M713.69,-248.8C723.62,-238.98 739.73,-222.61 752.5,-207.5 783.2,-171.18 782.34,-154.84 816.5,-121.75 830.56,-108.13 848.62,-95.54 863.14,-86.36"/>
<polygon fill="#63b8ff" stroke="#63b8ff" points="864.56,-89.6 871.24,-81.38 860.89,-83.64 864.56,-89.6"/>
</a>
</g>
</g>
<!-- Node31&#45;&gt;Node12 -->
<g id="edge46_Node000031_Node000012" class="edge">
<title>Node31&#45;&gt;Node12</title>
<g id="a_edge46_Node000031_Node000012"><a xlink:title=" ">
<path fill="none" stroke="#63b8ff" d="M669.18,-248.67C633.79,-239.31 577.92,-223.83 530.5,-207.5 474.74,-188.3 411.33,-161.81 374.53,-145.96"/>
<polygon fill="#63b8ff" stroke="#63b8ff" points="375.95,-142.76 365.39,-142 373.17,-149.19 375.95,-142.76"/>
</a>
</g>
</g>
<!-- Node31&#45;&gt;Node24 -->
<g id="edge45_Node000031_Node000024" class="edge">
<title>Node31&#45;&gt;Node24</title>
<g id="a_edge45_Node000031_Node000024"><a xlink:title=" ">
<path fill="none" stroke="#63b8ff" d="M690.73,-248.78C674.79,-238.39 648.26,-221.11 629.03,-208.58"/>
<polygon fill="#63b8ff" stroke="#63b8ff" points="631.03,-205.7 620.74,-203.18 627.2,-211.57 631.03,-205.7"/>
</a>
</g>
</g>
<!-- Node32 -->
<g id="Node000032" class="node">
<title>Node32</title>
<g id="a_Node000032"><a xlink:title=" ">
<polygon fill="#e0e0e0" stroke="#999999" points="743.25,-201.88 689.75,-201.88 689.75,-182.62 743.25,-182.62 743.25,-201.88"/>
<text text-anchor="middle" x="716.5" y="-187.43" font-family="Helvetica,sans-Serif" font-size="11.00">typeinfo</text>
</a>
</g>
</g>
<!-- Node31&#45;&gt;Node32 -->
<g id="edge43_Node000031_Node000032" class="edge">
<title>Node31&#45;&gt;Node32</title>
<g id="a_edge43_Node000031_Node000032"><a xlink:title=" ">
<path fill="none" stroke="#63b8ff" d="M706.17,-248.78C707.87,-239.64 710.57,-225.14 712.78,-213.25"/>
<polygon fill="#63b8ff" stroke="#63b8ff" points="716.18,-214.1 714.57,-203.63 709.3,-212.82 716.18,-214.1"/>
</a>
</g>
</g>
<!-- Node31&#45;&gt;Node33 -->
<g id="edge47_Node000031_Node000033" class="edge">
<title>Node31&#45;&gt;Node33</title>
<g id="a_edge47_Node000031_Node000033"><a xlink:title=" ">
<path fill="none" stroke="#63b8ff" d="M724.83,-248.65C745.7,-239.3 778.82,-224.46 805.54,-212.49"/>
<polygon fill="#63b8ff" stroke="#63b8ff" points="806.72,-215.8 814.41,-208.52 803.86,-209.41 806.72,-215.8"/>
</a>
</g>
</g>
<!-- Node33&#45;&gt;Node11 -->
<g id="edge48_Node000033_Node000011" class="edge">
<title>Node33&#45;&gt;Node11</title>
<g id="a_edge48_Node000033_Node000011"><a xlink:title=" ">
<path fill="none" stroke="#63b8ff" d="M836.91,-176.74C829.87,-167.15 821.33,-153.99 816.5,-141 802.66,-103.77 798.85,-57.05 797.84,-30.86"/>
<polygon fill="#63b8ff" stroke="#63b8ff" points="801.34,-30.89 797.57,-20.99 794.34,-31.08 801.34,-30.89"/>
</a>
</g>
</g>
<!-- Node34 -->
<g id="Node000034" class="node">
<title>Node34</title>
<g id="a_Node000034"><a xlink:title=" ">
<polygon fill="#e0e0e0" stroke="#999999" points="967.25,-141 901.75,-141 901.75,-121.75 967.25,-121.75 967.25,-141"/>
<text text-anchor="middle" x="934.5" y="-126.55" font-family="Helvetica,sans-Serif" font-size="11.00">fmt/color.h</text>
</a>
</g>
</g>
<!-- Node33&#45;&gt;Node34 -->
<g id="edge49_Node000033_Node000034" class="edge">
<title>Node33&#45;&gt;Node34</title>
<g id="a_edge49_Node000033_Node000034"><a xlink:title=" ">
<path fill="none" stroke="#63b8ff" d="M869.76,-176.7C882.6,-167.9 898.95,-156.71 912.01,-147.77"/>
<polygon fill="#63b8ff" stroke="#63b8ff" points="913.72,-150.84 919.99,-142.31 909.76,-145.07 913.72,-150.84"/>
</a>
</g>
</g>
<!-- Node35&#45;&gt;Node6 -->
<g id="edge55_Node000035_Node000006" class="edge">
<title>Node35&#45;&gt;Node6</title>
<g id="a_edge55_Node000035_Node000006"><a xlink:title=" ">
<path fill="none" stroke="#63b8ff" d="M1030.46,-182.18C993.97,-171.85 934.32,-154.97 894.73,-143.76"/>
<polygon fill="#63b8ff" stroke="#63b8ff" points="895.92,-140.46 885.34,-141.11 894.01,-147.2 895.92,-140.46"/>
</a>
</g>
</g>
<!-- Node35&#45;&gt;Node7 -->
<g id="edge57_Node000035_Node000007" class="edge">
<title>Node35&#45;&gt;Node7</title>
<g id="a_edge57_Node000035_Node000007"><a xlink:title=" ">
<path fill="none" stroke="#63b8ff" d="M1057.79,-182.37C1049.71,-167.86 1031.86,-138.98 1009.5,-121.75 987.16,-104.53 958.07,-92.21 934.01,-84.07"/>
<polygon fill="#63b8ff" stroke="#63b8ff" points="935.38,-80.84 924.79,-81.09 933.23,-87.5 935.38,-80.84"/>
</a>
</g>
</g>
<!-- Node35&#45;&gt;Node12 -->
<g id="edge59_Node000035_Node000012" class="edge">
<title>Node35&#45;&gt;Node12</title>
<g id="a_edge59_Node000035_Node000012"><a xlink:title=" ">
<path fill="none" stroke="#63b8ff" d="M1000.64,-185.43C972.01,-182.78 937.53,-179.65 906.5,-177 813.83,-169.09 549.3,-148.4 418.54,-138.21"/>
<polygon fill="#63b8ff" stroke="#63b8ff" points="419.2,-134.75 408.96,-137.46 418.66,-141.73 419.2,-134.75"/>
</a>
</g>
</g>
<!-- Node35&#45;&gt;Node28 -->
<g id="edge58_Node000035_Node000028" class="edge">
<title>Node35&#45;&gt;Node28</title>
<g id="a_edge58_Node000035_Node000028"><a xlink:title=" ">
<path fill="none" stroke="#63b8ff" d="M1072.52,-182.31C1082.41,-173.49 1097.76,-159.8 1109.88,-148.98"/>
<polygon fill="#63b8ff" stroke="#63b8ff" points="1112.12,-151.68 1117.25,-142.41 1107.46,-146.45 1112.12,-151.68"/>
</a>
</g>
</g>
<!-- Node36 -->
<g id="Node000036" class="node">
<title>Node36</title>
<g id="a_Node000036"><a xlink:title=" ">
<polygon fill="#e0e0e0" stroke="#999999" points="1348,-141 1293,-141 1293,-121.75 1348,-121.75 1348,-141"/>
<text text-anchor="middle" x="1320.5" y="-126.55" font-family="Helvetica,sans-Serif" font-size="11.00">memory</text>
</a>
</g>
</g>
<!-- Node35&#45;&gt;Node36 -->
<g id="edge54_Node000035_Node000036" class="edge">
<title>Node35&#45;&gt;Node36</title>
<g id="a_edge54_Node000035_Node000036"><a xlink:title=" ">
<path fill="none" stroke="#63b8ff" d="M1103.45,-182.14C1145.76,-172.7 1214.01,-157.36 1281.74,-141.62"/>
<polygon fill="#63b8ff" stroke="#63b8ff" points="1282.18,-145.11 1291.13,-139.44 1280.59,-138.3 1282.18,-145.11"/>
</a>
</g>
</g>
<!-- Node37 -->
<g id="Node000037" class="node">
<title>Node37</title>
<g id="a_Node000037"><a xlink:title=" ">
<polygon fill="#e0e0e0" stroke="#999999" points="1275.38,-141 1213.62,-141 1213.62,-121.75 1275.38,-121.75 1275.38,-141"/>
<text text-anchor="middle" x="1244.5" y="-126.55" font-family="Helvetica,sans-Serif" font-size="11.00">stdexcept</text>
</a>
</g>
</g>
<!-- Node35&#45;&gt;Node37 -->
<g id="edge56_Node000035_Node000037" class="edge">
<title>Node35&#45;&gt;Node37</title>
<g id="a_edge56_Node000035_Node000037"><a xlink:title=" ">
<path fill="none" stroke="#63b8ff" d="M1090.54,-182.18C1121.4,-172.2 1171.21,-156.08 1205.78,-144.9"/>
<polygon fill="#63b8ff" stroke="#63b8ff" points="1206.55,-148.33 1214.99,-141.92 1204.4,-141.67 1206.55,-148.33"/>
</a>
</g>
</g>
<!-- Node38&#45;&gt;Node2 -->
<g id="edge66_Node000038_Node000002" class="edge">
<title>Node38&#45;&gt;Node2</title>
<g id="a_edge66_Node000038_Node000002"><a xlink:title=" ">
<path fill="none" stroke="#63b8ff" d="M86.2,-243.11C80.23,-233.73 72.45,-221.49 66.09,-211.48"/>
<polygon fill="#63b8ff" stroke="#63b8ff" points="69.24,-209.91 60.92,-203.35 63.33,-213.67 69.24,-209.91"/>
</a>
</g>
</g>
<!-- Node38&#45;&gt;Node12 -->
<g id="edge67_Node000038_Node000012" class="edge">
<title>Node38&#45;&gt;Node12</title>
<g id="a_edge67_Node000038_Node000012"><a xlink:title=" ">
<path fill="none" stroke="#63b8ff" d="M124.43,-243.12C172.44,-218.85 267.96,-170.56 315.41,-146.58"/>
<polygon fill="#63b8ff" stroke="#63b8ff" points="316.88,-149.75 324.23,-142.12 313.72,-143.51 316.88,-149.75"/>
</a>
</g>
</g>
</g>
</svg>

<g id="navigator" transform="translate(0 0)" fill="#404254">
  <rect fill="#f2f5e9" fill-opacity="0.5" stroke="#606060" stroke-width=".5" x="0" y="0" width="60" height="60"/>
  <use id="zoomplus" xlink:href="#zoomPlus" x="17" y="9" onmousedown="handleZoom(evt,'in')"/>
  <use id="zoomminus" xlink:href="#zoomMin" x="42" y="9" onmousedown="handleZoom(evt,'out')"/>
  <use id="reset" xlink:href="#resetDef" x="30" y="36" onmousedown="handleReset()"/>
   <use id="arrowup" xlink:href="#arrowUp" x="0" y="0" onmousedown="handlePan(0,-1)"/>
  <use id="arrowright" xlink:href="#arrowRight" x="0" y="0" onmousedown="handlePan(1,0)"/>
  <use id="arrowdown" xlink:href="#arrowDown" x="0" y="0" onmousedown="handlePan(0,1)"/>
  <use id="arrowleft" xlink:href="#arrowLeft" x="0" y="0" onmousedown="handlePan(-1,0)"/>
</g>
<svg viewBox="0 0 15 15" width="100%" height="30px" preserveAspectRatio="xMaxYMin meet">
 <g id="arrow_out" transform="scale(0.3 0.3)">
  <a xlink:href="angle_8h__incl_org.svg" target="_base">
   <rect id="button" ry="5" rx="5" y="6" x="6" height="38" width="38"
        fill="#f2f5e9" fill-opacity="0.5" stroke="#606060" stroke-width="1.0"/>
   <path id="arrow"
     d="M 11.500037,31.436501 C 11.940474,20.09759 22.043105,11.32322 32.158766,21.979434 L 37.068811,17.246167 C 37.068811,17.246167 37.088388,32 37.088388,32 L 22.160133,31.978069 C 22.160133,31.978069 26.997745,27.140456 26.997745,27.140456 C 18.528582,18.264221 13.291696,25.230495 11.500037,31.436501 z"
     style="fill:#404040;"/>
  </a>
 </g>
</svg>

<style type='text/css'>
<![CDATA[
[data-mouse-over-selected='false'] { opacity: 0.7; }
[data-mouse-over-selected='true']  { opacity: 1.0; }
]]>
</style>
<script type="application/ecmascript"><![CDATA[
document.addEventListener('DOMContentLoaded', (event) => {
  highlightEdges();
  highlightAdjacentNodes();
});
]]></script>
</svg>
