<?xml version="1.0" encoding="UTF-8" standalone="no"?>
<!DOCTYPE svg PUBLIC "-//W3C//DTD SVG 1.1//EN"
 "http://www.w3.org/Graphics/SVG/1.1/DTD/svg11.dtd">
<!-- Generated by graphviz version 10.0.1 (0)
 -->
<!-- Title: invariant_contract_violation Pages: 1 -->
<svg width="109pt" height="260pt"
 viewBox="0.00 0.00 108.75 259.50" xmlns="http://www.w3.org/2000/svg" xmlns:xlink="http://www.w3.org/1999/xlink">
<g id="graph0" class="graph" transform="scale(1 1) rotate(0) translate(4 255.5)">
<title>invariant_contract_violation</title>
<!-- Node1 -->
<g id="Node000001" class="node">
<title>Node1</title>
<g id="a_Node000001"><a xlink:title="Contract violation for invariants.">
<polygon fill="#999999" stroke="#666666" points="100.75,-30.5 0,-30.5 0,0 100.75,0 100.75,-30.5"/>
<text text-anchor="start" x="8" y="-16.05" font-family="Helvetica,sans-Serif" font-size="11.00">invariant_contract</text>
<text text-anchor="middle" x="50.38" y="-4.8" font-family="Helvetica,sans-Serif" font-size="11.00">_violation</text>
</a>
</g>
</g>
<!-- Node2 -->
<g id="Node000002" class="node">
<title>Node2</title>
<g id="a_Node000002"><a xlink:href="classfloppy_1_1contracts_1_1contract__violation.html" target="_top" xlink:title="Base class for all contract violations.">
<polygon fill="white" stroke="#666666" points="100,-85.75 0.75,-85.75 0.75,-66.5 100,-66.5 100,-85.75"/>
<text text-anchor="middle" x="50.38" y="-71.3" font-family="Helvetica,sans-Serif" font-size="11.00">contract_violation</text>
</a>
</g>
</g>
<!-- Node2&#45;&gt;Node1 -->
<g id="edge1_Node000001_Node000002" class="edge">
<title>Node2&#45;&gt;Node1</title>
<g id="a_edge1_Node000001_Node000002"><a xlink:title=" ">
<path fill="none" stroke="#63b8ff" d="M50.38,-54.92C50.38,-46.99 50.38,-38.06 50.38,-30.78"/>
<polygon fill="#63b8ff" stroke="#63b8ff" points="46.88,-54.67 50.38,-64.67 53.88,-54.67 46.88,-54.67"/>
</a>
</g>
</g>
<!-- Node3 -->
<g id="Node000003" class="node">
<title>Node3</title>
<g id="a_Node000003"><a xlink:title=" ">
<polygon fill="white" stroke="#666666" points="99.25,-141 1.5,-141 1.5,-121.75 99.25,-121.75 99.25,-141"/>
<text text-anchor="middle" x="50.38" y="-126.55" font-family="Helvetica,sans-Serif" font-size="11.00">invalid_argument</text>
</a>
</g>
</g>
<!-- Node3&#45;&gt;Node2 -->
<g id="edge2_Node000002_Node000003" class="edge">
<title>Node3&#45;&gt;Node2</title>
<g id="a_edge2_Node000002_Node000003"><a xlink:title=" ">
<path fill="none" stroke="#63b8ff" d="M50.38,-110.13C50.38,-101.84 50.38,-92.67 50.38,-86.11"/>
<polygon fill="#63b8ff" stroke="#63b8ff" points="46.88,-110.07 50.38,-120.07 53.88,-110.07 46.88,-110.07"/>
</a>
</g>
</g>
<!-- Node4 -->
<g id="Node000004" class="node">
<title>Node4</title>
<g id="a_Node000004"><a xlink:title=" ">
<polygon fill="white" stroke="#666666" points="83.88,-196.25 16.88,-196.25 16.88,-177 83.88,-177 83.88,-196.25"/>
<text text-anchor="middle" x="50.38" y="-181.8" font-family="Helvetica,sans-Serif" font-size="11.00">logic_error</text>
</a>
</g>
</g>
<!-- Node4&#45;&gt;Node3 -->
<g id="edge3_Node000003_Node000004" class="edge">
<title>Node4&#45;&gt;Node3</title>
<g id="a_edge3_Node000003_Node000004"><a xlink:title=" ">
<path fill="none" stroke="#63b8ff" d="M50.38,-165.38C50.38,-157.09 50.38,-147.92 50.38,-141.36"/>
<polygon fill="#63b8ff" stroke="#63b8ff" points="46.88,-165.32 50.38,-175.32 53.88,-165.32 46.88,-165.32"/>
</a>
</g>
</g>
<!-- Node5 -->
<g id="Node000005" class="node">
<title>Node5</title>
<g id="a_Node000005"><a xlink:title=" ">
<polygon fill="white" stroke="#666666" points="81.25,-251.5 19.5,-251.5 19.5,-232.25 81.25,-232.25 81.25,-251.5"/>
<text text-anchor="middle" x="50.38" y="-237.05" font-family="Helvetica,sans-Serif" font-size="11.00">exception</text>
</a>
</g>
</g>
<!-- Node5&#45;&gt;Node4 -->
<g id="edge4_Node000004_Node000005" class="edge">
<title>Node5&#45;&gt;Node4</title>
<g id="a_edge4_Node000004_Node000005"><a xlink:title=" ">
<path fill="none" stroke="#63b8ff" d="M50.38,-220.63C50.38,-212.34 50.38,-203.17 50.38,-196.61"/>
<polygon fill="#63b8ff" stroke="#63b8ff" points="46.88,-220.57 50.38,-230.57 53.88,-220.57 46.88,-220.57"/>
</a>
</g>
</g>
</g>
</svg>
