<?xml version="1.0" encoding="UTF-8" standalone="no"?>
<!DOCTYPE svg PUBLIC "-//W3C//DTD SVG 1.1//EN"
 "http://www.w3.org/Graphics/SVG/1.1/DTD/svg11.dtd">
<!-- Generated by graphviz version 10.0.1 (0)
 -->
<!-- Title: TraceResolverImplBase Pages: 1 -->
<svg width="480pt" height="196pt"
 viewBox="0.00 0.00 479.75 195.75" xmlns="http://www.w3.org/2000/svg" xmlns:xlink="http://www.w3.org/1999/xlink">
<g id="graph0" class="graph" transform="scale(1 1) rotate(0) translate(4 191.75)">
<title>TraceResolverImplBase</title>
<!-- Node1 -->
<g id="Node000001" class="node">
<title>Node1</title>
<g id="a_Node000001"><a xlink:title=" ">
<polygon fill="#999999" stroke="#666666" points="130,-97.5 0,-97.5 0,-78.25 130,-78.25 130,-97.5"/>
<text text-anchor="middle" x="65" y="-83.05" font-family="Helvetica,sans-Serif" font-size="11.00">TraceResolverImplBase</text>
</a>
</g>
</g>
<!-- Node2 -->
<g id="Node000002" class="node">
<title>Node2</title>
<g id="a_Node000002"><a xlink:href="classfloppy_1_1stacktrace_1_1TraceResolverDarwinImpl_3_01trace__resolver__tag_1_1backtrace__symbol_01_4.html" target="_top" xlink:title=" ">
<polygon fill="white" stroke="#bfbfbf" points="305,-187.75 166,-187.75 166,-146 305,-146 305,-187.75"/>
<text text-anchor="start" x="174" y="-173.3" font-family="Helvetica,sans-Serif" font-size="11.00">TraceResolverDarwinImpl</text>
<text text-anchor="start" x="174" y="-162.05" font-family="Helvetica,sans-Serif" font-size="11.00">&lt; trace_resolver_tag::</text>
<text text-anchor="middle" x="235.5" y="-150.8" font-family="Helvetica,sans-Serif" font-size="11.00">backtrace_symbol &gt;</text>
</a>
</g>
</g>
<!-- Node1&#45;&gt;Node2 -->
<g id="edge1_Node000001_Node000002" class="edge">
<title>Node1&#45;&gt;Node2</title>
<g id="a_edge1_Node000001_Node000002"><a xlink:title=" ">
<path fill="none" stroke="#63b8ff" d="M96.03,-103.01C115.81,-112.87 142.32,-125.9 166,-136.88 172.24,-139.77 178.84,-142.75 185.37,-145.66"/>
<polygon fill="#63b8ff" stroke="#63b8ff" points="97.66,-99.91 87.16,-98.57 94.53,-106.17 97.66,-99.91"/>
</a>
</g>
</g>
<!-- Node3 -->
<g id="Node000003" class="node">
<title>Node3</title>
<g id="a_Node000003"><a xlink:href="classfloppy_1_1stacktrace_1_1TraceResolverImpl_3_01system__tag_1_1unknown_01_4.html" target="_top" xlink:title=" ">
<polygon fill="white" stroke="#bfbfbf" points="302,-128.12 169,-128.12 169,-97.62 302,-97.62 302,-128.12"/>
<text text-anchor="start" x="177" y="-113.67" font-family="Helvetica,sans-Serif" font-size="11.00">TraceResolverImpl&lt;</text>
<text text-anchor="middle" x="235.5" y="-102.42" font-family="Helvetica,sans-Serif" font-size="11.00"> system_tag::unknown &gt;</text>
</a>
</g>
</g>
<!-- Node1&#45;&gt;Node3 -->
<g id="edge2_Node000001_Node000003" class="edge">
<title>Node1&#45;&gt;Node3</title>
<g id="a_edge2_Node000001_Node000003"><a xlink:title=" ">
<path fill="none" stroke="#63b8ff" d="M141.5,-99.08C150.52,-100.41 159.67,-101.77 168.54,-103.09"/>
<polygon fill="#63b8ff" stroke="#63b8ff" points="142.09,-95.63 131.68,-97.62 141.06,-102.55 142.09,-95.63"/>
</a>
</g>
</g>
<!-- Node4 -->
<g id="Node000004" class="node">
<title>Node4</title>
<g id="a_Node000004"><a xlink:href="classfloppy_1_1stacktrace_1_1TraceResolverImpl_3_01system__tag_1_1windows_01_4.html" target="_top" xlink:title=" ">
<polygon fill="white" stroke="#bfbfbf" points="301.25,-79.12 169.75,-79.12 169.75,-48.62 301.25,-48.62 301.25,-79.12"/>
<text text-anchor="start" x="177.75" y="-64.67" font-family="Helvetica,sans-Serif" font-size="11.00">TraceResolverImpl&lt;</text>
<text text-anchor="middle" x="235.5" y="-53.42" font-family="Helvetica,sans-Serif" font-size="11.00"> system_tag::windows &gt;</text>
</a>
</g>
</g>
<!-- Node1&#45;&gt;Node4 -->
<g id="edge3_Node000001_Node000004" class="edge">
<title>Node1&#45;&gt;Node4</title>
<g id="a_edge3_Node000001_Node000004"><a xlink:title=" ">
<path fill="none" stroke="#63b8ff" d="M141.45,-77.13C150.77,-75.8 160.23,-74.45 169.38,-73.15"/>
<polygon fill="#63b8ff" stroke="#63b8ff" points="141.09,-73.64 131.68,-78.52 142.08,-80.57 141.09,-73.64"/>
</a>
</g>
</g>
<!-- Node5 -->
<g id="Node000005" class="node">
<title>Node5</title>
<g id="a_Node000005"><a xlink:href="classfloppy_1_1stacktrace_1_1TraceResolverLinuxBase.html" target="_top" xlink:title=" ">
<polygon fill="white" stroke="#bfbfbf" points="303.12,-30.5 167.88,-30.5 167.88,-11.25 303.12,-11.25 303.12,-30.5"/>
<text text-anchor="middle" x="235.5" y="-16.05" font-family="Helvetica,sans-Serif" font-size="11.00">TraceResolverLinuxBase</text>
</a>
</g>
</g>
<!-- Node1&#45;&gt;Node5 -->
<g id="edge4_Node000001_Node000005" class="edge">
<title>Node1&#45;&gt;Node5</title>
<g id="a_edge4_Node000001_Node000005"><a xlink:title=" ">
<path fill="none" stroke="#63b8ff" d="M94.49,-72.53C114.19,-62.34 141.2,-49.18 166,-39.88 174.78,-36.58 184.39,-33.57 193.55,-30.96"/>
<polygon fill="#63b8ff" stroke="#63b8ff" points="92.94,-69.39 85.71,-77.14 96.19,-75.59 92.94,-69.39"/>
</a>
</g>
</g>
<!-- Node6 -->
<g id="Node000006" class="node">
<title>Node6</title>
<g id="a_Node000006"><a xlink:href="classfloppy_1_1stacktrace_1_1TraceResolverLinuxImpl_3_01trace__resolver__tag_1_1libdw_01_4.html" target="_top" xlink:title=" ">
<polygon fill="white" stroke="#bfbfbf" points="471.75,-41.75 341,-41.75 341,0 471.75,0 471.75,-41.75"/>
<text text-anchor="start" x="349" y="-27.3" font-family="Helvetica,sans-Serif" font-size="11.00">TraceResolverLinuxImpl</text>
<text text-anchor="start" x="349" y="-16.05" font-family="Helvetica,sans-Serif" font-size="11.00">&lt; trace_resolver_tag::</text>
<text text-anchor="middle" x="406.38" y="-4.8" font-family="Helvetica,sans-Serif" font-size="11.00">libdw &gt;</text>
</a>
</g>
</g>
<!-- Node5&#45;&gt;Node6 -->
<g id="edge5_Node000005_Node000006" class="edge">
<title>Node5&#45;&gt;Node6</title>
<g id="a_edge5_Node000005_Node000006"><a xlink:title=" ">
<path fill="none" stroke="#63b8ff" d="M314.65,-20.88C323.39,-20.88 332.23,-20.88 340.77,-20.88"/>
<polygon fill="#63b8ff" stroke="#63b8ff" points="314.76,-17.38 304.76,-20.88 314.76,-24.38 314.76,-17.38"/>
</a>
</g>
</g>
</g>
</svg>
