<?xml version="1.0" encoding="UTF-8" standalone="no"?>
<!DOCTYPE svg PUBLIC "-//W3C//DTD SVG 1.1//EN"
 "http://www.w3.org/Graphics/SVG/1.1/DTD/svg11.dtd">
<!-- Generated by graphviz version 10.0.1 (0)
 -->
<!-- Title: handle&lt; T, Deleter &gt; Pages: 1 -->
<svg width="401pt" height="290pt"
 viewBox="0.00 0.00 400.75 289.75" xmlns="http://www.w3.org/2000/svg" xmlns:xlink="http://www.w3.org/1999/xlink">
<g id="graph0" class="graph" transform="scale(1 1) rotate(0) translate(4 285.75)">
<title>handle&lt; T, Deleter &gt;</title>
<!-- Node1 -->
<g id="Node000001" class="node">
<title>Node1</title>
<g id="a_Node000001"><a xlink:title=" ">
<polygon fill="#999999" stroke="#666666" points="115,-146.12 0,-146.12 0,-126.88 115,-126.88 115,-146.12"/>
<text text-anchor="middle" x="57.5" y="-131.68" font-family="Helvetica,sans-Serif" font-size="11.00">handle&lt; T, Deleter &gt;</text>
</a>
</g>
</g>
<!-- Node2 -->
<g id="Node000002" class="node">
<title>Node2</title>
<g id="a_Node000002"><a xlink:href="classfloppy_1_1stacktrace_1_1details_1_1handle.html" target="_top" xlink:title=" ">
<polygon fill="white" stroke="#bfbfbf" points="377.38,-275.12 276.62,-275.12 276.62,-255.88 377.38,-255.88 377.38,-275.12"/>
<text text-anchor="middle" x="327" y="-260.68" font-family="Helvetica,sans-Serif" font-size="11.00">handle&lt; char ** &gt;</text>
</a>
</g>
</g>
<!-- Node1&#45;&gt;Node2 -->
<g id="edge1_Node000001_Node000002" class="edge">
<title>Node1&#45;&gt;Node2</title>
<g id="a_edge1_Node000001_Node000002"><a xlink:title=" ">
<path fill="none" stroke="orange" stroke-dasharray="5,2" d="M66.54,-157.15C77.48,-182.21 99.61,-223.57 133,-243.5 176.44,-269.42 235.23,-272.52 276.48,-270.64"/>
<polygon fill="orange" stroke="orange" points="69.82,-155.92 62.76,-148.02 63.35,-158.6 69.82,-155.92"/>
</a>
</g>
<text text-anchor="middle" x="188.12" y="-271.3" font-family="Helvetica,sans-Serif" font-size="11.00" fill="grey"> &lt; char ** &gt;</text>
</g>
<!-- Node3 -->
<g id="Node000003" class="node">
<title>Node3</title>
<g id="a_Node000003"><a xlink:href="classfloppy_1_1stacktrace_1_1details_1_1handle.html" target="_top" xlink:title=" ">
<polygon fill="white" stroke="#bfbfbf" points="392.75,-228 261.25,-228 261.25,-175 392.75,-175 392.75,-228"/>
<text text-anchor="start" x="269.25" y="-213.55" font-family="Helvetica,sans-Serif" font-size="11.00">handle&lt; Dwfl_Callbacks</text>
<text text-anchor="start" x="269.25" y="-202.3" font-family="Helvetica,sans-Serif" font-size="11.00"> *, floppy::stacktrace</text>
<text text-anchor="start" x="269.25" y="-191.05" font-family="Helvetica,sans-Serif" font-size="11.00">::details::default_delete</text>
<text text-anchor="middle" x="327" y="-179.8" font-family="Helvetica,sans-Serif" font-size="11.00">&lt; Dwfl_Callbacks * &gt; &gt;</text>
</a>
</g>
</g>
<!-- Node1&#45;&gt;Node3 -->
<g id="edge2_Node000001_Node000003" class="edge">
<title>Node1&#45;&gt;Node3</title>
<g id="a_edge2_Node000001_Node000003"><a xlink:title=" ">
<path fill="none" stroke="orange" stroke-dasharray="5,2" d="M84.24,-152.32C98.19,-160.19 116.01,-169.14 133,-174.5 174.46,-187.57 222.93,-194.32 260.92,-197.8"/>
<polygon fill="orange" stroke="orange" points="86.11,-149.36 75.71,-147.35 82.59,-155.41 86.11,-149.36"/>
</a>
</g>
<text text-anchor="start" x="133" y="-230.05" font-family="Helvetica,sans-Serif" font-size="11.00" fill="grey"> &lt; Dwfl_Callbacks *,</text>
<text text-anchor="start" x="133" y="-218.8" font-family="Helvetica,sans-Serif" font-size="11.00" fill="grey"> floppy::stacktrace</text>
<text text-anchor="start" x="133" y="-207.55" font-family="Helvetica,sans-Serif" font-size="11.00" fill="grey">::details::default_delete</text>
<text text-anchor="middle" x="188.12" y="-196.3" font-family="Helvetica,sans-Serif" font-size="11.00" fill="grey">&lt; Dwfl_Callbacks * &gt; &gt;</text>
</g>
<!-- Node4 -->
<g id="Node000004" class="node">
<title>Node4</title>
<g id="a_Node000004"><a xlink:href="classfloppy_1_1stacktrace_1_1details_1_1handle.html" target="_top" xlink:title=" ">
<polygon fill="white" stroke="#bfbfbf" points="389,-157.38 265,-157.38 265,-115.62 389,-115.62 389,-157.38"/>
<text text-anchor="start" x="273" y="-142.93" font-family="Helvetica,sans-Serif" font-size="11.00">handle&lt; Dwfl *, details</text>
<text text-anchor="start" x="273" y="-131.68" font-family="Helvetica,sans-Serif" font-size="11.00">::deleter&lt; void, Dwfl</text>
<text text-anchor="middle" x="327" y="-120.42" font-family="Helvetica,sans-Serif" font-size="11.00"> *, &amp;dwfl_end &gt; &gt;</text>
</a>
</g>
</g>
<!-- Node1&#45;&gt;Node4 -->
<g id="edge3_Node000001_Node000004" class="edge">
<title>Node1&#45;&gt;Node4</title>
<g id="a_edge3_Node000001_Node000004"><a xlink:title=" ">
<path fill="none" stroke="orange" stroke-dasharray="5,2" d="M126.62,-136.5C169.16,-136.5 223.49,-136.5 264.69,-136.5"/>
<polygon fill="orange" stroke="orange" points="126.74,-133 116.74,-136.5 126.74,-140 126.74,-133"/>
</a>
</g>
<text text-anchor="start" x="143.12" y="-159.8" font-family="Helvetica,sans-Serif" font-size="11.00" fill="grey"> &lt; Dwfl *, details::</text>
<text text-anchor="start" x="143.12" y="-148.55" font-family="Helvetica,sans-Serif" font-size="11.00" fill="grey">deleter&lt; void, Dwfl</text>
<text text-anchor="middle" x="188.12" y="-137.3" font-family="Helvetica,sans-Serif" font-size="11.00" fill="grey"> *, &amp;dwfl_end &gt; &gt;</text>
</g>
<!-- Node5 -->
<g id="Node000005" class="node">
<title>Node5</title>
<g id="a_Node000005"><a xlink:href="classfloppy_1_1stacktrace_1_1details_1_1handle.html" target="_top" xlink:title=" ">
<polygon fill="white" stroke="#bfbfbf" points="375.12,-97.12 278.88,-97.12 278.88,-77.88 375.12,-77.88 375.12,-97.12"/>
<text text-anchor="middle" x="327" y="-82.67" font-family="Helvetica,sans-Serif" font-size="11.00">handle&lt; char * &gt;</text>
</a>
</g>
</g>
<!-- Node1&#45;&gt;Node5 -->
<g id="edge4_Node000001_Node000005" class="edge">
<title>Node1&#45;&gt;Node5</title>
<g id="a_edge4_Node000001_Node000005"><a xlink:title=" ">
<path fill="none" stroke="orange" stroke-dasharray="5,2" d="M117.78,-124.21C122.92,-123.19 128.05,-122.19 133,-121.25 182.63,-111.83 239.62,-101.99 278.74,-95.37"/>
<polygon fill="orange" stroke="orange" points="117.15,-120.76 108.04,-126.16 118.53,-127.62 117.15,-120.76"/>
</a>
</g>
<text text-anchor="middle" x="188.12" y="-121.3" font-family="Helvetica,sans-Serif" font-size="11.00" fill="grey"> &lt; char * &gt;</text>
</g>
<!-- Node6 -->
<g id="Node000006" class="node">
<title>Node6</title>
<g id="a_Node000006"><a xlink:href="classfloppy_1_1stacktrace_1_1details_1_1handle.html" target="_top" xlink:title=" ">
<polygon fill="white" stroke="#bfbfbf" points="390.12,-53 263.88,-53 263.88,0 390.12,0 390.12,-53"/>
<text text-anchor="start" x="271.88" y="-38.55" font-family="Helvetica,sans-Serif" font-size="11.00">handle&lt; std::ifstream</text>
<text text-anchor="start" x="271.88" y="-27.3" font-family="Helvetica,sans-Serif" font-size="11.00"> *, floppy::stacktrace</text>
<text text-anchor="start" x="271.88" y="-16.05" font-family="Helvetica,sans-Serif" font-size="11.00">::details::default_delete</text>
<text text-anchor="middle" x="327" y="-4.8" font-family="Helvetica,sans-Serif" font-size="11.00">&lt; std::ifstream * &gt; &gt;</text>
</a>
</g>
</g>
<!-- Node1&#45;&gt;Node6 -->
<g id="edge5_Node000001_Node000006" class="edge">
<title>Node1&#45;&gt;Node6</title>
<g id="a_edge5_Node000001_Node000006"><a xlink:title=" ">
<path fill="none" stroke="orange" stroke-dasharray="5,2" d="M70.01,-116.81C82.73,-97.01 105.15,-67.34 133,-52.5 172.98,-31.19 223.99,-25.07 263.52,-24.07"/>
<polygon fill="orange" stroke="orange" points="67.17,-114.75 64.91,-125.1 73.13,-118.42 67.17,-114.75"/>
</a>
</g>
<text text-anchor="start" x="133" y="-87.05" font-family="Helvetica,sans-Serif" font-size="11.00" fill="grey"> &lt; std::ifstream *,</text>
<text text-anchor="start" x="133" y="-75.8" font-family="Helvetica,sans-Serif" font-size="11.00" fill="grey"> floppy::stacktrace</text>
<text text-anchor="start" x="133" y="-64.55" font-family="Helvetica,sans-Serif" font-size="11.00" fill="grey">::details::default_delete</text>
<text text-anchor="middle" x="188.12" y="-53.3" font-family="Helvetica,sans-Serif" font-size="11.00" fill="grey">&lt; std::ifstream * &gt; &gt;</text>
</g>
</g>
</svg>
