<?xml version="1.0" encoding="UTF-8" standalone="no"?>
<!DOCTYPE svg PUBLIC "-//W3C//DTD SVG 1.1//EN"
 "http://www.w3.org/Graphics/SVG/1.1/DTD/svg11.dtd">
<!-- Generated by graphviz version 10.0.1 (0)
 -->
<!-- Title: trace_resolver_impl&lt; system_tag::windows &gt; Pages: 1 -->
<svg width="346pt" height="183pt"
 viewBox="0.00 0.00 345.50 182.75" xmlns="http://www.w3.org/2000/svg" xmlns:xlink="http://www.w3.org/1999/xlink">
<g id="graph0" class="graph" transform="scale(1 1) rotate(0) translate(4 178.75)">
<title>trace_resolver_impl&lt; system_tag::windows &gt;</title>
<!-- Node1 -->
<g id="Node000001" class="node">
<title>Node1</title>
<g id="a_Node000001"><a xlink:title=" ">
<polygon fill="#999999" stroke="#666666" points="203.62,-30.5 65.38,-30.5 65.38,0 203.62,0 203.62,-30.5"/>
<text text-anchor="start" x="73.38" y="-16.05" font-family="Helvetica,sans-Serif" font-size="11.00">trace_resolver_impl</text>
<text text-anchor="middle" x="134.5" y="-4.8" font-family="Helvetica,sans-Serif" font-size="11.00">&lt; system_tag::windows &gt;</text>
</a>
</g>
</g>
<!-- Node2 -->
<g id="Node000002" class="node">
<title>Node2</title>
<g id="a_Node000002"><a xlink:href="classfloppy_1_1stacktrace_1_1impl_1_1trace__resolver__impl__base.html" target="_top" xlink:title=" ">
<polygon fill="white" stroke="#bfbfbf" points="139,-174.75 0,-174.75 0,-155.5 139,-155.5 139,-174.75"/>
<text text-anchor="middle" x="69.5" y="-160.3" font-family="Helvetica,sans-Serif" font-size="11.00">trace_resolver_impl_base</text>
</a>
</g>
</g>
<!-- Node2&#45;&gt;Node1 -->
<g id="edge1_Node000001_Node000002" class="edge">
<title>Node2&#45;&gt;Node1</title>
<g id="a_edge1_Node000001_Node000002"><a xlink:title=" ">
<path fill="none" stroke="#63b8ff" d="M60.35,-144.58C53.25,-126.4 46.19,-99.02 56.5,-77.75 66.51,-57.11 87.17,-41.32 104.72,-30.91"/>
<polygon fill="#63b8ff" stroke="#63b8ff" points="57.08,-145.83 64.25,-153.64 63.52,-143.07 57.08,-145.83"/>
</a>
</g>
</g>
<!-- Node4 -->
<g id="Node000004" class="node">
<title>Node4</title>
<g id="a_Node000004"><a xlink:href="classfloppy_1_1stacktrace_1_1impl_1_1trace__resolver__impl_3_01system__tag_1_1windows_01_4.html" target="_top" xlink:title=" ">
<polygon fill="white" stroke="#bfbfbf" points="203.62,-108.25 65.38,-108.25 65.38,-77.75 203.62,-77.75 203.62,-108.25"/>
<text text-anchor="start" x="73.38" y="-93.8" font-family="Helvetica,sans-Serif" font-size="11.00">trace_resolver_impl</text>
<text text-anchor="middle" x="134.5" y="-82.55" font-family="Helvetica,sans-Serif" font-size="11.00">&lt; system_tag::windows &gt;</text>
</a>
</g>
</g>
<!-- Node2&#45;&gt;Node4 -->
<g id="edge4_Node000004_Node000002" class="edge">
<title>Node2&#45;&gt;Node4</title>
<g id="a_edge4_Node000004_Node000002"><a xlink:title=" ">
<path fill="none" stroke="#63b8ff" d="M85.27,-147.11C96.17,-135.36 110.51,-119.88 120.9,-108.67"/>
<polygon fill="#63b8ff" stroke="#63b8ff" points="82.99,-144.42 78.76,-154.13 88.13,-149.18 82.99,-144.42"/>
</a>
</g>
</g>
<!-- Node3 -->
<g id="Node000003" class="node">
<title>Node3</title>
<g id="a_Node000003"><a xlink:title=" ">
<polygon fill="white" stroke="#bfbfbf" points="239.9,-174.75 211.1,-174.75 211.1,-155.5 239.9,-155.5 239.9,-174.75"/>
<text text-anchor="middle" x="225.5" y="-160.3" font-family="Helvetica,sans-Serif" font-size="11.00">int</text>
</a>
</g>
</g>
<!-- Node3&#45;&gt;Node1 -->
<g id="edge2_Node000001_Node000003" class="edge">
<title>Node3&#45;&gt;Node1</title>
<g id="a_edge2_Node000001_Node000003"><a xlink:title=" ">
<path fill="none" stroke="#9a32cd" stroke-dasharray="5,2" d="M249.93,-152.72C255.75,-148.77 261.21,-143.72 264.5,-137.5 272.66,-122.06 273.78,-103.96 253.5,-77.75 236.28,-55.49 208.76,-40.54 184.51,-30.95"/>
<polygon fill="#9a32cd" stroke="#9a32cd" points="248.36,-149.58 241.45,-157.61 251.86,-155.65 248.36,-149.58"/>
</a>
</g>
<text text-anchor="middle" x="303" y="-88.17" font-family="Helvetica,sans-Serif" font-size="11.00" fill="grey"> max_sym_len</text>
</g>
<!-- Node3&#45;&gt;Node4 -->
<g id="edge5_Node000004_Node000003" class="edge">
<title>Node3&#45;&gt;Node4</title>
<g id="a_edge5_Node000004_Node000003"><a xlink:title=" ">
<path fill="none" stroke="#9a32cd" stroke-dasharray="5,2" d="M205.19,-148.48C189.75,-136.58 168.65,-120.32 153.53,-108.67"/>
<polygon fill="#9a32cd" stroke="#9a32cd" points="202.72,-150.99 212.78,-154.32 206.99,-145.44 202.72,-150.99"/>
</a>
</g>
<text text-anchor="middle" x="226" y="-127.05" font-family="Helvetica,sans-Serif" font-size="11.00" fill="grey"> max_sym_len</text>
</g>
<!-- Node4&#45;&gt;Node1 -->
<g id="edge3_Node000001_Node000004" class="edge">
<title>Node4&#45;&gt;Node1</title>
<g id="a_edge3_Node000001_Node000004"><a xlink:title=" ">
<path fill="none" stroke="#9a32cd" stroke-dasharray="5,2" d="M134.5,-65.97C134.5,-54.21 134.5,-40.76 134.5,-30.81"/>
<polygon fill="#9a32cd" stroke="#9a32cd" points="131,-65.88 134.5,-75.88 138,-65.88 131,-65.88"/>
</a>
</g>
<text text-anchor="middle" x="145.75" y="-49.3" font-family="Helvetica,sans-Serif" font-size="11.00" fill="grey"> sym</text>
</g>
<!-- Node4&#45;&gt;Node4 -->
<g id="edge6_Node000004_Node000004" class="edge">
<title>Node4&#45;&gt;Node4</title>
<g id="a_edge6_Node000004_Node000004"><a xlink:title=" ">
<path fill="none" stroke="#9a32cd" stroke-dasharray="5,2" d="M215.16,-97.72C219.23,-96.55 221.62,-94.98 221.62,-93 221.62,-89.58 214.45,-87.37 203.87,-86.35"/>
<polygon fill="#9a32cd" stroke="#9a32cd" points="214.64,-94.26 205.37,-99.39 215.81,-101.16 214.64,-94.26"/>
</a>
</g>
<text text-anchor="middle" x="232.88" y="-88.17" font-family="Helvetica,sans-Serif" font-size="11.00" fill="grey"> sym</text>
</g>
</g>
</svg>
