<?xml version="1.0" encoding="UTF-8" standalone="no"?>
<!DOCTYPE svg PUBLIC "-//W3C//DTD SVG 1.1//EN"
 "http://www.w3.org/Graphics/SVG/1.1/DTD/svg11.dtd">
<!-- Generated by graphviz version 10.0.1 (0)
 -->
<!-- Title: size2d&lt; U, T &gt; Pages: 1 -->
<svg width="271pt" height="295pt"
 viewBox="0.00 0.00 271.00 295.25" xmlns="http://www.w3.org/2000/svg" xmlns:xlink="http://www.w3.org/1999/xlink">
<g id="graph0" class="graph" transform="scale(1 1) rotate(0) translate(4 291.25)">
<title>size2d&lt; U, T &gt;</title>
<!-- Node1 -->
<g id="Node000001" class="node">
<title>Node1</title>
<g id="a_Node000001"><a xlink:title="A two&#45;dimensional size2d tagged with a unit.">
<polygon fill="#999999" stroke="#666666" points="169.75,-19.25 83.25,-19.25 83.25,0 169.75,0 169.75,-19.25"/>
<text text-anchor="middle" x="126.5" y="-4.8" font-family="Helvetica,sans-Serif" font-size="11.00">size2d&lt; U, T &gt;</text>
</a>
</g>
</g>
<!-- Node2 -->
<g id="Node000002" class="node">
<title>Node2</title>
<g id="a_Node000002"><a xlink:href="structfloppy_1_1math_1_1detail_1_1basic__two__dimensional__type.html" target="_top" xlink:title="CRTP base class for two dimensional numerical types.">
<polygon fill="white" stroke="#666666" points="189.62,-86.75 63.38,-86.75 63.38,-56.25 189.62,-56.25 189.62,-86.75"/>
<text text-anchor="start" x="71.38" y="-72.3" font-family="Helvetica,sans-Serif" font-size="11.00">basic_two_dimensional</text>
<text text-anchor="middle" x="126.5" y="-61.05" font-family="Helvetica,sans-Serif" font-size="11.00">_type&lt; T, U, N &gt;</text>
</a>
</g>
</g>
<!-- Node2&#45;&gt;Node1 -->
<g id="edge1_Node000001_Node000002" class="edge">
<title>Node2&#45;&gt;Node1</title>
<g id="a_edge1_Node000001_Node000002"><a xlink:title=" ">
<path fill="none" stroke="#63b8ff" d="M126.5,-44.77C126.5,-35.79 126.5,-26.29 126.5,-19.6"/>
<polygon fill="#63b8ff" stroke="#63b8ff" points="123,-44.49 126.5,-54.49 130,-44.49 123,-44.49"/>
</a>
</g>
</g>
<!-- Node3 -->
<g id="Node000003" class="node">
<title>Node3</title>
<g id="a_Node000003"><a xlink:href="structfloppy_1_1traits_1_1formattable.html" target="_top" xlink:title=" ">
<polygon fill="white" stroke="#666666" points="140.75,-164.5 18.25,-164.5 18.25,-145.25 140.75,-145.25 140.75,-164.5"/>
<text text-anchor="middle" x="79.5" y="-150.05" font-family="Helvetica,sans-Serif" font-size="11.00">formattable&lt; T, char &gt;</text>
</a>
</g>
</g>
<!-- Node3&#45;&gt;Node2 -->
<g id="edge2_Node000002_Node000003" class="edge">
<title>Node3&#45;&gt;Node2</title>
<g id="a_edge2_Node000002_Node000003"><a xlink:title=" ">
<path fill="none" stroke="#63b8ff" d="M90.45,-134.91C98.89,-120.3 110.38,-100.41 118.1,-87.04"/>
<polygon fill="#63b8ff" stroke="#63b8ff" points="87.44,-133.13 85.47,-143.54 93.5,-136.64 87.44,-133.13"/>
</a>
</g>
</g>
<!-- Node4 -->
<g id="Node000004" class="node">
<title>Node4</title>
<g id="a_Node000004"><a xlink:href="structfloppy_1_1traits_1_1detail_1_1formattable__base.html" target="_top" xlink:title="Interface, providing to_string method.">
<polygon fill="white" stroke="#666666" points="127,-231 0,-231 0,-211.75 127,-211.75 127,-231"/>
<text text-anchor="middle" x="63.5" y="-216.55" font-family="Helvetica,sans-Serif" font-size="11.00">formattable_base&lt; C &gt;</text>
</a>
</g>
</g>
<!-- Node4&#45;&gt;Node3 -->
<g id="edge3_Node000003_Node000004" class="edge">
<title>Node4&#45;&gt;Node3</title>
<g id="a_edge3_Node000003_Node000004"><a xlink:title=" ">
<path fill="none" stroke="#63b8ff" d="M68.49,-200.27C71.44,-188.37 75.03,-173.88 77.29,-164.77"/>
<polygon fill="#63b8ff" stroke="#63b8ff" points="65.1,-199.39 66.09,-209.94 71.89,-201.07 65.1,-199.39"/>
</a>
</g>
</g>
<!-- Node5 -->
<g id="Node000005" class="node">
<title>Node5</title>
<g id="a_Node000005"><a xlink:href="structfloppy_1_1traits_1_1formattable.html" target="_top" xlink:title="Allows type to be converted to string and printed via standard streams or fmt.">
<polygon fill="white" stroke="#666666" points="254.38,-231 144.62,-231 144.62,-211.75 254.38,-211.75 254.38,-231"/>
<text text-anchor="middle" x="199.5" y="-216.55" font-family="Helvetica,sans-Serif" font-size="11.00">formattable&lt; T, C &gt;</text>
</a>
</g>
</g>
<!-- Node5&#45;&gt;Node3 -->
<g id="edge4_Node000003_Node000005" class="edge">
<title>Node5&#45;&gt;Node3</title>
<g id="a_edge4_Node000003_Node000005"><a xlink:title=" ">
<path fill="none" stroke="orange" stroke-dasharray="5,2" d="M172.6,-205.92C149.24,-193.36 116.15,-175.57 96.35,-164.93"/>
<polygon fill="orange" stroke="orange" points="170.76,-208.9 181.23,-210.55 174.08,-202.74 170.76,-208.9"/>
</a>
</g>
<text text-anchor="middle" x="174.25" y="-183.3" font-family="Helvetica,sans-Serif" font-size="11.00" fill="grey"> &lt; T, char &gt;</text>
</g>
<!-- Node6 -->
<g id="Node000006" class="node">
<title>Node6</title>
<g id="a_Node000006"><a xlink:href="structfloppy_1_1traits_1_1detail_1_1formattable__base.html" target="_top" xlink:title="Interface, providing to_string method.">
<polygon fill="white" stroke="#666666" points="263,-287.25 136,-287.25 136,-268 263,-268 263,-287.25"/>
<text text-anchor="middle" x="199.5" y="-272.8" font-family="Helvetica,sans-Serif" font-size="11.00">formattable_base&lt; C &gt;</text>
</a>
</g>
</g>
<!-- Node6&#45;&gt;Node5 -->
<g id="edge5_Node000005_Node000006" class="edge">
<title>Node6&#45;&gt;Node5</title>
<g id="a_edge5_Node000005_Node000006"><a xlink:title=" ">
<path fill="none" stroke="#63b8ff" d="M199.5,-256.44C199.5,-247.73 199.5,-237.99 199.5,-231.17"/>
<polygon fill="#63b8ff" stroke="#63b8ff" points="196,-256.15 199.5,-266.15 203,-256.15 196,-256.15"/>
</a>
</g>
</g>
<!-- Node7 -->
<g id="Node000007" class="node">
<title>Node7</title>
<g id="a_Node000007"><a xlink:title=" ">
<polygon fill="white" stroke="#bfbfbf" points="187.9,-164.5 159.1,-164.5 159.1,-145.25 187.9,-145.25 187.9,-164.5"/>
<text text-anchor="middle" x="173.5" y="-150.05" font-family="Helvetica,sans-Serif" font-size="11.00">N</text>
</a>
</g>
</g>
<!-- Node7&#45;&gt;Node2 -->
<g id="edge6_Node000002_Node000007" class="edge">
<title>Node7&#45;&gt;Node2</title>
<g id="a_edge6_Node000002_Node000007"><a xlink:title=" ">
<path fill="none" stroke="#9a32cd" stroke-dasharray="5,2" d="M162.55,-134.91C154.11,-120.3 142.62,-100.41 134.9,-87.04"/>
<polygon fill="#9a32cd" stroke="#9a32cd" points="159.5,-136.64 167.53,-143.54 165.56,-133.13 159.5,-136.64"/>
</a>
</g>
<text text-anchor="middle" x="163.62" y="-116.8" font-family="Helvetica,sans-Serif" font-size="11.00" fill="grey"> x_</text>
<text text-anchor="middle" x="163.62" y="-105.55" font-family="Helvetica,sans-Serif" font-size="11.00" fill="grey">y_</text>
</g>
</g>
</svg>
