<?xml version="1.0" encoding="UTF-8" standalone="no"?>
<!DOCTYPE svg PUBLIC "-//W3C//DTD SVG 1.1//EN"
 "http://www.w3.org/Graphics/SVG/1.1/DTD/svg11.dtd">
<!-- Generated by graphviz version 10.0.1 (0)
 -->
<!-- Title: handle&lt; T, Deleter &gt; Pages: 1 -->
<svg width="401pt" height="261pt"
 viewBox="0.00 0.00 400.75 261.12" xmlns="http://www.w3.org/2000/svg" xmlns:xlink="http://www.w3.org/1999/xlink">

<svg id="main" version="1.1" xmlns="http://www.w3.org/2000/svg" xmlns:xlink="http://www.w3.org/1999/xlink" xml:space="preserve" onload="init(evt)">
<style type="text/css"><![CDATA[
.node, .edge {opacity: 0.7;}
.node.selected, .edge.selected {opacity: 1;}
.edge:hover path { stroke: red; }
.edge:hover polygon { stroke: red; fill: red; }
]]></style>
<script type="application/ecmascript" xlink:href="svg.min.js"/>
<svg id="graph" class="graph">
<g id="graph0" class="graph" transform="scale(1 1) rotate(0) translate(4 257.12)">
<title>handle&lt; T, Deleter &gt;</title>
<!-- Node1 -->
<g id="Node000001" class="node">
<title>Node1</title>
<g id="a_Node000001"><a xlink:title=" ">
<polygon fill="#999999" stroke="#666666" points="115,-132.5 0,-132.5 0,-113.25 115,-113.25 115,-132.5"/>
<text text-anchor="middle" x="57.5" y="-118.05" font-family="Helvetica,sans-Serif" font-size="11.00">handle&lt; T, Deleter &gt;</text>
</a>
</g>
</g>
<!-- Node2 -->
<g id="Node000002" class="node">
<title>Node2</title>
<g id="a_Node000002"><a xlink:href="classfloppy_1_1stacktrace_1_1details_1_1handle.html" target="_top" xlink:title=" ">
<polygon fill="white" stroke="#bfbfbf" points="377.38,-247.5 276.62,-247.5 276.62,-228.25 377.38,-228.25 377.38,-247.5"/>
<text text-anchor="middle" x="327" y="-233.05" font-family="Helvetica,sans-Serif" font-size="11.00">handle&lt; char ** &gt;</text>
</a>
</g>
</g>
<!-- Node1&#45;&gt;Node2 -->
<g id="edge1_Node000001_Node000002" class="edge">
<title>Node1&#45;&gt;Node2</title>
<g id="a_edge1_Node000001_Node000002"><a xlink:title=" ">
<path fill="none" stroke="orange" stroke-dasharray="5,2" d="M68.33,-142.8C80.32,-164.76 102.79,-199.2 133,-215.88 177.14,-240.24 235.54,-243.65 276.5,-242.27"/>
<polygon fill="orange" stroke="orange" points="71.58,-141.47 63.86,-134.22 65.37,-144.71 71.58,-141.47"/>
</a>
</g>
<text text-anchor="middle" x="188.12" y="-242.68" font-family="Helvetica,sans-Serif" font-size="11.00" fill="grey"> &lt; char ** &gt;</text>
</g>
<!-- Node3 -->
<g id="Node000003" class="node">
<title>Node3</title>
<g id="a_Node000003"><a xlink:href="classfloppy_1_1stacktrace_1_1details_1_1handle.html" target="_top" xlink:title=" ">
<polygon fill="white" stroke="#bfbfbf" points="392.75,-203.75 261.25,-203.75 261.25,-162 392.75,-162 392.75,-203.75"/>
<text text-anchor="start" x="269.25" y="-189.3" font-family="Helvetica,sans-Serif" font-size="11.00">handle&lt; Dwfl_Callbacks</text>
<text text-anchor="start" x="269.25" y="-178.05" font-family="Helvetica,sans-Serif" font-size="11.00"> *, floppy::default_delete</text>
<text text-anchor="middle" x="327" y="-166.8" font-family="Helvetica,sans-Serif" font-size="11.00">&lt; Dwfl_Callbacks * &gt; &gt;</text>
</a>
</g>
</g>
<!-- Node1&#45;&gt;Node3 -->
<g id="edge2_Node000001_Node000003" class="edge">
<title>Node1&#45;&gt;Node3</title>
<g id="a_edge2_Node000001_Node000003"><a xlink:title=" ">
<path fill="none" stroke="orange" stroke-dasharray="5,2" d="M85.13,-138.37C98.97,-145.74 116.42,-153.98 133,-158.88 174.61,-171.15 223.08,-177.15 261.03,-180.08"/>
<polygon fill="orange" stroke="orange" points="87.09,-135.46 76.64,-133.71 83.72,-141.59 87.09,-135.46"/>
</a>
</g>
<text text-anchor="start" x="133" y="-201.18" font-family="Helvetica,sans-Serif" font-size="11.00" fill="grey"> &lt; Dwfl_Callbacks *,</text>
<text text-anchor="start" x="133" y="-189.93" font-family="Helvetica,sans-Serif" font-size="11.00" fill="grey"> floppy::default_delete</text>
<text text-anchor="middle" x="188.12" y="-178.68" font-family="Helvetica,sans-Serif" font-size="11.00" fill="grey">&lt; Dwfl_Callbacks * &gt; &gt;</text>
</g>
<!-- Node4 -->
<g id="Node000004" class="node">
<title>Node4</title>
<g id="a_Node000004"><a xlink:href="classfloppy_1_1stacktrace_1_1details_1_1handle.html" target="_top" xlink:title=" ">
<polygon fill="white" stroke="#bfbfbf" points="390.12,-143.75 263.88,-143.75 263.88,-102 390.12,-102 390.12,-143.75"/>
<text text-anchor="start" x="271.88" y="-129.3" font-family="Helvetica,sans-Serif" font-size="11.00">handle&lt; Dwfl *, deleter</text>
<text text-anchor="start" x="271.88" y="-118.05" font-family="Helvetica,sans-Serif" font-size="11.00">&lt; void, Dwfl *, &amp;dwfl</text>
<text text-anchor="middle" x="327" y="-106.8" font-family="Helvetica,sans-Serif" font-size="11.00">_end &gt; &gt;</text>
</a>
</g>
</g>
<!-- Node1&#45;&gt;Node4 -->
<g id="edge3_Node000001_Node000004" class="edge">
<title>Node1&#45;&gt;Node4</title>
<g id="a_edge3_Node000001_Node000004"><a xlink:title=" ">
<path fill="none" stroke="orange" stroke-dasharray="5,2" d="M126.53,-122.88C168.77,-122.88 222.64,-122.88 263.75,-122.88"/>
<polygon fill="orange" stroke="orange" points="126.74,-119.38 116.74,-122.88 126.74,-126.38 126.74,-119.38"/>
</a>
</g>
<text text-anchor="start" x="142.75" y="-146.18" font-family="Helvetica,sans-Serif" font-size="11.00" fill="grey"> &lt; Dwfl *, deleter&lt;</text>
<text text-anchor="start" x="142.75" y="-134.93" font-family="Helvetica,sans-Serif" font-size="11.00" fill="grey"> void, Dwfl *, &amp;dwfl</text>
<text text-anchor="middle" x="188.12" y="-123.67" font-family="Helvetica,sans-Serif" font-size="11.00" fill="grey">_end &gt; &gt;</text>
</g>
<!-- Node5 -->
<g id="Node000005" class="node">
<title>Node5</title>
<g id="a_Node000005"><a xlink:href="classfloppy_1_1stacktrace_1_1details_1_1handle.html" target="_top" xlink:title=" ">
<polygon fill="white" stroke="#bfbfbf" points="375.12,-83.5 278.88,-83.5 278.88,-64.25 375.12,-64.25 375.12,-83.5"/>
<text text-anchor="middle" x="327" y="-69.05" font-family="Helvetica,sans-Serif" font-size="11.00">handle&lt; char * &gt;</text>
</a>
</g>
</g>
<!-- Node1&#45;&gt;Node5 -->
<g id="edge4_Node000001_Node000005" class="edge">
<title>Node1&#45;&gt;Node5</title>
<g id="a_edge4_Node000001_Node000005"><a xlink:title=" ">
<path fill="none" stroke="orange" stroke-dasharray="5,2" d="M117.78,-110.58C122.92,-109.56 128.05,-108.56 133,-107.62 182.63,-98.21 239.62,-88.36 278.74,-81.75"/>
<polygon fill="orange" stroke="orange" points="117.15,-107.14 108.04,-112.53 118.53,-114 117.15,-107.14"/>
</a>
</g>
<text text-anchor="middle" x="188.12" y="-107.67" font-family="Helvetica,sans-Serif" font-size="11.00" fill="grey"> &lt; char * &gt;</text>
</g>
<!-- Node6 -->
<g id="Node000006" class="node">
<title>Node6</title>
<g id="a_Node000006"><a xlink:href="classfloppy_1_1stacktrace_1_1details_1_1handle.html" target="_top" xlink:title=" ">
<polygon fill="white" stroke="#bfbfbf" points="392.75,-41.75 261.25,-41.75 261.25,0 392.75,0 392.75,-41.75"/>
<text text-anchor="start" x="269.25" y="-27.3" font-family="Helvetica,sans-Serif" font-size="11.00">handle&lt; std::ifstream</text>
<text text-anchor="start" x="269.25" y="-16.05" font-family="Helvetica,sans-Serif" font-size="11.00"> *, floppy::default_delete</text>
<text text-anchor="middle" x="327" y="-4.8" font-family="Helvetica,sans-Serif" font-size="11.00">&lt; std::ifstream * &gt; &gt;</text>
</a>
</g>
</g>
<!-- Node1&#45;&gt;Node6 -->
<g id="edge5_Node000001_Node000006" class="edge">
<title>Node1&#45;&gt;Node6</title>
<g id="a_edge5_Node000001_Node000006"><a xlink:title=" ">
<path fill="none" stroke="orange" stroke-dasharray="5,2" d="M72.3,-103.83C85.76,-86.8 107.84,-62.65 133,-50.12 172.59,-30.41 221.97,-23.2 260.87,-20.86"/>
<polygon fill="orange" stroke="orange" points="69.59,-101.61 66.33,-111.69 75.17,-105.84 69.59,-101.61"/>
</a>
</g>
<text text-anchor="start" x="135.62" y="-74.17" font-family="Helvetica,sans-Serif" font-size="11.00" fill="grey"> &lt; std::ifstream *,</text>
<text text-anchor="start" x="135.62" y="-62.92" font-family="Helvetica,sans-Serif" font-size="11.00" fill="grey"> floppy::default_delete</text>
<text text-anchor="middle" x="188.12" y="-51.67" font-family="Helvetica,sans-Serif" font-size="11.00" fill="grey">&lt; std::ifstream * &gt; &gt;</text>
</g>
</g>
</svg>
</svg>

<style type='text/css'>
<![CDATA[
[data-mouse-over-selected='false'] { opacity: 0.7; }
[data-mouse-over-selected='true']  { opacity: 1.0; }
]]>
</style>
<script type="application/ecmascript"><![CDATA[
document.addEventListener('DOMContentLoaded', (event) => {
  highlightEdges();
  highlightAdjacentNodes();
});
]]></script>
</svg>
