<?xml version="1.0" encoding="UTF-8" standalone="no"?>
<!DOCTYPE svg PUBLIC "-//W3C//DTD SVG 1.1//EN"
 "http://www.w3.org/Graphics/SVG/1.1/DTD/svg11.dtd">
<!-- Generated by graphviz version 10.0.1 (0)
 -->
<!-- Title: postcondition_contract_violation Pages: 1 -->
<svg width="131pt" height="260pt"
 viewBox="0.00 0.00 131.25 259.50" xmlns="http://www.w3.org/2000/svg" xmlns:xlink="http://www.w3.org/1999/xlink">
<g id="graph0" class="graph" transform="scale(1 1) rotate(0) translate(4 255.5)">
<title>postcondition_contract_violation</title>
<!-- Node1 -->
<g id="Node000001" class="node">
<title>Node1</title>
<g id="a_Node000001"><a xlink:title="Contract violation for postconditions.">
<polygon fill="#999999" stroke="#666666" points="123.25,-30.5 0,-30.5 0,0 123.25,0 123.25,-30.5"/>
<text text-anchor="start" x="8" y="-16.05" font-family="Helvetica,sans-Serif" font-size="11.00">postcondition_contract</text>
<text text-anchor="middle" x="61.62" y="-4.8" font-family="Helvetica,sans-Serif" font-size="11.00">_violation</text>
</a>
</g>
</g>
<!-- Node2 -->
<g id="Node000002" class="node">
<title>Node2</title>
<g id="a_Node000002"><a xlink:href="classfloppy_1_1contracts_1_1contract__violation.html" target="_top" xlink:title="Base class for all contract violations.">
<polygon fill="white" stroke="#666666" points="111.25,-85.75 12,-85.75 12,-66.5 111.25,-66.5 111.25,-85.75"/>
<text text-anchor="middle" x="61.62" y="-71.3" font-family="Helvetica,sans-Serif" font-size="11.00">contract_violation</text>
</a>
</g>
</g>
<!-- Node2&#45;&gt;Node1 -->
<g id="edge1_Node000001_Node000002" class="edge">
<title>Node2&#45;&gt;Node1</title>
<g id="a_edge1_Node000001_Node000002"><a xlink:title=" ">
<path fill="none" stroke="#63b8ff" d="M61.62,-54.92C61.62,-46.99 61.62,-38.06 61.62,-30.78"/>
<polygon fill="#63b8ff" stroke="#63b8ff" points="58.13,-54.67 61.63,-64.67 65.13,-54.67 58.13,-54.67"/>
</a>
</g>
</g>
<!-- Node3 -->
<g id="Node000003" class="node">
<title>Node3</title>
<g id="a_Node000003"><a xlink:title=" ">
<polygon fill="white" stroke="#666666" points="110.5,-141 12.75,-141 12.75,-121.75 110.5,-121.75 110.5,-141"/>
<text text-anchor="middle" x="61.62" y="-126.55" font-family="Helvetica,sans-Serif" font-size="11.00">invalid_argument</text>
</a>
</g>
</g>
<!-- Node3&#45;&gt;Node2 -->
<g id="edge2_Node000002_Node000003" class="edge">
<title>Node3&#45;&gt;Node2</title>
<g id="a_edge2_Node000002_Node000003"><a xlink:title=" ">
<path fill="none" stroke="#63b8ff" d="M61.62,-110.13C61.62,-101.84 61.62,-92.67 61.62,-86.11"/>
<polygon fill="#63b8ff" stroke="#63b8ff" points="58.13,-110.07 61.63,-120.07 65.13,-110.07 58.13,-110.07"/>
</a>
</g>
</g>
<!-- Node4 -->
<g id="Node000004" class="node">
<title>Node4</title>
<g id="a_Node000004"><a xlink:title=" ">
<polygon fill="white" stroke="#666666" points="95.12,-196.25 28.12,-196.25 28.12,-177 95.12,-177 95.12,-196.25"/>
<text text-anchor="middle" x="61.62" y="-181.8" font-family="Helvetica,sans-Serif" font-size="11.00">logic_error</text>
</a>
</g>
</g>
<!-- Node4&#45;&gt;Node3 -->
<g id="edge3_Node000003_Node000004" class="edge">
<title>Node4&#45;&gt;Node3</title>
<g id="a_edge3_Node000003_Node000004"><a xlink:title=" ">
<path fill="none" stroke="#63b8ff" d="M61.62,-165.38C61.62,-157.09 61.62,-147.92 61.62,-141.36"/>
<polygon fill="#63b8ff" stroke="#63b8ff" points="58.13,-165.32 61.63,-175.32 65.13,-165.32 58.13,-165.32"/>
</a>
</g>
</g>
<!-- Node5 -->
<g id="Node000005" class="node">
<title>Node5</title>
<g id="a_Node000005"><a xlink:title=" ">
<polygon fill="white" stroke="#666666" points="92.5,-251.5 30.75,-251.5 30.75,-232.25 92.5,-232.25 92.5,-251.5"/>
<text text-anchor="middle" x="61.62" y="-237.05" font-family="Helvetica,sans-Serif" font-size="11.00">exception</text>
</a>
</g>
</g>
<!-- Node5&#45;&gt;Node4 -->
<g id="edge4_Node000004_Node000005" class="edge">
<title>Node5&#45;&gt;Node4</title>
<g id="a_edge4_Node000004_Node000005"><a xlink:title=" ">
<path fill="none" stroke="#63b8ff" d="M61.62,-220.63C61.62,-212.34 61.62,-203.17 61.62,-196.61"/>
<polygon fill="#63b8ff" stroke="#63b8ff" points="58.13,-220.57 61.63,-230.57 65.13,-220.57 58.13,-220.57"/>
</a>
</g>
</g>
</g>
</svg>
