<?xml version="1.0" encoding="UTF-8" standalone="no"?>
<!DOCTYPE svg PUBLIC "-//W3C//DTD SVG 1.1//EN"
 "http://www.w3.org/Graphics/SVG/1.1/DTD/svg11.dtd">
<!-- Generated by graphviz version 10.0.1 (0)
 -->
<!-- Title: TraceResolverImpl&lt; TAG &gt; Pages: 1 -->
<svg width="187pt" height="184pt"
 viewBox="0.00 0.00 187.38 183.75" xmlns="http://www.w3.org/2000/svg" xmlns:xlink="http://www.w3.org/1999/xlink">
<g id="graph0" class="graph" transform="scale(1 1) rotate(0) translate(4 179.75)">
<title>TraceResolverImpl&lt; TAG &gt;</title>
<!-- Node1 -->
<g id="Node000001" class="node">
<title>Node1</title>
<g id="a_Node000001"><a xlink:title=" ">
<polygon fill="#999999" stroke="#666666" points="128.12,-175.75 16.12,-175.75 16.12,-145.25 128.12,-145.25 128.12,-175.75"/>
<text text-anchor="start" x="24.12" y="-161.3" font-family="Helvetica,sans-Serif" font-size="11.00">TraceResolverImpl&lt;</text>
<text text-anchor="middle" x="72.12" y="-150.05" font-family="Helvetica,sans-Serif" font-size="11.00"> TAG &gt;</text>
</a>
</g>
</g>
<!-- Node2 -->
<g id="Node000002" class="node">
<title>Node2</title>
<g id="a_Node000002"><a xlink:href="classbackward_1_1TraceResolverImpl.html" target="_top" xlink:title=" ">
<polygon fill="white" stroke="#bfbfbf" points="144.25,-86.75 0,-86.75 0,-56.25 144.25,-56.25 144.25,-86.75"/>
<text text-anchor="start" x="8" y="-72.3" font-family="Helvetica,sans-Serif" font-size="11.00">TraceResolverImpl&lt;</text>
<text text-anchor="middle" x="72.12" y="-61.05" font-family="Helvetica,sans-Serif" font-size="11.00"> system_tag::current_tag &gt;</text>
</a>
</g>
</g>
<!-- Node1&#45;&gt;Node2 -->
<g id="edge1_Node000001_Node000002" class="edge">
<title>Node1&#45;&gt;Node2</title>
<g id="a_edge1_Node000001_Node000002"><a xlink:title=" ">
<path fill="none" stroke="orange" stroke-dasharray="5,2" d="M72.12,-133.87C72.12,-118.66 72.12,-99.92 72.12,-87.18"/>
<polygon fill="orange" stroke="orange" points="68.63,-133.62 72.13,-143.62 75.63,-133.62 68.63,-133.62"/>
</a>
</g>
<text text-anchor="start" x="72.12" y="-116.8" font-family="Helvetica,sans-Serif" font-size="11.00" fill="grey"> &lt; system_tag::current</text>
<text text-anchor="middle" x="125.75" y="-105.55" font-family="Helvetica,sans-Serif" font-size="11.00" fill="grey">_tag &gt;</text>
</g>
<!-- Node3 -->
<g id="Node000003" class="node">
<title>Node3</title>
<g id="a_Node000003"><a xlink:href="classbackward_1_1TraceResolver.html" target="_top" xlink:title=" ">
<polygon fill="white" stroke="#bfbfbf" points="114.62,-19.25 29.62,-19.25 29.62,0 114.62,0 114.62,-19.25"/>
<text text-anchor="middle" x="72.12" y="-4.8" font-family="Helvetica,sans-Serif" font-size="11.00">TraceResolver</text>
</a>
</g>
</g>
<!-- Node2&#45;&gt;Node3 -->
<g id="edge2_Node000002_Node000003" class="edge">
<title>Node2&#45;&gt;Node3</title>
<g id="a_edge2_Node000002_Node000003"><a xlink:title=" ">
<path fill="none" stroke="#63b8ff" d="M72.12,-44.77C72.12,-35.79 72.12,-26.29 72.12,-19.6"/>
<polygon fill="#63b8ff" stroke="#63b8ff" points="68.63,-44.49 72.13,-54.49 75.63,-44.49 68.63,-44.49"/>
</a>
</g>
</g>
</g>
</svg>
