<?xml version="1.0" encoding="UTF-8" standalone="no"?>
<!DOCTYPE svg PUBLIC "-//W3C//DTD SVG 1.1//EN"
 "http://www.w3.org/Graphics/SVG/1.1/DTD/svg11.dtd">
<!-- Generated by graphviz version 10.0.1 (0)
 -->
<!-- Title: project_meta Pages: 1 -->
<svg width="165pt" height="184pt"
 viewBox="0.00 0.00 165.00 183.75" xmlns="http://www.w3.org/2000/svg" xmlns:xlink="http://www.w3.org/1999/xlink">

<svg id="main" version="1.1" xmlns="http://www.w3.org/2000/svg" xmlns:xlink="http://www.w3.org/1999/xlink" xml:space="preserve" onload="init(evt)">
<style type="text/css"><![CDATA[
.node, .edge {opacity: 0.7;}
.node.selected, .edge.selected {opacity: 1;}
.edge:hover path { stroke: red; }
.edge:hover polygon { stroke: red; fill: red; }
]]></style>
<script type="application/ecmascript" xlink:href="svg.min.js"/>
<svg id="graph" class="graph">
<g id="graph0" class="graph" transform="scale(1 1) rotate(0) translate(4 179.75)">
<title>project_meta</title>
<!-- Node1 -->
<g id="Node000001" class="node">
<title>Node1</title>
<g id="a_Node000001"><a xlink:title="Project metadata constexpr structure.">
<polygon fill="#999999" stroke="#666666" points="97.38,-19.25 19.12,-19.25 19.12,0 97.38,0 97.38,-19.25"/>
<text text-anchor="middle" x="58.25" y="-4.8" font-family="Arial" font-size="11.00">project_meta</text>
</a>
</g>
</g>
<!-- Node2 -->
<g id="Node000002" class="node">
<title>Node2</title>
<g id="a_Node000002"><a xlink:href="classfloppy_1_1meta_1_1version.html" target="_top" xlink:title="Version number structure.">
<polygon fill="white" stroke="#666666" points="50.5,-108.25 0,-108.25 0,-89 50.5,-89 50.5,-108.25"/>
<text text-anchor="middle" x="25.25" y="-93.8" font-family="Arial" font-size="11.00">version</text>
</a>
</g>
</g>
<!-- Node2&#45;&gt;Node1 -->
<g id="edge1_Node000001_Node000002" class="edge">
<title>Node2&#45;&gt;Node1</title>
<g id="a_edge1_Node000001_Node000002"><a xlink:title=" ">
<path fill="none" stroke="#9a32cd" stroke-dasharray="5,2" d="M24.13,-77.31C24.25,-65.14 25.82,-49.68 31.75,-37.25 35.01,-30.42 40.75,-24.32 46.06,-19.68"/>
<polygon fill="#9a32cd" stroke="#9a32cd" points="20.63,-77.11 24.38,-87.02 27.62,-76.93 20.63,-77.11"/>
</a>
</g>
<text text-anchor="middle" x="54" y="-49.3" font-family="Arial" font-size="11.00" fill="grey"> version_</text>
</g>
<!-- Node3 -->
<g id="Node000003" class="node">
<title>Node3</title>
<g id="a_Node000003"><a xlink:title=" ">
<polygon fill="white" stroke="#666666" points="138.25,-108.25 68.25,-108.25 68.25,-89 138.25,-89 138.25,-108.25"/>
<text text-anchor="middle" x="103.25" y="-93.8" font-family="Arial" font-size="11.00">string_view</text>
</a>
</g>
</g>
<!-- Node3&#45;&gt;Node1 -->
<g id="edge2_Node000001_Node000003" class="edge">
<title>Node3&#45;&gt;Node1</title>
<g id="a_edge2_Node000001_Node000003"><a xlink:title=" ">
<path fill="none" stroke="#9a32cd" stroke-dasharray="5,2" d="M95.23,-78.64C89.94,-66.59 82.65,-50.76 75.25,-37.25 71.88,-31.09 67.63,-24.44 64.22,-19.32"/>
<polygon fill="#9a32cd" stroke="#9a32cd" points="91.85,-79.65 99.02,-87.46 98.28,-76.89 91.85,-79.65"/>
</a>
</g>
<text text-anchor="middle" x="123.5" y="-60.55" font-family="Arial" font-size="11.00" fill="grey"> domain_</text>
<text text-anchor="middle" x="123.5" y="-49.3" font-family="Arial" font-size="11.00" fill="grey">name_</text>
<text text-anchor="middle" x="123.5" y="-38.05" font-family="Arial" font-size="11.00" fill="grey">organization_</text>
</g>
<!-- Node4 -->
<g id="Node000004" class="node">
<title>Node4</title>
<g id="a_Node000004"><a xlink:title=" ">
<polygon fill="white" stroke="#666666" points="157,-175.75 49.5,-175.75 49.5,-145.25 157,-145.25 157,-175.75"/>
<text text-anchor="start" x="57.5" y="-161.3" font-family="Arial" font-size="11.00">basic_string_view&lt;</text>
<text text-anchor="middle" x="103.25" y="-150.05" font-family="Arial" font-size="11.00"> Char &gt;</text>
</a>
</g>
</g>
<!-- Node4&#45;&gt;Node3 -->
<g id="edge3_Node000003_Node000004" class="edge">
<title>Node4&#45;&gt;Node3</title>
<g id="a_edge3_Node000003_Node000004"><a xlink:title=" ">
<path fill="none" stroke="#63b8ff" d="M103.25,-133.77C103.25,-124.79 103.25,-115.29 103.25,-108.6"/>
<polygon fill="#63b8ff" stroke="#63b8ff" points="99.75,-133.49 103.25,-143.49 106.75,-133.49 99.75,-133.49"/>
</a>
</g>
</g>
</g>
</svg>
</svg>

<style type='text/css'>
<![CDATA[
[data-mouse-over-selected='false'] { opacity: 0.7; }
[data-mouse-over-selected='true']  { opacity: 1.0; }
]]>
</style>
<script type="application/ecmascript"><![CDATA[
document.addEventListener('DOMContentLoaded', (event) => {
  highlightEdges();
  highlightAdjacentNodes();
});
]]></script>
</svg>
