<?xml version="1.0" encoding="UTF-8" standalone="no"?>
<!DOCTYPE svg PUBLIC "-//W3C//DTD SVG 1.1//EN"
 "http://www.w3.org/Graphics/SVG/1.1/DTD/svg11.dtd">
<!-- Generated by graphviz version 10.0.1 (0)
 -->
<!-- Title: stack_trace Pages: 1 -->
<svg width="247pt" height="351pt"
 viewBox="0.00 0.00 247.25 350.50" xmlns="http://www.w3.org/2000/svg" xmlns:xlink="http://www.w3.org/1999/xlink">
<g id="graph0" class="graph" transform="scale(1 1) rotate(0) translate(4 346.5)">
<title>stack_trace</title>
<!-- Node1 -->
<g id="Node000001" class="node">
<title>Node1</title>
<g id="a_Node000001"><a xlink:title=" ">
<polygon fill="#999999" stroke="#666666" points="114.12,-19.25 43.38,-19.25 43.38,0 114.12,0 114.12,-19.25"/>
<text text-anchor="middle" x="78.75" y="-4.8" font-family="Helvetica,sans-Serif" font-size="11.00">stack_trace</text>
</a>
</g>
</g>
<!-- Node2 -->
<g id="Node000002" class="node">
<title>Node2</title>
<g id="a_Node000002"><a xlink:href="classfloppy_1_1stacktrace_1_1impl_1_1stack__trace__impl_3_01system__tag_1_1current_01_4.html" target="_top" xlink:title=" ">
<polygon fill="white" stroke="#bfbfbf" points="148.62,-86.75 8.88,-86.75 8.88,-56.25 148.62,-56.25 148.62,-86.75"/>
<text text-anchor="start" x="16.88" y="-72.3" font-family="Helvetica,sans-Serif" font-size="11.00">stack_trace_impl&lt; system</text>
<text text-anchor="middle" x="78.75" y="-61.05" font-family="Helvetica,sans-Serif" font-size="11.00">_tag::current &gt;</text>
</a>
</g>
</g>
<!-- Node2&#45;&gt;Node1 -->
<g id="edge1_Node000001_Node000002" class="edge">
<title>Node2&#45;&gt;Node1</title>
<g id="a_edge1_Node000001_Node000002"><a xlink:title=" ">
<path fill="none" stroke="#63b8ff" d="M78.75,-44.77C78.75,-35.79 78.75,-26.29 78.75,-19.6"/>
<polygon fill="#63b8ff" stroke="#63b8ff" points="75.25,-44.49 78.75,-54.49 82.25,-44.49 75.25,-44.49"/>
</a>
</g>
</g>
<!-- Node3 -->
<g id="Node000003" class="node">
<title>Node3</title>
<g id="a_Node000003"><a xlink:href="classfloppy_1_1stacktrace_1_1impl_1_1stack__trace__impl__holder.html" target="_top" xlink:title=" ">
<polygon fill="white" stroke="#bfbfbf" points="144.88,-143 12.62,-143 12.62,-123.75 144.88,-123.75 144.88,-143"/>
<text text-anchor="middle" x="78.75" y="-128.55" font-family="Helvetica,sans-Serif" font-size="11.00">stack_trace_impl_holder</text>
</a>
</g>
</g>
<!-- Node3&#45;&gt;Node2 -->
<g id="edge2_Node000002_Node000003" class="edge">
<title>Node3&#45;&gt;Node2</title>
<g id="a_edge2_Node000002_Node000003"><a xlink:title=" ">
<path fill="none" stroke="#63b8ff" d="M72.31,-111.94C71.75,-103.68 71.95,-94.34 72.89,-86.82"/>
<polygon fill="#63b8ff" stroke="#63b8ff" points="68.83,-112.3 73.55,-121.78 75.77,-111.42 68.83,-112.3"/>
</a>
</g>
</g>
<!-- Node3&#45;&gt;Node2 -->
<g id="edge7_Node000002_Node000003" class="edge">
<title>Node3&#45;&gt;Node2</title>
<g id="a_edge7_Node000002_Node000003"><a xlink:title=" ">
<path fill="none" stroke="#63b8ff" d="M85.19,-111.94C85.75,-103.68 85.55,-94.34 84.61,-86.82"/>
<polygon fill="#63b8ff" stroke="#63b8ff" points="81.73,-111.42 83.95,-121.78 88.67,-112.3 81.73,-111.42"/>
</a>
</g>
</g>
<!-- Node4 -->
<g id="Node000004" class="node">
<title>Node4</title>
<g id="a_Node000004"><a xlink:href="classfloppy_1_1stacktrace_1_1impl_1_1stack__trace__impl__base.html" target="_top" xlink:title=" ">
<polygon fill="white" stroke="#bfbfbf" points="125.5,-209.5 0,-209.5 0,-190.25 125.5,-190.25 125.5,-209.5"/>
<text text-anchor="middle" x="62.75" y="-195.05" font-family="Helvetica,sans-Serif" font-size="11.00">stack_trace_impl_base</text>
</a>
</g>
</g>
<!-- Node4&#45;&gt;Node3 -->
<g id="edge3_Node000003_Node000004" class="edge">
<title>Node4&#45;&gt;Node3</title>
<g id="a_edge3_Node000003_Node000004"><a xlink:title=" ">
<path fill="none" stroke="#63b8ff" d="M67.74,-178.77C70.69,-166.87 74.28,-152.38 76.54,-143.27"/>
<polygon fill="#63b8ff" stroke="#63b8ff" points="64.35,-177.89 65.34,-188.44 71.14,-179.57 64.35,-177.89"/>
</a>
</g>
</g>
<!-- Node5 -->
<g id="Node000005" class="node">
<title>Node5</title>
<g id="a_Node000005"><a xlink:title=" ">
<polygon fill="white" stroke="#666666" points="235.62,-209.5 143.88,-209.5 143.88,-190.25 235.62,-190.25 235.62,-209.5"/>
<text text-anchor="middle" x="189.75" y="-195.05" font-family="Helvetica,sans-Serif" font-size="11.00">vector&lt; void * &gt;</text>
</a>
</g>
</g>
<!-- Node5&#45;&gt;Node3 -->
<g id="edge4_Node000003_Node000005" class="edge">
<title>Node5&#45;&gt;Node3</title>
<g id="a_edge4_Node000003_Node000005"><a xlink:title=" ">
<path fill="none" stroke="#9a32cd" stroke-dasharray="5,2" d="M164.53,-184.22C142.97,-171.69 112.63,-154.06 94.41,-143.48"/>
<polygon fill="#9a32cd" stroke="#9a32cd" points="162.6,-187.15 173.01,-189.15 166.12,-181.1 162.6,-187.15"/>
</a>
</g>
<text text-anchor="middle" x="170" y="-161.8" font-family="Helvetica,sans-Serif" font-size="11.00" fill="grey"> _stacktrace</text>
</g>
<!-- Node6 -->
<g id="Node000006" class="node">
<title>Node6</title>
<g id="a_Node000006"><a xlink:title=" ">
<polygon fill="white" stroke="#666666" points="225.5,-276 154,-276 154,-256.75 225.5,-256.75 225.5,-276"/>
<text text-anchor="middle" x="189.75" y="-261.55" font-family="Helvetica,sans-Serif" font-size="11.00">vector&lt; T &gt;</text>
</a>
</g>
</g>
<!-- Node6&#45;&gt;Node5 -->
<g id="edge5_Node000005_Node000006" class="edge">
<title>Node6&#45;&gt;Node5</title>
<g id="a_edge5_Node000005_Node000006"><a xlink:title=" ">
<path fill="none" stroke="orange" stroke-dasharray="5,2" d="M189.75,-244.9C189.75,-233.07 189.75,-218.79 189.75,-209.77"/>
<polygon fill="orange" stroke="orange" points="186.25,-244.89 189.75,-254.89 193.25,-244.89 186.25,-244.89"/>
</a>
</g>
<text text-anchor="middle" x="214.5" y="-228.3" font-family="Helvetica,sans-Serif" font-size="11.00" fill="grey"> &lt; void * &gt;</text>
</g>
<!-- Node7 -->
<g id="Node000007" class="node">
<title>Node7</title>
<g id="a_Node000007"><a xlink:title=" ">
<polygon fill="white" stroke="#bfbfbf" points="204.15,-342.5 175.35,-342.5 175.35,-323.25 204.15,-323.25 204.15,-342.5"/>
<text text-anchor="middle" x="189.75" y="-328.05" font-family="Helvetica,sans-Serif" font-size="11.00">T</text>
</a>
</g>
</g>
<!-- Node7&#45;&gt;Node6 -->
<g id="edge6_Node000006_Node000007" class="edge">
<title>Node7&#45;&gt;Node6</title>
<g id="a_edge6_Node000006_Node000007"><a xlink:title=" ">
<path fill="none" stroke="#9a32cd" stroke-dasharray="5,2" d="M189.75,-311.4C189.75,-299.57 189.75,-285.29 189.75,-276.27"/>
<polygon fill="#9a32cd" stroke="#9a32cd" points="186.25,-311.39 189.75,-321.39 193.25,-311.39 186.25,-311.39"/>
</a>
</g>
<text text-anchor="middle" x="213" y="-294.8" font-family="Helvetica,sans-Serif" font-size="11.00" fill="grey"> elements</text>
</g>
</g>
</svg>
