<?xml version="1.0" encoding="UTF-8" standalone="no"?>
<!DOCTYPE svg PUBLIC "-//W3C//DTD SVG 1.1//EN"
 "http://www.w3.org/Graphics/SVG/1.1/DTD/svg11.dtd">
<!-- Generated by graphviz version 10.0.1 (0)
 -->
<!-- Title: handle&lt; T, Deleter &gt; Pages: 1 -->
<svg width="401pt" height="257pt"
 viewBox="0.00 0.00 400.75 257.38" xmlns="http://www.w3.org/2000/svg" xmlns:xlink="http://www.w3.org/1999/xlink">

<svg id="main" version="1.1" xmlns="http://www.w3.org/2000/svg" xmlns:xlink="http://www.w3.org/1999/xlink" xml:space="preserve" onload="init(evt)">
<style type="text/css"><![CDATA[
.node, .edge {opacity: 0.7;}
.node.selected, .edge.selected {opacity: 1;}
.edge:hover path { stroke: red; }
.edge:hover polygon { stroke: red; fill: red; }
]]></style>
<script type="application/ecmascript" xlink:href="svg.min.js"/>
<svg id="graph" class="graph">
<g id="graph0" class="graph" transform="scale(1 1) rotate(0) translate(4 253.38)">
<title>handle&lt; T, Deleter &gt;</title>
<!-- Node1 -->
<g id="Node000001" class="node">
<title>Node1</title>
<g id="a_Node000001"><a xlink:title=" ">
<polygon fill="#999999" stroke="#666666" points="115,-126.25 0,-126.25 0,-107 115,-107 115,-126.25"/>
<text text-anchor="middle" x="57.5" y="-111.8" font-family="Helvetica,sans-Serif" font-size="11.00">handle&lt; T, Deleter &gt;</text>
</a>
</g>
</g>
<!-- Node2 -->
<g id="Node000002" class="node">
<title>Node2</title>
<g id="a_Node000002"><a xlink:href="classfloppy_1_1stacktrace_1_1details_1_1handle.html" target="_top" xlink:title=" ">
<polygon fill="white" stroke="#bfbfbf" points="392.75,-243.5 261.25,-243.5 261.25,-201.75 392.75,-201.75 392.75,-243.5"/>
<text text-anchor="start" x="269.25" y="-229.05" font-family="Helvetica,sans-Serif" font-size="11.00">handle&lt; std::ifstream</text>
<text text-anchor="start" x="269.25" y="-217.8" font-family="Helvetica,sans-Serif" font-size="11.00"> *, floppy::default_delete</text>
<text text-anchor="middle" x="327" y="-206.55" font-family="Helvetica,sans-Serif" font-size="11.00">&lt; std::ifstream * &gt; &gt;</text>
</a>
</g>
</g>
<!-- Node1&#45;&gt;Node2 -->
<g id="edge1_Node000001_Node000002" class="edge">
<title>Node1&#45;&gt;Node2</title>
<g id="a_edge1_Node000001_Node000002"><a xlink:title=" ">
<path fill="none" stroke="orange" stroke-dasharray="5,2" d="M73.36,-134.94C87.15,-150.63 109.08,-172.56 133,-184.62 172.79,-204.69 222.17,-214.18 261.02,-218.65"/>
<polygon fill="orange" stroke="orange" points="76.36,-133.06 67.22,-127.69 71.02,-137.58 76.36,-133.06"/>
</a>
</g>
<text text-anchor="start" x="135.62" y="-238.93" font-family="Helvetica,sans-Serif" font-size="11.00" fill="grey"> &lt; std::ifstream *,</text>
<text text-anchor="start" x="135.62" y="-227.68" font-family="Helvetica,sans-Serif" font-size="11.00" fill="grey"> floppy::default_delete</text>
<text text-anchor="middle" x="188.12" y="-216.43" font-family="Helvetica,sans-Serif" font-size="11.00" fill="grey">&lt; std::ifstream * &gt; &gt;</text>
</g>
<!-- Node3 -->
<g id="Node000003" class="node">
<title>Node3</title>
<g id="a_Node000003"><a xlink:href="classfloppy_1_1stacktrace_1_1details_1_1handle.html" target="_top" xlink:title=" ">
<polygon fill="white" stroke="#bfbfbf" points="377.38,-183.25 276.62,-183.25 276.62,-164 377.38,-164 377.38,-183.25"/>
<text text-anchor="middle" x="327" y="-168.8" font-family="Helvetica,sans-Serif" font-size="11.00">handle&lt; char ** &gt;</text>
</a>
</g>
</g>
<!-- Node1&#45;&gt;Node3 -->
<g id="edge2_Node000001_Node000003" class="edge">
<title>Node1&#45;&gt;Node3</title>
<g id="a_edge2_Node000001_Node000003"><a xlink:title=" ">
<path fill="none" stroke="orange" stroke-dasharray="5,2" d="M85.43,-131.89C99.24,-139.03 116.57,-146.96 133,-151.62 180.53,-165.11 236.87,-170.36 276.36,-172.39"/>
<polygon fill="orange" stroke="orange" points="87.44,-128.99 76.97,-127.36 84.14,-135.16 87.44,-128.99"/>
</a>
</g>
<text text-anchor="middle" x="188.12" y="-170.43" font-family="Helvetica,sans-Serif" font-size="11.00" fill="grey"> &lt; char ** &gt;</text>
</g>
<!-- Node4 -->
<g id="Node000004" class="node">
<title>Node4</title>
<g id="a_Node000004"><a xlink:href="classfloppy_1_1stacktrace_1_1details_1_1handle.html" target="_top" xlink:title=" ">
<polygon fill="white" stroke="#bfbfbf" points="392.75,-139.5 261.25,-139.5 261.25,-97.75 392.75,-97.75 392.75,-139.5"/>
<text text-anchor="start" x="269.25" y="-125.05" font-family="Helvetica,sans-Serif" font-size="11.00">handle&lt; Dwfl_Callbacks</text>
<text text-anchor="start" x="269.25" y="-113.8" font-family="Helvetica,sans-Serif" font-size="11.00"> *, floppy::default_delete</text>
<text text-anchor="middle" x="327" y="-102.55" font-family="Helvetica,sans-Serif" font-size="11.00">&lt; Dwfl_Callbacks * &gt; &gt;</text>
</a>
</g>
</g>
<!-- Node1&#45;&gt;Node4 -->
<g id="edge3_Node000001_Node000004" class="edge">
<title>Node1&#45;&gt;Node4</title>
<g id="a_edge3_Node000001_Node000004"><a xlink:title=" ">
<path fill="none" stroke="orange" stroke-dasharray="5,2" d="M126.6,-117.05C161.48,-117.27 204.64,-117.57 243.25,-117.88 249,-117.92 254.97,-117.97 260.95,-118.02"/>
<polygon fill="orange" stroke="orange" points="126.64,-113.55 116.61,-116.98 126.59,-120.55 126.64,-113.55"/>
</a>
</g>
<text text-anchor="start" x="133" y="-140.93" font-family="Helvetica,sans-Serif" font-size="11.00" fill="grey"> &lt; Dwfl_Callbacks *,</text>
<text text-anchor="start" x="133" y="-129.68" font-family="Helvetica,sans-Serif" font-size="11.00" fill="grey"> floppy::default_delete</text>
<text text-anchor="middle" x="188.12" y="-118.42" font-family="Helvetica,sans-Serif" font-size="11.00" fill="grey">&lt; Dwfl_Callbacks * &gt; &gt;</text>
</g>
<!-- Node5 -->
<g id="Node000005" class="node">
<title>Node5</title>
<g id="a_Node000005"><a xlink:href="classfloppy_1_1stacktrace_1_1details_1_1handle.html" target="_top" xlink:title=" ">
<polygon fill="white" stroke="#bfbfbf" points="390.12,-79.5 263.88,-79.5 263.88,-37.75 390.12,-37.75 390.12,-79.5"/>
<text text-anchor="start" x="271.88" y="-65.05" font-family="Helvetica,sans-Serif" font-size="11.00">handle&lt; Dwfl *, deleter</text>
<text text-anchor="start" x="271.88" y="-53.8" font-family="Helvetica,sans-Serif" font-size="11.00">&lt; void, Dwfl *, &amp;dwfl</text>
<text text-anchor="middle" x="327" y="-42.55" font-family="Helvetica,sans-Serif" font-size="11.00">_end &gt; &gt;</text>
</a>
</g>
</g>
<!-- Node1&#45;&gt;Node5 -->
<g id="edge4_Node000001_Node000005" class="edge">
<title>Node1&#45;&gt;Node5</title>
<g id="a_edge4_Node000001_Node000005"><a xlink:title=" ">
<path fill="none" stroke="orange" stroke-dasharray="5,2" d="M83.9,-100.83C97.88,-92.91 115.82,-83.94 133,-78.88 175.49,-66.34 225.26,-61.34 263.61,-59.44"/>
<polygon fill="orange" stroke="orange" points="82.23,-97.75 75.38,-105.84 85.77,-103.79 82.23,-97.75"/>
</a>
</g>
<text text-anchor="start" x="142.75" y="-101.92" font-family="Helvetica,sans-Serif" font-size="11.00" fill="grey"> &lt; Dwfl *, deleter&lt;</text>
<text text-anchor="start" x="142.75" y="-90.67" font-family="Helvetica,sans-Serif" font-size="11.00" fill="grey"> void, Dwfl *, &amp;dwfl</text>
<text text-anchor="middle" x="188.12" y="-79.42" font-family="Helvetica,sans-Serif" font-size="11.00" fill="grey">_end &gt; &gt;</text>
</g>
<!-- Node6 -->
<g id="Node000006" class="node">
<title>Node6</title>
<g id="a_Node000006"><a xlink:href="classfloppy_1_1stacktrace_1_1details_1_1handle.html" target="_top" xlink:title=" ">
<polygon fill="white" stroke="#bfbfbf" points="375.12,-19.25 278.88,-19.25 278.88,0 375.12,0 375.12,-19.25"/>
<text text-anchor="middle" x="327" y="-4.8" font-family="Helvetica,sans-Serif" font-size="11.00">handle&lt; char * &gt;</text>
</a>
</g>
</g>
<!-- Node1&#45;&gt;Node6 -->
<g id="edge5_Node000001_Node000006" class="edge">
<title>Node1&#45;&gt;Node6</title>
<g id="a_edge5_Node000001_Node000006"><a xlink:title=" ">
<path fill="none" stroke="orange" stroke-dasharray="5,2" d="M72.7,-97.89C86.3,-81.36 108.36,-57.99 133,-45.38 178.96,-21.85 238.11,-13.65 278.75,-10.87"/>
<polygon fill="orange" stroke="orange" points="70.13,-95.51 66.65,-105.52 75.61,-99.86 70.13,-95.51"/>
</a>
</g>
<text text-anchor="middle" x="188.12" y="-45.42" font-family="Helvetica,sans-Serif" font-size="11.00" fill="grey"> &lt; char * &gt;</text>
</g>
</g>
</svg>
</svg>

<style type='text/css'>
<![CDATA[
[data-mouse-over-selected='false'] { opacity: 0.7; }
[data-mouse-over-selected='true']  { opacity: 1.0; }
]]>
</style>
<script type="application/ecmascript"><![CDATA[
document.addEventListener('DOMContentLoaded', (event) => {
  highlightEdges();
  highlightAdjacentNodes();
});
]]></script>
</svg>
