<?xml version="1.0" encoding="UTF-8" standalone="no"?>
<!DOCTYPE svg PUBLIC "-//W3C//DTD SVG 1.1//EN"
 "http://www.w3.org/Graphics/SVG/1.1/DTD/svg11.dtd">
<!-- Generated by graphviz version 10.0.1 (0)
 -->
<!-- Title: vector2d&lt; U, T &gt; Pages: 1 -->
<svg width="271pt" height="274pt"
 viewBox="0.00 0.00 271.00 273.75" xmlns="http://www.w3.org/2000/svg" xmlns:xlink="http://www.w3.org/1999/xlink">

<svg id="main" version="1.1" xmlns="http://www.w3.org/2000/svg" xmlns:xlink="http://www.w3.org/1999/xlink" xml:space="preserve" onload="init(evt)">
<style type="text/css"><![CDATA[
.node, .edge {opacity: 0.7;}
.node.selected, .edge.selected {opacity: 1;}
.edge:hover path { stroke: red; }
.edge:hover polygon { stroke: red; fill: red; }
]]></style>
<script type="application/ecmascript" xlink:href="svg.min.js"/>
<svg id="graph" class="graph">
<g id="graph0" class="graph" transform="scale(1 1) rotate(0) translate(4 269.75)">
<title>vector2d&lt; U, T &gt;</title>
<!-- Node1 -->
<g id="Node000001" class="node">
<title>Node1</title>
<g id="a_Node000001"><a xlink:title="A two&#45;dimensional vector tagged with a unit.">
<polygon fill="#999999" stroke="#666666" points="154,-19.25 57,-19.25 57,0 154,0 154,-19.25"/>
<text text-anchor="middle" x="105.5" y="-4.8" font-family="Helvetica,sans-Serif" font-size="11.00">vector2d&lt; U, T &gt;</text>
</a>
</g>
</g>
<!-- Node2 -->
<g id="Node000002" class="node">
<title>Node2</title>
<g id="a_Node000002"><a xlink:href="structfloppy_1_1math_1_1detail_1_1basic__two__dimensional__type.html" target="_top" xlink:title="CRTP base class for two dimensional numerical types.">
<polygon fill="white" stroke="#666666" points="168.62,-86.75 42.38,-86.75 42.38,-56.25 168.62,-56.25 168.62,-86.75"/>
<text text-anchor="start" x="50.38" y="-72.3" font-family="Helvetica,sans-Serif" font-size="11.00">basic_two_dimensional</text>
<text text-anchor="middle" x="105.5" y="-61.05" font-family="Helvetica,sans-Serif" font-size="11.00">_type&lt; T, U, N &gt;</text>
</a>
</g>
</g>
<!-- Node2&#45;&gt;Node1 -->
<g id="edge1_Node000001_Node000002" class="edge">
<title>Node2&#45;&gt;Node1</title>
<g id="a_edge1_Node000001_Node000002"><a xlink:title=" ">
<path fill="none" stroke="#63b8ff" d="M105.5,-44.77C105.5,-35.79 105.5,-26.29 105.5,-19.6"/>
<polygon fill="#63b8ff" stroke="#63b8ff" points="102,-44.49 105.5,-54.49 109,-44.49 102,-44.49"/>
</a>
</g>
</g>
<!-- Node3 -->
<g id="Node000003" class="node">
<title>Node3</title>
<g id="a_Node000003"><a xlink:href="structfloppy_1_1traits_1_1formattable.html" target="_top" xlink:title=" ">
<polygon fill="white" stroke="#666666" points="166.75,-143 44.25,-143 44.25,-123.75 166.75,-123.75 166.75,-143"/>
<text text-anchor="middle" x="105.5" y="-128.55" font-family="Helvetica,sans-Serif" font-size="11.00">formattable&lt; T, char &gt;</text>
</a>
</g>
</g>
<!-- Node3&#45;&gt;Node2 -->
<g id="edge2_Node000002_Node000003" class="edge">
<title>Node3&#45;&gt;Node2</title>
<g id="a_edge2_Node000002_Node000003"><a xlink:title=" ">
<path fill="none" stroke="#63b8ff" d="M105.5,-111.94C105.5,-103.68 105.5,-94.34 105.5,-86.82"/>
<polygon fill="#63b8ff" stroke="#63b8ff" points="102,-111.77 105.5,-121.77 109,-111.77 102,-111.77"/>
</a>
</g>
</g>
<!-- Node4 -->
<g id="Node000004" class="node">
<title>Node4</title>
<g id="a_Node000004"><a xlink:href="structfloppy_1_1traits_1_1detail_1_1formattable__base.html" target="_top" xlink:title="Interface, providing to_string method.">
<polygon fill="white" stroke="#666666" points="127,-209.5 0,-209.5 0,-190.25 127,-190.25 127,-209.5"/>
<text text-anchor="middle" x="63.5" y="-195.05" font-family="Helvetica,sans-Serif" font-size="11.00">formattable_base&lt; C &gt;</text>
</a>
</g>
</g>
<!-- Node4&#45;&gt;Node3 -->
<g id="edge3_Node000003_Node000004" class="edge">
<title>Node4&#45;&gt;Node3</title>
<g id="a_edge3_Node000003_Node000004"><a xlink:title=" ">
<path fill="none" stroke="#63b8ff" d="M75.62,-180.26C83.54,-168.1 93.52,-152.77 99.71,-143.27"/>
<polygon fill="#63b8ff" stroke="#63b8ff" points="72.69,-178.35 70.17,-188.64 78.56,-182.17 72.69,-178.35"/>
</a>
</g>
</g>
<!-- Node5 -->
<g id="Node000005" class="node">
<title>Node5</title>
<g id="a_Node000005"><a xlink:href="structfloppy_1_1traits_1_1formattable.html" target="_top" xlink:title="Allows type to be converted to string and printed via standard streams or fmt.">
<polygon fill="white" stroke="#666666" points="254.38,-209.5 144.62,-209.5 144.62,-190.25 254.38,-190.25 254.38,-209.5"/>
<text text-anchor="middle" x="199.5" y="-195.05" font-family="Helvetica,sans-Serif" font-size="11.00">formattable&lt; T, C &gt;</text>
</a>
</g>
</g>
<!-- Node5&#45;&gt;Node3 -->
<g id="edge4_Node000003_Node000005" class="edge">
<title>Node5&#45;&gt;Node3</title>
<g id="a_edge4_Node000003_Node000005"><a xlink:title=" ">
<path fill="none" stroke="orange" stroke-dasharray="5,2" d="M177.14,-183.53C158.96,-171.06 133.91,-153.87 118.76,-143.48"/>
<polygon fill="orange" stroke="orange" points="174.96,-186.28 185.18,-189.05 178.92,-180.51 174.96,-186.28"/>
</a>
</g>
<text text-anchor="middle" x="185.25" y="-161.8" font-family="Helvetica,sans-Serif" font-size="11.00" fill="grey"> &lt; T, char &gt;</text>
</g>
<!-- Node6 -->
<g id="Node000006" class="node">
<title>Node6</title>
<g id="a_Node000006"><a xlink:href="structfloppy_1_1traits_1_1detail_1_1formattable__base.html" target="_top" xlink:title="Interface, providing to_string method.">
<polygon fill="white" stroke="#666666" points="263,-265.75 136,-265.75 136,-246.5 263,-246.5 263,-265.75"/>
<text text-anchor="middle" x="199.5" y="-251.3" font-family="Helvetica,sans-Serif" font-size="11.00">formattable_base&lt; C &gt;</text>
</a>
</g>
</g>
<!-- Node6&#45;&gt;Node5 -->
<g id="edge5_Node000005_Node000006" class="edge">
<title>Node6&#45;&gt;Node5</title>
<g id="a_edge5_Node000005_Node000006"><a xlink:title=" ">
<path fill="none" stroke="#63b8ff" d="M199.5,-234.94C199.5,-226.23 199.5,-216.49 199.5,-209.67"/>
<polygon fill="#63b8ff" stroke="#63b8ff" points="196,-234.65 199.5,-244.65 203,-234.65 196,-234.65"/>
</a>
</g>
</g>
</g>
</svg>
</svg>

<style type='text/css'>
<![CDATA[
[data-mouse-over-selected='false'] { opacity: 0.7; }
[data-mouse-over-selected='true']  { opacity: 1.0; }
]]>
</style>
<script type="application/ecmascript"><![CDATA[
document.addEventListener('DOMContentLoaded', (event) => {
  highlightEdges();
  highlightAdjacentNodes();
});
]]></script>
</svg>
