<?xml version="1.0" encoding="UTF-8" standalone="no"?>
<!DOCTYPE svg PUBLIC "-//W3C//DTD SVG 1.1//EN"
 "http://www.w3.org/Graphics/SVG/1.1/DTD/svg11.dtd">
<!-- Generated by graphviz version 10.0.1 (0)
 -->
<!-- Title: StackTraceImpl&lt; system_tag::current_tag &gt; Pages: 1 -->
<svg width="236pt" height="294pt"
 viewBox="0.00 0.00 236.00 294.25" xmlns="http://www.w3.org/2000/svg" xmlns:xlink="http://www.w3.org/1999/xlink">
<g id="graph0" class="graph" transform="scale(1 1) rotate(0) translate(4 290.25)">
<title>StackTraceImpl&lt; system_tag::current_tag &gt;</title>
<!-- Node1 -->
<g id="Node000001" class="node">
<title>Node1</title>
<g id="a_Node000001"><a xlink:title=" ">
<polygon fill="#999999" stroke="#666666" points="162.38,-30.5 28.62,-30.5 28.62,0 162.38,0 162.38,-30.5"/>
<text text-anchor="start" x="36.62" y="-16.05" font-family="Helvetica,sans-Serif" font-size="11.00">StackTraceImpl&lt; system</text>
<text text-anchor="middle" x="95.5" y="-4.8" font-family="Helvetica,sans-Serif" font-size="11.00">_tag::current_tag &gt;</text>
</a>
</g>
</g>
<!-- Node2 -->
<g id="Node000002" class="node">
<title>Node2</title>
<g id="a_Node000002"><a xlink:href="classfloppy_1_1stacktrace_1_1StackTraceImplHolder.html" target="_top" xlink:title=" ">
<polygon fill="white" stroke="#bfbfbf" points="156.75,-86.75 34.25,-86.75 34.25,-67.5 156.75,-67.5 156.75,-86.75"/>
<text text-anchor="middle" x="95.5" y="-72.3" font-family="Helvetica,sans-Serif" font-size="11.00">StackTraceImplHolder</text>
</a>
</g>
</g>
<!-- Node2&#45;&gt;Node1 -->
<g id="edge1_Node000001_Node000002" class="edge">
<title>Node2&#45;&gt;Node1</title>
<g id="a_edge1_Node000001_Node000002"><a xlink:title=" ">
<path fill="none" stroke="#63b8ff" d="M95.5,-55.69C95.5,-47.43 95.5,-38.09 95.5,-30.57"/>
<polygon fill="#63b8ff" stroke="#63b8ff" points="92,-55.52 95.5,-65.52 99,-55.52 92,-55.52"/>
</a>
</g>
</g>
<!-- Node3 -->
<g id="Node000003" class="node">
<title>Node3</title>
<g id="a_Node000003"><a xlink:href="classfloppy_1_1stacktrace_1_1StackTraceImplBase.html" target="_top" xlink:title=" ">
<polygon fill="white" stroke="#bfbfbf" points="115,-153.25 0,-153.25 0,-134 115,-134 115,-153.25"/>
<text text-anchor="middle" x="57.5" y="-138.8" font-family="Helvetica,sans-Serif" font-size="11.00">StackTraceImplBase</text>
</a>
</g>
</g>
<!-- Node3&#45;&gt;Node2 -->
<g id="edge2_Node000002_Node000003" class="edge">
<title>Node3&#45;&gt;Node2</title>
<g id="a_edge2_Node000002_Node000003"><a xlink:title=" ">
<path fill="none" stroke="#63b8ff" d="M68.47,-124.01C75.63,-111.85 84.66,-96.52 90.26,-87.02"/>
<polygon fill="#63b8ff" stroke="#63b8ff" points="65.61,-121.96 63.55,-132.35 71.64,-125.51 65.61,-121.96"/>
</a>
</g>
</g>
<!-- Node4 -->
<g id="Node000004" class="node">
<title>Node4</title>
<g id="a_Node000004"><a xlink:title=" ">
<polygon fill="white" stroke="#666666" points="224.38,-153.25 132.62,-153.25 132.62,-134 224.38,-134 224.38,-153.25"/>
<text text-anchor="middle" x="178.5" y="-138.8" font-family="Helvetica,sans-Serif" font-size="11.00">vector&lt; void * &gt;</text>
</a>
</g>
</g>
<!-- Node4&#45;&gt;Node2 -->
<g id="edge3_Node000002_Node000004" class="edge">
<title>Node4&#45;&gt;Node2</title>
<g id="a_edge3_Node000002_Node000004"><a xlink:title=" ">
<path fill="none" stroke="#9a32cd" stroke-dasharray="5,2" d="M158.31,-126.93C142.29,-114.49 120.47,-97.53 107.21,-87.23"/>
<polygon fill="#9a32cd" stroke="#9a32cd" points="155.72,-129.36 165.76,-132.73 160.02,-123.83 155.72,-129.36"/>
</a>
</g>
<text text-anchor="middle" x="170.75" y="-105.55" font-family="Helvetica,sans-Serif" font-size="11.00" fill="grey"> _stacktrace</text>
</g>
<!-- Node5 -->
<g id="Node000005" class="node">
<title>Node5</title>
<g id="a_Node000005"><a xlink:title=" ">
<polygon fill="white" stroke="#666666" points="214.25,-219.75 142.75,-219.75 142.75,-200.5 214.25,-200.5 214.25,-219.75"/>
<text text-anchor="middle" x="178.5" y="-205.3" font-family="Helvetica,sans-Serif" font-size="11.00">vector&lt; T &gt;</text>
</a>
</g>
</g>
<!-- Node5&#45;&gt;Node4 -->
<g id="edge4_Node000004_Node000005" class="edge">
<title>Node5&#45;&gt;Node4</title>
<g id="a_edge4_Node000004_Node000005"><a xlink:title=" ">
<path fill="none" stroke="orange" stroke-dasharray="5,2" d="M178.5,-188.65C178.5,-176.82 178.5,-162.54 178.5,-153.52"/>
<polygon fill="orange" stroke="orange" points="175,-188.64 178.5,-198.64 182,-188.64 175,-188.64"/>
</a>
</g>
<text text-anchor="middle" x="203.25" y="-172.05" font-family="Helvetica,sans-Serif" font-size="11.00" fill="grey"> &lt; void * &gt;</text>
</g>
<!-- Node6 -->
<g id="Node000006" class="node">
<title>Node6</title>
<g id="a_Node000006"><a xlink:title=" ">
<polygon fill="white" stroke="#bfbfbf" points="192.9,-286.25 164.1,-286.25 164.1,-267 192.9,-267 192.9,-286.25"/>
<text text-anchor="middle" x="178.5" y="-271.8" font-family="Helvetica,sans-Serif" font-size="11.00">T</text>
</a>
</g>
</g>
<!-- Node6&#45;&gt;Node5 -->
<g id="edge5_Node000005_Node000006" class="edge">
<title>Node6&#45;&gt;Node5</title>
<g id="a_edge5_Node000005_Node000006"><a xlink:title=" ">
<path fill="none" stroke="#9a32cd" stroke-dasharray="5,2" d="M178.5,-255.15C178.5,-243.32 178.5,-229.04 178.5,-220.02"/>
<polygon fill="#9a32cd" stroke="#9a32cd" points="175,-255.14 178.5,-265.14 182,-255.14 175,-255.14"/>
</a>
</g>
<text text-anchor="middle" x="201.75" y="-238.55" font-family="Helvetica,sans-Serif" font-size="11.00" fill="grey"> elements</text>
</g>
</g>
</svg>
