<?xml version="1.0" encoding="UTF-8" standalone="no"?>
<!DOCTYPE svg PUBLIC "-//W3C//DTD SVG 1.1//EN"
 "http://www.w3.org/Graphics/SVG/1.1/DTD/svg11.dtd">
<!-- Generated by graphviz version 10.0.1 (0)
 -->
<!-- Title: invalid_smart_pointer_access Pages: 1 -->
<svg width="126pt" height="149pt"
 viewBox="0.00 0.00 126.00 149.00" xmlns="http://www.w3.org/2000/svg" xmlns:xlink="http://www.w3.org/1999/xlink">
<g id="graph0" class="graph" transform="scale(1 1) rotate(0) translate(4 145)">
<title>invalid_smart_pointer_access</title>
<!-- Node1 -->
<g id="Node000001" class="node">
<title>Node1</title>
<g id="a_Node000001"><a xlink:title="Exception thrown when trying to access invalid smart pointer.">
<polygon fill="#999999" stroke="#666666" points="118,-30.5 0,-30.5 0,0 118,0 118,-30.5"/>
<text text-anchor="start" x="8" y="-16.05" font-family="Helvetica,sans-Serif" font-size="11.00">invalid_smart_pointer</text>
<text text-anchor="middle" x="59" y="-4.8" font-family="Helvetica,sans-Serif" font-size="11.00">_access</text>
</a>
</g>
</g>
<!-- Node2 -->
<g id="Node000002" class="node">
<title>Node2</title>
<g id="a_Node000002"><a xlink:title=" ">
<polygon fill="white" stroke="#666666" points="92.5,-85.75 25.5,-85.75 25.5,-66.5 92.5,-66.5 92.5,-85.75"/>
<text text-anchor="middle" x="59" y="-71.3" font-family="Helvetica,sans-Serif" font-size="11.00">logic_error</text>
</a>
</g>
</g>
<!-- Node2&#45;&gt;Node1 -->
<g id="edge1_Node000001_Node000002" class="edge">
<title>Node2&#45;&gt;Node1</title>
<g id="a_edge1_Node000001_Node000002"><a xlink:title=" ">
<path fill="none" stroke="#63b8ff" d="M59,-54.92C59,-46.99 59,-38.06 59,-30.78"/>
<polygon fill="#63b8ff" stroke="#63b8ff" points="55.5,-54.67 59,-64.67 62.5,-54.67 55.5,-54.67"/>
</a>
</g>
</g>
<!-- Node3 -->
<g id="Node000003" class="node">
<title>Node3</title>
<g id="a_Node000003"><a xlink:title=" ">
<polygon fill="white" stroke="#666666" points="89.88,-141 28.12,-141 28.12,-121.75 89.88,-121.75 89.88,-141"/>
<text text-anchor="middle" x="59" y="-126.55" font-family="Helvetica,sans-Serif" font-size="11.00">exception</text>
</a>
</g>
</g>
<!-- Node3&#45;&gt;Node2 -->
<g id="edge2_Node000002_Node000003" class="edge">
<title>Node3&#45;&gt;Node2</title>
<g id="a_edge2_Node000002_Node000003"><a xlink:title=" ">
<path fill="none" stroke="#63b8ff" d="M59,-110.13C59,-101.84 59,-92.67 59,-86.11"/>
<polygon fill="#63b8ff" stroke="#63b8ff" points="55.5,-110.07 59,-120.07 62.5,-110.07 55.5,-110.07"/>
</a>
</g>
</g>
</g>
</svg>
