<?xml version="1.0" encoding="UTF-8" standalone="no"?>
<!DOCTYPE svg PUBLIC "-//W3C//DTD SVG 1.1//EN"
 "http://www.w3.org/Graphics/SVG/1.1/DTD/svg11.dtd">
<!-- Generated by graphviz version 10.0.1 (0)
 -->
<!-- Title: stack_trace_impl_holder Pages: 1 -->
<svg width="148pt" height="204pt"
 viewBox="0.00 0.00 147.75 204.25" xmlns="http://www.w3.org/2000/svg" xmlns:xlink="http://www.w3.org/1999/xlink">

<svg id="main" version="1.1" xmlns="http://www.w3.org/2000/svg" xmlns:xlink="http://www.w3.org/1999/xlink" xml:space="preserve" onload="init(evt)">
<style type="text/css"><![CDATA[
.node, .edge {opacity: 0.7;}
.node.selected, .edge.selected {opacity: 1;}
.edge:hover path { stroke: red; }
.edge:hover polygon { stroke: red; fill: red; }
]]></style>
<script type="application/ecmascript" xlink:href="svg.min.js"/>
<svg id="graph" class="graph">
<g id="graph0" class="graph" transform="scale(1 1) rotate(0) translate(4 200.25)">
<title>stack_trace_impl_holder</title>
<!-- Node1 -->
<g id="Node000001" class="node">
<title>Node1</title>
<g id="a_Node000001"><a xlink:title=" ">
<polygon fill="#999999" stroke="#666666" points="136,-141 3.75,-141 3.75,-121.75 136,-121.75 136,-141"/>
<text text-anchor="middle" x="69.88" y="-126.55" font-family="Helvetica,sans-Serif" font-size="11.00">stack_trace_impl_holder</text>
</a>
</g>
</g>
<!-- Node3 -->
<g id="Node000003" class="node">
<title>Node3</title>
<g id="a_Node000003"><a xlink:href="classfloppy_1_1stacktrace_1_1impl_1_1stack__trace__impl_3_01system__tag_1_1current_01_4.html" target="_top" xlink:title=" ">
<polygon fill="white" stroke="#bfbfbf" points="139.75,-85.75 0,-85.75 0,-55.25 139.75,-55.25 139.75,-85.75"/>
<text text-anchor="start" x="8" y="-71.3" font-family="Helvetica,sans-Serif" font-size="11.00">stack_trace_impl&lt; system</text>
<text text-anchor="middle" x="69.88" y="-60.05" font-family="Helvetica,sans-Serif" font-size="11.00">_tag::current &gt;</text>
</a>
</g>
</g>
<!-- Node1&#45;&gt;Node3 -->
<g id="edge2_Node000001_Node000003" class="edge">
<title>Node1&#45;&gt;Node3</title>
<g id="a_edge2_Node000001_Node000003"><a xlink:title=" ">
<path fill="none" stroke="#63b8ff" d="M63.43,-110.17C62.89,-102.24 63.07,-93.31 63.96,-86.03"/>
<polygon fill="#63b8ff" stroke="#63b8ff" points="59.94,-110.45 64.67,-119.93 66.88,-109.57 59.94,-110.45"/>
</a>
</g>
</g>
<!-- Node1&#45;&gt;Node3 -->
<g id="edge4_Node000001_Node000003" class="edge">
<title>Node1&#45;&gt;Node3</title>
<g id="a_edge4_Node000001_Node000003"><a xlink:title=" ">
<path fill="none" stroke="#63b8ff" d="M76.32,-110.17C76.86,-102.24 76.68,-93.31 75.79,-86.03"/>
<polygon fill="#63b8ff" stroke="#63b8ff" points="72.87,-109.57 75.08,-119.93 79.81,-110.45 72.87,-109.57"/>
</a>
</g>
</g>
<!-- Node2 -->
<g id="Node000002" class="node">
<title>Node2</title>
<g id="a_Node000002"><a xlink:href="classfloppy_1_1stacktrace_1_1impl_1_1stack__trace__impl__base.html" target="_top" xlink:title=" ">
<polygon fill="white" stroke="#bfbfbf" points="132.62,-196.25 7.12,-196.25 7.12,-177 132.62,-177 132.62,-196.25"/>
<text text-anchor="middle" x="69.88" y="-181.8" font-family="Helvetica,sans-Serif" font-size="11.00">stack_trace_impl_base</text>
</a>
</g>
</g>
<!-- Node2&#45;&gt;Node1 -->
<g id="edge1_Node000001_Node000002" class="edge">
<title>Node2&#45;&gt;Node1</title>
<g id="a_edge1_Node000001_Node000002"><a xlink:title=" ">
<path fill="none" stroke="#63b8ff" d="M69.88,-165.38C69.88,-157.09 69.88,-147.92 69.88,-141.36"/>
<polygon fill="#63b8ff" stroke="#63b8ff" points="66.38,-165.32 69.88,-175.32 73.38,-165.32 66.38,-165.32"/>
</a>
</g>
</g>
<!-- Node4 -->
<g id="Node000004" class="node">
<title>Node4</title>
<g id="a_Node000004"><a xlink:href="classfloppy_1_1stacktrace_1_1impl_1_1stack__trace.html" target="_top" xlink:title=" ">
<polygon fill="white" stroke="#bfbfbf" points="105.25,-19.25 34.5,-19.25 34.5,0 105.25,0 105.25,-19.25"/>
<text text-anchor="middle" x="69.88" y="-4.8" font-family="Helvetica,sans-Serif" font-size="11.00">stack_trace</text>
</a>
</g>
</g>
<!-- Node3&#45;&gt;Node4 -->
<g id="edge3_Node000003_Node000004" class="edge">
<title>Node3&#45;&gt;Node4</title>
<g id="a_edge3_Node000003_Node000004"><a xlink:title=" ">
<path fill="none" stroke="#63b8ff" d="M69.88,-43.48C69.88,-34.98 69.88,-26.09 69.88,-19.7"/>
<polygon fill="#63b8ff" stroke="#63b8ff" points="66.38,-43.43 69.88,-53.43 73.38,-43.43 66.38,-43.43"/>
</a>
</g>
</g>
</g>
</svg>
</svg>

<style type='text/css'>
<![CDATA[
[data-mouse-over-selected='false'] { opacity: 0.7; }
[data-mouse-over-selected='true']  { opacity: 1.0; }
]]>
</style>
<script type="application/ecmascript"><![CDATA[
document.addEventListener('DOMContentLoaded', (event) => {
  highlightEdges();
  highlightAdjacentNodes();
});
]]></script>
</svg>
