<?xml version="1.0" encoding="UTF-8" standalone="no"?>
<!DOCTYPE svg PUBLIC "-//W3C//DTD SVG 1.1//EN"
 "http://www.w3.org/Graphics/SVG/1.1/DTD/svg11.dtd">
<!-- Generated by graphviz version 10.0.1 (0)
 -->
<!-- Title: stack_trace_impl&lt; system_tag::current &gt; Pages: 1 -->
<svg width="247pt" height="294pt"
 viewBox="0.00 0.00 247.25 294.25" xmlns="http://www.w3.org/2000/svg" xmlns:xlink="http://www.w3.org/1999/xlink">
<g id="graph0" class="graph" transform="scale(1 1) rotate(0) translate(4 290.25)">
<title>stack_trace_impl&lt; system_tag::current &gt;</title>
<!-- Node1 -->
<g id="Node000001" class="node">
<title>Node1</title>
<g id="a_Node000001"><a xlink:title=" ">
<polygon fill="#999999" stroke="#666666" points="148.62,-30.5 8.88,-30.5 8.88,0 148.62,0 148.62,-30.5"/>
<text text-anchor="start" x="16.88" y="-16.05" font-family="Helvetica,sans-Serif" font-size="11.00">stack_trace_impl&lt; system</text>
<text text-anchor="middle" x="78.75" y="-4.8" font-family="Helvetica,sans-Serif" font-size="11.00">_tag::current &gt;</text>
</a>
</g>
</g>
<!-- Node2 -->
<g id="Node000002" class="node">
<title>Node2</title>
<g id="a_Node000002"><a xlink:href="classfloppy_1_1stacktrace_1_1impl_1_1stack__trace__impl__holder.html" target="_top" xlink:title=" ">
<polygon fill="white" stroke="#bfbfbf" points="144.88,-86.75 12.62,-86.75 12.62,-67.5 144.88,-67.5 144.88,-86.75"/>
<text text-anchor="middle" x="78.75" y="-72.3" font-family="Helvetica,sans-Serif" font-size="11.00">stack_trace_impl_holder</text>
</a>
</g>
</g>
<!-- Node2&#45;&gt;Node1 -->
<g id="edge1_Node000001_Node000002" class="edge">
<title>Node2&#45;&gt;Node1</title>
<g id="a_edge1_Node000001_Node000002"><a xlink:title=" ">
<path fill="none" stroke="#63b8ff" d="M72.31,-55.69C71.75,-47.43 71.95,-38.09 72.89,-30.57"/>
<polygon fill="#63b8ff" stroke="#63b8ff" points="68.83,-56.05 73.55,-65.53 75.77,-55.17 68.83,-56.05"/>
</a>
</g>
</g>
<!-- Node2&#45;&gt;Node1 -->
<g id="edge6_Node000001_Node000002" class="edge">
<title>Node2&#45;&gt;Node1</title>
<g id="a_edge6_Node000001_Node000002"><a xlink:title=" ">
<path fill="none" stroke="#63b8ff" d="M85.19,-55.69C85.75,-47.43 85.55,-38.09 84.61,-30.57"/>
<polygon fill="#63b8ff" stroke="#63b8ff" points="81.73,-55.17 83.95,-65.53 88.67,-56.05 81.73,-55.17"/>
</a>
</g>
</g>
<!-- Node3 -->
<g id="Node000003" class="node">
<title>Node3</title>
<g id="a_Node000003"><a xlink:href="classfloppy_1_1stacktrace_1_1impl_1_1stack__trace__impl__base.html" target="_top" xlink:title=" ">
<polygon fill="white" stroke="#bfbfbf" points="125.5,-153.25 0,-153.25 0,-134 125.5,-134 125.5,-153.25"/>
<text text-anchor="middle" x="62.75" y="-138.8" font-family="Helvetica,sans-Serif" font-size="11.00">stack_trace_impl_base</text>
</a>
</g>
</g>
<!-- Node3&#45;&gt;Node2 -->
<g id="edge2_Node000002_Node000003" class="edge">
<title>Node3&#45;&gt;Node2</title>
<g id="a_edge2_Node000002_Node000003"><a xlink:title=" ">
<path fill="none" stroke="#63b8ff" d="M67.74,-122.52C70.69,-110.62 74.28,-96.13 76.54,-87.02"/>
<polygon fill="#63b8ff" stroke="#63b8ff" points="64.35,-121.64 65.34,-132.19 71.14,-123.32 64.35,-121.64"/>
</a>
</g>
</g>
<!-- Node4 -->
<g id="Node000004" class="node">
<title>Node4</title>
<g id="a_Node000004"><a xlink:title=" ">
<polygon fill="white" stroke="#666666" points="235.62,-153.25 143.88,-153.25 143.88,-134 235.62,-134 235.62,-153.25"/>
<text text-anchor="middle" x="189.75" y="-138.8" font-family="Helvetica,sans-Serif" font-size="11.00">vector&lt; void * &gt;</text>
</a>
</g>
</g>
<!-- Node4&#45;&gt;Node2 -->
<g id="edge3_Node000002_Node000004" class="edge">
<title>Node4&#45;&gt;Node2</title>
<g id="a_edge3_Node000002_Node000004"><a xlink:title=" ">
<path fill="none" stroke="#9a32cd" stroke-dasharray="5,2" d="M164.53,-127.97C142.97,-115.44 112.63,-97.81 94.41,-87.23"/>
<polygon fill="#9a32cd" stroke="#9a32cd" points="162.6,-130.9 173.01,-132.9 166.12,-124.85 162.6,-130.9"/>
</a>
</g>
<text text-anchor="middle" x="170" y="-105.55" font-family="Helvetica,sans-Serif" font-size="11.00" fill="grey"> _stacktrace</text>
</g>
<!-- Node5 -->
<g id="Node000005" class="node">
<title>Node5</title>
<g id="a_Node000005"><a xlink:title=" ">
<polygon fill="white" stroke="#666666" points="225.5,-219.75 154,-219.75 154,-200.5 225.5,-200.5 225.5,-219.75"/>
<text text-anchor="middle" x="189.75" y="-205.3" font-family="Helvetica,sans-Serif" font-size="11.00">vector&lt; T &gt;</text>
</a>
</g>
</g>
<!-- Node5&#45;&gt;Node4 -->
<g id="edge4_Node000004_Node000005" class="edge">
<title>Node5&#45;&gt;Node4</title>
<g id="a_edge4_Node000004_Node000005"><a xlink:title=" ">
<path fill="none" stroke="orange" stroke-dasharray="5,2" d="M189.75,-188.65C189.75,-176.82 189.75,-162.54 189.75,-153.52"/>
<polygon fill="orange" stroke="orange" points="186.25,-188.64 189.75,-198.64 193.25,-188.64 186.25,-188.64"/>
</a>
</g>
<text text-anchor="middle" x="214.5" y="-172.05" font-family="Helvetica,sans-Serif" font-size="11.00" fill="grey"> &lt; void * &gt;</text>
</g>
<!-- Node6 -->
<g id="Node000006" class="node">
<title>Node6</title>
<g id="a_Node000006"><a xlink:title=" ">
<polygon fill="white" stroke="#bfbfbf" points="204.15,-286.25 175.35,-286.25 175.35,-267 204.15,-267 204.15,-286.25"/>
<text text-anchor="middle" x="189.75" y="-271.8" font-family="Helvetica,sans-Serif" font-size="11.00">T</text>
</a>
</g>
</g>
<!-- Node6&#45;&gt;Node5 -->
<g id="edge5_Node000005_Node000006" class="edge">
<title>Node6&#45;&gt;Node5</title>
<g id="a_edge5_Node000005_Node000006"><a xlink:title=" ">
<path fill="none" stroke="#9a32cd" stroke-dasharray="5,2" d="M189.75,-255.15C189.75,-243.32 189.75,-229.04 189.75,-220.02"/>
<polygon fill="#9a32cd" stroke="#9a32cd" points="186.25,-255.14 189.75,-265.14 193.25,-255.14 186.25,-255.14"/>
</a>
</g>
<text text-anchor="middle" x="213" y="-238.55" font-family="Helvetica,sans-Serif" font-size="11.00" fill="grey"> elements</text>
</g>
</g>
</svg>
