<?xml version="1.0" encoding="UTF-8" standalone="no"?>
<!DOCTYPE svg PUBLIC "-//W3C//DTD SVG 1.1//EN"
 "http://www.w3.org/Graphics/SVG/1.1/DTD/svg11.dtd">
<!-- Generated by graphviz version 10.0.1 (0)
 -->
<!-- Title: contract_violation Pages: 1 -->
<svg width="601pt" height="186pt"
 viewBox="0.00 0.00 601.00 185.50" xmlns="http://www.w3.org/2000/svg" xmlns:xlink="http://www.w3.org/1999/xlink">
<g id="graph0" class="graph" transform="scale(1 1) rotate(0) translate(4 181.5)">
<title>contract_violation</title>
<!-- Node1 -->
<g id="Node000001" class="node">
<title>Node1</title>
<g id="a_Node000001"><a xlink:title="Base class for all contract violations.">
<polygon fill="#999999" stroke="#666666" points="433.75,-97.88 334.5,-97.88 334.5,-78.62 433.75,-78.62 433.75,-97.88"/>
<text text-anchor="middle" x="384.12" y="-83.42" font-family="Helvetica,sans-Serif" font-size="11.00">contract_violation</text>
</a>
</g>
</g>
<!-- Node5 -->
<g id="Node000005" class="node">
<title>Node5</title>
<g id="a_Node000005"><a xlink:href="classfloppy_1_1contracts_1_1assertion__contract__violation.html" target="_top" xlink:title="Contract violation for assertions.">
<polygon fill="white" stroke="#666666" points="583.25,-177.5 479.5,-177.5 479.5,-147 583.25,-147 583.25,-177.5"/>
<text text-anchor="start" x="487.5" y="-163.05" font-family="Helvetica,sans-Serif" font-size="11.00">assertion_contract</text>
<text text-anchor="middle" x="531.38" y="-151.8" font-family="Helvetica,sans-Serif" font-size="11.00">_violation</text>
</a>
</g>
</g>
<!-- Node1&#45;&gt;Node5 -->
<g id="edge4_Node000001_Node000005" class="edge">
<title>Node1&#45;&gt;Node5</title>
<g id="a_edge4_Node000001_Node000005"><a xlink:title=" ">
<path fill="none" stroke="#63b8ff" d="M410.5,-104.14C427.06,-114.21 449.32,-127.18 469.75,-137.25 476.29,-140.47 483.34,-143.64 490.25,-146.59"/>
<polygon fill="#63b8ff" stroke="#63b8ff" points="412.64,-101.34 402.29,-99.09 408.98,-107.31 412.64,-101.34"/>
</a>
</g>
</g>
<!-- Node6 -->
<g id="Node000006" class="node">
<title>Node6</title>
<g id="a_Node000006"><a xlink:href="classfloppy_1_1contracts_1_1invariant__contract__violation.html" target="_top" xlink:title="Contract violation for invariants.">
<polygon fill="white" stroke="#666666" points="581.75,-128.5 481,-128.5 481,-98 581.75,-98 581.75,-128.5"/>
<text text-anchor="start" x="489" y="-114.05" font-family="Helvetica,sans-Serif" font-size="11.00">invariant_contract</text>
<text text-anchor="middle" x="531.38" y="-102.8" font-family="Helvetica,sans-Serif" font-size="11.00">_violation</text>
</a>
</g>
</g>
<!-- Node1&#45;&gt;Node6 -->
<g id="edge5_Node000001_Node000006" class="edge">
<title>Node1&#45;&gt;Node6</title>
<g id="a_edge5_Node000001_Node000006"><a xlink:title=" ">
<path fill="none" stroke="#63b8ff" d="M445.14,-98.58C457.07,-100.63 469.47,-102.77 480.99,-104.75"/>
<polygon fill="#63b8ff" stroke="#63b8ff" points="445.84,-95.15 435.39,-96.9 444.65,-102.05 445.84,-95.15"/>
</a>
</g>
</g>
<!-- Node7 -->
<g id="Node000007" class="node">
<title>Node7</title>
<g id="a_Node000007"><a xlink:href="classfloppy_1_1contracts_1_1postcondition__contract__violation.html" target="_top" xlink:title="Contract violation for postconditions.">
<polygon fill="white" stroke="#666666" points="593,-79.5 469.75,-79.5 469.75,-49 593,-49 593,-79.5"/>
<text text-anchor="start" x="477.75" y="-65.05" font-family="Helvetica,sans-Serif" font-size="11.00">postcondition_contract</text>
<text text-anchor="middle" x="531.38" y="-53.8" font-family="Helvetica,sans-Serif" font-size="11.00">_violation</text>
</a>
</g>
</g>
<!-- Node1&#45;&gt;Node7 -->
<g id="edge6_Node000001_Node000007" class="edge">
<title>Node1&#45;&gt;Node7</title>
<g id="a_edge6_Node000001_Node000007"><a xlink:title=" ">
<path fill="none" stroke="#63b8ff" d="M445.05,-78.35C453.07,-77.02 461.31,-75.66 469.35,-74.33"/>
<polygon fill="#63b8ff" stroke="#63b8ff" points="444.68,-74.86 435.39,-79.94 445.83,-81.77 444.68,-74.86"/>
</a>
</g>
</g>
<!-- Node8 -->
<g id="Node000008" class="node">
<title>Node8</title>
<g id="a_Node000008"><a xlink:href="classfloppy_1_1contracts_1_1precondition__contract__violation.html" target="_top" xlink:title="Contract violation for preconditions.">
<polygon fill="white" stroke="#666666" points="590.75,-30.5 472,-30.5 472,0 590.75,0 590.75,-30.5"/>
<text text-anchor="start" x="480" y="-16.05" font-family="Helvetica,sans-Serif" font-size="11.00">precondition_contract</text>
<text text-anchor="middle" x="531.38" y="-4.8" font-family="Helvetica,sans-Serif" font-size="11.00">_violation</text>
</a>
</g>
</g>
<!-- Node1&#45;&gt;Node8 -->
<g id="edge7_Node000001_Node000008" class="edge">
<title>Node1&#45;&gt;Node8</title>
<g id="a_edge7_Node000001_Node000008"><a xlink:title=" ">
<path fill="none" stroke="#63b8ff" d="M410.85,-72.54C427.4,-62.73 449.51,-50.12 469.75,-40.25 476.3,-37.06 483.36,-33.9 490.28,-30.96"/>
<polygon fill="#63b8ff" stroke="#63b8ff" points="409.41,-69.33 402.64,-77.47 413.01,-75.33 409.41,-69.33"/>
</a>
</g>
</g>
<!-- Node2 -->
<g id="Node000002" class="node">
<title>Node2</title>
<g id="a_Node000002"><a xlink:title=" ">
<polygon fill="white" stroke="#666666" points="298.5,-97.88 200.75,-97.88 200.75,-78.62 298.5,-78.62 298.5,-97.88"/>
<text text-anchor="middle" x="249.62" y="-83.42" font-family="Helvetica,sans-Serif" font-size="11.00">invalid_argument</text>
</a>
</g>
</g>
<!-- Node2&#45;&gt;Node1 -->
<g id="edge1_Node000001_Node000002" class="edge">
<title>Node2&#45;&gt;Node1</title>
<g id="a_edge1_Node000001_Node000002"><a xlink:title=" ">
<path fill="none" stroke="#63b8ff" d="M310.12,-88.25C318.2,-88.25 326.42,-88.25 334.28,-88.25"/>
<polygon fill="#63b8ff" stroke="#63b8ff" points="310.35,-84.75 300.35,-88.25 310.35,-91.75 310.35,-84.75"/>
</a>
</g>
</g>
<!-- Node3 -->
<g id="Node000003" class="node">
<title>Node3</title>
<g id="a_Node000003"><a xlink:title=" ">
<polygon fill="white" stroke="#666666" points="164.75,-97.88 97.75,-97.88 97.75,-78.62 164.75,-78.62 164.75,-97.88"/>
<text text-anchor="middle" x="131.25" y="-83.42" font-family="Helvetica,sans-Serif" font-size="11.00">logic_error</text>
</a>
</g>
</g>
<!-- Node3&#45;&gt;Node2 -->
<g id="edge2_Node000002_Node000003" class="edge">
<title>Node3&#45;&gt;Node2</title>
<g id="a_edge2_Node000002_Node000003"><a xlink:title=" ">
<path fill="none" stroke="#63b8ff" d="M176.25,-88.25C184.17,-88.25 192.47,-88.25 200.51,-88.25"/>
<polygon fill="#63b8ff" stroke="#63b8ff" points="176.49,-84.75 166.49,-88.25 176.49,-91.75 176.49,-84.75"/>
</a>
</g>
</g>
<!-- Node4 -->
<g id="Node000004" class="node">
<title>Node4</title>
<g id="a_Node000004"><a xlink:title=" ">
<polygon fill="white" stroke="#666666" points="61.75,-97.88 0,-97.88 0,-78.62 61.75,-78.62 61.75,-97.88"/>
<text text-anchor="middle" x="30.88" y="-83.42" font-family="Helvetica,sans-Serif" font-size="11.00">exception</text>
</a>
</g>
</g>
<!-- Node4&#45;&gt;Node3 -->
<g id="edge3_Node000003_Node000004" class="edge">
<title>Node4&#45;&gt;Node3</title>
<g id="a_edge3_Node000003_Node000004"><a xlink:title=" ">
<path fill="none" stroke="#63b8ff" d="M73.59,-88.25C81.57,-88.25 89.82,-88.25 97.47,-88.25"/>
<polygon fill="#63b8ff" stroke="#63b8ff" points="73.71,-84.75 63.71,-88.25 73.71,-91.75 73.71,-84.75"/>
</a>
</g>
</g>
</g>
</svg>
