<?xml version="1.0" encoding="UTF-8" standalone="no"?>
<!DOCTYPE svg PUBLIC "-//W3C//DTD SVG 1.1//EN"
 "http://www.w3.org/Graphics/SVG/1.1/DTD/svg11.dtd">
<!-- Generated by graphviz version 10.0.1 (0)
 -->
<!-- Title: trace_resolver Pages: 1 -->
<svg width="190pt" height="173pt"
 viewBox="0.00 0.00 190.00 172.50" xmlns="http://www.w3.org/2000/svg" xmlns:xlink="http://www.w3.org/1999/xlink">
<g id="graph0" class="graph" transform="scale(1 1) rotate(0) translate(4 168.5)">
<title>trace_resolver</title>
<!-- Node1 -->
<g id="Node000001" class="node">
<title>Node1</title>
<g id="a_Node000001"><a xlink:title=" ">
<polygon fill="#999999" stroke="#666666" points="107.12,-19.25 22.88,-19.25 22.88,0 107.12,0 107.12,-19.25"/>
<text text-anchor="middle" x="65" y="-4.8" font-family="Helvetica,sans-Serif" font-size="11.00">trace_resolver</text>
</a>
</g>
</g>
<!-- Node2 -->
<g id="Node000002" class="node">
<title>Node2</title>
<g id="a_Node000002"><a xlink:href="namespacefloppy_1_1stacktrace_1_1impl.html" target="_top" xlink:title=" ">
<polygon fill="white" stroke="#bfbfbf" points="130,-86.75 0,-86.75 0,-56.25 130,-56.25 130,-86.75"/>
<text text-anchor="start" x="8" y="-72.3" font-family="Helvetica,sans-Serif" font-size="11.00">trace_resolver_impl</text>
<text text-anchor="middle" x="65" y="-61.05" font-family="Helvetica,sans-Serif" font-size="11.00">&lt; system_tag::current &gt;</text>
</a>
</g>
</g>
<!-- Node2&#45;&gt;Node1 -->
<g id="edge1_Node000001_Node000002" class="edge">
<title>Node2&#45;&gt;Node1</title>
<g id="a_edge1_Node000001_Node000002"><a xlink:title=" ">
<path fill="none" stroke="#63b8ff" d="M65,-44.77C65,-35.79 65,-26.29 65,-19.6"/>
<polygon fill="#63b8ff" stroke="#63b8ff" points="61.5,-44.49 65,-54.49 68.5,-44.49 61.5,-44.49"/>
</a>
</g>
</g>
<!-- Node3 -->
<g id="Node000003" class="node">
<title>Node3</title>
<g id="a_Node000003"><a xlink:href="namespacefloppy_1_1stacktrace_1_1impl.html#classfloppy_1_1stacktrace_1_1impl_1_1trace__resolver__impl" target="_top" xlink:title=" ">
<polygon fill="white" stroke="#bfbfbf" points="119.88,-164.5 10.13,-164.5 10.13,-134 119.88,-134 119.88,-164.5"/>
<text text-anchor="start" x="18.12" y="-150.05" font-family="Helvetica,sans-Serif" font-size="11.00">trace_resolver_impl</text>
<text text-anchor="middle" x="65" y="-138.8" font-family="Helvetica,sans-Serif" font-size="11.00">&lt; Tag &gt;</text>
</a>
</g>
</g>
<!-- Node3&#45;&gt;Node2 -->
<g id="edge2_Node000002_Node000003" class="edge">
<title>Node3&#45;&gt;Node2</title>
<g id="a_edge2_Node000002_Node000003"><a xlink:title=" ">
<path fill="none" stroke="orange" stroke-dasharray="5,2" d="M65,-122.22C65,-110.46 65,-97.01 65,-87.06"/>
<polygon fill="orange" stroke="orange" points="61.5,-122.13 65,-132.13 68.5,-122.13 61.5,-122.13"/>
</a>
</g>
<text text-anchor="middle" x="123.5" y="-105.55" font-family="Helvetica,sans-Serif" font-size="11.00" fill="grey"> &lt; system_tag::current &gt;</text>
</g>
</g>
</svg>
