<?xml version="1.0" encoding="UTF-8" standalone="no"?>
<!DOCTYPE svg PUBLIC "-//W3C//DTD SVG 1.1//EN"
 "http://www.w3.org/Graphics/SVG/1.1/DTD/svg11.dtd">
<!-- Generated by graphviz version 10.0.1 (0)
 -->
<!-- Title: TraceResolverImpl&lt; system_tag::windows &gt; Pages: 1 -->
<svg width="261pt" height="173pt"
 viewBox="0.00 0.00 261.25 172.50" xmlns="http://www.w3.org/2000/svg" xmlns:xlink="http://www.w3.org/1999/xlink">
<g id="graph0" class="graph" transform="scale(1 1) rotate(0) translate(4 168.5)">
<title>TraceResolverImpl&lt; system_tag::windows &gt;</title>
<!-- Node1 -->
<g id="Node000001" class="node">
<title>Node1</title>
<g id="a_Node000001"><a xlink:title=" ">
<polygon fill="#999999" stroke="#666666" points="134.75,-30.5 3.25,-30.5 3.25,0 134.75,0 134.75,-30.5"/>
<text text-anchor="start" x="11.25" y="-16.05" font-family="Helvetica,sans-Serif" font-size="11.00">TraceResolverImpl&lt;</text>
<text text-anchor="middle" x="69" y="-4.8" font-family="Helvetica,sans-Serif" font-size="11.00"> system_tag::windows &gt;</text>
</a>
</g>
</g>
<!-- Node2 -->
<g id="Node000002" class="node">
<title>Node2</title>
<g id="a_Node000002"><a xlink:href="classfloppy_1_1stacktrace_1_1TraceResolverImplBase.html" target="_top" xlink:title=" ">
<polygon fill="white" stroke="#bfbfbf" points="130,-164.5 0,-164.5 0,-145.25 130,-145.25 130,-164.5"/>
<text text-anchor="middle" x="65" y="-150.05" font-family="Helvetica,sans-Serif" font-size="11.00">TraceResolverImplBase</text>
</a>
</g>
</g>
<!-- Node2&#45;&gt;Node1 -->
<g id="edge1_Node000001_Node000002" class="edge">
<title>Node2&#45;&gt;Node1</title>
<g id="a_edge1_Node000001_Node000002"><a xlink:title=" ">
<path fill="none" stroke="#63b8ff" d="M65.59,-133.66C66.4,-105.55 67.86,-55.34 68.58,-30.7"/>
<polygon fill="#63b8ff" stroke="#63b8ff" points="62.1,-133.23 65.31,-143.33 69.1,-133.44 62.1,-133.23"/>
</a>
</g>
</g>
<!-- Node3 -->
<g id="Node000003" class="node">
<title>Node3</title>
<g id="a_Node000003"><a xlink:href="classfloppy_1_1stacktrace_1_1TraceResolverImpl_3_01system__tag_1_1windows_01_4.html" target="_top" xlink:title=" ">
<polygon fill="white" stroke="#bfbfbf" points="212.75,-108.25 81.25,-108.25 81.25,-77.75 212.75,-77.75 212.75,-108.25"/>
<text text-anchor="start" x="89.25" y="-93.8" font-family="Helvetica,sans-Serif" font-size="11.00">TraceResolverImpl&lt;</text>
<text text-anchor="middle" x="147" y="-82.55" font-family="Helvetica,sans-Serif" font-size="11.00"> system_tag::windows &gt;</text>
</a>
</g>
</g>
<!-- Node2&#45;&gt;Node3 -->
<g id="edge3_Node000003_Node000002" class="edge">
<title>Node2&#45;&gt;Node3</title>
<g id="a_edge3_Node000003_Node000002"><a xlink:title=" ">
<path fill="none" stroke="#63b8ff" d="M86.71,-138.03C99.23,-128.88 114.87,-117.46 127.08,-108.55"/>
<polygon fill="#63b8ff" stroke="#63b8ff" points="84.69,-135.16 78.68,-143.89 88.82,-140.82 84.69,-135.16"/>
</a>
</g>
</g>
<!-- Node3&#45;&gt;Node1 -->
<g id="edge2_Node000001_Node000003" class="edge">
<title>Node3&#45;&gt;Node1</title>
<g id="a_edge2_Node000001_Node000003"><a xlink:title=" ">
<path fill="none" stroke="#9a32cd" stroke-dasharray="5,2" d="M123.96,-69.62C111.04,-57.08 95.31,-41.8 83.99,-30.81"/>
<polygon fill="#9a32cd" stroke="#9a32cd" points="121.26,-71.88 130.88,-76.34 126.14,-66.86 121.26,-71.88"/>
</a>
</g>
<text text-anchor="middle" x="123.25" y="-49.3" font-family="Helvetica,sans-Serif" font-size="11.00" fill="grey"> sym</text>
</g>
<!-- Node3&#45;&gt;Node3 -->
<g id="edge4_Node000003_Node000003" class="edge">
<title>Node3&#45;&gt;Node3</title>
<g id="a_edge4_Node000003_Node000003"><a xlink:title=" ">
<path fill="none" stroke="#9a32cd" stroke-dasharray="5,2" d="M224.27,-97.17C228.34,-96.14 230.75,-94.75 230.75,-93 230.75,-89.97 223.54,-88.03 213,-87.17"/>
<polygon fill="#9a32cd" stroke="#9a32cd" points="223.88,-93.69 214.5,-98.61 224.91,-100.61 223.88,-93.69"/>
</a>
</g>
<text text-anchor="middle" x="242" y="-88.17" font-family="Helvetica,sans-Serif" font-size="11.00" fill="grey"> sym</text>
</g>
</g>
</svg>
