<?xml version="1.0" encoding="UTF-8" standalone="no"?>
<!DOCTYPE svg PUBLIC "-//W3C//DTD SVG 1.1//EN"
 "http://www.w3.org/Graphics/SVG/1.1/DTD/svg11.dtd">
<!-- Generated by graphviz version 10.0.1 (0)
 -->
<!-- Title: trace_resolver_impl_base Pages: 1 -->
<svg width="480pt" height="196pt"
 viewBox="0.00 0.00 479.75 195.75" xmlns="http://www.w3.org/2000/svg" xmlns:xlink="http://www.w3.org/1999/xlink">
<g id="graph0" class="graph" transform="scale(1 1) rotate(0) translate(4 191.75)">
<title>trace_resolver_impl_base</title>
<!-- Node1 -->
<g id="Node000001" class="node">
<title>Node1</title>
<g id="a_Node000001"><a xlink:title=" ">
<polygon fill="#999999" stroke="#666666" points="139,-97.5 0,-97.5 0,-78.25 139,-78.25 139,-97.5"/>
<text text-anchor="middle" x="69.5" y="-83.05" font-family="Helvetica,sans-Serif" font-size="11.00">trace_resolver_impl_base</text>
</a>
</g>
</g>
<!-- Node2 -->
<g id="Node000002" class="node">
<title>Node2</title>
<g id="a_Node000002"><a xlink:href="classfloppy_1_1stacktrace_1_1impl_1_1trace__resolver__darwin__impl_3_01trace__resolver__tag_1_1backtrace__symbol_01_4.html" target="_top" xlink:title=" ">
<polygon fill="white" stroke="#bfbfbf" points="315.5,-187.75 175.75,-187.75 175.75,-146 315.5,-146 315.5,-187.75"/>
<text text-anchor="start" x="183.75" y="-173.3" font-family="Helvetica,sans-Serif" font-size="11.00">trace_resolver_darwin</text>
<text text-anchor="start" x="183.75" y="-162.05" font-family="Helvetica,sans-Serif" font-size="11.00">_impl&lt; trace_resolver</text>
<text text-anchor="middle" x="245.62" y="-150.8" font-family="Helvetica,sans-Serif" font-size="11.00">_tag::backtrace_symbol &gt;</text>
</a>
</g>
</g>
<!-- Node1&#45;&gt;Node2 -->
<g id="edge1_Node000001_Node000002" class="edge">
<title>Node1&#45;&gt;Node2</title>
<g id="a_edge1_Node000001_Node000002"><a xlink:title=" ">
<path fill="none" stroke="#63b8ff" d="M101.36,-102.66C122.1,-112.52 150.1,-125.68 175,-136.88 181.36,-139.74 188.07,-142.7 194.72,-145.6"/>
<polygon fill="#63b8ff" stroke="#63b8ff" points="103.13,-99.62 92.6,-98.48 100.12,-105.94 103.13,-99.62"/>
</a>
</g>
</g>
<!-- Node3 -->
<g id="Node000003" class="node">
<title>Node3</title>
<g id="a_Node000003"><a xlink:href="classfloppy_1_1stacktrace_1_1impl_1_1trace__resolver__impl_3_01system__tag_1_1unknown_01_4.html" target="_top" xlink:title=" ">
<polygon fill="white" stroke="#bfbfbf" points="315.5,-128.12 175.75,-128.12 175.75,-97.62 315.5,-97.62 315.5,-128.12"/>
<text text-anchor="start" x="183.75" y="-113.67" font-family="Helvetica,sans-Serif" font-size="11.00">trace_resolver_impl</text>
<text text-anchor="middle" x="245.62" y="-102.42" font-family="Helvetica,sans-Serif" font-size="11.00">&lt; system_tag::unknown &gt;</text>
</a>
</g>
</g>
<!-- Node1&#45;&gt;Node3 -->
<g id="edge2_Node000001_Node000003" class="edge">
<title>Node1&#45;&gt;Node3</title>
<g id="a_edge2_Node000001_Node000003"><a xlink:title=" ">
<path fill="none" stroke="#63b8ff" d="M150.57,-99.37C158.88,-100.56 167.27,-101.77 175.45,-102.94"/>
<polygon fill="#63b8ff" stroke="#63b8ff" points="151.21,-95.93 140.82,-97.97 150.22,-102.86 151.21,-95.93"/>
</a>
</g>
</g>
<!-- Node4 -->
<g id="Node000004" class="node">
<title>Node4</title>
<g id="a_Node000004"><a xlink:href="classfloppy_1_1stacktrace_1_1impl_1_1trace__resolver__impl_3_01system__tag_1_1windows_01_4.html" target="_top" xlink:title=" ">
<polygon fill="white" stroke="#bfbfbf" points="314.75,-79.12 176.5,-79.12 176.5,-48.62 314.75,-48.62 314.75,-79.12"/>
<text text-anchor="start" x="184.5" y="-64.67" font-family="Helvetica,sans-Serif" font-size="11.00">trace_resolver_impl</text>
<text text-anchor="middle" x="245.62" y="-53.42" font-family="Helvetica,sans-Serif" font-size="11.00">&lt; system_tag::windows &gt;</text>
</a>
</g>
</g>
<!-- Node1&#45;&gt;Node4 -->
<g id="edge3_Node000001_Node000004" class="edge">
<title>Node1&#45;&gt;Node4</title>
<g id="a_edge3_Node000001_Node000004"><a xlink:title=" ">
<path fill="none" stroke="#63b8ff" d="M150.46,-76.85C159,-75.68 167.63,-74.49 176.02,-73.33"/>
<polygon fill="#63b8ff" stroke="#63b8ff" points="150.25,-73.35 140.82,-78.18 151.2,-80.28 150.25,-73.35"/>
</a>
</g>
</g>
<!-- Node5 -->
<g id="Node000005" class="node">
<title>Node5</title>
<g id="a_Node000005"><a xlink:href="classfloppy_1_1stacktrace_1_1impl_1_1trace__resolver__linux__base.html" target="_top" xlink:title=" ">
<polygon fill="white" stroke="#bfbfbf" points="316.25,-30.5 175,-30.5 175,-11.25 316.25,-11.25 316.25,-30.5"/>
<text text-anchor="middle" x="245.62" y="-16.05" font-family="Helvetica,sans-Serif" font-size="11.00">trace_resolver_linux_base</text>
</a>
</g>
</g>
<!-- Node1&#45;&gt;Node5 -->
<g id="edge4_Node000001_Node000005" class="edge">
<title>Node1&#45;&gt;Node5</title>
<g id="a_edge4_Node000001_Node000005"><a xlink:title=" ">
<path fill="none" stroke="#63b8ff" d="M99.77,-72.86C120.43,-62.65 148.95,-49.34 175,-39.88 184.07,-36.58 193.98,-33.55 203.41,-30.92"/>
<polygon fill="#63b8ff" stroke="#63b8ff" points="98.48,-69.59 91.1,-77.2 101.61,-75.85 98.48,-69.59"/>
</a>
</g>
</g>
<!-- Node6 -->
<g id="Node000006" class="node">
<title>Node6</title>
<g id="a_Node000006"><a xlink:href="classfloppy_1_1stacktrace_1_1impl_1_1trace__resolver__linux__impl_3_01trace__resolver__tag_1_1libdw_01_4.html" target="_top" xlink:title=" ">
<polygon fill="white" stroke="#bfbfbf" points="471.75,-41.75 352.25,-41.75 352.25,0 471.75,0 471.75,-41.75"/>
<text text-anchor="start" x="360.25" y="-27.3" font-family="Helvetica,sans-Serif" font-size="11.00">trace_resolver_linux</text>
<text text-anchor="start" x="360.25" y="-16.05" font-family="Helvetica,sans-Serif" font-size="11.00">_impl&lt; trace_resolver</text>
<text text-anchor="middle" x="412" y="-4.8" font-family="Helvetica,sans-Serif" font-size="11.00">_tag::libdw &gt;</text>
</a>
</g>
</g>
<!-- Node5&#45;&gt;Node6 -->
<g id="edge5_Node000005_Node000006" class="edge">
<title>Node5&#45;&gt;Node6</title>
<g id="a_edge5_Node000005_Node000006"><a xlink:title=" ">
<path fill="none" stroke="#63b8ff" d="M327.76,-20.88C335.87,-20.88 344,-20.88 351.82,-20.88"/>
<polygon fill="#63b8ff" stroke="#63b8ff" points="327.85,-17.38 317.85,-20.88 327.85,-24.38 327.85,-17.38"/>
</a>
</g>
</g>
</g>
</svg>
