<?xml version="1.0" encoding="UTF-8" standalone="no"?>
<!DOCTYPE svg PUBLIC "-//W3C//DTD SVG 1.1//EN"
 "http://www.w3.org/Graphics/SVG/1.1/DTD/svg11.dtd">
<!-- Generated by graphviz version 10.0.1 (0)
 -->
<!-- Title: stack_trace Pages: 1 -->
<svg width="236pt" height="351pt"
 viewBox="0.00 0.00 236.00 350.50" xmlns="http://www.w3.org/2000/svg" xmlns:xlink="http://www.w3.org/1999/xlink">
<g id="graph0" class="graph" transform="scale(1 1) rotate(0) translate(4 346.5)">
<title>stack_trace</title>
<!-- Node1 -->
<g id="Node000001" class="node">
<title>Node1</title>
<g id="a_Node000001"><a xlink:title=" ">
<polygon fill="#999999" stroke="#666666" points="130.88,-19.25 60.12,-19.25 60.12,0 130.88,0 130.88,-19.25"/>
<text text-anchor="middle" x="95.5" y="-4.8" font-family="Helvetica,sans-Serif" font-size="11.00">stack_trace</text>
</a>
</g>
</g>
<!-- Node2 -->
<g id="Node000002" class="node">
<title>Node2</title>
<g id="a_Node000002"><a xlink:href="classfloppy_1_1stacktrace_1_1StackTraceImpl_3_01system__tag_1_1current__tag_01_4.html" target="_top" xlink:title=" ">
<polygon fill="white" stroke="#bfbfbf" points="162.38,-86.75 28.62,-86.75 28.62,-56.25 162.38,-56.25 162.38,-86.75"/>
<text text-anchor="start" x="36.62" y="-72.3" font-family="Helvetica,sans-Serif" font-size="11.00">StackTraceImpl&lt; system</text>
<text text-anchor="middle" x="95.5" y="-61.05" font-family="Helvetica,sans-Serif" font-size="11.00">_tag::current_tag &gt;</text>
</a>
</g>
</g>
<!-- Node2&#45;&gt;Node1 -->
<g id="edge1_Node000001_Node000002" class="edge">
<title>Node2&#45;&gt;Node1</title>
<g id="a_edge1_Node000001_Node000002"><a xlink:title=" ">
<path fill="none" stroke="#63b8ff" d="M95.5,-44.77C95.5,-35.79 95.5,-26.29 95.5,-19.6"/>
<polygon fill="#63b8ff" stroke="#63b8ff" points="92,-44.49 95.5,-54.49 99,-44.49 92,-44.49"/>
</a>
</g>
</g>
<!-- Node3 -->
<g id="Node000003" class="node">
<title>Node3</title>
<g id="a_Node000003"><a xlink:href="classfloppy_1_1stacktrace_1_1StackTraceImplHolder.html" target="_top" xlink:title=" ">
<polygon fill="white" stroke="#bfbfbf" points="156.75,-143 34.25,-143 34.25,-123.75 156.75,-123.75 156.75,-143"/>
<text text-anchor="middle" x="95.5" y="-128.55" font-family="Helvetica,sans-Serif" font-size="11.00">StackTraceImplHolder</text>
</a>
</g>
</g>
<!-- Node3&#45;&gt;Node2 -->
<g id="edge2_Node000002_Node000003" class="edge">
<title>Node3&#45;&gt;Node2</title>
<g id="a_edge2_Node000002_Node000003"><a xlink:title=" ">
<path fill="none" stroke="#63b8ff" d="M95.5,-111.94C95.5,-103.68 95.5,-94.34 95.5,-86.82"/>
<polygon fill="#63b8ff" stroke="#63b8ff" points="92,-111.77 95.5,-121.77 99,-111.77 92,-111.77"/>
</a>
</g>
</g>
<!-- Node4 -->
<g id="Node000004" class="node">
<title>Node4</title>
<g id="a_Node000004"><a xlink:href="classfloppy_1_1stacktrace_1_1StackTraceImplBase.html" target="_top" xlink:title=" ">
<polygon fill="white" stroke="#bfbfbf" points="115,-209.5 0,-209.5 0,-190.25 115,-190.25 115,-209.5"/>
<text text-anchor="middle" x="57.5" y="-195.05" font-family="Helvetica,sans-Serif" font-size="11.00">StackTraceImplBase</text>
</a>
</g>
</g>
<!-- Node4&#45;&gt;Node3 -->
<g id="edge3_Node000003_Node000004" class="edge">
<title>Node4&#45;&gt;Node3</title>
<g id="a_edge3_Node000003_Node000004"><a xlink:title=" ">
<path fill="none" stroke="#63b8ff" d="M68.47,-180.26C75.63,-168.1 84.66,-152.77 90.26,-143.27"/>
<polygon fill="#63b8ff" stroke="#63b8ff" points="65.61,-178.21 63.55,-188.6 71.64,-181.76 65.61,-178.21"/>
</a>
</g>
</g>
<!-- Node5 -->
<g id="Node000005" class="node">
<title>Node5</title>
<g id="a_Node000005"><a xlink:title=" ">
<polygon fill="white" stroke="#666666" points="224.38,-209.5 132.62,-209.5 132.62,-190.25 224.38,-190.25 224.38,-209.5"/>
<text text-anchor="middle" x="178.5" y="-195.05" font-family="Helvetica,sans-Serif" font-size="11.00">vector&lt; void * &gt;</text>
</a>
</g>
</g>
<!-- Node5&#45;&gt;Node3 -->
<g id="edge4_Node000003_Node000005" class="edge">
<title>Node5&#45;&gt;Node3</title>
<g id="a_edge4_Node000003_Node000005"><a xlink:title=" ">
<path fill="none" stroke="#9a32cd" stroke-dasharray="5,2" d="M158.31,-183.18C142.29,-170.74 120.47,-153.78 107.21,-143.48"/>
<polygon fill="#9a32cd" stroke="#9a32cd" points="155.72,-185.61 165.76,-188.98 160.02,-180.08 155.72,-185.61"/>
</a>
</g>
<text text-anchor="middle" x="170.75" y="-161.8" font-family="Helvetica,sans-Serif" font-size="11.00" fill="grey"> _stacktrace</text>
</g>
<!-- Node6 -->
<g id="Node000006" class="node">
<title>Node6</title>
<g id="a_Node000006"><a xlink:title=" ">
<polygon fill="white" stroke="#666666" points="214.25,-276 142.75,-276 142.75,-256.75 214.25,-256.75 214.25,-276"/>
<text text-anchor="middle" x="178.5" y="-261.55" font-family="Helvetica,sans-Serif" font-size="11.00">vector&lt; T &gt;</text>
</a>
</g>
</g>
<!-- Node6&#45;&gt;Node5 -->
<g id="edge5_Node000005_Node000006" class="edge">
<title>Node6&#45;&gt;Node5</title>
<g id="a_edge5_Node000005_Node000006"><a xlink:title=" ">
<path fill="none" stroke="orange" stroke-dasharray="5,2" d="M178.5,-244.9C178.5,-233.07 178.5,-218.79 178.5,-209.77"/>
<polygon fill="orange" stroke="orange" points="175,-244.89 178.5,-254.89 182,-244.89 175,-244.89"/>
</a>
</g>
<text text-anchor="middle" x="203.25" y="-228.3" font-family="Helvetica,sans-Serif" font-size="11.00" fill="grey"> &lt; void * &gt;</text>
</g>
<!-- Node7 -->
<g id="Node000007" class="node">
<title>Node7</title>
<g id="a_Node000007"><a xlink:title=" ">
<polygon fill="white" stroke="#bfbfbf" points="192.9,-342.5 164.1,-342.5 164.1,-323.25 192.9,-323.25 192.9,-342.5"/>
<text text-anchor="middle" x="178.5" y="-328.05" font-family="Helvetica,sans-Serif" font-size="11.00">T</text>
</a>
</g>
</g>
<!-- Node7&#45;&gt;Node6 -->
<g id="edge6_Node000006_Node000007" class="edge">
<title>Node7&#45;&gt;Node6</title>
<g id="a_edge6_Node000006_Node000007"><a xlink:title=" ">
<path fill="none" stroke="#9a32cd" stroke-dasharray="5,2" d="M178.5,-311.4C178.5,-299.57 178.5,-285.29 178.5,-276.27"/>
<polygon fill="#9a32cd" stroke="#9a32cd" points="175,-311.39 178.5,-321.39 182,-311.39 175,-311.39"/>
</a>
</g>
<text text-anchor="middle" x="201.75" y="-294.8" font-family="Helvetica,sans-Serif" font-size="11.00" fill="grey"> elements</text>
</g>
</g>
</svg>
