<?xml version="1.0" encoding="UTF-8" standalone="no"?>
<!DOCTYPE svg PUBLIC "-//W3C//DTD SVG 1.1//EN"
 "http://www.w3.org/Graphics/SVG/1.1/DTD/svg11.dtd">
<!-- Generated by graphviz version 10.0.1 (0)
 -->
<!-- Title: handle&lt; T, Deleter &gt; Pages: 1 -->
<svg width="401pt" height="257pt"
 viewBox="0.00 0.00 400.75 256.88" xmlns="http://www.w3.org/2000/svg" xmlns:xlink="http://www.w3.org/1999/xlink">
<g id="graph0" class="graph" transform="scale(1 1) rotate(0) translate(4 252.88)">
<title>handle&lt; T, Deleter &gt;</title>
<!-- Node1 -->
<g id="Node000001" class="node">
<title>Node1</title>
<g id="a_Node000001"><a xlink:title=" ">
<polygon fill="#999999" stroke="#666666" points="115,-128.25 0,-128.25 0,-109 115,-109 115,-128.25"/>
<text text-anchor="middle" x="57.5" y="-113.8" font-family="Helvetica,sans-Serif" font-size="11.00">handle&lt; T, Deleter &gt;</text>
</a>
</g>
</g>
<!-- Node2 -->
<g id="Node000002" class="node">
<title>Node2</title>
<g id="a_Node000002"><a xlink:href="classfloppy_1_1stacktrace_1_1details_1_1handle.html" target="_top" xlink:title=" ">
<polygon fill="white" stroke="#bfbfbf" points="377.38,-243.25 276.62,-243.25 276.62,-224 377.38,-224 377.38,-243.25"/>
<text text-anchor="middle" x="327" y="-228.8" font-family="Helvetica,sans-Serif" font-size="11.00">handle&lt; char ** &gt;</text>
</a>
</g>
</g>
<!-- Node1&#45;&gt;Node2 -->
<g id="edge1_Node000001_Node000002" class="edge">
<title>Node1&#45;&gt;Node2</title>
<g id="a_edge1_Node000001_Node000002"><a xlink:title=" ">
<path fill="none" stroke="orange" stroke-dasharray="5,2" d="M68.33,-138.55C80.32,-160.51 102.79,-194.95 133,-211.62 177.14,-235.99 235.54,-239.4 276.5,-238.02"/>
<polygon fill="orange" stroke="orange" points="71.58,-137.22 63.86,-129.97 65.37,-140.46 71.58,-137.22"/>
</a>
</g>
<text text-anchor="middle" x="188.12" y="-238.43" font-family="Helvetica,sans-Serif" font-size="11.00" fill="grey"> &lt; char ** &gt;</text>
</g>
<!-- Node3 -->
<g id="Node000003" class="node">
<title>Node3</title>
<g id="a_Node000003"><a xlink:href="classfloppy_1_1stacktrace_1_1details_1_1handle.html" target="_top" xlink:title=" ">
<polygon fill="white" stroke="#bfbfbf" points="392.75,-199.5 261.25,-199.5 261.25,-157.75 392.75,-157.75 392.75,-199.5"/>
<text text-anchor="start" x="269.25" y="-185.05" font-family="Helvetica,sans-Serif" font-size="11.00">handle&lt; Dwfl_Callbacks</text>
<text text-anchor="start" x="269.25" y="-173.8" font-family="Helvetica,sans-Serif" font-size="11.00"> *, floppy::default_delete</text>
<text text-anchor="middle" x="327" y="-162.55" font-family="Helvetica,sans-Serif" font-size="11.00">&lt; Dwfl_Callbacks * &gt; &gt;</text>
</a>
</g>
</g>
<!-- Node1&#45;&gt;Node3 -->
<g id="edge2_Node000001_Node000003" class="edge">
<title>Node1&#45;&gt;Node3</title>
<g id="a_edge2_Node000001_Node000003"><a xlink:title=" ">
<path fill="none" stroke="orange" stroke-dasharray="5,2" d="M85.13,-134.12C98.97,-141.49 116.42,-149.73 133,-154.62 174.61,-166.9 223.08,-172.9 261.03,-175.83"/>
<polygon fill="orange" stroke="orange" points="87.09,-131.21 76.64,-129.46 83.72,-137.34 87.09,-131.21"/>
</a>
</g>
<text text-anchor="start" x="133" y="-196.93" font-family="Helvetica,sans-Serif" font-size="11.00" fill="grey"> &lt; Dwfl_Callbacks *,</text>
<text text-anchor="start" x="133" y="-185.68" font-family="Helvetica,sans-Serif" font-size="11.00" fill="grey"> floppy::default_delete</text>
<text text-anchor="middle" x="188.12" y="-174.43" font-family="Helvetica,sans-Serif" font-size="11.00" fill="grey">&lt; Dwfl_Callbacks * &gt; &gt;</text>
</g>
<!-- Node4 -->
<g id="Node000004" class="node">
<title>Node4</title>
<g id="a_Node000004"><a xlink:href="classfloppy_1_1stacktrace_1_1details_1_1handle.html" target="_top" xlink:title=" ">
<polygon fill="white" stroke="#bfbfbf" points="390.12,-139.5 263.88,-139.5 263.88,-97.75 390.12,-97.75 390.12,-139.5"/>
<text text-anchor="start" x="271.88" y="-125.05" font-family="Helvetica,sans-Serif" font-size="11.00">handle&lt; Dwfl *, deleter</text>
<text text-anchor="start" x="271.88" y="-113.8" font-family="Helvetica,sans-Serif" font-size="11.00">&lt; void, Dwfl *, &amp;dwfl</text>
<text text-anchor="middle" x="327" y="-102.55" font-family="Helvetica,sans-Serif" font-size="11.00">_end &gt; &gt;</text>
</a>
</g>
</g>
<!-- Node1&#45;&gt;Node4 -->
<g id="edge3_Node000001_Node000004" class="edge">
<title>Node1&#45;&gt;Node4</title>
<g id="a_edge3_Node000001_Node000004"><a xlink:title=" ">
<path fill="none" stroke="orange" stroke-dasharray="5,2" d="M126.53,-118.62C168.77,-118.62 222.64,-118.62 263.75,-118.62"/>
<polygon fill="orange" stroke="orange" points="126.74,-115.13 116.74,-118.63 126.74,-122.13 126.74,-115.13"/>
</a>
</g>
<text text-anchor="start" x="142.75" y="-141.93" font-family="Helvetica,sans-Serif" font-size="11.00" fill="grey"> &lt; Dwfl *, deleter&lt;</text>
<text text-anchor="start" x="142.75" y="-130.68" font-family="Helvetica,sans-Serif" font-size="11.00" fill="grey"> void, Dwfl *, &amp;dwfl</text>
<text text-anchor="middle" x="188.12" y="-119.42" font-family="Helvetica,sans-Serif" font-size="11.00" fill="grey">_end &gt; &gt;</text>
</g>
<!-- Node5 -->
<g id="Node000005" class="node">
<title>Node5</title>
<g id="a_Node000005"><a xlink:href="classfloppy_1_1stacktrace_1_1details_1_1handle.html" target="_top" xlink:title=" ">
<polygon fill="white" stroke="#bfbfbf" points="392.75,-79.5 261.25,-79.5 261.25,-37.75 392.75,-37.75 392.75,-79.5"/>
<text text-anchor="start" x="269.25" y="-65.05" font-family="Helvetica,sans-Serif" font-size="11.00">handle&lt; std::ifstream</text>
<text text-anchor="start" x="269.25" y="-53.8" font-family="Helvetica,sans-Serif" font-size="11.00"> *, floppy::default_delete</text>
<text text-anchor="middle" x="327" y="-42.55" font-family="Helvetica,sans-Serif" font-size="11.00">&lt; std::ifstream * &gt; &gt;</text>
</a>
</g>
</g>
<!-- Node1&#45;&gt;Node5 -->
<g id="edge4_Node000001_Node000005" class="edge">
<title>Node1&#45;&gt;Node5</title>
<g id="a_edge4_Node000001_Node000005"><a xlink:title=" ">
<path fill="none" stroke="orange" stroke-dasharray="5,2" d="M83.93,-102.9C97.9,-95 115.85,-86.03 133,-80.88 174.51,-68.4 222.97,-62.85 260.95,-60.4"/>
<polygon fill="orange" stroke="orange" points="82.26,-99.82 75.39,-107.89 85.79,-105.86 82.26,-99.82"/>
</a>
</g>
<text text-anchor="start" x="135.62" y="-103.92" font-family="Helvetica,sans-Serif" font-size="11.00" fill="grey"> &lt; std::ifstream *,</text>
<text text-anchor="start" x="135.62" y="-92.67" font-family="Helvetica,sans-Serif" font-size="11.00" fill="grey"> floppy::default_delete</text>
<text text-anchor="middle" x="188.12" y="-81.42" font-family="Helvetica,sans-Serif" font-size="11.00" fill="grey">&lt; std::ifstream * &gt; &gt;</text>
</g>
<!-- Node6 -->
<g id="Node000006" class="node">
<title>Node6</title>
<g id="a_Node000006"><a xlink:href="classfloppy_1_1stacktrace_1_1details_1_1handle.html" target="_top" xlink:title=" ">
<polygon fill="white" stroke="#bfbfbf" points="375.12,-19.25 278.88,-19.25 278.88,0 375.12,0 375.12,-19.25"/>
<text text-anchor="middle" x="327" y="-4.8" font-family="Helvetica,sans-Serif" font-size="11.00">handle&lt; char * &gt;</text>
</a>
</g>
</g>
<!-- Node1&#45;&gt;Node6 -->
<g id="edge5_Node000001_Node000006" class="edge">
<title>Node1&#45;&gt;Node6</title>
<g id="a_edge5_Node000001_Node000006"><a xlink:title=" ">
<path fill="none" stroke="orange" stroke-dasharray="5,2" d="M72.66,-99.66C86.23,-82.91 108.27,-59.22 133,-46.38 178.86,-22.55 238.03,-14.06 278.7,-11.09"/>
<polygon fill="orange" stroke="orange" points="70.02,-97.35 66.62,-107.39 75.53,-101.66 70.02,-97.35"/>
</a>
</g>
<text text-anchor="middle" x="188.12" y="-46.42" font-family="Helvetica,sans-Serif" font-size="11.00" fill="grey"> &lt; char * &gt;</text>
</g>
</g>
</svg>
