<?xml version="1.0" encoding="UTF-8" standalone="no"?>
<!DOCTYPE svg PUBLIC "-//W3C//DTD SVG 1.1//EN"
 "http://www.w3.org/Graphics/SVG/1.1/DTD/svg11.dtd">
<!-- Generated by graphviz version 10.0.1 (0)
 -->
<!-- Title: TraceResolverDarwinImpl&lt; STACKTRACE_TAG &gt; Pages: 1 -->
<svg width="180pt" height="206pt"
 viewBox="0.00 0.00 179.50 206.25" xmlns="http://www.w3.org/2000/svg" xmlns:xlink="http://www.w3.org/1999/xlink">
<g id="graph0" class="graph" transform="scale(1 1) rotate(0) translate(4 202.25)">
<title>TraceResolverDarwinImpl&lt; STACKTRACE_TAG &gt;</title>
<!-- Node1 -->
<g id="Node000001" class="node">
<title>Node1</title>
<g id="a_Node000001"><a xlink:title=" ">
<polygon fill="#999999" stroke="#666666" points="139,-198.25 0,-198.25 0,-167.75 139,-167.75 139,-198.25"/>
<text text-anchor="start" x="8" y="-183.8" font-family="Helvetica,sans-Serif" font-size="11.00">TraceResolverDarwinImpl</text>
<text text-anchor="middle" x="69.5" y="-172.55" font-family="Helvetica,sans-Serif" font-size="11.00">&lt; STACKTRACE_TAG &gt;</text>
</a>
</g>
</g>
<!-- Node2 -->
<g id="Node000002" class="node">
<title>Node2</title>
<g id="a_Node000002"><a xlink:href="namespacefloppy_1_1stacktrace.html" target="_top" xlink:title=" ">
<polygon fill="white" stroke="#bfbfbf" points="139,-109.25 0,-109.25 0,-67.5 139,-67.5 139,-109.25"/>
<text text-anchor="start" x="8" y="-94.8" font-family="Helvetica,sans-Serif" font-size="11.00">TraceResolverDarwinImpl</text>
<text text-anchor="start" x="8" y="-83.55" font-family="Helvetica,sans-Serif" font-size="11.00">&lt; trace_resolver_tag::</text>
<text text-anchor="middle" x="69.5" y="-72.3" font-family="Helvetica,sans-Serif" font-size="11.00">current &gt;</text>
</a>
</g>
</g>
<!-- Node1&#45;&gt;Node2 -->
<g id="edge1_Node000001_Node000002" class="edge">
<title>Node1&#45;&gt;Node2</title>
<g id="a_edge1_Node000001_Node000002"><a xlink:title=" ">
<path fill="none" stroke="orange" stroke-dasharray="5,2" d="M69.5,-156.15C69.5,-141.43 69.5,-123.26 69.5,-109.59"/>
<polygon fill="orange" stroke="orange" points="66,-156.01 69.5,-166.01 73,-156.01 66,-156.01"/>
</a>
</g>
<text text-anchor="start" x="69.5" y="-139.3" font-family="Helvetica,sans-Serif" font-size="11.00" fill="grey"> &lt; trace_resolver_tag</text>
<text text-anchor="middle" x="120.5" y="-128.05" font-family="Helvetica,sans-Serif" font-size="11.00" fill="grey">::current &gt;</text>
</g>
<!-- Node3 -->
<g id="Node000003" class="node">
<title>Node3</title>
<g id="a_Node000003"><a xlink:href="classfloppy_1_1stacktrace_1_1TraceResolverImpl_3_01system__tag_1_1darwin_01_4.html" target="_top" xlink:title=" ">
<polygon fill="white" stroke="#bfbfbf" points="130.38,-30.5 8.62,-30.5 8.62,0 130.38,0 130.38,-30.5"/>
<text text-anchor="start" x="16.62" y="-16.05" font-family="Helvetica,sans-Serif" font-size="11.00">TraceResolverImpl&lt;</text>
<text text-anchor="middle" x="69.5" y="-4.8" font-family="Helvetica,sans-Serif" font-size="11.00"> system_tag::darwin &gt;</text>
</a>
</g>
</g>
<!-- Node2&#45;&gt;Node3 -->
<g id="edge2_Node000002_Node000003" class="edge">
<title>Node2&#45;&gt;Node3</title>
<g id="a_edge2_Node000002_Node000003"><a xlink:title=" ">
<path fill="none" stroke="#63b8ff" d="M69.5,-55.95C69.5,-47.11 69.5,-37.92 69.5,-30.62"/>
<polygon fill="#63b8ff" stroke="#63b8ff" points="66,-55.67 69.5,-65.67 73,-55.67 66,-55.67"/>
</a>
</g>
</g>
</g>
</svg>
