<?xml version="1.0" encoding="UTF-8" standalone="no"?>
<!DOCTYPE svg PUBLIC "-//W3C//DTD SVG 1.1//EN"
 "http://www.w3.org/Graphics/SVG/1.1/DTD/svg11.dtd">
<!-- Generated by graphviz version 10.0.1 (0)
 -->
<!-- Title: StackTraceImplHolder Pages: 1 -->
<svg width="236pt" height="227pt"
 viewBox="0.00 0.00 236.00 226.75" xmlns="http://www.w3.org/2000/svg" xmlns:xlink="http://www.w3.org/1999/xlink">
<g id="graph0" class="graph" transform="scale(1 1) rotate(0) translate(4 222.75)">
<title>StackTraceImplHolder</title>
<!-- Node1 -->
<g id="Node000001" class="node">
<title>Node1</title>
<g id="a_Node000001"><a xlink:title=" ">
<polygon fill="#999999" stroke="#666666" points="156.75,-19.25 34.25,-19.25 34.25,0 156.75,0 156.75,-19.25"/>
<text text-anchor="middle" x="95.5" y="-4.8" font-family="Helvetica,sans-Serif" font-size="11.00">StackTraceImplHolder</text>
</a>
</g>
</g>
<!-- Node2 -->
<g id="Node000002" class="node">
<title>Node2</title>
<g id="a_Node000002"><a xlink:href="classfloppy_1_1stacktrace_1_1StackTraceImplBase.html" target="_top" xlink:title=" ">
<polygon fill="white" stroke="#bfbfbf" points="115,-85.75 0,-85.75 0,-66.5 115,-66.5 115,-85.75"/>
<text text-anchor="middle" x="57.5" y="-71.3" font-family="Helvetica,sans-Serif" font-size="11.00">StackTraceImplBase</text>
</a>
</g>
</g>
<!-- Node2&#45;&gt;Node1 -->
<g id="edge1_Node000001_Node000002" class="edge">
<title>Node2&#45;&gt;Node1</title>
<g id="a_edge1_Node000001_Node000002"><a xlink:title=" ">
<path fill="none" stroke="#63b8ff" d="M68.47,-56.51C75.63,-44.35 84.66,-29.02 90.26,-19.52"/>
<polygon fill="#63b8ff" stroke="#63b8ff" points="65.61,-54.46 63.55,-64.85 71.64,-58.01 65.61,-54.46"/>
</a>
</g>
</g>
<!-- Node3 -->
<g id="Node000003" class="node">
<title>Node3</title>
<g id="a_Node000003"><a xlink:title=" ">
<polygon fill="white" stroke="#666666" points="224.38,-85.75 132.62,-85.75 132.62,-66.5 224.38,-66.5 224.38,-85.75"/>
<text text-anchor="middle" x="178.5" y="-71.3" font-family="Helvetica,sans-Serif" font-size="11.00">vector&lt; void * &gt;</text>
</a>
</g>
</g>
<!-- Node3&#45;&gt;Node1 -->
<g id="edge2_Node000001_Node000003" class="edge">
<title>Node3&#45;&gt;Node1</title>
<g id="a_edge2_Node000001_Node000003"><a xlink:title=" ">
<path fill="none" stroke="#9a32cd" stroke-dasharray="5,2" d="M158.31,-59.43C142.29,-46.99 120.47,-30.03 107.21,-19.73"/>
<polygon fill="#9a32cd" stroke="#9a32cd" points="155.72,-61.86 165.76,-65.23 160.02,-56.33 155.72,-61.86"/>
</a>
</g>
<text text-anchor="middle" x="170.75" y="-38.05" font-family="Helvetica,sans-Serif" font-size="11.00" fill="grey"> _stacktrace</text>
</g>
<!-- Node4 -->
<g id="Node000004" class="node">
<title>Node4</title>
<g id="a_Node000004"><a xlink:title=" ">
<polygon fill="white" stroke="#666666" points="214.25,-152.25 142.75,-152.25 142.75,-133 214.25,-133 214.25,-152.25"/>
<text text-anchor="middle" x="178.5" y="-137.8" font-family="Helvetica,sans-Serif" font-size="11.00">vector&lt; T &gt;</text>
</a>
</g>
</g>
<!-- Node4&#45;&gt;Node3 -->
<g id="edge3_Node000003_Node000004" class="edge">
<title>Node4&#45;&gt;Node3</title>
<g id="a_edge3_Node000003_Node000004"><a xlink:title=" ">
<path fill="none" stroke="orange" stroke-dasharray="5,2" d="M178.5,-121.15C178.5,-109.32 178.5,-95.04 178.5,-86.02"/>
<polygon fill="orange" stroke="orange" points="175,-121.14 178.5,-131.14 182,-121.14 175,-121.14"/>
</a>
</g>
<text text-anchor="middle" x="203.25" y="-104.55" font-family="Helvetica,sans-Serif" font-size="11.00" fill="grey"> &lt; void * &gt;</text>
</g>
<!-- Node5 -->
<g id="Node000005" class="node">
<title>Node5</title>
<g id="a_Node000005"><a xlink:title=" ">
<polygon fill="white" stroke="#bfbfbf" points="192.9,-218.75 164.1,-218.75 164.1,-199.5 192.9,-199.5 192.9,-218.75"/>
<text text-anchor="middle" x="178.5" y="-204.3" font-family="Helvetica,sans-Serif" font-size="11.00">T</text>
</a>
</g>
</g>
<!-- Node5&#45;&gt;Node4 -->
<g id="edge4_Node000004_Node000005" class="edge">
<title>Node5&#45;&gt;Node4</title>
<g id="a_edge4_Node000004_Node000005"><a xlink:title=" ">
<path fill="none" stroke="#9a32cd" stroke-dasharray="5,2" d="M178.5,-187.65C178.5,-175.82 178.5,-161.54 178.5,-152.52"/>
<polygon fill="#9a32cd" stroke="#9a32cd" points="175,-187.64 178.5,-197.64 182,-187.64 175,-187.64"/>
</a>
</g>
<text text-anchor="middle" x="201.75" y="-171.05" font-family="Helvetica,sans-Serif" font-size="11.00" fill="grey"> elements</text>
</g>
</g>
</svg>
