<?xml version="1.0" encoding="UTF-8" standalone="no"?>
<!DOCTYPE svg PUBLIC "-//W3C//DTD SVG 1.1//EN"
 "http://www.w3.org/Graphics/SVG/1.1/DTD/svg11.dtd">
<!-- Generated by graphviz version 10.0.1 (0)
 -->
<!-- Title: vector2d&lt; U, T &gt; Pages: 1 -->
<svg width="135pt" height="204pt"
 viewBox="0.00 0.00 135.00 204.25" xmlns="http://www.w3.org/2000/svg" xmlns:xlink="http://www.w3.org/1999/xlink">
<g id="graph0" class="graph" transform="scale(1 1) rotate(0) translate(4 200.25)">
<title>vector2d&lt; U, T &gt;</title>
<!-- Node1 -->
<g id="Node000001" class="node">
<title>Node1</title>
<g id="a_Node000001"><a xlink:title="A two&#45;dimensional vector tagged with a unit.">
<polygon fill="#999999" stroke="#666666" points="112,-19.25 15,-19.25 15,0 112,0 112,-19.25"/>
<text text-anchor="middle" x="63.5" y="-4.8" font-family="Arial" font-size="11.00">vector2d&lt; U, T &gt;</text>
</a>
</g>
</g>
<!-- Node2 -->
<g id="Node000002" class="node">
<title>Node2</title>
<g id="a_Node000002"><a xlink:href="structfloppy_1_1math_1_1detail_1_1basic__two__dimensional__type.html" target="_top" xlink:title="CRTP base class for two dimensional numerical types.">
<polygon fill="white" stroke="#666666" points="126.62,-85.75 0.38,-85.75 0.38,-55.25 126.62,-55.25 126.62,-85.75"/>
<text text-anchor="start" x="8.38" y="-71.3" font-family="Arial" font-size="11.00">basic_two_dimensional</text>
<text text-anchor="middle" x="63.5" y="-60.05" font-family="Arial" font-size="11.00">_type&lt; T, U, N &gt;</text>
</a>
</g>
</g>
<!-- Node2&#45;&gt;Node1 -->
<g id="edge1_Node000001_Node000002" class="edge">
<title>Node2&#45;&gt;Node1</title>
<g id="a_edge1_Node000001_Node000002"><a xlink:title=" ">
<path fill="none" stroke="#63b8ff" d="M63.5,-43.48C63.5,-34.98 63.5,-26.09 63.5,-19.7"/>
<polygon fill="#63b8ff" stroke="#63b8ff" points="60,-43.43 63.5,-53.43 67,-43.43 60,-43.43"/>
</a>
</g>
</g>
<!-- Node3 -->
<g id="Node000003" class="node">
<title>Node3</title>
<g id="a_Node000003"><a xlink:href="structfloppy_1_1traits_1_1formattable.html" target="_top" xlink:title=" ">
<polygon fill="white" stroke="#666666" points="124.75,-141 2.25,-141 2.25,-121.75 124.75,-121.75 124.75,-141"/>
<text text-anchor="middle" x="63.5" y="-126.55" font-family="Arial" font-size="11.00">formattable&lt; T, char &gt;</text>
</a>
</g>
</g>
<!-- Node3&#45;&gt;Node2 -->
<g id="edge2_Node000002_Node000003" class="edge">
<title>Node3&#45;&gt;Node2</title>
<g id="a_edge2_Node000002_Node000003"><a xlink:title=" ">
<path fill="none" stroke="#63b8ff" d="M63.5,-110.17C63.5,-102.24 63.5,-93.31 63.5,-86.03"/>
<polygon fill="#63b8ff" stroke="#63b8ff" points="60,-109.92 63.5,-119.92 67,-109.92 60,-109.92"/>
</a>
</g>
</g>
<!-- Node4 -->
<g id="Node000004" class="node">
<title>Node4</title>
<g id="a_Node000004"><a xlink:href="structfloppy_1_1traits_1_1detail_1_1formattable__base.html" target="_top" xlink:title="Interface, providing to_string method.">
<polygon fill="white" stroke="#666666" points="127,-196.25 0,-196.25 0,-177 127,-177 127,-196.25"/>
<text text-anchor="middle" x="63.5" y="-181.8" font-family="Arial" font-size="11.00">formattable_base&lt; C &gt;</text>
</a>
</g>
</g>
<!-- Node4&#45;&gt;Node3 -->
<g id="edge3_Node000003_Node000004" class="edge">
<title>Node4&#45;&gt;Node3</title>
<g id="a_edge3_Node000003_Node000004"><a xlink:title=" ">
<path fill="none" stroke="#63b8ff" d="M63.5,-165.38C63.5,-157.09 63.5,-147.92 63.5,-141.36"/>
<polygon fill="#63b8ff" stroke="#63b8ff" points="60,-165.32 63.5,-175.32 67,-165.32 60,-165.32"/>
</a>
</g>
</g>
</g>
</svg>
