<?xml version="1.0" encoding="UTF-8" standalone="no"?>
<!DOCTYPE svg PUBLIC "-//W3C//DTD SVG 1.1//EN"
 "http://www.w3.org/Graphics/SVG/1.1/DTD/svg11.dtd">
<!-- Generated by graphviz version 10.0.1 (0)
 -->
<!-- Title: color.h Pages: 1 -->
<!--zoomable 271 -->

<svg id="main" version="1.1" xmlns="http://www.w3.org/2000/svg" xmlns:xlink="http://www.w3.org/1999/xlink" xml:space="preserve" onload="init(evt)">
<style type="text/css"><![CDATA[
.node, .edge {opacity: 0.7;}
.node.selected, .edge.selected {opacity: 1;}
.edge:hover path { stroke: red; }
.edge:hover polygon { stroke: red; fill: red; }
]]></style>

<defs>
  <circle id="rim" cx="0" cy="0" r="7"/>
  <circle id="rim2" cx="0" cy="0" r="3.5"/>
  <g id="zoomPlus">
    <use xlink:href="#rim" fill="#404040"><set attributeName="fill" to="#808080" begin="zoomplus.mouseover" end="zoomplus.mouseout"/></use>
    <path d="M-4,0h8M0,-4v8" fill="none" stroke="white" stroke-width="1.5" pointer-events="none"/>
  </g>
  <g id="zoomMin">
    <use xlink:href="#rim" fill="#404040"><set attributeName="fill" to="#808080" begin="zoomminus.mouseover" end="zoomminus.mouseout"/></use>
    <path d="M-4,0h8" fill="none" stroke="white" stroke-width="1.5" pointer-events="none"/>
  </g>
  <g id="arrowUp" transform="translate(30 24)">
    <use xlink:href="#rim"/>
    <path pointer-events="none" fill="none" stroke="white" stroke-width="1.5" d="M0,-3.0v7 M-2.5,-0.5L0,-3.0L2.5,-0.5"/>
  </g>
  <g id="arrowRight" transform="rotate(90) translate(36 -43)">
    <use xlink:href="#rim"/>
    <path pointer-events="none" fill="none" stroke="white" stroke-width="1.5" d="M0,-3.0v7 M-2.5,-0.5L0,-3.0L2.5,-0.5"/>
  </g>
  <g id="arrowDown" transform="rotate(180) translate(-30 -48)">
    <use xlink:href="#rim"/>
    <path pointer-events="none" fill="none" stroke="white" stroke-width="1.5" d="M0,-3.0v7 M-2.5,-0.5L0,-3.0L2.5,-0.5"/>
  </g>
  <g id="arrowLeft" transform="rotate(270) translate(-36 17)">
    <use xlink:href="#rim"/>
    <path pointer-events="none" fill="none" stroke="white" stroke-width="1.5" d="M0,-3.0v7 M-2.5,-0.5L0,-3.0L2.5,-0.5"/>
  </g>
  <g id="resetDef">
    <use xlink:href="#rim2" fill="#404040"><set attributeName="fill" to="#808080" begin="reset.mouseover" end="reset.mouseout"/></use>
  </g>
</defs>
<script type="application/ecmascript">
var viewWidth = 953;
var viewHeight = 271;
var sectionId = 'dynsection-0';
</script>
<script type="application/ecmascript" xlink:href="svg.min.js"/>
<svg id="graph" class="graph">
<g id="viewport">
<title>color.h</title>
<!-- Node1 -->
<g id="Node000001" class="node">
<title>Node1</title>
<g id="a_Node000001"><a xlink:title="Class representing a color.">
<polygon fill="#999999" stroke="#666666" points="608.62,-262.75 561.12,-262.75 561.12,-243.5 608.62,-243.5 608.62,-262.75"/>
<text text-anchor="middle" x="584.88" y="-248.3" font-family="Helvetica,sans-Serif" font-size="11.00">color.h</text>
</a>
</g>
</g>
<!-- Node2 -->
<g id="Node000002" class="node">
<title>Node2</title>
<g id="a_Node000002"><a xlink:title=" ">
<polygon fill="#e0e0e0" stroke="#999999" points="271.25,-207.5 230.5,-207.5 230.5,-188.25 271.25,-188.25 271.25,-207.5"/>
<text text-anchor="middle" x="250.88" y="-193.05" font-family="Helvetica,sans-Serif" font-size="11.00">array</text>
</a>
</g>
</g>
<!-- Node1&#45;&gt;Node2 -->
<g id="edge1_Node000001_Node000002" class="edge">
<title>Node1&#45;&gt;Node2</title>
<g id="a_edge1_Node000001_Node000002"><a xlink:title=" ">
<path fill="none" stroke="#63b8ff" d="M560.64,-249.69C510.59,-244.41 392.07,-230.71 282.68,-207.6"/>
<polygon fill="#63b8ff" stroke="#63b8ff" points="283.43,-204.18 272.92,-205.5 281.96,-211.02 283.43,-204.18"/>
</a>
</g>
</g>
<!-- Node3 -->
<g id="Node000003" class="node">
<title>Node3</title>
<g id="a_Node000003"><a xlink:href="math_8h_source.html" target="_top" xlink:title=" ">
<polygon fill="white" stroke="#666666" points="398.38,-207.5 289.38,-207.5 289.38,-188.25 398.38,-188.25 398.38,-207.5"/>
<text text-anchor="middle" x="343.88" y="-193.05" font-family="Helvetica,sans-Serif" font-size="11.00">floppy/detail/math.h</text>
</a>
</g>
</g>
<!-- Node1&#45;&gt;Node3 -->
<g id="edge2_Node000001_Node000003" class="edge">
<title>Node1&#45;&gt;Node3</title>
<g id="a_edge2_Node000001_Node000003"><a xlink:title=" ">
<path fill="none" stroke="#63b8ff" d="M560.89,-246.82C522.7,-238.39 447.19,-221.7 396.11,-210.42"/>
<polygon fill="#63b8ff" stroke="#63b8ff" points="396.96,-207.02 386.44,-208.28 395.45,-213.86 396.96,-207.02"/>
</a>
</g>
</g>
<!-- Node21 -->
<g id="Node000021" class="node">
<title>Node21</title>
<g id="a_Node000021"><a xlink:href="formatters_8h_source.html" target="_top" xlink:title=" ">
<polygon fill="white" stroke="#666666" points="685.75,-146.62 552,-146.62 552,-127.38 685.75,-127.38 685.75,-146.62"/>
<text text-anchor="middle" x="618.88" y="-132.18" font-family="Helvetica,sans-Serif" font-size="11.00">floppy/detail/formatters.h</text>
</a>
</g>
</g>
<!-- Node1&#45;&gt;Node21 -->
<g id="edge22_Node000001_Node000021" class="edge">
<title>Node1&#45;&gt;Node21</title>
<g id="a_edge22_Node000001_Node000021"><a xlink:title=" ">
<path fill="none" stroke="#63b8ff" d="M587.58,-243.03C591.26,-230.64 598.06,-207.76 603.88,-188.25 606.88,-178.18 610.22,-166.97 612.99,-157.71"/>
<polygon fill="#63b8ff" stroke="#63b8ff" points="616.28,-158.93 615.78,-148.35 609.57,-156.93 616.28,-158.93"/>
</a>
</g>
</g>
<!-- Node24 -->
<g id="Node000024" class="node">
<title>Node24</title>
<g id="a_Node000024"><a xlink:href="traits_8h_source.html" target="_top" xlink:title=" ">
<polygon fill="white" stroke="#666666" points="692.75,-207.5 613,-207.5 613,-188.25 692.75,-188.25 692.75,-207.5"/>
<text text-anchor="middle" x="652.88" y="-193.05" font-family="Helvetica,sans-Serif" font-size="11.00">floppy/traits.h</text>
</a>
</g>
</g>
<!-- Node1&#45;&gt;Node24 -->
<g id="edge27_Node000001_Node000024" class="edge">
<title>Node1&#45;&gt;Node24</title>
<g id="a_edge27_Node000001_Node000024"><a xlink:title=" ">
<path fill="none" stroke="#63b8ff" d="M596.41,-243.09C606.34,-235.32 620.89,-223.92 632.73,-214.65"/>
<polygon fill="#63b8ff" stroke="#63b8ff" points="634.6,-217.63 640.32,-208.71 630.29,-212.12 634.6,-217.63"/>
</a>
</g>
</g>
<!-- Node27 -->
<g id="Node000027" class="node">
<title>Node27</title>
<g id="a_Node000027"><a xlink:title=" ">
<polygon fill="#e0e0e0" stroke="#999999" points="764.62,-207.5 711.12,-207.5 711.12,-188.25 764.62,-188.25 764.62,-207.5"/>
<text text-anchor="middle" x="737.88" y="-193.05" font-family="Helvetica,sans-Serif" font-size="11.00">qcolor.h</text>
</a>
</g>
</g>
<!-- Node1&#45;&gt;Node27 -->
<g id="edge33_Node000001_Node000027" class="edge">
<title>Node1&#45;&gt;Node27</title>
<g id="a_edge33_Node000001_Node000027"><a xlink:title=" ">
<path fill="none" stroke="#63b8ff" d="M609.12,-243.69C633.81,-235.09 672.43,-221.65 700.93,-211.73"/>
<polygon fill="#63b8ff" stroke="#63b8ff" points="701.97,-215.08 710.27,-208.48 699.67,-208.47 701.97,-215.08"/>
</a>
</g>
</g>
<!-- Node4 -->
<g id="Node000004" class="node">
<title>Node4</title>
<g id="a_Node000004"><a xlink:title=" ">
<polygon fill="#e0e0e0" stroke="#999999" points="401.5,-146.62 356.25,-146.62 356.25,-127.38 401.5,-127.38 401.5,-146.62"/>
<text text-anchor="middle" x="378.88" y="-132.18" font-family="Helvetica,sans-Serif" font-size="11.00">cmath</text>
</a>
</g>
</g>
<!-- Node3&#45;&gt;Node4 -->
<g id="edge3_Node000003_Node000004" class="edge">
<title>Node3&#45;&gt;Node4</title>
<g id="a_edge3_Node000003_Node000004"><a xlink:title=" ">
<path fill="none" stroke="#63b8ff" d="M349.19,-187.93C354.07,-179.72 361.47,-167.28 367.65,-156.87"/>
<polygon fill="#63b8ff" stroke="#63b8ff" points="370.63,-158.71 372.74,-148.33 364.62,-155.13 370.63,-158.71"/>
</a>
</g>
</g>
<!-- Node5 -->
<g id="Node000005" class="node">
<title>Node5</title>
<g id="a_Node000005"><a xlink:title=" ">
<polygon fill="#e0e0e0" stroke="#999999" points="185.88,-146.62 145.88,-146.62 145.88,-127.38 185.88,-127.38 185.88,-146.62"/>
<text text-anchor="middle" x="165.88" y="-132.18" font-family="Helvetica,sans-Serif" font-size="11.00">limits</text>
</a>
</g>
</g>
<!-- Node3&#45;&gt;Node5 -->
<g id="edge4_Node000003_Node000005" class="edge">
<title>Node3&#45;&gt;Node5</title>
<g id="a_edge4_Node000003_Node000005"><a xlink:title=" ">
<path fill="none" stroke="#63b8ff" d="M307.48,-187.79C276.96,-179.74 232.46,-166.99 194.88,-152.25 194.39,-152.06 193.91,-151.87 193.42,-151.67"/>
<polygon fill="#63b8ff" stroke="#63b8ff" points="195.09,-148.58 184.53,-147.69 192.22,-154.97 195.09,-148.58"/>
</a>
</g>
</g>
<!-- Node6 -->
<g id="Node000006" class="node">
<title>Node6</title>
<g id="a_Node000006"><a xlink:title=" ">
<polygon fill="#e0e0e0" stroke="#999999" points="261.88,-146.62 203.88,-146.62 203.88,-127.38 261.88,-127.38 261.88,-146.62"/>
<text text-anchor="middle" x="232.88" y="-132.18" font-family="Helvetica,sans-Serif" font-size="11.00">numbers</text>
</a>
</g>
</g>
<!-- Node3&#45;&gt;Node6 -->
<g id="edge5_Node000003_Node000006" class="edge">
<title>Node3&#45;&gt;Node6</title>
<g id="a_edge5_Node000003_Node000006"><a xlink:title=" ">
<path fill="none" stroke="#63b8ff" d="M327.02,-187.93C309.17,-178.47 280.74,-163.39 259.78,-152.27"/>
<polygon fill="#63b8ff" stroke="#63b8ff" points="261.7,-149.33 251.23,-147.74 258.42,-155.51 261.7,-149.33"/>
</a>
</g>
</g>
<!-- Node7 -->
<g id="Node000007" class="node">
<title>Node7</title>
<g id="a_Node000007"><a xlink:title=" ">
<polygon fill="#e0e0e0" stroke="#999999" points="337.88,-146.62 279.88,-146.62 279.88,-127.38 337.88,-127.38 337.88,-146.62"/>
<text text-anchor="middle" x="308.88" y="-132.18" font-family="Helvetica,sans-Serif" font-size="11.00">compare</text>
</a>
</g>
</g>
<!-- Node3&#45;&gt;Node7 -->
<g id="edge6_Node000003_Node000007" class="edge">
<title>Node3&#45;&gt;Node7</title>
<g id="a_edge6_Node000003_Node000007"><a xlink:title=" ">
<path fill="none" stroke="#63b8ff" d="M338.56,-187.93C333.68,-179.72 326.28,-167.28 320.1,-156.87"/>
<polygon fill="#63b8ff" stroke="#63b8ff" points="323.13,-155.13 315.01,-148.33 317.12,-158.71 323.13,-155.13"/>
</a>
</g>
</g>
<!-- Node8 -->
<g id="Node000008" class="node">
<title>Node8</title>
<g id="a_Node000008"><a xlink:href="export_8h_source.html" target="_top" xlink:title=" ">
<polygon fill="white" stroke="#666666" points="534.38,-146.62 419.38,-146.62 419.38,-127.38 534.38,-127.38 534.38,-146.62"/>
<text text-anchor="middle" x="476.88" y="-132.18" font-family="Helvetica,sans-Serif" font-size="11.00">floppy/detail/export.h</text>
</a>
</g>
</g>
<!-- Node3&#45;&gt;Node8 -->
<g id="edge7_Node000003_Node000008" class="edge">
<title>Node3&#45;&gt;Node8</title>
<g id="a_edge7_Node000003_Node000008"><a xlink:title=" ">
<path fill="none" stroke="#63b8ff" d="M364.36,-187.8C386.2,-178.14 421.01,-162.73 446.14,-151.61"/>
<polygon fill="#63b8ff" stroke="#63b8ff" points="447.47,-154.84 455.2,-147.6 444.64,-148.44 447.47,-154.84"/>
</a>
</g>
</g>
<!-- Node13 -->
<g id="Node000013" class="node">
<title>Node13</title>
<g id="a_Node000013"><a xlink:href="concepts_8h_source.html" target="_top" xlink:title=" ">
<polygon fill="white" stroke="#666666" points="127.75,-146.62 0,-146.62 0,-127.38 127.75,-127.38 127.75,-146.62"/>
<text text-anchor="middle" x="63.88" y="-132.18" font-family="Helvetica,sans-Serif" font-size="11.00">floppy/detail/concepts.h</text>
</a>
</g>
</g>
<!-- Node3&#45;&gt;Node13 -->
<g id="edge12_Node000003_Node000013" class="edge">
<title>Node3&#45;&gt;Node13</title>
<g id="a_edge12_Node000003_Node000013"><a xlink:title=" ">
<path fill="none" stroke="#63b8ff" d="M300.74,-187.8C251.62,-177.48 171.29,-160.58 118,-149.38"/>
<polygon fill="#63b8ff" stroke="#63b8ff" points="119.05,-146.02 108.54,-147.39 117.61,-152.87 119.05,-146.02"/>
</a>
</g>
</g>
<!-- Node9 -->
<g id="Node000009" class="node">
<title>Node9</title>
<g id="a_Node000009"><a xlink:title=" ">
<polygon fill="#e0e0e0" stroke="#999999" points="427,-80.12 384.75,-80.12 384.75,-60.88 427,-60.88 427,-80.12"/>
<text text-anchor="middle" x="405.88" y="-65.67" font-family="Helvetica,sans-Serif" font-size="11.00">string</text>
</a>
</g>
</g>
<!-- Node8&#45;&gt;Node9 -->
<g id="edge8_Node000008_Node000009" class="edge">
<title>Node8&#45;&gt;Node9</title>
<g id="a_edge8_Node000008_Node000009"><a xlink:title=" ">
<path fill="none" stroke="#63b8ff" d="M467,-127.03C455.88,-116.92 437.56,-100.28 423.87,-87.85"/>
<polygon fill="#63b8ff" stroke="#63b8ff" points="426.54,-85.54 416.78,-81.41 421.83,-90.72 426.54,-85.54"/>
</a>
</g>
</g>
<!-- Node10 -->
<g id="Node000010" class="node">
<title>Node10</title>
<g id="a_Node000010"><a xlink:title=" ">
<polygon fill="#e0e0e0" stroke="#999999" points="552.88,-80.12 482.88,-80.12 482.88,-60.88 552.88,-60.88 552.88,-80.12"/>
<text text-anchor="middle" x="517.88" y="-65.67" font-family="Helvetica,sans-Serif" font-size="11.00">string_view</text>
</a>
</g>
</g>
<!-- Node8&#45;&gt;Node10 -->
<g id="edge9_Node000008_Node000010" class="edge">
<title>Node8&#45;&gt;Node10</title>
<g id="a_edge9_Node000008_Node000010"><a xlink:title=" ">
<path fill="none" stroke="#63b8ff" d="M482.58,-127.03C488.63,-117.5 498.39,-102.16 506.11,-90.02"/>
<polygon fill="#63b8ff" stroke="#63b8ff" points="509,-91.99 511.41,-81.67 503.09,-88.23 509,-91.99"/>
</a>
</g>
</g>
<!-- Node11 -->
<g id="Node000011" class="node">
<title>Node11</title>
<g id="a_Node000011"><a xlink:title=" ">
<polygon fill="#e0e0e0" stroke="#999999" points="692.5,-80.12 635.25,-80.12 635.25,-60.88 692.5,-60.88 692.5,-80.12"/>
<text text-anchor="middle" x="663.88" y="-65.67" font-family="Helvetica,sans-Serif" font-size="11.00">iostream</text>
</a>
</g>
</g>
<!-- Node8&#45;&gt;Node11 -->
<g id="edge10_Node000008_Node000011" class="edge">
<title>Node8&#45;&gt;Node11</title>
<g id="a_edge10_Node000008_Node000011"><a xlink:title=" ">
<path fill="none" stroke="#63b8ff" d="M504.71,-126.92C534.71,-117.07 583.83,-100.72 625.88,-85.75 627.04,-85.34 628.22,-84.91 629.41,-84.48"/>
<polygon fill="#63b8ff" stroke="#63b8ff" points="630.6,-87.77 638.78,-81.04 628.19,-81.2 630.6,-87.77"/>
</a>
</g>
</g>
<!-- Node12 -->
<g id="Node000012" class="node">
<title>Node12</title>
<g id="a_Node000012"><a xlink:title=" ">
<polygon fill="#e0e0e0" stroke="#999999" points="491.75,-19.25 418,-19.25 418,0 491.75,0 491.75,-19.25"/>
<text text-anchor="middle" x="454.88" y="-4.8" font-family="Helvetica,sans-Serif" font-size="11.00">fmt/format.h</text>
</a>
</g>
</g>
<!-- Node8&#45;&gt;Node12 -->
<g id="edge11_Node000008_Node000012" class="edge">
<title>Node8&#45;&gt;Node12</title>
<g id="a_edge11_Node000008_Node000012"><a xlink:title=" ">
<path fill="none" stroke="#63b8ff" d="M475.29,-126.98C471.77,-106.92 463.22,-58.2 458.38,-30.58"/>
<polygon fill="#63b8ff" stroke="#63b8ff" points="461.88,-30.3 456.7,-21.05 454.99,-31.51 461.88,-30.3"/>
</a>
</g>
</g>
<!-- Node14 -->
<g id="Node000014" class="node">
<title>Node14</title>
<g id="a_Node000014"><a xlink:title=" ">
<polygon fill="#e0e0e0" stroke="#999999" points="74.25,-80.12 15.5,-80.12 15.5,-60.88 74.25,-60.88 74.25,-80.12"/>
<text text-anchor="middle" x="44.88" y="-65.67" font-family="Helvetica,sans-Serif" font-size="11.00">concepts</text>
</a>
</g>
</g>
<!-- Node13&#45;&gt;Node14 -->
<g id="edge13_Node000013_Node000014" class="edge">
<title>Node13&#45;&gt;Node14</title>
<g id="a_edge13_Node000013_Node000014"><a xlink:title=" ">
<path fill="none" stroke="#63b8ff" d="M61.23,-127.03C58.51,-117.79 54.18,-103.08 50.66,-91.13"/>
<polygon fill="#63b8ff" stroke="#63b8ff" points="54.11,-90.45 47.92,-81.84 47.39,-92.43 54.11,-90.45"/>
</a>
</g>
</g>
<!-- Node15 -->
<g id="Node000015" class="node">
<title>Node15</title>
<g id="a_Node000015"><a xlink:href="type__traits_8h_source.html" target="_top" xlink:title=" ">
<polygon fill="white" stroke="#666666" points="189,-85.75 92.75,-85.75 92.75,-55.25 189,-55.25 189,-85.75"/>
<text text-anchor="start" x="100.75" y="-71.3" font-family="Helvetica,sans-Serif" font-size="11.00">floppy/detail/type</text>
<text text-anchor="middle" x="140.88" y="-60.05" font-family="Helvetica,sans-Serif" font-size="11.00">_traits.h</text>
</a>
</g>
</g>
<!-- Node13&#45;&gt;Node15 -->
<g id="edge14_Node000013_Node000015" class="edge">
<title>Node13&#45;&gt;Node15</title>
<g id="a_edge14_Node000013_Node000015"><a xlink:title=" ">
<path fill="none" stroke="#63b8ff" d="M74.58,-127.03C84.95,-118.34 101.09,-104.83 114.85,-93.3"/>
<polygon fill="#63b8ff" stroke="#63b8ff" points="116.88,-96.17 122.3,-87.06 112.38,-90.8 116.88,-96.17"/>
</a>
</g>
</g>
<!-- Node17 -->
<g id="Node000017" class="node">
<title>Node17</title>
<g id="a_Node000017"><a xlink:href="types_8h_source.html" target="_top" xlink:title=" ">
<polygon fill="white" stroke="#666666" points="328.12,-80.12 217.62,-80.12 217.62,-60.88 328.12,-60.88 328.12,-80.12"/>
<text text-anchor="middle" x="272.88" y="-65.67" font-family="Helvetica,sans-Serif" font-size="11.00">floppy/detail/types.h</text>
</a>
</g>
</g>
<!-- Node13&#45;&gt;Node17 -->
<g id="edge16_Node000013_Node000017" class="edge">
<title>Node13&#45;&gt;Node17</title>
<g id="a_edge16_Node000013_Node000017"><a xlink:title=" ">
<path fill="none" stroke="#63b8ff" d="M93.38,-126.9C129.79,-115.66 191.87,-96.5 232.63,-83.92"/>
<polygon fill="#63b8ff" stroke="#63b8ff" points="233.55,-87.3 242.08,-81 231.49,-80.61 233.55,-87.3"/>
</a>
</g>
</g>
<!-- Node16 -->
<g id="Node000016" class="node">
<title>Node16</title>
<g id="a_Node000016"><a xlink:title=" ">
<polygon fill="#e0e0e0" stroke="#999999" points="173.62,-19.25 108.12,-19.25 108.12,0 173.62,0 173.62,-19.25"/>
<text text-anchor="middle" x="140.88" y="-4.8" font-family="Helvetica,sans-Serif" font-size="11.00">type_traits</text>
</a>
</g>
</g>
<!-- Node15&#45;&gt;Node16 -->
<g id="edge15_Node000015_Node000016" class="edge">
<title>Node15&#45;&gt;Node16</title>
<g id="a_edge15_Node000015_Node000016"><a xlink:title=" ">
<path fill="none" stroke="#63b8ff" d="M140.88,-54.95C140.88,-47.71 140.88,-38.84 140.88,-30.94"/>
<polygon fill="#63b8ff" stroke="#63b8ff" points="144.38,-31.21 140.88,-21.21 137.38,-31.21 144.38,-31.21"/>
</a>
</g>
</g>
<!-- Node17&#45;&gt;Node12 -->
<g id="edge21_Node000017_Node000012" class="edge">
<title>Node17&#45;&gt;Node12</title>
<g id="a_edge21_Node000017_Node000012"><a xlink:title=" ">
<path fill="none" stroke="#63b8ff" d="M300.91,-60.43C331.77,-50.45 381.59,-34.33 416.16,-23.15"/>
<polygon fill="#63b8ff" stroke="#63b8ff" points="416.93,-26.58 425.36,-20.17 414.77,-19.92 416.93,-26.58"/>
</a>
</g>
</g>
<!-- Node17&#45;&gt;Node16 -->
<g id="edge20_Node000017_Node000016" class="edge">
<title>Node17&#45;&gt;Node16</title>
<g id="a_edge20_Node000017_Node000016"><a xlink:title=" ">
<path fill="none" stroke="#63b8ff" d="M252.54,-60.43C230.87,-50.76 196.32,-35.35 171.38,-24.23"/>
<polygon fill="#63b8ff" stroke="#63b8ff" points="172.96,-21.1 162.4,-20.23 170.11,-27.5 172.96,-21.1"/>
</a>
</g>
</g>
<!-- Node18 -->
<g id="Node000018" class="node">
<title>Node18</title>
<g id="a_Node000018"><a xlink:title=" ">
<polygon fill="#e0e0e0" stroke="#999999" points="378.12,-19.25 327.62,-19.25 327.62,0 378.12,0 378.12,-19.25"/>
<text text-anchor="middle" x="352.88" y="-4.8" font-family="Helvetica,sans-Serif" font-size="11.00">cstddef</text>
</a>
</g>
</g>
<!-- Node17&#45;&gt;Node18 -->
<g id="edge17_Node000017_Node000018" class="edge">
<title>Node17&#45;&gt;Node18</title>
<g id="a_edge17_Node000017_Node000018"><a xlink:title=" ">
<path fill="none" stroke="#63b8ff" d="M285.03,-60.56C297.36,-51.48 316.71,-37.24 331.59,-26.29"/>
<polygon fill="#63b8ff" stroke="#63b8ff" points="333.41,-29.29 339.39,-20.55 329.26,-23.66 333.41,-29.29"/>
</a>
</g>
</g>
<!-- Node19 -->
<g id="Node000019" class="node">
<title>Node19</title>
<g id="a_Node000019"><a xlink:title=" ">
<polygon fill="#e0e0e0" stroke="#999999" points="238.25,-19.25 191.5,-19.25 191.5,0 238.25,0 238.25,-19.25"/>
<text text-anchor="middle" x="214.88" y="-4.8" font-family="Helvetica,sans-Serif" font-size="11.00">cstdint</text>
</a>
</g>
</g>
<!-- Node17&#45;&gt;Node19 -->
<g id="edge18_Node000017_Node000019" class="edge">
<title>Node17&#45;&gt;Node19</title>
<g id="a_edge18_Node000017_Node000019"><a xlink:title=" ">
<path fill="none" stroke="#63b8ff" d="M264.07,-60.56C255.46,-51.83 242.16,-38.32 231.55,-27.55"/>
<polygon fill="#63b8ff" stroke="#63b8ff" points="234.34,-25.4 224.83,-20.73 229.35,-30.31 234.34,-25.4"/>
</a>
</g>
</g>
<!-- Node20 -->
<g id="Node000020" class="node">
<title>Node20</title>
<g id="a_Node000020"><a xlink:title=" ">
<polygon fill="#e0e0e0" stroke="#999999" points="309.62,-19.25 256.12,-19.25 256.12,0 309.62,0 309.62,-19.25"/>
<text text-anchor="middle" x="282.88" y="-4.8" font-family="Helvetica,sans-Serif" font-size="11.00">optional</text>
</a>
</g>
</g>
<!-- Node17&#45;&gt;Node20 -->
<g id="edge19_Node000017_Node000020" class="edge">
<title>Node17&#45;&gt;Node20</title>
<g id="a_edge19_Node000017_Node000020"><a xlink:title=" ">
<path fill="none" stroke="#63b8ff" d="M274.39,-60.56C275.73,-52.69 277.72,-40.95 279.44,-30.82"/>
<polygon fill="#63b8ff" stroke="#63b8ff" points="282.86,-31.59 281.09,-21.14 275.96,-30.42 282.86,-31.59"/>
</a>
</g>
</g>
<!-- Node21&#45;&gt;Node10 -->
<g id="edge23_Node000021_Node000010" class="edge">
<title>Node21&#45;&gt;Node10</title>
<g id="a_edge23_Node000021_Node000010"><a xlink:title=" ">
<path fill="none" stroke="#63b8ff" d="M604.83,-127.03C588.49,-116.6 561.25,-99.2 541.61,-86.65"/>
<polygon fill="#63b8ff" stroke="#63b8ff" points="543.71,-83.85 533.4,-81.41 539.94,-89.75 543.71,-83.85"/>
</a>
</g>
</g>
<!-- Node21&#45;&gt;Node12 -->
<g id="edge26_Node000021_Node000012" class="edge">
<title>Node21&#45;&gt;Node12</title>
<g id="a_edge26_Node000021_Node000012"><a xlink:title=" ">
<path fill="none" stroke="#63b8ff" d="M641.03,-126.93C672.92,-112.61 725.46,-83.48 701.88,-55.25 677.03,-25.52 567.53,-15.56 502.96,-12.25"/>
<polygon fill="#63b8ff" stroke="#63b8ff" points="503.51,-8.77 493.36,-11.79 503.18,-15.76 503.51,-8.77"/>
</a>
</g>
</g>
<!-- Node22 -->
<g id="Node000022" class="node">
<title>Node22</title>
<g id="a_Node000022"><a xlink:title=" ">
<polygon fill="#e0e0e0" stroke="#999999" points="803,-80.12 748.75,-80.12 748.75,-60.88 803,-60.88 803,-80.12"/>
<text text-anchor="middle" x="775.88" y="-65.67" font-family="Helvetica,sans-Serif" font-size="11.00">sstream</text>
</a>
</g>
</g>
<!-- Node21&#45;&gt;Node22 -->
<g id="edge24_Node000021_Node000022" class="edge">
<title>Node21&#45;&gt;Node22</title>
<g id="a_edge24_Node000021_Node000022"><a xlink:title=" ">
<path fill="none" stroke="#63b8ff" d="M641.04,-126.9C667.69,-115.95 712.64,-97.48 743.26,-84.9"/>
<polygon fill="#63b8ff" stroke="#63b8ff" points="744.51,-88.17 752.43,-81.13 741.85,-81.7 744.51,-88.17"/>
</a>
</g>
</g>
<!-- Node23 -->
<g id="Node000023" class="node">
<title>Node23</title>
<g id="a_Node000023"><a xlink:title=" ">
<polygon fill="#e0e0e0" stroke="#999999" points="617.25,-80.12 570.5,-80.12 570.5,-60.88 617.25,-60.88 617.25,-80.12"/>
<text text-anchor="middle" x="593.88" y="-65.67" font-family="Helvetica,sans-Serif" font-size="11.00">iosfwd</text>
</a>
</g>
</g>
<!-- Node21&#45;&gt;Node23 -->
<g id="edge25_Node000021_Node000023" class="edge">
<title>Node21&#45;&gt;Node23</title>
<g id="a_edge25_Node000021_Node000023"><a xlink:title=" ">
<path fill="none" stroke="#63b8ff" d="M615.4,-127.03C611.78,-117.69 606,-102.78 601.34,-90.76"/>
<polygon fill="#63b8ff" stroke="#63b8ff" points="604.75,-89.86 597.87,-81.8 598.22,-92.39 604.75,-89.86"/>
</a>
</g>
</g>
<!-- Node24&#45;&gt;Node8 -->
<g id="edge31_Node000024_Node000008" class="edge">
<title>Node24&#45;&gt;Node8</title>
<g id="a_edge31_Node000024_Node000008"><a xlink:title=" ">
<path fill="none" stroke="#63b8ff" d="M625.76,-187.8C596.05,-177.86 548.17,-161.85 514.75,-150.67"/>
<polygon fill="#63b8ff" stroke="#63b8ff" points="516.05,-147.41 505.46,-147.56 513.83,-154.05 516.05,-147.41"/>
</a>
</g>
</g>
<!-- Node24&#45;&gt;Node11 -->
<g id="edge29_Node000024_Node000011" class="edge">
<title>Node24&#45;&gt;Node11</title>
<g id="a_edge29_Node000024_Node000011"><a xlink:title=" ">
<path fill="none" stroke="#63b8ff" d="M665.49,-187.89C675.58,-179.86 688.99,-167.08 694.88,-152.25 703.4,-130.75 690.45,-105.89 678.77,-89.49"/>
<polygon fill="#63b8ff" stroke="#63b8ff" points="681.65,-87.5 672.79,-81.69 676.09,-91.76 681.65,-87.5"/>
</a>
</g>
</g>
<!-- Node24&#45;&gt;Node21 -->
<g id="edge32_Node000024_Node000021" class="edge">
<title>Node24&#45;&gt;Node21</title>
<g id="a_edge32_Node000024_Node000021"><a xlink:title=" ">
<path fill="none" stroke="#63b8ff" d="M647.71,-187.93C642.97,-179.72 635.79,-167.28 629.77,-156.87"/>
<polygon fill="#63b8ff" stroke="#63b8ff" points="632.88,-155.25 624.84,-148.34 626.81,-158.75 632.88,-155.25"/>
</a>
</g>
</g>
<!-- Node25 -->
<g id="Node000025" class="node">
<title>Node25</title>
<g id="a_Node000025"><a xlink:title=" ">
<polygon fill="#e0e0e0" stroke="#999999" points="797.38,-146.62 742.38,-146.62 742.38,-127.38 797.38,-127.38 797.38,-146.62"/>
<text text-anchor="middle" x="769.88" y="-132.18" font-family="Helvetica,sans-Serif" font-size="11.00">memory</text>
</a>
</g>
</g>
<!-- Node24&#45;&gt;Node25 -->
<g id="edge28_Node000024_Node000025" class="edge">
<title>Node24&#45;&gt;Node25</title>
<g id="a_edge28_Node000024_Node000025"><a xlink:title=" ">
<path fill="none" stroke="#63b8ff" d="M670.9,-187.8C689.85,-178.27 719.91,-163.14 741.94,-152.06"/>
<polygon fill="#63b8ff" stroke="#63b8ff" points="743.31,-155.29 750.67,-147.66 740.16,-149.03 743.31,-155.29"/>
</a>
</g>
</g>
<!-- Node26 -->
<g id="Node000026" class="node">
<title>Node26</title>
<g id="a_Node000026"><a xlink:title=" ">
<polygon fill="#e0e0e0" stroke="#999999" points="944.5,-152.25 815.25,-152.25 815.25,-121.75 944.5,-121.75 944.5,-152.25"/>
<text text-anchor="start" x="823.25" y="-137.8" font-family="Helvetica,sans-Serif" font-size="11.00">experimental/propagate</text>
<text text-anchor="middle" x="879.88" y="-126.55" font-family="Helvetica,sans-Serif" font-size="11.00">_const</text>
</a>
</g>
</g>
<!-- Node24&#45;&gt;Node26 -->
<g id="edge30_Node000024_Node000026" class="edge">
<title>Node24&#45;&gt;Node26</title>
<g id="a_edge30_Node000024_Node000026"><a xlink:title=" ">
<path fill="none" stroke="#63b8ff" d="M687.85,-187.8C720.88,-179.24 771.33,-166.15 812.23,-155.54"/>
<polygon fill="#63b8ff" stroke="#63b8ff" points="812.95,-158.97 821.75,-153.07 811.19,-152.2 812.95,-158.97"/>
</a>
</g>
</g>
</g>
</svg>

<g id="navigator" transform="translate(0 0)" fill="#404254">
  <rect fill="#f2f5e9" fill-opacity="0.5" stroke="#606060" stroke-width=".5" x="0" y="0" width="60" height="60"/>
  <use id="zoomplus" xlink:href="#zoomPlus" x="17" y="9" onmousedown="handleZoom(evt,'in')"/>
  <use id="zoomminus" xlink:href="#zoomMin" x="42" y="9" onmousedown="handleZoom(evt,'out')"/>
  <use id="reset" xlink:href="#resetDef" x="30" y="36" onmousedown="handleReset()"/>
   <use id="arrowup" xlink:href="#arrowUp" x="0" y="0" onmousedown="handlePan(0,-1)"/>
  <use id="arrowright" xlink:href="#arrowRight" x="0" y="0" onmousedown="handlePan(1,0)"/>
  <use id="arrowdown" xlink:href="#arrowDown" x="0" y="0" onmousedown="handlePan(0,1)"/>
  <use id="arrowleft" xlink:href="#arrowLeft" x="0" y="0" onmousedown="handlePan(-1,0)"/>
</g>
<svg viewBox="0 0 15 15" width="100%" height="30px" preserveAspectRatio="xMaxYMin meet">
 <g id="arrow_out" transform="scale(0.3 0.3)">
  <a xlink:href="color_8h__incl_org.svg" target="_base">
   <rect id="button" ry="5" rx="5" y="6" x="6" height="38" width="38"
        fill="#f2f5e9" fill-opacity="0.5" stroke="#606060" stroke-width="1.0"/>
   <path id="arrow"
     d="M 11.500037,31.436501 C 11.940474,20.09759 22.043105,11.32322 32.158766,21.979434 L 37.068811,17.246167 C 37.068811,17.246167 37.088388,32 37.088388,32 L 22.160133,31.978069 C 22.160133,31.978069 26.997745,27.140456 26.997745,27.140456 C 18.528582,18.264221 13.291696,25.230495 11.500037,31.436501 z"
     style="fill:#404040;"/>
  </a>
 </g>
</svg>

<style type='text/css'>
<![CDATA[
[data-mouse-over-selected='false'] { opacity: 0.7; }
[data-mouse-over-selected='true']  { opacity: 1.0; }
]]>
</style>
<script type="application/ecmascript"><![CDATA[
document.addEventListener('DOMContentLoaded', (event) => {
  highlightEdges();
  highlightAdjacentNodes();
});
]]></script>
</svg>
