<?xml version="1.0" encoding="UTF-8" standalone="no"?>
<!DOCTYPE svg PUBLIC "-//W3C//DTD SVG 1.1//EN"
 "http://www.w3.org/Graphics/SVG/1.1/DTD/svg11.dtd">
<!-- Generated by graphviz version 10.0.1 (0)
 -->
<!-- Title: color.h Pages: 1 -->
<svg width="1476pt" height="448pt"
 viewBox="0.00 0.00 1476.48 447.75" xmlns="http://www.w3.org/2000/svg" xmlns:xlink="http://www.w3.org/1999/xlink">
<g id="graph0" class="graph" transform="scale(1 1) rotate(0) translate(4 443.75)">
<title>color.h</title>
<!-- Node1 -->
<g id="Node000001" class="node">
<title>Node1</title>
<g id="a_Node000001"><a xlink:title="Class representing a color.">
<polygon fill="#999999" stroke="#666666" points="498.73,-439.75 451.23,-439.75 451.23,-420.5 498.73,-420.5 498.73,-439.75"/>
<text text-anchor="middle" x="474.98" y="-425.3" font-family="Helvetica,sans-Serif" font-size="11.00">color.h</text>
</a>
</g>
</g>
<!-- Node2 -->
<g id="Node000002" class="node">
<title>Node2</title>
<g id="a_Node000002"><a xlink:title=" ">
<polygon fill="#e0e0e0" stroke="#999999" points="95.36,-384.5 54.61,-384.5 54.61,-365.25 95.36,-365.25 95.36,-384.5"/>
<text text-anchor="middle" x="74.98" y="-370.05" font-family="Helvetica,sans-Serif" font-size="11.00">array</text>
</a>
</g>
</g>
<!-- Node1&#45;&gt;Node2 -->
<g id="edge1_Node000001_Node000002" class="edge">
<title>Node1&#45;&gt;Node2</title>
<g id="a_edge1_Node000001_Node000002"><a xlink:title=" ">
<path fill="none" stroke="#63b8ff" d="M450.84,-427.25C392.01,-422.45 236.71,-408.39 108.98,-384.5 108.31,-384.37 107.63,-384.24 106.94,-384.11"/>
<polygon fill="#63b8ff" stroke="#63b8ff" points="107.75,-380.7 97.22,-381.92 106.21,-387.53 107.75,-380.7"/>
</a>
</g>
</g>
<!-- Node3 -->
<g id="Node000003" class="node">
<title>Node3</title>
<g id="a_Node000003"><a xlink:href="math_8h_source.html" target="_top" xlink:title=" ">
<polygon fill="white" stroke="#666666" points="1087.48,-201.88 978.48,-201.88 978.48,-182.62 1087.48,-182.62 1087.48,-201.88"/>
<text text-anchor="middle" x="1032.98" y="-187.43" font-family="Helvetica,sans-Serif" font-size="11.00">floppy/detail/math.h</text>
</a>
</g>
</g>
<!-- Node1&#45;&gt;Node3 -->
<g id="edge2_Node000001_Node000003" class="edge">
<title>Node1&#45;&gt;Node3</title>
<g id="a_edge2_Node000001_Node000003"><a xlink:title=" ">
<path fill="none" stroke="#63b8ff" d="M499.16,-426.59C575.59,-417.5 815.86,-380.56 967.98,-262.75 987.7,-247.48 1006.76,-226.06 1019.09,-211.04"/>
<polygon fill="#63b8ff" stroke="#63b8ff" points="1021.68,-213.41 1025.21,-203.41 1016.22,-209.03 1021.68,-213.41"/>
</a>
</g>
</g>
<!-- Node22 -->
<g id="Node000022" class="node">
<title>Node22</title>
<g id="a_Node000022"><a xlink:href="formatters_8h_source.html" target="_top" xlink:title=" ">
<polygon fill="white" stroke="#666666" points="170.86,-141 37.11,-141 37.11,-121.75 170.86,-121.75 170.86,-141"/>
<text text-anchor="middle" x="103.98" y="-126.55" font-family="Helvetica,sans-Serif" font-size="11.00">floppy/detail/formatters.h</text>
</a>
</g>
</g>
<!-- Node1&#45;&gt;Node22 -->
<g id="edge23_Node000001_Node000022" class="edge">
<title>Node1&#45;&gt;Node22</title>
<g id="a_edge23_Node000001_Node000022"><a xlink:title=" ">
<path fill="none" stroke="#63b8ff" d="M450.79,-426.59C371.26,-417.62 122.98,-384.06 122.98,-315 122.98,-315 122.98,-315 122.98,-252.12 122.98,-216.62 114.73,-175.91 109.11,-152.27"/>
<polygon fill="#63b8ff" stroke="#63b8ff" points="112.56,-151.64 106.75,-142.78 105.76,-153.33 112.56,-151.64"/>
</a>
</g>
</g>
<!-- Node25 -->
<g id="Node000025" class="node">
<title>Node25</title>
<g id="a_Node000025"><a xlink:href="traits_8h_source.html" target="_top" xlink:title=" ">
<polygon fill="white" stroke="#666666" points="514.86,-384.5 435.11,-384.5 435.11,-365.25 514.86,-365.25 514.86,-384.5"/>
<text text-anchor="middle" x="474.98" y="-370.05" font-family="Helvetica,sans-Serif" font-size="11.00">floppy/traits.h</text>
</a>
</g>
</g>
<!-- Node1&#45;&gt;Node25 -->
<g id="edge28_Node000001_Node000025" class="edge">
<title>Node1&#45;&gt;Node25</title>
<g id="a_edge28_Node000001_Node000025"><a xlink:title=" ">
<path fill="none" stroke="#63b8ff" d="M474.98,-420.33C474.98,-413.82 474.98,-404.67 474.98,-396.37"/>
<polygon fill="#63b8ff" stroke="#63b8ff" points="478.48,-396.37 474.98,-386.37 471.48,-396.37 478.48,-396.37"/>
</a>
</g>
</g>
<!-- Node39 -->
<g id="Node000039" class="node">
<title>Node39</title>
<g id="a_Node000039"><a xlink:title=" ">
<polygon fill="#e0e0e0" stroke="#999999" points="1304.73,-384.5 1251.23,-384.5 1251.23,-365.25 1304.73,-365.25 1304.73,-384.5"/>
<text text-anchor="middle" x="1277.98" y="-370.05" font-family="Helvetica,sans-Serif" font-size="11.00">qcolor.h</text>
</a>
</g>
</g>
<!-- Node1&#45;&gt;Node39 -->
<g id="edge67_Node000001_Node000039" class="edge">
<title>Node1&#45;&gt;Node39</title>
<g id="a_edge67_Node000001_Node000039"><a xlink:title=" ">
<path fill="none" stroke="#63b8ff" d="M499.13,-429.02C593.76,-428.31 948.34,-423.09 1236.98,-384.5 1237.82,-384.39 1238.67,-384.27 1239.52,-384.14"/>
<polygon fill="#63b8ff" stroke="#63b8ff" points="1239.99,-387.61 1249.24,-382.46 1238.79,-380.72 1239.99,-387.61"/>
</a>
</g>
</g>
<!-- Node4 -->
<g id="Node000004" class="node">
<title>Node4</title>
<g id="a_Node000004"><a xlink:title=" ">
<polygon fill="#e0e0e0" stroke="#999999" points="1140.61,-141 1095.36,-141 1095.36,-121.75 1140.61,-121.75 1140.61,-141"/>
<text text-anchor="middle" x="1117.98" y="-126.55" font-family="Helvetica,sans-Serif" font-size="11.00">cmath</text>
</a>
</g>
</g>
<!-- Node3&#45;&gt;Node4 -->
<g id="edge3_Node000003_Node000004" class="edge">
<title>Node3&#45;&gt;Node4</title>
<g id="a_edge3_Node000003_Node000004"><a xlink:title=" ">
<path fill="none" stroke="#63b8ff" d="M1045.89,-182.31C1059.12,-173.14 1079.95,-158.72 1095.82,-147.73"/>
<polygon fill="#63b8ff" stroke="#63b8ff" points="1097.48,-150.83 1103.71,-142.26 1093.49,-145.08 1097.48,-150.83"/>
</a>
</g>
</g>
<!-- Node5 -->
<g id="Node000005" class="node">
<title>Node5</title>
<g id="a_Node000005"><a xlink:title=" ">
<polygon fill="#e0e0e0" stroke="#999999" points="1295.98,-80.12 1255.98,-80.12 1255.98,-60.88 1295.98,-60.88 1295.98,-80.12"/>
<text text-anchor="middle" x="1275.98" y="-65.67" font-family="Helvetica,sans-Serif" font-size="11.00">limits</text>
</a>
</g>
</g>
<!-- Node3&#45;&gt;Node5 -->
<g id="edge4_Node000003_Node000005" class="edge">
<title>Node3&#45;&gt;Node5</title>
<g id="a_edge4_Node000003_Node000005"><a xlink:title=" ">
<path fill="none" stroke="#63b8ff" d="M1087.94,-190.1C1165.11,-187.19 1299.6,-176.95 1329.98,-141 1345.39,-122.76 1321.87,-100.9 1301.21,-86.63"/>
<polygon fill="#63b8ff" stroke="#63b8ff" points="1303.32,-83.83 1293.03,-81.29 1299.49,-89.69 1303.32,-83.83"/>
</a>
</g>
</g>
<!-- Node6 -->
<g id="Node000006" class="node">
<title>Node6</title>
<g id="a_Node000006"><a xlink:title=" ">
<polygon fill="#e0e0e0" stroke="#999999" points="1076.98,-141 1018.98,-141 1018.98,-121.75 1076.98,-121.75 1076.98,-141"/>
<text text-anchor="middle" x="1047.98" y="-126.55" font-family="Helvetica,sans-Serif" font-size="11.00">numbers</text>
</a>
</g>
</g>
<!-- Node3&#45;&gt;Node6 -->
<g id="edge5_Node000003_Node000006" class="edge">
<title>Node3&#45;&gt;Node6</title>
<g id="a_edge5_Node000003_Node000006"><a xlink:title=" ">
<path fill="none" stroke="#63b8ff" d="M1035.26,-182.31C1037.29,-174.35 1040.32,-162.44 1042.92,-152.24"/>
<polygon fill="#63b8ff" stroke="#63b8ff" points="1046.23,-153.42 1045.31,-142.87 1039.45,-151.69 1046.23,-153.42"/>
</a>
</g>
</g>
<!-- Node7 -->
<g id="Node000007" class="node">
<title>Node7</title>
<g id="a_Node000007"><a xlink:title=" ">
<polygon fill="#e0e0e0" stroke="#999999" points="551.98,-141 493.98,-141 493.98,-121.75 551.98,-121.75 551.98,-141"/>
<text text-anchor="middle" x="522.98" y="-126.55" font-family="Helvetica,sans-Serif" font-size="11.00">compare</text>
</a>
</g>
</g>
<!-- Node3&#45;&gt;Node7 -->
<g id="edge6_Node000003_Node000007" class="edge">
<title>Node3&#45;&gt;Node7</title>
<g id="a_edge6_Node000003_Node000007"><a xlink:title=" ">
<path fill="none" stroke="#63b8ff" d="M978.4,-184.95C875.38,-173.06 654.45,-147.55 563.44,-137.05"/>
<polygon fill="#63b8ff" stroke="#63b8ff" points="564.08,-133.6 553.74,-135.93 563.28,-140.55 564.08,-133.6"/>
</a>
</g>
</g>
<!-- Node8 -->
<g id="Node000008" class="node">
<title>Node8</title>
<g id="a_Node000008"><a xlink:href="export_8h_source.html" target="_top" xlink:title=" ">
<polygon fill="white" stroke="#666666" points="504.48,-80.12 389.48,-80.12 389.48,-60.88 504.48,-60.88 504.48,-80.12"/>
<text text-anchor="middle" x="446.98" y="-65.67" font-family="Helvetica,sans-Serif" font-size="11.00">floppy/detail/export.h</text>
</a>
</g>
</g>
<!-- Node3&#45;&gt;Node8 -->
<g id="edge7_Node000003_Node000008" class="edge">
<title>Node3&#45;&gt;Node8</title>
<g id="a_edge7_Node000003_Node000008"><a xlink:title=" ">
<path fill="none" stroke="#63b8ff" d="M1028.32,-182.54C1019.58,-167.2 999.14,-135.64 971.98,-121.75 894.02,-81.86 639.47,-73.53 515.74,-71.86"/>
<polygon fill="#63b8ff" stroke="#63b8ff" points="516.09,-68.37 506.05,-71.74 516.01,-75.37 516.09,-68.37"/>
</a>
</g>
</g>
<!-- Node13 -->
<g id="Node000013" class="node">
<title>Node13</title>
<g id="a_Node000013"><a xlink:href="concepts_8h_source.html" target="_top" xlink:title=" ">
<polygon fill="white" stroke="#666666" points="962.86,-141 835.11,-141 835.11,-121.75 962.86,-121.75 962.86,-141"/>
<text text-anchor="middle" x="898.98" y="-126.55" font-family="Helvetica,sans-Serif" font-size="11.00">floppy/detail/concepts.h</text>
</a>
</g>
</g>
<!-- Node3&#45;&gt;Node13 -->
<g id="edge12_Node000003_Node000013" class="edge">
<title>Node3&#45;&gt;Node13</title>
<g id="a_edge12_Node000003_Node000013"><a xlink:title=" ">
<path fill="none" stroke="#63b8ff" d="M1012.34,-182.18C990.34,-172.51 955.26,-157.1 929.95,-145.98"/>
<polygon fill="#63b8ff" stroke="#63b8ff" points="931.38,-142.79 920.81,-141.97 928.56,-149.19 931.38,-142.79"/>
</a>
</g>
</g>
<!-- Node9 -->
<g id="Node000009" class="node">
<title>Node9</title>
<g id="a_Node000009"><a xlink:title=" ">
<polygon fill="#e0e0e0" stroke="#999999" points="468.11,-19.25 425.86,-19.25 425.86,0 468.11,0 468.11,-19.25"/>
<text text-anchor="middle" x="446.98" y="-4.8" font-family="Helvetica,sans-Serif" font-size="11.00">string</text>
</a>
</g>
</g>
<!-- Node8&#45;&gt;Node9 -->
<g id="edge8_Node000008_Node000009" class="edge">
<title>Node8&#45;&gt;Node9</title>
<g id="a_edge8_Node000008_Node000009"><a xlink:title=" ">
<path fill="none" stroke="#63b8ff" d="M446.98,-60.56C446.98,-52.78 446.98,-41.2 446.98,-31.16"/>
<polygon fill="#63b8ff" stroke="#63b8ff" points="450.48,-31.16 446.98,-21.16 443.48,-31.16 450.48,-31.16"/>
</a>
</g>
</g>
<!-- Node10 -->
<g id="Node000010" class="node">
<title>Node10</title>
<g id="a_Node000010"><a xlink:title=" ">
<polygon fill="#e0e0e0" stroke="#999999" points="84.98,-19.25 14.98,-19.25 14.98,0 84.98,0 84.98,-19.25"/>
<text text-anchor="middle" x="49.98" y="-4.8" font-family="Helvetica,sans-Serif" font-size="11.00">string_view</text>
</a>
</g>
</g>
<!-- Node8&#45;&gt;Node10 -->
<g id="edge9_Node000008_Node000010" class="edge">
<title>Node8&#45;&gt;Node10</title>
<g id="a_edge9_Node000008_Node000010"><a xlink:title=" ">
<path fill="none" stroke="#63b8ff" d="M389.25,-60.94C310.05,-49.19 169.24,-28.31 96.44,-17.51"/>
<polygon fill="#63b8ff" stroke="#63b8ff" points="97.26,-14.1 86.86,-16.09 96.24,-21.02 97.26,-14.1"/>
</a>
</g>
</g>
<!-- Node11 -->
<g id="Node000011" class="node">
<title>Node11</title>
<g id="a_Node000011"><a xlink:title=" ">
<polygon fill="#e0e0e0" stroke="#999999" points="325.61,-19.25 268.36,-19.25 268.36,0 325.61,0 325.61,-19.25"/>
<text text-anchor="middle" x="296.98" y="-4.8" font-family="Helvetica,sans-Serif" font-size="11.00">iostream</text>
</a>
</g>
</g>
<!-- Node8&#45;&gt;Node11 -->
<g id="edge10_Node000008_Node000011" class="edge">
<title>Node8&#45;&gt;Node11</title>
<g id="a_edge10_Node000008_Node000011"><a xlink:title=" ">
<path fill="none" stroke="#63b8ff" d="M423.87,-60.43C398.92,-50.63 358.92,-34.94 330.51,-23.79"/>
<polygon fill="#63b8ff" stroke="#63b8ff" points="331.87,-20.56 321.28,-20.16 329.31,-27.07 331.87,-20.56"/>
</a>
</g>
</g>
<!-- Node12 -->
<g id="Node000012" class="node">
<title>Node12</title>
<g id="a_Node000012"><a xlink:title=" ">
<polygon fill="#e0e0e0" stroke="#999999" points="616.86,-19.25 543.11,-19.25 543.11,0 616.86,0 616.86,-19.25"/>
<text text-anchor="middle" x="579.98" y="-4.8" font-family="Helvetica,sans-Serif" font-size="11.00">fmt/format.h</text>
</a>
</g>
</g>
<!-- Node8&#45;&gt;Node12 -->
<g id="edge11_Node000008_Node000012" class="edge">
<title>Node8&#45;&gt;Node12</title>
<g id="a_edge11_Node000008_Node000012"><a xlink:title=" ">
<path fill="none" stroke="#63b8ff" d="M467.47,-60.43C489.31,-50.76 524.12,-35.35 549.24,-24.23"/>
<polygon fill="#63b8ff" stroke="#63b8ff" points="550.58,-27.47 558.3,-20.22 547.74,-21.07 550.58,-27.47"/>
</a>
</g>
</g>
<!-- Node14 -->
<g id="Node000014" class="node">
<title>Node14</title>
<g id="a_Node000014"><a xlink:title=" ">
<polygon fill="#e0e0e0" stroke="#999999" points="923.36,-80.12 864.61,-80.12 864.61,-60.88 923.36,-60.88 923.36,-80.12"/>
<text text-anchor="middle" x="893.98" y="-65.67" font-family="Helvetica,sans-Serif" font-size="11.00">concepts</text>
</a>
</g>
</g>
<!-- Node13&#45;&gt;Node14 -->
<g id="edge13_Node000013_Node000014" class="edge">
<title>Node13&#45;&gt;Node14</title>
<g id="a_edge13_Node000013_Node000014"><a xlink:title=" ">
<path fill="none" stroke="#63b8ff" d="M898.22,-121.43C897.55,-113.57 896.56,-101.82 895.7,-91.7"/>
<polygon fill="#63b8ff" stroke="#63b8ff" points="899.21,-91.7 894.88,-82.03 892.24,-92.29 899.21,-91.7"/>
</a>
</g>
</g>
<!-- Node15 -->
<g id="Node000015" class="node">
<title>Node15</title>
<g id="a_Node000015"><a xlink:href="type__traits_8h_source.html" target="_top" xlink:title=" ">
<polygon fill="white" stroke="#666666" points="1190.11,-85.75 1093.86,-85.75 1093.86,-55.25 1190.11,-55.25 1190.11,-85.75"/>
<text text-anchor="start" x="1101.86" y="-71.3" font-family="Helvetica,sans-Serif" font-size="11.00">floppy/detail/type</text>
<text text-anchor="middle" x="1141.98" y="-60.05" font-family="Helvetica,sans-Serif" font-size="11.00">_traits.h</text>
</a>
</g>
</g>
<!-- Node13&#45;&gt;Node15 -->
<g id="edge14_Node000013_Node000015" class="edge">
<title>Node13&#45;&gt;Node15</title>
<g id="a_edge14_Node000013_Node000015"><a xlink:title=" ">
<path fill="none" stroke="#63b8ff" d="M936.42,-121.3C975.41,-111.86 1037.05,-96.92 1082.67,-85.87"/>
<polygon fill="#63b8ff" stroke="#63b8ff" points="1083.24,-89.33 1092.14,-83.58 1081.59,-82.53 1083.24,-89.33"/>
</a>
</g>
</g>
<!-- Node17 -->
<g id="Node000017" class="node">
<title>Node17</title>
<g id="a_Node000017"><a xlink:href="types_8h_source.html" target="_top" xlink:title=" ">
<polygon fill="white" stroke="#666666" points="1052.23,-80.12 941.73,-80.12 941.73,-60.88 1052.23,-60.88 1052.23,-80.12"/>
<text text-anchor="middle" x="996.98" y="-65.67" font-family="Helvetica,sans-Serif" font-size="11.00">floppy/detail/types.h</text>
</a>
</g>
</g>
<!-- Node13&#45;&gt;Node17 -->
<g id="edge16_Node000013_Node000017" class="edge">
<title>Node13&#45;&gt;Node17</title>
<g id="a_edge16_Node000013_Node000017"><a xlink:title=" ">
<path fill="none" stroke="#63b8ff" d="M913.87,-121.43C929.34,-112.14 953.81,-97.44 972.2,-86.39"/>
<polygon fill="#63b8ff" stroke="#63b8ff" points="973.89,-89.46 980.66,-81.31 970.29,-83.46 973.89,-89.46"/>
</a>
</g>
</g>
<!-- Node16 -->
<g id="Node000016" class="node">
<title>Node16</title>
<g id="a_Node000016"><a xlink:title=" ">
<polygon fill="#e0e0e0" stroke="#999999" points="1174.73,-19.25 1109.23,-19.25 1109.23,0 1174.73,0 1174.73,-19.25"/>
<text text-anchor="middle" x="1141.98" y="-4.8" font-family="Helvetica,sans-Serif" font-size="11.00">type_traits</text>
</a>
</g>
</g>
<!-- Node15&#45;&gt;Node16 -->
<g id="edge15_Node000015_Node000016" class="edge">
<title>Node15&#45;&gt;Node16</title>
<g id="a_edge15_Node000015_Node000016"><a xlink:title=" ">
<path fill="none" stroke="#63b8ff" d="M1141.98,-54.95C1141.98,-47.71 1141.98,-38.84 1141.98,-30.94"/>
<polygon fill="#63b8ff" stroke="#63b8ff" points="1145.48,-31.21 1141.98,-21.21 1138.48,-31.21 1145.48,-31.21"/>
</a>
</g>
</g>
<!-- Node17&#45;&gt;Node12 -->
<g id="edge21_Node000017_Node000012" class="edge">
<title>Node17&#45;&gt;Node12</title>
<g id="a_edge21_Node000017_Node000012"><a xlink:title=" ">
<path fill="none" stroke="#63b8ff" d="M958.25,-60.41C949.63,-58.56 940.52,-56.72 931.98,-55.25 824.1,-36.63 696.37,-22.35 628.33,-15.37"/>
<polygon fill="#63b8ff" stroke="#63b8ff" points="628.95,-11.91 618.65,-14.38 628.24,-18.88 628.95,-11.91"/>
</a>
</g>
</g>
<!-- Node17&#45;&gt;Node16 -->
<g id="edge20_Node000017_Node000016" class="edge">
<title>Node17&#45;&gt;Node16</title>
<g id="a_edge20_Node000017_Node000016"><a xlink:title=" ">
<path fill="none" stroke="#63b8ff" d="M1019.32,-60.43C1043.34,-50.68 1081.76,-35.08 1109.21,-23.93"/>
<polygon fill="#63b8ff" stroke="#63b8ff" points="1110.5,-27.18 1118.45,-20.18 1107.87,-20.7 1110.5,-27.18"/>
</a>
</g>
</g>
<!-- Node18 -->
<g id="Node000018" class="node">
<title>Node18</title>
<g id="a_Node000018"><a xlink:title=" ">
<polygon fill="#e0e0e0" stroke="#999999" points="1019.23,-19.25 968.73,-19.25 968.73,0 1019.23,0 1019.23,-19.25"/>
<text text-anchor="middle" x="993.98" y="-4.8" font-family="Helvetica,sans-Serif" font-size="11.00">cstddef</text>
</a>
</g>
</g>
<!-- Node17&#45;&gt;Node18 -->
<g id="edge17_Node000017_Node000018" class="edge">
<title>Node17&#45;&gt;Node18</title>
<g id="a_edge17_Node000017_Node000018"><a xlink:title=" ">
<path fill="none" stroke="#63b8ff" d="M996.53,-60.56C996.13,-52.69 995.53,-40.95 995.01,-30.82"/>
<polygon fill="#63b8ff" stroke="#63b8ff" points="998.52,-30.97 994.52,-21.16 991.53,-31.33 998.52,-30.97"/>
</a>
</g>
</g>
<!-- Node19 -->
<g id="Node000019" class="node">
<title>Node19</title>
<g id="a_Node000019"><a xlink:title=" ">
<polygon fill="#e0e0e0" stroke="#999999" points="833.36,-19.25 786.61,-19.25 786.61,0 833.36,0 833.36,-19.25"/>
<text text-anchor="middle" x="809.98" y="-4.8" font-family="Helvetica,sans-Serif" font-size="11.00">cstdint</text>
</a>
</g>
</g>
<!-- Node17&#45;&gt;Node19 -->
<g id="edge18_Node000017_Node000019" class="edge">
<title>Node17&#45;&gt;Node19</title>
<g id="a_edge18_Node000017_Node000019"><a xlink:title=" ">
<path fill="none" stroke="#63b8ff" d="M968.17,-60.43C934.89,-49.95 880.16,-32.72 844.6,-21.52"/>
<polygon fill="#63b8ff" stroke="#63b8ff" points="845.81,-18.24 835.22,-18.57 843.71,-24.91 845.81,-18.24"/>
</a>
</g>
</g>
<!-- Node20 -->
<g id="Node000020" class="node">
<title>Node20</title>
<g id="a_Node000020"><a xlink:title=" ">
<polygon fill="#e0e0e0" stroke="#999999" points="1090.73,-19.25 1037.23,-19.25 1037.23,0 1090.73,0 1090.73,-19.25"/>
<text text-anchor="middle" x="1063.98" y="-4.8" font-family="Helvetica,sans-Serif" font-size="11.00">optional</text>
</a>
</g>
</g>
<!-- Node17&#45;&gt;Node20 -->
<g id="edge19_Node000017_Node000020" class="edge">
<title>Node17&#45;&gt;Node20</title>
<g id="a_edge19_Node000017_Node000020"><a xlink:title=" ">
<path fill="none" stroke="#63b8ff" d="M1007.16,-60.56C1017.19,-51.74 1032.77,-38.05 1045.08,-27.23"/>
<polygon fill="#63b8ff" stroke="#63b8ff" points="1047.37,-29.88 1052.57,-20.65 1042.75,-24.62 1047.37,-29.88"/>
</a>
</g>
</g>
<!-- Node21 -->
<g id="Node000021" class="node">
<title>Node21</title>
<g id="a_Node000021"><a xlink:title=" ">
<polygon fill="#e0e0e0" stroke="#999999" points="950.36,-19.25 861.61,-19.25 861.61,0 950.36,0 950.36,-19.25"/>
<text text-anchor="middle" x="905.98" y="-4.8" font-family="Helvetica,sans-Serif" font-size="11.00">tl/expected.hpp</text>
</a>
</g>
</g>
<!-- Node17&#45;&gt;Node21 -->
<g id="edge22_Node000017_Node000021" class="edge">
<title>Node17&#45;&gt;Node21</title>
<g id="a_edge22_Node000017_Node000021"><a xlink:title=" ">
<path fill="none" stroke="#63b8ff" d="M983.16,-60.56C968.86,-51.31 946.28,-36.7 929.23,-25.67"/>
<polygon fill="#63b8ff" stroke="#63b8ff" points="931.5,-22.97 921.2,-20.47 927.7,-28.84 931.5,-22.97"/>
</a>
</g>
</g>
<!-- Node22&#45;&gt;Node10 -->
<g id="edge24_Node000022_Node000010" class="edge">
<title>Node22&#45;&gt;Node10</title>
<g id="a_edge24_Node000022_Node000010"><a xlink:title=" ">
<path fill="none" stroke="#63b8ff" d="M57.93,-121.33C38.11,-114.91 16.8,-104.04 4.98,-85.75 -2.37,-74.36 -0.23,-67.76 4.98,-55.25 9.63,-44.09 18.57,-34.3 27.27,-26.74"/>
<polygon fill="#63b8ff" stroke="#63b8ff" points="29.25,-29.65 34.87,-20.67 24.88,-24.18 29.25,-29.65"/>
</a>
</g>
</g>
<!-- Node22&#45;&gt;Node12 -->
<g id="edge27_Node000022_Node000012" class="edge">
<title>Node22&#45;&gt;Node12</title>
<g id="a_edge27_Node000022_Node000012"><a xlink:title=" ">
<path fill="none" stroke="#63b8ff" d="M135.44,-121.36C186.69,-106.77 291.5,-77.4 380.98,-55.25 432.24,-42.56 491.31,-29.51 531.69,-20.83"/>
<polygon fill="#63b8ff" stroke="#63b8ff" points="532.3,-24.28 541.34,-18.76 530.83,-17.43 532.3,-24.28"/>
</a>
</g>
</g>
<!-- Node23 -->
<g id="Node000023" class="node">
<title>Node23</title>
<g id="a_Node000023"><a xlink:title=" ">
<polygon fill="#e0e0e0" stroke="#999999" points="68.11,-80.12 13.86,-80.12 13.86,-60.88 68.11,-60.88 68.11,-80.12"/>
<text text-anchor="middle" x="40.98" y="-65.67" font-family="Helvetica,sans-Serif" font-size="11.00">sstream</text>
</a>
</g>
</g>
<!-- Node22&#45;&gt;Node23 -->
<g id="edge25_Node000022_Node000023" class="edge">
<title>Node22&#45;&gt;Node23</title>
<g id="a_edge25_Node000022_Node000023"><a xlink:title=" ">
<path fill="none" stroke="#63b8ff" d="M94.41,-121.43C84.98,-112.62 70.33,-98.93 58.75,-88.11"/>
<polygon fill="#63b8ff" stroke="#63b8ff" points="61.44,-85.83 51.75,-81.56 56.66,-90.94 61.44,-85.83"/>
</a>
</g>
</g>
<!-- Node24 -->
<g id="Node000024" class="node">
<title>Node24</title>
<g id="a_Node000024"><a xlink:title=" ">
<polygon fill="#e0e0e0" stroke="#999999" points="133.36,-80.12 86.61,-80.12 86.61,-60.88 133.36,-60.88 133.36,-80.12"/>
<text text-anchor="middle" x="109.98" y="-65.67" font-family="Helvetica,sans-Serif" font-size="11.00">iosfwd</text>
</a>
</g>
</g>
<!-- Node22&#45;&gt;Node24 -->
<g id="edge26_Node000022_Node000024" class="edge">
<title>Node22&#45;&gt;Node24</title>
<g id="a_edge26_Node000022_Node000024"><a xlink:title=" ">
<path fill="none" stroke="#63b8ff" d="M104.89,-121.43C105.69,-113.57 106.89,-101.82 107.92,-91.7"/>
<polygon fill="#63b8ff" stroke="#63b8ff" points="111.38,-92.34 108.91,-82.03 104.41,-91.63 111.38,-92.34"/>
</a>
</g>
</g>
<!-- Node25&#45;&gt;Node11 -->
<g id="edge29_Node000025_Node000011" class="edge">
<title>Node25&#45;&gt;Node11</title>
<g id="a_edge29_Node000025_Node000011"><a xlink:title=" ">
<path fill="none" stroke="#63b8ff" d="M434.85,-374.05C358.3,-372.06 198.98,-355.72 198.98,-254.12 198.98,-254.12 198.98,-254.12 198.98,-130.38 198.98,-84.24 243.09,-46.11 272.13,-26.01"/>
<polygon fill="#63b8ff" stroke="#63b8ff" points="274.02,-28.95 280.41,-20.5 270.14,-23.12 274.02,-28.95"/>
</a>
</g>
</g>
<!-- Node26 -->
<g id="Node000026" class="node">
<title>Node26</title>
<g id="a_Node000026"><a xlink:title=" ">
<polygon fill="#e0e0e0" stroke="#999999" points="539.61,-329.25 410.36,-329.25 410.36,-298.75 539.61,-298.75 539.61,-329.25"/>
<text text-anchor="start" x="418.36" y="-314.8" font-family="Helvetica,sans-Serif" font-size="11.00">experimental/propagate</text>
<text text-anchor="middle" x="474.98" y="-303.55" font-family="Helvetica,sans-Serif" font-size="11.00">_const</text>
</a>
</g>
</g>
<!-- Node25&#45;&gt;Node26 -->
<g id="edge30_Node000025_Node000026" class="edge">
<title>Node25&#45;&gt;Node26</title>
<g id="a_edge30_Node000025_Node000026"><a xlink:title=" ">
<path fill="none" stroke="#63b8ff" d="M474.98,-364.93C474.98,-358.48 474.98,-349.41 474.98,-340.76"/>
<polygon fill="#63b8ff" stroke="#63b8ff" points="478.48,-341.05 474.98,-331.05 471.48,-341.05 478.48,-341.05"/>
</a>
</g>
</g>
<!-- Node27 -->
<g id="Node000027" class="node">
<title>Node27</title>
<g id="a_Node000027"><a xlink:href="floppy_8h_source.html" target="_top" xlink:title=" ">
<polygon fill="white" stroke="#666666" points="836.48,-323.62 751.48,-323.62 751.48,-304.38 836.48,-304.38 836.48,-323.62"/>
<text text-anchor="middle" x="793.98" y="-309.18" font-family="Helvetica,sans-Serif" font-size="11.00">floppy/floppy.h</text>
</a>
</g>
</g>
<!-- Node25&#45;&gt;Node27 -->
<g id="edge31_Node000025_Node000027" class="edge">
<title>Node25&#45;&gt;Node27</title>
<g id="a_edge31_Node000025_Node000027"><a xlink:title=" ">
<path fill="none" stroke="#63b8ff" d="M515.06,-366.48C571.97,-355.97 676.33,-336.71 740.01,-324.96"/>
<polygon fill="#63b8ff" stroke="#63b8ff" points="740.33,-328.46 749.53,-323.2 739.06,-321.58 740.33,-328.46"/>
</a>
</g>
</g>
<!-- Node27&#45;&gt;Node3 -->
<g id="edge54_Node000027_Node000003" class="edge">
<title>Node27&#45;&gt;Node3</title>
<g id="a_edge54_Node000027_Node000003"><a xlink:title=" ">
<path fill="none" stroke="#63b8ff" d="M830.37,-303.88C860.72,-295.48 904.56,-281.49 939.98,-262.75 968.05,-247.9 996.79,-225.01 1014.75,-209.59"/>
<polygon fill="#63b8ff" stroke="#63b8ff" points="1016.73,-212.51 1021.96,-203.29 1012.12,-207.24 1016.73,-212.51"/>
</a>
</g>
</g>
<!-- Node27&#45;&gt;Node8 -->
<g id="edge52_Node000027_Node000008" class="edge">
<title>Node27&#45;&gt;Node8</title>
<g id="a_edge52_Node000027_Node000008"><a xlink:title=" ">
<path fill="none" stroke="#63b8ff" d="M751.07,-308.87C687.56,-300.58 568.38,-276.33 496.98,-207.5 464.33,-176.02 452.87,-121.41 448.95,-91.88"/>
<polygon fill="#63b8ff" stroke="#63b8ff" points="452.44,-91.61 447.83,-82.07 445.48,-92.4 452.44,-91.61"/>
</a>
</g>
</g>
<!-- Node27&#45;&gt;Node13 -->
<g id="edge43_Node000027_Node000013" class="edge">
<title>Node27&#45;&gt;Node13</title>
<g id="a_edge43_Node000027_Node000013"><a xlink:title=" ">
<path fill="none" stroke="#63b8ff" d="M806.64,-303.97C828.46,-287.58 872.68,-250.63 891.98,-207.5 899.76,-190.13 900.96,-168.27 900.55,-152.62"/>
<polygon fill="#63b8ff" stroke="#63b8ff" points="904.05,-152.47 900.01,-142.68 897.06,-152.85 904.05,-152.47"/>
</a>
</g>
</g>
<!-- Node27&#45;&gt;Node15 -->
<g id="edge65_Node000027_Node000015" class="edge">
<title>Node27&#45;&gt;Node15</title>
<g id="a_edge65_Node000027_Node000015"><a xlink:title=" ">
<path fill="none" stroke="#63b8ff" d="M836.77,-310.61C925.19,-305.17 1124.94,-290.18 1186.98,-262.75 1263.33,-229 1294.98,-216.78 1329.98,-141 1333.57,-133.23 1335.19,-128.54 1329.98,-121.75 1314.28,-101.3 1250.49,-87.38 1201.52,-79.46"/>
<polygon fill="#63b8ff" stroke="#63b8ff" points="1202.29,-76.04 1191.87,-77.96 1201.21,-82.96 1202.29,-76.04"/>
</a>
</g>
</g>
<!-- Node27&#45;&gt;Node17 -->
<g id="edge66_Node000027_Node000017" class="edge">
<title>Node27&#45;&gt;Node17</title>
<g id="a_edge66_Node000027_Node000017"><a xlink:title=" ">
<path fill="none" stroke="#63b8ff" d="M836.81,-309.95C921.42,-301.18 1105.68,-267.67 1149.98,-141 1152.81,-132.92 1155,-128.68 1149.98,-121.75 1138.42,-105.78 1093.13,-92.15 1054.81,-83.13"/>
<polygon fill="#63b8ff" stroke="#63b8ff" points="1055.71,-79.75 1045.18,-80.93 1054.15,-86.57 1055.71,-79.75"/>
</a>
</g>
</g>
<!-- Node27&#45;&gt;Node22 -->
<g id="edge53_Node000027_Node000022" class="edge">
<title>Node27&#45;&gt;Node22</title>
<g id="a_edge53_Node000027_Node000022"><a xlink:title=" ">
<path fill="none" stroke="#63b8ff" d="M751.18,-312.25C675.19,-309.95 512.34,-300.59 380.98,-262.75 282.66,-234.43 175.58,-174.98 128.5,-147.23"/>
<polygon fill="#63b8ff" stroke="#63b8ff" points="130.31,-144.23 119.93,-142.13 126.73,-150.25 130.31,-144.23"/>
</a>
</g>
</g>
<!-- Node28 -->
<g id="Node000028" class="node">
<title>Node28</title>
<g id="a_Node000028"><a xlink:href="backports_8h_source.html" target="_top" xlink:title=" ">
<polygon fill="white" stroke="#666666" points="860.11,-201.88 727.86,-201.88 727.86,-182.62 860.11,-182.62 860.11,-201.88"/>
<text text-anchor="middle" x="793.98" y="-187.43" font-family="Helvetica,sans-Serif" font-size="11.00">floppy/detail/backports.h</text>
</a>
</g>
</g>
<!-- Node27&#45;&gt;Node28 -->
<g id="edge32_Node000027_Node000028" class="edge">
<title>Node27&#45;&gt;Node28</title>
<g id="a_edge32_Node000027_Node000028"><a xlink:title=" ">
<path fill="none" stroke="#63b8ff" d="M793.98,-304C793.98,-284.93 793.98,-240.04 793.98,-213.64"/>
<polygon fill="#63b8ff" stroke="#63b8ff" points="797.48,-213.87 793.98,-203.87 790.48,-213.87 797.48,-213.87"/>
</a>
</g>
</g>
<!-- Node30 -->
<g id="Node000030" class="node">
<title>Node30</title>
<g id="a_Node000030"><a xlink:href="platform_8h_source.html" target="_top" xlink:title=" ">
<polygon fill="white" stroke="#666666" points="1320.98,-141 1196.98,-141 1196.98,-121.75 1320.98,-121.75 1320.98,-141"/>
<text text-anchor="middle" x="1258.98" y="-126.55" font-family="Helvetica,sans-Serif" font-size="11.00">floppy/detail/platform.h</text>
</a>
</g>
</g>
<!-- Node27&#45;&gt;Node30 -->
<g id="edge62_Node000027_Node000030" class="edge">
<title>Node27&#45;&gt;Node30</title>
<g id="a_edge62_Node000027_Node000030"><a xlink:title=" ">
<path fill="none" stroke="#63b8ff" d="M836.7,-311.24C921.33,-307.11 1106.78,-294.59 1160.98,-262.75 1205.81,-236.41 1236.75,-180.78 1250.66,-151.43"/>
<polygon fill="#63b8ff" stroke="#63b8ff" points="1253.71,-153.19 1254.67,-142.64 1247.34,-150.29 1253.71,-153.19"/>
</a>
</g>
</g>
<!-- Node31 -->
<g id="Node000031" class="node">
<title>Node31</title>
<g id="a_Node000031"><a xlink:href="predefs_8h_source.html" target="_top" xlink:title=" ">
<polygon fill="white" stroke="#666666" points="1468.48,-80.12 1347.48,-80.12 1347.48,-60.88 1468.48,-60.88 1468.48,-80.12"/>
<text text-anchor="middle" x="1407.98" y="-65.67" font-family="Helvetica,sans-Serif" font-size="11.00">floppy/detail/predefs.h</text>
</a>
</g>
</g>
<!-- Node27&#45;&gt;Node31 -->
<g id="edge63_Node000027_Node000031" class="edge">
<title>Node27&#45;&gt;Node31</title>
<g id="a_edge63_Node000027_Node000031"><a xlink:title=" ">
<path fill="none" stroke="#63b8ff" d="M836.82,-313.9C915.28,-314.26 1086.35,-309.08 1220.98,-262.75 1265.72,-247.36 1277.39,-239.78 1311.98,-207.5 1350.24,-171.8 1382.4,-118.57 1397.95,-90.46"/>
<polygon fill="#63b8ff" stroke="#63b8ff" points="1401,-92.18 1402.69,-81.72 1394.85,-88.85 1401,-92.18"/>
</a>
</g>
</g>
<!-- Node32 -->
<g id="Node000032" class="node">
<title>Node32</title>
<g id="a_Node000032"><a xlink:href="corefn_8h_source.html" target="_top" xlink:title=" ">
<polygon fill="white" stroke="#666666" points="757.48,-262.75 642.48,-262.75 642.48,-243.5 757.48,-243.5 757.48,-262.75"/>
<text text-anchor="middle" x="699.98" y="-248.3" font-family="Helvetica,sans-Serif" font-size="11.00">floppy/detail/corefn.h</text>
</a>
</g>
</g>
<!-- Node27&#45;&gt;Node32 -->
<g id="edge44_Node000027_Node000032" class="edge">
<title>Node27&#45;&gt;Node32</title>
<g id="a_edge44_Node000027_Node000032"><a xlink:title=" ">
<path fill="none" stroke="#63b8ff" d="M779.71,-304.06C764.94,-294.81 741.61,-280.2 724,-269.17"/>
<polygon fill="#63b8ff" stroke="#63b8ff" points="726.01,-266.3 715.68,-263.95 722.29,-272.23 726.01,-266.3"/>
</a>
</g>
</g>
<!-- Node34 -->
<g id="Node000034" class="node">
<title>Node34</title>
<g id="a_Node000034"><a xlink:href="print__helpers_8h_source.html" target="_top" xlink:title=" ">
<polygon fill="white" stroke="#666666" points="638.48,-207.5 541.48,-207.5 541.48,-177 638.48,-177 638.48,-207.5"/>
<text text-anchor="start" x="549.48" y="-193.05" font-family="Helvetica,sans-Serif" font-size="11.00">floppy/detail/print</text>
<text text-anchor="middle" x="589.98" y="-181.8" font-family="Helvetica,sans-Serif" font-size="11.00">_helpers.h</text>
</a>
</g>
</g>
<!-- Node27&#45;&gt;Node34 -->
<g id="edge64_Node000027_Node000034" class="edge">
<title>Node27&#45;&gt;Node34</title>
<g id="a_edge64_Node000027_Node000034"><a xlink:title=" ">
<path fill="none" stroke="#63b8ff" d="M751.17,-307.8C716.61,-301.79 668.26,-289.1 633.98,-262.75 618.95,-251.19 607.67,-232.93 600.3,-218.02"/>
<polygon fill="#63b8ff" stroke="#63b8ff" points="603.63,-216.89 596.26,-209.28 597.28,-219.83 603.63,-216.89"/>
</a>
</g>
</g>
<!-- Node36 -->
<g id="Node000036" class="node">
<title>Node36</title>
<g id="a_Node000036"><a xlink:href="memory_8h_source.html" target="_top" xlink:title=" ">
<polygon fill="white" stroke="#666666" points="399.61,-201.88 276.36,-201.88 276.36,-182.62 399.61,-182.62 399.61,-201.88"/>
<text text-anchor="middle" x="337.98" y="-187.43" font-family="Helvetica,sans-Serif" font-size="11.00">floppy/detail/memory.h</text>
</a>
</g>
</g>
<!-- Node27&#45;&gt;Node36 -->
<g id="edge55_Node000027_Node000036" class="edge">
<title>Node27&#45;&gt;Node36</title>
<g id="a_edge55_Node000027_Node000036"><a xlink:title=" ">
<path fill="none" stroke="#63b8ff" d="M751.22,-310.57C664.93,-305.16 473.17,-290.33 413.98,-262.75 388.51,-250.88 365.67,-227.39 351.83,-211.02"/>
<polygon fill="#63b8ff" stroke="#63b8ff" points="354.75,-209.07 345.73,-203.52 349.33,-213.49 354.75,-209.07"/>
</a>
</g>
</g>
<!-- Node28&#45;&gt;Node12 -->
<g id="edge35_Node000028_Node000012" class="edge">
<title>Node28&#45;&gt;Node12</title>
<g id="a_edge35_Node000028_Node000012"><a xlink:title=" ">
<path fill="none" stroke="#63b8ff" d="M789.88,-182.29C783.09,-168.18 768.43,-140.47 749.98,-121.75 707.41,-78.55 645.29,-43.23 609.12,-24.71"/>
<polygon fill="#63b8ff" stroke="#63b8ff" points="611.07,-21.77 600.56,-20.4 607.92,-28.02 611.07,-21.77"/>
</a>
</g>
</g>
<!-- Node28&#45;&gt;Node13 -->
<g id="edge41_Node000028_Node000013" class="edge">
<title>Node28&#45;&gt;Node13</title>
<g id="a_edge41_Node000028_Node000013"><a xlink:title=" ">
<path fill="none" stroke="#63b8ff" d="M809.93,-182.31C826.66,-172.93 853.22,-158.04 872.98,-146.95"/>
<polygon fill="#63b8ff" stroke="#63b8ff" points="874.55,-150.08 881.56,-142.14 871.13,-143.98 874.55,-150.08"/>
</a>
</g>
</g>
<!-- Node28&#45;&gt;Node19 -->
<g id="edge33_Node000028_Node000019" class="edge">
<title>Node28&#45;&gt;Node19</title>
<g id="a_edge33_Node000028_Node000019"><a xlink:title=" ">
<path fill="none" stroke="#63b8ff" d="M794.75,-182.54C797.18,-155.19 804.68,-70.51 808.16,-31.14"/>
<polygon fill="#63b8ff" stroke="#63b8ff" points="811.65,-31.45 809.05,-21.18 804.68,-30.83 811.65,-31.45"/>
</a>
</g>
</g>
<!-- Node28&#45;&gt;Node22 -->
<g id="edge42_Node000028_Node000022" class="edge">
<title>Node28&#45;&gt;Node22</title>
<g id="a_edge42_Node000028_Node000022"><a xlink:title=" ">
<path fill="none" stroke="#63b8ff" d="M750.89,-182.18C740.48,-180.23 729.36,-178.36 718.98,-177 498.06,-148.16 441.18,-157.33 218.98,-141 207.13,-140.13 194.6,-139.2 182.33,-138.28"/>
<polygon fill="#63b8ff" stroke="#63b8ff" points="182.92,-134.82 172.68,-137.56 182.39,-141.8 182.92,-134.82"/>
</a>
</g>
</g>
<!-- Node29 -->
<g id="Node000029" class="node">
<title>Node29</title>
<g id="a_Node000029"><a xlink:title=" ">
<polygon fill="#e0e0e0" stroke="#999999" points="740.48,-141 691.48,-141 691.48,-121.75 740.48,-121.75 740.48,-141"/>
<text text-anchor="middle" x="715.98" y="-126.55" font-family="Helvetica,sans-Serif" font-size="11.00">ranges</text>
</a>
</g>
</g>
<!-- Node28&#45;&gt;Node29 -->
<g id="edge34_Node000028_Node000029" class="edge">
<title>Node28&#45;&gt;Node29</title>
<g id="a_edge34_Node000028_Node000029"><a xlink:title=" ">
<path fill="none" stroke="#63b8ff" d="M782.14,-182.31C770.11,-173.23 751.24,-158.99 736.73,-148.04"/>
<polygon fill="#63b8ff" stroke="#63b8ff" points="739.24,-145.54 729.15,-142.31 735.02,-151.13 739.24,-145.54"/>
</a>
</g>
</g>
<!-- Node28&#45;&gt;Node30 -->
<g id="edge36_Node000028_Node000030" class="edge">
<title>Node28&#45;&gt;Node30</title>
<g id="a_edge36_Node000028_Node000030"><a xlink:title=" ">
<path fill="none" stroke="#63b8ff" d="M860.6,-182.81C946.61,-171.92 1095.81,-153.03 1185.18,-141.72"/>
<polygon fill="#63b8ff" stroke="#63b8ff" points="1185.59,-145.2 1195.07,-140.47 1184.71,-138.25 1185.59,-145.2"/>
</a>
</g>
</g>
<!-- Node30&#45;&gt;Node5 -->
<g id="edge37_Node000030_Node000005" class="edge">
<title>Node30&#45;&gt;Node5</title>
<g id="a_edge37_Node000030_Node000005"><a xlink:title=" ">
<path fill="none" stroke="#63b8ff" d="M1261.56,-121.43C1263.86,-113.48 1267.3,-101.56 1270.25,-91.37"/>
<polygon fill="#63b8ff" stroke="#63b8ff" points="1273.54,-92.56 1272.96,-81.98 1266.82,-90.62 1273.54,-92.56"/>
</a>
</g>
</g>
<!-- Node30&#45;&gt;Node8 -->
<g id="edge38_Node000030_Node000008" class="edge">
<title>Node30&#45;&gt;Node8</title>
<g id="a_edge38_Node000030_Node000008"><a xlink:title=" ">
<path fill="none" stroke="#63b8ff" d="M1196.74,-125.37C1181.45,-124.16 1165.13,-122.89 1149.98,-121.75 917.78,-104.26 642.31,-85.01 516.23,-76.27"/>
<polygon fill="#63b8ff" stroke="#63b8ff" points="516.59,-72.79 506.37,-75.59 516.1,-79.77 516.59,-72.79"/>
</a>
</g>
</g>
<!-- Node30&#45;&gt;Node17 -->
<g id="edge39_Node000030_Node000017" class="edge">
<title>Node30&#45;&gt;Node17</title>
<g id="a_edge39_Node000030_Node000017"><a xlink:title=" ">
<path fill="none" stroke="#63b8ff" d="M1218.62,-121.3C1172.94,-111.04 1098.43,-94.3 1048.57,-83.09"/>
<polygon fill="#63b8ff" stroke="#63b8ff" points="1049.39,-79.69 1038.87,-80.91 1047.86,-86.52 1049.39,-79.69"/>
</a>
</g>
</g>
<!-- Node30&#45;&gt;Node31 -->
<g id="edge40_Node000030_Node000031" class="edge">
<title>Node30&#45;&gt;Node31</title>
<g id="a_edge40_Node000030_Node000031"><a xlink:title=" ">
<path fill="none" stroke="#63b8ff" d="M1281.94,-121.3C1306.73,-111.51 1346.45,-95.81 1374.68,-84.66"/>
<polygon fill="#63b8ff" stroke="#63b8ff" points="1375.82,-87.97 1383.84,-81.04 1373.25,-81.46 1375.82,-87.97"/>
</a>
</g>
</g>
<!-- Node32&#45;&gt;Node8 -->
<g id="edge46_Node000032_Node000008" class="edge">
<title>Node32&#45;&gt;Node8</title>
<g id="a_edge46_Node000032_Node000008"><a xlink:title=" ">
<path fill="none" stroke="#63b8ff" d="M642.18,-246.49C608,-240.88 565.23,-229.72 532.98,-207.5 490.93,-178.52 465.08,-121.58 453.74,-91.39"/>
<polygon fill="#63b8ff" stroke="#63b8ff" points="457.04,-90.24 450.38,-82 450.45,-92.59 457.04,-90.24"/>
</a>
</g>
</g>
<!-- Node32&#45;&gt;Node13 -->
<g id="edge48_Node000032_Node000013" class="edge">
<title>Node32&#45;&gt;Node13</title>
<g id="a_edge48_Node000032_Node000013"><a xlink:title=" ">
<path fill="none" stroke="#63b8ff" d="M757.8,-249.74C793.66,-245.41 838.53,-234.45 868.98,-207.5 885.06,-193.27 892.63,-169.24 896.13,-152.19"/>
<polygon fill="#63b8ff" stroke="#63b8ff" points="899.51,-153.19 897.76,-142.75 892.61,-152.01 899.51,-153.19"/>
</a>
</g>
</g>
<!-- Node32&#45;&gt;Node28 -->
<g id="edge47_Node000032_Node000028" class="edge">
<title>Node32&#45;&gt;Node28</title>
<g id="a_edge47_Node000032_Node000028"><a xlink:title=" ">
<path fill="none" stroke="#63b8ff" d="M714.26,-243.18C729.03,-233.93 752.35,-219.32 769.97,-208.29"/>
<polygon fill="#63b8ff" stroke="#63b8ff" points="771.67,-211.35 778.29,-203.08 767.96,-205.42 771.67,-211.35"/>
</a>
</g>
</g>
<!-- Node33 -->
<g id="Node000033" class="node">
<title>Node33</title>
<g id="a_Node000033"><a xlink:title=" ">
<polygon fill="#e0e0e0" stroke="#999999" points="709.73,-201.88 656.23,-201.88 656.23,-182.62 709.73,-182.62 709.73,-201.88"/>
<text text-anchor="middle" x="682.98" y="-187.43" font-family="Helvetica,sans-Serif" font-size="11.00">typeinfo</text>
</a>
</g>
</g>
<!-- Node32&#45;&gt;Node33 -->
<g id="edge45_Node000032_Node000033" class="edge">
<title>Node32&#45;&gt;Node33</title>
<g id="a_edge45_Node000032_Node000033"><a xlink:title=" ">
<path fill="none" stroke="#63b8ff" d="M697.4,-243.18C695.1,-235.23 691.66,-223.31 688.72,-213.12"/>
<polygon fill="#63b8ff" stroke="#63b8ff" points="692.14,-212.37 686.01,-203.73 685.42,-214.31 692.14,-212.37"/>
</a>
</g>
</g>
<!-- Node32&#45;&gt;Node34 -->
<g id="edge49_Node000032_Node000034" class="edge">
<title>Node32&#45;&gt;Node34</title>
<g id="a_edge49_Node000032_Node000034"><a xlink:title=" ">
<path fill="none" stroke="#63b8ff" d="M683.28,-243.18C668.4,-235.22 646.1,-223.29 627.04,-213.08"/>
<polygon fill="#63b8ff" stroke="#63b8ff" points="628.94,-210.13 618.47,-208.5 625.63,-216.3 628.94,-210.13"/>
</a>
</g>
</g>
<!-- Node34&#45;&gt;Node12 -->
<g id="edge50_Node000034_Node000012" class="edge">
<title>Node34&#45;&gt;Node12</title>
<g id="a_edge50_Node000034_Node000012"><a xlink:title=" ">
<path fill="none" stroke="#63b8ff" d="M589.18,-176.77C587.41,-144.72 583.14,-67.7 581.1,-30.89"/>
<polygon fill="#63b8ff" stroke="#63b8ff" points="584.61,-30.98 580.57,-21.19 577.63,-31.37 584.61,-30.98"/>
</a>
</g>
</g>
<!-- Node35 -->
<g id="Node000035" class="node">
<title>Node35</title>
<g id="a_Node000035"><a xlink:title=" ">
<polygon fill="#e0e0e0" stroke="#999999" points="673.73,-141 608.23,-141 608.23,-121.75 673.73,-121.75 673.73,-141"/>
<text text-anchor="middle" x="640.98" y="-126.55" font-family="Helvetica,sans-Serif" font-size="11.00">fmt/color.h</text>
</a>
</g>
</g>
<!-- Node34&#45;&gt;Node35 -->
<g id="edge51_Node000034_Node000035" class="edge">
<title>Node34&#45;&gt;Node35</title>
<g id="a_edge51_Node000034_Node000035"><a xlink:title=" ">
<path fill="none" stroke="#63b8ff" d="M602.59,-176.7C609.61,-168.59 618.39,-158.45 625.79,-149.91"/>
<polygon fill="#63b8ff" stroke="#63b8ff" points="628.23,-152.45 632.13,-142.6 622.94,-147.86 628.23,-152.45"/>
</a>
</g>
</g>
<!-- Node36&#45;&gt;Node7 -->
<g id="edge57_Node000036_Node000007" class="edge">
<title>Node36&#45;&gt;Node7</title>
<g id="a_edge57_Node000036_Node000007"><a xlink:title=" ">
<path fill="none" stroke="#63b8ff" d="M366.48,-182.18C397.85,-172.2 448.48,-156.08 483.63,-144.9"/>
<polygon fill="#63b8ff" stroke="#63b8ff" points="484.54,-148.28 493.01,-141.91 482.42,-141.61 484.54,-148.28"/>
</a>
</g>
</g>
<!-- Node36&#45;&gt;Node8 -->
<g id="edge59_Node000036_Node000008" class="edge">
<title>Node36&#45;&gt;Node8</title>
<g id="a_edge59_Node000036_Node000008"><a xlink:title=" ">
<path fill="none" stroke="#63b8ff" d="M346.17,-182.25C364.17,-162.48 407.4,-114.99 430.98,-89.08"/>
<polygon fill="#63b8ff" stroke="#63b8ff" points="433.53,-91.48 437.68,-81.72 428.36,-86.76 433.53,-91.48"/>
</a>
</g>
</g>
<!-- Node36&#45;&gt;Node13 -->
<g id="edge61_Node000036_Node000013" class="edge">
<title>Node36&#45;&gt;Node13</title>
<g id="a_edge61_Node000036_Node000013"><a xlink:title=" ">
<path fill="none" stroke="#63b8ff" d="M399.89,-184.75C503.48,-173.88 711.56,-152.04 823.54,-140.29"/>
<polygon fill="#63b8ff" stroke="#63b8ff" points="823.64,-143.8 833.22,-139.28 822.91,-136.84 823.64,-143.8"/>
</a>
</g>
</g>
<!-- Node36&#45;&gt;Node22 -->
<g id="edge60_Node000036_Node000022" class="edge">
<title>Node36&#45;&gt;Node22</title>
<g id="a_edge60_Node000036_Node000022"><a xlink:title=" ">
<path fill="none" stroke="#63b8ff" d="M301.93,-182.18C261.48,-172 195.71,-155.45 151.19,-144.25"/>
<polygon fill="#63b8ff" stroke="#63b8ff" points="152.09,-140.87 141.54,-141.82 150.38,-147.66 152.09,-140.87"/>
</a>
</g>
</g>
<!-- Node37 -->
<g id="Node000037" class="node">
<title>Node37</title>
<g id="a_Node000037"><a xlink:title=" ">
<polygon fill="#e0e0e0" stroke="#999999" points="282.48,-141 227.48,-141 227.48,-121.75 282.48,-121.75 282.48,-141"/>
<text text-anchor="middle" x="254.98" y="-126.55" font-family="Helvetica,sans-Serif" font-size="11.00">memory</text>
</a>
</g>
</g>
<!-- Node36&#45;&gt;Node37 -->
<g id="edge56_Node000036_Node000037" class="edge">
<title>Node36&#45;&gt;Node37</title>
<g id="a_edge56_Node000036_Node000037"><a xlink:title=" ">
<path fill="none" stroke="#63b8ff" d="M325.38,-182.31C312.58,-173.23 292.5,-158.99 277.06,-148.04"/>
<polygon fill="#63b8ff" stroke="#63b8ff" points="279.12,-145.21 268.94,-142.28 275.07,-150.92 279.12,-145.21"/>
</a>
</g>
</g>
<!-- Node38 -->
<g id="Node000038" class="node">
<title>Node38</title>
<g id="a_Node000038"><a xlink:title=" ">
<polygon fill="#e0e0e0" stroke="#999999" points="361.86,-141 300.11,-141 300.11,-121.75 361.86,-121.75 361.86,-141"/>
<text text-anchor="middle" x="330.98" y="-126.55" font-family="Helvetica,sans-Serif" font-size="11.00">stdexcept</text>
</a>
</g>
</g>
<!-- Node36&#45;&gt;Node38 -->
<g id="edge58_Node000036_Node000038" class="edge">
<title>Node36&#45;&gt;Node38</title>
<g id="a_edge58_Node000036_Node000038"><a xlink:title=" ">
<path fill="none" stroke="#63b8ff" d="M336.92,-182.31C335.98,-174.44 334.59,-162.7 333.38,-152.57"/>
<polygon fill="#63b8ff" stroke="#63b8ff" points="336.89,-152.42 332.23,-142.9 329.94,-153.25 336.89,-152.42"/>
</a>
</g>
</g>
</g>
</svg>
