<?xml version="1.0" encoding="UTF-8" standalone="no"?>
<!DOCTYPE svg PUBLIC "-//W3C//DTD SVG 1.1//EN"
 "http://www.w3.org/Graphics/SVG/1.1/DTD/svg11.dtd">
<!-- Generated by graphviz version 10.0.1 (0)
 -->
<!-- Title: euclid.h Pages: 1 -->
<svg width="1003pt" height="680pt"
 viewBox="0.00 0.00 1003.00 680.00" xmlns="http://www.w3.org/2000/svg" xmlns:xlink="http://www.w3.org/1999/xlink">
<g id="graph0" class="graph" transform="scale(1 1) rotate(0) translate(4 676)">
<title>euclid.h</title>
<!-- Node1 -->
<g id="Node000001" class="node">
<title>Node1</title>
<g id="a_Node000001"><a xlink:title="Small collection of classes and functions for geometric types with a focus on 2d graphics and layout.">
<polygon fill="#999999" stroke="#666666" points="505.75,-672 453,-672 453,-652.75 505.75,-652.75 505.75,-672"/>
<text text-anchor="middle" x="479.38" y="-657.55" font-family="Arial" font-size="11.00">euclid.h</text>
</a>
</g>
</g>
<!-- Node2 -->
<g id="Node000002" class="node">
<title>Node2</title>
<g id="a_Node000002"><a xlink:href="angle_8h.html" target="_top" xlink:title="Newtype describing an angle.">
<polygon fill="white" stroke="#666666" points="689.12,-329.25 575.62,-329.25 575.62,-310 689.12,-310 689.12,-329.25"/>
<text text-anchor="middle" x="632.38" y="-314.8" font-family="Arial" font-size="11.00">floppy/euclid/angle.h</text>
</a>
</g>
</g>
<!-- Node1&#45;&gt;Node2 -->
<g id="edge1_Node000001_Node000002" class="edge">
<title>Node1&#45;&gt;Node2</title>
<g id="a_edge1_Node000001_Node000002"><a xlink:title=" ">
<path fill="none" stroke="#63b8ff" d="M506.1,-659.82C562.88,-654.94 690.38,-634.85 690.38,-552.88 690.38,-552.88 690.38,-552.88 690.38,-434.75 690.38,-397.17 665.07,-359.44 647.89,-338.16"/>
<polygon fill="#63b8ff" stroke="#63b8ff" points="650.77,-336.15 641.66,-330.75 645.42,-340.66 650.77,-336.15"/>
</a>
</g>
</g>
<!-- Node28 -->
<g id="Node000028" class="node">
<title>Node28</title>
<g id="a_Node000028"><a xlink:href="length_8h.html" target="_top" xlink:title="A one&#45;dimensional distance with associated unit of measurement.">
<polygon fill="white" stroke="#666666" points="295.62,-384.5 179.12,-384.5 179.12,-365.25 295.62,-365.25 295.62,-384.5"/>
<text text-anchor="middle" x="237.38" y="-370.05" font-family="Arial" font-size="11.00">floppy/euclid/length.h</text>
</a>
</g>
</g>
<!-- Node1&#45;&gt;Node28 -->
<g id="edge35_Node000001_Node000028" class="edge">
<title>Node1&#45;&gt;Node28</title>
<g id="a_edge35_Node000001_Node000028"><a xlink:title=" ">
<path fill="none" stroke="#63b8ff" d="M452.58,-657.54C379.19,-646.3 180.38,-610.51 180.38,-552.88 180.38,-552.88 180.38,-552.88 180.38,-495.62 180.38,-456.29 205.76,-416.13 222.65,-393.76"/>
<polygon fill="#63b8ff" stroke="#63b8ff" points="225.33,-396.01 228.75,-385.99 219.82,-391.69 225.33,-396.01"/>
</a>
</g>
</g>
<!-- Node29 -->
<g id="Node000029" class="node">
<title>Node29</title>
<g id="a_Node000029"><a xlink:href="scale_8h.html" target="_top" xlink:title="A scaling factor between two different units of measurement.">
<polygon fill="white" stroke="#666666" points="463.38,-329.25 351.38,-329.25 351.38,-310 463.38,-310 463.38,-329.25"/>
<text text-anchor="middle" x="407.38" y="-314.8" font-family="Arial" font-size="11.00">floppy/euclid/scale.h</text>
</a>
</g>
</g>
<!-- Node1&#45;&gt;Node29 -->
<g id="edge41_Node000001_Node000029" class="edge">
<title>Node1&#45;&gt;Node29</title>
<g id="a_edge41_Node000001_Node000029"><a xlink:title=" ">
<path fill="none" stroke="#63b8ff" d="M506.05,-653.36C545.39,-639.7 614.38,-607.9 614.38,-552.88 614.38,-552.88 614.38,-552.88 614.38,-434.75 614.38,-402.73 618.4,-387.51 595.38,-365.25 578.16,-348.61 521.7,-336.65 475.11,-329.33"/>
<polygon fill="#63b8ff" stroke="#63b8ff" points="475.72,-325.88 465.31,-327.84 474.67,-332.8 475.72,-325.88"/>
</a>
</g>
</g>
<!-- Node30 -->
<g id="Node000030" class="node">
<title>Node30</title>
<g id="a_Node000030"><a xlink:href="size2d_8h.html" target="_top" xlink:title="A two&#45;dimensional size tagged with a unit.">
<polygon fill="white" stroke="#666666" points="364.38,-506.25 246.38,-506.25 246.38,-487 364.38,-487 364.38,-506.25"/>
<text text-anchor="middle" x="305.38" y="-491.8" font-family="Arial" font-size="11.00">floppy/euclid/size2d.h</text>
</a>
</g>
</g>
<!-- Node1&#45;&gt;Node30 -->
<g id="edge42_Node000001_Node000030" class="edge">
<title>Node1&#45;&gt;Node30</title>
<g id="a_edge42_Node000001_Node000030"><a xlink:title=" ">
<path fill="none" stroke="#63b8ff" d="M452.56,-659.43C422.56,-655.85 374.37,-645.67 345.38,-616.75 318.3,-589.74 309.55,-543.86 306.72,-517.62"/>
<polygon fill="#63b8ff" stroke="#63b8ff" points="310.24,-517.65 305.89,-507.99 303.26,-518.26 310.24,-517.65"/>
</a>
</g>
</g>
<!-- Node36 -->
<g id="Node000036" class="node">
<title>Node36</title>
<g id="a_Node000036"><a xlink:href="point2d_8h.html" target="_top" xlink:title="A two&#45;dimensional point tagged with a unit.">
<polygon fill="white" stroke="#666666" points="476.62,-616.75 354.12,-616.75 354.12,-597.5 476.62,-597.5 476.62,-616.75"/>
<text text-anchor="middle" x="415.38" y="-602.3" font-family="Arial" font-size="11.00">floppy/euclid/point2d.h</text>
</a>
</g>
</g>
<!-- Node1&#45;&gt;Node36 -->
<g id="edge53_Node000001_Node000036" class="edge">
<title>Node1&#45;&gt;Node36</title>
<g id="a_edge53_Node000001_Node000036"><a xlink:title=" ">
<path fill="none" stroke="#63b8ff" d="M468.52,-652.34C459.27,-644.65 445.75,-633.4 434.67,-624.18"/>
<polygon fill="#63b8ff" stroke="#63b8ff" points="437.16,-621.7 427.23,-617.99 432.68,-627.08 437.16,-621.7"/>
</a>
</g>
</g>
<!-- Node38 -->
<g id="Node000038" class="node">
<title>Node38</title>
<g id="a_Node000038"><a xlink:href="vector2d_8h.html" target="_top" xlink:title="A two&#45;dimensional vector tagged with a unit.">
<polygon fill="white" stroke="#666666" points="586.62,-561.5 458.12,-561.5 458.12,-542.25 586.62,-542.25 586.62,-561.5"/>
<text text-anchor="middle" x="522.38" y="-547.05" font-family="Arial" font-size="11.00">floppy/euclid/vector2d.h</text>
</a>
</g>
</g>
<!-- Node1&#45;&gt;Node38 -->
<g id="edge64_Node000001_Node000038" class="edge">
<title>Node1&#45;&gt;Node38</title>
<g id="a_edge64_Node000001_Node000038"><a xlink:title=" ">
<path fill="none" stroke="#63b8ff" d="M482.89,-652.5C489.79,-635.09 505.24,-596.12 514.63,-572.41"/>
<polygon fill="#63b8ff" stroke="#63b8ff" points="517.82,-573.87 518.25,-563.28 511.31,-571.29 517.82,-573.87"/>
</a>
</g>
</g>
<!-- Node3 -->
<g id="Node000003" class="node">
<title>Node3</title>
<g id="a_Node000003"><a xlink:href="math_8h_source.html" target="_top" xlink:title=" ">
<polygon fill="white" stroke="#666666" points="402.88,-207.5 293.88,-207.5 293.88,-188.25 402.88,-188.25 402.88,-207.5"/>
<text text-anchor="middle" x="348.38" y="-193.05" font-family="Arial" font-size="11.00">floppy/detail/math.h</text>
</a>
</g>
</g>
<!-- Node2&#45;&gt;Node3 -->
<g id="edge2_Node000002_Node000003" class="edge">
<title>Node2&#45;&gt;Node3</title>
<g id="a_edge2_Node000002_Node000003"><a xlink:title=" ">
<path fill="none" stroke="#63b8ff" d="M611.03,-309.62C561.58,-288.78 438.97,-237.07 380.45,-212.4"/>
<polygon fill="#63b8ff" stroke="#63b8ff" points="381.94,-209.23 371.36,-208.57 379.22,-215.68 381.94,-209.23"/>
</a>
</g>
</g>
<!-- Node21 -->
<g id="Node000021" class="node">
<title>Node21</title>
<g id="a_Node000021"><a xlink:href="traits_8h_source.html" target="_top" xlink:title=" ">
<polygon fill="white" stroke="#666666" points="672.25,-207.5 592.5,-207.5 592.5,-188.25 672.25,-188.25 672.25,-207.5"/>
<text text-anchor="middle" x="632.38" y="-193.05" font-family="Arial" font-size="11.00">floppy/traits.h</text>
</a>
</g>
</g>
<!-- Node2&#45;&gt;Node21 -->
<g id="edge22_Node000002_Node000021" class="edge">
<title>Node2&#45;&gt;Node21</title>
<g id="a_edge22_Node000002_Node000021"><a xlink:title=" ">
<path fill="none" stroke="#63b8ff" d="M632.38,-309.62C632.38,-290.55 632.38,-245.66 632.38,-219.26"/>
<polygon fill="#63b8ff" stroke="#63b8ff" points="635.88,-219.49 632.38,-209.49 628.88,-219.49 635.88,-219.49"/>
</a>
</g>
</g>
<!-- Node27 -->
<g id="Node000027" class="node">
<title>Node27</title>
<g id="a_Node000027"><a xlink:href="nt__traits_8h.html" target="_top" xlink:title=" ">
<polygon fill="white" stroke="#666666" points="376.25,-274 272.5,-274 272.5,-243.5 376.25,-243.5 376.25,-274"/>
<text text-anchor="start" x="280.5" y="-259.55" font-family="Arial" font-size="11.00">floppy/euclid/detail</text>
<text text-anchor="middle" x="324.38" y="-248.3" font-family="Arial" font-size="11.00">/nt_traits.h</text>
</a>
</g>
</g>
<!-- Node2&#45;&gt;Node27 -->
<g id="edge32_Node000002_Node000027" class="edge">
<title>Node2&#45;&gt;Node27</title>
<g id="a_edge32_Node000002_Node000027"><a xlink:title=" ">
<path fill="none" stroke="#63b8ff" d="M584.92,-309.55C531.98,-299.43 446.07,-283.01 387.49,-271.81"/>
<polygon fill="#63b8ff" stroke="#63b8ff" points="388.48,-268.44 378,-270 387.17,-275.32 388.48,-268.44"/>
</a>
</g>
</g>
<!-- Node4 -->
<g id="Node000004" class="node">
<title>Node4</title>
<g id="a_Node000004"><a xlink:title=" ">
<polygon fill="#e0e0e0" stroke="#999999" points="393,-146.62 347.75,-146.62 347.75,-127.38 393,-127.38 393,-146.62"/>
<text text-anchor="middle" x="370.38" y="-132.18" font-family="Arial" font-size="11.00">cmath</text>
</a>
</g>
</g>
<!-- Node3&#45;&gt;Node4 -->
<g id="edge3_Node000003_Node000004" class="edge">
<title>Node3&#45;&gt;Node4</title>
<g id="a_edge3_Node000003_Node000004"><a xlink:title=" ">
<path fill="none" stroke="#63b8ff" d="M351.72,-187.93C354.72,-179.89 359.24,-167.8 363.08,-157.53"/>
<polygon fill="#63b8ff" stroke="#63b8ff" points="366.25,-159.04 366.47,-148.44 359.69,-156.59 366.25,-159.04"/>
</a>
</g>
</g>
<!-- Node5 -->
<g id="Node000005" class="node">
<title>Node5</title>
<g id="a_Node000005"><a xlink:title=" ">
<polygon fill="#e0e0e0" stroke="#999999" points="451.38,-146.62 411.38,-146.62 411.38,-127.38 451.38,-127.38 451.38,-146.62"/>
<text text-anchor="middle" x="431.38" y="-132.18" font-family="Arial" font-size="11.00">limits</text>
</a>
</g>
</g>
<!-- Node3&#45;&gt;Node5 -->
<g id="edge4_Node000003_Node000005" class="edge">
<title>Node3&#45;&gt;Node5</title>
<g id="a_edge4_Node000003_Node000005"><a xlink:title=" ">
<path fill="none" stroke="#63b8ff" d="M360.98,-187.93C373.78,-178.86 393.85,-164.62 409.29,-153.66"/>
<polygon fill="#63b8ff" stroke="#63b8ff" points="411.28,-156.54 417.42,-147.9 407.23,-150.83 411.28,-156.54"/>
</a>
</g>
</g>
<!-- Node6 -->
<g id="Node000006" class="node">
<title>Node6</title>
<g id="a_Node000006"><a xlink:title=" ">
<polygon fill="#e0e0e0" stroke="#999999" points="253.38,-146.62 195.38,-146.62 195.38,-127.38 253.38,-127.38 253.38,-146.62"/>
<text text-anchor="middle" x="224.38" y="-132.18" font-family="Arial" font-size="11.00">numbers</text>
</a>
</g>
</g>
<!-- Node3&#45;&gt;Node6 -->
<g id="edge5_Node000003_Node000006" class="edge">
<title>Node3&#45;&gt;Node6</title>
<g id="a_edge5_Node000003_Node000006"><a xlink:title=" ">
<path fill="none" stroke="#63b8ff" d="M329.27,-187.8C309.1,-178.23 277.04,-163 253.66,-151.91"/>
<polygon fill="#63b8ff" stroke="#63b8ff" points="255.2,-148.76 244.66,-147.63 252.2,-155.08 255.2,-148.76"/>
</a>
</g>
</g>
<!-- Node7 -->
<g id="Node000007" class="node">
<title>Node7</title>
<g id="a_Node000007"><a xlink:title=" ">
<polygon fill="#e0e0e0" stroke="#999999" points="329.38,-146.62 271.38,-146.62 271.38,-127.38 329.38,-127.38 329.38,-146.62"/>
<text text-anchor="middle" x="300.38" y="-132.18" font-family="Arial" font-size="11.00">compare</text>
</a>
</g>
</g>
<!-- Node3&#45;&gt;Node7 -->
<g id="edge6_Node000003_Node000007" class="edge">
<title>Node3&#45;&gt;Node7</title>
<g id="a_edge6_Node000003_Node000007"><a xlink:title=" ">
<path fill="none" stroke="#63b8ff" d="M341.08,-187.93C334.18,-179.46 323.6,-166.49 314.96,-155.89"/>
<polygon fill="#63b8ff" stroke="#63b8ff" points="317.72,-153.74 308.69,-148.2 312.3,-158.16 317.72,-153.74"/>
</a>
</g>
</g>
<!-- Node8 -->
<g id="Node000008" class="node">
<title>Node8</title>
<g id="a_Node000008"><a xlink:href="export_8h_source.html" target="_top" xlink:title=" ">
<polygon fill="white" stroke="#666666" points="584.88,-146.62 469.88,-146.62 469.88,-127.38 584.88,-127.38 584.88,-146.62"/>
<text text-anchor="middle" x="527.38" y="-132.18" font-family="Arial" font-size="11.00">floppy/detail/export.h</text>
</a>
</g>
</g>
<!-- Node3&#45;&gt;Node8 -->
<g id="edge7_Node000003_Node000008" class="edge">
<title>Node3&#45;&gt;Node8</title>
<g id="a_edge7_Node000003_Node000008"><a xlink:title=" ">
<path fill="none" stroke="#63b8ff" d="M375.95,-187.8C406.17,-177.86 454.87,-161.85 488.85,-150.67"/>
<polygon fill="#63b8ff" stroke="#63b8ff" points="489.92,-154 498.33,-147.55 487.74,-147.35 489.92,-154"/>
</a>
</g>
</g>
<!-- Node13 -->
<g id="Node000013" class="node">
<title>Node13</title>
<g id="a_Node000013"><a xlink:href="concepts_8h_source.html" target="_top" xlink:title=" ">
<polygon fill="white" stroke="#666666" points="177.25,-146.62 49.5,-146.62 49.5,-127.38 177.25,-127.38 177.25,-146.62"/>
<text text-anchor="middle" x="113.38" y="-132.18" font-family="Arial" font-size="11.00">floppy/detail/concepts.h</text>
</a>
</g>
</g>
<!-- Node3&#45;&gt;Node13 -->
<g id="edge12_Node000003_Node000013" class="edge">
<title>Node3&#45;&gt;Node13</title>
<g id="a_edge12_Node000003_Node000013"><a xlink:title=" ">
<path fill="none" stroke="#63b8ff" d="M312.17,-187.8C271.55,-177.63 205.49,-161.08 160.78,-149.88"/>
<polygon fill="#63b8ff" stroke="#63b8ff" points="161.64,-146.48 151.09,-147.45 159.94,-153.27 161.64,-146.48"/>
</a>
</g>
</g>
<!-- Node9 -->
<g id="Node000009" class="node">
<title>Node9</title>
<g id="a_Node000009"><a xlink:title=" ">
<polygon fill="#e0e0e0" stroke="#999999" points="498.5,-80.12 456.25,-80.12 456.25,-60.88 498.5,-60.88 498.5,-80.12"/>
<text text-anchor="middle" x="477.38" y="-65.67" font-family="Arial" font-size="11.00">string</text>
</a>
</g>
</g>
<!-- Node8&#45;&gt;Node9 -->
<g id="edge8_Node000008_Node000009" class="edge">
<title>Node8&#45;&gt;Node9</title>
<g id="a_edge8_Node000008_Node000009"><a xlink:title=" ">
<path fill="none" stroke="#63b8ff" d="M520.42,-127.03C512.89,-117.31 500.66,-101.54 491.16,-89.28"/>
<polygon fill="#63b8ff" stroke="#63b8ff" points="494.09,-87.35 485.2,-81.59 488.56,-91.64 494.09,-87.35"/>
</a>
</g>
</g>
<!-- Node10 -->
<g id="Node000010" class="node">
<title>Node10</title>
<g id="a_Node000010"><a xlink:title=" ">
<polygon fill="#e0e0e0" stroke="#999999" points="662.38,-80.12 592.38,-80.12 592.38,-60.88 662.38,-60.88 662.38,-80.12"/>
<text text-anchor="middle" x="627.38" y="-65.67" font-family="Arial" font-size="11.00">string_view</text>
</a>
</g>
</g>
<!-- Node8&#45;&gt;Node10 -->
<g id="edge9_Node000008_Node000010" class="edge">
<title>Node8&#45;&gt;Node10</title>
<g id="a_edge9_Node000008_Node000010"><a xlink:title=" ">
<path fill="none" stroke="#63b8ff" d="M541.28,-127.03C557.38,-116.64 584.18,-99.36 603.61,-86.83"/>
<polygon fill="#63b8ff" stroke="#63b8ff" points="605.49,-89.78 611.99,-81.42 601.69,-83.9 605.49,-89.78"/>
</a>
</g>
</g>
<!-- Node11 -->
<g id="Node000011" class="node">
<title>Node11</title>
<g id="a_Node000011"><a xlink:title=" ">
<polygon fill="#e0e0e0" stroke="#999999" points="574,-80.12 516.75,-80.12 516.75,-60.88 574,-60.88 574,-80.12"/>
<text text-anchor="middle" x="545.38" y="-65.67" font-family="Arial" font-size="11.00">iostream</text>
</a>
</g>
</g>
<!-- Node8&#45;&gt;Node11 -->
<g id="edge10_Node000008_Node000011" class="edge">
<title>Node8&#45;&gt;Node11</title>
<g id="a_edge10_Node000008_Node000011"><a xlink:title=" ">
<path fill="none" stroke="#63b8ff" d="M529.88,-127.03C532.46,-117.79 536.56,-103.08 539.9,-91.13"/>
<polygon fill="#63b8ff" stroke="#63b8ff" points="543.17,-92.42 542.49,-81.85 536.43,-90.54 543.17,-92.42"/>
</a>
</g>
</g>
<!-- Node12 -->
<g id="Node000012" class="node">
<title>Node12</title>
<g id="a_Node000012"><a xlink:title=" ">
<polygon fill="#e0e0e0" stroke="#999999" points="465.25,-19.25 391.5,-19.25 391.5,0 465.25,0 465.25,-19.25"/>
<text text-anchor="middle" x="428.38" y="-4.8" font-family="Arial" font-size="11.00">fmt/format.h</text>
</a>
</g>
</g>
<!-- Node8&#45;&gt;Node12 -->
<g id="edge11_Node000008_Node000012" class="edge">
<title>Node8&#45;&gt;Node12</title>
<g id="a_edge11_Node000008_Node000012"><a xlink:title=" ">
<path fill="none" stroke="#63b8ff" d="M503.93,-127.03C485.83,-118.92 461.56,-105.25 447.38,-85.75 435.64,-69.61 431.12,-46.95 429.4,-30.75"/>
<polygon fill="#63b8ff" stroke="#63b8ff" points="432.9,-30.6 428.65,-20.89 425.92,-31.13 432.9,-30.6"/>
</a>
</g>
</g>
<!-- Node14 -->
<g id="Node000014" class="node">
<title>Node14</title>
<g id="a_Node000014"><a xlink:title=" ">
<polygon fill="#e0e0e0" stroke="#999999" points="58.75,-80.12 0,-80.12 0,-60.88 58.75,-60.88 58.75,-80.12"/>
<text text-anchor="middle" x="29.38" y="-65.67" font-family="Arial" font-size="11.00">concepts</text>
</a>
</g>
</g>
<!-- Node13&#45;&gt;Node14 -->
<g id="edge13_Node000013_Node000014" class="edge">
<title>Node13&#45;&gt;Node14</title>
<g id="a_edge13_Node000013_Node000014"><a xlink:title=" ">
<path fill="none" stroke="#63b8ff" d="M101.7,-127.03C88.36,-116.79 66.28,-99.84 50.02,-87.35"/>
<polygon fill="#63b8ff" stroke="#63b8ff" points="52.49,-84.84 42.43,-81.52 48.23,-90.39 52.49,-84.84"/>
</a>
</g>
</g>
<!-- Node15 -->
<g id="Node000015" class="node">
<title>Node15</title>
<g id="a_Node000015"><a xlink:href="type__traits_8h_source.html" target="_top" xlink:title=" ">
<polygon fill="white" stroke="#666666" points="173.5,-85.75 77.25,-85.75 77.25,-55.25 173.5,-55.25 173.5,-85.75"/>
<text text-anchor="start" x="85.25" y="-71.3" font-family="Arial" font-size="11.00">floppy/detail/type</text>
<text text-anchor="middle" x="125.38" y="-60.05" font-family="Arial" font-size="11.00">_traits.h</text>
</a>
</g>
</g>
<!-- Node13&#45;&gt;Node15 -->
<g id="edge14_Node000013_Node000015" class="edge">
<title>Node13&#45;&gt;Node15</title>
<g id="a_edge14_Node000013_Node000015"><a xlink:title=" ">
<path fill="none" stroke="#63b8ff" d="M115.04,-127.03C116.48,-119.29 118.64,-107.7 120.61,-97.12"/>
<polygon fill="#63b8ff" stroke="#63b8ff" points="124.04,-97.8 122.43,-87.33 117.16,-96.52 124.04,-97.8"/>
</a>
</g>
</g>
<!-- Node17 -->
<g id="Node000017" class="node">
<title>Node17</title>
<g id="a_Node000017"><a xlink:href="types_8h_source.html" target="_top" xlink:title=" ">
<polygon fill="white" stroke="#666666" points="311.62,-80.12 201.12,-80.12 201.12,-60.88 311.62,-60.88 311.62,-80.12"/>
<text text-anchor="middle" x="256.38" y="-65.67" font-family="Arial" font-size="11.00">floppy/detail/types.h</text>
</a>
</g>
</g>
<!-- Node13&#45;&gt;Node17 -->
<g id="edge16_Node000013_Node000017" class="edge">
<title>Node13&#45;&gt;Node17</title>
<g id="a_edge16_Node000013_Node000017"><a xlink:title=" ">
<path fill="none" stroke="#63b8ff" d="M133.56,-126.9C157.62,-116.04 198.07,-97.8 225.93,-85.23"/>
<polygon fill="#63b8ff" stroke="#63b8ff" points="227.24,-88.48 234.91,-81.18 224.36,-82.1 227.24,-88.48"/>
</a>
</g>
</g>
<!-- Node16 -->
<g id="Node000016" class="node">
<title>Node16</title>
<g id="a_Node000016"><a xlink:title=" ">
<polygon fill="#e0e0e0" stroke="#999999" points="158.12,-19.25 92.62,-19.25 92.62,0 158.12,0 158.12,-19.25"/>
<text text-anchor="middle" x="125.38" y="-4.8" font-family="Arial" font-size="11.00">type_traits</text>
</a>
</g>
</g>
<!-- Node15&#45;&gt;Node16 -->
<g id="edge15_Node000015_Node000016" class="edge">
<title>Node15&#45;&gt;Node16</title>
<g id="a_edge15_Node000015_Node000016"><a xlink:title=" ">
<path fill="none" stroke="#63b8ff" d="M125.38,-54.95C125.38,-47.71 125.38,-38.84 125.38,-30.94"/>
<polygon fill="#63b8ff" stroke="#63b8ff" points="128.88,-31.21 125.38,-21.21 121.88,-31.21 128.88,-31.21"/>
</a>
</g>
</g>
<!-- Node17&#45;&gt;Node12 -->
<g id="edge21_Node000017_Node000012" class="edge">
<title>Node17&#45;&gt;Node12</title>
<g id="a_edge21_Node000017_Node000012"><a xlink:title=" ">
<path fill="none" stroke="#63b8ff" d="M282.87,-60.43C311.91,-50.49 358.71,-34.47 391.36,-23.29"/>
<polygon fill="#63b8ff" stroke="#63b8ff" points="392.09,-26.75 400.41,-20.2 389.82,-20.12 392.09,-26.75"/>
</a>
</g>
</g>
<!-- Node17&#45;&gt;Node16 -->
<g id="edge20_Node000017_Node000016" class="edge">
<title>Node17&#45;&gt;Node16</title>
<g id="a_edge20_Node000017_Node000016"><a xlink:title=" ">
<path fill="none" stroke="#63b8ff" d="M236.19,-60.43C214.69,-50.76 180.4,-35.35 155.65,-24.23"/>
<polygon fill="#63b8ff" stroke="#63b8ff" points="157.3,-21.14 146.75,-20.23 154.43,-27.52 157.3,-21.14"/>
</a>
</g>
</g>
<!-- Node18 -->
<g id="Node000018" class="node">
<title>Node18</title>
<g id="a_Node000018"><a xlink:title=" ">
<polygon fill="#e0e0e0" stroke="#999999" points="362.62,-19.25 312.12,-19.25 312.12,0 362.62,0 362.62,-19.25"/>
<text text-anchor="middle" x="337.38" y="-4.8" font-family="Arial" font-size="11.00">cstddef</text>
</a>
</g>
</g>
<!-- Node17&#45;&gt;Node18 -->
<g id="edge17_Node000017_Node000018" class="edge">
<title>Node17&#45;&gt;Node18</title>
<g id="a_edge17_Node000017_Node000018"><a xlink:title=" ">
<path fill="none" stroke="#63b8ff" d="M268.68,-60.56C281.17,-51.48 300.76,-37.24 315.83,-26.29"/>
<polygon fill="#63b8ff" stroke="#63b8ff" points="317.7,-29.25 323.73,-20.54 313.59,-23.59 317.7,-29.25"/>
</a>
</g>
</g>
<!-- Node19 -->
<g id="Node000019" class="node">
<title>Node19</title>
<g id="a_Node000019"><a xlink:title=" ">
<polygon fill="#e0e0e0" stroke="#999999" points="222.75,-19.25 176,-19.25 176,0 222.75,0 222.75,-19.25"/>
<text text-anchor="middle" x="199.38" y="-4.8" font-family="Arial" font-size="11.00">cstdint</text>
</a>
</g>
</g>
<!-- Node17&#45;&gt;Node19 -->
<g id="edge18_Node000017_Node000019" class="edge">
<title>Node17&#45;&gt;Node19</title>
<g id="a_edge18_Node000017_Node000019"><a xlink:title=" ">
<path fill="none" stroke="#63b8ff" d="M247.72,-60.56C239.35,-51.91 226.45,-38.59 216.07,-27.87"/>
<polygon fill="#63b8ff" stroke="#63b8ff" points="218.64,-25.49 209.17,-20.74 213.61,-30.36 218.64,-25.49"/>
</a>
</g>
</g>
<!-- Node20 -->
<g id="Node000020" class="node">
<title>Node20</title>
<g id="a_Node000020"><a xlink:title=" ">
<polygon fill="#e0e0e0" stroke="#999999" points="294.12,-19.25 240.62,-19.25 240.62,0 294.12,0 294.12,-19.25"/>
<text text-anchor="middle" x="267.38" y="-4.8" font-family="Arial" font-size="11.00">optional</text>
</a>
</g>
</g>
<!-- Node17&#45;&gt;Node20 -->
<g id="edge19_Node000017_Node000020" class="edge">
<title>Node17&#45;&gt;Node20</title>
<g id="a_edge19_Node000017_Node000020"><a xlink:title=" ">
<path fill="none" stroke="#63b8ff" d="M258.05,-60.56C259.52,-52.69 261.71,-40.95 263.6,-30.82"/>
<polygon fill="#63b8ff" stroke="#63b8ff" points="267.01,-31.61 265.41,-21.14 260.13,-30.33 267.01,-31.61"/>
</a>
</g>
</g>
<!-- Node21&#45;&gt;Node8 -->
<g id="edge26_Node000021_Node000008" class="edge">
<title>Node21&#45;&gt;Node8</title>
<g id="a_edge26_Node000021_Node000008"><a xlink:title=" ">
<path fill="none" stroke="#63b8ff" d="M616.43,-187.93C599.7,-178.55 573.14,-163.66 553.37,-152.58"/>
<polygon fill="#63b8ff" stroke="#63b8ff" points="555.23,-149.6 544.79,-147.77 551.8,-155.71 555.23,-149.6"/>
</a>
</g>
</g>
<!-- Node21&#45;&gt;Node11 -->
<g id="edge24_Node000021_Node000011" class="edge">
<title>Node21&#45;&gt;Node11</title>
<g id="a_edge24_Node000021_Node000011"><a xlink:title=" ">
<path fill="none" stroke="#63b8ff" d="M628.95,-188.06C623.08,-173.5 610.18,-143.87 594.38,-121.75 585.59,-109.45 573.81,-97.28 564.01,-87.99"/>
<polygon fill="#63b8ff" stroke="#63b8ff" points="566.55,-85.57 556.81,-81.38 561.81,-90.72 566.55,-85.57"/>
</a>
</g>
</g>
<!-- Node22 -->
<g id="Node000022" class="node">
<title>Node22</title>
<g id="a_Node000022"><a xlink:title=" ">
<polygon fill="#e0e0e0" stroke="#999999" points="847.88,-146.62 792.88,-146.62 792.88,-127.38 847.88,-127.38 847.88,-146.62"/>
<text text-anchor="middle" x="820.38" y="-132.18" font-family="Arial" font-size="11.00">memory</text>
</a>
</g>
</g>
<!-- Node21&#45;&gt;Node22 -->
<g id="edge23_Node000021_Node000022" class="edge">
<title>Node21&#45;&gt;Node22</title>
<g id="a_edge23_Node000021_Node000022"><a xlink:title=" ">
<path fill="none" stroke="#63b8ff" d="M666.46,-187.83C697.45,-179.37 744.32,-166.02 784.38,-152.25 785.52,-151.86 786.68,-151.45 787.85,-151.03"/>
<polygon fill="#63b8ff" stroke="#63b8ff" points="788.86,-154.39 796.99,-147.6 786.4,-147.83 788.86,-154.39"/>
</a>
</g>
</g>
<!-- Node23 -->
<g id="Node000023" class="node">
<title>Node23</title>
<g id="a_Node000023"><a xlink:title=" ">
<polygon fill="#e0e0e0" stroke="#999999" points="995,-152.25 865.75,-152.25 865.75,-121.75 995,-121.75 995,-152.25"/>
<text text-anchor="start" x="873.75" y="-137.8" font-family="Arial" font-size="11.00">experimental/propagate</text>
<text text-anchor="middle" x="930.38" y="-126.55" font-family="Arial" font-size="11.00">_const</text>
</a>
</g>
</g>
<!-- Node21&#45;&gt;Node23 -->
<g id="edge25_Node000021_Node000023" class="edge">
<title>Node21&#45;&gt;Node23</title>
<g id="a_edge25_Node000021_Node000023"><a xlink:title=" ">
<path fill="none" stroke="#63b8ff" d="M672.56,-188.93C719.06,-179.75 796.62,-164.42 854.56,-152.98"/>
<polygon fill="#63b8ff" stroke="#63b8ff" points="854.88,-156.48 864.01,-151.11 853.53,-149.62 854.88,-156.48"/>
</a>
</g>
</g>
<!-- Node24 -->
<g id="Node000024" class="node">
<title>Node24</title>
<g id="a_Node000024"><a xlink:href="formatters_8h_source.html" target="_top" xlink:title=" ">
<polygon fill="white" stroke="#666666" points="775.25,-146.62 641.5,-146.62 641.5,-127.38 775.25,-127.38 775.25,-146.62"/>
<text text-anchor="middle" x="708.38" y="-132.18" font-family="Arial" font-size="11.00">floppy/detail/formatters.h</text>
</a>
</g>
</g>
<!-- Node21&#45;&gt;Node24 -->
<g id="edge27_Node000021_Node000024" class="edge">
<title>Node21&#45;&gt;Node24</title>
<g id="a_edge27_Node000021_Node000024"><a xlink:title=" ">
<path fill="none" stroke="#63b8ff" d="M643.92,-187.93C655.52,-178.94 673.67,-164.89 687.75,-153.98"/>
<polygon fill="#63b8ff" stroke="#63b8ff" points="689.77,-156.84 695.53,-147.95 685.48,-151.31 689.77,-156.84"/>
</a>
</g>
</g>
<!-- Node24&#45;&gt;Node10 -->
<g id="edge28_Node000024_Node000010" class="edge">
<title>Node24&#45;&gt;Node10</title>
<g id="a_edge28_Node000024_Node000010"><a xlink:title=" ">
<path fill="none" stroke="#63b8ff" d="M697.11,-127.03C684.37,-116.88 663.36,-100.15 647.72,-87.7"/>
<polygon fill="#63b8ff" stroke="#63b8ff" points="649.99,-85.03 639.99,-81.54 645.63,-90.51 649.99,-85.03"/>
</a>
</g>
</g>
<!-- Node24&#45;&gt;Node12 -->
<g id="edge31_Node000024_Node000012" class="edge">
<title>Node24&#45;&gt;Node12</title>
<g id="a_edge31_Node000024_Node000012"><a xlink:title=" ">
<path fill="none" stroke="#63b8ff" d="M707.02,-127.06C703.96,-110.14 694.86,-73.53 671.38,-55.25 641.72,-32.17 538.83,-19.78 476.85,-14.26"/>
<polygon fill="#63b8ff" stroke="#63b8ff" points="477.17,-10.77 466.91,-13.4 476.57,-17.75 477.17,-10.77"/>
</a>
</g>
</g>
<!-- Node25 -->
<g id="Node000025" class="node">
<title>Node25</title>
<g id="a_Node000025"><a xlink:title=" ">
<polygon fill="#e0e0e0" stroke="#999999" points="772.5,-80.12 718.25,-80.12 718.25,-60.88 772.5,-60.88 772.5,-80.12"/>
<text text-anchor="middle" x="745.38" y="-65.67" font-family="Arial" font-size="11.00">sstream</text>
</a>
</g>
</g>
<!-- Node24&#45;&gt;Node25 -->
<g id="edge29_Node000024_Node000025" class="edge">
<title>Node24&#45;&gt;Node25</title>
<g id="a_edge29_Node000024_Node000025"><a xlink:title=" ">
<path fill="none" stroke="#63b8ff" d="M713.52,-127.03C718.99,-117.5 727.79,-102.16 734.75,-90.02"/>
<polygon fill="#63b8ff" stroke="#63b8ff" points="737.58,-92.12 739.52,-81.71 731.51,-88.64 737.58,-92.12"/>
</a>
</g>
</g>
<!-- Node26 -->
<g id="Node000026" class="node">
<title>Node26</title>
<g id="a_Node000026"><a xlink:title=" ">
<polygon fill="#e0e0e0" stroke="#999999" points="837.75,-80.12 791,-80.12 791,-60.88 837.75,-60.88 837.75,-80.12"/>
<text text-anchor="middle" x="814.38" y="-65.67" font-family="Arial" font-size="11.00">iosfwd</text>
</a>
</g>
</g>
<!-- Node24&#45;&gt;Node26 -->
<g id="edge30_Node000024_Node000026" class="edge">
<title>Node24&#45;&gt;Node26</title>
<g id="a_edge30_Node000024_Node000026"><a xlink:title=" ">
<path fill="none" stroke="#63b8ff" d="M723.11,-127.03C740.34,-116.55 769.12,-99.04 789.75,-86.48"/>
<polygon fill="#63b8ff" stroke="#63b8ff" points="791.4,-89.58 798.13,-81.39 787.76,-83.6 791.4,-89.58"/>
</a>
</g>
</g>
<!-- Node27&#45;&gt;Node3 -->
<g id="edge33_Node000027_Node000003" class="edge">
<title>Node27&#45;&gt;Node3</title>
<g id="a_edge33_Node000027_Node000003"><a xlink:title=" ">
<path fill="none" stroke="#63b8ff" d="M330.31,-243.2C333.36,-235.7 337.13,-226.45 340.44,-218.35"/>
<polygon fill="#63b8ff" stroke="#63b8ff" points="343.57,-219.93 344.1,-209.35 337.09,-217.29 343.57,-219.93"/>
</a>
</g>
</g>
<!-- Node27&#45;&gt;Node13 -->
<g id="edge34_Node000027_Node000013" class="edge">
<title>Node27&#45;&gt;Node13</title>
<g id="a_edge34_Node000027_Node000013"><a xlink:title=" ">
<path fill="none" stroke="#63b8ff" d="M298.5,-243.07C257.89,-220.02 179.65,-175.61 139.12,-152.61"/>
<polygon fill="#63b8ff" stroke="#63b8ff" points="140.95,-149.63 130.53,-147.74 137.5,-155.72 140.95,-149.63"/>
</a>
</g>
</g>
<!-- Node28&#45;&gt;Node27 -->
<g id="edge40_Node000028_Node000027" class="edge">
<title>Node28&#45;&gt;Node27</title>
<g id="a_edge40_Node000028_Node000027"><a xlink:title=" ">
<path fill="none" stroke="#63b8ff" d="M244.2,-364.92C257.49,-347.49 287.2,-308.52 306.48,-283.22"/>
<polygon fill="#63b8ff" stroke="#63b8ff" points="309.11,-285.55 312.39,-275.47 303.54,-281.3 309.11,-285.55"/>
</a>
</g>
</g>
<!-- Node28&#45;&gt;Node29 -->
<g id="edge36_Node000028_Node000029" class="edge">
<title>Node28&#45;&gt;Node29</title>
<g id="a_edge36_Node000028_Node000029"><a xlink:title=" ">
<path fill="none" stroke="#63b8ff" d="M266.21,-364.84C294.05,-356.12 336.45,-342.84 367.51,-333.11"/>
<polygon fill="#63b8ff" stroke="#63b8ff" points="368.45,-336.48 376.95,-330.15 366.36,-329.8 368.45,-336.48"/>
</a>
</g>
</g>
<!-- Node29&#45;&gt;Node3 -->
<g id="edge37_Node000029_Node000003" class="edge">
<title>Node29&#45;&gt;Node3</title>
<g id="a_edge37_Node000029_Node000003"><a xlink:title=" ">
<path fill="none" stroke="#63b8ff" d="M406,-309.85C403.48,-295.36 397.24,-265.82 385.38,-243.5 380.15,-233.66 372.52,-223.99 365.55,-216.18"/>
<polygon fill="#63b8ff" stroke="#63b8ff" points="368.28,-213.97 358.89,-209.07 363.17,-218.76 368.28,-213.97"/>
</a>
</g>
</g>
<!-- Node29&#45;&gt;Node21 -->
<g id="edge38_Node000029_Node000021" class="edge">
<title>Node29&#45;&gt;Node21</title>
<g id="a_edge38_Node000029_Node000021"><a xlink:title=" ">
<path fill="none" stroke="#63b8ff" d="M424.29,-309.62C462.97,-289.04 558.19,-238.36 605.21,-213.33"/>
<polygon fill="#63b8ff" stroke="#63b8ff" points="606.75,-216.48 613.93,-208.69 603.46,-210.3 606.75,-216.48"/>
</a>
</g>
</g>
<!-- Node29&#45;&gt;Node27 -->
<g id="edge39_Node000029_Node000027" class="edge">
<title>Node29&#45;&gt;Node27</title>
<g id="a_edge39_Node000029_Node000027"><a xlink:title=" ">
<path fill="none" stroke="#63b8ff" d="M394.77,-309.68C384.01,-302.05 368.11,-290.77 354.14,-280.86"/>
<polygon fill="#63b8ff" stroke="#63b8ff" points="356.28,-278.09 346.1,-275.16 352.23,-283.8 356.28,-278.09"/>
</a>
</g>
</g>
<!-- Node30&#45;&gt;Node3 -->
<g id="edge43_Node000030_Node000003" class="edge">
<title>Node30&#45;&gt;Node3</title>
<g id="a_edge43_Node000030_Node000003"><a xlink:title=" ">
<path fill="none" stroke="#63b8ff" d="M280.87,-486.51C236.74,-468.44 150.28,-424.67 170.38,-365.25 192.19,-300.75 211.34,-287.42 263.38,-243.5 278.53,-230.71 297.95,-220.18 314.4,-212.56"/>
<polygon fill="#63b8ff" stroke="#63b8ff" points="315.61,-215.85 323.33,-208.59 312.77,-209.45 315.61,-215.85"/>
</a>
</g>
</g>
<!-- Node30&#45;&gt;Node13 -->
<g id="edge44_Node000030_Node000013" class="edge">
<title>Node30&#45;&gt;Node13</title>
<g id="a_edge44_Node000030_Node000013"><a xlink:title=" ">
<path fill="none" stroke="#63b8ff" d="M280.67,-486.65C228.81,-466.06 113.38,-410.15 113.38,-320.62 113.38,-320.62 113.38,-320.62 113.38,-257.75 113.38,-222.84 113.38,-182.21 113.38,-158.38"/>
<polygon fill="#63b8ff" stroke="#63b8ff" points="116.88,-158.53 113.38,-148.53 109.88,-158.53 116.88,-158.53"/>
</a>
</g>
</g>
<!-- Node30&#45;&gt;Node28 -->
<g id="edge45_Node000030_Node000028" class="edge">
<title>Node30&#45;&gt;Node28</title>
<g id="a_edge45_Node000030_Node000028"><a xlink:title=" ">
<path fill="none" stroke="#63b8ff" d="M301.84,-486.54C296.07,-472.11 283.9,-443.26 270.38,-420.5 264.9,-411.3 257.97,-401.68 251.87,-393.74"/>
<polygon fill="#63b8ff" stroke="#63b8ff" points="254.64,-391.6 245.7,-385.92 249.15,-395.94 254.64,-391.6"/>
</a>
</g>
</g>
<!-- Node31 -->
<g id="Node000031" class="node">
<title>Node31</title>
<g id="a_Node000031"><a xlink:href="nt__traits2d_8h.html" target="_top" xlink:title=" ">
<polygon fill="white" stroke="#666666" points="531.25,-451 427.5,-451 427.5,-420.5 531.25,-420.5 531.25,-451"/>
<text text-anchor="start" x="435.5" y="-436.55" font-family="Arial" font-size="11.00">floppy/euclid/detail</text>
<text text-anchor="middle" x="479.38" y="-425.3" font-family="Arial" font-size="11.00">/nt_traits2d.h</text>
</a>
</g>
</g>
<!-- Node30&#45;&gt;Node31 -->
<g id="edge46_Node000030_Node000031" class="edge">
<title>Node30&#45;&gt;Node31</title>
<g id="a_edge46_Node000030_Node000031"><a xlink:title=" ">
<path fill="none" stroke="#63b8ff" d="M332.18,-486.55C356.91,-478.19 394.37,-465.51 425.31,-455.04"/>
<polygon fill="#63b8ff" stroke="#63b8ff" points="426.16,-458.45 434.51,-451.93 423.92,-451.82 426.16,-458.45"/>
</a>
</g>
</g>
<!-- Node31&#45;&gt;Node27 -->
<g id="edge52_Node000031_Node000027" class="edge">
<title>Node31&#45;&gt;Node27</title>
<g id="a_edge52_Node000031_Node000027"><a xlink:title=" ">
<path fill="none" stroke="#63b8ff" d="M427.36,-421.63C393.47,-412.01 353.54,-398.28 342.38,-384.5 319.79,-356.64 318.74,-313.32 320.92,-285.76"/>
<polygon fill="#63b8ff" stroke="#63b8ff" points="324.4,-286.12 321.92,-275.82 317.43,-285.41 324.4,-286.12"/>
</a>
</g>
</g>
<!-- Node31&#45;&gt;Node28 -->
<g id="edge51_Node000031_Node000028" class="edge">
<title>Node31&#45;&gt;Node28</title>
<g id="a_edge51_Node000031_Node000028"><a xlink:title=" ">
<path fill="none" stroke="#63b8ff" d="M427.16,-422.05C385.12,-411.82 326.5,-397.56 285.56,-387.6"/>
<polygon fill="#63b8ff" stroke="#63b8ff" points="286.53,-384.23 275.99,-385.27 284.88,-391.03 286.53,-384.23"/>
</a>
</g>
</g>
<!-- Node32 -->
<g id="Node000032" class="node">
<title>Node32</title>
<g id="a_Node000032"><a xlink:title=" ">
<polygon fill="#e0e0e0" stroke="#999999" points="470.75,-384.5 430,-384.5 430,-365.25 470.75,-365.25 470.75,-384.5"/>
<text text-anchor="middle" x="450.38" y="-370.05" font-family="Arial" font-size="11.00">array</text>
</a>
</g>
</g>
<!-- Node31&#45;&gt;Node32 -->
<g id="edge47_Node000031_Node000032" class="edge">
<title>Node31&#45;&gt;Node32</title>
<g id="a_edge47_Node000031_Node000032"><a xlink:title=" ">
<path fill="none" stroke="#63b8ff" d="M472.21,-420.2C468.47,-412.61 463.85,-403.24 459.83,-395.07"/>
<polygon fill="#63b8ff" stroke="#63b8ff" points="463.07,-393.73 455.51,-386.31 456.79,-396.83 463.07,-393.73"/>
</a>
</g>
</g>
<!-- Node33 -->
<g id="Node000033" class="node">
<title>Node33</title>
<g id="a_Node000033"><a xlink:title=" ">
<polygon fill="#e0e0e0" stroke="#999999" points="528,-384.5 488.75,-384.5 488.75,-365.25 528,-365.25 528,-384.5"/>
<text text-anchor="middle" x="508.38" y="-370.05" font-family="Arial" font-size="11.00">tuple</text>
</a>
</g>
</g>
<!-- Node31&#45;&gt;Node33 -->
<g id="edge48_Node000031_Node000033" class="edge">
<title>Node31&#45;&gt;Node33</title>
<g id="a_edge48_Node000031_Node000033"><a xlink:title=" ">
<path fill="none" stroke="#63b8ff" d="M486.54,-420.2C490.28,-412.61 494.9,-403.24 498.92,-395.07"/>
<polygon fill="#63b8ff" stroke="#63b8ff" points="501.96,-396.83 503.24,-386.31 495.68,-393.73 501.96,-396.83"/>
</a>
</g>
</g>
<!-- Node34 -->
<g id="Node000034" class="node">
<title>Node34</title>
<g id="a_Node000034"><a xlink:title=" ">
<polygon fill="#e0e0e0" stroke="#999999" points="586.38,-384.5 546.38,-384.5 546.38,-365.25 586.38,-365.25 586.38,-384.5"/>
<text text-anchor="middle" x="566.38" y="-370.05" font-family="Arial" font-size="11.00">utility</text>
</a>
</g>
</g>
<!-- Node31&#45;&gt;Node34 -->
<g id="edge49_Node000031_Node000034" class="edge">
<title>Node31&#45;&gt;Node34</title>
<g id="a_edge49_Node000031_Node000034"><a xlink:title=" ">
<path fill="none" stroke="#63b8ff" d="M500.88,-420.2C513.87,-411.4 530.42,-400.21 543.63,-391.27"/>
<polygon fill="#63b8ff" stroke="#63b8ff" points="545.39,-394.3 551.71,-385.8 541.47,-388.51 545.39,-394.3"/>
</a>
</g>
</g>
<!-- Node35 -->
<g id="Node000035" class="node">
<title>Node35</title>
<g id="a_Node000035"><a xlink:title=" ">
<polygon fill="#e0e0e0" stroke="#999999" points="411.5,-384.5 351.25,-384.5 351.25,-365.25 411.5,-365.25 411.5,-384.5"/>
<text text-anchor="middle" x="381.38" y="-370.05" font-family="Arial" font-size="11.00">algorithm</text>
</a>
</g>
</g>
<!-- Node31&#45;&gt;Node35 -->
<g id="edge50_Node000031_Node000035" class="edge">
<title>Node31&#45;&gt;Node35</title>
<g id="a_edge50_Node000031_Node000035"><a xlink:title=" ">
<path fill="none" stroke="#63b8ff" d="M454.9,-420.05C439.97,-411.08 420.96,-399.66 406.01,-390.67"/>
<polygon fill="#63b8ff" stroke="#63b8ff" points="408.08,-387.83 397.7,-385.68 404.47,-393.83 408.08,-387.83"/>
</a>
</g>
</g>
<!-- Node36&#45;&gt;Node28 -->
<g id="edge55_Node000036_Node000028" class="edge">
<title>Node36&#45;&gt;Node28</title>
<g id="a_edge55_Node000036_Node000028"><a xlink:title=" ">
<path fill="none" stroke="#63b8ff" d="M377.4,-597.04C334.71,-584.58 267.46,-557.62 237.38,-506.25 217.23,-471.85 224.8,-423.08 231.49,-395.99"/>
<polygon fill="#63b8ff" stroke="#63b8ff" points="234.86,-396.92 234.09,-386.36 228.11,-395.1 234.86,-396.92"/>
</a>
</g>
</g>
<!-- Node36&#45;&gt;Node30 -->
<g id="edge56_Node000036_Node000030" class="edge">
<title>Node36&#45;&gt;Node30</title>
<g id="a_edge56_Node000036_Node000030"><a xlink:title=" ">
<path fill="none" stroke="#63b8ff" d="M406.37,-597.25C388.08,-579.21 346.31,-538 322.61,-514.63"/>
<polygon fill="#63b8ff" stroke="#63b8ff" points="325.16,-512.22 315.58,-507.69 320.24,-517.2 325.16,-512.22"/>
</a>
</g>
</g>
<!-- Node36&#45;&gt;Node31 -->
<g id="edge63_Node000036_Node000031" class="edge">
<title>Node36&#45;&gt;Node31</title>
<g id="a_edge63_Node000036_Node000031"><a xlink:title=" ">
<path fill="none" stroke="#63b8ff" d="M412.31,-597.13C405.79,-576.39 392.64,-524.14 411.38,-487 417.41,-475.04 427.78,-465.22 438.64,-457.53"/>
<polygon fill="#63b8ff" stroke="#63b8ff" points="440.44,-460.53 446.93,-452.16 436.64,-454.66 440.44,-460.53"/>
</a>
</g>
</g>
<!-- Node37 -->
<g id="Node000037" class="node">
<title>Node37</title>
<g id="a_Node000037"><a xlink:title=" ">
<polygon fill="#e0e0e0" stroke="#999999" points="482.25,-506.25 420.5,-506.25 420.5,-487 482.25,-487 482.25,-506.25"/>
<text text-anchor="middle" x="451.38" y="-491.8" font-family="Arial" font-size="11.00">functional</text>
</a>
</g>
</g>
<!-- Node36&#45;&gt;Node37 -->
<g id="edge54_Node000036_Node000037" class="edge">
<title>Node36&#45;&gt;Node37</title>
<g id="a_edge54_Node000036_Node000037"><a xlink:title=" ">
<path fill="none" stroke="#63b8ff" d="M418.32,-597.25C424.07,-579.92 436.91,-541.23 444.78,-517.49"/>
<polygon fill="#63b8ff" stroke="#63b8ff" points="448.08,-518.66 447.91,-508.06 441.44,-516.45 448.08,-518.66"/>
</a>
</g>
</g>
<!-- Node36&#45;&gt;Node38 -->
<g id="edge57_Node000036_Node000038" class="edge">
<title>Node36&#45;&gt;Node38</title>
<g id="a_edge57_Node000036_Node000038"><a xlink:title=" ">
<path fill="none" stroke="#63b8ff" d="M433.53,-597.09C450.05,-588.87 474.72,-576.59 493.87,-567.06"/>
<polygon fill="#63b8ff" stroke="#63b8ff" points="495.39,-570.22 502.78,-562.63 492.27,-563.95 495.39,-570.22"/>
</a>
</g>
</g>
<!-- Node38&#45;&gt;Node2 -->
<g id="edge59_Node000038_Node000002" class="edge">
<title>Node38&#45;&gt;Node2</title>
<g id="a_edge59_Node000038_Node000002"><a xlink:title=" ">
<path fill="none" stroke="#63b8ff" d="M530.43,-541.99C551.2,-518.44 606.52,-451.58 628.38,-384.5 632.97,-370.4 633.86,-353.63 633.66,-340.82"/>
<polygon fill="#63b8ff" stroke="#63b8ff" points="637.17,-340.92 633.26,-331.08 630.17,-341.21 637.17,-340.92"/>
</a>
</g>
</g>
<!-- Node38&#45;&gt;Node28 -->
<g id="edge60_Node000038_Node000028" class="edge">
<title>Node38&#45;&gt;Node28</title>
<g id="a_edge60_Node000038_Node000028"><a xlink:title=" ">
<path fill="none" stroke="#63b8ff" d="M520.16,-541.85C516.39,-528.27 507.55,-502.55 491.38,-487 482.79,-478.74 335.57,-416.8 269.28,-389.14"/>
<polygon fill="#63b8ff" stroke="#63b8ff" points="270.97,-386.05 260.4,-385.44 268.28,-392.52 270.97,-386.05"/>
</a>
</g>
</g>
<!-- Node38&#45;&gt;Node30 -->
<g id="edge61_Node000038_Node000030" class="edge">
<title>Node38&#45;&gt;Node30</title>
<g id="a_edge61_Node000038_Node000030"><a xlink:title=" ">
<path fill="none" stroke="#63b8ff" d="M485.56,-541.84C449.17,-532.91 393.29,-519.2 353.42,-509.41"/>
<polygon fill="#63b8ff" stroke="#63b8ff" points="354.38,-506.05 343.84,-507.06 352.71,-512.85 354.38,-506.05"/>
</a>
</g>
</g>
<!-- Node38&#45;&gt;Node31 -->
<g id="edge62_Node000038_Node000031" class="edge">
<title>Node38&#45;&gt;Node31</title>
<g id="a_edge62_Node000038_Node000031"><a xlink:title=" ">
<path fill="none" stroke="#63b8ff" d="M524.78,-541.84C527.71,-529.12 531.43,-505.45 524.38,-487 520.44,-476.72 513.33,-467.21 505.91,-459.3"/>
<polygon fill="#63b8ff" stroke="#63b8ff" points="508.52,-456.96 498.94,-452.44 503.61,-461.95 508.52,-456.96"/>
</a>
</g>
</g>
<!-- Node38&#45;&gt;Node37 -->
<g id="edge58_Node000038_Node000037" class="edge">
<title>Node38&#45;&gt;Node37</title>
<g id="a_edge58_Node000038_Node000037"><a xlink:title=" ">
<path fill="none" stroke="#63b8ff" d="M510.33,-541.84C499.97,-534.07 484.77,-522.67 472.41,-513.4"/>
<polygon fill="#63b8ff" stroke="#63b8ff" points="474.55,-510.63 464.45,-507.43 470.35,-516.23 474.55,-510.63"/>
</a>
</g>
</g>
</g>
</svg>
