<?xml version="1.0" encoding="UTF-8" standalone="no"?>
<!DOCTYPE svg PUBLIC "-//W3C//DTD SVG 1.1//EN"
 "http://www.w3.org/Graphics/SVG/1.1/DTD/svg11.dtd">
<!-- Generated by graphviz version 10.0.1 (0)
 -->
<!-- Title: graphics.h Pages: 1 -->
<svg width="1392pt" height="614pt"
 viewBox="0.00 0.00 1391.86 613.50" xmlns="http://www.w3.org/2000/svg" xmlns:xlink="http://www.w3.org/1999/xlink">
<g id="graph0" class="graph" transform="scale(1 1) rotate(0) translate(4 609.5)">
<title>graphics.h</title>
<!-- Node1 -->
<g id="Node000001" class="node">
<title>Node1</title>
<g id="a_Node000001"><a xlink:title="Classes and functions related to graphics and drawing.">
<polygon fill="#999999" stroke="#666666" points="993.75,-605.5 928.25,-605.5 928.25,-586.25 993.75,-586.25 993.75,-605.5"/>
<text text-anchor="middle" x="961" y="-591.05" font-family="Helvetica,sans-Serif" font-size="11.00">graphics.h</text>
</a>
</g>
</g>
<!-- Node2 -->
<g id="Node000002" class="node">
<title>Node2</title>
<g id="a_Node000002"><a xlink:href="color_8h.html" target="_top" xlink:title="Class representing a color.">
<polygon fill="white" stroke="#666666" points="1022.25,-550.25 899.75,-550.25 899.75,-531 1022.25,-531 1022.25,-550.25"/>
<text text-anchor="middle" x="961" y="-535.8" font-family="Helvetica,sans-Serif" font-size="11.00">floppy/graphics/color.h</text>
</a>
</g>
</g>
<!-- Node1&#45;&gt;Node2 -->
<g id="edge1_Node000001_Node000002" class="edge">
<title>Node1&#45;&gt;Node2</title>
<g id="a_edge1_Node000001_Node000002"><a xlink:title=" ">
<path fill="none" stroke="#63b8ff" d="M961,-586.08C961,-579.57 961,-570.42 961,-562.12"/>
<polygon fill="#63b8ff" stroke="#63b8ff" points="964.5,-562.12 961,-552.12 957.5,-562.12 964.5,-562.12"/>
</a>
</g>
</g>
<!-- Node3 -->
<g id="Node000003" class="node">
<title>Node3</title>
<g id="a_Node000003"><a xlink:title=" ">
<polygon fill="#e0e0e0" stroke="#999999" points="835.38,-495 794.62,-495 794.62,-475.75 835.38,-475.75 835.38,-495"/>
<text text-anchor="middle" x="815" y="-480.55" font-family="Helvetica,sans-Serif" font-size="11.00">array</text>
</a>
</g>
</g>
<!-- Node2&#45;&gt;Node3 -->
<g id="edge2_Node000002_Node000003" class="edge">
<title>Node2&#45;&gt;Node3</title>
<g id="a_edge2_Node000002_Node000003"><a xlink:title=" ">
<path fill="none" stroke="#63b8ff" d="M936.23,-530.59C911.46,-521.56 873.27,-507.63 846.39,-497.82"/>
<polygon fill="#63b8ff" stroke="#63b8ff" points="847.65,-494.56 837.05,-494.42 845.25,-501.13 847.65,-494.56"/>
</a>
</g>
</g>
<!-- Node4 -->
<g id="Node000004" class="node">
<title>Node4</title>
<g id="a_Node000004"><a xlink:href="math_8h_source.html" target="_top" xlink:title=" ">
<polygon fill="white" stroke="#666666" points="1233.5,-323.62 1124.5,-323.62 1124.5,-304.38 1233.5,-304.38 1233.5,-323.62"/>
<text text-anchor="middle" x="1179" y="-309.18" font-family="Helvetica,sans-Serif" font-size="11.00">floppy/detail/math.h</text>
</a>
</g>
</g>
<!-- Node2&#45;&gt;Node4 -->
<g id="edge3_Node000002_Node000004" class="edge">
<title>Node2&#45;&gt;Node4</title>
<g id="a_edge3_Node000002_Node000004"><a xlink:title=" ">
<path fill="none" stroke="#63b8ff" d="M969.82,-530.54C1002.75,-496.6 1118.94,-376.89 1162.41,-332.09"/>
<polygon fill="#63b8ff" stroke="#63b8ff" points="1164.81,-334.65 1169.26,-325.04 1159.78,-329.78 1164.81,-334.65"/>
</a>
</g>
</g>
<!-- Node27 -->
<g id="Node000027" class="node">
<title>Node27</title>
<g id="a_Node000027"><a xlink:href="formatters_8h_source.html" target="_top" xlink:title=" ">
<polygon fill="white" stroke="#666666" points="848.88,-262.75 715.12,-262.75 715.12,-243.5 848.88,-243.5 848.88,-262.75"/>
<text text-anchor="middle" x="782" y="-248.3" font-family="Helvetica,sans-Serif" font-size="11.00">floppy/detail/formatters.h</text>
</a>
</g>
</g>
<!-- Node2&#45;&gt;Node27 -->
<g id="edge31_Node000002_Node000027" class="edge">
<title>Node2&#45;&gt;Node27</title>
<g id="a_edge31_Node000002_Node000027"><a xlink:title=" ">
<path fill="none" stroke="#63b8ff" d="M959.32,-530.6C956.73,-517.89 951.09,-494.23 942,-475.75 901.04,-392.49 829.31,-307.13 797.71,-271.45"/>
<polygon fill="#63b8ff" stroke="#63b8ff" points="800.53,-269.35 791.26,-264.23 795.32,-274.02 800.53,-269.35"/>
</a>
</g>
</g>
<!-- Node30 -->
<g id="Node000030" class="node">
<title>Node30</title>
<g id="a_Node000030"><a xlink:href="traits_8h_source.html" target="_top" xlink:title=" ">
<polygon fill="white" stroke="#666666" points="932.88,-495 853.12,-495 853.12,-475.75 932.88,-475.75 932.88,-495"/>
<text text-anchor="middle" x="893" y="-480.55" font-family="Helvetica,sans-Serif" font-size="11.00">floppy/traits.h</text>
</a>
</g>
</g>
<!-- Node2&#45;&gt;Node30 -->
<g id="edge36_Node000002_Node000030" class="edge">
<title>Node2&#45;&gt;Node30</title>
<g id="a_edge36_Node000002_Node000030"><a xlink:title=" ">
<path fill="none" stroke="#63b8ff" d="M949.46,-530.59C939.54,-522.82 924.99,-511.42 913.14,-502.15"/>
<polygon fill="#63b8ff" stroke="#63b8ff" points="915.59,-499.62 905.56,-496.21 911.27,-505.13 915.59,-499.62"/>
</a>
</g>
</g>
<!-- Node42 -->
<g id="Node000042" class="node">
<title>Node42</title>
<g id="a_Node000042"><a xlink:title=" ">
<polygon fill="#e0e0e0" stroke="#999999" points="1363.75,-495 1310.25,-495 1310.25,-475.75 1363.75,-475.75 1363.75,-495"/>
<text text-anchor="middle" x="1337" y="-480.55" font-family="Helvetica,sans-Serif" font-size="11.00">qcolor.h</text>
</a>
</g>
</g>
<!-- Node2&#45;&gt;Node42 -->
<g id="edge75_Node000002_Node000042" class="edge">
<title>Node2&#45;&gt;Node42</title>
<g id="a_edge75_Node000002_Node000042"><a xlink:title=" ">
<path fill="none" stroke="#63b8ff" d="M1022.65,-532.82C1090.01,-525.05 1201.02,-511.29 1296,-495 1297,-494.83 1298.02,-494.65 1299.05,-494.46"/>
<polygon fill="#63b8ff" stroke="#63b8ff" points="1299.51,-497.94 1308.66,-492.61 1298.18,-491.07 1299.51,-497.94"/>
</a>
</g>
</g>
<!-- Node5 -->
<g id="Node000005" class="node">
<title>Node5</title>
<g id="a_Node000005"><a xlink:title=" ">
<polygon fill="#e0e0e0" stroke="#999999" points="1290.62,-262.75 1245.38,-262.75 1245.38,-243.5 1290.62,-243.5 1290.62,-262.75"/>
<text text-anchor="middle" x="1268" y="-248.3" font-family="Helvetica,sans-Serif" font-size="11.00">cmath</text>
</a>
</g>
</g>
<!-- Node4&#45;&gt;Node5 -->
<g id="edge4_Node000004_Node000005" class="edge">
<title>Node4&#45;&gt;Node5</title>
<g id="a_edge4_Node000004_Node000005"><a xlink:title=" ">
<path fill="none" stroke="#63b8ff" d="M1192.52,-304.06C1206.37,-294.89 1228.18,-280.47 1244.8,-269.48"/>
<polygon fill="#63b8ff" stroke="#63b8ff" points="1246.68,-272.42 1253.09,-263.99 1242.82,-266.58 1246.68,-272.42"/>
</a>
</g>
</g>
<!-- Node6 -->
<g id="Node000006" class="node">
<title>Node6</title>
<g id="a_Node000006"><a xlink:title=" ">
<polygon fill="#e0e0e0" stroke="#999999" points="1104,-201.88 1064,-201.88 1064,-182.62 1104,-182.62 1104,-201.88"/>
<text text-anchor="middle" x="1084" y="-187.43" font-family="Helvetica,sans-Serif" font-size="11.00">limits</text>
</a>
</g>
</g>
<!-- Node4&#45;&gt;Node6 -->
<g id="edge5_Node000004_Node000006" class="edge">
<title>Node4&#45;&gt;Node6</title>
<g id="a_edge5_Node000004_Node000006"><a xlink:title=" ">
<path fill="none" stroke="#63b8ff" d="M1177.72,-304.06C1175.33,-289.97 1169.1,-262.29 1155,-243.5 1143.91,-228.73 1127.21,-216.6 1112.8,-207.96"/>
<polygon fill="#63b8ff" stroke="#63b8ff" points="1114.55,-204.93 1104.13,-203.05 1111.1,-211.02 1114.55,-204.93"/>
</a>
</g>
</g>
<!-- Node7 -->
<g id="Node000007" class="node">
<title>Node7</title>
<g id="a_Node000007"><a xlink:title=" ">
<polygon fill="#e0e0e0" stroke="#999999" points="1367,-262.75 1309,-262.75 1309,-243.5 1367,-243.5 1367,-262.75"/>
<text text-anchor="middle" x="1338" y="-248.3" font-family="Helvetica,sans-Serif" font-size="11.00">numbers</text>
</a>
</g>
</g>
<!-- Node4&#45;&gt;Node7 -->
<g id="edge6_Node000004_Node000007" class="edge">
<title>Node4&#45;&gt;Node7</title>
<g id="a_edge6_Node000004_Node000007"><a xlink:title=" ">
<path fill="none" stroke="#63b8ff" d="M1203.5,-303.93C1230.11,-294.08 1272.84,-278.25 1302.99,-267.09"/>
<polygon fill="#63b8ff" stroke="#63b8ff" points="1303.9,-270.49 1312.06,-263.73 1301.46,-263.92 1303.9,-270.49"/>
</a>
</g>
</g>
<!-- Node8 -->
<g id="Node000008" class="node">
<title>Node8</title>
<g id="a_Node000008"><a xlink:title=" ">
<polygon fill="#e0e0e0" stroke="#999999" points="1113,-262.75 1055,-262.75 1055,-243.5 1113,-243.5 1113,-262.75"/>
<text text-anchor="middle" x="1084" y="-248.3" font-family="Helvetica,sans-Serif" font-size="11.00">compare</text>
</a>
</g>
</g>
<!-- Node4&#45;&gt;Node8 -->
<g id="edge7_Node000004_Node000008" class="edge">
<title>Node4&#45;&gt;Node8</title>
<g id="a_edge7_Node000004_Node000008"><a xlink:title=" ">
<path fill="none" stroke="#63b8ff" d="M1164.57,-304.06C1149.65,-294.81 1126.07,-280.2 1108.27,-269.17"/>
<polygon fill="#63b8ff" stroke="#63b8ff" points="1110.19,-266.24 1099.85,-263.95 1106.51,-272.19 1110.19,-266.24"/>
</a>
</g>
</g>
<!-- Node9 -->
<g id="Node000009" class="node">
<title>Node9</title>
<g id="a_Node000009"><a xlink:href="export_8h_source.html" target="_top" xlink:title=" ">
<polygon fill="white" stroke="#666666" points="982.5,-201.88 867.5,-201.88 867.5,-182.62 982.5,-182.62 982.5,-201.88"/>
<text text-anchor="middle" x="925" y="-187.43" font-family="Helvetica,sans-Serif" font-size="11.00">floppy/detail/export.h</text>
</a>
</g>
</g>
<!-- Node4&#45;&gt;Node9 -->
<g id="edge8_Node000004_Node000009" class="edge">
<title>Node4&#45;&gt;Node9</title>
<g id="a_edge8_Node000004_Node000009"><a xlink:title=" ">
<path fill="none" stroke="#63b8ff" d="M1174.31,-304.23C1165.89,-289.35 1146.75,-259.25 1122,-243.5 1083.57,-219.04 1033.82,-206.47 993.93,-200.02"/>
<polygon fill="#63b8ff" stroke="#63b8ff" points="994.6,-196.58 984.19,-198.55 993.55,-203.5 994.6,-196.58"/>
</a>
</g>
</g>
<!-- Node18 -->
<g id="Node000018" class="node">
<title>Node18</title>
<g id="a_Node000018"><a xlink:href="concepts_8h_source.html" target="_top" xlink:title=" ">
<polygon fill="white" stroke="#666666" points="372.88,-262.75 245.12,-262.75 245.12,-243.5 372.88,-243.5 372.88,-262.75"/>
<text text-anchor="middle" x="309" y="-248.3" font-family="Helvetica,sans-Serif" font-size="11.00">floppy/detail/concepts.h</text>
</a>
</g>
</g>
<!-- Node4&#45;&gt;Node18 -->
<g id="edge20_Node000004_Node000018" class="edge">
<title>Node4&#45;&gt;Node18</title>
<g id="a_edge20_Node000004_Node000018"><a xlink:title=" ">
<path fill="none" stroke="#63b8ff" d="M1124.04,-304.57C1108.53,-302.42 1091.63,-300.28 1076,-298.75 1067.46,-297.91 576.4,-269.55 384.6,-258.48"/>
<polygon fill="#63b8ff" stroke="#63b8ff" points="384.92,-255 374.73,-257.92 384.52,-261.99 384.92,-255"/>
</a>
</g>
</g>
<!-- Node10 -->
<g id="Node000010" class="node">
<title>Node10</title>
<g id="a_Node000010"><a xlink:title=" ">
<polygon fill="#e0e0e0" stroke="#999999" points="1144.12,-74.5 1101.88,-74.5 1101.88,-55.25 1144.12,-55.25 1144.12,-74.5"/>
<text text-anchor="middle" x="1123" y="-60.05" font-family="Helvetica,sans-Serif" font-size="11.00">string</text>
</a>
</g>
</g>
<!-- Node9&#45;&gt;Node10 -->
<g id="edge9_Node000009_Node000010" class="edge">
<title>Node9&#45;&gt;Node10</title>
<g id="a_edge9_Node000009_Node000010"><a xlink:title=" ">
<path fill="none" stroke="#63b8ff" d="M939.24,-182.23C972.84,-160.96 1057.34,-107.45 1099.01,-81.07"/>
<polygon fill="#63b8ff" stroke="#63b8ff" points="1100.77,-84.09 1107.34,-75.79 1097.02,-78.18 1100.77,-84.09"/>
</a>
</g>
</g>
<!-- Node11 -->
<g id="Node000011" class="node">
<title>Node11</title>
<g id="a_Node000011"><a xlink:title=" ">
<polygon fill="#e0e0e0" stroke="#999999" points="852,-74.5 782,-74.5 782,-55.25 852,-55.25 852,-74.5"/>
<text text-anchor="middle" x="817" y="-60.05" font-family="Helvetica,sans-Serif" font-size="11.00">string_view</text>
</a>
</g>
</g>
<!-- Node9&#45;&gt;Node11 -->
<g id="edge10_Node000009_Node000011" class="edge">
<title>Node9&#45;&gt;Node11</title>
<g id="a_edge10_Node000009_Node000011"><a xlink:title=" ">
<path fill="none" stroke="#63b8ff" d="M915.19,-182.38C904.6,-172.63 887.46,-156.31 874,-141 857.69,-122.44 840.8,-99.65 829.68,-84.07"/>
<polygon fill="#63b8ff" stroke="#63b8ff" points="832.77,-82.38 824.14,-76.23 827.05,-86.41 832.77,-82.38"/>
</a>
</g>
</g>
<!-- Node12 -->
<g id="Node000012" class="node">
<title>Node12</title>
<g id="a_Node000012"><a xlink:title=" ">
<polygon fill="#e0e0e0" stroke="#999999" points="1343.62,-135.38 1286.38,-135.38 1286.38,-116.12 1343.62,-116.12 1343.62,-135.38"/>
<text text-anchor="middle" x="1315" y="-120.92" font-family="Helvetica,sans-Serif" font-size="11.00">iostream</text>
</a>
</g>
</g>
<!-- Node9&#45;&gt;Node12 -->
<g id="edge11_Node000009_Node000012" class="edge">
<title>Node9&#45;&gt;Node12</title>
<g id="a_edge11_Node000009_Node000012"><a xlink:title=" ">
<path fill="none" stroke="#63b8ff" d="M980.05,-182.15C1059.61,-168.99 1204.86,-144.97 1274.99,-133.37"/>
<polygon fill="#63b8ff" stroke="#63b8ff" points="1275.2,-136.88 1284.49,-131.8 1274.06,-129.97 1275.2,-136.88"/>
</a>
</g>
</g>
<!-- Node13 -->
<g id="Node000013" class="node">
<title>Node13</title>
<g id="a_Node000013"><a xlink:title=" ">
<polygon fill="#e0e0e0" stroke="#999999" points="607.88,-19.25 534.12,-19.25 534.12,0 607.88,0 607.88,-19.25"/>
<text text-anchor="middle" x="571" y="-4.8" font-family="Helvetica,sans-Serif" font-size="11.00">fmt/format.h</text>
</a>
</g>
</g>
<!-- Node9&#45;&gt;Node13 -->
<g id="edge12_Node000009_Node000013" class="edge">
<title>Node9&#45;&gt;Node13</title>
<g id="a_edge12_Node000009_Node000013"><a xlink:title=" ">
<path fill="none" stroke="#63b8ff" d="M907.45,-182.29C850.24,-153.1 668.85,-60.55 598.9,-24.86"/>
<polygon fill="#63b8ff" stroke="#63b8ff" points="600.51,-21.75 590.01,-20.32 597.33,-27.99 600.51,-21.75"/>
</a>
</g>
</g>
<!-- Node14 -->
<g id="Node000014" class="node">
<title>Node14</title>
<g id="a_Node000014"><a xlink:href="string__utils_8h_source.html" target="_top" xlink:title=" ">
<polygon fill="white" stroke="#666666" points="985.12,-141 882.88,-141 882.88,-110.5 985.12,-110.5 985.12,-141"/>
<text text-anchor="start" x="890.88" y="-126.55" font-family="Helvetica,sans-Serif" font-size="11.00">floppy/detail/string</text>
<text text-anchor="middle" x="934" y="-115.3" font-family="Helvetica,sans-Serif" font-size="11.00">_utils.h</text>
</a>
</g>
</g>
<!-- Node9&#45;&gt;Node14 -->
<g id="edge13_Node000009_Node000014" class="edge">
<title>Node9&#45;&gt;Node14</title>
<g id="a_edge13_Node000009_Node000014"><a xlink:title=" ">
<path fill="none" stroke="#63b8ff" d="M926.25,-182.28C927.33,-174.54 928.95,-162.95 930.43,-152.37"/>
<polygon fill="#63b8ff" stroke="#63b8ff" points="933.87,-152.98 931.79,-142.59 926.94,-152.01 933.87,-152.98"/>
</a>
</g>
</g>
<!-- Node14&#45;&gt;Node10 -->
<g id="edge14_Node000014_Node000010" class="edge">
<title>Node14&#45;&gt;Node10</title>
<g id="a_edge14_Node000014_Node000010"><a xlink:title=" ">
<path fill="none" stroke="#63b8ff" d="M981.21,-110.05C1015.33,-99.41 1060.55,-85.33 1090.65,-75.95"/>
<polygon fill="#63b8ff" stroke="#63b8ff" points="1091.44,-79.37 1099.94,-73.06 1089.35,-72.69 1091.44,-79.37"/>
</a>
</g>
</g>
<!-- Node14&#45;&gt;Node11 -->
<g id="edge15_Node000014_Node000011" class="edge">
<title>Node14&#45;&gt;Node11</title>
<g id="a_edge15_Node000014_Node000011"><a xlink:title=" ">
<path fill="none" stroke="#63b8ff" d="M904.78,-110.05C886.53,-100.86 863.17,-89.11 845.13,-80.03"/>
<polygon fill="#63b8ff" stroke="#63b8ff" points="846.8,-76.95 836.3,-75.58 843.65,-83.21 846.8,-76.95"/>
</a>
</g>
</g>
<!-- Node15 -->
<g id="Node000015" class="node">
<title>Node15</title>
<g id="a_Node000015"><a xlink:title=" ">
<polygon fill="#e0e0e0" stroke="#999999" points="930.12,-74.5 869.88,-74.5 869.88,-55.25 930.12,-55.25 930.12,-74.5"/>
<text text-anchor="middle" x="900" y="-60.05" font-family="Helvetica,sans-Serif" font-size="11.00">algorithm</text>
</a>
</g>
</g>
<!-- Node14&#45;&gt;Node15 -->
<g id="edge16_Node000014_Node000015" class="edge">
<title>Node14&#45;&gt;Node15</title>
<g id="a_edge16_Node000014_Node000015"><a xlink:title=" ">
<path fill="none" stroke="#63b8ff" d="M925.6,-110.2C921.17,-102.53 915.68,-93.02 910.92,-84.79"/>
<polygon fill="#63b8ff" stroke="#63b8ff" points="914.03,-83.17 906,-76.26 907.97,-86.67 914.03,-83.17"/>
</a>
</g>
</g>
<!-- Node16 -->
<g id="Node000016" class="node">
<title>Node16</title>
<g id="a_Node000016"><a xlink:href="exceptions_8h_source.html" target="_top" xlink:title=" ">
<polygon fill="white" stroke="#666666" points="1084,-74.5 948,-74.5 948,-55.25 1084,-55.25 1084,-74.5"/>
<text text-anchor="middle" x="1016" y="-60.05" font-family="Helvetica,sans-Serif" font-size="11.00">floppy/detail/exceptions.h</text>
</a>
</g>
</g>
<!-- Node14&#45;&gt;Node16 -->
<g id="edge17_Node000014_Node000016" class="edge">
<title>Node14&#45;&gt;Node16</title>
<g id="a_edge17_Node000014_Node000016"><a xlink:title=" ">
<path fill="none" stroke="#63b8ff" d="M954.27,-110.2C966.39,-101.49 981.8,-90.43 994.19,-81.53"/>
<polygon fill="#63b8ff" stroke="#63b8ff" points="996.05,-84.51 1002.13,-75.83 991.96,-78.82 996.05,-84.51"/>
</a>
</g>
</g>
<!-- Node16&#45;&gt;Node13 -->
<g id="edge19_Node000016_Node000013" class="edge">
<title>Node16&#45;&gt;Node13</title>
<g id="a_edge19_Node000016_Node000013"><a xlink:title=" ">
<path fill="none" stroke="#63b8ff" d="M947.93,-55.73C857.19,-44.87 698.85,-25.92 619.39,-16.42"/>
<polygon fill="#63b8ff" stroke="#63b8ff" points="620.1,-12.98 609.76,-15.26 619.27,-19.93 620.1,-12.98"/>
</a>
</g>
</g>
<!-- Node17 -->
<g id="Node000017" class="node">
<title>Node17</title>
<g id="a_Node000017"><a xlink:title=" ">
<polygon fill="#e0e0e0" stroke="#999999" points="1127.88,-19.25 1066.12,-19.25 1066.12,0 1127.88,0 1127.88,-19.25"/>
<text text-anchor="middle" x="1097" y="-4.8" font-family="Helvetica,sans-Serif" font-size="11.00">stdexcept</text>
</a>
</g>
</g>
<!-- Node16&#45;&gt;Node17 -->
<g id="edge18_Node000016_Node000017" class="edge">
<title>Node16&#45;&gt;Node17</title>
<g id="a_edge18_Node000016_Node000017"><a xlink:title=" ">
<path fill="none" stroke="#63b8ff" d="M1029.74,-54.84C1041.73,-46.96 1059.37,-35.36 1073.58,-26.02"/>
<polygon fill="#63b8ff" stroke="#63b8ff" points="1075.49,-28.95 1081.93,-20.53 1071.65,-23.1 1075.49,-28.95"/>
</a>
</g>
</g>
<!-- Node19 -->
<g id="Node000019" class="node">
<title>Node19</title>
<g id="a_Node000019"><a xlink:title=" ">
<polygon fill="#e0e0e0" stroke="#999999" points="373.38,-201.88 314.62,-201.88 314.62,-182.62 373.38,-182.62 373.38,-201.88"/>
<text text-anchor="middle" x="344" y="-187.43" font-family="Helvetica,sans-Serif" font-size="11.00">concepts</text>
</a>
</g>
</g>
<!-- Node18&#45;&gt;Node19 -->
<g id="edge21_Node000018_Node000019" class="edge">
<title>Node18&#45;&gt;Node19</title>
<g id="a_edge21_Node000018_Node000019"><a xlink:title=" ">
<path fill="none" stroke="#63b8ff" d="M314.32,-243.18C319.2,-234.97 326.59,-222.53 332.78,-212.12"/>
<polygon fill="#63b8ff" stroke="#63b8ff" points="335.76,-213.96 337.86,-203.58 329.74,-210.38 335.76,-213.96"/>
</a>
</g>
</g>
<!-- Node20 -->
<g id="Node000020" class="node">
<title>Node20</title>
<g id="a_Node000020"><a xlink:href="type__traits_8h_source.html" target="_top" xlink:title=" ">
<polygon fill="white" stroke="#666666" points="162.12,-207.5 65.88,-207.5 65.88,-177 162.12,-177 162.12,-207.5"/>
<text text-anchor="start" x="73.88" y="-193.05" font-family="Helvetica,sans-Serif" font-size="11.00">floppy/detail/type</text>
<text text-anchor="middle" x="114" y="-181.8" font-family="Helvetica,sans-Serif" font-size="11.00">_traits.h</text>
</a>
</g>
</g>
<!-- Node18&#45;&gt;Node20 -->
<g id="edge22_Node000018_Node000020" class="edge">
<title>Node18&#45;&gt;Node20</title>
<g id="a_edge22_Node000018_Node000020"><a xlink:title=" ">
<path fill="none" stroke="#63b8ff" d="M278.96,-243.05C250.78,-234.55 207.87,-221.59 172.87,-211.03"/>
<polygon fill="#63b8ff" stroke="#63b8ff" points="174.33,-207.81 163.74,-208.27 172.3,-214.51 174.33,-207.81"/>
</a>
</g>
</g>
<!-- Node22 -->
<g id="Node000022" class="node">
<title>Node22</title>
<g id="a_Node000022"><a xlink:href="types_8h_source.html" target="_top" xlink:title=" ">
<polygon fill="white" stroke="#666666" points="296.25,-201.88 185.75,-201.88 185.75,-182.62 296.25,-182.62 296.25,-201.88"/>
<text text-anchor="middle" x="241" y="-187.43" font-family="Helvetica,sans-Serif" font-size="11.00">floppy/detail/types.h</text>
</a>
</g>
</g>
<!-- Node18&#45;&gt;Node22 -->
<g id="edge24_Node000018_Node000022" class="edge">
<title>Node18&#45;&gt;Node22</title>
<g id="a_edge24_Node000018_Node000022"><a xlink:title=" ">
<path fill="none" stroke="#63b8ff" d="M298.67,-243.18C288.39,-234.28 272.37,-220.41 259.82,-209.54"/>
<polygon fill="#63b8ff" stroke="#63b8ff" points="262.42,-207.17 252.57,-203.27 257.84,-212.46 262.42,-207.17"/>
</a>
</g>
</g>
<!-- Node21 -->
<g id="Node000021" class="node">
<title>Node21</title>
<g id="a_Node000021"><a xlink:title=" ">
<polygon fill="#e0e0e0" stroke="#999999" points="129.75,-135.38 64.25,-135.38 64.25,-116.12 129.75,-116.12 129.75,-135.38"/>
<text text-anchor="middle" x="97" y="-120.92" font-family="Helvetica,sans-Serif" font-size="11.00">type_traits</text>
</a>
</g>
</g>
<!-- Node20&#45;&gt;Node21 -->
<g id="edge23_Node000020_Node000021" class="edge">
<title>Node20&#45;&gt;Node21</title>
<g id="a_edge23_Node000020_Node000021"><a xlink:title=" ">
<path fill="none" stroke="#63b8ff" d="M110.14,-176.61C107.8,-167.73 104.78,-156.27 102.23,-146.58"/>
<polygon fill="#63b8ff" stroke="#63b8ff" points="105.64,-145.81 99.71,-137.04 98.88,-147.6 105.64,-145.81"/>
</a>
</g>
</g>
<!-- Node22&#45;&gt;Node13 -->
<g id="edge29_Node000022_Node000013" class="edge">
<title>Node22&#45;&gt;Node13</title>
<g id="a_edge29_Node000022_Node000013"><a xlink:title=" ">
<path fill="none" stroke="#63b8ff" d="M277.66,-182.19C307.66,-173.92 350.61,-160.06 385,-141 403.94,-130.5 406.1,-124.05 423,-110.5 453.65,-85.93 459.46,-77.26 492,-55.25 508.43,-44.14 527.82,-33.16 543.27,-24.87"/>
<polygon fill="#63b8ff" stroke="#63b8ff" points="544.71,-28.07 551.92,-20.3 541.44,-21.88 544.71,-28.07"/>
</a>
</g>
</g>
<!-- Node22&#45;&gt;Node21 -->
<g id="edge28_Node000022_Node000021" class="edge">
<title>Node22&#45;&gt;Node21</title>
<g id="a_edge28_Node000022_Node000021"><a xlink:title=" ">
<path fill="none" stroke="#63b8ff" d="M220.67,-182.15C196.45,-171.29 155.72,-153.05 127.66,-140.48"/>
<polygon fill="#63b8ff" stroke="#63b8ff" points="129.16,-137.32 118.6,-136.43 126.3,-143.71 129.16,-137.32"/>
</a>
</g>
</g>
<!-- Node23 -->
<g id="Node000023" class="node">
<title>Node23</title>
<g id="a_Node000023"><a xlink:title=" ">
<polygon fill="#e0e0e0" stroke="#999999" points="198.25,-135.38 147.75,-135.38 147.75,-116.12 198.25,-116.12 198.25,-135.38"/>
<text text-anchor="middle" x="173" y="-120.92" font-family="Helvetica,sans-Serif" font-size="11.00">cstddef</text>
</a>
</g>
</g>
<!-- Node22&#45;&gt;Node23 -->
<g id="edge25_Node000022_Node000023" class="edge">
<title>Node22&#45;&gt;Node23</title>
<g id="a_edge25_Node000022_Node000023"><a xlink:title=" ">
<path fill="none" stroke="#63b8ff" d="M231.54,-182.28C220.99,-172.27 203.68,-155.85 190.61,-143.45"/>
<polygon fill="#63b8ff" stroke="#63b8ff" points="193.14,-141.03 183.47,-136.68 188.32,-146.11 193.14,-141.03"/>
</a>
</g>
</g>
<!-- Node24 -->
<g id="Node000024" class="node">
<title>Node24</title>
<g id="a_Node000024"><a xlink:title=" ">
<polygon fill="#e0e0e0" stroke="#999999" points="478.38,-135.38 431.62,-135.38 431.62,-116.12 478.38,-116.12 478.38,-135.38"/>
<text text-anchor="middle" x="455" y="-120.92" font-family="Helvetica,sans-Serif" font-size="11.00">cstdint</text>
</a>
</g>
</g>
<!-- Node22&#45;&gt;Node24 -->
<g id="edge26_Node000022_Node000024" class="edge">
<title>Node22&#45;&gt;Node24</title>
<g id="a_edge26_Node000022_Node000024"><a xlink:title=" ">
<path fill="none" stroke="#63b8ff" d="M276.55,-182.18C312.5,-172.76 369.52,-157.18 418,-141 419.32,-140.56 420.67,-140.1 422.02,-139.62"/>
<polygon fill="#63b8ff" stroke="#63b8ff" points="422.81,-143.06 431,-136.34 420.4,-136.49 422.81,-143.06"/>
</a>
</g>
</g>
<!-- Node25 -->
<g id="Node000025" class="node">
<title>Node25</title>
<g id="a_Node000025"><a xlink:title=" ">
<polygon fill="#e0e0e0" stroke="#999999" points="269.75,-135.38 216.25,-135.38 216.25,-116.12 269.75,-116.12 269.75,-135.38"/>
<text text-anchor="middle" x="243" y="-120.92" font-family="Helvetica,sans-Serif" font-size="11.00">optional</text>
</a>
</g>
</g>
<!-- Node22&#45;&gt;Node25 -->
<g id="edge27_Node000022_Node000025" class="edge">
<title>Node22&#45;&gt;Node25</title>
<g id="a_edge27_Node000022_Node000025"><a xlink:title=" ">
<path fill="none" stroke="#63b8ff" d="M241.28,-182.28C241.56,-173.23 242,-158.95 242.37,-147.13"/>
<polygon fill="#63b8ff" stroke="#63b8ff" points="245.87,-147.26 242.68,-137.16 238.87,-147.04 245.87,-147.26"/>
</a>
</g>
</g>
<!-- Node26 -->
<g id="Node000026" class="node">
<title>Node26</title>
<g id="a_Node000026"><a xlink:title=" ">
<polygon fill="#e0e0e0" stroke="#999999" points="376.38,-135.38 287.62,-135.38 287.62,-116.12 376.38,-116.12 376.38,-135.38"/>
<text text-anchor="middle" x="332" y="-120.92" font-family="Helvetica,sans-Serif" font-size="11.00">tl/expected.hpp</text>
</a>
</g>
</g>
<!-- Node22&#45;&gt;Node26 -->
<g id="edge30_Node000022_Node000026" class="edge">
<title>Node22&#45;&gt;Node26</title>
<g id="a_edge30_Node000022_Node000026"><a xlink:title=" ">
<path fill="none" stroke="#63b8ff" d="M253.65,-182.28C268.24,-171.94 292.47,-154.77 310.13,-142.25"/>
<polygon fill="#63b8ff" stroke="#63b8ff" points="311.79,-145.36 317.93,-136.73 307.74,-139.65 311.79,-145.36"/>
</a>
</g>
</g>
<!-- Node27&#45;&gt;Node11 -->
<g id="edge32_Node000027_Node000011" class="edge">
<title>Node27&#45;&gt;Node11</title>
<g id="a_edge32_Node000027_Node000011"><a xlink:title=" ">
<path fill="none" stroke="#63b8ff" d="M785.89,-243.07C789.55,-234.17 794.92,-220.13 798,-207.5 808.33,-165.05 813.44,-113.98 815.62,-86.24"/>
<polygon fill="#63b8ff" stroke="#63b8ff" points="819.1,-86.68 816.34,-76.45 812.12,-86.17 819.1,-86.68"/>
</a>
</g>
</g>
<!-- Node27&#45;&gt;Node13 -->
<g id="edge35_Node000027_Node000013" class="edge">
<title>Node27&#45;&gt;Node13</title>
<g id="a_edge35_Node000027_Node000013"><a xlink:title=" ">
<path fill="none" stroke="#63b8ff" d="M731.92,-243.03C708.06,-236.53 680.54,-225.62 661,-207.5 607.4,-157.8 583.3,-69.99 574.81,-30.66"/>
<polygon fill="#63b8ff" stroke="#63b8ff" points="578.26,-30.09 572.85,-20.98 571.4,-31.48 578.26,-30.09"/>
</a>
</g>
</g>
<!-- Node28 -->
<g id="Node000028" class="node">
<title>Node28</title>
<g id="a_Node000028"><a xlink:title=" ">
<polygon fill="#e0e0e0" stroke="#999999" points="724.12,-201.88 669.88,-201.88 669.88,-182.62 724.12,-182.62 724.12,-201.88"/>
<text text-anchor="middle" x="697" y="-187.43" font-family="Helvetica,sans-Serif" font-size="11.00">sstream</text>
</a>
</g>
</g>
<!-- Node27&#45;&gt;Node28 -->
<g id="edge33_Node000027_Node000028" class="edge">
<title>Node27&#45;&gt;Node28</title>
<g id="a_edge33_Node000027_Node000028"><a xlink:title=" ">
<path fill="none" stroke="#63b8ff" d="M769.09,-243.18C755.86,-234.02 735.03,-219.59 719.16,-208.6"/>
<polygon fill="#63b8ff" stroke="#63b8ff" points="721.49,-205.95 711.28,-203.14 717.5,-211.71 721.49,-205.95"/>
</a>
</g>
</g>
<!-- Node29 -->
<g id="Node000029" class="node">
<title>Node29</title>
<g id="a_Node000029"><a xlink:title=" ">
<polygon fill="#e0e0e0" stroke="#999999" points="789.38,-201.88 742.62,-201.88 742.62,-182.62 789.38,-182.62 789.38,-201.88"/>
<text text-anchor="middle" x="766" y="-187.43" font-family="Helvetica,sans-Serif" font-size="11.00">iosfwd</text>
</a>
</g>
</g>
<!-- Node27&#45;&gt;Node29 -->
<g id="edge34_Node000027_Node000029" class="edge">
<title>Node27&#45;&gt;Node29</title>
<g id="a_edge34_Node000027_Node000029"><a xlink:title=" ">
<path fill="none" stroke="#63b8ff" d="M779.57,-243.18C777.41,-235.23 774.17,-223.31 771.4,-213.12"/>
<polygon fill="#63b8ff" stroke="#63b8ff" points="774.85,-212.47 768.85,-203.74 768.09,-214.3 774.85,-212.47"/>
</a>
</g>
</g>
<!-- Node30&#45;&gt;Node12 -->
<g id="edge37_Node000030_Node000012" class="edge">
<title>Node30&#45;&gt;Node12</title>
<g id="a_edge37_Node000030_Node000012"><a xlink:title=" ">
<path fill="none" stroke="#63b8ff" d="M933.16,-480.39C1030.31,-468.3 1277.29,-422.46 1376,-262.75 1400.93,-222.41 1358.9,-170.12 1333.01,-143.67"/>
<polygon fill="#63b8ff" stroke="#63b8ff" points="1335.62,-141.33 1326.04,-136.81 1330.71,-146.32 1335.62,-141.33"/>
</a>
</g>
</g>
<!-- Node30&#45;&gt;Node21 -->
<g id="edge38_Node000030_Node000021" class="edge">
<title>Node30&#45;&gt;Node21</title>
<g id="a_edge38_Node000030_Node000021"><a xlink:title=" ">
<path fill="none" stroke="#63b8ff" d="M852.65,-477.09C849.73,-476.62 846.82,-476.16 844,-475.75 750.57,-462.01 0,-470.31 0,-375.88 0,-375.88 0,-375.88 0,-252.12 0,-204.16 44.96,-163.39 73.67,-142.25"/>
<polygon fill="#63b8ff" stroke="#63b8ff" points="75.32,-145.37 81.45,-136.73 71.27,-139.66 75.32,-145.37"/>
</a>
</g>
</g>
<!-- Node31 -->
<g id="Node000031" class="node">
<title>Node31</title>
<g id="a_Node000031"><a xlink:href="floppy_8h_source.html" target="_top" xlink:title=" ">
<polygon fill="white" stroke="#666666" points="652.5,-439.75 567.5,-439.75 567.5,-420.5 652.5,-420.5 652.5,-439.75"/>
<text text-anchor="middle" x="610" y="-425.3" font-family="Helvetica,sans-Serif" font-size="11.00">floppy/floppy.h</text>
</a>
</g>
</g>
<!-- Node30&#45;&gt;Node31 -->
<g id="edge39_Node000030_Node000031" class="edge">
<title>Node30&#45;&gt;Node31</title>
<g id="a_edge39_Node000030_Node000031"><a xlink:title=" ">
<path fill="none" stroke="#63b8ff" d="M852.75,-476.8C803.32,-467.5 719.26,-451.68 664.18,-441.32"/>
<polygon fill="#63b8ff" stroke="#63b8ff" points="664.85,-437.88 654.37,-439.47 663.55,-444.76 664.85,-437.88"/>
</a>
</g>
</g>
<!-- Node31&#45;&gt;Node4 -->
<g id="edge62_Node000031_Node000004" class="edge">
<title>Node31&#45;&gt;Node4</title>
<g id="a_edge62_Node000031_Node000004"><a xlink:title=" ">
<path fill="none" stroke="#63b8ff" d="M652.84,-423.61C708.95,-416.12 810.26,-401.68 896,-384.5 981.39,-367.39 1079.9,-341.86 1135.28,-326.98"/>
<polygon fill="#63b8ff" stroke="#63b8ff" points="1135.89,-330.44 1144.63,-324.45 1134.07,-323.68 1135.89,-330.44"/>
</a>
</g>
</g>
<!-- Node31&#45;&gt;Node9 -->
<g id="edge60_Node000031_Node000009" class="edge">
<title>Node31&#45;&gt;Node9</title>
<g id="a_edge60_Node000031_Node000009"><a xlink:title=" ">
<path fill="none" stroke="#63b8ff" d="M632.37,-420.09C682.55,-398.95 805.8,-341.95 884,-262.75 898.43,-248.13 909.78,-227.46 916.85,-212.46"/>
<polygon fill="#63b8ff" stroke="#63b8ff" points="919.89,-214.24 920.77,-203.68 913.5,-211.38 919.89,-214.24"/>
</a>
</g>
</g>
<!-- Node31&#45;&gt;Node18 -->
<g id="edge51_Node000031_Node000018" class="edge">
<title>Node31&#45;&gt;Node18</title>
<g id="a_edge51_Node000031_Node000018"><a xlink:title=" ">
<path fill="none" stroke="#63b8ff" d="M567.09,-425.25C502.21,-418.83 382.69,-404.67 345,-384.5 315.27,-368.59 305.43,-360.6 293,-329.25 285.72,-310.9 292.21,-288.64 298.98,-273.14"/>
<polygon fill="#63b8ff" stroke="#63b8ff" points="301.93,-275.09 303.11,-264.56 295.62,-272.05 301.93,-275.09"/>
</a>
</g>
</g>
<!-- Node31&#45;&gt;Node20 -->
<g id="edge73_Node000031_Node000020" class="edge">
<title>Node31&#45;&gt;Node20</title>
<g id="a_edge73_Node000031_Node000020"><a xlink:title=" ">
<path fill="none" stroke="#63b8ff" d="M567.26,-427.12C472.26,-422.29 246.28,-408.57 174,-384.5 128.75,-369.43 105.49,-370.76 82,-329.25 61.78,-293.53 82.28,-245.61 98.49,-217.22"/>
<polygon fill="#63b8ff" stroke="#63b8ff" points="101.28,-219.39 103.41,-209.01 95.27,-215.79 101.28,-219.39"/>
</a>
</g>
</g>
<!-- Node31&#45;&gt;Node22 -->
<g id="edge74_Node000031_Node000022" class="edge">
<title>Node31&#45;&gt;Node22</title>
<g id="a_edge74_Node000031_Node000022"><a xlink:title=" ">
<path fill="none" stroke="#63b8ff" d="M567.21,-427.14C494.88,-423.07 352.28,-411.75 311,-384.5 257.96,-349.49 253.32,-323.9 236,-262.75 231.36,-246.37 233.33,-226.99 236.05,-212.86"/>
<polygon fill="#63b8ff" stroke="#63b8ff" points="239.38,-214 238.15,-203.48 232.55,-212.47 239.38,-214"/>
</a>
</g>
</g>
<!-- Node31&#45;&gt;Node27 -->
<g id="edge61_Node000031_Node000027" class="edge">
<title>Node31&#45;&gt;Node27</title>
<g id="a_edge61_Node000031_Node000027"><a xlink:title=" ">
<path fill="none" stroke="#63b8ff" d="M618.77,-420.21C646.02,-392.48 729.57,-307.47 765.4,-271.01"/>
<polygon fill="#63b8ff" stroke="#63b8ff" points="767.47,-273.9 771.98,-264.32 762.48,-268.99 767.47,-273.9"/>
</a>
</g>
</g>
<!-- Node32 -->
<g id="Node000032" class="node">
<title>Node32</title>
<g id="a_Node000032"><a xlink:href="backports_8h_source.html" target="_top" xlink:title=" ">
<polygon fill="white" stroke="#666666" points="544.12,-323.62 411.88,-323.62 411.88,-304.38 544.12,-304.38 544.12,-323.62"/>
<text text-anchor="middle" x="478" y="-309.18" font-family="Helvetica,sans-Serif" font-size="11.00">floppy/detail/backports.h</text>
</a>
</g>
</g>
<!-- Node31&#45;&gt;Node32 -->
<g id="edge40_Node000031_Node000032" class="edge">
<title>Node31&#45;&gt;Node32</title>
<g id="a_edge40_Node000031_Node000032"><a xlink:title=" ">
<path fill="none" stroke="#63b8ff" d="M599.64,-420.17C577.47,-401 525.15,-355.77 496.89,-331.33"/>
<polygon fill="#63b8ff" stroke="#63b8ff" points="499.31,-328.8 489.45,-324.9 494.73,-334.09 499.31,-328.8"/>
</a>
</g>
</g>
<!-- Node34 -->
<g id="Node000034" class="node">
<title>Node34</title>
<g id="a_Node000034"><a xlink:href="platform_8h_source.html" target="_top" xlink:title=" ">
<polygon fill="white" stroke="#666666" points="697,-262.75 573,-262.75 573,-243.5 697,-243.5 697,-262.75"/>
<text text-anchor="middle" x="635" y="-248.3" font-family="Helvetica,sans-Serif" font-size="11.00">floppy/detail/platform.h</text>
</a>
</g>
</g>
<!-- Node31&#45;&gt;Node34 -->
<g id="edge70_Node000031_Node000034" class="edge">
<title>Node31&#45;&gt;Node34</title>
<g id="a_edge70_Node000031_Node000034"><a xlink:title=" ">
<path fill="none" stroke="#63b8ff" d="M613.5,-420.05C616.77,-411.14 621.53,-397.09 624,-384.5 631.57,-345.98 633.93,-300.06 634.67,-274.28"/>
<polygon fill="#63b8ff" stroke="#63b8ff" points="638.16,-274.66 634.89,-264.58 631.16,-274.5 638.16,-274.66"/>
</a>
</g>
</g>
<!-- Node35 -->
<g id="Node000035" class="node">
<title>Node35</title>
<g id="a_Node000035"><a xlink:href="predefs_8h_source.html" target="_top" xlink:title=" ">
<polygon fill="white" stroke="#666666" points="607.5,-201.88 486.5,-201.88 486.5,-182.62 607.5,-182.62 607.5,-201.88"/>
<text text-anchor="middle" x="547" y="-187.43" font-family="Helvetica,sans-Serif" font-size="11.00">floppy/detail/predefs.h</text>
</a>
</g>
</g>
<!-- Node31&#45;&gt;Node35 -->
<g id="edge71_Node000031_Node000035" class="edge">
<title>Node31&#45;&gt;Node35</title>
<g id="a_edge71_Node000031_Node000035"><a xlink:title=" ">
<path fill="none" stroke="#63b8ff" d="M607.41,-420.13C600.26,-395.2 579.71,-323.07 564,-262.75 559.68,-246.18 555.09,-227.31 551.77,-213.42"/>
<polygon fill="#63b8ff" stroke="#63b8ff" points="555.18,-212.66 549.47,-203.74 548.37,-214.28 555.18,-212.66"/>
</a>
</g>
</g>
<!-- Node36 -->
<g id="Node000036" class="node">
<title>Node36</title>
<g id="a_Node000036"><a xlink:href="corefn_8h_source.html" target="_top" xlink:title=" ">
<polygon fill="white" stroke="#666666" points="468.5,-384.5 353.5,-384.5 353.5,-365.25 468.5,-365.25 468.5,-384.5"/>
<text text-anchor="middle" x="411" y="-370.05" font-family="Helvetica,sans-Serif" font-size="11.00">floppy/detail/corefn.h</text>
</a>
</g>
</g>
<!-- Node31&#45;&gt;Node36 -->
<g id="edge52_Node000031_Node000036" class="edge">
<title>Node31&#45;&gt;Node36</title>
<g id="a_edge52_Node000031_Node000036"><a xlink:title=" ">
<path fill="none" stroke="#63b8ff" d="M576.24,-420.09C543.08,-411.22 492.28,-397.62 455.76,-387.85"/>
<polygon fill="#63b8ff" stroke="#63b8ff" points="456.95,-384.55 446.39,-385.34 455.14,-391.31 456.95,-384.55"/>
</a>
</g>
</g>
<!-- Node38 -->
<g id="Node000038" class="node">
<title>Node38</title>
<g id="a_Node000038"><a xlink:href="print__helpers_8h_source.html" target="_top" xlink:title=" ">
<polygon fill="white" stroke="#666666" points="188.5,-329.25 91.5,-329.25 91.5,-298.75 188.5,-298.75 188.5,-329.25"/>
<text text-anchor="start" x="99.5" y="-314.8" font-family="Helvetica,sans-Serif" font-size="11.00">floppy/detail/print</text>
<text text-anchor="middle" x="140" y="-303.55" font-family="Helvetica,sans-Serif" font-size="11.00">_helpers.h</text>
</a>
</g>
</g>
<!-- Node31&#45;&gt;Node38 -->
<g id="edge72_Node000031_Node000038" class="edge">
<title>Node31&#45;&gt;Node38</title>
<g id="a_edge72_Node000031_Node000038"><a xlink:title=" ">
<path fill="none" stroke="#63b8ff" d="M567.14,-428.24C475.93,-425.73 265.84,-416.57 203,-384.5 182.82,-374.2 165.97,-354.57 154.78,-338.79"/>
<polygon fill="#63b8ff" stroke="#63b8ff" points="157.91,-337.17 149.42,-330.84 152.11,-341.09 157.91,-337.17"/>
</a>
</g>
</g>
<!-- Node40 -->
<g id="Node000040" class="node">
<title>Node40</title>
<g id="a_Node000040"><a xlink:href="memory_8h_source.html" target="_top" xlink:title=" ">
<polygon fill="white" stroke="#666666" points="1066.62,-323.62 943.38,-323.62 943.38,-304.38 1066.62,-304.38 1066.62,-323.62"/>
<text text-anchor="middle" x="1005" y="-309.18" font-family="Helvetica,sans-Serif" font-size="11.00">floppy/detail/memory.h</text>
</a>
</g>
</g>
<!-- Node31&#45;&gt;Node40 -->
<g id="edge63_Node000031_Node000040" class="edge">
<title>Node31&#45;&gt;Node40</title>
<g id="a_edge63_Node000031_Node000040"><a xlink:title=" ">
<path fill="none" stroke="#63b8ff" d="M652.6,-425.14C703.24,-419.59 789.83,-407.52 861,-384.5 884.1,-377.03 942.85,-347.32 977.76,-329.25"/>
<polygon fill="#63b8ff" stroke="#63b8ff" points="979.16,-332.47 986.42,-324.76 975.93,-326.26 979.16,-332.47"/>
</a>
</g>
</g>
<!-- Node32&#45;&gt;Node13 -->
<g id="edge43_Node000032_Node000013" class="edge">
<title>Node32&#45;&gt;Node13</title>
<g id="a_edge43_Node000032_Node000013"><a xlink:title=" ">
<path fill="none" stroke="#63b8ff" d="M473.47,-304.02C468.77,-294.19 461.75,-277.8 459,-262.75 457.46,-254.33 457.81,-251.97 459,-243.5 471.17,-156.59 530.13,-66.53 557.27,-28.88"/>
<polygon fill="#63b8ff" stroke="#63b8ff" points="560.03,-31.05 563.12,-20.92 554.38,-26.9 560.03,-31.05"/>
</a>
</g>
</g>
<!-- Node32&#45;&gt;Node18 -->
<g id="edge49_Node000032_Node000018" class="edge">
<title>Node32&#45;&gt;Node18</title>
<g id="a_edge49_Node000032_Node000018"><a xlink:title=" ">
<path fill="none" stroke="#63b8ff" d="M451.96,-303.93C423.56,-294.03 377.85,-278.11 345.79,-266.94"/>
<polygon fill="#63b8ff" stroke="#63b8ff" points="347.09,-263.69 336.49,-263.7 344.79,-270.3 347.09,-263.69"/>
</a>
</g>
</g>
<!-- Node32&#45;&gt;Node24 -->
<g id="edge41_Node000032_Node000024" class="edge">
<title>Node32&#45;&gt;Node24</title>
<g id="a_edge41_Node000032_Node000024"><a xlink:title=" ">
<path fill="none" stroke="#63b8ff" d="M463.14,-303.97C450.33,-295.23 432.71,-280.69 425,-262.75 407.95,-223.1 429.26,-172.62 443.73,-145.69"/>
<polygon fill="#63b8ff" stroke="#63b8ff" points="446.76,-147.44 448.63,-137.01 440.67,-144 446.76,-147.44"/>
</a>
</g>
</g>
<!-- Node32&#45;&gt;Node27 -->
<g id="edge50_Node000032_Node000027" class="edge">
<title>Node32&#45;&gt;Node27</title>
<g id="a_edge50_Node000032_Node000027"><a xlink:title=" ">
<path fill="none" stroke="#63b8ff" d="M524.83,-303.93C578.39,-293.56 666.11,-276.57 723.96,-265.37"/>
<polygon fill="#63b8ff" stroke="#63b8ff" points="724.47,-268.83 733.63,-263.49 723.14,-261.96 724.47,-268.83"/>
</a>
</g>
</g>
<!-- Node33 -->
<g id="Node000033" class="node">
<title>Node33</title>
<g id="a_Node000033"><a xlink:title=" ">
<polygon fill="#e0e0e0" stroke="#999999" points="516.5,-262.75 467.5,-262.75 467.5,-243.5 516.5,-243.5 516.5,-262.75"/>
<text text-anchor="middle" x="492" y="-248.3" font-family="Helvetica,sans-Serif" font-size="11.00">ranges</text>
</a>
</g>
</g>
<!-- Node32&#45;&gt;Node33 -->
<g id="edge42_Node000032_Node000033" class="edge">
<title>Node32&#45;&gt;Node33</title>
<g id="a_edge42_Node000032_Node000033"><a xlink:title=" ">
<path fill="none" stroke="#63b8ff" d="M480.13,-304.06C482,-296.19 484.79,-284.45 487.2,-274.32"/>
<polygon fill="#63b8ff" stroke="#63b8ff" points="490.6,-275.16 489.5,-264.62 483.79,-273.54 490.6,-275.16"/>
</a>
</g>
</g>
<!-- Node32&#45;&gt;Node34 -->
<g id="edge44_Node000032_Node000034" class="edge">
<title>Node32&#45;&gt;Node34</title>
<g id="a_edge44_Node000032_Node000034"><a xlink:title=" ">
<path fill="none" stroke="#63b8ff" d="M502.19,-303.93C528.35,-294.12 570.29,-278.39 600.04,-267.23"/>
<polygon fill="#63b8ff" stroke="#63b8ff" points="601.23,-270.53 609.37,-263.74 598.78,-263.97 601.23,-270.53"/>
</a>
</g>
</g>
<!-- Node34&#45;&gt;Node6 -->
<g id="edge45_Node000034_Node000006" class="edge">
<title>Node34&#45;&gt;Node6</title>
<g id="a_edge45_Node000034_Node000006"><a xlink:title=" ">
<path fill="none" stroke="#63b8ff" d="M697.44,-244.54C784.16,-233.98 936.64,-215.25 992,-207.5 1012.12,-204.68 1034.67,-201.2 1052.41,-198.38"/>
<polygon fill="#63b8ff" stroke="#63b8ff" points="1052.75,-201.87 1062.07,-196.83 1051.64,-194.96 1052.75,-201.87"/>
</a>
</g>
</g>
<!-- Node34&#45;&gt;Node9 -->
<g id="edge46_Node000034_Node000009" class="edge">
<title>Node34&#45;&gt;Node9</title>
<g id="a_edge46_Node000034_Node000009"><a xlink:title=" ">
<path fill="none" stroke="#63b8ff" d="M679.68,-243.05C730.66,-232.7 814.1,-215.76 869.29,-204.56"/>
<polygon fill="#63b8ff" stroke="#63b8ff" points="869.69,-208.05 878.79,-202.63 868.29,-201.19 869.69,-208.05"/>
</a>
</g>
</g>
<!-- Node34&#45;&gt;Node22 -->
<g id="edge47_Node000034_Node000022" class="edge">
<title>Node34&#45;&gt;Node22</title>
<g id="a_edge47_Node000034_Node000022"><a xlink:title=" ">
<path fill="none" stroke="#63b8ff" d="M572.61,-245.19C506.27,-237.46 398.37,-223.86 306,-207.5 301.13,-206.64 296.08,-205.67 291.03,-204.65"/>
<polygon fill="#63b8ff" stroke="#63b8ff" points="292.07,-201.29 281.56,-202.67 290.64,-208.14 292.07,-201.29"/>
</a>
</g>
</g>
<!-- Node34&#45;&gt;Node35 -->
<g id="edge48_Node000034_Node000035" class="edge">
<title>Node34&#45;&gt;Node35</title>
<g id="a_edge48_Node000034_Node000035"><a xlink:title=" ">
<path fill="none" stroke="#63b8ff" d="M621.63,-243.18C607.94,-234.02 586.38,-219.59 569.94,-208.6"/>
<polygon fill="#63b8ff" stroke="#63b8ff" points="572.01,-205.77 561.75,-203.12 568.11,-211.59 572.01,-205.77"/>
</a>
</g>
</g>
<!-- Node36&#45;&gt;Node9 -->
<g id="edge54_Node000036_Node000009" class="edge">
<title>Node36&#45;&gt;Node9</title>
<g id="a_edge54_Node000036_Node000009"><a xlink:title=" ">
<path fill="none" stroke="#63b8ff" d="M468.76,-369.74C557.78,-361.2 731.45,-335.83 858,-262.75 880.6,-249.7 900.49,-226.82 912.61,-210.89"/>
<polygon fill="#63b8ff" stroke="#63b8ff" points="915.13,-213.38 918.21,-203.24 909.48,-209.24 915.13,-213.38"/>
</a>
</g>
</g>
<!-- Node36&#45;&gt;Node18 -->
<g id="edge56_Node000036_Node000018" class="edge">
<title>Node36&#45;&gt;Node18</title>
<g id="a_edge56_Node000036_Node000018"><a xlink:title=" ">
<path fill="none" stroke="#63b8ff" d="M406.79,-364.88C399.58,-350.07 383.84,-320.07 365,-298.75 355.42,-287.91 342.98,-277.7 332.25,-269.79"/>
<polygon fill="#63b8ff" stroke="#63b8ff" points="334.43,-267.05 324.26,-264.1 330.37,-272.75 334.43,-267.05"/>
</a>
</g>
</g>
<!-- Node36&#45;&gt;Node32 -->
<g id="edge55_Node000036_Node000032" class="edge">
<title>Node36&#45;&gt;Node32</title>
<g id="a_edge55_Node000036_Node000032"><a xlink:title=" ">
<path fill="none" stroke="#63b8ff" d="M421.18,-364.93C431.21,-356.12 446.79,-342.43 459.1,-331.61"/>
<polygon fill="#63b8ff" stroke="#63b8ff" points="461.39,-334.26 466.59,-325.03 456.77,-329 461.39,-334.26"/>
</a>
</g>
</g>
<!-- Node37 -->
<g id="Node000037" class="node">
<title>Node37</title>
<g id="a_Node000037"><a xlink:title=" ">
<polygon fill="#e0e0e0" stroke="#999999" points="355.75,-323.62 302.25,-323.62 302.25,-304.38 355.75,-304.38 355.75,-323.62"/>
<text text-anchor="middle" x="329" y="-309.18" font-family="Helvetica,sans-Serif" font-size="11.00">typeinfo</text>
</a>
</g>
</g>
<!-- Node36&#45;&gt;Node37 -->
<g id="edge53_Node000036_Node000037" class="edge">
<title>Node36&#45;&gt;Node37</title>
<g id="a_edge53_Node000036_Node000037"><a xlink:title=" ">
<path fill="none" stroke="#63b8ff" d="M398.55,-364.93C385.9,-355.86 366.07,-341.62 350.81,-330.66"/>
<polygon fill="#63b8ff" stroke="#63b8ff" points="352.97,-327.9 342.8,-324.91 348.88,-333.58 352.97,-327.9"/>
</a>
</g>
</g>
<!-- Node36&#45;&gt;Node38 -->
<g id="edge57_Node000036_Node000038" class="edge">
<title>Node36&#45;&gt;Node38</title>
<g id="a_edge57_Node000036_Node000038"><a xlink:title=" ">
<path fill="none" stroke="#63b8ff" d="M369.25,-364.8C323.88,-354.95 251.01,-339.12 199.62,-327.95"/>
<polygon fill="#63b8ff" stroke="#63b8ff" points="200.67,-324.6 190.15,-325.9 199.18,-331.44 200.67,-324.6"/>
</a>
</g>
</g>
<!-- Node38&#45;&gt;Node13 -->
<g id="edge58_Node000038_Node000013" class="edge">
<title>Node38&#45;&gt;Node13</title>
<g id="a_edge58_Node000038_Node000013"><a xlink:title=" ">
<path fill="none" stroke="#63b8ff" d="M124.51,-298.49C88.46,-263.01 5.62,-170.35 55,-110.5 114.09,-38.88 405.33,-18.01 522.27,-12.47"/>
<polygon fill="#63b8ff" stroke="#63b8ff" points="522.34,-15.97 532.17,-12.02 522.02,-8.97 522.34,-15.97"/>
</a>
</g>
</g>
<!-- Node39 -->
<g id="Node000039" class="node">
<title>Node39</title>
<g id="a_Node000039"><a xlink:title=" ">
<polygon fill="#e0e0e0" stroke="#999999" points="172.75,-262.75 107.25,-262.75 107.25,-243.5 172.75,-243.5 172.75,-262.75"/>
<text text-anchor="middle" x="140" y="-248.3" font-family="Helvetica,sans-Serif" font-size="11.00">fmt/color.h</text>
</a>
</g>
</g>
<!-- Node38&#45;&gt;Node39 -->
<g id="edge59_Node000038_Node000039" class="edge">
<title>Node38&#45;&gt;Node39</title>
<g id="a_edge59_Node000038_Node000039"><a xlink:title=" ">
<path fill="none" stroke="#63b8ff" d="M140,-298.45C140,-291.21 140,-282.34 140,-274.44"/>
<polygon fill="#63b8ff" stroke="#63b8ff" points="143.5,-274.71 140,-264.71 136.5,-274.71 143.5,-274.71"/>
</a>
</g>
</g>
<!-- Node40&#45;&gt;Node8 -->
<g id="edge65_Node000040_Node000008" class="edge">
<title>Node40&#45;&gt;Node8</title>
<g id="a_edge65_Node000040_Node000008"><a xlink:title=" ">
<path fill="none" stroke="#63b8ff" d="M1017,-304.06C1029.18,-294.98 1048.29,-280.74 1062.98,-269.79"/>
<polygon fill="#63b8ff" stroke="#63b8ff" points="1064.75,-272.84 1070.68,-264.06 1060.57,-267.22 1064.75,-272.84"/>
</a>
</g>
</g>
<!-- Node40&#45;&gt;Node9 -->
<g id="edge67_Node000040_Node000009" class="edge">
<title>Node40&#45;&gt;Node9</title>
<g id="a_edge67_Node000040_Node000009"><a xlink:title=" ">
<path fill="none" stroke="#63b8ff" d="M998.99,-304C985.96,-284.49 954.89,-237.99 937.44,-211.87"/>
<polygon fill="#63b8ff" stroke="#63b8ff" points="940.39,-209.98 931.92,-203.61 934.57,-213.87 940.39,-209.98"/>
</a>
</g>
</g>
<!-- Node40&#45;&gt;Node17 -->
<g id="edge66_Node000040_Node000017" class="edge">
<title>Node40&#45;&gt;Node17</title>
<g id="a_edge66_Node000040_Node000017"><a xlink:title=" ">
<path fill="none" stroke="#63b8ff" d="M1046.24,-303.89C1097.69,-289.82 1179,-257.42 1179,-193.25 1179,-193.25 1179,-193.25 1179,-124.75 1179,-91.77 1172.38,-81.94 1153,-55.25 1144.67,-43.77 1132.64,-33.66 1121.87,-25.98"/>
<polygon fill="#63b8ff" stroke="#63b8ff" points="1123.97,-23.18 1113.72,-20.49 1120.05,-28.98 1123.97,-23.18"/>
</a>
</g>
</g>
<!-- Node40&#45;&gt;Node18 -->
<g id="edge69_Node000040_Node000018" class="edge">
<title>Node40&#45;&gt;Node18</title>
<g id="a_edge69_Node000040_Node000018"><a xlink:title=" ">
<path fill="none" stroke="#63b8ff" d="M942.93,-307.75C815.17,-296.94 523.18,-272.24 384.64,-260.52"/>
<polygon fill="#63b8ff" stroke="#63b8ff" points="385.09,-257.05 374.83,-259.69 384.5,-264.02 385.09,-257.05"/>
</a>
</g>
</g>
<!-- Node40&#45;&gt;Node27 -->
<g id="edge68_Node000040_Node000027" class="edge">
<title>Node40&#45;&gt;Node27</title>
<g id="a_edge68_Node000040_Node000027"><a xlink:title=" ">
<path fill="none" stroke="#63b8ff" d="M970.64,-303.93C932.26,-293.8 869.95,-277.34 827.53,-266.14"/>
<polygon fill="#63b8ff" stroke="#63b8ff" points="828.42,-262.76 817.86,-263.59 826.63,-269.53 828.42,-262.76"/>
</a>
</g>
</g>
<!-- Node41 -->
<g id="Node000041" class="node">
<title>Node41</title>
<g id="a_Node000041"><a xlink:title=" ">
<polygon fill="#e0e0e0" stroke="#999999" points="1036.5,-262.75 981.5,-262.75 981.5,-243.5 1036.5,-243.5 1036.5,-262.75"/>
<text text-anchor="middle" x="1009" y="-248.3" font-family="Helvetica,sans-Serif" font-size="11.00">memory</text>
</a>
</g>
</g>
<!-- Node40&#45;&gt;Node41 -->
<g id="edge64_Node000040_Node000041" class="edge">
<title>Node40&#45;&gt;Node41</title>
<g id="a_edge64_Node000040_Node000041"><a xlink:title=" ">
<path fill="none" stroke="#63b8ff" d="M1005.61,-304.06C1006.14,-296.19 1006.94,-284.45 1007.63,-274.32"/>
<polygon fill="#63b8ff" stroke="#63b8ff" points="1011.1,-274.88 1008.28,-264.66 1004.11,-274.4 1011.1,-274.88"/>
</a>
</g>
</g>
</g>
</svg>
