<?xml version="1.0" encoding="UTF-8" standalone="no"?>
<!DOCTYPE svg PUBLIC "-//W3C//DTD SVG 1.1//EN"
 "http://www.w3.org/Graphics/SVG/1.1/DTD/svg11.dtd">
<!-- Generated by graphviz version 10.0.1 (0)
 -->
<!-- Title: graphics.h Pages: 1 -->
<!--zoomable 503 -->

<svg id="main" version="1.1" xmlns="http://www.w3.org/2000/svg" xmlns:xlink="http://www.w3.org/1999/xlink" xml:space="preserve" onload="init(evt)">
<style type="text/css"><![CDATA[
.node, .edge {opacity: 0.7;}
.node.selected, .edge.selected {opacity: 1;}
.edge:hover path { stroke: red; }
.edge:hover polygon { stroke: red; fill: red; }
]]></style>

<defs>
  <circle id="rim" cx="0" cy="0" r="7"/>
  <circle id="rim2" cx="0" cy="0" r="3.5"/>
  <g id="zoomPlus">
    <use xlink:href="#rim" fill="#404040"><set attributeName="fill" to="#808080" begin="zoomplus.mouseover" end="zoomplus.mouseout"/></use>
    <path d="M-4,0h8M0,-4v8" fill="none" stroke="white" stroke-width="1.5" pointer-events="none"/>
  </g>
  <g id="zoomMin">
    <use xlink:href="#rim" fill="#404040"><set attributeName="fill" to="#808080" begin="zoomminus.mouseover" end="zoomminus.mouseout"/></use>
    <path d="M-4,0h8" fill="none" stroke="white" stroke-width="1.5" pointer-events="none"/>
  </g>
  <g id="arrowUp" transform="translate(30 24)">
    <use xlink:href="#rim"/>
    <path pointer-events="none" fill="none" stroke="white" stroke-width="1.5" d="M0,-3.0v7 M-2.5,-0.5L0,-3.0L2.5,-0.5"/>
  </g>
  <g id="arrowRight" transform="rotate(90) translate(36 -43)">
    <use xlink:href="#rim"/>
    <path pointer-events="none" fill="none" stroke="white" stroke-width="1.5" d="M0,-3.0v7 M-2.5,-0.5L0,-3.0L2.5,-0.5"/>
  </g>
  <g id="arrowDown" transform="rotate(180) translate(-30 -48)">
    <use xlink:href="#rim"/>
    <path pointer-events="none" fill="none" stroke="white" stroke-width="1.5" d="M0,-3.0v7 M-2.5,-0.5L0,-3.0L2.5,-0.5"/>
  </g>
  <g id="arrowLeft" transform="rotate(270) translate(-36 17)">
    <use xlink:href="#rim"/>
    <path pointer-events="none" fill="none" stroke="white" stroke-width="1.5" d="M0,-3.0v7 M-2.5,-0.5L0,-3.0L2.5,-0.5"/>
  </g>
  <g id="resetDef">
    <use xlink:href="#rim2" fill="#404040"><set attributeName="fill" to="#808080" begin="reset.mouseover" end="reset.mouseout"/></use>
  </g>
</defs>
<script type="application/ecmascript">
var viewWidth = 1397;
var viewHeight = 503;
var sectionId = 'dynsection-0';
</script>
<script type="application/ecmascript" xlink:href="svg.min.js"/>
<svg id="graph" class="graph">
<g id="viewport">
<title>graphics.h</title>
<!-- Node1 -->
<g id="Node000001" class="node">
<title>Node1</title>
<g id="a_Node000001"><a xlink:title="Classes and functions related to graphics and drawing.">
<polygon fill="#999999" stroke="#666666" points="275.62,-495 210.12,-495 210.12,-475.75 275.62,-475.75 275.62,-495"/>
<text text-anchor="middle" x="242.88" y="-480.55" font-family="Helvetica,sans-Serif" font-size="11.00">graphics.h</text>
</a>
</g>
</g>
<!-- Node2 -->
<g id="Node000002" class="node">
<title>Node2</title>
<g id="a_Node000002"><a xlink:href="color_8h.html" target="_top" xlink:title="Class representing a color.">
<polygon fill="white" stroke="#666666" points="304.12,-439.75 181.62,-439.75 181.62,-420.5 304.12,-420.5 304.12,-439.75"/>
<text text-anchor="middle" x="242.88" y="-425.3" font-family="Helvetica,sans-Serif" font-size="11.00">floppy/graphics/color.h</text>
</a>
</g>
</g>
<!-- Node1&#45;&gt;Node2 -->
<g id="edge1_Node000001_Node000002" class="edge">
<title>Node1&#45;&gt;Node2</title>
<g id="a_edge1_Node000001_Node000002"><a xlink:title=" ">
<path fill="none" stroke="#63b8ff" d="M242.88,-475.58C242.88,-469.07 242.88,-459.92 242.88,-451.62"/>
<polygon fill="#63b8ff" stroke="#63b8ff" points="246.38,-451.62 242.88,-441.62 239.38,-451.62 246.38,-451.62"/>
</a>
</g>
</g>
<!-- Node3 -->
<g id="Node000003" class="node">
<title>Node3</title>
<g id="a_Node000003"><a xlink:title=" ">
<polygon fill="#e0e0e0" stroke="#999999" points="177.25,-384.5 136.5,-384.5 136.5,-365.25 177.25,-365.25 177.25,-384.5"/>
<text text-anchor="middle" x="156.88" y="-370.05" font-family="Helvetica,sans-Serif" font-size="11.00">array</text>
</a>
</g>
</g>
<!-- Node2&#45;&gt;Node3 -->
<g id="edge2_Node000002_Node000003" class="edge">
<title>Node2&#45;&gt;Node3</title>
<g id="a_edge2_Node000002_Node000003"><a xlink:title=" ">
<path fill="none" stroke="#63b8ff" d="M228.29,-420.09C215.44,-412.14 196.46,-400.39 181.3,-391"/>
<polygon fill="#63b8ff" stroke="#63b8ff" points="183.17,-388.04 172.82,-385.75 179.48,-393.99 183.17,-388.04"/>
</a>
</g>
</g>
<!-- Node4 -->
<g id="Node000004" class="node">
<title>Node4</title>
<g id="a_Node000004"><a xlink:href="math_8h_source.html" target="_top" xlink:title=" ">
<polygon fill="white" stroke="#666666" points="584.38,-201.88 475.38,-201.88 475.38,-182.62 584.38,-182.62 584.38,-201.88"/>
<text text-anchor="middle" x="529.88" y="-187.43" font-family="Helvetica,sans-Serif" font-size="11.00">floppy/detail/math.h</text>
</a>
</g>
</g>
<!-- Node2&#45;&gt;Node4 -->
<g id="edge3_Node000002_Node000004" class="edge">
<title>Node2&#45;&gt;Node4</title>
<g id="a_edge3_Node000002_Node000004"><a xlink:title=" ">
<path fill="none" stroke="#63b8ff" d="M253.78,-420.17C296.75,-384.85 454.81,-254.94 510.39,-209.27"/>
<polygon fill="#63b8ff" stroke="#63b8ff" points="512.29,-212.23 517.79,-203.18 507.85,-206.82 512.29,-212.23"/>
</a>
</g>
</g>
<!-- Node22 -->
<g id="Node000022" class="node">
<title>Node22</title>
<g id="a_Node000022"><a xlink:href="formatters_8h_source.html" target="_top" xlink:title=" ">
<polygon fill="white" stroke="#666666" points="133.75,-141 0,-141 0,-121.75 133.75,-121.75 133.75,-141"/>
<text text-anchor="middle" x="66.88" y="-126.55" font-family="Helvetica,sans-Serif" font-size="11.00">floppy/detail/formatters.h</text>
</a>
</g>
</g>
<!-- Node2&#45;&gt;Node22 -->
<g id="edge23_Node000002_Node000022" class="edge">
<title>Node2&#45;&gt;Node22</title>
<g id="a_edge23_Node000002_Node000022"><a xlink:title=" ">
<path fill="none" stroke="#63b8ff" d="M237.59,-420C227.15,-401.08 204.88,-355.93 204.88,-315 204.88,-315 204.88,-315 204.88,-252.12 204.88,-198.4 144.47,-163.35 103.59,-145.78"/>
<polygon fill="#63b8ff" stroke="#63b8ff" points="105.14,-142.63 94.56,-142.06 102.47,-149.1 105.14,-142.63"/>
</a>
</g>
</g>
<!-- Node25 -->
<g id="Node000025" class="node">
<title>Node25</title>
<g id="a_Node000025"><a xlink:href="traits_8h_source.html" target="_top" xlink:title=" ">
<polygon fill="white" stroke="#666666" points="584.75,-384.5 505,-384.5 505,-365.25 584.75,-365.25 584.75,-384.5"/>
<text text-anchor="middle" x="544.88" y="-370.05" font-family="Helvetica,sans-Serif" font-size="11.00">floppy/traits.h</text>
</a>
</g>
</g>
<!-- Node2&#45;&gt;Node25 -->
<g id="edge28_Node000002_Node000025" class="edge">
<title>Node2&#45;&gt;Node25</title>
<g id="a_edge28_Node000002_Node000025"><a xlink:title=" ">
<path fill="none" stroke="#63b8ff" d="M294.45,-420.03C349.97,-410.24 437.77,-394.76 493.29,-384.97"/>
<polygon fill="#63b8ff" stroke="#63b8ff" points="493.9,-388.42 503.14,-383.23 492.68,-381.52 493.9,-388.42"/>
</a>
</g>
</g>
<!-- Node39 -->
<g id="Node000039" class="node">
<title>Node39</title>
<g id="a_Node000039"><a xlink:title=" ">
<polygon fill="#e0e0e0" stroke="#999999" points="656.62,-384.5 603.12,-384.5 603.12,-365.25 656.62,-365.25 656.62,-384.5"/>
<text text-anchor="middle" x="629.88" y="-370.05" font-family="Helvetica,sans-Serif" font-size="11.00">qcolor.h</text>
</a>
</g>
</g>
<!-- Node2&#45;&gt;Node39 -->
<g id="edge67_Node000002_Node000039" class="edge">
<title>Node2&#45;&gt;Node39</title>
<g id="a_edge67_Node000002_Node000039"><a xlink:title=" ">
<path fill="none" stroke="#63b8ff" d="M304.37,-423.35C372.29,-416.52 485.07,-403.83 591.54,-384.74"/>
<polygon fill="#63b8ff" stroke="#63b8ff" points="592.11,-388.19 601.33,-382.96 590.86,-381.31 592.11,-388.19"/>
</a>
</g>
</g>
<!-- Node5 -->
<g id="Node000005" class="node">
<title>Node5</title>
<g id="a_Node000005"><a xlink:title=" ">
<polygon fill="#e0e0e0" stroke="#999999" points="577.5,-141 532.25,-141 532.25,-121.75 577.5,-121.75 577.5,-141"/>
<text text-anchor="middle" x="554.88" y="-126.55" font-family="Helvetica,sans-Serif" font-size="11.00">cmath</text>
</a>
</g>
</g>
<!-- Node4&#45;&gt;Node5 -->
<g id="edge4_Node000004_Node000005" class="edge">
<title>Node4&#45;&gt;Node5</title>
<g id="a_edge4_Node000004_Node000005"><a xlink:title=" ">
<path fill="none" stroke="#63b8ff" d="M533.67,-182.31C537.09,-174.27 542.22,-162.18 546.58,-151.91"/>
<polygon fill="#63b8ff" stroke="#63b8ff" points="549.76,-153.37 550.45,-142.79 543.32,-150.63 549.76,-153.37"/>
</a>
</g>
</g>
<!-- Node6 -->
<g id="Node000006" class="node">
<title>Node6</title>
<g id="a_Node000006"><a xlink:title=" ">
<polygon fill="#e0e0e0" stroke="#999999" points="759.88,-80.12 719.88,-80.12 719.88,-60.88 759.88,-60.88 759.88,-80.12"/>
<text text-anchor="middle" x="739.88" y="-65.67" font-family="Helvetica,sans-Serif" font-size="11.00">limits</text>
</a>
</g>
</g>
<!-- Node4&#45;&gt;Node6 -->
<g id="edge5_Node000004_Node000006" class="edge">
<title>Node4&#45;&gt;Node6</title>
<g id="a_edge5_Node000004_Node000006"><a xlink:title=" ">
<path fill="none" stroke="#63b8ff" d="M545.66,-182.25C581.61,-161.75 669.89,-111.41 713.96,-86.28"/>
<polygon fill="#63b8ff" stroke="#63b8ff" points="715.64,-89.35 722.59,-81.35 712.17,-83.27 715.64,-89.35"/>
</a>
</g>
</g>
<!-- Node7 -->
<g id="Node000007" class="node">
<title>Node7</title>
<g id="a_Node000007"><a xlink:title=" ">
<polygon fill="#e0e0e0" stroke="#999999" points="513.88,-141 455.88,-141 455.88,-121.75 513.88,-121.75 513.88,-141"/>
<text text-anchor="middle" x="484.88" y="-126.55" font-family="Helvetica,sans-Serif" font-size="11.00">numbers</text>
</a>
</g>
</g>
<!-- Node4&#45;&gt;Node7 -->
<g id="edge6_Node000004_Node000007" class="edge">
<title>Node4&#45;&gt;Node7</title>
<g id="a_edge6_Node000004_Node000007"><a xlink:title=" ">
<path fill="none" stroke="#63b8ff" d="M523.04,-182.31C516.56,-173.84 506.65,-160.87 498.55,-150.27"/>
<polygon fill="#63b8ff" stroke="#63b8ff" points="501.55,-148.42 492.69,-142.6 495.98,-152.67 501.55,-148.42"/>
</a>
</g>
</g>
<!-- Node8 -->
<g id="Node000008" class="node">
<title>Node8</title>
<g id="a_Node000008"><a xlink:title=" ">
<polygon fill="#e0e0e0" stroke="#999999" points="399.88,-141 341.88,-141 341.88,-121.75 399.88,-121.75 399.88,-141"/>
<text text-anchor="middle" x="370.88" y="-126.55" font-family="Helvetica,sans-Serif" font-size="11.00">compare</text>
</a>
</g>
</g>
<!-- Node4&#45;&gt;Node8 -->
<g id="edge7_Node000004_Node000008" class="edge">
<title>Node4&#45;&gt;Node8</title>
<g id="a_edge7_Node000004_Node000008"><a xlink:title=" ">
<path fill="none" stroke="#63b8ff" d="M505.38,-182.18C478.77,-172.33 436.03,-156.5 405.88,-145.34"/>
<polygon fill="#63b8ff" stroke="#63b8ff" points="407.41,-142.17 396.82,-141.98 404.98,-148.74 407.41,-142.17"/>
</a>
</g>
</g>
<!-- Node9 -->
<g id="Node000009" class="node">
<title>Node9</title>
<g id="a_Node000009"><a xlink:href="export_8h_source.html" target="_top" xlink:title=" ">
<polygon fill="white" stroke="#666666" points="701.38,-80.12 586.38,-80.12 586.38,-60.88 701.38,-60.88 701.38,-80.12"/>
<text text-anchor="middle" x="643.88" y="-65.67" font-family="Helvetica,sans-Serif" font-size="11.00">floppy/detail/export.h</text>
</a>
</g>
</g>
<!-- Node4&#45;&gt;Node9 -->
<g id="edge8_Node000004_Node000009" class="edge">
<title>Node4&#45;&gt;Node9</title>
<g id="a_edge8_Node000004_Node000009"><a xlink:title=" ">
<path fill="none" stroke="#63b8ff" d="M503.07,-182.17C471.84,-170.14 426.93,-147.43 446.88,-121.75 462.68,-101.41 524.5,-87.93 574.73,-80.1"/>
<polygon fill="#63b8ff" stroke="#63b8ff" points="575.04,-83.59 584.41,-78.64 574,-76.67 575.04,-83.59"/>
</a>
</g>
</g>
<!-- Node14 -->
<g id="Node000014" class="node">
<title>Node14</title>
<g id="a_Node000014"><a xlink:href="concepts_8h_source.html" target="_top" xlink:title=" ">
<polygon fill="white" stroke="#666666" points="1123.75,-141 996,-141 996,-121.75 1123.75,-121.75 1123.75,-141"/>
<text text-anchor="middle" x="1059.88" y="-126.55" font-family="Helvetica,sans-Serif" font-size="11.00">floppy/detail/concepts.h</text>
</a>
</g>
</g>
<!-- Node4&#45;&gt;Node14 -->
<g id="edge13_Node000004_Node000014" class="edge">
<title>Node4&#45;&gt;Node14</title>
<g id="a_edge13_Node000004_Node000014"><a xlink:title=" ">
<path fill="none" stroke="#63b8ff" d="M584.76,-185.36C668.48,-176.34 833.44,-158.45 984.47,-141.27"/>
<polygon fill="#63b8ff" stroke="#63b8ff" points="984.74,-144.76 994.28,-140.15 983.95,-137.8 984.74,-144.76"/>
</a>
</g>
</g>
<!-- Node10 -->
<g id="Node000010" class="node">
<title>Node10</title>
<g id="a_Node000010"><a xlink:title=" ">
<polygon fill="#e0e0e0" stroke="#999999" points="665,-19.25 622.75,-19.25 622.75,0 665,0 665,-19.25"/>
<text text-anchor="middle" x="643.88" y="-4.8" font-family="Helvetica,sans-Serif" font-size="11.00">string</text>
</a>
</g>
</g>
<!-- Node9&#45;&gt;Node10 -->
<g id="edge9_Node000009_Node000010" class="edge">
<title>Node9&#45;&gt;Node10</title>
<g id="a_edge9_Node000009_Node000010"><a xlink:title=" ">
<path fill="none" stroke="#63b8ff" d="M643.88,-60.56C643.88,-52.78 643.88,-41.2 643.88,-31.16"/>
<polygon fill="#63b8ff" stroke="#63b8ff" points="647.38,-31.16 643.88,-21.16 640.38,-31.16 647.38,-31.16"/>
</a>
</g>
</g>
<!-- Node11 -->
<g id="Node000011" class="node">
<title>Node11</title>
<g id="a_Node000011"><a xlink:title=" ">
<polygon fill="#e0e0e0" stroke="#999999" points="339.88,-19.25 269.88,-19.25 269.88,0 339.88,0 339.88,-19.25"/>
<text text-anchor="middle" x="304.88" y="-4.8" font-family="Helvetica,sans-Serif" font-size="11.00">string_view</text>
</a>
</g>
</g>
<!-- Node9&#45;&gt;Node11 -->
<g id="edge10_Node000009_Node000011" class="edge">
<title>Node9&#45;&gt;Node11</title>
<g id="a_edge10_Node000009_Node000011"><a xlink:title=" ">
<path fill="none" stroke="#63b8ff" d="M591.65,-60.43C525.91,-49.01 414,-29.58 351.18,-18.67"/>
<polygon fill="#63b8ff" stroke="#63b8ff" points="351.99,-15.25 341.54,-16.99 350.79,-22.15 351.99,-15.25"/>
</a>
</g>
</g>
<!-- Node12 -->
<g id="Node000012" class="node">
<title>Node12</title>
<g id="a_Node000012"><a xlink:title=" ">
<polygon fill="#e0e0e0" stroke="#999999" points="1197.5,-19.25 1140.25,-19.25 1140.25,0 1197.5,0 1197.5,-19.25"/>
<text text-anchor="middle" x="1168.88" y="-4.8" font-family="Helvetica,sans-Serif" font-size="11.00">iostream</text>
</a>
</g>
</g>
<!-- Node9&#45;&gt;Node12 -->
<g id="edge11_Node000009_Node000012" class="edge">
<title>Node9&#45;&gt;Node12</title>
<g id="a_edge11_Node000009_Node000012"><a xlink:title=" ">
<path fill="none" stroke="#63b8ff" d="M683.06,-60.39C692.16,-58.5 701.83,-56.65 710.88,-55.25 751.64,-48.95 1024.75,-23.77 1128.76,-14.27"/>
<polygon fill="#63b8ff" stroke="#63b8ff" points="1128.86,-17.78 1138.5,-13.38 1128.22,-10.81 1128.86,-17.78"/>
</a>
</g>
</g>
<!-- Node13 -->
<g id="Node000013" class="node">
<title>Node13</title>
<g id="a_Node000013"><a xlink:title=" ">
<polygon fill="#e0e0e0" stroke="#999999" points="824.75,-19.25 751,-19.25 751,0 824.75,0 824.75,-19.25"/>
<text text-anchor="middle" x="787.88" y="-4.8" font-family="Helvetica,sans-Serif" font-size="11.00">fmt/format.h</text>
</a>
</g>
</g>
<!-- Node9&#45;&gt;Node13 -->
<g id="edge12_Node000009_Node000013" class="edge">
<title>Node9&#45;&gt;Node13</title>
<g id="a_edge12_Node000009_Node000013"><a xlink:title=" ">
<path fill="none" stroke="#63b8ff" d="M666.06,-60.43C689.91,-50.68 728.07,-35.08 755.32,-23.93"/>
<polygon fill="#63b8ff" stroke="#63b8ff" points="756.57,-27.21 764.5,-20.18 753.92,-20.73 756.57,-27.21"/>
</a>
</g>
</g>
<!-- Node15 -->
<g id="Node000015" class="node">
<title>Node15</title>
<g id="a_Node000015"><a xlink:title=" ">
<polygon fill="#e0e0e0" stroke="#999999" points="1106.25,-80.12 1047.5,-80.12 1047.5,-60.88 1106.25,-60.88 1106.25,-80.12"/>
<text text-anchor="middle" x="1076.88" y="-65.67" font-family="Helvetica,sans-Serif" font-size="11.00">concepts</text>
</a>
</g>
</g>
<!-- Node14&#45;&gt;Node15 -->
<g id="edge14_Node000014_Node000015" class="edge">
<title>Node14&#45;&gt;Node15</title>
<g id="a_edge14_Node000014_Node000015"><a xlink:title=" ">
<path fill="none" stroke="#63b8ff" d="M1062.46,-121.43C1064.75,-113.48 1068.19,-101.56 1071.14,-91.37"/>
<polygon fill="#63b8ff" stroke="#63b8ff" points="1074.44,-92.56 1073.85,-81.98 1067.71,-90.62 1074.44,-92.56"/>
</a>
</g>
</g>
<!-- Node16 -->
<g id="Node000016" class="node">
<title>Node16</title>
<g id="a_Node000016"><a xlink:href="type__traits_8h_source.html" target="_top" xlink:title=" ">
<polygon fill="white" stroke="#666666" points="1360,-85.75 1263.75,-85.75 1263.75,-55.25 1360,-55.25 1360,-85.75"/>
<text text-anchor="start" x="1271.75" y="-71.3" font-family="Helvetica,sans-Serif" font-size="11.00">floppy/detail/type</text>
<text text-anchor="middle" x="1311.88" y="-60.05" font-family="Helvetica,sans-Serif" font-size="11.00">_traits.h</text>
</a>
</g>
</g>
<!-- Node14&#45;&gt;Node16 -->
<g id="edge15_Node000014_Node000016" class="edge">
<title>Node14&#45;&gt;Node16</title>
<g id="a_edge15_Node000014_Node000016"><a xlink:title=" ">
<path fill="none" stroke="#63b8ff" d="M1100.64,-121.3C1137.82,-112.96 1194.54,-100.1 1252.54,-86.28"/>
<polygon fill="#63b8ff" stroke="#63b8ff" points="1253,-89.77 1261.91,-84.05 1251.37,-82.97 1253,-89.77"/>
</a>
</g>
</g>
<!-- Node18 -->
<g id="Node000018" class="node">
<title>Node18</title>
<g id="a_Node000018"><a xlink:href="types_8h_source.html" target="_top" xlink:title=" ">
<polygon fill="white" stroke="#666666" points="1029.12,-80.12 918.62,-80.12 918.62,-60.88 1029.12,-60.88 1029.12,-80.12"/>
<text text-anchor="middle" x="973.88" y="-65.67" font-family="Helvetica,sans-Serif" font-size="11.00">floppy/detail/types.h</text>
</a>
</g>
</g>
<!-- Node14&#45;&gt;Node18 -->
<g id="edge17_Node000014_Node000018" class="edge">
<title>Node14&#45;&gt;Node18</title>
<g id="a_edge17_Node000014_Node000018"><a xlink:title=" ">
<path fill="none" stroke="#63b8ff" d="M1046.81,-121.43C1033.43,-112.27 1012.36,-97.84 996.3,-86.85"/>
<polygon fill="#63b8ff" stroke="#63b8ff" points="998.54,-84.14 988.31,-81.38 994.58,-89.92 998.54,-84.14"/>
</a>
</g>
</g>
<!-- Node17 -->
<g id="Node000017" class="node">
<title>Node17</title>
<g id="a_Node000017"><a xlink:title=" ">
<polygon fill="#e0e0e0" stroke="#999999" points="1312.62,-19.25 1247.12,-19.25 1247.12,0 1312.62,0 1312.62,-19.25"/>
<text text-anchor="middle" x="1279.88" y="-4.8" font-family="Helvetica,sans-Serif" font-size="11.00">type_traits</text>
</a>
</g>
</g>
<!-- Node16&#45;&gt;Node17 -->
<g id="edge16_Node000016_Node000017" class="edge">
<title>Node16&#45;&gt;Node17</title>
<g id="a_edge16_Node000016_Node000017"><a xlink:title=" ">
<path fill="none" stroke="#63b8ff" d="M1303.96,-54.95C1299.84,-47.36 1294.75,-37.99 1290.31,-29.82"/>
<polygon fill="#63b8ff" stroke="#63b8ff" points="1293.38,-28.15 1285.53,-21.03 1287.23,-31.49 1293.38,-28.15"/>
</a>
</g>
</g>
<!-- Node18&#45;&gt;Node13 -->
<g id="edge22_Node000018_Node000013" class="edge">
<title>Node18&#45;&gt;Node13</title>
<g id="a_edge22_Node000018_Node000013"><a xlink:title=" ">
<path fill="none" stroke="#63b8ff" d="M945.22,-60.43C913.68,-50.45 862.78,-34.33 827.44,-23.15"/>
<polygon fill="#63b8ff" stroke="#63b8ff" points="828.6,-19.84 818.01,-20.16 826.48,-26.52 828.6,-19.84"/>
</a>
</g>
</g>
<!-- Node18&#45;&gt;Node17 -->
<g id="edge21_Node000018_Node000017" class="edge">
<title>Node18&#45;&gt;Node17</title>
<g id="a_edge21_Node000018_Node000017"><a xlink:title=" ">
<path fill="none" stroke="#63b8ff" d="M1014.4,-60.4C1022.5,-58.64 1030.95,-56.85 1038.88,-55.25 1107.27,-41.43 1186.92,-27 1235.35,-18.42"/>
<polygon fill="#63b8ff" stroke="#63b8ff" points="1235.94,-21.87 1245.18,-16.68 1234.73,-14.98 1235.94,-21.87"/>
</a>
</g>
</g>
<!-- Node19 -->
<g id="Node000019" class="node">
<title>Node19</title>
<g id="a_Node000019"><a xlink:title=" ">
<polygon fill="#e0e0e0" stroke="#999999" points="1059.12,-19.25 1008.62,-19.25 1008.62,0 1059.12,0 1059.12,-19.25"/>
<text text-anchor="middle" x="1033.88" y="-4.8" font-family="Helvetica,sans-Serif" font-size="11.00">cstddef</text>
</a>
</g>
</g>
<!-- Node18&#45;&gt;Node19 -->
<g id="edge18_Node000018_Node000019" class="edge">
<title>Node18&#45;&gt;Node19</title>
<g id="a_edge18_Node000018_Node000019"><a xlink:title=" ">
<path fill="none" stroke="#63b8ff" d="M982.99,-60.56C991.89,-51.83 1005.65,-38.32 1016.62,-27.55"/>
<polygon fill="#63b8ff" stroke="#63b8ff" points="1018.91,-30.21 1023.6,-20.71 1014.01,-25.22 1018.91,-30.21"/>
</a>
</g>
</g>
<!-- Node20 -->
<g id="Node000020" class="node">
<title>Node20</title>
<g id="a_Node000020"><a xlink:title=" ">
<polygon fill="#e0e0e0" stroke="#999999" points="909.25,-19.25 862.5,-19.25 862.5,0 909.25,0 909.25,-19.25"/>
<text text-anchor="middle" x="885.88" y="-4.8" font-family="Helvetica,sans-Serif" font-size="11.00">cstdint</text>
</a>
</g>
</g>
<!-- Node18&#45;&gt;Node20 -->
<g id="edge19_Node000018_Node000020" class="edge">
<title>Node18&#45;&gt;Node20</title>
<g id="a_edge19_Node000018_Node000020"><a xlink:title=" ">
<path fill="none" stroke="#63b8ff" d="M960.51,-60.56C946.81,-51.39 925.25,-36.97 908.82,-25.98"/>
<polygon fill="#63b8ff" stroke="#63b8ff" points="910.88,-23.14 900.62,-20.49 906.99,-28.96 910.88,-23.14"/>
</a>
</g>
</g>
<!-- Node21 -->
<g id="Node000021" class="node">
<title>Node21</title>
<g id="a_Node000021"><a xlink:title=" ">
<polygon fill="#e0e0e0" stroke="#999999" points="990.62,-19.25 937.12,-19.25 937.12,0 990.62,0 990.62,-19.25"/>
<text text-anchor="middle" x="963.88" y="-4.8" font-family="Helvetica,sans-Serif" font-size="11.00">optional</text>
</a>
</g>
</g>
<!-- Node18&#45;&gt;Node21 -->
<g id="edge20_Node000018_Node000021" class="edge">
<title>Node18&#45;&gt;Node21</title>
<g id="a_edge20_Node000018_Node000021"><a xlink:title=" ">
<path fill="none" stroke="#63b8ff" d="M972.36,-60.56C971.02,-52.69 969.03,-40.95 967.31,-30.82"/>
<polygon fill="#63b8ff" stroke="#63b8ff" points="970.79,-30.42 965.66,-21.14 963.89,-31.59 970.79,-30.42"/>
</a>
</g>
</g>
<!-- Node22&#45;&gt;Node11 -->
<g id="edge24_Node000022_Node000011" class="edge">
<title>Node22&#45;&gt;Node11</title>
<g id="a_edge24_Node000022_Node000011"><a xlink:title=" ">
<path fill="none" stroke="#63b8ff" d="M62.14,-121.3C54.79,-105.82 43.07,-74.18 58.88,-55.25 83.75,-25.45 193.96,-15.51 258.11,-12.22"/>
<polygon fill="#63b8ff" stroke="#63b8ff" points="258.19,-15.72 268.01,-11.75 257.86,-8.73 258.19,-15.72"/>
</a>
</g>
</g>
<!-- Node22&#45;&gt;Node13 -->
<g id="edge27_Node000022_Node000013" class="edge">
<title>Node22&#45;&gt;Node13</title>
<g id="a_edge27_Node000022_Node000013"><a xlink:title=" ">
<path fill="none" stroke="#63b8ff" d="M121.66,-121.28C258.03,-98.63 610.99,-40 739.86,-18.6"/>
<polygon fill="#63b8ff" stroke="#63b8ff" points="740.12,-22.1 749.41,-17.01 738.97,-15.2 740.12,-22.1"/>
</a>
</g>
</g>
<!-- Node23 -->
<g id="Node000023" class="node">
<title>Node23</title>
<g id="a_Node000023"><a xlink:title=" ">
<polygon fill="#e0e0e0" stroke="#999999" points="122,-80.12 67.75,-80.12 67.75,-60.88 122,-60.88 122,-80.12"/>
<text text-anchor="middle" x="94.88" y="-65.67" font-family="Helvetica,sans-Serif" font-size="11.00">sstream</text>
</a>
</g>
</g>
<!-- Node22&#45;&gt;Node23 -->
<g id="edge25_Node000022_Node000023" class="edge">
<title>Node22&#45;&gt;Node23</title>
<g id="a_edge25_Node000022_Node000023"><a xlink:title=" ">
<path fill="none" stroke="#63b8ff" d="M71.13,-121.43C74.99,-113.31 80.82,-101.04 85.74,-90.7"/>
<polygon fill="#63b8ff" stroke="#63b8ff" points="88.8,-92.43 89.93,-81.89 82.48,-89.42 88.8,-92.43"/>
</a>
</g>
</g>
<!-- Node24 -->
<g id="Node000024" class="node">
<title>Node24</title>
<g id="a_Node000024"><a xlink:title=" ">
<polygon fill="#e0e0e0" stroke="#999999" points="187.25,-80.12 140.5,-80.12 140.5,-60.88 187.25,-60.88 187.25,-80.12"/>
<text text-anchor="middle" x="163.88" y="-65.67" font-family="Helvetica,sans-Serif" font-size="11.00">iosfwd</text>
</a>
</g>
</g>
<!-- Node22&#45;&gt;Node24 -->
<g id="edge26_Node000022_Node000024" class="edge">
<title>Node22&#45;&gt;Node24</title>
<g id="a_edge26_Node000022_Node000024"><a xlink:title=" ">
<path fill="none" stroke="#63b8ff" d="M81.61,-121.43C96.92,-112.14 121.14,-97.44 139.35,-86.39"/>
<polygon fill="#63b8ff" stroke="#63b8ff" points="140.98,-89.49 147.71,-81.31 137.35,-83.51 140.98,-89.49"/>
</a>
</g>
</g>
<!-- Node25&#45;&gt;Node12 -->
<g id="edge29_Node000025_Node000012" class="edge">
<title>Node25&#45;&gt;Node12</title>
<g id="a_edge29_Node000025_Node000012"><a xlink:title=" ">
<path fill="none" stroke="#63b8ff" d="M585.22,-366.55C588.14,-366.09 591.05,-365.65 593.88,-365.25 682.08,-352.76 1387.88,-343.21 1387.88,-254.12 1387.88,-254.12 1387.88,-254.12 1387.88,-130.38 1387.88,-95.93 1393.57,-79.26 1368.88,-55.25 1357.44,-44.14 1263.97,-26.71 1208.94,-17.26"/>
<polygon fill="#63b8ff" stroke="#63b8ff" points="1209.77,-13.85 1199.32,-15.62 1208.59,-20.75 1209.77,-13.85"/>
</a>
</g>
</g>
<!-- Node26 -->
<g id="Node000026" class="node">
<title>Node26</title>
<g id="a_Node000026"><a xlink:title=" ">
<polygon fill="#e0e0e0" stroke="#999999" points="609.5,-329.25 480.25,-329.25 480.25,-298.75 609.5,-298.75 609.5,-329.25"/>
<text text-anchor="start" x="488.25" y="-314.8" font-family="Helvetica,sans-Serif" font-size="11.00">experimental/propagate</text>
<text text-anchor="middle" x="544.88" y="-303.55" font-family="Helvetica,sans-Serif" font-size="11.00">_const</text>
</a>
</g>
</g>
<!-- Node25&#45;&gt;Node26 -->
<g id="edge30_Node000025_Node000026" class="edge">
<title>Node25&#45;&gt;Node26</title>
<g id="a_edge30_Node000025_Node000026"><a xlink:title=" ">
<path fill="none" stroke="#63b8ff" d="M544.88,-364.93C544.88,-358.48 544.88,-349.41 544.88,-340.76"/>
<polygon fill="#63b8ff" stroke="#63b8ff" points="548.38,-341.05 544.88,-331.05 541.38,-341.05 548.38,-341.05"/>
</a>
</g>
</g>
<!-- Node27 -->
<g id="Node000027" class="node">
<title>Node27</title>
<g id="a_Node000027"><a xlink:href="floppy_8h_source.html" target="_top" xlink:title=" ">
<polygon fill="white" stroke="#666666" points="919.38,-323.62 834.38,-323.62 834.38,-304.38 919.38,-304.38 919.38,-323.62"/>
<text text-anchor="middle" x="876.88" y="-309.18" font-family="Helvetica,sans-Serif" font-size="11.00">floppy/floppy.h</text>
</a>
</g>
</g>
<!-- Node25&#45;&gt;Node27 -->
<g id="edge31_Node000025_Node000027" class="edge">
<title>Node25&#45;&gt;Node27</title>
<g id="a_edge31_Node000025_Node000027"><a xlink:title=" ">
<path fill="none" stroke="#63b8ff" d="M584.92,-366.77C644.43,-356.22 756.32,-336.38 822.97,-324.56"/>
<polygon fill="#63b8ff" stroke="#63b8ff" points="823.34,-328.05 832.57,-322.86 822.11,-321.16 823.34,-328.05"/>
</a>
</g>
</g>
<!-- Node27&#45;&gt;Node4 -->
<g id="edge54_Node000027_Node000004" class="edge">
<title>Node27&#45;&gt;Node4</title>
<g id="a_edge54_Node000027_Node000004"><a xlink:title=" ">
<path fill="none" stroke="#63b8ff" d="M834.24,-309.61C783.74,-304.41 697.88,-291.82 629.88,-262.75 598.78,-249.45 567.5,-225.64 548.4,-209.64"/>
<polygon fill="#63b8ff" stroke="#63b8ff" points="550.85,-207.12 540.98,-203.27 546.29,-212.44 550.85,-207.12"/>
</a>
</g>
</g>
<!-- Node27&#45;&gt;Node9 -->
<g id="edge52_Node000027_Node000009" class="edge">
<title>Node27&#45;&gt;Node9</title>
<g id="a_edge52_Node000027_Node000009"><a xlink:title=" ">
<path fill="none" stroke="#63b8ff" d="M847.49,-303.91C805.97,-289.68 730.12,-258.37 684.88,-207.5 655.45,-174.42 647.13,-120.87 644.79,-91.81"/>
<polygon fill="#63b8ff" stroke="#63b8ff" points="648.28,-91.62 644.17,-81.86 641.3,-92.06 648.28,-91.62"/>
</a>
</g>
</g>
<!-- Node27&#45;&gt;Node14 -->
<g id="edge43_Node000027_Node000014" class="edge">
<title>Node27&#45;&gt;Node14</title>
<g id="a_edge43_Node000027_Node000014"><a xlink:title=" ">
<path fill="none" stroke="#63b8ff" d="M896.62,-303.91C914.6,-295.03 941.25,-280.32 960.88,-262.75 999.03,-228.59 1032.51,-177.93 1049.01,-150.92"/>
<polygon fill="#63b8ff" stroke="#63b8ff" points="1051.91,-152.89 1054.04,-142.51 1045.9,-149.29 1051.91,-152.89"/>
</a>
</g>
</g>
<!-- Node27&#45;&gt;Node16 -->
<g id="edge65_Node000027_Node000016" class="edge">
<title>Node27&#45;&gt;Node16</title>
<g id="a_edge65_Node000027_Node000016"><a xlink:title=" ">
<path fill="none" stroke="#63b8ff" d="M919.64,-312.87C982.19,-311.23 1101.15,-302.56 1192.88,-262.75 1229.55,-246.83 1240.5,-239.94 1263.88,-207.5 1288.34,-173.55 1301.32,-125.97 1307.38,-97.02"/>
<polygon fill="#63b8ff" stroke="#63b8ff" points="1310.79,-97.82 1309.28,-87.33 1303.92,-96.47 1310.79,-97.82"/>
</a>
</g>
</g>
<!-- Node27&#45;&gt;Node18 -->
<g id="edge66_Node000027_Node000018" class="edge">
<title>Node27&#45;&gt;Node18</title>
<g id="a_edge66_Node000027_Node000018"><a xlink:title=" ">
<path fill="none" stroke="#63b8ff" d="M919.76,-311.09C1008.08,-304.43 1206.12,-274.6 1254.88,-141 1275.96,-83.23 1130.5,-103.42 1038.88,-85.75 1034.28,-84.86 1029.51,-83.9 1024.74,-82.91"/>
<polygon fill="#63b8ff" stroke="#63b8ff" points="1025.67,-79.53 1015.16,-80.88 1024.22,-86.38 1025.67,-79.53"/>
</a>
</g>
</g>
<!-- Node27&#45;&gt;Node22 -->
<g id="edge53_Node000027_Node000022" class="edge">
<title>Node27&#45;&gt;Node22</title>
<g id="a_edge53_Node000027_Node000022"><a xlink:title=" ">
<path fill="none" stroke="#63b8ff" d="M833.92,-308.48C766.46,-301.05 631.74,-284.84 518.88,-262.75 420.36,-243.47 395.67,-237.51 299.88,-207.5 263.17,-196 255.36,-189.2 218.88,-177 182.99,-164.99 141.76,-153 111.31,-144.48"/>
<polygon fill="#63b8ff" stroke="#63b8ff" points="112.64,-141.21 102.07,-141.91 110.76,-147.96 112.64,-141.21"/>
</a>
</g>
</g>
<!-- Node28 -->
<g id="Node000028" class="node">
<title>Node28</title>
<g id="a_Node000028"><a xlink:href="backports_8h_source.html" target="_top" xlink:title=" ">
<polygon fill="white" stroke="#666666" points="857,-201.88 724.75,-201.88 724.75,-182.62 857,-182.62 857,-201.88"/>
<text text-anchor="middle" x="790.88" y="-187.43" font-family="Helvetica,sans-Serif" font-size="11.00">floppy/detail/backports.h</text>
</a>
</g>
</g>
<!-- Node27&#45;&gt;Node28 -->
<g id="edge32_Node000027_Node000028" class="edge">
<title>Node27&#45;&gt;Node28</title>
<g id="a_edge32_Node000027_Node000028"><a xlink:title=" ">
<path fill="none" stroke="#63b8ff" d="M859.46,-303.97C844.46,-295.33 823.32,-280.93 810.88,-262.75 800.78,-248 795.73,-228.18 793.23,-213.47"/>
<polygon fill="#63b8ff" stroke="#63b8ff" points="796.71,-213.04 791.85,-203.62 789.78,-214.02 796.71,-213.04"/>
</a>
</g>
</g>
<!-- Node30 -->
<g id="Node000030" class="node">
<title>Node30</title>
<g id="a_Node000030"><a xlink:href="platform_8h_source.html" target="_top" xlink:title=" ">
<polygon fill="white" stroke="#666666" points="977.88,-141 853.88,-141 853.88,-121.75 977.88,-121.75 977.88,-141"/>
<text text-anchor="middle" x="915.88" y="-126.55" font-family="Helvetica,sans-Serif" font-size="11.00">floppy/detail/platform.h</text>
</a>
</g>
</g>
<!-- Node27&#45;&gt;Node30 -->
<g id="edge62_Node000027_Node000030" class="edge">
<title>Node27&#45;&gt;Node30</title>
<g id="a_edge62_Node000027_Node000030"><a xlink:title=" ">
<path fill="none" stroke="#63b8ff" d="M897.45,-303.99C913.36,-295.78 934.25,-282 943.88,-262.75 962.27,-225.97 941.66,-177.46 927.31,-151.21"/>
<polygon fill="#63b8ff" stroke="#63b8ff" points="930.46,-149.66 922.44,-142.73 924.39,-153.15 930.46,-149.66"/>
</a>
</g>
</g>
<!-- Node31 -->
<g id="Node000031" class="node">
<title>Node31</title>
<g id="a_Node000031"><a xlink:href="predefs_8h_source.html" target="_top" xlink:title=" ">
<polygon fill="white" stroke="#666666" points="1245.38,-80.12 1124.38,-80.12 1124.38,-60.88 1245.38,-60.88 1245.38,-80.12"/>
<text text-anchor="middle" x="1184.88" y="-65.67" font-family="Helvetica,sans-Serif" font-size="11.00">floppy/detail/predefs.h</text>
</a>
</g>
</g>
<!-- Node27&#45;&gt;Node31 -->
<g id="edge63_Node000027_Node000031" class="edge">
<title>Node27&#45;&gt;Node31</title>
<g id="a_edge63_Node000027_Node000031"><a xlink:title=" ">
<path fill="none" stroke="#63b8ff" d="M919.56,-311.11C976.23,-307.34 1078.49,-296.1 1158.88,-262.75 1198.45,-246.33 1210.13,-240.15 1237.88,-207.5 1264.22,-176.51 1290.03,-157.08 1269.88,-121.75 1260.17,-104.73 1242.19,-92.9 1225.26,-85"/>
<polygon fill="#63b8ff" stroke="#63b8ff" points="1226.9,-81.9 1216.32,-81.18 1224.14,-88.33 1226.9,-81.9"/>
</a>
</g>
</g>
<!-- Node32 -->
<g id="Node000032" class="node">
<title>Node32</title>
<g id="a_Node000032"><a xlink:href="corefn_8h_source.html" target="_top" xlink:title=" ">
<polygon fill="white" stroke="#666666" points="934.38,-262.75 819.38,-262.75 819.38,-243.5 934.38,-243.5 934.38,-262.75"/>
<text text-anchor="middle" x="876.88" y="-248.3" font-family="Helvetica,sans-Serif" font-size="11.00">floppy/detail/corefn.h</text>
</a>
</g>
</g>
<!-- Node27&#45;&gt;Node32 -->
<g id="edge44_Node000027_Node000032" class="edge">
<title>Node27&#45;&gt;Node32</title>
<g id="a_edge44_Node000027_Node000032"><a xlink:title=" ">
<path fill="none" stroke="#63b8ff" d="M876.88,-304.06C876.88,-296.28 876.88,-284.7 876.88,-274.66"/>
<polygon fill="#63b8ff" stroke="#63b8ff" points="880.38,-274.66 876.88,-264.66 873.38,-274.66 880.38,-274.66"/>
</a>
</g>
</g>
<!-- Node34 -->
<g id="Node000034" class="node">
<title>Node34</title>
<g id="a_Node000034"><a xlink:href="print__helpers_8h_source.html" target="_top" xlink:title=" ">
<polygon fill="white" stroke="#666666" points="1189.38,-207.5 1092.38,-207.5 1092.38,-177 1189.38,-177 1189.38,-207.5"/>
<text text-anchor="start" x="1100.38" y="-193.05" font-family="Helvetica,sans-Serif" font-size="11.00">floppy/detail/print</text>
<text text-anchor="middle" x="1140.88" y="-181.8" font-family="Helvetica,sans-Serif" font-size="11.00">_helpers.h</text>
</a>
</g>
</g>
<!-- Node27&#45;&gt;Node34 -->
<g id="edge64_Node000027_Node000034" class="edge">
<title>Node27&#45;&gt;Node34</title>
<g id="a_edge64_Node000027_Node000034"><a xlink:title=" ">
<path fill="none" stroke="#63b8ff" d="M919.79,-308.45C960.8,-302.64 1023.26,-289.87 1070.88,-262.75 1091.33,-251.1 1110,-231.92 1122.91,-216.66"/>
<polygon fill="#63b8ff" stroke="#63b8ff" points="1125.6,-218.9 1129.21,-208.94 1120.17,-214.47 1125.6,-218.9"/>
</a>
</g>
</g>
<!-- Node36 -->
<g id="Node000036" class="node">
<title>Node36</title>
<g id="a_Node000036"><a xlink:href="memory_8h_source.html" target="_top" xlink:title=" ">
<polygon fill="white" stroke="#666666" points="432.5,-201.88 309.25,-201.88 309.25,-182.62 432.5,-182.62 432.5,-201.88"/>
<text text-anchor="middle" x="370.88" y="-187.43" font-family="Helvetica,sans-Serif" font-size="11.00">floppy/detail/memory.h</text>
</a>
</g>
</g>
<!-- Node27&#45;&gt;Node36 -->
<g id="edge55_Node000027_Node000036" class="edge">
<title>Node27&#45;&gt;Node36</title>
<g id="a_edge55_Node000027_Node000036"><a xlink:title=" ">
<path fill="none" stroke="#63b8ff" d="M834.2,-307.35C777.81,-299.47 675.61,-283.76 589.88,-262.75 524.08,-246.63 449.2,-221.31 406.25,-206.09"/>
<polygon fill="#63b8ff" stroke="#63b8ff" points="407.55,-202.84 396.95,-202.78 405.2,-209.43 407.55,-202.84"/>
</a>
</g>
</g>
<!-- Node28&#45;&gt;Node13 -->
<g id="edge35_Node000028_Node000013" class="edge">
<title>Node28&#45;&gt;Node13</title>
<g id="a_edge35_Node000028_Node000013"><a xlink:title=" ">
<path fill="none" stroke="#63b8ff" d="M790.73,-182.54C790.28,-155.19 788.87,-70.51 788.22,-31.14"/>
<polygon fill="#63b8ff" stroke="#63b8ff" points="791.72,-31.13 788.05,-21.19 784.72,-31.25 791.72,-31.13"/>
</a>
</g>
</g>
<!-- Node28&#45;&gt;Node14 -->
<g id="edge41_Node000028_Node000014" class="edge">
<title>Node28&#45;&gt;Node14</title>
<g id="a_edge41_Node000028_Node000014"><a xlink:title=" ">
<path fill="none" stroke="#63b8ff" d="M832.32,-182.18C879.31,-171.89 956.04,-155.1 1007.23,-143.9"/>
<polygon fill="#63b8ff" stroke="#63b8ff" points="1007.89,-147.34 1016.91,-141.78 1006.39,-140.5 1007.89,-147.34"/>
</a>
</g>
</g>
<!-- Node28&#45;&gt;Node20 -->
<g id="edge33_Node000028_Node000020" class="edge">
<title>Node28&#45;&gt;Node20</title>
<g id="a_edge33_Node000028_Node000020"><a xlink:title=" ">
<path fill="none" stroke="#63b8ff" d="M795.46,-182.54C810.03,-154.83 855.54,-68.29 875.88,-29.62"/>
<polygon fill="#63b8ff" stroke="#63b8ff" points="878.85,-31.49 880.41,-21.01 872.66,-28.24 878.85,-31.49"/>
</a>
</g>
</g>
<!-- Node28&#45;&gt;Node22 -->
<g id="edge42_Node000028_Node000022" class="edge">
<title>Node28&#45;&gt;Node22</title>
<g id="a_edge42_Node000028_Node000022"><a xlink:title=" ">
<path fill="none" stroke="#63b8ff" d="M724.26,-186.41C586.53,-176.35 273.25,-153.2 145.35,-141.29"/>
<polygon fill="#63b8ff" stroke="#63b8ff" points="145.71,-137.81 135.43,-140.35 145.05,-144.78 145.71,-137.81"/>
</a>
</g>
</g>
<!-- Node29 -->
<g id="Node000029" class="node">
<title>Node29</title>
<g id="a_Node000029"><a xlink:title=" ">
<polygon fill="#e0e0e0" stroke="#999999" points="759.38,-141 710.38,-141 710.38,-121.75 759.38,-121.75 759.38,-141"/>
<text text-anchor="middle" x="734.88" y="-126.55" font-family="Helvetica,sans-Serif" font-size="11.00">ranges</text>
</a>
</g>
</g>
<!-- Node28&#45;&gt;Node29 -->
<g id="edge34_Node000028_Node000029" class="edge">
<title>Node28&#45;&gt;Node29</title>
<g id="a_edge34_Node000028_Node000029"><a xlink:title=" ">
<path fill="none" stroke="#63b8ff" d="M782.37,-182.31C774.15,-173.66 761.47,-160.34 751.28,-149.62"/>
<polygon fill="#63b8ff" stroke="#63b8ff" points="753.93,-147.33 744.5,-142.5 748.86,-152.16 753.93,-147.33"/>
</a>
</g>
</g>
<!-- Node28&#45;&gt;Node30 -->
<g id="edge36_Node000028_Node000030" class="edge">
<title>Node28&#45;&gt;Node30</title>
<g id="a_edge36_Node000028_Node000030"><a xlink:title=" ">
<path fill="none" stroke="#63b8ff" d="M810.13,-182.18C830.56,-172.56 863.08,-157.24 886.67,-146.13"/>
<polygon fill="#63b8ff" stroke="#63b8ff" points="887.88,-149.43 895.43,-142 884.89,-143.1 887.88,-149.43"/>
</a>
</g>
</g>
<!-- Node30&#45;&gt;Node6 -->
<g id="edge37_Node000030_Node000006" class="edge">
<title>Node30&#45;&gt;Node6</title>
<g id="a_edge37_Node000030_Node000006"><a xlink:title=" ">
<path fill="none" stroke="#63b8ff" d="M888.76,-121.3C856.88,-110.64 804.09,-92.98 770.69,-81.81"/>
<polygon fill="#63b8ff" stroke="#63b8ff" points="772.19,-78.62 761.6,-78.77 769.97,-85.26 772.19,-78.62"/>
</a>
</g>
</g>
<!-- Node30&#45;&gt;Node9 -->
<g id="edge38_Node000030_Node000009" class="edge">
<title>Node30&#45;&gt;Node9</title>
<g id="a_edge38_Node000030_Node000009"><a xlink:title=" ">
<path fill="none" stroke="#63b8ff" d="M873.97,-121.3C826.35,-111 748.54,-94.16 696.78,-82.95"/>
<polygon fill="#63b8ff" stroke="#63b8ff" points="697.82,-79.6 687.31,-80.9 696.34,-86.44 697.82,-79.6"/>
</a>
</g>
</g>
<!-- Node30&#45;&gt;Node18 -->
<g id="edge39_Node000030_Node000018" class="edge">
<title>Node30&#45;&gt;Node18</title>
<g id="a_edge39_Node000030_Node000018"><a xlink:title=" ">
<path fill="none" stroke="#63b8ff" d="M924.68,-121.43C933.29,-112.7 946.59,-99.19 957.2,-88.43"/>
<polygon fill="#63b8ff" stroke="#63b8ff" points="959.4,-91.18 963.92,-81.6 954.41,-86.27 959.4,-91.18"/>
</a>
</g>
</g>
<!-- Node30&#45;&gt;Node31 -->
<g id="edge40_Node000030_Node000031" class="edge">
<title>Node30&#45;&gt;Node31</title>
<g id="a_edge40_Node000030_Node000031"><a xlink:title=" ">
<path fill="none" stroke="#63b8ff" d="M957.32,-121.3C1004.31,-111.02 1081.04,-94.23 1132.23,-83.02"/>
<polygon fill="#63b8ff" stroke="#63b8ff" points="1132.89,-86.46 1141.91,-80.9 1131.39,-79.62 1132.89,-86.46"/>
</a>
</g>
</g>
<!-- Node32&#45;&gt;Node9 -->
<g id="edge46_Node000032_Node000009" class="edge">
<title>Node32&#45;&gt;Node9</title>
<g id="a_edge46_Node000032_Node000009"><a xlink:title=" ">
<path fill="none" stroke="#63b8ff" d="M819.23,-247.44C786.01,-242.18 745.15,-231.03 715.88,-207.5 677.98,-177.03 657.58,-121.15 648.95,-91.38"/>
<polygon fill="#63b8ff" stroke="#63b8ff" points="652.35,-90.57 646.35,-81.84 645.6,-92.41 652.35,-90.57"/>
</a>
</g>
</g>
<!-- Node32&#45;&gt;Node14 -->
<g id="edge48_Node000032_Node000014" class="edge">
<title>Node32&#45;&gt;Node14</title>
<g id="a_edge48_Node000032_Node000014"><a xlink:title=" ">
<path fill="none" stroke="#63b8ff" d="M890.63,-243.12C921.76,-222.75 997.91,-172.92 1036.56,-147.63"/>
<polygon fill="#63b8ff" stroke="#63b8ff" points="1038.24,-150.71 1044.69,-142.31 1034.41,-144.86 1038.24,-150.71"/>
</a>
</g>
</g>
<!-- Node32&#45;&gt;Node28 -->
<g id="edge47_Node000032_Node000028" class="edge">
<title>Node32&#45;&gt;Node28</title>
<g id="a_edge47_Node000032_Node000028"><a xlink:title=" ">
<path fill="none" stroke="#63b8ff" d="M863.81,-243.18C850.43,-234.02 829.36,-219.59 813.3,-208.6"/>
<polygon fill="#63b8ff" stroke="#63b8ff" points="815.54,-205.89 805.31,-203.13 811.58,-211.67 815.54,-205.89"/>
</a>
</g>
</g>
<!-- Node33 -->
<g id="Node000033" class="node">
<title>Node33</title>
<g id="a_Node000033"><a xlink:title=" ">
<polygon fill="#e0e0e0" stroke="#999999" points="928.62,-201.88 875.12,-201.88 875.12,-182.62 928.62,-182.62 928.62,-201.88"/>
<text text-anchor="middle" x="901.88" y="-187.43" font-family="Helvetica,sans-Serif" font-size="11.00">typeinfo</text>
</a>
</g>
</g>
<!-- Node32&#45;&gt;Node33 -->
<g id="edge45_Node000032_Node000033" class="edge">
<title>Node32&#45;&gt;Node33</title>
<g id="a_edge45_Node000032_Node000033"><a xlink:title=" ">
<path fill="none" stroke="#63b8ff" d="M880.67,-243.18C884.09,-235.14 889.22,-223.05 893.58,-212.78"/>
<polygon fill="#63b8ff" stroke="#63b8ff" points="896.76,-214.24 897.45,-203.67 890.32,-211.51 896.76,-214.24"/>
</a>
</g>
</g>
<!-- Node32&#45;&gt;Node34 -->
<g id="edge49_Node000032_Node000034" class="edge">
<title>Node32&#45;&gt;Node34</title>
<g id="a_edge49_Node000032_Node000034"><a xlink:title=" ">
<path fill="none" stroke="#63b8ff" d="M917.55,-243.05C961.25,-233.31 1031.15,-217.72 1081.1,-206.58"/>
<polygon fill="#63b8ff" stroke="#63b8ff" points="1081.6,-210.06 1090.6,-204.46 1080.08,-203.22 1081.6,-210.06"/>
</a>
</g>
</g>
<!-- Node34&#45;&gt;Node13 -->
<g id="edge50_Node000034_Node000013" class="edge">
<title>Node34&#45;&gt;Node13</title>
<g id="a_edge50_Node000034_Node000013"><a xlink:title=" ">
<path fill="none" stroke="#63b8ff" d="M1143.81,-176.64C1146.04,-160.92 1146.72,-136.24 1132.88,-121.75 1063.52,-49.17 1003.97,-120.74 909.88,-85.75 871.11,-71.34 831.25,-43.96 808.05,-26.54"/>
<polygon fill="#63b8ff" stroke="#63b8ff" points="810.46,-23.97 800.39,-20.67 806.2,-29.53 810.46,-23.97"/>
</a>
</g>
</g>
<!-- Node35 -->
<g id="Node000035" class="node">
<title>Node35</title>
<g id="a_Node000035"><a xlink:title=" ">
<polygon fill="#e0e0e0" stroke="#999999" points="1245.62,-141 1180.12,-141 1180.12,-121.75 1245.62,-121.75 1245.62,-141"/>
<text text-anchor="middle" x="1212.88" y="-126.55" font-family="Helvetica,sans-Serif" font-size="11.00">fmt/color.h</text>
</a>
</g>
</g>
<!-- Node34&#45;&gt;Node35 -->
<g id="edge51_Node000034_Node000035" class="edge">
<title>Node34&#45;&gt;Node35</title>
<g id="a_edge51_Node000034_Node000035"><a xlink:title=" ">
<path fill="none" stroke="#63b8ff" d="M1158.67,-176.7C1169.11,-168.16 1182.31,-157.37 1193.08,-148.56"/>
<polygon fill="#63b8ff" stroke="#63b8ff" points="1195.08,-151.45 1200.6,-142.41 1190.65,-146.03 1195.08,-151.45"/>
</a>
</g>
</g>
<!-- Node36&#45;&gt;Node8 -->
<g id="edge57_Node000036_Node000008" class="edge">
<title>Node36&#45;&gt;Node8</title>
<g id="a_edge57_Node000036_Node000008"><a xlink:title=" ">
<path fill="none" stroke="#63b8ff" d="M370.88,-182.31C370.88,-174.53 370.88,-162.95 370.88,-152.91"/>
<polygon fill="#63b8ff" stroke="#63b8ff" points="374.38,-152.91 370.88,-142.91 367.38,-152.91 374.38,-152.91"/>
</a>
</g>
</g>
<!-- Node36&#45;&gt;Node9 -->
<g id="edge59_Node000036_Node000009" class="edge">
<title>Node36&#45;&gt;Node9</title>
<g id="a_edge59_Node000036_Node000009"><a xlink:title=" ">
<path fill="none" stroke="#63b8ff" d="M359.39,-182.19C342.99,-168.19 316.56,-140.91 332.88,-121.75 363.28,-86.04 492.52,-75.62 574.53,-72.64"/>
<polygon fill="#63b8ff" stroke="#63b8ff" points="574.63,-76.14 584.51,-72.31 574.4,-69.14 574.63,-76.14"/>
</a>
</g>
</g>
<!-- Node36&#45;&gt;Node14 -->
<g id="edge61_Node000036_Node000014" class="edge">
<title>Node36&#45;&gt;Node14</title>
<g id="a_edge61_Node000036_Node000014"><a xlink:title=" ">
<path fill="none" stroke="#63b8ff" d="M427.13,-182.15C440.15,-180.25 453.98,-178.4 466.88,-177 693.47,-152.38 754.27,-162.26 984.36,-141.18"/>
<polygon fill="#63b8ff" stroke="#63b8ff" points="984.66,-144.67 994.29,-140.26 984.01,-137.7 984.66,-144.67"/>
</a>
</g>
</g>
<!-- Node36&#45;&gt;Node22 -->
<g id="edge60_Node000036_Node000022" class="edge">
<title>Node36&#45;&gt;Node22</title>
<g id="a_edge60_Node000036_Node000022"><a xlink:title=" ">
<path fill="none" stroke="#63b8ff" d="M324.04,-182.18C270.48,-171.81 182.76,-154.82 124.91,-143.62"/>
<polygon fill="#63b8ff" stroke="#63b8ff" points="125.73,-140.21 115.25,-141.74 124.4,-147.08 125.73,-140.21"/>
</a>
</g>
</g>
<!-- Node37 -->
<g id="Node000037" class="node">
<title>Node37</title>
<g id="a_Node000037"><a xlink:title=" ">
<polygon fill="#e0e0e0" stroke="#999999" points="206.38,-141 151.38,-141 151.38,-121.75 206.38,-121.75 206.38,-141"/>
<text text-anchor="middle" x="178.88" y="-126.55" font-family="Helvetica,sans-Serif" font-size="11.00">memory</text>
</a>
</g>
</g>
<!-- Node36&#45;&gt;Node37 -->
<g id="edge56_Node000036_Node000037" class="edge">
<title>Node36&#45;&gt;Node37</title>
<g id="a_edge56_Node000036_Node000037"><a xlink:title=" ">
<path fill="none" stroke="#63b8ff" d="M341.3,-182.18C308.03,-171.98 253.88,-155.37 217.35,-144.17"/>
<polygon fill="#63b8ff" stroke="#63b8ff" points="218.65,-140.91 208.06,-141.33 216.6,-147.6 218.65,-140.91"/>
</a>
</g>
</g>
<!-- Node38 -->
<g id="Node000038" class="node">
<title>Node38</title>
<g id="a_Node000038"><a xlink:title=" ">
<polygon fill="#e0e0e0" stroke="#999999" points="285.75,-141 224,-141 224,-121.75 285.75,-121.75 285.75,-141"/>
<text text-anchor="middle" x="254.88" y="-126.55" font-family="Helvetica,sans-Serif" font-size="11.00">stdexcept</text>
</a>
</g>
</g>
<!-- Node36&#45;&gt;Node38 -->
<g id="edge58_Node000036_Node000038" class="edge">
<title>Node36&#45;&gt;Node38</title>
<g id="a_edge58_Node000036_Node000038"><a xlink:title=" ">
<path fill="none" stroke="#63b8ff" d="M353,-182.18C334.22,-172.64 304.41,-157.52 282.57,-146.43"/>
<polygon fill="#63b8ff" stroke="#63b8ff" points="284.43,-143.45 273.93,-142.04 281.26,-149.69 284.43,-143.45"/>
</a>
</g>
</g>
</g>
</svg>

<g id="navigator" transform="translate(0 0)" fill="#404254">
  <rect fill="#f2f5e9" fill-opacity="0.5" stroke="#606060" stroke-width=".5" x="0" y="0" width="60" height="60"/>
  <use id="zoomplus" xlink:href="#zoomPlus" x="17" y="9" onmousedown="handleZoom(evt,'in')"/>
  <use id="zoomminus" xlink:href="#zoomMin" x="42" y="9" onmousedown="handleZoom(evt,'out')"/>
  <use id="reset" xlink:href="#resetDef" x="30" y="36" onmousedown="handleReset()"/>
   <use id="arrowup" xlink:href="#arrowUp" x="0" y="0" onmousedown="handlePan(0,-1)"/>
  <use id="arrowright" xlink:href="#arrowRight" x="0" y="0" onmousedown="handlePan(1,0)"/>
  <use id="arrowdown" xlink:href="#arrowDown" x="0" y="0" onmousedown="handlePan(0,1)"/>
  <use id="arrowleft" xlink:href="#arrowLeft" x="0" y="0" onmousedown="handlePan(-1,0)"/>
</g>
<svg viewBox="0 0 15 15" width="100%" height="30px" preserveAspectRatio="xMaxYMin meet">
 <g id="arrow_out" transform="scale(0.3 0.3)">
  <a xlink:href="graphics_8h__incl_org.svg" target="_base">
   <rect id="button" ry="5" rx="5" y="6" x="6" height="38" width="38"
        fill="#f2f5e9" fill-opacity="0.5" stroke="#606060" stroke-width="1.0"/>
   <path id="arrow"
     d="M 11.500037,31.436501 C 11.940474,20.09759 22.043105,11.32322 32.158766,21.979434 L 37.068811,17.246167 C 37.068811,17.246167 37.088388,32 37.088388,32 L 22.160133,31.978069 C 22.160133,31.978069 26.997745,27.140456 26.997745,27.140456 C 18.528582,18.264221 13.291696,25.230495 11.500037,31.436501 z"
     style="fill:#404040;"/>
  </a>
 </g>
</svg>

<style type='text/css'>
<![CDATA[
[data-mouse-over-selected='false'] { opacity: 0.7; }
[data-mouse-over-selected='true']  { opacity: 1.0; }
]]>
</style>
<script type="application/ecmascript"><![CDATA[
document.addEventListener('DOMContentLoaded', (event) => {
  highlightEdges();
  highlightAdjacentNodes();
});
]]></script>
</svg>
