<?xml version="1.0" encoding="UTF-8" standalone="no"?>
<!DOCTYPE svg PUBLIC "-//W3C//DTD SVG 1.1//EN"
 "http://www.w3.org/Graphics/SVG/1.1/DTD/svg11.dtd">
<!-- Generated by graphviz version 10.0.1 (0)
 -->
<!-- Title: graphics.h Pages: 1 -->
<svg width="961pt" height="326pt"
 viewBox="0.00 0.00 960.62 326.00" xmlns="http://www.w3.org/2000/svg" xmlns:xlink="http://www.w3.org/1999/xlink">
<g id="graph0" class="graph" transform="scale(1 1) rotate(0) translate(4 322)">
<title>graphics.h</title>
<!-- Node1 -->
<g id="Node000001" class="node">
<title>Node1</title>
<g id="a_Node000001"><a xlink:title="Classes and functions related to graphics and drawing.">
<polygon fill="#999999" stroke="#666666" points="742.62,-318 677.12,-318 677.12,-298.75 742.62,-298.75 742.62,-318"/>
<text text-anchor="middle" x="709.88" y="-303.55" font-family="Helvetica,sans-Serif" font-size="11.00">graphics.h</text>
</a>
</g>
</g>
<!-- Node2 -->
<g id="Node000002" class="node">
<title>Node2</title>
<g id="a_Node000002"><a xlink:href="color_8h.html" target="_top" xlink:title="Class representing a color.">
<polygon fill="white" stroke="#666666" points="771.12,-262.75 648.62,-262.75 648.62,-243.5 771.12,-243.5 771.12,-262.75"/>
<text text-anchor="middle" x="709.88" y="-248.3" font-family="Helvetica,sans-Serif" font-size="11.00">floppy/graphics/color.h</text>
</a>
</g>
</g>
<!-- Node1&#45;&gt;Node2 -->
<g id="edge1_Node000001_Node000002" class="edge">
<title>Node1&#45;&gt;Node2</title>
<g id="a_edge1_Node000001_Node000002"><a xlink:title=" ">
<path fill="none" stroke="#63b8ff" d="M709.88,-298.58C709.88,-292.07 709.88,-282.92 709.88,-274.62"/>
<polygon fill="#63b8ff" stroke="#63b8ff" points="713.38,-274.62 709.88,-264.62 706.38,-274.62 713.38,-274.62"/>
</a>
</g>
</g>
<!-- Node3 -->
<g id="Node000003" class="node">
<title>Node3</title>
<g id="a_Node000003"><a xlink:title=" ">
<polygon fill="#e0e0e0" stroke="#999999" points="253.25,-207.5 212.5,-207.5 212.5,-188.25 253.25,-188.25 253.25,-207.5"/>
<text text-anchor="middle" x="232.88" y="-193.05" font-family="Helvetica,sans-Serif" font-size="11.00">array</text>
</a>
</g>
</g>
<!-- Node2&#45;&gt;Node3 -->
<g id="edge2_Node000002_Node000003" class="edge">
<title>Node2&#45;&gt;Node3</title>
<g id="a_edge2_Node000002_Node000003"><a xlink:title=" ">
<path fill="none" stroke="#63b8ff" d="M648.47,-249.7C563.86,-245.54 406.63,-234.91 264.72,-207.73"/>
<polygon fill="#63b8ff" stroke="#63b8ff" points="265.64,-204.34 255.15,-205.86 264.3,-211.21 265.64,-204.34"/>
</a>
</g>
</g>
<!-- Node4 -->
<g id="Node000004" class="node">
<title>Node4</title>
<g id="a_Node000004"><a xlink:href="math_8h_source.html" target="_top" xlink:title=" ">
<polygon fill="white" stroke="#666666" points="380.38,-207.5 271.38,-207.5 271.38,-188.25 380.38,-188.25 380.38,-207.5"/>
<text text-anchor="middle" x="325.88" y="-193.05" font-family="Helvetica,sans-Serif" font-size="11.00">floppy/detail/math.h</text>
</a>
</g>
</g>
<!-- Node2&#45;&gt;Node4 -->
<g id="edge3_Node000002_Node000004" class="edge">
<title>Node2&#45;&gt;Node4</title>
<g id="a_edge3_Node000002_Node000004"><a xlink:title=" ">
<path fill="none" stroke="#63b8ff" d="M648.18,-243.57C577.95,-233.83 463.67,-217.98 391.74,-208.01"/>
<polygon fill="#63b8ff" stroke="#63b8ff" points="392.46,-204.58 382.08,-206.67 391.5,-211.51 392.46,-204.58"/>
</a>
</g>
</g>
<!-- Node22 -->
<g id="Node000022" class="node">
<title>Node22</title>
<g id="a_Node000022"><a xlink:href="formatters_8h_source.html" target="_top" xlink:title=" ">
<polygon fill="white" stroke="#666666" points="909.75,-80.12 776,-80.12 776,-60.88 909.75,-60.88 909.75,-80.12"/>
<text text-anchor="middle" x="842.88" y="-65.67" font-family="Helvetica,sans-Serif" font-size="11.00">floppy/detail/formatters.h</text>
</a>
</g>
</g>
<!-- Node2&#45;&gt;Node22 -->
<g id="edge23_Node000002_Node000022" class="edge">
<title>Node2&#45;&gt;Node22</title>
<g id="a_edge23_Node000002_Node000022"><a xlink:title=" ">
<path fill="none" stroke="#63b8ff" d="M728.01,-243.06C755.58,-228.22 807.42,-195.97 831.88,-152.25 842.33,-133.56 844.27,-108.73 844.1,-91.56"/>
<polygon fill="#63b8ff" stroke="#63b8ff" points="847.61,-91.53 843.73,-81.67 840.61,-91.79 847.61,-91.53"/>
</a>
</g>
</g>
<!-- Node25 -->
<g id="Node000025" class="node">
<title>Node25</title>
<g id="a_Node000025"><a xlink:href="traits_8h_source.html" target="_top" xlink:title=" ">
<polygon fill="white" stroke="#666666" points="749.75,-207.5 670,-207.5 670,-188.25 749.75,-188.25 749.75,-207.5"/>
<text text-anchor="middle" x="709.88" y="-193.05" font-family="Helvetica,sans-Serif" font-size="11.00">floppy/traits.h</text>
</a>
</g>
</g>
<!-- Node2&#45;&gt;Node25 -->
<g id="edge28_Node000002_Node000025" class="edge">
<title>Node2&#45;&gt;Node25</title>
<g id="a_edge28_Node000002_Node000025"><a xlink:title=" ">
<path fill="none" stroke="#63b8ff" d="M709.88,-243.33C709.88,-236.82 709.88,-227.67 709.88,-219.37"/>
<polygon fill="#63b8ff" stroke="#63b8ff" points="713.38,-219.37 709.88,-209.37 706.38,-219.37 713.38,-219.37"/>
</a>
</g>
</g>
<!-- Node30 -->
<g id="Node000030" class="node">
<title>Node30</title>
<g id="a_Node000030"><a xlink:title=" ">
<polygon fill="#e0e0e0" stroke="#999999" points="952.62,-207.5 899.12,-207.5 899.12,-188.25 952.62,-188.25 952.62,-207.5"/>
<text text-anchor="middle" x="925.88" y="-193.05" font-family="Helvetica,sans-Serif" font-size="11.00">qcolor.h</text>
</a>
</g>
</g>
<!-- Node2&#45;&gt;Node30 -->
<g id="edge40_Node000002_Node000030" class="edge">
<title>Node2&#45;&gt;Node30</title>
<g id="a_edge40_Node000002_Node000030"><a xlink:title=" ">
<path fill="none" stroke="#63b8ff" d="M746.52,-243.09C785.73,-233.42 847.68,-218.15 887.54,-208.33"/>
<polygon fill="#63b8ff" stroke="#63b8ff" points="888.31,-211.74 897.18,-205.95 886.64,-204.94 888.31,-211.74"/>
</a>
</g>
</g>
<!-- Node5 -->
<g id="Node000005" class="node">
<title>Node5</title>
<g id="a_Node000005"><a xlink:title=" ">
<polygon fill="#e0e0e0" stroke="#999999" points="191.5,-146.62 146.25,-146.62 146.25,-127.38 191.5,-127.38 191.5,-146.62"/>
<text text-anchor="middle" x="168.88" y="-132.18" font-family="Helvetica,sans-Serif" font-size="11.00">cmath</text>
</a>
</g>
</g>
<!-- Node4&#45;&gt;Node5 -->
<g id="edge4_Node000004_Node000005" class="edge">
<title>Node4&#45;&gt;Node5</title>
<g id="a_edge4_Node000004_Node000005"><a xlink:title=" ">
<path fill="none" stroke="#63b8ff" d="M298.83,-187.88C273.36,-179.26 234.25,-165.61 200.88,-152.25 200.24,-152 199.6,-151.74 198.95,-151.47"/>
<polygon fill="#63b8ff" stroke="#63b8ff" points="200.37,-148.27 189.8,-147.57 197.63,-154.71 200.37,-148.27"/>
</a>
</g>
</g>
<!-- Node6 -->
<g id="Node000006" class="node">
<title>Node6</title>
<g id="a_Node000006"><a xlink:title=" ">
<polygon fill="#e0e0e0" stroke="#999999" points="249.88,-146.62 209.88,-146.62 209.88,-127.38 249.88,-127.38 249.88,-146.62"/>
<text text-anchor="middle" x="229.88" y="-132.18" font-family="Helvetica,sans-Serif" font-size="11.00">limits</text>
</a>
</g>
</g>
<!-- Node4&#45;&gt;Node6 -->
<g id="edge5_Node000004_Node000006" class="edge">
<title>Node4&#45;&gt;Node6</title>
<g id="a_edge5_Node000004_Node000006"><a xlink:title=" ">
<path fill="none" stroke="#63b8ff" d="M311.29,-187.93C296.21,-178.68 272.39,-164.07 254.4,-153.04"/>
<polygon fill="#63b8ff" stroke="#63b8ff" points="256.24,-150.06 245.88,-147.82 252.58,-156.03 256.24,-150.06"/>
</a>
</g>
</g>
<!-- Node7 -->
<g id="Node000007" class="node">
<title>Node7</title>
<g id="a_Node000007"><a xlink:title=" ">
<polygon fill="#e0e0e0" stroke="#999999" points="325.88,-146.62 267.88,-146.62 267.88,-127.38 325.88,-127.38 325.88,-146.62"/>
<text text-anchor="middle" x="296.88" y="-132.18" font-family="Helvetica,sans-Serif" font-size="11.00">numbers</text>
</a>
</g>
</g>
<!-- Node4&#45;&gt;Node7 -->
<g id="edge6_Node000004_Node000007" class="edge">
<title>Node4&#45;&gt;Node7</title>
<g id="a_edge6_Node000004_Node000007"><a xlink:title=" ">
<path fill="none" stroke="#63b8ff" d="M321.47,-187.93C317.47,-179.81 311.43,-167.54 306.33,-157.2"/>
<polygon fill="#63b8ff" stroke="#63b8ff" points="309.55,-155.81 301.99,-148.38 303.27,-158.9 309.55,-155.81"/>
</a>
</g>
</g>
<!-- Node8 -->
<g id="Node000008" class="node">
<title>Node8</title>
<g id="a_Node000008"><a xlink:title=" ">
<polygon fill="#e0e0e0" stroke="#999999" points="426.88,-80.12 368.88,-80.12 368.88,-60.88 426.88,-60.88 426.88,-80.12"/>
<text text-anchor="middle" x="397.88" y="-65.67" font-family="Helvetica,sans-Serif" font-size="11.00">compare</text>
</a>
</g>
</g>
<!-- Node4&#45;&gt;Node8 -->
<g id="edge7_Node000004_Node000008" class="edge">
<title>Node4&#45;&gt;Node8</title>
<g id="a_edge7_Node000004_Node000008"><a xlink:title=" ">
<path fill="none" stroke="#63b8ff" d="M331.05,-187.86C342.73,-167.53 371.31,-117.75 387.05,-90.35"/>
<polygon fill="#63b8ff" stroke="#63b8ff" points="390.05,-92.16 391.99,-81.75 383.97,-88.68 390.05,-92.16"/>
</a>
</g>
</g>
<!-- Node9 -->
<g id="Node000009" class="node">
<title>Node9</title>
<g id="a_Node000009"><a xlink:href="export_8h_source.html" target="_top" xlink:title=" ">
<polygon fill="white" stroke="#666666" points="564.38,-80.12 449.38,-80.12 449.38,-60.88 564.38,-60.88 564.38,-80.12"/>
<text text-anchor="middle" x="506.88" y="-65.67" font-family="Helvetica,sans-Serif" font-size="11.00">floppy/detail/export.h</text>
</a>
</g>
</g>
<!-- Node4&#45;&gt;Node9 -->
<g id="edge8_Node000004_Node000009" class="edge">
<title>Node4&#45;&gt;Node9</title>
<g id="a_edge8_Node000004_Node000009"><a xlink:title=" ">
<path fill="none" stroke="#63b8ff" d="M335.37,-187.89C351.28,-173.1 384.63,-143.13 415.88,-121.75 435.8,-108.12 459.74,-95.02 478.07,-85.61"/>
<polygon fill="#63b8ff" stroke="#63b8ff" points="479.44,-88.84 486.79,-81.2 476.28,-82.59 479.44,-88.84"/>
</a>
</g>
</g>
<!-- Node14 -->
<g id="Node000014" class="node">
<title>Node14</title>
<g id="a_Node000014"><a xlink:href="concepts_8h_source.html" target="_top" xlink:title=" ">
<polygon fill="white" stroke="#666666" points="127.75,-146.62 0,-146.62 0,-127.38 127.75,-127.38 127.75,-146.62"/>
<text text-anchor="middle" x="63.88" y="-132.18" font-family="Helvetica,sans-Serif" font-size="11.00">floppy/detail/concepts.h</text>
</a>
</g>
</g>
<!-- Node4&#45;&gt;Node14 -->
<g id="edge13_Node000004_Node000014" class="edge">
<title>Node4&#45;&gt;Node14</title>
<g id="a_edge13_Node000004_Node000014"><a xlink:title=" ">
<path fill="none" stroke="#63b8ff" d="M285.51,-187.8C239.84,-177.54 165.32,-160.8 115.46,-149.59"/>
<polygon fill="#63b8ff" stroke="#63b8ff" points="116.28,-146.19 105.76,-147.41 114.75,-153.02 116.28,-146.19"/>
</a>
</g>
</g>
<!-- Node10 -->
<g id="Node000010" class="node">
<title>Node10</title>
<g id="a_Node000010"><a xlink:title=" ">
<polygon fill="#e0e0e0" stroke="#999999" points="580,-19.25 537.75,-19.25 537.75,0 580,0 580,-19.25"/>
<text text-anchor="middle" x="558.88" y="-4.8" font-family="Helvetica,sans-Serif" font-size="11.00">string</text>
</a>
</g>
</g>
<!-- Node9&#45;&gt;Node10 -->
<g id="edge9_Node000009_Node000010" class="edge">
<title>Node9&#45;&gt;Node10</title>
<g id="a_edge9_Node000009_Node000010"><a xlink:title=" ">
<path fill="none" stroke="#63b8ff" d="M514.77,-60.56C522.33,-52 533.94,-38.85 543.36,-28.2"/>
<polygon fill="#63b8ff" stroke="#63b8ff" points="545.9,-30.6 549.9,-20.79 540.66,-25.96 545.9,-30.6"/>
</a>
</g>
</g>
<!-- Node11 -->
<g id="Node000011" class="node">
<title>Node11</title>
<g id="a_Node000011"><a xlink:title=" ">
<polygon fill="#e0e0e0" stroke="#999999" points="750.88,-19.25 680.88,-19.25 680.88,0 750.88,0 750.88,-19.25"/>
<text text-anchor="middle" x="715.88" y="-4.8" font-family="Helvetica,sans-Serif" font-size="11.00">string_view</text>
</a>
</g>
</g>
<!-- Node9&#45;&gt;Node11 -->
<g id="edge10_Node000009_Node000011" class="edge">
<title>Node9&#45;&gt;Node11</title>
<g id="a_edge10_Node000009_Node000011"><a xlink:title=" ">
<path fill="none" stroke="#63b8ff" d="M539.07,-60.43C574.9,-50.34 632.95,-33.98 672.7,-22.79"/>
<polygon fill="#63b8ff" stroke="#63b8ff" points="673.51,-26.2 682.18,-20.12 671.61,-19.46 673.51,-26.2"/>
</a>
</g>
</g>
<!-- Node12 -->
<g id="Node000012" class="node">
<title>Node12</title>
<g id="a_Node000012"><a xlink:title=" ">
<polygon fill="#e0e0e0" stroke="#999999" points="660.5,-19.25 603.25,-19.25 603.25,0 660.5,0 660.5,-19.25"/>
<text text-anchor="middle" x="631.88" y="-4.8" font-family="Helvetica,sans-Serif" font-size="11.00">iostream</text>
</a>
</g>
</g>
<!-- Node9&#45;&gt;Node12 -->
<g id="edge11_Node000009_Node000012" class="edge">
<title>Node9&#45;&gt;Node12</title>
<g id="a_edge11_Node000009_Node000012"><a xlink:title=" ">
<path fill="none" stroke="#63b8ff" d="M526.13,-60.43C546.56,-50.81 579.08,-35.49 602.67,-24.38"/>
<polygon fill="#63b8ff" stroke="#63b8ff" points="603.88,-27.68 611.43,-20.25 600.89,-21.35 603.88,-27.68"/>
</a>
</g>
</g>
<!-- Node13 -->
<g id="Node000013" class="node">
<title>Node13</title>
<g id="a_Node000013"><a xlink:title=" ">
<polygon fill="#e0e0e0" stroke="#999999" points="519.75,-19.25 446,-19.25 446,0 519.75,0 519.75,-19.25"/>
<text text-anchor="middle" x="482.88" y="-4.8" font-family="Helvetica,sans-Serif" font-size="11.00">fmt/format.h</text>
</a>
</g>
</g>
<!-- Node9&#45;&gt;Node13 -->
<g id="edge12_Node000009_Node000013" class="edge">
<title>Node9&#45;&gt;Node13</title>
<g id="a_edge12_Node000009_Node000013"><a xlink:title=" ">
<path fill="none" stroke="#63b8ff" d="M503.23,-60.56C499.95,-52.52 495.02,-40.43 490.84,-30.16"/>
<polygon fill="#63b8ff" stroke="#63b8ff" points="494.14,-28.99 487.13,-21.05 487.66,-31.63 494.14,-28.99"/>
</a>
</g>
</g>
<!-- Node15 -->
<g id="Node000015" class="node">
<title>Node15</title>
<g id="a_Node000015"><a xlink:title=" ">
<polygon fill="#e0e0e0" stroke="#999999" points="89.25,-80.12 30.5,-80.12 30.5,-60.88 89.25,-60.88 89.25,-80.12"/>
<text text-anchor="middle" x="59.88" y="-65.67" font-family="Helvetica,sans-Serif" font-size="11.00">concepts</text>
</a>
</g>
</g>
<!-- Node14&#45;&gt;Node15 -->
<g id="edge14_Node000014_Node000015" class="edge">
<title>Node14&#45;&gt;Node15</title>
<g id="a_edge14_Node000014_Node000015"><a xlink:title=" ">
<path fill="none" stroke="#63b8ff" d="M63.32,-127.03C62.76,-117.98 61.87,-103.7 61.14,-91.88"/>
<polygon fill="#63b8ff" stroke="#63b8ff" points="64.63,-91.67 60.52,-81.9 57.65,-92.1 64.63,-91.67"/>
</a>
</g>
</g>
<!-- Node16 -->
<g id="Node000016" class="node">
<title>Node16</title>
<g id="a_Node000016"><a xlink:href="type__traits_8h_source.html" target="_top" xlink:title=" ">
<polygon fill="white" stroke="#666666" points="204,-85.75 107.75,-85.75 107.75,-55.25 204,-55.25 204,-85.75"/>
<text text-anchor="start" x="115.75" y="-71.3" font-family="Helvetica,sans-Serif" font-size="11.00">floppy/detail/type</text>
<text text-anchor="middle" x="155.88" y="-60.05" font-family="Helvetica,sans-Serif" font-size="11.00">_traits.h</text>
</a>
</g>
</g>
<!-- Node14&#45;&gt;Node16 -->
<g id="edge15_Node000014_Node000016" class="edge">
<title>Node14&#45;&gt;Node16</title>
<g id="a_edge15_Node000014_Node000016"><a xlink:title=" ">
<path fill="none" stroke="#63b8ff" d="M76.67,-127.03C89.3,-118.18 109.08,-104.31 125.71,-92.65"/>
<polygon fill="#63b8ff" stroke="#63b8ff" points="127.65,-95.57 133.82,-86.96 123.63,-89.83 127.65,-95.57"/>
</a>
</g>
</g>
<!-- Node18 -->
<g id="Node000018" class="node">
<title>Node18</title>
<g id="a_Node000018"><a xlink:href="types_8h_source.html" target="_top" xlink:title=" ">
<polygon fill="white" stroke="#666666" points="343.12,-80.12 232.62,-80.12 232.62,-60.88 343.12,-60.88 343.12,-80.12"/>
<text text-anchor="middle" x="287.88" y="-65.67" font-family="Helvetica,sans-Serif" font-size="11.00">floppy/detail/types.h</text>
</a>
</g>
</g>
<!-- Node14&#45;&gt;Node18 -->
<g id="edge17_Node000014_Node000018" class="edge">
<title>Node14&#45;&gt;Node18</title>
<g id="a_edge17_Node000014_Node000018"><a xlink:title=" ">
<path fill="none" stroke="#63b8ff" d="M95.49,-126.9C134.77,-115.59 201.91,-96.25 245.58,-83.68"/>
<polygon fill="#63b8ff" stroke="#63b8ff" points="246.32,-87.11 254.96,-80.98 244.38,-80.38 246.32,-87.11"/>
</a>
</g>
</g>
<!-- Node17 -->
<g id="Node000017" class="node">
<title>Node17</title>
<g id="a_Node000017"><a xlink:title=" ">
<polygon fill="#e0e0e0" stroke="#999999" points="188.62,-19.25 123.12,-19.25 123.12,0 188.62,0 188.62,-19.25"/>
<text text-anchor="middle" x="155.88" y="-4.8" font-family="Helvetica,sans-Serif" font-size="11.00">type_traits</text>
</a>
</g>
</g>
<!-- Node16&#45;&gt;Node17 -->
<g id="edge16_Node000016_Node000017" class="edge">
<title>Node16&#45;&gt;Node17</title>
<g id="a_edge16_Node000016_Node000017"><a xlink:title=" ">
<path fill="none" stroke="#63b8ff" d="M155.88,-54.95C155.88,-47.71 155.88,-38.84 155.88,-30.94"/>
<polygon fill="#63b8ff" stroke="#63b8ff" points="159.38,-31.21 155.88,-21.21 152.38,-31.21 159.38,-31.21"/>
</a>
</g>
</g>
<!-- Node18&#45;&gt;Node13 -->
<g id="edge22_Node000018_Node000013" class="edge">
<title>Node18&#45;&gt;Node13</title>
<g id="a_edge22_Node000018_Node000013"><a xlink:title=" ">
<path fill="none" stroke="#63b8ff" d="M317.92,-60.43C351.13,-50.4 404.81,-34.19 441.87,-23"/>
<polygon fill="#63b8ff" stroke="#63b8ff" points="442.79,-26.38 451.35,-20.14 440.77,-19.68 442.79,-26.38"/>
</a>
</g>
</g>
<!-- Node18&#45;&gt;Node17 -->
<g id="edge21_Node000018_Node000017" class="edge">
<title>Node18&#45;&gt;Node17</title>
<g id="a_edge21_Node000018_Node000017"><a xlink:title=" ">
<path fill="none" stroke="#63b8ff" d="M267.54,-60.43C245.87,-50.76 211.32,-35.35 186.38,-24.23"/>
<polygon fill="#63b8ff" stroke="#63b8ff" points="187.96,-21.1 177.4,-20.23 185.11,-27.5 187.96,-21.1"/>
</a>
</g>
</g>
<!-- Node19 -->
<g id="Node000019" class="node">
<title>Node19</title>
<g id="a_Node000019"><a xlink:title=" ">
<polygon fill="#e0e0e0" stroke="#999999" points="393.12,-19.25 342.62,-19.25 342.62,0 393.12,0 393.12,-19.25"/>
<text text-anchor="middle" x="367.88" y="-4.8" font-family="Helvetica,sans-Serif" font-size="11.00">cstddef</text>
</a>
</g>
</g>
<!-- Node18&#45;&gt;Node19 -->
<g id="edge18_Node000018_Node000019" class="edge">
<title>Node18&#45;&gt;Node19</title>
<g id="a_edge18_Node000018_Node000019"><a xlink:title=" ">
<path fill="none" stroke="#63b8ff" d="M300.03,-60.56C312.36,-51.48 331.71,-37.24 346.59,-26.29"/>
<polygon fill="#63b8ff" stroke="#63b8ff" points="348.41,-29.29 354.39,-20.55 344.26,-23.66 348.41,-29.29"/>
</a>
</g>
</g>
<!-- Node20 -->
<g id="Node000020" class="node">
<title>Node20</title>
<g id="a_Node000020"><a xlink:title=" ">
<polygon fill="#e0e0e0" stroke="#999999" points="253.25,-19.25 206.5,-19.25 206.5,0 253.25,0 253.25,-19.25"/>
<text text-anchor="middle" x="229.88" y="-4.8" font-family="Helvetica,sans-Serif" font-size="11.00">cstdint</text>
</a>
</g>
</g>
<!-- Node18&#45;&gt;Node20 -->
<g id="edge19_Node000018_Node000020" class="edge">
<title>Node18&#45;&gt;Node20</title>
<g id="a_edge19_Node000018_Node000020"><a xlink:title=" ">
<path fill="none" stroke="#63b8ff" d="M279.07,-60.56C270.46,-51.83 257.16,-38.32 246.55,-27.55"/>
<polygon fill="#63b8ff" stroke="#63b8ff" points="249.34,-25.4 239.83,-20.73 244.35,-30.31 249.34,-25.4"/>
</a>
</g>
</g>
<!-- Node21 -->
<g id="Node000021" class="node">
<title>Node21</title>
<g id="a_Node000021"><a xlink:title=" ">
<polygon fill="#e0e0e0" stroke="#999999" points="324.62,-19.25 271.12,-19.25 271.12,0 324.62,0 324.62,-19.25"/>
<text text-anchor="middle" x="297.88" y="-4.8" font-family="Helvetica,sans-Serif" font-size="11.00">optional</text>
</a>
</g>
</g>
<!-- Node18&#45;&gt;Node21 -->
<g id="edge20_Node000018_Node000021" class="edge">
<title>Node18&#45;&gt;Node21</title>
<g id="a_edge20_Node000018_Node000021"><a xlink:title=" ">
<path fill="none" stroke="#63b8ff" d="M289.39,-60.56C290.73,-52.69 292.72,-40.95 294.44,-30.82"/>
<polygon fill="#63b8ff" stroke="#63b8ff" points="297.86,-31.59 296.09,-21.14 290.96,-30.42 297.86,-31.59"/>
</a>
</g>
</g>
<!-- Node22&#45;&gt;Node11 -->
<g id="edge24_Node000022_Node000011" class="edge">
<title>Node22&#45;&gt;Node11</title>
<g id="a_edge24_Node000022_Node000011"><a xlink:title=" ">
<path fill="none" stroke="#63b8ff" d="M823.31,-60.43C802.55,-50.81 769.51,-35.49 745.55,-24.38"/>
<polygon fill="#63b8ff" stroke="#63b8ff" points="747.17,-21.28 736.63,-20.25 744.23,-27.63 747.17,-21.28"/>
</a>
</g>
</g>
<!-- Node22&#45;&gt;Node13 -->
<g id="edge27_Node000022_Node000013" class="edge">
<title>Node22&#45;&gt;Node13</title>
<g id="a_edge27_Node000022_Node000013"><a xlink:title=" ">
<path fill="none" stroke="#63b8ff" d="M782.89,-60.39C722.05,-51.03 624.88,-35.8 531.13,-19.6"/>
<polygon fill="#63b8ff" stroke="#63b8ff" points="531.96,-16.2 521.51,-17.94 530.76,-23.09 531.96,-16.2"/>
</a>
</g>
</g>
<!-- Node23 -->
<g id="Node000023" class="node">
<title>Node23</title>
<g id="a_Node000023"><a xlink:title=" ">
<polygon fill="#e0e0e0" stroke="#999999" points="824,-19.25 769.75,-19.25 769.75,0 824,0 824,-19.25"/>
<text text-anchor="middle" x="796.88" y="-4.8" font-family="Helvetica,sans-Serif" font-size="11.00">sstream</text>
</a>
</g>
</g>
<!-- Node22&#45;&gt;Node23 -->
<g id="edge25_Node000022_Node000023" class="edge">
<title>Node22&#45;&gt;Node23</title>
<g id="a_edge25_Node000022_Node000023"><a xlink:title=" ">
<path fill="none" stroke="#63b8ff" d="M835.89,-60.56C829.27,-52.09 819.14,-39.12 810.86,-28.52"/>
<polygon fill="#63b8ff" stroke="#63b8ff" points="813.77,-26.57 804.86,-20.84 808.26,-30.88 813.77,-26.57"/>
</a>
</g>
</g>
<!-- Node24 -->
<g id="Node000024" class="node">
<title>Node24</title>
<g id="a_Node000024"><a xlink:title=" ">
<polygon fill="#e0e0e0" stroke="#999999" points="889.25,-19.25 842.5,-19.25 842.5,0 889.25,0 889.25,-19.25"/>
<text text-anchor="middle" x="865.88" y="-4.8" font-family="Helvetica,sans-Serif" font-size="11.00">iosfwd</text>
</a>
</g>
</g>
<!-- Node22&#45;&gt;Node24 -->
<g id="edge26_Node000022_Node000024" class="edge">
<title>Node22&#45;&gt;Node24</title>
<g id="a_edge26_Node000022_Node000024"><a xlink:title=" ">
<path fill="none" stroke="#63b8ff" d="M846.37,-60.56C849.51,-52.52 854.23,-40.43 858.24,-30.16"/>
<polygon fill="#63b8ff" stroke="#63b8ff" points="861.42,-31.65 861.8,-21.06 854.9,-29.1 861.42,-31.65"/>
</a>
</g>
</g>
<!-- Node25&#45;&gt;Node9 -->
<g id="edge32_Node000025_Node000009" class="edge">
<title>Node25&#45;&gt;Node9</title>
<g id="a_edge32_Node000025_Node000009"><a xlink:title=" ">
<path fill="none" stroke="#63b8ff" d="M669.52,-196.07C603.42,-193.79 476.63,-185.15 448.88,-152.25 430.66,-130.66 459.43,-103.68 482.56,-87.02"/>
<polygon fill="#63b8ff" stroke="#63b8ff" points="484.46,-89.96 490.72,-81.42 480.5,-84.19 484.46,-89.96"/>
</a>
</g>
</g>
<!-- Node25&#45;&gt;Node12 -->
<g id="edge30_Node000025_Node000012" class="edge">
<title>Node25&#45;&gt;Node12</title>
<g id="a_edge30_Node000025_Node000012"><a xlink:title=" ">
<path fill="none" stroke="#63b8ff" d="M722.78,-187.96C733.11,-179.96 746.84,-167.22 752.88,-152.25 769.53,-110.96 758.14,-87.9 727.88,-55.25 712.83,-39.03 690.71,-28.19 671.49,-21.27"/>
<polygon fill="#63b8ff" stroke="#63b8ff" points="672.62,-17.95 662.02,-18.11 670.4,-24.59 672.62,-17.95"/>
</a>
</g>
</g>
<!-- Node25&#45;&gt;Node22 -->
<g id="edge33_Node000025_Node000022" class="edge">
<title>Node25&#45;&gt;Node22</title>
<g id="a_edge33_Node000025_Node000022"><a xlink:title=" ">
<path fill="none" stroke="#63b8ff" d="M745.78,-187.84C766.5,-181.03 791.76,-169.8 808.88,-152.25 825.28,-135.43 834.26,-109.52 838.81,-91.6"/>
<polygon fill="#63b8ff" stroke="#63b8ff" points="842.21,-92.45 841,-81.93 835.38,-90.91 842.21,-92.45"/>
</a>
</g>
</g>
<!-- Node26 -->
<g id="Node000026" class="node">
<title>Node26</title>
<g id="a_Node000026"><a xlink:title=" ">
<polygon fill="#e0e0e0" stroke="#999999" points="718.38,-80.12 663.38,-80.12 663.38,-60.88 718.38,-60.88 718.38,-80.12"/>
<text text-anchor="middle" x="690.88" y="-65.67" font-family="Helvetica,sans-Serif" font-size="11.00">memory</text>
</a>
</g>
</g>
<!-- Node25&#45;&gt;Node26 -->
<g id="edge29_Node000025_Node000026" class="edge">
<title>Node25&#45;&gt;Node26</title>
<g id="a_edge29_Node000025_Node000026"><a xlink:title=" ">
<path fill="none" stroke="#63b8ff" d="M717.55,-188.04C724.4,-179.53 733.93,-165.96 737.88,-152.25 741.62,-139.22 742.85,-134.36 737.88,-121.75 732.64,-108.48 722.06,-96.65 712.26,-87.81"/>
<polygon fill="#63b8ff" stroke="#63b8ff" points="714.72,-85.31 704.81,-81.55 710.21,-90.67 714.72,-85.31"/>
</a>
</g>
</g>
<!-- Node27 -->
<g id="Node000027" class="node">
<title>Node27</title>
<g id="a_Node000027"><a xlink:title=" ">
<polygon fill="#e0e0e0" stroke="#999999" points="728.5,-152.25 599.25,-152.25 599.25,-121.75 728.5,-121.75 728.5,-152.25"/>
<text text-anchor="start" x="607.25" y="-137.8" font-family="Helvetica,sans-Serif" font-size="11.00">experimental/propagate</text>
<text text-anchor="middle" x="663.88" y="-126.55" font-family="Helvetica,sans-Serif" font-size="11.00">_const</text>
</a>
</g>
</g>
<!-- Node25&#45;&gt;Node27 -->
<g id="edge31_Node000025_Node000027" class="edge">
<title>Node25&#45;&gt;Node27</title>
<g id="a_edge31_Node000025_Node000027"><a xlink:title=" ">
<path fill="none" stroke="#63b8ff" d="M702.89,-187.93C697.38,-180.89 689.45,-170.73 682.17,-161.42"/>
<polygon fill="#63b8ff" stroke="#63b8ff" points="685.08,-159.45 676.16,-153.72 679.56,-163.76 685.08,-159.45"/>
</a>
</g>
</g>
<!-- Node28 -->
<g id="Node000028" class="node">
<title>Node28</title>
<g id="a_Node000028"><a xlink:href="memory_8h_source.html" target="_top" xlink:title=" ">
<polygon fill="white" stroke="#666666" points="581.5,-146.62 458.25,-146.62 458.25,-127.38 581.5,-127.38 581.5,-146.62"/>
<text text-anchor="middle" x="519.88" y="-132.18" font-family="Helvetica,sans-Serif" font-size="11.00">floppy/detail/memory.h</text>
</a>
</g>
</g>
<!-- Node25&#45;&gt;Node28 -->
<g id="edge34_Node000025_Node000028" class="edge">
<title>Node25&#45;&gt;Node28</title>
<g id="a_edge34_Node000025_Node000028"><a xlink:title=" ">
<path fill="none" stroke="#63b8ff" d="M680.6,-187.8C648.25,-177.78 595.94,-161.57 559.83,-150.38"/>
<polygon fill="#63b8ff" stroke="#63b8ff" points="561.21,-147.15 550.63,-147.53 559.14,-153.83 561.21,-147.15"/>
</a>
</g>
</g>
<!-- Node28&#45;&gt;Node8 -->
<g id="edge36_Node000028_Node000008" class="edge">
<title>Node28&#45;&gt;Node8</title>
<g id="a_edge36_Node000028_Node000008"><a xlink:title=" ">
<path fill="none" stroke="#63b8ff" d="M502.65,-126.9C482.49,-116.24 448.84,-98.44 425.12,-85.91"/>
<polygon fill="#63b8ff" stroke="#63b8ff" points="426.82,-82.85 416.35,-81.27 423.55,-89.03 426.82,-82.85"/>
</a>
</g>
</g>
<!-- Node28&#45;&gt;Node9 -->
<g id="edge38_Node000028_Node000009" class="edge">
<title>Node28&#45;&gt;Node9</title>
<g id="a_edge38_Node000028_Node000009"><a xlink:title=" ">
<path fill="none" stroke="#63b8ff" d="M518.07,-127.03C516.22,-117.89 513.3,-103.39 510.91,-91.5"/>
<polygon fill="#63b8ff" stroke="#63b8ff" points="514.37,-90.99 508.97,-81.88 507.51,-92.37 514.37,-90.99"/>
</a>
</g>
</g>
<!-- Node28&#45;&gt;Node22 -->
<g id="edge39_Node000028_Node000022" class="edge">
<title>Node28&#45;&gt;Node22</title>
<g id="a_edge39_Node000028_Node000022"><a xlink:title=" ">
<path fill="none" stroke="#63b8ff" d="M564.31,-126.92C572.79,-125.2 581.61,-123.41 589.88,-121.75 657.02,-108.25 734.23,-92.94 785.52,-82.81"/>
<polygon fill="#63b8ff" stroke="#63b8ff" points="786.08,-86.27 795.21,-80.9 784.72,-79.4 786.08,-86.27"/>
</a>
</g>
</g>
<!-- Node28&#45;&gt;Node26 -->
<g id="edge35_Node000028_Node000026" class="edge">
<title>Node28&#45;&gt;Node26</title>
<g id="a_edge35_Node000028_Node000026"><a xlink:title=" ">
<path fill="none" stroke="#63b8ff" d="M544.01,-126.9C573.29,-115.85 622.87,-97.15 656.22,-84.57"/>
<polygon fill="#63b8ff" stroke="#63b8ff" points="657.32,-87.9 665.44,-81.09 654.85,-81.35 657.32,-87.9"/>
</a>
</g>
</g>
<!-- Node29 -->
<g id="Node000029" class="node">
<title>Node29</title>
<g id="a_Node000029"><a xlink:title=" ">
<polygon fill="#e0e0e0" stroke="#999999" points="643.75,-80.12 582,-80.12 582,-60.88 643.75,-60.88 643.75,-80.12"/>
<text text-anchor="middle" x="612.88" y="-65.67" font-family="Helvetica,sans-Serif" font-size="11.00">stdexcept</text>
</a>
</g>
</g>
<!-- Node28&#45;&gt;Node29 -->
<g id="edge37_Node000028_Node000029" class="edge">
<title>Node28&#45;&gt;Node29</title>
<g id="a_edge37_Node000028_Node000029"><a xlink:title=" ">
<path fill="none" stroke="#63b8ff" d="M532.81,-127.03C547.71,-116.69 572.48,-99.52 590.52,-87"/>
<polygon fill="#63b8ff" stroke="#63b8ff" points="592.29,-90.04 598.51,-81.46 588.3,-84.29 592.29,-90.04"/>
</a>
</g>
</g>
</g>
</svg>
