<?xml version="1.0" encoding="UTF-8" standalone="no"?>
<!DOCTYPE svg PUBLIC "-//W3C//DTD SVG 1.1//EN"
 "http://www.w3.org/Graphics/SVG/1.1/DTD/svg11.dtd">
<!-- Generated by graphviz version 10.0.1 (0)
 -->
<!-- Title: Foundation Pages: 1 -->
<svg width="194pt" height="212pt"
 viewBox="0.00 0.00 193.75 212.25" xmlns="http://www.w3.org/2000/svg" xmlns:xlink="http://www.w3.org/1999/xlink">

<svg id="main" version="1.1" xmlns="http://www.w3.org/2000/svg" xmlns:xlink="http://www.w3.org/1999/xlink" xml:space="preserve" onload="init(evt)">
<style type="text/css"><![CDATA[
.node, .edge {opacity: 0.7;}
.node.selected, .edge.selected {opacity: 1;}
.edge:hover path { stroke: red; }
.edge:hover polygon { stroke: red; fill: red; }
]]></style>
<script type="application/ecmascript" xlink:href="svg.min.js"/>
<svg id="graph" class="graph">
<g id="graph0" class="graph" transform="scale(1 1) rotate(0) translate(4 208.25)">
<title>Foundation</title>
<!-- Node2 -->
<g id="Node000002" class="node">
<title>Node2</title>
<g id="a_Node000002"><a xlink:href="group__exceptions.html" target="_top" xlink:title="Library exception classes.">
<polygon fill="white" stroke="#666666" points="180.12,-204.25 111.62,-204.25 111.62,-185 180.12,-185 180.12,-204.25"/>
<text text-anchor="middle" x="145.88" y="-189.8" font-family="Helvetica,sans-Serif" font-size="11.00">Exceptions</text>
</a>
</g>
</g>
<!-- Node1 -->
<g id="Node000001" class="node">
<title>Node1</title>
<g id="a_Node000001"><a xlink:title="The foundation classes of the library.">
<polygon fill="#999999" stroke="#666666" points="70,-111.25 0,-111.25 0,-92 70,-92 70,-111.25"/>
<text text-anchor="middle" x="35" y="-96.8" font-family="Helvetica,sans-Serif" font-size="11.00">Foundation</text>
</a>
</g>
</g>
<!-- Node1&#45;&gt;Node2 -->
<g id="edge1" class="edge">
<title>Node1&#45;&gt;Node2</title>
<path fill="none" stroke="black" d="M49.95,-120.25C63.02,-136.72 83.81,-160.56 106,-176.62 110.1,-179.59 114.76,-182.25 119.4,-184.56"/>
<polygon fill="black" stroke="black" points="53.01,-118.49 44.12,-112.72 47.47,-122.77 53.01,-118.49"/>
</g>
<!-- Node5 -->
<g id="Node000005" class="node">
<title>Node5</title>
<g id="a_Node000005"><a xlink:href="group__logging.html" target="_top" xlink:title="Logging&#45;related functions.">
<polygon fill="white" stroke="#666666" points="173,-167.25 118.75,-167.25 118.75,-148 173,-148 173,-167.25"/>
<text text-anchor="middle" x="145.88" y="-152.8" font-family="Helvetica,sans-Serif" font-size="11.00">Logging</text>
</a>
</g>
</g>
<!-- Node1&#45;&gt;Node5 -->
<g id="edge4" class="edge">
<title>Node1&#45;&gt;Node5</title>
<path fill="none" stroke="black" d="M63.7,-117.19C76.47,-124.23 91.91,-132.55 106,-139.62 111.32,-142.3 117.11,-145.06 122.56,-147.59"/>
<polygon fill="black" stroke="black" points="65.44,-114.15 55,-112.36 62.04,-120.27 65.44,-114.15"/>
</g>
<!-- Node3 -->
<g id="Node000003" class="node">
<title>Node3</title>
<g id="a_Node000003"><a xlink:href="group__memory.html" target="_top" xlink:title="Memory related classes and functions.">
<polygon fill="white" stroke="#666666" points="173.38,-130.25 118.38,-130.25 118.38,-111 173.38,-111 173.38,-130.25"/>
<text text-anchor="middle" x="145.88" y="-115.8" font-family="Helvetica,sans-Serif" font-size="11.00">Memory</text>
</a>
</g>
</g>
<!-- Node1&#45;&gt;Node3 -->
<g id="edge2" class="edge">
<title>Node1&#45;&gt;Node3</title>
<path fill="none" stroke="black" d="M81.55,-109.57C93.92,-111.73 106.91,-114 117.89,-115.92"/>
<polygon fill="black" stroke="black" points="82.39,-106.17 71.94,-107.9 81.19,-113.06 82.39,-106.17"/>
</g>
<!-- Node6 -->
<g id="Node000006" class="node">
<title>Node6</title>
<g id="a_Node000006"><a xlink:href="group__serialization.html" target="_top" xlink:title="Serialization&#45;related functions.">
<polygon fill="white" stroke="#666666" points="183.12,-93.25 108.62,-93.25 108.62,-74 183.12,-74 183.12,-93.25"/>
<text text-anchor="middle" x="145.88" y="-78.8" font-family="Helvetica,sans-Serif" font-size="11.00">Serialization</text>
</a>
</g>
</g>
<!-- Node1&#45;&gt;Node6 -->
<g id="edge5" class="edge">
<title>Node1&#45;&gt;Node6</title>
<path fill="none" stroke="black" d="M81.54,-94.1C90.5,-92.62 99.78,-91.08 108.39,-89.66"/>
<polygon fill="black" stroke="black" points="81.24,-90.6 71.94,-95.68 82.38,-97.5 81.24,-90.6"/>
</g>
<!-- Node4 -->
<g id="Node000004" class="node">
<title>Node4</title>
<g id="a_Node000004"><a xlink:href="group__string__utils.html" target="_top" xlink:title="Constexpr&#45;friendly string related functions.">
<polygon fill="white" stroke="#666666" points="185.75,-56.25 106,-56.25 106,-37 185.75,-37 185.75,-56.25"/>
<text text-anchor="middle" x="145.88" y="-41.8" font-family="Helvetica,sans-Serif" font-size="11.00">String utilities</text>
</a>
</g>
</g>
<!-- Node1&#45;&gt;Node4 -->
<g id="edge3" class="edge">
<title>Node1&#45;&gt;Node4</title>
<path fill="none" stroke="black" d="M64.26,-86.25C76.95,-79.47 92.14,-71.49 106,-64.62 111.33,-61.98 117.13,-59.24 122.58,-56.71"/>
<polygon fill="black" stroke="black" points="62.77,-83.08 55.62,-90.9 66.08,-89.25 62.77,-83.08"/>
</g>
<!-- Node7 -->
<g id="Node000007" class="node">
<title>Node7</title>
<g id="a_Node000007"><a xlink:href="group__traits.html" target="_top" xlink:title="Traits for your classes and types.">
<polygon fill="white" stroke="#666666" points="167,-19.25 124.75,-19.25 124.75,0 167,0 167,-19.25"/>
<text text-anchor="middle" x="145.88" y="-4.8" font-family="Helvetica,sans-Serif" font-size="11.00">Traits</text>
</a>
</g>
</g>
<!-- Node1&#45;&gt;Node7 -->
<g id="edge6" class="edge">
<title>Node1&#45;&gt;Node7</title>
<path fill="none" stroke="black" d="M50.21,-82.99C63.33,-66.76 84.04,-43.42 106,-27.62 111.56,-23.63 118.14,-20.18 124.29,-17.4"/>
<polygon fill="black" stroke="black" points="47.8,-80.4 44.36,-90.42 53.29,-84.74 47.8,-80.4"/>
</g>
</g>
</svg>
</svg>

<style type='text/css'>
<![CDATA[
[data-mouse-over-selected='false'] { opacity: 0.7; }
[data-mouse-over-selected='true']  { opacity: 1.0; }
]]>
</style>
<script type="application/ecmascript"><![CDATA[
document.addEventListener('DOMContentLoaded', (event) => {
  highlightEdges();
  highlightAdjacentNodes();
});
]]></script>
</svg>
