<?xml version="1.0" encoding="UTF-8" standalone="no"?>
<!DOCTYPE svg PUBLIC "-//W3C//DTD SVG 1.1//EN"
 "http://www.w3.org/Graphics/SVG/1.1/DTD/svg11.dtd">
<!-- Generated by graphviz version 10.0.1 (0)
 -->
<!-- Title: Foundation Pages: 1 -->
<svg width="189pt" height="138pt"
 viewBox="0.00 0.00 188.50 138.25" xmlns="http://www.w3.org/2000/svg" xmlns:xlink="http://www.w3.org/1999/xlink">
<g id="graph0" class="graph" transform="scale(1 1) rotate(0) translate(4 134.25)">
<title>Foundation</title>
<!-- Node1 -->
<g id="Node000001" class="node">
<title>Node1</title>
<g id="a_Node000001"><a xlink:title="The foundation classes of the library.">
<polygon fill="#999999" stroke="#666666" points="70,-74.25 0,-74.25 0,-55 70,-55 70,-74.25"/>
<text text-anchor="middle" x="35" y="-59.8" font-family="Helvetica,sans-Serif" font-size="11.00">Foundation</text>
</a>
</g>
</g>
<!-- Node3 -->
<g id="Node000003" class="node">
<title>Node3</title>
<g id="a_Node000003"><a xlink:href="group__logging.html" target="_top" xlink:title="Logging&#45;related functions.">
<polygon fill="white" stroke="#666666" points="170.38,-130.25 116.12,-130.25 116.12,-111 170.38,-111 170.38,-130.25"/>
<text text-anchor="middle" x="143.25" y="-115.8" font-family="Helvetica,sans-Serif" font-size="11.00">Logging</text>
</a>
</g>
</g>
<!-- Node1&#45;&gt;Node3 -->
<g id="edge2" class="edge">
<title>Node1&#45;&gt;Node3</title>
<path fill="none" stroke="black" d="M64.05,-80.15C76.79,-87.13 92.1,-95.4 106,-102.62 111.11,-105.28 116.67,-108.08 121.86,-110.66"/>
<polygon fill="black" stroke="black" points="65.81,-77.13 55.36,-75.38 62.44,-83.26 65.81,-77.13"/>
</g>
<!-- Node2 -->
<g id="Node000002" class="node">
<title>Node2</title>
<g id="a_Node000002"><a xlink:href="group__memory.html" target="_top" xlink:title="Memory related classes and functions.">
<polygon fill="white" stroke="#666666" points="170.75,-93.25 115.75,-93.25 115.75,-74 170.75,-74 170.75,-93.25"/>
<text text-anchor="middle" x="143.25" y="-78.8" font-family="Helvetica,sans-Serif" font-size="11.00">Memory</text>
</a>
</g>
</g>
<!-- Node1&#45;&gt;Node2 -->
<g id="edge1" class="edge">
<title>Node1&#45;&gt;Node2</title>
<path fill="none" stroke="black" d="M81.72,-72.8C93.19,-74.85 105.12,-76.98 115.33,-78.81"/>
<polygon fill="black" stroke="black" points="82.45,-69.38 71.99,-71.06 81.21,-76.27 82.45,-69.38"/>
</g>
<!-- Node4 -->
<g id="Node000004" class="node">
<title>Node4</title>
<g id="a_Node000004"><a xlink:href="group__serialization.html" target="_top" xlink:title="Serialization&#45;related functions.">
<polygon fill="white" stroke="#666666" points="180.5,-56.25 106,-56.25 106,-37 180.5,-37 180.5,-56.25"/>
<text text-anchor="middle" x="143.25" y="-41.8" font-family="Helvetica,sans-Serif" font-size="11.00">Serialization</text>
</a>
</g>
</g>
<!-- Node1&#45;&gt;Node4 -->
<g id="edge3" class="edge">
<title>Node1&#45;&gt;Node4</title>
<path fill="none" stroke="black" d="M81.64,-56.89C89.69,-55.53 97.97,-54.13 105.73,-52.81"/>
<polygon fill="black" stroke="black" points="81.26,-53.41 71.99,-58.53 82.43,-60.31 81.26,-53.41"/>
</g>
<!-- Node5 -->
<g id="Node000005" class="node">
<title>Node5</title>
<g id="a_Node000005"><a xlink:href="group__traits.html" target="_top" xlink:title="Traits for your classes and types.">
<polygon fill="white" stroke="#666666" points="164.38,-19.25 122.12,-19.25 122.12,0 164.38,0 164.38,-19.25"/>
<text text-anchor="middle" x="143.25" y="-4.8" font-family="Helvetica,sans-Serif" font-size="11.00">Traits</text>
</a>
</g>
</g>
<!-- Node1&#45;&gt;Node5 -->
<g id="edge4" class="edge">
<title>Node1&#45;&gt;Node5</title>
<path fill="none" stroke="black" d="M64.62,-49.29C77.26,-42.57 92.33,-34.63 106,-27.62 111.13,-25 116.69,-22.21 121.88,-19.63"/>
<polygon fill="black" stroke="black" points="63.16,-46.1 55.99,-53.89 66.46,-52.27 63.16,-46.1"/>
</g>
</g>
</svg>
