<?xml version="1.0" encoding="UTF-8" standalone="no"?>
<!DOCTYPE svg PUBLIC "-//W3C//DTD SVG 1.1//EN"
 "http://www.w3.org/Graphics/SVG/1.1/DTD/svg11.dtd">
<!-- Generated by graphviz version 10.0.1 (0)
 -->
<!-- Title: Graphical Class Hierarchy Pages: 1 -->
<svg width="448pt" height="119pt"
 viewBox="0.00 0.00 447.50 119.25" xmlns="http://www.w3.org/2000/svg" xmlns:xlink="http://www.w3.org/1999/xlink">
<g id="graph0" class="graph" transform="scale(1 1) rotate(0) translate(4 115.25)">
<title>Graphical Class Hierarchy</title>
<!-- Node0 -->
<g id="Node000000" class="node">
<title>Node0</title>
<g id="a_Node000000"><a xlink:href="d7/d83/structfloppy_1_1traits_1_1non__copyable.html" target="_top" xlink:title="Disallow copy operations for a type.">
<polygon fill="white" stroke="#666666" points="109,-92.25 0,-92.25 0,-73 109,-73 109,-92.25"/>
<text text-anchor="middle" x="54.5" y="-77.8" font-family="Arial" font-size="11.00">non_copyable&lt; T &gt;</text>
</a>
</g>
</g>
<!-- Node1 -->
<g id="Node000001" class="node">
<title>Node1</title>
<g id="a_Node000001"><a xlink:href="d7/dac/structfloppy_1_1traits_1_1pin.html" target="_top" xlink:title=" ">
<polygon fill="white" stroke="#666666" points="250.62,-111.25 154.38,-111.25 154.38,-92 250.62,-92 250.62,-111.25"/>
<text text-anchor="middle" x="202.5" y="-96.8" font-family="Arial" font-size="11.00">pin&lt; TestPimpl &gt;</text>
</a>
</g>
</g>
<!-- Node0&#45;&gt;Node1 -->
<g id="edge5_Node000000_Node000001" class="edge">
<title>Node0&#45;&gt;Node1</title>
<g id="a_edge5_Node000000_Node000001"><a xlink:title=" ">
<path fill="none" stroke="#63b8ff" d="M120.58,-91.09C131.84,-92.56 143.35,-94.06 154.03,-95.45"/>
<polygon fill="#63b8ff" stroke="#63b8ff" points="121.32,-87.66 110.95,-89.84 120.42,-94.6 121.32,-87.66"/>
</a>
</g>
</g>
<!-- Node3 -->
<g id="Node000003" class="node">
<title>Node3</title>
<g id="a_Node000003"><a xlink:href="d7/dac/structfloppy_1_1traits_1_1pin.html" target="_top" xlink:title=" ">
<polygon fill="white" stroke="#666666" points="260,-74.25 145,-74.25 145,-55 260,-55 260,-74.25"/>
<text text-anchor="middle" x="202.5" y="-59.8" font-family="Arial" font-size="11.00">pin&lt; TestSingleton &gt;</text>
</a>
</g>
</g>
<!-- Node0&#45;&gt;Node3 -->
<g id="edge6_Node000000_Node000003" class="edge">
<title>Node0&#45;&gt;Node3</title>
<g id="a_edge6_Node000000_Node000003"><a xlink:title=" ">
<path fill="none" stroke="#63b8ff" d="M120.7,-74.59C128.75,-73.59 136.93,-72.59 144.84,-71.61"/>
<polygon fill="#63b8ff" stroke="#63b8ff" points="120.45,-71.09 110.95,-75.79 121.31,-78.04 120.45,-71.09"/>
</a>
</g>
</g>
<!-- Node4 -->
<g id="Node000004" class="node">
<title>Node4</title>
<g id="a_Node000004"><a xlink:href="d7/dac/structfloppy_1_1traits_1_1pin.html" target="_top" xlink:title="Disallow copy and move operations for a type.">
<polygon fill="white" stroke="#666666" points="230.75,-37.25 174.25,-37.25 174.25,-18 230.75,-18 230.75,-37.25"/>
<text text-anchor="middle" x="202.5" y="-22.8" font-family="Arial" font-size="11.00">pin&lt; T &gt;</text>
</a>
</g>
</g>
<!-- Node0&#45;&gt;Node4 -->
<g id="edge7_Node000000_Node000004" class="edge">
<title>Node0&#45;&gt;Node4</title>
<g id="a_edge7_Node000000_Node000004"><a xlink:title=" ">
<path fill="none" stroke="#63b8ff" d="M99.12,-68.6C102.49,-67.32 105.82,-65.99 109,-64.62 125.63,-57.5 128.32,-52.62 145,-45.62 154.21,-41.76 164.55,-38.24 173.85,-35.36"/>
<polygon fill="#63b8ff" stroke="#63b8ff" points="97.99,-65.29 89.77,-71.99 100.37,-71.88 97.99,-65.29"/>
</a>
</g>
</g>
<!-- Node5 -->
<g id="Node000005" class="node">
<title>Node5</title>
<g id="a_Node000005"><a xlink:href="d9/d8a/structfloppy_1_1traits_1_1singleton.html" target="_top" xlink:title=" ">
<polygon fill="white" stroke="#666666" points="439.5,-56.25 296,-56.25 296,-37 439.5,-37 439.5,-56.25"/>
<text text-anchor="middle" x="367.75" y="-41.8" font-family="Arial" font-size="11.00">singleton&lt; TestSingleton &gt;</text>
</a>
</g>
</g>
<!-- Node4&#45;&gt;Node5 -->
<g id="edge8_Node000004_Node000005" class="edge">
<title>Node4&#45;&gt;Node5</title>
<g id="a_edge8_Node000004_Node000005"><a xlink:title=" ">
<path fill="none" stroke="#63b8ff" d="M242.24,-32.13C258.22,-33.99 277.27,-36.21 295.6,-38.34"/>
<polygon fill="#63b8ff" stroke="#63b8ff" points="243.03,-28.7 232.7,-31.02 242.22,-35.66 243.03,-28.7"/>
</a>
</g>
</g>
<!-- Node6 -->
<g id="Node000006" class="node">
<title>Node6</title>
<g id="a_Node000006"><a xlink:href="d9/d8a/structfloppy_1_1traits_1_1singleton.html" target="_top" xlink:title="Singleton pattern trait.">
<polygon fill="white" stroke="#666666" points="410.25,-19.25 325.25,-19.25 325.25,0 410.25,0 410.25,-19.25"/>
<text text-anchor="middle" x="367.75" y="-4.8" font-family="Arial" font-size="11.00">singleton&lt; T &gt;</text>
</a>
</g>
</g>
<!-- Node4&#45;&gt;Node6 -->
<g id="edge9_Node000004_Node000006" class="edge">
<title>Node4&#45;&gt;Node6</title>
<g id="a_edge9_Node000004_Node000006"><a xlink:title=" ">
<path fill="none" stroke="#63b8ff" d="M242.38,-23.34C267.21,-20.6 299.39,-17.05 324.79,-14.25"/>
<polygon fill="#63b8ff" stroke="#63b8ff" points="242.25,-19.83 232.7,-24.41 243.02,-26.79 242.25,-19.83"/>
</a>
</g>
</g>
<!-- Node2 -->
<g id="Node000002" class="node">
<title>Node2</title>
<g id="a_Node000002"><a xlink:href="d2/df5/structfloppy_1_1traits_1_1non__movable.html" target="_top" xlink:title="Disallow move operations for a type.">
<polygon fill="white" stroke="#666666" points="107.88,-55.25 1.12,-55.25 1.12,-36 107.88,-36 107.88,-55.25"/>
<text text-anchor="middle" x="54.5" y="-40.8" font-family="Arial" font-size="11.00">non_movable&lt; T &gt;</text>
</a>
</g>
</g>
<!-- Node2&#45;&gt;Node1 -->
<g id="edge10_Node000002_Node000001" class="edge">
<title>Node2&#45;&gt;Node1</title>
<g id="a_edge10_Node000002_Node000001"><a xlink:title=" ">
<path fill="none" stroke="#63b8ff" d="M99.29,-59.62C102.61,-60.91 105.87,-62.24 109,-63.62 125.74,-71.02 128.2,-76.37 145,-83.62 151.71,-86.52 159.04,-89.2 166.14,-91.55"/>
<polygon fill="#63b8ff" stroke="#63b8ff" points="100.7,-56.41 90.1,-56.26 98.29,-62.98 100.7,-56.41"/>
</a>
</g>
</g>
<!-- Node2&#45;&gt;Node3 -->
<g id="edge11_Node000002_Node000003" class="edge">
<title>Node2&#45;&gt;Node3</title>
<g id="a_edge11_Node000002_Node000003"><a xlink:title=" ">
<path fill="none" stroke="#63b8ff" d="M119.58,-53.96C128.02,-55.06 136.62,-56.18 144.92,-57.26"/>
<polygon fill="#63b8ff" stroke="#63b8ff" points="120.08,-50.5 109.71,-52.68 119.17,-57.44 120.08,-50.5"/>
</a>
</g>
</g>
<!-- Node2&#45;&gt;Node4 -->
<g id="edge12_Node000002_Node000004" class="edge">
<title>Node2&#45;&gt;Node4</title>
<g id="a_edge12_Node000002_Node000004"><a xlink:title=" ">
<path fill="none" stroke="#63b8ff" d="M119.59,-37.72C138.62,-35.38 158.47,-32.93 173.87,-31.03"/>
<polygon fill="#63b8ff" stroke="#63b8ff" points="119.21,-34.24 109.71,-38.94 120.06,-41.19 119.21,-34.24"/>
</a>
</g>
</g>
</g>
</svg>
