<?xml version="1.0" encoding="UTF-8" standalone="no"?>
<!DOCTYPE svg PUBLIC "-//W3C//DTD SVG 1.1//EN"
 "http://www.w3.org/Graphics/SVG/1.1/DTD/svg11.dtd">
<!-- Generated by graphviz version 10.0.1 (0)
 -->
<!-- Title: Graphical Class Hierarchy Pages: 1 -->
<svg width="385pt" height="76pt"
 viewBox="0.00 0.00 385.25 75.88" xmlns="http://www.w3.org/2000/svg" xmlns:xlink="http://www.w3.org/1999/xlink">
<g id="graph0" class="graph" transform="scale(1 1) rotate(0) translate(4 71.88)">
<title>Graphical Class Hierarchy</title>
<!-- Node0 -->
<g id="Node000000" class="node">
<title>Node0</title>
<g id="a_Node000000"><a xlink:href="d5/d4f/structfloppy_1_1traits_1_1detail_1_1formattable__base.html" target="_top" xlink:title="Interface, providing to_string method.">
<polygon fill="white" stroke="#666666" points="127,-40.25 0,-40.25 0,-21 127,-21 127,-40.25"/>
<text text-anchor="middle" x="63.5" y="-25.8" font-family="Arial" font-size="11.00">formattable_base&lt; C &gt;</text>
</a>
</g>
</g>
<!-- Node1 -->
<g id="Node000001" class="node">
<title>Node1</title>
<g id="a_Node000001"><a xlink:href="db/d59/structfloppy_1_1traits_1_1formattable.html" target="_top" xlink:title=" ">
<polygon fill="white" stroke="#666666" points="270.88,-67.88 164.88,-67.88 164.88,-37.38 270.88,-37.38 270.88,-67.88"/>
<text text-anchor="start" x="172.88" y="-53.42" font-family="Arial" font-size="11.00">formattable&lt; angle</text>
<text text-anchor="middle" x="217.88" y="-42.17" font-family="Arial" font-size="11.00">&lt; f32 &gt;, char &gt;</text>
</a>
</g>
</g>
<!-- Node0&#45;&gt;Node1 -->
<g id="edge3_Node000000_Node000001" class="edge">
<title>Node0&#45;&gt;Node1</title>
<g id="a_edge3_Node000000_Node000001"><a xlink:title=" ">
<path fill="none" stroke="#63b8ff" d="M138.55,-41.32C147.43,-42.6 156.35,-43.89 164.82,-45.11"/>
<polygon fill="#63b8ff" stroke="#63b8ff" points="139.25,-37.88 128.85,-39.92 138.25,-44.81 139.25,-37.88"/>
</a>
</g>
</g>
<!-- Node2 -->
<g id="Node000002" class="node">
<title>Node2</title>
<g id="a_Node000002"><a xlink:href="db/d59/structfloppy_1_1traits_1_1formattable.html" target="_top" xlink:title="Allows type to be converted to string and printed via standard streams or fmt.">
<polygon fill="white" stroke="#666666" points="272.75,-19.25 163,-19.25 163,0 272.75,0 272.75,-19.25"/>
<text text-anchor="middle" x="217.88" y="-4.8" font-family="Arial" font-size="11.00">formattable&lt; T, C &gt;</text>
</a>
</g>
</g>
<!-- Node0&#45;&gt;Node2 -->
<g id="edge4_Node000000_Node000002" class="edge">
<title>Node0&#45;&gt;Node2</title>
<g id="a_edge4_Node000000_Node000002"><a xlink:title=" ">
<path fill="none" stroke="#63b8ff" d="M138.52,-20.42C146.74,-19.29 155,-18.15 162.91,-17.06"/>
<polygon fill="#63b8ff" stroke="#63b8ff" points="138.28,-16.92 128.86,-21.76 139.24,-23.86 138.28,-16.92"/>
</a>
</g>
</g>
<!-- Node3 -->
<g id="Node000003" class="node">
<title>Node3</title>
<g id="a_Node000003"><a xlink:href="de/d4d/structfloppy_1_1math_1_1angle.html" target="_top" xlink:title="Newtype describing an angle.">
<polygon fill="white" stroke="#666666" points="377.25,-19.25 308.75,-19.25 308.75,0 377.25,0 377.25,-19.25"/>
<text text-anchor="middle" x="343" y="-4.8" font-family="Arial" font-size="11.00">angle&lt; T &gt;</text>
</a>
</g>
</g>
<!-- Node2&#45;&gt;Node3 -->
<g id="edge5_Node000002_Node000003" class="edge">
<title>Node2&#45;&gt;Node3</title>
<g id="a_edge5_Node000002_Node000003"><a xlink:title=" ">
<path fill="none" stroke="#63b8ff" d="M284.52,-9.62C292.8,-9.62 300.97,-9.62 308.44,-9.62"/>
<polygon fill="#63b8ff" stroke="#63b8ff" points="284.75,-6.13 274.75,-9.63 284.75,-13.13 284.75,-6.13"/>
</a>
</g>
</g>
</g>
</svg>
