<?xml version="1.0" encoding="UTF-8" standalone="no"?>
<!DOCTYPE svg PUBLIC "-//W3C//DTD SVG 1.1//EN"
 "http://www.w3.org/Graphics/SVG/1.1/DTD/svg11.dtd">
<!-- Generated by graphviz version 10.0.1 (0)
 -->
<!-- Title: Graphical Class Hierarchy Pages: 1 -->
<svg width="331pt" height="64pt"
 viewBox="0.00 0.00 330.50 64.25" xmlns="http://www.w3.org/2000/svg" xmlns:xlink="http://www.w3.org/1999/xlink">
<g id="graph0" class="graph" transform="scale(1 1) rotate(0) translate(4 60.25)">
<title>Graphical Class Hierarchy</title>
<!-- Node0 -->
<g id="Node000000" class="node">
<title>Node0</title>
<g id="a_Node000000"><a xlink:href="structfloppy_1_1traits_1_1non__copyable.html" target="_top" xlink:title="Disallow copy operations for a type.">
<polygon fill="white" stroke="#666666" points="109,-56.25 0,-56.25 0,-37 109,-37 109,-56.25"/>
<text text-anchor="middle" x="54.5" y="-41.8" font-family="Helvetica,sans-Serif" font-size="11.00">non_copyable&lt; T &gt;</text>
</a>
</g>
</g>
<!-- Node1 -->
<g id="Node000001" class="node">
<title>Node1</title>
<g id="a_Node000001"><a xlink:href="structfloppy_1_1traits_1_1pin.html" target="_top" xlink:title="Disallow copy and move operations for a type.">
<polygon fill="white" stroke="#666666" points="201.5,-37.25 145,-37.25 145,-18 201.5,-18 201.5,-37.25"/>
<text text-anchor="middle" x="173.25" y="-22.8" font-family="Helvetica,sans-Serif" font-size="11.00">pin&lt; T &gt;</text>
</a>
</g>
</g>
<!-- Node0&#45;&gt;Node1 -->
<g id="edge53_Node000000_Node000001" class="edge">
<title>Node0&#45;&gt;Node1</title>
<g id="a_edge53_Node000000_Node000001"><a xlink:title=" ">
<path fill="none" stroke="#63b8ff" d="M120.59,-36.03C129.03,-34.66 137.29,-33.31 144.64,-32.12"/>
<polygon fill="#63b8ff" stroke="#63b8ff" points="120.23,-32.54 110.93,-37.6 121.36,-39.45 120.23,-32.54"/>
</a>
</g>
</g>
<!-- Node2 -->
<g id="Node000002" class="node">
<title>Node2</title>
<g id="a_Node000002"><a xlink:href="structfloppy_1_1traits_1_1singleton.html" target="_top" xlink:title="Singleton pattern trait.">
<polygon fill="white" stroke="#666666" points="322.5,-37.25 237.5,-37.25 237.5,-18 322.5,-18 322.5,-37.25"/>
<text text-anchor="middle" x="280" y="-22.8" font-family="Helvetica,sans-Serif" font-size="11.00">singleton&lt; T &gt;</text>
</a>
</g>
</g>
<!-- Node1&#45;&gt;Node2 -->
<g id="edge54_Node000001_Node000002" class="edge">
<title>Node1&#45;&gt;Node2</title>
<g id="a_edge54_Node000001_Node000002"><a xlink:title=" ">
<path fill="none" stroke="#63b8ff" d="M213.17,-27.62C220.96,-27.62 229.17,-27.62 237.06,-27.62"/>
<polygon fill="#63b8ff" stroke="#63b8ff" points="213.29,-24.13 203.29,-27.63 213.29,-31.13 213.29,-24.13"/>
</a>
</g>
</g>
<!-- Node3 -->
<g id="Node000003" class="node">
<title>Node3</title>
<g id="a_Node000003"><a xlink:href="structfloppy_1_1traits_1_1non__movable.html" target="_top" xlink:title="Disallow move operations for a type.">
<polygon fill="white" stroke="#666666" points="107.88,-19.25 1.12,-19.25 1.12,0 107.88,0 107.88,-19.25"/>
<text text-anchor="middle" x="54.5" y="-4.8" font-family="Helvetica,sans-Serif" font-size="11.00">non_movable&lt; T &gt;</text>
</a>
</g>
</g>
<!-- Node3&#45;&gt;Node1 -->
<g id="edge55_Node000003_Node000001" class="edge">
<title>Node3&#45;&gt;Node1</title>
<g id="a_edge55_Node000003_Node000001"><a xlink:title=" ">
<path fill="none" stroke="#63b8ff" d="M119.32,-19.46C128.17,-20.83 136.86,-22.17 144.55,-23.35"/>
<polygon fill="#63b8ff" stroke="#63b8ff" points="119.98,-16.03 109.56,-17.96 118.91,-22.94 119.98,-16.03"/>
</a>
</g>
</g>
</g>
</svg>
