<?xml version="1.0" encoding="UTF-8" standalone="no"?>
<!DOCTYPE svg PUBLIC "-//W3C//DTD SVG 1.1//EN"
 "http://www.w3.org/Graphics/SVG/1.1/DTD/svg11.dtd">
<!-- Generated by graphviz version 10.0.1 (0)
 -->
<!-- Title: Graphical Class Hierarchy Pages: 1 -->
<svg width="417pt" height="143pt"
 viewBox="0.00 0.00 416.75 142.88" xmlns="http://www.w3.org/2000/svg" xmlns:xlink="http://www.w3.org/1999/xlink">
<g id="graph0" class="graph" transform="scale(1 1) rotate(0) translate(4 138.88)">
<title>Graphical Class Hierarchy</title>
<!-- Node0 -->
<g id="Node000000" class="node">
<title>Node0</title>
<g id="a_Node000000"><a xlink:href="d5/d4f/structfloppy_1_1traits_1_1detail_1_1formattable__base.html" target="_top" xlink:title="Interface, providing to_string method.">
<polygon fill="white" stroke="#666666" points="127,-80.25 0,-80.25 0,-61 127,-61 127,-80.25"/>
<text text-anchor="middle" x="63.5" y="-65.8" font-family="Arial" font-size="11.00">formattable_base&lt; C &gt;</text>
</a>
</g>
</g>
<!-- Node1 -->
<g id="Node000001" class="node">
<title>Node1</title>
<g id="a_Node000001"><a xlink:href="db/d59/structfloppy_1_1traits_1_1formattable.html" target="_top" xlink:title=" ">
<polygon fill="white" stroke="#666666" points="273.5,-134.88 167.5,-134.88 167.5,-104.38 273.5,-104.38 273.5,-134.88"/>
<text text-anchor="start" x="175.5" y="-120.42" font-family="Arial" font-size="11.00">formattable&lt; angle</text>
<text text-anchor="middle" x="220.5" y="-109.17" font-family="Arial" font-size="11.00">&lt; f32 &gt;, char &gt;</text>
</a>
</g>
</g>
<!-- Node0&#45;&gt;Node1 -->
<g id="edge3_Node000000_Node000001" class="edge">
<title>Node0&#45;&gt;Node1</title>
<g id="a_edge3_Node000000_Node000001"><a xlink:title=" ">
<path fill="none" stroke="#63b8ff" d="M107.18,-84.12C126.57,-90.25 149.63,-97.54 169.79,-103.91"/>
<polygon fill="#63b8ff" stroke="#63b8ff" points="108.27,-80.79 97.68,-81.12 106.16,-87.47 108.27,-80.79"/>
</a>
</g>
</g>
<!-- Node2 -->
<g id="Node000002" class="node">
<title>Node2</title>
<g id="a_Node000002"><a xlink:href="db/d59/structfloppy_1_1traits_1_1formattable.html" target="_top" xlink:title=" ">
<polygon fill="white" stroke="#666666" points="278,-85.88 163,-85.88 163,-55.38 278,-55.38 278,-85.88"/>
<text text-anchor="start" x="171" y="-71.42" font-family="Arial" font-size="11.00">formattable&lt; scale</text>
<text text-anchor="middle" x="220.5" y="-60.17" font-family="Arial" font-size="11.00">&lt; S, D, f32 &gt;, char &gt;</text>
</a>
</g>
</g>
<!-- Node0&#45;&gt;Node2 -->
<g id="edge4_Node000000_Node000002" class="edge">
<title>Node0&#45;&gt;Node2</title>
<g id="a_edge4_Node000000_Node000002"><a xlink:title=" ">
<path fill="none" stroke="#63b8ff" d="M138.51,-70.62C146.63,-70.62 154.81,-70.62 162.67,-70.62"/>
<polygon fill="#63b8ff" stroke="#63b8ff" points="138.61,-67.13 128.61,-70.63 138.61,-74.13 138.61,-67.13"/>
</a>
</g>
</g>
<!-- Node3 -->
<g id="Node000003" class="node">
<title>Node3</title>
<g id="a_Node000003"><a xlink:href="db/d59/structfloppy_1_1traits_1_1formattable.html" target="_top" xlink:title="Allows type to be converted to string and printed via standard streams or fmt.">
<polygon fill="white" stroke="#666666" points="275.38,-37.25 165.62,-37.25 165.62,-18 275.38,-18 275.38,-37.25"/>
<text text-anchor="middle" x="220.5" y="-22.8" font-family="Arial" font-size="11.00">formattable&lt; T, C &gt;</text>
</a>
</g>
</g>
<!-- Node0&#45;&gt;Node3 -->
<g id="edge5_Node000000_Node000003" class="edge">
<title>Node0&#45;&gt;Node3</title>
<g id="a_edge5_Node000000_Node000003"><a xlink:title=" ">
<path fill="none" stroke="#63b8ff" d="M111.72,-57.52C134.67,-51.16 161.81,-43.63 183.12,-37.72"/>
<polygon fill="#63b8ff" stroke="#63b8ff" points="111,-54.09 102.3,-60.14 112.87,-60.84 111,-54.09"/>
</a>
</g>
</g>
<!-- Node4 -->
<g id="Node000004" class="node">
<title>Node4</title>
<g id="a_Node000004"><a xlink:href="de/d4d/structfloppy_1_1math_1_1angle.html" target="_top" xlink:title="Newtype describing an angle.">
<polygon fill="white" stroke="#666666" points="395.62,-56.25 327.12,-56.25 327.12,-37 395.62,-37 395.62,-56.25"/>
<text text-anchor="middle" x="361.38" y="-41.8" font-family="Arial" font-size="11.00">angle&lt; T &gt;</text>
</a>
</g>
</g>
<!-- Node3&#45;&gt;Node4 -->
<g id="edge6_Node000003_Node000004" class="edge">
<title>Node3&#45;&gt;Node4</title>
<g id="a_edge6_Node000003_Node000004"><a xlink:title=" ">
<path fill="none" stroke="#63b8ff" d="M286.62,-36.53C300.48,-38.43 314.57,-40.36 326.68,-42.01"/>
<polygon fill="#63b8ff" stroke="#63b8ff" points="287.47,-33.12 277.09,-35.23 286.52,-40.05 287.47,-33.12"/>
</a>
</g>
</g>
<!-- Node5 -->
<g id="Node000005" class="node">
<title>Node5</title>
<g id="a_Node000005"><a xlink:href="db/db2/structfloppy_1_1math_1_1scale.html" target="_top" xlink:title="A scaling factor between two different units of measurement.">
<polygon fill="white" stroke="#666666" points="408.75,-19.25 314,-19.25 314,0 408.75,0 408.75,-19.25"/>
<text text-anchor="middle" x="361.38" y="-4.8" font-family="Arial" font-size="11.00">scale&lt; S, D, T &gt;</text>
</a>
</g>
</g>
<!-- Node3&#45;&gt;Node5 -->
<g id="edge7_Node000003_Node000005" class="edge">
<title>Node3&#45;&gt;Node5</title>
<g id="a_edge7_Node000003_Node000005"><a xlink:title=" ">
<path fill="none" stroke="#63b8ff" d="M286.99,-19.14C296.07,-17.96 305.24,-16.77 313.87,-15.65"/>
<polygon fill="#63b8ff" stroke="#63b8ff" points="286.56,-15.66 277.09,-20.42 287.46,-22.61 286.56,-15.66"/>
</a>
</g>
</g>
</g>
</svg>
