<?xml version="1.0" encoding="UTF-8" standalone="no"?>
<!DOCTYPE svg PUBLIC "-//W3C//DTD SVG 1.1//EN"
 "http://www.w3.org/Graphics/SVG/1.1/DTD/svg11.dtd">
<!-- Generated by graphviz version 10.0.1 (0)
 -->
<!-- Title: Graphical Class Hierarchy Pages: 1 -->
<svg width="439pt" height="223pt"
 viewBox="0.00 0.00 438.50 222.50" xmlns="http://www.w3.org/2000/svg" xmlns:xlink="http://www.w3.org/1999/xlink">
<g id="graph0" class="graph" transform="scale(1 1) rotate(0) translate(4 218.5)">
<title>Graphical Class Hierarchy</title>
<!-- Node0 -->
<g id="Node000000" class="node">
<title>Node0</title>
<g id="a_Node000000"><a xlink:href="d0/d3b/structfloppy_1_1math_1_1detail_1_1default__comparable.html" target="_top" xlink:title=" ">
<polygon fill="white" stroke="#666666" points="299.75,-67.88 163,-67.88 163,-48.62 299.75,-48.62 299.75,-67.88"/>
<text text-anchor="middle" x="231.38" y="-53.42" font-family="Arial" font-size="11.00">default_comparable&lt; T &gt;</text>
</a>
</g>
</g>
<!-- Node1 -->
<g id="Node000001" class="node">
<title>Node1</title>
<g id="a_Node000001"><a xlink:href="de/d4d/structfloppy_1_1math_1_1angle.html" target="_top" xlink:title="Newtype describing an angle.">
<polygon fill="white" stroke="#666666" points="417.38,-162.88 348.88,-162.88 348.88,-143.62 417.38,-143.62 417.38,-162.88"/>
<text text-anchor="middle" x="383.12" y="-148.43" font-family="Arial" font-size="11.00">angle&lt; T &gt;</text>
</a>
</g>
</g>
<!-- Node0&#45;&gt;Node1 -->
<g id="edge1_Node000000_Node000001" class="edge">
<title>Node0&#45;&gt;Node1</title>
<g id="a_edge1_Node000000_Node000001"><a xlink:title=" ">
<path fill="none" stroke="#63b8ff" d="M293.35,-73.12C295.58,-74.39 297.72,-75.76 299.75,-77.25 323.3,-94.53 313.56,-113.25 335.75,-132.25 340.85,-136.62 347.01,-140.25 353.15,-143.18"/>
<polygon fill="#63b8ff" stroke="#63b8ff" points="295.07,-70.07 284.54,-68.89 292.04,-76.38 295.07,-70.07"/>
</a>
</g>
</g>
<!-- Node3 -->
<g id="Node000003" class="node">
<title>Node3</title>
<g id="a_Node000003"><a xlink:href="dd/dd1/classfloppy_1_1math_1_1length.html" target="_top" xlink:title="A one&#45;dimensional distance with associated unit of measurement.">
<polygon fill="white" stroke="#666666" points="425.62,-122.88 340.62,-122.88 340.62,-103.62 425.62,-103.62 425.62,-122.88"/>
<text text-anchor="middle" x="383.12" y="-108.42" font-family="Arial" font-size="11.00">length&lt; U, T &gt;</text>
</a>
</g>
</g>
<!-- Node0&#45;&gt;Node3 -->
<g id="edge2_Node000000_Node000003" class="edge">
<title>Node0&#45;&gt;Node3</title>
<g id="a_edge2_Node000000_Node000003"><a xlink:title=" ">
<path fill="none" stroke="#63b8ff" d="M282.16,-71.45C288.12,-73.28 294.1,-75.23 299.75,-77.25 321.21,-84.92 344.98,-95.55 361.45,-103.27"/>
<polygon fill="#63b8ff" stroke="#63b8ff" points="283.53,-68.21 272.95,-68.73 281.55,-74.92 283.53,-68.21"/>
</a>
</g>
</g>
<!-- Node4 -->
<g id="Node000004" class="node">
<title>Node4</title>
<g id="a_Node000004"><a xlink:href="db/db2/structfloppy_1_1math_1_1scale.html" target="_top" xlink:title="A scaling factor between two different units of measurement.">
<polygon fill="white" stroke="#666666" points="430.5,-79.88 335.75,-79.88 335.75,-60.62 430.5,-60.62 430.5,-79.88"/>
<text text-anchor="middle" x="383.12" y="-65.42" font-family="Arial" font-size="11.00">scale&lt; S, D, T &gt;</text>
</a>
</g>
</g>
<!-- Node0&#45;&gt;Node4 -->
<g id="edge3_Node000000_Node000004" class="edge">
<title>Node0&#45;&gt;Node4</title>
<g id="a_edge3_Node000000_Node000004"><a xlink:title=" ">
<path fill="none" stroke="#63b8ff" d="M311.45,-64.59C319.66,-65.24 327.81,-65.9 335.49,-66.51"/>
<polygon fill="#63b8ff" stroke="#63b8ff" points="312,-61.12 301.75,-63.81 311.44,-68.1 312,-61.12"/>
</a>
</g>
</g>
<!-- Node5 -->
<g id="Node000005" class="node">
<title>Node5</title>
<g id="a_Node000005"><a xlink:href="d5/d4f/structfloppy_1_1traits_1_1detail_1_1formattable__base.html" target="_top" xlink:title="Interface, providing to_string method.">
<polygon fill="white" stroke="#666666" points="127,-140.88 0,-140.88 0,-121.62 127,-121.62 127,-140.88"/>
<text text-anchor="middle" x="63.5" y="-126.42" font-family="Arial" font-size="11.00">formattable_base&lt; C &gt;</text>
</a>
</g>
</g>
<!-- Node6 -->
<g id="Node000006" class="node">
<title>Node6</title>
<g id="a_Node000006"><a xlink:href="db/d59/structfloppy_1_1traits_1_1formattable.html" target="_top" xlink:title=" ">
<polygon fill="white" stroke="#666666" points="284.38,-214.5 178.38,-214.5 178.38,-184 284.38,-184 284.38,-214.5"/>
<text text-anchor="start" x="186.38" y="-200.05" font-family="Arial" font-size="11.00">formattable&lt; angle</text>
<text text-anchor="middle" x="231.38" y="-188.8" font-family="Arial" font-size="11.00">&lt; f32 &gt;, char &gt;</text>
</a>
</g>
</g>
<!-- Node5&#45;&gt;Node6 -->
<g id="edge4_Node000005_Node000006" class="edge">
<title>Node5&#45;&gt;Node6</title>
<g id="a_edge4_Node000005_Node000006"><a xlink:title=" ">
<path fill="none" stroke="#63b8ff" d="M96.09,-146.12C115.28,-154.96 140.37,-166.18 163,-175.25 170.03,-178.07 177.54,-180.91 184.89,-183.59"/>
<polygon fill="#63b8ff" stroke="#63b8ff" points="97.73,-143.02 87.19,-141.99 94.79,-149.37 97.73,-143.02"/>
</a>
</g>
</g>
<!-- Node7 -->
<g id="Node000007" class="node">
<title>Node7</title>
<g id="a_Node000007"><a xlink:href="db/d59/structfloppy_1_1traits_1_1formattable.html" target="_top" xlink:title=" ">
<polygon fill="white" stroke="#666666" points="285.88,-128.12 176.88,-128.12 176.88,-86.38 285.88,-86.38 285.88,-128.12"/>
<text text-anchor="start" x="184.88" y="-113.67" font-family="Arial" font-size="11.00">formattable&lt; length</text>
<text text-anchor="start" x="184.88" y="-102.42" font-family="Arial" font-size="11.00">&lt; default_unit, f32</text>
<text text-anchor="middle" x="231.38" y="-91.17" font-family="Arial" font-size="11.00"> &gt;, char &gt;</text>
</a>
</g>
</g>
<!-- Node5&#45;&gt;Node7 -->
<g id="edge5_Node000005_Node000007" class="edge">
<title>Node5&#45;&gt;Node7</title>
<g id="a_edge5_Node000005_Node000007"><a xlink:title=" ">
<path fill="none" stroke="#63b8ff" d="M138.39,-120.56C151.22,-118.7 164.36,-116.8 176.53,-115.04"/>
<polygon fill="#63b8ff" stroke="#63b8ff" points="138.1,-117.06 128.71,-121.96 139.11,-123.99 138.1,-117.06"/>
</a>
</g>
</g>
<!-- Node8 -->
<g id="Node000008" class="node">
<title>Node8</title>
<g id="a_Node000008"><a xlink:href="db/d59/structfloppy_1_1traits_1_1formattable.html" target="_top" xlink:title=" ">
<polygon fill="white" stroke="#666666" points="288.88,-30.5 173.88,-30.5 173.88,0 288.88,0 288.88,-30.5"/>
<text text-anchor="start" x="181.88" y="-16.05" font-family="Arial" font-size="11.00">formattable&lt; scale</text>
<text text-anchor="middle" x="231.38" y="-4.8" font-family="Arial" font-size="11.00">&lt; S, D, f32 &gt;, char &gt;</text>
</a>
</g>
</g>
<!-- Node5&#45;&gt;Node8 -->
<g id="edge6_Node000005_Node000008" class="edge">
<title>Node5&#45;&gt;Node8</title>
<g id="a_edge6_Node000005_Node000008"><a xlink:title=" ">
<path fill="none" stroke="#63b8ff" d="M80,-112.81C98.06,-92.33 129.72,-59.51 163,-39.25 168.09,-36.15 173.64,-33.37 179.3,-30.9"/>
<polygon fill="#63b8ff" stroke="#63b8ff" points="77.57,-110.25 73.68,-120.11 82.87,-114.83 77.57,-110.25"/>
</a>
</g>
</g>
<!-- Node2 -->
<g id="Node000002" class="node">
<title>Node2</title>
<g id="a_Node000002"><a xlink:href="db/d59/structfloppy_1_1traits_1_1formattable.html" target="_top" xlink:title="Allows type to be converted to string and printed via standard streams or fmt.">
<polygon fill="white" stroke="#666666" points="286.25,-165.88 176.5,-165.88 176.5,-146.62 286.25,-146.62 286.25,-165.88"/>
<text text-anchor="middle" x="231.38" y="-151.43" font-family="Arial" font-size="11.00">formattable&lt; T, C &gt;</text>
</a>
</g>
</g>
<!-- Node5&#45;&gt;Node2 -->
<g id="edge7_Node000005_Node000002" class="edge">
<title>Node5&#45;&gt;Node2</title>
<g id="a_edge7_Node000005_Node000002"><a xlink:title=" ">
<path fill="none" stroke="#63b8ff" d="M138.32,-142.38C151.09,-144.3 164.14,-146.27 176.26,-148.09"/>
<polygon fill="#63b8ff" stroke="#63b8ff" points="139.12,-138.96 128.71,-140.93 138.07,-145.88 139.12,-138.96"/>
</a>
</g>
</g>
<!-- Node2&#45;&gt;Node1 -->
<g id="edge8_Node000002_Node000001" class="edge">
<title>Node2&#45;&gt;Node1</title>
<g id="a_edge8_Node000002_Node000001"><a xlink:title=" ">
<path fill="none" stroke="#63b8ff" d="M297.82,-154.94C315.36,-154.59 333.6,-154.22 348.61,-153.92"/>
<polygon fill="#63b8ff" stroke="#63b8ff" points="297.88,-151.44 287.95,-155.14 298.02,-158.44 297.88,-151.44"/>
</a>
</g>
</g>
<!-- Node2&#45;&gt;Node3 -->
<g id="edge9_Node000002_Node000003" class="edge">
<title>Node2&#45;&gt;Node3</title>
<g id="a_edge9_Node000002_Node000003"><a xlink:title=" ">
<path fill="none" stroke="#63b8ff" d="M279.11,-143.13C286.03,-141.17 293.08,-139.16 299.75,-137.25 315.5,-132.73 332.92,-127.67 347.68,-123.36"/>
<polygon fill="#63b8ff" stroke="#63b8ff" points="278.53,-139.65 269.86,-145.74 280.44,-146.39 278.53,-139.65"/>
</a>
</g>
</g>
<!-- Node2&#45;&gt;Node4 -->
<g id="edge10_Node000002_Node000004" class="edge">
<title>Node2&#45;&gt;Node4</title>
<g id="a_edge10_Node000002_Node000004"><a xlink:title=" ">
<path fill="none" stroke="#63b8ff" d="M291.74,-141.78C294.52,-140.4 297.21,-138.9 299.75,-137.25 320.68,-123.71 316.3,-109.84 335.75,-94.25 342.54,-88.81 350.76,-84.07 358.38,-80.28"/>
<polygon fill="#63b8ff" stroke="#63b8ff" points="290.58,-138.47 282.77,-145.62 293.34,-144.9 290.58,-138.47"/>
</a>
</g>
</g>
</g>
</svg>
