<?xml version="1.0" encoding="UTF-8" standalone="no"?>
<!DOCTYPE svg PUBLIC "-//W3C//DTD SVG 1.1//EN"
 "http://www.w3.org/Graphics/SVG/1.1/DTD/svg11.dtd">
<!-- Generated by graphviz version 10.0.1 (0)
 -->
<!-- Title: Graphical Class Hierarchy Pages: 1 -->
<svg width="341pt" height="76pt"
 viewBox="0.00 0.00 341.00 75.88" xmlns="http://www.w3.org/2000/svg" xmlns:xlink="http://www.w3.org/1999/xlink">
<g id="graph0" class="graph" transform="scale(1 1) rotate(0) translate(4 71.88)">
<title>Graphical Class Hierarchy</title>
<!-- Node0 -->
<g id="Node000000" class="node">
<title>Node0</title>
<g id="a_Node000000"><a xlink:title=" ">
<polygon fill="#e0e0e0" stroke="#999999" points="61.75,-40.25 0,-40.25 0,-21 61.75,-21 61.75,-40.25"/>
<text text-anchor="middle" x="30.88" y="-25.8" font-family="Helvetica,sans-Serif" font-size="11.00">exception</text>
</a>
</g>
</g>
<!-- Node1 -->
<g id="Node000001" class="node">
<title>Node1</title>
<g id="a_Node000001"><a xlink:title=" ">
<polygon fill="#e0e0e0" stroke="#999999" points="171.88,-60.25 104.88,-60.25 104.88,-41 171.88,-41 171.88,-60.25"/>
<text text-anchor="middle" x="138.38" y="-45.8" font-family="Helvetica,sans-Serif" font-size="11.00">logic_error</text>
</a>
</g>
</g>
<!-- Node0&#45;&gt;Node1 -->
<g id="edge38_Node000000_Node000001" class="edge">
<title>Node0&#45;&gt;Node1</title>
<g id="a_edge38_Node000000_Node000001"><a xlink:title=" ">
<path fill="none" stroke="#63b8ff" d="M73.1,-38.44C83.53,-40.42 94.6,-42.52 104.55,-44.4"/>
<polygon fill="#63b8ff" stroke="#63b8ff" points="74.07,-35.06 63.59,-36.64 72.77,-41.94 74.07,-35.06"/>
</a>
</g>
</g>
<!-- Node3 -->
<g id="Node000003" class="node">
<title>Node3</title>
<g id="a_Node000003"><a xlink:title=" ">
<polygon fill="#e0e0e0" stroke="#999999" points="179,-22.25 97.75,-22.25 97.75,-3 179,-3 179,-22.25"/>
<text text-anchor="middle" x="138.38" y="-7.8" font-family="Helvetica,sans-Serif" font-size="11.00">runtime_error</text>
</a>
</g>
</g>
<!-- Node0&#45;&gt;Node3 -->
<g id="edge40_Node000000_Node000003" class="edge">
<title>Node0&#45;&gt;Node3</title>
<g id="a_edge40_Node000000_Node000003"><a xlink:title=" ">
<path fill="none" stroke="#63b8ff" d="M73.32,-23.55C81.21,-22.21 89.45,-20.8 97.3,-19.46"/>
<polygon fill="#63b8ff" stroke="#63b8ff" points="72.87,-20.08 63.6,-25.21 74.05,-26.98 72.87,-20.08"/>
</a>
</g>
</g>
<!-- Node2 -->
<g id="Node000002" class="node">
<title>Node2</title>
<g id="a_Node000002"><a xlink:href="classfloppy_1_1invalid__smart__pointer__access.html" target="_top" xlink:title="Exception thrown when trying to access invalid smart pointer.">
<polygon fill="white" stroke="#666666" points="333,-67.88 215,-67.88 215,-37.38 333,-37.38 333,-67.88"/>
<text text-anchor="start" x="223" y="-53.42" font-family="Helvetica,sans-Serif" font-size="11.00">invalid_smart_pointer</text>
<text text-anchor="middle" x="274" y="-42.17" font-family="Helvetica,sans-Serif" font-size="11.00">_access</text>
</a>
</g>
</g>
<!-- Node1&#45;&gt;Node2 -->
<g id="edge39_Node000001_Node000002" class="edge">
<title>Node1&#45;&gt;Node2</title>
<g id="a_edge39_Node000001_Node000002"><a xlink:title=" ">
<path fill="none" stroke="#63b8ff" d="M183.37,-51.28C193.35,-51.43 204.11,-51.59 214.59,-51.75"/>
<polygon fill="#63b8ff" stroke="#63b8ff" points="183.63,-47.79 173.58,-51.14 183.52,-54.79 183.63,-47.79"/>
</a>
</g>
</g>
<!-- Node4 -->
<g id="Node000004" class="node">
<title>Node4</title>
<g id="a_Node000004"><a xlink:href="classfloppy_1_1serialization_1_1serialization__error.html" target="_top" xlink:title="Exception thrown during serialization or deserialization.">
<polygon fill="white" stroke="#666666" points="324.75,-19.25 223.25,-19.25 223.25,0 324.75,0 324.75,-19.25"/>
<text text-anchor="middle" x="274" y="-4.8" font-family="Helvetica,sans-Serif" font-size="11.00">serialization_error</text>
</a>
</g>
</g>
<!-- Node3&#45;&gt;Node4 -->
<g id="edge41_Node000003_Node000004" class="edge">
<title>Node3&#45;&gt;Node4</title>
<g id="a_edge41_Node000003_Node000004"><a xlink:title=" ">
<path fill="none" stroke="#63b8ff" d="M190.7,-11.47C201.29,-11.23 212.44,-10.98 222.99,-10.75"/>
<polygon fill="#63b8ff" stroke="#63b8ff" points="190.9,-7.97 180.98,-11.69 191.06,-14.97 190.9,-7.97"/>
</a>
</g>
</g>
</g>
</svg>
