<?xml version="1.0" encoding="UTF-8" standalone="no"?>
<!DOCTYPE svg PUBLIC "-//W3C//DTD SVG 1.1//EN"
 "http://www.w3.org/Graphics/SVG/1.1/DTD/svg11.dtd">
<!-- Generated by graphviz version 10.0.1 (0)
 -->
<!-- Title: Graphical Class Hierarchy Pages: 1 -->
<svg width="644pt" height="864pt"
 viewBox="0.00 0.00 643.50 864.12" xmlns="http://www.w3.org/2000/svg" xmlns:xlink="http://www.w3.org/1999/xlink">
<g id="graph0" class="graph" transform="scale(1 1) rotate(0) translate(4 860.12)">
<title>Graphical Class Hierarchy</title>
<!-- Node0 -->
<g id="Node000000" class="node">
<title>Node0</title>
<g id="a_Node000000"><a xlink:href="structfloppy_1_1math_1_1detail_1_1default__comparable.html" target="_top" xlink:title="CRTP base for trivially comparable numeric types.">
<polygon fill="white" stroke="#666666" points="136.75,-774.5 0,-774.5 0,-755.25 136.75,-755.25 136.75,-774.5"/>
<text text-anchor="middle" x="68.38" y="-760.05" font-family="Helvetica,sans-Serif" font-size="11.00">default_comparable&lt; T &gt;</text>
</a>
</g>
</g>
<!-- Node1 -->
<g id="Node000001" class="node">
<title>Node1</title>
<g id="a_Node000001"><a xlink:href="structfloppy_1_1math_1_1detail_1_1basic__numeric__newtype.html" target="_top" xlink:title=" ">
<polygon fill="white" stroke="#666666" points="304.25,-807.12 172.75,-807.12 172.75,-776.62 304.25,-776.62 304.25,-807.12"/>
<text text-anchor="start" x="180.75" y="-792.67" font-family="Helvetica,sans-Serif" font-size="11.00">basic_numeric_newtype</text>
<text text-anchor="middle" x="238.5" y="-781.42" font-family="Helvetica,sans-Serif" font-size="11.00">&lt; angle&lt; f32 &gt;, U &gt;</text>
</a>
</g>
</g>
<!-- Node0&#45;&gt;Node1 -->
<g id="edge1_Node000000_Node000001" class="edge">
<title>Node0&#45;&gt;Node1</title>
<g id="a_edge1_Node000000_Node000001"><a xlink:title=" ">
<path fill="none" stroke="#63b8ff" d="M143.23,-776.74C152.92,-778.29 162.79,-779.88 172.31,-781.41"/>
<polygon fill="#63b8ff" stroke="#63b8ff" points="143.9,-773.3 133.47,-775.17 142.79,-780.21 143.9,-773.3"/>
</a>
</g>
</g>
<!-- Node2 -->
<g id="Node000002" class="node">
<title>Node2</title>
<g id="a_Node000002"><a xlink:href="structfloppy_1_1math_1_1detail_1_1basic__numeric__newtype.html" target="_top" xlink:title=" ">
<polygon fill="white" stroke="#666666" points="304.25,-758.75 172.75,-758.75 172.75,-717 304.25,-717 304.25,-758.75"/>
<text text-anchor="start" x="180.75" y="-744.3" font-family="Helvetica,sans-Serif" font-size="11.00">basic_numeric_newtype</text>
<text text-anchor="start" x="180.75" y="-733.05" font-family="Helvetica,sans-Serif" font-size="11.00">&lt; length&lt; default_unit,</text>
<text text-anchor="middle" x="238.5" y="-721.8" font-family="Helvetica,sans-Serif" font-size="11.00"> f32 &gt;, f32 &gt;</text>
</a>
</g>
</g>
<!-- Node0&#45;&gt;Node2 -->
<g id="edge2_Node000000_Node000002" class="edge">
<title>Node0&#45;&gt;Node2</title>
<g id="a_edge2_Node000000_Node000002"><a xlink:title=" ">
<path fill="none" stroke="#63b8ff" d="M143.23,-753.01C152.92,-751.46 162.79,-749.87 172.31,-748.34"/>
<polygon fill="#63b8ff" stroke="#63b8ff" points="142.79,-749.54 133.47,-754.58 143.9,-756.45 142.79,-749.54"/>
</a>
</g>
</g>
<!-- Node3 -->
<g id="Node000003" class="node">
<title>Node3</title>
<g id="a_Node000003"><a xlink:href="structfloppy_1_1math_1_1detail_1_1basic__numeric__newtype.html" target="_top" xlink:title=" ">
<polygon fill="white" stroke="#666666" points="304.25,-698.75 172.75,-698.75 172.75,-657 304.25,-657 304.25,-698.75"/>
<text text-anchor="start" x="180.75" y="-684.3" font-family="Helvetica,sans-Serif" font-size="11.00">basic_numeric_newtype</text>
<text text-anchor="start" x="180.75" y="-673.05" font-family="Helvetica,sans-Serif" font-size="11.00">&lt; scale&lt; S, D, f32 &gt;,</text>
<text text-anchor="middle" x="238.5" y="-661.8" font-family="Helvetica,sans-Serif" font-size="11.00"> f32 &gt;</text>
</a>
</g>
</g>
<!-- Node0&#45;&gt;Node3 -->
<g id="edge3_Node000000_Node000003" class="edge">
<title>Node0&#45;&gt;Node3</title>
<g id="a_edge3_Node000000_Node000003"><a xlink:title=" ">
<path fill="none" stroke="#63b8ff" d="M96.71,-749.12C117.39,-737.37 146.59,-721.12 172.75,-707.88 178.5,-704.96 184.58,-702 190.63,-699.12"/>
<polygon fill="#63b8ff" stroke="#63b8ff" points="95,-746.07 88.05,-754.06 98.47,-752.14 95,-746.07"/>
</a>
</g>
</g>
<!-- Node4 -->
<g id="Node000004" class="node">
<title>Node4</title>
<g id="a_Node000004"><a xlink:href="structfloppy_1_1math_1_1detail_1_1basic__numeric__newtype.html" target="_top" xlink:title="CRTP base for numeric newtypes that can be compared.">
<polygon fill="white" stroke="#666666" points="304.25,-856.12 172.75,-856.12 172.75,-825.62 304.25,-825.62 304.25,-856.12"/>
<text text-anchor="start" x="180.75" y="-841.67" font-family="Helvetica,sans-Serif" font-size="11.00">basic_numeric_newtype</text>
<text text-anchor="middle" x="238.5" y="-830.42" font-family="Helvetica,sans-Serif" font-size="11.00">&lt; T, U &gt;</text>
</a>
</g>
</g>
<!-- Node0&#45;&gt;Node4 -->
<g id="edge4_Node000000_Node000004" class="edge">
<title>Node0&#45;&gt;Node4</title>
<g id="a_edge4_Node000000_Node000004"><a xlink:title=" ">
<path fill="none" stroke="#63b8ff" d="M98.54,-780.14C119.07,-790.66 147.31,-804.72 172.75,-815.88 179.92,-819.02 187.63,-822.18 195.13,-825.15"/>
<polygon fill="#63b8ff" stroke="#63b8ff" points="100.4,-777.16 89.91,-775.68 97.19,-783.38 100.4,-777.16"/>
</a>
</g>
</g>
<!-- Node5 -->
<g id="Node000005" class="node">
<title>Node5</title>
<g id="a_Node000005"><a xlink:href="structfloppy_1_1math_1_1detail_1_1advanced__numeric__type.html" target="_top" xlink:title=" ">
<polygon fill="white" stroke="#666666" points="487.88,-856.12 354.88,-856.12 354.88,-825.62 487.88,-825.62 487.88,-856.12"/>
<text text-anchor="start" x="362.88" y="-841.67" font-family="Helvetica,sans-Serif" font-size="11.00">advanced_numeric_type</text>
<text text-anchor="middle" x="421.38" y="-830.42" font-family="Helvetica,sans-Serif" font-size="11.00">&lt; angle&lt; f32 &gt;, f32 &gt;</text>
</a>
</g>
</g>
<!-- Node4&#45;&gt;Node5 -->
<g id="edge5_Node000004_Node000005" class="edge">
<title>Node4&#45;&gt;Node5</title>
<g id="a_edge5_Node000004_Node000005"><a xlink:title=" ">
<path fill="none" stroke="#63b8ff" d="M315.71,-840.88C328.57,-840.88 341.82,-840.88 354.39,-840.88"/>
<polygon fill="#63b8ff" stroke="#63b8ff" points="316.06,-837.38 306.06,-840.88 316.06,-844.38 316.06,-837.38"/>
</a>
</g>
</g>
<!-- Node6 -->
<g id="Node000006" class="node">
<title>Node6</title>
<g id="a_Node000006"><a xlink:href="structfloppy_1_1math_1_1detail_1_1advanced__numeric__type.html" target="_top" xlink:title="CRTP base for numeric newtypes containing math operations implementation.">
<polygon fill="white" stroke="#666666" points="487.88,-794.12 354.88,-794.12 354.88,-763.62 487.88,-763.62 487.88,-794.12"/>
<text text-anchor="start" x="362.88" y="-779.67" font-family="Helvetica,sans-Serif" font-size="11.00">advanced_numeric_type</text>
<text text-anchor="middle" x="421.38" y="-768.42" font-family="Helvetica,sans-Serif" font-size="11.00">&lt; T, U &gt;</text>
</a>
</g>
</g>
<!-- Node4&#45;&gt;Node6 -->
<g id="edge6_Node000004_Node000006" class="edge">
<title>Node4&#45;&gt;Node6</title>
<g id="a_edge6_Node000004_Node000006"><a xlink:title=" ">
<path fill="none" stroke="#63b8ff" d="M295.7,-821.61C321,-812.94 350.49,-802.83 374.43,-794.62"/>
<polygon fill="#63b8ff" stroke="#63b8ff" points="294.9,-818.19 286.57,-824.74 297.17,-824.81 294.9,-818.19"/>
</a>
</g>
</g>
<!-- Node12 -->
<g id="Node000012" class="node">
<title>Node12</title>
<g id="a_Node000012"><a xlink:href="classfloppy_1_1math_1_1length.html" target="_top" xlink:title="A one&#45;dimensional distance with associated unit of measurement.">
<polygon fill="white" stroke="#666666" points="463.88,-718.5 378.88,-718.5 378.88,-699.25 463.88,-699.25 463.88,-718.5"/>
<text text-anchor="middle" x="421.38" y="-704.05" font-family="Helvetica,sans-Serif" font-size="11.00">length&lt; U, T &gt;</text>
</a>
</g>
</g>
<!-- Node4&#45;&gt;Node12 -->
<g id="edge8_Node000004_Node000012" class="edge">
<title>Node4&#45;&gt;Node12</title>
<g id="a_edge8_Node000004_Node000012"><a xlink:title=" ">
<path fill="none" stroke="#63b8ff" d="M299.7,-819.4C301.28,-818.28 302.8,-817.11 304.25,-815.88 328.27,-795.52 317.86,-777 340.25,-754.88 356.22,-739.09 378.69,-726.81 395.77,-718.93"/>
<polygon fill="#63b8ff" stroke="#63b8ff" points="298.17,-816.23 291.48,-824.45 301.84,-822.2 298.17,-816.23"/>
</a>
</g>
</g>
<!-- Node13 -->
<g id="Node000013" class="node">
<title>Node13</title>
<g id="a_Node000013"><a xlink:href="structfloppy_1_1math_1_1scale.html" target="_top" xlink:title="A scaling factor between two different units of measurement.">
<polygon fill="white" stroke="#666666" points="468.75,-628.5 374,-628.5 374,-609.25 468.75,-609.25 468.75,-628.5"/>
<text text-anchor="middle" x="421.38" y="-614.05" font-family="Helvetica,sans-Serif" font-size="11.00">scale&lt; S, D, T &gt;</text>
</a>
</g>
</g>
<!-- Node4&#45;&gt;Node13 -->
<g id="edge9_Node000004_Node000013" class="edge">
<title>Node4&#45;&gt;Node13</title>
<g id="a_edge9_Node000004_Node000013"><a xlink:title=" ">
<path fill="none" stroke="#63b8ff" d="M301.64,-818.51C302.55,-817.67 303.42,-816.79 304.25,-815.88 343.53,-772.88 309.21,-739.16 340.25,-689.88 356.89,-663.45 386.2,-641.13 404.38,-628.91"/>
<polygon fill="#63b8ff" stroke="#63b8ff" points="299.77,-815.54 293.95,-824.39 304.02,-821.1 299.77,-815.54"/>
</a>
</g>
</g>
<!-- Node7 -->
<g id="Node000007" class="node">
<title>Node7</title>
<g id="a_Node000007"><a xlink:href="structfloppy_1_1math_1_1angle.html" target="_top" xlink:title="Newtype describing an angle.">
<polygon fill="white" stroke="#666666" points="621.25,-622.5 552.75,-622.5 552.75,-603.25 621.25,-603.25 621.25,-622.5"/>
<text text-anchor="middle" x="587" y="-608.05" font-family="Helvetica,sans-Serif" font-size="11.00">angle&lt; T &gt;</text>
</a>
</g>
</g>
<!-- Node6&#45;&gt;Node7 -->
<g id="edge7_Node000006_Node000007" class="edge">
<title>Node6&#45;&gt;Node7</title>
<g id="a_edge7_Node000006_Node000007"><a xlink:title=" ">
<path fill="none" stroke="#63b8ff" d="M462.41,-757.47C475.94,-749.22 490.61,-739.06 502.5,-727.88 538.08,-694.4 568.57,-643.91 580.56,-622.75"/>
<polygon fill="#63b8ff" stroke="#63b8ff" points="460.96,-754.27 454.12,-762.36 464.52,-760.29 460.96,-754.27"/>
</a>
</g>
</g>
<!-- Node14 -->
<g id="Node000014" class="node">
<title>Node14</title>
<g id="a_Node000014"><a xlink:href="structfloppy_1_1traits_1_1detail_1_1formattable__base.html" target="_top" xlink:title="Interface, providing to_string method.">
<polygon fill="white" stroke="#666666" points="131.88,-318.5 4.87,-318.5 4.87,-299.25 131.88,-299.25 131.88,-318.5"/>
<text text-anchor="middle" x="68.38" y="-304.05" font-family="Helvetica,sans-Serif" font-size="11.00">formattable_base&lt; C &gt;</text>
</a>
</g>
</g>
<!-- Node15 -->
<g id="Node000015" class="node">
<title>Node15</title>
<g id="a_Node000015"><a xlink:href="structfloppy_1_1traits_1_1formattable.html" target="_top" xlink:title=" ">
<polygon fill="white" stroke="#666666" points="291.12,-373.12 185.88,-373.12 185.88,-342.62 291.12,-342.62 291.12,-373.12"/>
<text text-anchor="start" x="193.88" y="-358.68" font-family="Helvetica,sans-Serif" font-size="11.00">formattable&lt; color,</text>
<text text-anchor="middle" x="238.5" y="-347.43" font-family="Helvetica,sans-Serif" font-size="11.00"> char &gt;</text>
</a>
</g>
</g>
<!-- Node14&#45;&gt;Node15 -->
<g id="edge10_Node000014_Node000015" class="edge">
<title>Node14&#45;&gt;Node15</title>
<g id="a_edge10_Node000014_Node000015"><a xlink:title=" ">
<path fill="none" stroke="#63b8ff" d="M114.78,-322.11C136.62,-328.47 162.91,-336.14 185.55,-342.73"/>
<polygon fill="#63b8ff" stroke="#63b8ff" points="115.84,-318.77 105.26,-319.33 113.88,-325.49 115.84,-318.77"/>
</a>
</g>
</g>
<!-- Node17 -->
<g id="Node000017" class="node">
<title>Node17</title>
<g id="a_Node000017"><a xlink:href="structfloppy_1_1traits_1_1formattable.html" target="_top" xlink:title=" ">
<polygon fill="white" stroke="#666666" points="290,-324.12 187,-324.12 187,-293.62 290,-293.62 290,-324.12"/>
<text text-anchor="start" x="195" y="-309.68" font-family="Helvetica,sans-Serif" font-size="11.00">formattable&lt; color</text>
<text text-anchor="middle" x="238.5" y="-298.43" font-family="Helvetica,sans-Serif" font-size="11.00">::hsl_t, char &gt;</text>
</a>
</g>
</g>
<!-- Node14&#45;&gt;Node17 -->
<g id="edge12_Node000014_Node000017" class="edge">
<title>Node14&#45;&gt;Node17</title>
<g id="a_edge12_Node000014_Node000017"><a xlink:title=" ">
<path fill="none" stroke="#63b8ff" d="M143.1,-308.88C157.8,-308.88 172.92,-308.88 186.64,-308.88"/>
<polygon fill="#63b8ff" stroke="#63b8ff" points="143.49,-305.38 133.49,-308.88 143.49,-312.38 143.49,-305.38"/>
</a>
</g>
</g>
<!-- Node19 -->
<g id="Node000019" class="node">
<title>Node19</title>
<g id="a_Node000019"><a xlink:href="structfloppy_1_1traits_1_1formattable.html" target="_top" xlink:title=" ">
<polygon fill="white" stroke="#666666" points="290,-275.12 187,-275.12 187,-244.62 290,-244.62 290,-275.12"/>
<text text-anchor="start" x="195" y="-260.68" font-family="Helvetica,sans-Serif" font-size="11.00">formattable&lt; color</text>
<text text-anchor="middle" x="238.5" y="-249.43" font-family="Helvetica,sans-Serif" font-size="11.00">::hsla_t, char &gt;</text>
</a>
</g>
</g>
<!-- Node14&#45;&gt;Node19 -->
<g id="edge14_Node000014_Node000019" class="edge">
<title>Node14&#45;&gt;Node19</title>
<g id="a_edge14_Node000014_Node000019"><a xlink:title=" ">
<path fill="none" stroke="#63b8ff" d="M114.61,-295.69C136.8,-289.22 163.61,-281.41 186.52,-274.73"/>
<polygon fill="#63b8ff" stroke="#63b8ff" points="113.88,-292.26 105.26,-298.42 115.84,-298.98 113.88,-292.26"/>
</a>
</g>
</g>
<!-- Node21 -->
<g id="Node000021" class="node">
<title>Node21</title>
<g id="a_Node000021"><a xlink:href="structfloppy_1_1traits_1_1formattable.html" target="_top" xlink:title=" ">
<polygon fill="white" stroke="#666666" points="290,-226.12 187,-226.12 187,-195.62 290,-195.62 290,-226.12"/>
<text text-anchor="start" x="195" y="-211.68" font-family="Helvetica,sans-Serif" font-size="11.00">formattable&lt; color</text>
<text text-anchor="middle" x="238.5" y="-200.43" font-family="Helvetica,sans-Serif" font-size="11.00">::hsv_t, char &gt;</text>
</a>
</g>
</g>
<!-- Node14&#45;&gt;Node21 -->
<g id="edge16_Node000014_Node000021" class="edge">
<title>Node14&#45;&gt;Node21</title>
<g id="a_edge16_Node000014_Node000021"><a xlink:title=" ">
<path fill="none" stroke="#63b8ff" d="M90.38,-291.69C110.59,-275.75 142.46,-252.1 172.75,-235.88 179.02,-232.52 185.84,-229.38 192.62,-226.54"/>
<polygon fill="#63b8ff" stroke="#63b8ff" points="88.26,-288.91 82.64,-297.89 92.63,-294.37 88.26,-288.91"/>
</a>
</g>
</g>
<!-- Node23 -->
<g id="Node000023" class="node">
<title>Node23</title>
<g id="a_Node000023"><a xlink:href="structfloppy_1_1traits_1_1formattable.html" target="_top" xlink:title=" ">
<polygon fill="white" stroke="#666666" points="290,-177.12 187,-177.12 187,-146.62 290,-146.62 290,-177.12"/>
<text text-anchor="start" x="195" y="-162.68" font-family="Helvetica,sans-Serif" font-size="11.00">formattable&lt; color</text>
<text text-anchor="middle" x="238.5" y="-151.43" font-family="Helvetica,sans-Serif" font-size="11.00">::hsva_t, char &gt;</text>
</a>
</g>
</g>
<!-- Node14&#45;&gt;Node23 -->
<g id="edge18_Node000014_Node000023" class="edge">
<title>Node14&#45;&gt;Node23</title>
<g id="a_edge18_Node000014_Node000023"><a xlink:title=" ">
<path fill="none" stroke="#63b8ff" d="M81.49,-289.17C98.75,-262.59 132.78,-215.3 172.75,-186.88 177.66,-183.38 183.12,-180.3 188.73,-177.6"/>
<polygon fill="#63b8ff" stroke="#63b8ff" points="78.55,-287.28 76.15,-297.6 84.46,-291.03 78.55,-287.28"/>
</a>
</g>
</g>
<!-- Node25 -->
<g id="Node000025" class="node">
<title>Node25</title>
<g id="a_Node000025"><a xlink:href="structfloppy_1_1traits_1_1formattable.html" target="_top" xlink:title=" ">
<polygon fill="white" stroke="#666666" points="291.5,-128.12 185.5,-128.12 185.5,-97.62 291.5,-97.62 291.5,-128.12"/>
<text text-anchor="start" x="193.5" y="-113.67" font-family="Helvetica,sans-Serif" font-size="11.00">formattable&lt; angle</text>
<text text-anchor="middle" x="238.5" y="-102.42" font-family="Helvetica,sans-Serif" font-size="11.00">&lt; f32 &gt;, char &gt;</text>
</a>
</g>
</g>
<!-- Node14&#45;&gt;Node25 -->
<g id="edge20_Node000014_Node000025" class="edge">
<title>Node14&#45;&gt;Node25</title>
<g id="a_edge20_Node000014_Node000025"><a xlink:title=" ">
<path fill="none" stroke="#63b8ff" d="M76.66,-288.34C90.22,-252.88 122.6,-179.93 172.75,-137.88 177,-134.31 181.81,-131.22 186.85,-128.55"/>
<polygon fill="#63b8ff" stroke="#63b8ff" points="73.49,-286.82 73.31,-297.41 80.06,-289.24 73.49,-286.82"/>
</a>
</g>
</g>
<!-- Node26 -->
<g id="Node000026" class="node">
<title>Node26</title>
<g id="a_Node000026"><a xlink:href="structfloppy_1_1traits_1_1formattable.html" target="_top" xlink:title=" ">
<polygon fill="white" stroke="#666666" points="299.75,-79.5 177.25,-79.5 177.25,-60.25 299.75,-60.25 299.75,-79.5"/>
<text text-anchor="middle" x="238.5" y="-65.05" font-family="Helvetica,sans-Serif" font-size="11.00">formattable&lt; T, char &gt;</text>
</a>
</g>
</g>
<!-- Node14&#45;&gt;Node26 -->
<g id="edge21_Node000014_Node000026" class="edge">
<title>Node14&#45;&gt;Node26</title>
<g id="a_edge21_Node000014_Node000026"><a xlink:title=" ">
<path fill="none" stroke="#63b8ff" d="M73.31,-287.55C82.55,-243.67 109.75,-142.86 172.75,-88.88 177.02,-85.22 181.97,-82.26 187.18,-79.88"/>
<polygon fill="#63b8ff" stroke="#63b8ff" points="69.89,-286.81 71.38,-297.3 76.76,-288.17 69.89,-286.81"/>
</a>
</g>
</g>
<!-- Node31 -->
<g id="Node000031" class="node">
<title>Node31</title>
<g id="a_Node000031"><a xlink:href="structfloppy_1_1traits_1_1formattable.html" target="_top" xlink:title=" ">
<polygon fill="white" stroke="#666666" points="293,-41.75 184,-41.75 184,0 293,0 293,-41.75"/>
<text text-anchor="start" x="192" y="-27.3" font-family="Helvetica,sans-Serif" font-size="11.00">formattable&lt; length</text>
<text text-anchor="start" x="192" y="-16.05" font-family="Helvetica,sans-Serif" font-size="11.00">&lt; default_unit, f32</text>
<text text-anchor="middle" x="238.5" y="-4.8" font-family="Helvetica,sans-Serif" font-size="11.00"> &gt;, char &gt;</text>
</a>
</g>
</g>
<!-- Node14&#45;&gt;Node31 -->
<g id="edge26_Node000014_Node000031" class="edge">
<title>Node14&#45;&gt;Node31</title>
<g id="a_edge26_Node000014_Node000031"><a xlink:title=" ">
<path fill="none" stroke="#63b8ff" d="M72.45,-287.71C80.45,-239.66 106.14,-121.09 172.75,-50.88 175.99,-47.46 179.69,-44.4 183.66,-41.66"/>
<polygon fill="#63b8ff" stroke="#63b8ff" points="69.03,-286.9 70.94,-297.32 75.95,-287.98 69.03,-286.9"/>
</a>
</g>
</g>
<!-- Node32 -->
<g id="Node000032" class="node">
<title>Node32</title>
<g id="a_Node000032"><a xlink:href="structfloppy_1_1traits_1_1formattable.html" target="_top" xlink:title=" ">
<polygon fill="white" stroke="#666666" points="296,-638.75 181,-638.75 181,-597 296,-597 296,-638.75"/>
<text text-anchor="start" x="189" y="-624.3" font-family="Helvetica,sans-Serif" font-size="11.00">formattable&lt; point2d</text>
<text text-anchor="start" x="189" y="-613.05" font-family="Helvetica,sans-Serif" font-size="11.00">&lt; default_unit, f32 &gt;</text>
<text text-anchor="middle" x="238.5" y="-601.8" font-family="Helvetica,sans-Serif" font-size="11.00">, char &gt;</text>
</a>
</g>
</g>
<!-- Node14&#45;&gt;Node32 -->
<g id="edge27_Node000014_Node000032" class="edge">
<title>Node14&#45;&gt;Node32</title>
<g id="a_edge27_Node000014_Node000032"><a xlink:title=" ">
<path fill="none" stroke="#63b8ff" d="M71.7,-330.04C78.33,-380.79 101.66,-510.93 172.75,-587.88 175.69,-591.06 179.04,-593.93 182.63,-596.52"/>
<polygon fill="#63b8ff" stroke="#63b8ff" points="75.21,-329.93 70.54,-320.43 68.26,-330.77 75.21,-329.93"/>
</a>
</g>
</g>
<!-- Node33 -->
<g id="Node000033" class="node">
<title>Node33</title>
<g id="a_Node000033"><a xlink:href="structfloppy_1_1traits_1_1formattable.html" target="_top" xlink:title=" ">
<polygon fill="white" stroke="#666666" points="296,-579.12 181,-579.12 181,-548.62 296,-548.62 296,-579.12"/>
<text text-anchor="start" x="189" y="-564.67" font-family="Helvetica,sans-Serif" font-size="11.00">formattable&lt; scale</text>
<text text-anchor="middle" x="238.5" y="-553.42" font-family="Helvetica,sans-Serif" font-size="11.00">&lt; S, D, f32 &gt;, char &gt;</text>
</a>
</g>
</g>
<!-- Node14&#45;&gt;Node33 -->
<g id="edge28_Node000014_Node000033" class="edge">
<title>Node14&#45;&gt;Node33</title>
<g id="a_edge28_Node000014_Node000033"><a xlink:title=" ">
<path fill="none" stroke="#63b8ff" d="M73.12,-329.97C82.15,-374.83 109.27,-480.44 172.75,-539.88 176.16,-543.07 180.04,-545.85 184.16,-548.26"/>
<polygon fill="#63b8ff" stroke="#63b8ff" points="76.58,-329.45 71.28,-320.28 69.71,-330.75 76.58,-329.45"/>
</a>
</g>
</g>
<!-- Node34 -->
<g id="Node000034" class="node">
<title>Node34</title>
<g id="a_Node000034"><a xlink:href="structfloppy_1_1traits_1_1formattable.html" target="_top" xlink:title=" ">
<polygon fill="white" stroke="#666666" points="293.75,-530.75 183.25,-530.75 183.25,-489 293.75,-489 293.75,-530.75"/>
<text text-anchor="start" x="191.25" y="-516.3" font-family="Helvetica,sans-Serif" font-size="11.00">formattable&lt; size2d</text>
<text text-anchor="start" x="191.25" y="-505.05" font-family="Helvetica,sans-Serif" font-size="11.00">&lt; default_unit, f32</text>
<text text-anchor="middle" x="238.5" y="-493.8" font-family="Helvetica,sans-Serif" font-size="11.00"> &gt;, char &gt;</text>
</a>
</g>
</g>
<!-- Node14&#45;&gt;Node34 -->
<g id="edge29_Node000014_Node000034" class="edge">
<title>Node14&#45;&gt;Node34</title>
<g id="a_edge29_Node000014_Node000034"><a xlink:title=" ">
<path fill="none" stroke="#63b8ff" d="M76.95,-329.08C90.96,-364.02 124,-436.2 172.75,-479.88 176.35,-483.1 180.35,-486.04 184.56,-488.7"/>
<polygon fill="#63b8ff" stroke="#63b8ff" points="80.37,-328.21 73.48,-320.16 73.84,-330.75 80.37,-328.21"/>
</a>
</g>
</g>
<!-- Node35 -->
<g id="Node000035" class="node">
<title>Node35</title>
<g id="a_Node000035"><a xlink:href="structfloppy_1_1traits_1_1formattable.html" target="_top" xlink:title=" ">
<polygon fill="white" stroke="#666666" points="299,-470.75 178,-470.75 178,-429 299,-429 299,-470.75"/>
<text text-anchor="start" x="186" y="-456.3" font-family="Helvetica,sans-Serif" font-size="11.00">formattable&lt; vector2d</text>
<text text-anchor="start" x="186" y="-445.05" font-family="Helvetica,sans-Serif" font-size="11.00">&lt; default_unit, f32 &gt;</text>
<text text-anchor="middle" x="238.5" y="-433.8" font-family="Helvetica,sans-Serif" font-size="11.00">, char &gt;</text>
</a>
</g>
</g>
<!-- Node14&#45;&gt;Node35 -->
<g id="edge30_Node000014_Node000035" class="edge">
<title>Node14&#45;&gt;Node35</title>
<g id="a_edge30_Node000014_Node000035"><a xlink:title=" ">
<path fill="none" stroke="#63b8ff" d="M83.5,-328.14C101.87,-352.14 136,-393.23 172.75,-419.88 177.06,-423 181.75,-425.93 186.57,-428.63"/>
<polygon fill="#63b8ff" stroke="#63b8ff" points="86.34,-326.09 77.53,-320.2 80.74,-330.3 86.34,-326.09"/>
</a>
</g>
</g>
<!-- Node8 -->
<g id="Node000008" class="node">
<title>Node8</title>
<g id="a_Node000008"><a xlink:href="structfloppy_1_1traits_1_1formattable.html" target="_top" xlink:title="Allows type to be converted to string and printed via standard streams or fmt.">
<polygon fill="white" stroke="#666666" points="293.38,-410.5 183.62,-410.5 183.62,-391.25 293.38,-391.25 293.38,-410.5"/>
<text text-anchor="middle" x="238.5" y="-396.05" font-family="Helvetica,sans-Serif" font-size="11.00">formattable&lt; T, C &gt;</text>
</a>
</g>
</g>
<!-- Node14&#45;&gt;Node8 -->
<g id="edge31_Node000014_Node000008" class="edge">
<title>Node14&#45;&gt;Node8</title>
<g id="a_edge31_Node000014_Node000008"><a xlink:title=" ">
<path fill="none" stroke="#63b8ff" d="M89.44,-326.1C109.39,-342.47 141.47,-366.76 172.75,-381.88 179.92,-385.34 187.85,-388.31 195.63,-390.79"/>
<polygon fill="#63b8ff" stroke="#63b8ff" points="91.75,-323.47 81.83,-319.75 87.26,-328.84 91.75,-323.47"/>
</a>
</g>
</g>
<!-- Node16 -->
<g id="Node000016" class="node">
<title>Node16</title>
<g id="a_Node000016"><a xlink:href="classfloppy_1_1gfx_1_1color.html" target="_top" xlink:title="Class representing a color.">
<polygon fill="white" stroke="#666666" points="441,-358.5 401.75,-358.5 401.75,-339.25 441,-339.25 441,-358.5"/>
<text text-anchor="middle" x="421.38" y="-344.05" font-family="Helvetica,sans-Serif" font-size="11.00">color</text>
</a>
</g>
</g>
<!-- Node15&#45;&gt;Node16 -->
<g id="edge11_Node000015_Node000016" class="edge">
<title>Node15&#45;&gt;Node16</title>
<g id="a_edge11_Node000015_Node000016"><a xlink:title=" ">
<path fill="none" stroke="#63b8ff" d="M302.43,-354.74C337.36,-353.01 378.35,-350.97 401.65,-349.81"/>
<polygon fill="#63b8ff" stroke="#63b8ff" points="302.66,-351.23 292.84,-355.22 303,-358.22 302.66,-351.23"/>
</a>
</g>
</g>
<!-- Node18 -->
<g id="Node000018" class="node">
<title>Node18</title>
<g id="a_Node000018"><a xlink:href="structfloppy_1_1gfx_1_1color_1_1hsl__t.html" target="_top" xlink:title="HSL color representation.">
<polygon fill="white" stroke="#666666" points="455.25,-318.5 387.5,-318.5 387.5,-299.25 455.25,-299.25 455.25,-318.5"/>
<text text-anchor="middle" x="421.38" y="-304.05" font-family="Helvetica,sans-Serif" font-size="11.00">color::hsl_t</text>
</a>
</g>
</g>
<!-- Node17&#45;&gt;Node18 -->
<g id="edge13_Node000017_Node000018" class="edge">
<title>Node17&#45;&gt;Node18</title>
<g id="a_edge13_Node000017_Node000018"><a xlink:title=" ">
<path fill="none" stroke="#63b8ff" d="M301.56,-308.88C330.33,-308.88 363.35,-308.88 387.27,-308.88"/>
<polygon fill="#63b8ff" stroke="#63b8ff" points="301.88,-305.38 291.88,-308.88 301.88,-312.38 301.88,-305.38"/>
</a>
</g>
</g>
<!-- Node20 -->
<g id="Node000020" class="node">
<title>Node20</title>
<g id="a_Node000020"><a xlink:href="structfloppy_1_1gfx_1_1color_1_1hsla__t.html" target="_top" xlink:title="HSLA color representation.">
<polygon fill="white" stroke="#666666" points="458.25,-269.5 384.5,-269.5 384.5,-250.25 458.25,-250.25 458.25,-269.5"/>
<text text-anchor="middle" x="421.38" y="-255.05" font-family="Helvetica,sans-Serif" font-size="11.00">color::hsla_t</text>
</a>
</g>
</g>
<!-- Node19&#45;&gt;Node20 -->
<g id="edge15_Node000019_Node000020" class="edge">
<title>Node19&#45;&gt;Node20</title>
<g id="a_edge15_Node000019_Node000020"><a xlink:title=" ">
<path fill="none" stroke="#63b8ff" d="M301.87,-259.88C329.36,-259.88 360.68,-259.88 384.21,-259.88"/>
<polygon fill="#63b8ff" stroke="#63b8ff" points="301.88,-256.38 291.88,-259.88 301.88,-263.38 301.88,-256.38"/>
</a>
</g>
</g>
<!-- Node22 -->
<g id="Node000022" class="node">
<title>Node22</title>
<g id="a_Node000022"><a xlink:href="structfloppy_1_1gfx_1_1color_1_1hsv__t.html" target="_top" xlink:title="HSV color representation.">
<polygon fill="white" stroke="#666666" points="456.75,-220.5 386,-220.5 386,-201.25 456.75,-201.25 456.75,-220.5"/>
<text text-anchor="middle" x="421.38" y="-206.05" font-family="Helvetica,sans-Serif" font-size="11.00">color::hsv_t</text>
</a>
</g>
</g>
<!-- Node21&#45;&gt;Node22 -->
<g id="edge17_Node000021_Node000022" class="edge">
<title>Node21&#45;&gt;Node22</title>
<g id="a_edge17_Node000021_Node000022"><a xlink:title=" ">
<path fill="none" stroke="#63b8ff" d="M301.71,-210.88C329.78,-210.88 361.88,-210.88 385.61,-210.88"/>
<polygon fill="#63b8ff" stroke="#63b8ff" points="301.88,-207.38 291.88,-210.88 301.88,-214.38 301.88,-207.38"/>
</a>
</g>
</g>
<!-- Node24 -->
<g id="Node000024" class="node">
<title>Node24</title>
<g id="a_Node000024"><a xlink:href="structfloppy_1_1gfx_1_1color_1_1hsva__t.html" target="_top" xlink:title="HSVA color representation.">
<polygon fill="white" stroke="#666666" points="459.75,-171.5 383,-171.5 383,-152.25 459.75,-152.25 459.75,-171.5"/>
<text text-anchor="middle" x="421.38" y="-157.05" font-family="Helvetica,sans-Serif" font-size="11.00">color::hsva_t</text>
</a>
</g>
</g>
<!-- Node23&#45;&gt;Node24 -->
<g id="edge19_Node000023_Node000024" class="edge">
<title>Node23&#45;&gt;Node24</title>
<g id="a_edge19_Node000023_Node000024"><a xlink:title=" ">
<path fill="none" stroke="#63b8ff" d="M301.63,-161.88C328.51,-161.88 359.1,-161.88 382.51,-161.88"/>
<polygon fill="#63b8ff" stroke="#63b8ff" points="301.88,-158.38 291.88,-161.88 301.88,-165.38 301.88,-158.38"/>
</a>
</g>
</g>
<!-- Node27 -->
<g id="Node000027" class="node">
<title>Node27</title>
<g id="a_Node000027"><a xlink:href="structfloppy_1_1math_1_1detail_1_1basic__two__dimensional__type.html" target="_top" xlink:title="CRTP base class for two dimensional numerical types.">
<polygon fill="white" stroke="#666666" points="484.5,-85.12 358.25,-85.12 358.25,-54.62 484.5,-54.62 484.5,-85.12"/>
<text text-anchor="start" x="366.25" y="-70.67" font-family="Helvetica,sans-Serif" font-size="11.00">basic_two_dimensional</text>
<text text-anchor="middle" x="421.38" y="-59.42" font-family="Helvetica,sans-Serif" font-size="11.00">_type&lt; T, U, N &gt;</text>
</a>
</g>
</g>
<!-- Node26&#45;&gt;Node27 -->
<g id="edge22_Node000026_Node000027" class="edge">
<title>Node26&#45;&gt;Node27</title>
<g id="a_edge22_Node000026_Node000027"><a xlink:title=" ">
<path fill="none" stroke="#63b8ff" d="M311.3,-69.88C326.73,-69.88 342.91,-69.88 357.95,-69.88"/>
<polygon fill="#63b8ff" stroke="#63b8ff" points="311.75,-66.38 301.75,-69.88 311.75,-73.38 311.75,-66.38"/>
</a>
</g>
</g>
<!-- Node28 -->
<g id="Node000028" class="node">
<title>Node28</title>
<g id="a_Node000028"><a xlink:href="classfloppy_1_1math_1_1point2d.html" target="_top" xlink:title="A two&#45;dimensional point tagged with a unit.">
<polygon fill="white" stroke="#666666" points="632.5,-79.5 541.5,-79.5 541.5,-60.25 632.5,-60.25 632.5,-79.5"/>
<text text-anchor="middle" x="587" y="-65.05" font-family="Helvetica,sans-Serif" font-size="11.00">point2d&lt; U, T &gt;</text>
</a>
</g>
</g>
<!-- Node27&#45;&gt;Node28 -->
<g id="edge23_Node000027_Node000028" class="edge">
<title>Node27&#45;&gt;Node28</title>
<g id="a_edge23_Node000027_Node000028"><a xlink:title=" ">
<path fill="none" stroke="#63b8ff" d="M495.84,-69.88C511.29,-69.88 527.13,-69.88 541.14,-69.88"/>
<polygon fill="#63b8ff" stroke="#63b8ff" points="496.21,-66.38 486.21,-69.88 496.21,-73.38 496.21,-66.38"/>
</a>
</g>
</g>
<!-- Node29 -->
<g id="Node000029" class="node">
<title>Node29</title>
<g id="a_Node000029"><a xlink:href="classfloppy_1_1math_1_1size2d.html" target="_top" xlink:title="A two&#45;dimensional size2d tagged with a unit.">
<polygon fill="white" stroke="#666666" points="630.25,-42.5 543.75,-42.5 543.75,-23.25 630.25,-23.25 630.25,-42.5"/>
<text text-anchor="middle" x="587" y="-28.05" font-family="Helvetica,sans-Serif" font-size="11.00">size2d&lt; U, T &gt;</text>
</a>
</g>
</g>
<!-- Node27&#45;&gt;Node29 -->
<g id="edge24_Node000027_Node000029" class="edge">
<title>Node27&#45;&gt;Node29</title>
<g id="a_edge24_Node000027_Node000029"><a xlink:title=" ">
<path fill="none" stroke="#63b8ff" d="M495.91,-53.25C512.26,-49.55 529.04,-45.75 543.63,-42.46"/>
<polygon fill="#63b8ff" stroke="#63b8ff" points="495.16,-49.83 486.18,-55.45 496.7,-56.66 495.16,-49.83"/>
</a>
</g>
</g>
<!-- Node30 -->
<g id="Node000030" class="node">
<title>Node30</title>
<g id="a_Node000030"><a xlink:href="classfloppy_1_1math_1_1vector2d.html" target="_top" xlink:title="A two&#45;dimensional vector tagged with a unit.">
<polygon fill="white" stroke="#666666" points="635.5,-116.5 538.5,-116.5 538.5,-97.25 635.5,-97.25 635.5,-116.5"/>
<text text-anchor="middle" x="587" y="-102.05" font-family="Helvetica,sans-Serif" font-size="11.00">vector2d&lt; U, T &gt;</text>
</a>
</g>
</g>
<!-- Node27&#45;&gt;Node30 -->
<g id="edge25_Node000027_Node000030" class="edge">
<title>Node27&#45;&gt;Node30</title>
<g id="a_edge25_Node000027_Node000030"><a xlink:title=" ">
<path fill="none" stroke="#63b8ff" d="M495.5,-86.41C511.23,-89.97 527.4,-93.62 541.64,-96.84"/>
<polygon fill="#63b8ff" stroke="#63b8ff" points="496.7,-83.09 486.18,-84.3 495.16,-89.92 496.7,-83.09"/>
</a>
</g>
</g>
<!-- Node8&#45;&gt;Node7 -->
<g id="edge35_Node000008_Node000007" class="edge">
<title>Node8&#45;&gt;Node7</title>
<g id="a_edge35_Node000008_Node000007"><a xlink:title=" ">
<path fill="none" stroke="#63b8ff" d="M286.53,-413.81C303.44,-418.37 322.67,-423.46 340.25,-427.88 412.08,-445.91 443.19,-421.52 502.5,-465.88 551.15,-502.26 575.72,-575.92 583.34,-602.78"/>
<polygon fill="#63b8ff" stroke="#63b8ff" points="287.83,-410.54 277.26,-411.3 286,-417.29 287.83,-410.54"/>
</a>
</g>
</g>
<!-- Node8&#45;&gt;Node12 -->
<g id="edge36_Node000008_Node000012" class="edge">
<title>Node8&#45;&gt;Node12</title>
<g id="a_edge36_Node000008_Node000012"><a xlink:title=" ">
<path fill="none" stroke="#63b8ff" d="M302.07,-417.61C302.83,-418.33 303.55,-419.09 304.25,-419.88 369.34,-493.41 292.77,-551.92 340.25,-637.88 355.26,-665.04 384.78,-686.98 403.5,-698.95"/>
<polygon fill="#63b8ff" stroke="#63b8ff" points="304.4,-414.98 294.28,-411.86 300.25,-420.61 304.4,-414.98"/>
</a>
</g>
</g>
<!-- Node8&#45;&gt;Node13 -->
<g id="edge37_Node000008_Node000013" class="edge">
<title>Node8&#45;&gt;Node13</title>
<g id="a_edge37_Node000008_Node000013"><a xlink:title=" ">
<path fill="none" stroke="#63b8ff" d="M301.96,-417.61C302.75,-418.33 303.52,-419.09 304.25,-419.88 355.68,-475.14 291.8,-527.98 340.25,-585.88 349.23,-596.6 362.26,-603.89 375.21,-608.83"/>
<polygon fill="#63b8ff" stroke="#63b8ff" points="303.99,-414.75 293.8,-411.83 299.94,-420.47 303.99,-414.75"/>
</a>
</g>
</g>
<!-- Node9 -->
<g id="Node000009" class="node">
<title>Node9</title>
<g id="a_Node000009"><a xlink:href="structfloppy_1_1math_1_1detail_1_1basic__two__dimensional__type.html" target="_top" xlink:title=" ">
<polygon fill="white" stroke="#666666" points="502.5,-418.75 340.25,-418.75 340.25,-377 502.5,-377 502.5,-418.75"/>
<text text-anchor="start" x="348.25" y="-404.3" font-family="Helvetica,sans-Serif" font-size="11.00">basic_two_dimensional</text>
<text text-anchor="start" x="348.25" y="-393.05" font-family="Helvetica,sans-Serif" font-size="11.00">_type&lt; point2d&lt; default</text>
<text text-anchor="middle" x="421.38" y="-381.8" font-family="Helvetica,sans-Serif" font-size="11.00">_unit, f32 &gt;, default_unit, f32 &gt;</text>
</a>
</g>
</g>
<!-- Node8&#45;&gt;Node9 -->
<g id="edge32_Node000008_Node000009" class="edge">
<title>Node8&#45;&gt;Node9</title>
<g id="a_edge32_Node000008_Node000009"><a xlink:title=" ">
<path fill="none" stroke="#63b8ff" d="M304.95,-399.79C316.34,-399.6 328.32,-399.4 340.06,-399.21"/>
<polygon fill="#63b8ff" stroke="#63b8ff" points="305.22,-396.28 295.28,-399.95 305.34,-403.28 305.22,-396.28"/>
</a>
</g>
</g>
<!-- Node10 -->
<g id="Node000010" class="node">
<title>Node10</title>
<g id="a_Node000010"><a xlink:href="structfloppy_1_1math_1_1detail_1_1basic__two__dimensional__type.html" target="_top" xlink:title=" ">
<polygon fill="white" stroke="#666666" points="502.5,-576.75 340.25,-576.75 340.25,-535 502.5,-535 502.5,-576.75"/>
<text text-anchor="start" x="348.25" y="-562.3" font-family="Helvetica,sans-Serif" font-size="11.00">basic_two_dimensional</text>
<text text-anchor="start" x="348.25" y="-551.05" font-family="Helvetica,sans-Serif" font-size="11.00">_type&lt; size2d&lt; default</text>
<text text-anchor="middle" x="421.38" y="-539.8" font-family="Helvetica,sans-Serif" font-size="11.00">_unit, f32 &gt;, default_unit, f32 &gt;</text>
</a>
</g>
</g>
<!-- Node8&#45;&gt;Node10 -->
<g id="edge33_Node000008_Node000010" class="edge">
<title>Node8&#45;&gt;Node10</title>
<g id="a_edge33_Node000008_Node000010"><a xlink:title=" ">
<path fill="none" stroke="#63b8ff" d="M300.89,-416.96C302.06,-417.88 303.18,-418.85 304.25,-419.88 340.16,-454.31 305.62,-490.16 340.25,-525.88 343.46,-529.18 347.06,-532.13 350.92,-534.75"/>
<polygon fill="#63b8ff" stroke="#63b8ff" points="302.81,-414.03 292.48,-411.69 299.09,-419.96 302.81,-414.03"/>
</a>
</g>
</g>
<!-- Node11 -->
<g id="Node000011" class="node">
<title>Node11</title>
<g id="a_Node000011"><a xlink:href="structfloppy_1_1math_1_1detail_1_1basic__two__dimensional__type.html" target="_top" xlink:title=" ">
<polygon fill="white" stroke="#666666" points="502.5,-516.75 340.25,-516.75 340.25,-475 502.5,-475 502.5,-516.75"/>
<text text-anchor="start" x="348.25" y="-502.3" font-family="Helvetica,sans-Serif" font-size="11.00">basic_two_dimensional</text>
<text text-anchor="start" x="348.25" y="-491.05" font-family="Helvetica,sans-Serif" font-size="11.00">_type&lt; vector2d&lt; default</text>
<text text-anchor="middle" x="421.38" y="-479.8" font-family="Helvetica,sans-Serif" font-size="11.00">_unit, f32 &gt;, default_unit, f32 &gt;</text>
</a>
</g>
</g>
<!-- Node8&#45;&gt;Node11 -->
<g id="edge34_Node000008_Node000011" class="edge">
<title>Node8&#45;&gt;Node11</title>
<g id="a_edge34_Node000008_Node000011"><a xlink:title=" ">
<path fill="none" stroke="#63b8ff" d="M296.22,-415.39C299,-416.76 301.7,-418.25 304.25,-419.88 324.69,-432.92 320.67,-446.57 340.25,-460.88 347.24,-465.98 355.08,-470.55 363.06,-474.56"/>
<polygon fill="#63b8ff" stroke="#63b8ff" points="297.81,-412.26 287.24,-411.55 295.06,-418.7 297.81,-412.26"/>
</a>
</g>
</g>
</g>
</svg>
