<?xml version="1.0" encoding="UTF-8" standalone="no"?>
<!DOCTYPE svg PUBLIC "-//W3C//DTD SVG 1.1//EN"
 "http://www.w3.org/Graphics/SVG/1.1/DTD/svg11.dtd">
<!-- Generated by graphviz version 10.0.1 (0)
 -->
<!-- Title: Graphical Class Hierarchy Pages: 1 -->
<svg width="403pt" height="441pt"
 viewBox="0.00 0.00 403.25 440.50" xmlns="http://www.w3.org/2000/svg" xmlns:xlink="http://www.w3.org/1999/xlink">
<g id="graph0" class="graph" transform="scale(1 1) rotate(0) translate(4 436.5)">
<title>Graphical Class Hierarchy</title>
<!-- Node0 -->
<g id="Node000000" class="node">
<title>Node0</title>
<g id="a_Node000000"><a xlink:title=" ">
<polygon fill="#e0e0e0" stroke="#999999" points="59.5,-198.88 0,-198.88 0,-179.62 59.5,-179.62 59.5,-198.88"/>
<text text-anchor="middle" x="29.75" y="-184.43" font-family="Helvetica,sans-Serif" font-size="11.00">formatter</text>
</a>
</g>
</g>
<!-- Node1 -->
<g id="Node000001" class="node">
<title>Node1</title>
<g id="a_Node000001"><a xlink:href="structfloppy_1_1ostream__formatter.html" target="_top" xlink:title=" ">
<polygon fill="white" stroke="#666666" points="217.25,-226.5 106,-226.5 106,-196 217.25,-196 217.25,-226.5"/>
<text text-anchor="start" x="114" y="-212.05" font-family="Helvetica,sans-Serif" font-size="11.00">ostream_formatter&lt;</text>
<text text-anchor="middle" x="161.62" y="-200.8" font-family="Helvetica,sans-Serif" font-size="11.00"> char &gt;</text>
</a>
</g>
</g>
<!-- Node0&#45;&gt;Node1 -->
<g id="edge42_Node000000_Node000001" class="edge">
<title>Node0&#45;&gt;Node1</title>
<g id="a_edge42_Node000000_Node000001"><a xlink:title=" ">
<path fill="none" stroke="#63b8ff" d="M70.9,-196.05C81.92,-197.92 94.05,-199.97 105.73,-201.95"/>
<polygon fill="#63b8ff" stroke="#63b8ff" points="71.83,-192.66 61.39,-194.44 70.66,-199.56 71.83,-192.66"/>
</a>
</g>
</g>
<!-- Node11 -->
<g id="Node000011" class="node">
<title>Node11</title>
<g id="a_Node000011"><a xlink:href="structfloppy_1_1ostream__formatter.html" target="_top" xlink:title="Formatter for types which support stream output.">
<polygon fill="white" stroke="#666666" points="227.75,-177.88 95.5,-177.88 95.5,-158.62 227.75,-158.62 227.75,-177.88"/>
<text text-anchor="middle" x="161.62" y="-163.43" font-family="Helvetica,sans-Serif" font-size="11.00">ostream_formatter&lt; C &gt;</text>
</a>
</g>
</g>
<!-- Node0&#45;&gt;Node11 -->
<g id="edge52_Node000000_Node000011" class="edge">
<title>Node0&#45;&gt;Node11</title>
<g id="a_edge52_Node000000_Node000011"><a xlink:title=" ">
<path fill="none" stroke="#63b8ff" d="M71.11,-182.72C79.69,-181.34 88.93,-179.84 98.12,-178.36"/>
<polygon fill="#63b8ff" stroke="#63b8ff" points="70.7,-179.24 61.39,-184.3 71.82,-186.15 70.7,-179.24"/>
</a>
</g>
</g>
<!-- Node2 -->
<g id="Node000002" class="node">
<title>Node2</title>
<g id="a_Node000002"><a xlink:href="structfmt_1_1formatter_3_01enum_01floppy_1_1platform_1_1compiler_01_4.html" target="_top" xlink:title="Formatter for floppy::platform::compiler.">
<polygon fill="white" stroke="#666666" points="393.38,-432.5 265.62,-432.5 265.62,-402 393.38,-402 393.38,-432.5"/>
<text text-anchor="start" x="273.62" y="-418.05" font-family="Helvetica,sans-Serif" font-size="11.00">formatter&lt; enum floppy</text>
<text text-anchor="middle" x="329.5" y="-406.8" font-family="Helvetica,sans-Serif" font-size="11.00">::platform::compiler &gt;</text>
</a>
</g>
</g>
<!-- Node1&#45;&gt;Node2 -->
<g id="edge43_Node000001_Node000002" class="edge">
<title>Node1&#45;&gt;Node2</title>
<g id="a_edge43_Node000001_Node000002"><a xlink:title=" ">
<path fill="none" stroke="#63b8ff" d="M170.78,-237.38C184.18,-276.28 214.39,-349.41 263.75,-392.25 267.84,-395.8 272.5,-398.88 277.39,-401.54"/>
<polygon fill="#63b8ff" stroke="#63b8ff" points="174.26,-236.75 167.78,-228.37 167.62,-238.96 174.26,-236.75"/>
</a>
</g>
</g>
<!-- Node3 -->
<g id="Node000003" class="node">
<title>Node3</title>
<g id="a_Node000003"><a xlink:href="structfmt_1_1formatter_3_01enum_01floppy_1_1platform_1_1endianness_01_4.html" target="_top" xlink:title="Formatter for floppy::platform::endianness.">
<polygon fill="white" stroke="#666666" points="395.25,-383.5 263.75,-383.5 263.75,-353 395.25,-353 395.25,-383.5"/>
<text text-anchor="start" x="271.75" y="-369.05" font-family="Helvetica,sans-Serif" font-size="11.00">formatter&lt; enum floppy</text>
<text text-anchor="middle" x="329.5" y="-357.8" font-family="Helvetica,sans-Serif" font-size="11.00">::platform::endianness &gt;</text>
</a>
</g>
</g>
<!-- Node1&#45;&gt;Node3 -->
<g id="edge44_Node000001_Node000003" class="edge">
<title>Node1&#45;&gt;Node3</title>
<g id="a_edge44_Node000001_Node000003"><a xlink:title=" ">
<path fill="none" stroke="#63b8ff" d="M176.01,-236.66C192.83,-266.32 224.32,-315.02 263.75,-344.25 267.99,-347.39 272.68,-350.16 277.55,-352.6"/>
<polygon fill="#63b8ff" stroke="#63b8ff" points="179.12,-235.06 171.23,-227.99 173,-238.44 179.12,-235.06"/>
</a>
</g>
</g>
<!-- Node4 -->
<g id="Node000004" class="node">
<title>Node4</title>
<g id="a_Node000004"><a xlink:href="structfmt_1_1formatter_3_01enum_01floppy_1_1platform_1_1operating__system_01_4.html" target="_top" xlink:title="Formatter for floppy::platform::operating_system.">
<polygon fill="white" stroke="#666666" points="393.38,-335.12 265.62,-335.12 265.62,-293.38 393.38,-293.38 393.38,-335.12"/>
<text text-anchor="start" x="273.62" y="-320.68" font-family="Helvetica,sans-Serif" font-size="11.00">formatter&lt; enum floppy</text>
<text text-anchor="start" x="273.62" y="-309.43" font-family="Helvetica,sans-Serif" font-size="11.00">::platform::operating</text>
<text text-anchor="middle" x="329.5" y="-298.18" font-family="Helvetica,sans-Serif" font-size="11.00">_system &gt;</text>
</a>
</g>
</g>
<!-- Node1&#45;&gt;Node4 -->
<g id="edge45_Node000001_Node000004" class="edge">
<title>Node1&#45;&gt;Node4</title>
<g id="a_edge45_Node000001_Node000004"><a xlink:title=" ">
<path fill="none" stroke="#63b8ff" d="M191.05,-234.03C210.79,-249.27 238.06,-269.21 263.75,-284.25 268.88,-287.25 274.37,-290.19 279.89,-292.97"/>
<polygon fill="#63b8ff" stroke="#63b8ff" points="193.24,-231.29 183.2,-227.9 188.93,-236.81 193.24,-231.29"/>
</a>
</g>
</g>
<!-- Node5 -->
<g id="Node000005" class="node">
<title>Node5</title>
<g id="a_Node000005"><a xlink:href="structfmt_1_1formatter_3_01floppy_1_1meta_1_1project__meta_01_4.html" target="_top" xlink:title="Formatter for floppy::meta::project_meta">
<polygon fill="white" stroke="#666666" points="388.5,-275.5 270.5,-275.5 270.5,-245 388.5,-245 388.5,-275.5"/>
<text text-anchor="start" x="278.5" y="-261.05" font-family="Helvetica,sans-Serif" font-size="11.00">formatter&lt; floppy::</text>
<text text-anchor="middle" x="329.5" y="-249.8" font-family="Helvetica,sans-Serif" font-size="11.00">meta::project_meta &gt;</text>
</a>
</g>
</g>
<!-- Node1&#45;&gt;Node5 -->
<g id="edge46_Node000001_Node000005" class="edge">
<title>Node1&#45;&gt;Node5</title>
<g id="a_edge46_Node000001_Node000005"><a xlink:title=" ">
<path fill="none" stroke="#63b8ff" d="M226.51,-230.12C242.6,-234.87 259.7,-239.93 275.21,-244.51"/>
<polygon fill="#63b8ff" stroke="#63b8ff" points="227.6,-226.79 217.02,-227.32 225.62,-233.51 227.6,-226.79"/>
</a>
</g>
</g>
<!-- Node6 -->
<g id="Node000006" class="node">
<title>Node6</title>
<g id="a_Node000006"><a xlink:href="structfmt_1_1formatter_3_01floppy_1_1meta_1_1version_01_4.html" target="_top" xlink:title="Formatter for floppy::meta::version">
<polygon fill="white" stroke="#666666" points="381.38,-226.5 277.62,-226.5 277.62,-196 381.38,-196 381.38,-226.5"/>
<text text-anchor="start" x="285.62" y="-212.05" font-family="Helvetica,sans-Serif" font-size="11.00">formatter&lt; floppy::</text>
<text text-anchor="middle" x="329.5" y="-200.8" font-family="Helvetica,sans-Serif" font-size="11.00">meta::version &gt;</text>
</a>
</g>
</g>
<!-- Node1&#45;&gt;Node6 -->
<g id="edge47_Node000001_Node000006" class="edge">
<title>Node1&#45;&gt;Node6</title>
<g id="a_edge47_Node000001_Node000006"><a xlink:title=" ">
<path fill="none" stroke="#63b8ff" d="M228.9,-211.25C244.97,-211.25 261.9,-211.25 277.16,-211.25"/>
<polygon fill="#63b8ff" stroke="#63b8ff" points="228.91,-207.75 218.91,-211.25 228.91,-214.75 228.91,-207.75"/>
</a>
</g>
</g>
<!-- Node7 -->
<g id="Node000007" class="node">
<title>Node7</title>
<g id="a_Node000007"><a xlink:href="structfmt_1_1formatter_3_01floppy_1_1platform_01_4.html" target="_top" xlink:title="Formatter for floppy::platform.">
<polygon fill="white" stroke="#666666" points="381.38,-177.5 277.62,-177.5 277.62,-147 381.38,-147 381.38,-177.5"/>
<text text-anchor="start" x="285.62" y="-163.05" font-family="Helvetica,sans-Serif" font-size="11.00">formatter&lt; floppy::</text>
<text text-anchor="middle" x="329.5" y="-151.8" font-family="Helvetica,sans-Serif" font-size="11.00">platform &gt;</text>
</a>
</g>
</g>
<!-- Node1&#45;&gt;Node7 -->
<g id="edge48_Node000001_Node000007" class="edge">
<title>Node1&#45;&gt;Node7</title>
<g id="a_edge48_Node000001_Node000007"><a xlink:title=" ">
<path fill="none" stroke="#63b8ff" d="M226.42,-192.41C243.22,-187.44 261.14,-182.15 277.19,-177.41"/>
<polygon fill="#63b8ff" stroke="#63b8ff" points="225.62,-188.99 217.02,-195.18 227.6,-195.71 225.62,-188.99"/>
</a>
</g>
</g>
<!-- Node8 -->
<g id="Node000008" class="node">
<title>Node8</title>
<g id="a_Node000008"><a xlink:href="structfmt_1_1formatter_3_01floppy_1_1platform_1_1arch_01_4.html" target="_top" xlink:title="Formatter for floppy::platform::arch.">
<polygon fill="white" stroke="#666666" points="381.38,-128.5 277.62,-128.5 277.62,-98 381.38,-98 381.38,-128.5"/>
<text text-anchor="start" x="285.62" y="-114.05" font-family="Helvetica,sans-Serif" font-size="11.00">formatter&lt; floppy::</text>
<text text-anchor="middle" x="329.5" y="-102.8" font-family="Helvetica,sans-Serif" font-size="11.00">platform::arch &gt;</text>
</a>
</g>
</g>
<!-- Node1&#45;&gt;Node8 -->
<g id="edge49_Node000001_Node000008" class="edge">
<title>Node1&#45;&gt;Node8</title>
<g id="a_edge49_Node000001_Node000008"><a xlink:title=" ">
<path fill="none" stroke="#63b8ff" d="M224.16,-189.79C225.39,-188.97 226.59,-188.13 227.75,-187.25 249.34,-171 242.28,-154.66 263.75,-138.25 268.34,-134.74 273.49,-131.66 278.83,-128.98"/>
<polygon fill="#63b8ff" stroke="#63b8ff" points="222.47,-186.73 215.57,-194.77 225.97,-192.78 222.47,-186.73"/>
</a>
</g>
</g>
<!-- Node9 -->
<g id="Node000009" class="node">
<title>Node9</title>
<g id="a_Node000009"><a xlink:href="structfmt_1_1formatter_3_01floppy_1_1platform_1_1vendor_01_4.html" target="_top" xlink:title="Formatter for floppy::platform::vendor.">
<polygon fill="white" stroke="#666666" points="381.38,-79.5 277.62,-79.5 277.62,-49 381.38,-49 381.38,-79.5"/>
<text text-anchor="start" x="285.62" y="-65.05" font-family="Helvetica,sans-Serif" font-size="11.00">formatter&lt; floppy::</text>
<text text-anchor="middle" x="329.5" y="-53.8" font-family="Helvetica,sans-Serif" font-size="11.00">platform::vendor &gt;</text>
</a>
</g>
</g>
<!-- Node1&#45;&gt;Node9 -->
<g id="edge50_Node000001_Node000009" class="edge">
<title>Node1&#45;&gt;Node9</title>
<g id="a_edge50_Node000001_Node000009"><a xlink:title=" ">
<path fill="none" stroke="#63b8ff" d="M226.24,-188.7C226.75,-188.23 227.26,-187.74 227.75,-187.25 260.54,-154.42 231.21,-122.33 263.75,-89.25 267.72,-85.21 272.42,-81.81 277.44,-78.96"/>
<polygon fill="#63b8ff" stroke="#63b8ff" points="224.25,-185.82 218.35,-194.62 228.45,-191.42 224.25,-185.82"/>
</a>
</g>
</g>
<!-- Node10 -->
<g id="Node000010" class="node">
<title>Node10</title>
<g id="a_Node000010"><a xlink:href="structfmt_1_1formatter_3_01floppy_1_1source__location_01_4.html" target="_top" xlink:title="Formatter for floppy::source_location">
<polygon fill="white" stroke="#666666" points="381.38,-30.5 277.62,-30.5 277.62,0 381.38,0 381.38,-30.5"/>
<text text-anchor="start" x="285.62" y="-16.05" font-family="Helvetica,sans-Serif" font-size="11.00">formatter&lt; floppy::</text>
<text text-anchor="middle" x="329.5" y="-4.8" font-family="Helvetica,sans-Serif" font-size="11.00">source_location &gt;</text>
</a>
</g>
</g>
<!-- Node1&#45;&gt;Node10 -->
<g id="edge51_Node000001_Node000010" class="edge">
<title>Node1&#45;&gt;Node10</title>
<g id="a_edge51_Node000001_Node000010"><a xlink:title=" ">
<path fill="none" stroke="#63b8ff" d="M226.32,-188.78C226.81,-188.28 227.29,-187.77 227.75,-187.25 272.55,-137.08 219.33,-90.76 263.75,-40.25 267.57,-35.91 272.23,-32.31 277.29,-29.34"/>
<polygon fill="#63b8ff" stroke="#63b8ff" points="224.27,-185.93 218.72,-194.96 228.68,-191.37 224.27,-185.93"/>
</a>
</g>
</g>
</g>
</svg>
