<?xml version="1.0" encoding="UTF-8" standalone="no"?>
<!DOCTYPE svg PUBLIC "-//W3C//DTD SVG 1.1//EN"
 "http://www.w3.org/Graphics/SVG/1.1/DTD/svg11.dtd">
<!-- Generated by graphviz version 10.0.1 (0)
 -->
<!-- Title: Graphical Class Hierarchy Pages: 1 -->
<svg width="487pt" height="101pt"
 viewBox="0.00 0.00 486.75 101.25" xmlns="http://www.w3.org/2000/svg" xmlns:xlink="http://www.w3.org/1999/xlink">
<g id="graph0" class="graph" transform="scale(1 1) rotate(0) translate(4 97.25)">
<title>Graphical Class Hierarchy</title>
<!-- Node0 -->
<g id="Node000000" class="node">
<title>Node0</title>
<g id="a_Node000000"><a xlink:title=" ">
<polygon fill="#e0e0e0" stroke="#999999" points="61.75,-56.25 0,-56.25 0,-37 61.75,-37 61.75,-56.25"/>
<text text-anchor="middle" x="30.88" y="-41.8" font-family="Helvetica,sans-Serif" font-size="11.00">exception</text>
</a>
</g>
</g>
<!-- Node1 -->
<g id="Node000001" class="node">
<title>Node1</title>
<g id="a_Node000001"><a xlink:href="classfloppy_1_1exceptions_1_1compile__time__error.html" target="_top" xlink:title="Indicates a compile time error.">
<polygon fill="white" stroke="#666666" points="206,-93.25 97.75,-93.25 97.75,-74 206,-74 206,-93.25"/>
<text text-anchor="middle" x="151.88" y="-78.8" font-family="Helvetica,sans-Serif" font-size="11.00">compile_time_error</text>
</a>
</g>
</g>
<!-- Node0&#45;&gt;Node1 -->
<g id="edge41_Node000000_Node000001" class="edge">
<title>Node0&#45;&gt;Node1</title>
<g id="a_edge41_Node000000_Node000001"><a xlink:title=" ">
<path fill="none" stroke="#63b8ff" d="M73.17,-59.46C88.01,-64.08 104.53,-69.22 118.51,-73.56"/>
<polygon fill="#63b8ff" stroke="#63b8ff" points="74.25,-56.13 63.66,-56.51 72.17,-62.82 74.25,-56.13"/>
</a>
</g>
</g>
<!-- Node2 -->
<g id="Node000002" class="node">
<title>Node2</title>
<g id="a_Node000002"><a xlink:title=" ">
<polygon fill="#e0e0e0" stroke="#999999" points="185.38,-56.25 118.38,-56.25 118.38,-37 185.38,-37 185.38,-56.25"/>
<text text-anchor="middle" x="151.88" y="-41.8" font-family="Helvetica,sans-Serif" font-size="11.00">logic_error</text>
</a>
</g>
</g>
<!-- Node0&#45;&gt;Node2 -->
<g id="edge42_Node000000_Node000002" class="edge">
<title>Node0&#45;&gt;Node2</title>
<g id="a_edge42_Node000000_Node000002"><a xlink:title=" ">
<path fill="none" stroke="#63b8ff" d="M73.51,-46.62C88.12,-46.62 104.31,-46.62 118.09,-46.62"/>
<polygon fill="#63b8ff" stroke="#63b8ff" points="73.73,-43.13 63.73,-46.63 73.73,-50.13 73.73,-43.13"/>
</a>
</g>
</g>
<!-- Node5 -->
<g id="Node000005" class="node">
<title>Node5</title>
<g id="a_Node000005"><a xlink:title=" ">
<polygon fill="#e0e0e0" stroke="#999999" points="192.5,-19.25 111.25,-19.25 111.25,0 192.5,0 192.5,-19.25"/>
<text text-anchor="middle" x="151.88" y="-4.8" font-family="Helvetica,sans-Serif" font-size="11.00">runtime_error</text>
</a>
</g>
</g>
<!-- Node0&#45;&gt;Node5 -->
<g id="edge45_Node000000_Node000005" class="edge">
<title>Node0&#45;&gt;Node5</title>
<g id="a_edge45_Node000000_Node000005"><a xlink:title=" ">
<path fill="none" stroke="#63b8ff" d="M73.17,-33.79C88.01,-29.17 104.53,-24.03 118.51,-19.69"/>
<polygon fill="#63b8ff" stroke="#63b8ff" points="72.17,-30.43 63.66,-36.74 74.25,-37.12 72.17,-30.43"/>
</a>
</g>
</g>
<!-- Node3 -->
<g id="Node000003" class="node">
<title>Node3</title>
<g id="a_Node000003"><a xlink:title=" ">
<polygon fill="#e0e0e0" stroke="#999999" points="341.62,-56.25 243.88,-56.25 243.88,-37 341.62,-37 341.62,-56.25"/>
<text text-anchor="middle" x="292.75" y="-41.8" font-family="Helvetica,sans-Serif" font-size="11.00">invalid_argument</text>
</a>
</g>
</g>
<!-- Node2&#45;&gt;Node3 -->
<g id="edge43_Node000002_Node000003" class="edge">
<title>Node2&#45;&gt;Node3</title>
<g id="a_edge43_Node000002_Node000003"><a xlink:title=" ">
<path fill="none" stroke="#63b8ff" d="M197.2,-46.62C211.97,-46.62 228.5,-46.62 243.56,-46.62"/>
<polygon fill="#63b8ff" stroke="#63b8ff" points="197.3,-43.13 187.3,-46.63 197.3,-50.13 197.3,-43.13"/>
</a>
</g>
</g>
<!-- Node4 -->
<g id="Node000004" class="node">
<title>Node4</title>
<g id="a_Node000004"><a xlink:href="classfloppy_1_1contracts_1_1contract__violation.html" target="_top" xlink:title=" ">
<polygon fill="white" stroke="#666666" points="478.75,-56.25 379.5,-56.25 379.5,-37 478.75,-37 478.75,-56.25"/>
<text text-anchor="middle" x="429.12" y="-41.8" font-family="Helvetica,sans-Serif" font-size="11.00">contract_violation</text>
</a>
</g>
</g>
<!-- Node3&#45;&gt;Node4 -->
<g id="edge44_Node000003_Node000004" class="edge">
<title>Node3&#45;&gt;Node4</title>
<g id="a_edge44_Node000003_Node000004"><a xlink:title=" ">
<path fill="none" stroke="#63b8ff" d="M353.24,-46.62C361.99,-46.62 370.92,-46.62 379.42,-46.62"/>
<polygon fill="#63b8ff" stroke="#63b8ff" points="353.4,-43.13 343.4,-46.63 353.4,-50.13 353.4,-43.13"/>
</a>
</g>
</g>
<!-- Node6 -->
<g id="Node000006" class="node">
<title>Node6</title>
<g id="a_Node000006"><a xlink:href="classfloppy_1_1serialization_1_1serialization__error.html" target="_top" xlink:title="Exception thrown during serialization or deserialization.">
<polygon fill="white" stroke="#666666" points="343.5,-19.25 242,-19.25 242,0 343.5,0 343.5,-19.25"/>
<text text-anchor="middle" x="292.75" y="-4.8" font-family="Helvetica,sans-Serif" font-size="11.00">serialization_error</text>
</a>
</g>
</g>
<!-- Node5&#45;&gt;Node6 -->
<g id="edge46_Node000005_Node000006" class="edge">
<title>Node5&#45;&gt;Node6</title>
<g id="a_edge46_Node000005_Node000006"><a xlink:title=" ">
<path fill="none" stroke="#63b8ff" d="M204.09,-9.62C216.32,-9.62 229.36,-9.62 241.55,-9.62"/>
<polygon fill="#63b8ff" stroke="#63b8ff" points="204.18,-6.13 194.18,-9.63 204.18,-13.13 204.18,-6.13"/>
</a>
</g>
</g>
</g>
</svg>
