<?xml version="1.0" encoding="UTF-8" standalone="no"?>
<!DOCTYPE svg PUBLIC "-//W3C//DTD SVG 1.1//EN"
 "http://www.w3.org/Graphics/SVG/1.1/DTD/svg11.dtd">
<!-- Generated by graphviz version 10.0.1 (0)
 -->
<!-- Title: Graphical Class Hierarchy Pages: 1 -->
<svg width="584pt" height="39pt"
 viewBox="0.00 0.00 584.25 38.50" xmlns="http://www.w3.org/2000/svg" xmlns:xlink="http://www.w3.org/1999/xlink">
<g id="graph0" class="graph" transform="scale(1 1) rotate(0) translate(4 34.5)">
<title>Graphical Class Hierarchy</title>
<!-- Node0 -->
<g id="Node000000" class="node">
<title>Node0</title>
<g id="a_Node000000"><a xlink:href="classfloppy_1_1stacktrace_1_1impl_1_1stack__trace__impl__base.html" target="_top" xlink:title=" ">
<polygon fill="white" stroke="#666666" points="125.5,-24.88 0,-24.88 0,-5.63 125.5,-5.63 125.5,-24.88"/>
<text text-anchor="middle" x="62.75" y="-10.43" font-family="Helvetica,sans-Serif" font-size="11.00">stack_trace_impl_base</text>
</a>
</g>
</g>
<!-- Node1 -->
<g id="Node000001" class="node">
<title>Node1</title>
<g id="a_Node000001"><a xlink:href="classfloppy_1_1stacktrace_1_1impl_1_1stack__trace__impl__holder.html" target="_top" xlink:title=" ">
<polygon fill="white" stroke="#666666" points="293.75,-24.88 161.5,-24.88 161.5,-5.63 293.75,-5.63 293.75,-24.88"/>
<text text-anchor="middle" x="227.62" y="-10.43" font-family="Helvetica,sans-Serif" font-size="11.00">stack_trace_impl_holder</text>
</a>
</g>
</g>
<!-- Node0&#45;&gt;Node1 -->
<g id="edge60_Node000000_Node000001" class="edge">
<title>Node0&#45;&gt;Node1</title>
<g id="a_edge60_Node000000_Node000001"><a xlink:title=" ">
<path fill="none" stroke="#63b8ff" d="M137.07,-15.25C145.13,-15.25 153.29,-15.25 161.24,-15.25"/>
<polygon fill="#63b8ff" stroke="#63b8ff" points="137.3,-11.75 127.3,-15.25 137.3,-18.75 137.3,-11.75"/>
</a>
</g>
</g>
<!-- Node2 -->
<g id="Node000002" class="node">
<title>Node2</title>
<g id="a_Node000002"><a xlink:href="classfloppy_1_1stacktrace_1_1impl_1_1stack__trace__impl_3_01system__tag_1_1current_01_4.html" target="_top" xlink:title=" ">
<polygon fill="white" stroke="#666666" points="469.5,-30.5 329.75,-30.5 329.75,0 469.5,0 469.5,-30.5"/>
<text text-anchor="start" x="337.75" y="-16.05" font-family="Helvetica,sans-Serif" font-size="11.00">stack_trace_impl&lt; system</text>
<text text-anchor="middle" x="399.62" y="-4.8" font-family="Helvetica,sans-Serif" font-size="11.00">_tag::current &gt;</text>
</a>
</g>
</g>
<!-- Node1&#45;&gt;Node2 -->
<g id="edge61_Node000001_Node000002" class="edge">
<title>Node1&#45;&gt;Node2</title>
<g id="a_edge61_Node000001_Node000002"><a xlink:title=" ">
<path fill="none" stroke="#63b8ff" d="M305.15,-15.25C313.21,-15.25 321.36,-15.25 329.33,-15.25"/>
<polygon fill="#63b8ff" stroke="#63b8ff" points="305.38,-11.75 295.38,-15.25 305.38,-18.75 305.38,-11.75"/>
</a>
</g>
</g>
<!-- Node3 -->
<g id="Node000003" class="node">
<title>Node3</title>
<g id="a_Node000003"><a xlink:href="classfloppy_1_1stacktrace_1_1impl_1_1stack__trace.html" target="_top" xlink:title=" ">
<polygon fill="white" stroke="#666666" points="576.25,-24.88 505.5,-24.88 505.5,-5.63 576.25,-5.63 576.25,-24.88"/>
<text text-anchor="middle" x="540.88" y="-10.43" font-family="Helvetica,sans-Serif" font-size="11.00">stack_trace</text>
</a>
</g>
</g>
<!-- Node2&#45;&gt;Node3 -->
<g id="edge62_Node000002_Node000003" class="edge">
<title>Node2&#45;&gt;Node3</title>
<g id="a_edge62_Node000002_Node000003"><a xlink:title=" ">
<path fill="none" stroke="#63b8ff" d="M481.32,-15.25C489.67,-15.25 497.8,-15.25 505.22,-15.25"/>
<polygon fill="#63b8ff" stroke="#63b8ff" points="481.36,-11.75 471.36,-15.25 481.36,-18.75 481.36,-11.75"/>
</a>
</g>
</g>
</g>
</svg>
