<?xml version="1.0" encoding="UTF-8" standalone="no"?>
<!DOCTYPE svg PUBLIC "-//W3C//DTD SVG 1.1//EN"
 "http://www.w3.org/Graphics/SVG/1.1/DTD/svg11.dtd">
<!-- Generated by graphviz version 10.0.1 (0)
 -->
<!-- Title: Graphical Class Hierarchy Pages: 1 -->
<svg width="558pt" height="39pt"
 viewBox="0.00 0.00 558.00 38.50" xmlns="http://www.w3.org/2000/svg" xmlns:xlink="http://www.w3.org/1999/xlink">
<g id="graph0" class="graph" transform="scale(1 1) rotate(0) translate(4 34.5)">
<title>Graphical Class Hierarchy</title>
<!-- Node0 -->
<g id="Node000000" class="node">
<title>Node0</title>
<g id="a_Node000000"><a xlink:href="classfloppy_1_1stacktrace_1_1StackTraceImplBase.html" target="_top" xlink:title=" ">
<polygon fill="white" stroke="#666666" points="115,-24.88 0,-24.88 0,-5.63 115,-5.63 115,-24.88"/>
<text text-anchor="middle" x="57.5" y="-10.43" font-family="Helvetica,sans-Serif" font-size="11.00">StackTraceImplBase</text>
</a>
</g>
</g>
<!-- Node1 -->
<g id="Node000001" class="node">
<title>Node1</title>
<g id="a_Node000001"><a xlink:href="classfloppy_1_1stacktrace_1_1StackTraceImplHolder.html" target="_top" xlink:title=" ">
<polygon fill="white" stroke="#666666" points="273.5,-24.88 151,-24.88 151,-5.63 273.5,-5.63 273.5,-24.88"/>
<text text-anchor="middle" x="212.25" y="-10.43" font-family="Helvetica,sans-Serif" font-size="11.00">StackTraceImplHolder</text>
</a>
</g>
</g>
<!-- Node0&#45;&gt;Node1 -->
<g id="edge60_Node000000_Node000001" class="edge">
<title>Node0&#45;&gt;Node1</title>
<g id="a_edge60_Node000000_Node000001"><a xlink:title=" ">
<path fill="none" stroke="#63b8ff" d="M126.62,-15.25C134.66,-15.25 142.82,-15.25 150.74,-15.25"/>
<polygon fill="#63b8ff" stroke="#63b8ff" points="126.89,-11.75 116.89,-15.25 126.89,-18.75 126.89,-11.75"/>
</a>
</g>
</g>
<!-- Node2 -->
<g id="Node000002" class="node">
<title>Node2</title>
<g id="a_Node000002"><a xlink:href="classfloppy_1_1stacktrace_1_1StackTraceImpl_3_01system__tag_1_1current_01_4.html" target="_top" xlink:title=" ">
<polygon fill="white" stroke="#666666" points="443.25,-30.5 309.5,-30.5 309.5,0 443.25,0 443.25,-30.5"/>
<text text-anchor="start" x="317.5" y="-16.05" font-family="Helvetica,sans-Serif" font-size="11.00">StackTraceImpl&lt; system</text>
<text text-anchor="middle" x="376.38" y="-4.8" font-family="Helvetica,sans-Serif" font-size="11.00">_tag::current &gt;</text>
</a>
</g>
</g>
<!-- Node1&#45;&gt;Node2 -->
<g id="edge61_Node000001_Node000002" class="edge">
<title>Node1&#45;&gt;Node2</title>
<g id="a_edge61_Node000001_Node000002"><a xlink:title=" ">
<path fill="none" stroke="#63b8ff" d="M284.93,-15.25C293.02,-15.25 301.23,-15.25 309.24,-15.25"/>
<polygon fill="#63b8ff" stroke="#63b8ff" points="285.13,-11.75 275.13,-15.25 285.13,-18.75 285.13,-11.75"/>
</a>
</g>
</g>
<!-- Node3 -->
<g id="Node000003" class="node">
<title>Node3</title>
<g id="a_Node000003"><a xlink:href="classfloppy_1_1stacktrace_1_1stack__trace.html" target="_top" xlink:title=" ">
<polygon fill="white" stroke="#666666" points="550,-24.88 479.25,-24.88 479.25,-5.63 550,-5.63 550,-24.88"/>
<text text-anchor="middle" x="514.62" y="-10.43" font-family="Helvetica,sans-Serif" font-size="11.00">stack_trace</text>
</a>
</g>
</g>
<!-- Node2&#45;&gt;Node3 -->
<g id="edge62_Node000002_Node000003" class="edge">
<title>Node2&#45;&gt;Node3</title>
<g id="a_edge62_Node000002_Node000003"><a xlink:title=" ">
<path fill="none" stroke="#63b8ff" d="M454.92,-15.25C463.25,-15.25 471.38,-15.25 478.81,-15.25"/>
<polygon fill="#63b8ff" stroke="#63b8ff" points="455.02,-11.75 445.02,-15.25 455.02,-18.75 455.02,-11.75"/>
</a>
</g>
</g>
</g>
</svg>
