<?xml version="1.0" encoding="UTF-8" standalone="no"?>
<!DOCTYPE svg PUBLIC "-//W3C//DTD SVG 1.1//EN"
 "http://www.w3.org/Graphics/SVG/1.1/DTD/svg11.dtd">
<!-- Generated by graphviz version 10.0.1 (0)
 -->
<!-- Title: Graphical Class Hierarchy Pages: 1 -->
<svg width="376pt" height="76pt"
 viewBox="0.00 0.00 375.50 75.88" xmlns="http://www.w3.org/2000/svg" xmlns:xlink="http://www.w3.org/1999/xlink">
<g id="graph0" class="graph" transform="scale(1 1) rotate(0) translate(4 71.88)">
<title>Graphical Class Hierarchy</title>
<!-- Node0 -->
<g id="Node000000" class="node">
<title>Node0</title>
<g id="a_Node000000"><a xlink:title=" ">
<polygon fill="#e0e0e0" stroke="#999999" points="59.5,-40.25 0,-40.25 0,-21 59.5,-21 59.5,-40.25"/>
<text text-anchor="middle" x="29.75" y="-25.8" font-family="Arial" font-size="11.00">formatter</text>
</a>
</g>
</g>
<!-- Node1 -->
<g id="Node000001" class="node">
<title>Node1</title>
<g id="a_Node000001"><a xlink:href="d4/de5/structfloppy_1_1ostream__formatter.html" target="_top" xlink:title=" ">
<polygon fill="white" stroke="#666666" points="217.25,-67.88 106,-67.88 106,-37.38 217.25,-37.38 217.25,-67.88"/>
<text text-anchor="start" x="114" y="-53.42" font-family="Arial" font-size="11.00">ostream_formatter&lt;</text>
<text text-anchor="middle" x="161.62" y="-42.17" font-family="Arial" font-size="11.00"> char &gt;</text>
</a>
</g>
</g>
<!-- Node0&#45;&gt;Node1 -->
<g id="edge19_Node000000_Node000001" class="edge">
<title>Node0&#45;&gt;Node1</title>
<g id="a_edge19_Node000000_Node000001"><a xlink:title=" ">
<path fill="none" stroke="#63b8ff" d="M70.9,-37.43C81.92,-39.29 94.05,-41.35 105.73,-43.33"/>
<polygon fill="#63b8ff" stroke="#63b8ff" points="71.83,-34.03 61.39,-35.82 70.66,-40.94 71.83,-34.03"/>
</a>
</g>
</g>
<!-- Node3 -->
<g id="Node000003" class="node">
<title>Node3</title>
<g id="a_Node000003"><a xlink:href="d4/de5/structfloppy_1_1ostream__formatter.html" target="_top" xlink:title="Formatter for types which support stream output.">
<polygon fill="white" stroke="#666666" points="227.75,-19.25 95.5,-19.25 95.5,0 227.75,0 227.75,-19.25"/>
<text text-anchor="middle" x="161.62" y="-4.8" font-family="Arial" font-size="11.00">ostream_formatter&lt; C &gt;</text>
</a>
</g>
</g>
<!-- Node0&#45;&gt;Node3 -->
<g id="edge21_Node000000_Node000003" class="edge">
<title>Node0&#45;&gt;Node3</title>
<g id="a_edge21_Node000000_Node000003"><a xlink:title=" ">
<path fill="none" stroke="#63b8ff" d="M71.11,-24.1C79.69,-22.71 88.93,-21.22 98.12,-19.73"/>
<polygon fill="#63b8ff" stroke="#63b8ff" points="70.7,-20.62 61.39,-25.67 71.82,-27.53 70.7,-20.62"/>
</a>
</g>
</g>
<!-- Node2 -->
<g id="Node000002" class="node">
<title>Node2</title>
<g id="a_Node000002"><a xlink:href="db/d71/structfmt_1_1formatter_3_01floppy_1_1source__location_01_4.html" target="_top" xlink:title=" ">
<polygon fill="white" stroke="#666666" points="367.5,-67.88 263.75,-67.88 263.75,-37.38 367.5,-37.38 367.5,-67.88"/>
<text text-anchor="start" x="271.75" y="-53.42" font-family="Arial" font-size="11.00">formatter&lt; floppy::</text>
<text text-anchor="middle" x="315.62" y="-42.17" font-family="Arial" font-size="11.00">source_location &gt;</text>
</a>
</g>
</g>
<!-- Node1&#45;&gt;Node2 -->
<g id="edge20_Node000001_Node000002" class="edge">
<title>Node1&#45;&gt;Node2</title>
<g id="a_edge20_Node000001_Node000002"><a xlink:title=" ">
<path fill="none" stroke="#63b8ff" d="M228.91,-52.62C240.46,-52.62 252.31,-52.62 263.38,-52.62"/>
<polygon fill="#63b8ff" stroke="#63b8ff" points="229.01,-49.13 219.01,-52.63 229.01,-56.13 229.01,-49.13"/>
</a>
</g>
</g>
</g>
</svg>
