<?xml version="1.0" encoding="UTF-8" standalone="no"?>
<!DOCTYPE svg PUBLIC "-//W3C//DTD SVG 1.1//EN"
 "http://www.w3.org/Graphics/SVG/1.1/DTD/svg11.dtd">
<!-- Generated by graphviz version 10.0.1 (0)
 -->
<!-- Title: Graphical Class Hierarchy Pages: 1 -->
<svg width="368pt" height="105pt"
 viewBox="0.00 0.00 368.00 105.25" xmlns="http://www.w3.org/2000/svg" xmlns:xlink="http://www.w3.org/1999/xlink">
<g id="graph0" class="graph" transform="scale(1 1) rotate(0) translate(4 101.25)">
<title>Graphical Class Hierarchy</title>
<!-- Node0 -->
<g id="Node000000" class="node">
<title>Node0</title>
<g id="a_Node000000"><a xlink:title=" ">
<polygon fill="#e0e0e0" stroke="#999999" points="61.75,-60.25 0,-60.25 0,-41 61.75,-41 61.75,-60.25"/>
<text text-anchor="middle" x="30.88" y="-45.8" font-family="Helvetica,sans-Serif" font-size="11.00">exception</text>
</a>
</g>
</g>
<!-- Node1 -->
<g id="Node000001" class="node">
<title>Node1</title>
<g id="a_Node000001"><a xlink:href="classfloppy_1_1exceptions_1_1compile__time__error.html" target="_top" xlink:title="Indicates a compile time error.">
<polygon fill="white" stroke="#666666" points="206,-97.25 97.75,-97.25 97.75,-78 206,-78 206,-97.25"/>
<text text-anchor="middle" x="151.88" y="-82.8" font-family="Helvetica,sans-Serif" font-size="11.00">compile_time_error</text>
</a>
</g>
</g>
<!-- Node0&#45;&gt;Node1 -->
<g id="edge41_Node000000_Node000001" class="edge">
<title>Node0&#45;&gt;Node1</title>
<g id="a_edge41_Node000000_Node000001"><a xlink:title=" ">
<path fill="none" stroke="#63b8ff" d="M73.17,-63.46C88.01,-68.08 104.53,-73.22 118.51,-77.56"/>
<polygon fill="#63b8ff" stroke="#63b8ff" points="74.25,-60.13 63.66,-60.51 72.17,-66.82 74.25,-60.13"/>
</a>
</g>
</g>
<!-- Node2 -->
<g id="Node000002" class="node">
<title>Node2</title>
<g id="a_Node000002"><a xlink:title=" ">
<polygon fill="#e0e0e0" stroke="#999999" points="185.38,-60.25 118.38,-60.25 118.38,-41 185.38,-41 185.38,-60.25"/>
<text text-anchor="middle" x="151.88" y="-45.8" font-family="Helvetica,sans-Serif" font-size="11.00">logic_error</text>
</a>
</g>
</g>
<!-- Node0&#45;&gt;Node2 -->
<g id="edge42_Node000000_Node000002" class="edge">
<title>Node0&#45;&gt;Node2</title>
<g id="a_edge42_Node000000_Node000002"><a xlink:title=" ">
<path fill="none" stroke="#63b8ff" d="M73.51,-50.62C88.12,-50.62 104.31,-50.62 118.09,-50.62"/>
<polygon fill="#63b8ff" stroke="#63b8ff" points="73.73,-47.13 63.73,-50.63 73.73,-54.13 73.73,-47.13"/>
</a>
</g>
</g>
<!-- Node4 -->
<g id="Node000004" class="node">
<title>Node4</title>
<g id="a_Node000004"><a xlink:title=" ">
<polygon fill="#e0e0e0" stroke="#999999" points="192.5,-22.25 111.25,-22.25 111.25,-3 192.5,-3 192.5,-22.25"/>
<text text-anchor="middle" x="151.88" y="-7.8" font-family="Helvetica,sans-Serif" font-size="11.00">runtime_error</text>
</a>
</g>
</g>
<!-- Node0&#45;&gt;Node4 -->
<g id="edge44_Node000000_Node000004" class="edge">
<title>Node0&#45;&gt;Node4</title>
<g id="a_edge44_Node000000_Node000004"><a xlink:title=" ">
<path fill="none" stroke="#63b8ff" d="M72.91,-37.52C88.12,-32.67 105.11,-27.24 119.35,-22.69"/>
<polygon fill="#63b8ff" stroke="#63b8ff" points="72.11,-34.1 63.65,-40.48 74.24,-40.77 72.11,-34.1"/>
</a>
</g>
</g>
<!-- Node3 -->
<g id="Node000003" class="node">
<title>Node3</title>
<g id="a_Node000003"><a xlink:href="classfloppy_1_1invalid__smart__pointer__access.html" target="_top" xlink:title="Exception thrown when trying to access invalid smart pointer.">
<polygon fill="white" stroke="#666666" points="360,-67.88 242,-67.88 242,-37.38 360,-37.38 360,-67.88"/>
<text text-anchor="start" x="250" y="-53.42" font-family="Helvetica,sans-Serif" font-size="11.00">invalid_smart_pointer</text>
<text text-anchor="middle" x="301" y="-42.17" font-family="Helvetica,sans-Serif" font-size="11.00">_access</text>
</a>
</g>
</g>
<!-- Node2&#45;&gt;Node3 -->
<g id="edge43_Node000002_Node000003" class="edge">
<title>Node2&#45;&gt;Node3</title>
<g id="a_edge43_Node000002_Node000003"><a xlink:title=" ">
<path fill="none" stroke="#63b8ff" d="M196.88,-51.22C210.95,-51.41 226.75,-51.63 241.68,-51.83"/>
<polygon fill="#63b8ff" stroke="#63b8ff" points="197.09,-47.73 187.04,-51.09 196.99,-54.73 197.09,-47.73"/>
</a>
</g>
</g>
<!-- Node5 -->
<g id="Node000005" class="node">
<title>Node5</title>
<g id="a_Node000005"><a xlink:href="classfloppy_1_1serialization_1_1serialization__error.html" target="_top" xlink:title="Exception thrown during serialization or deserialization.">
<polygon fill="white" stroke="#666666" points="351.75,-19.25 250.25,-19.25 250.25,0 351.75,0 351.75,-19.25"/>
<text text-anchor="middle" x="301" y="-4.8" font-family="Helvetica,sans-Serif" font-size="11.00">serialization_error</text>
</a>
</g>
</g>
<!-- Node4&#45;&gt;Node5 -->
<g id="edge45_Node000004_Node000005" class="edge">
<title>Node4&#45;&gt;Node5</title>
<g id="a_edge45_Node000004_Node000005"><a xlink:title=" ">
<path fill="none" stroke="#63b8ff" d="M203.79,-11.59C218.71,-11.28 235.01,-10.95 249.88,-10.65"/>
<polygon fill="#63b8ff" stroke="#63b8ff" points="204.13,-8.08 194.2,-11.78 204.27,-15.08 204.13,-8.08"/>
</a>
</g>
</g>
</g>
</svg>
