<?xml version="1.0" encoding="UTF-8" standalone="no"?>
<!DOCTYPE svg PUBLIC "-//W3C//DTD SVG 1.1//EN"
 "http://www.w3.org/Graphics/SVG/1.1/DTD/svg11.dtd">
<!-- Generated by graphviz version 10.0.1 (0)
 -->
<!-- Title: Graphical Class Hierarchy Pages: 1 -->
<svg width="586pt" height="461pt"
 viewBox="0.00 0.00 585.75 460.75" xmlns="http://www.w3.org/2000/svg" xmlns:xlink="http://www.w3.org/1999/xlink">
<g id="graph0" class="graph" transform="scale(1 1) rotate(0) translate(4 456.75)">
<title>Graphical Class Hierarchy</title>
<!-- Node0 -->
<g id="Node000000" class="node">
<title>Node0</title>
<g id="a_Node000000"><a xlink:href="d0/d3b/structfloppy_1_1math_1_1detail_1_1default__comparable.html" target="_top" xlink:title=" ">
<polygon fill="white" stroke="#666666" points="136.75,-354.5 0,-354.5 0,-335.25 136.75,-335.25 136.75,-354.5"/>
<text text-anchor="middle" x="68.38" y="-340.05" font-family="Arial" font-size="11.00">default_comparable&lt; T &gt;</text>
</a>
</g>
</g>
<!-- Node1 -->
<g id="Node000001" class="node">
<title>Node1</title>
<g id="a_Node000001"><a xlink:href="d8/d03/structfloppy_1_1math_1_1detail_1_1basic__numeric__newtype.html" target="_top" xlink:title=" ">
<polygon fill="white" stroke="#666666" points="304.25,-284.12 172.75,-284.12 172.75,-253.62 304.25,-253.62 304.25,-284.12"/>
<text text-anchor="start" x="180.75" y="-269.68" font-family="Arial" font-size="11.00">basic_numeric_newtype</text>
<text text-anchor="middle" x="238.5" y="-258.43" font-family="Arial" font-size="11.00">&lt; angle&lt; f32 &gt;, U &gt;</text>
</a>
</g>
</g>
<!-- Node0&#45;&gt;Node1 -->
<g id="edge1_Node000000_Node000001" class="edge">
<title>Node0&#45;&gt;Node1</title>
<g id="a_edge1_Node000000_Node000001"><a xlink:title=" ">
<path fill="none" stroke="#63b8ff" d="M98.54,-329.61C119.07,-319.09 147.31,-305.03 172.75,-293.88 179.92,-290.73 187.63,-287.57 195.13,-284.6"/>
<polygon fill="#63b8ff" stroke="#63b8ff" points="97.19,-326.37 89.91,-334.07 100.4,-332.59 97.19,-326.37"/>
</a>
</g>
</g>
<!-- Node2 -->
<g id="Node000002" class="node">
<title>Node2</title>
<g id="a_Node000002"><a xlink:href="d8/d03/structfloppy_1_1math_1_1detail_1_1basic__numeric__newtype.html" target="_top" xlink:title=" ">
<polygon fill="white" stroke="#666666" points="304.25,-452.75 172.75,-452.75 172.75,-411 304.25,-411 304.25,-452.75"/>
<text text-anchor="start" x="180.75" y="-438.3" font-family="Arial" font-size="11.00">basic_numeric_newtype</text>
<text text-anchor="start" x="180.75" y="-427.05" font-family="Arial" font-size="11.00">&lt; length&lt; default_unit,</text>
<text text-anchor="middle" x="238.5" y="-415.8" font-family="Arial" font-size="11.00"> f32 &gt;, f32 &gt;</text>
</a>
</g>
</g>
<!-- Node0&#45;&gt;Node2 -->
<g id="edge2_Node000000_Node000002" class="edge">
<title>Node0&#45;&gt;Node2</title>
<g id="a_edge2_Node000000_Node000002"><a xlink:title=" ">
<path fill="none" stroke="#63b8ff" d="M96.71,-360.63C117.39,-372.38 146.59,-388.63 172.75,-401.88 178.5,-404.79 184.58,-407.75 190.63,-410.63"/>
<polygon fill="#63b8ff" stroke="#63b8ff" points="98.47,-357.61 88.05,-355.69 95,-363.68 98.47,-357.61"/>
</a>
</g>
</g>
<!-- Node3 -->
<g id="Node000003" class="node">
<title>Node3</title>
<g id="a_Node000003"><a xlink:href="d8/d03/structfloppy_1_1math_1_1detail_1_1basic__numeric__newtype.html" target="_top" xlink:title=" ">
<polygon fill="white" stroke="#666666" points="304.25,-392.75 172.75,-392.75 172.75,-351 304.25,-351 304.25,-392.75"/>
<text text-anchor="start" x="180.75" y="-378.3" font-family="Arial" font-size="11.00">basic_numeric_newtype</text>
<text text-anchor="start" x="180.75" y="-367.05" font-family="Arial" font-size="11.00">&lt; scale&lt; S, D, f32 &gt;,</text>
<text text-anchor="middle" x="238.5" y="-355.8" font-family="Arial" font-size="11.00"> f32 &gt;</text>
</a>
</g>
</g>
<!-- Node0&#45;&gt;Node3 -->
<g id="edge3_Node000000_Node000003" class="edge">
<title>Node0&#45;&gt;Node3</title>
<g id="a_edge3_Node000000_Node000003"><a xlink:title=" ">
<path fill="none" stroke="#63b8ff" d="M143.23,-356.74C152.92,-358.29 162.79,-359.88 172.31,-361.41"/>
<polygon fill="#63b8ff" stroke="#63b8ff" points="143.9,-353.3 133.47,-355.17 142.79,-360.21 143.9,-353.3"/>
</a>
</g>
</g>
<!-- Node4 -->
<g id="Node000004" class="node">
<title>Node4</title>
<g id="a_Node000004"><a xlink:href="d8/d03/structfloppy_1_1math_1_1detail_1_1basic__numeric__newtype.html" target="_top" xlink:title=" ">
<polygon fill="white" stroke="#666666" points="304.25,-333.12 172.75,-333.12 172.75,-302.62 304.25,-302.62 304.25,-333.12"/>
<text text-anchor="start" x="180.75" y="-318.68" font-family="Arial" font-size="11.00">basic_numeric_newtype</text>
<text text-anchor="middle" x="238.5" y="-307.43" font-family="Arial" font-size="11.00">&lt; T, U &gt;</text>
</a>
</g>
</g>
<!-- Node0&#45;&gt;Node4 -->
<g id="edge4_Node000000_Node000004" class="edge">
<title>Node0&#45;&gt;Node4</title>
<g id="a_edge4_Node000000_Node000004"><a xlink:title=" ">
<path fill="none" stroke="#63b8ff" d="M143.23,-333.01C152.92,-331.46 162.79,-329.87 172.31,-328.34"/>
<polygon fill="#63b8ff" stroke="#63b8ff" points="142.79,-329.54 133.47,-334.58 143.9,-336.45 142.79,-329.54"/>
</a>
</g>
</g>
<!-- Node5 -->
<g id="Node000005" class="node">
<title>Node5</title>
<g id="a_Node000005"><a xlink:href="d8/d97/structfloppy_1_1math_1_1detail_1_1advanced__numeric__type.html" target="_top" xlink:title=" ">
<polygon fill="white" stroke="#666666" points="473.25,-335.12 340.25,-335.12 340.25,-304.62 473.25,-304.62 473.25,-335.12"/>
<text text-anchor="start" x="348.25" y="-320.68" font-family="Arial" font-size="11.00">advanced_numeric_type</text>
<text text-anchor="middle" x="406.75" y="-309.43" font-family="Arial" font-size="11.00">&lt; angle&lt; f32 &gt;, f32 &gt;</text>
</a>
</g>
</g>
<!-- Node4&#45;&gt;Node5 -->
<g id="edge5_Node000004_Node000005" class="edge">
<title>Node4&#45;&gt;Node5</title>
<g id="a_edge5_Node000004_Node000005"><a xlink:title=" ">
<path fill="none" stroke="#63b8ff" d="M316.22,-318.8C324.13,-318.89 332.12,-318.99 339.89,-319.08"/>
<polygon fill="#63b8ff" stroke="#63b8ff" points="316.28,-315.3 306.24,-318.68 316.2,-322.3 316.28,-315.3"/>
</a>
</g>
</g>
<!-- Node6 -->
<g id="Node000006" class="node">
<title>Node6</title>
<g id="a_Node000006"><a xlink:href="d8/d97/structfloppy_1_1math_1_1detail_1_1advanced__numeric__type.html" target="_top" xlink:title=" ">
<polygon fill="white" stroke="#666666" points="473.25,-286.12 340.25,-286.12 340.25,-255.62 473.25,-255.62 473.25,-286.12"/>
<text text-anchor="start" x="348.25" y="-271.68" font-family="Arial" font-size="11.00">advanced_numeric_type</text>
<text text-anchor="middle" x="406.75" y="-260.43" font-family="Arial" font-size="11.00">&lt; T, U &gt;</text>
</a>
</g>
</g>
<!-- Node4&#45;&gt;Node6 -->
<g id="edge6_Node000004_Node000006" class="edge">
<title>Node4&#45;&gt;Node6</title>
<g id="a_edge6_Node000004_Node000006"><a xlink:title=" ">
<path fill="none" stroke="#63b8ff" d="M305.88,-299.11C320.53,-294.97 335.9,-290.62 350.07,-286.62"/>
<polygon fill="#63b8ff" stroke="#63b8ff" points="304.99,-295.72 296.32,-301.81 306.89,-302.46 304.99,-295.72"/>
</a>
</g>
</g>
<!-- Node9 -->
<g id="Node000009" class="node">
<title>Node9</title>
<g id="a_Node000009"><a xlink:href="dd/dd1/classfloppy_1_1math_1_1length.html" target="_top" xlink:title="A one&#45;dimensional distance with associated unit of measurement.">
<polygon fill="white" stroke="#666666" points="449.25,-237.5 364.25,-237.5 364.25,-218.25 449.25,-218.25 449.25,-237.5"/>
<text text-anchor="middle" x="406.75" y="-223.05" font-family="Arial" font-size="11.00">length&lt; U, T &gt;</text>
</a>
</g>
</g>
<!-- Node4&#45;&gt;Node9 -->
<g id="edge8_Node000004_Node000009" class="edge">
<title>Node4&#45;&gt;Node9</title>
<g id="a_edge8_Node000004_Node000009"><a xlink:title=" ">
<path fill="none" stroke="#63b8ff" d="M298.7,-296.65C300.61,-295.45 302.47,-294.19 304.25,-292.88 325.11,-277.42 318.74,-261.42 340.25,-246.88 347.31,-242.1 355.58,-238.51 363.82,-235.81"/>
<polygon fill="#63b8ff" stroke="#63b8ff" points="297.11,-293.53 290.06,-301.43 300.5,-299.65 297.11,-293.53"/>
</a>
</g>
</g>
<!-- Node11 -->
<g id="Node000011" class="node">
<title>Node11</title>
<g id="a_Node000011"><a xlink:href="db/db2/structfloppy_1_1math_1_1scale.html" target="_top" xlink:title="A scaling factor between two different units of measurement.">
<polygon fill="white" stroke="#666666" points="454.12,-200.5 359.38,-200.5 359.38,-181.25 454.12,-181.25 454.12,-200.5"/>
<text text-anchor="middle" x="406.75" y="-186.05" font-family="Arial" font-size="11.00">scale&lt; S, D, T &gt;</text>
</a>
</g>
</g>
<!-- Node4&#45;&gt;Node11 -->
<g id="edge9_Node000004_Node000011" class="edge">
<title>Node4&#45;&gt;Node11</title>
<g id="a_edge9_Node000004_Node000011"><a xlink:title=" ">
<path fill="none" stroke="#63b8ff" d="M300.97,-295.79C302.11,-294.86 303.2,-293.89 304.25,-292.88 333.49,-264.68 309.63,-235.57 340.25,-208.88 345.67,-204.15 352.23,-200.65 359.07,-198.07"/>
<polygon fill="#63b8ff" stroke="#63b8ff" points="299.13,-292.81 292.88,-301.36 303.1,-298.57 299.13,-292.81"/>
</a>
</g>
</g>
<!-- Node7 -->
<g id="Node000007" class="node">
<title>Node7</title>
<g id="a_Node000007"><a xlink:href="de/d4d/structfloppy_1_1math_1_1angle.html" target="_top" xlink:title="Newtype describing an angle.">
<polygon fill="white" stroke="#666666" points="577.75,-221.5 509.25,-221.5 509.25,-202.25 577.75,-202.25 577.75,-221.5"/>
<text text-anchor="middle" x="543.5" y="-207.05" font-family="Arial" font-size="11.00">angle&lt; T &gt;</text>
</a>
</g>
</g>
<!-- Node6&#45;&gt;Node7 -->
<g id="edge7_Node000006_Node000007" class="edge">
<title>Node6&#45;&gt;Node7</title>
<g id="a_edge7_Node000006_Node000007"><a xlink:title=" ">
<path fill="none" stroke="#63b8ff" d="M463.47,-250.97C466.79,-249.62 470.08,-248.25 473.25,-246.88 490.8,-239.26 510.18,-229.32 523.97,-221.98"/>
<polygon fill="#63b8ff" stroke="#63b8ff" points="462.21,-247.7 454.18,-254.61 464.77,-254.22 462.21,-247.7"/>
</a>
</g>
</g>
<!-- Node12 -->
<g id="Node000012" class="node">
<title>Node12</title>
<g id="a_Node000012"><a xlink:href="d5/d4f/structfloppy_1_1traits_1_1detail_1_1formattable__base.html" target="_top" xlink:title="Interface, providing to_string method.">
<polygon fill="white" stroke="#666666" points="131.88,-127.5 4.87,-127.5 4.87,-108.25 131.88,-108.25 131.88,-127.5"/>
<text text-anchor="middle" x="68.38" y="-113.05" font-family="Arial" font-size="11.00">formattable_base&lt; C &gt;</text>
</a>
</g>
</g>
<!-- Node13 -->
<g id="Node000013" class="node">
<title>Node13</title>
<g id="a_Node000013"><a xlink:href="db/d59/structfloppy_1_1traits_1_1formattable.html" target="_top" xlink:title=" ">
<polygon fill="white" stroke="#666666" points="291.5,-90.12 185.5,-90.12 185.5,-59.62 291.5,-59.62 291.5,-90.12"/>
<text text-anchor="start" x="193.5" y="-75.67" font-family="Arial" font-size="11.00">formattable&lt; angle</text>
<text text-anchor="middle" x="238.5" y="-64.42" font-family="Arial" font-size="11.00">&lt; f32 &gt;, char &gt;</text>
</a>
</g>
</g>
<!-- Node12&#45;&gt;Node13 -->
<g id="edge10_Node000012_Node000013" class="edge">
<title>Node12&#45;&gt;Node13</title>
<g id="a_edge10_Node000012_Node000013"><a xlink:title=" ">
<path fill="none" stroke="#63b8ff" d="M119.9,-104.95C140.55,-99.67 164.44,-93.56 185.27,-88.23"/>
<polygon fill="#63b8ff" stroke="#63b8ff" points="119.08,-101.55 110.26,-107.42 120.81,-108.33 119.08,-101.55"/>
</a>
</g>
</g>
<!-- Node14 -->
<g id="Node000014" class="node">
<title>Node14</title>
<g id="a_Node000014"><a xlink:href="db/d59/structfloppy_1_1traits_1_1formattable.html" target="_top" xlink:title=" ">
<polygon fill="white" stroke="#666666" points="293,-41.75 184,-41.75 184,0 293,0 293,-41.75"/>
<text text-anchor="start" x="192" y="-27.3" font-family="Arial" font-size="11.00">formattable&lt; length</text>
<text text-anchor="start" x="192" y="-16.05" font-family="Arial" font-size="11.00">&lt; default_unit, f32</text>
<text text-anchor="middle" x="238.5" y="-4.8" font-family="Arial" font-size="11.00"> &gt;, char &gt;</text>
</a>
</g>
</g>
<!-- Node12&#45;&gt;Node14 -->
<g id="edge11_Node000012_Node000014" class="edge">
<title>Node12&#45;&gt;Node14</title>
<g id="a_edge11_Node000012_Node000014"><a xlink:title=" ">
<path fill="none" stroke="#63b8ff" d="M92.56,-101.5C113.14,-87.29 144.27,-66.6 172.75,-50.88 178.06,-47.94 183.72,-45.03 189.38,-42.24"/>
<polygon fill="#63b8ff" stroke="#63b8ff" points="90.81,-98.45 84.61,-107.03 94.81,-104.19 90.81,-98.45"/>
</a>
</g>
</g>
<!-- Node15 -->
<g id="Node000015" class="node">
<title>Node15</title>
<g id="a_Node000015"><a xlink:href="db/d59/structfloppy_1_1traits_1_1formattable.html" target="_top" xlink:title=" ">
<polygon fill="white" stroke="#666666" points="296,-235.75 181,-235.75 181,-194 296,-194 296,-235.75"/>
<text text-anchor="start" x="189" y="-221.3" font-family="Arial" font-size="11.00">formattable&lt; point2d</text>
<text text-anchor="start" x="189" y="-210.05" font-family="Arial" font-size="11.00">&lt; default_unit, f32 &gt;</text>
<text text-anchor="middle" x="238.5" y="-198.8" font-family="Arial" font-size="11.00">, char &gt;</text>
</a>
</g>
</g>
<!-- Node12&#45;&gt;Node15 -->
<g id="edge12_Node000012_Node000015" class="edge">
<title>Node12&#45;&gt;Node15</title>
<g id="a_edge12_Node000012_Node000015"><a xlink:title=" ">
<path fill="none" stroke="#63b8ff" d="M92.56,-134.25C113.14,-148.46 144.27,-169.15 172.75,-184.88 178.06,-187.81 183.72,-190.72 189.38,-193.51"/>
<polygon fill="#63b8ff" stroke="#63b8ff" points="94.81,-131.56 84.61,-128.72 90.81,-137.3 94.81,-131.56"/>
</a>
</g>
</g>
<!-- Node16 -->
<g id="Node000016" class="node">
<title>Node16</title>
<g id="a_Node000016"><a xlink:href="db/d59/structfloppy_1_1traits_1_1formattable.html" target="_top" xlink:title=" ">
<polygon fill="white" stroke="#666666" points="296,-176.12 181,-176.12 181,-145.62 296,-145.62 296,-176.12"/>
<text text-anchor="start" x="189" y="-161.68" font-family="Arial" font-size="11.00">formattable&lt; scale</text>
<text text-anchor="middle" x="238.5" y="-150.43" font-family="Arial" font-size="11.00">&lt; S, D, f32 &gt;, char &gt;</text>
</a>
</g>
</g>
<!-- Node12&#45;&gt;Node16 -->
<g id="edge13_Node000012_Node000016" class="edge">
<title>Node12&#45;&gt;Node16</title>
<g id="a_edge13_Node000012_Node000016"><a xlink:title=" ">
<path fill="none" stroke="#63b8ff" d="M119.75,-130.76C138.99,-135.68 161.04,-141.32 180.82,-146.38"/>
<polygon fill="#63b8ff" stroke="#63b8ff" points="120.81,-127.42 110.26,-128.33 119.08,-134.2 120.81,-127.42"/>
</a>
</g>
</g>
<!-- Node8 -->
<g id="Node000008" class="node">
<title>Node8</title>
<g id="a_Node000008"><a xlink:href="db/d59/structfloppy_1_1traits_1_1formattable.html" target="_top" xlink:title="Allows type to be converted to string and printed via standard streams or fmt.">
<polygon fill="white" stroke="#666666" points="293.38,-127.5 183.62,-127.5 183.62,-108.25 293.38,-108.25 293.38,-127.5"/>
<text text-anchor="middle" x="238.5" y="-113.05" font-family="Arial" font-size="11.00">formattable&lt; T, C &gt;</text>
</a>
</g>
</g>
<!-- Node12&#45;&gt;Node8 -->
<g id="edge14_Node000012_Node000008" class="edge">
<title>Node12&#45;&gt;Node8</title>
<g id="a_edge14_Node000012_Node000008"><a xlink:title=" ">
<path fill="none" stroke="#63b8ff" d="M143.15,-117.88C156.59,-117.88 170.38,-117.88 183.13,-117.88"/>
<polygon fill="#63b8ff" stroke="#63b8ff" points="143.49,-114.38 133.49,-117.88 143.49,-121.38 143.49,-114.38"/>
</a>
</g>
</g>
<!-- Node8&#45;&gt;Node7 -->
<g id="edge15_Node000008_Node000007" class="edge">
<title>Node8&#45;&gt;Node7</title>
<g id="a_edge15_Node000008_Node000007"><a xlink:title=" ">
<path fill="none" stroke="#63b8ff" d="M304.9,-127.63C352.65,-136.02 418.36,-150.24 473.25,-171.88 493.27,-179.77 514.43,-192.76 528.02,-201.79"/>
<polygon fill="#63b8ff" stroke="#63b8ff" points="305.72,-124.21 295.27,-125.97 304.53,-131.11 305.72,-124.21"/>
</a>
</g>
</g>
<!-- Node8&#45;&gt;Node9 -->
<g id="edge16_Node000008_Node000009" class="edge">
<title>Node8&#45;&gt;Node9</title>
<g id="a_edge16_Node000008_Node000009"><a xlink:title=" ">
<path fill="none" stroke="#63b8ff" d="M299.59,-133.38C301.21,-134.47 302.77,-135.63 304.25,-136.88 331.94,-160.15 312.36,-186.84 340.25,-209.88 347.07,-215.51 355.51,-219.39 364.05,-222.05"/>
<polygon fill="#63b8ff" stroke="#63b8ff" points="301.52,-130.45 291.08,-128.69 298.14,-136.58 301.52,-130.45"/>
</a>
</g>
</g>
<!-- Node8&#45;&gt;Node11 -->
<g id="edge18_Node000008_Node000011" class="edge">
<title>Node8&#45;&gt;Node11</title>
<g id="a_edge18_Node000008_Node000011"><a xlink:title=" ">
<path fill="none" stroke="#63b8ff" d="M293.53,-131.87C297.23,-133.39 300.84,-135.06 304.25,-136.88 322.63,-146.68 322.21,-156.47 340.25,-166.88 349.9,-172.44 361.08,-177.1 371.43,-180.8"/>
<polygon fill="#63b8ff" stroke="#63b8ff" points="294.98,-128.67 284.39,-128.48 292.55,-135.23 294.98,-128.67"/>
</a>
</g>
</g>
<!-- Node10 -->
<g id="Node000010" class="node">
<title>Node10</title>
<g id="a_Node000010"><a xlink:href="db/d35/classfloppy_1_1math_1_1point2d.html" target="_top" xlink:title="A two&#45;dimensional point tagged with a unit.">
<polygon fill="white" stroke="#666666" points="452.25,-124.5 361.25,-124.5 361.25,-105.25 452.25,-105.25 452.25,-124.5"/>
<text text-anchor="middle" x="406.75" y="-110.05" font-family="Arial" font-size="11.00">point2d&lt; U, T &gt;</text>
</a>
</g>
</g>
<!-- Node8&#45;&gt;Node10 -->
<g id="edge17_Node000008_Node000010" class="edge">
<title>Node8&#45;&gt;Node10</title>
<g id="a_edge17_Node000008_Node000010"><a xlink:title=" ">
<path fill="none" stroke="#63b8ff" d="M304.96,-116.69C323.71,-116.36 343.73,-115.99 360.94,-115.68"/>
<polygon fill="#63b8ff" stroke="#63b8ff" points="304.93,-113.19 294.99,-116.87 305.05,-120.19 304.93,-113.19"/>
</a>
</g>
</g>
</g>
</svg>
