<?xml version="1.0" encoding="UTF-8" standalone="no"?>
<!DOCTYPE svg PUBLIC "-//W3C//DTD SVG 1.1//EN"
 "http://www.w3.org/Graphics/SVG/1.1/DTD/svg11.dtd">
<!-- Generated by graphviz version 10.0.1 (0)
 -->
<!-- Title: Graphical Class Hierarchy Pages: 1 -->
<svg width="278pt" height="64pt"
 viewBox="0.00 0.00 278.00 64.25" xmlns="http://www.w3.org/2000/svg" xmlns:xlink="http://www.w3.org/1999/xlink">
<g id="graph0" class="graph" transform="scale(1 1) rotate(0) translate(4 60.25)">
<title>Graphical Class Hierarchy</title>
<!-- Node0 -->
<g id="Node000000" class="node">
<title>Node0</title>
<g id="a_Node000000"><a xlink:href="structfloppy_1_1non__copyable.html" target="_top" xlink:title="Disallow copy operations for a type.">
<polygon fill="white" stroke="#666666" points="82.75,-56.25 0,-56.25 0,-37 82.75,-37 82.75,-56.25"/>
<text text-anchor="middle" x="41.38" y="-41.8" font-family="Helvetica,sans-Serif" font-size="11.00">non_copyable</text>
</a>
</g>
</g>
<!-- Node1 -->
<g id="Node000001" class="node">
<title>Node1</title>
<g id="a_Node000001"><a xlink:href="structfloppy_1_1pin.html" target="_top" xlink:title="Disallow copy and move operations for a type.">
<polygon fill="white" stroke="#666666" points="149,-37.25 118.75,-37.25 118.75,-18 149,-18 149,-37.25"/>
<text text-anchor="middle" x="133.88" y="-22.8" font-family="Helvetica,sans-Serif" font-size="11.00">pin</text>
</a>
</g>
</g>
<!-- Node0&#45;&gt;Node1 -->
<g id="edge57_Node000000_Node000001" class="edge">
<title>Node0&#45;&gt;Node1</title>
<g id="a_edge57_Node000000_Node000001"><a xlink:title=" ">
<path fill="none" stroke="#63b8ff" d="M94.34,-35.71C103.14,-33.87 111.58,-32.1 118.31,-30.68"/>
<polygon fill="#63b8ff" stroke="#63b8ff" points="93.67,-32.28 84.61,-37.76 95.11,-39.13 93.67,-32.28"/>
</a>
</g>
</g>
<!-- Node2 -->
<g id="Node000002" class="node">
<title>Node2</title>
<g id="a_Node000002"><a xlink:href="structfloppy_1_1singleton.html" target="_top" xlink:title="Singleton pattern trait.">
<polygon fill="white" stroke="#666666" points="270,-37.25 185,-37.25 185,-18 270,-18 270,-37.25"/>
<text text-anchor="middle" x="227.5" y="-22.8" font-family="Helvetica,sans-Serif" font-size="11.00">singleton&lt; T &gt;</text>
</a>
</g>
</g>
<!-- Node1&#45;&gt;Node2 -->
<g id="edge58_Node000001_Node000002" class="edge">
<title>Node1&#45;&gt;Node2</title>
<g id="a_edge58_Node000001_Node000002"><a xlink:title=" ">
<path fill="none" stroke="#63b8ff" d="M160.69,-27.62C168.13,-27.62 176.43,-27.62 184.58,-27.62"/>
<polygon fill="#63b8ff" stroke="#63b8ff" points="160.7,-24.13 150.7,-27.63 160.7,-31.13 160.7,-24.13"/>
</a>
</g>
</g>
<!-- Node3 -->
<g id="Node000003" class="node">
<title>Node3</title>
<g id="a_Node000003"><a xlink:href="structfloppy_1_1non__movable.html" target="_top" xlink:title="Disallow move operations for a type.">
<polygon fill="white" stroke="#666666" points="81.62,-19.25 1.12,-19.25 1.12,0 81.62,0 81.62,-19.25"/>
<text text-anchor="middle" x="41.38" y="-4.8" font-family="Helvetica,sans-Serif" font-size="11.00">non_movable</text>
</a>
</g>
</g>
<!-- Node3&#45;&gt;Node1 -->
<g id="edge59_Node000003_Node000001" class="edge">
<title>Node3&#45;&gt;Node1</title>
<g id="a_edge59_Node000003_Node000001"><a xlink:title=" ">
<path fill="none" stroke="#63b8ff" d="M93.32,-19.76C102.5,-21.58 111.37,-23.35 118.37,-24.74"/>
<polygon fill="#63b8ff" stroke="#63b8ff" points="94.04,-16.33 83.55,-17.82 92.68,-23.2 94.04,-16.33"/>
</a>
</g>
</g>
</g>
</svg>
