<?xml version="1.0" encoding="UTF-8" standalone="no"?>
<!DOCTYPE svg PUBLIC "-//W3C//DTD SVG 1.1//EN"
 "http://www.w3.org/Graphics/SVG/1.1/DTD/svg11.dtd">
<!-- Generated by graphviz version 10.0.1 (0)
 -->
<!-- Title: Graphical Class Hierarchy Pages: 1 -->
<svg width="644pt" height="623pt"
 viewBox="0.00 0.00 643.50 622.88" xmlns="http://www.w3.org/2000/svg" xmlns:xlink="http://www.w3.org/1999/xlink">
<g id="graph0" class="graph" transform="scale(1 1) rotate(0) translate(4 618.88)">
<title>Graphical Class Hierarchy</title>
<!-- Node0 -->
<g id="Node000000" class="node">
<title>Node0</title>
<g id="a_Node000000"><a xlink:href="d0/d3b/structfloppy_1_1math_1_1detail_1_1default__comparable.html" target="_top" xlink:title=" ">
<polygon fill="white" stroke="#666666" points="136.75,-525.25 0,-525.25 0,-506 136.75,-506 136.75,-525.25"/>
<text text-anchor="middle" x="68.38" y="-510.8" font-family="Arial" font-size="11.00">default_comparable&lt; T &gt;</text>
</a>
</g>
</g>
<!-- Node1 -->
<g id="Node000001" class="node">
<title>Node1</title>
<g id="a_Node000001"><a xlink:href="d8/d03/structfloppy_1_1math_1_1detail_1_1basic__numeric__newtype.html" target="_top" xlink:title=" ">
<polygon fill="white" stroke="#666666" points="304.25,-614.88 172.75,-614.88 172.75,-584.38 304.25,-584.38 304.25,-614.88"/>
<text text-anchor="start" x="180.75" y="-600.42" font-family="Arial" font-size="11.00">basic_numeric_newtype</text>
<text text-anchor="middle" x="238.5" y="-589.17" font-family="Arial" font-size="11.00">&lt; angle&lt; f32 &gt;, U &gt;</text>
</a>
</g>
</g>
<!-- Node0&#45;&gt;Node1 -->
<g id="edge1_Node000000_Node000001" class="edge">
<title>Node0&#45;&gt;Node1</title>
<g id="a_edge1_Node000000_Node000001"><a xlink:title=" ">
<path fill="none" stroke="#63b8ff" d="M94.22,-531.66C114.76,-544.53 144.97,-562.53 172.75,-575.62 178.93,-578.54 185.57,-581.34 192.16,-583.95"/>
<polygon fill="#63b8ff" stroke="#63b8ff" points="96.29,-528.83 85.97,-526.44 92.54,-534.75 96.29,-528.83"/>
</a>
</g>
</g>
<!-- Node2 -->
<g id="Node000002" class="node">
<title>Node2</title>
<g id="a_Node000002"><a xlink:href="d8/d03/structfloppy_1_1math_1_1detail_1_1basic__numeric__newtype.html" target="_top" xlink:title=" ">
<polygon fill="white" stroke="#666666" points="304.25,-566.5 172.75,-566.5 172.75,-524.75 304.25,-524.75 304.25,-566.5"/>
<text text-anchor="start" x="180.75" y="-552.05" font-family="Arial" font-size="11.00">basic_numeric_newtype</text>
<text text-anchor="start" x="180.75" y="-540.8" font-family="Arial" font-size="11.00">&lt; length&lt; default_unit,</text>
<text text-anchor="middle" x="238.5" y="-529.55" font-family="Arial" font-size="11.00"> f32 &gt;, f32 &gt;</text>
</a>
</g>
</g>
<!-- Node0&#45;&gt;Node2 -->
<g id="edge2_Node000000_Node000002" class="edge">
<title>Node0&#45;&gt;Node2</title>
<g id="a_edge2_Node000000_Node000002"><a xlink:title=" ">
<path fill="none" stroke="#63b8ff" d="M136.91,-527.68C148.64,-529.77 160.82,-531.94 172.49,-534.02"/>
<polygon fill="#63b8ff" stroke="#63b8ff" points="137.78,-524.28 127.32,-525.96 136.55,-531.17 137.78,-524.28"/>
</a>
</g>
</g>
<!-- Node3 -->
<g id="Node000003" class="node">
<title>Node3</title>
<g id="a_Node000003"><a xlink:href="d8/d03/structfloppy_1_1math_1_1detail_1_1basic__numeric__newtype.html" target="_top" xlink:title=" ">
<polygon fill="white" stroke="#666666" points="304.25,-506.5 172.75,-506.5 172.75,-464.75 304.25,-464.75 304.25,-506.5"/>
<text text-anchor="start" x="180.75" y="-492.05" font-family="Arial" font-size="11.00">basic_numeric_newtype</text>
<text text-anchor="start" x="180.75" y="-480.8" font-family="Arial" font-size="11.00">&lt; scale&lt; S, D, f32 &gt;,</text>
<text text-anchor="middle" x="238.5" y="-469.55" font-family="Arial" font-size="11.00"> f32 &gt;</text>
</a>
</g>
</g>
<!-- Node0&#45;&gt;Node3 -->
<g id="edge3_Node000000_Node000003" class="edge">
<title>Node0&#45;&gt;Node3</title>
<g id="a_edge3_Node000000_Node000003"><a xlink:title=" ">
<path fill="none" stroke="#63b8ff" d="M136.91,-503.57C148.64,-501.48 160.82,-499.31 172.49,-497.23"/>
<polygon fill="#63b8ff" stroke="#63b8ff" points="136.55,-500.08 127.32,-505.29 137.78,-506.97 136.55,-500.08"/>
</a>
</g>
</g>
<!-- Node4 -->
<g id="Node000004" class="node">
<title>Node4</title>
<g id="a_Node000004"><a xlink:href="d8/d03/structfloppy_1_1math_1_1detail_1_1basic__numeric__newtype.html" target="_top" xlink:title=" ">
<polygon fill="white" stroke="#666666" points="304.25,-446.88 172.75,-446.88 172.75,-416.38 304.25,-416.38 304.25,-446.88"/>
<text text-anchor="start" x="180.75" y="-432.43" font-family="Arial" font-size="11.00">basic_numeric_newtype</text>
<text text-anchor="middle" x="238.5" y="-421.18" font-family="Arial" font-size="11.00">&lt; T, U &gt;</text>
</a>
</g>
</g>
<!-- Node0&#45;&gt;Node4 -->
<g id="edge4_Node000000_Node000004" class="edge">
<title>Node0&#45;&gt;Node4</title>
<g id="a_edge4_Node000000_Node000004"><a xlink:title=" ">
<path fill="none" stroke="#63b8ff" d="M94.22,-499.59C114.76,-486.72 144.97,-468.72 172.75,-455.62 178.93,-452.71 185.57,-449.91 192.16,-447.3"/>
<polygon fill="#63b8ff" stroke="#63b8ff" points="92.54,-496.5 85.97,-504.81 96.29,-502.42 92.54,-496.5"/>
</a>
</g>
</g>
<!-- Node5 -->
<g id="Node000005" class="node">
<title>Node5</title>
<g id="a_Node000005"><a xlink:href="d8/d97/structfloppy_1_1math_1_1detail_1_1advanced__numeric__type.html" target="_top" xlink:title=" ">
<polygon fill="white" stroke="#666666" points="487.88,-451.88 354.88,-451.88 354.88,-421.38 487.88,-421.38 487.88,-451.88"/>
<text text-anchor="start" x="362.88" y="-437.43" font-family="Arial" font-size="11.00">advanced_numeric_type</text>
<text text-anchor="middle" x="421.38" y="-426.18" font-family="Arial" font-size="11.00">&lt; angle&lt; f32 &gt;, f32 &gt;</text>
</a>
</g>
</g>
<!-- Node4&#45;&gt;Node5 -->
<g id="edge5_Node000004_Node000005" class="edge">
<title>Node4&#45;&gt;Node5</title>
<g id="a_edge5_Node000004_Node000005"><a xlink:title=" ">
<path fill="none" stroke="#63b8ff" d="M315.71,-433.73C328.57,-434.09 341.82,-434.45 354.39,-434.8"/>
<polygon fill="#63b8ff" stroke="#63b8ff" points="316.15,-430.24 306.06,-433.46 315.96,-437.24 316.15,-430.24"/>
</a>
</g>
</g>
<!-- Node6 -->
<g id="Node000006" class="node">
<title>Node6</title>
<g id="a_Node000006"><a xlink:href="d8/d97/structfloppy_1_1math_1_1detail_1_1advanced__numeric__type.html" target="_top" xlink:title=" ">
<polygon fill="white" stroke="#666666" points="487.88,-402.88 354.88,-402.88 354.88,-372.38 487.88,-372.38 487.88,-402.88"/>
<text text-anchor="start" x="362.88" y="-388.43" font-family="Arial" font-size="11.00">advanced_numeric_type</text>
<text text-anchor="middle" x="421.38" y="-377.18" font-family="Arial" font-size="11.00">&lt; T, U &gt;</text>
</a>
</g>
</g>
<!-- Node4&#45;&gt;Node6 -->
<g id="edge6_Node000004_Node000006" class="edge">
<title>Node4&#45;&gt;Node6</title>
<g id="a_edge6_Node000004_Node000006"><a xlink:title=" ">
<path fill="none" stroke="#63b8ff" d="M314.84,-413.3C328.47,-409.98 342.58,-406.55 355.87,-403.32"/>
<polygon fill="#63b8ff" stroke="#63b8ff" points="314.39,-409.8 305.5,-415.57 316.05,-416.61 314.39,-409.8"/>
</a>
</g>
</g>
<!-- Node12 -->
<g id="Node000012" class="node">
<title>Node12</title>
<g id="a_Node000012"><a xlink:href="dd/dd1/classfloppy_1_1math_1_1length.html" target="_top" xlink:title="A one&#45;dimensional distance with associated unit of measurement.">
<polygon fill="white" stroke="#666666" points="463.88,-317.25 378.88,-317.25 378.88,-298 463.88,-298 463.88,-317.25"/>
<text text-anchor="middle" x="421.38" y="-302.8" font-family="Arial" font-size="11.00">length&lt; U, T &gt;</text>
</a>
</g>
</g>
<!-- Node4&#45;&gt;Node12 -->
<g id="edge8_Node000004_Node000012" class="edge">
<title>Node4&#45;&gt;Node12</title>
<g id="a_edge8_Node000004_Node000012"><a xlink:title=" ">
<path fill="none" stroke="#63b8ff" d="M301.95,-409.67C302.74,-409.01 303.51,-408.33 304.25,-407.62 333.21,-380.32 309.53,-350.93 340.25,-325.62 350.92,-316.83 365.01,-312.12 378.4,-309.65"/>
<polygon fill="#63b8ff" stroke="#63b8ff" points="300.28,-406.57 294.11,-415.17 304.3,-412.3 300.28,-406.57"/>
</a>
</g>
</g>
<!-- Node13 -->
<g id="Node000013" class="node">
<title>Node13</title>
<g id="a_Node000013"><a xlink:href="db/db2/structfloppy_1_1math_1_1scale.html" target="_top" xlink:title="A scaling factor between two different units of measurement.">
<polygon fill="white" stroke="#666666" points="468.75,-354.25 374,-354.25 374,-335 468.75,-335 468.75,-354.25"/>
<text text-anchor="middle" x="421.38" y="-339.8" font-family="Arial" font-size="11.00">scale&lt; S, D, T &gt;</text>
</a>
</g>
</g>
<!-- Node4&#45;&gt;Node13 -->
<g id="edge9_Node000004_Node000013" class="edge">
<title>Node4&#45;&gt;Node13</title>
<g id="a_edge9_Node000004_Node000013"><a xlink:title=" ">
<path fill="none" stroke="#63b8ff" d="M300.01,-410.46C301.46,-409.55 302.88,-408.6 304.25,-407.62 324.81,-392.94 318.83,-377.02 340.25,-363.62 350.31,-357.33 362.27,-353.12 373.84,-350.31"/>
<polygon fill="#63b8ff" stroke="#63b8ff" points="298.39,-407.35 291.33,-415.25 301.78,-413.48 298.39,-407.35"/>
</a>
</g>
</g>
<!-- Node7 -->
<g id="Node000007" class="node">
<title>Node7</title>
<g id="a_Node000007"><a xlink:href="de/d4d/structfloppy_1_1math_1_1angle.html" target="_top" xlink:title="Newtype describing an angle.">
<polygon fill="white" stroke="#666666" points="621.25,-338.25 552.75,-338.25 552.75,-319 621.25,-319 621.25,-338.25"/>
<text text-anchor="middle" x="587" y="-323.8" font-family="Arial" font-size="11.00">angle&lt; T &gt;</text>
</a>
</g>
</g>
<!-- Node6&#45;&gt;Node7 -->
<g id="edge7_Node000006_Node000007" class="edge">
<title>Node6&#45;&gt;Node7</title>
<g id="a_edge7_Node000006_Node000007"><a xlink:title=" ">
<path fill="none" stroke="#63b8ff" d="M488.1,-368.55C492.99,-366.95 497.84,-365.3 502.5,-363.62 523.66,-356.04 547.24,-346.01 563.92,-338.63"/>
<polygon fill="#63b8ff" stroke="#63b8ff" points="487.26,-365.15 478.81,-371.53 489.4,-371.81 487.26,-365.15"/>
</a>
</g>
</g>
<!-- Node14 -->
<g id="Node000014" class="node">
<title>Node14</title>
<g id="a_Node000014"><a xlink:href="d5/d4f/structfloppy_1_1traits_1_1detail_1_1formattable__base.html" target="_top" xlink:title="Interface, providing to_string method.">
<polygon fill="white" stroke="#666666" points="131.88,-195.25 4.87,-195.25 4.87,-176 131.88,-176 131.88,-195.25"/>
<text text-anchor="middle" x="68.38" y="-180.8" font-family="Arial" font-size="11.00">formattable_base&lt; C &gt;</text>
</a>
</g>
</g>
<!-- Node15 -->
<g id="Node000015" class="node">
<title>Node15</title>
<g id="a_Node000015"><a xlink:href="db/d59/structfloppy_1_1traits_1_1formattable.html" target="_top" xlink:title=" ">
<polygon fill="white" stroke="#666666" points="291.5,-132.88 185.5,-132.88 185.5,-102.38 291.5,-102.38 291.5,-132.88"/>
<text text-anchor="start" x="193.5" y="-118.42" font-family="Arial" font-size="11.00">formattable&lt; angle</text>
<text text-anchor="middle" x="238.5" y="-107.17" font-family="Arial" font-size="11.00">&lt; f32 &gt;, char &gt;</text>
</a>
</g>
</g>
<!-- Node14&#45;&gt;Node15 -->
<g id="edge10_Node000014_Node000015" class="edge">
<title>Node14&#45;&gt;Node15</title>
<g id="a_edge10_Node000014_Node000015"><a xlink:title=" ">
<path fill="none" stroke="#63b8ff" d="M102.76,-170.94C122.93,-162.19 149.2,-150.99 172.75,-141.62 179.66,-138.88 187.02,-136.05 194.2,-133.35"/>
<polygon fill="#63b8ff" stroke="#63b8ff" points="101.4,-167.72 93.63,-174.92 104.19,-174.13 101.4,-167.72"/>
</a>
</g>
</g>
<!-- Node16 -->
<g id="Node000016" class="node">
<title>Node16</title>
<g id="a_Node000016"><a xlink:href="db/d59/structfloppy_1_1traits_1_1formattable.html" target="_top" xlink:title=" ">
<polygon fill="white" stroke="#666666" points="299.75,-84.25 177.25,-84.25 177.25,-65 299.75,-65 299.75,-84.25"/>
<text text-anchor="middle" x="238.5" y="-69.8" font-family="Arial" font-size="11.00">formattable&lt; T, char &gt;</text>
</a>
</g>
</g>
<!-- Node14&#45;&gt;Node16 -->
<g id="edge11_Node000014_Node000016" class="edge">
<title>Node14&#45;&gt;Node16</title>
<g id="a_edge11_Node000014_Node000016"><a xlink:title=" ">
<path fill="none" stroke="#63b8ff" d="M85.32,-167.19C104.22,-146.45 137.58,-113.13 172.75,-93.62 179.2,-90.05 186.4,-87.08 193.59,-84.64"/>
<polygon fill="#63b8ff" stroke="#63b8ff" points="82.75,-164.81 78.71,-174.61 87.98,-169.47 82.75,-164.81"/>
</a>
</g>
</g>
<!-- Node21 -->
<g id="Node000021" class="node">
<title>Node21</title>
<g id="a_Node000021"><a xlink:href="db/d59/structfloppy_1_1traits_1_1formattable.html" target="_top" xlink:title=" ">
<polygon fill="white" stroke="#666666" points="293,-46.5 184,-46.5 184,-4.75 293,-4.75 293,-46.5"/>
<text text-anchor="start" x="192" y="-32.05" font-family="Arial" font-size="11.00">formattable&lt; length</text>
<text text-anchor="start" x="192" y="-20.8" font-family="Arial" font-size="11.00">&lt; default_unit, f32</text>
<text text-anchor="middle" x="238.5" y="-9.55" font-family="Arial" font-size="11.00"> &gt;, char &gt;</text>
</a>
</g>
</g>
<!-- Node14&#45;&gt;Node21 -->
<g id="edge16_Node000014_Node000021" class="edge">
<title>Node14&#45;&gt;Node21</title>
<g id="a_edge16_Node000014_Node000021"><a xlink:title=" ">
<path fill="none" stroke="#63b8ff" d="M80.99,-165.76C98.06,-138 132.33,-87.41 172.75,-55.62 176.74,-52.48 181.12,-49.58 185.65,-46.92"/>
<polygon fill="#63b8ff" stroke="#63b8ff" points="78.05,-163.85 75.9,-174.22 84.05,-167.45 78.05,-163.85"/>
</a>
</g>
</g>
<!-- Node22 -->
<g id="Node000022" class="node">
<title>Node22</title>
<g id="a_Node000022"><a xlink:href="db/d59/structfloppy_1_1traits_1_1formattable.html" target="_top" xlink:title=" ">
<polygon fill="white" stroke="#666666" points="296,-398.5 181,-398.5 181,-356.75 296,-356.75 296,-398.5"/>
<text text-anchor="start" x="189" y="-384.05" font-family="Arial" font-size="11.00">formattable&lt; point2d</text>
<text text-anchor="start" x="189" y="-372.8" font-family="Arial" font-size="11.00">&lt; default_unit, f32 &gt;</text>
<text text-anchor="middle" x="238.5" y="-361.55" font-family="Arial" font-size="11.00">, char &gt;</text>
</a>
</g>
</g>
<!-- Node14&#45;&gt;Node22 -->
<g id="edge17_Node000014_Node000022" class="edge">
<title>Node14&#45;&gt;Node22</title>
<g id="a_edge17_Node000014_Node000022"><a xlink:title=" ">
<path fill="none" stroke="#63b8ff" d="M77.63,-205.66C92.28,-239.08 125.79,-306.57 172.75,-347.62 176.39,-350.81 180.42,-353.71 184.64,-356.36"/>
<polygon fill="#63b8ff" stroke="#63b8ff" points="80.97,-204.58 73.83,-196.75 74.53,-207.32 80.97,-204.58"/>
</a>
</g>
</g>
<!-- Node23 -->
<g id="Node000023" class="node">
<title>Node23</title>
<g id="a_Node000023"><a xlink:href="db/d59/structfloppy_1_1traits_1_1formattable.html" target="_top" xlink:title=" ">
<polygon fill="white" stroke="#666666" points="296,-338.88 181,-338.88 181,-308.38 296,-308.38 296,-338.88"/>
<text text-anchor="start" x="189" y="-324.43" font-family="Arial" font-size="11.00">formattable&lt; scale</text>
<text text-anchor="middle" x="238.5" y="-313.18" font-family="Arial" font-size="11.00">&lt; S, D, f32 &gt;, char &gt;</text>
</a>
</g>
</g>
<!-- Node14&#45;&gt;Node23 -->
<g id="edge18_Node000014_Node000023" class="edge">
<title>Node14&#45;&gt;Node23</title>
<g id="a_edge18_Node000014_Node000023"><a xlink:title=" ">
<path fill="none" stroke="#63b8ff" d="M82.27,-204.82C99.97,-229.83 134.04,-273.45 172.75,-299.62 177.32,-302.71 182.34,-305.47 187.49,-307.91"/>
<polygon fill="#63b8ff" stroke="#63b8ff" points="85.35,-203.11 76.78,-196.88 79.59,-207.09 85.35,-203.11"/>
</a>
</g>
</g>
<!-- Node24 -->
<g id="Node000024" class="node">
<title>Node24</title>
<g id="a_Node000024"><a xlink:href="db/d59/structfloppy_1_1traits_1_1formattable.html" target="_top" xlink:title=" ">
<polygon fill="white" stroke="#666666" points="293.75,-290.5 183.25,-290.5 183.25,-248.75 293.75,-248.75 293.75,-290.5"/>
<text text-anchor="start" x="191.25" y="-276.05" font-family="Arial" font-size="11.00">formattable&lt; size2d</text>
<text text-anchor="start" x="191.25" y="-264.8" font-family="Arial" font-size="11.00">&lt; default_unit, f32</text>
<text text-anchor="middle" x="238.5" y="-253.55" font-family="Arial" font-size="11.00"> &gt;, char &gt;</text>
</a>
</g>
</g>
<!-- Node14&#45;&gt;Node24 -->
<g id="edge19_Node000014_Node000024" class="edge">
<title>Node14&#45;&gt;Node24</title>
<g id="a_edge19_Node000014_Node000024"><a xlink:title=" ">
<path fill="none" stroke="#63b8ff" d="M97.93,-201.01C118.58,-212.02 147.23,-227.06 172.75,-239.62 178.53,-242.47 184.63,-245.4 190.69,-248.26"/>
<polygon fill="#63b8ff" stroke="#63b8ff" points="99.72,-197.99 89.25,-196.36 96.41,-204.17 99.72,-197.99"/>
</a>
</g>
</g>
<!-- Node25 -->
<g id="Node000025" class="node">
<title>Node25</title>
<g id="a_Node000025"><a xlink:href="db/d59/structfloppy_1_1traits_1_1formattable.html" target="_top" xlink:title=" ">
<polygon fill="white" stroke="#666666" points="299,-230.5 178,-230.5 178,-188.75 299,-188.75 299,-230.5"/>
<text text-anchor="start" x="186" y="-216.05" font-family="Arial" font-size="11.00">formattable&lt; vector2d</text>
<text text-anchor="start" x="186" y="-204.8" font-family="Arial" font-size="11.00">&lt; default_unit, f32 &gt;</text>
<text text-anchor="middle" x="238.5" y="-193.55" font-family="Arial" font-size="11.00">, char &gt;</text>
</a>
</g>
</g>
<!-- Node14&#45;&gt;Node25 -->
<g id="edge20_Node000014_Node000025" class="edge">
<title>Node14&#45;&gt;Node25</title>
<g id="a_edge20_Node000014_Node000025"><a xlink:title=" ">
<path fill="none" stroke="#63b8ff" d="M143.33,-196.18C154.8,-197.82 166.53,-199.49 177.63,-201.08"/>
<polygon fill="#63b8ff" stroke="#63b8ff" points="143.87,-192.72 133.48,-194.78 142.88,-199.65 143.87,-192.72"/>
</a>
</g>
</g>
<!-- Node8 -->
<g id="Node000008" class="node">
<title>Node8</title>
<g id="a_Node000008"><a xlink:href="db/d59/structfloppy_1_1traits_1_1formattable.html" target="_top" xlink:title="Allows type to be converted to string and printed via standard streams or fmt.">
<polygon fill="white" stroke="#666666" points="293.38,-170.25 183.62,-170.25 183.62,-151 293.38,-151 293.38,-170.25"/>
<text text-anchor="middle" x="238.5" y="-155.8" font-family="Arial" font-size="11.00">formattable&lt; T, C &gt;</text>
</a>
</g>
</g>
<!-- Node14&#45;&gt;Node8 -->
<g id="edge21_Node000014_Node000008" class="edge">
<title>Node14&#45;&gt;Node8</title>
<g id="a_edge21_Node000014_Node000008"><a xlink:title=" ">
<path fill="none" stroke="#63b8ff" d="M143.15,-174.65C156.59,-172.66 170.38,-170.61 183.13,-168.71"/>
<polygon fill="#63b8ff" stroke="#63b8ff" points="142.85,-171.16 133.48,-176.09 143.88,-178.08 142.85,-171.16"/>
</a>
</g>
</g>
<!-- Node17 -->
<g id="Node000017" class="node">
<title>Node17</title>
<g id="a_Node000017"><a xlink:href="d7/dd8/structfloppy_1_1math_1_1detail_1_1basic__two__dimensional__type.html" target="_top" xlink:title=" ">
<polygon fill="white" stroke="#666666" points="484.5,-61.88 358.25,-61.88 358.25,-31.38 484.5,-31.38 484.5,-61.88"/>
<text text-anchor="start" x="366.25" y="-47.42" font-family="Arial" font-size="11.00">basic_two_dimensional</text>
<text text-anchor="middle" x="421.38" y="-36.17" font-family="Arial" font-size="11.00">_type&lt; T, U, N &gt;</text>
</a>
</g>
</g>
<!-- Node16&#45;&gt;Node17 -->
<g id="edge12_Node000016_Node000017" class="edge">
<title>Node16&#45;&gt;Node17</title>
<g id="a_edge12_Node000016_Node000017"><a xlink:title=" ">
<path fill="none" stroke="#63b8ff" d="M311.3,-63.51C326.73,-61.12 342.91,-58.62 357.95,-56.29"/>
<polygon fill="#63b8ff" stroke="#63b8ff" points="311.07,-60 301.73,-64.99 312.15,-66.92 311.07,-60"/>
</a>
</g>
</g>
<!-- Node18 -->
<g id="Node000018" class="node">
<title>Node18</title>
<g id="a_Node000018"><a xlink:href="db/d35/classfloppy_1_1math_1_1point2d.html" target="_top" xlink:title="A two&#45;dimensional point tagged with a unit.">
<polygon fill="white" stroke="#666666" points="632.5,-93.25 541.5,-93.25 541.5,-74 632.5,-74 632.5,-93.25"/>
<text text-anchor="middle" x="587" y="-78.8" font-family="Arial" font-size="11.00">point2d&lt; U, T &gt;</text>
</a>
</g>
</g>
<!-- Node17&#45;&gt;Node18 -->
<g id="edge13_Node000017_Node000018" class="edge">
<title>Node17&#45;&gt;Node18</title>
<g id="a_edge13_Node000017_Node000018"><a xlink:title=" ">
<path fill="none" stroke="#63b8ff" d="M495.5,-63.16C511.23,-66.72 527.4,-70.37 541.64,-73.59"/>
<polygon fill="#63b8ff" stroke="#63b8ff" points="496.7,-59.84 486.18,-61.05 495.16,-66.67 496.7,-59.84"/>
</a>
</g>
</g>
<!-- Node19 -->
<g id="Node000019" class="node">
<title>Node19</title>
<g id="a_Node000019"><a xlink:href="d0/d22/classfloppy_1_1math_1_1size2d.html" target="_top" xlink:title="A two&#45;dimensional size2d tagged with a unit.">
<polygon fill="white" stroke="#666666" points="630.25,-56.25 543.75,-56.25 543.75,-37 630.25,-37 630.25,-56.25"/>
<text text-anchor="middle" x="587" y="-41.8" font-family="Arial" font-size="11.00">size2d&lt; U, T &gt;</text>
</a>
</g>
</g>
<!-- Node17&#45;&gt;Node19 -->
<g id="edge14_Node000017_Node000019" class="edge">
<title>Node17&#45;&gt;Node19</title>
<g id="a_edge14_Node000017_Node000019"><a xlink:title=" ">
<path fill="none" stroke="#63b8ff" d="M495.91,-46.62C512.26,-46.62 529.04,-46.62 543.63,-46.62"/>
<polygon fill="#63b8ff" stroke="#63b8ff" points="496.21,-43.13 486.21,-46.63 496.21,-50.13 496.21,-43.13"/>
</a>
</g>
</g>
<!-- Node20 -->
<g id="Node000020" class="node">
<title>Node20</title>
<g id="a_Node000020"><a xlink:href="d4/d33/classfloppy_1_1math_1_1vector2d.html" target="_top" xlink:title="A two&#45;dimensional vector tagged with a unit.">
<polygon fill="white" stroke="#666666" points="635.5,-19.25 538.5,-19.25 538.5,0 635.5,0 635.5,-19.25"/>
<text text-anchor="middle" x="587" y="-4.8" font-family="Arial" font-size="11.00">vector2d&lt; U, T &gt;</text>
</a>
</g>
</g>
<!-- Node17&#45;&gt;Node20 -->
<g id="edge15_Node000017_Node000020" class="edge">
<title>Node17&#45;&gt;Node20</title>
<g id="a_edge15_Node000017_Node000020"><a xlink:title=" ">
<path fill="none" stroke="#63b8ff" d="M495.5,-30.09C511.23,-26.53 527.4,-22.88 541.64,-19.66"/>
<polygon fill="#63b8ff" stroke="#63b8ff" points="495.16,-26.58 486.18,-32.2 496.7,-33.41 495.16,-26.58"/>
</a>
</g>
</g>
<!-- Node8&#45;&gt;Node7 -->
<g id="edge25_Node000008_Node000007" class="edge">
<title>Node8&#45;&gt;Node7</title>
<g id="a_edge25_Node000008_Node000007"><a xlink:title=" ">
<path fill="none" stroke="#63b8ff" d="M299.47,-176.09C301.13,-177.19 302.73,-178.36 304.25,-179.62 331.46,-202.24 312.43,-228.77 340.25,-250.62 398.49,-296.37 432.64,-264.04 502.5,-288.62 525.85,-296.84 551.32,-309.65 567.92,-318.55"/>
<polygon fill="#63b8ff" stroke="#63b8ff" points="301.17,-173.03 290.71,-171.33 297.83,-179.18 301.17,-173.03"/>
</a>
</g>
</g>
<!-- Node8&#45;&gt;Node12 -->
<g id="edge26_Node000008_Node000012" class="edge">
<title>Node8&#45;&gt;Node12</title>
<g id="a_edge26_Node000008_Node000012"><a xlink:title=" ">
<path fill="none" stroke="#63b8ff" d="M300.88,-176.72C302.05,-177.63 303.18,-178.6 304.25,-179.62 339.65,-213.38 304.94,-249.78 340.25,-283.62 350.63,-293.57 364.96,-299.42 378.64,-302.84"/>
<polygon fill="#63b8ff" stroke="#63b8ff" points="302.79,-173.79 292.46,-171.46 299.09,-179.72 302.79,-173.79"/>
</a>
</g>
</g>
<!-- Node8&#45;&gt;Node13 -->
<g id="edge27_Node000008_Node000013" class="edge">
<title>Node8&#45;&gt;Node13</title>
<g id="a_edge27_Node000008_Node000013"><a xlink:title=" ">
<path fill="none" stroke="#63b8ff" d="M301.52,-177.02C302.47,-177.85 303.38,-178.71 304.25,-179.62 350.72,-228.25 292.23,-279.52 340.25,-326.62 349.21,-335.41 361.47,-340.28 373.72,-342.9"/>
<polygon fill="#63b8ff" stroke="#63b8ff" points="303.64,-174.23 293.41,-171.49 299.7,-180.01 303.64,-174.23"/>
</a>
</g>
</g>
<!-- Node9 -->
<g id="Node000009" class="node">
<title>Node9</title>
<g id="a_Node000009"><a xlink:href="d7/dd8/structfloppy_1_1math_1_1detail_1_1basic__two__dimensional__type.html" target="_top" xlink:title=" ">
<polygon fill="white" stroke="#666666" points="502.5,-241.5 340.25,-241.5 340.25,-199.75 502.5,-199.75 502.5,-241.5"/>
<text text-anchor="start" x="348.25" y="-227.05" font-family="Arial" font-size="11.00">basic_two_dimensional</text>
<text text-anchor="start" x="348.25" y="-215.8" font-family="Arial" font-size="11.00">_type&lt; point2d&lt; default</text>
<text text-anchor="middle" x="421.38" y="-204.55" font-family="Arial" font-size="11.00">_unit, f32 &gt;, default_unit, f32 &gt;</text>
</a>
</g>
</g>
<!-- Node8&#45;&gt;Node9 -->
<g id="edge22_Node000008_Node000009" class="edge">
<title>Node8&#45;&gt;Node9</title>
<g id="a_edge22_Node000008_Node000009"><a xlink:title=" ">
<path fill="none" stroke="#63b8ff" d="M286.1,-173.97C292.22,-175.82 298.4,-177.73 304.25,-179.62 323.07,-185.7 343.45,-192.74 361.81,-199.25"/>
<polygon fill="#63b8ff" stroke="#63b8ff" points="287.26,-170.67 276.68,-171.17 285.26,-177.37 287.26,-170.67"/>
</a>
</g>
</g>
<!-- Node10 -->
<g id="Node000010" class="node">
<title>Node10</title>
<g id="a_Node000010"><a xlink:href="d7/dd8/structfloppy_1_1math_1_1detail_1_1basic__two__dimensional__type.html" target="_top" xlink:title=" ">
<polygon fill="white" stroke="#666666" points="502.5,-181.5 340.25,-181.5 340.25,-139.75 502.5,-139.75 502.5,-181.5"/>
<text text-anchor="start" x="348.25" y="-167.05" font-family="Arial" font-size="11.00">basic_two_dimensional</text>
<text text-anchor="start" x="348.25" y="-155.8" font-family="Arial" font-size="11.00">_type&lt; size2d&lt; default</text>
<text text-anchor="middle" x="421.38" y="-144.55" font-family="Arial" font-size="11.00">_unit, f32 &gt;, default_unit, f32 &gt;</text>
</a>
</g>
</g>
<!-- Node8&#45;&gt;Node10 -->
<g id="edge23_Node000008_Node000010" class="edge">
<title>Node8&#45;&gt;Node10</title>
<g id="a_edge23_Node000008_Node000010"><a xlink:title=" ">
<path fill="none" stroke="#63b8ff" d="M304.95,-160.62C316.34,-160.62 328.32,-160.62 340.06,-160.62"/>
<polygon fill="#63b8ff" stroke="#63b8ff" points="305.28,-157.13 295.28,-160.63 305.28,-164.13 305.28,-157.13"/>
</a>
</g>
</g>
<!-- Node11 -->
<g id="Node000011" class="node">
<title>Node11</title>
<g id="a_Node000011"><a xlink:href="d7/dd8/structfloppy_1_1math_1_1detail_1_1basic__two__dimensional__type.html" target="_top" xlink:title=" ">
<polygon fill="white" stroke="#666666" points="502.5,-121.5 340.25,-121.5 340.25,-79.75 502.5,-79.75 502.5,-121.5"/>
<text text-anchor="start" x="348.25" y="-107.05" font-family="Arial" font-size="11.00">basic_two_dimensional</text>
<text text-anchor="start" x="348.25" y="-95.8" font-family="Arial" font-size="11.00">_type&lt; vector2d&lt; default</text>
<text text-anchor="middle" x="421.38" y="-84.55" font-family="Arial" font-size="11.00">_unit, f32 &gt;, default_unit, f32 &gt;</text>
</a>
</g>
</g>
<!-- Node8&#45;&gt;Node11 -->
<g id="edge24_Node000008_Node000011" class="edge">
<title>Node8&#45;&gt;Node11</title>
<g id="a_edge24_Node000008_Node000011"><a xlink:title=" ">
<path fill="none" stroke="#63b8ff" d="M286.1,-147.28C292.22,-145.43 298.4,-143.52 304.25,-141.62 323.07,-135.55 343.45,-128.51 361.81,-122"/>
<polygon fill="#63b8ff" stroke="#63b8ff" points="285.26,-143.88 276.68,-150.08 287.26,-150.58 285.26,-143.88"/>
</a>
</g>
</g>
</g>
</svg>
