<?xml version="1.0" encoding="UTF-8" standalone="no"?>
<!DOCTYPE svg PUBLIC "-//W3C//DTD SVG 1.1//EN"
 "http://www.w3.org/Graphics/SVG/1.1/DTD/svg11.dtd">
<!-- Generated by graphviz version 10.0.1 (0)
 -->
<!-- Title: Graphical Class Hierarchy Pages: 1 -->
<svg width="390pt" height="137pt"
 viewBox="0.00 0.00 389.75 136.50" xmlns="http://www.w3.org/2000/svg" xmlns:xlink="http://www.w3.org/1999/xlink">
<g id="graph0" class="graph" transform="scale(1 1) rotate(0) translate(4 132.5)">
<title>Graphical Class Hierarchy</title>
<!-- Node0 -->
<g id="Node000000" class="node">
<title>Node0</title>
<g id="a_Node000000"><a xlink:title=" ">
<polygon fill="#e0e0e0" stroke="#999999" points="59.5,-51.88 0,-51.88 0,-32.62 59.5,-32.62 59.5,-51.88"/>
<text text-anchor="middle" x="29.75" y="-37.42" font-family="Helvetica,sans-Serif" font-size="11.00">formatter</text>
</a>
</g>
</g>
<!-- Node1 -->
<g id="Node000001" class="node">
<title>Node1</title>
<g id="a_Node000001"><a xlink:href="structfloppy_1_1ostream__formatter.html" target="_top" xlink:title=" ">
<polygon fill="white" stroke="#666666" points="217.25,-79.5 106,-79.5 106,-49 217.25,-49 217.25,-79.5"/>
<text text-anchor="start" x="114" y="-65.05" font-family="Helvetica,sans-Serif" font-size="11.00">ostream_formatter&lt;</text>
<text text-anchor="middle" x="161.62" y="-53.8" font-family="Helvetica,sans-Serif" font-size="11.00"> char &gt;</text>
</a>
</g>
</g>
<!-- Node0&#45;&gt;Node1 -->
<g id="edge40_Node000000_Node000001" class="edge">
<title>Node0&#45;&gt;Node1</title>
<g id="a_edge40_Node000000_Node000001"><a xlink:title=" ">
<path fill="none" stroke="#63b8ff" d="M70.9,-49.05C81.92,-50.92 94.05,-52.97 105.73,-54.95"/>
<polygon fill="#63b8ff" stroke="#63b8ff" points="71.83,-45.66 61.39,-47.44 70.66,-52.56 71.83,-45.66"/>
</a>
</g>
</g>
<!-- Node5 -->
<g id="Node000005" class="node">
<title>Node5</title>
<g id="a_Node000005"><a xlink:href="structfloppy_1_1ostream__formatter.html" target="_top" xlink:title="Formatter for types which support stream output.">
<polygon fill="white" stroke="#666666" points="227.75,-30.88 95.5,-30.88 95.5,-11.62 227.75,-11.62 227.75,-30.88"/>
<text text-anchor="middle" x="161.62" y="-16.43" font-family="Helvetica,sans-Serif" font-size="11.00">ostream_formatter&lt; C &gt;</text>
</a>
</g>
</g>
<!-- Node0&#45;&gt;Node5 -->
<g id="edge44_Node000000_Node000005" class="edge">
<title>Node0&#45;&gt;Node5</title>
<g id="a_edge44_Node000000_Node000005"><a xlink:title=" ">
<path fill="none" stroke="#63b8ff" d="M71.11,-35.72C79.69,-34.34 88.93,-32.84 98.12,-31.36"/>
<polygon fill="#63b8ff" stroke="#63b8ff" points="70.7,-32.24 61.39,-37.3 71.82,-39.15 70.7,-32.24"/>
</a>
</g>
</g>
<!-- Node2 -->
<g id="Node000002" class="node">
<title>Node2</title>
<g id="a_Node000002"><a xlink:href="structfmt_1_1formatter_3_01floppy_1_1meta_1_1project__meta_01_4.html" target="_top" xlink:title="Formatter for floppy::meta::project_meta">
<polygon fill="white" stroke="#666666" points="381.75,-128.5 263.75,-128.5 263.75,-98 381.75,-98 381.75,-128.5"/>
<text text-anchor="start" x="271.75" y="-114.05" font-family="Helvetica,sans-Serif" font-size="11.00">formatter&lt; floppy::</text>
<text text-anchor="middle" x="322.75" y="-102.8" font-family="Helvetica,sans-Serif" font-size="11.00">meta::project_meta &gt;</text>
</a>
</g>
</g>
<!-- Node1&#45;&gt;Node2 -->
<g id="edge41_Node000001_Node000002" class="edge">
<title>Node1&#45;&gt;Node2</title>
<g id="a_edge41_Node000001_Node000002"><a xlink:title=" ">
<path fill="none" stroke="#63b8ff" d="M224.36,-83.26C239.66,-87.97 255.89,-92.97 270.63,-97.51"/>
<polygon fill="#63b8ff" stroke="#63b8ff" points="225.44,-79.93 214.86,-80.33 223.38,-86.62 225.44,-79.93"/>
</a>
</g>
</g>
<!-- Node3 -->
<g id="Node000003" class="node">
<title>Node3</title>
<g id="a_Node000003"><a xlink:href="structfmt_1_1formatter_3_01floppy_1_1meta_1_1version_01_4.html" target="_top" xlink:title="Formatter for floppy::meta::version">
<polygon fill="white" stroke="#666666" points="374.62,-79.5 270.88,-79.5 270.88,-49 374.62,-49 374.62,-79.5"/>
<text text-anchor="start" x="278.88" y="-65.05" font-family="Helvetica,sans-Serif" font-size="11.00">formatter&lt; floppy::</text>
<text text-anchor="middle" x="322.75" y="-53.8" font-family="Helvetica,sans-Serif" font-size="11.00">meta::version &gt;</text>
</a>
</g>
</g>
<!-- Node1&#45;&gt;Node3 -->
<g id="edge42_Node000001_Node000003" class="edge">
<title>Node1&#45;&gt;Node3</title>
<g id="a_edge42_Node000001_Node000003"><a xlink:title=" ">
<path fill="none" stroke="#63b8ff" d="M228.51,-64.25C242.57,-64.25 257.22,-64.25 270.64,-64.25"/>
<polygon fill="#63b8ff" stroke="#63b8ff" points="228.9,-60.75 218.9,-64.25 228.9,-67.75 228.9,-60.75"/>
</a>
</g>
</g>
<!-- Node4 -->
<g id="Node000004" class="node">
<title>Node4</title>
<g id="a_Node000004"><a xlink:href="structfmt_1_1formatter_3_01floppy_1_1source__location_01_4.html" target="_top" xlink:title="Formatter for floppy::source_location">
<polygon fill="white" stroke="#666666" points="374.62,-30.5 270.88,-30.5 270.88,0 374.62,0 374.62,-30.5"/>
<text text-anchor="start" x="278.88" y="-16.05" font-family="Helvetica,sans-Serif" font-size="11.00">formatter&lt; floppy::</text>
<text text-anchor="middle" x="322.75" y="-4.8" font-family="Helvetica,sans-Serif" font-size="11.00">source_location &gt;</text>
</a>
</g>
</g>
<!-- Node1&#45;&gt;Node4 -->
<g id="edge43_Node000001_Node000004" class="edge">
<title>Node1&#45;&gt;Node4</title>
<g id="a_edge43_Node000001_Node000004"><a xlink:title=" ">
<path fill="none" stroke="#63b8ff" d="M224.36,-45.24C239.66,-40.53 255.89,-35.53 270.63,-30.99"/>
<polygon fill="#63b8ff" stroke="#63b8ff" points="223.38,-41.88 214.86,-48.17 225.44,-48.57 223.38,-41.88"/>
</a>
</g>
</g>
</g>
</svg>
