<?xml version="1.0" encoding="UTF-8" standalone="no"?>
<!DOCTYPE svg PUBLIC "-//W3C//DTD SVG 1.1//EN"
 "http://www.w3.org/Graphics/SVG/1.1/DTD/svg11.dtd">
<!-- Generated by graphviz version 10.0.1 (0)
 -->
<!-- Title: Graphical Class Hierarchy Pages: 1 -->
<svg width="646pt" height="186pt"
 viewBox="0.00 0.00 646.00 185.50" xmlns="http://www.w3.org/2000/svg" xmlns:xlink="http://www.w3.org/1999/xlink">
<g id="graph0" class="graph" transform="scale(1 1) rotate(0) translate(4 181.5)">
<title>Graphical Class Hierarchy</title>
<!-- Node0 -->
<g id="Node000000" class="node">
<title>Node0</title>
<g id="a_Node000000"><a xlink:title=" ">
<polygon fill="#e0e0e0" stroke="#999999" points="61.75,-97.88 0,-97.88 0,-78.62 61.75,-78.62 61.75,-97.88"/>
<text text-anchor="middle" x="30.88" y="-83.42" font-family="Helvetica,sans-Serif" font-size="11.00">exception</text>
</a>
</g>
</g>
<!-- Node1 -->
<g id="Node000001" class="node">
<title>Node1</title>
<g id="a_Node000001"><a xlink:href="classfloppy_1_1exceptions_1_1compile__time__error.html" target="_top" xlink:title="Indicates a compile time error.">
<polygon fill="white" stroke="#666666" points="206,-134.88 97.75,-134.88 97.75,-115.62 206,-115.62 206,-134.88"/>
<text text-anchor="middle" x="151.88" y="-120.42" font-family="Helvetica,sans-Serif" font-size="11.00">compile_time_error</text>
</a>
</g>
</g>
<!-- Node0&#45;&gt;Node1 -->
<g id="edge41_Node000000_Node000001" class="edge">
<title>Node0&#45;&gt;Node1</title>
<g id="a_edge41_Node000000_Node000001"><a xlink:title=" ">
<path fill="none" stroke="#63b8ff" d="M73.17,-101.09C88.01,-105.7 104.53,-110.84 118.51,-115.19"/>
<polygon fill="#63b8ff" stroke="#63b8ff" points="74.25,-97.76 63.66,-98.13 72.17,-104.44 74.25,-97.76"/>
</a>
</g>
</g>
<!-- Node2 -->
<g id="Node000002" class="node">
<title>Node2</title>
<g id="a_Node000002"><a xlink:title=" ">
<polygon fill="#e0e0e0" stroke="#999999" points="185.38,-97.88 118.38,-97.88 118.38,-78.62 185.38,-78.62 185.38,-97.88"/>
<text text-anchor="middle" x="151.88" y="-83.42" font-family="Helvetica,sans-Serif" font-size="11.00">logic_error</text>
</a>
</g>
</g>
<!-- Node0&#45;&gt;Node2 -->
<g id="edge42_Node000000_Node000002" class="edge">
<title>Node0&#45;&gt;Node2</title>
<g id="a_edge42_Node000000_Node000002"><a xlink:title=" ">
<path fill="none" stroke="#63b8ff" d="M73.51,-88.25C88.12,-88.25 104.31,-88.25 118.09,-88.25"/>
<polygon fill="#63b8ff" stroke="#63b8ff" points="73.73,-84.75 63.73,-88.25 73.73,-91.75 73.73,-84.75"/>
</a>
</g>
</g>
<!-- Node9 -->
<g id="Node000009" class="node">
<title>Node9</title>
<g id="a_Node000009"><a xlink:title=" ">
<polygon fill="#e0e0e0" stroke="#999999" points="192.5,-60.88 111.25,-60.88 111.25,-41.62 192.5,-41.62 192.5,-60.88"/>
<text text-anchor="middle" x="151.88" y="-46.42" font-family="Helvetica,sans-Serif" font-size="11.00">runtime_error</text>
</a>
</g>
</g>
<!-- Node0&#45;&gt;Node9 -->
<g id="edge49_Node000000_Node000009" class="edge">
<title>Node0&#45;&gt;Node9</title>
<g id="a_edge49_Node000000_Node000009"><a xlink:title=" ">
<path fill="none" stroke="#63b8ff" d="M73.17,-75.41C88.01,-70.8 104.53,-65.66 118.51,-61.31"/>
<polygon fill="#63b8ff" stroke="#63b8ff" points="72.17,-72.06 63.66,-78.37 74.25,-78.74 72.17,-72.06"/>
</a>
</g>
</g>
<!-- Node3 -->
<g id="Node000003" class="node">
<title>Node3</title>
<g id="a_Node000003"><a xlink:title=" ">
<polygon fill="#e0e0e0" stroke="#999999" points="341.62,-97.88 243.88,-97.88 243.88,-78.62 341.62,-78.62 341.62,-97.88"/>
<text text-anchor="middle" x="292.75" y="-83.42" font-family="Helvetica,sans-Serif" font-size="11.00">invalid_argument</text>
</a>
</g>
</g>
<!-- Node2&#45;&gt;Node3 -->
<g id="edge43_Node000002_Node000003" class="edge">
<title>Node2&#45;&gt;Node3</title>
<g id="a_edge43_Node000002_Node000003"><a xlink:title=" ">
<path fill="none" stroke="#63b8ff" d="M197.2,-88.25C211.97,-88.25 228.5,-88.25 243.56,-88.25"/>
<polygon fill="#63b8ff" stroke="#63b8ff" points="197.3,-84.75 187.3,-88.25 197.3,-91.75 197.3,-84.75"/>
</a>
</g>
</g>
<!-- Node4 -->
<g id="Node000004" class="node">
<title>Node4</title>
<g id="a_Node000004"><a xlink:href="classfloppy_1_1contracts_1_1contract__violation.html" target="_top" xlink:title="Base class for all contract violations.">
<polygon fill="white" stroke="#666666" points="478.75,-97.88 379.5,-97.88 379.5,-78.62 478.75,-78.62 478.75,-97.88"/>
<text text-anchor="middle" x="429.12" y="-83.42" font-family="Helvetica,sans-Serif" font-size="11.00">contract_violation</text>
</a>
</g>
</g>
<!-- Node3&#45;&gt;Node4 -->
<g id="edge44_Node000003_Node000004" class="edge">
<title>Node3&#45;&gt;Node4</title>
<g id="a_edge44_Node000003_Node000004"><a xlink:title=" ">
<path fill="none" stroke="#63b8ff" d="M353.24,-88.25C361.99,-88.25 370.92,-88.25 379.42,-88.25"/>
<polygon fill="#63b8ff" stroke="#63b8ff" points="353.4,-84.75 343.4,-88.25 353.4,-91.75 353.4,-84.75"/>
</a>
</g>
</g>
<!-- Node5 -->
<g id="Node000005" class="node">
<title>Node5</title>
<g id="a_Node000005"><a xlink:href="classfloppy_1_1contracts_1_1assertion__contract__violation.html" target="_top" xlink:title="Contract violation for assertions.">
<polygon fill="white" stroke="#666666" points="628.25,-177.5 524.5,-177.5 524.5,-147 628.25,-147 628.25,-177.5"/>
<text text-anchor="start" x="532.5" y="-163.05" font-family="Helvetica,sans-Serif" font-size="11.00">assertion_contract</text>
<text text-anchor="middle" x="576.38" y="-151.8" font-family="Helvetica,sans-Serif" font-size="11.00">_violation</text>
</a>
</g>
</g>
<!-- Node4&#45;&gt;Node5 -->
<g id="edge45_Node000004_Node000005" class="edge">
<title>Node4&#45;&gt;Node5</title>
<g id="a_edge45_Node000004_Node000005"><a xlink:title=" ">
<path fill="none" stroke="#63b8ff" d="M455.5,-104.14C472.06,-114.21 494.32,-127.18 514.75,-137.25 521.29,-140.47 528.34,-143.64 535.25,-146.59"/>
<polygon fill="#63b8ff" stroke="#63b8ff" points="457.64,-101.34 447.29,-99.09 453.98,-107.31 457.64,-101.34"/>
</a>
</g>
</g>
<!-- Node6 -->
<g id="Node000006" class="node">
<title>Node6</title>
<g id="a_Node000006"><a xlink:href="classfloppy_1_1contracts_1_1invariant__contract__violation.html" target="_top" xlink:title="Contract violation for invariants.">
<polygon fill="white" stroke="#666666" points="626.75,-128.5 526,-128.5 526,-98 626.75,-98 626.75,-128.5"/>
<text text-anchor="start" x="534" y="-114.05" font-family="Helvetica,sans-Serif" font-size="11.00">invariant_contract</text>
<text text-anchor="middle" x="576.38" y="-102.8" font-family="Helvetica,sans-Serif" font-size="11.00">_violation</text>
</a>
</g>
</g>
<!-- Node4&#45;&gt;Node6 -->
<g id="edge46_Node000004_Node000006" class="edge">
<title>Node4&#45;&gt;Node6</title>
<g id="a_edge46_Node000004_Node000006"><a xlink:title=" ">
<path fill="none" stroke="#63b8ff" d="M490.14,-98.58C502.07,-100.63 514.47,-102.77 525.99,-104.75"/>
<polygon fill="#63b8ff" stroke="#63b8ff" points="490.84,-95.15 480.39,-96.9 489.65,-102.05 490.84,-95.15"/>
</a>
</g>
</g>
<!-- Node7 -->
<g id="Node000007" class="node">
<title>Node7</title>
<g id="a_Node000007"><a xlink:href="classfloppy_1_1contracts_1_1postcondition__contract__violation.html" target="_top" xlink:title="Contract violation for postconditions.">
<polygon fill="white" stroke="#666666" points="638,-79.5 514.75,-79.5 514.75,-49 638,-49 638,-79.5"/>
<text text-anchor="start" x="522.75" y="-65.05" font-family="Helvetica,sans-Serif" font-size="11.00">postcondition_contract</text>
<text text-anchor="middle" x="576.38" y="-53.8" font-family="Helvetica,sans-Serif" font-size="11.00">_violation</text>
</a>
</g>
</g>
<!-- Node4&#45;&gt;Node7 -->
<g id="edge47_Node000004_Node000007" class="edge">
<title>Node4&#45;&gt;Node7</title>
<g id="a_edge47_Node000004_Node000007"><a xlink:title=" ">
<path fill="none" stroke="#63b8ff" d="M490.05,-78.35C498.07,-77.02 506.31,-75.66 514.35,-74.33"/>
<polygon fill="#63b8ff" stroke="#63b8ff" points="489.68,-74.86 480.39,-79.94 490.83,-81.77 489.68,-74.86"/>
</a>
</g>
</g>
<!-- Node8 -->
<g id="Node000008" class="node">
<title>Node8</title>
<g id="a_Node000008"><a xlink:href="classfloppy_1_1contracts_1_1precondition__contract__violation.html" target="_top" xlink:title="Contract violation for preconditions.">
<polygon fill="white" stroke="#666666" points="635.75,-30.5 517,-30.5 517,0 635.75,0 635.75,-30.5"/>
<text text-anchor="start" x="525" y="-16.05" font-family="Helvetica,sans-Serif" font-size="11.00">precondition_contract</text>
<text text-anchor="middle" x="576.38" y="-4.8" font-family="Helvetica,sans-Serif" font-size="11.00">_violation</text>
</a>
</g>
</g>
<!-- Node4&#45;&gt;Node8 -->
<g id="edge48_Node000004_Node000008" class="edge">
<title>Node4&#45;&gt;Node8</title>
<g id="a_edge48_Node000004_Node000008"><a xlink:title=" ">
<path fill="none" stroke="#63b8ff" d="M455.85,-72.54C472.4,-62.73 494.51,-50.12 514.75,-40.25 521.3,-37.06 528.36,-33.9 535.28,-30.96"/>
<polygon fill="#63b8ff" stroke="#63b8ff" points="454.41,-69.33 447.64,-77.47 458.01,-75.33 454.41,-69.33"/>
</a>
</g>
</g>
<!-- Node10 -->
<g id="Node000010" class="node">
<title>Node10</title>
<g id="a_Node000010"><a xlink:href="classfloppy_1_1serialization_1_1serialization__error.html" target="_top" xlink:title="Exception thrown during serialization or deserialization.">
<polygon fill="white" stroke="#666666" points="343.5,-60.88 242,-60.88 242,-41.62 343.5,-41.62 343.5,-60.88"/>
<text text-anchor="middle" x="292.75" y="-46.42" font-family="Helvetica,sans-Serif" font-size="11.00">serialization_error</text>
</a>
</g>
</g>
<!-- Node9&#45;&gt;Node10 -->
<g id="edge50_Node000009_Node000010" class="edge">
<title>Node9&#45;&gt;Node10</title>
<g id="a_edge50_Node000009_Node000010"><a xlink:title=" ">
<path fill="none" stroke="#63b8ff" d="M204.09,-51.25C216.32,-51.25 229.36,-51.25 241.55,-51.25"/>
<polygon fill="#63b8ff" stroke="#63b8ff" points="204.18,-47.75 194.18,-51.25 204.18,-54.75 204.18,-47.75"/>
</a>
</g>
</g>
</g>
</svg>
