<?xml version="1.0" encoding="UTF-8" standalone="no"?>
<!DOCTYPE svg PUBLIC "-//W3C//DTD SVG 1.1//EN"
 "http://www.w3.org/Graphics/SVG/1.1/DTD/svg11.dtd">
<!-- Generated by graphviz version 10.0.1 (0)
 -->
<!-- Title: Graphical Class Hierarchy Pages: 1 -->
<svg width="586pt" height="419pt"
 viewBox="0.00 0.00 585.75 418.50" xmlns="http://www.w3.org/2000/svg" xmlns:xlink="http://www.w3.org/1999/xlink">
<g id="graph0" class="graph" transform="scale(1 1) rotate(0) translate(4 414.5)">
<title>Graphical Class Hierarchy</title>
<!-- Node0 -->
<g id="Node000000" class="node">
<title>Node0</title>
<g id="a_Node000000"><a xlink:href="d0/d3b/structfloppy_1_1math_1_1detail_1_1default__comparable.html" target="_top" xlink:title=" ">
<polygon fill="white" stroke="#666666" points="136.75,-320.88 0,-320.88 0,-301.62 136.75,-301.62 136.75,-320.88"/>
<text text-anchor="middle" x="68.38" y="-306.43" font-family="Arial" font-size="11.00">default_comparable&lt; T &gt;</text>
</a>
</g>
</g>
<!-- Node1 -->
<g id="Node000001" class="node">
<title>Node1</title>
<g id="a_Node000001"><a xlink:href="d8/d03/structfloppy_1_1math_1_1detail_1_1basic__numeric__newtype.html" target="_top" xlink:title=" ">
<polygon fill="white" stroke="#666666" points="304.25,-410.5 172.75,-410.5 172.75,-380 304.25,-380 304.25,-410.5"/>
<text text-anchor="start" x="180.75" y="-396.05" font-family="Arial" font-size="11.00">basic_numeric_newtype</text>
<text text-anchor="middle" x="238.5" y="-384.8" font-family="Arial" font-size="11.00">&lt; angle&lt; f32 &gt;, U &gt;</text>
</a>
</g>
</g>
<!-- Node0&#45;&gt;Node1 -->
<g id="edge1_Node000000_Node000001" class="edge">
<title>Node0&#45;&gt;Node1</title>
<g id="a_edge1_Node000000_Node000001"><a xlink:title=" ">
<path fill="none" stroke="#63b8ff" d="M94.22,-327.29C114.76,-340.15 144.97,-358.16 172.75,-371.25 178.93,-374.16 185.57,-376.97 192.16,-379.57"/>
<polygon fill="#63b8ff" stroke="#63b8ff" points="96.29,-324.46 85.97,-322.06 92.54,-330.37 96.29,-324.46"/>
</a>
</g>
</g>
<!-- Node2 -->
<g id="Node000002" class="node">
<title>Node2</title>
<g id="a_Node000002"><a xlink:href="d8/d03/structfloppy_1_1math_1_1detail_1_1basic__numeric__newtype.html" target="_top" xlink:title=" ">
<polygon fill="white" stroke="#666666" points="304.25,-362.12 172.75,-362.12 172.75,-320.38 304.25,-320.38 304.25,-362.12"/>
<text text-anchor="start" x="180.75" y="-347.68" font-family="Arial" font-size="11.00">basic_numeric_newtype</text>
<text text-anchor="start" x="180.75" y="-336.43" font-family="Arial" font-size="11.00">&lt; length&lt; default_unit,</text>
<text text-anchor="middle" x="238.5" y="-325.18" font-family="Arial" font-size="11.00"> f32 &gt;, f32 &gt;</text>
</a>
</g>
</g>
<!-- Node0&#45;&gt;Node2 -->
<g id="edge2_Node000000_Node000002" class="edge">
<title>Node0&#45;&gt;Node2</title>
<g id="a_edge2_Node000000_Node000002"><a xlink:title=" ">
<path fill="none" stroke="#63b8ff" d="M136.91,-323.3C148.64,-325.39 160.82,-327.57 172.49,-329.65"/>
<polygon fill="#63b8ff" stroke="#63b8ff" points="137.78,-319.9 127.32,-321.59 136.55,-326.79 137.78,-319.9"/>
</a>
</g>
</g>
<!-- Node3 -->
<g id="Node000003" class="node">
<title>Node3</title>
<g id="a_Node000003"><a xlink:href="d8/d03/structfloppy_1_1math_1_1detail_1_1basic__numeric__newtype.html" target="_top" xlink:title=" ">
<polygon fill="white" stroke="#666666" points="304.25,-302.12 172.75,-302.12 172.75,-260.38 304.25,-260.38 304.25,-302.12"/>
<text text-anchor="start" x="180.75" y="-287.68" font-family="Arial" font-size="11.00">basic_numeric_newtype</text>
<text text-anchor="start" x="180.75" y="-276.43" font-family="Arial" font-size="11.00">&lt; scale&lt; S, D, f32 &gt;,</text>
<text text-anchor="middle" x="238.5" y="-265.18" font-family="Arial" font-size="11.00"> f32 &gt;</text>
</a>
</g>
</g>
<!-- Node0&#45;&gt;Node3 -->
<g id="edge3_Node000000_Node000003" class="edge">
<title>Node0&#45;&gt;Node3</title>
<g id="a_edge3_Node000000_Node000003"><a xlink:title=" ">
<path fill="none" stroke="#63b8ff" d="M136.91,-299.2C148.64,-297.11 160.82,-294.93 172.49,-292.85"/>
<polygon fill="#63b8ff" stroke="#63b8ff" points="136.55,-295.71 127.32,-300.91 137.78,-302.6 136.55,-295.71"/>
</a>
</g>
</g>
<!-- Node4 -->
<g id="Node000004" class="node">
<title>Node4</title>
<g id="a_Node000004"><a xlink:href="d8/d03/structfloppy_1_1math_1_1detail_1_1basic__numeric__newtype.html" target="_top" xlink:title=" ">
<polygon fill="white" stroke="#666666" points="304.25,-242.5 172.75,-242.5 172.75,-212 304.25,-212 304.25,-242.5"/>
<text text-anchor="start" x="180.75" y="-228.05" font-family="Arial" font-size="11.00">basic_numeric_newtype</text>
<text text-anchor="middle" x="238.5" y="-216.8" font-family="Arial" font-size="11.00">&lt; T, U &gt;</text>
</a>
</g>
</g>
<!-- Node0&#45;&gt;Node4 -->
<g id="edge4_Node000000_Node000004" class="edge">
<title>Node0&#45;&gt;Node4</title>
<g id="a_edge4_Node000000_Node000004"><a xlink:title=" ">
<path fill="none" stroke="#63b8ff" d="M94.22,-295.21C114.76,-282.35 144.97,-264.34 172.75,-251.25 178.93,-248.34 185.57,-245.53 192.16,-242.93"/>
<polygon fill="#63b8ff" stroke="#63b8ff" points="92.54,-292.13 85.97,-300.44 96.29,-298.04 92.54,-292.13"/>
</a>
</g>
</g>
<!-- Node5 -->
<g id="Node000005" class="node">
<title>Node5</title>
<g id="a_Node000005"><a xlink:href="d8/d97/structfloppy_1_1math_1_1detail_1_1advanced__numeric__type.html" target="_top" xlink:title=" ">
<polygon fill="white" stroke="#666666" points="473.25,-310.5 340.25,-310.5 340.25,-280 473.25,-280 473.25,-310.5"/>
<text text-anchor="start" x="348.25" y="-296.05" font-family="Arial" font-size="11.00">advanced_numeric_type</text>
<text text-anchor="middle" x="406.75" y="-284.8" font-family="Arial" font-size="11.00">&lt; angle&lt; f32 &gt;, f32 &gt;</text>
</a>
</g>
</g>
<!-- Node4&#45;&gt;Node5 -->
<g id="edge5_Node000004_Node000005" class="edge">
<title>Node4&#45;&gt;Node5</title>
<g id="a_edge5_Node000004_Node000005"><a xlink:title=" ">
<path fill="none" stroke="#63b8ff" d="M294.6,-247.11C297.89,-248.47 301.12,-249.85 304.25,-251.25 320.77,-258.63 323.77,-262.79 340.25,-270.25 347.35,-273.46 354.99,-276.63 362.46,-279.58"/>
<polygon fill="#63b8ff" stroke="#63b8ff" points="296.04,-243.91 285.45,-243.45 293.44,-250.41 296.04,-243.91"/>
</a>
</g>
</g>
<!-- Node6 -->
<g id="Node000006" class="node">
<title>Node6</title>
<g id="a_Node000006"><a xlink:href="d8/d97/structfloppy_1_1math_1_1detail_1_1advanced__numeric__type.html" target="_top" xlink:title=" ">
<polygon fill="white" stroke="#666666" points="473.25,-261.5 340.25,-261.5 340.25,-231 473.25,-231 473.25,-261.5"/>
<text text-anchor="start" x="348.25" y="-247.05" font-family="Arial" font-size="11.00">advanced_numeric_type</text>
<text text-anchor="middle" x="406.75" y="-235.8" font-family="Arial" font-size="11.00">&lt; T, U &gt;</text>
</a>
</g>
</g>
<!-- Node4&#45;&gt;Node6 -->
<g id="edge6_Node000004_Node000006" class="edge">
<title>Node4&#45;&gt;Node6</title>
<g id="a_edge6_Node000004_Node000006"><a xlink:title=" ">
<path fill="none" stroke="#63b8ff" d="M315.95,-235.99C323.95,-236.9 332.03,-237.82 339.89,-238.72"/>
<polygon fill="#63b8ff" stroke="#63b8ff" points="316.57,-232.53 306.23,-234.88 315.77,-239.49 316.57,-232.53"/>
</a>
</g>
</g>
<!-- Node9 -->
<g id="Node000009" class="node">
<title>Node9</title>
<g id="a_Node000009"><a xlink:href="dd/dd1/classfloppy_1_1math_1_1length.html" target="_top" xlink:title="A one&#45;dimensional distance with associated unit of measurement.">
<polygon fill="white" stroke="#666666" points="449.25,-175.88 364.25,-175.88 364.25,-156.62 449.25,-156.62 449.25,-175.88"/>
<text text-anchor="middle" x="406.75" y="-161.43" font-family="Arial" font-size="11.00">length&lt; U, T &gt;</text>
</a>
</g>
</g>
<!-- Node4&#45;&gt;Node9 -->
<g id="edge8_Node000004_Node000009" class="edge">
<title>Node4&#45;&gt;Node9</title>
<g id="a_edge8_Node000004_Node000009"><a xlink:title=" ">
<path fill="none" stroke="#63b8ff" d="M283.54,-206.92C300.99,-199.27 321.37,-190.84 340.25,-184.25 348.38,-181.41 357.2,-178.73 365.65,-176.34"/>
<polygon fill="#63b8ff" stroke="#63b8ff" points="282.2,-203.69 274.48,-210.95 285.04,-210.09 282.2,-203.69"/>
</a>
</g>
</g>
<!-- Node10 -->
<g id="Node000010" class="node">
<title>Node10</title>
<g id="a_Node000010"><a xlink:href="db/db2/structfloppy_1_1math_1_1scale.html" target="_top" xlink:title="A scaling factor between two different units of measurement.">
<polygon fill="white" stroke="#666666" points="454.12,-212.88 359.38,-212.88 359.38,-193.62 454.12,-193.62 454.12,-212.88"/>
<text text-anchor="middle" x="406.75" y="-198.43" font-family="Arial" font-size="11.00">scale&lt; S, D, T &gt;</text>
</a>
</g>
</g>
<!-- Node4&#45;&gt;Node10 -->
<g id="edge9_Node000004_Node000010" class="edge">
<title>Node4&#45;&gt;Node10</title>
<g id="a_edge9_Node000004_Node000010"><a xlink:title=" ">
<path fill="none" stroke="#63b8ff" d="M315.88,-216.22C330.57,-214.1 345.54,-211.94 358.94,-210.01"/>
<polygon fill="#63b8ff" stroke="#63b8ff" points="315.62,-212.72 306.23,-217.62 316.62,-219.65 315.62,-212.72"/>
</a>
</g>
</g>
<!-- Node7 -->
<g id="Node000007" class="node">
<title>Node7</title>
<g id="a_Node000007"><a xlink:href="de/d4d/structfloppy_1_1math_1_1angle.html" target="_top" xlink:title="Newtype describing an angle.">
<polygon fill="white" stroke="#666666" points="577.75,-196.88 509.25,-196.88 509.25,-177.62 577.75,-177.62 577.75,-196.88"/>
<text text-anchor="middle" x="543.5" y="-182.43" font-family="Arial" font-size="11.00">angle&lt; T &gt;</text>
</a>
</g>
</g>
<!-- Node6&#45;&gt;Node7 -->
<g id="edge7_Node000006_Node000007" class="edge">
<title>Node6&#45;&gt;Node7</title>
<g id="a_edge7_Node000006_Node000007"><a xlink:title=" ">
<path fill="none" stroke="#63b8ff" d="M463.47,-226.34C466.79,-225 470.08,-223.63 473.25,-222.25 490.8,-214.63 510.18,-204.7 523.97,-197.36"/>
<polygon fill="#63b8ff" stroke="#63b8ff" points="462.21,-223.08 454.18,-229.99 464.77,-229.59 462.21,-223.08"/>
</a>
</g>
</g>
<!-- Node11 -->
<g id="Node000011" class="node">
<title>Node11</title>
<g id="a_Node000011"><a xlink:href="d5/d4f/structfloppy_1_1traits_1_1detail_1_1formattable__base.html" target="_top" xlink:title="Interface, providing to_string method.">
<polygon fill="white" stroke="#666666" points="131.88,-105.88 4.87,-105.88 4.87,-86.62 131.88,-86.62 131.88,-105.88"/>
<text text-anchor="middle" x="68.38" y="-91.42" font-family="Arial" font-size="11.00">formattable_base&lt; C &gt;</text>
</a>
</g>
</g>
<!-- Node12 -->
<g id="Node000012" class="node">
<title>Node12</title>
<g id="a_Node000012"><a xlink:href="db/d59/structfloppy_1_1traits_1_1formattable.html" target="_top" xlink:title=" ">
<polygon fill="white" stroke="#666666" points="291.5,-138.5 185.5,-138.5 185.5,-108 291.5,-108 291.5,-138.5"/>
<text text-anchor="start" x="193.5" y="-124.05" font-family="Arial" font-size="11.00">formattable&lt; angle</text>
<text text-anchor="middle" x="238.5" y="-112.8" font-family="Arial" font-size="11.00">&lt; f32 &gt;, char &gt;</text>
</a>
</g>
</g>
<!-- Node11&#45;&gt;Node12 -->
<g id="edge10_Node000011_Node000012" class="edge">
<title>Node11&#45;&gt;Node12</title>
<g id="a_edge10_Node000011_Node000012"><a xlink:title=" ">
<path fill="none" stroke="#63b8ff" d="M143.17,-108.1C157.27,-110.37 171.76,-112.69 185.03,-114.82"/>
<polygon fill="#63b8ff" stroke="#63b8ff" points="143.9,-104.67 133.47,-106.54 142.79,-111.59 143.9,-104.67"/>
</a>
</g>
</g>
<!-- Node13 -->
<g id="Node000013" class="node">
<title>Node13</title>
<g id="a_Node000013"><a xlink:href="db/d59/structfloppy_1_1traits_1_1formattable.html" target="_top" xlink:title=" ">
<polygon fill="white" stroke="#666666" points="293,-90.12 184,-90.12 184,-48.38 293,-48.38 293,-90.12"/>
<text text-anchor="start" x="192" y="-75.67" font-family="Arial" font-size="11.00">formattable&lt; length</text>
<text text-anchor="start" x="192" y="-64.42" font-family="Arial" font-size="11.00">&lt; default_unit, f32</text>
<text text-anchor="middle" x="238.5" y="-53.17" font-family="Arial" font-size="11.00"> &gt;, char &gt;</text>
</a>
</g>
</g>
<!-- Node11&#45;&gt;Node13 -->
<g id="edge11_Node000011_Node000013" class="edge">
<title>Node11&#45;&gt;Node13</title>
<g id="a_edge11_Node000011_Node000013"><a xlink:title=" ">
<path fill="none" stroke="#63b8ff" d="M143.28,-84.38C156.87,-82.2 170.82,-79.96 183.68,-77.89"/>
<polygon fill="#63b8ff" stroke="#63b8ff" points="142.79,-80.91 133.47,-85.96 143.9,-87.83 142.79,-80.91"/>
</a>
</g>
</g>
<!-- Node14 -->
<g id="Node000014" class="node">
<title>Node14</title>
<g id="a_Node000014"><a xlink:href="db/d59/structfloppy_1_1traits_1_1formattable.html" target="_top" xlink:title=" ">
<polygon fill="white" stroke="#666666" points="296,-30.5 181,-30.5 181,0 296,0 296,-30.5"/>
<text text-anchor="start" x="189" y="-16.05" font-family="Arial" font-size="11.00">formattable&lt; scale</text>
<text text-anchor="middle" x="238.5" y="-4.8" font-family="Arial" font-size="11.00">&lt; S, D, f32 &gt;, char &gt;</text>
</a>
</g>
</g>
<!-- Node11&#45;&gt;Node14 -->
<g id="edge12_Node000011_Node000014" class="edge">
<title>Node11&#45;&gt;Node14</title>
<g id="a_edge12_Node000011_Node000014"><a xlink:title=" ">
<path fill="none" stroke="#63b8ff" d="M95.69,-80.31C116.25,-68.21 145.77,-51.6 172.75,-39.25 179.07,-36.35 185.85,-33.54 192.56,-30.92"/>
<polygon fill="#63b8ff" stroke="#63b8ff" points="93.92,-77.29 87.11,-85.41 97.5,-83.31 93.92,-77.29"/>
</a>
</g>
</g>
<!-- Node8 -->
<g id="Node000008" class="node">
<title>Node8</title>
<g id="a_Node000008"><a xlink:href="db/d59/structfloppy_1_1traits_1_1formattable.html" target="_top" xlink:title="Allows type to be converted to string and printed via standard streams or fmt.">
<polygon fill="white" stroke="#666666" points="293.38,-175.88 183.62,-175.88 183.62,-156.62 293.38,-156.62 293.38,-175.88"/>
<text text-anchor="middle" x="238.5" y="-161.43" font-family="Arial" font-size="11.00">formattable&lt; T, C &gt;</text>
</a>
</g>
</g>
<!-- Node11&#45;&gt;Node8 -->
<g id="edge13_Node000011_Node000008" class="edge">
<title>Node11&#45;&gt;Node8</title>
<g id="a_edge13_Node000011_Node000008"><a xlink:title=" ">
<path fill="none" stroke="#63b8ff" d="M97.14,-111.59C117.63,-122.49 146.39,-136.97 172.75,-147.25 181.15,-150.53 190.36,-153.55 199.13,-156.18"/>
<polygon fill="#63b8ff" stroke="#63b8ff" points="99.04,-108.63 88.58,-106.97 95.72,-114.8 99.04,-108.63"/>
</a>
</g>
</g>
<!-- Node8&#45;&gt;Node7 -->
<g id="edge14_Node000008_Node000007" class="edge">
<title>Node8&#45;&gt;Node7</title>
<g id="a_edge14_Node000008_Node000007"><a xlink:title=" ">
<path fill="none" stroke="#63b8ff" d="M285.12,-153.54C332.85,-142.32 409.54,-130.17 473.25,-147.25 494.98,-153.07 516.94,-167.54 530.13,-177.39"/>
<polygon fill="#63b8ff" stroke="#63b8ff" points="284.58,-150.07 275.7,-155.85 286.24,-156.87 284.58,-150.07"/>
</a>
</g>
</g>
<!-- Node8&#45;&gt;Node9 -->
<g id="edge15_Node000008_Node000009" class="edge">
<title>Node8&#45;&gt;Node9</title>
<g id="a_edge15_Node000008_Node000009"><a xlink:title=" ">
<path fill="none" stroke="#63b8ff" d="M304.96,-166.25C324.8,-166.25 346.04,-166.25 363.89,-166.25"/>
<polygon fill="#63b8ff" stroke="#63b8ff" points="304.99,-162.75 294.99,-166.25 304.99,-169.75 304.99,-162.75"/>
</a>
</g>
</g>
<!-- Node8&#45;&gt;Node10 -->
<g id="edge16_Node000008_Node000010" class="edge">
<title>Node8&#45;&gt;Node10</title>
<g id="a_edge16_Node000008_Node000010"><a xlink:title=" ">
<path fill="none" stroke="#63b8ff" d="M295.97,-178.82C316.96,-183.49 340.5,-188.73 360.38,-193.15"/>
<polygon fill="#63b8ff" stroke="#63b8ff" points="296.93,-175.45 286.41,-176.69 295.41,-182.28 296.93,-175.45"/>
</a>
</g>
</g>
</g>
</svg>
