<?xml version="1.0" encoding="UTF-8" standalone="no"?>
<!DOCTYPE svg PUBLIC "-//W3C//DTD SVG 1.1//EN"
 "http://www.w3.org/Graphics/SVG/1.1/DTD/svg11.dtd">
<!-- Generated by graphviz version 10.0.1 (0)
 -->
<!-- Title: Graphical Class Hierarchy Pages: 1 -->
<svg width="644pt" height="874pt"
 viewBox="0.00 0.00 643.50 874.12" xmlns="http://www.w3.org/2000/svg" xmlns:xlink="http://www.w3.org/1999/xlink">
<g id="graph0" class="graph" transform="scale(1 1) rotate(0) translate(4 870.12)">
<title>Graphical Class Hierarchy</title>
<!-- Node0 -->
<g id="Node000000" class="node">
<title>Node0</title>
<g id="a_Node000000"><a xlink:href="d0/d3b/structfloppy_1_1math_1_1detail_1_1default__comparable.html" target="_top" xlink:title=" ">
<polygon fill="white" stroke="#666666" points="136.75,-779.5 0,-779.5 0,-760.25 136.75,-760.25 136.75,-779.5"/>
<text text-anchor="middle" x="68.38" y="-765.05" font-family="Arial" font-size="11.00">default_comparable&lt; T &gt;</text>
</a>
</g>
</g>
<!-- Node1 -->
<g id="Node000001" class="node">
<title>Node1</title>
<g id="a_Node000001"><a xlink:href="d8/d03/structfloppy_1_1math_1_1detail_1_1basic__numeric__newtype.html" target="_top" xlink:title=" ">
<polygon fill="white" stroke="#666666" points="304.25,-866.12 172.75,-866.12 172.75,-835.62 304.25,-835.62 304.25,-866.12"/>
<text text-anchor="start" x="180.75" y="-851.67" font-family="Arial" font-size="11.00">basic_numeric_newtype</text>
<text text-anchor="middle" x="238.5" y="-840.42" font-family="Arial" font-size="11.00">&lt; angle&lt; f32 &gt;, U &gt;</text>
</a>
</g>
</g>
<!-- Node0&#45;&gt;Node1 -->
<g id="edge1_Node000000_Node000001" class="edge">
<title>Node0&#45;&gt;Node1</title>
<g id="a_edge1_Node000000_Node000001"><a xlink:title=" ">
<path fill="none" stroke="#63b8ff" d="M95.69,-785.81C116.25,-797.91 145.77,-814.52 172.75,-826.88 179.07,-829.77 185.85,-832.59 192.56,-835.21"/>
<polygon fill="#63b8ff" stroke="#63b8ff" points="97.5,-782.81 87.11,-780.71 93.92,-788.83 97.5,-782.81"/>
</a>
</g>
</g>
<!-- Node2 -->
<g id="Node000002" class="node">
<title>Node2</title>
<g id="a_Node000002"><a xlink:href="d8/d03/structfloppy_1_1math_1_1detail_1_1basic__numeric__newtype.html" target="_top" xlink:title=" ">
<polygon fill="white" stroke="#666666" points="304.25,-817.75 172.75,-817.75 172.75,-776 304.25,-776 304.25,-817.75"/>
<text text-anchor="start" x="180.75" y="-803.3" font-family="Arial" font-size="11.00">basic_numeric_newtype</text>
<text text-anchor="start" x="180.75" y="-792.05" font-family="Arial" font-size="11.00">&lt; length&lt; default_unit,</text>
<text text-anchor="middle" x="238.5" y="-780.8" font-family="Arial" font-size="11.00"> f32 &gt;, f32 &gt;</text>
</a>
</g>
</g>
<!-- Node0&#45;&gt;Node2 -->
<g id="edge2_Node000000_Node000002" class="edge">
<title>Node0&#45;&gt;Node2</title>
<g id="a_edge2_Node000000_Node000002"><a xlink:title=" ">
<path fill="none" stroke="#63b8ff" d="M143.23,-781.74C152.92,-783.29 162.79,-784.88 172.31,-786.41"/>
<polygon fill="#63b8ff" stroke="#63b8ff" points="143.9,-778.3 133.47,-780.17 142.79,-785.21 143.9,-778.3"/>
</a>
</g>
</g>
<!-- Node3 -->
<g id="Node000003" class="node">
<title>Node3</title>
<g id="a_Node000003"><a xlink:href="d8/d03/structfloppy_1_1math_1_1detail_1_1basic__numeric__newtype.html" target="_top" xlink:title=" ">
<polygon fill="white" stroke="#666666" points="304.25,-709.75 172.75,-709.75 172.75,-668 304.25,-668 304.25,-709.75"/>
<text text-anchor="start" x="180.75" y="-695.3" font-family="Arial" font-size="11.00">basic_numeric_newtype</text>
<text text-anchor="start" x="180.75" y="-684.05" font-family="Arial" font-size="11.00">&lt; scale&lt; S, D, f32 &gt;,</text>
<text text-anchor="middle" x="238.5" y="-672.8" font-family="Arial" font-size="11.00"> f32 &gt;</text>
</a>
</g>
</g>
<!-- Node0&#45;&gt;Node3 -->
<g id="edge3_Node000000_Node000003" class="edge">
<title>Node0&#45;&gt;Node3</title>
<g id="a_edge3_Node000000_Node000003"><a xlink:title=" ">
<path fill="none" stroke="#63b8ff" d="M99.54,-754.75C120.11,-744.5 148,-730.71 172.75,-718.88 178.67,-716.04 184.92,-713.1 191.1,-710.21"/>
<polygon fill="#63b8ff" stroke="#63b8ff" points="98.25,-751.49 90.86,-759.08 101.37,-757.75 98.25,-751.49"/>
</a>
</g>
</g>
<!-- Node4 -->
<g id="Node000004" class="node">
<title>Node4</title>
<g id="a_Node000004"><a xlink:href="d8/d03/structfloppy_1_1math_1_1detail_1_1basic__numeric__newtype.html" target="_top" xlink:title=" ">
<polygon fill="white" stroke="#666666" points="304.25,-758.12 172.75,-758.12 172.75,-727.62 304.25,-727.62 304.25,-758.12"/>
<text text-anchor="start" x="180.75" y="-743.67" font-family="Arial" font-size="11.00">basic_numeric_newtype</text>
<text text-anchor="middle" x="238.5" y="-732.42" font-family="Arial" font-size="11.00">&lt; T, U &gt;</text>
</a>
</g>
</g>
<!-- Node0&#45;&gt;Node4 -->
<g id="edge4_Node000000_Node000004" class="edge">
<title>Node0&#45;&gt;Node4</title>
<g id="a_edge4_Node000000_Node000004"><a xlink:title=" ">
<path fill="none" stroke="#63b8ff" d="M143.23,-758.01C152.92,-756.46 162.79,-754.87 172.31,-753.34"/>
<polygon fill="#63b8ff" stroke="#63b8ff" points="142.79,-754.54 133.47,-759.58 143.9,-761.45 142.79,-754.54"/>
</a>
</g>
</g>
<!-- Node5 -->
<g id="Node000005" class="node">
<title>Node5</title>
<g id="a_Node000005"><a xlink:href="d8/d97/structfloppy_1_1math_1_1detail_1_1advanced__numeric__type.html" target="_top" xlink:title=" ">
<polygon fill="white" stroke="#666666" points="487.88,-809.12 354.88,-809.12 354.88,-778.62 487.88,-778.62 487.88,-809.12"/>
<text text-anchor="start" x="362.88" y="-794.67" font-family="Arial" font-size="11.00">advanced_numeric_type</text>
<text text-anchor="middle" x="421.38" y="-783.42" font-family="Arial" font-size="11.00">&lt; angle&lt; f32 &gt;, f32 &gt;</text>
</a>
</g>
</g>
<!-- Node4&#45;&gt;Node5 -->
<g id="edge5_Node000004_Node000005" class="edge">
<title>Node4&#45;&gt;Node5</title>
<g id="a_edge5_Node000004_Node000005"><a xlink:title=" ">
<path fill="none" stroke="#63b8ff" d="M306.09,-761.65C325.4,-767.09 346.26,-772.98 364.81,-778.21"/>
<polygon fill="#63b8ff" stroke="#63b8ff" points="307.28,-758.35 296.7,-759 305.38,-765.09 307.28,-758.35"/>
</a>
</g>
</g>
<!-- Node6 -->
<g id="Node000006" class="node">
<title>Node6</title>
<g id="a_Node000006"><a xlink:href="d8/d97/structfloppy_1_1math_1_1detail_1_1advanced__numeric__type.html" target="_top" xlink:title=" ">
<polygon fill="white" stroke="#666666" points="487.88,-760.12 354.88,-760.12 354.88,-729.62 487.88,-729.62 487.88,-760.12"/>
<text text-anchor="start" x="362.88" y="-745.67" font-family="Arial" font-size="11.00">advanced_numeric_type</text>
<text text-anchor="middle" x="421.38" y="-734.42" font-family="Arial" font-size="11.00">&lt; T, U &gt;</text>
</a>
</g>
</g>
<!-- Node4&#45;&gt;Node6 -->
<g id="edge6_Node000004_Node000006" class="edge">
<title>Node4&#45;&gt;Node6</title>
<g id="a_edge6_Node000004_Node000006"><a xlink:title=" ">
<path fill="none" stroke="#63b8ff" d="M315.71,-743.72C328.57,-743.86 341.82,-744.01 354.39,-744.15"/>
<polygon fill="#63b8ff" stroke="#63b8ff" points="316.1,-740.22 306.06,-743.61 316.02,-747.22 316.1,-740.22"/>
</a>
</g>
</g>
<!-- Node12 -->
<g id="Node000012" class="node">
<title>Node12</title>
<g id="a_Node000012"><a xlink:href="dd/dd1/classfloppy_1_1math_1_1length.html" target="_top" xlink:title="A one&#45;dimensional distance with associated unit of measurement.">
<polygon fill="white" stroke="#666666" points="463.88,-674.5 378.88,-674.5 378.88,-655.25 463.88,-655.25 463.88,-674.5"/>
<text text-anchor="middle" x="421.38" y="-660.05" font-family="Arial" font-size="11.00">length&lt; U, T &gt;</text>
</a>
</g>
</g>
<!-- Node4&#45;&gt;Node12 -->
<g id="edge8_Node000004_Node000012" class="edge">
<title>Node4&#45;&gt;Node12</title>
<g id="a_edge8_Node000004_Node000012"><a xlink:title=" ">
<path fill="none" stroke="#63b8ff" d="M298.62,-722.23C300.55,-721.16 302.43,-720.04 304.25,-718.88 323.3,-706.66 320.43,-693.79 340.25,-682.88 351.87,-676.48 365.62,-672.36 378.42,-669.7"/>
<polygon fill="#63b8ff" stroke="#63b8ff" points="297.39,-718.94 290.03,-726.56 300.54,-725.19 297.39,-718.94"/>
</a>
</g>
</g>
<!-- Node13 -->
<g id="Node000013" class="node">
<title>Node13</title>
<g id="a_Node000013"><a xlink:href="db/db2/structfloppy_1_1math_1_1scale.html" target="_top" xlink:title="A scaling factor between two different units of measurement.">
<polygon fill="white" stroke="#666666" points="468.75,-711.5 374,-711.5 374,-692.25 468.75,-692.25 468.75,-711.5"/>
<text text-anchor="middle" x="421.38" y="-697.05" font-family="Arial" font-size="11.00">scale&lt; S, D, T &gt;</text>
</a>
</g>
</g>
<!-- Node4&#45;&gt;Node13 -->
<g id="edge9_Node000004_Node000013" class="edge">
<title>Node4&#45;&gt;Node13</title>
<g id="a_edge9_Node000004_Node000013"><a xlink:title=" ">
<path fill="none" stroke="#63b8ff" d="M315.53,-725.64C336.13,-720.97 357.75,-716.07 375.97,-711.94"/>
<polygon fill="#63b8ff" stroke="#63b8ff" points="315,-722.17 306.02,-727.8 316.55,-729 315,-722.17"/>
</a>
</g>
</g>
<!-- Node7 -->
<g id="Node000007" class="node">
<title>Node7</title>
<g id="a_Node000007"><a xlink:href="de/d4d/structfloppy_1_1math_1_1angle.html" target="_top" xlink:title="Newtype describing an angle.">
<polygon fill="white" stroke="#666666" points="621.25,-695.5 552.75,-695.5 552.75,-676.25 621.25,-676.25 621.25,-695.5"/>
<text text-anchor="middle" x="587" y="-681.05" font-family="Arial" font-size="11.00">angle&lt; T &gt;</text>
</a>
</g>
</g>
<!-- Node6&#45;&gt;Node7 -->
<g id="edge7_Node000006_Node000007" class="edge">
<title>Node6&#45;&gt;Node7</title>
<g id="a_edge7_Node000006_Node000007"><a xlink:title=" ">
<path fill="none" stroke="#63b8ff" d="M488.1,-725.8C492.99,-724.2 497.84,-722.55 502.5,-720.88 523.66,-713.29 547.24,-703.26 563.92,-695.88"/>
<polygon fill="#63b8ff" stroke="#63b8ff" points="487.26,-722.4 478.81,-728.78 489.4,-729.06 487.26,-722.4"/>
</a>
</g>
</g>
<!-- Node14 -->
<g id="Node000014" class="node">
<title>Node14</title>
<g id="a_Node000014"><a xlink:href="d5/d4f/structfloppy_1_1traits_1_1detail_1_1formattable__base.html" target="_top" xlink:title="Interface, providing to_string method.">
<polygon fill="white" stroke="#666666" points="131.88,-295.5 4.87,-295.5 4.87,-276.25 131.88,-276.25 131.88,-295.5"/>
<text text-anchor="middle" x="68.38" y="-281.05" font-family="Arial" font-size="11.00">formattable_base&lt; C &gt;</text>
</a>
</g>
</g>
<!-- Node15 -->
<g id="Node000015" class="node">
<title>Node15</title>
<g id="a_Node000015"><a xlink:href="db/d59/structfloppy_1_1traits_1_1formattable.html" target="_top" xlink:title=" ">
<polygon fill="white" stroke="#666666" points="291.12,-442.12 185.88,-442.12 185.88,-411.62 291.12,-411.62 291.12,-442.12"/>
<text text-anchor="start" x="193.88" y="-427.68" font-family="Arial" font-size="11.00">formattable&lt; color,</text>
<text text-anchor="middle" x="238.5" y="-416.43" font-family="Arial" font-size="11.00"> char &gt;</text>
</a>
</g>
</g>
<!-- Node14&#45;&gt;Node15 -->
<g id="edge10_Node000014_Node000015" class="edge">
<title>Node14&#45;&gt;Node15</title>
<g id="a_edge10_Node000014_Node000015"><a xlink:title=" ">
<path fill="none" stroke="#63b8ff" d="M81.98,-304.95C99.58,-330.26 133.77,-374.88 172.75,-401.88 177.8,-405.37 183.41,-408.47 189.16,-411.19"/>
<polygon fill="#63b8ff" stroke="#63b8ff" points="85.05,-303.24 76.53,-296.94 79.26,-307.18 85.05,-303.24"/>
</a>
</g>
</g>
<!-- Node17 -->
<g id="Node000017" class="node">
<title>Node17</title>
<g id="a_Node000017"><a xlink:href="db/d59/structfloppy_1_1traits_1_1formattable.html" target="_top" xlink:title=" ">
<polygon fill="white" stroke="#666666" points="290,-393.12 187,-393.12 187,-362.62 290,-362.62 290,-393.12"/>
<text text-anchor="start" x="195" y="-378.68" font-family="Arial" font-size="11.00">formattable&lt; color</text>
<text text-anchor="middle" x="238.5" y="-367.43" font-family="Arial" font-size="11.00">::hsl_t, char &gt;</text>
</a>
</g>
</g>
<!-- Node14&#45;&gt;Node17 -->
<g id="edge12_Node000014_Node000017" class="edge">
<title>Node14&#45;&gt;Node17</title>
<g id="a_edge12_Node000014_Node000017"><a xlink:title=" ">
<path fill="none" stroke="#63b8ff" d="M91.97,-302.47C112.38,-316.99 143.61,-338.01 172.75,-352.88 179.19,-356.16 186.17,-359.28 193.08,-362.13"/>
<polygon fill="#63b8ff" stroke="#63b8ff" points="94.26,-299.81 84.1,-296.81 90.17,-305.49 94.26,-299.81"/>
</a>
</g>
</g>
<!-- Node19 -->
<g id="Node000019" class="node">
<title>Node19</title>
<g id="a_Node000019"><a xlink:href="db/d59/structfloppy_1_1traits_1_1formattable.html" target="_top" xlink:title=" ">
<polygon fill="white" stroke="#666666" points="290,-344.12 187,-344.12 187,-313.62 290,-313.62 290,-344.12"/>
<text text-anchor="start" x="195" y="-329.68" font-family="Arial" font-size="11.00">formattable&lt; color</text>
<text text-anchor="middle" x="238.5" y="-318.43" font-family="Arial" font-size="11.00">::hsla_t, char &gt;</text>
</a>
</g>
</g>
<!-- Node14&#45;&gt;Node19 -->
<g id="edge14_Node000014_Node000019" class="edge">
<title>Node14&#45;&gt;Node19</title>
<g id="a_edge14_Node000014_Node000019"><a xlink:title=" ">
<path fill="none" stroke="#63b8ff" d="M119.8,-298.77C140.9,-304.17 165.38,-310.43 186.53,-315.84"/>
<polygon fill="#63b8ff" stroke="#63b8ff" points="120.81,-295.42 110.26,-296.33 119.08,-302.2 120.81,-295.42"/>
</a>
</g>
</g>
<!-- Node21 -->
<g id="Node000021" class="node">
<title>Node21</title>
<g id="a_Node000021"><a xlink:href="db/d59/structfloppy_1_1traits_1_1formattable.html" target="_top" xlink:title=" ">
<polygon fill="white" stroke="#666666" points="291.5,-258.12 185.5,-258.12 185.5,-227.62 291.5,-227.62 291.5,-258.12"/>
<text text-anchor="start" x="193.5" y="-243.68" font-family="Arial" font-size="11.00">formattable&lt; angle</text>
<text text-anchor="middle" x="238.5" y="-232.43" font-family="Arial" font-size="11.00">&lt; f32 &gt;, char &gt;</text>
</a>
</g>
</g>
<!-- Node14&#45;&gt;Node21 -->
<g id="edge16_Node000014_Node000021" class="edge">
<title>Node14&#45;&gt;Node21</title>
<g id="a_edge16_Node000014_Node000021"><a xlink:title=" ">
<path fill="none" stroke="#63b8ff" d="M119.9,-272.95C140.55,-267.67 164.44,-261.56 185.27,-256.23"/>
<polygon fill="#63b8ff" stroke="#63b8ff" points="119.08,-269.55 110.26,-275.42 120.81,-276.33 119.08,-269.55"/>
</a>
</g>
</g>
<!-- Node22 -->
<g id="Node000022" class="node">
<title>Node22</title>
<g id="a_Node000022"><a xlink:href="db/d59/structfloppy_1_1traits_1_1formattable.html" target="_top" xlink:title=" ">
<polygon fill="white" stroke="#666666" points="299.75,-295.5 177.25,-295.5 177.25,-276.25 299.75,-276.25 299.75,-295.5"/>
<text text-anchor="middle" x="238.5" y="-281.05" font-family="Arial" font-size="11.00">formattable&lt; T, char &gt;</text>
</a>
</g>
</g>
<!-- Node14&#45;&gt;Node22 -->
<g id="edge17_Node000014_Node000022" class="edge">
<title>Node14&#45;&gt;Node22</title>
<g id="a_edge17_Node000014_Node000022"><a xlink:title=" ">
<path fill="none" stroke="#63b8ff" d="M143.47,-285.88C154.61,-285.88 165.98,-285.88 176.8,-285.88"/>
<polygon fill="#63b8ff" stroke="#63b8ff" points="143.49,-282.38 133.49,-285.88 143.49,-289.38 143.49,-282.38"/>
</a>
</g>
</g>
<!-- Node27 -->
<g id="Node000027" class="node">
<title>Node27</title>
<g id="a_Node000027"><a xlink:href="db/d59/structfloppy_1_1traits_1_1formattable.html" target="_top" xlink:title=" ">
<polygon fill="white" stroke="#666666" points="293,-209.75 184,-209.75 184,-168 293,-168 293,-209.75"/>
<text text-anchor="start" x="192" y="-195.3" font-family="Arial" font-size="11.00">formattable&lt; length</text>
<text text-anchor="start" x="192" y="-184.05" font-family="Arial" font-size="11.00">&lt; default_unit, f32</text>
<text text-anchor="middle" x="238.5" y="-172.8" font-family="Arial" font-size="11.00"> &gt;, char &gt;</text>
</a>
</g>
</g>
<!-- Node14&#45;&gt;Node27 -->
<g id="edge22_Node000014_Node000027" class="edge">
<title>Node14&#45;&gt;Node27</title>
<g id="a_edge22_Node000014_Node000027"><a xlink:title=" ">
<path fill="none" stroke="#63b8ff" d="M92.56,-269.5C113.14,-255.29 144.27,-234.6 172.75,-218.88 178.06,-215.94 183.72,-213.03 189.38,-210.24"/>
<polygon fill="#63b8ff" stroke="#63b8ff" points="90.81,-266.45 84.61,-275.03 94.81,-272.19 90.81,-266.45"/>
</a>
</g>
</g>
<!-- Node28 -->
<g id="Node000028" class="node">
<title>Node28</title>
<g id="a_Node000028"><a xlink:href="db/d59/structfloppy_1_1traits_1_1formattable.html" target="_top" xlink:title=" ">
<polygon fill="white" stroke="#666666" points="296,-149.75 181,-149.75 181,-108 296,-108 296,-149.75"/>
<text text-anchor="start" x="189" y="-135.3" font-family="Arial" font-size="11.00">formattable&lt; point2d</text>
<text text-anchor="start" x="189" y="-124.05" font-family="Arial" font-size="11.00">&lt; default_unit, f32 &gt;</text>
<text text-anchor="middle" x="238.5" y="-112.8" font-family="Arial" font-size="11.00">, char &gt;</text>
</a>
</g>
</g>
<!-- Node14&#45;&gt;Node28 -->
<g id="edge23_Node000014_Node000028" class="edge">
<title>Node14&#45;&gt;Node28</title>
<g id="a_edge23_Node000014_Node000028"><a xlink:title=" ">
<path fill="none" stroke="#63b8ff" d="M81.09,-266.49C98.3,-239.38 132.72,-189.99 172.75,-158.88 176.76,-155.76 181.15,-152.87 185.69,-150.22"/>
<polygon fill="#63b8ff" stroke="#63b8ff" points="78.28,-264.38 75.98,-274.73 84.23,-268.08 78.28,-264.38"/>
</a>
</g>
</g>
<!-- Node29 -->
<g id="Node000029" class="node">
<title>Node29</title>
<g id="a_Node000029"><a xlink:href="db/d59/structfloppy_1_1traits_1_1formattable.html" target="_top" xlink:title=" ">
<polygon fill="white" stroke="#666666" points="296,-90.12 181,-90.12 181,-59.62 296,-59.62 296,-90.12"/>
<text text-anchor="start" x="189" y="-75.67" font-family="Arial" font-size="11.00">formattable&lt; scale</text>
<text text-anchor="middle" x="238.5" y="-64.42" font-family="Arial" font-size="11.00">&lt; S, D, f32 &gt;, char &gt;</text>
</a>
</g>
</g>
<!-- Node14&#45;&gt;Node29 -->
<g id="edge24_Node000014_Node000029" class="edge">
<title>Node14&#45;&gt;Node29</title>
<g id="a_edge24_Node000014_Node000029"><a xlink:title=" ">
<path fill="none" stroke="#63b8ff" d="M75.37,-265.48C87.54,-227.46 118.7,-145.37 172.75,-98.88 176.39,-95.75 180.47,-93.01 184.76,-90.62"/>
<polygon fill="#63b8ff" stroke="#63b8ff" points="72.11,-264.15 72.52,-274.73 78.81,-266.21 72.11,-264.15"/>
</a>
</g>
</g>
<!-- Node30 -->
<g id="Node000030" class="node">
<title>Node30</title>
<g id="a_Node000030"><a xlink:href="db/d59/structfloppy_1_1traits_1_1formattable.html" target="_top" xlink:title=" ">
<polygon fill="white" stroke="#666666" points="293.75,-41.75 183.25,-41.75 183.25,0 293.75,0 293.75,-41.75"/>
<text text-anchor="start" x="191.25" y="-27.3" font-family="Arial" font-size="11.00">formattable&lt; size2d</text>
<text text-anchor="start" x="191.25" y="-16.05" font-family="Arial" font-size="11.00">&lt; default_unit, f32</text>
<text text-anchor="middle" x="238.5" y="-4.8" font-family="Arial" font-size="11.00"> &gt;, char &gt;</text>
</a>
</g>
</g>
<!-- Node14&#45;&gt;Node30 -->
<g id="edge25_Node000014_Node000030" class="edge">
<title>Node14&#45;&gt;Node30</title>
<g id="a_edge25_Node000014_Node000030"><a xlink:title=" ">
<path fill="none" stroke="#63b8ff" d="M73.38,-264.81C82.93,-219.93 110.98,-113.86 172.75,-50.88 175.87,-47.69 179.4,-44.81 183.15,-42.21"/>
<polygon fill="#63b8ff" stroke="#63b8ff" points="69.98,-264 71.43,-274.5 76.84,-265.39 69.98,-264"/>
</a>
</g>
</g>
<!-- Node31 -->
<g id="Node000031" class="node">
<title>Node31</title>
<g id="a_Node000031"><a xlink:href="db/d59/structfloppy_1_1traits_1_1formattable.html" target="_top" xlink:title=" ">
<polygon fill="white" stroke="#666666" points="299,-617.75 178,-617.75 178,-576 299,-576 299,-617.75"/>
<text text-anchor="start" x="186" y="-603.3" font-family="Arial" font-size="11.00">formattable&lt; vector2d</text>
<text text-anchor="start" x="186" y="-592.05" font-family="Arial" font-size="11.00">&lt; default_unit, f32 &gt;</text>
<text text-anchor="middle" x="238.5" y="-580.8" font-family="Arial" font-size="11.00">, char &gt;</text>
</a>
</g>
</g>
<!-- Node14&#45;&gt;Node31 -->
<g id="edge26_Node000014_Node000031" class="edge">
<title>Node14&#45;&gt;Node31</title>
<g id="a_edge26_Node000014_Node000031"><a xlink:title=" ">
<path fill="none" stroke="#63b8ff" d="M71.65,-307.19C78.18,-358.3 101.3,-489.36 172.75,-566.88 175.69,-570.06 179.03,-572.94 182.62,-575.53"/>
<polygon fill="#63b8ff" stroke="#63b8ff" points="75.16,-307.02 70.51,-297.5 68.21,-307.84 75.16,-307.02"/>
</a>
</g>
</g>
<!-- Node8 -->
<g id="Node000008" class="node">
<title>Node8</title>
<g id="a_Node000008"><a xlink:href="db/d59/structfloppy_1_1traits_1_1formattable.html" target="_top" xlink:title="Allows type to be converted to string and printed via standard streams or fmt.">
<polygon fill="white" stroke="#666666" points="293.38,-557.5 183.62,-557.5 183.62,-538.25 293.38,-538.25 293.38,-557.5"/>
<text text-anchor="middle" x="238.5" y="-543.05" font-family="Arial" font-size="11.00">formattable&lt; T, C &gt;</text>
</a>
</g>
</g>
<!-- Node14&#45;&gt;Node8 -->
<g id="edge27_Node000014_Node000008" class="edge">
<title>Node14&#45;&gt;Node8</title>
<g id="a_edge27_Node000014_Node000008"><a xlink:title=" ">
<path fill="none" stroke="#63b8ff" d="M81.48,-305.61C100.61,-336.68 139.08,-398.83 172.75,-450.88 193.53,-483.01 218.92,-520.56 230.79,-538.02"/>
<polygon fill="#63b8ff" stroke="#63b8ff" points="84.58,-303.96 76.36,-297.27 78.61,-307.63 84.58,-303.96"/>
</a>
</g>
</g>
<!-- Node16 -->
<g id="Node000016" class="node">
<title>Node16</title>
<g id="a_Node000016"><a xlink:href="de/da8/classfloppy_1_1gfx_1_1color.html" target="_top" xlink:title="Class representing a color.">
<polygon fill="white" stroke="#666666" points="441,-418.5 401.75,-418.5 401.75,-399.25 441,-399.25 441,-418.5"/>
<text text-anchor="middle" x="421.38" y="-404.05" font-family="Arial" font-size="11.00">color</text>
</a>
</g>
</g>
<!-- Node15&#45;&gt;Node16 -->
<g id="edge11_Node000015_Node000016" class="edge">
<title>Node15&#45;&gt;Node16</title>
<g id="a_edge11_Node000015_Node000016"><a xlink:title=" ">
<path fill="none" stroke="#63b8ff" d="M302.43,-420.61C337.36,-417.14 378.35,-413.06 401.65,-410.74"/>
<polygon fill="#63b8ff" stroke="#63b8ff" points="302.44,-417.09 292.84,-421.57 303.14,-424.06 302.44,-417.09"/>
</a>
</g>
</g>
<!-- Node18 -->
<g id="Node000018" class="node">
<title>Node18</title>
<g id="a_Node000018"><a xlink:href="dc/df5/structfloppy_1_1gfx_1_1color_1_1hsl__t.html" target="_top" xlink:title="HSL color representation.">
<polygon fill="white" stroke="#666666" points="455.25,-381.5 387.5,-381.5 387.5,-362.25 455.25,-362.25 455.25,-381.5"/>
<text text-anchor="middle" x="421.38" y="-367.05" font-family="Arial" font-size="11.00">color::hsl_t</text>
</a>
</g>
</g>
<!-- Node17&#45;&gt;Node18 -->
<g id="edge13_Node000017_Node000018" class="edge">
<title>Node17&#45;&gt;Node18</title>
<g id="a_edge13_Node000017_Node000018"><a xlink:title=" ">
<path fill="none" stroke="#63b8ff" d="M301.56,-375.82C330.33,-374.86 363.35,-373.77 387.27,-372.97"/>
<polygon fill="#63b8ff" stroke="#63b8ff" points="301.76,-372.31 291.88,-376.14 301.99,-379.3 301.76,-372.31"/>
</a>
</g>
</g>
<!-- Node20 -->
<g id="Node000020" class="node">
<title>Node20</title>
<g id="a_Node000020"><a xlink:href="d2/d0e/structfloppy_1_1gfx_1_1color_1_1hsla__t.html" target="_top" xlink:title="HSLA color representation.">
<polygon fill="white" stroke="#666666" points="458.25,-338.5 384.5,-338.5 384.5,-319.25 458.25,-319.25 458.25,-338.5"/>
<text text-anchor="middle" x="421.38" y="-324.05" font-family="Arial" font-size="11.00">color::hsla_t</text>
</a>
</g>
</g>
<!-- Node19&#45;&gt;Node20 -->
<g id="edge15_Node000019_Node000020" class="edge">
<title>Node19&#45;&gt;Node20</title>
<g id="a_edge15_Node000019_Node000020"><a xlink:title=" ">
<path fill="none" stroke="#63b8ff" d="M301.87,-328.88C329.36,-328.88 360.68,-328.88 384.21,-328.88"/>
<polygon fill="#63b8ff" stroke="#63b8ff" points="301.88,-325.38 291.88,-328.88 301.88,-332.38 301.88,-325.38"/>
</a>
</g>
</g>
<!-- Node23 -->
<g id="Node000023" class="node">
<title>Node23</title>
<g id="a_Node000023"><a xlink:href="d7/dd8/structfloppy_1_1math_1_1detail_1_1basic__two__dimensional__type.html" target="_top" xlink:title=" ">
<polygon fill="white" stroke="#666666" points="484.5,-301.12 358.25,-301.12 358.25,-270.62 484.5,-270.62 484.5,-301.12"/>
<text text-anchor="start" x="366.25" y="-286.68" font-family="Arial" font-size="11.00">basic_two_dimensional</text>
<text text-anchor="middle" x="421.38" y="-275.43" font-family="Arial" font-size="11.00">_type&lt; T, U, N &gt;</text>
</a>
</g>
</g>
<!-- Node22&#45;&gt;Node23 -->
<g id="edge18_Node000022_Node000023" class="edge">
<title>Node22&#45;&gt;Node23</title>
<g id="a_edge18_Node000022_Node000023"><a xlink:title=" ">
<path fill="none" stroke="#63b8ff" d="M311.3,-285.88C326.73,-285.88 342.91,-285.88 357.95,-285.88"/>
<polygon fill="#63b8ff" stroke="#63b8ff" points="311.75,-282.38 301.75,-285.88 311.75,-289.38 311.75,-282.38"/>
</a>
</g>
</g>
<!-- Node24 -->
<g id="Node000024" class="node">
<title>Node24</title>
<g id="a_Node000024"><a xlink:href="db/d35/classfloppy_1_1math_1_1point2d.html" target="_top" xlink:title="A two&#45;dimensional point tagged with a unit.">
<polygon fill="white" stroke="#666666" points="632.5,-332.5 541.5,-332.5 541.5,-313.25 632.5,-313.25 632.5,-332.5"/>
<text text-anchor="middle" x="587" y="-318.05" font-family="Arial" font-size="11.00">point2d&lt; U, T &gt;</text>
</a>
</g>
</g>
<!-- Node23&#45;&gt;Node24 -->
<g id="edge19_Node000023_Node000024" class="edge">
<title>Node23&#45;&gt;Node24</title>
<g id="a_edge19_Node000023_Node000024"><a xlink:title=" ">
<path fill="none" stroke="#63b8ff" d="M495.5,-302.41C511.23,-305.97 527.4,-309.62 541.64,-312.84"/>
<polygon fill="#63b8ff" stroke="#63b8ff" points="496.7,-299.09 486.18,-300.3 495.16,-305.92 496.7,-299.09"/>
</a>
</g>
</g>
<!-- Node25 -->
<g id="Node000025" class="node">
<title>Node25</title>
<g id="a_Node000025"><a xlink:href="d0/d22/classfloppy_1_1math_1_1size2d.html" target="_top" xlink:title="A two&#45;dimensional size2d tagged with a unit.">
<polygon fill="white" stroke="#666666" points="630.25,-295.5 543.75,-295.5 543.75,-276.25 630.25,-276.25 630.25,-295.5"/>
<text text-anchor="middle" x="587" y="-281.05" font-family="Arial" font-size="11.00">size2d&lt; U, T &gt;</text>
</a>
</g>
</g>
<!-- Node23&#45;&gt;Node25 -->
<g id="edge20_Node000023_Node000025" class="edge">
<title>Node23&#45;&gt;Node25</title>
<g id="a_edge20_Node000023_Node000025"><a xlink:title=" ">
<path fill="none" stroke="#63b8ff" d="M495.91,-285.88C512.26,-285.88 529.04,-285.88 543.63,-285.88"/>
<polygon fill="#63b8ff" stroke="#63b8ff" points="496.21,-282.38 486.21,-285.88 496.21,-289.38 496.21,-282.38"/>
</a>
</g>
</g>
<!-- Node26 -->
<g id="Node000026" class="node">
<title>Node26</title>
<g id="a_Node000026"><a xlink:href="d4/d33/classfloppy_1_1math_1_1vector2d.html" target="_top" xlink:title="A two&#45;dimensional vector tagged with a unit.">
<polygon fill="white" stroke="#666666" points="635.5,-258.5 538.5,-258.5 538.5,-239.25 635.5,-239.25 635.5,-258.5"/>
<text text-anchor="middle" x="587" y="-244.05" font-family="Arial" font-size="11.00">vector2d&lt; U, T &gt;</text>
</a>
</g>
</g>
<!-- Node23&#45;&gt;Node26 -->
<g id="edge21_Node000023_Node000026" class="edge">
<title>Node23&#45;&gt;Node26</title>
<g id="a_edge21_Node000023_Node000026"><a xlink:title=" ">
<path fill="none" stroke="#63b8ff" d="M495.5,-269.34C511.23,-265.78 527.4,-262.13 541.64,-258.91"/>
<polygon fill="#63b8ff" stroke="#63b8ff" points="495.16,-265.83 486.18,-271.45 496.7,-272.66 495.16,-265.83"/>
</a>
</g>
</g>
<!-- Node8&#45;&gt;Node7 -->
<g id="edge31_Node000008_Node000007" class="edge">
<title>Node8&#45;&gt;Node7</title>
<g id="a_edge31_Node000008_Node000007"><a xlink:title=" ">
<path fill="none" stroke="#63b8ff" d="M296.22,-562.39C299,-563.76 301.7,-565.25 304.25,-566.88 324.69,-579.92 319.45,-595.4 340.25,-607.88 403.77,-645.96 432.64,-621.29 502.5,-645.88 525.85,-654.09 551.32,-666.9 567.92,-675.8"/>
<polygon fill="#63b8ff" stroke="#63b8ff" points="297.81,-559.26 287.24,-558.55 295.06,-565.7 297.81,-559.26"/>
</a>
</g>
</g>
<!-- Node8&#45;&gt;Node12 -->
<g id="edge32_Node000008_Node000012" class="edge">
<title>Node8&#45;&gt;Node12</title>
<g id="a_edge32_Node000008_Node000012"><a xlink:title=" ">
<path fill="none" stroke="#63b8ff" d="M299.6,-563.37C301.22,-564.46 302.77,-565.63 304.25,-566.88 332.18,-590.48 312.38,-617.19 340.25,-640.88 350.98,-650 365.08,-655.65 378.46,-659.16"/>
<polygon fill="#63b8ff" stroke="#63b8ff" points="301.54,-560.44 291.09,-558.67 298.15,-566.57 301.54,-560.44"/>
</a>
</g>
</g>
<!-- Node8&#45;&gt;Node13 -->
<g id="edge33_Node000008_Node000013" class="edge">
<title>Node8&#45;&gt;Node13</title>
<g id="a_edge33_Node000008_Node000013"><a xlink:title=" ">
<path fill="none" stroke="#63b8ff" d="M301.01,-563.98C302.13,-564.89 303.22,-565.86 304.25,-566.88 342.97,-605.09 300.32,-646.92 340.25,-683.88 349.35,-692.3 361.52,-697.08 373.62,-699.71"/>
<polygon fill="#63b8ff" stroke="#63b8ff" points="303.2,-561.23 292.89,-558.75 299.41,-567.11 303.2,-561.23"/>
</a>
</g>
</g>
<!-- Node9 -->
<g id="Node000009" class="node">
<title>Node9</title>
<g id="a_Node000009"><a xlink:href="d7/dd8/structfloppy_1_1math_1_1detail_1_1basic__two__dimensional__type.html" target="_top" xlink:title=" ">
<polygon fill="white" stroke="#666666" points="502.5,-478.75 340.25,-478.75 340.25,-437 502.5,-437 502.5,-478.75"/>
<text text-anchor="start" x="348.25" y="-464.3" font-family="Arial" font-size="11.00">basic_two_dimensional</text>
<text text-anchor="start" x="348.25" y="-453.05" font-family="Arial" font-size="11.00">_type&lt; point2d&lt; default</text>
<text text-anchor="middle" x="421.38" y="-441.8" font-family="Arial" font-size="11.00">_unit, f32 &gt;, default_unit, f32 &gt;</text>
</a>
</g>
</g>
<!-- Node8&#45;&gt;Node9 -->
<g id="edge28_Node000008_Node000009" class="edge">
<title>Node8&#45;&gt;Node9</title>
<g id="a_edge28_Node000008_Node000009"><a xlink:title=" ">
<path fill="none" stroke="#63b8ff" d="M263.94,-531.64C283.93,-518.77 313.21,-500.86 340.25,-487.88 346.54,-484.85 353.23,-481.93 359.94,-479.17"/>
<polygon fill="#63b8ff" stroke="#63b8ff" points="262.13,-528.64 255.66,-537.03 265.95,-534.5 262.13,-528.64"/>
</a>
</g>
</g>
<!-- Node10 -->
<g id="Node000010" class="node">
<title>Node10</title>
<g id="a_Node000010"><a xlink:href="d7/dd8/structfloppy_1_1math_1_1detail_1_1basic__two__dimensional__type.html" target="_top" xlink:title=" ">
<polygon fill="white" stroke="#666666" points="502.5,-598.75 340.25,-598.75 340.25,-557 502.5,-557 502.5,-598.75"/>
<text text-anchor="start" x="348.25" y="-584.3" font-family="Arial" font-size="11.00">basic_two_dimensional</text>
<text text-anchor="start" x="348.25" y="-573.05" font-family="Arial" font-size="11.00">_type&lt; size2d&lt; default</text>
<text text-anchor="middle" x="421.38" y="-561.8" font-family="Arial" font-size="11.00">_unit, f32 &gt;, default_unit, f32 &gt;</text>
</a>
</g>
</g>
<!-- Node8&#45;&gt;Node10 -->
<g id="edge29_Node000008_Node000010" class="edge">
<title>Node8&#45;&gt;Node10</title>
<g id="a_edge29_Node000008_Node000010"><a xlink:title=" ">
<path fill="none" stroke="#63b8ff" d="M304.95,-558.73C316.34,-560.62 328.32,-562.61 340.06,-564.55"/>
<polygon fill="#63b8ff" stroke="#63b8ff" points="305.7,-555.31 295.26,-557.12 304.55,-562.21 305.7,-555.31"/>
</a>
</g>
</g>
<!-- Node11 -->
<g id="Node000011" class="node">
<title>Node11</title>
<g id="a_Node000011"><a xlink:href="d7/dd8/structfloppy_1_1math_1_1detail_1_1basic__two__dimensional__type.html" target="_top" xlink:title=" ">
<polygon fill="white" stroke="#666666" points="502.5,-538.75 340.25,-538.75 340.25,-497 502.5,-497 502.5,-538.75"/>
<text text-anchor="start" x="348.25" y="-524.3" font-family="Arial" font-size="11.00">basic_two_dimensional</text>
<text text-anchor="start" x="348.25" y="-513.05" font-family="Arial" font-size="11.00">_type&lt; vector2d&lt; default</text>
<text text-anchor="middle" x="421.38" y="-501.8" font-family="Arial" font-size="11.00">_unit, f32 &gt;, default_unit, f32 &gt;</text>
</a>
</g>
</g>
<!-- Node8&#45;&gt;Node11 -->
<g id="edge30_Node000008_Node000011" class="edge">
<title>Node8&#45;&gt;Node11</title>
<g id="a_edge30_Node000008_Node000011"><a xlink:title=" ">
<path fill="none" stroke="#63b8ff" d="M304.95,-537.02C316.34,-535.13 328.32,-533.14 340.06,-531.2"/>
<polygon fill="#63b8ff" stroke="#63b8ff" points="304.55,-533.54 295.26,-538.63 305.7,-540.44 304.55,-533.54"/>
</a>
</g>
</g>
</g>
</svg>
