<?xml version="1.0" encoding="UTF-8" standalone="no"?>
<!DOCTYPE svg PUBLIC "-//W3C//DTD SVG 1.1//EN"
 "http://www.w3.org/Graphics/SVG/1.1/DTD/svg11.dtd">
<!-- Generated by graphviz version 10.0.1 (0)
 -->
<!-- Title: Graphical Class Hierarchy Pages: 1 -->
<svg width="432pt" height="357pt"
 viewBox="0.00 0.00 431.75 356.50" xmlns="http://www.w3.org/2000/svg" xmlns:xlink="http://www.w3.org/1999/xlink">
<g id="graph0" class="graph" transform="scale(1 1) rotate(0) translate(4 352.5)">
<title>Graphical Class Hierarchy</title>
<!-- Node0 -->
<g id="Node000000" class="node">
<title>Node0</title>
<g id="a_Node000000"><a xlink:href="d2/d59/structfloppy_1_1math_1_1detail_1_1default__ordering.html" target="_top" xlink:title=" ">
<polygon fill="white" stroke="#666666" points="123.62,-271.88 3.38,-271.88 3.38,-252.62 123.62,-252.62 123.62,-271.88"/>
<text text-anchor="middle" x="63.5" y="-257.43" font-family="Arial" font-size="11.00">default_ordering&lt; T &gt;</text>
</a>
</g>
</g>
<!-- Node1 -->
<g id="Node000001" class="node">
<title>Node1</title>
<g id="a_Node000001"><a xlink:href="dd/d8c/structfloppy_1_1math_1_1detail_1_1default__equality.html" target="_top" xlink:title=" ">
<polygon fill="white" stroke="#666666" points="291.5,-348.5 164.5,-348.5 164.5,-318 291.5,-318 291.5,-348.5"/>
<text text-anchor="start" x="172.5" y="-334.05" font-family="Arial" font-size="11.00">default_equality&lt; angle</text>
<text text-anchor="middle" x="228" y="-322.8" font-family="Arial" font-size="11.00">&lt; f32 &gt; &gt;</text>
</a>
</g>
</g>
<!-- Node0&#45;&gt;Node1 -->
<g id="edge1_Node000000_Node000001" class="edge">
<title>Node0&#45;&gt;Node1</title>
<g id="a_edge1_Node000000_Node000001"><a xlink:title=" ">
<path fill="none" stroke="#63b8ff" d="M95.39,-277.3C114.68,-286.54 140.12,-298.45 163,-308.25 170.24,-311.35 178,-314.51 185.53,-317.5"/>
<polygon fill="#63b8ff" stroke="#63b8ff" points="96.97,-274.18 86.44,-272.99 93.93,-280.48 96.97,-274.18"/>
</a>
</g>
</g>
<!-- Node2 -->
<g id="Node000002" class="node">
<title>Node2</title>
<g id="a_Node000002"><a xlink:href="dd/d8c/structfloppy_1_1math_1_1detail_1_1default__equality.html" target="_top" xlink:title=" ">
<polygon fill="white" stroke="#666666" points="293,-299.5 163,-299.5 163,-269 293,-269 293,-299.5"/>
<text text-anchor="start" x="171" y="-285.05" font-family="Arial" font-size="11.00">default_equality&lt; length</text>
<text text-anchor="middle" x="228" y="-273.8" font-family="Arial" font-size="11.00">&lt; default_unit, f32 &gt; &gt;</text>
</a>
</g>
</g>
<!-- Node0&#45;&gt;Node2 -->
<g id="edge2_Node000000_Node000002" class="edge">
<title>Node0&#45;&gt;Node2</title>
<g id="a_edge2_Node000000_Node000002"><a xlink:title=" ">
<path fill="none" stroke="#63b8ff" d="M135.46,-271.86C144.55,-273.09 153.8,-274.34 162.77,-275.55"/>
<polygon fill="#63b8ff" stroke="#63b8ff" points="135.97,-268.39 125.59,-270.52 135.03,-275.33 135.97,-268.39"/>
</a>
</g>
</g>
<!-- Node3 -->
<g id="Node000003" class="node">
<title>Node3</title>
<g id="a_Node000003"><a xlink:href="dd/d8c/structfloppy_1_1math_1_1detail_1_1default__equality.html" target="_top" xlink:title=" ">
<polygon fill="white" stroke="#666666" points="286.62,-250.88 169.38,-250.88 169.38,-231.62 286.62,-231.62 286.62,-250.88"/>
<text text-anchor="middle" x="228" y="-236.43" font-family="Arial" font-size="11.00">default_equality&lt; T &gt;</text>
</a>
</g>
</g>
<!-- Node0&#45;&gt;Node3 -->
<g id="edge3_Node000000_Node000003" class="edge">
<title>Node0&#45;&gt;Node3</title>
<g id="a_edge3_Node000000_Node000003"><a xlink:title=" ">
<path fill="none" stroke="#63b8ff" d="M135.25,-253.11C146.54,-251.65 158.1,-250.15 169.05,-248.74"/>
<polygon fill="#63b8ff" stroke="#63b8ff" points="135.06,-249.6 125.59,-254.36 135.95,-256.55 135.06,-249.6"/>
</a>
</g>
</g>
<!-- Node7 -->
<g id="Node000007" class="node">
<title>Node7</title>
<g id="a_Node000007"><a xlink:href="db/db2/structfloppy_1_1math_1_1scale.html" target="_top" xlink:title="A scaling factor between two different units of measurement.">
<polygon fill="white" stroke="#666666" points="423.75,-176.88 329,-176.88 329,-157.62 423.75,-157.62 423.75,-176.88"/>
<text text-anchor="middle" x="376.38" y="-162.43" font-family="Arial" font-size="11.00">scale&lt; S, D, T &gt;</text>
</a>
</g>
</g>
<!-- Node0&#45;&gt;Node7 -->
<g id="edge6_Node000000_Node000007" class="edge">
<title>Node0&#45;&gt;Node7</title>
<g id="a_edge6_Node000000_Node000007"><a xlink:title=" ">
<path fill="none" stroke="#63b8ff" d="M81.21,-244.07C99.36,-225.66 130.18,-198.13 163,-185.25 217.08,-164.02 284.7,-162.06 328.92,-163.72"/>
<polygon fill="#63b8ff" stroke="#63b8ff" points="78.79,-241.53 74.41,-251.17 83.85,-246.37 78.79,-241.53"/>
</a>
</g>
</g>
<!-- Node4 -->
<g id="Node000004" class="node">
<title>Node4</title>
<g id="a_Node000004"><a xlink:href="de/d4d/structfloppy_1_1math_1_1angle.html" target="_top" xlink:title="Newtype describing an angle.">
<polygon fill="white" stroke="#666666" points="410.62,-250.88 342.12,-250.88 342.12,-231.62 410.62,-231.62 410.62,-250.88"/>
<text text-anchor="middle" x="376.38" y="-236.43" font-family="Arial" font-size="11.00">angle&lt; T &gt;</text>
</a>
</g>
</g>
<!-- Node3&#45;&gt;Node4 -->
<g id="edge4_Node000003_Node000004" class="edge">
<title>Node3&#45;&gt;Node4</title>
<g id="a_edge4_Node000003_Node000004"><a xlink:title=" ">
<path fill="none" stroke="#63b8ff" d="M297.93,-241.25C313.26,-241.25 328.83,-241.25 341.96,-241.25"/>
<polygon fill="#63b8ff" stroke="#63b8ff" points="298.36,-237.75 288.36,-241.25 298.36,-244.75 298.36,-237.75"/>
</a>
</g>
</g>
<!-- Node6 -->
<g id="Node000006" class="node">
<title>Node6</title>
<g id="a_Node000006"><a xlink:href="dd/dd1/classfloppy_1_1math_1_1length.html" target="_top" xlink:title="A one&#45;dimensional distance with associated unit of measurement.">
<polygon fill="white" stroke="#666666" points="418.88,-213.88 333.88,-213.88 333.88,-194.62 418.88,-194.62 418.88,-213.88"/>
<text text-anchor="middle" x="376.38" y="-199.43" font-family="Arial" font-size="11.00">length&lt; U, T &gt;</text>
</a>
</g>
</g>
<!-- Node3&#45;&gt;Node6 -->
<g id="edge5_Node000003_Node000006" class="edge">
<title>Node3&#45;&gt;Node6</title>
<g id="a_edge5_Node000003_Node000006"><a xlink:title=" ">
<path fill="none" stroke="#63b8ff" d="M280,-228.36C298.16,-223.77 318.33,-218.67 335.43,-214.35"/>
<polygon fill="#63b8ff" stroke="#63b8ff" points="279.3,-224.92 270.47,-230.77 281.02,-231.71 279.3,-224.92"/>
</a>
</g>
</g>
<!-- Node8 -->
<g id="Node000008" class="node">
<title>Node8</title>
<g id="a_Node000008"><a xlink:href="d5/d4f/structfloppy_1_1traits_1_1detail_1_1formattable__base.html" target="_top" xlink:title="Interface, providing to_string method.">
<polygon fill="white" stroke="#666666" points="127,-105.88 0,-105.88 0,-86.62 127,-86.62 127,-105.88"/>
<text text-anchor="middle" x="63.5" y="-91.42" font-family="Arial" font-size="11.00">formattable_base&lt; C &gt;</text>
</a>
</g>
</g>
<!-- Node9 -->
<g id="Node000009" class="node">
<title>Node9</title>
<g id="a_Node000009"><a xlink:href="db/d59/structfloppy_1_1traits_1_1formattable.html" target="_top" xlink:title=" ">
<polygon fill="white" stroke="#666666" points="281,-138.5 175,-138.5 175,-108 281,-108 281,-138.5"/>
<text text-anchor="start" x="183" y="-124.05" font-family="Arial" font-size="11.00">formattable&lt; angle</text>
<text text-anchor="middle" x="228" y="-112.8" font-family="Arial" font-size="11.00">&lt; f32 &gt;, char &gt;</text>
</a>
</g>
</g>
<!-- Node8&#45;&gt;Node9 -->
<g id="edge7_Node000008_Node000009" class="edge">
<title>Node8&#45;&gt;Node9</title>
<g id="a_edge7_Node000008_Node000009"><a xlink:title=" ">
<path fill="none" stroke="#63b8ff" d="M136.26,-108.17C149.2,-110.32 162.46,-112.53 174.71,-114.56"/>
<polygon fill="#63b8ff" stroke="#63b8ff" points="136.94,-104.74 126.5,-106.55 135.79,-111.64 136.94,-104.74"/>
</a>
</g>
</g>
<!-- Node10 -->
<g id="Node000010" class="node">
<title>Node10</title>
<g id="a_Node000010"><a xlink:href="db/d59/structfloppy_1_1traits_1_1formattable.html" target="_top" xlink:title=" ">
<polygon fill="white" stroke="#666666" points="282.5,-90.12 173.5,-90.12 173.5,-48.38 282.5,-48.38 282.5,-90.12"/>
<text text-anchor="start" x="181.5" y="-75.67" font-family="Arial" font-size="11.00">formattable&lt; length</text>
<text text-anchor="start" x="181.5" y="-64.42" font-family="Arial" font-size="11.00">&lt; default_unit, f32</text>
<text text-anchor="middle" x="228" y="-53.17" font-family="Arial" font-size="11.00"> &gt;, char &gt;</text>
</a>
</g>
</g>
<!-- Node8&#45;&gt;Node10 -->
<g id="edge8_Node000008_Node000010" class="edge">
<title>Node8&#45;&gt;Node10</title>
<g id="a_edge8_Node000008_Node000010"><a xlink:title=" ">
<path fill="none" stroke="#63b8ff" d="M136.26,-84.33C148.65,-82.27 161.33,-80.16 173.13,-78.2"/>
<polygon fill="#63b8ff" stroke="#63b8ff" points="135.79,-80.86 126.5,-85.95 136.94,-87.76 135.79,-80.86"/>
</a>
</g>
</g>
<!-- Node11 -->
<g id="Node000011" class="node">
<title>Node11</title>
<g id="a_Node000011"><a xlink:href="db/d59/structfloppy_1_1traits_1_1formattable.html" target="_top" xlink:title=" ">
<polygon fill="white" stroke="#666666" points="285.5,-30.5 170.5,-30.5 170.5,0 285.5,0 285.5,-30.5"/>
<text text-anchor="start" x="178.5" y="-16.05" font-family="Arial" font-size="11.00">formattable&lt; scale</text>
<text text-anchor="middle" x="228" y="-4.8" font-family="Arial" font-size="11.00">&lt; S, D, f32 &gt;, char &gt;</text>
</a>
</g>
</g>
<!-- Node8&#45;&gt;Node11 -->
<g id="edge9_Node000008_Node000011" class="edge">
<title>Node8&#45;&gt;Node11</title>
<g id="a_edge9_Node000008_Node000011"><a xlink:title=" ">
<path fill="none" stroke="#63b8ff" d="M89.75,-80.08C109.29,-67.95 137.26,-51.42 163,-39.25 169.11,-36.36 175.68,-33.57 182.19,-30.97"/>
<polygon fill="#63b8ff" stroke="#63b8ff" points="87.99,-77.05 81.38,-85.33 91.71,-82.98 87.99,-77.05"/>
</a>
</g>
</g>
<!-- Node5 -->
<g id="Node000005" class="node">
<title>Node5</title>
<g id="a_Node000005"><a xlink:href="db/d59/structfloppy_1_1traits_1_1formattable.html" target="_top" xlink:title="Allows type to be converted to string and printed via standard streams or fmt.">
<polygon fill="white" stroke="#666666" points="282.88,-213.88 173.12,-213.88 173.12,-194.62 282.88,-194.62 282.88,-213.88"/>
<text text-anchor="middle" x="228" y="-199.43" font-family="Arial" font-size="11.00">formattable&lt; T, C &gt;</text>
</a>
</g>
</g>
<!-- Node8&#45;&gt;Node5 -->
<g id="edge10_Node000008_Node000005" class="edge">
<title>Node8&#45;&gt;Node5</title>
<g id="a_edge10_Node000008_Node000005"><a xlink:title=" ">
<path fill="none" stroke="#63b8ff" d="M88.74,-112.36C122.83,-135.02 183.89,-175.6 212.04,-194.31"/>
<polygon fill="#63b8ff" stroke="#63b8ff" points="91.02,-109.67 80.76,-107.05 87.15,-115.5 91.02,-109.67"/>
</a>
</g>
</g>
<!-- Node5&#45;&gt;Node4 -->
<g id="edge11_Node000005_Node000004" class="edge">
<title>Node5&#45;&gt;Node4</title>
<g id="a_edge11_Node000005_Node000004"><a xlink:title=" ">
<path fill="none" stroke="#63b8ff" d="M280.07,-217.16C300.54,-222.33 323.57,-228.16 341.86,-232.78"/>
<polygon fill="#63b8ff" stroke="#63b8ff" points="281.02,-213.79 270.47,-214.73 279.3,-220.58 281.02,-213.79"/>
</a>
</g>
</g>
<!-- Node5&#45;&gt;Node6 -->
<g id="edge12_Node000005_Node000006" class="edge">
<title>Node5&#45;&gt;Node6</title>
<g id="a_edge12_Node000005_Node000006"><a xlink:title=" ">
<path fill="none" stroke="#63b8ff" d="M294.55,-204.25C307.75,-204.25 321.28,-204.25 333.4,-204.25"/>
<polygon fill="#63b8ff" stroke="#63b8ff" points="294.6,-200.75 284.6,-204.25 294.6,-207.75 294.6,-200.75"/>
</a>
</g>
</g>
<!-- Node5&#45;&gt;Node7 -->
<g id="edge13_Node000005_Node000007" class="edge">
<title>Node5&#45;&gt;Node7</title>
<g id="a_edge13_Node000005_Node000007"><a xlink:title=" ">
<path fill="none" stroke="#63b8ff" d="M280,-191.36C298.16,-186.77 318.33,-181.67 335.43,-177.35"/>
<polygon fill="#63b8ff" stroke="#63b8ff" points="279.3,-187.92 270.47,-193.77 281.02,-194.71 279.3,-187.92"/>
</a>
</g>
</g>
</g>
</svg>
