<?xml version="1.0" encoding="UTF-8" standalone="no"?>
<!DOCTYPE svg PUBLIC "-//W3C//DTD SVG 1.1//EN"
 "http://www.w3.org/Graphics/SVG/1.1/DTD/svg11.dtd">
<!-- Generated by graphviz version 10.0.1 (0)
 -->
<!-- Title: Graphical Class Hierarchy Pages: 1 -->
<svg width="638pt" height="613pt"
 viewBox="0.00 0.00 637.50 612.50" xmlns="http://www.w3.org/2000/svg" xmlns:xlink="http://www.w3.org/1999/xlink">
<g id="graph0" class="graph" transform="scale(1 1) rotate(0) translate(4 608.5)">
<title>Graphical Class Hierarchy</title>
<!-- Node0 -->
<g id="Node000000" class="node">
<title>Node0</title>
<g id="a_Node000000"><a xlink:href="d0/d3b/structfloppy_1_1math_1_1detail_1_1default__comparable.html" target="_top" xlink:title=" ">
<polygon fill="white" stroke="#666666" points="136.75,-514.88 0,-514.88 0,-495.62 136.75,-495.62 136.75,-514.88"/>
<text text-anchor="middle" x="68.38" y="-500.43" font-family="Arial" font-size="11.00">default_comparable&lt; T &gt;</text>
</a>
</g>
</g>
<!-- Node1 -->
<g id="Node000001" class="node">
<title>Node1</title>
<g id="a_Node000001"><a xlink:href="d8/d03/structfloppy_1_1math_1_1detail_1_1basic__numeric__newtype.html" target="_top" xlink:title=" ">
<polygon fill="white" stroke="#666666" points="304.25,-604.5 172.75,-604.5 172.75,-574 304.25,-574 304.25,-604.5"/>
<text text-anchor="start" x="180.75" y="-590.05" font-family="Arial" font-size="11.00">basic_numeric_newtype</text>
<text text-anchor="middle" x="238.5" y="-578.8" font-family="Arial" font-size="11.00">&lt; angle&lt; f32 &gt;, U &gt;</text>
</a>
</g>
</g>
<!-- Node0&#45;&gt;Node1 -->
<g id="edge1_Node000000_Node000001" class="edge">
<title>Node0&#45;&gt;Node1</title>
<g id="a_edge1_Node000000_Node000001"><a xlink:title=" ">
<path fill="none" stroke="#63b8ff" d="M94.22,-521.29C114.76,-534.15 144.97,-552.16 172.75,-565.25 178.93,-568.16 185.57,-570.97 192.16,-573.57"/>
<polygon fill="#63b8ff" stroke="#63b8ff" points="96.29,-518.46 85.97,-516.06 92.54,-524.37 96.29,-518.46"/>
</a>
</g>
</g>
<!-- Node2 -->
<g id="Node000002" class="node">
<title>Node2</title>
<g id="a_Node000002"><a xlink:href="d8/d03/structfloppy_1_1math_1_1detail_1_1basic__numeric__newtype.html" target="_top" xlink:title=" ">
<polygon fill="white" stroke="#666666" points="304.25,-556.12 172.75,-556.12 172.75,-514.38 304.25,-514.38 304.25,-556.12"/>
<text text-anchor="start" x="180.75" y="-541.67" font-family="Arial" font-size="11.00">basic_numeric_newtype</text>
<text text-anchor="start" x="180.75" y="-530.42" font-family="Arial" font-size="11.00">&lt; length&lt; default_unit,</text>
<text text-anchor="middle" x="238.5" y="-519.17" font-family="Arial" font-size="11.00"> f32 &gt;, f32 &gt;</text>
</a>
</g>
</g>
<!-- Node0&#45;&gt;Node2 -->
<g id="edge2_Node000000_Node000002" class="edge">
<title>Node0&#45;&gt;Node2</title>
<g id="a_edge2_Node000000_Node000002"><a xlink:title=" ">
<path fill="none" stroke="#63b8ff" d="M136.91,-517.3C148.64,-519.39 160.82,-521.57 172.49,-523.65"/>
<polygon fill="#63b8ff" stroke="#63b8ff" points="137.78,-513.9 127.32,-515.59 136.55,-520.79 137.78,-513.9"/>
</a>
</g>
</g>
<!-- Node3 -->
<g id="Node000003" class="node">
<title>Node3</title>
<g id="a_Node000003"><a xlink:href="d8/d03/structfloppy_1_1math_1_1detail_1_1basic__numeric__newtype.html" target="_top" xlink:title=" ">
<polygon fill="white" stroke="#666666" points="304.25,-496.12 172.75,-496.12 172.75,-454.38 304.25,-454.38 304.25,-496.12"/>
<text text-anchor="start" x="180.75" y="-481.68" font-family="Arial" font-size="11.00">basic_numeric_newtype</text>
<text text-anchor="start" x="180.75" y="-470.43" font-family="Arial" font-size="11.00">&lt; scale&lt; S, D, f32 &gt;,</text>
<text text-anchor="middle" x="238.5" y="-459.18" font-family="Arial" font-size="11.00"> f32 &gt;</text>
</a>
</g>
</g>
<!-- Node0&#45;&gt;Node3 -->
<g id="edge3_Node000000_Node000003" class="edge">
<title>Node0&#45;&gt;Node3</title>
<g id="a_edge3_Node000000_Node000003"><a xlink:title=" ">
<path fill="none" stroke="#63b8ff" d="M136.91,-493.2C148.64,-491.11 160.82,-488.93 172.49,-486.85"/>
<polygon fill="#63b8ff" stroke="#63b8ff" points="136.55,-489.71 127.32,-494.91 137.78,-496.6 136.55,-489.71"/>
</a>
</g>
</g>
<!-- Node4 -->
<g id="Node000004" class="node">
<title>Node4</title>
<g id="a_Node000004"><a xlink:href="d8/d03/structfloppy_1_1math_1_1detail_1_1basic__numeric__newtype.html" target="_top" xlink:title=" ">
<polygon fill="white" stroke="#666666" points="304.25,-436.5 172.75,-436.5 172.75,-406 304.25,-406 304.25,-436.5"/>
<text text-anchor="start" x="180.75" y="-422.05" font-family="Arial" font-size="11.00">basic_numeric_newtype</text>
<text text-anchor="middle" x="238.5" y="-410.8" font-family="Arial" font-size="11.00">&lt; T, U &gt;</text>
</a>
</g>
</g>
<!-- Node0&#45;&gt;Node4 -->
<g id="edge4_Node000000_Node000004" class="edge">
<title>Node0&#45;&gt;Node4</title>
<g id="a_edge4_Node000000_Node000004"><a xlink:title=" ">
<path fill="none" stroke="#63b8ff" d="M94.22,-489.21C114.76,-476.35 144.97,-458.34 172.75,-445.25 178.93,-442.34 185.57,-439.53 192.16,-436.93"/>
<polygon fill="#63b8ff" stroke="#63b8ff" points="92.54,-486.13 85.97,-494.44 96.29,-492.04 92.54,-486.13"/>
</a>
</g>
</g>
<!-- Node5 -->
<g id="Node000005" class="node">
<title>Node5</title>
<g id="a_Node000005"><a xlink:href="d8/d97/structfloppy_1_1math_1_1detail_1_1advanced__numeric__type.html" target="_top" xlink:title=" ">
<polygon fill="white" stroke="#666666" points="487.88,-506.5 354.88,-506.5 354.88,-476 487.88,-476 487.88,-506.5"/>
<text text-anchor="start" x="362.88" y="-492.05" font-family="Arial" font-size="11.00">advanced_numeric_type</text>
<text text-anchor="middle" x="421.38" y="-480.8" font-family="Arial" font-size="11.00">&lt; angle&lt; f32 &gt;, f32 &gt;</text>
</a>
</g>
</g>
<!-- Node4&#45;&gt;Node5 -->
<g id="edge5_Node000004_Node000005" class="edge">
<title>Node4&#45;&gt;Node5</title>
<g id="a_edge5_Node000004_Node000005"><a xlink:title=" ">
<path fill="none" stroke="#63b8ff" d="M295.31,-441.23C298.36,-442.54 301.35,-443.88 304.25,-445.25 321,-453.17 323.3,-458.78 340.25,-466.25 347.98,-469.66 356.33,-472.81 364.6,-475.64"/>
<polygon fill="#63b8ff" stroke="#63b8ff" points="296.83,-438.07 286.25,-437.49 294.16,-444.54 296.83,-438.07"/>
</a>
</g>
</g>
<!-- Node6 -->
<g id="Node000006" class="node">
<title>Node6</title>
<g id="a_Node000006"><a xlink:href="d8/d97/structfloppy_1_1math_1_1detail_1_1advanced__numeric__type.html" target="_top" xlink:title=" ">
<polygon fill="white" stroke="#666666" points="487.88,-457.5 354.88,-457.5 354.88,-427 487.88,-427 487.88,-457.5"/>
<text text-anchor="start" x="362.88" y="-443.05" font-family="Arial" font-size="11.00">advanced_numeric_type</text>
<text text-anchor="middle" x="421.38" y="-431.8" font-family="Arial" font-size="11.00">&lt; T, U &gt;</text>
</a>
</g>
</g>
<!-- Node4&#45;&gt;Node6 -->
<g id="edge6_Node000004_Node000006" class="edge">
<title>Node4&#45;&gt;Node6</title>
<g id="a_edge6_Node000004_Node000006"><a xlink:title=" ">
<path fill="none" stroke="#63b8ff" d="M315.71,-430.1C328.57,-431.59 341.82,-433.13 354.39,-434.59"/>
<polygon fill="#63b8ff" stroke="#63b8ff" points="316.38,-426.65 306.05,-428.98 315.58,-433.61 316.38,-426.65"/>
</a>
</g>
</g>
<!-- Node11 -->
<g id="Node000011" class="node">
<title>Node11</title>
<g id="a_Node000011"><a xlink:href="dd/dd1/classfloppy_1_1math_1_1length.html" target="_top" xlink:title="A one&#45;dimensional distance with associated unit of measurement.">
<polygon fill="white" stroke="#666666" points="463.88,-408.88 378.88,-408.88 378.88,-389.62 463.88,-389.62 463.88,-408.88"/>
<text text-anchor="middle" x="421.38" y="-394.43" font-family="Arial" font-size="11.00">length&lt; U, T &gt;</text>
</a>
</g>
</g>
<!-- Node4&#45;&gt;Node11 -->
<g id="edge8_Node000004_Node000011" class="edge">
<title>Node4&#45;&gt;Node11</title>
<g id="a_edge8_Node000004_Node000011"><a xlink:title=" ">
<path fill="none" stroke="#63b8ff" d="M315.95,-411.95C337.36,-409.35 359.84,-406.61 378.43,-404.35"/>
<polygon fill="#63b8ff" stroke="#63b8ff" points="315.55,-408.47 306.05,-413.16 316.4,-415.42 315.55,-408.47"/>
</a>
</g>
</g>
<!-- Node12 -->
<g id="Node000012" class="node">
<title>Node12</title>
<g id="a_Node000012"><a xlink:href="db/db2/structfloppy_1_1math_1_1scale.html" target="_top" xlink:title="A scaling factor between two different units of measurement.">
<polygon fill="white" stroke="#666666" points="468.75,-371.88 374,-371.88 374,-352.62 468.75,-352.62 468.75,-371.88"/>
<text text-anchor="middle" x="421.38" y="-357.43" font-family="Arial" font-size="11.00">scale&lt; S, D, T &gt;</text>
</a>
</g>
</g>
<!-- Node4&#45;&gt;Node12 -->
<g id="edge9_Node000004_Node000012" class="edge">
<title>Node4&#45;&gt;Node12</title>
<g id="a_edge9_Node000004_Node000012"><a xlink:title=" ">
<path fill="none" stroke="#63b8ff" d="M284.3,-401.16C301.56,-393.92 321.6,-386.1 340.25,-380.25 351,-376.88 362.74,-373.88 373.85,-371.33"/>
<polygon fill="#63b8ff" stroke="#63b8ff" points="283.17,-397.84 275.34,-404.98 285.91,-404.28 283.17,-397.84"/>
</a>
</g>
</g>
<!-- Node7 -->
<g id="Node000007" class="node">
<title>Node7</title>
<g id="a_Node000007"><a xlink:href="de/d4d/structfloppy_1_1math_1_1angle.html" target="_top" xlink:title="Newtype describing an angle.">
<polygon fill="white" stroke="#666666" points="618.25,-392.88 549.75,-392.88 549.75,-373.62 618.25,-373.62 618.25,-392.88"/>
<text text-anchor="middle" x="584" y="-378.43" font-family="Arial" font-size="11.00">angle&lt; T &gt;</text>
</a>
</g>
</g>
<!-- Node6&#45;&gt;Node7 -->
<g id="edge7_Node000006_Node000007" class="edge">
<title>Node6&#45;&gt;Node7</title>
<g id="a_edge7_Node000006_Node000007"><a xlink:title=" ">
<path fill="none" stroke="#63b8ff" d="M488.76,-423.04C493.43,-421.48 498.05,-419.88 502.5,-418.25 522.97,-410.77 545.69,-400.72 561.76,-393.31"/>
<polygon fill="#63b8ff" stroke="#63b8ff" points="487.7,-419.7 479.27,-426.11 489.86,-426.36 487.7,-419.7"/>
</a>
</g>
</g>
<!-- Node13 -->
<g id="Node000013" class="node">
<title>Node13</title>
<g id="a_Node000013"><a xlink:href="d5/d4f/structfloppy_1_1traits_1_1detail_1_1formattable__base.html" target="_top" xlink:title="Interface, providing to_string method.">
<polygon fill="white" stroke="#666666" points="131.88,-170.88 4.87,-170.88 4.87,-151.62 131.88,-151.62 131.88,-170.88"/>
<text text-anchor="middle" x="68.38" y="-156.43" font-family="Arial" font-size="11.00">formattable_base&lt; C &gt;</text>
</a>
</g>
</g>
<!-- Node14 -->
<g id="Node000014" class="node">
<title>Node14</title>
<g id="a_Node000014"><a xlink:href="db/d59/structfloppy_1_1traits_1_1formattable.html" target="_top" xlink:title=" ">
<polygon fill="white" stroke="#666666" points="291.5,-30.5 185.5,-30.5 185.5,0 291.5,0 291.5,-30.5"/>
<text text-anchor="start" x="193.5" y="-16.05" font-family="Arial" font-size="11.00">formattable&lt; angle</text>
<text text-anchor="middle" x="238.5" y="-4.8" font-family="Arial" font-size="11.00">&lt; f32 &gt;, char &gt;</text>
</a>
</g>
</g>
<!-- Node13&#45;&gt;Node14 -->
<g id="edge10_Node000013_Node000014" class="edge">
<title>Node13&#45;&gt;Node14</title>
<g id="a_edge10_Node000013_Node000014"><a xlink:title=" ">
<path fill="none" stroke="#63b8ff" d="M81.44,-141.47C98.63,-114.8 132.59,-67.4 172.75,-39.25 177.17,-36.15 182.03,-33.4 187.05,-30.97"/>
<polygon fill="#63b8ff" stroke="#63b8ff" points="78.48,-139.6 76.12,-149.93 84.4,-143.33 78.48,-139.6"/>
</a>
</g>
</g>
<!-- Node15 -->
<g id="Node000015" class="node">
<title>Node15</title>
<g id="a_Node000015"><a xlink:href="db/d59/structfloppy_1_1traits_1_1formattable.html" target="_top" xlink:title=" ">
<polygon fill="white" stroke="#666666" points="299.75,-67.88 177.25,-67.88 177.25,-48.62 299.75,-48.62 299.75,-67.88"/>
<text text-anchor="middle" x="238.5" y="-53.42" font-family="Arial" font-size="11.00">formattable&lt; T, char &gt;</text>
</a>
</g>
</g>
<!-- Node13&#45;&gt;Node15 -->
<g id="edge11_Node000013_Node000015" class="edge">
<title>Node13&#45;&gt;Node15</title>
<g id="a_edge11_Node000013_Node000015"><a xlink:title=" ">
<path fill="none" stroke="#63b8ff" d="M86.86,-143.3C106.24,-124.37 139.2,-94.88 172.75,-77.25 179.49,-73.71 186.98,-70.74 194.41,-68.28"/>
<polygon fill="#63b8ff" stroke="#63b8ff" points="84.64,-140.57 80.03,-150.11 89.59,-145.53 84.64,-140.57"/>
</a>
</g>
</g>
<!-- Node19 -->
<g id="Node000019" class="node">
<title>Node19</title>
<g id="a_Node000019"><a xlink:href="db/d59/structfloppy_1_1traits_1_1formattable.html" target="_top" xlink:title=" ">
<polygon fill="white" stroke="#666666" points="293,-296.12 184,-296.12 184,-254.38 293,-254.38 293,-296.12"/>
<text text-anchor="start" x="192" y="-281.68" font-family="Arial" font-size="11.00">formattable&lt; length</text>
<text text-anchor="start" x="192" y="-270.43" font-family="Arial" font-size="11.00">&lt; default_unit, f32</text>
<text text-anchor="middle" x="238.5" y="-259.18" font-family="Arial" font-size="11.00"> &gt;, char &gt;</text>
</a>
</g>
</g>
<!-- Node13&#45;&gt;Node19 -->
<g id="edge15_Node000013_Node000019" class="edge">
<title>Node13&#45;&gt;Node19</title>
<g id="a_edge15_Node000013_Node000019"><a xlink:title=" ">
<path fill="none" stroke="#63b8ff" d="M88.31,-179.08C108.25,-197.24 141.08,-225.48 172.75,-245.25 177.58,-248.27 182.77,-251.17 188.03,-253.9"/>
<polygon fill="#63b8ff" stroke="#63b8ff" points="90.7,-176.52 80.97,-172.3 85.95,-181.66 90.7,-176.52"/>
</a>
</g>
</g>
<!-- Node20 -->
<g id="Node000020" class="node">
<title>Node20</title>
<g id="a_Node000020"><a xlink:href="db/d59/structfloppy_1_1traits_1_1formattable.html" target="_top" xlink:title=" ">
<polygon fill="white" stroke="#666666" points="296,-236.12 181,-236.12 181,-194.38 296,-194.38 296,-236.12"/>
<text text-anchor="start" x="189" y="-221.68" font-family="Arial" font-size="11.00">formattable&lt; point2d</text>
<text text-anchor="start" x="189" y="-210.43" font-family="Arial" font-size="11.00">&lt; default_unit, f32 &gt;</text>
<text text-anchor="middle" x="238.5" y="-199.18" font-family="Arial" font-size="11.00">, char &gt;</text>
</a>
</g>
</g>
<!-- Node13&#45;&gt;Node20 -->
<g id="edge16_Node000013_Node000020" class="edge">
<title>Node13&#45;&gt;Node20</title>
<g id="a_edge16_Node000013_Node000020"><a xlink:title=" ">
<path fill="none" stroke="#63b8ff" d="M111.39,-174.74C132.32,-181.47 157.92,-189.69 180.58,-196.97"/>
<polygon fill="#63b8ff" stroke="#63b8ff" points="112.64,-171.47 102.05,-171.74 110.5,-178.13 112.64,-171.47"/>
</a>
</g>
</g>
<!-- Node21 -->
<g id="Node000021" class="node">
<title>Node21</title>
<g id="a_Node000021"><a xlink:href="db/d59/structfloppy_1_1traits_1_1formattable.html" target="_top" xlink:title=" ">
<polygon fill="white" stroke="#666666" points="296,-176.5 181,-176.5 181,-146 296,-146 296,-176.5"/>
<text text-anchor="start" x="189" y="-162.05" font-family="Arial" font-size="11.00">formattable&lt; scale</text>
<text text-anchor="middle" x="238.5" y="-150.8" font-family="Arial" font-size="11.00">&lt; S, D, f32 &gt;, char &gt;</text>
</a>
</g>
</g>
<!-- Node13&#45;&gt;Node21 -->
<g id="edge17_Node000013_Node000021" class="edge">
<title>Node13&#45;&gt;Node21</title>
<g id="a_edge17_Node000013_Node000021"><a xlink:title=" ">
<path fill="none" stroke="#63b8ff" d="M143.35,-161.25C155.87,-161.25 168.68,-161.25 180.67,-161.25"/>
<polygon fill="#63b8ff" stroke="#63b8ff" points="143.49,-157.75 133.49,-161.25 143.49,-164.75 143.49,-157.75"/>
</a>
</g>
</g>
<!-- Node22 -->
<g id="Node000022" class="node">
<title>Node22</title>
<g id="a_Node000022"><a xlink:href="db/d59/structfloppy_1_1traits_1_1formattable.html" target="_top" xlink:title=" ">
<polygon fill="white" stroke="#666666" points="293.75,-128.12 183.25,-128.12 183.25,-86.38 293.75,-86.38 293.75,-128.12"/>
<text text-anchor="start" x="191.25" y="-113.67" font-family="Arial" font-size="11.00">formattable&lt; size2d</text>
<text text-anchor="start" x="191.25" y="-102.42" font-family="Arial" font-size="11.00">&lt; default_unit, f32</text>
<text text-anchor="middle" x="238.5" y="-91.17" font-family="Arial" font-size="11.00"> &gt;, char &gt;</text>
</a>
</g>
</g>
<!-- Node13&#45;&gt;Node22 -->
<g id="edge18_Node000013_Node000022" class="edge">
<title>Node13&#45;&gt;Node22</title>
<g id="a_edge18_Node000013_Node000022"><a xlink:title=" ">
<path fill="none" stroke="#63b8ff" d="M111.43,-147.74C133.08,-140.79 159.73,-132.23 182.95,-124.77"/>
<polygon fill="#63b8ff" stroke="#63b8ff" points="110.5,-144.37 102.05,-150.76 112.64,-151.03 110.5,-144.37"/>
</a>
</g>
</g>
<!-- Node8 -->
<g id="Node000008" class="node">
<title>Node8</title>
<g id="a_Node000008"><a xlink:href="db/d59/structfloppy_1_1traits_1_1formattable.html" target="_top" xlink:title="Allows type to be converted to string and printed via standard streams or fmt.">
<polygon fill="white" stroke="#666666" points="293.38,-333.88 183.62,-333.88 183.62,-314.62 293.38,-314.62 293.38,-333.88"/>
<text text-anchor="middle" x="238.5" y="-319.43" font-family="Arial" font-size="11.00">formattable&lt; T, C &gt;</text>
</a>
</g>
</g>
<!-- Node13&#45;&gt;Node8 -->
<g id="edge19_Node000013_Node000008" class="edge">
<title>Node13&#45;&gt;Node8</title>
<g id="a_edge19_Node000013_Node000008"><a xlink:title=" ">
<path fill="none" stroke="#63b8ff" d="M78.26,-181.06C93.23,-212.2 126.47,-272.43 172.75,-305.25 177.81,-308.84 183.56,-311.76 189.48,-314.13"/>
<polygon fill="#63b8ff" stroke="#63b8ff" points="81.61,-179.97 74.21,-172.38 75.26,-182.92 81.61,-179.97"/>
</a>
</g>
</g>
<!-- Node16 -->
<g id="Node000016" class="node">
<title>Node16</title>
<g id="a_Node000016"><a xlink:href="d7/dd8/structfloppy_1_1math_1_1detail_1_1basic__two__dimensional__type.html" target="_top" xlink:title=" ">
<polygon fill="white" stroke="#666666" points="484.5,-73.5 358.25,-73.5 358.25,-43 484.5,-43 484.5,-73.5"/>
<text text-anchor="start" x="366.25" y="-59.05" font-family="Arial" font-size="11.00">basic_two_dimensional</text>
<text text-anchor="middle" x="421.38" y="-47.8" font-family="Arial" font-size="11.00">_type&lt; T, U, N &gt;</text>
</a>
</g>
</g>
<!-- Node15&#45;&gt;Node16 -->
<g id="edge12_Node000015_Node000016" class="edge">
<title>Node15&#45;&gt;Node16</title>
<g id="a_edge12_Node000015_Node000016"><a xlink:title=" ">
<path fill="none" stroke="#63b8ff" d="M311.3,-58.25C326.73,-58.25 342.91,-58.25 357.95,-58.25"/>
<polygon fill="#63b8ff" stroke="#63b8ff" points="311.75,-54.75 301.75,-58.25 311.75,-61.75 311.75,-54.75"/>
</a>
</g>
</g>
<!-- Node17 -->
<g id="Node000017" class="node">
<title>Node17</title>
<g id="a_Node000017"><a xlink:href="db/d35/classfloppy_1_1math_1_1point2d.html" target="_top" xlink:title="A two&#45;dimensional point tagged with a unit.">
<polygon fill="white" stroke="#666666" points="629.5,-49.88 538.5,-49.88 538.5,-30.62 629.5,-30.62 629.5,-49.88"/>
<text text-anchor="middle" x="584" y="-35.42" font-family="Arial" font-size="11.00">point2d&lt; U, T &gt;</text>
</a>
</g>
</g>
<!-- Node16&#45;&gt;Node17 -->
<g id="edge13_Node000016_Node000017" class="edge">
<title>Node16&#45;&gt;Node17</title>
<g id="a_edge13_Node000016_Node000017"><a xlink:title=" ">
<path fill="none" stroke="#63b8ff" d="M496.33,-49.96C510.64,-48.36 525.23,-46.72 538.25,-45.26"/>
<polygon fill="#63b8ff" stroke="#63b8ff" points="495.99,-46.48 486.44,-51.07 496.77,-53.44 495.99,-46.48"/>
</a>
</g>
</g>
<!-- Node18 -->
<g id="Node000018" class="node">
<title>Node18</title>
<g id="a_Node000018"><a xlink:href="d0/d22/classfloppy_1_1math_1_1size2d.html" target="_top" xlink:title="A two&#45;dimensional size2d tagged with a unit.">
<polygon fill="white" stroke="#666666" points="627.25,-86.88 540.75,-86.88 540.75,-67.62 627.25,-67.62 627.25,-86.88"/>
<text text-anchor="middle" x="584" y="-72.42" font-family="Arial" font-size="11.00">size2d&lt; U, T &gt;</text>
</a>
</g>
</g>
<!-- Node16&#45;&gt;Node18 -->
<g id="edge14_Node000016_Node000018" class="edge">
<title>Node16&#45;&gt;Node18</title>
<g id="a_edge14_Node000016_Node000018"><a xlink:title=" ">
<path fill="none" stroke="#63b8ff" d="M496,-66.96C511.32,-68.77 526.96,-70.62 540.69,-72.24"/>
<polygon fill="#63b8ff" stroke="#63b8ff" points="496.78,-63.53 486.44,-65.83 495.96,-70.48 496.78,-63.53"/>
</a>
</g>
</g>
<!-- Node8&#45;&gt;Node7 -->
<g id="edge22_Node000008_Node000007" class="edge">
<title>Node8&#45;&gt;Node7</title>
<g id="a_edge22_Node000008_Node000007"><a xlink:title=" ">
<path fill="none" stroke="#63b8ff" d="M305.14,-322.01C359.07,-321.82 436.98,-325.35 502.5,-343.25 526.44,-349.79 551.69,-363.63 567.4,-373.19"/>
<polygon fill="#63b8ff" stroke="#63b8ff" points="305.15,-318.51 295.18,-322.1 305.21,-325.51 305.15,-318.51"/>
</a>
</g>
</g>
<!-- Node8&#45;&gt;Node11 -->
<g id="edge23_Node000008_Node000011" class="edge">
<title>Node8&#45;&gt;Node11</title>
<g id="a_edge23_Node000008_Node000011"><a xlink:title=" ">
<path fill="none" stroke="#63b8ff" d="M263.28,-340.37C283.09,-353.13 312.47,-370.54 340.25,-381.25 352.36,-385.92 365.98,-389.54 378.51,-392.27"/>
<polygon fill="#63b8ff" stroke="#63b8ff" points="265.39,-337.57 255.11,-335.01 261.55,-343.42 265.39,-337.57"/>
</a>
</g>
</g>
<!-- Node8&#45;&gt;Node12 -->
<g id="edge24_Node000008_Node000012" class="edge">
<title>Node8&#45;&gt;Node12</title>
<g id="a_edge24_Node000008_Node000012"><a xlink:title=" ">
<path fill="none" stroke="#63b8ff" d="M298.44,-336.63C322.85,-341.76 350.76,-347.63 373.72,-352.45"/>
<polygon fill="#63b8ff" stroke="#63b8ff" points="299.48,-333.28 288.98,-334.64 298.04,-340.13 299.48,-333.28"/>
</a>
</g>
</g>
<!-- Node9 -->
<g id="Node000009" class="node">
<title>Node9</title>
<g id="a_Node000009"><a xlink:href="d7/dd8/structfloppy_1_1math_1_1detail_1_1basic__two__dimensional__type.html" target="_top" xlink:title=" ">
<polygon fill="white" stroke="#666666" points="502.5,-296.12 340.25,-296.12 340.25,-254.38 502.5,-254.38 502.5,-296.12"/>
<text text-anchor="start" x="348.25" y="-281.68" font-family="Arial" font-size="11.00">basic_two_dimensional</text>
<text text-anchor="start" x="348.25" y="-270.43" font-family="Arial" font-size="11.00">_type&lt; point2d&lt; default</text>
<text text-anchor="middle" x="421.38" y="-259.18" font-family="Arial" font-size="11.00">_unit, f32 &gt;, default_unit, f32 &gt;</text>
</a>
</g>
</g>
<!-- Node8&#45;&gt;Node9 -->
<g id="edge20_Node000008_Node000009" class="edge">
<title>Node8&#45;&gt;Node9</title>
<g id="a_edge20_Node000008_Node000009"><a xlink:title=" ">
<path fill="none" stroke="#63b8ff" d="M287.59,-311.22C304.17,-306.73 323.2,-301.57 341.59,-296.59"/>
<polygon fill="#63b8ff" stroke="#63b8ff" points="286.74,-307.83 278,-313.82 288.57,-314.58 286.74,-307.83"/>
</a>
</g>
</g>
<!-- Node10 -->
<g id="Node000010" class="node">
<title>Node10</title>
<g id="a_Node000010"><a xlink:href="d7/dd8/structfloppy_1_1math_1_1detail_1_1basic__two__dimensional__type.html" target="_top" xlink:title=" ">
<polygon fill="white" stroke="#666666" points="502.5,-236.12 340.25,-236.12 340.25,-194.38 502.5,-194.38 502.5,-236.12"/>
<text text-anchor="start" x="348.25" y="-221.68" font-family="Arial" font-size="11.00">basic_two_dimensional</text>
<text text-anchor="start" x="348.25" y="-210.43" font-family="Arial" font-size="11.00">_type&lt; size2d&lt; default</text>
<text text-anchor="middle" x="421.38" y="-199.18" font-family="Arial" font-size="11.00">_unit, f32 &gt;, default_unit, f32 &gt;</text>
</a>
</g>
</g>
<!-- Node8&#45;&gt;Node10 -->
<g id="edge21_Node000008_Node000010" class="edge">
<title>Node8&#45;&gt;Node10</title>
<g id="a_edge21_Node000008_Node000010"><a xlink:title=" ">
<path fill="none" stroke="#63b8ff" d="M298.67,-309.07C300.61,-307.89 302.48,-306.62 304.25,-305.25 328.86,-286.23 316.35,-265.15 340.25,-245.25 344.13,-242.02 348.39,-239.12 352.87,-236.51"/>
<polygon fill="#63b8ff" stroke="#63b8ff" points="297.16,-305.91 289.82,-313.56 300.32,-312.16 297.16,-305.91"/>
</a>
</g>
</g>
</g>
</svg>
