<?xml version="1.0" encoding="UTF-8" standalone="no"?>
<!DOCTYPE svg PUBLIC "-//W3C//DTD SVG 1.1//EN"
 "http://www.w3.org/Graphics/SVG/1.1/DTD/svg11.dtd">
<!-- Generated by graphviz version 10.0.1 (0)
 -->
<!-- Title: length.h Pages: 1 -->
<svg width="956pt" height="393pt"
 viewBox="0.00 0.00 956.25 392.50" xmlns="http://www.w3.org/2000/svg" xmlns:xlink="http://www.w3.org/1999/xlink">
<g id="graph0" class="graph" transform="scale(1 1) rotate(0) translate(4 388.5)">
<title>length.h</title>
<!-- Node1 -->
<g id="Node000001" class="node">
<title>Node1</title>
<g id="a_Node000001"><a xlink:title="A one&#45;dimensional distance with associated unit of measurement.">
<polygon fill="#999999" stroke="#666666" points="342.75,-384.5 288.5,-384.5 288.5,-365.25 342.75,-365.25 342.75,-384.5"/>
<text text-anchor="middle" x="315.62" y="-370.05" font-family="Helvetica,sans-Serif" font-size="11.00">length.h</text>
</a>
</g>
</g>
<!-- Node2 -->
<g id="Node000002" class="node">
<title>Node2</title>
<g id="a_Node000002"><a xlink:href="scale_8h.html" target="_top" xlink:title="A scaling factor between two different units of measurement.">
<polygon fill="white" stroke="#666666" points="329.62,-329.25 217.62,-329.25 217.62,-310 329.62,-310 329.62,-329.25"/>
<text text-anchor="middle" x="273.62" y="-314.8" font-family="Helvetica,sans-Serif" font-size="11.00">floppy/euclid/scale.h</text>
</a>
</g>
</g>
<!-- Node1&#45;&gt;Node2 -->
<g id="edge1_Node000001_Node000002" class="edge">
<title>Node1&#45;&gt;Node2</title>
<g id="a_edge1_Node000001_Node000002"><a xlink:title=" ">
<path fill="none" stroke="#63b8ff" d="M308.69,-365.08C303.01,-357.88 294.79,-347.46 287.73,-338.51"/>
<polygon fill="#63b8ff" stroke="#63b8ff" points="290.59,-336.48 281.65,-330.8 285.09,-340.82 290.59,-336.48"/>
</a>
</g>
</g>
<!-- Node27 -->
<g id="Node000027" class="node">
<title>Node27</title>
<g id="a_Node000027"><a xlink:href="nt__traits_8h.html" target="_top" xlink:title=" ">
<polygon fill="white" stroke="#666666" points="373.5,-274 269.75,-274 269.75,-243.5 373.5,-243.5 373.5,-274"/>
<text text-anchor="start" x="277.75" y="-259.55" font-family="Helvetica,sans-Serif" font-size="11.00">floppy/euclid/detail</text>
<text text-anchor="middle" x="321.62" y="-248.3" font-family="Helvetica,sans-Serif" font-size="11.00">/nt_traits.h</text>
</a>
</g>
</g>
<!-- Node1&#45;&gt;Node27 -->
<g id="edge35_Node000001_Node000027" class="edge">
<title>Node1&#45;&gt;Node27</title>
<g id="a_edge35_Node000001_Node000027"><a xlink:title=" ">
<path fill="none" stroke="#63b8ff" d="M321.94,-364.82C327.58,-356.14 335.42,-342.46 338.62,-329.25 342.18,-314.59 338.54,-298.2 333.73,-285.02"/>
<polygon fill="#63b8ff" stroke="#63b8ff" points="336.97,-283.7 329.92,-275.79 330.5,-286.37 336.97,-283.7"/>
</a>
</g>
</g>
<!-- Node3 -->
<g id="Node000003" class="node">
<title>Node3</title>
<g id="a_Node000003"><a xlink:href="math_8h_source.html" target="_top" xlink:title=" ">
<polygon fill="white" stroke="#666666" points="285.12,-207.5 176.12,-207.5 176.12,-188.25 285.12,-188.25 285.12,-207.5"/>
<text text-anchor="middle" x="230.62" y="-193.05" font-family="Helvetica,sans-Serif" font-size="11.00">floppy/detail/math.h</text>
</a>
</g>
</g>
<!-- Node2&#45;&gt;Node3 -->
<g id="edge2_Node000002_Node000003" class="edge">
<title>Node2&#45;&gt;Node3</title>
<g id="a_edge2_Node000002_Node000003"><a xlink:title=" ">
<path fill="none" stroke="#63b8ff" d="M270.39,-309.62C263.48,-290.38 247.13,-244.85 237.69,-218.55"/>
<polygon fill="#63b8ff" stroke="#63b8ff" points="241.08,-217.63 234.41,-209.4 234.49,-220 241.08,-217.63"/>
</a>
</g>
</g>
<!-- Node21 -->
<g id="Node000021" class="node">
<title>Node21</title>
<g id="a_Node000021"><a xlink:href="traits_8h_source.html" target="_top" xlink:title=" ">
<polygon fill="white" stroke="#666666" points="653.5,-207.5 573.75,-207.5 573.75,-188.25 653.5,-188.25 653.5,-207.5"/>
<text text-anchor="middle" x="613.62" y="-193.05" font-family="Helvetica,sans-Serif" font-size="11.00">floppy/traits.h</text>
</a>
</g>
</g>
<!-- Node2&#45;&gt;Node21 -->
<g id="edge22_Node000002_Node000021" class="edge">
<title>Node2&#45;&gt;Node21</title>
<g id="a_edge22_Node000002_Node000021"><a xlink:title=" ">
<path fill="none" stroke="#63b8ff" d="M299.46,-309.53C359.35,-288.43 507.84,-236.13 577.04,-211.76"/>
<polygon fill="#63b8ff" stroke="#63b8ff" points="578.13,-215.09 586.4,-208.46 575.81,-208.48 578.13,-215.09"/>
</a>
</g>
</g>
<!-- Node2&#45;&gt;Node27 -->
<g id="edge32_Node000002_Node000027" class="edge">
<title>Node2&#45;&gt;Node27</title>
<g id="a_edge32_Node000002_Node000027"><a xlink:title=" ">
<path fill="none" stroke="#63b8ff" d="M280.92,-309.68C286.66,-302.64 294.94,-292.48 302.53,-283.17"/>
<polygon fill="#63b8ff" stroke="#63b8ff" points="305.21,-285.42 308.82,-275.46 299.79,-280.99 305.21,-285.42"/>
</a>
</g>
</g>
<!-- Node4 -->
<g id="Node000004" class="node">
<title>Node4</title>
<g id="a_Node000004"><a xlink:title=" ">
<polygon fill="#e0e0e0" stroke="#999999" points="45.25,-146.62 0,-146.62 0,-127.38 45.25,-127.38 45.25,-146.62"/>
<text text-anchor="middle" x="22.62" y="-132.18" font-family="Helvetica,sans-Serif" font-size="11.00">cmath</text>
</a>
</g>
</g>
<!-- Node3&#45;&gt;Node4 -->
<g id="edge3_Node000003_Node000004" class="edge">
<title>Node3&#45;&gt;Node4</title>
<g id="a_edge3_Node000003_Node000004"><a xlink:title=" ">
<path fill="none" stroke="#63b8ff" d="M186.25,-187.83C150.29,-179.97 98.56,-167.48 54.62,-152.25 53.67,-151.92 52.7,-151.57 51.73,-151.21"/>
<polygon fill="#63b8ff" stroke="#63b8ff" points="53.34,-148.09 42.76,-147.55 50.7,-154.57 53.34,-148.09"/>
</a>
</g>
</g>
<!-- Node5 -->
<g id="Node000005" class="node">
<title>Node5</title>
<g id="a_Node000005"><a xlink:title=" ">
<polygon fill="#e0e0e0" stroke="#999999" points="103.62,-146.62 63.62,-146.62 63.62,-127.38 103.62,-127.38 103.62,-146.62"/>
<text text-anchor="middle" x="83.62" y="-132.18" font-family="Helvetica,sans-Serif" font-size="11.00">limits</text>
</a>
</g>
</g>
<!-- Node3&#45;&gt;Node5 -->
<g id="edge4_Node000003_Node000005" class="edge">
<title>Node3&#45;&gt;Node5</title>
<g id="a_edge4_Node000003_Node000005"><a xlink:title=" ">
<path fill="none" stroke="#63b8ff" d="M204.56,-187.82C180.46,-179.27 143.77,-165.76 112.62,-152.25 112.28,-152.1 111.93,-151.95 111.58,-151.79"/>
<polygon fill="#63b8ff" stroke="#63b8ff" points="113.21,-148.69 102.66,-147.65 110.26,-155.04 113.21,-148.69"/>
</a>
</g>
</g>
<!-- Node6 -->
<g id="Node000006" class="node">
<title>Node6</title>
<g id="a_Node000006"><a xlink:title=" ">
<polygon fill="#e0e0e0" stroke="#999999" points="179.62,-146.62 121.62,-146.62 121.62,-127.38 179.62,-127.38 179.62,-146.62"/>
<text text-anchor="middle" x="150.62" y="-132.18" font-family="Helvetica,sans-Serif" font-size="11.00">numbers</text>
</a>
</g>
</g>
<!-- Node3&#45;&gt;Node6 -->
<g id="edge5_Node000003_Node000006" class="edge">
<title>Node3&#45;&gt;Node6</title>
<g id="a_edge5_Node000003_Node000006"><a xlink:title=" ">
<path fill="none" stroke="#63b8ff" d="M218.47,-187.93C206.14,-178.86 186.79,-164.62 171.91,-153.66"/>
<polygon fill="#63b8ff" stroke="#63b8ff" points="174.24,-151.03 164.11,-147.92 170.09,-156.67 174.24,-151.03"/>
</a>
</g>
</g>
<!-- Node7 -->
<g id="Node000007" class="node">
<title>Node7</title>
<g id="a_Node000007"><a xlink:title=" ">
<polygon fill="#e0e0e0" stroke="#999999" points="255.62,-146.62 197.62,-146.62 197.62,-127.38 255.62,-127.38 255.62,-146.62"/>
<text text-anchor="middle" x="226.62" y="-132.18" font-family="Helvetica,sans-Serif" font-size="11.00">compare</text>
</a>
</g>
</g>
<!-- Node3&#45;&gt;Node7 -->
<g id="edge6_Node000003_Node000007" class="edge">
<title>Node3&#45;&gt;Node7</title>
<g id="a_edge6_Node000003_Node000007"><a xlink:title=" ">
<path fill="none" stroke="#63b8ff" d="M230.02,-187.93C229.48,-180.07 228.69,-168.32 228,-158.2"/>
<polygon fill="#63b8ff" stroke="#63b8ff" points="231.51,-158.28 227.34,-148.54 224.53,-158.75 231.51,-158.28"/>
</a>
</g>
</g>
<!-- Node8 -->
<g id="Node000008" class="node">
<title>Node8</title>
<g id="a_Node000008"><a xlink:href="export_8h_source.html" target="_top" xlink:title=" ">
<polygon fill="white" stroke="#666666" points="538.12,-146.62 423.12,-146.62 423.12,-127.38 538.12,-127.38 538.12,-146.62"/>
<text text-anchor="middle" x="480.62" y="-132.18" font-family="Helvetica,sans-Serif" font-size="11.00">floppy/detail/export.h</text>
</a>
</g>
</g>
<!-- Node3&#45;&gt;Node8 -->
<g id="edge7_Node000003_Node000008" class="edge">
<title>Node3&#45;&gt;Node8</title>
<g id="a_edge7_Node000003_Node000008"><a xlink:title=" ">
<path fill="none" stroke="#63b8ff" d="M269.14,-187.8C312.63,-177.56 383.52,-160.87 431.1,-149.66"/>
<polygon fill="#63b8ff" stroke="#63b8ff" points="431.66,-153.13 440.59,-147.43 430.06,-146.31 431.66,-153.13"/>
</a>
</g>
</g>
<!-- Node13 -->
<g id="Node000013" class="node">
<title>Node13</title>
<g id="a_Node000013"><a xlink:href="concepts_8h_source.html" target="_top" xlink:title=" ">
<polygon fill="white" stroke="#666666" points="401.5,-146.62 273.75,-146.62 273.75,-127.38 401.5,-127.38 401.5,-146.62"/>
<text text-anchor="middle" x="337.62" y="-132.18" font-family="Helvetica,sans-Serif" font-size="11.00">floppy/detail/concepts.h</text>
</a>
</g>
</g>
<!-- Node3&#45;&gt;Node13 -->
<g id="edge12_Node000003_Node000013" class="edge">
<title>Node3&#45;&gt;Node13</title>
<g id="a_edge12_Node000003_Node000013"><a xlink:title=" ">
<path fill="none" stroke="#63b8ff" d="M246.88,-187.93C264,-178.51 291.24,-163.52 311.41,-152.43"/>
<polygon fill="#63b8ff" stroke="#63b8ff" points="312.82,-155.64 319.9,-147.76 309.45,-149.51 312.82,-155.64"/>
</a>
</g>
</g>
<!-- Node9 -->
<g id="Node000009" class="node">
<title>Node9</title>
<g id="a_Node000009"><a xlink:title=" ">
<polygon fill="#e0e0e0" stroke="#999999" points="452.75,-80.12 410.5,-80.12 410.5,-60.88 452.75,-60.88 452.75,-80.12"/>
<text text-anchor="middle" x="431.62" y="-65.67" font-family="Helvetica,sans-Serif" font-size="11.00">string</text>
</a>
</g>
</g>
<!-- Node8&#45;&gt;Node9 -->
<g id="edge8_Node000008_Node000009" class="edge">
<title>Node8&#45;&gt;Node9</title>
<g id="a_edge8_Node000008_Node000009"><a xlink:title=" ">
<path fill="none" stroke="#63b8ff" d="M473.81,-127.03C466.42,-117.31 454.44,-101.54 445.14,-89.28"/>
<polygon fill="#63b8ff" stroke="#63b8ff" points="448.13,-87.44 439.3,-81.6 442.56,-91.68 448.13,-87.44"/>
</a>
</g>
</g>
<!-- Node10 -->
<g id="Node000010" class="node">
<title>Node10</title>
<g id="a_Node000010"><a xlink:title=" ">
<polygon fill="#e0e0e0" stroke="#999999" points="654.62,-80.12 584.62,-80.12 584.62,-60.88 654.62,-60.88 654.62,-80.12"/>
<text text-anchor="middle" x="619.62" y="-65.67" font-family="Helvetica,sans-Serif" font-size="11.00">string_view</text>
</a>
</g>
</g>
<!-- Node8&#45;&gt;Node10 -->
<g id="edge9_Node000008_Node000010" class="edge">
<title>Node8&#45;&gt;Node10</title>
<g id="a_edge9_Node000008_Node000010"><a xlink:title=" ">
<path fill="none" stroke="#63b8ff" d="M500.25,-126.9C523.53,-116.09 562.6,-97.96 589.67,-85.4"/>
<polygon fill="#63b8ff" stroke="#63b8ff" points="591.13,-88.58 598.73,-81.2 588.19,-82.23 591.13,-88.58"/>
</a>
</g>
</g>
<!-- Node11 -->
<g id="Node000011" class="node">
<title>Node11</title>
<g id="a_Node000011"><a xlink:title=" ">
<polygon fill="#e0e0e0" stroke="#999999" points="566.25,-80.12 509,-80.12 509,-60.88 566.25,-60.88 566.25,-80.12"/>
<text text-anchor="middle" x="537.62" y="-65.67" font-family="Helvetica,sans-Serif" font-size="11.00">iostream</text>
</a>
</g>
</g>
<!-- Node8&#45;&gt;Node11 -->
<g id="edge10_Node000008_Node000011" class="edge">
<title>Node8&#45;&gt;Node11</title>
<g id="a_edge10_Node000008_Node000011"><a xlink:title=" ">
<path fill="none" stroke="#63b8ff" d="M488.55,-127.03C497.23,-117.21 511.36,-101.23 522.23,-88.92"/>
<polygon fill="#63b8ff" stroke="#63b8ff" points="524.77,-91.34 528.76,-81.53 519.52,-86.7 524.77,-91.34"/>
</a>
</g>
</g>
<!-- Node12 -->
<g id="Node000012" class="node">
<title>Node12</title>
<g id="a_Node000012"><a xlink:title=" ">
<polygon fill="#e0e0e0" stroke="#999999" points="520.5,-19.25 446.75,-19.25 446.75,0 520.5,0 520.5,-19.25"/>
<text text-anchor="middle" x="483.62" y="-4.8" font-family="Helvetica,sans-Serif" font-size="11.00">fmt/format.h</text>
</a>
</g>
</g>
<!-- Node8&#45;&gt;Node12 -->
<g id="edge11_Node000008_Node000012" class="edge">
<title>Node8&#45;&gt;Node12</title>
<g id="a_edge11_Node000008_Node000012"><a xlink:title=" ">
<path fill="none" stroke="#63b8ff" d="M480.84,-126.98C481.32,-107.01 482.48,-58.64 483.14,-30.96"/>
<polygon fill="#63b8ff" stroke="#63b8ff" points="486.63,-31.15 483.37,-21.07 479.64,-30.99 486.63,-31.15"/>
</a>
</g>
</g>
<!-- Node14 -->
<g id="Node000014" class="node">
<title>Node14</title>
<g id="a_Node000014"><a xlink:title=" ">
<polygon fill="#e0e0e0" stroke="#999999" points="264,-80.12 205.25,-80.12 205.25,-60.88 264,-60.88 264,-80.12"/>
<text text-anchor="middle" x="234.62" y="-65.67" font-family="Helvetica,sans-Serif" font-size="11.00">concepts</text>
</a>
</g>
</g>
<!-- Node13&#45;&gt;Node14 -->
<g id="edge13_Node000013_Node000014" class="edge">
<title>Node13&#45;&gt;Node14</title>
<g id="a_edge13_Node000013_Node000014"><a xlink:title=" ">
<path fill="none" stroke="#63b8ff" d="M323.3,-127.03C306.64,-116.6 278.86,-99.2 258.83,-86.65"/>
<polygon fill="#63b8ff" stroke="#63b8ff" points="260.77,-83.74 250.44,-81.4 257.06,-89.68 260.77,-83.74"/>
</a>
</g>
</g>
<!-- Node15 -->
<g id="Node000015" class="node">
<title>Node15</title>
<g id="a_Node000015"><a xlink:href="type__traits_8h_source.html" target="_top" xlink:title=" ">
<polygon fill="white" stroke="#666666" points="186.75,-85.75 90.5,-85.75 90.5,-55.25 186.75,-55.25 186.75,-85.75"/>
<text text-anchor="start" x="98.5" y="-71.3" font-family="Helvetica,sans-Serif" font-size="11.00">floppy/detail/type</text>
<text text-anchor="middle" x="138.62" y="-60.05" font-family="Helvetica,sans-Serif" font-size="11.00">_traits.h</text>
</a>
</g>
</g>
<!-- Node13&#45;&gt;Node15 -->
<g id="edge14_Node000013_Node000015" class="edge">
<title>Node13&#45;&gt;Node15</title>
<g id="a_edge14_Node000013_Node000015"><a xlink:title=" ">
<path fill="none" stroke="#63b8ff" d="M309.54,-126.9C279.79,-117.26 232.06,-101.78 194.59,-89.64"/>
<polygon fill="#63b8ff" stroke="#63b8ff" points="195.85,-86.37 185.26,-86.62 193.69,-93.03 195.85,-86.37"/>
</a>
</g>
</g>
<!-- Node17 -->
<g id="Node000017" class="node">
<title>Node17</title>
<g id="a_Node000017"><a xlink:href="types_8h_source.html" target="_top" xlink:title=" ">
<polygon fill="white" stroke="#666666" points="392.88,-80.12 282.38,-80.12 282.38,-60.88 392.88,-60.88 392.88,-80.12"/>
<text text-anchor="middle" x="337.62" y="-65.67" font-family="Helvetica,sans-Serif" font-size="11.00">floppy/detail/types.h</text>
</a>
</g>
</g>
<!-- Node13&#45;&gt;Node17 -->
<g id="edge16_Node000013_Node000017" class="edge">
<title>Node13&#45;&gt;Node17</title>
<g id="a_edge16_Node000013_Node000017"><a xlink:title=" ">
<path fill="none" stroke="#63b8ff" d="M337.62,-127.03C337.62,-117.98 337.62,-103.7 337.62,-91.88"/>
<polygon fill="#63b8ff" stroke="#63b8ff" points="341.13,-91.91 337.63,-81.91 334.13,-91.91 341.13,-91.91"/>
</a>
</g>
</g>
<!-- Node16 -->
<g id="Node000016" class="node">
<title>Node16</title>
<g id="a_Node000016"><a xlink:title=" ">
<polygon fill="#e0e0e0" stroke="#999999" points="199.38,-19.25 133.88,-19.25 133.88,0 199.38,0 199.38,-19.25"/>
<text text-anchor="middle" x="166.62" y="-4.8" font-family="Helvetica,sans-Serif" font-size="11.00">type_traits</text>
</a>
</g>
</g>
<!-- Node15&#45;&gt;Node16 -->
<g id="edge15_Node000015_Node000016" class="edge">
<title>Node15&#45;&gt;Node16</title>
<g id="a_edge15_Node000015_Node000016"><a xlink:title=" ">
<path fill="none" stroke="#63b8ff" d="M145.55,-54.95C149.11,-47.45 153.51,-38.2 157.37,-30.1"/>
<polygon fill="#63b8ff" stroke="#63b8ff" points="160.52,-31.6 161.66,-21.07 154.2,-28.6 160.52,-31.6"/>
</a>
</g>
</g>
<!-- Node17&#45;&gt;Node12 -->
<g id="edge21_Node000017_Node000012" class="edge">
<title>Node17&#45;&gt;Node12</title>
<g id="a_edge21_Node000017_Node000012"><a xlink:title=" ">
<path fill="none" stroke="#63b8ff" d="M360.12,-60.43C384.41,-50.63 423.34,-34.94 450.99,-23.79"/>
<polygon fill="#63b8ff" stroke="#63b8ff" points="451.98,-27.16 459.94,-20.17 449.36,-20.67 451.98,-27.16"/>
</a>
</g>
</g>
<!-- Node17&#45;&gt;Node16 -->
<g id="edge20_Node000017_Node000016" class="edge">
<title>Node17&#45;&gt;Node16</title>
<g id="a_edge20_Node000017_Node000016"><a xlink:title=" ">
<path fill="none" stroke="#63b8ff" d="M311.28,-60.43C282.54,-50.53 236.29,-34.61 203.85,-23.44"/>
<polygon fill="#63b8ff" stroke="#63b8ff" points="205.02,-20.14 194.43,-20.2 202.75,-26.76 205.02,-20.14"/>
</a>
</g>
</g>
<!-- Node18 -->
<g id="Node000018" class="node">
<title>Node18</title>
<g id="a_Node000018"><a xlink:title=" ">
<polygon fill="#e0e0e0" stroke="#999999" points="428.88,-19.25 378.38,-19.25 378.38,0 428.88,0 428.88,-19.25"/>
<text text-anchor="middle" x="403.62" y="-4.8" font-family="Helvetica,sans-Serif" font-size="11.00">cstddef</text>
</a>
</g>
</g>
<!-- Node17&#45;&gt;Node18 -->
<g id="edge17_Node000017_Node000018" class="edge">
<title>Node17&#45;&gt;Node18</title>
<g id="a_edge17_Node000017_Node000018"><a xlink:title=" ">
<path fill="none" stroke="#63b8ff" d="M347.65,-60.56C357.53,-51.74 372.88,-38.05 385.01,-27.23"/>
<polygon fill="#63b8ff" stroke="#63b8ff" points="387.24,-29.93 392.38,-20.66 382.58,-24.7 387.24,-29.93"/>
</a>
</g>
</g>
<!-- Node19 -->
<g id="Node000019" class="node">
<title>Node19</title>
<g id="a_Node000019"><a xlink:title=" ">
<polygon fill="#e0e0e0" stroke="#999999" points="289,-19.25 242.25,-19.25 242.25,0 289,0 289,-19.25"/>
<text text-anchor="middle" x="265.62" y="-4.8" font-family="Helvetica,sans-Serif" font-size="11.00">cstdint</text>
</a>
</g>
</g>
<!-- Node17&#45;&gt;Node19 -->
<g id="edge18_Node000017_Node000019" class="edge">
<title>Node17&#45;&gt;Node19</title>
<g id="a_edge18_Node000017_Node000019"><a xlink:title=" ">
<path fill="none" stroke="#63b8ff" d="M326.69,-60.56C315.8,-51.65 298.84,-37.78 285.55,-26.92"/>
<polygon fill="#63b8ff" stroke="#63b8ff" points="287.79,-24.23 277.83,-20.61 283.36,-29.65 287.79,-24.23"/>
</a>
</g>
</g>
<!-- Node20 -->
<g id="Node000020" class="node">
<title>Node20</title>
<g id="a_Node000020"><a xlink:title=" ">
<polygon fill="#e0e0e0" stroke="#999999" points="360.38,-19.25 306.88,-19.25 306.88,0 360.38,0 360.38,-19.25"/>
<text text-anchor="middle" x="333.62" y="-4.8" font-family="Helvetica,sans-Serif" font-size="11.00">optional</text>
</a>
</g>
</g>
<!-- Node17&#45;&gt;Node20 -->
<g id="edge19_Node000017_Node000020" class="edge">
<title>Node17&#45;&gt;Node20</title>
<g id="a_edge19_Node000017_Node000020"><a xlink:title=" ">
<path fill="none" stroke="#63b8ff" d="M337.02,-60.56C336.48,-52.69 335.69,-40.95 335,-30.82"/>
<polygon fill="#63b8ff" stroke="#63b8ff" points="338.51,-30.9 334.34,-21.16 331.53,-31.38 338.51,-30.9"/>
</a>
</g>
</g>
<!-- Node21&#45;&gt;Node8 -->
<g id="edge26_Node000021_Node000008" class="edge">
<title>Node21&#45;&gt;Node8</title>
<g id="a_edge26_Node000021_Node000008"><a xlink:title=" ">
<path fill="none" stroke="#63b8ff" d="M593.14,-187.8C571.3,-178.14 536.49,-162.73 511.36,-151.61"/>
<polygon fill="#63b8ff" stroke="#63b8ff" points="512.86,-148.44 502.3,-147.6 510.03,-154.84 512.86,-148.44"/>
</a>
</g>
</g>
<!-- Node21&#45;&gt;Node11 -->
<g id="edge24_Node000021_Node000011" class="edge">
<title>Node21&#45;&gt;Node11</title>
<g id="a_edge24_Node000021_Node000011"><a xlink:title=" ">
<path fill="none" stroke="#63b8ff" d="M607.98,-188.02C602.28,-179.05 593.25,-164.74 585.62,-152.25 572.65,-131.01 558.09,-106.41 548.45,-89.99"/>
<polygon fill="#63b8ff" stroke="#63b8ff" points="551.73,-88.66 543.65,-81.81 545.69,-92.21 551.73,-88.66"/>
</a>
</g>
</g>
<!-- Node22 -->
<g id="Node000022" class="node">
<title>Node22</title>
<g id="a_Node000022"><a xlink:title=" ">
<polygon fill="#e0e0e0" stroke="#999999" points="801.12,-146.62 746.12,-146.62 746.12,-127.38 801.12,-127.38 801.12,-146.62"/>
<text text-anchor="middle" x="773.62" y="-132.18" font-family="Helvetica,sans-Serif" font-size="11.00">memory</text>
</a>
</g>
</g>
<!-- Node21&#45;&gt;Node22 -->
<g id="edge23_Node000021_Node000022" class="edge">
<title>Node21&#45;&gt;Node22</title>
<g id="a_edge23_Node000021_Node000022"><a xlink:title=" ">
<path fill="none" stroke="#63b8ff" d="M639.36,-187.88C664.5,-179.03 703.81,-165.02 737.62,-152.25 738.59,-151.89 739.56,-151.52 740.55,-151.14"/>
<polygon fill="#63b8ff" stroke="#63b8ff" points="741.73,-154.43 749.79,-147.55 739.2,-147.91 741.73,-154.43"/>
</a>
</g>
</g>
<!-- Node23 -->
<g id="Node000023" class="node">
<title>Node23</title>
<g id="a_Node000023"><a xlink:title=" ">
<polygon fill="#e0e0e0" stroke="#999999" points="948.25,-152.25 819,-152.25 819,-121.75 948.25,-121.75 948.25,-152.25"/>
<text text-anchor="start" x="827" y="-137.8" font-family="Helvetica,sans-Serif" font-size="11.00">experimental/propagate</text>
<text text-anchor="middle" x="883.62" y="-126.55" font-family="Helvetica,sans-Serif" font-size="11.00">_const</text>
</a>
</g>
</g>
<!-- Node21&#45;&gt;Node23 -->
<g id="edge25_Node000021_Node000023" class="edge">
<title>Node21&#45;&gt;Node23</title>
<g id="a_edge25_Node000021_Node000023"><a xlink:title=" ">
<path fill="none" stroke="#63b8ff" d="M653.76,-188.12C694.18,-179.31 757.56,-165.49 807.53,-154.59"/>
<polygon fill="#63b8ff" stroke="#63b8ff" points="808.12,-158.05 817.15,-152.5 806.63,-151.21 808.12,-158.05"/>
</a>
</g>
</g>
<!-- Node24 -->
<g id="Node000024" class="node">
<title>Node24</title>
<g id="a_Node000024"><a xlink:href="formatters_8h_source.html" target="_top" xlink:title=" ">
<polygon fill="white" stroke="#666666" points="728.5,-146.62 594.75,-146.62 594.75,-127.38 728.5,-127.38 728.5,-146.62"/>
<text text-anchor="middle" x="661.62" y="-132.18" font-family="Helvetica,sans-Serif" font-size="11.00">floppy/detail/formatters.h</text>
</a>
</g>
</g>
<!-- Node21&#45;&gt;Node24 -->
<g id="edge27_Node000021_Node000024" class="edge">
<title>Node21&#45;&gt;Node24</title>
<g id="a_edge27_Node000021_Node000024"><a xlink:title=" ">
<path fill="none" stroke="#63b8ff" d="M620.92,-187.93C627.82,-179.46 638.4,-166.49 647.04,-155.89"/>
<polygon fill="#63b8ff" stroke="#63b8ff" points="649.7,-158.16 653.31,-148.2 644.28,-153.74 649.7,-158.16"/>
</a>
</g>
</g>
<!-- Node24&#45;&gt;Node10 -->
<g id="edge28_Node000024_Node000010" class="edge">
<title>Node24&#45;&gt;Node10</title>
<g id="a_edge28_Node000024_Node000010"><a xlink:title=" ">
<path fill="none" stroke="#63b8ff" d="M655.79,-127.03C649.58,-117.5 639.59,-102.16 631.68,-90.02"/>
<polygon fill="#63b8ff" stroke="#63b8ff" points="634.63,-88.13 626.24,-81.66 628.76,-91.95 634.63,-88.13"/>
</a>
</g>
</g>
<!-- Node24&#45;&gt;Node12 -->
<g id="edge31_Node000024_Node000012" class="edge">
<title>Node24&#45;&gt;Node12</title>
<g id="a_edge31_Node000024_Node000012"><a xlink:title=" ">
<path fill="none" stroke="#63b8ff" d="M678.57,-126.99C704.58,-112.02 749.19,-81.12 727.62,-55.25 703.22,-25.98 595.94,-15.85 532.04,-12.39"/>
<polygon fill="#63b8ff" stroke="#63b8ff" points="532.31,-8.9 522.15,-11.89 531.96,-15.89 532.31,-8.9"/>
</a>
</g>
</g>
<!-- Node25 -->
<g id="Node000025" class="node">
<title>Node25</title>
<g id="a_Node000025"><a xlink:title=" ">
<polygon fill="#e0e0e0" stroke="#999999" points="828.75,-80.12 774.5,-80.12 774.5,-60.88 828.75,-60.88 828.75,-80.12"/>
<text text-anchor="middle" x="801.62" y="-65.67" font-family="Helvetica,sans-Serif" font-size="11.00">sstream</text>
</a>
</g>
</g>
<!-- Node24&#45;&gt;Node25 -->
<g id="edge29_Node000024_Node000025" class="edge">
<title>Node24&#45;&gt;Node25</title>
<g id="a_edge29_Node000024_Node000025"><a xlink:title=" ">
<path fill="none" stroke="#63b8ff" d="M681.39,-126.9C704.94,-116.04 744.54,-97.8 771.82,-85.23"/>
<polygon fill="#63b8ff" stroke="#63b8ff" points="772.97,-88.55 780.59,-81.19 770.04,-82.2 772.97,-88.55"/>
</a>
</g>
</g>
<!-- Node26 -->
<g id="Node000026" class="node">
<title>Node26</title>
<g id="a_Node000026"><a xlink:title=" ">
<polygon fill="#e0e0e0" stroke="#999999" points="719,-80.12 672.25,-80.12 672.25,-60.88 719,-60.88 719,-80.12"/>
<text text-anchor="middle" x="695.62" y="-65.67" font-family="Helvetica,sans-Serif" font-size="11.00">iosfwd</text>
</a>
</g>
</g>
<!-- Node24&#45;&gt;Node26 -->
<g id="edge30_Node000024_Node000026" class="edge">
<title>Node24&#45;&gt;Node26</title>
<g id="a_edge30_Node000024_Node000026"><a xlink:title=" ">
<path fill="none" stroke="#63b8ff" d="M666.35,-127.03C671.33,-117.6 679.3,-102.47 685.67,-90.38"/>
<polygon fill="#63b8ff" stroke="#63b8ff" points="688.66,-92.21 690.23,-81.73 682.47,-88.95 688.66,-92.21"/>
</a>
</g>
</g>
<!-- Node27&#45;&gt;Node3 -->
<g id="edge33_Node000027_Node000003" class="edge">
<title>Node27&#45;&gt;Node3</title>
<g id="a_edge33_Node000027_Node000003"><a xlink:title=" ">
<path fill="none" stroke="#63b8ff" d="M299.13,-243.2C285.41,-234.32 267.9,-222.99 254.02,-214.01"/>
<polygon fill="#63b8ff" stroke="#63b8ff" points="256.22,-211.27 245.92,-208.77 252.42,-217.14 256.22,-211.27"/>
</a>
</g>
</g>
<!-- Node27&#45;&gt;Node13 -->
<g id="edge34_Node000027_Node000013" class="edge">
<title>Node27&#45;&gt;Node13</title>
<g id="a_edge34_Node000027_Node000013"><a xlink:title=" ">
<path fill="none" stroke="#63b8ff" d="M323.59,-243.07C326.43,-221.78 331.71,-182.29 334.92,-158.26"/>
<polygon fill="#63b8ff" stroke="#63b8ff" points="338.37,-158.86 336.22,-148.49 331.43,-157.94 338.37,-158.86"/>
</a>
</g>
</g>
</g>
</svg>
