<?xml version="1.0" encoding="UTF-8" standalone="no"?>
<!DOCTYPE svg PUBLIC "-//W3C//DTD SVG 1.1//EN"
 "http://www.w3.org/Graphics/SVG/1.1/DTD/svg11.dtd">
<!-- Generated by graphviz version 10.0.1 (0)
 -->
<!-- Title: length.h Pages: 1 -->
<!--zoomable 514 -->

<svg id="main" version="1.1" xmlns="http://www.w3.org/2000/svg" xmlns:xlink="http://www.w3.org/1999/xlink" xml:space="preserve" onload="init(evt)">
<style type="text/css"><![CDATA[
.node, .edge {opacity: 0.7;}
.node.selected, .edge.selected {opacity: 1;}
.edge:hover path { stroke: red; }
.edge:hover polygon { stroke: red; fill: red; }
]]></style>

<defs>
  <circle id="rim" cx="0" cy="0" r="7"/>
  <circle id="rim2" cx="0" cy="0" r="3.5"/>
  <g id="zoomPlus">
    <use xlink:href="#rim" fill="#404040"><set attributeName="fill" to="#808080" begin="zoomplus.mouseover" end="zoomplus.mouseout"/></use>
    <path d="M-4,0h8M0,-4v8" fill="none" stroke="white" stroke-width="1.5" pointer-events="none"/>
  </g>
  <g id="zoomMin">
    <use xlink:href="#rim" fill="#404040"><set attributeName="fill" to="#808080" begin="zoomminus.mouseover" end="zoomminus.mouseout"/></use>
    <path d="M-4,0h8" fill="none" stroke="white" stroke-width="1.5" pointer-events="none"/>
  </g>
  <g id="arrowUp" transform="translate(30 24)">
    <use xlink:href="#rim"/>
    <path pointer-events="none" fill="none" stroke="white" stroke-width="1.5" d="M0,-3.0v7 M-2.5,-0.5L0,-3.0L2.5,-0.5"/>
  </g>
  <g id="arrowRight" transform="rotate(90) translate(36 -43)">
    <use xlink:href="#rim"/>
    <path pointer-events="none" fill="none" stroke="white" stroke-width="1.5" d="M0,-3.0v7 M-2.5,-0.5L0,-3.0L2.5,-0.5"/>
  </g>
  <g id="arrowDown" transform="rotate(180) translate(-30 -48)">
    <use xlink:href="#rim"/>
    <path pointer-events="none" fill="none" stroke="white" stroke-width="1.5" d="M0,-3.0v7 M-2.5,-0.5L0,-3.0L2.5,-0.5"/>
  </g>
  <g id="arrowLeft" transform="rotate(270) translate(-36 17)">
    <use xlink:href="#rim"/>
    <path pointer-events="none" fill="none" stroke="white" stroke-width="1.5" d="M0,-3.0v7 M-2.5,-0.5L0,-3.0L2.5,-0.5"/>
  </g>
  <g id="resetDef">
    <use xlink:href="#rim2" fill="#404040"><set attributeName="fill" to="#808080" begin="reset.mouseover" end="reset.mouseout"/></use>
  </g>
</defs>
<script type="application/ecmascript">
var viewWidth = 1549;
var viewHeight = 514;
var sectionId = 'dynsection-0';
</script>
<script type="application/ecmascript" xlink:href="svg.min.js"/>
<svg id="graph" class="graph">
<g id="viewport">
<title>length.h</title>
<!-- Node1 -->
<g id="Node000001" class="node">
<title>Node1</title>
<g id="a_Node000001"><a xlink:title="A one&#45;dimensional distance with associated unit of measurement.">
<polygon fill="#999999" stroke="#666666" points="1540.62,-506.25 1486.38,-506.25 1486.38,-487 1540.62,-487 1540.62,-506.25"/>
<text text-anchor="middle" x="1513.5" y="-491.8" font-family="Helvetica,sans-Serif" font-size="11.00">length.h</text>
</a>
</g>
</g>
<!-- Node2 -->
<g id="Node000002" class="node">
<title>Node2</title>
<g id="a_Node000002"><a xlink:href="scale_8h.html" target="_top" xlink:title="A scaling factor between two different units of measurement.">
<polygon fill="white" stroke="#666666" points="1527.5,-451 1415.5,-451 1415.5,-431.75 1527.5,-431.75 1527.5,-451"/>
<text text-anchor="middle" x="1471.5" y="-436.55" font-family="Helvetica,sans-Serif" font-size="11.00">floppy/euclid/scale.h</text>
</a>
</g>
</g>
<!-- Node1&#45;&gt;Node2 -->
<g id="edge1_Node000001_Node000002" class="edge">
<title>Node1&#45;&gt;Node2</title>
<g id="a_edge1_Node000001_Node000002"><a xlink:title=" ">
<path fill="none" stroke="#63b8ff" d="M1506.56,-486.83C1500.88,-479.63 1492.66,-469.21 1485.61,-460.26"/>
<polygon fill="#63b8ff" stroke="#63b8ff" points="1488.46,-458.23 1479.52,-452.55 1482.97,-462.57 1488.46,-458.23"/>
</a>
</g>
</g>
<!-- Node38 -->
<g id="Node000038" class="node">
<title>Node38</title>
<g id="a_Node000038"><a xlink:href="nt__traits_8h.html" target="_top" xlink:title=" ">
<polygon fill="white" stroke="#666666" points="1356.38,-274 1252.62,-274 1252.62,-243.5 1356.38,-243.5 1356.38,-274"/>
<text text-anchor="start" x="1260.62" y="-259.55" font-family="Helvetica,sans-Serif" font-size="11.00">floppy/euclid/detail</text>
<text text-anchor="middle" x="1304.5" y="-248.3" font-family="Helvetica,sans-Serif" font-size="11.00">/nt_traits.h</text>
</a>
</g>
</g>
<!-- Node1&#45;&gt;Node38 -->
<g id="edge68_Node000001_Node000038" class="edge">
<title>Node1&#45;&gt;Node38</title>
<g id="a_edge68_Node000001_Node000038"><a xlink:title=" ">
<path fill="none" stroke="#63b8ff" d="M1520.31,-486.71C1528.78,-474.52 1541.54,-451.87 1536.5,-431.75 1521.61,-372.24 1518.95,-348.87 1471.5,-310 1442.25,-286.04 1401.8,-273.5 1368.03,-266.94"/>
<polygon fill="#63b8ff" stroke="#63b8ff" points="1368.81,-263.52 1358.35,-265.2 1367.58,-270.41 1368.81,-263.52"/>
</a>
</g>
</g>
<!-- Node3 -->
<g id="Node000003" class="node">
<title>Node3</title>
<g id="a_Node000003"><a xlink:href="math_8h_source.html" target="_top" xlink:title=" ">
<polygon fill="white" stroke="#666666" points="1359,-201.88 1250,-201.88 1250,-182.62 1359,-182.62 1359,-201.88"/>
<text text-anchor="middle" x="1304.5" y="-187.43" font-family="Helvetica,sans-Serif" font-size="11.00">floppy/detail/math.h</text>
</a>
</g>
</g>
<!-- Node2&#45;&gt;Node3 -->
<g id="edge2_Node000002_Node000003" class="edge">
<title>Node2&#45;&gt;Node3</title>
<g id="a_edge2_Node000002_Node000003"><a xlink:title=" ">
<path fill="none" stroke="#63b8ff" d="M1474.4,-431.35C1481.03,-408.95 1494.95,-349.77 1471.5,-310 1441.2,-258.61 1378.35,-224.26 1338.98,-206.8"/>
<polygon fill="#63b8ff" stroke="#63b8ff" points="1340.51,-203.65 1329.94,-202.92 1337.75,-210.08 1340.51,-203.65"/>
</a>
</g>
</g>
<!-- Node21 -->
<g id="Node000021" class="node">
<title>Node21</title>
<g id="a_Node000021"><a xlink:href="traits_8h_source.html" target="_top" xlink:title=" ">
<polygon fill="white" stroke="#666666" points="1469.38,-395.75 1389.62,-395.75 1389.62,-376.5 1469.38,-376.5 1469.38,-395.75"/>
<text text-anchor="middle" x="1429.5" y="-381.3" font-family="Helvetica,sans-Serif" font-size="11.00">floppy/traits.h</text>
</a>
</g>
</g>
<!-- Node2&#45;&gt;Node21 -->
<g id="edge22_Node000002_Node000021" class="edge">
<title>Node2&#45;&gt;Node21</title>
<g id="a_edge22_Node000002_Node000021"><a xlink:title=" ">
<path fill="none" stroke="#63b8ff" d="M1464.56,-431.58C1458.88,-424.38 1450.66,-413.96 1443.61,-405.01"/>
<polygon fill="#63b8ff" stroke="#63b8ff" points="1446.46,-402.98 1437.52,-397.3 1440.97,-407.32 1446.46,-402.98"/>
</a>
</g>
</g>
<!-- Node2&#45;&gt;Node38 -->
<g id="edge65_Node000002_Node000038" class="edge">
<title>Node2&#45;&gt;Node38</title>
<g id="a_edge65_Node000002_Node000038"><a xlink:title=" ">
<path fill="none" stroke="#63b8ff" d="M1445.65,-431.35C1410.96,-417.7 1350.57,-388.22 1323.5,-340.5 1313.89,-323.57 1309.13,-302 1306.78,-285.41"/>
<polygon fill="#63b8ff" stroke="#63b8ff" points="1310.3,-285.37 1305.64,-275.86 1303.35,-286.2 1310.3,-285.37"/>
</a>
</g>
</g>
<!-- Node4 -->
<g id="Node000004" class="node">
<title>Node4</title>
<g id="a_Node000004"><a xlink:title=" ">
<polygon fill="#e0e0e0" stroke="#999999" points="1462.12,-141 1416.88,-141 1416.88,-121.75 1462.12,-121.75 1462.12,-141"/>
<text text-anchor="middle" x="1439.5" y="-126.55" font-family="Helvetica,sans-Serif" font-size="11.00">cmath</text>
</a>
</g>
</g>
<!-- Node3&#45;&gt;Node4 -->
<g id="edge3_Node000003_Node000004" class="edge">
<title>Node3&#45;&gt;Node4</title>
<g id="a_edge3_Node000003_Node000004"><a xlink:title=" ">
<path fill="none" stroke="#63b8ff" d="M1325.3,-182.18C1347.56,-172.47 1383.12,-156.96 1408.64,-145.83"/>
<polygon fill="#63b8ff" stroke="#63b8ff" points="1409.75,-149.17 1417.51,-141.96 1406.95,-142.75 1409.75,-149.17"/>
</a>
</g>
</g>
<!-- Node5 -->
<g id="Node000005" class="node">
<title>Node5</title>
<g id="a_Node000005"><a xlink:title=" ">
<polygon fill="#e0e0e0" stroke="#999999" points="1248.5,-80.12 1208.5,-80.12 1208.5,-60.88 1248.5,-60.88 1248.5,-80.12"/>
<text text-anchor="middle" x="1228.5" y="-65.67" font-family="Helvetica,sans-Serif" font-size="11.00">limits</text>
</a>
</g>
</g>
<!-- Node3&#45;&gt;Node5 -->
<g id="edge4_Node000003_Node000005" class="edge">
<title>Node3&#45;&gt;Node5</title>
<g id="a_edge4_Node000003_Node000005"><a xlink:title=" ">
<path fill="none" stroke="#63b8ff" d="M1324.06,-182.31C1348.83,-169.72 1386.35,-145.65 1369.5,-121.75 1344.89,-86.85 1293.78,-76.05 1260.33,-72.79"/>
<polygon fill="#63b8ff" stroke="#63b8ff" points="1260.64,-69.3 1250.4,-72.02 1260.09,-76.28 1260.64,-69.3"/>
</a>
</g>
</g>
<!-- Node6 -->
<g id="Node000006" class="node">
<title>Node6</title>
<g id="a_Node000006"><a xlink:title=" ">
<polygon fill="#e0e0e0" stroke="#999999" points="1360.5,-141 1302.5,-141 1302.5,-121.75 1360.5,-121.75 1360.5,-141"/>
<text text-anchor="middle" x="1331.5" y="-126.55" font-family="Helvetica,sans-Serif" font-size="11.00">numbers</text>
</a>
</g>
</g>
<!-- Node3&#45;&gt;Node6 -->
<g id="edge5_Node000003_Node000006" class="edge">
<title>Node3&#45;&gt;Node6</title>
<g id="a_edge5_Node000003_Node000006"><a xlink:title=" ">
<path fill="none" stroke="#63b8ff" d="M1308.6,-182.31C1312.33,-174.18 1317.95,-161.92 1322.69,-151.58"/>
<polygon fill="#63b8ff" stroke="#63b8ff" points="1325.74,-153.33 1326.73,-142.78 1319.38,-150.41 1325.74,-153.33"/>
</a>
</g>
</g>
<!-- Node7 -->
<g id="Node000007" class="node">
<title>Node7</title>
<g id="a_Node000007"><a xlink:title=" ">
<polygon fill="#e0e0e0" stroke="#999999" points="1246.5,-141 1188.5,-141 1188.5,-121.75 1246.5,-121.75 1246.5,-141"/>
<text text-anchor="middle" x="1217.5" y="-126.55" font-family="Helvetica,sans-Serif" font-size="11.00">compare</text>
</a>
</g>
</g>
<!-- Node3&#45;&gt;Node7 -->
<g id="edge6_Node000003_Node000007" class="edge">
<title>Node3&#45;&gt;Node7</title>
<g id="a_edge6_Node000003_Node000007"><a xlink:title=" ">
<path fill="none" stroke="#63b8ff" d="M1291.29,-182.31C1277.75,-173.14 1256.43,-158.72 1240.18,-147.73"/>
<polygon fill="#63b8ff" stroke="#63b8ff" points="1242.33,-144.96 1232.09,-142.25 1238.41,-150.75 1242.33,-144.96"/>
</a>
</g>
</g>
<!-- Node8 -->
<g id="Node000008" class="node">
<title>Node8</title>
<g id="a_Node000008"><a xlink:href="export_8h_source.html" target="_top" xlink:title=" ">
<polygon fill="white" stroke="#666666" points="1029,-80.12 914,-80.12 914,-60.88 1029,-60.88 1029,-80.12"/>
<text text-anchor="middle" x="971.5" y="-65.67" font-family="Helvetica,sans-Serif" font-size="11.00">floppy/detail/export.h</text>
</a>
</g>
</g>
<!-- Node3&#45;&gt;Node8 -->
<g id="edge7_Node000003_Node000008" class="edge">
<title>Node3&#45;&gt;Node8</title>
<g id="a_edge7_Node000003_Node000008"><a xlink:title=" ">
<path fill="none" stroke="#63b8ff" d="M1300.92,-182.29C1294.37,-167.14 1278.93,-136.63 1255.5,-121.75 1220.65,-99.61 1112.83,-85.14 1040.52,-77.65"/>
<polygon fill="#63b8ff" stroke="#63b8ff" points="1041.05,-74.18 1030.75,-76.66 1040.34,-81.15 1041.05,-74.18"/>
</a>
</g>
</g>
<!-- Node13 -->
<g id="Node000013" class="node">
<title>Node13</title>
<g id="a_Node000013"><a xlink:href="concepts_8h_source.html" target="_top" xlink:title=" ">
<polygon fill="white" stroke="#666666" points="629.38,-141 501.62,-141 501.62,-121.75 629.38,-121.75 629.38,-141"/>
<text text-anchor="middle" x="565.5" y="-126.55" font-family="Helvetica,sans-Serif" font-size="11.00">floppy/detail/concepts.h</text>
</a>
</g>
</g>
<!-- Node3&#45;&gt;Node13 -->
<g id="edge12_Node000003_Node000013" class="edge">
<title>Node3&#45;&gt;Node13</title>
<g id="a_edge12_Node000003_Node000013"><a xlink:title=" ">
<path fill="none" stroke="#63b8ff" d="M1249.65,-185.84C1220.5,-183.04 1184.07,-179.66 1151.5,-177 927.37,-158.7 867.96,-162.29 640.87,-141.18"/>
<polygon fill="#63b8ff" stroke="#63b8ff" points="641.37,-137.71 631.08,-140.26 640.71,-144.68 641.37,-137.71"/>
</a>
</g>
</g>
<!-- Node9 -->
<g id="Node000009" class="node">
<title>Node9</title>
<g id="a_Node000009"><a xlink:title=" ">
<polygon fill="#e0e0e0" stroke="#999999" points="992.62,-19.25 950.38,-19.25 950.38,0 992.62,0 992.62,-19.25"/>
<text text-anchor="middle" x="971.5" y="-4.8" font-family="Helvetica,sans-Serif" font-size="11.00">string</text>
</a>
</g>
</g>
<!-- Node8&#45;&gt;Node9 -->
<g id="edge8_Node000008_Node000009" class="edge">
<title>Node8&#45;&gt;Node9</title>
<g id="a_edge8_Node000008_Node000009"><a xlink:title=" ">
<path fill="none" stroke="#63b8ff" d="M971.5,-60.56C971.5,-52.78 971.5,-41.2 971.5,-31.16"/>
<polygon fill="#63b8ff" stroke="#63b8ff" points="975,-31.16 971.5,-21.16 968,-31.16 975,-31.16"/>
</a>
</g>
</g>
<!-- Node10 -->
<g id="Node000010" class="node">
<title>Node10</title>
<g id="a_Node000010"><a xlink:title=" ">
<polygon fill="#e0e0e0" stroke="#999999" points="926.5,-19.25 856.5,-19.25 856.5,0 926.5,0 926.5,-19.25"/>
<text text-anchor="middle" x="891.5" y="-4.8" font-family="Helvetica,sans-Serif" font-size="11.00">string_view</text>
</a>
</g>
</g>
<!-- Node8&#45;&gt;Node10 -->
<g id="edge9_Node000008_Node000010" class="edge">
<title>Node8&#45;&gt;Node10</title>
<g id="a_edge9_Node000008_Node000010"><a xlink:title=" ">
<path fill="none" stroke="#63b8ff" d="M959.35,-60.56C947.02,-51.48 927.67,-37.24 912.78,-26.29"/>
<polygon fill="#63b8ff" stroke="#63b8ff" points="915.11,-23.66 904.98,-20.55 910.96,-29.29 915.11,-23.66"/>
</a>
</g>
</g>
<!-- Node11 -->
<g id="Node000011" class="node">
<title>Node11</title>
<g id="a_Node000011"><a xlink:title=" ">
<polygon fill="#e0e0e0" stroke="#999999" points="1293.12,-19.25 1235.88,-19.25 1235.88,0 1293.12,0 1293.12,-19.25"/>
<text text-anchor="middle" x="1264.5" y="-4.8" font-family="Helvetica,sans-Serif" font-size="11.00">iostream</text>
</a>
</g>
</g>
<!-- Node8&#45;&gt;Node11 -->
<g id="edge10_Node000008_Node000011" class="edge">
<title>Node8&#45;&gt;Node11</title>
<g id="a_edge10_Node000008_Node000011"><a xlink:title=" ">
<path fill="none" stroke="#63b8ff" d="M1016.64,-60.43C1073.47,-49.01 1170.21,-29.57 1224.5,-18.66"/>
<polygon fill="#63b8ff" stroke="#63b8ff" points="1225.14,-22.1 1234.25,-16.7 1223.76,-15.24 1225.14,-22.1"/>
</a>
</g>
</g>
<!-- Node12 -->
<g id="Node000012" class="node">
<title>Node12</title>
<g id="a_Node000012"><a xlink:title=" ">
<polygon fill="#e0e0e0" stroke="#999999" points="802.38,-19.25 728.62,-19.25 728.62,0 802.38,0 802.38,-19.25"/>
<text text-anchor="middle" x="765.5" y="-4.8" font-family="Helvetica,sans-Serif" font-size="11.00">fmt/format.h</text>
</a>
</g>
</g>
<!-- Node8&#45;&gt;Node12 -->
<g id="edge11_Node000008_Node000012" class="edge">
<title>Node8&#45;&gt;Node12</title>
<g id="a_edge11_Node000008_Node000012"><a xlink:title=" ">
<path fill="none" stroke="#63b8ff" d="M939.76,-60.43C904.53,-50.36 847.48,-34.05 808.31,-22.86"/>
<polygon fill="#63b8ff" stroke="#63b8ff" points="809.3,-19.5 798.73,-20.12 807.38,-26.23 809.3,-19.5"/>
</a>
</g>
</g>
<!-- Node14 -->
<g id="Node000014" class="node">
<title>Node14</title>
<g id="a_Node000014"><a xlink:title=" ">
<polygon fill="#e0e0e0" stroke="#999999" points="594.88,-80.12 536.12,-80.12 536.12,-60.88 594.88,-60.88 594.88,-80.12"/>
<text text-anchor="middle" x="565.5" y="-65.67" font-family="Helvetica,sans-Serif" font-size="11.00">concepts</text>
</a>
</g>
</g>
<!-- Node13&#45;&gt;Node14 -->
<g id="edge13_Node000013_Node000014" class="edge">
<title>Node13&#45;&gt;Node14</title>
<g id="a_edge13_Node000013_Node000014"><a xlink:title=" ">
<path fill="none" stroke="#63b8ff" d="M565.5,-121.43C565.5,-113.65 565.5,-102.08 565.5,-92.03"/>
<polygon fill="#63b8ff" stroke="#63b8ff" points="569,-92.04 565.5,-82.04 562,-92.04 569,-92.04"/>
</a>
</g>
</g>
<!-- Node15 -->
<g id="Node000015" class="node">
<title>Node15</title>
<g id="a_Node000015"><a xlink:href="type__traits_8h_source.html" target="_top" xlink:title=" ">
<polygon fill="white" stroke="#666666" points="273.62,-85.75 177.38,-85.75 177.38,-55.25 273.62,-55.25 273.62,-85.75"/>
<text text-anchor="start" x="185.38" y="-71.3" font-family="Helvetica,sans-Serif" font-size="11.00">floppy/detail/type</text>
<text text-anchor="middle" x="225.5" y="-60.05" font-family="Helvetica,sans-Serif" font-size="11.00">_traits.h</text>
</a>
</g>
</g>
<!-- Node13&#45;&gt;Node15 -->
<g id="edge14_Node000013_Node000015" class="edge">
<title>Node13&#45;&gt;Node15</title>
<g id="a_edge14_Node000013_Node000015"><a xlink:title=" ">
<path fill="none" stroke="#63b8ff" d="M501.14,-121.88C446.18,-114.26 364.79,-102.08 285.16,-86.19"/>
<polygon fill="#63b8ff" stroke="#63b8ff" points="285.92,-82.77 275.43,-84.22 284.54,-89.63 285.92,-82.77"/>
</a>
</g>
</g>
<!-- Node17 -->
<g id="Node000017" class="node">
<title>Node17</title>
<g id="a_Node000017"><a xlink:href="types_8h_source.html" target="_top" xlink:title=" ">
<polygon fill="white" stroke="#666666" points="401.75,-80.12 291.25,-80.12 291.25,-60.88 401.75,-60.88 401.75,-80.12"/>
<text text-anchor="middle" x="346.5" y="-65.67" font-family="Helvetica,sans-Serif" font-size="11.00">floppy/detail/types.h</text>
</a>
</g>
</g>
<!-- Node13&#45;&gt;Node17 -->
<g id="edge16_Node000013_Node000017" class="edge">
<title>Node13&#45;&gt;Node17</title>
<g id="a_edge16_Node000013_Node000017"><a xlink:title=" ">
<path fill="none" stroke="#63b8ff" d="M531.76,-121.3C494.06,-111.17 432.87,-94.72 391.21,-83.52"/>
<polygon fill="#63b8ff" stroke="#63b8ff" points="392.3,-80.19 381.74,-80.97 390.49,-86.95 392.3,-80.19"/>
</a>
</g>
</g>
<!-- Node16 -->
<g id="Node000016" class="node">
<title>Node16</title>
<g id="a_Node000016"><a xlink:title=" ">
<polygon fill="#e0e0e0" stroke="#999999" points="269.25,-19.25 203.75,-19.25 203.75,0 269.25,0 269.25,-19.25"/>
<text text-anchor="middle" x="236.5" y="-4.8" font-family="Helvetica,sans-Serif" font-size="11.00">type_traits</text>
</a>
</g>
</g>
<!-- Node15&#45;&gt;Node16 -->
<g id="edge15_Node000015_Node000016" class="edge">
<title>Node15&#45;&gt;Node16</title>
<g id="a_edge15_Node000015_Node000016"><a xlink:title=" ">
<path fill="none" stroke="#63b8ff" d="M228.22,-54.95C229.57,-47.71 231.23,-38.84 232.7,-30.94"/>
<polygon fill="#63b8ff" stroke="#63b8ff" points="236.13,-31.66 234.53,-21.19 229.25,-30.38 236.13,-31.66"/>
</a>
</g>
</g>
<!-- Node17&#45;&gt;Node12 -->
<g id="edge21_Node000017_Node000012" class="edge">
<title>Node17&#45;&gt;Node12</title>
<g id="a_edge21_Node000017_Node000012"><a xlink:title=" ">
<path fill="none" stroke="#63b8ff" d="M388,-60.39C397.04,-58.56 406.57,-56.74 415.5,-55.25 522.74,-37.37 649.51,-22.83 717.19,-15.6"/>
<polygon fill="#63b8ff" stroke="#63b8ff" points="717.24,-19.11 726.82,-14.58 716.5,-12.15 717.24,-19.11"/>
</a>
</g>
</g>
<!-- Node17&#45;&gt;Node16 -->
<g id="edge20_Node000017_Node000016" class="edge">
<title>Node17&#45;&gt;Node16</title>
<g id="a_edge20_Node000017_Node000016"><a xlink:title=" ">
<path fill="none" stroke="#63b8ff" d="M329.79,-60.56C312.19,-51.13 284.19,-36.15 263.45,-25.05"/>
<polygon fill="#63b8ff" stroke="#63b8ff" points="265.17,-22 254.7,-20.37 261.86,-28.17 265.17,-22"/>
</a>
</g>
</g>
<!-- Node18 -->
<g id="Node000018" class="node">
<title>Node18</title>
<g id="a_Node000018"><a xlink:title=" ">
<polygon fill="#e0e0e0" stroke="#999999" points="420.75,-19.25 370.25,-19.25 370.25,0 420.75,0 420.75,-19.25"/>
<text text-anchor="middle" x="395.5" y="-4.8" font-family="Helvetica,sans-Serif" font-size="11.00">cstddef</text>
</a>
</g>
</g>
<!-- Node17&#45;&gt;Node18 -->
<g id="edge17_Node000017_Node000018" class="edge">
<title>Node17&#45;&gt;Node18</title>
<g id="a_edge17_Node000017_Node000018"><a xlink:title=" ">
<path fill="none" stroke="#63b8ff" d="M353.94,-60.56C361.07,-52 372.01,-38.85 380.88,-28.2"/>
<polygon fill="#63b8ff" stroke="#63b8ff" points="383.31,-30.74 387.02,-20.81 377.93,-26.26 383.31,-30.74"/>
</a>
</g>
</g>
<!-- Node19 -->
<g id="Node000019" class="node">
<title>Node19</title>
<g id="a_Node000019"><a xlink:title=" ">
<polygon fill="#e0e0e0" stroke="#999999" points="184.88,-19.25 138.12,-19.25 138.12,0 184.88,0 184.88,-19.25"/>
<text text-anchor="middle" x="161.5" y="-4.8" font-family="Helvetica,sans-Serif" font-size="11.00">cstdint</text>
</a>
</g>
</g>
<!-- Node17&#45;&gt;Node19 -->
<g id="edge18_Node000017_Node000019" class="edge">
<title>Node17&#45;&gt;Node19</title>
<g id="a_edge18_Node000017_Node000019"><a xlink:title=" ">
<path fill="none" stroke="#63b8ff" d="M318,-60.43C285.17,-49.98 231.23,-32.82 196.04,-21.62"/>
<polygon fill="#63b8ff" stroke="#63b8ff" points="197.36,-18.36 186.77,-18.67 195.24,-25.03 197.36,-18.36"/>
</a>
</g>
</g>
<!-- Node20 -->
<g id="Node000020" class="node">
<title>Node20</title>
<g id="a_Node000020"><a xlink:title=" ">
<polygon fill="#e0e0e0" stroke="#999999" points="352.25,-19.25 298.75,-19.25 298.75,0 352.25,0 352.25,-19.25"/>
<text text-anchor="middle" x="325.5" y="-4.8" font-family="Helvetica,sans-Serif" font-size="11.00">optional</text>
</a>
</g>
</g>
<!-- Node17&#45;&gt;Node20 -->
<g id="edge19_Node000017_Node000020" class="edge">
<title>Node17&#45;&gt;Node20</title>
<g id="a_edge19_Node000017_Node000020"><a xlink:title=" ">
<path fill="none" stroke="#63b8ff" d="M343.31,-60.56C340.47,-52.6 336.22,-40.69 332.59,-30.49"/>
<polygon fill="#63b8ff" stroke="#63b8ff" points="335.88,-29.32 329.23,-21.08 329.29,-31.67 335.88,-29.32"/>
</a>
</g>
</g>
<!-- Node21&#45;&gt;Node11 -->
<g id="edge23_Node000021_Node000011" class="edge">
<title>Node21&#45;&gt;Node11</title>
<g id="a_edge23_Node000021_Node000011"><a xlink:title=" ">
<path fill="none" stroke="#63b8ff" d="M1440.87,-376.07C1450.47,-367.81 1463.85,-354.74 1471.5,-340.5 1488.95,-308.02 1490.5,-296.62 1490.5,-259.75 1490.5,-259.75 1490.5,-259.75 1490.5,-130.38 1490.5,-47.23 1369.58,-21.65 1304.64,-13.91"/>
<polygon fill="#63b8ff" stroke="#63b8ff" points="1305.41,-10.47 1295.09,-12.86 1304.65,-17.43 1305.41,-10.47"/>
</a>
</g>
</g>
<!-- Node22 -->
<g id="Node000022" class="node">
<title>Node22</title>
<g id="a_Node000022"><a xlink:title=" ">
<polygon fill="#e0e0e0" stroke="#999999" points="1462.12,-340.5 1332.88,-340.5 1332.88,-310 1462.12,-310 1462.12,-340.5"/>
<text text-anchor="start" x="1340.88" y="-326.05" font-family="Helvetica,sans-Serif" font-size="11.00">experimental/propagate</text>
<text text-anchor="middle" x="1397.5" y="-314.8" font-family="Helvetica,sans-Serif" font-size="11.00">_const</text>
</a>
</g>
</g>
<!-- Node21&#45;&gt;Node22 -->
<g id="edge24_Node000021_Node000022" class="edge">
<title>Node21&#45;&gt;Node22</title>
<g id="a_edge24_Node000021_Node000022"><a xlink:title=" ">
<path fill="none" stroke="#63b8ff" d="M1424.64,-376.18C1420.97,-369.43 1415.75,-359.83 1410.86,-350.84"/>
<polygon fill="#63b8ff" stroke="#63b8ff" points="1413.97,-349.23 1406.12,-342.11 1407.82,-352.57 1413.97,-349.23"/>
</a>
</g>
</g>
<!-- Node23 -->
<g id="Node000023" class="node">
<title>Node23</title>
<g id="a_Node000023"><a xlink:href="floppy_8h_source.html" target="_top" xlink:title=" ">
<polygon fill="white" stroke="#666666" points="718,-334.88 633,-334.88 633,-315.62 718,-315.62 718,-334.88"/>
<text text-anchor="middle" x="675.5" y="-320.43" font-family="Helvetica,sans-Serif" font-size="11.00">floppy/floppy.h</text>
</a>
</g>
</g>
<!-- Node21&#45;&gt;Node23 -->
<g id="edge25_Node000021_Node000023" class="edge">
<title>Node21&#45;&gt;Node23</title>
<g id="a_edge25_Node000021_Node000023"><a xlink:title=" ">
<path fill="none" stroke="#63b8ff" d="M1389.23,-381.98C1262.65,-372.1 872.77,-341.65 729.25,-330.45"/>
<polygon fill="#63b8ff" stroke="#63b8ff" points="729.89,-326.99 719.65,-329.7 729.35,-333.97 729.89,-326.99"/>
</a>
</g>
</g>
<!-- Node23&#45;&gt;Node3 -->
<g id="edge52_Node000023_Node000003" class="edge">
<title>Node23&#45;&gt;Node3</title>
<g id="a_edge52_Node000023_Node000003"><a xlink:title=" ">
<path fill="none" stroke="#63b8ff" d="M718.36,-319.33C781.73,-311.69 903.98,-295.6 1006.5,-274 1099.98,-254.31 1207.73,-222.9 1264.58,-205.63"/>
<polygon fill="#63b8ff" stroke="#63b8ff" points="1265.59,-208.98 1274.13,-202.71 1263.55,-202.28 1265.59,-208.98"/>
</a>
</g>
</g>
<!-- Node23&#45;&gt;Node8 -->
<g id="edge50_Node000023_Node000008" class="edge">
<title>Node23&#45;&gt;Node8</title>
<g id="a_edge50_Node000023_Node000008"><a xlink:title=" ">
<path fill="none" stroke="#63b8ff" d="M707.54,-315.19C735.99,-306.52 778.23,-292.11 812.5,-274 857.43,-250.26 870.04,-243.89 905.5,-207.5 930.41,-181.94 935.17,-173.22 950.5,-141 958.12,-124.98 963.71,-105.56 967.2,-91.33"/>
<polygon fill="#63b8ff" stroke="#63b8ff" points="970.55,-92.38 969.38,-81.85 963.73,-90.81 970.55,-92.38"/>
</a>
</g>
</g>
<!-- Node23&#45;&gt;Node13 -->
<g id="edge41_Node000023_Node000013" class="edge">
<title>Node23&#45;&gt;Node13</title>
<g id="a_edge41_Node000023_Node000013"><a xlink:title=" ">
<path fill="none" stroke="#63b8ff" d="M658.18,-315.16C643.24,-306.48 622.13,-292.05 609.5,-274 583.01,-236.15 572.04,-181.77 567.84,-152.64"/>
<polygon fill="#63b8ff" stroke="#63b8ff" points="571.35,-152.47 566.59,-143 564.41,-153.37 571.35,-152.47"/>
</a>
</g>
</g>
<!-- Node23&#45;&gt;Node15 -->
<g id="edge63_Node000023_Node000015" class="edge">
<title>Node23&#45;&gt;Node15</title>
<g id="a_edge63_Node000023_Node000015"><a xlink:title=" ">
<path fill="none" stroke="#63b8ff" d="M632.65,-324.46C571.28,-323.2 456.08,-314.94 368.5,-274 327.54,-254.85 319.05,-243.36 291.5,-207.5 264.8,-172.75 244.85,-125.46 234.2,-96.79"/>
<polygon fill="#63b8ff" stroke="#63b8ff" points="237.54,-95.72 230.85,-87.5 230.95,-98.09 237.54,-95.72"/>
</a>
</g>
</g>
<!-- Node23&#45;&gt;Node17 -->
<g id="edge64_Node000023_Node000017" class="edge">
<title>Node23&#45;&gt;Node17</title>
<g id="a_edge64_Node000023_Node000017"><a xlink:title=" ">
<path fill="none" stroke="#63b8ff" d="M632.7,-321.54C542.67,-313.14 336.71,-278.97 272.5,-141 261.44,-117.23 288.22,-97.62 312.59,-85.36"/>
<polygon fill="#63b8ff" stroke="#63b8ff" points="313.85,-88.63 321.41,-81.21 310.87,-82.3 313.85,-88.63"/>
</a>
</g>
</g>
<!-- Node24 -->
<g id="Node000024" class="node">
<title>Node24</title>
<g id="a_Node000024"><a xlink:href="backports_8h_source.html" target="_top" xlink:title=" ">
<polygon fill="white" stroke="#666666" points="492.62,-201.88 360.38,-201.88 360.38,-182.62 492.62,-182.62 492.62,-201.88"/>
<text text-anchor="middle" x="426.5" y="-187.43" font-family="Helvetica,sans-Serif" font-size="11.00">floppy/detail/backports.h</text>
</a>
</g>
</g>
<!-- Node23&#45;&gt;Node24 -->
<g id="edge26_Node000023_Node000024" class="edge">
<title>Node23&#45;&gt;Node24</title>
<g id="a_edge26_Node000023_Node000024"><a xlink:title=" ">
<path fill="none" stroke="#63b8ff" d="M632.83,-316.65C598.62,-309.29 550.26,-295.95 512.5,-274 483.55,-257.17 456.5,-228.9 440.73,-210.67"/>
<polygon fill="#63b8ff" stroke="#63b8ff" points="443.66,-208.71 434.54,-203.32 438.31,-213.22 443.66,-208.71"/>
</a>
</g>
</g>
<!-- Node26 -->
<g id="Node000026" class="node">
<title>Node26</title>
<g id="a_Node000026"><a xlink:href="platform_8h_source.html" target="_top" xlink:title=" ">
<polygon fill="white" stroke="#666666" points="483.5,-141 359.5,-141 359.5,-121.75 483.5,-121.75 483.5,-141"/>
<text text-anchor="middle" x="421.5" y="-126.55" font-family="Helvetica,sans-Serif" font-size="11.00">floppy/detail/platform.h</text>
</a>
</g>
</g>
<!-- Node23&#45;&gt;Node26 -->
<g id="edge60_Node000023_Node000026" class="edge">
<title>Node23&#45;&gt;Node26</title>
<g id="a_edge60_Node000023_Node000026"><a xlink:title=" ">
<path fill="none" stroke="#63b8ff" d="M656.07,-315.26C637.67,-306.25 609.76,-291.26 588.5,-274 543.53,-237.51 546.74,-213.15 501.5,-177 486.46,-164.98 467.75,-154.35 452.21,-146.48"/>
<polygon fill="#63b8ff" stroke="#63b8ff" points="453.92,-143.42 443.4,-142.16 450.84,-149.71 453.92,-143.42"/>
</a>
</g>
</g>
<!-- Node27 -->
<g id="Node000027" class="node">
<title>Node27</title>
<g id="a_Node000027"><a xlink:href="predefs_8h_source.html" target="_top" xlink:title=" ">
<polygon fill="white" stroke="#666666" points="121,-80.12 0,-80.12 0,-60.88 121,-60.88 121,-80.12"/>
<text text-anchor="middle" x="60.5" y="-65.67" font-family="Helvetica,sans-Serif" font-size="11.00">floppy/detail/predefs.h</text>
</a>
</g>
</g>
<!-- Node23&#45;&gt;Node27 -->
<g id="edge61_Node000023_Node000027" class="edge">
<title>Node23&#45;&gt;Node27</title>
<g id="a_edge61_Node000023_Node000027"><a xlink:title=" ">
<path fill="none" stroke="#63b8ff" d="M632.72,-321.08C550.31,-314.53 372.7,-298.04 316.5,-274 211.35,-229.03 112.88,-129.11 75.92,-88.83"/>
<polygon fill="#63b8ff" stroke="#63b8ff" points="78.56,-86.54 69.26,-81.47 73.37,-91.23 78.56,-86.54"/>
</a>
</g>
</g>
<!-- Node28 -->
<g id="Node000028" class="node">
<title>Node28</title>
<g id="a_Node000028"><a xlink:href="formatters_8h_source.html" target="_top" xlink:title=" ">
<polygon fill="white" stroke="#666666" points="781.38,-141 647.62,-141 647.62,-121.75 781.38,-121.75 781.38,-141"/>
<text text-anchor="middle" x="714.5" y="-126.55" font-family="Helvetica,sans-Serif" font-size="11.00">floppy/detail/formatters.h</text>
</a>
</g>
</g>
<!-- Node23&#45;&gt;Node28 -->
<g id="edge51_Node000023_Node000028" class="edge">
<title>Node23&#45;&gt;Node28</title>
<g id="a_edge51_Node000023_Node000028"><a xlink:title=" ">
<path fill="none" stroke="#63b8ff" d="M696.07,-315.24C711.99,-307.03 732.88,-293.25 742.5,-274 762.79,-233.41 740.38,-179.4 725.51,-151.25"/>
<polygon fill="#63b8ff" stroke="#63b8ff" points="728.58,-149.56 720.66,-142.51 722.46,-152.95 728.58,-149.56"/>
</a>
</g>
</g>
<!-- Node31 -->
<g id="Node000031" class="node">
<title>Node31</title>
<g id="a_Node000031"><a xlink:href="corefn_8h_source.html" target="_top" xlink:title=" ">
<polygon fill="white" stroke="#666666" points="733,-268.38 618,-268.38 618,-249.12 733,-249.12 733,-268.38"/>
<text text-anchor="middle" x="675.5" y="-253.93" font-family="Helvetica,sans-Serif" font-size="11.00">floppy/detail/corefn.h</text>
</a>
</g>
</g>
<!-- Node23&#45;&gt;Node31 -->
<g id="edge42_Node000023_Node000031" class="edge">
<title>Node23&#45;&gt;Node31</title>
<g id="a_edge42_Node000023_Node000031"><a xlink:title=" ">
<path fill="none" stroke="#63b8ff" d="M675.5,-315.28C675.5,-306.23 675.5,-291.95 675.5,-280.13"/>
<polygon fill="#63b8ff" stroke="#63b8ff" points="679,-280.16 675.5,-270.16 672,-280.16 679,-280.16"/>
</a>
</g>
</g>
<!-- Node33 -->
<g id="Node000033" class="node">
<title>Node33</title>
<g id="a_Node000033"><a xlink:href="print__helpers_8h_source.html" target="_top" xlink:title=" ">
<polygon fill="white" stroke="#666666" points="896,-207.5 799,-207.5 799,-177 896,-177 896,-207.5"/>
<text text-anchor="start" x="807" y="-193.05" font-family="Helvetica,sans-Serif" font-size="11.00">floppy/detail/print</text>
<text text-anchor="middle" x="847.5" y="-181.8" font-family="Helvetica,sans-Serif" font-size="11.00">_helpers.h</text>
</a>
</g>
</g>
<!-- Node23&#45;&gt;Node33 -->
<g id="edge62_Node000023_Node000033" class="edge">
<title>Node23&#45;&gt;Node33</title>
<g id="a_edge62_Node000023_Node000033"><a xlink:title=" ">
<path fill="none" stroke="#63b8ff" d="M704.42,-315.19C727.68,-306.96 760.33,-293.15 784.5,-274 804.42,-258.21 821.74,-234.88 833.15,-217.35"/>
<polygon fill="#63b8ff" stroke="#63b8ff" points="835.99,-219.41 838.35,-209.08 830.06,-215.68 835.99,-219.41"/>
</a>
</g>
</g>
<!-- Node35 -->
<g id="Node000035" class="node">
<title>Node35</title>
<g id="a_Node000035"><a xlink:href="memory_8h_source.html" target="_top" xlink:title=" ">
<polygon fill="white" stroke="#666666" points="1142.12,-201.88 1018.88,-201.88 1018.88,-182.62 1142.12,-182.62 1142.12,-201.88"/>
<text text-anchor="middle" x="1080.5" y="-187.43" font-family="Helvetica,sans-Serif" font-size="11.00">floppy/detail/memory.h</text>
</a>
</g>
</g>
<!-- Node23&#45;&gt;Node35 -->
<g id="edge53_Node000023_Node000035" class="edge">
<title>Node23&#45;&gt;Node35</title>
<g id="a_edge53_Node000023_Node000035"><a xlink:title=" ">
<path fill="none" stroke="#63b8ff" d="M718.08,-322.76C776.27,-319.44 882.93,-308.71 966.5,-274 1004.16,-258.36 1041.52,-228.44 1062.73,-209.73"/>
<polygon fill="#63b8ff" stroke="#63b8ff" points="1064.83,-212.56 1069.92,-203.27 1060.14,-207.36 1064.83,-212.56"/>
</a>
</g>
</g>
<!-- Node24&#45;&gt;Node12 -->
<g id="edge29_Node000024_Node000012" class="edge">
<title>Node24&#45;&gt;Node12</title>
<g id="a_edge29_Node000024_Node000012"><a xlink:title=" ">
<path fill="none" stroke="#63b8ff" d="M360.32,-182.29C311.78,-172.86 258.36,-154.65 283.5,-121.75 285.63,-118.96 524.08,-56.04 527.5,-55.25 592.61,-40.3 668.58,-26.72 716.85,-18.56"/>
<polygon fill="#63b8ff" stroke="#63b8ff" points="717.43,-22.01 726.71,-16.91 716.27,-15.11 717.43,-22.01"/>
</a>
</g>
</g>
<!-- Node24&#45;&gt;Node13 -->
<g id="edge35_Node000024_Node000013" class="edge">
<title>Node24&#45;&gt;Node13</title>
<g id="a_edge35_Node000024_Node000013"><a xlink:title=" ">
<path fill="none" stroke="#63b8ff" d="M447.91,-182.18C470.84,-172.47 507.45,-156.96 533.73,-145.83"/>
<polygon fill="#63b8ff" stroke="#63b8ff" points="535.05,-149.07 542.9,-141.95 532.32,-142.63 535.05,-149.07"/>
</a>
</g>
</g>
<!-- Node24&#45;&gt;Node19 -->
<g id="edge27_Node000024_Node000019" class="edge">
<title>Node24&#45;&gt;Node19</title>
<g id="a_edge27_Node000024_Node000019"><a xlink:title=" ">
<path fill="none" stroke="#63b8ff" d="M359.98,-185.8C297.35,-176.6 207.5,-151.93 168.5,-85.75 158.74,-69.19 157.87,-46.92 158.9,-30.94"/>
<polygon fill="#63b8ff" stroke="#63b8ff" points="162.37,-31.5 159.86,-21.2 155.4,-30.81 162.37,-31.5"/>
</a>
</g>
</g>
<!-- Node25 -->
<g id="Node000025" class="node">
<title>Node25</title>
<g id="a_Node000025"><a xlink:title=" ">
<polygon fill="#e0e0e0" stroke="#999999" points="341,-141 292,-141 292,-121.75 341,-121.75 341,-141"/>
<text text-anchor="middle" x="316.5" y="-126.55" font-family="Helvetica,sans-Serif" font-size="11.00">ranges</text>
</a>
</g>
</g>
<!-- Node24&#45;&gt;Node25 -->
<g id="edge28_Node000024_Node000025" class="edge">
<title>Node24&#45;&gt;Node25</title>
<g id="a_edge28_Node000024_Node000025"><a xlink:title=" ">
<path fill="none" stroke="#63b8ff" d="M409.79,-182.31C392.19,-172.88 364.19,-157.9 343.45,-146.8"/>
<polygon fill="#63b8ff" stroke="#63b8ff" points="345.17,-143.75 334.7,-142.12 341.86,-149.92 345.17,-143.75"/>
</a>
</g>
</g>
<!-- Node24&#45;&gt;Node26 -->
<g id="edge30_Node000024_Node000026" class="edge">
<title>Node24&#45;&gt;Node26</title>
<g id="a_edge30_Node000024_Node000026"><a xlink:title=" ">
<path fill="none" stroke="#63b8ff" d="M425.74,-182.31C425.07,-174.44 424.08,-162.7 423.22,-152.57"/>
<polygon fill="#63b8ff" stroke="#63b8ff" points="426.73,-152.58 422.39,-142.91 419.75,-153.17 426.73,-152.58"/>
</a>
</g>
</g>
<!-- Node24&#45;&gt;Node28 -->
<g id="edge36_Node000024_Node000028" class="edge">
<title>Node24&#45;&gt;Node28</title>
<g id="a_edge36_Node000024_Node000028"><a xlink:title=" ">
<path fill="none" stroke="#63b8ff" d="M470.87,-182.18C521.4,-171.85 604.02,-154.96 658.83,-143.76"/>
<polygon fill="#63b8ff" stroke="#63b8ff" points="659.5,-147.19 668.6,-141.76 658.1,-140.33 659.5,-147.19"/>
</a>
</g>
</g>
<!-- Node26&#45;&gt;Node5 -->
<g id="edge31_Node000026_Node000005" class="edge">
<title>Node26&#45;&gt;Node5</title>
<g id="a_edge31_Node000026_Node000005"><a xlink:title=" ">
<path fill="none" stroke="#63b8ff" d="M483.82,-122.61C486.75,-122.3 489.66,-122.02 492.5,-121.75 734.63,-99.08 795.91,-102.84 1038.5,-85.75 1094.33,-81.82 1159.35,-76.86 1197.03,-73.95"/>
<polygon fill="#63b8ff" stroke="#63b8ff" points="1197.05,-77.46 1206.75,-73.2 1196.51,-70.48 1197.05,-77.46"/>
</a>
</g>
</g>
<!-- Node26&#45;&gt;Node8 -->
<g id="edge32_Node000026_Node000008" class="edge">
<title>Node26&#45;&gt;Node8</title>
<g id="a_edge32_Node000026_Node000008"><a xlink:title=" ">
<path fill="none" stroke="#63b8ff" d="M483.83,-122.74C486.76,-122.4 489.66,-122.07 492.5,-121.75 638.26,-105.25 809.19,-87.77 902.34,-78.4"/>
<polygon fill="#63b8ff" stroke="#63b8ff" points="902.48,-81.9 912.08,-77.42 901.78,-74.94 902.48,-81.9"/>
</a>
</g>
</g>
<!-- Node26&#45;&gt;Node17 -->
<g id="edge33_Node000026_Node000017" class="edge">
<title>Node26&#45;&gt;Node17</title>
<g id="a_edge33_Node000026_Node000017"><a xlink:title=" ">
<path fill="none" stroke="#63b8ff" d="M410.11,-121.43C398.66,-112.44 380.75,-98.39 366.85,-87.48"/>
<polygon fill="#63b8ff" stroke="#63b8ff" points="369.22,-84.88 359.19,-81.46 364.89,-90.39 369.22,-84.88"/>
</a>
</g>
</g>
<!-- Node26&#45;&gt;Node27 -->
<g id="edge34_Node000026_Node000027" class="edge">
<title>Node26&#45;&gt;Node27</title>
<g id="a_edge34_Node000026_Node000027"><a xlink:title=" ">
<path fill="none" stroke="#63b8ff" d="M365.88,-121.3C301.62,-110.82 195.94,-93.59 127.29,-82.39"/>
<polygon fill="#63b8ff" stroke="#63b8ff" points="128.11,-78.98 117.67,-80.82 126.98,-85.89 128.11,-78.98"/>
</a>
</g>
</g>
<!-- Node28&#45;&gt;Node10 -->
<g id="edge37_Node000028_Node000010" class="edge">
<title>Node28&#45;&gt;Node10</title>
<g id="a_edge37_Node000028_Node000010"><a xlink:title=" ">
<path fill="none" stroke="#63b8ff" d="M727.8,-121.37C757.92,-101 831.57,-51.17 868.95,-25.88"/>
<polygon fill="#63b8ff" stroke="#63b8ff" points="870.47,-29.08 876.79,-20.58 866.54,-23.28 870.47,-29.08"/>
</a>
</g>
</g>
<!-- Node28&#45;&gt;Node12 -->
<g id="edge40_Node000028_Node000012" class="edge">
<title>Node28&#45;&gt;Node12</title>
<g id="a_edge40_Node000028_Node000012"><a xlink:title=" ">
<path fill="none" stroke="#63b8ff" d="M722.47,-121.44C729.72,-112.86 740.23,-99.24 746.5,-85.75 754.74,-68.02 759.74,-46.21 762.54,-30.67"/>
<polygon fill="#63b8ff" stroke="#63b8ff" points="765.99,-31.24 764.14,-20.81 759.08,-30.12 765.99,-31.24"/>
</a>
</g>
</g>
<!-- Node29 -->
<g id="Node000029" class="node">
<title>Node29</title>
<g id="a_Node000029"><a xlink:title=" ">
<polygon fill="#e0e0e0" stroke="#999999" points="672.62,-80.12 618.38,-80.12 618.38,-60.88 672.62,-60.88 672.62,-80.12"/>
<text text-anchor="middle" x="645.5" y="-65.67" font-family="Helvetica,sans-Serif" font-size="11.00">sstream</text>
</a>
</g>
</g>
<!-- Node28&#45;&gt;Node29 -->
<g id="edge38_Node000028_Node000029" class="edge">
<title>Node28&#45;&gt;Node29</title>
<g id="a_edge38_Node000028_Node000029"><a xlink:title=" ">
<path fill="none" stroke="#63b8ff" d="M704.02,-121.43C693.58,-112.53 677.33,-98.66 664.59,-87.79"/>
<polygon fill="#63b8ff" stroke="#63b8ff" points="667.11,-85.34 657.23,-81.51 662.56,-90.66 667.11,-85.34"/>
</a>
</g>
</g>
<!-- Node30 -->
<g id="Node000030" class="node">
<title>Node30</title>
<g id="a_Node000030"><a xlink:title=" ">
<polygon fill="#e0e0e0" stroke="#999999" points="737.88,-80.12 691.12,-80.12 691.12,-60.88 737.88,-60.88 737.88,-80.12"/>
<text text-anchor="middle" x="714.5" y="-65.67" font-family="Helvetica,sans-Serif" font-size="11.00">iosfwd</text>
</a>
</g>
</g>
<!-- Node28&#45;&gt;Node30 -->
<g id="edge39_Node000028_Node000030" class="edge">
<title>Node28&#45;&gt;Node30</title>
<g id="a_edge39_Node000028_Node000030"><a xlink:title=" ">
<path fill="none" stroke="#63b8ff" d="M714.5,-121.43C714.5,-113.65 714.5,-102.08 714.5,-92.03"/>
<polygon fill="#63b8ff" stroke="#63b8ff" points="718,-92.04 714.5,-82.04 711,-92.04 718,-92.04"/>
</a>
</g>
</g>
<!-- Node31&#45;&gt;Node8 -->
<g id="edge44_Node000031_Node000008" class="edge">
<title>Node31&#45;&gt;Node8</title>
<g id="a_edge44_Node000031_Node000008"><a xlink:title=" ">
<path fill="none" stroke="#63b8ff" d="M686.66,-248.75C715.38,-225.84 794.61,-164.12 866.5,-121.75 890.22,-107.77 918.44,-94.44 939.64,-85.02"/>
<polygon fill="#63b8ff" stroke="#63b8ff" points="940.89,-88.3 948.64,-81.08 938.08,-81.88 940.89,-88.3"/>
</a>
</g>
</g>
<!-- Node31&#45;&gt;Node13 -->
<g id="edge46_Node000031_Node000013" class="edge">
<title>Node31&#45;&gt;Node13</title>
<g id="a_edge46_Node000031_Node000013"><a xlink:title=" ">
<path fill="none" stroke="#63b8ff" d="M667.59,-248.73C649.43,-228.04 604.52,-176.85 580.78,-149.79"/>
<polygon fill="#63b8ff" stroke="#63b8ff" points="583.56,-147.66 574.34,-142.45 578.3,-152.27 583.56,-147.66"/>
</a>
</g>
</g>
<!-- Node31&#45;&gt;Node24 -->
<g id="edge45_Node000031_Node000024" class="edge">
<title>Node31&#45;&gt;Node24</title>
<g id="a_edge45_Node000031_Node000024"><a xlink:title=" ">
<path fill="none" stroke="#63b8ff" d="M640.35,-248.65C596.42,-237.27 521.11,-217.76 472.59,-205.19"/>
<polygon fill="#63b8ff" stroke="#63b8ff" points="473.49,-201.81 462.93,-202.69 471.74,-208.58 473.49,-201.81"/>
</a>
</g>
</g>
<!-- Node32 -->
<g id="Node000032" class="node">
<title>Node32</title>
<g id="a_Node000032"><a xlink:title=" ">
<polygon fill="#e0e0e0" stroke="#999999" points="702.25,-201.88 648.75,-201.88 648.75,-182.62 702.25,-182.62 702.25,-201.88"/>
<text text-anchor="middle" x="675.5" y="-187.43" font-family="Helvetica,sans-Serif" font-size="11.00">typeinfo</text>
</a>
</g>
</g>
<!-- Node31&#45;&gt;Node32 -->
<g id="edge43_Node000031_Node000032" class="edge">
<title>Node31&#45;&gt;Node32</title>
<g id="a_edge43_Node000031_Node000032"><a xlink:title=" ">
<path fill="none" stroke="#63b8ff" d="M675.5,-248.78C675.5,-239.73 675.5,-225.45 675.5,-213.63"/>
<polygon fill="#63b8ff" stroke="#63b8ff" points="679,-213.66 675.5,-203.66 672,-213.66 679,-213.66"/>
</a>
</g>
</g>
<!-- Node31&#45;&gt;Node33 -->
<g id="edge47_Node000031_Node000033" class="edge">
<title>Node31&#45;&gt;Node33</title>
<g id="a_edge47_Node000031_Node000033"><a xlink:title=" ">
<path fill="none" stroke="#63b8ff" d="M699.78,-248.65C725.15,-239.13 765.68,-223.93 797.87,-211.86"/>
<polygon fill="#63b8ff" stroke="#63b8ff" points="798.88,-215.22 807.02,-208.43 796.43,-208.66 798.88,-215.22"/>
</a>
</g>
</g>
<!-- Node33&#45;&gt;Node12 -->
<g id="edge48_Node000033_Node000012" class="edge">
<title>Node33&#45;&gt;Node12</title>
<g id="a_edge48_Node000033_Node000012"><a xlink:title=" ">
<path fill="none" stroke="#63b8ff" d="M840.93,-176.77C826.25,-144.44 790.8,-66.35 774.26,-29.93"/>
<polygon fill="#63b8ff" stroke="#63b8ff" points="777.56,-28.72 770.24,-21.06 771.18,-31.61 777.56,-28.72"/>
</a>
</g>
</g>
<!-- Node34 -->
<g id="Node000034" class="node">
<title>Node34</title>
<g id="a_Node000034"><a xlink:title=" ">
<polygon fill="#e0e0e0" stroke="#999999" points="941.25,-141 875.75,-141 875.75,-121.75 941.25,-121.75 941.25,-141"/>
<text text-anchor="middle" x="908.5" y="-126.55" font-family="Helvetica,sans-Serif" font-size="11.00">fmt/color.h</text>
</a>
</g>
</g>
<!-- Node33&#45;&gt;Node34 -->
<g id="edge49_Node000033_Node000034" class="edge">
<title>Node33&#45;&gt;Node34</title>
<g id="a_edge49_Node000033_Node000034"><a xlink:title=" ">
<path fill="none" stroke="#63b8ff" d="M862.58,-176.7C871.15,-168.42 881.93,-158.02 890.89,-149.37"/>
<polygon fill="#63b8ff" stroke="#63b8ff" points="893.24,-151.97 898.01,-142.5 888.38,-146.93 893.24,-151.97"/>
</a>
</g>
</g>
<!-- Node35&#45;&gt;Node7 -->
<g id="edge55_Node000035_Node000007" class="edge">
<title>Node35&#45;&gt;Node7</title>
<g id="a_edge55_Node000035_Node000007"><a xlink:title=" ">
<path fill="none" stroke="#63b8ff" d="M1101.61,-182.18C1124.2,-172.47 1160.28,-156.96 1186.19,-145.83"/>
<polygon fill="#63b8ff" stroke="#63b8ff" points="1187.4,-149.12 1195.2,-141.96 1184.63,-142.69 1187.4,-149.12"/>
</a>
</g>
</g>
<!-- Node35&#45;&gt;Node8 -->
<g id="edge57_Node000035_Node000008" class="edge">
<title>Node35&#45;&gt;Node8</title>
<g id="a_edge57_Node000035_Node000008"><a xlink:title=" ">
<path fill="none" stroke="#63b8ff" d="M1070.35,-182.37C1059.39,-172.61 1041.6,-156.28 1027.5,-141 1011.96,-124.16 995.69,-103.58 984.72,-89.21"/>
<polygon fill="#63b8ff" stroke="#63b8ff" points="987.77,-87.45 978.95,-81.58 982.19,-91.67 987.77,-87.45"/>
</a>
</g>
</g>
<!-- Node35&#45;&gt;Node13 -->
<g id="edge59_Node000035_Node000013" class="edge">
<title>Node35&#45;&gt;Node13</title>
<g id="a_edge59_Node000035_Node000013"><a xlink:title=" ">
<path fill="none" stroke="#63b8ff" d="M1035.6,-182.16C1025.4,-180.28 1014.6,-178.44 1004.5,-177 846.32,-154.44 802.94,-158.39 640.94,-141.24"/>
<polygon fill="#63b8ff" stroke="#63b8ff" points="641.41,-137.77 631.09,-140.18 640.66,-144.73 641.41,-137.77"/>
</a>
</g>
</g>
<!-- Node35&#45;&gt;Node28 -->
<g id="edge58_Node000035_Node000028" class="edge">
<title>Node35&#45;&gt;Node28</title>
<g id="a_edge58_Node000035_Node000028"><a xlink:title=" ">
<path fill="none" stroke="#63b8ff" d="M1033.51,-182.19C1023.93,-180.41 1013.9,-178.6 1004.5,-177 931.42,-164.53 847.69,-151.81 789.06,-143.16"/>
<polygon fill="#63b8ff" stroke="#63b8ff" points="789.57,-139.7 779.17,-141.71 788.55,-146.63 789.57,-139.7"/>
</a>
</g>
</g>
<!-- Node36 -->
<g id="Node000036" class="node">
<title>Node36</title>
<g id="a_Node000036"><a xlink:title=" ">
<polygon fill="#e0e0e0" stroke="#999999" points="1091,-141 1036,-141 1036,-121.75 1091,-121.75 1091,-141"/>
<text text-anchor="middle" x="1063.5" y="-126.55" font-family="Helvetica,sans-Serif" font-size="11.00">memory</text>
</a>
</g>
</g>
<!-- Node35&#45;&gt;Node36 -->
<g id="edge54_Node000035_Node000036" class="edge">
<title>Node35&#45;&gt;Node36</title>
<g id="a_edge54_Node000035_Node000036"><a xlink:title=" ">
<path fill="none" stroke="#63b8ff" d="M1077.92,-182.31C1075.62,-174.35 1072.18,-162.44 1069.24,-152.24"/>
<polygon fill="#63b8ff" stroke="#63b8ff" points="1072.66,-151.49 1066.53,-142.86 1065.94,-153.43 1072.66,-151.49"/>
</a>
</g>
</g>
<!-- Node37 -->
<g id="Node000037" class="node">
<title>Node37</title>
<g id="a_Node000037"><a xlink:title=" ">
<polygon fill="#e0e0e0" stroke="#999999" points="1170.38,-141 1108.62,-141 1108.62,-121.75 1170.38,-121.75 1170.38,-141"/>
<text text-anchor="middle" x="1139.5" y="-126.55" font-family="Helvetica,sans-Serif" font-size="11.00">stdexcept</text>
</a>
</g>
</g>
<!-- Node35&#45;&gt;Node37 -->
<g id="edge56_Node000035_Node000037" class="edge">
<title>Node35&#45;&gt;Node37</title>
<g id="a_edge56_Node000035_Node000037"><a xlink:title=" ">
<path fill="none" stroke="#63b8ff" d="M1089.46,-182.31C1098.21,-173.58 1111.75,-160.07 1122.54,-149.3"/>
<polygon fill="#63b8ff" stroke="#63b8ff" points="1124.78,-152.01 1129.38,-142.47 1119.83,-147.06 1124.78,-152.01"/>
</a>
</g>
</g>
<!-- Node38&#45;&gt;Node3 -->
<g id="edge66_Node000038_Node000003" class="edge">
<title>Node38&#45;&gt;Node3</title>
<g id="a_edge66_Node000038_Node000003"><a xlink:title=" ">
<path fill="none" stroke="#63b8ff" d="M1304.5,-243.11C1304.5,-234.33 1304.5,-223.02 1304.5,-213.4"/>
<polygon fill="#63b8ff" stroke="#63b8ff" points="1308,-213.59 1304.5,-203.59 1301,-213.59 1308,-213.59"/>
</a>
</g>
</g>
<!-- Node38&#45;&gt;Node13 -->
<g id="edge67_Node000038_Node000013" class="edge">
<title>Node38&#45;&gt;Node13</title>
<g id="a_edge67_Node000038_Node000013"><a xlink:title=" ">
<path fill="none" stroke="#63b8ff" d="M1252.18,-250.72C1192.92,-242.32 1093.66,-226.94 1009.5,-207.5 962.57,-196.66 952.63,-186.94 905.5,-177 880.23,-171.67 733.02,-153.06 640.78,-141.63"/>
<polygon fill="#63b8ff" stroke="#63b8ff" points="641.39,-138.18 631.04,-140.42 640.53,-145.12 641.39,-138.18"/>
</a>
</g>
</g>
</g>
</svg>

<g id="navigator" transform="translate(0 0)" fill="#404254">
  <rect fill="#f2f5e9" fill-opacity="0.5" stroke="#606060" stroke-width=".5" x="0" y="0" width="60" height="60"/>
  <use id="zoomplus" xlink:href="#zoomPlus" x="17" y="9" onmousedown="handleZoom(evt,'in')"/>
  <use id="zoomminus" xlink:href="#zoomMin" x="42" y="9" onmousedown="handleZoom(evt,'out')"/>
  <use id="reset" xlink:href="#resetDef" x="30" y="36" onmousedown="handleReset()"/>
   <use id="arrowup" xlink:href="#arrowUp" x="0" y="0" onmousedown="handlePan(0,-1)"/>
  <use id="arrowright" xlink:href="#arrowRight" x="0" y="0" onmousedown="handlePan(1,0)"/>
  <use id="arrowdown" xlink:href="#arrowDown" x="0" y="0" onmousedown="handlePan(0,1)"/>
  <use id="arrowleft" xlink:href="#arrowLeft" x="0" y="0" onmousedown="handlePan(-1,0)"/>
</g>
<svg viewBox="0 0 15 15" width="100%" height="30px" preserveAspectRatio="xMaxYMin meet">
 <g id="arrow_out" transform="scale(0.3 0.3)">
  <a xlink:href="length_8h__incl_org.svg" target="_base">
   <rect id="button" ry="5" rx="5" y="6" x="6" height="38" width="38"
        fill="#f2f5e9" fill-opacity="0.5" stroke="#606060" stroke-width="1.0"/>
   <path id="arrow"
     d="M 11.500037,31.436501 C 11.940474,20.09759 22.043105,11.32322 32.158766,21.979434 L 37.068811,17.246167 C 37.068811,17.246167 37.088388,32 37.088388,32 L 22.160133,31.978069 C 22.160133,31.978069 26.997745,27.140456 26.997745,27.140456 C 18.528582,18.264221 13.291696,25.230495 11.500037,31.436501 z"
     style="fill:#404040;"/>
  </a>
 </g>
</svg>

<style type='text/css'>
<![CDATA[
[data-mouse-over-selected='false'] { opacity: 0.7; }
[data-mouse-over-selected='true']  { opacity: 1.0; }
]]>
</style>
<script type="application/ecmascript"><![CDATA[
document.addEventListener('DOMContentLoaded', (event) => {
  highlightEdges();
  highlightAdjacentNodes();
});
]]></script>
</svg>
