<?xml version="1.0" encoding="UTF-8" standalone="no"?>
<!DOCTYPE svg PUBLIC "-//W3C//DTD SVG 1.1//EN"
 "http://www.w3.org/Graphics/SVG/1.1/DTD/svg11.dtd">
<!-- Generated by graphviz version 10.0.1 (0)
 -->
<!-- Title: length.h Pages: 1 -->
<svg width="254pt" height="304pt"
 viewBox="0.00 0.00 254.12 303.50" xmlns="http://www.w3.org/2000/svg" xmlns:xlink="http://www.w3.org/1999/xlink">

<svg id="main" version="1.1" xmlns="http://www.w3.org/2000/svg" xmlns:xlink="http://www.w3.org/1999/xlink" xml:space="preserve" onload="init(evt)">
<style type="text/css"><![CDATA[
.node, .edge {opacity: 0.7;}
.node.selected, .edge.selected {opacity: 1;}
.edge:hover path { stroke: red; }
.edge:hover polygon { stroke: red; fill: red; }
]]></style>
<script type="application/ecmascript" xlink:href="svg.min.js"/>
<svg id="graph" class="graph">
<g id="graph0" class="graph" transform="scale(1 1) rotate(0) translate(4 299.5)">
<title>length.h</title>
<!-- Node1 -->
<g id="Node000001" class="node">
<title>Node1</title>
<g id="a_Node000001"><a xlink:title="A one&#45;dimensional distance with associated unit of measurement.">
<polygon fill="#999999" stroke="#666666" points="113.12,-295.5 58.88,-295.5 58.88,-276.25 113.12,-276.25 113.12,-295.5"/>
<text text-anchor="middle" x="86" y="-281.05" font-family="Helvetica,sans-Serif" font-size="11.00">length.h</text>
</a>
</g>
</g>
<!-- Node2 -->
<g id="Node000002" class="node">
<title>Node2</title>
<g id="a_Node000002"><a xlink:href="euclid_8h.html" target="_top" xlink:title="Small collection of classes and functions for geometric types with a focus on 2d graphics and layout.">
<polygon fill="white" stroke="#666666" points="131.38,-19.25 78.62,-19.25 78.62,0 131.38,0 131.38,-19.25"/>
<text text-anchor="middle" x="105" y="-4.8" font-family="Helvetica,sans-Serif" font-size="11.00">euclid.h</text>
</a>
</g>
</g>
<!-- Node1&#45;&gt;Node2 -->
<g id="edge1_Node000001_Node000002" class="edge">
<title>Node1&#45;&gt;Node2</title>
<g id="a_edge1_Node000001_Node000002"><a xlink:title=" ">
<path fill="none" stroke="#63b8ff" d="M62.31,-269.4C36.86,-250.7 0,-216.66 0,-176.38 0,-176.38 0,-176.38 0,-119.12 0,-70.37 55.43,-35.18 85.74,-19.59"/>
<polygon fill="#63b8ff" stroke="#63b8ff" points="59.98,-272.04 70.17,-274.93 64.01,-266.32 59.98,-272.04"/>
</a>
</g>
</g>
<!-- Node3 -->
<g id="Node000003" class="node">
<title>Node3</title>
<g id="a_Node000003"><a xlink:href="nt__traits2d_8h.html" target="_top" xlink:title=" ">
<polygon fill="white" stroke="#666666" points="189.62,-240.25 114.38,-240.25 114.38,-221 189.62,-221 189.62,-240.25"/>
<text text-anchor="middle" x="152" y="-225.8" font-family="Helvetica,sans-Serif" font-size="11.00">nt_traits2d.h</text>
</a>
</g>
</g>
<!-- Node1&#45;&gt;Node3 -->
<g id="edge2_Node000001_Node000003" class="edge">
<title>Node1&#45;&gt;Node3</title>
<g id="a_edge2_Node000001_Node000003"><a xlink:title=" ">
<path fill="none" stroke="#63b8ff" d="M106.09,-268.66C117.55,-259.42 131.48,-248.18 140.97,-240.52"/>
<polygon fill="#63b8ff" stroke="#63b8ff" points="103.96,-265.89 98.37,-274.89 108.35,-271.34 103.96,-265.89"/>
</a>
</g>
</g>
<!-- Node4 -->
<g id="Node000004" class="node">
<title>Node4</title>
<g id="a_Node000004"><a xlink:href="point2d_8h.html" target="_top" xlink:title="A two&#45;dimensional point tagged with a unit.">
<polygon fill="white" stroke="#666666" points="164.12,-74.5 103.88,-74.5 103.88,-55.25 164.12,-55.25 164.12,-74.5"/>
<text text-anchor="middle" x="134" y="-60.05" font-family="Helvetica,sans-Serif" font-size="11.00">point2d.h</text>
</a>
</g>
</g>
<!-- Node1&#45;&gt;Node4 -->
<g id="edge12_Node000001_Node000004" class="edge">
<title>Node1&#45;&gt;Node4</title>
<g id="a_edge12_Node000001_Node000004"><a xlink:title=" ">
<path fill="none" stroke="#63b8ff" d="M75.43,-265.94C63.59,-242.17 47.46,-200.32 59,-165.75 71.97,-126.87 106.67,-90.96 123.94,-74.83"/>
<polygon fill="#63b8ff" stroke="#63b8ff" points="72.29,-267.49 80.06,-274.7 78.49,-264.23 72.29,-267.49"/>
</a>
</g>
</g>
<!-- Node5 -->
<g id="Node000005" class="node">
<title>Node5</title>
<g id="a_Node000005"><a xlink:href="size2d_8h.html" target="_top" xlink:title="A two&#45;dimensional size tagged with a unit.">
<polygon fill="white" stroke="#666666" points="123.88,-185 68.12,-185 68.12,-165.75 123.88,-165.75 123.88,-185"/>
<text text-anchor="middle" x="96" y="-170.55" font-family="Helvetica,sans-Serif" font-size="11.00">size2d.h</text>
</a>
</g>
</g>
<!-- Node1&#45;&gt;Node5 -->
<g id="edge13_Node000001_Node000005" class="edge">
<title>Node1&#45;&gt;Node5</title>
<g id="a_edge13_Node000001_Node000005"><a xlink:title=" ">
<path fill="none" stroke="#63b8ff" d="M87.85,-264.85C90.03,-241.15 93.57,-202.72 95.17,-185.38"/>
<polygon fill="#63b8ff" stroke="#63b8ff" points="84.39,-264.21 86.96,-274.49 91.36,-264.85 84.39,-264.21"/>
</a>
</g>
</g>
<!-- Node6 -->
<g id="Node000006" class="node">
<title>Node6</title>
<g id="a_Node000006"><a xlink:href="vector2d_8h.html" target="_top" xlink:title="A two&#45;dimensional vector tagged with a unit.">
<polygon fill="white" stroke="#666666" points="246.12,-129.75 179.88,-129.75 179.88,-110.5 246.12,-110.5 246.12,-129.75"/>
<text text-anchor="middle" x="213" y="-115.3" font-family="Helvetica,sans-Serif" font-size="11.00">vector2d.h</text>
</a>
</g>
</g>
<!-- Node1&#45;&gt;Node6 -->
<g id="edge14_Node000001_Node000006" class="edge">
<title>Node1&#45;&gt;Node6</title>
<g id="a_edge14_Node000001_Node000006"><a xlink:title=" ">
<path fill="none" stroke="#63b8ff" d="M124.64,-279.86C149.85,-274.47 181.26,-263.3 199,-240.25 224.78,-206.75 218.48,-151.47 214.76,-130.02"/>
<polygon fill="#63b8ff" stroke="#63b8ff" points="124.23,-276.38 115.05,-281.68 125.53,-283.26 124.23,-276.38"/>
</a>
</g>
</g>
<!-- Node3&#45;&gt;Node4 -->
<g id="edge3_Node000003_Node000004" class="edge">
<title>Node3&#45;&gt;Node4</title>
<g id="a_edge3_Node000003_Node000004"><a xlink:title=" ">
<path fill="none" stroke="#63b8ff" d="M149.78,-209.47C145.84,-173.61 137.76,-100.1 134.97,-74.72"/>
<polygon fill="#63b8ff" stroke="#63b8ff" points="146.3,-209.76 150.87,-219.32 153.25,-208.99 146.3,-209.76"/>
</a>
</g>
</g>
<!-- Node3&#45;&gt;Node5 -->
<g id="edge5_Node000003_Node000005" class="edge">
<title>Node3&#45;&gt;Node5</title>
<g id="a_edge5_Node000003_Node000005"><a xlink:title=" ">
<path fill="none" stroke="#63b8ff" d="M134.37,-212.86C124.76,-203.72 113.25,-192.78 105.36,-185.27"/>
<polygon fill="#63b8ff" stroke="#63b8ff" points="131.74,-215.19 141.4,-219.55 136.57,-210.12 131.74,-215.19"/>
</a>
</g>
</g>
<!-- Node3&#45;&gt;Node6 -->
<g id="edge11_Node000003_Node000006" class="edge">
<title>Node3&#45;&gt;Node6</title>
<g id="a_edge11_Node000003_Node000006"><a xlink:title=" ">
<path fill="none" stroke="#63b8ff" d="M162.53,-210.9C175.78,-187.33 198.01,-147.79 207.94,-130.13"/>
<polygon fill="#63b8ff" stroke="#63b8ff" points="159.58,-208.99 157.73,-219.43 165.69,-212.43 159.58,-208.99"/>
</a>
</g>
</g>
<!-- Node4&#45;&gt;Node2 -->
<g id="edge4_Node000004_Node000002" class="edge">
<title>Node4&#45;&gt;Node2</title>
<g id="a_edge4_Node000004_Node000002"><a xlink:title=" ">
<path fill="none" stroke="#63b8ff" d="M123.76,-45.08C119.05,-36.42 113.68,-26.56 109.89,-19.61"/>
<polygon fill="#63b8ff" stroke="#63b8ff" points="120.63,-46.64 128.49,-53.75 126.78,-43.3 120.63,-46.64"/>
</a>
</g>
</g>
<!-- Node5&#45;&gt;Node2 -->
<g id="edge6_Node000005_Node000002" class="edge">
<title>Node5&#45;&gt;Node2</title>
<g id="a_edge6_Node000005_Node000002"><a xlink:title=" ">
<path fill="none" stroke="#63b8ff" d="M94.37,-154.03C92.8,-130.25 91.18,-89.77 95,-55.25 96.4,-42.62 99.95,-28.35 102.43,-19.42"/>
<polygon fill="#63b8ff" stroke="#63b8ff" points="90.87,-154.14 95.09,-163.86 97.85,-153.63 90.87,-154.14"/>
</a>
</g>
</g>
<!-- Node5&#45;&gt;Node4 -->
<g id="edge7_Node000005_Node000004" class="edge">
<title>Node5&#45;&gt;Node4</title>
<g id="a_edge7_Node000005_Node000004"><a xlink:title=" ">
<path fill="none" stroke="#63b8ff" d="M102.9,-154.68C111.19,-131.01 124.74,-92.3 130.85,-74.88"/>
<polygon fill="#63b8ff" stroke="#63b8ff" points="99.61,-153.47 99.61,-164.07 106.22,-155.79 99.61,-153.47"/>
</a>
</g>
</g>
<!-- Node5&#45;&gt;Node6 -->
<g id="edge8_Node000005_Node000006" class="edge">
<title>Node5&#45;&gt;Node6</title>
<g id="a_edge8_Node000005_Node000006"><a xlink:title=" ">
<path fill="none" stroke="#63b8ff" d="M126.18,-160.64C147.22,-151.06 174.7,-138.56 193.06,-130.2"/>
<polygon fill="#63b8ff" stroke="#63b8ff" points="124.88,-157.39 117.23,-164.71 127.78,-163.76 124.88,-157.39"/>
</a>
</g>
</g>
<!-- Node6&#45;&gt;Node2 -->
<g id="edge9_Node000006_Node000002" class="edge">
<title>Node6&#45;&gt;Node2</title>
<g id="a_edge9_Node000006_Node000002"><a xlink:title=" ">
<path fill="none" stroke="#63b8ff" d="M203.79,-99.91C196.67,-86.38 185.87,-68.4 173,-55.25 158.28,-40.22 137.66,-27.56 122.99,-19.62"/>
<polygon fill="#63b8ff" stroke="#63b8ff" points="200.58,-101.31 208.19,-108.68 206.84,-98.17 200.58,-101.31"/>
</a>
</g>
</g>
<!-- Node6&#45;&gt;Node4 -->
<g id="edge10_Node000006_Node000004" class="edge">
<title>Node6&#45;&gt;Node4</title>
<g id="a_edge10_Node000006_Node000004"><a xlink:title=" ">
<path fill="none" stroke="#63b8ff" d="M190.24,-103.78C176.39,-94.45 159.18,-82.85 147.47,-74.95"/>
<polygon fill="#63b8ff" stroke="#63b8ff" points="188.1,-106.56 198.34,-109.25 192.01,-100.75 188.1,-106.56"/>
</a>
</g>
</g>
</g>
</svg>
</svg>

<style type='text/css'>
<![CDATA[
[data-mouse-over-selected='false'] { opacity: 0.7; }
[data-mouse-over-selected='true']  { opacity: 1.0; }
]]>
</style>
<script type="application/ecmascript"><![CDATA[
document.addEventListener('DOMContentLoaded', (event) => {
  highlightEdges();
  highlightAdjacentNodes();
});
]]></script>
</svg>
