<?xml version="1.0" encoding="UTF-8" standalone="no"?>
<!DOCTYPE svg PUBLIC "-//W3C//DTD SVG 1.1//EN"
 "http://www.w3.org/Graphics/SVG/1.1/DTD/svg11.dtd">
<!-- Generated by graphviz version 10.0.1 (0)
 -->
<!-- Title: length.h Pages: 1 -->
<svg width="926pt" height="393pt"
 viewBox="0.00 0.00 925.62 392.50" xmlns="http://www.w3.org/2000/svg" xmlns:xlink="http://www.w3.org/1999/xlink">
<g id="graph0" class="graph" transform="scale(1 1) rotate(0) translate(4 388.5)">
<title>length.h</title>
<!-- Node1 -->
<g id="Node000001" class="node">
<title>Node1</title>
<g id="a_Node000001"><a xlink:title="A one&#45;dimensional distance with associated unit of measurement.">
<polygon fill="#999999" stroke="#666666" points="639.62,-384.5 585.38,-384.5 585.38,-365.25 639.62,-365.25 639.62,-384.5"/>
<text text-anchor="middle" x="612.5" y="-370.05" font-family="Helvetica,sans-Serif" font-size="11.00">length.h</text>
</a>
</g>
</g>
<!-- Node2 -->
<g id="Node000002" class="node">
<title>Node2</title>
<g id="a_Node000002"><a xlink:href="scale_8h.html" target="_top" xlink:title="A scaling factor between two different units of measurement.">
<polygon fill="white" stroke="#666666" points="626.5,-329.25 514.5,-329.25 514.5,-310 626.5,-310 626.5,-329.25"/>
<text text-anchor="middle" x="570.5" y="-314.8" font-family="Helvetica,sans-Serif" font-size="11.00">floppy/euclid/scale.h</text>
</a>
</g>
</g>
<!-- Node1&#45;&gt;Node2 -->
<g id="edge1_Node000001_Node000002" class="edge">
<title>Node1&#45;&gt;Node2</title>
<g id="a_edge1_Node000001_Node000002"><a xlink:title=" ">
<path fill="none" stroke="#63b8ff" d="M605.56,-365.08C599.88,-357.88 591.66,-347.46 584.61,-338.51"/>
<polygon fill="#63b8ff" stroke="#63b8ff" points="587.46,-336.48 578.52,-330.8 581.97,-340.82 587.46,-336.48"/>
</a>
</g>
</g>
<!-- Node29 -->
<g id="Node000029" class="node">
<title>Node29</title>
<g id="a_Node000029"><a xlink:href="nt__traits_8h.html" target="_top" xlink:title=" ">
<polygon fill="white" stroke="#666666" points="705.38,-274 601.62,-274 601.62,-243.5 705.38,-243.5 705.38,-274"/>
<text text-anchor="start" x="609.62" y="-259.55" font-family="Helvetica,sans-Serif" font-size="11.00">floppy/euclid/detail</text>
<text text-anchor="middle" x="653.5" y="-248.3" font-family="Helvetica,sans-Serif" font-size="11.00">/nt_traits.h</text>
</a>
</g>
</g>
<!-- Node1&#45;&gt;Node29 -->
<g id="edge41_Node000001_Node000029" class="edge">
<title>Node1&#45;&gt;Node29</title>
<g id="a_edge41_Node000001_Node000029"><a xlink:title=" ">
<path fill="none" stroke="#63b8ff" d="M617.87,-364.92C622.98,-356.1 630.59,-342.12 635.5,-329.25 640.88,-315.16 645.19,-298.87 648.25,-285.6"/>
<polygon fill="#63b8ff" stroke="#63b8ff" points="651.65,-286.41 650.37,-275.9 644.81,-284.92 651.65,-286.41"/>
</a>
</g>
</g>
<!-- Node3 -->
<g id="Node000003" class="node">
<title>Node3</title>
<g id="a_Node000003"><a xlink:href="math_8h_source.html" target="_top" xlink:title=" ">
<polygon fill="white" stroke="#666666" points="667,-201.88 558,-201.88 558,-182.62 667,-182.62 667,-201.88"/>
<text text-anchor="middle" x="612.5" y="-187.43" font-family="Helvetica,sans-Serif" font-size="11.00">floppy/detail/math.h</text>
</a>
</g>
</g>
<!-- Node2&#45;&gt;Node3 -->
<g id="edge2_Node000002_Node000003" class="edge">
<title>Node2&#45;&gt;Node3</title>
<g id="a_edge2_Node000002_Node000003"><a xlink:title=" ">
<path fill="none" stroke="#63b8ff" d="M572.81,-309.75C576.55,-295.61 584.35,-267.14 592.5,-243.5 596.07,-233.14 600.54,-221.78 604.35,-212.49"/>
<polygon fill="#63b8ff" stroke="#63b8ff" points="607.5,-214.02 608.12,-203.45 601.04,-211.33 607.5,-214.02"/>
</a>
</g>
</g>
<!-- Node21 -->
<g id="Node000021" class="node">
<title>Node21</title>
<g id="a_Node000021"><a xlink:href="traits_8h_source.html" target="_top" xlink:title=" ">
<polygon fill="white" stroke="#666666" points="327.38,-268.38 247.62,-268.38 247.62,-249.12 327.38,-249.12 327.38,-268.38"/>
<text text-anchor="middle" x="287.5" y="-253.93" font-family="Helvetica,sans-Serif" font-size="11.00">floppy/traits.h</text>
</a>
</g>
</g>
<!-- Node2&#45;&gt;Node21 -->
<g id="edge22_Node000002_Node000021" class="edge">
<title>Node2&#45;&gt;Node21</title>
<g id="a_edge22_Node000002_Node000021"><a xlink:title=" ">
<path fill="none" stroke="#63b8ff" d="M526.9,-309.55C476.09,-298.98 392.26,-281.54 338.48,-270.36"/>
<polygon fill="#63b8ff" stroke="#63b8ff" points="339.47,-266.99 328.97,-268.38 338.04,-273.84 339.47,-266.99"/>
</a>
</g>
</g>
<!-- Node2&#45;&gt;Node29 -->
<g id="edge38_Node000002_Node000029" class="edge">
<title>Node2&#45;&gt;Node29</title>
<g id="a_edge38_Node000002_Node000029"><a xlink:title=" ">
<path fill="none" stroke="#63b8ff" d="M583.11,-309.68C593.87,-302.05 609.77,-290.77 623.74,-280.86"/>
<polygon fill="#63b8ff" stroke="#63b8ff" points="625.65,-283.8 631.78,-275.16 621.6,-278.09 625.65,-283.8"/>
</a>
</g>
</g>
<!-- Node4 -->
<g id="Node000004" class="node">
<title>Node4</title>
<g id="a_Node000004"><a xlink:title=" ">
<polygon fill="#e0e0e0" stroke="#999999" points="739.12,-141 693.88,-141 693.88,-121.75 739.12,-121.75 739.12,-141"/>
<text text-anchor="middle" x="716.5" y="-126.55" font-family="Helvetica,sans-Serif" font-size="11.00">cmath</text>
</a>
</g>
</g>
<!-- Node3&#45;&gt;Node4 -->
<g id="edge3_Node000003_Node000004" class="edge">
<title>Node3&#45;&gt;Node4</title>
<g id="a_edge3_Node000003_Node000004"><a xlink:title=" ">
<path fill="none" stroke="#63b8ff" d="M628.3,-182.31C644.86,-172.93 671.17,-158.04 690.75,-146.95"/>
<polygon fill="#63b8ff" stroke="#63b8ff" points="692.26,-150.12 699.24,-142.15 688.81,-144.03 692.26,-150.12"/>
</a>
</g>
</g>
<!-- Node5 -->
<g id="Node000005" class="node">
<title>Node5</title>
<g id="a_Node000005"><a xlink:title=" ">
<polygon fill="#e0e0e0" stroke="#999999" points="599.5,-141 559.5,-141 559.5,-121.75 599.5,-121.75 599.5,-141"/>
<text text-anchor="middle" x="579.5" y="-126.55" font-family="Helvetica,sans-Serif" font-size="11.00">limits</text>
</a>
</g>
</g>
<!-- Node3&#45;&gt;Node5 -->
<g id="edge4_Node000003_Node000005" class="edge">
<title>Node3&#45;&gt;Node5</title>
<g id="a_edge4_Node000003_Node000005"><a xlink:title=" ">
<path fill="none" stroke="#63b8ff" d="M607.49,-182.31C602.88,-174.1 595.91,-161.66 590.08,-151.25"/>
<polygon fill="#63b8ff" stroke="#63b8ff" points="593.24,-149.73 585.3,-142.72 587.14,-153.16 593.24,-149.73"/>
</a>
</g>
</g>
<!-- Node6 -->
<g id="Node000006" class="node">
<title>Node6</title>
<g id="a_Node000006"><a xlink:title=" ">
<polygon fill="#e0e0e0" stroke="#999999" points="675.5,-141 617.5,-141 617.5,-121.75 675.5,-121.75 675.5,-141"/>
<text text-anchor="middle" x="646.5" y="-126.55" font-family="Helvetica,sans-Serif" font-size="11.00">numbers</text>
</a>
</g>
</g>
<!-- Node3&#45;&gt;Node6 -->
<g id="edge5_Node000003_Node000006" class="edge">
<title>Node3&#45;&gt;Node6</title>
<g id="a_edge5_Node000003_Node000006"><a xlink:title=" ">
<path fill="none" stroke="#63b8ff" d="M617.66,-182.31C622.41,-174.1 629.59,-161.66 635.6,-151.25"/>
<polygon fill="#63b8ff" stroke="#63b8ff" points="638.56,-153.12 640.53,-142.71 632.5,-149.62 638.56,-153.12"/>
</a>
</g>
</g>
<!-- Node7 -->
<g id="Node000007" class="node">
<title>Node7</title>
<g id="a_Node000007"><a xlink:title=" ">
<polygon fill="#e0e0e0" stroke="#999999" points="541.5,-141 483.5,-141 483.5,-121.75 541.5,-121.75 541.5,-141"/>
<text text-anchor="middle" x="512.5" y="-126.55" font-family="Helvetica,sans-Serif" font-size="11.00">compare</text>
</a>
</g>
</g>
<!-- Node3&#45;&gt;Node7 -->
<g id="edge6_Node000003_Node000007" class="edge">
<title>Node3&#45;&gt;Node7</title>
<g id="a_edge6_Node000003_Node000007"><a xlink:title=" ">
<path fill="none" stroke="#63b8ff" d="M597.31,-182.31C581.45,-172.97 556.32,-158.17 537.52,-147.11"/>
<polygon fill="#63b8ff" stroke="#63b8ff" points="539.53,-144.23 529.14,-142.17 535.98,-150.26 539.53,-144.23"/>
</a>
</g>
</g>
<!-- Node8 -->
<g id="Node000008" class="node">
<title>Node8</title>
<g id="a_Node000008"><a xlink:href="export_8h_source.html" target="_top" xlink:title=" ">
<polygon fill="white" stroke="#666666" points="427,-141 312,-141 312,-121.75 427,-121.75 427,-141"/>
<text text-anchor="middle" x="369.5" y="-126.55" font-family="Helvetica,sans-Serif" font-size="11.00">floppy/detail/export.h</text>
</a>
</g>
</g>
<!-- Node3&#45;&gt;Node8 -->
<g id="edge7_Node000003_Node000008" class="edge">
<title>Node3&#45;&gt;Node8</title>
<g id="a_edge7_Node000003_Node000008"><a xlink:title=" ">
<path fill="none" stroke="#63b8ff" d="M575.06,-182.18C532.88,-171.96 464.17,-155.31 417.93,-144.11"/>
<polygon fill="#63b8ff" stroke="#63b8ff" points="418.99,-140.77 408.45,-141.81 417.34,-147.57 418.99,-140.77"/>
</a>
</g>
</g>
<!-- Node13 -->
<g id="Node000013" class="node">
<title>Node13</title>
<g id="a_Node000013"><a xlink:href="concepts_8h_source.html" target="_top" xlink:title=" ">
<polygon fill="white" stroke="#666666" points="885.38,-141 757.62,-141 757.62,-121.75 885.38,-121.75 885.38,-141"/>
<text text-anchor="middle" x="821.5" y="-126.55" font-family="Helvetica,sans-Serif" font-size="11.00">floppy/detail/concepts.h</text>
</a>
</g>
</g>
<!-- Node3&#45;&gt;Node13 -->
<g id="edge12_Node000003_Node000013" class="edge">
<title>Node3&#45;&gt;Node13</title>
<g id="a_edge12_Node000003_Node000013"><a xlink:title=" ">
<path fill="none" stroke="#63b8ff" d="M644.7,-182.18C680.52,-172.09 738.58,-155.73 778.32,-144.54"/>
<polygon fill="#63b8ff" stroke="#63b8ff" points="779.13,-147.95 787.81,-141.87 777.23,-141.21 779.13,-147.95"/>
</a>
</g>
</g>
<!-- Node9 -->
<g id="Node000009" class="node">
<title>Node9</title>
<g id="a_Node000009"><a xlink:title=" ">
<polygon fill="#e0e0e0" stroke="#999999" points="407.62,-80.12 365.38,-80.12 365.38,-60.88 407.62,-60.88 407.62,-80.12"/>
<text text-anchor="middle" x="386.5" y="-65.67" font-family="Helvetica,sans-Serif" font-size="11.00">string</text>
</a>
</g>
</g>
<!-- Node8&#45;&gt;Node9 -->
<g id="edge8_Node000008_Node000009" class="edge">
<title>Node8&#45;&gt;Node9</title>
<g id="a_edge8_Node000008_Node000009"><a xlink:title=" ">
<path fill="none" stroke="#63b8ff" d="M372.08,-121.43C374.38,-113.48 377.82,-101.56 380.76,-91.37"/>
<polygon fill="#63b8ff" stroke="#63b8ff" points="384.06,-92.56 383.47,-81.98 377.34,-90.62 384.06,-92.56"/>
</a>
</g>
</g>
<!-- Node10 -->
<g id="Node000010" class="node">
<title>Node10</title>
<g id="a_Node000010"><a xlink:title=" ">
<polygon fill="#e0e0e0" stroke="#999999" points="307.5,-80.12 237.5,-80.12 237.5,-60.88 307.5,-60.88 307.5,-80.12"/>
<text text-anchor="middle" x="272.5" y="-65.67" font-family="Helvetica,sans-Serif" font-size="11.00">string_view</text>
</a>
</g>
</g>
<!-- Node8&#45;&gt;Node10 -->
<g id="edge9_Node000008_Node000010" class="edge">
<title>Node8&#45;&gt;Node10</title>
<g id="a_edge9_Node000008_Node000010"><a xlink:title=" ">
<path fill="none" stroke="#63b8ff" d="M354.77,-121.43C339.46,-112.14 315.23,-97.44 297.03,-86.39"/>
<polygon fill="#63b8ff" stroke="#63b8ff" points="299.03,-83.51 288.66,-81.31 295.4,-89.49 299.03,-83.51"/>
</a>
</g>
</g>
<!-- Node11 -->
<g id="Node000011" class="node">
<title>Node11</title>
<g id="a_Node000011"><a xlink:title=" ">
<polygon fill="#e0e0e0" stroke="#999999" points="484.12,-80.12 426.88,-80.12 426.88,-60.88 484.12,-60.88 484.12,-80.12"/>
<text text-anchor="middle" x="455.5" y="-65.67" font-family="Helvetica,sans-Serif" font-size="11.00">iostream</text>
</a>
</g>
</g>
<!-- Node8&#45;&gt;Node11 -->
<g id="edge10_Node000008_Node000011" class="edge">
<title>Node8&#45;&gt;Node11</title>
<g id="a_edge10_Node000008_Node000011"><a xlink:title=" ">
<path fill="none" stroke="#63b8ff" d="M382.56,-121.43C395.95,-112.27 417.02,-97.84 433.08,-86.85"/>
<polygon fill="#63b8ff" stroke="#63b8ff" points="434.79,-89.92 441.07,-81.38 430.84,-84.14 434.79,-89.92"/>
</a>
</g>
</g>
<!-- Node12 -->
<g id="Node000012" class="node">
<title>Node12</title>
<g id="a_Node000012"><a xlink:title=" ">
<polygon fill="#e0e0e0" stroke="#999999" points="374.38,-19.25 300.62,-19.25 300.62,0 374.38,0 374.38,-19.25"/>
<text text-anchor="middle" x="337.5" y="-4.8" font-family="Helvetica,sans-Serif" font-size="11.00">fmt/format.h</text>
</a>
</g>
</g>
<!-- Node8&#45;&gt;Node12 -->
<g id="edge11_Node000008_Node000012" class="edge">
<title>Node8&#45;&gt;Node12</title>
<g id="a_edge11_Node000008_Node000012"><a xlink:title=" ">
<path fill="none" stroke="#63b8ff" d="M366.82,-121.51C364.12,-112.53 359.89,-98.21 356.5,-85.75 351.42,-67.09 346.06,-45.7 342.33,-30.53"/>
<polygon fill="#63b8ff" stroke="#63b8ff" points="345.75,-29.8 339.98,-20.91 338.95,-31.46 345.75,-29.8"/>
</a>
</g>
</g>
<!-- Node14 -->
<g id="Node000014" class="node">
<title>Node14</title>
<g id="a_Node000014"><a xlink:title=" ">
<polygon fill="#e0e0e0" stroke="#999999" points="802.88,-80.12 744.12,-80.12 744.12,-60.88 802.88,-60.88 802.88,-80.12"/>
<text text-anchor="middle" x="773.5" y="-65.67" font-family="Helvetica,sans-Serif" font-size="11.00">concepts</text>
</a>
</g>
</g>
<!-- Node13&#45;&gt;Node14 -->
<g id="edge13_Node000013_Node000014" class="edge">
<title>Node13&#45;&gt;Node14</title>
<g id="a_edge13_Node000013_Node000014"><a xlink:title=" ">
<path fill="none" stroke="#63b8ff" d="M814.21,-121.43C807.3,-112.96 796.73,-99.99 788.09,-89.39"/>
<polygon fill="#63b8ff" stroke="#63b8ff" points="790.85,-87.24 781.82,-81.7 785.42,-91.66 790.85,-87.24"/>
</a>
</g>
</g>
<!-- Node15 -->
<g id="Node000015" class="node">
<title>Node15</title>
<g id="a_Node000015"><a xlink:href="type__traits_8h_source.html" target="_top" xlink:title=" ">
<polygon fill="white" stroke="#666666" points="917.62,-85.75 821.38,-85.75 821.38,-55.25 917.62,-55.25 917.62,-85.75"/>
<text text-anchor="start" x="829.38" y="-71.3" font-family="Helvetica,sans-Serif" font-size="11.00">floppy/detail/type</text>
<text text-anchor="middle" x="869.5" y="-60.05" font-family="Helvetica,sans-Serif" font-size="11.00">_traits.h</text>
</a>
</g>
</g>
<!-- Node13&#45;&gt;Node15 -->
<g id="edge14_Node000013_Node000015" class="edge">
<title>Node13&#45;&gt;Node15</title>
<g id="a_edge14_Node000013_Node000015"><a xlink:title=" ">
<path fill="none" stroke="#63b8ff" d="M828.79,-121.43C834.53,-114.39 842.81,-104.23 850.41,-94.92"/>
<polygon fill="#63b8ff" stroke="#63b8ff" points="853.09,-97.17 856.7,-87.21 847.66,-92.74 853.09,-97.17"/>
</a>
</g>
</g>
<!-- Node17 -->
<g id="Node000017" class="node">
<title>Node17</title>
<g id="a_Node000017"><a xlink:href="types_8h_source.html" target="_top" xlink:title=" ">
<polygon fill="white" stroke="#666666" points="725.75,-80.12 615.25,-80.12 615.25,-60.88 725.75,-60.88 725.75,-80.12"/>
<text text-anchor="middle" x="670.5" y="-65.67" font-family="Helvetica,sans-Serif" font-size="11.00">floppy/detail/types.h</text>
</a>
</g>
</g>
<!-- Node13&#45;&gt;Node17 -->
<g id="edge16_Node000013_Node000017" class="edge">
<title>Node13&#45;&gt;Node17</title>
<g id="a_edge16_Node000013_Node000017"><a xlink:title=" ">
<path fill="none" stroke="#63b8ff" d="M798.24,-121.3C773.19,-111.54 733.09,-95.9 704.5,-84.76"/>
<polygon fill="#63b8ff" stroke="#63b8ff" points="705.79,-81.5 695.2,-81.13 703.24,-88.02 705.79,-81.5"/>
</a>
</g>
</g>
<!-- Node16 -->
<g id="Node000016" class="node">
<title>Node16</title>
<g id="a_Node000016"><a xlink:title=" ">
<polygon fill="#e0e0e0" stroke="#999999" points="875.25,-19.25 809.75,-19.25 809.75,0 875.25,0 875.25,-19.25"/>
<text text-anchor="middle" x="842.5" y="-4.8" font-family="Helvetica,sans-Serif" font-size="11.00">type_traits</text>
</a>
</g>
</g>
<!-- Node15&#45;&gt;Node16 -->
<g id="edge15_Node000015_Node000016" class="edge">
<title>Node15&#45;&gt;Node16</title>
<g id="a_edge15_Node000015_Node000016"><a xlink:title=" ">
<path fill="none" stroke="#63b8ff" d="M862.83,-54.95C859.39,-47.45 855.15,-38.2 851.43,-30.1"/>
<polygon fill="#63b8ff" stroke="#63b8ff" points="854.64,-28.71 847.29,-21.08 848.28,-31.63 854.64,-28.71"/>
</a>
</g>
</g>
<!-- Node17&#45;&gt;Node12 -->
<g id="edge21_Node000017_Node000012" class="edge">
<title>Node17&#45;&gt;Node12</title>
<g id="a_edge21_Node000017_Node000012"><a xlink:title=" ">
<path fill="none" stroke="#63b8ff" d="M619.2,-60.43C555.48,-49.16 447.61,-30.09 385.47,-19.11"/>
<polygon fill="#63b8ff" stroke="#63b8ff" points="386.37,-15.71 375.92,-17.42 385.15,-22.6 386.37,-15.71"/>
</a>
</g>
</g>
<!-- Node17&#45;&gt;Node16 -->
<g id="edge20_Node000017_Node000016" class="edge">
<title>Node17&#45;&gt;Node16</title>
<g id="a_edge20_Node000017_Node000016"><a xlink:title=" ">
<path fill="none" stroke="#63b8ff" d="M697,-60.43C726.04,-50.49 772.83,-34.47 805.49,-23.29"/>
<polygon fill="#63b8ff" stroke="#63b8ff" points="806.21,-26.75 814.54,-20.2 803.95,-20.12 806.21,-26.75"/>
</a>
</g>
</g>
<!-- Node18 -->
<g id="Node000018" class="node">
<title>Node18</title>
<g id="a_Node000018"><a xlink:title=" ">
<polygon fill="#e0e0e0" stroke="#999999" points="628.75,-19.25 578.25,-19.25 578.25,0 628.75,0 628.75,-19.25"/>
<text text-anchor="middle" x="603.5" y="-4.8" font-family="Helvetica,sans-Serif" font-size="11.00">cstddef</text>
</a>
</g>
</g>
<!-- Node17&#45;&gt;Node18 -->
<g id="edge17_Node000017_Node000018" class="edge">
<title>Node17&#45;&gt;Node18</title>
<g id="a_edge17_Node000017_Node000018"><a xlink:title=" ">
<path fill="none" stroke="#63b8ff" d="M660.32,-60.56C650.29,-51.74 634.71,-38.05 622.4,-27.23"/>
<polygon fill="#63b8ff" stroke="#63b8ff" points="624.73,-24.62 614.91,-20.65 620.11,-29.88 624.73,-24.62"/>
</a>
</g>
</g>
<!-- Node19 -->
<g id="Node000019" class="node">
<title>Node19</title>
<g id="a_Node000019"><a xlink:title=" ">
<polygon fill="#e0e0e0" stroke="#999999" points="693.88,-19.25 647.12,-19.25 647.12,0 693.88,0 693.88,-19.25"/>
<text text-anchor="middle" x="670.5" y="-4.8" font-family="Helvetica,sans-Serif" font-size="11.00">cstdint</text>
</a>
</g>
</g>
<!-- Node17&#45;&gt;Node19 -->
<g id="edge18_Node000017_Node000019" class="edge">
<title>Node17&#45;&gt;Node19</title>
<g id="a_edge18_Node000017_Node000019"><a xlink:title=" ">
<path fill="none" stroke="#63b8ff" d="M670.5,-60.56C670.5,-52.78 670.5,-41.2 670.5,-31.16"/>
<polygon fill="#63b8ff" stroke="#63b8ff" points="674,-31.16 670.5,-21.16 667,-31.16 674,-31.16"/>
</a>
</g>
</g>
<!-- Node20 -->
<g id="Node000020" class="node">
<title>Node20</title>
<g id="a_Node000020"><a xlink:title=" ">
<polygon fill="#e0e0e0" stroke="#999999" points="765.25,-19.25 711.75,-19.25 711.75,0 765.25,0 765.25,-19.25"/>
<text text-anchor="middle" x="738.5" y="-4.8" font-family="Helvetica,sans-Serif" font-size="11.00">optional</text>
</a>
</g>
</g>
<!-- Node17&#45;&gt;Node20 -->
<g id="edge19_Node000017_Node000020" class="edge">
<title>Node17&#45;&gt;Node20</title>
<g id="a_edge19_Node000017_Node000020"><a xlink:title=" ">
<path fill="none" stroke="#63b8ff" d="M680.83,-60.56C691.11,-51.65 707.13,-37.78 719.68,-26.92"/>
<polygon fill="#63b8ff" stroke="#63b8ff" points="721.66,-29.83 726.93,-20.64 717.08,-24.54 721.66,-29.83"/>
</a>
</g>
</g>
<!-- Node21&#45;&gt;Node8 -->
<g id="edge26_Node000021_Node000008" class="edge">
<title>Node21&#45;&gt;Node8</title>
<g id="a_edge26_Node000021_Node000008"><a xlink:title=" ">
<path fill="none" stroke="#63b8ff" d="M308.51,-248.64C324.91,-240.37 346.82,-226.55 358.5,-207.5 368.61,-191.01 370.75,-168.73 370.73,-152.73"/>
<polygon fill="#63b8ff" stroke="#63b8ff" points="374.23,-152.86 370.41,-142.98 367.24,-153.09 374.23,-152.86"/>
</a>
</g>
</g>
<!-- Node21&#45;&gt;Node11 -->
<g id="edge24_Node000021_Node000011" class="edge">
<title>Node21&#45;&gt;Node11</title>
<g id="a_edge24_Node000021_Node000011"><a xlink:title=" ">
<path fill="none" stroke="#63b8ff" d="M308.65,-248.66C327.96,-239.78 356.73,-225.07 378.5,-207.5 409.02,-182.87 417.97,-175.57 436.5,-141 444.82,-125.48 449.73,-106.02 452.47,-91.64"/>
<polygon fill="#63b8ff" stroke="#63b8ff" points="455.88,-92.47 454.1,-82.03 448.98,-91.3 455.88,-92.47"/>
</a>
</g>
</g>
<!-- Node22 -->
<g id="Node000022" class="node">
<title>Node22</title>
<g id="a_Node000022"><a xlink:title=" ">
<polygon fill="#e0e0e0" stroke="#999999" points="55,-141 0,-141 0,-121.75 55,-121.75 55,-141"/>
<text text-anchor="middle" x="27.5" y="-126.55" font-family="Helvetica,sans-Serif" font-size="11.00">memory</text>
</a>
</g>
</g>
<!-- Node21&#45;&gt;Node22 -->
<g id="edge23_Node000021_Node000022" class="edge">
<title>Node21&#45;&gt;Node22</title>
<g id="a_edge23_Node000021_Node000022"><a xlink:title=" ">
<path fill="none" stroke="#63b8ff" d="M247.32,-255.78C182.21,-251.68 58.13,-239.73 30.5,-207.5 17.64,-192.5 18.94,-168.96 22.15,-152.24"/>
<polygon fill="#63b8ff" stroke="#63b8ff" points="25.56,-153.03 24.43,-142.5 18.74,-151.44 25.56,-153.03"/>
</a>
</g>
</g>
<!-- Node23 -->
<g id="Node000023" class="node">
<title>Node23</title>
<g id="a_Node000023"><a xlink:title=" ">
<polygon fill="#e0e0e0" stroke="#999999" points="169.12,-207.5 39.88,-207.5 39.88,-177 169.12,-177 169.12,-207.5"/>
<text text-anchor="start" x="47.88" y="-193.05" font-family="Helvetica,sans-Serif" font-size="11.00">experimental/propagate</text>
<text text-anchor="middle" x="104.5" y="-181.8" font-family="Helvetica,sans-Serif" font-size="11.00">_const</text>
</a>
</g>
</g>
<!-- Node21&#45;&gt;Node23 -->
<g id="edge25_Node000021_Node000023" class="edge">
<title>Node21&#45;&gt;Node23</title>
<g id="a_edge25_Node000021_Node000023"><a xlink:title=" ">
<path fill="none" stroke="#63b8ff" d="M261.67,-248.65C234.55,-239.09 191.18,-223.8 156.86,-211.7"/>
<polygon fill="#63b8ff" stroke="#63b8ff" points="158.08,-208.43 147.49,-208.4 155.76,-215.03 158.08,-208.43"/>
</a>
</g>
</g>
<!-- Node24 -->
<g id="Node000024" class="node">
<title>Node24</title>
<g id="a_Node000024"><a xlink:href="formatters_8h_source.html" target="_top" xlink:title=" ">
<polygon fill="white" stroke="#666666" points="214.38,-141 80.62,-141 80.62,-121.75 214.38,-121.75 214.38,-141"/>
<text text-anchor="middle" x="147.5" y="-126.55" font-family="Helvetica,sans-Serif" font-size="11.00">floppy/detail/formatters.h</text>
</a>
</g>
</g>
<!-- Node21&#45;&gt;Node24 -->
<g id="edge27_Node000021_Node000024" class="edge">
<title>Node21&#45;&gt;Node24</title>
<g id="a_edge27_Node000021_Node000024"><a xlink:title=" ">
<path fill="none" stroke="#63b8ff" d="M272.96,-248.76C258.13,-239.3 234.75,-223.57 216.5,-207.5 196.03,-189.48 175.21,-165.94 161.88,-150.06"/>
<polygon fill="#63b8ff" stroke="#63b8ff" points="164.65,-147.91 155.57,-142.44 159.25,-152.37 164.65,-147.91"/>
</a>
</g>
</g>
<!-- Node27 -->
<g id="Node000027" class="node">
<title>Node27</title>
<g id="a_Node000027"><a xlink:href="memory_8h_source.html" target="_top" xlink:title=" ">
<polygon fill="white" stroke="#666666" points="349.12,-201.88 225.88,-201.88 225.88,-182.62 349.12,-182.62 349.12,-201.88"/>
<text text-anchor="middle" x="287.5" y="-187.43" font-family="Helvetica,sans-Serif" font-size="11.00">floppy/detail/memory.h</text>
</a>
</g>
</g>
<!-- Node21&#45;&gt;Node27 -->
<g id="edge32_Node000021_Node000027" class="edge">
<title>Node21&#45;&gt;Node27</title>
<g id="a_edge32_Node000021_Node000027"><a xlink:title=" ">
<path fill="none" stroke="#63b8ff" d="M287.5,-248.78C287.5,-239.73 287.5,-225.45 287.5,-213.63"/>
<polygon fill="#63b8ff" stroke="#63b8ff" points="291,-213.66 287.5,-203.66 284,-213.66 291,-213.66"/>
</a>
</g>
</g>
<!-- Node24&#45;&gt;Node10 -->
<g id="edge28_Node000024_Node000010" class="edge">
<title>Node24&#45;&gt;Node10</title>
<g id="a_edge28_Node000024_Node000010"><a xlink:title=" ">
<path fill="none" stroke="#63b8ff" d="M166.76,-121.3C187.19,-111.68 219.71,-96.37 243.29,-85.26"/>
<polygon fill="#63b8ff" stroke="#63b8ff" points="244.5,-88.56 252.06,-81.13 241.52,-82.22 244.5,-88.56"/>
</a>
</g>
</g>
<!-- Node24&#45;&gt;Node12 -->
<g id="edge31_Node000024_Node000012" class="edge">
<title>Node24&#45;&gt;Node12</title>
<g id="a_edge31_Node000024_Node000012"><a xlink:title=" ">
<path fill="none" stroke="#63b8ff" d="M155.18,-121.4C168.67,-106.07 198.11,-74.65 228.5,-55.25 249.63,-41.76 275.53,-30.95 296.78,-23.35"/>
<polygon fill="#63b8ff" stroke="#63b8ff" points="297.68,-26.75 305.99,-20.17 295.39,-20.13 297.68,-26.75"/>
</a>
</g>
</g>
<!-- Node25 -->
<g id="Node000025" class="node">
<title>Node25</title>
<g id="a_Node000025"><a xlink:title=" ">
<polygon fill="#e0e0e0" stroke="#999999" points="106.62,-80.12 52.38,-80.12 52.38,-60.88 106.62,-60.88 106.62,-80.12"/>
<text text-anchor="middle" x="79.5" y="-65.67" font-family="Helvetica,sans-Serif" font-size="11.00">sstream</text>
</a>
</g>
</g>
<!-- Node24&#45;&gt;Node25 -->
<g id="edge29_Node000024_Node000025" class="edge">
<title>Node24&#45;&gt;Node25</title>
<g id="a_edge29_Node000024_Node000025"><a xlink:title=" ">
<path fill="none" stroke="#63b8ff" d="M137.17,-121.43C126.89,-112.53 110.87,-98.66 98.32,-87.79"/>
<polygon fill="#63b8ff" stroke="#63b8ff" points="100.92,-85.42 91.07,-81.52 96.34,-90.71 100.92,-85.42"/>
</a>
</g>
</g>
<!-- Node26 -->
<g id="Node000026" class="node">
<title>Node26</title>
<g id="a_Node000026"><a xlink:title=" ">
<polygon fill="#e0e0e0" stroke="#999999" points="171.88,-80.12 125.12,-80.12 125.12,-60.88 171.88,-60.88 171.88,-80.12"/>
<text text-anchor="middle" x="148.5" y="-65.67" font-family="Helvetica,sans-Serif" font-size="11.00">iosfwd</text>
</a>
</g>
</g>
<!-- Node24&#45;&gt;Node26 -->
<g id="edge30_Node000024_Node000026" class="edge">
<title>Node24&#45;&gt;Node26</title>
<g id="a_edge30_Node000024_Node000026"><a xlink:title=" ">
<path fill="none" stroke="#63b8ff" d="M147.65,-121.43C147.78,-113.65 147.98,-102.08 148.15,-92.03"/>
<polygon fill="#63b8ff" stroke="#63b8ff" points="151.65,-92.1 148.32,-82.04 144.65,-91.98 151.65,-92.1"/>
</a>
</g>
</g>
<!-- Node27&#45;&gt;Node7 -->
<g id="edge34_Node000027_Node000007" class="edge">
<title>Node27&#45;&gt;Node7</title>
<g id="a_edge34_Node000027_Node000007"><a xlink:title=" ">
<path fill="none" stroke="#63b8ff" d="M322.16,-182.18C362.59,-171.6 429.31,-154.14 472.06,-142.96"/>
<polygon fill="#63b8ff" stroke="#63b8ff" points="472.92,-146.35 481.71,-140.43 471.15,-139.58 472.92,-146.35"/>
</a>
</g>
</g>
<!-- Node27&#45;&gt;Node8 -->
<g id="edge36_Node000027_Node000008" class="edge">
<title>Node27&#45;&gt;Node8</title>
<g id="a_edge36_Node000027_Node000008"><a xlink:title=" ">
<path fill="none" stroke="#63b8ff" d="M299.95,-182.31C312.6,-173.23 332.43,-158.99 347.69,-148.04"/>
<polygon fill="#63b8ff" stroke="#63b8ff" points="349.62,-150.96 355.7,-142.28 345.53,-145.27 349.62,-150.96"/>
</a>
</g>
</g>
<!-- Node27&#45;&gt;Node22 -->
<g id="edge33_Node000027_Node000022" class="edge">
<title>Node27&#45;&gt;Node22</title>
<g id="a_edge33_Node000027_Node000022"><a xlink:title=" ">
<path fill="none" stroke="#63b8ff" d="M247.44,-182.18C198.12,-171.01 114.92,-152.17 66.22,-141.14"/>
<polygon fill="#63b8ff" stroke="#63b8ff" points="67.21,-137.78 56.69,-138.98 65.67,-144.61 67.21,-137.78"/>
</a>
</g>
</g>
<!-- Node27&#45;&gt;Node24 -->
<g id="edge37_Node000027_Node000024" class="edge">
<title>Node27&#45;&gt;Node24</title>
<g id="a_edge37_Node000027_Node000024"><a xlink:title=" ">
<path fill="none" stroke="#63b8ff" d="M265.93,-182.18C242.74,-172.43 205.64,-156.83 179.15,-145.68"/>
<polygon fill="#63b8ff" stroke="#63b8ff" points="180.83,-142.6 170.26,-141.95 178.12,-149.05 180.83,-142.6"/>
</a>
</g>
</g>
<!-- Node28 -->
<g id="Node000028" class="node">
<title>Node28</title>
<g id="a_Node000028"><a xlink:title=" ">
<polygon fill="#e0e0e0" stroke="#999999" points="294.38,-141 232.62,-141 232.62,-121.75 294.38,-121.75 294.38,-141"/>
<text text-anchor="middle" x="263.5" y="-126.55" font-family="Helvetica,sans-Serif" font-size="11.00">stdexcept</text>
</a>
</g>
</g>
<!-- Node27&#45;&gt;Node28 -->
<g id="edge35_Node000027_Node000028" class="edge">
<title>Node27&#45;&gt;Node28</title>
<g id="a_edge35_Node000027_Node000028"><a xlink:title=" ">
<path fill="none" stroke="#63b8ff" d="M283.85,-182.31C280.58,-174.27 275.65,-162.18 271.46,-151.91"/>
<polygon fill="#63b8ff" stroke="#63b8ff" points="274.77,-150.74 267.75,-142.8 268.28,-153.38 274.77,-150.74"/>
</a>
</g>
</g>
<!-- Node29&#45;&gt;Node3 -->
<g id="edge39_Node000029_Node000003" class="edge">
<title>Node29&#45;&gt;Node3</title>
<g id="a_edge39_Node000029_Node000003"><a xlink:title=" ">
<path fill="none" stroke="#63b8ff" d="M644.2,-243.11C638.23,-233.73 630.45,-221.49 624.09,-211.48"/>
<polygon fill="#63b8ff" stroke="#63b8ff" points="627.24,-209.91 618.92,-203.35 621.33,-213.67 627.24,-209.91"/>
</a>
</g>
</g>
<!-- Node29&#45;&gt;Node13 -->
<g id="edge40_Node000029_Node000013" class="edge">
<title>Node29&#45;&gt;Node13</title>
<g id="a_edge40_Node000029_Node000013"><a xlink:title=" ">
<path fill="none" stroke="#63b8ff" d="M673.1,-243.12C704.95,-219.36 767.66,-172.55 800.43,-148.1"/>
<polygon fill="#63b8ff" stroke="#63b8ff" points="802.44,-150.97 808.36,-142.18 798.25,-145.36 802.44,-150.97"/>
</a>
</g>
</g>
</g>
</svg>
