<?xml version="1.0" encoding="UTF-8" standalone="no"?>
<!DOCTYPE svg PUBLIC "-//W3C//DTD SVG 1.1//EN"
 "http://www.w3.org/Graphics/SVG/1.1/DTD/svg11.dtd">
<!-- Generated by graphviz version 10.0.1 (0)
 -->
<!-- Title: length.h Pages: 1 -->
<!--zoomable 514 -->

<svg id="main" version="1.1" xmlns="http://www.w3.org/2000/svg" xmlns:xlink="http://www.w3.org/1999/xlink" xml:space="preserve" onload="init(evt)">
<style type="text/css"><![CDATA[
.node, .edge {opacity: 0.7;}
.node.selected, .edge.selected {opacity: 1;}
.edge:hover path { stroke: red; }
.edge:hover polygon { stroke: red; fill: red; }
]]></style>

<defs>
  <circle id="rim" cx="0" cy="0" r="7"/>
  <circle id="rim2" cx="0" cy="0" r="3.5"/>
  <g id="zoomPlus">
    <use xlink:href="#rim" fill="#404040"><set attributeName="fill" to="#808080" begin="zoomplus.mouseover" end="zoomplus.mouseout"/></use>
    <path d="M-4,0h8M0,-4v8" fill="none" stroke="white" stroke-width="1.5" pointer-events="none"/>
  </g>
  <g id="zoomMin">
    <use xlink:href="#rim" fill="#404040"><set attributeName="fill" to="#808080" begin="zoomminus.mouseover" end="zoomminus.mouseout"/></use>
    <path d="M-4,0h8" fill="none" stroke="white" stroke-width="1.5" pointer-events="none"/>
  </g>
  <g id="arrowUp" transform="translate(30 24)">
    <use xlink:href="#rim"/>
    <path pointer-events="none" fill="none" stroke="white" stroke-width="1.5" d="M0,-3.0v7 M-2.5,-0.5L0,-3.0L2.5,-0.5"/>
  </g>
  <g id="arrowRight" transform="rotate(90) translate(36 -43)">
    <use xlink:href="#rim"/>
    <path pointer-events="none" fill="none" stroke="white" stroke-width="1.5" d="M0,-3.0v7 M-2.5,-0.5L0,-3.0L2.5,-0.5"/>
  </g>
  <g id="arrowDown" transform="rotate(180) translate(-30 -48)">
    <use xlink:href="#rim"/>
    <path pointer-events="none" fill="none" stroke="white" stroke-width="1.5" d="M0,-3.0v7 M-2.5,-0.5L0,-3.0L2.5,-0.5"/>
  </g>
  <g id="arrowLeft" transform="rotate(270) translate(-36 17)">
    <use xlink:href="#rim"/>
    <path pointer-events="none" fill="none" stroke="white" stroke-width="1.5" d="M0,-3.0v7 M-2.5,-0.5L0,-3.0L2.5,-0.5"/>
  </g>
  <g id="resetDef">
    <use xlink:href="#rim2" fill="#404040"><set attributeName="fill" to="#808080" begin="reset.mouseover" end="reset.mouseout"/></use>
  </g>
</defs>
<script type="application/ecmascript">
var viewWidth = 1389;
var viewHeight = 514;
var sectionId = 'dynsection-0';
</script>
<script type="application/ecmascript" xlink:href="svg.min.js"/>
<svg id="graph" class="graph">
<g id="viewport">
<title>length.h</title>
<!-- Node1 -->
<g id="Node000001" class="node">
<title>Node1</title>
<g id="a_Node000001"><a xlink:title="A one&#45;dimensional distance with associated unit of measurement.">
<polygon fill="#999999" stroke="#666666" points="1242.62,-506.25 1188.38,-506.25 1188.38,-487 1242.62,-487 1242.62,-506.25"/>
<text text-anchor="middle" x="1215.5" y="-491.8" font-family="Helvetica,sans-Serif" font-size="11.00">length.h</text>
</a>
</g>
</g>
<!-- Node2 -->
<g id="Node000002" class="node">
<title>Node2</title>
<g id="a_Node000002"><a xlink:href="scale_8h.html" target="_top" xlink:title="A scaling factor between two different units of measurement.">
<polygon fill="white" stroke="#666666" points="1352.5,-451 1240.5,-451 1240.5,-431.75 1352.5,-431.75 1352.5,-451"/>
<text text-anchor="middle" x="1296.5" y="-436.55" font-family="Helvetica,sans-Serif" font-size="11.00">floppy/euclid/scale.h</text>
</a>
</g>
</g>
<!-- Node1&#45;&gt;Node2 -->
<g id="edge1_Node000001_Node000002" class="edge">
<title>Node1&#45;&gt;Node2</title>
<g id="a_edge1_Node000001_Node000002"><a xlink:title=" ">
<path fill="none" stroke="#63b8ff" d="M1229.24,-486.59C1241.23,-478.71 1258.87,-467.11 1273.08,-457.77"/>
<polygon fill="#63b8ff" stroke="#63b8ff" points="1274.99,-460.7 1281.43,-452.28 1271.15,-454.85 1274.99,-460.7"/>
</a>
</g>
</g>
<!-- Node39 -->
<g id="Node000039" class="node">
<title>Node39</title>
<g id="a_Node000039"><a xlink:href="nt__traits_8h.html" target="_top" xlink:title=" ">
<polygon fill="white" stroke="#666666" points="1315.38,-274 1211.62,-274 1211.62,-243.5 1315.38,-243.5 1315.38,-274"/>
<text text-anchor="start" x="1219.62" y="-259.55" font-family="Helvetica,sans-Serif" font-size="11.00">floppy/euclid/detail</text>
<text text-anchor="middle" x="1263.5" y="-248.3" font-family="Helvetica,sans-Serif" font-size="11.00">/nt_traits.h</text>
</a>
</g>
</g>
<!-- Node1&#45;&gt;Node39 -->
<g id="edge69_Node000001_Node000039" class="edge">
<title>Node1&#45;&gt;Node39</title>
<g id="a_edge69_Node000001_Node000039"><a xlink:title=" ">
<path fill="none" stroke="#63b8ff" d="M1209.51,-486.81C1191.35,-458.9 1140.25,-370.73 1175.5,-310 1183.03,-297.03 1195.31,-287.12 1208.33,-279.68"/>
<polygon fill="#63b8ff" stroke="#63b8ff" points="1209.77,-282.87 1217.03,-275.16 1206.54,-276.66 1209.77,-282.87"/>
</a>
</g>
</g>
<!-- Node3 -->
<g id="Node000003" class="node">
<title>Node3</title>
<g id="a_Node000003"><a xlink:href="math_8h_source.html" target="_top" xlink:title=" ">
<polygon fill="white" stroke="#666666" points="1283,-201.88 1174,-201.88 1174,-182.62 1283,-182.62 1283,-201.88"/>
<text text-anchor="middle" x="1228.5" y="-187.43" font-family="Helvetica,sans-Serif" font-size="11.00">floppy/detail/math.h</text>
</a>
</g>
</g>
<!-- Node2&#45;&gt;Node3 -->
<g id="edge2_Node000002_Node000003" class="edge">
<title>Node2&#45;&gt;Node3</title>
<g id="a_edge2_Node000002_Node000003"><a xlink:title=" ">
<path fill="none" stroke="#63b8ff" d="M1307.53,-431.38C1316.75,-423.16 1329.35,-410.13 1335.5,-395.75 1362.18,-333.38 1366.22,-297 1324.5,-243.5 1310.99,-226.18 1289.84,-214.21 1270.83,-206.31"/>
<polygon fill="#63b8ff" stroke="#63b8ff" points="1272.25,-203.11 1261.66,-202.77 1269.73,-209.64 1272.25,-203.11"/>
</a>
</g>
</g>
<!-- Node22 -->
<g id="Node000022" class="node">
<title>Node22</title>
<g id="a_Node000022"><a xlink:href="traits_8h_source.html" target="_top" xlink:title=" ">
<polygon fill="white" stroke="#666666" points="1302.38,-395.75 1222.62,-395.75 1222.62,-376.5 1302.38,-376.5 1302.38,-395.75"/>
<text text-anchor="middle" x="1262.5" y="-381.3" font-family="Helvetica,sans-Serif" font-size="11.00">floppy/traits.h</text>
</a>
</g>
</g>
<!-- Node2&#45;&gt;Node22 -->
<g id="edge23_Node000002_Node000022" class="edge">
<title>Node2&#45;&gt;Node22</title>
<g id="a_edge23_Node000002_Node000022"><a xlink:title=" ">
<path fill="none" stroke="#63b8ff" d="M1290.89,-431.58C1286.38,-424.53 1279.91,-414.4 1274.29,-405.58"/>
<polygon fill="#63b8ff" stroke="#63b8ff" points="1277.38,-403.93 1269.05,-397.38 1271.48,-407.7 1277.38,-403.93"/>
</a>
</g>
</g>
<!-- Node2&#45;&gt;Node39 -->
<g id="edge66_Node000002_Node000039" class="edge">
<title>Node2&#45;&gt;Node39</title>
<g id="a_edge66_Node000002_Node000039"><a xlink:title=" ">
<path fill="none" stroke="#63b8ff" d="M1302.05,-431.39C1314.74,-409.58 1343.35,-352.52 1323.5,-310 1318.13,-298.5 1308.69,-288.7 1298.87,-280.9"/>
<polygon fill="#63b8ff" stroke="#63b8ff" points="1301.2,-278.27 1291.07,-275.19 1297.07,-283.92 1301.2,-278.27"/>
</a>
</g>
</g>
<!-- Node4 -->
<g id="Node000004" class="node">
<title>Node4</title>
<g id="a_Node000004"><a xlink:title=" ">
<polygon fill="#e0e0e0" stroke="#999999" points="1276.12,-141 1230.88,-141 1230.88,-121.75 1276.12,-121.75 1276.12,-141"/>
<text text-anchor="middle" x="1253.5" y="-126.55" font-family="Helvetica,sans-Serif" font-size="11.00">cmath</text>
</a>
</g>
</g>
<!-- Node3&#45;&gt;Node4 -->
<g id="edge3_Node000003_Node000004" class="edge">
<title>Node3&#45;&gt;Node4</title>
<g id="a_edge3_Node000003_Node000004"><a xlink:title=" ">
<path fill="none" stroke="#63b8ff" d="M1232.3,-182.31C1235.71,-174.27 1240.84,-162.18 1245.21,-151.91"/>
<polygon fill="#63b8ff" stroke="#63b8ff" points="1248.39,-153.37 1249.08,-142.79 1241.95,-150.63 1248.39,-153.37"/>
</a>
</g>
</g>
<!-- Node5 -->
<g id="Node000005" class="node">
<title>Node5</title>
<g id="a_Node000005"><a xlink:title=" ">
<polygon fill="#e0e0e0" stroke="#999999" points="749.5,-80.12 709.5,-80.12 709.5,-60.88 749.5,-60.88 749.5,-80.12"/>
<text text-anchor="middle" x="729.5" y="-65.67" font-family="Helvetica,sans-Serif" font-size="11.00">limits</text>
</a>
</g>
</g>
<!-- Node3&#45;&gt;Node5 -->
<g id="edge4_Node000003_Node000005" class="edge">
<title>Node3&#45;&gt;Node5</title>
<g id="a_edge4_Node000003_Node000005"><a xlink:title=" ">
<path fill="none" stroke="#63b8ff" d="M1212.38,-182.27C1184.3,-167.07 1124.18,-136.51 1069.5,-121.75 935.16,-85.49 891.99,-125 758.5,-85.75 757.53,-85.47 756.56,-85.15 755.59,-84.81"/>
<polygon fill="#63b8ff" stroke="#63b8ff" points="757.33,-81.75 746.76,-81.09 754.61,-88.2 757.33,-81.75"/>
</a>
</g>
</g>
<!-- Node6 -->
<g id="Node000006" class="node">
<title>Node6</title>
<g id="a_Node000006"><a xlink:title=" ">
<polygon fill="#e0e0e0" stroke="#999999" points="1352.5,-141 1294.5,-141 1294.5,-121.75 1352.5,-121.75 1352.5,-141"/>
<text text-anchor="middle" x="1323.5" y="-126.55" font-family="Helvetica,sans-Serif" font-size="11.00">numbers</text>
</a>
</g>
</g>
<!-- Node3&#45;&gt;Node6 -->
<g id="edge5_Node000003_Node000006" class="edge">
<title>Node3&#45;&gt;Node6</title>
<g id="a_edge5_Node000003_Node000006"><a xlink:title=" ">
<path fill="none" stroke="#63b8ff" d="M1242.93,-182.31C1257.85,-173.06 1281.43,-158.45 1299.23,-147.42"/>
<polygon fill="#63b8ff" stroke="#63b8ff" points="1300.99,-150.44 1307.65,-142.2 1297.31,-144.49 1300.99,-150.44"/>
</a>
</g>
</g>
<!-- Node7 -->
<g id="Node000007" class="node">
<title>Node7</title>
<g id="a_Node000007"><a xlink:title=" ">
<polygon fill="#e0e0e0" stroke="#999999" points="1060.5,-141 1002.5,-141 1002.5,-121.75 1060.5,-121.75 1060.5,-141"/>
<text text-anchor="middle" x="1031.5" y="-126.55" font-family="Helvetica,sans-Serif" font-size="11.00">compare</text>
</a>
</g>
</g>
<!-- Node3&#45;&gt;Node7 -->
<g id="edge6_Node000003_Node000007" class="edge">
<title>Node3&#45;&gt;Node7</title>
<g id="a_edge6_Node000003_Node000007"><a xlink:title=" ">
<path fill="none" stroke="#63b8ff" d="M1198.15,-182.18C1164.31,-172.07 1109.41,-155.66 1071.94,-144.46"/>
<polygon fill="#63b8ff" stroke="#63b8ff" points="1072.95,-141.11 1062.37,-141.6 1070.95,-147.82 1072.95,-141.11"/>
</a>
</g>
</g>
<!-- Node8 -->
<g id="Node000008" class="node">
<title>Node8</title>
<g id="a_Node000008"><a xlink:href="export_8h_source.html" target="_top" xlink:title=" ">
<polygon fill="white" stroke="#666666" points="1110,-80.12 995,-80.12 995,-60.88 1110,-60.88 1110,-80.12"/>
<text text-anchor="middle" x="1052.5" y="-65.67" font-family="Helvetica,sans-Serif" font-size="11.00">floppy/detail/export.h</text>
</a>
</g>
</g>
<!-- Node3&#45;&gt;Node8 -->
<g id="edge7_Node000003_Node000008" class="edge">
<title>Node3&#45;&gt;Node8</title>
<g id="a_edge7_Node000003_Node000008"><a xlink:title=" ">
<path fill="none" stroke="#63b8ff" d="M1224.22,-182.32C1216.81,-167.75 1200.28,-138.77 1178.5,-121.75 1155.87,-104.07 1126.21,-91.83 1101.35,-83.86"/>
<polygon fill="#63b8ff" stroke="#63b8ff" points="1102.7,-80.61 1092.11,-81.04 1100.65,-87.31 1102.7,-80.61"/>
</a>
</g>
</g>
<!-- Node13 -->
<g id="Node000013" class="node">
<title>Node13</title>
<g id="a_Node000013"><a xlink:href="concepts_8h_source.html" target="_top" xlink:title=" ">
<polygon fill="white" stroke="#666666" points="794.38,-141 666.62,-141 666.62,-121.75 794.38,-121.75 794.38,-141"/>
<text text-anchor="middle" x="730.5" y="-126.55" font-family="Helvetica,sans-Serif" font-size="11.00">floppy/detail/concepts.h</text>
</a>
</g>
</g>
<!-- Node3&#45;&gt;Node13 -->
<g id="edge12_Node000003_Node000013" class="edge">
<title>Node3&#45;&gt;Node13</title>
<g id="a_edge12_Node000003_Node000013"><a xlink:title=" ">
<path fill="none" stroke="#63b8ff" d="M1173.78,-184.78C1084.49,-174.22 907.29,-153.28 806.07,-141.31"/>
<polygon fill="#63b8ff" stroke="#63b8ff" points="806.55,-137.84 796.21,-140.14 805.73,-144.79 806.55,-137.84"/>
</a>
</g>
</g>
<!-- Node9 -->
<g id="Node000009" class="node">
<title>Node9</title>
<g id="a_Node000009"><a xlink:title=" ">
<polygon fill="#e0e0e0" stroke="#999999" points="1073.62,-19.25 1031.38,-19.25 1031.38,0 1073.62,0 1073.62,-19.25"/>
<text text-anchor="middle" x="1052.5" y="-4.8" font-family="Helvetica,sans-Serif" font-size="11.00">string</text>
</a>
</g>
</g>
<!-- Node8&#45;&gt;Node9 -->
<g id="edge8_Node000008_Node000009" class="edge">
<title>Node8&#45;&gt;Node9</title>
<g id="a_edge8_Node000008_Node000009"><a xlink:title=" ">
<path fill="none" stroke="#63b8ff" d="M1052.5,-60.56C1052.5,-52.78 1052.5,-41.2 1052.5,-31.16"/>
<polygon fill="#63b8ff" stroke="#63b8ff" points="1056,-31.16 1052.5,-21.16 1049,-31.16 1056,-31.16"/>
</a>
</g>
</g>
<!-- Node10 -->
<g id="Node000010" class="node">
<title>Node10</title>
<g id="a_Node000010"><a xlink:title=" ">
<polygon fill="#e0e0e0" stroke="#999999" points="975.5,-19.25 905.5,-19.25 905.5,0 975.5,0 975.5,-19.25"/>
<text text-anchor="middle" x="940.5" y="-4.8" font-family="Helvetica,sans-Serif" font-size="11.00">string_view</text>
</a>
</g>
</g>
<!-- Node8&#45;&gt;Node10 -->
<g id="edge9_Node000008_Node000010" class="edge">
<title>Node8&#45;&gt;Node10</title>
<g id="a_edge9_Node000008_Node000010"><a xlink:title=" ">
<path fill="none" stroke="#63b8ff" d="M1035.49,-60.56C1017.48,-51.09 988.79,-36.01 967.65,-24.9"/>
<polygon fill="#63b8ff" stroke="#63b8ff" points="969.49,-21.91 959.01,-20.36 966.23,-28.11 969.49,-21.91"/>
</a>
</g>
</g>
<!-- Node11 -->
<g id="Node000011" class="node">
<title>Node11</title>
<g id="a_Node000011"><a xlink:title=" ">
<polygon fill="#e0e0e0" stroke="#999999" points="1279.12,-19.25 1221.88,-19.25 1221.88,0 1279.12,0 1279.12,-19.25"/>
<text text-anchor="middle" x="1250.5" y="-4.8" font-family="Helvetica,sans-Serif" font-size="11.00">iostream</text>
</a>
</g>
</g>
<!-- Node8&#45;&gt;Node11 -->
<g id="edge10_Node000008_Node000011" class="edge">
<title>Node8&#45;&gt;Node11</title>
<g id="a_edge10_Node000008_Node000011"><a xlink:title=" ">
<path fill="none" stroke="#63b8ff" d="M1083,-60.43C1117.36,-50.21 1173.31,-33.58 1210.99,-22.37"/>
<polygon fill="#63b8ff" stroke="#63b8ff" points="1211.53,-25.86 1220.12,-19.66 1209.54,-19.15 1211.53,-25.86"/>
</a>
</g>
</g>
<!-- Node12 -->
<g id="Node000012" class="node">
<title>Node12</title>
<g id="a_Node000012"><a xlink:title=" ">
<polygon fill="#e0e0e0" stroke="#999999" points="276.38,-19.25 202.62,-19.25 202.62,0 276.38,0 276.38,-19.25"/>
<text text-anchor="middle" x="239.5" y="-4.8" font-family="Helvetica,sans-Serif" font-size="11.00">fmt/format.h</text>
</a>
</g>
</g>
<!-- Node8&#45;&gt;Node12 -->
<g id="edge11_Node000008_Node000012" class="edge">
<title>Node8&#45;&gt;Node12</title>
<g id="a_edge11_Node000008_Node000012"><a xlink:title=" ">
<path fill="none" stroke="#63b8ff" d="M994.58,-60.71C979.9,-58.7 964.14,-56.72 949.5,-55.25 701.19,-30.31 402.54,-16.94 287.71,-12.41"/>
<polygon fill="#63b8ff" stroke="#63b8ff" points="288.18,-8.93 278.05,-12.04 287.9,-15.92 288.18,-8.93"/>
</a>
</g>
</g>
<!-- Node14 -->
<g id="Node000014" class="node">
<title>Node14</title>
<g id="a_Node000014"><a xlink:title=" ">
<polygon fill="#e0e0e0" stroke="#999999" points="940.88,-80.12 882.12,-80.12 882.12,-60.88 940.88,-60.88 940.88,-80.12"/>
<text text-anchor="middle" x="911.5" y="-65.67" font-family="Helvetica,sans-Serif" font-size="11.00">concepts</text>
</a>
</g>
</g>
<!-- Node13&#45;&gt;Node14 -->
<g id="edge13_Node000013_Node000014" class="edge">
<title>Node13&#45;&gt;Node14</title>
<g id="a_edge13_Node000013_Node000014"><a xlink:title=" ">
<path fill="none" stroke="#63b8ff" d="M760.82,-121.29C789.66,-112.54 834.21,-98.76 872.5,-85.75 873.84,-85.29 875.21,-84.82 876.59,-84.34"/>
<polygon fill="#63b8ff" stroke="#63b8ff" points="877.54,-87.72 885.79,-81.07 875.2,-81.12 877.54,-87.72"/>
</a>
</g>
</g>
<!-- Node15 -->
<g id="Node000015" class="node">
<title>Node15</title>
<g id="a_Node000015"><a xlink:href="type__traits_8h_source.html" target="_top" xlink:title=" ">
<polygon fill="white" stroke="#666666" points="863.62,-85.75 767.38,-85.75 767.38,-55.25 863.62,-55.25 863.62,-85.75"/>
<text text-anchor="start" x="775.38" y="-71.3" font-family="Helvetica,sans-Serif" font-size="11.00">floppy/detail/type</text>
<text text-anchor="middle" x="815.5" y="-60.05" font-family="Helvetica,sans-Serif" font-size="11.00">_traits.h</text>
</a>
</g>
</g>
<!-- Node13&#45;&gt;Node15 -->
<g id="edge14_Node000013_Node000015" class="edge">
<title>Node13&#45;&gt;Node15</title>
<g id="a_edge14_Node000013_Node000015"><a xlink:title=" ">
<path fill="none" stroke="#63b8ff" d="M743.41,-121.43C754.53,-113.73 771.03,-102.3 785.43,-92.33"/>
<polygon fill="#63b8ff" stroke="#63b8ff" points="787.05,-95.47 793.28,-86.89 783.06,-89.71 787.05,-95.47"/>
</a>
</g>
</g>
<!-- Node17 -->
<g id="Node000017" class="node">
<title>Node17</title>
<g id="a_Node000017"><a xlink:href="types_8h_source.html" target="_top" xlink:title=" ">
<polygon fill="white" stroke="#666666" points="653.75,-80.12 543.25,-80.12 543.25,-60.88 653.75,-60.88 653.75,-80.12"/>
<text text-anchor="middle" x="598.5" y="-65.67" font-family="Helvetica,sans-Serif" font-size="11.00">floppy/detail/types.h</text>
</a>
</g>
</g>
<!-- Node13&#45;&gt;Node17 -->
<g id="edge16_Node000013_Node000017" class="edge">
<title>Node13&#45;&gt;Node17</title>
<g id="a_edge16_Node000013_Node000017"><a xlink:title=" ">
<path fill="none" stroke="#63b8ff" d="M710.16,-121.3C688.49,-111.64 653.94,-96.23 629.01,-85.11"/>
<polygon fill="#63b8ff" stroke="#63b8ff" points="630.58,-81.98 620.02,-81.1 627.73,-88.37 630.58,-81.98"/>
</a>
</g>
</g>
<!-- Node16 -->
<g id="Node000016" class="node">
<title>Node16</title>
<g id="a_Node000016"><a xlink:title=" ">
<polygon fill="#e0e0e0" stroke="#999999" points="822.25,-19.25 756.75,-19.25 756.75,0 822.25,0 822.25,-19.25"/>
<text text-anchor="middle" x="789.5" y="-4.8" font-family="Helvetica,sans-Serif" font-size="11.00">type_traits</text>
</a>
</g>
</g>
<!-- Node15&#45;&gt;Node16 -->
<g id="edge15_Node000015_Node000016" class="edge">
<title>Node15&#45;&gt;Node16</title>
<g id="a_edge15_Node000015_Node000016"><a xlink:title=" ">
<path fill="none" stroke="#63b8ff" d="M809.07,-54.95C805.76,-47.45 801.68,-38.2 798.1,-30.1"/>
<polygon fill="#63b8ff" stroke="#63b8ff" points="801.36,-28.82 794.12,-21.09 794.96,-31.65 801.36,-28.82"/>
</a>
</g>
</g>
<!-- Node17&#45;&gt;Node12 -->
<g id="edge21_Node000017_Node000012" class="edge">
<title>Node17&#45;&gt;Node12</title>
<g id="a_edge21_Node000017_Node000012"><a xlink:title=" ">
<path fill="none" stroke="#63b8ff" d="M559.67,-60.4C551.38,-58.59 542.67,-56.78 534.5,-55.25 447.86,-39.07 346.07,-24.68 287.54,-16.86"/>
<polygon fill="#63b8ff" stroke="#63b8ff" points="288.3,-13.43 277.93,-15.58 287.38,-20.37 288.3,-13.43"/>
</a>
</g>
</g>
<!-- Node17&#45;&gt;Node16 -->
<g id="edge20_Node000017_Node000016" class="edge">
<title>Node17&#45;&gt;Node16</title>
<g id="a_edge20_Node000017_Node000016"><a xlink:title=" ">
<path fill="none" stroke="#63b8ff" d="M627.93,-60.43C660.45,-50.4 713.04,-34.19 749.34,-23"/>
<polygon fill="#63b8ff" stroke="#63b8ff" points="750.07,-26.44 758.6,-20.15 748.01,-19.75 750.07,-26.44"/>
</a>
</g>
</g>
<!-- Node18 -->
<g id="Node000018" class="node">
<title>Node18</title>
<g id="a_Node000018"><a xlink:title=" ">
<polygon fill="#e0e0e0" stroke="#999999" points="711.75,-19.25 661.25,-19.25 661.25,0 711.75,0 711.75,-19.25"/>
<text text-anchor="middle" x="686.5" y="-4.8" font-family="Helvetica,sans-Serif" font-size="11.00">cstddef</text>
</a>
</g>
</g>
<!-- Node17&#45;&gt;Node18 -->
<g id="edge17_Node000017_Node000018" class="edge">
<title>Node17&#45;&gt;Node18</title>
<g id="a_edge17_Node000017_Node000018"><a xlink:title=" ">
<path fill="none" stroke="#63b8ff" d="M611.87,-60.56C625.56,-51.39 647.12,-36.97 663.56,-25.98"/>
<polygon fill="#63b8ff" stroke="#63b8ff" points="665.39,-28.96 671.75,-20.49 661.49,-23.14 665.39,-28.96"/>
</a>
</g>
</g>
<!-- Node19 -->
<g id="Node000019" class="node">
<title>Node19</title>
<g id="a_Node000019"><a xlink:title=" ">
<polygon fill="#e0e0e0" stroke="#999999" points="166.88,-19.25 120.12,-19.25 120.12,0 166.88,0 166.88,-19.25"/>
<text text-anchor="middle" x="143.5" y="-4.8" font-family="Helvetica,sans-Serif" font-size="11.00">cstdint</text>
</a>
</g>
</g>
<!-- Node17&#45;&gt;Node19 -->
<g id="edge18_Node000017_Node000019" class="edge">
<title>Node17&#45;&gt;Node19</title>
<g id="a_edge18_Node000017_Node000019"><a xlink:title=" ">
<path fill="none" stroke="#63b8ff" d="M561.07,-60.42C552.39,-58.52 543.15,-56.66 534.5,-55.25 384.1,-30.65 344.45,-40.21 193.5,-19.25 188.69,-18.58 183.63,-17.8 178.66,-16.99"/>
<polygon fill="#63b8ff" stroke="#63b8ff" points="179.29,-13.55 168.85,-15.32 178.12,-20.45 179.29,-13.55"/>
</a>
</g>
</g>
<!-- Node20 -->
<g id="Node000020" class="node">
<title>Node20</title>
<g id="a_Node000020"><a xlink:title=" ">
<polygon fill="#e0e0e0" stroke="#999999" points="536.25,-19.25 482.75,-19.25 482.75,0 536.25,0 536.25,-19.25"/>
<text text-anchor="middle" x="509.5" y="-4.8" font-family="Helvetica,sans-Serif" font-size="11.00">optional</text>
</a>
</g>
</g>
<!-- Node17&#45;&gt;Node20 -->
<g id="edge19_Node000017_Node000020" class="edge">
<title>Node17&#45;&gt;Node20</title>
<g id="a_edge19_Node000017_Node000020"><a xlink:title=" ">
<path fill="none" stroke="#63b8ff" d="M584.98,-60.56C571.13,-51.39 549.32,-36.97 532.7,-25.98"/>
<polygon fill="#63b8ff" stroke="#63b8ff" points="534.68,-23.08 524.41,-20.49 530.82,-28.92 534.68,-23.08"/>
</a>
</g>
</g>
<!-- Node21 -->
<g id="Node000021" class="node">
<title>Node21</title>
<g id="a_Node000021"><a xlink:title=" ">
<polygon fill="#e0e0e0" stroke="#999999" points="642.88,-19.25 554.12,-19.25 554.12,0 642.88,0 642.88,-19.25"/>
<text text-anchor="middle" x="598.5" y="-4.8" font-family="Helvetica,sans-Serif" font-size="11.00">tl/expected.hpp</text>
</a>
</g>
</g>
<!-- Node17&#45;&gt;Node21 -->
<g id="edge22_Node000017_Node000021" class="edge">
<title>Node17&#45;&gt;Node21</title>
<g id="a_edge22_Node000017_Node000021"><a xlink:title=" ">
<path fill="none" stroke="#63b8ff" d="M598.5,-60.56C598.5,-52.78 598.5,-41.2 598.5,-31.16"/>
<polygon fill="#63b8ff" stroke="#63b8ff" points="602,-31.16 598.5,-21.16 595,-31.16 602,-31.16"/>
</a>
</g>
</g>
<!-- Node22&#45;&gt;Node11 -->
<g id="edge24_Node000022_Node000011" class="edge">
<title>Node22&#45;&gt;Node11</title>
<g id="a_edge24_Node000022_Node000011"><a xlink:title=" ">
<path fill="none" stroke="#63b8ff" d="M1281.46,-376.02C1314.81,-358.53 1380.5,-316.84 1380.5,-259.75 1380.5,-259.75 1380.5,-259.75 1380.5,-130.38 1380.5,-78.06 1322.85,-42.32 1284.34,-24.28"/>
<polygon fill="#63b8ff" stroke="#63b8ff" points="1285.98,-21.18 1275.42,-20.28 1283.11,-27.56 1285.98,-21.18"/>
</a>
</g>
</g>
<!-- Node23 -->
<g id="Node000023" class="node">
<title>Node23</title>
<g id="a_Node000023"><a xlink:title=" ">
<polygon fill="#e0e0e0" stroke="#999999" points="1314.12,-340.5 1184.88,-340.5 1184.88,-310 1314.12,-310 1314.12,-340.5"/>
<text text-anchor="start" x="1192.88" y="-326.05" font-family="Helvetica,sans-Serif" font-size="11.00">experimental/propagate</text>
<text text-anchor="middle" x="1249.5" y="-314.8" font-family="Helvetica,sans-Serif" font-size="11.00">_const</text>
</a>
</g>
</g>
<!-- Node22&#45;&gt;Node23 -->
<g id="edge25_Node000022_Node000023" class="edge">
<title>Node22&#45;&gt;Node23</title>
<g id="a_edge25_Node000022_Node000023"><a xlink:title=" ">
<path fill="none" stroke="#63b8ff" d="M1260.53,-376.18C1259.1,-369.73 1257.1,-360.66 1255.19,-352.01"/>
<polygon fill="#63b8ff" stroke="#63b8ff" points="1258.61,-351.27 1253.04,-342.26 1251.77,-352.78 1258.61,-351.27"/>
</a>
</g>
</g>
<!-- Node24 -->
<g id="Node000024" class="node">
<title>Node24</title>
<g id="a_Node000024"><a xlink:href="floppy_8h_source.html" target="_top" xlink:title=" ">
<polygon fill="white" stroke="#666666" points="605,-334.88 520,-334.88 520,-315.62 605,-315.62 605,-334.88"/>
<text text-anchor="middle" x="562.5" y="-320.43" font-family="Helvetica,sans-Serif" font-size="11.00">floppy/floppy.h</text>
</a>
</g>
</g>
<!-- Node22&#45;&gt;Node24 -->
<g id="edge26_Node000022_Node000024" class="edge">
<title>Node22&#45;&gt;Node24</title>
<g id="a_edge26_Node000022_Node000024"><a xlink:title=" ">
<path fill="none" stroke="#63b8ff" d="M1222.35,-381.75C1103.23,-371.73 751.68,-342.16 616.4,-330.78"/>
<polygon fill="#63b8ff" stroke="#63b8ff" points="616.9,-327.31 606.64,-329.96 616.31,-334.29 616.9,-327.31"/>
</a>
</g>
</g>
<!-- Node24&#45;&gt;Node3 -->
<g id="edge53_Node000024_Node000003" class="edge">
<title>Node24&#45;&gt;Node3</title>
<g id="a_edge53_Node000024_Node000003"><a xlink:title=" ">
<path fill="none" stroke="#63b8ff" d="M605.27,-324.8C725.27,-325.71 1062.67,-323.66 1159.5,-274 1186.23,-260.29 1206.89,-231.32 1218.37,-212.07"/>
<polygon fill="#63b8ff" stroke="#63b8ff" points="1221.28,-214.03 1223.17,-203.61 1215.19,-210.58 1221.28,-214.03"/>
</a>
</g>
</g>
<!-- Node24&#45;&gt;Node8 -->
<g id="edge51_Node000024_Node000008" class="edge">
<title>Node24&#45;&gt;Node8</title>
<g id="a_edge51_Node000024_Node000008"><a xlink:title=" ">
<path fill="none" stroke="#63b8ff" d="M605.5,-317.12C683.77,-303.12 853.59,-268.03 985.5,-207.5 1034.01,-185.24 1060.29,-188.04 1085.5,-141 1094.92,-123.42 1082.13,-102.71 1069.83,-88.5"/>
<polygon fill="#63b8ff" stroke="#63b8ff" points="1072.48,-86.21 1063.09,-81.3 1067.37,-90.99 1072.48,-86.21"/>
</a>
</g>
</g>
<!-- Node24&#45;&gt;Node13 -->
<g id="edge42_Node000024_Node000013" class="edge">
<title>Node24&#45;&gt;Node13</title>
<g id="a_edge42_Node000024_Node000013"><a xlink:title=" ">
<path fill="none" stroke="#63b8ff" d="M586.67,-315.16C606.3,-306.83 633.7,-292.91 652.5,-274 688.51,-237.78 712.73,-181.51 723.73,-151.99"/>
<polygon fill="#63b8ff" stroke="#63b8ff" points="726.93,-153.44 727.01,-142.85 720.34,-151.08 726.93,-153.44"/>
</a>
</g>
</g>
<!-- Node24&#45;&gt;Node15 -->
<g id="edge64_Node000024_Node000015" class="edge">
<title>Node24&#45;&gt;Node15</title>
<g id="a_edge64_Node000024_Node000015"><a xlink:title=" ">
<path fill="none" stroke="#63b8ff" d="M564.03,-315.45C569.94,-284.18 594.15,-177.32 657.5,-121.75 665.32,-114.89 714.7,-99.75 756.21,-87.87"/>
<polygon fill="#63b8ff" stroke="#63b8ff" points="756.99,-91.29 765.66,-85.19 755.08,-84.55 756.99,-91.29"/>
</a>
</g>
</g>
<!-- Node24&#45;&gt;Node17 -->
<g id="edge65_Node000024_Node000017" class="edge">
<title>Node24&#45;&gt;Node17</title>
<g id="a_edge65_Node000024_Node000017"><a xlink:title=" ">
<path fill="none" stroke="#63b8ff" d="M560.01,-315.22C553.28,-291.54 533.32,-226.14 505.5,-177 491.94,-153.04 462.22,-144.65 477.5,-121.75 486.68,-108 524.45,-93.66 555.38,-83.84"/>
<polygon fill="#63b8ff" stroke="#63b8ff" points="556.01,-87.31 564.53,-81.01 553.94,-80.62 556.01,-87.31"/>
</a>
</g>
</g>
<!-- Node25 -->
<g id="Node000025" class="node">
<title>Node25</title>
<g id="a_Node000025"><a xlink:href="backports_8h_source.html" target="_top" xlink:title=" ">
<polygon fill="white" stroke="#666666" points="424.62,-201.88 292.38,-201.88 292.38,-182.62 424.62,-182.62 424.62,-201.88"/>
<text text-anchor="middle" x="358.5" y="-187.43" font-family="Helvetica,sans-Serif" font-size="11.00">floppy/detail/backports.h</text>
</a>
</g>
</g>
<!-- Node24&#45;&gt;Node25 -->
<g id="edge27_Node000024_Node000025" class="edge">
<title>Node24&#45;&gt;Node25</title>
<g id="a_edge27_Node000024_Node000025"><a xlink:title=" ">
<path fill="none" stroke="#63b8ff" d="M519.65,-318.35C469.91,-310.61 392.16,-295.44 372.5,-274 357.65,-257.8 355.62,-231.76 356.35,-213.64"/>
<polygon fill="#63b8ff" stroke="#63b8ff" points="359.83,-214.09 357.08,-203.86 352.85,-213.57 359.83,-214.09"/>
</a>
</g>
</g>
<!-- Node27 -->
<g id="Node000027" class="node">
<title>Node27</title>
<g id="a_Node000027"><a xlink:href="platform_8h_source.html" target="_top" xlink:title=" ">
<polygon fill="white" stroke="#666666" points="610.5,-141 486.5,-141 486.5,-121.75 610.5,-121.75 610.5,-141"/>
<text text-anchor="middle" x="548.5" y="-126.55" font-family="Helvetica,sans-Serif" font-size="11.00">floppy/detail/platform.h</text>
</a>
</g>
</g>
<!-- Node24&#45;&gt;Node27 -->
<g id="edge61_Node000024_Node000027" class="edge">
<title>Node24&#45;&gt;Node27</title>
<g id="a_edge61_Node000024_Node000027"><a xlink:title=" ">
<path fill="none" stroke="#63b8ff" d="M561.84,-315.25C559.72,-286.1 552.98,-193.77 549.97,-152.57"/>
<polygon fill="#63b8ff" stroke="#63b8ff" points="553.47,-152.36 549.25,-142.64 546.49,-152.87 553.47,-152.36"/>
</a>
</g>
</g>
<!-- Node28 -->
<g id="Node000028" class="node">
<title>Node28</title>
<g id="a_Node000028"><a xlink:href="predefs_8h_source.html" target="_top" xlink:title=" ">
<polygon fill="white" stroke="#666666" points="453,-80.12 332,-80.12 332,-60.88 453,-60.88 453,-80.12"/>
<text text-anchor="middle" x="392.5" y="-65.67" font-family="Helvetica,sans-Serif" font-size="11.00">floppy/detail/predefs.h</text>
</a>
</g>
</g>
<!-- Node24&#45;&gt;Node28 -->
<g id="edge62_Node000024_Node000028" class="edge">
<title>Node24&#45;&gt;Node28</title>
<g id="a_edge62_Node000024_Node000028"><a xlink:title=" ">
<path fill="none" stroke="#63b8ff" d="M519.57,-320.16C455.1,-313.32 337.11,-297.91 302.5,-274 245.37,-234.53 239.44,-207.81 220.5,-141 218.17,-132.77 215.37,-128.6 220.5,-121.75 227.95,-111.81 293.04,-94.72 340.95,-83.26"/>
<polygon fill="#63b8ff" stroke="#63b8ff" points="341.71,-86.68 350.64,-80.97 340.1,-79.87 341.71,-86.68"/>
</a>
</g>
</g>
<!-- Node29 -->
<g id="Node000029" class="node">
<title>Node29</title>
<g id="a_Node000029"><a xlink:href="formatters_8h_source.html" target="_top" xlink:title=" ">
<polygon fill="white" stroke="#666666" points="363.38,-141 229.62,-141 229.62,-121.75 363.38,-121.75 363.38,-141"/>
<text text-anchor="middle" x="296.5" y="-126.55" font-family="Helvetica,sans-Serif" font-size="11.00">floppy/detail/formatters.h</text>
</a>
</g>
</g>
<!-- Node24&#45;&gt;Node29 -->
<g id="edge52_Node000024_Node000029" class="edge">
<title>Node24&#45;&gt;Node29</title>
<g id="a_edge52_Node000024_Node000029"><a xlink:title=" ">
<path fill="none" stroke="#63b8ff" d="M519.57,-320.36C475.83,-314.96 407.14,-302.41 354.5,-274 316.45,-253.47 300.7,-247.17 283.5,-207.5 275.7,-189.5 281.29,-167.16 287.38,-151.54"/>
<polygon fill="#63b8ff" stroke="#63b8ff" points="290.54,-153.04 291.32,-142.48 284.12,-150.25 290.54,-153.04"/>
</a>
</g>
</g>
<!-- Node32 -->
<g id="Node000032" class="node">
<title>Node32</title>
<g id="a_Node000032"><a xlink:href="corefn_8h_source.html" target="_top" xlink:title=" ">
<polygon fill="white" stroke="#666666" points="496,-268.38 381,-268.38 381,-249.12 496,-249.12 496,-268.38"/>
<text text-anchor="middle" x="438.5" y="-253.93" font-family="Helvetica,sans-Serif" font-size="11.00">floppy/detail/corefn.h</text>
</a>
</g>
</g>
<!-- Node24&#45;&gt;Node32 -->
<g id="edge43_Node000024_Node000032" class="edge">
<title>Node24&#45;&gt;Node32</title>
<g id="a_edge43_Node000024_Node000032"><a xlink:title=" ">
<path fill="none" stroke="#63b8ff" d="M545,-315.15C524.41,-304.44 489.99,-286.53 465.87,-273.99"/>
<polygon fill="#63b8ff" stroke="#63b8ff" points="467.74,-271.02 457.26,-269.51 464.51,-277.23 467.74,-271.02"/>
</a>
</g>
</g>
<!-- Node34 -->
<g id="Node000034" class="node">
<title>Node34</title>
<g id="a_Node000034"><a xlink:href="print__helpers_8h_source.html" target="_top" xlink:title=" ">
<polygon fill="white" stroke="#666666" points="97,-207.5 0,-207.5 0,-177 97,-177 97,-207.5"/>
<text text-anchor="start" x="8" y="-193.05" font-family="Helvetica,sans-Serif" font-size="11.00">floppy/detail/print</text>
<text text-anchor="middle" x="48.5" y="-181.8" font-family="Helvetica,sans-Serif" font-size="11.00">_helpers.h</text>
</a>
</g>
</g>
<!-- Node24&#45;&gt;Node34 -->
<g id="edge63_Node000024_Node000034" class="edge">
<title>Node24&#45;&gt;Node34</title>
<g id="a_edge63_Node000024_Node000034"><a xlink:title=" ">
<path fill="none" stroke="#63b8ff" d="M519.67,-323.66C421.01,-321.64 180.87,-312.77 111.5,-274 88.69,-261.25 71.3,-236.53 60.63,-217.78"/>
<polygon fill="#63b8ff" stroke="#63b8ff" points="63.82,-216.3 55.99,-209.16 57.65,-219.62 63.82,-216.3"/>
</a>
</g>
</g>
<!-- Node36 -->
<g id="Node000036" class="node">
<title>Node36</title>
<g id="a_Node000036"><a xlink:href="memory_8h_source.html" target="_top" xlink:title=" ">
<polygon fill="white" stroke="#666666" points="901.12,-201.88 777.88,-201.88 777.88,-182.62 901.12,-182.62 901.12,-201.88"/>
<text text-anchor="middle" x="839.5" y="-187.43" font-family="Helvetica,sans-Serif" font-size="11.00">floppy/detail/memory.h</text>
</a>
</g>
</g>
<!-- Node24&#45;&gt;Node36 -->
<g id="edge54_Node000024_Node000036" class="edge">
<title>Node24&#45;&gt;Node36</title>
<g id="a_edge54_Node000024_Node000036"><a xlink:title=" ">
<path fill="none" stroke="#63b8ff" d="M594.96,-315.19C624.88,-306.34 670.16,-291.64 707.5,-274 748.24,-254.75 792.26,-226.06 817.78,-208.56"/>
<polygon fill="#63b8ff" stroke="#63b8ff" points="819.44,-211.67 825.66,-203.1 815.45,-205.92 819.44,-211.67"/>
</a>
</g>
</g>
<!-- Node25&#45;&gt;Node12 -->
<g id="edge30_Node000025_Node000012" class="edge">
<title>Node25&#45;&gt;Node12</title>
<g id="a_edge30_Node000025_Node000012"><a xlink:title=" ">
<path fill="none" stroke="#63b8ff" d="M292.18,-183.64C265.34,-176.94 236.88,-164.39 220.5,-141 196.97,-107.39 215.74,-56.87 229.09,-29.64"/>
<polygon fill="#63b8ff" stroke="#63b8ff" points="232.15,-31.35 233.64,-20.86 225.93,-28.12 232.15,-31.35"/>
</a>
</g>
</g>
<!-- Node25&#45;&gt;Node13 -->
<g id="edge36_Node000025_Node000013" class="edge">
<title>Node25&#45;&gt;Node13</title>
<g id="a_edge36_Node000025_Node000013"><a xlink:title=" ">
<path fill="none" stroke="#63b8ff" d="M404.86,-182.15C414.32,-180.38 424.22,-178.58 433.5,-177 508.71,-164.21 594.97,-151.46 655.08,-142.89"/>
<polygon fill="#63b8ff" stroke="#63b8ff" points="655.46,-146.37 664.87,-141.49 654.48,-139.44 655.46,-146.37"/>
</a>
</g>
</g>
<!-- Node25&#45;&gt;Node19 -->
<g id="edge28_Node000025_Node000019" class="edge">
<title>Node25&#45;&gt;Node19</title>
<g id="a_edge28_Node000025_Node000019"><a xlink:title=" ">
<path fill="none" stroke="#63b8ff" d="M297.9,-182.17C268.17,-175.12 233.47,-162.72 208.5,-141 174.25,-111.22 156.08,-59.13 148.27,-30.64"/>
<polygon fill="#63b8ff" stroke="#63b8ff" points="151.72,-29.98 145.85,-21.16 144.94,-31.71 151.72,-29.98"/>
</a>
</g>
</g>
<!-- Node26 -->
<g id="Node000026" class="node">
<title>Node26</title>
<g id="a_Node000026"><a xlink:title=" ">
<polygon fill="#e0e0e0" stroke="#999999" points="430,-141 381,-141 381,-121.75 430,-121.75 430,-141"/>
<text text-anchor="middle" x="405.5" y="-126.55" font-family="Helvetica,sans-Serif" font-size="11.00">ranges</text>
</a>
</g>
</g>
<!-- Node25&#45;&gt;Node26 -->
<g id="edge29_Node000025_Node000026" class="edge">
<title>Node25&#45;&gt;Node26</title>
<g id="a_edge29_Node000025_Node000026"><a xlink:title=" ">
<path fill="none" stroke="#63b8ff" d="M365.64,-182.31C372.4,-173.84 382.75,-160.87 391.21,-150.27"/>
<polygon fill="#63b8ff" stroke="#63b8ff" points="393.85,-152.58 397.35,-142.58 388.38,-148.22 393.85,-152.58"/>
</a>
</g>
</g>
<!-- Node25&#45;&gt;Node27 -->
<g id="edge31_Node000025_Node000027" class="edge">
<title>Node25&#45;&gt;Node27</title>
<g id="a_edge31_Node000025_Node000027"><a xlink:title=" ">
<path fill="none" stroke="#63b8ff" d="M387.77,-182.18C420.13,-172.15 472.44,-155.94 508.55,-144.75"/>
<polygon fill="#63b8ff" stroke="#63b8ff" points="509.23,-148.21 517.75,-141.9 507.16,-141.52 509.23,-148.21"/>
</a>
</g>
</g>
<!-- Node25&#45;&gt;Node29 -->
<g id="edge37_Node000025_Node000029" class="edge">
<title>Node25&#45;&gt;Node29</title>
<g id="a_edge37_Node000025_Node000029"><a xlink:title=" ">
<path fill="none" stroke="#63b8ff" d="M349.08,-182.31C339.89,-173.58 325.66,-160.07 314.33,-149.3"/>
<polygon fill="#63b8ff" stroke="#63b8ff" points="316.76,-146.79 307.1,-142.44 311.94,-151.87 316.76,-146.79"/>
</a>
</g>
</g>
<!-- Node27&#45;&gt;Node5 -->
<g id="edge32_Node000027_Node000005" class="edge">
<title>Node27&#45;&gt;Node5</title>
<g id="a_edge32_Node000027_Node000005"><a xlink:title=" ">
<path fill="none" stroke="#63b8ff" d="M581.8,-121.32C611.81,-112.91 656.98,-99.63 695.5,-85.75 696.47,-85.4 697.46,-85.04 698.46,-84.66"/>
<polygon fill="#63b8ff" stroke="#63b8ff" points="699.72,-87.93 707.73,-80.99 697.14,-81.42 699.72,-87.93"/>
</a>
</g>
</g>
<!-- Node27&#45;&gt;Node8 -->
<g id="edge33_Node000027_Node000008" class="edge">
<title>Node27&#45;&gt;Node8</title>
<g id="a_edge33_Node000027_Node000008"><a xlink:title=" ">
<path fill="none" stroke="#63b8ff" d="M610.73,-123.97C689.62,-115.73 829.77,-100.69 949.5,-85.75 960.45,-84.38 972.04,-82.86 983.35,-81.33"/>
<polygon fill="#63b8ff" stroke="#63b8ff" points="983.59,-84.83 993.02,-80 982.64,-77.89 983.59,-84.83"/>
</a>
</g>
</g>
<!-- Node27&#45;&gt;Node17 -->
<g id="edge34_Node000027_Node000017" class="edge">
<title>Node27&#45;&gt;Node17</title>
<g id="a_edge34_Node000027_Node000017"><a xlink:title=" ">
<path fill="none" stroke="#63b8ff" d="M556.09,-121.43C563.36,-112.87 574.53,-99.73 583.58,-89.07"/>
<polygon fill="#63b8ff" stroke="#63b8ff" points="586.05,-91.57 589.85,-81.68 580.71,-87.04 586.05,-91.57"/>
</a>
</g>
</g>
<!-- Node27&#45;&gt;Node28 -->
<g id="edge35_Node000027_Node000028" class="edge">
<title>Node27&#45;&gt;Node28</title>
<g id="a_edge35_Node000027_Node000028"><a xlink:title=" ">
<path fill="none" stroke="#63b8ff" d="M524.47,-121.3C498.47,-111.49 456.79,-95.76 427.24,-84.61"/>
<polygon fill="#63b8ff" stroke="#63b8ff" points="428.57,-81.37 417.98,-81.11 426.1,-87.92 428.57,-81.37"/>
</a>
</g>
</g>
<!-- Node29&#45;&gt;Node10 -->
<g id="edge38_Node000029_Node000010" class="edge">
<title>Node29&#45;&gt;Node10</title>
<g id="a_edge38_Node000029_Node000010"><a xlink:title=" ">
<path fill="none" stroke="#63b8ff" d="M363.77,-122.64C467.58,-110.65 655.68,-88.62 662.5,-85.75 682.46,-77.34 680.82,-64.28 700.5,-55.25 763.44,-26.38 843.81,-16.18 893.72,-12.58"/>
<polygon fill="#63b8ff" stroke="#63b8ff" points="893.85,-16.08 903.6,-11.94 893.39,-9.1 893.85,-16.08"/>
</a>
</g>
</g>
<!-- Node29&#45;&gt;Node12 -->
<g id="edge41_Node000029_Node000012" class="edge">
<title>Node29&#45;&gt;Node12</title>
<g id="a_edge41_Node000029_Node000012"><a xlink:title=" ">
<path fill="none" stroke="#63b8ff" d="M286.63,-121.4C277.98,-112.99 265.69,-99.67 258.5,-85.75 249.44,-68.21 244.53,-46.09 241.98,-30.4"/>
<polygon fill="#63b8ff" stroke="#63b8ff" points="245.5,-30.32 240.62,-20.92 238.57,-31.31 245.5,-30.32"/>
</a>
</g>
</g>
<!-- Node30 -->
<g id="Node000030" class="node">
<title>Node30</title>
<g id="a_Node000030"><a xlink:title=" ">
<polygon fill="#e0e0e0" stroke="#999999" points="525.62,-80.12 471.38,-80.12 471.38,-60.88 525.62,-60.88 525.62,-80.12"/>
<text text-anchor="middle" x="498.5" y="-65.67" font-family="Helvetica,sans-Serif" font-size="11.00">sstream</text>
</a>
</g>
</g>
<!-- Node29&#45;&gt;Node30 -->
<g id="edge39_Node000029_Node000030" class="edge">
<title>Node29&#45;&gt;Node30</title>
<g id="a_edge39_Node000029_Node000030"><a xlink:title=" ">
<path fill="none" stroke="#63b8ff" d="M335.11,-121.32C368.99,-113.07 419.44,-100.01 462.5,-85.75 463.83,-85.31 465.18,-84.85 466.54,-84.37"/>
<polygon fill="#63b8ff" stroke="#63b8ff" points="467.38,-87.79 475.53,-81.02 464.93,-81.23 467.38,-87.79"/>
</a>
</g>
</g>
<!-- Node31 -->
<g id="Node000031" class="node">
<title>Node31</title>
<g id="a_Node000031"><a xlink:title=" ">
<polygon fill="#e0e0e0" stroke="#999999" points="313.88,-80.12 267.12,-80.12 267.12,-60.88 313.88,-60.88 313.88,-80.12"/>
<text text-anchor="middle" x="290.5" y="-65.67" font-family="Helvetica,sans-Serif" font-size="11.00">iosfwd</text>
</a>
</g>
</g>
<!-- Node29&#45;&gt;Node31 -->
<g id="edge40_Node000029_Node000031" class="edge">
<title>Node29&#45;&gt;Node31</title>
<g id="a_edge40_Node000029_Node000031"><a xlink:title=" ">
<path fill="none" stroke="#63b8ff" d="M295.59,-121.43C294.79,-113.57 293.59,-101.82 292.56,-91.7"/>
<polygon fill="#63b8ff" stroke="#63b8ff" points="296.07,-91.63 291.57,-82.03 289.11,-92.34 296.07,-91.63"/>
</a>
</g>
</g>
<!-- Node32&#45;&gt;Node8 -->
<g id="edge45_Node000032_Node000008" class="edge">
<title>Node32&#45;&gt;Node8</title>
<g id="a_edge45_Node000032_Node000008"><a xlink:title=" ">
<path fill="none" stroke="#63b8ff" d="M496.49,-256.95C586.49,-254.52 764.62,-244.92 910.5,-207.5 984.7,-188.47 1027.05,-204.76 1069.5,-141 1079.69,-125.69 1072.41,-104.84 1064.45,-89.98"/>
<polygon fill="#63b8ff" stroke="#63b8ff" points="1067.65,-88.52 1059.55,-81.69 1061.63,-92.08 1067.65,-88.52"/>
</a>
</g>
</g>
<!-- Node32&#45;&gt;Node13 -->
<g id="edge47_Node000032_Node000013" class="edge">
<title>Node32&#45;&gt;Node13</title>
<g id="a_edge47_Node000032_Node000013"><a xlink:title=" ">
<path fill="none" stroke="#63b8ff" d="M459.5,-248.73C510.1,-227.01 638.98,-171.67 698.94,-145.93"/>
<polygon fill="#63b8ff" stroke="#63b8ff" points="700.1,-149.24 707.91,-142.08 697.34,-142.8 700.1,-149.24"/>
</a>
</g>
</g>
<!-- Node32&#45;&gt;Node25 -->
<g id="edge46_Node000032_Node000025" class="edge">
<title>Node32&#45;&gt;Node25</title>
<g id="a_edge46_Node000032_Node000025"><a xlink:title=" ">
<path fill="none" stroke="#63b8ff" d="M427.38,-248.78C414.79,-238.63 394.04,-221.9 378.59,-209.45"/>
<polygon fill="#63b8ff" stroke="#63b8ff" points="380.95,-206.85 370.97,-203.3 376.55,-212.3 380.95,-206.85"/>
</a>
</g>
</g>
<!-- Node33 -->
<g id="Node000033" class="node">
<title>Node33</title>
<g id="a_Node000033"><a xlink:title=" ">
<polygon fill="#e0e0e0" stroke="#999999" points="496.25,-201.88 442.75,-201.88 442.75,-182.62 496.25,-182.62 496.25,-201.88"/>
<text text-anchor="middle" x="469.5" y="-187.43" font-family="Helvetica,sans-Serif" font-size="11.00">typeinfo</text>
</a>
</g>
</g>
<!-- Node32&#45;&gt;Node33 -->
<g id="edge44_Node000032_Node000033" class="edge">
<title>Node32&#45;&gt;Node33</title>
<g id="a_edge44_Node000032_Node000033"><a xlink:title=" ">
<path fill="none" stroke="#63b8ff" d="M442.81,-248.78C447.3,-239.44 454.47,-224.53 460.25,-212.51"/>
<polygon fill="#63b8ff" stroke="#63b8ff" points="463.39,-214.04 464.57,-203.51 457.08,-211 463.39,-214.04"/>
</a>
</g>
</g>
<!-- Node32&#45;&gt;Node34 -->
<g id="edge48_Node000032_Node000034" class="edge">
<title>Node32&#45;&gt;Node34</title>
<g id="a_edge48_Node000032_Node000034"><a xlink:title=" ">
<path fill="none" stroke="#63b8ff" d="M383.45,-248.65C310.85,-236.64 183.56,-215.59 108.55,-203.18"/>
<polygon fill="#63b8ff" stroke="#63b8ff" points="109.35,-199.77 98.92,-201.59 108.21,-206.67 109.35,-199.77"/>
</a>
</g>
</g>
<!-- Node34&#45;&gt;Node12 -->
<g id="edge49_Node000034_Node000012" class="edge">
<title>Node34&#45;&gt;Node12</title>
<g id="a_edge49_Node000034_Node000012"><a xlink:title=" ">
<path fill="none" stroke="#63b8ff" d="M35.74,-176.68C24.59,-162.09 11.75,-139.34 22.5,-121.75 59.11,-61.87 139.35,-32.93 191.33,-19.98"/>
<polygon fill="#63b8ff" stroke="#63b8ff" points="191.89,-23.45 200.81,-17.73 190.28,-16.64 191.89,-23.45"/>
</a>
</g>
</g>
<!-- Node35 -->
<g id="Node000035" class="node">
<title>Node35</title>
<g id="a_Node000035"><a xlink:title=" ">
<polygon fill="#e0e0e0" stroke="#999999" points="97.25,-141 31.75,-141 31.75,-121.75 97.25,-121.75 97.25,-141"/>
<text text-anchor="middle" x="64.5" y="-126.55" font-family="Helvetica,sans-Serif" font-size="11.00">fmt/color.h</text>
</a>
</g>
</g>
<!-- Node34&#45;&gt;Node35 -->
<g id="edge50_Node000034_Node000035" class="edge">
<title>Node34&#45;&gt;Node35</title>
<g id="a_edge50_Node000034_Node000035"><a xlink:title=" ">
<path fill="none" stroke="#63b8ff" d="M52.46,-176.7C54.45,-169.37 56.89,-160.37 59.06,-152.41"/>
<polygon fill="#63b8ff" stroke="#63b8ff" points="62.39,-153.48 61.64,-142.91 55.64,-151.64 62.39,-153.48"/>
</a>
</g>
</g>
<!-- Node36&#45;&gt;Node7 -->
<g id="edge56_Node000036_Node000007" class="edge">
<title>Node36&#45;&gt;Node7</title>
<g id="a_edge56_Node000036_Node000007"><a xlink:title=" ">
<path fill="none" stroke="#63b8ff" d="M869.08,-182.18C901.87,-172.12 954.95,-155.85 991.45,-144.66"/>
<polygon fill="#63b8ff" stroke="#63b8ff" points="992.22,-148.08 1000.76,-141.8 990.17,-141.39 992.22,-148.08"/>
</a>
</g>
</g>
<!-- Node36&#45;&gt;Node8 -->
<g id="edge58_Node000036_Node000008" class="edge">
<title>Node36&#45;&gt;Node8</title>
<g id="a_edge58_Node000036_Node000008"><a xlink:title=" ">
<path fill="none" stroke="#63b8ff" d="M864.67,-182.14C888.68,-173.03 925.52,-157.98 955.5,-141 983.75,-125.01 1013.75,-102.55 1032.78,-87.54"/>
<polygon fill="#63b8ff" stroke="#63b8ff" points="1034.86,-90.36 1040.49,-81.39 1030.49,-84.9 1034.86,-90.36"/>
</a>
</g>
</g>
<!-- Node36&#45;&gt;Node13 -->
<g id="edge60_Node000036_Node000013" class="edge">
<title>Node36&#45;&gt;Node13</title>
<g id="a_edge60_Node000036_Node000013"><a xlink:title=" ">
<path fill="none" stroke="#63b8ff" d="M822.95,-182.31C805.5,-172.88 777.75,-157.9 757.21,-146.8"/>
<polygon fill="#63b8ff" stroke="#63b8ff" points="759,-143.79 748.54,-142.12 755.68,-149.95 759,-143.79"/>
</a>
</g>
</g>
<!-- Node36&#45;&gt;Node29 -->
<g id="edge59_Node000036_Node000029" class="edge">
<title>Node36&#45;&gt;Node29</title>
<g id="a_edge59_Node000036_Node000029"><a xlink:title=" ">
<path fill="none" stroke="#63b8ff" d="M777.54,-184.7C690.28,-175.45 525.86,-157.92 374.94,-141.26"/>
<polygon fill="#63b8ff" stroke="#63b8ff" points="375.46,-137.8 365.14,-140.18 374.69,-144.76 375.46,-137.8"/>
</a>
</g>
</g>
<!-- Node37 -->
<g id="Node000037" class="node">
<title>Node37</title>
<g id="a_Node000037"><a xlink:title=" ">
<polygon fill="#e0e0e0" stroke="#999999" points="867,-141 812,-141 812,-121.75 867,-121.75 867,-141"/>
<text text-anchor="middle" x="839.5" y="-126.55" font-family="Helvetica,sans-Serif" font-size="11.00">memory</text>
</a>
</g>
</g>
<!-- Node36&#45;&gt;Node37 -->
<g id="edge55_Node000036_Node000037" class="edge">
<title>Node36&#45;&gt;Node37</title>
<g id="a_edge55_Node000036_Node000037"><a xlink:title=" ">
<path fill="none" stroke="#63b8ff" d="M839.5,-182.31C839.5,-174.53 839.5,-162.95 839.5,-152.91"/>
<polygon fill="#63b8ff" stroke="#63b8ff" points="843,-152.91 839.5,-142.91 836,-152.91 843,-152.91"/>
</a>
</g>
</g>
<!-- Node38 -->
<g id="Node000038" class="node">
<title>Node38</title>
<g id="a_Node000038"><a xlink:title=" ">
<polygon fill="#e0e0e0" stroke="#999999" points="946.38,-141 884.62,-141 884.62,-121.75 946.38,-121.75 946.38,-141"/>
<text text-anchor="middle" x="915.5" y="-126.55" font-family="Helvetica,sans-Serif" font-size="11.00">stdexcept</text>
</a>
</g>
</g>
<!-- Node36&#45;&gt;Node38 -->
<g id="edge57_Node000036_Node000038" class="edge">
<title>Node36&#45;&gt;Node38</title>
<g id="a_edge57_Node000036_Node000038"><a xlink:title=" ">
<path fill="none" stroke="#63b8ff" d="M851.04,-182.31C862.65,-173.32 880.79,-159.26 894.88,-148.35"/>
<polygon fill="#63b8ff" stroke="#63b8ff" points="896.89,-151.22 902.65,-142.33 892.6,-145.69 896.89,-151.22"/>
</a>
</g>
</g>
<!-- Node39&#45;&gt;Node3 -->
<g id="edge67_Node000039_Node000003" class="edge">
<title>Node39&#45;&gt;Node3</title>
<g id="a_edge67_Node000039_Node000003"><a xlink:title=" ">
<path fill="none" stroke="#63b8ff" d="M1255.56,-243.11C1250.58,-233.93 1244.1,-222 1238.74,-212.11"/>
<polygon fill="#63b8ff" stroke="#63b8ff" points="1241.86,-210.52 1234.01,-203.4 1235.7,-213.86 1241.86,-210.52"/>
</a>
</g>
</g>
<!-- Node39&#45;&gt;Node13 -->
<g id="edge68_Node000039_Node000013" class="edge">
<title>Node39&#45;&gt;Node13</title>
<g id="a_edge68_Node000039_Node000013"><a xlink:title=" ">
<path fill="none" stroke="#63b8ff" d="M1211.34,-258.62C1099.16,-259.53 839.35,-256.16 768.5,-207.5 749.89,-194.72 739.91,-170.02 734.91,-152.43"/>
<polygon fill="#63b8ff" stroke="#63b8ff" points="738.34,-151.71 732.52,-142.86 731.55,-153.41 738.34,-151.71"/>
</a>
</g>
</g>
</g>
</svg>

<g id="navigator" transform="translate(0 0)" fill="#404254">
  <rect fill="#f2f5e9" fill-opacity="0.5" stroke="#606060" stroke-width=".5" x="0" y="0" width="60" height="60"/>
  <use id="zoomplus" xlink:href="#zoomPlus" x="17" y="9" onmousedown="handleZoom(evt,'in')"/>
  <use id="zoomminus" xlink:href="#zoomMin" x="42" y="9" onmousedown="handleZoom(evt,'out')"/>
  <use id="reset" xlink:href="#resetDef" x="30" y="36" onmousedown="handleReset()"/>
   <use id="arrowup" xlink:href="#arrowUp" x="0" y="0" onmousedown="handlePan(0,-1)"/>
  <use id="arrowright" xlink:href="#arrowRight" x="0" y="0" onmousedown="handlePan(1,0)"/>
  <use id="arrowdown" xlink:href="#arrowDown" x="0" y="0" onmousedown="handlePan(0,1)"/>
  <use id="arrowleft" xlink:href="#arrowLeft" x="0" y="0" onmousedown="handlePan(-1,0)"/>
</g>
<svg viewBox="0 0 15 15" width="100%" height="30px" preserveAspectRatio="xMaxYMin meet">
 <g id="arrow_out" transform="scale(0.3 0.3)">
  <a xlink:href="length_8h__incl_org.svg" target="_base">
   <rect id="button" ry="5" rx="5" y="6" x="6" height="38" width="38"
        fill="#f2f5e9" fill-opacity="0.5" stroke="#606060" stroke-width="1.0"/>
   <path id="arrow"
     d="M 11.500037,31.436501 C 11.940474,20.09759 22.043105,11.32322 32.158766,21.979434 L 37.068811,17.246167 C 37.068811,17.246167 37.088388,32 37.088388,32 L 22.160133,31.978069 C 22.160133,31.978069 26.997745,27.140456 26.997745,27.140456 C 18.528582,18.264221 13.291696,25.230495 11.500037,31.436501 z"
     style="fill:#404040;"/>
  </a>
 </g>
</svg>

<style type='text/css'>
<![CDATA[
[data-mouse-over-selected='false'] { opacity: 0.7; }
[data-mouse-over-selected='true']  { opacity: 1.0; }
]]>
</style>
<script type="application/ecmascript"><![CDATA[
document.addEventListener('DOMContentLoaded', (event) => {
  highlightEdges();
  highlightAdjacentNodes();
});
]]></script>
</svg>
