<?xml version="1.0" encoding="UTF-8" standalone="no"?>
<!DOCTYPE svg PUBLIC "-//W3C//DTD SVG 1.1//EN"
 "http://www.w3.org/Graphics/SVG/1.1/DTD/svg11.dtd">
<!-- Generated by graphviz version 10.0.1 (0)
 -->
<!-- Title: nt_traits.h Pages: 1 -->
<!--zoomable 260 -->

<svg id="main" version="1.1" xmlns="http://www.w3.org/2000/svg" xmlns:xlink="http://www.w3.org/1999/xlink" xml:space="preserve" onload="init(evt)">
<style type="text/css"><![CDATA[
.node, .edge {opacity: 0.7;}
.node.selected, .edge.selected {opacity: 1;}
.edge:hover path { stroke: red; }
.edge:hover polygon { stroke: red; fill: red; }
]]></style>

<defs>
  <circle id="rim" cx="0" cy="0" r="7"/>
  <circle id="rim2" cx="0" cy="0" r="3.5"/>
  <g id="zoomPlus">
    <use xlink:href="#rim" fill="#404040"><set attributeName="fill" to="#808080" begin="zoomplus.mouseover" end="zoomplus.mouseout"/></use>
    <path d="M-4,0h8M0,-4v8" fill="none" stroke="white" stroke-width="1.5" pointer-events="none"/>
  </g>
  <g id="zoomMin">
    <use xlink:href="#rim" fill="#404040"><set attributeName="fill" to="#808080" begin="zoomminus.mouseover" end="zoomminus.mouseout"/></use>
    <path d="M-4,0h8" fill="none" stroke="white" stroke-width="1.5" pointer-events="none"/>
  </g>
  <g id="arrowUp" transform="translate(30 24)">
    <use xlink:href="#rim"/>
    <path pointer-events="none" fill="none" stroke="white" stroke-width="1.5" d="M0,-3.0v7 M-2.5,-0.5L0,-3.0L2.5,-0.5"/>
  </g>
  <g id="arrowRight" transform="rotate(90) translate(36 -43)">
    <use xlink:href="#rim"/>
    <path pointer-events="none" fill="none" stroke="white" stroke-width="1.5" d="M0,-3.0v7 M-2.5,-0.5L0,-3.0L2.5,-0.5"/>
  </g>
  <g id="arrowDown" transform="rotate(180) translate(-30 -48)">
    <use xlink:href="#rim"/>
    <path pointer-events="none" fill="none" stroke="white" stroke-width="1.5" d="M0,-3.0v7 M-2.5,-0.5L0,-3.0L2.5,-0.5"/>
  </g>
  <g id="arrowLeft" transform="rotate(270) translate(-36 17)">
    <use xlink:href="#rim"/>
    <path pointer-events="none" fill="none" stroke="white" stroke-width="1.5" d="M0,-3.0v7 M-2.5,-0.5L0,-3.0L2.5,-0.5"/>
  </g>
  <g id="resetDef">
    <use xlink:href="#rim2" fill="#404040"><set attributeName="fill" to="#808080" begin="reset.mouseover" end="reset.mouseout"/></use>
  </g>
</defs>
<script type="application/ecmascript">
var viewWidth = 707;
var viewHeight = 260;
var sectionId = 'dynsection-0';
</script>
<script type="application/ecmascript" xlink:href="svg.min.js"/>
<svg id="graph" class="graph">
<g id="viewport">
<title>nt_traits.h</title>
<!-- Node1 -->
<g id="Node000001" class="node">
<title>Node1</title>
<g id="a_Node000001"><a xlink:title=" ">
<polygon fill="#999999" stroke="#666666" points="340.62,-251.5 277.38,-251.5 277.38,-232.25 340.62,-232.25 340.62,-251.5"/>
<text text-anchor="middle" x="309" y="-237.05" font-family="Helvetica,sans-Serif" font-size="11.00">nt_traits.h</text>
</a>
</g>
</g>
<!-- Node2 -->
<g id="Node000002" class="node">
<title>Node2</title>
<g id="a_Node000002"><a xlink:href="math_8h_source.html" target="_top" xlink:title=" ">
<polygon fill="white" stroke="#666666" points="322.5,-196.25 213.5,-196.25 213.5,-177 322.5,-177 322.5,-196.25"/>
<text text-anchor="middle" x="268" y="-181.8" font-family="Helvetica,sans-Serif" font-size="11.00">floppy/detail/math.h</text>
</a>
</g>
</g>
<!-- Node1&#45;&gt;Node2 -->
<g id="edge1_Node000001_Node000002" class="edge">
<title>Node1&#45;&gt;Node2</title>
<g id="a_edge1_Node000001_Node000002"><a xlink:title=" ">
<path fill="none" stroke="#63b8ff" d="M302.23,-232.08C296.68,-224.88 288.66,-214.46 281.77,-205.51"/>
<polygon fill="#63b8ff" stroke="#63b8ff" points="284.71,-203.6 275.84,-197.81 279.17,-207.87 284.71,-203.6"/>
</a>
</g>
</g>
<!-- Node12 -->
<g id="Node000012" class="node">
<title>Node12</title>
<g id="a_Node000012"><a xlink:href="concepts_8h_source.html" target="_top" xlink:title=" ">
<polygon fill="white" stroke="#666666" points="534.88,-141 407.12,-141 407.12,-121.75 534.88,-121.75 534.88,-141"/>
<text text-anchor="middle" x="471" y="-126.55" font-family="Helvetica,sans-Serif" font-size="11.00">floppy/detail/concepts.h</text>
</a>
</g>
</g>
<!-- Node1&#45;&gt;Node12 -->
<g id="edge22_Node000001_Node000012" class="edge">
<title>Node1&#45;&gt;Node12</title>
<g id="a_edge22_Node000001_Node000012"><a xlink:title=" ">
<path fill="none" stroke="#63b8ff" d="M322.53,-231.81C350.36,-213.18 414.23,-170.4 448.42,-147.5"/>
<polygon fill="#63b8ff" stroke="#63b8ff" points="450,-150.65 456.36,-142.18 446.11,-144.84 450,-150.65"/>
</a>
</g>
</g>
<!-- Node3 -->
<g id="Node000003" class="node">
<title>Node3</title>
<g id="a_Node000003"><a xlink:title=" ">
<polygon fill="#e0e0e0" stroke="#999999" points="388.62,-141 343.38,-141 343.38,-121.75 388.62,-121.75 388.62,-141"/>
<text text-anchor="middle" x="366" y="-126.55" font-family="Helvetica,sans-Serif" font-size="11.00">cmath</text>
</a>
</g>
</g>
<!-- Node2&#45;&gt;Node3 -->
<g id="edge2_Node000002_Node000003" class="edge">
<title>Node2&#45;&gt;Node3</title>
<g id="a_edge2_Node000002_Node000003"><a xlink:title=" ">
<path fill="none" stroke="#63b8ff" d="M284.62,-176.59C299.69,-168.41 322.14,-156.21 339.65,-146.69"/>
<polygon fill="#63b8ff" stroke="#63b8ff" points="340.85,-150.02 347.96,-142.18 337.51,-143.87 340.85,-150.02"/>
</a>
</g>
</g>
<!-- Node4 -->
<g id="Node000004" class="node">
<title>Node4</title>
<g id="a_Node000004"><a xlink:title=" ">
<polygon fill="#e0e0e0" stroke="#999999" points="40,-141 0,-141 0,-121.75 40,-121.75 40,-141"/>
<text text-anchor="middle" x="20" y="-126.55" font-family="Helvetica,sans-Serif" font-size="11.00">limits</text>
</a>
</g>
</g>
<!-- Node2&#45;&gt;Node4 -->
<g id="edge3_Node000002_Node000004" class="edge">
<title>Node2&#45;&gt;Node4</title>
<g id="a_edge3_Node000002_Node000004"><a xlink:title=" ">
<path fill="none" stroke="#63b8ff" d="M216.82,-176.52C174.7,-168.72 113.21,-156.67 51.02,-141.33"/>
<polygon fill="#63b8ff" stroke="#63b8ff" points="52.24,-138.03 41.69,-139 50.54,-144.82 52.24,-138.03"/>
</a>
</g>
</g>
<!-- Node5 -->
<g id="Node000005" class="node">
<title>Node5</title>
<g id="a_Node000005"><a xlink:title=" ">
<polygon fill="#e0e0e0" stroke="#999999" points="116,-141 58,-141 58,-121.75 116,-121.75 116,-141"/>
<text text-anchor="middle" x="87" y="-126.55" font-family="Helvetica,sans-Serif" font-size="11.00">numbers</text>
</a>
</g>
</g>
<!-- Node2&#45;&gt;Node5 -->
<g id="edge4_Node000002_Node000005" class="edge">
<title>Node2&#45;&gt;Node5</title>
<g id="a_edge4_Node000002_Node000005"><a xlink:title=" ">
<path fill="none" stroke="#63b8ff" d="M237.3,-176.59C206.94,-167.66 160.34,-153.95 127.08,-144.17"/>
<polygon fill="#63b8ff" stroke="#63b8ff" points="128.39,-140.9 117.8,-141.44 126.41,-147.62 128.39,-140.9"/>
</a>
</g>
</g>
<!-- Node6 -->
<g id="Node000006" class="node">
<title>Node6</title>
<g id="a_Node000006"><a xlink:title=" ">
<polygon fill="#e0e0e0" stroke="#999999" points="192,-141 134,-141 134,-121.75 192,-121.75 192,-141"/>
<text text-anchor="middle" x="163" y="-126.55" font-family="Helvetica,sans-Serif" font-size="11.00">compare</text>
</a>
</g>
</g>
<!-- Node2&#45;&gt;Node6 -->
<g id="edge5_Node000002_Node000006" class="edge">
<title>Node2&#45;&gt;Node6</title>
<g id="a_edge5_Node000002_Node000006"><a xlink:title=" ">
<path fill="none" stroke="#63b8ff" d="M250.19,-176.59C233.97,-168.37 209.76,-156.09 190.97,-146.56"/>
<polygon fill="#63b8ff" stroke="#63b8ff" points="192.75,-143.54 182.25,-142.14 189.58,-149.78 192.75,-143.54"/>
</a>
</g>
</g>
<!-- Node7 -->
<g id="Node000007" class="node">
<title>Node7</title>
<g id="a_Node000007"><a xlink:href="export_8h_source.html" target="_top" xlink:title=" ">
<polygon fill="white" stroke="#666666" points="325.5,-141 210.5,-141 210.5,-121.75 325.5,-121.75 325.5,-141"/>
<text text-anchor="middle" x="268" y="-126.55" font-family="Helvetica,sans-Serif" font-size="11.00">floppy/detail/export.h</text>
</a>
</g>
</g>
<!-- Node2&#45;&gt;Node7 -->
<g id="edge6_Node000002_Node000007" class="edge">
<title>Node2&#45;&gt;Node7</title>
<g id="a_edge6_Node000002_Node000007"><a xlink:title=" ">
<path fill="none" stroke="#63b8ff" d="M268,-176.83C268,-170.32 268,-161.17 268,-152.87"/>
<polygon fill="#63b8ff" stroke="#63b8ff" points="271.5,-152.87 268,-142.87 264.5,-152.87 271.5,-152.87"/>
</a>
</g>
</g>
<!-- Node2&#45;&gt;Node12 -->
<g id="edge11_Node000002_Node000012" class="edge">
<title>Node2&#45;&gt;Node12</title>
<g id="a_edge11_Node000002_Node000012"><a xlink:title=" ">
<path fill="none" stroke="#63b8ff" d="M302.44,-176.59C336.27,-167.72 388.09,-154.12 425.34,-144.35"/>
<polygon fill="#63b8ff" stroke="#63b8ff" points="426.15,-147.76 434.93,-141.84 424.37,-140.99 426.15,-147.76"/>
</a>
</g>
</g>
<!-- Node8 -->
<g id="Node000008" class="node">
<title>Node8</title>
<g id="a_Node000008"><a xlink:title=" ">
<polygon fill="#e0e0e0" stroke="#999999" points="215.12,-80.12 172.88,-80.12 172.88,-60.88 215.12,-60.88 215.12,-80.12"/>
<text text-anchor="middle" x="194" y="-65.67" font-family="Helvetica,sans-Serif" font-size="11.00">string</text>
</a>
</g>
</g>
<!-- Node7&#45;&gt;Node8 -->
<g id="edge7_Node000007_Node000008" class="edge">
<title>Node7&#45;&gt;Node8</title>
<g id="a_edge7_Node000007_Node000008"><a xlink:title=" ">
<path fill="none" stroke="#63b8ff" d="M256.76,-121.43C245.46,-112.44 227.79,-98.39 214.08,-87.48"/>
<polygon fill="#63b8ff" stroke="#63b8ff" points="216.53,-84.96 206.53,-81.47 212.18,-90.43 216.53,-84.96"/>
</a>
</g>
</g>
<!-- Node9 -->
<g id="Node000009" class="node">
<title>Node9</title>
<g id="a_Node000009"><a xlink:title=" ">
<polygon fill="#e0e0e0" stroke="#999999" points="303,-80.12 233,-80.12 233,-60.88 303,-60.88 303,-80.12"/>
<text text-anchor="middle" x="268" y="-65.67" font-family="Helvetica,sans-Serif" font-size="11.00">string_view</text>
</a>
</g>
</g>
<!-- Node7&#45;&gt;Node9 -->
<g id="edge8_Node000007_Node000009" class="edge">
<title>Node7&#45;&gt;Node9</title>
<g id="a_edge8_Node000007_Node000009"><a xlink:title=" ">
<path fill="none" stroke="#63b8ff" d="M268,-121.43C268,-113.65 268,-102.08 268,-92.03"/>
<polygon fill="#63b8ff" stroke="#63b8ff" points="271.5,-92.04 268,-82.04 264.5,-92.04 271.5,-92.04"/>
</a>
</g>
</g>
<!-- Node10 -->
<g id="Node000010" class="node">
<title>Node10</title>
<g id="a_Node000010"><a xlink:title=" ">
<polygon fill="#e0e0e0" stroke="#999999" points="378.62,-80.12 321.38,-80.12 321.38,-60.88 378.62,-60.88 378.62,-80.12"/>
<text text-anchor="middle" x="350" y="-65.67" font-family="Helvetica,sans-Serif" font-size="11.00">iostream</text>
</a>
</g>
</g>
<!-- Node7&#45;&gt;Node10 -->
<g id="edge9_Node000007_Node000010" class="edge">
<title>Node7&#45;&gt;Node10</title>
<g id="a_edge9_Node000007_Node000010"><a xlink:title=" ">
<path fill="none" stroke="#63b8ff" d="M280.45,-121.43C293.1,-112.36 312.93,-98.12 328.19,-87.16"/>
<polygon fill="#63b8ff" stroke="#63b8ff" points="330.12,-90.08 336.2,-81.41 326.03,-84.4 330.12,-90.08"/>
</a>
</g>
</g>
<!-- Node11 -->
<g id="Node000011" class="node">
<title>Node11</title>
<g id="a_Node000011"><a xlink:title=" ">
<polygon fill="#e0e0e0" stroke="#999999" points="226.88,-19.25 153.12,-19.25 153.12,0 226.88,0 226.88,-19.25"/>
<text text-anchor="middle" x="190" y="-4.8" font-family="Helvetica,sans-Serif" font-size="11.00">fmt/format.h</text>
</a>
</g>
</g>
<!-- Node7&#45;&gt;Node11 -->
<g id="edge10_Node000007_Node000011" class="edge">
<title>Node7&#45;&gt;Node11</title>
<g id="a_edge10_Node000007_Node000011"><a xlink:title=" ">
<path fill="none" stroke="#63b8ff" d="M217.52,-121.26C197.34,-114.86 176.06,-104.04 164,-85.75 152.3,-68 164.09,-44.41 175.34,-28.44"/>
<polygon fill="#63b8ff" stroke="#63b8ff" points="177.88,-30.88 181.15,-20.8 172.31,-26.65 177.88,-30.88"/>
</a>
</g>
</g>
<!-- Node13 -->
<g id="Node000013" class="node">
<title>Node13</title>
<g id="a_Node000013"><a xlink:title=" ">
<polygon fill="#e0e0e0" stroke="#999999" points="584.38,-80.12 525.62,-80.12 525.62,-60.88 584.38,-60.88 584.38,-80.12"/>
<text text-anchor="middle" x="555" y="-65.67" font-family="Helvetica,sans-Serif" font-size="11.00">concepts</text>
</a>
</g>
</g>
<!-- Node12&#45;&gt;Node13 -->
<g id="edge12_Node000012_Node000013" class="edge">
<title>Node12&#45;&gt;Node13</title>
<g id="a_edge12_Node000012_Node000013"><a xlink:title=" ">
<path fill="none" stroke="#63b8ff" d="M483.76,-121.43C496.83,-112.27 517.41,-97.84 533.1,-86.85"/>
<polygon fill="#63b8ff" stroke="#63b8ff" points="534.7,-90 540.88,-81.39 530.68,-84.27 534.7,-90"/>
</a>
</g>
</g>
<!-- Node14 -->
<g id="Node000014" class="node">
<title>Node14</title>
<g id="a_Node000014"><a xlink:href="type__traits_8h_source.html" target="_top" xlink:title=" ">
<polygon fill="white" stroke="#666666" points="699.12,-85.75 602.88,-85.75 602.88,-55.25 699.12,-55.25 699.12,-85.75"/>
<text text-anchor="start" x="610.88" y="-71.3" font-family="Helvetica,sans-Serif" font-size="11.00">floppy/detail/type</text>
<text text-anchor="middle" x="651" y="-60.05" font-family="Helvetica,sans-Serif" font-size="11.00">_traits.h</text>
</a>
</g>
</g>
<!-- Node12&#45;&gt;Node14 -->
<g id="edge13_Node000012_Node000014" class="edge">
<title>Node12&#45;&gt;Node14</title>
<g id="a_edge13_Node000012_Node000014"><a xlink:title=" ">
<path fill="none" stroke="#63b8ff" d="M498.73,-121.3C524.42,-112.9 563.4,-100.15 595.49,-89.66"/>
<polygon fill="#63b8ff" stroke="#63b8ff" points="596.22,-93.1 604.63,-86.67 594.04,-86.45 596.22,-93.1"/>
</a>
</g>
</g>
<!-- Node16 -->
<g id="Node000016" class="node">
<title>Node16</title>
<g id="a_Node000016"><a xlink:href="types_8h_source.html" target="_top" xlink:title=" ">
<polygon fill="white" stroke="#666666" points="507.25,-80.12 396.75,-80.12 396.75,-60.88 507.25,-60.88 507.25,-80.12"/>
<text text-anchor="middle" x="452" y="-65.67" font-family="Helvetica,sans-Serif" font-size="11.00">floppy/detail/types.h</text>
</a>
</g>
</g>
<!-- Node12&#45;&gt;Node16 -->
<g id="edge15_Node000012_Node000016" class="edge">
<title>Node12&#45;&gt;Node16</title>
<g id="a_edge15_Node000012_Node000016"><a xlink:title=" ">
<path fill="none" stroke="#63b8ff" d="M468.11,-121.43C465.55,-113.48 461.7,-101.56 458.41,-91.37"/>
<polygon fill="#63b8ff" stroke="#63b8ff" points="461.78,-90.41 455.38,-81.97 455.12,-92.56 461.78,-90.41"/>
</a>
</g>
</g>
<!-- Node15 -->
<g id="Node000015" class="node">
<title>Node15</title>
<g id="a_Node000015"><a xlink:title=" ">
<polygon fill="#e0e0e0" stroke="#999999" points="674.75,-19.25 609.25,-19.25 609.25,0 674.75,0 674.75,-19.25"/>
<text text-anchor="middle" x="642" y="-4.8" font-family="Helvetica,sans-Serif" font-size="11.00">type_traits</text>
</a>
</g>
</g>
<!-- Node14&#45;&gt;Node15 -->
<g id="edge14_Node000014_Node000015" class="edge">
<title>Node14&#45;&gt;Node15</title>
<g id="a_edge14_Node000014_Node000015"><a xlink:title=" ">
<path fill="none" stroke="#63b8ff" d="M648.78,-54.95C647.67,-47.71 646.31,-38.84 645.11,-30.94"/>
<polygon fill="#63b8ff" stroke="#63b8ff" points="648.59,-30.55 643.62,-21.2 641.67,-31.61 648.59,-30.55"/>
</a>
</g>
</g>
<!-- Node16&#45;&gt;Node11 -->
<g id="edge20_Node000016_Node000011" class="edge">
<title>Node16&#45;&gt;Node11</title>
<g id="a_edge20_Node000016_Node000011"><a xlink:title=" ">
<path fill="none" stroke="#63b8ff" d="M411.64,-60.43C364.89,-49.93 287.96,-32.64 238.14,-21.44"/>
<polygon fill="#63b8ff" stroke="#63b8ff" points="239.02,-18.05 228.49,-19.28 237.48,-24.88 239.02,-18.05"/>
</a>
</g>
</g>
<!-- Node16&#45;&gt;Node15 -->
<g id="edge19_Node000016_Node000015" class="edge">
<title>Node16&#45;&gt;Node15</title>
<g id="a_edge19_Node000016_Node000015"><a xlink:title=" ">
<path fill="none" stroke="#63b8ff" d="M481.27,-60.43C513.63,-50.4 565.94,-34.19 602.05,-23"/>
<polygon fill="#63b8ff" stroke="#63b8ff" points="602.73,-26.46 611.25,-20.15 600.66,-19.77 602.73,-26.46"/>
</a>
</g>
</g>
<!-- Node17 -->
<g id="Node000017" class="node">
<title>Node17</title>
<g id="a_Node000017"><a xlink:title=" ">
<polygon fill="#e0e0e0" stroke="#999999" points="574.25,-19.25 523.75,-19.25 523.75,0 574.25,0 574.25,-19.25"/>
<text text-anchor="middle" x="549" y="-4.8" font-family="Helvetica,sans-Serif" font-size="11.00">cstddef</text>
</a>
</g>
</g>
<!-- Node16&#45;&gt;Node17 -->
<g id="edge16_Node000016_Node000017" class="edge">
<title>Node16&#45;&gt;Node17</title>
<g id="a_edge16_Node000016_Node000017"><a xlink:title=" ">
<path fill="none" stroke="#63b8ff" d="M466.73,-60.56C482.04,-51.26 506.27,-36.56 524.47,-25.51"/>
<polygon fill="#63b8ff" stroke="#63b8ff" points="526.1,-28.62 532.84,-20.44 522.47,-22.63 526.1,-28.62"/>
</a>
</g>
</g>
<!-- Node18 -->
<g id="Node000018" class="node">
<title>Node18</title>
<g id="a_Node000018"><a xlink:title=" ">
<polygon fill="#e0e0e0" stroke="#999999" points="327.38,-19.25 280.62,-19.25 280.62,0 327.38,0 327.38,-19.25"/>
<text text-anchor="middle" x="304" y="-4.8" font-family="Helvetica,sans-Serif" font-size="11.00">cstdint</text>
</a>
</g>
</g>
<!-- Node16&#45;&gt;Node18 -->
<g id="edge17_Node000016_Node000018" class="edge">
<title>Node16&#45;&gt;Node18</title>
<g id="a_edge17_Node000016_Node000018"><a xlink:title=" ">
<path fill="none" stroke="#63b8ff" d="M429.2,-60.43C404.58,-50.63 365.12,-34.94 337.08,-23.79"/>
<polygon fill="#63b8ff" stroke="#63b8ff" points="338.58,-20.61 327.99,-20.17 335.99,-27.12 338.58,-20.61"/>
</a>
</g>
</g>
<!-- Node19 -->
<g id="Node000019" class="node">
<title>Node19</title>
<g id="a_Node000019"><a xlink:title=" ">
<polygon fill="#e0e0e0" stroke="#999999" points="398.75,-19.25 345.25,-19.25 345.25,0 398.75,0 398.75,-19.25"/>
<text text-anchor="middle" x="372" y="-4.8" font-family="Helvetica,sans-Serif" font-size="11.00">optional</text>
</a>
</g>
</g>
<!-- Node16&#45;&gt;Node19 -->
<g id="edge18_Node000016_Node000019" class="edge">
<title>Node16&#45;&gt;Node19</title>
<g id="a_edge18_Node000016_Node000019"><a xlink:title=" ">
<path fill="none" stroke="#63b8ff" d="M439.85,-60.56C427.52,-51.48 408.17,-37.24 393.28,-26.29"/>
<polygon fill="#63b8ff" stroke="#63b8ff" points="395.61,-23.66 385.48,-20.55 391.46,-29.29 395.61,-23.66"/>
</a>
</g>
</g>
<!-- Node20 -->
<g id="Node000020" class="node">
<title>Node20</title>
<g id="a_Node000020"><a xlink:title=" ">
<polygon fill="#e0e0e0" stroke="#999999" points="505.38,-19.25 416.62,-19.25 416.62,0 505.38,0 505.38,-19.25"/>
<text text-anchor="middle" x="461" y="-4.8" font-family="Helvetica,sans-Serif" font-size="11.00">tl/expected.hpp</text>
</a>
</g>
</g>
<!-- Node16&#45;&gt;Node20 -->
<g id="edge21_Node000016_Node000020" class="edge">
<title>Node16&#45;&gt;Node20</title>
<g id="a_edge21_Node000016_Node000020"><a xlink:title=" ">
<path fill="none" stroke="#63b8ff" d="M453.37,-60.56C454.57,-52.69 456.36,-40.95 457.91,-30.82"/>
<polygon fill="#63b8ff" stroke="#63b8ff" points="461.34,-31.56 459.39,-21.15 454.42,-30.5 461.34,-31.56"/>
</a>
</g>
</g>
</g>
</svg>

<g id="navigator" transform="translate(0 0)" fill="#404254">
  <rect fill="#f2f5e9" fill-opacity="0.5" stroke="#606060" stroke-width=".5" x="0" y="0" width="60" height="60"/>
  <use id="zoomplus" xlink:href="#zoomPlus" x="17" y="9" onmousedown="handleZoom(evt,'in')"/>
  <use id="zoomminus" xlink:href="#zoomMin" x="42" y="9" onmousedown="handleZoom(evt,'out')"/>
  <use id="reset" xlink:href="#resetDef" x="30" y="36" onmousedown="handleReset()"/>
   <use id="arrowup" xlink:href="#arrowUp" x="0" y="0" onmousedown="handlePan(0,-1)"/>
  <use id="arrowright" xlink:href="#arrowRight" x="0" y="0" onmousedown="handlePan(1,0)"/>
  <use id="arrowdown" xlink:href="#arrowDown" x="0" y="0" onmousedown="handlePan(0,1)"/>
  <use id="arrowleft" xlink:href="#arrowLeft" x="0" y="0" onmousedown="handlePan(-1,0)"/>
</g>
<svg viewBox="0 0 15 15" width="100%" height="30px" preserveAspectRatio="xMaxYMin meet">
 <g id="arrow_out" transform="scale(0.3 0.3)">
  <a xlink:href="nt__traits_8h__incl_org.svg" target="_base">
   <rect id="button" ry="5" rx="5" y="6" x="6" height="38" width="38"
        fill="#f2f5e9" fill-opacity="0.5" stroke="#606060" stroke-width="1.0"/>
   <path id="arrow"
     d="M 11.500037,31.436501 C 11.940474,20.09759 22.043105,11.32322 32.158766,21.979434 L 37.068811,17.246167 C 37.068811,17.246167 37.088388,32 37.088388,32 L 22.160133,31.978069 C 22.160133,31.978069 26.997745,27.140456 26.997745,27.140456 C 18.528582,18.264221 13.291696,25.230495 11.500037,31.436501 z"
     style="fill:#404040;"/>
  </a>
 </g>
</svg>

<style type='text/css'>
<![CDATA[
[data-mouse-over-selected='false'] { opacity: 0.7; }
[data-mouse-over-selected='true']  { opacity: 1.0; }
]]>
</style>
<script type="application/ecmascript"><![CDATA[
document.addEventListener('DOMContentLoaded', (event) => {
  highlightEdges();
  highlightAdjacentNodes();
});
]]></script>
</svg>
