<?xml version="1.0" encoding="UTF-8" standalone="no"?>
<!DOCTYPE svg PUBLIC "-//W3C//DTD SVG 1.1//EN"
 "http://www.w3.org/Graphics/SVG/1.1/DTD/svg11.dtd">
<!-- Generated by graphviz version 10.0.1 (0)
 -->
<!-- Title: nt_traits.h Pages: 1 -->
<svg width="359pt" height="414pt"
 viewBox="0.00 0.00 358.62 414.00" xmlns="http://www.w3.org/2000/svg" xmlns:xlink="http://www.w3.org/1999/xlink">
<g id="graph0" class="graph" transform="scale(1 1) rotate(0) translate(4 410)">
<title>nt_traits.h</title>
<!-- Node1 -->
<g id="Node000001" class="node">
<title>Node1</title>
<g id="a_Node000001"><a xlink:title=" ">
<polygon fill="#999999" stroke="#666666" points="232.25,-406 169,-406 169,-386.75 232.25,-386.75 232.25,-406"/>
<text text-anchor="middle" x="200.62" y="-391.55" font-family="Helvetica,sans-Serif" font-size="11.00">nt_traits.h</text>
</a>
</g>
</g>
<!-- Node2 -->
<g id="Node000002" class="node">
<title>Node2</title>
<g id="a_Node000002"><a xlink:href="angle_8h.html" target="_top" xlink:title="Newtype describing an angle.">
<polygon fill="white" stroke="#666666" points="51.25,-185 0,-185 0,-165.75 51.25,-165.75 51.25,-185"/>
<text text-anchor="middle" x="25.62" y="-170.55" font-family="Helvetica,sans-Serif" font-size="11.00">angle.h</text>
</a>
</g>
</g>
<!-- Node1&#45;&gt;Node2 -->
<g id="edge1_Node000001_Node000002" class="edge">
<title>Node1&#45;&gt;Node2</title>
<g id="a_edge1_Node000001_Node000002"><a xlink:title=" ">
<path fill="none" stroke="#63b8ff" d="M183.96,-378.07C157.47,-350.19 104.78,-293.08 65.62,-240.25 51.76,-221.54 37.84,-197.97 30.64,-185.34"/>
<polygon fill="#63b8ff" stroke="#63b8ff" points="181.39,-380.45 190.83,-385.26 186.45,-375.62 181.39,-380.45"/>
</a>
</g>
</g>
<!-- Node6 -->
<g id="Node000006" class="node">
<title>Node6</title>
<g id="a_Node000006"><a xlink:href="length_8h.html" target="_top" xlink:title="A one&#45;dimensional distance with associated unit of measurement.">
<polygon fill="white" stroke="#666666" points="192.75,-295.5 138.5,-295.5 138.5,-276.25 192.75,-276.25 192.75,-295.5"/>
<text text-anchor="middle" x="165.62" y="-281.05" font-family="Helvetica,sans-Serif" font-size="11.00">length.h</text>
</a>
</g>
</g>
<!-- Node1&#45;&gt;Node6 -->
<g id="edge7_Node000001_Node000006" class="edge">
<title>Node1&#45;&gt;Node6</title>
<g id="a_edge7_Node000001_Node000006"><a xlink:title=" ">
<path fill="none" stroke="#63b8ff" d="M194.27,-375.68C186.64,-352.01 174.15,-313.3 168.53,-295.88"/>
<polygon fill="#63b8ff" stroke="#63b8ff" points="190.9,-376.61 197.3,-385.06 197.56,-374.46 190.9,-376.61"/>
</a>
</g>
</g>
<!-- Node7 -->
<g id="Node000007" class="node">
<title>Node7</title>
<g id="a_Node000007"><a xlink:href="nt__traits2d_8h.html" target="_top" xlink:title=" ">
<polygon fill="white" stroke="#666666" points="264.25,-240.25 189,-240.25 189,-221 264.25,-221 264.25,-240.25"/>
<text text-anchor="middle" x="226.62" y="-225.8" font-family="Helvetica,sans-Serif" font-size="11.00">nt_traits2d.h</text>
</a>
</g>
</g>
<!-- Node1&#45;&gt;Node7 -->
<g id="edge19_Node000001_Node000007" class="edge">
<title>Node1&#45;&gt;Node7</title>
<g id="a_edge19_Node000001_Node000007"><a xlink:title=" ">
<path fill="none" stroke="#63b8ff" d="M203.83,-375.22C209.52,-339.36 221.19,-265.85 225.22,-240.47"/>
<polygon fill="#63b8ff" stroke="#63b8ff" points="200.37,-374.65 202.26,-385.08 207.29,-375.75 200.37,-374.65"/>
</a>
</g>
</g>
<!-- Node9 -->
<g id="Node000009" class="node">
<title>Node9</title>
<g id="a_Node000009"><a xlink:href="scale_8h.html" target="_top" xlink:title="A scaling factor between two different units of measurement.">
<polygon fill="white" stroke="#666666" points="298.5,-350.75 248.75,-350.75 248.75,-331.5 298.5,-331.5 298.5,-350.75"/>
<text text-anchor="middle" x="273.62" y="-336.3" font-family="Helvetica,sans-Serif" font-size="11.00">scale.h</text>
</a>
</g>
</g>
<!-- Node1&#45;&gt;Node9 -->
<g id="edge20_Node000001_Node000009" class="edge">
<title>Node1&#45;&gt;Node9</title>
<g id="a_edge20_Node000001_Node000009"><a xlink:title=" ">
<path fill="none" stroke="#63b8ff" d="M222.09,-379.72C234.91,-370.37 250.72,-358.83 261.42,-351.02"/>
<polygon fill="#63b8ff" stroke="#63b8ff" points="220.25,-376.73 214.23,-385.45 224.37,-382.38 220.25,-376.73"/>
</a>
</g>
</g>
<!-- Node3 -->
<g id="Node000003" class="node">
<title>Node3</title>
<g id="a_Node000003"><a xlink:href="euclid_8h.html" target="_top" xlink:title="Small collection of classes and functions for geometric types with a focus on 2d graphics and layout.">
<polygon fill="white" stroke="#666666" points="205,-19.25 152.25,-19.25 152.25,0 205,0 205,-19.25"/>
<text text-anchor="middle" x="178.62" y="-4.8" font-family="Helvetica,sans-Serif" font-size="11.00">euclid.h</text>
</a>
</g>
</g>
<!-- Node2&#45;&gt;Node3 -->
<g id="edge2_Node000002_Node000003" class="edge">
<title>Node2&#45;&gt;Node3</title>
<g id="a_edge2_Node000002_Node000003"><a xlink:title=" ">
<path fill="none" stroke="#63b8ff" d="M26.67,-153.85C29.07,-127.73 36.93,-82.71 62.62,-55.25 86.22,-30.04 125.63,-18.91 151.87,-14.11"/>
<polygon fill="#63b8ff" stroke="#63b8ff" points="23.18,-153.57 25.97,-163.79 30.16,-154.06 23.18,-153.57"/>
</a>
</g>
</g>
<!-- Node4 -->
<g id="Node000004" class="node">
<title>Node4</title>
<g id="a_Node000004"><a xlink:href="vector2d_8h.html" target="_top" xlink:title="A two&#45;dimensional vector tagged with a unit.">
<polygon fill="white" stroke="#666666" points="170.75,-129.75 104.5,-129.75 104.5,-110.5 170.75,-110.5 170.75,-129.75"/>
<text text-anchor="middle" x="137.62" y="-115.3" font-family="Helvetica,sans-Serif" font-size="11.00">vector2d.h</text>
</a>
</g>
</g>
<!-- Node2&#45;&gt;Node4 -->
<g id="edge3_Node000002_Node000004" class="edge">
<title>Node2&#45;&gt;Node4</title>
<g id="a_edge3_Node000002_Node000004"><a xlink:title=" ">
<path fill="none" stroke="#63b8ff" d="M54.79,-160.51C74.9,-150.95 101.04,-138.52 118.53,-130.2"/>
<polygon fill="#63b8ff" stroke="#63b8ff" points="53.52,-157.24 45.99,-164.69 56.53,-163.56 53.52,-157.24"/>
</a>
</g>
</g>
<!-- Node4&#45;&gt;Node3 -->
<g id="edge4_Node000004_Node000003" class="edge">
<title>Node4&#45;&gt;Node3</title>
<g id="a_edge4_Node000004_Node000003"><a xlink:title=" ">
<path fill="none" stroke="#63b8ff" d="M144.94,-99.76C153.88,-76.12 168.61,-37.13 175.22,-19.63"/>
<polygon fill="#63b8ff" stroke="#63b8ff" points="141.78,-98.24 141.52,-108.83 148.32,-100.71 141.78,-98.24"/>
</a>
</g>
</g>
<!-- Node5 -->
<g id="Node000005" class="node">
<title>Node5</title>
<g id="a_Node000005"><a xlink:href="point2d_8h.html" target="_top" xlink:title="A two&#45;dimensional point tagged with a unit.">
<polygon fill="white" stroke="#666666" points="286.75,-74.5 226.5,-74.5 226.5,-55.25 286.75,-55.25 286.75,-74.5"/>
<text text-anchor="middle" x="256.62" y="-60.05" font-family="Helvetica,sans-Serif" font-size="11.00">point2d.h</text>
</a>
</g>
</g>
<!-- Node4&#45;&gt;Node5 -->
<g id="edge5_Node000004_Node000005" class="edge">
<title>Node4&#45;&gt;Node5</title>
<g id="a_edge5_Node000004_Node000005"><a xlink:title=" ">
<path fill="none" stroke="#63b8ff" d="M168.03,-105.52C189.46,-95.93 217.59,-83.34 236.34,-74.95"/>
<polygon fill="#63b8ff" stroke="#63b8ff" points="166.89,-102.19 159.19,-109.47 169.75,-108.58 166.89,-102.19"/>
</a>
</g>
</g>
<!-- Node5&#45;&gt;Node3 -->
<g id="edge6_Node000005_Node000003" class="edge">
<title>Node5&#45;&gt;Node3</title>
<g id="a_edge6_Node000005_Node000003"><a xlink:title=" ">
<path fill="none" stroke="#63b8ff" d="M234.15,-48.53C220.48,-39.2 203.48,-27.6 191.92,-19.7"/>
<polygon fill="#63b8ff" stroke="#63b8ff" points="231.91,-51.24 242.14,-53.99 235.86,-45.46 231.91,-51.24"/>
</a>
</g>
</g>
<!-- Node6&#45;&gt;Node3 -->
<g id="edge8_Node000006_Node000003" class="edge">
<title>Node6&#45;&gt;Node3</title>
<g id="a_edge8_Node000006_Node000003"><a xlink:title=" ">
<path fill="none" stroke="#63b8ff" d="M149.62,-267.41C123.02,-236.19 74.63,-168.61 95.62,-110.5 110.03,-70.64 148.04,-35.46 167.22,-19.58"/>
<polygon fill="#63b8ff" stroke="#63b8ff" points="146.84,-269.55 156.07,-274.75 152.09,-264.93 146.84,-269.55"/>
</a>
</g>
</g>
<!-- Node6&#45;&gt;Node4 -->
<g id="edge18_Node000006_Node000004" class="edge">
<title>Node6&#45;&gt;Node4</title>
<g id="a_edge18_Node000006_Node000004"><a xlink:title=" ">
<path fill="none" stroke="#63b8ff" d="M162.26,-265.19C156.16,-229.5 143.5,-155.46 139.14,-129.97"/>
<polygon fill="#63b8ff" stroke="#63b8ff" points="158.73,-265.31 163.86,-274.58 165.63,-264.13 158.73,-265.31"/>
</a>
</g>
</g>
<!-- Node6&#45;&gt;Node5 -->
<g id="edge16_Node000006_Node000005" class="edge">
<title>Node6&#45;&gt;Node5</title>
<g id="a_edge16_Node000006_Node000005"><a xlink:title=" ">
<path fill="none" stroke="#63b8ff" d="M204.11,-279.73C228.4,-274.28 258.03,-263.11 273.62,-240.25 309.96,-186.98 274.46,-102.35 261.18,-74.84"/>
<polygon fill="#63b8ff" stroke="#63b8ff" points="203.67,-276.24 194.53,-281.61 205.02,-283.11 203.67,-276.24"/>
</a>
</g>
</g>
<!-- Node6&#45;&gt;Node7 -->
<g id="edge9_Node000006_Node000007" class="edge">
<title>Node6&#45;&gt;Node7</title>
<g id="a_edge9_Node000006_Node000007"><a xlink:title=" ">
<path fill="none" stroke="#63b8ff" d="M184.51,-268.39C195.05,-259.19 207.75,-248.1 216.43,-240.52"/>
<polygon fill="#63b8ff" stroke="#63b8ff" points="182.34,-265.63 177.11,-274.85 186.95,-270.91 182.34,-265.63"/>
</a>
</g>
</g>
<!-- Node8 -->
<g id="Node000008" class="node">
<title>Node8</title>
<g id="a_Node000008"><a xlink:href="size2d_8h.html" target="_top" xlink:title="A two&#45;dimensional size tagged with a unit.">
<polygon fill="white" stroke="#666666" points="244.5,-185 188.75,-185 188.75,-165.75 244.5,-165.75 244.5,-185"/>
<text text-anchor="middle" x="216.62" y="-170.55" font-family="Helvetica,sans-Serif" font-size="11.00">size2d.h</text>
</a>
</g>
</g>
<!-- Node6&#45;&gt;Node8 -->
<g id="edge17_Node000006_Node000008" class="edge">
<title>Node6&#45;&gt;Node8</title>
<g id="a_edge17_Node000006_Node000008"><a xlink:title=" ">
<path fill="none" stroke="#63b8ff" d="M167.61,-264.35C169.46,-251.41 172.98,-234.62 179.62,-221 186.42,-207.07 198.43,-193.75 206.92,-185.35"/>
<polygon fill="#63b8ff" stroke="#63b8ff" points="164.14,-263.91 166.44,-274.25 171.09,-264.73 164.14,-263.91"/>
</a>
</g>
</g>
<!-- Node7&#45;&gt;Node4 -->
<g id="edge15_Node000007_Node000004" class="edge">
<title>Node7&#45;&gt;Node4</title>
<g id="a_edge15_Node000007_Node000004"><a xlink:title=" ">
<path fill="none" stroke="#63b8ff" d="M207.29,-213.12C198.39,-205.08 187.98,-194.99 179.62,-185 164.3,-166.67 149.76,-142.54 142.48,-129.83"/>
<polygon fill="#63b8ff" stroke="#63b8ff" points="204.92,-215.69 214.73,-219.68 209.54,-210.44 204.92,-215.69"/>
</a>
</g>
</g>
<!-- Node7&#45;&gt;Node5 -->
<g id="edge10_Node000007_Node000005" class="edge">
<title>Node7&#45;&gt;Node5</title>
<g id="a_edge10_Node000007_Node000005"><a xlink:title=" ">
<path fill="none" stroke="#63b8ff" d="M240.62,-211.38C245.72,-203.66 250.9,-194.32 253.62,-185 265.24,-145.29 260.54,-94.92 257.93,-74.78"/>
<polygon fill="#63b8ff" stroke="#63b8ff" points="237.79,-209.32 234.83,-219.49 243.48,-213.38 237.79,-209.32"/>
</a>
</g>
</g>
<!-- Node7&#45;&gt;Node8 -->
<g id="edge11_Node000007_Node000008" class="edge">
<title>Node7&#45;&gt;Node8</title>
<g id="a_edge11_Node000007_Node000008"><a xlink:title=" ">
<path fill="none" stroke="#63b8ff" d="M222.88,-209.67C221.31,-201.3 219.56,-192 218.31,-185.36"/>
<polygon fill="#63b8ff" stroke="#63b8ff" points="219.41,-210.16 224.69,-219.34 226.29,-208.87 219.41,-210.16"/>
</a>
</g>
</g>
<!-- Node8&#45;&gt;Node3 -->
<g id="edge12_Node000008_Node000003" class="edge">
<title>Node8&#45;&gt;Node3</title>
<g id="a_edge12_Node000008_Node000003"><a xlink:title=" ">
<path fill="none" stroke="#63b8ff" d="M212.06,-154.69C203.78,-119 186.59,-44.96 180.68,-19.47"/>
<polygon fill="#63b8ff" stroke="#63b8ff" points="208.57,-155.15 214.24,-164.1 215.39,-153.56 208.57,-155.15"/>
</a>
</g>
</g>
<!-- Node8&#45;&gt;Node4 -->
<g id="edge14_Node000008_Node000004" class="edge">
<title>Node8&#45;&gt;Node4</title>
<g id="a_edge14_Node000008_Node000004"><a xlink:title=" ">
<path fill="none" stroke="#63b8ff" d="M193.86,-159.03C180.02,-149.7 162.8,-138.1 151.09,-130.2"/>
<polygon fill="#63b8ff" stroke="#63b8ff" points="191.72,-161.81 201.97,-164.5 195.63,-156 191.72,-161.81"/>
</a>
</g>
</g>
<!-- Node8&#45;&gt;Node5 -->
<g id="edge13_Node000008_Node000005" class="edge">
<title>Node8&#45;&gt;Node5</title>
<g id="a_edge13_Node000008_Node000005"><a xlink:title=" ">
<path fill="none" stroke="#63b8ff" d="M223.77,-155.01C232.48,-131.37 246.85,-92.38 253.31,-74.88"/>
<polygon fill="#63b8ff" stroke="#63b8ff" points="220.6,-153.48 220.42,-164.08 227.16,-155.9 220.6,-153.48"/>
</a>
</g>
</g>
<!-- Node9&#45;&gt;Node3 -->
<g id="edge21_Node000009_Node000003" class="edge">
<title>Node9&#45;&gt;Node3</title>
<g id="a_edge21_Node000009_Node000003"><a xlink:title=" ">
<path fill="none" stroke="#63b8ff" d="M294.72,-324.19C317.51,-304.98 350.62,-270.4 350.62,-231.62 350.62,-231.62 350.62,-231.62 350.62,-119.12 350.62,-51.34 253.88,-24.2 205.5,-14.87"/>
<polygon fill="#63b8ff" stroke="#63b8ff" points="292.76,-321.27 287.17,-330.27 297.15,-326.72 292.76,-321.27"/>
</a>
</g>
</g>
<!-- Node9&#45;&gt;Node6 -->
<g id="edge22_Node000009_Node000006" class="edge">
<title>Node9&#45;&gt;Node6</title>
<g id="a_edge22_Node000009_Node000006"><a xlink:title=" ">
<path fill="none" stroke="#63b8ff" d="M245.23,-326.12C225.88,-316.58 200.82,-304.23 184.04,-295.95"/>
<polygon fill="#63b8ff" stroke="#63b8ff" points="243.43,-329.14 253.95,-330.42 246.53,-322.86 243.43,-329.14"/>
</a>
</g>
</g>
</g>
</svg>
