<?xml version="1.0" encoding="UTF-8" standalone="no"?>
<!DOCTYPE svg PUBLIC "-//W3C//DTD SVG 1.1//EN"
 "http://www.w3.org/Graphics/SVG/1.1/DTD/svg11.dtd">
<!-- Generated by graphviz version 10.0.1 (0)
 -->
<!-- Title: nt_traits2d.h Pages: 1 -->
<!--zoomable 448 -->

<svg id="main" version="1.1" xmlns="http://www.w3.org/2000/svg" xmlns:xlink="http://www.w3.org/1999/xlink" xml:space="preserve" onload="init(evt)">
<style type="text/css"><![CDATA[
.node, .edge {opacity: 0.7;}
.node.selected, .edge.selected {opacity: 1;}
.edge:hover path { stroke: red; }
.edge:hover polygon { stroke: red; fill: red; }
]]></style>

<defs>
  <circle id="rim" cx="0" cy="0" r="7"/>
  <circle id="rim2" cx="0" cy="0" r="3.5"/>
  <g id="zoomPlus">
    <use xlink:href="#rim" fill="#404040"><set attributeName="fill" to="#808080" begin="zoomplus.mouseover" end="zoomplus.mouseout"/></use>
    <path d="M-4,0h8M0,-4v8" fill="none" stroke="white" stroke-width="1.5" pointer-events="none"/>
  </g>
  <g id="zoomMin">
    <use xlink:href="#rim" fill="#404040"><set attributeName="fill" to="#808080" begin="zoomminus.mouseover" end="zoomminus.mouseout"/></use>
    <path d="M-4,0h8" fill="none" stroke="white" stroke-width="1.5" pointer-events="none"/>
  </g>
  <g id="arrowUp" transform="translate(30 24)">
    <use xlink:href="#rim"/>
    <path pointer-events="none" fill="none" stroke="white" stroke-width="1.5" d="M0,-3.0v7 M-2.5,-0.5L0,-3.0L2.5,-0.5"/>
  </g>
  <g id="arrowRight" transform="rotate(90) translate(36 -43)">
    <use xlink:href="#rim"/>
    <path pointer-events="none" fill="none" stroke="white" stroke-width="1.5" d="M0,-3.0v7 M-2.5,-0.5L0,-3.0L2.5,-0.5"/>
  </g>
  <g id="arrowDown" transform="rotate(180) translate(-30 -48)">
    <use xlink:href="#rim"/>
    <path pointer-events="none" fill="none" stroke="white" stroke-width="1.5" d="M0,-3.0v7 M-2.5,-0.5L0,-3.0L2.5,-0.5"/>
  </g>
  <g id="arrowLeft" transform="rotate(270) translate(-36 17)">
    <use xlink:href="#rim"/>
    <path pointer-events="none" fill="none" stroke="white" stroke-width="1.5" d="M0,-3.0v7 M-2.5,-0.5L0,-3.0L2.5,-0.5"/>
  </g>
  <g id="resetDef">
    <use xlink:href="#rim2" fill="#404040"><set attributeName="fill" to="#808080" begin="reset.mouseover" end="reset.mouseout"/></use>
  </g>
</defs>
<script type="application/ecmascript">
var viewWidth = 975;
var viewHeight = 448;
var sectionId = 'dynsection-0';
</script>
<script type="application/ecmascript" xlink:href="svg.min.js"/>
<svg id="graph" class="graph">
<g id="viewport">
<title>nt_traits2d.h</title>
<!-- Node1 -->
<g id="Node000001" class="node">
<title>Node1</title>
<g id="a_Node000001"><a xlink:title=" ">
<polygon fill="#999999" stroke="#666666" points="208,-439.75 132.75,-439.75 132.75,-420.5 208,-420.5 208,-439.75"/>
<text text-anchor="middle" x="170.38" y="-425.3" font-family="Helvetica,sans-Serif" font-size="11.00">nt_traits2d.h</text>
</a>
</g>
</g>
<!-- Node2 -->
<g id="Node000002" class="node">
<title>Node2</title>
<g id="a_Node000002"><a xlink:title=" ">
<polygon fill="#e0e0e0" stroke="#999999" points="40.75,-384.5 0,-384.5 0,-365.25 40.75,-365.25 40.75,-384.5"/>
<text text-anchor="middle" x="20.38" y="-370.05" font-family="Helvetica,sans-Serif" font-size="11.00">array</text>
</a>
</g>
</g>
<!-- Node1&#45;&gt;Node2 -->
<g id="edge1_Node000001_Node000002" class="edge">
<title>Node1&#45;&gt;Node2</title>
<g id="a_edge1_Node000001_Node000002"><a xlink:title=" ">
<path fill="none" stroke="#63b8ff" d="M144.93,-420.09C119.22,-410.96 79.44,-396.84 51.78,-387.02"/>
<polygon fill="#63b8ff" stroke="#63b8ff" points="53.13,-383.79 42.53,-383.74 50.79,-390.38 53.13,-383.79"/>
</a>
</g>
</g>
<!-- Node3 -->
<g id="Node000003" class="node">
<title>Node3</title>
<g id="a_Node000003"><a xlink:title=" ">
<polygon fill="#e0e0e0" stroke="#999999" points="98,-384.5 58.75,-384.5 58.75,-365.25 98,-365.25 98,-384.5"/>
<text text-anchor="middle" x="78.38" y="-370.05" font-family="Helvetica,sans-Serif" font-size="11.00">tuple</text>
</a>
</g>
</g>
<!-- Node1&#45;&gt;Node3 -->
<g id="edge2_Node000001_Node000003" class="edge">
<title>Node1&#45;&gt;Node3</title>
<g id="a_edge2_Node000001_Node000003"><a xlink:title=" ">
<path fill="none" stroke="#63b8ff" d="M154.77,-420.09C140.76,-411.98 119.94,-399.93 103.57,-390.46"/>
<polygon fill="#63b8ff" stroke="#63b8ff" points="105.78,-387.69 95.37,-385.71 102.27,-393.75 105.78,-387.69"/>
</a>
</g>
</g>
<!-- Node4 -->
<g id="Node000004" class="node">
<title>Node4</title>
<g id="a_Node000004"><a xlink:title=" ">
<polygon fill="#e0e0e0" stroke="#999999" points="156.38,-384.5 116.38,-384.5 116.38,-365.25 156.38,-365.25 156.38,-384.5"/>
<text text-anchor="middle" x="136.38" y="-370.05" font-family="Helvetica,sans-Serif" font-size="11.00">utility</text>
</a>
</g>
</g>
<!-- Node1&#45;&gt;Node4 -->
<g id="edge3_Node000001_Node000004" class="edge">
<title>Node1&#45;&gt;Node4</title>
<g id="a_edge3_Node000001_Node000004"><a xlink:title=" ">
<path fill="none" stroke="#63b8ff" d="M164.76,-420.33C160.26,-413.28 153.79,-403.15 148.16,-394.33"/>
<polygon fill="#63b8ff" stroke="#63b8ff" points="151.26,-392.68 142.93,-386.13 145.36,-396.45 151.26,-392.68"/>
</a>
</g>
</g>
<!-- Node5 -->
<g id="Node000005" class="node">
<title>Node5</title>
<g id="a_Node000005"><a xlink:title=" ">
<polygon fill="#e0e0e0" stroke="#999999" points="234.5,-384.5 174.25,-384.5 174.25,-365.25 234.5,-365.25 234.5,-384.5"/>
<text text-anchor="middle" x="204.38" y="-370.05" font-family="Helvetica,sans-Serif" font-size="11.00">algorithm</text>
</a>
</g>
</g>
<!-- Node1&#45;&gt;Node5 -->
<g id="edge4_Node000001_Node000005" class="edge">
<title>Node1&#45;&gt;Node5</title>
<g id="a_edge4_Node000001_Node000005"><a xlink:title=" ">
<path fill="none" stroke="#63b8ff" d="M175.99,-420.33C180.49,-413.28 186.96,-403.15 192.59,-394.33"/>
<polygon fill="#63b8ff" stroke="#63b8ff" points="195.39,-396.45 197.82,-386.13 189.49,-392.68 195.39,-396.45"/>
</a>
</g>
</g>
<!-- Node6 -->
<g id="Node000006" class="node">
<title>Node6</title>
<g id="a_Node000006"><a xlink:href="length_8h.html" target="_top" xlink:title="A one&#45;dimensional distance with associated unit of measurement.">
<polygon fill="white" stroke="#666666" points="368.62,-384.5 252.12,-384.5 252.12,-365.25 368.62,-365.25 368.62,-384.5"/>
<text text-anchor="middle" x="310.38" y="-370.05" font-family="Helvetica,sans-Serif" font-size="11.00">floppy/euclid/length.h</text>
</a>
</g>
</g>
<!-- Node1&#45;&gt;Node6 -->
<g id="edge5_Node000001_Node000006" class="edge">
<title>Node1&#45;&gt;Node6</title>
<g id="a_edge5_Node000001_Node000006"><a xlink:title=" ">
<path fill="none" stroke="#63b8ff" d="M194.12,-420.09C216.55,-411.56 250.44,-398.67 275.85,-389.01"/>
<polygon fill="#63b8ff" stroke="#63b8ff" points="276.99,-392.32 285.09,-385.49 274.5,-385.77 276.99,-392.32"/>
</a>
</g>
</g>
<!-- Node32 -->
<g id="Node000032" class="node">
<title>Node32</title>
<g id="a_Node000032"><a xlink:href="nt__traits_8h.html" target="_top" xlink:title=" ">
<polygon fill="white" stroke="#666666" points="410.25,-274 306.5,-274 306.5,-243.5 410.25,-243.5 410.25,-274"/>
<text text-anchor="start" x="314.5" y="-259.55" font-family="Helvetica,sans-Serif" font-size="11.00">floppy/euclid/detail</text>
<text text-anchor="middle" x="358.38" y="-248.3" font-family="Helvetica,sans-Serif" font-size="11.00">/nt_traits.h</text>
</a>
</g>
</g>
<!-- Node1&#45;&gt;Node32 -->
<g id="edge41_Node000001_Node000032" class="edge">
<title>Node1&#45;&gt;Node32</title>
<g id="a_edge41_Node000001_Node000032"><a xlink:title=" ">
<path fill="none" stroke="#63b8ff" d="M208.33,-426.51C262.17,-421.91 356.53,-410.31 377.38,-384.5 400.34,-356.06 385.3,-311.7 372.04,-284.25"/>
<polygon fill="#63b8ff" stroke="#63b8ff" points="375.3,-282.95 367.63,-275.64 369.07,-286.14 375.3,-282.95"/>
</a>
</g>
</g>
<!-- Node7 -->
<g id="Node000007" class="node">
<title>Node7</title>
<g id="a_Node000007"><a xlink:href="scale_8h.html" target="_top" xlink:title="A scaling factor between two different units of measurement.">
<polygon fill="white" stroke="#666666" points="330.38,-329.25 218.38,-329.25 218.38,-310 330.38,-310 330.38,-329.25"/>
<text text-anchor="middle" x="274.38" y="-314.8" font-family="Helvetica,sans-Serif" font-size="11.00">floppy/euclid/scale.h</text>
</a>
</g>
</g>
<!-- Node6&#45;&gt;Node7 -->
<g id="edge6_Node000006_Node000007" class="edge">
<title>Node6&#45;&gt;Node7</title>
<g id="a_edge6_Node000006_Node000007"><a xlink:title=" ">
<path fill="none" stroke="#63b8ff" d="M304.43,-365.08C299.66,-358.03 292.81,-347.9 286.85,-339.08"/>
<polygon fill="#63b8ff" stroke="#63b8ff" points="289.8,-337.19 281.3,-330.86 284,-341.11 289.8,-337.19"/>
</a>
</g>
</g>
<!-- Node6&#45;&gt;Node32 -->
<g id="edge40_Node000006_Node000032" class="edge">
<title>Node6&#45;&gt;Node32</title>
<g id="a_edge40_Node000006_Node000032"><a xlink:title=" ">
<path fill="none" stroke="#63b8ff" d="M317.49,-364.79C324,-356.1 333.48,-342.4 339.38,-329.25 345.67,-315.21 350.3,-298.63 353.41,-285.18"/>
<polygon fill="#63b8ff" stroke="#63b8ff" points="356.75,-286.3 355.44,-275.79 349.91,-284.82 356.75,-286.3"/>
</a>
</g>
</g>
<!-- Node8 -->
<g id="Node000008" class="node">
<title>Node8</title>
<g id="a_Node000008"><a xlink:href="math_8h_source.html" target="_top" xlink:title=" ">
<polygon fill="white" stroke="#666666" points="297.88,-207.5 188.88,-207.5 188.88,-188.25 297.88,-188.25 297.88,-207.5"/>
<text text-anchor="middle" x="243.38" y="-193.05" font-family="Helvetica,sans-Serif" font-size="11.00">floppy/detail/math.h</text>
</a>
</g>
</g>
<!-- Node7&#45;&gt;Node8 -->
<g id="edge7_Node000007_Node000008" class="edge">
<title>Node7&#45;&gt;Node8</title>
<g id="a_edge7_Node000007_Node000008"><a xlink:title=" ">
<path fill="none" stroke="#63b8ff" d="M272.04,-309.62C267.09,-290.47 255.38,-245.26 248.56,-218.9"/>
<polygon fill="#63b8ff" stroke="#63b8ff" points="252.01,-218.25 246.11,-209.45 245.23,-220 252.01,-218.25"/>
</a>
</g>
</g>
<!-- Node26 -->
<g id="Node000026" class="node">
<title>Node26</title>
<g id="a_Node000026"><a xlink:href="traits_8h_source.html" target="_top" xlink:title=" ">
<polygon fill="white" stroke="#666666" points="672.25,-207.5 592.5,-207.5 592.5,-188.25 672.25,-188.25 672.25,-207.5"/>
<text text-anchor="middle" x="632.38" y="-193.05" font-family="Helvetica,sans-Serif" font-size="11.00">floppy/traits.h</text>
</a>
</g>
</g>
<!-- Node7&#45;&gt;Node26 -->
<g id="edge27_Node000007_Node000026" class="edge">
<title>Node7&#45;&gt;Node26</title>
<g id="a_edge27_Node000007_Node000026"><a xlink:title=" ">
<path fill="none" stroke="#63b8ff" d="M274.23,-309.56C274.51,-293.52 277.6,-260.26 297.38,-243.5 339.07,-208.16 497.47,-200.63 580.65,-199.14"/>
<polygon fill="#63b8ff" stroke="#63b8ff" points="580.66,-202.64 590.6,-198.99 580.55,-195.64 580.66,-202.64"/>
</a>
</g>
</g>
<!-- Node7&#45;&gt;Node32 -->
<g id="edge37_Node000007_Node000032" class="edge">
<title>Node7&#45;&gt;Node32</title>
<g id="a_edge37_Node000007_Node000032"><a xlink:title=" ">
<path fill="none" stroke="#63b8ff" d="M287.13,-309.68C298.02,-302.05 314.12,-290.77 328.25,-280.86"/>
<polygon fill="#63b8ff" stroke="#63b8ff" points="330.22,-283.76 336.4,-275.15 326.2,-278.02 330.22,-283.76"/>
</a>
</g>
</g>
<!-- Node9 -->
<g id="Node000009" class="node">
<title>Node9</title>
<g id="a_Node000009"><a xlink:title=" ">
<polygon fill="#e0e0e0" stroke="#999999" points="64,-146.62 18.75,-146.62 18.75,-127.38 64,-127.38 64,-146.62"/>
<text text-anchor="middle" x="41.38" y="-132.18" font-family="Helvetica,sans-Serif" font-size="11.00">cmath</text>
</a>
</g>
</g>
<!-- Node8&#45;&gt;Node9 -->
<g id="edge8_Node000008_Node000009" class="edge">
<title>Node8&#45;&gt;Node9</title>
<g id="a_edge8_Node000008_Node000009"><a xlink:title=" ">
<path fill="none" stroke="#63b8ff" d="M201.24,-187.82C166.48,-179.88 116.13,-167.27 73.38,-152.25 72.58,-151.97 71.78,-151.68 70.97,-151.38"/>
<polygon fill="#63b8ff" stroke="#63b8ff" points="72.44,-148.2 61.86,-147.67 69.81,-154.69 72.44,-148.2"/>
</a>
</g>
</g>
<!-- Node10 -->
<g id="Node000010" class="node">
<title>Node10</title>
<g id="a_Node000010"><a xlink:title=" ">
<polygon fill="#e0e0e0" stroke="#999999" points="122.38,-146.62 82.38,-146.62 82.38,-127.38 122.38,-127.38 122.38,-146.62"/>
<text text-anchor="middle" x="102.38" y="-132.18" font-family="Helvetica,sans-Serif" font-size="11.00">limits</text>
</a>
</g>
</g>
<!-- Node8&#45;&gt;Node10 -->
<g id="edge9_Node000008_Node000010" class="edge">
<title>Node8&#45;&gt;Node10</title>
<g id="a_edge9_Node000008_Node000010"><a xlink:title=" ">
<path fill="none" stroke="#63b8ff" d="M219.12,-187.83C196.28,-179.17 161.22,-165.5 131.38,-152.25 131.15,-152.15 130.93,-152.05 130.7,-151.95"/>
<polygon fill="#63b8ff" stroke="#63b8ff" points="132.28,-148.83 121.74,-147.75 129.31,-155.17 132.28,-148.83"/>
</a>
</g>
</g>
<!-- Node11 -->
<g id="Node000011" class="node">
<title>Node11</title>
<g id="a_Node000011"><a xlink:title=" ">
<polygon fill="#e0e0e0" stroke="#999999" points="198.38,-146.62 140.38,-146.62 140.38,-127.38 198.38,-127.38 198.38,-146.62"/>
<text text-anchor="middle" x="169.38" y="-132.18" font-family="Helvetica,sans-Serif" font-size="11.00">numbers</text>
</a>
</g>
</g>
<!-- Node8&#45;&gt;Node11 -->
<g id="edge10_Node000008_Node000011" class="edge">
<title>Node8&#45;&gt;Node11</title>
<g id="a_edge10_Node000008_Node000011"><a xlink:title=" ">
<path fill="none" stroke="#63b8ff" d="M232.14,-187.93C220.84,-178.94 203.17,-164.89 189.46,-153.98"/>
<polygon fill="#63b8ff" stroke="#63b8ff" points="191.91,-151.46 181.9,-147.97 187.55,-156.93 191.91,-151.46"/>
</a>
</g>
</g>
<!-- Node12 -->
<g id="Node000012" class="node">
<title>Node12</title>
<g id="a_Node000012"><a xlink:title=" ">
<polygon fill="#e0e0e0" stroke="#999999" points="274.38,-146.62 216.38,-146.62 216.38,-127.38 274.38,-127.38 274.38,-146.62"/>
<text text-anchor="middle" x="245.38" y="-132.18" font-family="Helvetica,sans-Serif" font-size="11.00">compare</text>
</a>
</g>
</g>
<!-- Node8&#45;&gt;Node12 -->
<g id="edge11_Node000008_Node000012" class="edge">
<title>Node8&#45;&gt;Node12</title>
<g id="a_edge11_Node000008_Node000012"><a xlink:title=" ">
<path fill="none" stroke="#63b8ff" d="M243.68,-187.93C243.95,-180.07 244.34,-168.32 244.69,-158.2"/>
<polygon fill="#63b8ff" stroke="#63b8ff" points="248.18,-158.65 245.02,-148.54 241.18,-158.41 248.18,-158.65"/>
</a>
</g>
</g>
<!-- Node13 -->
<g id="Node000013" class="node">
<title>Node13</title>
<g id="a_Node000013"><a xlink:href="export_8h_source.html" target="_top" xlink:title=" ">
<polygon fill="white" stroke="#666666" points="556.88,-146.62 441.88,-146.62 441.88,-127.38 556.88,-127.38 556.88,-146.62"/>
<text text-anchor="middle" x="499.38" y="-132.18" font-family="Helvetica,sans-Serif" font-size="11.00">floppy/detail/export.h</text>
</a>
</g>
</g>
<!-- Node8&#45;&gt;Node13 -->
<g id="edge12_Node000008_Node000013" class="edge">
<title>Node8&#45;&gt;Node13</title>
<g id="a_edge12_Node000008_Node000013"><a xlink:title=" ">
<path fill="none" stroke="#63b8ff" d="M282.81,-187.8C327.44,-177.54 400.25,-160.8 448.97,-149.59"/>
<polygon fill="#63b8ff" stroke="#63b8ff" points="449.46,-153.07 458.42,-147.42 447.89,-146.25 449.46,-153.07"/>
</a>
</g>
</g>
<!-- Node18 -->
<g id="Node000018" class="node">
<title>Node18</title>
<g id="a_Node000018"><a xlink:href="concepts_8h_source.html" target="_top" xlink:title=" ">
<polygon fill="white" stroke="#666666" points="420.25,-146.62 292.5,-146.62 292.5,-127.38 420.25,-127.38 420.25,-146.62"/>
<text text-anchor="middle" x="356.38" y="-132.18" font-family="Helvetica,sans-Serif" font-size="11.00">floppy/detail/concepts.h</text>
</a>
</g>
</g>
<!-- Node8&#45;&gt;Node18 -->
<g id="edge17_Node000008_Node000018" class="edge">
<title>Node8&#45;&gt;Node18</title>
<g id="a_edge17_Node000008_Node000018"><a xlink:title=" ">
<path fill="none" stroke="#63b8ff" d="M260.54,-187.93C278.71,-178.47 307.65,-163.39 328.98,-152.27"/>
<polygon fill="#63b8ff" stroke="#63b8ff" points="330.46,-155.45 337.71,-147.73 327.22,-149.24 330.46,-155.45"/>
</a>
</g>
</g>
<!-- Node14 -->
<g id="Node000014" class="node">
<title>Node14</title>
<g id="a_Node000014"><a xlink:title=" ">
<polygon fill="#e0e0e0" stroke="#999999" points="471.5,-80.12 429.25,-80.12 429.25,-60.88 471.5,-60.88 471.5,-80.12"/>
<text text-anchor="middle" x="450.38" y="-65.67" font-family="Helvetica,sans-Serif" font-size="11.00">string</text>
</a>
</g>
</g>
<!-- Node13&#45;&gt;Node14 -->
<g id="edge13_Node000013_Node000014" class="edge">
<title>Node13&#45;&gt;Node14</title>
<g id="a_edge13_Node000013_Node000014"><a xlink:title=" ">
<path fill="none" stroke="#63b8ff" d="M492.56,-127.03C485.17,-117.31 473.19,-101.54 463.89,-89.28"/>
<polygon fill="#63b8ff" stroke="#63b8ff" points="466.88,-87.44 458.05,-81.6 461.31,-91.68 466.88,-87.44"/>
</a>
</g>
</g>
<!-- Node15 -->
<g id="Node000015" class="node">
<title>Node15</title>
<g id="a_Node000015"><a xlink:title=" ">
<polygon fill="#e0e0e0" stroke="#999999" points="673.38,-80.12 603.38,-80.12 603.38,-60.88 673.38,-60.88 673.38,-80.12"/>
<text text-anchor="middle" x="638.38" y="-65.67" font-family="Helvetica,sans-Serif" font-size="11.00">string_view</text>
</a>
</g>
</g>
<!-- Node13&#45;&gt;Node15 -->
<g id="edge14_Node000013_Node000015" class="edge">
<title>Node13&#45;&gt;Node15</title>
<g id="a_edge14_Node000013_Node000015"><a xlink:title=" ">
<path fill="none" stroke="#63b8ff" d="M519,-126.9C542.28,-116.09 581.35,-97.96 608.42,-85.4"/>
<polygon fill="#63b8ff" stroke="#63b8ff" points="609.88,-88.58 617.48,-81.2 606.94,-82.23 609.88,-88.58"/>
</a>
</g>
</g>
<!-- Node16 -->
<g id="Node000016" class="node">
<title>Node16</title>
<g id="a_Node000016"><a xlink:title=" ">
<polygon fill="#e0e0e0" stroke="#999999" points="585,-80.12 527.75,-80.12 527.75,-60.88 585,-60.88 585,-80.12"/>
<text text-anchor="middle" x="556.38" y="-65.67" font-family="Helvetica,sans-Serif" font-size="11.00">iostream</text>
</a>
</g>
</g>
<!-- Node13&#45;&gt;Node16 -->
<g id="edge15_Node000013_Node000016" class="edge">
<title>Node13&#45;&gt;Node16</title>
<g id="a_edge15_Node000013_Node000016"><a xlink:title=" ">
<path fill="none" stroke="#63b8ff" d="M507.3,-127.03C515.98,-117.21 530.11,-101.23 540.98,-88.92"/>
<polygon fill="#63b8ff" stroke="#63b8ff" points="543.52,-91.34 547.51,-81.53 538.27,-86.7 543.52,-91.34"/>
</a>
</g>
</g>
<!-- Node17 -->
<g id="Node000017" class="node">
<title>Node17</title>
<g id="a_Node000017"><a xlink:title=" ">
<polygon fill="#e0e0e0" stroke="#999999" points="539.25,-19.25 465.5,-19.25 465.5,0 539.25,0 539.25,-19.25"/>
<text text-anchor="middle" x="502.38" y="-4.8" font-family="Helvetica,sans-Serif" font-size="11.00">fmt/format.h</text>
</a>
</g>
</g>
<!-- Node13&#45;&gt;Node17 -->
<g id="edge16_Node000013_Node000017" class="edge">
<title>Node13&#45;&gt;Node17</title>
<g id="a_edge16_Node000013_Node000017"><a xlink:title=" ">
<path fill="none" stroke="#63b8ff" d="M499.59,-126.98C500.07,-107.01 501.23,-58.64 501.89,-30.96"/>
<polygon fill="#63b8ff" stroke="#63b8ff" points="505.38,-31.15 502.12,-21.07 498.39,-30.99 505.38,-31.15"/>
</a>
</g>
</g>
<!-- Node19 -->
<g id="Node000019" class="node">
<title>Node19</title>
<g id="a_Node000019"><a xlink:title=" ">
<polygon fill="#e0e0e0" stroke="#999999" points="282.75,-80.12 224,-80.12 224,-60.88 282.75,-60.88 282.75,-80.12"/>
<text text-anchor="middle" x="253.38" y="-65.67" font-family="Helvetica,sans-Serif" font-size="11.00">concepts</text>
</a>
</g>
</g>
<!-- Node18&#45;&gt;Node19 -->
<g id="edge18_Node000018_Node000019" class="edge">
<title>Node18&#45;&gt;Node19</title>
<g id="a_edge18_Node000018_Node000019"><a xlink:title=" ">
<path fill="none" stroke="#63b8ff" d="M342.05,-127.03C325.39,-116.6 297.61,-99.2 277.58,-86.65"/>
<polygon fill="#63b8ff" stroke="#63b8ff" points="279.52,-83.74 269.19,-81.4 275.81,-89.68 279.52,-83.74"/>
</a>
</g>
</g>
<!-- Node20 -->
<g id="Node000020" class="node">
<title>Node20</title>
<g id="a_Node000020"><a xlink:href="type__traits_8h_source.html" target="_top" xlink:title=" ">
<polygon fill="white" stroke="#666666" points="205.5,-85.75 109.25,-85.75 109.25,-55.25 205.5,-55.25 205.5,-85.75"/>
<text text-anchor="start" x="117.25" y="-71.3" font-family="Helvetica,sans-Serif" font-size="11.00">floppy/detail/type</text>
<text text-anchor="middle" x="157.38" y="-60.05" font-family="Helvetica,sans-Serif" font-size="11.00">_traits.h</text>
</a>
</g>
</g>
<!-- Node18&#45;&gt;Node20 -->
<g id="edge19_Node000018_Node000020" class="edge">
<title>Node18&#45;&gt;Node20</title>
<g id="a_edge19_Node000018_Node000020"><a xlink:title=" ">
<path fill="none" stroke="#63b8ff" d="M328.29,-126.9C298.54,-117.26 250.81,-101.78 213.34,-89.64"/>
<polygon fill="#63b8ff" stroke="#63b8ff" points="214.6,-86.37 204.01,-86.62 212.44,-93.03 214.6,-86.37"/>
</a>
</g>
</g>
<!-- Node22 -->
<g id="Node000022" class="node">
<title>Node22</title>
<g id="a_Node000022"><a xlink:href="types_8h_source.html" target="_top" xlink:title=" ">
<polygon fill="white" stroke="#666666" points="411.62,-80.12 301.12,-80.12 301.12,-60.88 411.62,-60.88 411.62,-80.12"/>
<text text-anchor="middle" x="356.38" y="-65.67" font-family="Helvetica,sans-Serif" font-size="11.00">floppy/detail/types.h</text>
</a>
</g>
</g>
<!-- Node18&#45;&gt;Node22 -->
<g id="edge21_Node000018_Node000022" class="edge">
<title>Node18&#45;&gt;Node22</title>
<g id="a_edge21_Node000018_Node000022"><a xlink:title=" ">
<path fill="none" stroke="#63b8ff" d="M356.38,-127.03C356.38,-117.98 356.38,-103.7 356.38,-91.88"/>
<polygon fill="#63b8ff" stroke="#63b8ff" points="359.88,-91.91 356.38,-81.91 352.88,-91.91 359.88,-91.91"/>
</a>
</g>
</g>
<!-- Node21 -->
<g id="Node000021" class="node">
<title>Node21</title>
<g id="a_Node000021"><a xlink:title=" ">
<polygon fill="#e0e0e0" stroke="#999999" points="218.12,-19.25 152.62,-19.25 152.62,0 218.12,0 218.12,-19.25"/>
<text text-anchor="middle" x="185.38" y="-4.8" font-family="Helvetica,sans-Serif" font-size="11.00">type_traits</text>
</a>
</g>
</g>
<!-- Node20&#45;&gt;Node21 -->
<g id="edge20_Node000020_Node000021" class="edge">
<title>Node20&#45;&gt;Node21</title>
<g id="a_edge20_Node000020_Node000021"><a xlink:title=" ">
<path fill="none" stroke="#63b8ff" d="M164.3,-54.95C167.86,-47.45 172.26,-38.2 176.12,-30.1"/>
<polygon fill="#63b8ff" stroke="#63b8ff" points="179.27,-31.6 180.41,-21.07 172.95,-28.6 179.27,-31.6"/>
</a>
</g>
</g>
<!-- Node22&#45;&gt;Node17 -->
<g id="edge26_Node000022_Node000017" class="edge">
<title>Node22&#45;&gt;Node17</title>
<g id="a_edge26_Node000022_Node000017"><a xlink:title=" ">
<path fill="none" stroke="#63b8ff" d="M378.87,-60.43C403.16,-50.63 442.09,-34.94 469.74,-23.79"/>
<polygon fill="#63b8ff" stroke="#63b8ff" points="470.73,-27.16 478.69,-20.17 468.11,-20.67 470.73,-27.16"/>
</a>
</g>
</g>
<!-- Node22&#45;&gt;Node21 -->
<g id="edge25_Node000022_Node000021" class="edge">
<title>Node22&#45;&gt;Node21</title>
<g id="a_edge25_Node000022_Node000021"><a xlink:title=" ">
<path fill="none" stroke="#63b8ff" d="M330.03,-60.43C301.29,-50.53 255.04,-34.61 222.6,-23.44"/>
<polygon fill="#63b8ff" stroke="#63b8ff" points="223.77,-20.14 213.18,-20.2 221.5,-26.76 223.77,-20.14"/>
</a>
</g>
</g>
<!-- Node23 -->
<g id="Node000023" class="node">
<title>Node23</title>
<g id="a_Node000023"><a xlink:title=" ">
<polygon fill="#e0e0e0" stroke="#999999" points="447.62,-19.25 397.12,-19.25 397.12,0 447.62,0 447.62,-19.25"/>
<text text-anchor="middle" x="422.38" y="-4.8" font-family="Helvetica,sans-Serif" font-size="11.00">cstddef</text>
</a>
</g>
</g>
<!-- Node22&#45;&gt;Node23 -->
<g id="edge22_Node000022_Node000023" class="edge">
<title>Node22&#45;&gt;Node23</title>
<g id="a_edge22_Node000022_Node000023"><a xlink:title=" ">
<path fill="none" stroke="#63b8ff" d="M366.4,-60.56C376.28,-51.74 391.63,-38.05 403.76,-27.23"/>
<polygon fill="#63b8ff" stroke="#63b8ff" points="405.99,-29.93 411.13,-20.66 401.33,-24.7 405.99,-29.93"/>
</a>
</g>
</g>
<!-- Node24 -->
<g id="Node000024" class="node">
<title>Node24</title>
<g id="a_Node000024"><a xlink:title=" ">
<polygon fill="#e0e0e0" stroke="#999999" points="307.75,-19.25 261,-19.25 261,0 307.75,0 307.75,-19.25"/>
<text text-anchor="middle" x="284.38" y="-4.8" font-family="Helvetica,sans-Serif" font-size="11.00">cstdint</text>
</a>
</g>
</g>
<!-- Node22&#45;&gt;Node24 -->
<g id="edge23_Node000022_Node000024" class="edge">
<title>Node22&#45;&gt;Node24</title>
<g id="a_edge23_Node000022_Node000024"><a xlink:title=" ">
<path fill="none" stroke="#63b8ff" d="M345.44,-60.56C334.55,-51.65 317.59,-37.78 304.3,-26.92"/>
<polygon fill="#63b8ff" stroke="#63b8ff" points="306.54,-24.23 296.58,-20.61 302.11,-29.65 306.54,-24.23"/>
</a>
</g>
</g>
<!-- Node25 -->
<g id="Node000025" class="node">
<title>Node25</title>
<g id="a_Node000025"><a xlink:title=" ">
<polygon fill="#e0e0e0" stroke="#999999" points="379.12,-19.25 325.62,-19.25 325.62,0 379.12,0 379.12,-19.25"/>
<text text-anchor="middle" x="352.38" y="-4.8" font-family="Helvetica,sans-Serif" font-size="11.00">optional</text>
</a>
</g>
</g>
<!-- Node22&#45;&gt;Node25 -->
<g id="edge24_Node000022_Node000025" class="edge">
<title>Node22&#45;&gt;Node25</title>
<g id="a_edge24_Node000022_Node000025"><a xlink:title=" ">
<path fill="none" stroke="#63b8ff" d="M355.77,-60.56C355.23,-52.69 354.44,-40.95 353.75,-30.82"/>
<polygon fill="#63b8ff" stroke="#63b8ff" points="357.26,-30.9 353.09,-21.16 350.28,-31.38 357.26,-30.9"/>
</a>
</g>
</g>
<!-- Node26&#45;&gt;Node13 -->
<g id="edge31_Node000026_Node000013" class="edge">
<title>Node26&#45;&gt;Node13</title>
<g id="a_edge31_Node000026_Node000013"><a xlink:title=" ">
<path fill="none" stroke="#63b8ff" d="M611.89,-187.8C590.05,-178.14 555.24,-162.73 530.11,-151.61"/>
<polygon fill="#63b8ff" stroke="#63b8ff" points="531.61,-148.44 521.05,-147.6 528.78,-154.84 531.61,-148.44"/>
</a>
</g>
</g>
<!-- Node26&#45;&gt;Node16 -->
<g id="edge29_Node000026_Node000016" class="edge">
<title>Node26&#45;&gt;Node16</title>
<g id="a_edge29_Node000026_Node000016"><a xlink:title=" ">
<path fill="none" stroke="#63b8ff" d="M626.73,-188.02C621.03,-179.05 612,-164.74 604.38,-152.25 591.4,-131.01 576.84,-106.41 567.2,-89.99"/>
<polygon fill="#63b8ff" stroke="#63b8ff" points="570.48,-88.66 562.4,-81.81 564.44,-92.21 570.48,-88.66"/>
</a>
</g>
</g>
<!-- Node27 -->
<g id="Node000027" class="node">
<title>Node27</title>
<g id="a_Node000027"><a xlink:title=" ">
<polygon fill="#e0e0e0" stroke="#999999" points="819.88,-146.62 764.88,-146.62 764.88,-127.38 819.88,-127.38 819.88,-146.62"/>
<text text-anchor="middle" x="792.38" y="-132.18" font-family="Helvetica,sans-Serif" font-size="11.00">memory</text>
</a>
</g>
</g>
<!-- Node26&#45;&gt;Node27 -->
<g id="edge28_Node000026_Node000027" class="edge">
<title>Node26&#45;&gt;Node27</title>
<g id="a_edge28_Node000026_Node000027"><a xlink:title=" ">
<path fill="none" stroke="#63b8ff" d="M658.11,-187.88C683.25,-179.03 722.56,-165.02 756.38,-152.25 757.34,-151.89 758.31,-151.52 759.3,-151.14"/>
<polygon fill="#63b8ff" stroke="#63b8ff" points="760.48,-154.43 768.54,-147.55 757.95,-147.91 760.48,-154.43"/>
</a>
</g>
</g>
<!-- Node28 -->
<g id="Node000028" class="node">
<title>Node28</title>
<g id="a_Node000028"><a xlink:title=" ">
<polygon fill="#e0e0e0" stroke="#999999" points="967,-152.25 837.75,-152.25 837.75,-121.75 967,-121.75 967,-152.25"/>
<text text-anchor="start" x="845.75" y="-137.8" font-family="Helvetica,sans-Serif" font-size="11.00">experimental/propagate</text>
<text text-anchor="middle" x="902.38" y="-126.55" font-family="Helvetica,sans-Serif" font-size="11.00">_const</text>
</a>
</g>
</g>
<!-- Node26&#45;&gt;Node28 -->
<g id="edge30_Node000026_Node000028" class="edge">
<title>Node26&#45;&gt;Node28</title>
<g id="a_edge30_Node000026_Node000028"><a xlink:title=" ">
<path fill="none" stroke="#63b8ff" d="M672.51,-188.12C712.93,-179.31 776.31,-165.49 826.28,-154.59"/>
<polygon fill="#63b8ff" stroke="#63b8ff" points="826.87,-158.05 835.9,-152.5 825.38,-151.21 826.87,-158.05"/>
</a>
</g>
</g>
<!-- Node29 -->
<g id="Node000029" class="node">
<title>Node29</title>
<g id="a_Node000029"><a xlink:href="formatters_8h_source.html" target="_top" xlink:title=" ">
<polygon fill="white" stroke="#666666" points="747.25,-146.62 613.5,-146.62 613.5,-127.38 747.25,-127.38 747.25,-146.62"/>
<text text-anchor="middle" x="680.38" y="-132.18" font-family="Helvetica,sans-Serif" font-size="11.00">floppy/detail/formatters.h</text>
</a>
</g>
</g>
<!-- Node26&#45;&gt;Node29 -->
<g id="edge32_Node000026_Node000029" class="edge">
<title>Node26&#45;&gt;Node29</title>
<g id="a_edge32_Node000026_Node000029"><a xlink:title=" ">
<path fill="none" stroke="#63b8ff" d="M639.67,-187.93C646.57,-179.46 657.15,-166.49 665.79,-155.89"/>
<polygon fill="#63b8ff" stroke="#63b8ff" points="668.45,-158.16 672.06,-148.2 663.03,-153.74 668.45,-158.16"/>
</a>
</g>
</g>
<!-- Node29&#45;&gt;Node15 -->
<g id="edge33_Node000029_Node000015" class="edge">
<title>Node29&#45;&gt;Node15</title>
<g id="a_edge33_Node000029_Node000015"><a xlink:title=" ">
<path fill="none" stroke="#63b8ff" d="M674.54,-127.03C668.33,-117.5 658.34,-102.16 650.43,-90.02"/>
<polygon fill="#63b8ff" stroke="#63b8ff" points="653.38,-88.13 644.99,-81.66 647.51,-91.95 653.38,-88.13"/>
</a>
</g>
</g>
<!-- Node29&#45;&gt;Node17 -->
<g id="edge36_Node000029_Node000017" class="edge">
<title>Node29&#45;&gt;Node17</title>
<g id="a_edge36_Node000029_Node000017"><a xlink:title=" ">
<path fill="none" stroke="#63b8ff" d="M697.32,-126.99C723.33,-112.02 767.94,-81.12 746.38,-55.25 721.97,-25.98 614.69,-15.85 550.79,-12.39"/>
<polygon fill="#63b8ff" stroke="#63b8ff" points="551.06,-8.9 540.9,-11.89 550.71,-15.89 551.06,-8.9"/>
</a>
</g>
</g>
<!-- Node30 -->
<g id="Node000030" class="node">
<title>Node30</title>
<g id="a_Node000030"><a xlink:title=" ">
<polygon fill="#e0e0e0" stroke="#999999" points="847.5,-80.12 793.25,-80.12 793.25,-60.88 847.5,-60.88 847.5,-80.12"/>
<text text-anchor="middle" x="820.38" y="-65.67" font-family="Helvetica,sans-Serif" font-size="11.00">sstream</text>
</a>
</g>
</g>
<!-- Node29&#45;&gt;Node30 -->
<g id="edge34_Node000029_Node000030" class="edge">
<title>Node29&#45;&gt;Node30</title>
<g id="a_edge34_Node000029_Node000030"><a xlink:title=" ">
<path fill="none" stroke="#63b8ff" d="M700.14,-126.9C723.69,-116.04 763.29,-97.8 790.57,-85.23"/>
<polygon fill="#63b8ff" stroke="#63b8ff" points="791.72,-88.55 799.34,-81.19 788.79,-82.2 791.72,-88.55"/>
</a>
</g>
</g>
<!-- Node31 -->
<g id="Node000031" class="node">
<title>Node31</title>
<g id="a_Node000031"><a xlink:title=" ">
<polygon fill="#e0e0e0" stroke="#999999" points="737.75,-80.12 691,-80.12 691,-60.88 737.75,-60.88 737.75,-80.12"/>
<text text-anchor="middle" x="714.38" y="-65.67" font-family="Helvetica,sans-Serif" font-size="11.00">iosfwd</text>
</a>
</g>
</g>
<!-- Node29&#45;&gt;Node31 -->
<g id="edge35_Node000029_Node000031" class="edge">
<title>Node29&#45;&gt;Node31</title>
<g id="a_edge35_Node000029_Node000031"><a xlink:title=" ">
<path fill="none" stroke="#63b8ff" d="M685.1,-127.03C690.08,-117.6 698.05,-102.47 704.42,-90.38"/>
<polygon fill="#63b8ff" stroke="#63b8ff" points="707.41,-92.21 708.98,-81.73 701.22,-88.95 707.41,-92.21"/>
</a>
</g>
</g>
<!-- Node32&#45;&gt;Node8 -->
<g id="edge38_Node000032_Node000008" class="edge">
<title>Node32&#45;&gt;Node8</title>
<g id="a_edge38_Node000032_Node000008"><a xlink:title=" ">
<path fill="none" stroke="#63b8ff" d="M329.65,-243.05C311.63,-233.82 288.54,-222 270.77,-212.9"/>
<polygon fill="#63b8ff" stroke="#63b8ff" points="272.85,-210.04 262.36,-208.59 269.66,-216.27 272.85,-210.04"/>
</a>
</g>
</g>
<!-- Node32&#45;&gt;Node18 -->
<g id="edge39_Node000032_Node000018" class="edge">
<title>Node32&#45;&gt;Node18</title>
<g id="a_edge39_Node000032_Node000018"><a xlink:title=" ">
<path fill="none" stroke="#63b8ff" d="M358.13,-243.07C357.77,-221.78 357.11,-182.29 356.71,-158.26"/>
<polygon fill="#63b8ff" stroke="#63b8ff" points="360.22,-158.44 356.55,-148.5 353.22,-158.56 360.22,-158.44"/>
</a>
</g>
</g>
</g>
</svg>

<g id="navigator" transform="translate(0 0)" fill="#404254">
  <rect fill="#f2f5e9" fill-opacity="0.5" stroke="#606060" stroke-width=".5" x="0" y="0" width="60" height="60"/>
  <use id="zoomplus" xlink:href="#zoomPlus" x="17" y="9" onmousedown="handleZoom(evt,'in')"/>
  <use id="zoomminus" xlink:href="#zoomMin" x="42" y="9" onmousedown="handleZoom(evt,'out')"/>
  <use id="reset" xlink:href="#resetDef" x="30" y="36" onmousedown="handleReset()"/>
   <use id="arrowup" xlink:href="#arrowUp" x="0" y="0" onmousedown="handlePan(0,-1)"/>
  <use id="arrowright" xlink:href="#arrowRight" x="0" y="0" onmousedown="handlePan(1,0)"/>
  <use id="arrowdown" xlink:href="#arrowDown" x="0" y="0" onmousedown="handlePan(0,1)"/>
  <use id="arrowleft" xlink:href="#arrowLeft" x="0" y="0" onmousedown="handlePan(-1,0)"/>
</g>
<svg viewBox="0 0 15 15" width="100%" height="30px" preserveAspectRatio="xMaxYMin meet">
 <g id="arrow_out" transform="scale(0.3 0.3)">
  <a xlink:href="nt__traits2d_8h__incl_org.svg" target="_base">
   <rect id="button" ry="5" rx="5" y="6" x="6" height="38" width="38"
        fill="#f2f5e9" fill-opacity="0.5" stroke="#606060" stroke-width="1.0"/>
   <path id="arrow"
     d="M 11.500037,31.436501 C 11.940474,20.09759 22.043105,11.32322 32.158766,21.979434 L 37.068811,17.246167 C 37.068811,17.246167 37.088388,32 37.088388,32 L 22.160133,31.978069 C 22.160133,31.978069 26.997745,27.140456 26.997745,27.140456 C 18.528582,18.264221 13.291696,25.230495 11.500037,31.436501 z"
     style="fill:#404040;"/>
  </a>
 </g>
</svg>

<style type='text/css'>
<![CDATA[
[data-mouse-over-selected='false'] { opacity: 0.7; }
[data-mouse-over-selected='true']  { opacity: 1.0; }
]]>
</style>
<script type="application/ecmascript"><![CDATA[
document.addEventListener('DOMContentLoaded', (event) => {
  highlightEdges();
  highlightAdjacentNodes();
});
]]></script>
</svg>
