<?xml version="1.0" encoding="UTF-8" standalone="no"?>
<!DOCTYPE svg PUBLIC "-//W3C//DTD SVG 1.1//EN"
 "http://www.w3.org/Graphics/SVG/1.1/DTD/svg11.dtd">
<!-- Generated by graphviz version 10.0.1 (0)
 -->
<!-- Title: nt_traits.h Pages: 1 -->
<!--zoomable 315 -->

<svg id="main" version="1.1" xmlns="http://www.w3.org/2000/svg" xmlns:xlink="http://www.w3.org/1999/xlink" xml:space="preserve" onload="init(evt)">
<style type="text/css"><![CDATA[
.node, .edge {opacity: 0.7;}
.node.selected, .edge.selected {opacity: 1;}
.edge:hover path { stroke: red; }
.edge:hover polygon { stroke: red; fill: red; }
]]></style>

<defs>
  <circle id="rim" cx="0" cy="0" r="7"/>
  <circle id="rim2" cx="0" cy="0" r="3.5"/>
  <g id="zoomPlus">
    <use xlink:href="#rim" fill="#404040"><set attributeName="fill" to="#808080" begin="zoomplus.mouseover" end="zoomplus.mouseout"/></use>
    <path d="M-4,0h8M0,-4v8" fill="none" stroke="white" stroke-width="1.5" pointer-events="none"/>
  </g>
  <g id="zoomMin">
    <use xlink:href="#rim" fill="#404040"><set attributeName="fill" to="#808080" begin="zoomminus.mouseover" end="zoomminus.mouseout"/></use>
    <path d="M-4,0h8" fill="none" stroke="white" stroke-width="1.5" pointer-events="none"/>
  </g>
  <g id="arrowUp" transform="translate(30 24)">
    <use xlink:href="#rim"/>
    <path pointer-events="none" fill="none" stroke="white" stroke-width="1.5" d="M0,-3.0v7 M-2.5,-0.5L0,-3.0L2.5,-0.5"/>
  </g>
  <g id="arrowRight" transform="rotate(90) translate(36 -43)">
    <use xlink:href="#rim"/>
    <path pointer-events="none" fill="none" stroke="white" stroke-width="1.5" d="M0,-3.0v7 M-2.5,-0.5L0,-3.0L2.5,-0.5"/>
  </g>
  <g id="arrowDown" transform="rotate(180) translate(-30 -48)">
    <use xlink:href="#rim"/>
    <path pointer-events="none" fill="none" stroke="white" stroke-width="1.5" d="M0,-3.0v7 M-2.5,-0.5L0,-3.0L2.5,-0.5"/>
  </g>
  <g id="arrowLeft" transform="rotate(270) translate(-36 17)">
    <use xlink:href="#rim"/>
    <path pointer-events="none" fill="none" stroke="white" stroke-width="1.5" d="M0,-3.0v7 M-2.5,-0.5L0,-3.0L2.5,-0.5"/>
  </g>
  <g id="resetDef">
    <use xlink:href="#rim2" fill="#404040"><set attributeName="fill" to="#808080" begin="reset.mouseover" end="reset.mouseout"/></use>
  </g>
</defs>
<script type="application/ecmascript">
var viewWidth = 977;
var viewHeight = 315;
var sectionId = 'dynsection-0';
</script>
<script type="application/ecmascript" xlink:href="svg.min.js"/>
<svg id="graph" class="graph">
<g id="viewport">
<title>nt_traits.h</title>
<!-- Node1 -->
<g id="Node000001" class="node">
<title>Node1</title>
<g id="a_Node000001"><a xlink:title=" ">
<polygon fill="#999999" stroke="#666666" points="591.75,-306.75 528.5,-306.75 528.5,-287.5 591.75,-287.5 591.75,-306.75"/>
<text text-anchor="middle" x="560.12" y="-292.3" font-family="Helvetica,sans-Serif" font-size="11.00">nt_traits.h</text>
</a>
</g>
</g>
<!-- Node2 -->
<g id="Node000002" class="node">
<title>Node2</title>
<g id="a_Node000002"><a xlink:href="math_8h_source.html" target="_top" xlink:title=" ">
<polygon fill="white" stroke="#666666" points="573.62,-251.5 464.62,-251.5 464.62,-232.25 573.62,-232.25 573.62,-251.5"/>
<text text-anchor="middle" x="519.12" y="-237.05" font-family="Helvetica,sans-Serif" font-size="11.00">floppy/detail/math.h</text>
</a>
</g>
</g>
<!-- Node1&#45;&gt;Node2 -->
<g id="edge1_Node000001_Node000002" class="edge">
<title>Node1&#45;&gt;Node2</title>
<g id="a_edge1_Node000001_Node000002"><a xlink:title=" ">
<path fill="none" stroke="#63b8ff" d="M553.35,-287.33C547.81,-280.13 539.78,-269.71 532.9,-260.76"/>
<polygon fill="#63b8ff" stroke="#63b8ff" points="535.84,-258.85 526.97,-253.06 530.29,-263.12 535.84,-258.85"/>
</a>
</g>
</g>
<!-- Node17 -->
<g id="Node000017" class="node">
<title>Node17</title>
<g id="a_Node000017"><a xlink:href="concepts_8h_source.html" target="_top" xlink:title=" ">
<polygon fill="white" stroke="#666666" points="786,-196.25 658.25,-196.25 658.25,-177 786,-177 786,-196.25"/>
<text text-anchor="middle" x="722.12" y="-181.8" font-family="Helvetica,sans-Serif" font-size="11.00">floppy/detail/concepts.h</text>
</a>
</g>
</g>
<!-- Node1&#45;&gt;Node17 -->
<g id="edge32_Node000001_Node000017" class="edge">
<title>Node1&#45;&gt;Node17</title>
<g id="a_edge32_Node000001_Node000017"><a xlink:title=" ">
<path fill="none" stroke="#63b8ff" d="M573.66,-287.06C601.48,-268.43 665.36,-225.65 699.55,-202.75"/>
<polygon fill="#63b8ff" stroke="#63b8ff" points="701.13,-205.9 707.49,-197.43 697.23,-200.09 701.13,-205.9"/>
</a>
</g>
</g>
<!-- Node3 -->
<g id="Node000003" class="node">
<title>Node3</title>
<g id="a_Node000003"><a xlink:title=" ">
<polygon fill="#e0e0e0" stroke="#999999" points="639.75,-196.25 594.5,-196.25 594.5,-177 639.75,-177 639.75,-196.25"/>
<text text-anchor="middle" x="617.12" y="-181.8" font-family="Helvetica,sans-Serif" font-size="11.00">cmath</text>
</a>
</g>
</g>
<!-- Node2&#45;&gt;Node3 -->
<g id="edge2_Node000002_Node000003" class="edge">
<title>Node2&#45;&gt;Node3</title>
<g id="a_edge2_Node000002_Node000003"><a xlink:title=" ">
<path fill="none" stroke="#63b8ff" d="M535.75,-231.84C550.81,-223.66 573.27,-211.46 590.78,-201.94"/>
<polygon fill="#63b8ff" stroke="#63b8ff" points="591.97,-205.27 599.09,-197.43 588.63,-199.12 591.97,-205.27"/>
</a>
</g>
</g>
<!-- Node4 -->
<g id="Node000004" class="node">
<title>Node4</title>
<g id="a_Node000004"><a xlink:title=" ">
<polygon fill="#e0e0e0" stroke="#999999" points="291.12,-196.25 251.12,-196.25 251.12,-177 291.12,-177 291.12,-196.25"/>
<text text-anchor="middle" x="271.12" y="-181.8" font-family="Helvetica,sans-Serif" font-size="11.00">limits</text>
</a>
</g>
</g>
<!-- Node2&#45;&gt;Node4 -->
<g id="edge3_Node000002_Node000004" class="edge">
<title>Node2&#45;&gt;Node4</title>
<g id="a_edge3_Node000002_Node000004"><a xlink:title=" ">
<path fill="none" stroke="#63b8ff" d="M467.95,-231.77C425.82,-223.97 364.33,-211.92 302.14,-196.58"/>
<polygon fill="#63b8ff" stroke="#63b8ff" points="303.36,-193.28 292.81,-194.25 301.67,-200.07 303.36,-193.28"/>
</a>
</g>
</g>
<!-- Node5 -->
<g id="Node000005" class="node">
<title>Node5</title>
<g id="a_Node000005"><a xlink:title=" ">
<polygon fill="#e0e0e0" stroke="#999999" points="367.12,-196.25 309.12,-196.25 309.12,-177 367.12,-177 367.12,-196.25"/>
<text text-anchor="middle" x="338.12" y="-181.8" font-family="Helvetica,sans-Serif" font-size="11.00">numbers</text>
</a>
</g>
</g>
<!-- Node2&#45;&gt;Node5 -->
<g id="edge4_Node000002_Node000005" class="edge">
<title>Node2&#45;&gt;Node5</title>
<g id="a_edge4_Node000002_Node000005"><a xlink:title=" ">
<path fill="none" stroke="#63b8ff" d="M488.42,-231.84C458.06,-222.91 411.46,-209.2 378.2,-199.42"/>
<polygon fill="#63b8ff" stroke="#63b8ff" points="379.51,-196.15 368.93,-196.69 377.54,-202.87 379.51,-196.15"/>
</a>
</g>
</g>
<!-- Node6 -->
<g id="Node000006" class="node">
<title>Node6</title>
<g id="a_Node000006"><a xlink:title=" ">
<polygon fill="#e0e0e0" stroke="#999999" points="443.12,-196.25 385.12,-196.25 385.12,-177 443.12,-177 443.12,-196.25"/>
<text text-anchor="middle" x="414.12" y="-181.8" font-family="Helvetica,sans-Serif" font-size="11.00">compare</text>
</a>
</g>
</g>
<!-- Node2&#45;&gt;Node6 -->
<g id="edge5_Node000002_Node000006" class="edge">
<title>Node2&#45;&gt;Node6</title>
<g id="a_edge5_Node000002_Node000006"><a xlink:title=" ">
<path fill="none" stroke="#63b8ff" d="M501.31,-231.84C485.1,-223.62 460.89,-211.34 442.09,-201.81"/>
<polygon fill="#63b8ff" stroke="#63b8ff" points="443.88,-198.79 433.37,-197.39 440.71,-205.03 443.88,-198.79"/>
</a>
</g>
</g>
<!-- Node7 -->
<g id="Node000007" class="node">
<title>Node7</title>
<g id="a_Node000007"><a xlink:href="export_8h_source.html" target="_top" xlink:title=" ">
<polygon fill="white" stroke="#666666" points="576.62,-196.25 461.62,-196.25 461.62,-177 576.62,-177 576.62,-196.25"/>
<text text-anchor="middle" x="519.12" y="-181.8" font-family="Helvetica,sans-Serif" font-size="11.00">floppy/detail/export.h</text>
</a>
</g>
</g>
<!-- Node2&#45;&gt;Node7 -->
<g id="edge6_Node000002_Node000007" class="edge">
<title>Node2&#45;&gt;Node7</title>
<g id="a_edge6_Node000002_Node000007"><a xlink:title=" ">
<path fill="none" stroke="#63b8ff" d="M519.12,-232.08C519.12,-225.57 519.12,-216.42 519.12,-208.12"/>
<polygon fill="#63b8ff" stroke="#63b8ff" points="522.63,-208.12 519.13,-198.12 515.63,-208.12 522.63,-208.12"/>
</a>
</g>
</g>
<!-- Node2&#45;&gt;Node17 -->
<g id="edge19_Node000002_Node000017" class="edge">
<title>Node2&#45;&gt;Node17</title>
<g id="a_edge19_Node000002_Node000017"><a xlink:title=" ">
<path fill="none" stroke="#63b8ff" d="M553.56,-231.84C587.39,-222.97 639.21,-209.37 676.46,-199.6"/>
<polygon fill="#63b8ff" stroke="#63b8ff" points="677.27,-203.01 686.06,-197.09 675.5,-196.24 677.27,-203.01"/>
</a>
</g>
</g>
<!-- Node8 -->
<g id="Node000008" class="node">
<title>Node8</title>
<g id="a_Node000008"><a xlink:title=" ">
<polygon fill="#e0e0e0" stroke="#999999" points="42.25,-74.5 0,-74.5 0,-55.25 42.25,-55.25 42.25,-74.5"/>
<text text-anchor="middle" x="21.12" y="-60.05" font-family="Helvetica,sans-Serif" font-size="11.00">string</text>
</a>
</g>
</g>
<!-- Node7&#45;&gt;Node8 -->
<g id="edge7_Node000007_Node000008" class="edge">
<title>Node7&#45;&gt;Node8</title>
<g id="a_edge7_Node000007_Node000008"><a xlink:title=" ">
<path fill="none" stroke="#63b8ff" d="M461.39,-178.11C367.81,-165.89 192.69,-142.89 186.12,-141 134.49,-126.14 78.35,-97.69 46.68,-80.39"/>
<polygon fill="#63b8ff" stroke="#63b8ff" points="48.68,-77.5 38.24,-75.72 45.29,-83.62 48.68,-77.5"/>
</a>
</g>
</g>
<!-- Node9 -->
<g id="Node000009" class="node">
<title>Node9</title>
<g id="a_Node000009"><a xlink:title=" ">
<polygon fill="#e0e0e0" stroke="#999999" points="362.12,-74.5 292.12,-74.5 292.12,-55.25 362.12,-55.25 362.12,-74.5"/>
<text text-anchor="middle" x="327.12" y="-60.05" font-family="Helvetica,sans-Serif" font-size="11.00">string_view</text>
</a>
</g>
</g>
<!-- Node7&#45;&gt;Node9 -->
<g id="edge8_Node000007_Node000009" class="edge">
<title>Node7&#45;&gt;Node9</title>
<g id="a_edge8_Node000007_Node000009"><a xlink:title=" ">
<path fill="none" stroke="#63b8ff" d="M504.69,-176.62C471.96,-156.21 391.8,-106.21 351.33,-80.97"/>
<polygon fill="#63b8ff" stroke="#63b8ff" points="353.35,-78.1 343.01,-75.78 349.64,-84.04 353.35,-78.1"/>
</a>
</g>
</g>
<!-- Node10 -->
<g id="Node000010" class="node">
<title>Node10</title>
<g id="a_Node000010"><a xlink:title=" ">
<polygon fill="#e0e0e0" stroke="#999999" points="615.75,-135.38 558.5,-135.38 558.5,-116.12 615.75,-116.12 615.75,-135.38"/>
<text text-anchor="middle" x="587.12" y="-120.92" font-family="Helvetica,sans-Serif" font-size="11.00">iostream</text>
</a>
</g>
</g>
<!-- Node7&#45;&gt;Node10 -->
<g id="edge9_Node000007_Node000010" class="edge">
<title>Node7&#45;&gt;Node10</title>
<g id="a_edge9_Node000007_Node000010"><a xlink:title=" ">
<path fill="none" stroke="#63b8ff" d="M529.45,-176.68C539.74,-167.78 555.76,-153.91 568.31,-143.04"/>
<polygon fill="#63b8ff" stroke="#63b8ff" points="570.29,-145.96 575.56,-136.77 565.7,-140.67 570.29,-145.96"/>
</a>
</g>
</g>
<!-- Node11 -->
<g id="Node000011" class="node">
<title>Node11</title>
<g id="a_Node000011"><a xlink:title=" ">
<polygon fill="#e0e0e0" stroke="#999999" points="567,-19.25 493.25,-19.25 493.25,0 567,0 567,-19.25"/>
<text text-anchor="middle" x="530.12" y="-4.8" font-family="Helvetica,sans-Serif" font-size="11.00">fmt/format.h</text>
</a>
</g>
</g>
<!-- Node7&#45;&gt;Node11 -->
<g id="edge10_Node000007_Node000011" class="edge">
<title>Node7&#45;&gt;Node11</title>
<g id="a_edge10_Node000007_Node000011"><a xlink:title=" ">
<path fill="none" stroke="#63b8ff" d="M519.69,-176.71C521.38,-149.8 526.46,-68.94 528.85,-30.87"/>
<polygon fill="#63b8ff" stroke="#63b8ff" points="532.32,-31.45 529.46,-21.25 525.34,-31.01 532.32,-31.45"/>
</a>
</g>
</g>
<!-- Node12 -->
<g id="Node000012" class="node">
<title>Node12</title>
<g id="a_Node000012"><a xlink:href="string__utils_8h_source.html" target="_top" xlink:title=" ">
<polygon fill="white" stroke="#666666" points="297.25,-141 195,-141 195,-110.5 297.25,-110.5 297.25,-141"/>
<text text-anchor="start" x="203" y="-126.55" font-family="Helvetica,sans-Serif" font-size="11.00">floppy/detail/string</text>
<text text-anchor="middle" x="246.12" y="-115.3" font-family="Helvetica,sans-Serif" font-size="11.00">_utils.h</text>
</a>
</g>
</g>
<!-- Node7&#45;&gt;Node12 -->
<g id="edge11_Node000007_Node000012" class="edge">
<title>Node7&#45;&gt;Node12</title>
<g id="a_edge11_Node000007_Node000012"><a xlink:title=" ">
<path fill="none" stroke="#63b8ff" d="M477.07,-176.55C432.06,-166.85 360.18,-151.35 308.57,-140.22"/>
<polygon fill="#63b8ff" stroke="#63b8ff" points="309.54,-136.85 299.03,-138.16 308.07,-143.69 309.54,-136.85"/>
</a>
</g>
</g>
<!-- Node12&#45;&gt;Node8 -->
<g id="edge12_Node000012_Node000008" class="edge">
<title>Node12&#45;&gt;Node8</title>
<g id="a_edge12_Node000012_Node000008"><a xlink:title=" ">
<path fill="none" stroke="#63b8ff" d="M194.7,-111.91C157.86,-102.62 106.8,-89.56 53.73,-75.16"/>
<polygon fill="#63b8ff" stroke="#63b8ff" points="54.76,-71.81 44.2,-72.56 52.92,-78.57 54.76,-71.81"/>
</a>
</g>
</g>
<!-- Node12&#45;&gt;Node9 -->
<g id="edge13_Node000012_Node000009" class="edge">
<title>Node12&#45;&gt;Node9</title>
<g id="a_edge13_Node000012_Node000009"><a xlink:title=" ">
<path fill="none" stroke="#63b8ff" d="M266.15,-110.2C278.12,-101.49 293.34,-90.43 305.58,-81.53"/>
<polygon fill="#63b8ff" stroke="#63b8ff" points="307.38,-84.55 313.41,-75.84 303.27,-78.89 307.38,-84.55"/>
</a>
</g>
</g>
<!-- Node13 -->
<g id="Node000013" class="node">
<title>Node13</title>
<g id="a_Node000013"><a xlink:title=" ">
<polygon fill="#e0e0e0" stroke="#999999" points="274.25,-74.5 214,-74.5 214,-55.25 274.25,-55.25 274.25,-74.5"/>
<text text-anchor="middle" x="244.12" y="-60.05" font-family="Helvetica,sans-Serif" font-size="11.00">algorithm</text>
</a>
</g>
</g>
<!-- Node12&#45;&gt;Node13 -->
<g id="edge14_Node000012_Node000013" class="edge">
<title>Node12&#45;&gt;Node13</title>
<g id="a_edge14_Node000012_Node000013"><a xlink:title=" ">
<path fill="none" stroke="#63b8ff" d="M245.63,-110.2C245.38,-102.96 245.08,-94.09 244.82,-86.19"/>
<polygon fill="#63b8ff" stroke="#63b8ff" points="248.32,-86.34 244.48,-76.46 241.33,-86.58 248.32,-86.34"/>
</a>
</g>
</g>
<!-- Node14 -->
<g id="Node000014" class="node">
<title>Node14</title>
<g id="a_Node000014"><a xlink:href="exceptions_8h_source.html" target="_top" xlink:title=" ">
<polygon fill="white" stroke="#666666" points="196.12,-74.5 60.12,-74.5 60.12,-55.25 196.12,-55.25 196.12,-74.5"/>
<text text-anchor="middle" x="128.12" y="-60.05" font-family="Helvetica,sans-Serif" font-size="11.00">floppy/detail/exceptions.h</text>
</a>
</g>
</g>
<!-- Node12&#45;&gt;Node14 -->
<g id="edge15_Node000012_Node000014" class="edge">
<title>Node12&#45;&gt;Node14</title>
<g id="a_edge15_Node000012_Node000014"><a xlink:title=" ">
<path fill="none" stroke="#63b8ff" d="M216.65,-110.05C198.25,-100.86 174.68,-89.11 156.49,-80.03"/>
<polygon fill="#63b8ff" stroke="#63b8ff" points="158.09,-76.91 147.58,-75.58 154.96,-83.18 158.09,-76.91"/>
</a>
</g>
</g>
<!-- Node16 -->
<g id="Node000016" class="node">
<title>Node16</title>
<g id="a_Node000016"><a xlink:href="cxx__ver_8h_source.html" target="_top" xlink:title=" ">
<polygon fill="white" stroke="#666666" points="501.62,-74.5 380.62,-74.5 380.62,-55.25 501.62,-55.25 501.62,-74.5"/>
<text text-anchor="middle" x="441.12" y="-60.05" font-family="Helvetica,sans-Serif" font-size="11.00">floppy/detail/cxx_ver.h</text>
</a>
</g>
</g>
<!-- Node12&#45;&gt;Node16 -->
<g id="edge18_Node000012_Node000016" class="edge">
<title>Node12&#45;&gt;Node16</title>
<g id="a_edge18_Node000012_Node000016"><a xlink:title=" ">
<path fill="none" stroke="#63b8ff" d="M294.83,-110.05C327.28,-100.25 369.45,-87.52 400.17,-78.24"/>
<polygon fill="#63b8ff" stroke="#63b8ff" points="400.92,-81.67 409.48,-75.43 398.9,-74.97 400.92,-81.67"/>
</a>
</g>
</g>
<!-- Node14&#45;&gt;Node11 -->
<g id="edge17_Node000014_Node000011" class="edge">
<title>Node14&#45;&gt;Node11</title>
<g id="a_edge17_Node000014_Node000011"><a xlink:title=" ">
<path fill="none" stroke="#63b8ff" d="M196.32,-54.84C277.27,-44.12 410.25,-26.5 481.48,-17.07"/>
<polygon fill="#63b8ff" stroke="#63b8ff" points="481.82,-20.55 491.28,-15.77 480.9,-13.61 481.82,-20.55"/>
</a>
</g>
</g>
<!-- Node15 -->
<g id="Node000015" class="node">
<title>Node15</title>
<g id="a_Node000015"><a xlink:title=" ">
<polygon fill="#e0e0e0" stroke="#999999" points="159,-19.25 97.25,-19.25 97.25,0 159,0 159,-19.25"/>
<text text-anchor="middle" x="128.12" y="-4.8" font-family="Helvetica,sans-Serif" font-size="11.00">stdexcept</text>
</a>
</g>
</g>
<!-- Node14&#45;&gt;Node15 -->
<g id="edge16_Node000014_Node000015" class="edge">
<title>Node14&#45;&gt;Node15</title>
<g id="a_edge16_Node000014_Node000015"><a xlink:title=" ">
<path fill="none" stroke="#63b8ff" d="M128.12,-55.08C128.12,-48.57 128.12,-39.42 128.12,-31.12"/>
<polygon fill="#63b8ff" stroke="#63b8ff" points="131.63,-31.12 128.13,-21.12 124.63,-31.12 131.63,-31.12"/>
</a>
</g>
</g>
<!-- Node18 -->
<g id="Node000018" class="node">
<title>Node18</title>
<g id="a_Node000018"><a xlink:title=" ">
<polygon fill="#e0e0e0" stroke="#999999" points="832.5,-135.38 773.75,-135.38 773.75,-116.12 832.5,-116.12 832.5,-135.38"/>
<text text-anchor="middle" x="803.12" y="-120.92" font-family="Helvetica,sans-Serif" font-size="11.00">concepts</text>
</a>
</g>
</g>
<!-- Node17&#45;&gt;Node18 -->
<g id="edge20_Node000017_Node000018" class="edge">
<title>Node17&#45;&gt;Node18</title>
<g id="a_edge20_Node000017_Node000018"><a xlink:title=" ">
<path fill="none" stroke="#63b8ff" d="M734.43,-176.68C746.92,-167.61 766.51,-153.37 781.58,-142.41"/>
<polygon fill="#63b8ff" stroke="#63b8ff" points="783.45,-145.38 789.48,-136.67 779.34,-139.71 783.45,-145.38"/>
</a>
</g>
</g>
<!-- Node19 -->
<g id="Node000019" class="node">
<title>Node19</title>
<g id="a_Node000019"><a xlink:href="type__traits_8h_source.html" target="_top" xlink:title=" ">
<polygon fill="white" stroke="#666666" points="965.25,-141 869,-141 869,-110.5 965.25,-110.5 965.25,-141"/>
<text text-anchor="start" x="877" y="-126.55" font-family="Helvetica,sans-Serif" font-size="11.00">floppy/detail/type</text>
<text text-anchor="middle" x="917.12" y="-115.3" font-family="Helvetica,sans-Serif" font-size="11.00">_traits.h</text>
</a>
</g>
</g>
<!-- Node17&#45;&gt;Node19 -->
<g id="edge21_Node000017_Node000019" class="edge">
<title>Node17&#45;&gt;Node19</title>
<g id="a_edge21_Node000017_Node000019"><a xlink:title=" ">
<path fill="none" stroke="#63b8ff" d="M752.17,-176.55C780.34,-168.05 823.26,-155.09 858.25,-144.53"/>
<polygon fill="#63b8ff" stroke="#63b8ff" points="858.82,-148.01 867.38,-141.77 856.8,-141.31 858.82,-148.01"/>
</a>
</g>
</g>
<!-- Node21 -->
<g id="Node000021" class="node">
<title>Node21</title>
<g id="a_Node000021"><a xlink:href="types_8h_source.html" target="_top" xlink:title=" ">
<polygon fill="white" stroke="#666666" points="755.38,-135.38 644.88,-135.38 644.88,-116.12 755.38,-116.12 755.38,-135.38"/>
<text text-anchor="middle" x="700.12" y="-120.92" font-family="Helvetica,sans-Serif" font-size="11.00">floppy/detail/types.h</text>
</a>
</g>
</g>
<!-- Node17&#45;&gt;Node21 -->
<g id="edge23_Node000017_Node000021" class="edge">
<title>Node17&#45;&gt;Node21</title>
<g id="a_edge23_Node000017_Node000021"><a xlink:title=" ">
<path fill="none" stroke="#63b8ff" d="M718.78,-176.68C715.78,-168.64 711.26,-156.55 707.42,-146.28"/>
<polygon fill="#63b8ff" stroke="#63b8ff" points="710.81,-145.34 704.03,-137.19 704.25,-147.79 710.81,-145.34"/>
</a>
</g>
</g>
<!-- Node20 -->
<g id="Node000020" class="node">
<title>Node20</title>
<g id="a_Node000020"><a xlink:title=" ">
<polygon fill="#e0e0e0" stroke="#999999" points="968.88,-74.5 903.38,-74.5 903.38,-55.25 968.88,-55.25 968.88,-74.5"/>
<text text-anchor="middle" x="936.12" y="-60.05" font-family="Helvetica,sans-Serif" font-size="11.00">type_traits</text>
</a>
</g>
</g>
<!-- Node19&#45;&gt;Node20 -->
<g id="edge22_Node000019_Node000020" class="edge">
<title>Node19&#45;&gt;Node20</title>
<g id="a_edge22_Node000019_Node000020"><a xlink:title=" ">
<path fill="none" stroke="#63b8ff" d="M921.82,-110.2C924.19,-102.87 927.09,-93.87 929.66,-85.91"/>
<polygon fill="#63b8ff" stroke="#63b8ff" points="932.99,-86.98 932.73,-76.39 926.33,-84.83 932.99,-86.98"/>
</a>
</g>
</g>
<!-- Node21&#45;&gt;Node11 -->
<g id="edge26_Node000021_Node000011" class="edge">
<title>Node21&#45;&gt;Node11</title>
<g id="a_edge26_Node000021_Node000011"><a xlink:title=" ">
<path fill="none" stroke="#63b8ff" d="M670.95,-115.63C647.01,-107.28 612.97,-93.36 587.12,-74.5 569.54,-61.67 553.42,-42.62 542.84,-28.66"/>
<polygon fill="#63b8ff" stroke="#63b8ff" points="545.81,-26.78 537.08,-20.78 540.16,-30.91 545.81,-26.78"/>
</a>
</g>
</g>
<!-- Node21&#45;&gt;Node16 -->
<g id="edge28_Node000021_Node000016" class="edge">
<title>Node21&#45;&gt;Node16</title>
<g id="a_edge28_Node000021_Node000016"><a xlink:title=" ">
<path fill="none" stroke="#63b8ff" d="M660.22,-115.68C615.07,-105.42 541.41,-88.67 492.12,-77.47"/>
<polygon fill="#63b8ff" stroke="#63b8ff" points="493.07,-74.09 482.55,-75.29 491.52,-80.92 493.07,-74.09"/>
</a>
</g>
</g>
<!-- Node21&#45;&gt;Node20 -->
<g id="edge25_Node000021_Node000020" class="edge">
<title>Node21&#45;&gt;Node20</title>
<g id="a_edge25_Node000021_Node000020"><a xlink:title=" ">
<path fill="none" stroke="#63b8ff" d="M736.48,-115.68C778.35,-105.24 847.11,-88.08 892.01,-76.88"/>
<polygon fill="#63b8ff" stroke="#63b8ff" points="892.83,-80.28 901.69,-74.47 891.14,-73.49 892.83,-80.28"/>
</a>
</g>
</g>
<!-- Node22 -->
<g id="Node000022" class="node">
<title>Node22</title>
<g id="a_Node000022"><a xlink:title=" ">
<polygon fill="#e0e0e0" stroke="#999999" points="884.88,-74.5 831.38,-74.5 831.38,-55.25 884.88,-55.25 884.88,-74.5"/>
<text text-anchor="middle" x="858.12" y="-60.05" font-family="Helvetica,sans-Serif" font-size="11.00">optional</text>
</a>
</g>
</g>
<!-- Node21&#45;&gt;Node22 -->
<g id="edge24_Node000021_Node000022" class="edge">
<title>Node21&#45;&gt;Node22</title>
<g id="a_edge24_Node000021_Node000022"><a xlink:title=" ">
<path fill="none" stroke="#63b8ff" d="M724.47,-115.68C750.91,-105.83 793.38,-90 823.34,-78.84"/>
<polygon fill="#63b8ff" stroke="#63b8ff" points="824.19,-82.26 832.34,-75.48 821.75,-75.7 824.19,-82.26"/>
</a>
</g>
</g>
<!-- Node23 -->
<g id="Node000023" class="node">
<title>Node23</title>
<g id="a_Node000023"><a xlink:title=" ">
<polygon fill="#e0e0e0" stroke="#999999" points="684.5,-74.5 595.75,-74.5 595.75,-55.25 684.5,-55.25 684.5,-74.5"/>
<text text-anchor="middle" x="640.12" y="-60.05" font-family="Helvetica,sans-Serif" font-size="11.00">tl/expected.hpp</text>
</a>
</g>
</g>
<!-- Node21&#45;&gt;Node23 -->
<g id="edge27_Node000021_Node000023" class="edge">
<title>Node21&#45;&gt;Node23</title>
<g id="a_edge27_Node000021_Node000023"><a xlink:title=" ">
<path fill="none" stroke="#63b8ff" d="M691.01,-115.81C682.11,-107.08 668.35,-93.57 657.38,-82.8"/>
<polygon fill="#63b8ff" stroke="#63b8ff" points="659.99,-80.47 650.4,-75.96 655.09,-85.46 659.99,-80.47"/>
</a>
</g>
</g>
<!-- Node24 -->
<g id="Node000024" class="node">
<title>Node24</title>
<g id="a_Node000024"><a xlink:href="stdint_8h_source.html" target="_top" xlink:title=" ">
<polygon fill="white" stroke="#666666" points="813.38,-74.5 702.88,-74.5 702.88,-55.25 813.38,-55.25 813.38,-74.5"/>
<text text-anchor="middle" x="758.12" y="-60.05" font-family="Helvetica,sans-Serif" font-size="11.00">floppy/detail/stdint.h</text>
</a>
</g>
</g>
<!-- Node21&#45;&gt;Node24 -->
<g id="edge29_Node000021_Node000024" class="edge">
<title>Node21&#45;&gt;Node24</title>
<g id="a_edge29_Node000021_Node000024"><a xlink:title=" ">
<path fill="none" stroke="#63b8ff" d="M708.93,-115.81C717.54,-107.08 730.84,-93.57 741.45,-82.8"/>
<polygon fill="#63b8ff" stroke="#63b8ff" points="743.65,-85.56 748.17,-75.98 738.66,-80.65 743.65,-85.56"/>
</a>
</g>
</g>
<!-- Node25 -->
<g id="Node000025" class="node">
<title>Node25</title>
<g id="a_Node000025"><a xlink:title=" ">
<polygon fill="#e0e0e0" stroke="#999999" points="749.38,-19.25 698.88,-19.25 698.88,0 749.38,0 749.38,-19.25"/>
<text text-anchor="middle" x="724.12" y="-4.8" font-family="Helvetica,sans-Serif" font-size="11.00">cstddef</text>
</a>
</g>
</g>
<!-- Node24&#45;&gt;Node25 -->
<g id="edge30_Node000024_Node000025" class="edge">
<title>Node24&#45;&gt;Node25</title>
<g id="a_edge30_Node000024_Node000025"><a xlink:title=" ">
<path fill="none" stroke="#63b8ff" d="M752.51,-55.08C748.01,-48.03 741.54,-37.9 735.91,-29.08"/>
<polygon fill="#63b8ff" stroke="#63b8ff" points="739.01,-27.43 730.68,-20.88 733.11,-31.2 739.01,-27.43"/>
</a>
</g>
</g>
<!-- Node26 -->
<g id="Node000026" class="node">
<title>Node26</title>
<g id="a_Node000026"><a xlink:title=" ">
<polygon fill="#e0e0e0" stroke="#999999" points="814.5,-19.25 767.75,-19.25 767.75,0 814.5,0 814.5,-19.25"/>
<text text-anchor="middle" x="791.12" y="-4.8" font-family="Helvetica,sans-Serif" font-size="11.00">cstdint</text>
</a>
</g>
</g>
<!-- Node24&#45;&gt;Node26 -->
<g id="edge31_Node000024_Node000026" class="edge">
<title>Node24&#45;&gt;Node26</title>
<g id="a_edge31_Node000024_Node000026"><a xlink:title=" ">
<path fill="none" stroke="#63b8ff" d="M763.57,-55.08C767.9,-48.11 774.09,-38.12 779.51,-29.37"/>
<polygon fill="#63b8ff" stroke="#63b8ff" points="782.47,-31.24 784.76,-20.9 776.52,-27.55 782.47,-31.24"/>
</a>
</g>
</g>
</g>
</svg>

<g id="navigator" transform="translate(0 0)" fill="#404254">
  <rect fill="#f2f5e9" fill-opacity="0.5" stroke="#606060" stroke-width=".5" x="0" y="0" width="60" height="60"/>
  <use id="zoomplus" xlink:href="#zoomPlus" x="17" y="9" onmousedown="handleZoom(evt,'in')"/>
  <use id="zoomminus" xlink:href="#zoomMin" x="42" y="9" onmousedown="handleZoom(evt,'out')"/>
  <use id="reset" xlink:href="#resetDef" x="30" y="36" onmousedown="handleReset()"/>
   <use id="arrowup" xlink:href="#arrowUp" x="0" y="0" onmousedown="handlePan(0,-1)"/>
  <use id="arrowright" xlink:href="#arrowRight" x="0" y="0" onmousedown="handlePan(1,0)"/>
  <use id="arrowdown" xlink:href="#arrowDown" x="0" y="0" onmousedown="handlePan(0,1)"/>
  <use id="arrowleft" xlink:href="#arrowLeft" x="0" y="0" onmousedown="handlePan(-1,0)"/>
</g>
<svg viewBox="0 0 15 15" width="100%" height="30px" preserveAspectRatio="xMaxYMin meet">
 <g id="arrow_out" transform="scale(0.3 0.3)">
  <a xlink:href="nt__traits_8h__incl_org.svg" target="_base">
   <rect id="button" ry="5" rx="5" y="6" x="6" height="38" width="38"
        fill="#f2f5e9" fill-opacity="0.5" stroke="#606060" stroke-width="1.0"/>
   <path id="arrow"
     d="M 11.500037,31.436501 C 11.940474,20.09759 22.043105,11.32322 32.158766,21.979434 L 37.068811,17.246167 C 37.068811,17.246167 37.088388,32 37.088388,32 L 22.160133,31.978069 C 22.160133,31.978069 26.997745,27.140456 26.997745,27.140456 C 18.528582,18.264221 13.291696,25.230495 11.500037,31.436501 z"
     style="fill:#404040;"/>
  </a>
 </g>
</svg>

<style type='text/css'>
<![CDATA[
[data-mouse-over-selected='false'] { opacity: 0.7; }
[data-mouse-over-selected='true']  { opacity: 1.0; }
]]>
</style>
<script type="application/ecmascript"><![CDATA[
document.addEventListener('DOMContentLoaded', (event) => {
  highlightEdges();
  highlightAdjacentNodes();
});
]]></script>
</svg>
