<?xml version="1.0" encoding="UTF-8" standalone="no"?>
<!DOCTYPE svg PUBLIC "-//W3C//DTD SVG 1.1//EN"
 "http://www.w3.org/Graphics/SVG/1.1/DTD/svg11.dtd">
<!-- Generated by graphviz version 10.0.1 (0)
 -->
<!-- Title: nt_traits2d.h Pages: 1 -->
<svg width="190pt" height="248pt"
 viewBox="0.00 0.00 190.25 248.25" xmlns="http://www.w3.org/2000/svg" xmlns:xlink="http://www.w3.org/1999/xlink">

<svg id="main" version="1.1" xmlns="http://www.w3.org/2000/svg" xmlns:xlink="http://www.w3.org/1999/xlink" xml:space="preserve" onload="init(evt)">
<style type="text/css"><![CDATA[
.node, .edge {opacity: 0.7;}
.node.selected, .edge.selected {opacity: 1;}
.edge:hover path { stroke: red; }
.edge:hover polygon { stroke: red; fill: red; }
]]></style>
<script type="application/ecmascript" xlink:href="svg.min.js"/>
<svg id="graph" class="graph">
<g id="graph0" class="graph" transform="scale(1 1) rotate(0) translate(4 244.25)">
<title>nt_traits2d.h</title>
<!-- Node1 -->
<g id="Node000001" class="node">
<title>Node1</title>
<g id="a_Node000001"><a xlink:title=" ">
<polygon fill="#999999" stroke="#666666" points="125.75,-240.25 50.5,-240.25 50.5,-221 125.75,-221 125.75,-240.25"/>
<text text-anchor="middle" x="88.12" y="-225.8" font-family="Helvetica,sans-Serif" font-size="11.00">nt_traits2d.h</text>
</a>
</g>
</g>
<!-- Node2 -->
<g id="Node000002" class="node">
<title>Node2</title>
<g id="a_Node000002"><a xlink:href="point2d_8h.html" target="_top" xlink:title="A two&#45;dimensional point tagged with a unit.">
<polygon fill="white" stroke="#666666" points="60.25,-74.5 0,-74.5 0,-55.25 60.25,-55.25 60.25,-74.5"/>
<text text-anchor="middle" x="30.12" y="-60.05" font-family="Helvetica,sans-Serif" font-size="11.00">point2d.h</text>
</a>
</g>
</g>
<!-- Node1&#45;&gt;Node2 -->
<g id="edge1_Node000001_Node000002" class="edge">
<title>Node1&#45;&gt;Node2</title>
<g id="a_edge1_Node000001_Node000002"><a xlink:title=" ">
<path fill="none" stroke="#63b8ff" d="M70.42,-212.59C63.35,-204.82 55.8,-195.11 51.12,-185 33.4,-146.69 30.56,-95.1 30.16,-74.7"/>
<polygon fill="#63b8ff" stroke="#63b8ff" points="67.76,-214.88 77.23,-219.63 72.79,-210.01 67.76,-214.88"/>
</a>
</g>
</g>
<!-- Node4 -->
<g id="Node000004" class="node">
<title>Node4</title>
<g id="a_Node000004"><a xlink:href="size2d_8h.html" target="_top" xlink:title="A two&#45;dimensional size tagged with a unit.">
<polygon fill="white" stroke="#666666" points="116,-185 60.25,-185 60.25,-165.75 116,-165.75 116,-185"/>
<text text-anchor="middle" x="88.12" y="-170.55" font-family="Helvetica,sans-Serif" font-size="11.00">size2d.h</text>
</a>
</g>
</g>
<!-- Node1&#45;&gt;Node4 -->
<g id="edge3_Node000001_Node000004" class="edge">
<title>Node1&#45;&gt;Node4</title>
<g id="a_edge3_Node000001_Node000004"><a xlink:title=" ">
<path fill="none" stroke="#63b8ff" d="M88.12,-209.38C88.12,-201.09 88.12,-191.92 88.12,-185.36"/>
<polygon fill="#63b8ff" stroke="#63b8ff" points="84.63,-209.32 88.13,-219.32 91.63,-209.32 84.63,-209.32"/>
</a>
</g>
</g>
<!-- Node5 -->
<g id="Node000005" class="node">
<title>Node5</title>
<g id="a_Node000005"><a xlink:href="vector2d_8h.html" target="_top" xlink:title="A two&#45;dimensional vector tagged with a unit.">
<polygon fill="white" stroke="#666666" points="182.25,-129.75 116,-129.75 116,-110.5 182.25,-110.5 182.25,-129.75"/>
<text text-anchor="middle" x="149.12" y="-115.3" font-family="Helvetica,sans-Serif" font-size="11.00">vector2d.h</text>
</a>
</g>
</g>
<!-- Node1&#45;&gt;Node5 -->
<g id="edge9_Node000001_Node000005" class="edge">
<title>Node1&#45;&gt;Node5</title>
<g id="a_edge9_Node000001_Node000005"><a xlink:title=" ">
<path fill="none" stroke="#63b8ff" d="M104.68,-212.43C111.66,-204.53 119.46,-194.76 125.12,-185 135.71,-166.76 143.18,-143.01 146.75,-130.22"/>
<polygon fill="#63b8ff" stroke="#63b8ff" points="102.26,-209.89 98.07,-219.62 107.42,-214.63 102.26,-209.89"/>
</a>
</g>
</g>
<!-- Node3 -->
<g id="Node000003" class="node">
<title>Node3</title>
<g id="a_Node000003"><a xlink:href="euclid_8h.html" target="_top" xlink:title="Small collection of classes and functions for geometric types with a focus on 2d graphics and layout.">
<polygon fill="white" stroke="#666666" points="114.5,-19.25 61.75,-19.25 61.75,0 114.5,0 114.5,-19.25"/>
<text text-anchor="middle" x="88.12" y="-4.8" font-family="Helvetica,sans-Serif" font-size="11.00">euclid.h</text>
</a>
</g>
</g>
<!-- Node2&#45;&gt;Node3 -->
<g id="edge2_Node000002_Node000003" class="edge">
<title>Node2&#45;&gt;Node3</title>
<g id="a_edge2_Node000002_Node000003"><a xlink:title=" ">
<path fill="none" stroke="#63b8ff" d="M48.39,-47.11C58.34,-37.97 70.26,-27.03 78.43,-19.52"/>
<polygon fill="#63b8ff" stroke="#63b8ff" points="46.08,-44.48 41.08,-53.82 50.81,-49.63 46.08,-44.48"/>
</a>
</g>
</g>
<!-- Node4&#45;&gt;Node2 -->
<g id="edge5_Node000004_Node000002" class="edge">
<title>Node4&#45;&gt;Node2</title>
<g id="a_edge5_Node000004_Node000002"><a xlink:title=" ">
<path fill="none" stroke="#63b8ff" d="M78.11,-155.65C65.52,-132.08 44.38,-92.54 34.94,-74.88"/>
<polygon fill="#63b8ff" stroke="#63b8ff" points="74.86,-156.99 82.67,-164.16 81.04,-153.69 74.86,-156.99"/>
</a>
</g>
</g>
<!-- Node4&#45;&gt;Node3 -->
<g id="edge4_Node000004_Node000003" class="edge">
<title>Node4&#45;&gt;Node3</title>
<g id="a_edge4_Node000004_Node000003"><a xlink:title=" ">
<path fill="none" stroke="#63b8ff" d="M88.12,-154.22C88.12,-118.36 88.12,-44.85 88.12,-19.47"/>
<polygon fill="#63b8ff" stroke="#63b8ff" points="84.63,-154.06 88.13,-164.06 91.63,-154.06 84.63,-154.06"/>
</a>
</g>
</g>
<!-- Node4&#45;&gt;Node5 -->
<g id="edge6_Node000004_Node000005" class="edge">
<title>Node4&#45;&gt;Node5</title>
<g id="a_edge6_Node000004_Node000005"><a xlink:title=" ">
<path fill="none" stroke="#63b8ff" d="M107.01,-157.89C117.55,-148.69 130.25,-137.6 138.93,-130.02"/>
<polygon fill="#63b8ff" stroke="#63b8ff" points="104.84,-155.13 99.61,-164.35 109.45,-160.41 104.84,-155.13"/>
</a>
</g>
</g>
<!-- Node5&#45;&gt;Node2 -->
<g id="edge8_Node000005_Node000002" class="edge">
<title>Node5&#45;&gt;Node2</title>
<g id="a_edge8_Node000005_Node000002"><a xlink:title=" ">
<path fill="none" stroke="#63b8ff" d="M118.72,-105.52C97.29,-95.93 69.16,-83.34 50.41,-74.95"/>
<polygon fill="#63b8ff" stroke="#63b8ff" points="117,-108.58 127.56,-109.47 119.86,-102.19 117,-108.58"/>
</a>
</g>
</g>
<!-- Node5&#45;&gt;Node3 -->
<g id="edge7_Node000005_Node000003" class="edge">
<title>Node5&#45;&gt;Node3</title>
<g id="a_edge7_Node000005_Node000003"><a xlink:title=" ">
<path fill="none" stroke="#63b8ff" d="M138.6,-100.4C125.35,-76.83 103.12,-37.29 93.19,-19.63"/>
<polygon fill="#63b8ff" stroke="#63b8ff" points="135.44,-101.93 143.39,-108.93 141.54,-98.49 135.44,-101.93"/>
</a>
</g>
</g>
</g>
</svg>
</svg>

<style type='text/css'>
<![CDATA[
[data-mouse-over-selected='false'] { opacity: 0.7; }
[data-mouse-over-selected='true']  { opacity: 1.0; }
]]>
</style>
<script type="application/ecmascript"><![CDATA[
document.addEventListener('DOMContentLoaded', (event) => {
  highlightEdges();
  highlightAdjacentNodes();
});
]]></script>
</svg>
