<?xml version="1.0" encoding="UTF-8" standalone="no"?>
<!DOCTYPE svg PUBLIC "-//W3C//DTD SVG 1.1//EN"
 "http://www.w3.org/Graphics/SVG/1.1/DTD/svg11.dtd">
<!-- Generated by graphviz version 10.0.1 (0)
 -->
<!-- Title: nt_traits.h Pages: 1 -->
<svg width="707pt" height="260pt"
 viewBox="0.00 0.00 707.12 259.50" xmlns="http://www.w3.org/2000/svg" xmlns:xlink="http://www.w3.org/1999/xlink">
<g id="graph0" class="graph" transform="scale(1 1) rotate(0) translate(4 255.5)">
<title>nt_traits.h</title>
<!-- Node1 -->
<g id="Node000001" class="node">
<title>Node1</title>
<g id="a_Node000001"><a xlink:title=" ">
<polygon fill="#999999" stroke="#666666" points="340.62,-251.5 277.38,-251.5 277.38,-232.25 340.62,-232.25 340.62,-251.5"/>
<text text-anchor="middle" x="309" y="-237.05" font-family="Helvetica,sans-Serif" font-size="11.00">nt_traits.h</text>
</a>
</g>
</g>
<!-- Node2 -->
<g id="Node000002" class="node">
<title>Node2</title>
<g id="a_Node000002"><a xlink:href="math_8h_source.html" target="_top" xlink:title=" ">
<polygon fill="white" stroke="#666666" points="322.5,-196.25 213.5,-196.25 213.5,-177 322.5,-177 322.5,-196.25"/>
<text text-anchor="middle" x="268" y="-181.8" font-family="Helvetica,sans-Serif" font-size="11.00">floppy/detail/math.h</text>
</a>
</g>
</g>
<!-- Node1&#45;&gt;Node2 -->
<g id="edge1_Node000001_Node000002" class="edge">
<title>Node1&#45;&gt;Node2</title>
<g id="a_edge1_Node000001_Node000002"><a xlink:title=" ">
<path fill="none" stroke="#63b8ff" d="M302.23,-232.08C296.68,-224.88 288.66,-214.46 281.77,-205.51"/>
<polygon fill="#63b8ff" stroke="#63b8ff" points="284.71,-203.6 275.84,-197.81 279.17,-207.87 284.71,-203.6"/>
</a>
</g>
</g>
<!-- Node12 -->
<g id="Node000012" class="node">
<title>Node12</title>
<g id="a_Node000012"><a xlink:href="concepts_8h_source.html" target="_top" xlink:title=" ">
<polygon fill="white" stroke="#666666" points="534.88,-141 407.12,-141 407.12,-121.75 534.88,-121.75 534.88,-141"/>
<text text-anchor="middle" x="471" y="-126.55" font-family="Helvetica,sans-Serif" font-size="11.00">floppy/detail/concepts.h</text>
</a>
</g>
</g>
<!-- Node1&#45;&gt;Node12 -->
<g id="edge21_Node000001_Node000012" class="edge">
<title>Node1&#45;&gt;Node12</title>
<g id="a_edge21_Node000001_Node000012"><a xlink:title=" ">
<path fill="none" stroke="#63b8ff" d="M322.53,-231.81C350.36,-213.18 414.23,-170.4 448.42,-147.5"/>
<polygon fill="#63b8ff" stroke="#63b8ff" points="450,-150.65 456.36,-142.18 446.11,-144.84 450,-150.65"/>
</a>
</g>
</g>
<!-- Node3 -->
<g id="Node000003" class="node">
<title>Node3</title>
<g id="a_Node000003"><a xlink:title=" ">
<polygon fill="#e0e0e0" stroke="#999999" points="388.62,-141 343.38,-141 343.38,-121.75 388.62,-121.75 388.62,-141"/>
<text text-anchor="middle" x="366" y="-126.55" font-family="Helvetica,sans-Serif" font-size="11.00">cmath</text>
</a>
</g>
</g>
<!-- Node2&#45;&gt;Node3 -->
<g id="edge2_Node000002_Node000003" class="edge">
<title>Node2&#45;&gt;Node3</title>
<g id="a_edge2_Node000002_Node000003"><a xlink:title=" ">
<path fill="none" stroke="#63b8ff" d="M284.62,-176.59C299.69,-168.41 322.14,-156.21 339.65,-146.69"/>
<polygon fill="#63b8ff" stroke="#63b8ff" points="340.85,-150.02 347.96,-142.18 337.51,-143.87 340.85,-150.02"/>
</a>
</g>
</g>
<!-- Node4 -->
<g id="Node000004" class="node">
<title>Node4</title>
<g id="a_Node000004"><a xlink:title=" ">
<polygon fill="#e0e0e0" stroke="#999999" points="40,-141 0,-141 0,-121.75 40,-121.75 40,-141"/>
<text text-anchor="middle" x="20" y="-126.55" font-family="Helvetica,sans-Serif" font-size="11.00">limits</text>
</a>
</g>
</g>
<!-- Node2&#45;&gt;Node4 -->
<g id="edge3_Node000002_Node000004" class="edge">
<title>Node2&#45;&gt;Node4</title>
<g id="a_edge3_Node000002_Node000004"><a xlink:title=" ">
<path fill="none" stroke="#63b8ff" d="M216.82,-176.52C174.7,-168.72 113.21,-156.67 51.02,-141.33"/>
<polygon fill="#63b8ff" stroke="#63b8ff" points="52.24,-138.03 41.69,-139 50.54,-144.82 52.24,-138.03"/>
</a>
</g>
</g>
<!-- Node5 -->
<g id="Node000005" class="node">
<title>Node5</title>
<g id="a_Node000005"><a xlink:title=" ">
<polygon fill="#e0e0e0" stroke="#999999" points="116,-141 58,-141 58,-121.75 116,-121.75 116,-141"/>
<text text-anchor="middle" x="87" y="-126.55" font-family="Helvetica,sans-Serif" font-size="11.00">numbers</text>
</a>
</g>
</g>
<!-- Node2&#45;&gt;Node5 -->
<g id="edge4_Node000002_Node000005" class="edge">
<title>Node2&#45;&gt;Node5</title>
<g id="a_edge4_Node000002_Node000005"><a xlink:title=" ">
<path fill="none" stroke="#63b8ff" d="M237.3,-176.59C206.94,-167.66 160.34,-153.95 127.08,-144.17"/>
<polygon fill="#63b8ff" stroke="#63b8ff" points="128.39,-140.9 117.8,-141.44 126.41,-147.62 128.39,-140.9"/>
</a>
</g>
</g>
<!-- Node6 -->
<g id="Node000006" class="node">
<title>Node6</title>
<g id="a_Node000006"><a xlink:title=" ">
<polygon fill="#e0e0e0" stroke="#999999" points="192,-141 134,-141 134,-121.75 192,-121.75 192,-141"/>
<text text-anchor="middle" x="163" y="-126.55" font-family="Helvetica,sans-Serif" font-size="11.00">compare</text>
</a>
</g>
</g>
<!-- Node2&#45;&gt;Node6 -->
<g id="edge5_Node000002_Node000006" class="edge">
<title>Node2&#45;&gt;Node6</title>
<g id="a_edge5_Node000002_Node000006"><a xlink:title=" ">
<path fill="none" stroke="#63b8ff" d="M250.19,-176.59C233.97,-168.37 209.76,-156.09 190.97,-146.56"/>
<polygon fill="#63b8ff" stroke="#63b8ff" points="192.75,-143.54 182.25,-142.14 189.58,-149.78 192.75,-143.54"/>
</a>
</g>
</g>
<!-- Node7 -->
<g id="Node000007" class="node">
<title>Node7</title>
<g id="a_Node000007"><a xlink:href="export_8h_source.html" target="_top" xlink:title=" ">
<polygon fill="white" stroke="#666666" points="325.5,-141 210.5,-141 210.5,-121.75 325.5,-121.75 325.5,-141"/>
<text text-anchor="middle" x="268" y="-126.55" font-family="Helvetica,sans-Serif" font-size="11.00">floppy/detail/export.h</text>
</a>
</g>
</g>
<!-- Node2&#45;&gt;Node7 -->
<g id="edge6_Node000002_Node000007" class="edge">
<title>Node2&#45;&gt;Node7</title>
<g id="a_edge6_Node000002_Node000007"><a xlink:title=" ">
<path fill="none" stroke="#63b8ff" d="M268,-176.83C268,-170.32 268,-161.17 268,-152.87"/>
<polygon fill="#63b8ff" stroke="#63b8ff" points="271.5,-152.87 268,-142.87 264.5,-152.87 271.5,-152.87"/>
</a>
</g>
</g>
<!-- Node2&#45;&gt;Node12 -->
<g id="edge11_Node000002_Node000012" class="edge">
<title>Node2&#45;&gt;Node12</title>
<g id="a_edge11_Node000002_Node000012"><a xlink:title=" ">
<path fill="none" stroke="#63b8ff" d="M302.44,-176.59C336.27,-167.72 388.09,-154.12 425.34,-144.35"/>
<polygon fill="#63b8ff" stroke="#63b8ff" points="426.15,-147.76 434.93,-141.84 424.37,-140.99 426.15,-147.76"/>
</a>
</g>
</g>
<!-- Node8 -->
<g id="Node000008" class="node">
<title>Node8</title>
<g id="a_Node000008"><a xlink:title=" ">
<polygon fill="#e0e0e0" stroke="#999999" points="215.12,-80.12 172.88,-80.12 172.88,-60.88 215.12,-60.88 215.12,-80.12"/>
<text text-anchor="middle" x="194" y="-65.67" font-family="Helvetica,sans-Serif" font-size="11.00">string</text>
</a>
</g>
</g>
<!-- Node7&#45;&gt;Node8 -->
<g id="edge7_Node000007_Node000008" class="edge">
<title>Node7&#45;&gt;Node8</title>
<g id="a_edge7_Node000007_Node000008"><a xlink:title=" ">
<path fill="none" stroke="#63b8ff" d="M256.76,-121.43C245.46,-112.44 227.79,-98.39 214.08,-87.48"/>
<polygon fill="#63b8ff" stroke="#63b8ff" points="216.53,-84.96 206.53,-81.47 212.18,-90.43 216.53,-84.96"/>
</a>
</g>
</g>
<!-- Node9 -->
<g id="Node000009" class="node">
<title>Node9</title>
<g id="a_Node000009"><a xlink:title=" ">
<polygon fill="#e0e0e0" stroke="#999999" points="303,-80.12 233,-80.12 233,-60.88 303,-60.88 303,-80.12"/>
<text text-anchor="middle" x="268" y="-65.67" font-family="Helvetica,sans-Serif" font-size="11.00">string_view</text>
</a>
</g>
</g>
<!-- Node7&#45;&gt;Node9 -->
<g id="edge8_Node000007_Node000009" class="edge">
<title>Node7&#45;&gt;Node9</title>
<g id="a_edge8_Node000007_Node000009"><a xlink:title=" ">
<path fill="none" stroke="#63b8ff" d="M268,-121.43C268,-113.65 268,-102.08 268,-92.03"/>
<polygon fill="#63b8ff" stroke="#63b8ff" points="271.5,-92.04 268,-82.04 264.5,-92.04 271.5,-92.04"/>
</a>
</g>
</g>
<!-- Node10 -->
<g id="Node000010" class="node">
<title>Node10</title>
<g id="a_Node000010"><a xlink:title=" ">
<polygon fill="#e0e0e0" stroke="#999999" points="378.62,-80.12 321.38,-80.12 321.38,-60.88 378.62,-60.88 378.62,-80.12"/>
<text text-anchor="middle" x="350" y="-65.67" font-family="Helvetica,sans-Serif" font-size="11.00">iostream</text>
</a>
</g>
</g>
<!-- Node7&#45;&gt;Node10 -->
<g id="edge9_Node000007_Node000010" class="edge">
<title>Node7&#45;&gt;Node10</title>
<g id="a_edge9_Node000007_Node000010"><a xlink:title=" ">
<path fill="none" stroke="#63b8ff" d="M280.45,-121.43C293.1,-112.36 312.93,-98.12 328.19,-87.16"/>
<polygon fill="#63b8ff" stroke="#63b8ff" points="330.12,-90.08 336.2,-81.41 326.03,-84.4 330.12,-90.08"/>
</a>
</g>
</g>
<!-- Node11 -->
<g id="Node000011" class="node">
<title>Node11</title>
<g id="a_Node000011"><a xlink:title=" ">
<polygon fill="#e0e0e0" stroke="#999999" points="262.88,-19.25 189.12,-19.25 189.12,0 262.88,0 262.88,-19.25"/>
<text text-anchor="middle" x="226" y="-4.8" font-family="Helvetica,sans-Serif" font-size="11.00">fmt/format.h</text>
</a>
</g>
</g>
<!-- Node7&#45;&gt;Node11 -->
<g id="edge10_Node000007_Node000011" class="edge">
<title>Node7&#45;&gt;Node11</title>
<g id="a_edge10_Node000007_Node000011"><a xlink:title=" ">
<path fill="none" stroke="#63b8ff" d="M217.52,-121.26C197.34,-114.86 176.06,-104.04 164,-85.75 156.54,-74.43 157.82,-67.31 164,-55.25 170.61,-42.34 182.89,-32.32 194.79,-25.07"/>
<polygon fill="#63b8ff" stroke="#63b8ff" points="196.2,-28.29 203.24,-20.37 192.8,-22.17 196.2,-28.29"/>
</a>
</g>
</g>
<!-- Node13 -->
<g id="Node000013" class="node">
<title>Node13</title>
<g id="a_Node000013"><a xlink:title=" ">
<polygon fill="#e0e0e0" stroke="#999999" points="584.38,-80.12 525.62,-80.12 525.62,-60.88 584.38,-60.88 584.38,-80.12"/>
<text text-anchor="middle" x="555" y="-65.67" font-family="Helvetica,sans-Serif" font-size="11.00">concepts</text>
</a>
</g>
</g>
<!-- Node12&#45;&gt;Node13 -->
<g id="edge12_Node000012_Node000013" class="edge">
<title>Node12&#45;&gt;Node13</title>
<g id="a_edge12_Node000012_Node000013"><a xlink:title=" ">
<path fill="none" stroke="#63b8ff" d="M483.76,-121.43C496.83,-112.27 517.41,-97.84 533.1,-86.85"/>
<polygon fill="#63b8ff" stroke="#63b8ff" points="534.7,-90 540.88,-81.39 530.68,-84.27 534.7,-90"/>
</a>
</g>
</g>
<!-- Node14 -->
<g id="Node000014" class="node">
<title>Node14</title>
<g id="a_Node000014"><a xlink:href="type__traits_8h_source.html" target="_top" xlink:title=" ">
<polygon fill="white" stroke="#666666" points="699.12,-85.75 602.88,-85.75 602.88,-55.25 699.12,-55.25 699.12,-85.75"/>
<text text-anchor="start" x="610.88" y="-71.3" font-family="Helvetica,sans-Serif" font-size="11.00">floppy/detail/type</text>
<text text-anchor="middle" x="651" y="-60.05" font-family="Helvetica,sans-Serif" font-size="11.00">_traits.h</text>
</a>
</g>
</g>
<!-- Node12&#45;&gt;Node14 -->
<g id="edge13_Node000012_Node000014" class="edge">
<title>Node12&#45;&gt;Node14</title>
<g id="a_edge13_Node000012_Node000014"><a xlink:title=" ">
<path fill="none" stroke="#63b8ff" d="M498.73,-121.3C524.42,-112.9 563.4,-100.15 595.49,-89.66"/>
<polygon fill="#63b8ff" stroke="#63b8ff" points="596.22,-93.1 604.63,-86.67 594.04,-86.45 596.22,-93.1"/>
</a>
</g>
</g>
<!-- Node16 -->
<g id="Node000016" class="node">
<title>Node16</title>
<g id="a_Node000016"><a xlink:href="types_8h_source.html" target="_top" xlink:title=" ">
<polygon fill="white" stroke="#666666" points="507.25,-80.12 396.75,-80.12 396.75,-60.88 507.25,-60.88 507.25,-80.12"/>
<text text-anchor="middle" x="452" y="-65.67" font-family="Helvetica,sans-Serif" font-size="11.00">floppy/detail/types.h</text>
</a>
</g>
</g>
<!-- Node12&#45;&gt;Node16 -->
<g id="edge15_Node000012_Node000016" class="edge">
<title>Node12&#45;&gt;Node16</title>
<g id="a_edge15_Node000012_Node000016"><a xlink:title=" ">
<path fill="none" stroke="#63b8ff" d="M468.11,-121.43C465.55,-113.48 461.7,-101.56 458.41,-91.37"/>
<polygon fill="#63b8ff" stroke="#63b8ff" points="461.78,-90.41 455.38,-81.97 455.12,-92.56 461.78,-90.41"/>
</a>
</g>
</g>
<!-- Node15 -->
<g id="Node000015" class="node">
<title>Node15</title>
<g id="a_Node000015"><a xlink:title=" ">
<polygon fill="#e0e0e0" stroke="#999999" points="656.75,-19.25 591.25,-19.25 591.25,0 656.75,0 656.75,-19.25"/>
<text text-anchor="middle" x="624" y="-4.8" font-family="Helvetica,sans-Serif" font-size="11.00">type_traits</text>
</a>
</g>
</g>
<!-- Node14&#45;&gt;Node15 -->
<g id="edge14_Node000014_Node000015" class="edge">
<title>Node14&#45;&gt;Node15</title>
<g id="a_edge14_Node000014_Node000015"><a xlink:title=" ">
<path fill="none" stroke="#63b8ff" d="M644.33,-54.95C640.89,-47.45 636.65,-38.2 632.93,-30.1"/>
<polygon fill="#63b8ff" stroke="#63b8ff" points="636.14,-28.71 628.79,-21.08 629.78,-31.63 636.14,-28.71"/>
</a>
</g>
</g>
<!-- Node16&#45;&gt;Node11 -->
<g id="edge20_Node000016_Node000011" class="edge">
<title>Node16&#45;&gt;Node11</title>
<g id="a_edge20_Node000016_Node000011"><a xlink:title=" ">
<path fill="none" stroke="#63b8ff" d="M417.18,-60.43C378.2,-50.27 314.86,-33.77 271.86,-22.57"/>
<polygon fill="#63b8ff" stroke="#63b8ff" points="272.88,-19.22 262.32,-20.09 271.12,-26 272.88,-19.22"/>
</a>
</g>
</g>
<!-- Node16&#45;&gt;Node15 -->
<g id="edge19_Node000016_Node000015" class="edge">
<title>Node16&#45;&gt;Node15</title>
<g id="a_edge19_Node000016_Node000015"><a xlink:title=" ">
<path fill="none" stroke="#63b8ff" d="M478.5,-60.43C507.54,-50.49 554.33,-34.47 586.99,-23.29"/>
<polygon fill="#63b8ff" stroke="#63b8ff" points="587.71,-26.75 596.04,-20.2 585.45,-20.12 587.71,-26.75"/>
</a>
</g>
</g>
<!-- Node17 -->
<g id="Node000017" class="node">
<title>Node17</title>
<g id="a_Node000017"><a xlink:title=" ">
<polygon fill="#e0e0e0" stroke="#999999" points="547.25,-19.25 496.75,-19.25 496.75,0 547.25,0 547.25,-19.25"/>
<text text-anchor="middle" x="522" y="-4.8" font-family="Helvetica,sans-Serif" font-size="11.00">cstddef</text>
</a>
</g>
</g>
<!-- Node16&#45;&gt;Node17 -->
<g id="edge16_Node000016_Node000017" class="edge">
<title>Node16&#45;&gt;Node17</title>
<g id="a_edge16_Node000016_Node000017"><a xlink:title=" ">
<path fill="none" stroke="#63b8ff" d="M462.63,-60.56C473.22,-51.65 489.71,-37.78 502.63,-26.92"/>
<polygon fill="#63b8ff" stroke="#63b8ff" points="504.71,-29.74 510.11,-20.63 500.2,-24.38 504.71,-29.74"/>
</a>
</g>
</g>
<!-- Node18 -->
<g id="Node000018" class="node">
<title>Node18</title>
<g id="a_Node000018"><a xlink:title=" ">
<polygon fill="#e0e0e0" stroke="#999999" points="407.38,-19.25 360.62,-19.25 360.62,0 407.38,0 407.38,-19.25"/>
<text text-anchor="middle" x="384" y="-4.8" font-family="Helvetica,sans-Serif" font-size="11.00">cstdint</text>
</a>
</g>
</g>
<!-- Node16&#45;&gt;Node18 -->
<g id="edge17_Node000016_Node000018" class="edge">
<title>Node16&#45;&gt;Node18</title>
<g id="a_edge17_Node000016_Node000018"><a xlink:title=" ">
<path fill="none" stroke="#63b8ff" d="M441.67,-60.56C431.39,-51.65 415.37,-37.78 402.82,-26.92"/>
<polygon fill="#63b8ff" stroke="#63b8ff" points="405.42,-24.54 395.57,-20.64 400.84,-29.83 405.42,-24.54"/>
</a>
</g>
</g>
<!-- Node19 -->
<g id="Node000019" class="node">
<title>Node19</title>
<g id="a_Node000019"><a xlink:title=" ">
<polygon fill="#e0e0e0" stroke="#999999" points="478.75,-19.25 425.25,-19.25 425.25,0 478.75,0 478.75,-19.25"/>
<text text-anchor="middle" x="452" y="-4.8" font-family="Helvetica,sans-Serif" font-size="11.00">optional</text>
</a>
</g>
</g>
<!-- Node16&#45;&gt;Node19 -->
<g id="edge18_Node000016_Node000019" class="edge">
<title>Node16&#45;&gt;Node19</title>
<g id="a_edge18_Node000016_Node000019"><a xlink:title=" ">
<path fill="none" stroke="#63b8ff" d="M452,-60.56C452,-52.78 452,-41.2 452,-31.16"/>
<polygon fill="#63b8ff" stroke="#63b8ff" points="455.5,-31.16 452,-21.16 448.5,-31.16 455.5,-31.16"/>
</a>
</g>
</g>
</g>
</svg>
