<?xml version="1.0" encoding="UTF-8" standalone="no"?>
<!DOCTYPE svg PUBLIC "-//W3C//DTD SVG 1.1//EN"
 "http://www.w3.org/Graphics/SVG/1.1/DTD/svg11.dtd">
<!-- Generated by graphviz version 10.0.1 (0)
 -->
<!-- Title: nt_traits.h Pages: 1 -->
<svg width="839pt" height="315pt"
 viewBox="0.00 0.00 839.25 314.75" xmlns="http://www.w3.org/2000/svg" xmlns:xlink="http://www.w3.org/1999/xlink">
<g id="graph0" class="graph" transform="scale(1 1) rotate(0) translate(4 310.75)">
<title>nt_traits.h</title>
<!-- Node1 -->
<g id="Node000001" class="node">
<title>Node1</title>
<g id="a_Node000001"><a xlink:title=" ">
<polygon fill="#999999" stroke="#666666" points="451.75,-306.75 388.5,-306.75 388.5,-287.5 451.75,-287.5 451.75,-306.75"/>
<text text-anchor="middle" x="420.12" y="-292.3" font-family="Helvetica,sans-Serif" font-size="11.00">nt_traits.h</text>
</a>
</g>
</g>
<!-- Node2 -->
<g id="Node000002" class="node">
<title>Node2</title>
<g id="a_Node000002"><a xlink:href="math_8h_source.html" target="_top" xlink:title=" ">
<polygon fill="white" stroke="#666666" points="433.62,-251.5 324.62,-251.5 324.62,-232.25 433.62,-232.25 433.62,-251.5"/>
<text text-anchor="middle" x="379.12" y="-237.05" font-family="Helvetica,sans-Serif" font-size="11.00">floppy/detail/math.h</text>
</a>
</g>
</g>
<!-- Node1&#45;&gt;Node2 -->
<g id="edge1_Node000001_Node000002" class="edge">
<title>Node1&#45;&gt;Node2</title>
<g id="a_edge1_Node000001_Node000002"><a xlink:title=" ">
<path fill="none" stroke="#63b8ff" d="M413.35,-287.33C407.81,-280.13 399.78,-269.71 392.9,-260.76"/>
<polygon fill="#63b8ff" stroke="#63b8ff" points="395.84,-258.85 386.97,-253.06 390.29,-263.12 395.84,-258.85"/>
</a>
</g>
</g>
<!-- Node16 -->
<g id="Node000016" class="node">
<title>Node16</title>
<g id="a_Node000016"><a xlink:href="concepts_8h_source.html" target="_top" xlink:title=" ">
<polygon fill="white" stroke="#666666" points="646,-196.25 518.25,-196.25 518.25,-177 646,-177 646,-196.25"/>
<text text-anchor="middle" x="582.12" y="-181.8" font-family="Helvetica,sans-Serif" font-size="11.00">floppy/detail/concepts.h</text>
</a>
</g>
</g>
<!-- Node1&#45;&gt;Node16 -->
<g id="edge30_Node000001_Node000016" class="edge">
<title>Node1&#45;&gt;Node16</title>
<g id="a_edge30_Node000001_Node000016"><a xlink:title=" ">
<path fill="none" stroke="#63b8ff" d="M433.66,-287.06C461.48,-268.43 525.36,-225.65 559.55,-202.75"/>
<polygon fill="#63b8ff" stroke="#63b8ff" points="561.13,-205.9 567.49,-197.43 557.23,-200.09 561.13,-205.9"/>
</a>
</g>
</g>
<!-- Node3 -->
<g id="Node000003" class="node">
<title>Node3</title>
<g id="a_Node000003"><a xlink:title=" ">
<polygon fill="#e0e0e0" stroke="#999999" points="499.75,-196.25 454.5,-196.25 454.5,-177 499.75,-177 499.75,-196.25"/>
<text text-anchor="middle" x="477.12" y="-181.8" font-family="Helvetica,sans-Serif" font-size="11.00">cmath</text>
</a>
</g>
</g>
<!-- Node2&#45;&gt;Node3 -->
<g id="edge2_Node000002_Node000003" class="edge">
<title>Node2&#45;&gt;Node3</title>
<g id="a_edge2_Node000002_Node000003"><a xlink:title=" ">
<path fill="none" stroke="#63b8ff" d="M395.75,-231.84C410.81,-223.66 433.27,-211.46 450.78,-201.94"/>
<polygon fill="#63b8ff" stroke="#63b8ff" points="451.97,-205.27 459.09,-197.43 448.63,-199.12 451.97,-205.27"/>
</a>
</g>
</g>
<!-- Node4 -->
<g id="Node000004" class="node">
<title>Node4</title>
<g id="a_Node000004"><a xlink:title=" ">
<polygon fill="#e0e0e0" stroke="#999999" points="151.12,-196.25 111.12,-196.25 111.12,-177 151.12,-177 151.12,-196.25"/>
<text text-anchor="middle" x="131.12" y="-181.8" font-family="Helvetica,sans-Serif" font-size="11.00">limits</text>
</a>
</g>
</g>
<!-- Node2&#45;&gt;Node4 -->
<g id="edge3_Node000002_Node000004" class="edge">
<title>Node2&#45;&gt;Node4</title>
<g id="a_edge3_Node000002_Node000004"><a xlink:title=" ">
<path fill="none" stroke="#63b8ff" d="M327.95,-231.77C285.82,-223.97 224.33,-211.92 162.14,-196.58"/>
<polygon fill="#63b8ff" stroke="#63b8ff" points="163.36,-193.28 152.81,-194.25 161.67,-200.07 163.36,-193.28"/>
</a>
</g>
</g>
<!-- Node5 -->
<g id="Node000005" class="node">
<title>Node5</title>
<g id="a_Node000005"><a xlink:title=" ">
<polygon fill="#e0e0e0" stroke="#999999" points="227.12,-196.25 169.12,-196.25 169.12,-177 227.12,-177 227.12,-196.25"/>
<text text-anchor="middle" x="198.12" y="-181.8" font-family="Helvetica,sans-Serif" font-size="11.00">numbers</text>
</a>
</g>
</g>
<!-- Node2&#45;&gt;Node5 -->
<g id="edge4_Node000002_Node000005" class="edge">
<title>Node2&#45;&gt;Node5</title>
<g id="a_edge4_Node000002_Node000005"><a xlink:title=" ">
<path fill="none" stroke="#63b8ff" d="M348.42,-231.84C318.06,-222.91 271.46,-209.2 238.2,-199.42"/>
<polygon fill="#63b8ff" stroke="#63b8ff" points="239.51,-196.15 228.93,-196.69 237.54,-202.87 239.51,-196.15"/>
</a>
</g>
</g>
<!-- Node6 -->
<g id="Node000006" class="node">
<title>Node6</title>
<g id="a_Node000006"><a xlink:title=" ">
<polygon fill="#e0e0e0" stroke="#999999" points="303.12,-196.25 245.12,-196.25 245.12,-177 303.12,-177 303.12,-196.25"/>
<text text-anchor="middle" x="274.12" y="-181.8" font-family="Helvetica,sans-Serif" font-size="11.00">compare</text>
</a>
</g>
</g>
<!-- Node2&#45;&gt;Node6 -->
<g id="edge5_Node000002_Node000006" class="edge">
<title>Node2&#45;&gt;Node6</title>
<g id="a_edge5_Node000002_Node000006"><a xlink:title=" ">
<path fill="none" stroke="#63b8ff" d="M361.31,-231.84C345.1,-223.62 320.89,-211.34 302.09,-201.81"/>
<polygon fill="#63b8ff" stroke="#63b8ff" points="303.88,-198.79 293.37,-197.39 300.71,-205.03 303.88,-198.79"/>
</a>
</g>
</g>
<!-- Node7 -->
<g id="Node000007" class="node">
<title>Node7</title>
<g id="a_Node000007"><a xlink:href="export_8h_source.html" target="_top" xlink:title=" ">
<polygon fill="white" stroke="#666666" points="436.62,-196.25 321.62,-196.25 321.62,-177 436.62,-177 436.62,-196.25"/>
<text text-anchor="middle" x="379.12" y="-181.8" font-family="Helvetica,sans-Serif" font-size="11.00">floppy/detail/export.h</text>
</a>
</g>
</g>
<!-- Node2&#45;&gt;Node7 -->
<g id="edge6_Node000002_Node000007" class="edge">
<title>Node2&#45;&gt;Node7</title>
<g id="a_edge6_Node000002_Node000007"><a xlink:title=" ">
<path fill="none" stroke="#63b8ff" d="M379.12,-232.08C379.12,-225.57 379.12,-216.42 379.12,-208.12"/>
<polygon fill="#63b8ff" stroke="#63b8ff" points="382.63,-208.12 379.13,-198.12 375.63,-208.12 382.63,-208.12"/>
</a>
</g>
</g>
<!-- Node2&#45;&gt;Node16 -->
<g id="edge18_Node000002_Node000016" class="edge">
<title>Node2&#45;&gt;Node16</title>
<g id="a_edge18_Node000002_Node000016"><a xlink:title=" ">
<path fill="none" stroke="#63b8ff" d="M413.56,-231.84C447.39,-222.97 499.21,-209.37 536.46,-199.6"/>
<polygon fill="#63b8ff" stroke="#63b8ff" points="537.27,-203.01 546.06,-197.09 535.5,-196.24 537.27,-203.01"/>
</a>
</g>
</g>
<!-- Node8 -->
<g id="Node000008" class="node">
<title>Node8</title>
<g id="a_Node000008"><a xlink:title=" ">
<polygon fill="#e0e0e0" stroke="#999999" points="42.25,-74.5 0,-74.5 0,-55.25 42.25,-55.25 42.25,-74.5"/>
<text text-anchor="middle" x="21.12" y="-60.05" font-family="Helvetica,sans-Serif" font-size="11.00">string</text>
</a>
</g>
</g>
<!-- Node7&#45;&gt;Node8 -->
<g id="edge7_Node000007_Node000008" class="edge">
<title>Node7&#45;&gt;Node8</title>
<g id="a_edge7_Node000007_Node000008"><a xlink:title=" ">
<path fill="none" stroke="#63b8ff" d="M325.75,-176.5C286.08,-168.98 230.97,-156.96 184.12,-141 134.31,-124.02 79.27,-96.75 47.59,-80.15"/>
<polygon fill="#63b8ff" stroke="#63b8ff" points="49.59,-77.25 39.12,-75.67 46.32,-83.44 49.59,-77.25"/>
</a>
</g>
</g>
<!-- Node9 -->
<g id="Node000009" class="node">
<title>Node9</title>
<g id="a_Node000009"><a xlink:title=" ">
<polygon fill="#e0e0e0" stroke="#999999" points="362.12,-74.5 292.12,-74.5 292.12,-55.25 362.12,-55.25 362.12,-74.5"/>
<text text-anchor="middle" x="327.12" y="-60.05" font-family="Helvetica,sans-Serif" font-size="11.00">string_view</text>
</a>
</g>
</g>
<!-- Node7&#45;&gt;Node9 -->
<g id="edge8_Node000007_Node000009" class="edge">
<title>Node7&#45;&gt;Node9</title>
<g id="a_edge8_Node000007_Node000009"><a xlink:title=" ">
<path fill="none" stroke="#63b8ff" d="M375.22,-176.62C366.82,-157.29 346.91,-111.43 335.51,-85.19"/>
<polygon fill="#63b8ff" stroke="#63b8ff" points="338.88,-84.15 331.68,-76.37 332.45,-86.94 338.88,-84.15"/>
</a>
</g>
</g>
<!-- Node10 -->
<g id="Node000010" class="node">
<title>Node10</title>
<g id="a_Node000010"><a xlink:title=" ">
<polygon fill="#e0e0e0" stroke="#999999" points="475.75,-135.38 418.5,-135.38 418.5,-116.12 475.75,-116.12 475.75,-135.38"/>
<text text-anchor="middle" x="447.12" y="-120.92" font-family="Helvetica,sans-Serif" font-size="11.00">iostream</text>
</a>
</g>
</g>
<!-- Node7&#45;&gt;Node10 -->
<g id="edge9_Node000007_Node000010" class="edge">
<title>Node7&#45;&gt;Node10</title>
<g id="a_edge9_Node000007_Node000010"><a xlink:title=" ">
<path fill="none" stroke="#63b8ff" d="M389.45,-176.68C399.74,-167.78 415.76,-153.91 428.31,-143.04"/>
<polygon fill="#63b8ff" stroke="#63b8ff" points="430.29,-145.96 435.56,-136.77 425.7,-140.67 430.29,-145.96"/>
</a>
</g>
</g>
<!-- Node11 -->
<g id="Node000011" class="node">
<title>Node11</title>
<g id="a_Node000011"><a xlink:title=" ">
<polygon fill="#e0e0e0" stroke="#999999" points="427,-19.25 353.25,-19.25 353.25,0 427,0 427,-19.25"/>
<text text-anchor="middle" x="390.12" y="-4.8" font-family="Helvetica,sans-Serif" font-size="11.00">fmt/format.h</text>
</a>
</g>
</g>
<!-- Node7&#45;&gt;Node11 -->
<g id="edge10_Node000007_Node000011" class="edge">
<title>Node7&#45;&gt;Node11</title>
<g id="a_edge10_Node000007_Node000011"><a xlink:title=" ">
<path fill="none" stroke="#63b8ff" d="M379.69,-176.71C381.38,-149.8 386.46,-68.94 388.85,-30.87"/>
<polygon fill="#63b8ff" stroke="#63b8ff" points="392.32,-31.45 389.46,-21.25 385.34,-31.01 392.32,-31.45"/>
</a>
</g>
</g>
<!-- Node12 -->
<g id="Node000012" class="node">
<title>Node12</title>
<g id="a_Node000012"><a xlink:href="string__utils_8h_source.html" target="_top" xlink:title=" ">
<polygon fill="white" stroke="#666666" points="295.25,-141 193,-141 193,-110.5 295.25,-110.5 295.25,-141"/>
<text text-anchor="start" x="201" y="-126.55" font-family="Helvetica,sans-Serif" font-size="11.00">floppy/detail/string</text>
<text text-anchor="middle" x="244.12" y="-115.3" font-family="Helvetica,sans-Serif" font-size="11.00">_utils.h</text>
</a>
</g>
</g>
<!-- Node7&#45;&gt;Node12 -->
<g id="edge11_Node000007_Node000012" class="edge">
<title>Node7&#45;&gt;Node12</title>
<g id="a_edge11_Node000007_Node000012"><a xlink:title=" ">
<path fill="none" stroke="#63b8ff" d="M358.33,-176.55C339.73,-168.44 311.85,-156.28 288.29,-146.01"/>
<polygon fill="#63b8ff" stroke="#63b8ff" points="289.77,-142.84 279.21,-142.05 286.97,-149.26 289.77,-142.84"/>
</a>
</g>
</g>
<!-- Node12&#45;&gt;Node8 -->
<g id="edge12_Node000012_Node000008" class="edge">
<title>Node12&#45;&gt;Node8</title>
<g id="a_edge12_Node000012_Node000008"><a xlink:title=" ">
<path fill="none" stroke="#63b8ff" d="M192.83,-111.77C156.4,-102.47 106.05,-89.44 53.6,-75.13"/>
<polygon fill="#63b8ff" stroke="#63b8ff" points="54.77,-71.82 44.2,-72.56 52.92,-78.57 54.77,-71.82"/>
</a>
</g>
</g>
<!-- Node12&#45;&gt;Node9 -->
<g id="edge13_Node000012_Node000009" class="edge">
<title>Node12&#45;&gt;Node9</title>
<g id="a_edge13_Node000012_Node000009"><a xlink:title=" ">
<path fill="none" stroke="#63b8ff" d="M264.64,-110.2C276.91,-101.49 292.51,-90.43 305.05,-81.53"/>
<polygon fill="#63b8ff" stroke="#63b8ff" points="306.96,-84.47 313.1,-75.83 302.91,-78.76 306.96,-84.47"/>
</a>
</g>
</g>
<!-- Node13 -->
<g id="Node000013" class="node">
<title>Node13</title>
<g id="a_Node000013"><a xlink:title=" ">
<polygon fill="#e0e0e0" stroke="#999999" points="274.25,-74.5 214,-74.5 214,-55.25 274.25,-55.25 274.25,-74.5"/>
<text text-anchor="middle" x="244.12" y="-60.05" font-family="Helvetica,sans-Serif" font-size="11.00">algorithm</text>
</a>
</g>
</g>
<!-- Node12&#45;&gt;Node13 -->
<g id="edge14_Node000012_Node000013" class="edge">
<title>Node12&#45;&gt;Node13</title>
<g id="a_edge14_Node000012_Node000013"><a xlink:title=" ">
<path fill="none" stroke="#63b8ff" d="M244.12,-110.2C244.12,-102.96 244.12,-94.09 244.12,-86.19"/>
<polygon fill="#63b8ff" stroke="#63b8ff" points="247.63,-86.46 244.13,-76.46 240.63,-86.46 247.63,-86.46"/>
</a>
</g>
</g>
<!-- Node14 -->
<g id="Node000014" class="node">
<title>Node14</title>
<g id="a_Node000014"><a xlink:href="exceptions_8h_source.html" target="_top" xlink:title=" ">
<polygon fill="white" stroke="#666666" points="196.12,-74.5 60.12,-74.5 60.12,-55.25 196.12,-55.25 196.12,-74.5"/>
<text text-anchor="middle" x="128.12" y="-60.05" font-family="Helvetica,sans-Serif" font-size="11.00">floppy/detail/exceptions.h</text>
</a>
</g>
</g>
<!-- Node12&#45;&gt;Node14 -->
<g id="edge15_Node000012_Node000014" class="edge">
<title>Node12&#45;&gt;Node14</title>
<g id="a_edge15_Node000012_Node000014"><a xlink:title=" ">
<path fill="none" stroke="#63b8ff" d="M215.15,-110.05C197.06,-100.86 173.9,-89.11 156.01,-80.03"/>
<polygon fill="#63b8ff" stroke="#63b8ff" points="157.77,-76.99 147.26,-75.59 154.6,-83.24 157.77,-76.99"/>
</a>
</g>
</g>
<!-- Node14&#45;&gt;Node11 -->
<g id="edge17_Node000014_Node000011" class="edge">
<title>Node14&#45;&gt;Node11</title>
<g id="a_edge17_Node000014_Node000011"><a xlink:title=" ">
<path fill="none" stroke="#63b8ff" d="M172.87,-54.78C219.82,-45.24 293.38,-30.29 341.68,-20.47"/>
<polygon fill="#63b8ff" stroke="#63b8ff" points="342.19,-23.94 351.3,-18.52 340.8,-17.08 342.19,-23.94"/>
</a>
</g>
</g>
<!-- Node15 -->
<g id="Node000015" class="node">
<title>Node15</title>
<g id="a_Node000015"><a xlink:title=" ">
<polygon fill="#e0e0e0" stroke="#999999" points="159,-19.25 97.25,-19.25 97.25,0 159,0 159,-19.25"/>
<text text-anchor="middle" x="128.12" y="-4.8" font-family="Helvetica,sans-Serif" font-size="11.00">stdexcept</text>
</a>
</g>
</g>
<!-- Node14&#45;&gt;Node15 -->
<g id="edge16_Node000014_Node000015" class="edge">
<title>Node14&#45;&gt;Node15</title>
<g id="a_edge16_Node000014_Node000015"><a xlink:title=" ">
<path fill="none" stroke="#63b8ff" d="M128.12,-55.08C128.12,-48.57 128.12,-39.42 128.12,-31.12"/>
<polygon fill="#63b8ff" stroke="#63b8ff" points="131.63,-31.12 128.13,-21.12 124.63,-31.12 131.63,-31.12"/>
</a>
</g>
</g>
<!-- Node17 -->
<g id="Node000017" class="node">
<title>Node17</title>
<g id="a_Node000017"><a xlink:title=" ">
<polygon fill="#e0e0e0" stroke="#999999" points="704.5,-135.38 645.75,-135.38 645.75,-116.12 704.5,-116.12 704.5,-135.38"/>
<text text-anchor="middle" x="675.12" y="-120.92" font-family="Helvetica,sans-Serif" font-size="11.00">concepts</text>
</a>
</g>
</g>
<!-- Node16&#45;&gt;Node17 -->
<g id="edge19_Node000016_Node000017" class="edge">
<title>Node16&#45;&gt;Node17</title>
<g id="a_edge19_Node000016_Node000017"><a xlink:title=" ">
<path fill="none" stroke="#63b8ff" d="M596.25,-176.68C610.86,-167.43 633.94,-152.82 651.37,-141.79"/>
<polygon fill="#63b8ff" stroke="#63b8ff" points="653.01,-144.89 659.59,-136.59 649.27,-138.98 653.01,-144.89"/>
</a>
</g>
</g>
<!-- Node18 -->
<g id="Node000018" class="node">
<title>Node18</title>
<g id="a_Node000018"><a xlink:href="type__traits_8h_source.html" target="_top" xlink:title=" ">
<polygon fill="white" stroke="#666666" points="831.25,-141 735,-141 735,-110.5 831.25,-110.5 831.25,-141"/>
<text text-anchor="start" x="743" y="-126.55" font-family="Helvetica,sans-Serif" font-size="11.00">floppy/detail/type</text>
<text text-anchor="middle" x="783.12" y="-115.3" font-family="Helvetica,sans-Serif" font-size="11.00">_traits.h</text>
</a>
</g>
</g>
<!-- Node16&#45;&gt;Node18 -->
<g id="edge20_Node000016_Node000018" class="edge">
<title>Node16&#45;&gt;Node18</title>
<g id="a_edge20_Node000016_Node000018"><a xlink:title=" ">
<path fill="none" stroke="#63b8ff" d="M613.09,-176.55C642.43,-167.96 687.28,-154.82 723.55,-144.2"/>
<polygon fill="#63b8ff" stroke="#63b8ff" points="724.44,-147.59 733.05,-141.42 722.47,-140.87 724.44,-147.59"/>
</a>
</g>
</g>
<!-- Node20 -->
<g id="Node000020" class="node">
<title>Node20</title>
<g id="a_Node000020"><a xlink:href="types_8h_source.html" target="_top" xlink:title=" ">
<polygon fill="white" stroke="#666666" points="627.38,-135.38 516.88,-135.38 516.88,-116.12 627.38,-116.12 627.38,-135.38"/>
<text text-anchor="middle" x="572.12" y="-120.92" font-family="Helvetica,sans-Serif" font-size="11.00">floppy/detail/types.h</text>
</a>
</g>
</g>
<!-- Node16&#45;&gt;Node20 -->
<g id="edge22_Node000016_Node000020" class="edge">
<title>Node16&#45;&gt;Node20</title>
<g id="a_edge22_Node000016_Node000020"><a xlink:title=" ">
<path fill="none" stroke="#63b8ff" d="M580.61,-176.68C579.27,-168.82 577.28,-157.07 575.56,-146.95"/>
<polygon fill="#63b8ff" stroke="#63b8ff" points="579.04,-146.54 573.91,-137.27 572.14,-147.71 579.04,-146.54"/>
</a>
</g>
</g>
<!-- Node19 -->
<g id="Node000019" class="node">
<title>Node19</title>
<g id="a_Node000019"><a xlink:title=" ">
<polygon fill="#e0e0e0" stroke="#999999" points="828.88,-74.5 763.38,-74.5 763.38,-55.25 828.88,-55.25 828.88,-74.5"/>
<text text-anchor="middle" x="796.12" y="-60.05" font-family="Helvetica,sans-Serif" font-size="11.00">type_traits</text>
</a>
</g>
</g>
<!-- Node18&#45;&gt;Node19 -->
<g id="edge21_Node000018_Node000019" class="edge">
<title>Node18&#45;&gt;Node19</title>
<g id="a_edge21_Node000018_Node000019"><a xlink:title=" ">
<path fill="none" stroke="#63b8ff" d="M786.34,-110.2C787.94,-102.96 789.9,-94.09 791.64,-86.19"/>
<polygon fill="#63b8ff" stroke="#63b8ff" points="795.06,-86.95 793.79,-76.43 788.22,-85.44 795.06,-86.95"/>
</a>
</g>
</g>
<!-- Node20&#45;&gt;Node11 -->
<g id="edge25_Node000020_Node000011" class="edge">
<title>Node20&#45;&gt;Node11</title>
<g id="a_edge25_Node000020_Node000011"><a xlink:title=" ">
<path fill="none" stroke="#63b8ff" d="M537.93,-115.68C511.55,-107.62 474.98,-94.06 447.12,-74.5 429.31,-61.99 413.22,-42.89 402.72,-28.83"/>
<polygon fill="#63b8ff" stroke="#63b8ff" points="405.68,-26.95 397,-20.88 400,-31.04 405.68,-26.95"/>
</a>
</g>
</g>
<!-- Node20&#45;&gt;Node19 -->
<g id="edge24_Node000020_Node000019" class="edge">
<title>Node20&#45;&gt;Node19</title>
<g id="a_edge24_Node000020_Node000019"><a xlink:title=" ">
<path fill="none" stroke="#63b8ff" d="M606.63,-115.68C645.73,-105.41 709.52,-88.64 752.15,-77.43"/>
<polygon fill="#63b8ff" stroke="#63b8ff" points="752.79,-80.88 761.57,-74.96 751.01,-74.11 752.79,-80.88"/>
</a>
</g>
</g>
<!-- Node21 -->
<g id="Node000021" class="node">
<title>Node21</title>
<g id="a_Node000021"><a xlink:title=" ">
<polygon fill="#e0e0e0" stroke="#999999" points="509.88,-74.5 456.38,-74.5 456.38,-55.25 509.88,-55.25 509.88,-74.5"/>
<text text-anchor="middle" x="483.12" y="-60.05" font-family="Helvetica,sans-Serif" font-size="11.00">optional</text>
</a>
</g>
</g>
<!-- Node20&#45;&gt;Node21 -->
<g id="edge23_Node000020_Node000021" class="edge">
<title>Node20&#45;&gt;Node21</title>
<g id="a_edge23_Node000020_Node000021"><a xlink:title=" ">
<path fill="none" stroke="#63b8ff" d="M558.61,-115.81C544.75,-106.64 522.95,-92.22 506.33,-81.23"/>
<polygon fill="#63b8ff" stroke="#63b8ff" points="508.3,-78.33 498.03,-75.74 504.44,-84.17 508.3,-78.33"/>
</a>
</g>
</g>
<!-- Node22 -->
<g id="Node000022" class="node">
<title>Node22</title>
<g id="a_Node000022"><a xlink:title=" ">
<polygon fill="#e0e0e0" stroke="#999999" points="616.5,-74.5 527.75,-74.5 527.75,-55.25 616.5,-55.25 616.5,-74.5"/>
<text text-anchor="middle" x="572.12" y="-60.05" font-family="Helvetica,sans-Serif" font-size="11.00">tl/expected.hpp</text>
</a>
</g>
</g>
<!-- Node20&#45;&gt;Node22 -->
<g id="edge26_Node000020_Node000022" class="edge">
<title>Node20&#45;&gt;Node22</title>
<g id="a_edge26_Node000020_Node000022"><a xlink:title=" ">
<path fill="none" stroke="#63b8ff" d="M572.12,-115.81C572.12,-108.03 572.12,-96.45 572.12,-86.41"/>
<polygon fill="#63b8ff" stroke="#63b8ff" points="575.63,-86.41 572.13,-76.41 568.63,-86.41 575.63,-86.41"/>
</a>
</g>
</g>
<!-- Node23 -->
<g id="Node000023" class="node">
<title>Node23</title>
<g id="a_Node000023"><a xlink:href="stdint_8h_source.html" target="_top" xlink:title=" ">
<polygon fill="white" stroke="#666666" points="745.38,-74.5 634.88,-74.5 634.88,-55.25 745.38,-55.25 745.38,-74.5"/>
<text text-anchor="middle" x="690.12" y="-60.05" font-family="Helvetica,sans-Serif" font-size="11.00">floppy/detail/stdint.h</text>
</a>
</g>
</g>
<!-- Node20&#45;&gt;Node23 -->
<g id="edge27_Node000020_Node000023" class="edge">
<title>Node20&#45;&gt;Node23</title>
<g id="a_edge27_Node000020_Node000023"><a xlink:title=" ">
<path fill="none" stroke="#63b8ff" d="M590.3,-115.68C609.42,-106.14 639.74,-91.02 661.95,-79.93"/>
<polygon fill="#63b8ff" stroke="#63b8ff" points="663.38,-83.13 670.76,-75.53 660.25,-76.87 663.38,-83.13"/>
</a>
</g>
</g>
<!-- Node24 -->
<g id="Node000024" class="node">
<title>Node24</title>
<g id="a_Node000024"><a xlink:title=" ">
<polygon fill="#e0e0e0" stroke="#999999" points="681.38,-19.25 630.88,-19.25 630.88,0 681.38,0 681.38,-19.25"/>
<text text-anchor="middle" x="656.12" y="-4.8" font-family="Helvetica,sans-Serif" font-size="11.00">cstddef</text>
</a>
</g>
</g>
<!-- Node23&#45;&gt;Node24 -->
<g id="edge28_Node000023_Node000024" class="edge">
<title>Node23&#45;&gt;Node24</title>
<g id="a_edge28_Node000023_Node000024"><a xlink:title=" ">
<path fill="none" stroke="#63b8ff" d="M684.51,-55.08C680.01,-48.03 673.54,-37.9 667.91,-29.08"/>
<polygon fill="#63b8ff" stroke="#63b8ff" points="671.01,-27.43 662.68,-20.88 665.11,-31.2 671.01,-27.43"/>
</a>
</g>
</g>
<!-- Node25 -->
<g id="Node000025" class="node">
<title>Node25</title>
<g id="a_Node000025"><a xlink:title=" ">
<polygon fill="#e0e0e0" stroke="#999999" points="746.5,-19.25 699.75,-19.25 699.75,0 746.5,0 746.5,-19.25"/>
<text text-anchor="middle" x="723.12" y="-4.8" font-family="Helvetica,sans-Serif" font-size="11.00">cstdint</text>
</a>
</g>
</g>
<!-- Node23&#45;&gt;Node25 -->
<g id="edge29_Node000023_Node000025" class="edge">
<title>Node23&#45;&gt;Node25</title>
<g id="a_edge29_Node000023_Node000025"><a xlink:title=" ">
<path fill="none" stroke="#63b8ff" d="M695.57,-55.08C699.9,-48.11 706.09,-38.12 711.51,-29.37"/>
<polygon fill="#63b8ff" stroke="#63b8ff" points="714.47,-31.24 716.76,-20.9 708.52,-27.55 714.47,-31.24"/>
</a>
</g>
</g>
</g>
</svg>
