<?xml version="1.0" encoding="UTF-8" standalone="no"?>
<!DOCTYPE svg PUBLIC "-//W3C//DTD SVG 1.1//EN"
 "http://www.w3.org/Graphics/SVG/1.1/DTD/svg11.dtd">
<!-- Generated by graphviz version 10.0.1 (0)
 -->
<!-- Title: nt_traits.h Pages: 1 -->
<!--zoomable 315 -->

<svg id="main" version="1.1" xmlns="http://www.w3.org/2000/svg" xmlns:xlink="http://www.w3.org/1999/xlink" xml:space="preserve" onload="init(evt)">
<style type="text/css"><![CDATA[
.node, .edge {opacity: 0.7;}
.node.selected, .edge.selected {opacity: 1;}
.edge:hover path { stroke: red; }
.edge:hover polygon { stroke: red; fill: red; }
]]></style>

<defs>
  <circle id="rim" cx="0" cy="0" r="7"/>
  <circle id="rim2" cx="0" cy="0" r="3.5"/>
  <g id="zoomPlus">
    <use xlink:href="#rim" fill="#404040"><set attributeName="fill" to="#808080" begin="zoomplus.mouseover" end="zoomplus.mouseout"/></use>
    <path d="M-4,0h8M0,-4v8" fill="none" stroke="white" stroke-width="1.5" pointer-events="none"/>
  </g>
  <g id="zoomMin">
    <use xlink:href="#rim" fill="#404040"><set attributeName="fill" to="#808080" begin="zoomminus.mouseover" end="zoomminus.mouseout"/></use>
    <path d="M-4,0h8" fill="none" stroke="white" stroke-width="1.5" pointer-events="none"/>
  </g>
  <g id="arrowUp" transform="translate(30 24)">
    <use xlink:href="#rim"/>
    <path pointer-events="none" fill="none" stroke="white" stroke-width="1.5" d="M0,-3.0v7 M-2.5,-0.5L0,-3.0L2.5,-0.5"/>
  </g>
  <g id="arrowRight" transform="rotate(90) translate(36 -43)">
    <use xlink:href="#rim"/>
    <path pointer-events="none" fill="none" stroke="white" stroke-width="1.5" d="M0,-3.0v7 M-2.5,-0.5L0,-3.0L2.5,-0.5"/>
  </g>
  <g id="arrowDown" transform="rotate(180) translate(-30 -48)">
    <use xlink:href="#rim"/>
    <path pointer-events="none" fill="none" stroke="white" stroke-width="1.5" d="M0,-3.0v7 M-2.5,-0.5L0,-3.0L2.5,-0.5"/>
  </g>
  <g id="arrowLeft" transform="rotate(270) translate(-36 17)">
    <use xlink:href="#rim"/>
    <path pointer-events="none" fill="none" stroke="white" stroke-width="1.5" d="M0,-3.0v7 M-2.5,-0.5L0,-3.0L2.5,-0.5"/>
  </g>
  <g id="resetDef">
    <use xlink:href="#rim2" fill="#404040"><set attributeName="fill" to="#808080" begin="reset.mouseover" end="reset.mouseout"/></use>
  </g>
</defs>
<script type="application/ecmascript">
var viewWidth = 841;
var viewHeight = 315;
var sectionId = 'dynsection-0';
</script>
<script type="application/ecmascript" xlink:href="svg.min.js"/>
<svg id="graph" class="graph">
<g id="viewport">
<title>nt_traits.h</title>
<!-- Node1 -->
<g id="Node000001" class="node">
<title>Node1</title>
<g id="a_Node000001"><a xlink:title=" ">
<polygon fill="#999999" stroke="#666666" points="451.75,-306.75 388.5,-306.75 388.5,-287.5 451.75,-287.5 451.75,-306.75"/>
<text text-anchor="middle" x="420.12" y="-292.3" font-family="Helvetica,sans-Serif" font-size="11.00">nt_traits.h</text>
</a>
</g>
</g>
<!-- Node2 -->
<g id="Node000002" class="node">
<title>Node2</title>
<g id="a_Node000002"><a xlink:href="math_8h_source.html" target="_top" xlink:title=" ">
<polygon fill="white" stroke="#666666" points="433.62,-251.5 324.62,-251.5 324.62,-232.25 433.62,-232.25 433.62,-251.5"/>
<text text-anchor="middle" x="379.12" y="-237.05" font-family="Helvetica,sans-Serif" font-size="11.00">floppy/detail/math.h</text>
</a>
</g>
</g>
<!-- Node1&#45;&gt;Node2 -->
<g id="edge1_Node000001_Node000002" class="edge">
<title>Node1&#45;&gt;Node2</title>
<g id="a_edge1_Node000001_Node000002"><a xlink:title=" ">
<path fill="none" stroke="#63b8ff" d="M413.35,-287.33C407.81,-280.13 399.78,-269.71 392.9,-260.76"/>
<polygon fill="#63b8ff" stroke="#63b8ff" points="395.84,-258.85 386.97,-253.06 390.29,-263.12 395.84,-258.85"/>
</a>
</g>
</g>
<!-- Node16 -->
<g id="Node000016" class="node">
<title>Node16</title>
<g id="a_Node000016"><a xlink:href="concepts_8h_source.html" target="_top" xlink:title=" ">
<polygon fill="white" stroke="#666666" points="646,-196.25 518.25,-196.25 518.25,-177 646,-177 646,-196.25"/>
<text text-anchor="middle" x="582.12" y="-181.8" font-family="Helvetica,sans-Serif" font-size="11.00">floppy/detail/concepts.h</text>
</a>
</g>
</g>
<!-- Node1&#45;&gt;Node16 -->
<g id="edge29_Node000001_Node000016" class="edge">
<title>Node1&#45;&gt;Node16</title>
<g id="a_edge29_Node000001_Node000016"><a xlink:title=" ">
<path fill="none" stroke="#63b8ff" d="M433.66,-287.06C461.48,-268.43 525.36,-225.65 559.55,-202.75"/>
<polygon fill="#63b8ff" stroke="#63b8ff" points="561.13,-205.9 567.49,-197.43 557.23,-200.09 561.13,-205.9"/>
</a>
</g>
</g>
<!-- Node3 -->
<g id="Node000003" class="node">
<title>Node3</title>
<g id="a_Node000003"><a xlink:title=" ">
<polygon fill="#e0e0e0" stroke="#999999" points="499.75,-196.25 454.5,-196.25 454.5,-177 499.75,-177 499.75,-196.25"/>
<text text-anchor="middle" x="477.12" y="-181.8" font-family="Helvetica,sans-Serif" font-size="11.00">cmath</text>
</a>
</g>
</g>
<!-- Node2&#45;&gt;Node3 -->
<g id="edge2_Node000002_Node000003" class="edge">
<title>Node2&#45;&gt;Node3</title>
<g id="a_edge2_Node000002_Node000003"><a xlink:title=" ">
<path fill="none" stroke="#63b8ff" d="M395.75,-231.84C410.81,-223.66 433.27,-211.46 450.78,-201.94"/>
<polygon fill="#63b8ff" stroke="#63b8ff" points="451.97,-205.27 459.09,-197.43 448.63,-199.12 451.97,-205.27"/>
</a>
</g>
</g>
<!-- Node4 -->
<g id="Node000004" class="node">
<title>Node4</title>
<g id="a_Node000004"><a xlink:title=" ">
<polygon fill="#e0e0e0" stroke="#999999" points="151.12,-196.25 111.12,-196.25 111.12,-177 151.12,-177 151.12,-196.25"/>
<text text-anchor="middle" x="131.12" y="-181.8" font-family="Helvetica,sans-Serif" font-size="11.00">limits</text>
</a>
</g>
</g>
<!-- Node2&#45;&gt;Node4 -->
<g id="edge3_Node000002_Node000004" class="edge">
<title>Node2&#45;&gt;Node4</title>
<g id="a_edge3_Node000002_Node000004"><a xlink:title=" ">
<path fill="none" stroke="#63b8ff" d="M327.95,-231.77C285.82,-223.97 224.33,-211.92 162.14,-196.58"/>
<polygon fill="#63b8ff" stroke="#63b8ff" points="163.36,-193.28 152.81,-194.25 161.67,-200.07 163.36,-193.28"/>
</a>
</g>
</g>
<!-- Node5 -->
<g id="Node000005" class="node">
<title>Node5</title>
<g id="a_Node000005"><a xlink:title=" ">
<polygon fill="#e0e0e0" stroke="#999999" points="227.12,-196.25 169.12,-196.25 169.12,-177 227.12,-177 227.12,-196.25"/>
<text text-anchor="middle" x="198.12" y="-181.8" font-family="Helvetica,sans-Serif" font-size="11.00">numbers</text>
</a>
</g>
</g>
<!-- Node2&#45;&gt;Node5 -->
<g id="edge4_Node000002_Node000005" class="edge">
<title>Node2&#45;&gt;Node5</title>
<g id="a_edge4_Node000002_Node000005"><a xlink:title=" ">
<path fill="none" stroke="#63b8ff" d="M348.42,-231.84C318.06,-222.91 271.46,-209.2 238.2,-199.42"/>
<polygon fill="#63b8ff" stroke="#63b8ff" points="239.51,-196.15 228.93,-196.69 237.54,-202.87 239.51,-196.15"/>
</a>
</g>
</g>
<!-- Node6 -->
<g id="Node000006" class="node">
<title>Node6</title>
<g id="a_Node000006"><a xlink:title=" ">
<polygon fill="#e0e0e0" stroke="#999999" points="303.12,-196.25 245.12,-196.25 245.12,-177 303.12,-177 303.12,-196.25"/>
<text text-anchor="middle" x="274.12" y="-181.8" font-family="Helvetica,sans-Serif" font-size="11.00">compare</text>
</a>
</g>
</g>
<!-- Node2&#45;&gt;Node6 -->
<g id="edge5_Node000002_Node000006" class="edge">
<title>Node2&#45;&gt;Node6</title>
<g id="a_edge5_Node000002_Node000006"><a xlink:title=" ">
<path fill="none" stroke="#63b8ff" d="M361.31,-231.84C345.1,-223.62 320.89,-211.34 302.09,-201.81"/>
<polygon fill="#63b8ff" stroke="#63b8ff" points="303.88,-198.79 293.37,-197.39 300.71,-205.03 303.88,-198.79"/>
</a>
</g>
</g>
<!-- Node7 -->
<g id="Node000007" class="node">
<title>Node7</title>
<g id="a_Node000007"><a xlink:href="export_8h_source.html" target="_top" xlink:title=" ">
<polygon fill="white" stroke="#666666" points="436.62,-196.25 321.62,-196.25 321.62,-177 436.62,-177 436.62,-196.25"/>
<text text-anchor="middle" x="379.12" y="-181.8" font-family="Helvetica,sans-Serif" font-size="11.00">floppy/detail/export.h</text>
</a>
</g>
</g>
<!-- Node2&#45;&gt;Node7 -->
<g id="edge6_Node000002_Node000007" class="edge">
<title>Node2&#45;&gt;Node7</title>
<g id="a_edge6_Node000002_Node000007"><a xlink:title=" ">
<path fill="none" stroke="#63b8ff" d="M379.12,-232.08C379.12,-225.57 379.12,-216.42 379.12,-208.12"/>
<polygon fill="#63b8ff" stroke="#63b8ff" points="382.63,-208.12 379.13,-198.12 375.63,-208.12 382.63,-208.12"/>
</a>
</g>
</g>
<!-- Node2&#45;&gt;Node16 -->
<g id="edge18_Node000002_Node000016" class="edge">
<title>Node2&#45;&gt;Node16</title>
<g id="a_edge18_Node000002_Node000016"><a xlink:title=" ">
<path fill="none" stroke="#63b8ff" d="M413.56,-231.84C447.39,-222.97 499.21,-209.37 536.46,-199.6"/>
<polygon fill="#63b8ff" stroke="#63b8ff" points="537.27,-203.01 546.06,-197.09 535.5,-196.24 537.27,-203.01"/>
</a>
</g>
</g>
<!-- Node8 -->
<g id="Node000008" class="node">
<title>Node8</title>
<g id="a_Node000008"><a xlink:title=" ">
<polygon fill="#e0e0e0" stroke="#999999" points="42.25,-74.5 0,-74.5 0,-55.25 42.25,-55.25 42.25,-74.5"/>
<text text-anchor="middle" x="21.12" y="-60.05" font-family="Helvetica,sans-Serif" font-size="11.00">string</text>
</a>
</g>
</g>
<!-- Node7&#45;&gt;Node8 -->
<g id="edge7_Node000007_Node000008" class="edge">
<title>Node7&#45;&gt;Node8</title>
<g id="a_edge7_Node000007_Node000008"><a xlink:title=" ">
<path fill="none" stroke="#63b8ff" d="M325.75,-176.5C286.08,-168.98 230.97,-156.96 184.12,-141 134.31,-124.02 79.27,-96.75 47.59,-80.15"/>
<polygon fill="#63b8ff" stroke="#63b8ff" points="49.59,-77.25 39.12,-75.67 46.32,-83.44 49.59,-77.25"/>
</a>
</g>
</g>
<!-- Node9 -->
<g id="Node000009" class="node">
<title>Node9</title>
<g id="a_Node000009"><a xlink:title=" ">
<polygon fill="#e0e0e0" stroke="#999999" points="362.12,-74.5 292.12,-74.5 292.12,-55.25 362.12,-55.25 362.12,-74.5"/>
<text text-anchor="middle" x="327.12" y="-60.05" font-family="Helvetica,sans-Serif" font-size="11.00">string_view</text>
</a>
</g>
</g>
<!-- Node7&#45;&gt;Node9 -->
<g id="edge8_Node000007_Node000009" class="edge">
<title>Node7&#45;&gt;Node9</title>
<g id="a_edge8_Node000007_Node000009"><a xlink:title=" ">
<path fill="none" stroke="#63b8ff" d="M375.22,-176.62C366.82,-157.29 346.91,-111.43 335.51,-85.19"/>
<polygon fill="#63b8ff" stroke="#63b8ff" points="338.88,-84.15 331.68,-76.37 332.45,-86.94 338.88,-84.15"/>
</a>
</g>
</g>
<!-- Node10 -->
<g id="Node000010" class="node">
<title>Node10</title>
<g id="a_Node000010"><a xlink:title=" ">
<polygon fill="#e0e0e0" stroke="#999999" points="475.75,-135.38 418.5,-135.38 418.5,-116.12 475.75,-116.12 475.75,-135.38"/>
<text text-anchor="middle" x="447.12" y="-120.92" font-family="Helvetica,sans-Serif" font-size="11.00">iostream</text>
</a>
</g>
</g>
<!-- Node7&#45;&gt;Node10 -->
<g id="edge9_Node000007_Node000010" class="edge">
<title>Node7&#45;&gt;Node10</title>
<g id="a_edge9_Node000007_Node000010"><a xlink:title=" ">
<path fill="none" stroke="#63b8ff" d="M389.45,-176.68C399.74,-167.78 415.76,-153.91 428.31,-143.04"/>
<polygon fill="#63b8ff" stroke="#63b8ff" points="430.29,-145.96 435.56,-136.77 425.7,-140.67 430.29,-145.96"/>
</a>
</g>
</g>
<!-- Node11 -->
<g id="Node000011" class="node">
<title>Node11</title>
<g id="a_Node000011"><a xlink:title=" ">
<polygon fill="#e0e0e0" stroke="#999999" points="427,-19.25 353.25,-19.25 353.25,0 427,0 427,-19.25"/>
<text text-anchor="middle" x="390.12" y="-4.8" font-family="Helvetica,sans-Serif" font-size="11.00">fmt/format.h</text>
</a>
</g>
</g>
<!-- Node7&#45;&gt;Node11 -->
<g id="edge10_Node000007_Node000011" class="edge">
<title>Node7&#45;&gt;Node11</title>
<g id="a_edge10_Node000007_Node000011"><a xlink:title=" ">
<path fill="none" stroke="#63b8ff" d="M379.69,-176.71C381.38,-149.8 386.46,-68.94 388.85,-30.87"/>
<polygon fill="#63b8ff" stroke="#63b8ff" points="392.32,-31.45 389.46,-21.25 385.34,-31.01 392.32,-31.45"/>
</a>
</g>
</g>
<!-- Node12 -->
<g id="Node000012" class="node">
<title>Node12</title>
<g id="a_Node000012"><a xlink:href="string__utils_8h_source.html" target="_top" xlink:title=" ">
<polygon fill="white" stroke="#666666" points="295.25,-141 193,-141 193,-110.5 295.25,-110.5 295.25,-141"/>
<text text-anchor="start" x="201" y="-126.55" font-family="Helvetica,sans-Serif" font-size="11.00">floppy/detail/string</text>
<text text-anchor="middle" x="244.12" y="-115.3" font-family="Helvetica,sans-Serif" font-size="11.00">_utils.h</text>
</a>
</g>
</g>
<!-- Node7&#45;&gt;Node12 -->
<g id="edge11_Node000007_Node000012" class="edge">
<title>Node7&#45;&gt;Node12</title>
<g id="a_edge11_Node000007_Node000012"><a xlink:title=" ">
<path fill="none" stroke="#63b8ff" d="M358.33,-176.55C339.73,-168.44 311.85,-156.28 288.29,-146.01"/>
<polygon fill="#63b8ff" stroke="#63b8ff" points="289.77,-142.84 279.21,-142.05 286.97,-149.26 289.77,-142.84"/>
</a>
</g>
</g>
<!-- Node12&#45;&gt;Node8 -->
<g id="edge12_Node000012_Node000008" class="edge">
<title>Node12&#45;&gt;Node8</title>
<g id="a_edge12_Node000012_Node000008"><a xlink:title=" ">
<path fill="none" stroke="#63b8ff" d="M192.83,-111.77C156.4,-102.47 106.05,-89.44 53.6,-75.13"/>
<polygon fill="#63b8ff" stroke="#63b8ff" points="54.77,-71.82 44.2,-72.56 52.92,-78.57 54.77,-71.82"/>
</a>
</g>
</g>
<!-- Node12&#45;&gt;Node9 -->
<g id="edge13_Node000012_Node000009" class="edge">
<title>Node12&#45;&gt;Node9</title>
<g id="a_edge13_Node000012_Node000009"><a xlink:title=" ">
<path fill="none" stroke="#63b8ff" d="M264.64,-110.2C276.91,-101.49 292.51,-90.43 305.05,-81.53"/>
<polygon fill="#63b8ff" stroke="#63b8ff" points="306.96,-84.47 313.1,-75.83 302.91,-78.76 306.96,-84.47"/>
</a>
</g>
</g>
<!-- Node13 -->
<g id="Node000013" class="node">
<title>Node13</title>
<g id="a_Node000013"><a xlink:title=" ">
<polygon fill="#e0e0e0" stroke="#999999" points="274.25,-74.5 214,-74.5 214,-55.25 274.25,-55.25 274.25,-74.5"/>
<text text-anchor="middle" x="244.12" y="-60.05" font-family="Helvetica,sans-Serif" font-size="11.00">algorithm</text>
</a>
</g>
</g>
<!-- Node12&#45;&gt;Node13 -->
<g id="edge14_Node000012_Node000013" class="edge">
<title>Node12&#45;&gt;Node13</title>
<g id="a_edge14_Node000012_Node000013"><a xlink:title=" ">
<path fill="none" stroke="#63b8ff" d="M244.12,-110.2C244.12,-102.96 244.12,-94.09 244.12,-86.19"/>
<polygon fill="#63b8ff" stroke="#63b8ff" points="247.63,-86.46 244.13,-76.46 240.63,-86.46 247.63,-86.46"/>
</a>
</g>
</g>
<!-- Node14 -->
<g id="Node000014" class="node">
<title>Node14</title>
<g id="a_Node000014"><a xlink:href="exceptions_8h_source.html" target="_top" xlink:title=" ">
<polygon fill="white" stroke="#666666" points="196.12,-74.5 60.12,-74.5 60.12,-55.25 196.12,-55.25 196.12,-74.5"/>
<text text-anchor="middle" x="128.12" y="-60.05" font-family="Helvetica,sans-Serif" font-size="11.00">floppy/detail/exceptions.h</text>
</a>
</g>
</g>
<!-- Node12&#45;&gt;Node14 -->
<g id="edge15_Node000012_Node000014" class="edge">
<title>Node12&#45;&gt;Node14</title>
<g id="a_edge15_Node000012_Node000014"><a xlink:title=" ">
<path fill="none" stroke="#63b8ff" d="M215.15,-110.05C197.06,-100.86 173.9,-89.11 156.01,-80.03"/>
<polygon fill="#63b8ff" stroke="#63b8ff" points="157.77,-76.99 147.26,-75.59 154.6,-83.24 157.77,-76.99"/>
</a>
</g>
</g>
<!-- Node14&#45;&gt;Node11 -->
<g id="edge17_Node000014_Node000011" class="edge">
<title>Node14&#45;&gt;Node11</title>
<g id="a_edge17_Node000014_Node000011"><a xlink:title=" ">
<path fill="none" stroke="#63b8ff" d="M172.87,-54.78C219.82,-45.24 293.38,-30.29 341.68,-20.47"/>
<polygon fill="#63b8ff" stroke="#63b8ff" points="342.19,-23.94 351.3,-18.52 340.8,-17.08 342.19,-23.94"/>
</a>
</g>
</g>
<!-- Node15 -->
<g id="Node000015" class="node">
<title>Node15</title>
<g id="a_Node000015"><a xlink:title=" ">
<polygon fill="#e0e0e0" stroke="#999999" points="159,-19.25 97.25,-19.25 97.25,0 159,0 159,-19.25"/>
<text text-anchor="middle" x="128.12" y="-4.8" font-family="Helvetica,sans-Serif" font-size="11.00">stdexcept</text>
</a>
</g>
</g>
<!-- Node14&#45;&gt;Node15 -->
<g id="edge16_Node000014_Node000015" class="edge">
<title>Node14&#45;&gt;Node15</title>
<g id="a_edge16_Node000014_Node000015"><a xlink:title=" ">
<path fill="none" stroke="#63b8ff" d="M128.12,-55.08C128.12,-48.57 128.12,-39.42 128.12,-31.12"/>
<polygon fill="#63b8ff" stroke="#63b8ff" points="131.63,-31.12 128.13,-21.12 124.63,-31.12 131.63,-31.12"/>
</a>
</g>
</g>
<!-- Node17 -->
<g id="Node000017" class="node">
<title>Node17</title>
<g id="a_Node000017"><a xlink:title=" ">
<polygon fill="#e0e0e0" stroke="#999999" points="703.5,-135.38 644.75,-135.38 644.75,-116.12 703.5,-116.12 703.5,-135.38"/>
<text text-anchor="middle" x="674.12" y="-120.92" font-family="Helvetica,sans-Serif" font-size="11.00">concepts</text>
</a>
</g>
</g>
<!-- Node16&#45;&gt;Node17 -->
<g id="edge19_Node000016_Node000017" class="edge">
<title>Node16&#45;&gt;Node17</title>
<g id="a_edge19_Node000016_Node000017"><a xlink:title=" ">
<path fill="none" stroke="#63b8ff" d="M596.1,-176.68C610.55,-167.43 633.38,-152.82 650.62,-141.79"/>
<polygon fill="#63b8ff" stroke="#63b8ff" points="652.21,-144.93 658.75,-136.59 648.44,-139.03 652.21,-144.93"/>
</a>
</g>
</g>
<!-- Node18 -->
<g id="Node000018" class="node">
<title>Node18</title>
<g id="a_Node000018"><a xlink:href="type__traits_8h_source.html" target="_top" xlink:title=" ">
<polygon fill="white" stroke="#666666" points="833.25,-141 737,-141 737,-110.5 833.25,-110.5 833.25,-141"/>
<text text-anchor="start" x="745" y="-126.55" font-family="Helvetica,sans-Serif" font-size="11.00">floppy/detail/type</text>
<text text-anchor="middle" x="785.12" y="-115.3" font-family="Helvetica,sans-Serif" font-size="11.00">_traits.h</text>
</a>
</g>
</g>
<!-- Node16&#45;&gt;Node18 -->
<g id="edge20_Node000016_Node000018" class="edge">
<title>Node16&#45;&gt;Node18</title>
<g id="a_edge20_Node000016_Node000018"><a xlink:title=" ">
<path fill="none" stroke="#63b8ff" d="M613.4,-176.55C643.36,-167.86 689.34,-154.53 726.18,-143.85"/>
<polygon fill="#63b8ff" stroke="#63b8ff" points="726.72,-147.33 735.35,-141.19 724.77,-140.61 726.72,-147.33"/>
</a>
</g>
</g>
<!-- Node20 -->
<g id="Node000020" class="node">
<title>Node20</title>
<g id="a_Node000020"><a xlink:href="types_8h_source.html" target="_top" xlink:title=" ">
<polygon fill="white" stroke="#666666" points="626.38,-135.38 515.88,-135.38 515.88,-116.12 626.38,-116.12 626.38,-135.38"/>
<text text-anchor="middle" x="571.12" y="-120.92" font-family="Helvetica,sans-Serif" font-size="11.00">floppy/detail/types.h</text>
</a>
</g>
</g>
<!-- Node16&#45;&gt;Node20 -->
<g id="edge22_Node000016_Node000020" class="edge">
<title>Node16&#45;&gt;Node20</title>
<g id="a_edge22_Node000016_Node000020"><a xlink:title=" ">
<path fill="none" stroke="#63b8ff" d="M580.45,-176.68C578.98,-168.82 576.79,-157.07 574.9,-146.95"/>
<polygon fill="#63b8ff" stroke="#63b8ff" points="578.37,-146.45 573.09,-137.26 571.49,-147.74 578.37,-146.45"/>
</a>
</g>
</g>
<!-- Node19 -->
<g id="Node000019" class="node">
<title>Node19</title>
<g id="a_Node000019"><a xlink:title=" ">
<polygon fill="#e0e0e0" stroke="#999999" points="832.88,-74.5 767.38,-74.5 767.38,-55.25 832.88,-55.25 832.88,-74.5"/>
<text text-anchor="middle" x="800.12" y="-60.05" font-family="Helvetica,sans-Serif" font-size="11.00">type_traits</text>
</a>
</g>
</g>
<!-- Node18&#45;&gt;Node19 -->
<g id="edge21_Node000018_Node000019" class="edge">
<title>Node18&#45;&gt;Node19</title>
<g id="a_edge21_Node000018_Node000019"><a xlink:title=" ">
<path fill="none" stroke="#63b8ff" d="M788.83,-110.2C790.7,-102.87 792.99,-93.87 795.02,-85.91"/>
<polygon fill="#63b8ff" stroke="#63b8ff" points="798.36,-86.97 797.44,-76.42 791.58,-85.24 798.36,-86.97"/>
</a>
</g>
</g>
<!-- Node20&#45;&gt;Node11 -->
<g id="edge27_Node000020_Node000011" class="edge">
<title>Node20&#45;&gt;Node11</title>
<g id="a_edge27_Node000020_Node000011"><a xlink:title=" ">
<path fill="none" stroke="#63b8ff" d="M537.47,-115.71C511.28,-107.63 474.85,-94.03 447.12,-74.5 429.33,-61.97 413.24,-42.87 402.73,-28.82"/>
<polygon fill="#63b8ff" stroke="#63b8ff" points="405.69,-26.94 397,-20.87 400.01,-31.03 405.69,-26.94"/>
</a>
</g>
</g>
<!-- Node20&#45;&gt;Node19 -->
<g id="edge26_Node000020_Node000019" class="edge">
<title>Node20&#45;&gt;Node19</title>
<g id="a_edge26_Node000020_Node000019"><a xlink:title=" ">
<path fill="none" stroke="#63b8ff" d="M606.4,-115.68C646.6,-105.35 712.34,-88.44 755.92,-77.24"/>
<polygon fill="#63b8ff" stroke="#63b8ff" points="756.76,-80.64 765.57,-74.76 755.02,-73.86 756.76,-80.64"/>
</a>
</g>
</g>
<!-- Node21 -->
<g id="Node000021" class="node">
<title>Node21</title>
<g id="a_Node000021"><a xlink:title=" ">
<polygon fill="#e0e0e0" stroke="#999999" points="506.38,-74.5 455.88,-74.5 455.88,-55.25 506.38,-55.25 506.38,-74.5"/>
<text text-anchor="middle" x="481.12" y="-60.05" font-family="Helvetica,sans-Serif" font-size="11.00">cstddef</text>
</a>
</g>
</g>
<!-- Node20&#45;&gt;Node21 -->
<g id="edge23_Node000020_Node000021" class="edge">
<title>Node20&#45;&gt;Node21</title>
<g id="a_edge23_Node000020_Node000021"><a xlink:title=" ">
<path fill="none" stroke="#63b8ff" d="M557.46,-115.81C543.32,-106.56 520.98,-91.95 504.12,-80.92"/>
<polygon fill="#63b8ff" stroke="#63b8ff" points="506.47,-78.28 496.19,-75.73 502.64,-84.13 506.47,-78.28"/>
</a>
</g>
</g>
<!-- Node22 -->
<g id="Node000022" class="node">
<title>Node22</title>
<g id="a_Node000022"><a xlink:title=" ">
<polygon fill="#e0e0e0" stroke="#999999" points="571.5,-74.5 524.75,-74.5 524.75,-55.25 571.5,-55.25 571.5,-74.5"/>
<text text-anchor="middle" x="548.12" y="-60.05" font-family="Helvetica,sans-Serif" font-size="11.00">cstdint</text>
</a>
</g>
</g>
<!-- Node20&#45;&gt;Node22 -->
<g id="edge24_Node000020_Node000022" class="edge">
<title>Node20&#45;&gt;Node22</title>
<g id="a_edge24_Node000020_Node000022"><a xlink:title=" ">
<path fill="none" stroke="#63b8ff" d="M567.63,-115.81C564.49,-107.77 559.77,-95.68 555.76,-85.41"/>
<polygon fill="#63b8ff" stroke="#63b8ff" points="559.1,-84.35 552.2,-76.31 552.58,-86.9 559.1,-84.35"/>
</a>
</g>
</g>
<!-- Node23 -->
<g id="Node000023" class="node">
<title>Node23</title>
<g id="a_Node000023"><a xlink:title=" ">
<polygon fill="#e0e0e0" stroke="#999999" points="642.88,-74.5 589.38,-74.5 589.38,-55.25 642.88,-55.25 642.88,-74.5"/>
<text text-anchor="middle" x="616.12" y="-60.05" font-family="Helvetica,sans-Serif" font-size="11.00">optional</text>
</a>
</g>
</g>
<!-- Node20&#45;&gt;Node23 -->
<g id="edge25_Node000020_Node000023" class="edge">
<title>Node20&#45;&gt;Node23</title>
<g id="a_edge25_Node000020_Node000023"><a xlink:title=" ">
<path fill="none" stroke="#63b8ff" d="M577.96,-115.81C584.44,-107.34 594.35,-94.37 602.45,-83.77"/>
<polygon fill="#63b8ff" stroke="#63b8ff" points="605.02,-86.17 608.31,-76.1 599.45,-81.92 605.02,-86.17"/>
</a>
</g>
</g>
<!-- Node24 -->
<g id="Node000024" class="node">
<title>Node24</title>
<g id="a_Node000024"><a xlink:title=" ">
<polygon fill="#e0e0e0" stroke="#999999" points="749.5,-74.5 660.75,-74.5 660.75,-55.25 749.5,-55.25 749.5,-74.5"/>
<text text-anchor="middle" x="705.12" y="-60.05" font-family="Helvetica,sans-Serif" font-size="11.00">tl/expected.hpp</text>
</a>
</g>
</g>
<!-- Node20&#45;&gt;Node24 -->
<g id="edge28_Node000020_Node000024" class="edge">
<title>Node20&#45;&gt;Node24</title>
<g id="a_edge28_Node000020_Node000024"><a xlink:title=" ">
<path fill="none" stroke="#63b8ff" d="M591.77,-115.68C613.77,-106.01 648.84,-90.6 674.16,-79.48"/>
<polygon fill="#63b8ff" stroke="#63b8ff" points="675.54,-82.69 683.29,-75.47 672.73,-76.29 675.54,-82.69"/>
</a>
</g>
</g>
</g>
</svg>

<g id="navigator" transform="translate(0 0)" fill="#404254">
  <rect fill="#f2f5e9" fill-opacity="0.5" stroke="#606060" stroke-width=".5" x="0" y="0" width="60" height="60"/>
  <use id="zoomplus" xlink:href="#zoomPlus" x="17" y="9" onmousedown="handleZoom(evt,'in')"/>
  <use id="zoomminus" xlink:href="#zoomMin" x="42" y="9" onmousedown="handleZoom(evt,'out')"/>
  <use id="reset" xlink:href="#resetDef" x="30" y="36" onmousedown="handleReset()"/>
   <use id="arrowup" xlink:href="#arrowUp" x="0" y="0" onmousedown="handlePan(0,-1)"/>
  <use id="arrowright" xlink:href="#arrowRight" x="0" y="0" onmousedown="handlePan(1,0)"/>
  <use id="arrowdown" xlink:href="#arrowDown" x="0" y="0" onmousedown="handlePan(0,1)"/>
  <use id="arrowleft" xlink:href="#arrowLeft" x="0" y="0" onmousedown="handlePan(-1,0)"/>
</g>
<svg viewBox="0 0 15 15" width="100%" height="30px" preserveAspectRatio="xMaxYMin meet">
 <g id="arrow_out" transform="scale(0.3 0.3)">
  <a xlink:href="nt__traits_8h__incl_org.svg" target="_base">
   <rect id="button" ry="5" rx="5" y="6" x="6" height="38" width="38"
        fill="#f2f5e9" fill-opacity="0.5" stroke="#606060" stroke-width="1.0"/>
   <path id="arrow"
     d="M 11.500037,31.436501 C 11.940474,20.09759 22.043105,11.32322 32.158766,21.979434 L 37.068811,17.246167 C 37.068811,17.246167 37.088388,32 37.088388,32 L 22.160133,31.978069 C 22.160133,31.978069 26.997745,27.140456 26.997745,27.140456 C 18.528582,18.264221 13.291696,25.230495 11.500037,31.436501 z"
     style="fill:#404040;"/>
  </a>
 </g>
</svg>

<style type='text/css'>
<![CDATA[
[data-mouse-over-selected='false'] { opacity: 0.7; }
[data-mouse-over-selected='true']  { opacity: 1.0; }
]]>
</style>
<script type="application/ecmascript"><![CDATA[
document.addEventListener('DOMContentLoaded', (event) => {
  highlightEdges();
  highlightAdjacentNodes();
});
]]></script>
</svg>
