<?xml version="1.0" encoding="UTF-8" standalone="no"?>
<!DOCTYPE svg PUBLIC "-//W3C//DTD SVG 1.1//EN"
 "http://www.w3.org/Graphics/SVG/1.1/DTD/svg11.dtd">
<!-- Generated by graphviz version 10.0.1 (0)
 -->
<!-- Title: point2d.h Pages: 1 -->
<svg width="1124pt" height="625pt"
 viewBox="0.00 0.00 1123.75 624.75" xmlns="http://www.w3.org/2000/svg" xmlns:xlink="http://www.w3.org/1999/xlink">
<g id="graph0" class="graph" transform="scale(1 1) rotate(0) translate(4 620.75)">
<title>point2d.h</title>
<!-- Node1 -->
<g id="Node000001" class="node">
<title>Node1</title>
<g id="a_Node000001"><a xlink:title="A two&#45;dimensional point tagged with a unit.">
<polygon fill="#999999" stroke="#666666" points="830,-616.75 769.75,-616.75 769.75,-597.5 830,-597.5 830,-616.75"/>
<text text-anchor="middle" x="799.88" y="-602.3" font-family="Helvetica,sans-Serif" font-size="11.00">point2d.h</text>
</a>
</g>
</g>
<!-- Node2 -->
<g id="Node000002" class="node">
<title>Node2</title>
<g id="a_Node000002"><a xlink:title=" ">
<polygon fill="#e0e0e0" stroke="#999999" points="594.75,-506.25 533,-506.25 533,-487 594.75,-487 594.75,-506.25"/>
<text text-anchor="middle" x="563.88" y="-491.8" font-family="Helvetica,sans-Serif" font-size="11.00">functional</text>
</a>
</g>
</g>
<!-- Node1&#45;&gt;Node2 -->
<g id="edge1_Node000001_Node000002" class="edge">
<title>Node1&#45;&gt;Node2</title>
<g id="a_edge1_Node000001_Node000002"><a xlink:title=" ">
<path fill="none" stroke="#63b8ff" d="M769.28,-600.05C738.54,-593.24 690.34,-580.58 651.88,-561.5 625.9,-548.62 599.43,-528.21 582.39,-513.94"/>
<polygon fill="#63b8ff" stroke="#63b8ff" points="584.99,-511.55 575.12,-507.71 580.44,-516.87 584.99,-511.55"/>
</a>
</g>
</g>
<!-- Node3 -->
<g id="Node000003" class="node">
<title>Node3</title>
<g id="a_Node000003"><a xlink:href="length_8h.html" target="_top" xlink:title="A one&#45;dimensional distance with associated unit of measurement.">
<polygon fill="white" stroke="#666666" points="719.12,-384.5 602.62,-384.5 602.62,-365.25 719.12,-365.25 719.12,-384.5"/>
<text text-anchor="middle" x="660.88" y="-370.05" font-family="Helvetica,sans-Serif" font-size="11.00">floppy/euclid/length.h</text>
</a>
</g>
</g>
<!-- Node1&#45;&gt;Node3 -->
<g id="edge2_Node000001_Node000003" class="edge">
<title>Node1&#45;&gt;Node3</title>
<g id="a_edge2_Node000001_Node000003"><a xlink:title=" ">
<path fill="none" stroke="#63b8ff" d="M769.67,-606.52C708.91,-605.43 573.48,-592.94 523.88,-506.25 494.18,-454.34 576.08,-410.3 625.82,-389.21"/>
<polygon fill="#63b8ff" stroke="#63b8ff" points="626.88,-392.56 634.8,-385.52 624.22,-386.09 626.88,-392.56"/>
</a>
</g>
</g>
<!-- Node32 -->
<g id="Node000032" class="node">
<title>Node32</title>
<g id="a_Node000032"><a xlink:href="size2d_8h.html" target="_top" xlink:title="A two&#45;dimensional size tagged with a unit.">
<polygon fill="white" stroke="#666666" points="934.88,-506.25 816.88,-506.25 816.88,-487 934.88,-487 934.88,-506.25"/>
<text text-anchor="middle" x="875.88" y="-491.8" font-family="Helvetica,sans-Serif" font-size="11.00">floppy/euclid/size2d.h</text>
</a>
</g>
</g>
<!-- Node1&#45;&gt;Node32 -->
<g id="edge44_Node000001_Node000032" class="edge">
<title>Node1&#45;&gt;Node32</title>
<g id="a_edge44_Node000001_Node000032"><a xlink:title=" ">
<path fill="none" stroke="#63b8ff" d="M806.09,-597.25C818.51,-579.52 846.58,-539.44 863.09,-515.88"/>
<polygon fill="#63b8ff" stroke="#63b8ff" points="865.83,-518.06 868.7,-507.87 860.1,-514.05 865.83,-518.06"/>
</a>
</g>
</g>
<!-- Node33 -->
<g id="Node000033" class="node">
<title>Node33</title>
<g id="a_Node000033"><a xlink:href="nt__traits2d_8h.html" target="_top" xlink:title=" ">
<polygon fill="white" stroke="#666666" points="927.75,-451 824,-451 824,-420.5 927.75,-420.5 927.75,-451"/>
<text text-anchor="start" x="832" y="-436.55" font-family="Helvetica,sans-Serif" font-size="11.00">floppy/euclid/detail</text>
<text text-anchor="middle" x="875.88" y="-425.3" font-family="Helvetica,sans-Serif" font-size="11.00">/nt_traits2d.h</text>
</a>
</g>
</g>
<!-- Node1&#45;&gt;Node33 -->
<g id="edge66_Node000001_Node000033" class="edge">
<title>Node1&#45;&gt;Node33</title>
<g id="a_edge66_Node000001_Node000033"><a xlink:title=" ">
<path fill="none" stroke="#63b8ff" d="M825.42,-597.09C859.62,-583.44 918.9,-553.96 943.88,-506.25 953.9,-487.1 936.88,-469.72 917.37,-457.13"/>
<polygon fill="#63b8ff" stroke="#63b8ff" points="919.37,-454.25 908.99,-452.12 915.78,-460.26 919.37,-454.25"/>
</a>
</g>
</g>
<!-- Node39 -->
<g id="Node000039" class="node">
<title>Node39</title>
<g id="a_Node000039"><a xlink:href="vector2d_8h.html" target="_top" xlink:title="A two&#45;dimensional vector tagged with a unit.">
<polygon fill="white" stroke="#666666" points="789.12,-561.5 660.62,-561.5 660.62,-542.25 789.12,-542.25 789.12,-561.5"/>
<text text-anchor="middle" x="724.88" y="-547.05" font-family="Helvetica,sans-Serif" font-size="11.00">floppy/euclid/vector2d.h</text>
</a>
</g>
</g>
<!-- Node1&#45;&gt;Node39 -->
<g id="edge56_Node000001_Node000039" class="edge">
<title>Node1&#45;&gt;Node39</title>
<g id="a_edge56_Node000001_Node000039"><a xlink:title=" ">
<path fill="none" stroke="#63b8ff" d="M787.15,-597.09C776.16,-589.29 760.03,-577.84 746.94,-568.54"/>
<polygon fill="#63b8ff" stroke="#63b8ff" points="749.07,-565.76 738.89,-562.83 745.02,-571.47 749.07,-565.76"/>
</a>
</g>
</g>
<!-- Node42 -->
<g id="Node000042" class="node">
<title>Node42</title>
<g id="a_Node000042"><a xlink:title=" ">
<polygon fill="#e0e0e0" stroke="#999999" points="1045,-561.5 990.75,-561.5 990.75,-542.25 1045,-542.25 1045,-561.5"/>
<text text-anchor="middle" x="1017.88" y="-547.05" font-family="Helvetica,sans-Serif" font-size="11.00">qpoint.h</text>
</a>
</g>
</g>
<!-- Node1&#45;&gt;Node42 -->
<g id="edge67_Node000001_Node000042" class="edge">
<title>Node1&#45;&gt;Node42</title>
<g id="a_edge67_Node000001_Node000042"><a xlink:title=" ">
<path fill="none" stroke="#63b8ff" d="M830.19,-598.72C869.2,-589.19 937,-572.63 979.54,-562.24"/>
<polygon fill="#63b8ff" stroke="#63b8ff" points="980.21,-565.68 989.1,-559.9 978.55,-558.88 980.21,-565.68"/>
</a>
</g>
</g>
<!-- Node4 -->
<g id="Node000004" class="node">
<title>Node4</title>
<g id="a_Node000004"><a xlink:href="scale_8h.html" target="_top" xlink:title="A scaling factor between two different units of measurement.">
<polygon fill="white" stroke="#666666" points="715.88,-329.25 603.88,-329.25 603.88,-310 715.88,-310 715.88,-329.25"/>
<text text-anchor="middle" x="659.88" y="-314.8" font-family="Helvetica,sans-Serif" font-size="11.00">floppy/euclid/scale.h</text>
</a>
</g>
</g>
<!-- Node3&#45;&gt;Node4 -->
<g id="edge3_Node000003_Node000004" class="edge">
<title>Node3&#45;&gt;Node4</title>
<g id="a_edge3_Node000003_Node000004"><a xlink:title=" ">
<path fill="none" stroke="#63b8ff" d="M660.71,-365.08C660.59,-358.57 660.42,-349.42 660.26,-341.12"/>
<polygon fill="#63b8ff" stroke="#63b8ff" points="663.76,-341.05 660.07,-331.12 656.76,-341.19 663.76,-341.05"/>
</a>
</g>
</g>
<!-- Node31 -->
<g id="Node000031" class="node">
<title>Node31</title>
<g id="a_Node000031"><a xlink:href="nt__traits_8h.html" target="_top" xlink:title=" ">
<polygon fill="white" stroke="#666666" points="793.75,-274 690,-274 690,-243.5 793.75,-243.5 793.75,-274"/>
<text text-anchor="start" x="698" y="-259.55" font-family="Helvetica,sans-Serif" font-size="11.00">floppy/euclid/detail</text>
<text text-anchor="middle" x="741.88" y="-248.3" font-family="Helvetica,sans-Serif" font-size="11.00">/nt_traits.h</text>
</a>
</g>
</g>
<!-- Node3&#45;&gt;Node31 -->
<g id="edge43_Node000003_Node000031" class="edge">
<title>Node3&#45;&gt;Node31</title>
<g id="a_edge43_Node000003_Node000031"><a xlink:title=" ">
<path fill="none" stroke="#63b8ff" d="M680.87,-364.81C695.24,-357.28 713.92,-345.23 724.88,-329.25 733.67,-316.41 737.93,-299.49 739.99,-285.56"/>
<polygon fill="#63b8ff" stroke="#63b8ff" points="743.45,-286.1 741.11,-275.77 736.49,-285.31 743.45,-286.1"/>
</a>
</g>
</g>
<!-- Node5 -->
<g id="Node000005" class="node">
<title>Node5</title>
<g id="a_Node000005"><a xlink:href="math_8h_source.html" target="_top" xlink:title=" ">
<polygon fill="white" stroke="#666666" points="728.38,-201.88 619.38,-201.88 619.38,-182.62 728.38,-182.62 728.38,-201.88"/>
<text text-anchor="middle" x="673.88" y="-187.43" font-family="Helvetica,sans-Serif" font-size="11.00">floppy/detail/math.h</text>
</a>
</g>
</g>
<!-- Node4&#45;&gt;Node5 -->
<g id="edge4_Node000004_Node000005" class="edge">
<title>Node4&#45;&gt;Node5</title>
<g id="a_edge4_Node000004_Node000005"><a xlink:title=" ">
<path fill="none" stroke="#63b8ff" d="M660.88,-309.61C663.11,-289.64 668.51,-241.26 671.6,-213.58"/>
<polygon fill="#63b8ff" stroke="#63b8ff" points="675.08,-214.02 672.71,-203.69 668.12,-213.24 675.08,-214.02"/>
</a>
</g>
</g>
<!-- Node23 -->
<g id="Node000023" class="node">
<title>Node23</title>
<g id="a_Node000023"><a xlink:href="traits_8h_source.html" target="_top" xlink:title=" ">
<polygon fill="white" stroke="#666666" points="464.75,-268.38 385,-268.38 385,-249.12 464.75,-249.12 464.75,-268.38"/>
<text text-anchor="middle" x="424.88" y="-253.93" font-family="Helvetica,sans-Serif" font-size="11.00">floppy/traits.h</text>
</a>
</g>
</g>
<!-- Node4&#45;&gt;Node23 -->
<g id="edge24_Node000004_Node000023" class="edge">
<title>Node4&#45;&gt;Node23</title>
<g id="a_edge24_Node000004_Node000023"><a xlink:title=" ">
<path fill="none" stroke="#63b8ff" d="M623.67,-309.55C583.05,-299.38 516.99,-282.83 472.28,-271.63"/>
<polygon fill="#63b8ff" stroke="#63b8ff" points="473.14,-268.23 462.59,-269.2 471.44,-275.02 473.14,-268.23"/>
</a>
</g>
</g>
<!-- Node4&#45;&gt;Node31 -->
<g id="edge40_Node000004_Node000031" class="edge">
<title>Node4&#45;&gt;Node31</title>
<g id="a_edge40_Node000004_Node000031"><a xlink:title=" ">
<path fill="none" stroke="#63b8ff" d="M672.33,-309.68C682.96,-302.05 698.67,-290.77 712.47,-280.86"/>
<polygon fill="#63b8ff" stroke="#63b8ff" points="714.32,-283.84 720.41,-275.16 710.24,-278.15 714.32,-283.84"/>
</a>
</g>
</g>
<!-- Node6 -->
<g id="Node000006" class="node">
<title>Node6</title>
<g id="a_Node000006"><a xlink:title=" ">
<polygon fill="#e0e0e0" stroke="#999999" points="673.5,-141 628.25,-141 628.25,-121.75 673.5,-121.75 673.5,-141"/>
<text text-anchor="middle" x="650.88" y="-126.55" font-family="Helvetica,sans-Serif" font-size="11.00">cmath</text>
</a>
</g>
</g>
<!-- Node5&#45;&gt;Node6 -->
<g id="edge5_Node000005_Node000006" class="edge">
<title>Node5&#45;&gt;Node6</title>
<g id="a_edge5_Node000005_Node000006"><a xlink:title=" ">
<path fill="none" stroke="#63b8ff" d="M670.38,-182.31C667.24,-174.27 662.52,-162.18 658.51,-151.91"/>
<polygon fill="#63b8ff" stroke="#63b8ff" points="661.85,-150.85 654.95,-142.81 655.33,-153.4 661.85,-150.85"/>
</a>
</g>
</g>
<!-- Node7 -->
<g id="Node000007" class="node">
<title>Node7</title>
<g id="a_Node000007"><a xlink:title=" ">
<polygon fill="#e0e0e0" stroke="#999999" points="731.88,-141 691.88,-141 691.88,-121.75 731.88,-121.75 731.88,-141"/>
<text text-anchor="middle" x="711.88" y="-126.55" font-family="Helvetica,sans-Serif" font-size="11.00">limits</text>
</a>
</g>
</g>
<!-- Node5&#45;&gt;Node7 -->
<g id="edge6_Node000005_Node000007" class="edge">
<title>Node5&#45;&gt;Node7</title>
<g id="a_edge6_Node000005_Node000007"><a xlink:title=" ">
<path fill="none" stroke="#63b8ff" d="M679.65,-182.31C685,-174.01 693.14,-161.39 699.9,-150.92"/>
<polygon fill="#63b8ff" stroke="#63b8ff" points="702.75,-152.97 705.23,-142.67 696.86,-149.18 702.75,-152.97"/>
</a>
</g>
</g>
<!-- Node8 -->
<g id="Node000008" class="node">
<title>Node8</title>
<g id="a_Node000008"><a xlink:title=" ">
<polygon fill="#e0e0e0" stroke="#999999" points="609.88,-141 551.88,-141 551.88,-121.75 609.88,-121.75 609.88,-141"/>
<text text-anchor="middle" x="580.88" y="-126.55" font-family="Helvetica,sans-Serif" font-size="11.00">numbers</text>
</a>
</g>
</g>
<!-- Node5&#45;&gt;Node8 -->
<g id="edge7_Node000005_Node000008" class="edge">
<title>Node5&#45;&gt;Node8</title>
<g id="a_edge7_Node000005_Node000008"><a xlink:title=" ">
<path fill="none" stroke="#63b8ff" d="M659.75,-182.31C645.14,-173.06 622.06,-158.45 604.63,-147.42"/>
<polygon fill="#63b8ff" stroke="#63b8ff" points="606.73,-144.6 596.41,-142.21 602.99,-150.52 606.73,-144.6"/>
</a>
</g>
</g>
<!-- Node9 -->
<g id="Node000009" class="node">
<title>Node9</title>
<g id="a_Node000009"><a xlink:title=" ">
<polygon fill="#e0e0e0" stroke="#999999" points="361.88,-141 303.88,-141 303.88,-121.75 361.88,-121.75 361.88,-141"/>
<text text-anchor="middle" x="332.88" y="-126.55" font-family="Helvetica,sans-Serif" font-size="11.00">compare</text>
</a>
</g>
</g>
<!-- Node5&#45;&gt;Node9 -->
<g id="edge8_Node000005_Node000009" class="edge">
<title>Node5&#45;&gt;Node9</title>
<g id="a_edge8_Node000005_Node000009"><a xlink:title=" ">
<path fill="none" stroke="#63b8ff" d="M635.66,-182.13C627.5,-180.32 618.92,-178.51 610.88,-177 508.39,-157.75 478.82,-160.72 373.42,-141.35"/>
<polygon fill="#63b8ff" stroke="#63b8ff" points="374.25,-137.95 363.78,-139.56 372.97,-144.83 374.25,-137.95"/>
</a>
</g>
</g>
<!-- Node10 -->
<g id="Node000010" class="node">
<title>Node10</title>
<g id="a_Node000010"><a xlink:href="export_8h_source.html" target="_top" xlink:title=" ">
<polygon fill="white" stroke="#666666" points="495.38,-141 380.38,-141 380.38,-121.75 495.38,-121.75 495.38,-141"/>
<text text-anchor="middle" x="437.88" y="-126.55" font-family="Helvetica,sans-Serif" font-size="11.00">floppy/detail/export.h</text>
</a>
</g>
</g>
<!-- Node5&#45;&gt;Node10 -->
<g id="edge9_Node000005_Node000010" class="edge">
<title>Node5&#45;&gt;Node10</title>
<g id="a_edge9_Node000005_Node000010"><a xlink:title=" ">
<path fill="none" stroke="#63b8ff" d="M637.52,-182.18C596.63,-171.98 530.1,-155.38 485.2,-144.18"/>
<polygon fill="#63b8ff" stroke="#63b8ff" points="486.29,-140.85 475.74,-141.82 484.6,-147.64 486.29,-140.85"/>
</a>
</g>
</g>
<!-- Node15 -->
<g id="Node000015" class="node">
<title>Node15</title>
<g id="a_Node000015"><a xlink:href="concepts_8h_source.html" target="_top" xlink:title=" ">
<polygon fill="white" stroke="#666666" points="877.75,-141 750,-141 750,-121.75 877.75,-121.75 877.75,-141"/>
<text text-anchor="middle" x="813.88" y="-126.55" font-family="Helvetica,sans-Serif" font-size="11.00">floppy/detail/concepts.h</text>
</a>
</g>
</g>
<!-- Node5&#45;&gt;Node15 -->
<g id="edge14_Node000005_Node000015" class="edge">
<title>Node5&#45;&gt;Node15</title>
<g id="a_edge14_Node000005_Node000015"><a xlink:title=" ">
<path fill="none" stroke="#63b8ff" d="M695.44,-182.18C718.63,-172.43 755.73,-156.83 782.23,-145.68"/>
<polygon fill="#63b8ff" stroke="#63b8ff" points="783.26,-149.05 791.12,-141.95 780.54,-142.6 783.26,-149.05"/>
</a>
</g>
</g>
<!-- Node11 -->
<g id="Node000011" class="node">
<title>Node11</title>
<g id="a_Node000011"><a xlink:title=" ">
<polygon fill="#e0e0e0" stroke="#999999" points="425,-80.12 382.75,-80.12 382.75,-60.88 425,-60.88 425,-80.12"/>
<text text-anchor="middle" x="403.88" y="-65.67" font-family="Helvetica,sans-Serif" font-size="11.00">string</text>
</a>
</g>
</g>
<!-- Node10&#45;&gt;Node11 -->
<g id="edge10_Node000010_Node000011" class="edge">
<title>Node10&#45;&gt;Node11</title>
<g id="a_edge10_Node000010_Node000011"><a xlink:title=" ">
<path fill="none" stroke="#63b8ff" d="M432.71,-121.43C427.97,-113.22 420.79,-100.78 414.77,-90.37"/>
<polygon fill="#63b8ff" stroke="#63b8ff" points="417.88,-88.75 409.84,-81.84 411.81,-92.25 417.88,-88.75"/>
</a>
</g>
</g>
<!-- Node12 -->
<g id="Node000012" class="node">
<title>Node12</title>
<g id="a_Node000012"><a xlink:title=" ">
<polygon fill="#e0e0e0" stroke="#999999" points="318.88,-80.12 248.88,-80.12 248.88,-60.88 318.88,-60.88 318.88,-80.12"/>
<text text-anchor="middle" x="283.88" y="-65.67" font-family="Helvetica,sans-Serif" font-size="11.00">string_view</text>
</a>
</g>
</g>
<!-- Node10&#45;&gt;Node12 -->
<g id="edge11_Node000010_Node000012" class="edge">
<title>Node10&#45;&gt;Node12</title>
<g id="a_edge11_Node000010_Node000012"><a xlink:title=" ">
<path fill="none" stroke="#63b8ff" d="M414.15,-121.3C388.49,-111.49 347.34,-95.76 318.17,-84.61"/>
<polygon fill="#63b8ff" stroke="#63b8ff" points="319.63,-81.42 309.04,-81.12 317.13,-87.96 319.63,-81.42"/>
</a>
</g>
</g>
<!-- Node13 -->
<g id="Node000013" class="node">
<title>Node13</title>
<g id="a_Node000013"><a xlink:title=" ">
<polygon fill="#e0e0e0" stroke="#999999" points="542.5,-80.12 485.25,-80.12 485.25,-60.88 542.5,-60.88 542.5,-80.12"/>
<text text-anchor="middle" x="513.88" y="-65.67" font-family="Helvetica,sans-Serif" font-size="11.00">iostream</text>
</a>
</g>
</g>
<!-- Node10&#45;&gt;Node13 -->
<g id="edge12_Node000010_Node000013" class="edge">
<title>Node10&#45;&gt;Node13</title>
<g id="a_edge12_Node000010_Node000013"><a xlink:title=" ">
<path fill="none" stroke="#63b8ff" d="M449.42,-121.43C461.02,-112.44 479.17,-98.39 493.25,-87.48"/>
<polygon fill="#63b8ff" stroke="#63b8ff" points="495.27,-90.34 501.03,-81.45 490.98,-84.81 495.27,-90.34"/>
</a>
</g>
</g>
<!-- Node14 -->
<g id="Node000014" class="node">
<title>Node14</title>
<g id="a_Node000014"><a xlink:title=" ">
<polygon fill="#e0e0e0" stroke="#999999" points="489.75,-19.25 416,-19.25 416,0 489.75,0 489.75,-19.25"/>
<text text-anchor="middle" x="452.88" y="-4.8" font-family="Helvetica,sans-Serif" font-size="11.00">fmt/format.h</text>
</a>
</g>
</g>
<!-- Node10&#45;&gt;Node14 -->
<g id="edge13_Node000010_Node000014" class="edge">
<title>Node10&#45;&gt;Node14</title>
<g id="a_edge13_Node000010_Node000014"><a xlink:title=" ">
<path fill="none" stroke="#63b8ff" d="M439,-121.37C441.39,-102.3 447.01,-57.41 450.32,-31.01"/>
<polygon fill="#63b8ff" stroke="#63b8ff" points="453.78,-31.59 451.55,-21.23 446.83,-30.72 453.78,-31.59"/>
</a>
</g>
</g>
<!-- Node16 -->
<g id="Node000016" class="node">
<title>Node16</title>
<g id="a_Node000016"><a xlink:title=" ">
<polygon fill="#e0e0e0" stroke="#999999" points="757.25,-80.12 698.5,-80.12 698.5,-60.88 757.25,-60.88 757.25,-80.12"/>
<text text-anchor="middle" x="727.88" y="-65.67" font-family="Helvetica,sans-Serif" font-size="11.00">concepts</text>
</a>
</g>
</g>
<!-- Node15&#45;&gt;Node16 -->
<g id="edge15_Node000015_Node000016" class="edge">
<title>Node15&#45;&gt;Node16</title>
<g id="a_edge15_Node000015_Node000016"><a xlink:title=" ">
<path fill="none" stroke="#63b8ff" d="M800.81,-121.43C787.43,-112.27 766.36,-97.84 750.3,-86.85"/>
<polygon fill="#63b8ff" stroke="#63b8ff" points="752.54,-84.14 742.31,-81.38 748.58,-89.92 752.54,-84.14"/>
</a>
</g>
</g>
<!-- Node17 -->
<g id="Node000017" class="node">
<title>Node17</title>
<g id="a_Node000017"><a xlink:href="type__traits_8h_source.html" target="_top" xlink:title=" ">
<polygon fill="white" stroke="#666666" points="872,-85.75 775.75,-85.75 775.75,-55.25 872,-55.25 872,-85.75"/>
<text text-anchor="start" x="783.75" y="-71.3" font-family="Helvetica,sans-Serif" font-size="11.00">floppy/detail/type</text>
<text text-anchor="middle" x="823.88" y="-60.05" font-family="Helvetica,sans-Serif" font-size="11.00">_traits.h</text>
</a>
</g>
</g>
<!-- Node15&#45;&gt;Node17 -->
<g id="edge16_Node000015_Node000017" class="edge">
<title>Node15&#45;&gt;Node17</title>
<g id="a_edge16_Node000015_Node000017"><a xlink:title=" ">
<path fill="none" stroke="#63b8ff" d="M815.39,-121.43C816.49,-114.98 818.03,-105.91 819.5,-97.26"/>
<polygon fill="#63b8ff" stroke="#63b8ff" points="822.93,-97.97 821.15,-87.52 816.03,-96.8 822.93,-97.97"/>
</a>
</g>
</g>
<!-- Node19 -->
<g id="Node000019" class="node">
<title>Node19</title>
<g id="a_Node000019"><a xlink:href="types_8h_source.html" target="_top" xlink:title=" ">
<polygon fill="white" stroke="#666666" points="680.12,-80.12 569.62,-80.12 569.62,-60.88 680.12,-60.88 680.12,-80.12"/>
<text text-anchor="middle" x="624.88" y="-65.67" font-family="Helvetica,sans-Serif" font-size="11.00">floppy/detail/types.h</text>
</a>
</g>
</g>
<!-- Node15&#45;&gt;Node19 -->
<g id="edge18_Node000015_Node000019" class="edge">
<title>Node15&#45;&gt;Node19</title>
<g id="a_edge18_Node000015_Node000019"><a xlink:title=" ">
<path fill="none" stroke="#63b8ff" d="M784.76,-121.3C752.57,-111.28 700.54,-95.07 664.62,-83.88"/>
<polygon fill="#63b8ff" stroke="#63b8ff" points="666.06,-80.66 655.47,-81.03 663.98,-87.35 666.06,-80.66"/>
</a>
</g>
</g>
<!-- Node18 -->
<g id="Node000018" class="node">
<title>Node18</title>
<g id="a_Node000018"><a xlink:title=" ">
<polygon fill="#e0e0e0" stroke="#999999" points="829.62,-19.25 764.12,-19.25 764.12,0 829.62,0 829.62,-19.25"/>
<text text-anchor="middle" x="796.88" y="-4.8" font-family="Helvetica,sans-Serif" font-size="11.00">type_traits</text>
</a>
</g>
</g>
<!-- Node17&#45;&gt;Node18 -->
<g id="edge17_Node000017_Node000018" class="edge">
<title>Node17&#45;&gt;Node18</title>
<g id="a_edge17_Node000017_Node000018"><a xlink:title=" ">
<path fill="none" stroke="#63b8ff" d="M817.2,-54.95C813.76,-47.45 809.52,-38.2 805.8,-30.1"/>
<polygon fill="#63b8ff" stroke="#63b8ff" points="809.02,-28.71 801.67,-21.08 802.66,-31.63 809.02,-28.71"/>
</a>
</g>
</g>
<!-- Node19&#45;&gt;Node14 -->
<g id="edge23_Node000019_Node000014" class="edge">
<title>Node19&#45;&gt;Node14</title>
<g id="a_edge23_Node000019_Node000014"><a xlink:title=" ">
<path fill="none" stroke="#63b8ff" d="M598.38,-60.43C569.34,-50.49 522.54,-34.47 489.89,-23.29"/>
<polygon fill="#63b8ff" stroke="#63b8ff" points="491.43,-20.12 480.84,-20.2 489.16,-26.75 491.43,-20.12"/>
</a>
</g>
</g>
<!-- Node19&#45;&gt;Node18 -->
<g id="edge22_Node000019_Node000018" class="edge">
<title>Node19&#45;&gt;Node18</title>
<g id="a_edge22_Node000019_Node000018"><a xlink:title=" ">
<path fill="none" stroke="#63b8ff" d="M651.37,-60.43C680.41,-50.49 727.21,-34.47 759.86,-23.29"/>
<polygon fill="#63b8ff" stroke="#63b8ff" points="760.59,-26.75 768.91,-20.2 758.32,-20.12 760.59,-26.75"/>
</a>
</g>
</g>
<!-- Node20 -->
<g id="Node000020" class="node">
<title>Node20</title>
<g id="a_Node000020"><a xlink:title=" ">
<polygon fill="#e0e0e0" stroke="#999999" points="720.12,-19.25 669.62,-19.25 669.62,0 720.12,0 720.12,-19.25"/>
<text text-anchor="middle" x="694.88" y="-4.8" font-family="Helvetica,sans-Serif" font-size="11.00">cstddef</text>
</a>
</g>
</g>
<!-- Node19&#45;&gt;Node20 -->
<g id="edge19_Node000019_Node000020" class="edge">
<title>Node19&#45;&gt;Node20</title>
<g id="a_edge19_Node000019_Node000020"><a xlink:title=" ">
<path fill="none" stroke="#63b8ff" d="M635.51,-60.56C646.09,-51.65 662.59,-37.78 675.5,-26.92"/>
<polygon fill="#63b8ff" stroke="#63b8ff" points="677.58,-29.74 682.99,-20.63 673.08,-24.38 677.58,-29.74"/>
</a>
</g>
</g>
<!-- Node21 -->
<g id="Node000021" class="node">
<title>Node21</title>
<g id="a_Node000021"><a xlink:title=" ">
<polygon fill="#e0e0e0" stroke="#999999" points="580.25,-19.25 533.5,-19.25 533.5,0 580.25,0 580.25,-19.25"/>
<text text-anchor="middle" x="556.88" y="-4.8" font-family="Helvetica,sans-Serif" font-size="11.00">cstdint</text>
</a>
</g>
</g>
<!-- Node19&#45;&gt;Node21 -->
<g id="edge20_Node000019_Node000021" class="edge">
<title>Node19&#45;&gt;Node21</title>
<g id="a_edge20_Node000019_Node000021"><a xlink:title=" ">
<path fill="none" stroke="#63b8ff" d="M614.55,-60.56C604.26,-51.65 588.24,-37.78 575.69,-26.92"/>
<polygon fill="#63b8ff" stroke="#63b8ff" points="578.3,-24.54 568.44,-20.64 573.71,-29.83 578.3,-24.54"/>
</a>
</g>
</g>
<!-- Node22 -->
<g id="Node000022" class="node">
<title>Node22</title>
<g id="a_Node000022"><a xlink:title=" ">
<polygon fill="#e0e0e0" stroke="#999999" points="651.62,-19.25 598.12,-19.25 598.12,0 651.62,0 651.62,-19.25"/>
<text text-anchor="middle" x="624.88" y="-4.8" font-family="Helvetica,sans-Serif" font-size="11.00">optional</text>
</a>
</g>
</g>
<!-- Node19&#45;&gt;Node22 -->
<g id="edge21_Node000019_Node000022" class="edge">
<title>Node19&#45;&gt;Node22</title>
<g id="a_edge21_Node000019_Node000022"><a xlink:title=" ">
<path fill="none" stroke="#63b8ff" d="M624.88,-60.56C624.88,-52.78 624.88,-41.2 624.88,-31.16"/>
<polygon fill="#63b8ff" stroke="#63b8ff" points="628.38,-31.16 624.88,-21.16 621.38,-31.16 628.38,-31.16"/>
</a>
</g>
</g>
<!-- Node23&#45;&gt;Node10 -->
<g id="edge28_Node000023_Node000010" class="edge">
<title>Node23&#45;&gt;Node10</title>
<g id="a_edge28_Node000023_Node000010"><a xlink:title=" ">
<path fill="none" stroke="#63b8ff" d="M425.09,-248.76C425.53,-233.81 426.76,-202.94 429.88,-177 430.85,-168.89 432.35,-160.03 433.79,-152.35"/>
<polygon fill="#63b8ff" stroke="#63b8ff" points="437.19,-153.19 435.69,-142.7 430.32,-151.84 437.19,-153.19"/>
</a>
</g>
</g>
<!-- Node23&#45;&gt;Node13 -->
<g id="edge26_Node000023_Node000013" class="edge">
<title>Node23&#45;&gt;Node13</title>
<g id="a_edge26_Node000023_Node000013"><a xlink:title=" ">
<path fill="none" stroke="#63b8ff" d="M427.62,-249.11C432.82,-233.61 445.18,-200.52 462.88,-177 477.45,-157.62 492.32,-162.32 503.88,-141 512.14,-125.75 514.31,-105.97 514.6,-91.42"/>
<polygon fill="#63b8ff" stroke="#63b8ff" points="518.1,-91.7 514.5,-81.73 511.1,-91.77 518.1,-91.7"/>
</a>
</g>
</g>
<!-- Node24 -->
<g id="Node000024" class="node">
<title>Node24</title>
<g id="a_Node000024"><a xlink:title=" ">
<polygon fill="#e0e0e0" stroke="#999999" points="206.38,-141 151.38,-141 151.38,-121.75 206.38,-121.75 206.38,-141"/>
<text text-anchor="middle" x="178.88" y="-126.55" font-family="Helvetica,sans-Serif" font-size="11.00">memory</text>
</a>
</g>
</g>
<!-- Node23&#45;&gt;Node24 -->
<g id="edge25_Node000023_Node000024" class="edge">
<title>Node23&#45;&gt;Node24</title>
<g id="a_edge25_Node000023_Node000024"><a xlink:title=" ">
<path fill="none" stroke="#63b8ff" d="M384.53,-254.18C344.71,-249.06 283.49,-236.75 238.88,-207.5 216.91,-193.1 199.28,-168.02 188.95,-150.83"/>
<polygon fill="#63b8ff" stroke="#63b8ff" points="192.26,-149.56 184.25,-142.63 186.19,-153.04 192.26,-149.56"/>
</a>
</g>
</g>
<!-- Node25 -->
<g id="Node000025" class="node">
<title>Node25</title>
<g id="a_Node000025"><a xlink:title=" ">
<polygon fill="#e0e0e0" stroke="#999999" points="601.5,-207.5 472.25,-207.5 472.25,-177 601.5,-177 601.5,-207.5"/>
<text text-anchor="start" x="480.25" y="-193.05" font-family="Helvetica,sans-Serif" font-size="11.00">experimental/propagate</text>
<text text-anchor="middle" x="536.88" y="-181.8" font-family="Helvetica,sans-Serif" font-size="11.00">_const</text>
</a>
</g>
</g>
<!-- Node23&#45;&gt;Node25 -->
<g id="edge27_Node000023_Node000025" class="edge">
<title>Node23&#45;&gt;Node25</title>
<g id="a_edge27_Node000023_Node000025"><a xlink:title=" ">
<path fill="none" stroke="#63b8ff" d="M440.45,-248.78C456.18,-239.72 481.03,-225.41 501.57,-213.58"/>
<polygon fill="#63b8ff" stroke="#63b8ff" points="503.31,-216.62 510.23,-208.6 499.82,-210.55 503.31,-216.62"/>
</a>
</g>
</g>
<!-- Node26 -->
<g id="Node000026" class="node">
<title>Node26</title>
<g id="a_Node000026"><a xlink:href="formatters_8h_source.html" target="_top" xlink:title=" ">
<polygon fill="white" stroke="#666666" points="133.75,-141 0,-141 0,-121.75 133.75,-121.75 133.75,-141"/>
<text text-anchor="middle" x="66.88" y="-126.55" font-family="Helvetica,sans-Serif" font-size="11.00">floppy/detail/formatters.h</text>
</a>
</g>
</g>
<!-- Node23&#45;&gt;Node26 -->
<g id="edge29_Node000023_Node000026" class="edge">
<title>Node23&#45;&gt;Node26</title>
<g id="a_edge29_Node000023_Node000026"><a xlink:title=" ">
<path fill="none" stroke="#63b8ff" d="M384.57,-251.95C339.7,-244.72 265.52,-230.43 204.88,-207.5 162.3,-191.4 116.6,-164.37 89.94,-147.5"/>
<polygon fill="#63b8ff" stroke="#63b8ff" points="91.96,-144.64 81.65,-142.19 88.18,-150.53 91.96,-144.64"/>
</a>
</g>
</g>
<!-- Node29 -->
<g id="Node000029" class="node">
<title>Node29</title>
<g id="a_Node000029"><a xlink:href="memory_8h_source.html" target="_top" xlink:title=" ">
<polygon fill="white" stroke="#666666" points="371.5,-201.88 248.25,-201.88 248.25,-182.62 371.5,-182.62 371.5,-201.88"/>
<text text-anchor="middle" x="309.88" y="-187.43" font-family="Helvetica,sans-Serif" font-size="11.00">floppy/detail/memory.h</text>
</a>
</g>
</g>
<!-- Node23&#45;&gt;Node29 -->
<g id="edge34_Node000023_Node000029" class="edge">
<title>Node23&#45;&gt;Node29</title>
<g id="a_edge34_Node000023_Node000029"><a xlink:title=" ">
<path fill="none" stroke="#63b8ff" d="M408.88,-248.78C390.02,-238.2 358.4,-220.47 335.98,-207.89"/>
<polygon fill="#63b8ff" stroke="#63b8ff" points="337.85,-204.93 327.42,-203.09 334.43,-211.04 337.85,-204.93"/>
</a>
</g>
</g>
<!-- Node26&#45;&gt;Node12 -->
<g id="edge30_Node000026_Node000012" class="edge">
<title>Node26&#45;&gt;Node12</title>
<g id="a_edge30_Node000026_Node000012"><a xlink:title=" ">
<path fill="none" stroke="#63b8ff" d="M100.31,-121.3C137.58,-111.19 198.04,-94.79 239.31,-83.59"/>
<polygon fill="#63b8ff" stroke="#63b8ff" points="240.21,-86.97 248.95,-80.98 238.38,-80.22 240.21,-86.97"/>
</a>
</g>
</g>
<!-- Node26&#45;&gt;Node14 -->
<g id="edge33_Node000026_Node000014" class="edge">
<title>Node26&#45;&gt;Node14</title>
<g id="a_edge33_Node000026_Node000014"><a xlink:title=" ">
<path fill="none" stroke="#63b8ff" d="M62.24,-121.68C54.72,-106.22 42.27,-73.84 58.88,-55.25 81.54,-29.88 304.12,-17.08 404.37,-12.57"/>
<polygon fill="#63b8ff" stroke="#63b8ff" points="404.33,-16.07 414.17,-12.14 404.02,-9.08 404.33,-16.07"/>
</a>
</g>
</g>
<!-- Node27 -->
<g id="Node000027" class="node">
<title>Node27</title>
<g id="a_Node000027"><a xlink:title=" ">
<polygon fill="#e0e0e0" stroke="#999999" points="122,-80.12 67.75,-80.12 67.75,-60.88 122,-60.88 122,-80.12"/>
<text text-anchor="middle" x="94.88" y="-65.67" font-family="Helvetica,sans-Serif" font-size="11.00">sstream</text>
</a>
</g>
</g>
<!-- Node26&#45;&gt;Node27 -->
<g id="edge31_Node000026_Node000027" class="edge">
<title>Node26&#45;&gt;Node27</title>
<g id="a_edge31_Node000026_Node000027"><a xlink:title=" ">
<path fill="none" stroke="#63b8ff" d="M71.13,-121.43C74.99,-113.31 80.82,-101.04 85.74,-90.7"/>
<polygon fill="#63b8ff" stroke="#63b8ff" points="88.8,-92.43 89.93,-81.89 82.48,-89.42 88.8,-92.43"/>
</a>
</g>
</g>
<!-- Node28 -->
<g id="Node000028" class="node">
<title>Node28</title>
<g id="a_Node000028"><a xlink:title=" ">
<polygon fill="#e0e0e0" stroke="#999999" points="187.25,-80.12 140.5,-80.12 140.5,-60.88 187.25,-60.88 187.25,-80.12"/>
<text text-anchor="middle" x="163.88" y="-65.67" font-family="Helvetica,sans-Serif" font-size="11.00">iosfwd</text>
</a>
</g>
</g>
<!-- Node26&#45;&gt;Node28 -->
<g id="edge32_Node000026_Node000028" class="edge">
<title>Node26&#45;&gt;Node28</title>
<g id="a_edge32_Node000026_Node000028"><a xlink:title=" ">
<path fill="none" stroke="#63b8ff" d="M81.61,-121.43C96.92,-112.14 121.14,-97.44 139.35,-86.39"/>
<polygon fill="#63b8ff" stroke="#63b8ff" points="140.98,-89.49 147.71,-81.31 137.35,-83.51 140.98,-89.49"/>
</a>
</g>
</g>
<!-- Node29&#45;&gt;Node9 -->
<g id="edge36_Node000029_Node000009" class="edge">
<title>Node29&#45;&gt;Node9</title>
<g id="a_edge36_Node000029_Node000009"><a xlink:title=" ">
<path fill="none" stroke="#63b8ff" d="M313.37,-182.31C316.51,-174.27 321.23,-162.18 325.24,-151.91"/>
<polygon fill="#63b8ff" stroke="#63b8ff" points="328.42,-153.4 328.8,-142.81 321.9,-150.85 328.42,-153.4"/>
</a>
</g>
</g>
<!-- Node29&#45;&gt;Node10 -->
<g id="edge38_Node000029_Node000010" class="edge">
<title>Node29&#45;&gt;Node10</title>
<g id="a_edge38_Node000029_Node000010"><a xlink:title=" ">
<path fill="none" stroke="#63b8ff" d="M329.59,-182.18C350.51,-172.56 383.81,-157.24 407.97,-146.13"/>
<polygon fill="#63b8ff" stroke="#63b8ff" points="409.35,-149.35 416.97,-141.99 406.42,-142.99 409.35,-149.35"/>
</a>
</g>
</g>
<!-- Node29&#45;&gt;Node24 -->
<g id="edge35_Node000029_Node000024" class="edge">
<title>Node29&#45;&gt;Node24</title>
<g id="a_edge35_Node000029_Node000024"><a xlink:title=" ">
<path fill="none" stroke="#63b8ff" d="M289.69,-182.18C268.19,-172.51 233.9,-157.1 209.15,-145.98"/>
<polygon fill="#63b8ff" stroke="#63b8ff" points="210.8,-142.89 200.25,-141.98 207.93,-149.27 210.8,-142.89"/>
</a>
</g>
</g>
<!-- Node29&#45;&gt;Node26 -->
<g id="edge39_Node000029_Node000026" class="edge">
<title>Node29&#45;&gt;Node26</title>
<g id="a_edge39_Node000029_Node000026"><a xlink:title=" ">
<path fill="none" stroke="#63b8ff" d="M272.44,-182.18C230.25,-171.96 161.55,-155.31 115.31,-144.11"/>
<polygon fill="#63b8ff" stroke="#63b8ff" points="116.37,-140.77 105.82,-141.81 114.72,-147.57 116.37,-140.77"/>
</a>
</g>
</g>
<!-- Node30 -->
<g id="Node000030" class="node">
<title>Node30</title>
<g id="a_Node000030"><a xlink:title=" ">
<polygon fill="#e0e0e0" stroke="#999999" points="285.75,-141 224,-141 224,-121.75 285.75,-121.75 285.75,-141"/>
<text text-anchor="middle" x="254.88" y="-126.55" font-family="Helvetica,sans-Serif" font-size="11.00">stdexcept</text>
</a>
</g>
</g>
<!-- Node29&#45;&gt;Node30 -->
<g id="edge37_Node000029_Node000030" class="edge">
<title>Node29&#45;&gt;Node30</title>
<g id="a_edge37_Node000029_Node000030"><a xlink:title=" ">
<path fill="none" stroke="#63b8ff" d="M301.52,-182.31C293.45,-173.66 281,-160.34 270.99,-149.62"/>
<polygon fill="#63b8ff" stroke="#63b8ff" points="273.72,-147.43 264.34,-142.51 268.61,-152.2 273.72,-147.43"/>
</a>
</g>
</g>
<!-- Node31&#45;&gt;Node5 -->
<g id="edge41_Node000031_Node000005" class="edge">
<title>Node31&#45;&gt;Node5</title>
<g id="a_edge41_Node000031_Node000005"><a xlink:title=" ">
<path fill="none" stroke="#63b8ff" d="M726.44,-243.11C716.04,-233.24 702.28,-220.19 691.45,-209.92"/>
<polygon fill="#63b8ff" stroke="#63b8ff" points="693.94,-207.46 684.27,-203.11 689.12,-212.54 693.94,-207.46"/>
</a>
</g>
</g>
<!-- Node31&#45;&gt;Node15 -->
<g id="edge42_Node000031_Node000015" class="edge">
<title>Node31&#45;&gt;Node15</title>
<g id="a_edge42_Node000031_Node000015"><a xlink:title=" ">
<path fill="none" stroke="#63b8ff" d="M750.13,-243.37C763.2,-220.62 788.63,-176.34 803.11,-151.13"/>
<polygon fill="#63b8ff" stroke="#63b8ff" points="806.04,-153.05 807.98,-142.63 799.97,-149.56 806.04,-153.05"/>
</a>
</g>
</g>
<!-- Node32&#45;&gt;Node3 -->
<g id="edge47_Node000032_Node000003" class="edge">
<title>Node32&#45;&gt;Node3</title>
<g id="a_edge47_Node000032_Node000003"><a xlink:title=" ">
<path fill="none" stroke="#63b8ff" d="M859.72,-486.62C822.83,-466.08 732.15,-415.57 687.12,-390.49"/>
<polygon fill="#63b8ff" stroke="#63b8ff" points="688.98,-387.52 678.54,-385.72 685.58,-393.64 688.98,-387.52"/>
</a>
</g>
</g>
<!-- Node32&#45;&gt;Node5 -->
<g id="edge45_Node000032_Node000005" class="edge">
<title>Node32&#45;&gt;Node5</title>
<g id="a_edge45_Node000032_Node000005"><a xlink:title=" ">
<path fill="none" stroke="#63b8ff" d="M826.17,-486.5C740.68,-469.39 574.88,-429.3 574.88,-375.88 574.88,-375.88 574.88,-375.88 574.88,-318.62 574.88,-270.29 620.77,-229.65 650.06,-208.64"/>
<polygon fill="#63b8ff" stroke="#63b8ff" points="651.78,-211.7 658.02,-203.14 647.8,-205.94 651.78,-211.7"/>
</a>
</g>
</g>
<!-- Node32&#45;&gt;Node15 -->
<g id="edge46_Node000032_Node000015" class="edge">
<title>Node32&#45;&gt;Node15</title>
<g id="a_edge46_Node000032_Node000015"><a xlink:title=" ">
<path fill="none" stroke="#63b8ff" d="M911.43,-486.51C959.11,-471.89 1037.88,-438.31 1037.88,-375.88 1037.88,-375.88 1037.88,-375.88 1037.88,-257.75 1037.88,-188.03 954.22,-156.7 889.15,-142.88"/>
<polygon fill="#63b8ff" stroke="#63b8ff" points="890.04,-139.49 879.55,-140.95 888.66,-146.35 890.04,-139.49"/>
</a>
</g>
</g>
<!-- Node32&#45;&gt;Node33 -->
<g id="edge48_Node000032_Node000033" class="edge">
<title>Node32&#45;&gt;Node33</title>
<g id="a_edge48_Node000032_Node000033"><a xlink:title=" ">
<path fill="none" stroke="#63b8ff" d="M875.88,-486.68C875.88,-480.23 875.88,-471.16 875.88,-462.51"/>
<polygon fill="#63b8ff" stroke="#63b8ff" points="879.38,-462.8 875.88,-452.8 872.38,-462.8 879.38,-462.8"/>
</a>
</g>
</g>
<!-- Node38 -->
<g id="Node000038" class="node">
<title>Node38</title>
<g id="a_Node000038"><a xlink:title=" ">
<polygon fill="#e0e0e0" stroke="#999999" points="1115.75,-445.38 1066,-445.38 1066,-426.12 1115.75,-426.12 1115.75,-445.38"/>
<text text-anchor="middle" x="1090.88" y="-430.93" font-family="Helvetica,sans-Serif" font-size="11.00">qsize.h</text>
</a>
</g>
</g>
<!-- Node32&#45;&gt;Node38 -->
<g id="edge55_Node000032_Node000038" class="edge">
<title>Node32&#45;&gt;Node38</title>
<g id="a_edge55_Node000032_Node000038"><a xlink:title=" ">
<path fill="none" stroke="#63b8ff" d="M916.75,-486.51C952.63,-478.21 1006.09,-465.13 1051.88,-451 1053.47,-450.51 1055.09,-449.99 1056.73,-449.45"/>
<polygon fill="#63b8ff" stroke="#63b8ff" points="1057.76,-452.8 1066.07,-446.23 1055.47,-446.18 1057.76,-452.8"/>
</a>
</g>
</g>
<!-- Node33&#45;&gt;Node3 -->
<g id="edge53_Node000033_Node000003" class="edge">
<title>Node33&#45;&gt;Node3</title>
<g id="a_edge53_Node000033_Node000003"><a xlink:title=" ">
<path fill="none" stroke="#63b8ff" d="M823.56,-420.42C787.1,-410.44 739.04,-397.28 704.62,-387.85"/>
<polygon fill="#63b8ff" stroke="#63b8ff" points="705.99,-384.6 695.42,-385.33 704.14,-391.35 705.99,-384.6"/>
</a>
</g>
</g>
<!-- Node33&#45;&gt;Node31 -->
<g id="edge54_Node000033_Node000031" class="edge">
<title>Node33&#45;&gt;Node31</title>
<g id="a_edge54_Node000033_Node000031"><a xlink:title=" ">
<path fill="none" stroke="#63b8ff" d="M928.09,-421.74C962.44,-410.45 998.12,-391.72 980.88,-365.25 942.28,-306.02 862.09,-279.81 805.26,-268.36"/>
<polygon fill="#63b8ff" stroke="#63b8ff" points="806.19,-264.98 795.71,-266.55 804.88,-271.85 806.19,-264.98"/>
</a>
</g>
</g>
<!-- Node34 -->
<g id="Node000034" class="node">
<title>Node34</title>
<g id="a_Node000034"><a xlink:title=" ">
<polygon fill="#e0e0e0" stroke="#999999" points="856.25,-384.5 815.5,-384.5 815.5,-365.25 856.25,-365.25 856.25,-384.5"/>
<text text-anchor="middle" x="835.88" y="-370.05" font-family="Helvetica,sans-Serif" font-size="11.00">array</text>
</a>
</g>
</g>
<!-- Node33&#45;&gt;Node34 -->
<g id="edge49_Node000033_Node000034" class="edge">
<title>Node33&#45;&gt;Node34</title>
<g id="a_edge49_Node000033_Node000034"><a xlink:title=" ">
<path fill="none" stroke="#63b8ff" d="M865.99,-420.2C860.66,-412.35 854.03,-402.6 848.35,-394.24"/>
<polygon fill="#63b8ff" stroke="#63b8ff" points="851.41,-392.51 842.89,-386.2 845.62,-396.44 851.41,-392.51"/>
</a>
</g>
</g>
<!-- Node35 -->
<g id="Node000035" class="node">
<title>Node35</title>
<g id="a_Node000035"><a xlink:title=" ">
<polygon fill="#e0e0e0" stroke="#999999" points="913.5,-384.5 874.25,-384.5 874.25,-365.25 913.5,-365.25 913.5,-384.5"/>
<text text-anchor="middle" x="893.88" y="-370.05" font-family="Helvetica,sans-Serif" font-size="11.00">tuple</text>
</a>
</g>
</g>
<!-- Node33&#45;&gt;Node35 -->
<g id="edge50_Node000033_Node000035" class="edge">
<title>Node33&#45;&gt;Node35</title>
<g id="a_edge50_Node000033_Node000035"><a xlink:title=" ">
<path fill="none" stroke="#63b8ff" d="M880.32,-420.2C882.56,-412.87 885.31,-403.87 887.75,-395.91"/>
<polygon fill="#63b8ff" stroke="#63b8ff" points="891.08,-396.99 890.66,-386.4 884.39,-394.94 891.08,-396.99"/>
</a>
</g>
</g>
<!-- Node36 -->
<g id="Node000036" class="node">
<title>Node36</title>
<g id="a_Node000036"><a xlink:title=" ">
<polygon fill="#e0e0e0" stroke="#999999" points="971.88,-384.5 931.88,-384.5 931.88,-365.25 971.88,-365.25 971.88,-384.5"/>
<text text-anchor="middle" x="951.88" y="-370.05" font-family="Helvetica,sans-Serif" font-size="11.00">utility</text>
</a>
</g>
</g>
<!-- Node33&#45;&gt;Node36 -->
<g id="edge51_Node000033_Node000036" class="edge">
<title>Node33&#45;&gt;Node36</title>
<g id="a_edge51_Node000033_Node000036"><a xlink:title=" ">
<path fill="none" stroke="#63b8ff" d="M894.66,-420.2C905.79,-411.58 919.9,-400.65 931.32,-391.8"/>
<polygon fill="#63b8ff" stroke="#63b8ff" points="933.2,-394.77 938.96,-385.88 928.91,-389.24 933.2,-394.77"/>
</a>
</g>
</g>
<!-- Node37 -->
<g id="Node000037" class="node">
<title>Node37</title>
<g id="a_Node000037"><a xlink:title=" ">
<polygon fill="#e0e0e0" stroke="#999999" points="797,-384.5 736.75,-384.5 736.75,-365.25 797,-365.25 797,-384.5"/>
<text text-anchor="middle" x="766.88" y="-370.05" font-family="Helvetica,sans-Serif" font-size="11.00">algorithm</text>
</a>
</g>
</g>
<!-- Node33&#45;&gt;Node37 -->
<g id="edge52_Node000033_Node000037" class="edge">
<title>Node33&#45;&gt;Node37</title>
<g id="a_edge52_Node000033_Node000037"><a xlink:title=" ">
<path fill="none" stroke="#63b8ff" d="M848.65,-420.05C831.73,-410.91 810.09,-399.22 793.32,-390.16"/>
<polygon fill="#63b8ff" stroke="#63b8ff" points="795.38,-387.3 784.92,-385.62 792.06,-393.46 795.38,-387.3"/>
</a>
</g>
</g>
<!-- Node39&#45;&gt;Node2 -->
<g id="edge57_Node000039_Node000002" class="edge">
<title>Node39&#45;&gt;Node2</title>
<g id="a_edge57_Node000039_Node000002"><a xlink:title=" ">
<path fill="none" stroke="#63b8ff" d="M697.56,-541.84C671.31,-533.16 631.4,-519.96 602.02,-510.24"/>
<polygon fill="#63b8ff" stroke="#63b8ff" points="603.35,-506.99 592.76,-507.18 601.15,-513.64 603.35,-506.99"/>
</a>
</g>
</g>
<!-- Node39&#45;&gt;Node3 -->
<g id="edge62_Node000039_Node000003" class="edge">
<title>Node39&#45;&gt;Node3</title>
<g id="a_edge62_Node000039_Node000003"><a xlink:title=" ">
<path fill="none" stroke="#63b8ff" d="M711.94,-541.84C701.48,-533.77 687.31,-520.99 679.88,-506.25 661.9,-470.62 659.6,-423.01 659.96,-396.29"/>
<polygon fill="#63b8ff" stroke="#63b8ff" points="663.45,-396.61 660.25,-386.51 656.46,-396.4 663.45,-396.61"/>
</a>
</g>
</g>
<!-- Node39&#45;&gt;Node32 -->
<g id="edge63_Node000039_Node000032" class="edge">
<title>Node39&#45;&gt;Node32</title>
<g id="a_edge63_Node000039_Node000032"><a xlink:title=" ">
<path fill="none" stroke="#63b8ff" d="M750.49,-541.84C774.89,-533.24 811.89,-520.19 839.37,-510.5"/>
<polygon fill="#63b8ff" stroke="#63b8ff" points="840.44,-513.83 848.71,-507.21 838.11,-507.23 840.44,-513.83"/>
</a>
</g>
</g>
<!-- Node39&#45;&gt;Node33 -->
<g id="edge64_Node000039_Node000033" class="edge">
<title>Node39&#45;&gt;Node33</title>
<g id="a_edge64_Node000039_Node000033"><a xlink:title=" ">
<path fill="none" stroke="#63b8ff" d="M736.37,-541.92C752.34,-529.5 782.18,-506.38 807.88,-487 820.54,-477.45 834.64,-467 846.7,-458.12"/>
<polygon fill="#63b8ff" stroke="#63b8ff" points="848.66,-461.02 854.64,-452.28 844.51,-455.38 848.66,-461.02"/>
</a>
</g>
</g>
<!-- Node40 -->
<g id="Node000040" class="node">
<title>Node40</title>
<g id="a_Node000040"><a xlink:href="angle_8h.html" target="_top" xlink:title="Newtype describing an angle.">
<polygon fill="white" stroke="#666666" points="546.62,-329.25 433.12,-329.25 433.12,-310 546.62,-310 546.62,-329.25"/>
<text text-anchor="middle" x="489.88" y="-314.8" font-family="Helvetica,sans-Serif" font-size="11.00">floppy/euclid/angle.h</text>
</a>
</g>
</g>
<!-- Node39&#45;&gt;Node40 -->
<g id="edge58_Node000039_Node000040" class="edge">
<title>Node39&#45;&gt;Node40</title>
<g id="a_edge58_Node000039_Node000040"><a xlink:title=" ">
<path fill="none" stroke="#63b8ff" d="M707.51,-541.8C670.16,-522.04 583.76,-475.01 560.88,-451 529.13,-417.68 507.12,-367.41 496.72,-340.04"/>
<polygon fill="#63b8ff" stroke="#63b8ff" points="500.11,-339.14 493.39,-330.95 493.54,-341.55 500.11,-339.14"/>
</a>
</g>
</g>
<!-- Node41 -->
<g id="Node000041" class="node">
<title>Node41</title>
<g id="a_Node000041"><a xlink:title=" ">
<polygon fill="#e0e0e0" stroke="#999999" points="761,-506.25 688.75,-506.25 688.75,-487 761,-487 761,-506.25"/>
<text text-anchor="middle" x="724.88" y="-491.8" font-family="Helvetica,sans-Serif" font-size="11.00">qvector2d.h</text>
</a>
</g>
</g>
<!-- Node39&#45;&gt;Node41 -->
<g id="edge65_Node000039_Node000041" class="edge">
<title>Node39&#45;&gt;Node41</title>
<g id="a_edge65_Node000039_Node000041"><a xlink:title=" ">
<path fill="none" stroke="#63b8ff" d="M724.88,-542.08C724.88,-535.57 724.88,-526.42 724.88,-518.12"/>
<polygon fill="#63b8ff" stroke="#63b8ff" points="728.38,-518.12 724.88,-508.12 721.38,-518.12 728.38,-518.12"/>
</a>
</g>
</g>
<!-- Node40&#45;&gt;Node5 -->
<g id="edge59_Node000040_Node000005" class="edge">
<title>Node40&#45;&gt;Node5</title>
<g id="a_edge59_Node000040_Node000005"><a xlink:title=" ">
<path fill="none" stroke="#63b8ff" d="M496.41,-309.67C507.96,-294.37 533.34,-262.99 560.88,-243.5 583.61,-227.4 612.34,-214.71 635.13,-206.11"/>
<polygon fill="#63b8ff" stroke="#63b8ff" points="636.18,-209.46 644.37,-202.74 633.78,-202.88 636.18,-209.46"/>
</a>
</g>
</g>
<!-- Node40&#45;&gt;Node23 -->
<g id="edge60_Node000040_Node000023" class="edge">
<title>Node40&#45;&gt;Node23</title>
<g id="a_edge60_Node000040_Node000023"><a xlink:title=" ">
<path fill="none" stroke="#63b8ff" d="M480,-309.68C470.27,-300.87 455.15,-287.18 443.21,-276.36"/>
<polygon fill="#63b8ff" stroke="#63b8ff" points="445.72,-273.91 435.96,-269.79 441.02,-279.1 445.72,-273.91"/>
</a>
</g>
</g>
<!-- Node40&#45;&gt;Node31 -->
<g id="edge61_Node000040_Node000031" class="edge">
<title>Node40&#45;&gt;Node31</title>
<g id="a_edge61_Node000040_Node000031"><a xlink:title=" ">
<path fill="none" stroke="#63b8ff" d="M528.7,-309.55C568.7,-300.21 631.71,-285.49 678.87,-274.47"/>
<polygon fill="#63b8ff" stroke="#63b8ff" points="679.47,-277.93 688.41,-272.24 677.87,-271.11 679.47,-277.93"/>
</a>
</g>
</g>
</g>
</svg>
