<?xml version="1.0" encoding="UTF-8" standalone="no"?>
<!DOCTYPE svg PUBLIC "-//W3C//DTD SVG 1.1//EN"
 "http://www.w3.org/Graphics/SVG/1.1/DTD/svg11.dtd">
<!-- Generated by graphviz version 10.0.1 (0)
 -->
<!-- Title: point2d.h Pages: 1 -->
<!--zoomable 625 -->

<svg id="main" version="1.1" xmlns="http://www.w3.org/2000/svg" xmlns:xlink="http://www.w3.org/1999/xlink" xml:space="preserve" onload="init(evt)">
<style type="text/css"><![CDATA[
.node, .edge {opacity: 0.7;}
.node.selected, .edge.selected {opacity: 1;}
.edge:hover path { stroke: red; }
.edge:hover polygon { stroke: red; fill: red; }
]]></style>

<defs>
  <circle id="rim" cx="0" cy="0" r="7"/>
  <circle id="rim2" cx="0" cy="0" r="3.5"/>
  <g id="zoomPlus">
    <use xlink:href="#rim" fill="#404040"><set attributeName="fill" to="#808080" begin="zoomplus.mouseover" end="zoomplus.mouseout"/></use>
    <path d="M-4,0h8M0,-4v8" fill="none" stroke="white" stroke-width="1.5" pointer-events="none"/>
  </g>
  <g id="zoomMin">
    <use xlink:href="#rim" fill="#404040"><set attributeName="fill" to="#808080" begin="zoomminus.mouseover" end="zoomminus.mouseout"/></use>
    <path d="M-4,0h8" fill="none" stroke="white" stroke-width="1.5" pointer-events="none"/>
  </g>
  <g id="arrowUp" transform="translate(30 24)">
    <use xlink:href="#rim"/>
    <path pointer-events="none" fill="none" stroke="white" stroke-width="1.5" d="M0,-3.0v7 M-2.5,-0.5L0,-3.0L2.5,-0.5"/>
  </g>
  <g id="arrowRight" transform="rotate(90) translate(36 -43)">
    <use xlink:href="#rim"/>
    <path pointer-events="none" fill="none" stroke="white" stroke-width="1.5" d="M0,-3.0v7 M-2.5,-0.5L0,-3.0L2.5,-0.5"/>
  </g>
  <g id="arrowDown" transform="rotate(180) translate(-30 -48)">
    <use xlink:href="#rim"/>
    <path pointer-events="none" fill="none" stroke="white" stroke-width="1.5" d="M0,-3.0v7 M-2.5,-0.5L0,-3.0L2.5,-0.5"/>
  </g>
  <g id="arrowLeft" transform="rotate(270) translate(-36 17)">
    <use xlink:href="#rim"/>
    <path pointer-events="none" fill="none" stroke="white" stroke-width="1.5" d="M0,-3.0v7 M-2.5,-0.5L0,-3.0L2.5,-0.5"/>
  </g>
  <g id="resetDef">
    <use xlink:href="#rim2" fill="#404040"><set attributeName="fill" to="#808080" begin="reset.mouseover" end="reset.mouseout"/></use>
  </g>
</defs>
<script type="application/ecmascript">
var viewWidth = 985;
var viewHeight = 625;
var sectionId = 'dynsection-0';
</script>
<script type="application/ecmascript" xlink:href="svg.min.js"/>
<svg id="graph" class="graph">
<g id="viewport">
<title>point2d.h</title>
<!-- Node1 -->
<g id="Node000001" class="node">
<title>Node1</title>
<g id="a_Node000001"><a xlink:title="A two&#45;dimensional point tagged with a unit.">
<polygon fill="#999999" stroke="#666666" points="649,-616.75 588.75,-616.75 588.75,-597.5 649,-597.5 649,-616.75"/>
<text text-anchor="middle" x="618.88" y="-602.3" font-family="Helvetica,sans-Serif" font-size="11.00">point2d.h</text>
</a>
</g>
</g>
<!-- Node2 -->
<g id="Node000002" class="node">
<title>Node2</title>
<g id="a_Node000002"><a xlink:title=" ">
<polygon fill="#e0e0e0" stroke="#999999" points="413.75,-506.25 352,-506.25 352,-487 413.75,-487 413.75,-506.25"/>
<text text-anchor="middle" x="382.88" y="-491.8" font-family="Helvetica,sans-Serif" font-size="11.00">functional</text>
</a>
</g>
</g>
<!-- Node1&#45;&gt;Node2 -->
<g id="edge1_Node000001_Node000002" class="edge">
<title>Node1&#45;&gt;Node2</title>
<g id="a_edge1_Node000001_Node000002"><a xlink:title=" ">
<path fill="none" stroke="#63b8ff" d="M588.28,-600.05C557.54,-593.24 509.34,-580.58 470.88,-561.5 444.9,-548.62 418.43,-528.21 401.39,-513.94"/>
<polygon fill="#63b8ff" stroke="#63b8ff" points="403.99,-511.55 394.12,-507.71 399.44,-516.87 403.99,-511.55"/>
</a>
</g>
</g>
<!-- Node3 -->
<g id="Node000003" class="node">
<title>Node3</title>
<g id="a_Node000003"><a xlink:href="length_8h.html" target="_top" xlink:title="A one&#45;dimensional distance with associated unit of measurement.">
<polygon fill="white" stroke="#666666" points="538.12,-384.5 421.62,-384.5 421.62,-365.25 538.12,-365.25 538.12,-384.5"/>
<text text-anchor="middle" x="479.88" y="-370.05" font-family="Helvetica,sans-Serif" font-size="11.00">floppy/euclid/length.h</text>
</a>
</g>
</g>
<!-- Node1&#45;&gt;Node3 -->
<g id="edge2_Node000001_Node000003" class="edge">
<title>Node1&#45;&gt;Node3</title>
<g id="a_edge2_Node000001_Node000003"><a xlink:title=" ">
<path fill="none" stroke="#63b8ff" d="M588.67,-606.52C527.91,-605.43 392.48,-592.94 342.88,-506.25 313.18,-454.34 395.08,-410.3 444.82,-389.21"/>
<polygon fill="#63b8ff" stroke="#63b8ff" points="445.88,-392.56 453.8,-385.52 443.22,-386.09 445.88,-392.56"/>
</a>
</g>
</g>
<!-- Node30 -->
<g id="Node000030" class="node">
<title>Node30</title>
<g id="a_Node000030"><a xlink:href="size2d_8h.html" target="_top" xlink:title="A two&#45;dimensional size tagged with a unit.">
<polygon fill="white" stroke="#666666" points="753.88,-506.25 635.88,-506.25 635.88,-487 753.88,-487 753.88,-506.25"/>
<text text-anchor="middle" x="694.88" y="-491.8" font-family="Helvetica,sans-Serif" font-size="11.00">floppy/euclid/size2d.h</text>
</a>
</g>
</g>
<!-- Node1&#45;&gt;Node30 -->
<g id="edge38_Node000001_Node000030" class="edge">
<title>Node1&#45;&gt;Node30</title>
<g id="a_edge38_Node000001_Node000030"><a xlink:title=" ">
<path fill="none" stroke="#63b8ff" d="M625.09,-597.25C637.51,-579.52 665.58,-539.44 682.09,-515.88"/>
<polygon fill="#63b8ff" stroke="#63b8ff" points="684.83,-518.06 687.7,-507.87 679.1,-514.05 684.83,-518.06"/>
</a>
</g>
</g>
<!-- Node31 -->
<g id="Node000031" class="node">
<title>Node31</title>
<g id="a_Node000031"><a xlink:href="nt__traits2d_8h.html" target="_top" xlink:title=" ">
<polygon fill="white" stroke="#666666" points="746.75,-451 643,-451 643,-420.5 746.75,-420.5 746.75,-451"/>
<text text-anchor="start" x="651" y="-436.55" font-family="Helvetica,sans-Serif" font-size="11.00">floppy/euclid/detail</text>
<text text-anchor="middle" x="694.88" y="-425.3" font-family="Helvetica,sans-Serif" font-size="11.00">/nt_traits2d.h</text>
</a>
</g>
</g>
<!-- Node1&#45;&gt;Node31 -->
<g id="edge60_Node000001_Node000031" class="edge">
<title>Node1&#45;&gt;Node31</title>
<g id="a_edge60_Node000001_Node000031"><a xlink:title=" ">
<path fill="none" stroke="#63b8ff" d="M644.42,-597.09C678.62,-583.44 737.9,-553.96 762.88,-506.25 772.9,-487.1 755.88,-469.72 736.37,-457.13"/>
<polygon fill="#63b8ff" stroke="#63b8ff" points="738.37,-454.25 727.99,-452.12 734.78,-460.26 738.37,-454.25"/>
</a>
</g>
</g>
<!-- Node37 -->
<g id="Node000037" class="node">
<title>Node37</title>
<g id="a_Node000037"><a xlink:href="vector2d_8h.html" target="_top" xlink:title="A two&#45;dimensional vector tagged with a unit.">
<polygon fill="white" stroke="#666666" points="608.12,-561.5 479.62,-561.5 479.62,-542.25 608.12,-542.25 608.12,-561.5"/>
<text text-anchor="middle" x="543.88" y="-547.05" font-family="Helvetica,sans-Serif" font-size="11.00">floppy/euclid/vector2d.h</text>
</a>
</g>
</g>
<!-- Node1&#45;&gt;Node37 -->
<g id="edge50_Node000001_Node000037" class="edge">
<title>Node1&#45;&gt;Node37</title>
<g id="a_edge50_Node000001_Node000037"><a xlink:title=" ">
<path fill="none" stroke="#63b8ff" d="M606.15,-597.09C595.16,-589.29 579.03,-577.84 565.94,-568.54"/>
<polygon fill="#63b8ff" stroke="#63b8ff" points="568.07,-565.76 557.89,-562.83 564.02,-571.47 568.07,-565.76"/>
</a>
</g>
</g>
<!-- Node40 -->
<g id="Node000040" class="node">
<title>Node40</title>
<g id="a_Node000040"><a xlink:title=" ">
<polygon fill="#e0e0e0" stroke="#999999" points="864,-561.5 809.75,-561.5 809.75,-542.25 864,-542.25 864,-561.5"/>
<text text-anchor="middle" x="836.88" y="-547.05" font-family="Helvetica,sans-Serif" font-size="11.00">qpoint.h</text>
</a>
</g>
</g>
<!-- Node1&#45;&gt;Node40 -->
<g id="edge61_Node000001_Node000040" class="edge">
<title>Node1&#45;&gt;Node40</title>
<g id="a_edge61_Node000001_Node000040"><a xlink:title=" ">
<path fill="none" stroke="#63b8ff" d="M649.19,-598.72C688.2,-589.19 756,-572.63 798.54,-562.24"/>
<polygon fill="#63b8ff" stroke="#63b8ff" points="799.21,-565.68 808.1,-559.9 797.55,-558.88 799.21,-565.68"/>
</a>
</g>
</g>
<!-- Node4 -->
<g id="Node000004" class="node">
<title>Node4</title>
<g id="a_Node000004"><a xlink:href="scale_8h.html" target="_top" xlink:title="A scaling factor between two different units of measurement.">
<polygon fill="white" stroke="#666666" points="557.88,-329.25 445.88,-329.25 445.88,-310 557.88,-310 557.88,-329.25"/>
<text text-anchor="middle" x="501.88" y="-314.8" font-family="Helvetica,sans-Serif" font-size="11.00">floppy/euclid/scale.h</text>
</a>
</g>
</g>
<!-- Node3&#45;&gt;Node4 -->
<g id="edge3_Node000003_Node000004" class="edge">
<title>Node3&#45;&gt;Node4</title>
<g id="a_edge3_Node000003_Node000004"><a xlink:title=" ">
<path fill="none" stroke="#63b8ff" d="M483.51,-365.08C486.29,-358.34 490.25,-348.77 493.77,-340.24"/>
<polygon fill="#63b8ff" stroke="#63b8ff" points="497,-341.59 497.59,-331.01 490.53,-338.91 497,-341.59"/>
</a>
</g>
</g>
<!-- Node29 -->
<g id="Node000029" class="node">
<title>Node29</title>
<g id="a_Node000029"><a xlink:href="nt__traits_8h.html" target="_top" xlink:title=" ">
<polygon fill="white" stroke="#666666" points="636.75,-274 533,-274 533,-243.5 636.75,-243.5 636.75,-274"/>
<text text-anchor="start" x="541" y="-259.55" font-family="Helvetica,sans-Serif" font-size="11.00">floppy/euclid/detail</text>
<text text-anchor="middle" x="584.88" y="-248.3" font-family="Helvetica,sans-Serif" font-size="11.00">/nt_traits.h</text>
</a>
</g>
</g>
<!-- Node3&#45;&gt;Node29 -->
<g id="edge37_Node000003_Node000029" class="edge">
<title>Node3&#45;&gt;Node29</title>
<g id="a_edge37_Node000003_Node000029"><a xlink:title=" ">
<path fill="none" stroke="#63b8ff" d="M511.9,-364.76C530.52,-357.89 552.98,-346.61 566.88,-329.25 576.8,-316.86 581.3,-299.6 583.32,-285.38"/>
<polygon fill="#63b8ff" stroke="#63b8ff" points="586.76,-286.14 584.34,-275.83 579.8,-285.4 586.76,-286.14"/>
</a>
</g>
</g>
<!-- Node5 -->
<g id="Node000005" class="node">
<title>Node5</title>
<g id="a_Node000005"><a xlink:href="math_8h_source.html" target="_top" xlink:title=" ">
<polygon fill="white" stroke="#666666" points="654.38,-207.5 545.38,-207.5 545.38,-188.25 654.38,-188.25 654.38,-207.5"/>
<text text-anchor="middle" x="599.88" y="-193.05" font-family="Helvetica,sans-Serif" font-size="11.00">floppy/detail/math.h</text>
</a>
</g>
</g>
<!-- Node4&#45;&gt;Node5 -->
<g id="edge4_Node000004_Node000005" class="edge">
<title>Node4&#45;&gt;Node5</title>
<g id="a_edge4_Node000004_Node000005"><a xlink:title=" ">
<path fill="none" stroke="#63b8ff" d="M502.38,-309.8C503.66,-294.72 508.16,-263.65 523.88,-243.5 534.32,-230.1 550.01,-219.93 564.42,-212.71"/>
<polygon fill="#63b8ff" stroke="#63b8ff" points="565.64,-216 573.22,-208.6 562.68,-209.66 565.64,-216"/>
</a>
</g>
</g>
<!-- Node23 -->
<g id="Node000023" class="node">
<title>Node23</title>
<g id="a_Node000023"><a xlink:href="traits_8h_source.html" target="_top" xlink:title=" ">
<polygon fill="white" stroke="#666666" points="367.75,-207.5 288,-207.5 288,-188.25 367.75,-188.25 367.75,-207.5"/>
<text text-anchor="middle" x="327.88" y="-193.05" font-family="Helvetica,sans-Serif" font-size="11.00">floppy/traits.h</text>
</a>
</g>
</g>
<!-- Node4&#45;&gt;Node23 -->
<g id="edge24_Node000004_Node000023" class="edge">
<title>Node4&#45;&gt;Node23</title>
<g id="a_edge24_Node000004_Node000023"><a xlink:title=" ">
<path fill="none" stroke="#63b8ff" d="M488.8,-309.62C459.32,-289.34 387.41,-239.85 350.52,-214.46"/>
<polygon fill="#63b8ff" stroke="#63b8ff" points="352.57,-211.62 342.35,-208.84 348.61,-217.39 352.57,-211.62"/>
</a>
</g>
</g>
<!-- Node4&#45;&gt;Node29 -->
<g id="edge34_Node000004_Node000029" class="edge">
<title>Node4&#45;&gt;Node29</title>
<g id="a_edge34_Node000004_Node000029"><a xlink:title=" ">
<path fill="none" stroke="#63b8ff" d="M514.48,-309.68C525.24,-302.05 541.14,-290.77 555.11,-280.86"/>
<polygon fill="#63b8ff" stroke="#63b8ff" points="557.02,-283.8 563.15,-275.16 552.97,-278.09 557.02,-283.8"/>
</a>
</g>
</g>
<!-- Node6 -->
<g id="Node000006" class="node">
<title>Node6</title>
<g id="a_Node000006"><a xlink:title=" ">
<polygon fill="#e0e0e0" stroke="#999999" points="588.5,-146.62 543.25,-146.62 543.25,-127.38 588.5,-127.38 588.5,-146.62"/>
<text text-anchor="middle" x="565.88" y="-132.18" font-family="Helvetica,sans-Serif" font-size="11.00">cmath</text>
</a>
</g>
</g>
<!-- Node5&#45;&gt;Node6 -->
<g id="edge5_Node000005_Node000006" class="edge">
<title>Node5&#45;&gt;Node6</title>
<g id="a_edge5_Node000005_Node000006"><a xlink:title=" ">
<path fill="none" stroke="#63b8ff" d="M594.71,-187.93C589.97,-179.72 582.79,-167.28 576.77,-156.87"/>
<polygon fill="#63b8ff" stroke="#63b8ff" points="579.88,-155.25 571.84,-148.34 573.81,-158.75 579.88,-155.25"/>
</a>
</g>
</g>
<!-- Node7 -->
<g id="Node000007" class="node">
<title>Node7</title>
<g id="a_Node000007"><a xlink:title=" ">
<polygon fill="#e0e0e0" stroke="#999999" points="646.88,-146.62 606.88,-146.62 606.88,-127.38 646.88,-127.38 646.88,-146.62"/>
<text text-anchor="middle" x="626.88" y="-132.18" font-family="Helvetica,sans-Serif" font-size="11.00">limits</text>
</a>
</g>
</g>
<!-- Node5&#45;&gt;Node7 -->
<g id="edge6_Node000005_Node000007" class="edge">
<title>Node5&#45;&gt;Node7</title>
<g id="a_edge6_Node000005_Node000007"><a xlink:title=" ">
<path fill="none" stroke="#63b8ff" d="M603.98,-187.93C607.7,-179.81 613.33,-167.54 618.07,-157.2"/>
<polygon fill="#63b8ff" stroke="#63b8ff" points="621.12,-158.95 622.1,-148.4 614.75,-156.03 621.12,-158.95"/>
</a>
</g>
</g>
<!-- Node8 -->
<g id="Node000008" class="node">
<title>Node8</title>
<g id="a_Node000008"><a xlink:title=" ">
<polygon fill="#e0e0e0" stroke="#999999" points="722.88,-146.62 664.88,-146.62 664.88,-127.38 722.88,-127.38 722.88,-146.62"/>
<text text-anchor="middle" x="693.88" y="-132.18" font-family="Helvetica,sans-Serif" font-size="11.00">numbers</text>
</a>
</g>
</g>
<!-- Node5&#45;&gt;Node8 -->
<g id="edge7_Node000005_Node000008" class="edge">
<title>Node5&#45;&gt;Node8</title>
<g id="a_edge7_Node000005_Node000008"><a xlink:title=" ">
<path fill="none" stroke="#63b8ff" d="M614.15,-187.93C628.92,-178.68 652.25,-164.07 669.86,-153.04"/>
<polygon fill="#63b8ff" stroke="#63b8ff" points="671.56,-156.1 678.18,-147.83 667.85,-150.17 671.56,-156.1"/>
</a>
</g>
</g>
<!-- Node9 -->
<g id="Node000009" class="node">
<title>Node9</title>
<g id="a_Node000009"><a xlink:title=" ">
<polygon fill="#e0e0e0" stroke="#999999" points="798.88,-146.62 740.88,-146.62 740.88,-127.38 798.88,-127.38 798.88,-146.62"/>
<text text-anchor="middle" x="769.88" y="-132.18" font-family="Helvetica,sans-Serif" font-size="11.00">compare</text>
</a>
</g>
</g>
<!-- Node5&#45;&gt;Node9 -->
<g id="edge8_Node000005_Node000009" class="edge">
<title>Node5&#45;&gt;Node9</title>
<g id="a_edge8_Node000005_Node000009"><a xlink:title=" ">
<path fill="none" stroke="#63b8ff" d="M627.52,-187.82C654.29,-178.98 695.99,-165.04 731.88,-152.25 733.04,-151.84 734.22,-151.41 735.41,-150.98"/>
<polygon fill="#63b8ff" stroke="#63b8ff" points="736.6,-154.27 744.78,-147.54 734.19,-147.7 736.6,-154.27"/>
</a>
</g>
</g>
<!-- Node10 -->
<g id="Node000010" class="node">
<title>Node10</title>
<g id="a_Node000010"><a xlink:href="export_8h_source.html" target="_top" xlink:title=" ">
<polygon fill="white" stroke="#666666" points="525.38,-146.62 410.38,-146.62 410.38,-127.38 525.38,-127.38 525.38,-146.62"/>
<text text-anchor="middle" x="467.88" y="-132.18" font-family="Helvetica,sans-Serif" font-size="11.00">floppy/detail/export.h</text>
</a>
</g>
</g>
<!-- Node5&#45;&gt;Node10 -->
<g id="edge9_Node000005_Node000010" class="edge">
<title>Node5&#45;&gt;Node10</title>
<g id="a_edge9_Node000005_Node000010"><a xlink:title=" ">
<path fill="none" stroke="#63b8ff" d="M579.54,-187.8C557.87,-178.14 523.32,-162.73 498.38,-151.61"/>
<polygon fill="#63b8ff" stroke="#63b8ff" points="499.96,-148.48 489.4,-147.6 497.11,-154.87 499.96,-148.48"/>
</a>
</g>
</g>
<!-- Node15 -->
<g id="Node000015" class="node">
<title>Node15</title>
<g id="a_Node000015"><a xlink:href="concepts_8h_source.html" target="_top" xlink:title=" ">
<polygon fill="white" stroke="#666666" points="944.75,-146.62 817,-146.62 817,-127.38 944.75,-127.38 944.75,-146.62"/>
<text text-anchor="middle" x="880.88" y="-132.18" font-family="Helvetica,sans-Serif" font-size="11.00">floppy/detail/concepts.h</text>
</a>
</g>
</g>
<!-- Node5&#45;&gt;Node15 -->
<g id="edge14_Node000005_Node000015" class="edge">
<title>Node5&#45;&gt;Node15</title>
<g id="a_edge14_Node000005_Node000015"><a xlink:title=" ">
<path fill="none" stroke="#63b8ff" d="M643.17,-187.8C692.46,-177.48 773.08,-160.58 826.56,-149.38"/>
<polygon fill="#63b8ff" stroke="#63b8ff" points="826.98,-152.87 836.05,-147.39 825.55,-146.02 826.98,-152.87"/>
</a>
</g>
</g>
<!-- Node11 -->
<g id="Node000011" class="node">
<title>Node11</title>
<g id="a_Node000011"><a xlink:title=" ">
<polygon fill="#e0e0e0" stroke="#999999" points="479,-80.12 436.75,-80.12 436.75,-60.88 479,-60.88 479,-80.12"/>
<text text-anchor="middle" x="457.88" y="-65.67" font-family="Helvetica,sans-Serif" font-size="11.00">string</text>
</a>
</g>
</g>
<!-- Node10&#45;&gt;Node11 -->
<g id="edge10_Node000010_Node000011" class="edge">
<title>Node10&#45;&gt;Node11</title>
<g id="a_edge10_Node000010_Node000011"><a xlink:title=" ">
<path fill="none" stroke="#63b8ff" d="M466.48,-127.03C465.07,-117.89 462.82,-103.39 460.98,-91.5"/>
<polygon fill="#63b8ff" stroke="#63b8ff" points="464.48,-91.23 459.49,-81.89 457.56,-92.31 464.48,-91.23"/>
</a>
</g>
</g>
<!-- Node12 -->
<g id="Node000012" class="node">
<title>Node12</title>
<g id="a_Node000012"><a xlink:title=" ">
<polygon fill="#e0e0e0" stroke="#999999" points="284.88,-80.12 214.88,-80.12 214.88,-60.88 284.88,-60.88 284.88,-80.12"/>
<text text-anchor="middle" x="249.88" y="-65.67" font-family="Helvetica,sans-Serif" font-size="11.00">string_view</text>
</a>
</g>
</g>
<!-- Node10&#45;&gt;Node12 -->
<g id="edge11_Node000010_Node000012" class="edge">
<title>Node10&#45;&gt;Node12</title>
<g id="a_edge11_Node000010_Node000012"><a xlink:title=" ">
<path fill="none" stroke="#63b8ff" d="M437.1,-126.9C398.96,-115.61 333.82,-96.34 291.31,-83.76"/>
<polygon fill="#63b8ff" stroke="#63b8ff" points="292.52,-80.47 281.94,-80.99 290.54,-87.18 292.52,-80.47"/>
</a>
</g>
</g>
<!-- Node13 -->
<g id="Node000013" class="node">
<title>Node13</title>
<g id="a_Node000013"><a xlink:title=" ">
<polygon fill="#e0e0e0" stroke="#999999" points="399.5,-80.12 342.25,-80.12 342.25,-60.88 399.5,-60.88 399.5,-80.12"/>
<text text-anchor="middle" x="370.88" y="-65.67" font-family="Helvetica,sans-Serif" font-size="11.00">iostream</text>
</a>
</g>
</g>
<!-- Node10&#45;&gt;Node13 -->
<g id="edge12_Node000010_Node000013" class="edge">
<title>Node10&#45;&gt;Node13</title>
<g id="a_edge12_Node000010_Node000013"><a xlink:title=" ">
<path fill="none" stroke="#63b8ff" d="M454.39,-127.03C438.77,-116.64 412.77,-99.36 393.93,-86.83"/>
<polygon fill="#63b8ff" stroke="#63b8ff" points="396.09,-84.06 385.82,-81.44 392.21,-89.89 396.09,-84.06"/>
</a>
</g>
</g>
<!-- Node14 -->
<g id="Node000014" class="node">
<title>Node14</title>
<g id="a_Node000014"><a xlink:title=" ">
<polygon fill="#e0e0e0" stroke="#999999" points="543.75,-19.25 470,-19.25 470,0 543.75,0 543.75,-19.25"/>
<text text-anchor="middle" x="506.88" y="-4.8" font-family="Helvetica,sans-Serif" font-size="11.00">fmt/format.h</text>
</a>
</g>
</g>
<!-- Node10&#45;&gt;Node14 -->
<g id="edge13_Node000010_Node000014" class="edge">
<title>Node10&#45;&gt;Node14</title>
<g id="a_edge13_Node000010_Node000014"><a xlink:title=" ">
<path fill="none" stroke="#63b8ff" d="M471.77,-127.23C476.09,-117.3 483.07,-100.58 487.88,-85.75 493.83,-67.35 499.09,-45.93 502.56,-30.68"/>
<polygon fill="#63b8ff" stroke="#63b8ff" points="505.96,-31.52 504.7,-21 499.12,-30.01 505.96,-31.52"/>
</a>
</g>
</g>
<!-- Node16 -->
<g id="Node000016" class="node">
<title>Node16</title>
<g id="a_Node000016"><a xlink:title=" ">
<polygon fill="#e0e0e0" stroke="#999999" points="862.25,-80.12 803.5,-80.12 803.5,-60.88 862.25,-60.88 862.25,-80.12"/>
<text text-anchor="middle" x="832.88" y="-65.67" font-family="Helvetica,sans-Serif" font-size="11.00">concepts</text>
</a>
</g>
</g>
<!-- Node15&#45;&gt;Node16 -->
<g id="edge15_Node000015_Node000016" class="edge">
<title>Node15&#45;&gt;Node16</title>
<g id="a_edge15_Node000015_Node000016"><a xlink:title=" ">
<path fill="none" stroke="#63b8ff" d="M874.2,-127.03C866.96,-117.31 855.23,-101.54 846.11,-89.28"/>
<polygon fill="#63b8ff" stroke="#63b8ff" points="849.17,-87.54 840.4,-81.61 843.56,-91.72 849.17,-87.54"/>
</a>
</g>
</g>
<!-- Node17 -->
<g id="Node000017" class="node">
<title>Node17</title>
<g id="a_Node000017"><a xlink:href="type__traits_8h_source.html" target="_top" xlink:title=" ">
<polygon fill="white" stroke="#666666" points="977,-85.75 880.75,-85.75 880.75,-55.25 977,-55.25 977,-85.75"/>
<text text-anchor="start" x="888.75" y="-71.3" font-family="Helvetica,sans-Serif" font-size="11.00">floppy/detail/type</text>
<text text-anchor="middle" x="928.88" y="-60.05" font-family="Helvetica,sans-Serif" font-size="11.00">_traits.h</text>
</a>
</g>
</g>
<!-- Node15&#45;&gt;Node17 -->
<g id="edge16_Node000015_Node000017" class="edge">
<title>Node15&#45;&gt;Node17</title>
<g id="a_edge16_Node000015_Node000017"><a xlink:title=" ">
<path fill="none" stroke="#63b8ff" d="M887.55,-127.03C893.69,-118.79 903.06,-106.19 911.33,-95.08"/>
<polygon fill="#63b8ff" stroke="#63b8ff" points="914.13,-97.17 917.3,-87.06 908.52,-92.99 914.13,-97.17"/>
</a>
</g>
</g>
<!-- Node19 -->
<g id="Node000019" class="node">
<title>Node19</title>
<g id="a_Node000019"><a xlink:href="types_8h_source.html" target="_top" xlink:title=" ">
<polygon fill="white" stroke="#666666" points="785.12,-80.12 674.62,-80.12 674.62,-60.88 785.12,-60.88 785.12,-80.12"/>
<text text-anchor="middle" x="729.88" y="-65.67" font-family="Helvetica,sans-Serif" font-size="11.00">floppy/detail/types.h</text>
</a>
</g>
</g>
<!-- Node15&#45;&gt;Node19 -->
<g id="edge18_Node000015_Node000019" class="edge">
<title>Node15&#45;&gt;Node19</title>
<g id="a_edge18_Node000015_Node000019"><a xlink:title=" ">
<path fill="none" stroke="#63b8ff" d="M859.56,-126.9C834.04,-116 791.07,-97.64 761.63,-85.07"/>
<polygon fill="#63b8ff" stroke="#63b8ff" points="763.04,-81.86 752.47,-81.15 760.29,-88.3 763.04,-81.86"/>
</a>
</g>
</g>
<!-- Node18 -->
<g id="Node000018" class="node">
<title>Node18</title>
<g id="a_Node000018"><a xlink:title=" ">
<polygon fill="#e0e0e0" stroke="#999999" points="934.62,-19.25 869.12,-19.25 869.12,0 934.62,0 934.62,-19.25"/>
<text text-anchor="middle" x="901.88" y="-4.8" font-family="Helvetica,sans-Serif" font-size="11.00">type_traits</text>
</a>
</g>
</g>
<!-- Node17&#45;&gt;Node18 -->
<g id="edge17_Node000017_Node000018" class="edge">
<title>Node17&#45;&gt;Node18</title>
<g id="a_edge17_Node000017_Node000018"><a xlink:title=" ">
<path fill="none" stroke="#63b8ff" d="M922.2,-54.95C918.76,-47.45 914.52,-38.2 910.8,-30.1"/>
<polygon fill="#63b8ff" stroke="#63b8ff" points="914.02,-28.71 906.67,-21.08 907.66,-31.63 914.02,-28.71"/>
</a>
</g>
</g>
<!-- Node19&#45;&gt;Node14 -->
<g id="edge23_Node000019_Node000014" class="edge">
<title>Node19&#45;&gt;Node14</title>
<g id="a_edge23_Node000019_Node000014"><a xlink:title=" ">
<path fill="none" stroke="#63b8ff" d="M695.52,-60.43C657.13,-50.3 594.82,-33.84 552.4,-22.64"/>
<polygon fill="#63b8ff" stroke="#63b8ff" points="553.29,-19.26 542.73,-20.09 551.51,-26.03 553.29,-19.26"/>
</a>
</g>
</g>
<!-- Node19&#45;&gt;Node18 -->
<g id="edge22_Node000019_Node000018" class="edge">
<title>Node19&#45;&gt;Node18</title>
<g id="a_edge22_Node000019_Node000018"><a xlink:title=" ">
<path fill="none" stroke="#63b8ff" d="M756.37,-60.43C785.41,-50.49 832.21,-34.47 864.86,-23.29"/>
<polygon fill="#63b8ff" stroke="#63b8ff" points="865.59,-26.75 873.91,-20.2 863.32,-20.12 865.59,-26.75"/>
</a>
</g>
</g>
<!-- Node20 -->
<g id="Node000020" class="node">
<title>Node20</title>
<g id="a_Node000020"><a xlink:title=" ">
<polygon fill="#e0e0e0" stroke="#999999" points="825.12,-19.25 774.62,-19.25 774.62,0 825.12,0 825.12,-19.25"/>
<text text-anchor="middle" x="799.88" y="-4.8" font-family="Helvetica,sans-Serif" font-size="11.00">cstddef</text>
</a>
</g>
</g>
<!-- Node19&#45;&gt;Node20 -->
<g id="edge19_Node000019_Node000020" class="edge">
<title>Node19&#45;&gt;Node20</title>
<g id="a_edge19_Node000019_Node000020"><a xlink:title=" ">
<path fill="none" stroke="#63b8ff" d="M740.51,-60.56C751.09,-51.65 767.59,-37.78 780.5,-26.92"/>
<polygon fill="#63b8ff" stroke="#63b8ff" points="782.58,-29.74 787.99,-20.63 778.08,-24.38 782.58,-29.74"/>
</a>
</g>
</g>
<!-- Node21 -->
<g id="Node000021" class="node">
<title>Node21</title>
<g id="a_Node000021"><a xlink:title=" ">
<polygon fill="#e0e0e0" stroke="#999999" points="685.25,-19.25 638.5,-19.25 638.5,0 685.25,0 685.25,-19.25"/>
<text text-anchor="middle" x="661.88" y="-4.8" font-family="Helvetica,sans-Serif" font-size="11.00">cstdint</text>
</a>
</g>
</g>
<!-- Node19&#45;&gt;Node21 -->
<g id="edge20_Node000019_Node000021" class="edge">
<title>Node19&#45;&gt;Node21</title>
<g id="a_edge20_Node000019_Node000021"><a xlink:title=" ">
<path fill="none" stroke="#63b8ff" d="M719.55,-60.56C709.26,-51.65 693.24,-37.78 680.69,-26.92"/>
<polygon fill="#63b8ff" stroke="#63b8ff" points="683.3,-24.54 673.44,-20.64 678.71,-29.83 683.3,-24.54"/>
</a>
</g>
</g>
<!-- Node22 -->
<g id="Node000022" class="node">
<title>Node22</title>
<g id="a_Node000022"><a xlink:title=" ">
<polygon fill="#e0e0e0" stroke="#999999" points="756.62,-19.25 703.12,-19.25 703.12,0 756.62,0 756.62,-19.25"/>
<text text-anchor="middle" x="729.88" y="-4.8" font-family="Helvetica,sans-Serif" font-size="11.00">optional</text>
</a>
</g>
</g>
<!-- Node19&#45;&gt;Node22 -->
<g id="edge21_Node000019_Node000022" class="edge">
<title>Node19&#45;&gt;Node22</title>
<g id="a_edge21_Node000019_Node000022"><a xlink:title=" ">
<path fill="none" stroke="#63b8ff" d="M729.88,-60.56C729.88,-52.78 729.88,-41.2 729.88,-31.16"/>
<polygon fill="#63b8ff" stroke="#63b8ff" points="733.38,-31.16 729.88,-21.16 726.38,-31.16 733.38,-31.16"/>
</a>
</g>
</g>
<!-- Node23&#45;&gt;Node10 -->
<g id="edge28_Node000023_Node000010" class="edge">
<title>Node23&#45;&gt;Node10</title>
<g id="a_edge28_Node000023_Node000010"><a xlink:title=" ">
<path fill="none" stroke="#63b8ff" d="M349.44,-187.8C372.63,-178.05 409.73,-162.45 436.23,-151.31"/>
<polygon fill="#63b8ff" stroke="#63b8ff" points="437.26,-154.67 445.12,-147.57 434.54,-148.22 437.26,-154.67"/>
</a>
</g>
</g>
<!-- Node23&#45;&gt;Node13 -->
<g id="edge26_Node000023_Node000013" class="edge">
<title>Node23&#45;&gt;Node13</title>
<g id="a_edge26_Node000023_Node000013"><a xlink:title=" ">
<path fill="none" stroke="#63b8ff" d="M287.93,-191.68C234.39,-183.05 149.49,-162.51 180.88,-121.75 190.11,-109.75 277.86,-90.24 330.82,-79.4"/>
<polygon fill="#63b8ff" stroke="#63b8ff" points="331.28,-82.87 340.39,-77.46 329.89,-76.01 331.28,-82.87"/>
</a>
</g>
</g>
<!-- Node24 -->
<g id="Node000024" class="node">
<title>Node24</title>
<g id="a_Node000024"><a xlink:title=" ">
<polygon fill="#e0e0e0" stroke="#999999" points="245.38,-146.62 190.38,-146.62 190.38,-127.38 245.38,-127.38 245.38,-146.62"/>
<text text-anchor="middle" x="217.88" y="-132.18" font-family="Helvetica,sans-Serif" font-size="11.00">memory</text>
</a>
</g>
</g>
<!-- Node23&#45;&gt;Node24 -->
<g id="edge25_Node000023_Node000024" class="edge">
<title>Node23&#45;&gt;Node24</title>
<g id="a_edge25_Node000023_Node000024"><a xlink:title=" ">
<path fill="none" stroke="#63b8ff" d="M311.17,-187.93C293.56,-178.51 265.56,-163.52 244.83,-152.43"/>
<polygon fill="#63b8ff" stroke="#63b8ff" points="246.54,-149.37 236.07,-147.74 243.24,-155.54 246.54,-149.37"/>
</a>
</g>
</g>
<!-- Node25 -->
<g id="Node000025" class="node">
<title>Node25</title>
<g id="a_Node000025"><a xlink:title=" ">
<polygon fill="#e0e0e0" stroke="#999999" points="392.5,-152.25 263.25,-152.25 263.25,-121.75 392.5,-121.75 392.5,-152.25"/>
<text text-anchor="start" x="271.25" y="-137.8" font-family="Helvetica,sans-Serif" font-size="11.00">experimental/propagate</text>
<text text-anchor="middle" x="327.88" y="-126.55" font-family="Helvetica,sans-Serif" font-size="11.00">_const</text>
</a>
</g>
</g>
<!-- Node23&#45;&gt;Node25 -->
<g id="edge27_Node000023_Node000025" class="edge">
<title>Node23&#45;&gt;Node25</title>
<g id="a_edge27_Node000023_Node000025"><a xlink:title=" ">
<path fill="none" stroke="#63b8ff" d="M327.88,-187.93C327.88,-181.48 327.88,-172.41 327.88,-163.76"/>
<polygon fill="#63b8ff" stroke="#63b8ff" points="331.38,-164.05 327.88,-154.05 324.38,-164.05 331.38,-164.05"/>
</a>
</g>
</g>
<!-- Node26 -->
<g id="Node000026" class="node">
<title>Node26</title>
<g id="a_Node000026"><a xlink:href="formatters_8h_source.html" target="_top" xlink:title=" ">
<polygon fill="white" stroke="#666666" points="133.75,-146.62 0,-146.62 0,-127.38 133.75,-127.38 133.75,-146.62"/>
<text text-anchor="middle" x="66.88" y="-132.18" font-family="Helvetica,sans-Serif" font-size="11.00">floppy/detail/formatters.h</text>
</a>
</g>
</g>
<!-- Node23&#45;&gt;Node26 -->
<g id="edge29_Node000023_Node000026" class="edge">
<title>Node23&#45;&gt;Node26</title>
<g id="a_edge29_Node000023_Node000026"><a xlink:title=" ">
<path fill="none" stroke="#63b8ff" d="M287.67,-187.8C242.16,-177.54 167.94,-160.8 118.26,-149.59"/>
<polygon fill="#63b8ff" stroke="#63b8ff" points="119.13,-146.2 108.61,-147.41 117.59,-153.03 119.13,-146.2"/>
</a>
</g>
</g>
<!-- Node26&#45;&gt;Node12 -->
<g id="edge30_Node000026_Node000012" class="edge">
<title>Node26&#45;&gt;Node12</title>
<g id="a_edge30_Node000026_Node000012"><a xlink:title=" ">
<path fill="none" stroke="#63b8ff" d="M92.71,-126.9C124.31,-115.76 178.02,-96.83 213.72,-84.24"/>
<polygon fill="#63b8ff" stroke="#63b8ff" points="214.48,-87.69 222.75,-81.06 212.15,-81.08 214.48,-87.69"/>
</a>
</g>
</g>
<!-- Node26&#45;&gt;Node14 -->
<g id="edge33_Node000026_Node000014" class="edge">
<title>Node26&#45;&gt;Node14</title>
<g id="a_edge33_Node000026_Node000014"><a xlink:title=" ">
<path fill="none" stroke="#63b8ff" d="M62.1,-126.88C54.16,-110.33 40.82,-75.2 58.88,-55.25 85.29,-26.07 347.45,-15.18 458.05,-11.87"/>
<polygon fill="#63b8ff" stroke="#63b8ff" points="458.11,-15.37 468.01,-11.58 457.91,-8.37 458.11,-15.37"/>
</a>
</g>
</g>
<!-- Node27 -->
<g id="Node000027" class="node">
<title>Node27</title>
<g id="a_Node000027"><a xlink:title=" ">
<polygon fill="#e0e0e0" stroke="#999999" points="122,-80.12 67.75,-80.12 67.75,-60.88 122,-60.88 122,-80.12"/>
<text text-anchor="middle" x="94.88" y="-65.67" font-family="Helvetica,sans-Serif" font-size="11.00">sstream</text>
</a>
</g>
</g>
<!-- Node26&#45;&gt;Node27 -->
<g id="edge31_Node000026_Node000027" class="edge">
<title>Node26&#45;&gt;Node27</title>
<g id="a_edge31_Node000026_Node000027"><a xlink:title=" ">
<path fill="none" stroke="#63b8ff" d="M70.77,-127.03C74.82,-117.69 81.3,-102.78 86.52,-90.76"/>
<polygon fill="#63b8ff" stroke="#63b8ff" points="89.64,-92.35 90.41,-81.78 83.22,-89.56 89.64,-92.35"/>
</a>
</g>
</g>
<!-- Node28 -->
<g id="Node000028" class="node">
<title>Node28</title>
<g id="a_Node000028"><a xlink:title=" ">
<polygon fill="#e0e0e0" stroke="#999999" points="187.25,-80.12 140.5,-80.12 140.5,-60.88 187.25,-60.88 187.25,-80.12"/>
<text text-anchor="middle" x="163.88" y="-65.67" font-family="Helvetica,sans-Serif" font-size="11.00">iosfwd</text>
</a>
</g>
</g>
<!-- Node26&#45;&gt;Node28 -->
<g id="edge32_Node000026_Node000028" class="edge">
<title>Node26&#45;&gt;Node28</title>
<g id="a_edge32_Node000026_Node000028"><a xlink:title=" ">
<path fill="none" stroke="#63b8ff" d="M80.36,-127.03C95.98,-116.64 121.98,-99.36 140.82,-86.83"/>
<polygon fill="#63b8ff" stroke="#63b8ff" points="142.54,-89.89 148.93,-81.44 138.66,-84.06 142.54,-89.89"/>
</a>
</g>
</g>
<!-- Node29&#45;&gt;Node5 -->
<g id="edge35_Node000029_Node000005" class="edge">
<title>Node29&#45;&gt;Node5</title>
<g id="a_edge35_Node000029_Node000005"><a xlink:title=" ">
<path fill="none" stroke="#63b8ff" d="M588.58,-243.2C590.45,-235.87 592.74,-226.87 594.77,-218.91"/>
<polygon fill="#63b8ff" stroke="#63b8ff" points="598.11,-219.97 597.19,-209.42 591.33,-218.24 598.11,-219.97"/>
</a>
</g>
</g>
<!-- Node29&#45;&gt;Node15 -->
<g id="edge36_Node000029_Node000015" class="edge">
<title>Node29&#45;&gt;Node15</title>
<g id="a_edge36_Node000029_Node000015"><a xlink:title=" ">
<path fill="none" stroke="#63b8ff" d="M621.17,-243.07C679.35,-219.53 792.59,-173.72 848.31,-151.17"/>
<polygon fill="#63b8ff" stroke="#63b8ff" points="849.3,-154.55 857.25,-147.56 846.67,-148.06 849.3,-154.55"/>
</a>
</g>
</g>
<!-- Node30&#45;&gt;Node3 -->
<g id="edge41_Node000030_Node000003" class="edge">
<title>Node30&#45;&gt;Node3</title>
<g id="a_edge41_Node000030_Node000003"><a xlink:title=" ">
<path fill="none" stroke="#63b8ff" d="M644.94,-486.54C616.2,-479.77 580.29,-468.6 551.88,-451 527.48,-435.89 505.64,-410.61 492.58,-393.6"/>
<polygon fill="#63b8ff" stroke="#63b8ff" points="495.62,-391.83 486.85,-385.89 490,-396 495.62,-391.83"/>
</a>
</g>
</g>
<!-- Node30&#45;&gt;Node5 -->
<g id="edge39_Node000030_Node000005" class="edge">
<title>Node30&#45;&gt;Node5</title>
<g id="a_edge39_Node000030_Node000005"><a xlink:title=" ">
<path fill="none" stroke="#63b8ff" d="M679.09,-486.53C652.66,-470.19 600.81,-432.98 584.88,-384.5 568.84,-335.71 640.55,-291.55 645.88,-274 649.81,-261.03 651.16,-255.98 645.88,-243.5 641.11,-232.24 631.97,-222.43 623.08,-214.9"/>
<polygon fill="#63b8ff" stroke="#63b8ff" points="625.34,-212.22 615.3,-208.83 621.03,-217.74 625.34,-212.22"/>
</a>
</g>
</g>
<!-- Node30&#45;&gt;Node15 -->
<g id="edge40_Node000030_Node000015" class="edge">
<title>Node30&#45;&gt;Node15</title>
<g id="a_edge40_Node000030_Node000015"><a xlink:title=" ">
<path fill="none" stroke="#63b8ff" d="M751.65,-486.54C810.78,-473.46 894.88,-443.06 894.88,-375.88 894.88,-375.88 894.88,-375.88 894.88,-257.75 894.88,-222.6 888.85,-182.05 884.71,-158.3"/>
<polygon fill="#63b8ff" stroke="#63b8ff" points="888.15,-157.67 882.92,-148.46 881.26,-158.93 888.15,-157.67"/>
</a>
</g>
</g>
<!-- Node30&#45;&gt;Node31 -->
<g id="edge42_Node000030_Node000031" class="edge">
<title>Node30&#45;&gt;Node31</title>
<g id="a_edge42_Node000030_Node000031"><a xlink:title=" ">
<path fill="none" stroke="#63b8ff" d="M694.88,-486.68C694.88,-480.23 694.88,-471.16 694.88,-462.51"/>
<polygon fill="#63b8ff" stroke="#63b8ff" points="698.38,-462.8 694.88,-452.8 691.38,-462.8 698.38,-462.8"/>
</a>
</g>
</g>
<!-- Node36 -->
<g id="Node000036" class="node">
<title>Node36</title>
<g id="a_Node000036"><a xlink:title=" ">
<polygon fill="#e0e0e0" stroke="#999999" points="972.75,-445.38 923,-445.38 923,-426.12 972.75,-426.12 972.75,-445.38"/>
<text text-anchor="middle" x="947.88" y="-430.93" font-family="Helvetica,sans-Serif" font-size="11.00">qsize.h</text>
</a>
</g>
</g>
<!-- Node30&#45;&gt;Node36 -->
<g id="edge49_Node000030_Node000036" class="edge">
<title>Node30&#45;&gt;Node36</title>
<g id="a_edge49_Node000030_Node000036"><a xlink:title=" ">
<path fill="none" stroke="#63b8ff" d="M749.05,-486.57C792.63,-478.75 855.23,-466.31 908.88,-451 910.6,-450.51 912.37,-449.97 914.14,-449.42"/>
<polygon fill="#63b8ff" stroke="#63b8ff" points="915.18,-452.76 923.53,-446.23 912.93,-446.13 915.18,-452.76"/>
</a>
</g>
</g>
<!-- Node31&#45;&gt;Node3 -->
<g id="edge47_Node000031_Node000003" class="edge">
<title>Node31&#45;&gt;Node3</title>
<g id="a_edge47_Node000031_Node000003"><a xlink:title=" ">
<path fill="none" stroke="#63b8ff" d="M642.56,-420.42C606.1,-410.44 558.04,-397.28 523.62,-387.85"/>
<polygon fill="#63b8ff" stroke="#63b8ff" points="524.99,-384.6 514.42,-385.33 523.14,-391.35 524.99,-384.6"/>
</a>
</g>
</g>
<!-- Node31&#45;&gt;Node29 -->
<g id="edge48_Node000031_Node000029" class="edge">
<title>Node31&#45;&gt;Node29</title>
<g id="a_edge48_Node000031_Node000029"><a xlink:title=" ">
<path fill="none" stroke="#63b8ff" d="M747.2,-428.8C797.63,-420.74 862.9,-402.8 837.88,-365.25 795.97,-302.38 708.73,-276.91 648.51,-266.64"/>
<polygon fill="#63b8ff" stroke="#63b8ff" points="649.14,-263.19 638.71,-265.07 648.04,-270.11 649.14,-263.19"/>
</a>
</g>
</g>
<!-- Node32 -->
<g id="Node000032" class="node">
<title>Node32</title>
<g id="a_Node000032"><a xlink:title=" ">
<polygon fill="#e0e0e0" stroke="#999999" points="713.25,-384.5 672.5,-384.5 672.5,-365.25 713.25,-365.25 713.25,-384.5"/>
<text text-anchor="middle" x="692.88" y="-370.05" font-family="Helvetica,sans-Serif" font-size="11.00">array</text>
</a>
</g>
</g>
<!-- Node31&#45;&gt;Node32 -->
<g id="edge43_Node000031_Node000032" class="edge">
<title>Node31&#45;&gt;Node32</title>
<g id="a_edge43_Node000031_Node000032"><a xlink:title=" ">
<path fill="none" stroke="#63b8ff" d="M694.38,-420.2C694.13,-412.96 693.83,-404.09 693.57,-396.19"/>
<polygon fill="#63b8ff" stroke="#63b8ff" points="697.07,-396.34 693.23,-386.46 690.08,-396.58 697.07,-396.34"/>
</a>
</g>
</g>
<!-- Node33 -->
<g id="Node000033" class="node">
<title>Node33</title>
<g id="a_Node000033"><a xlink:title=" ">
<polygon fill="#e0e0e0" stroke="#999999" points="770.5,-384.5 731.25,-384.5 731.25,-365.25 770.5,-365.25 770.5,-384.5"/>
<text text-anchor="middle" x="750.88" y="-370.05" font-family="Helvetica,sans-Serif" font-size="11.00">tuple</text>
</a>
</g>
</g>
<!-- Node31&#45;&gt;Node33 -->
<g id="edge44_Node000031_Node000033" class="edge">
<title>Node31&#45;&gt;Node33</title>
<g id="a_edge44_Node000031_Node000033"><a xlink:title=" ">
<path fill="none" stroke="#63b8ff" d="M708.72,-420.2C716.51,-412.01 726.28,-401.73 734.45,-393.14"/>
<polygon fill="#63b8ff" stroke="#63b8ff" points="736.84,-395.71 741.2,-386.05 731.77,-390.88 736.84,-395.71"/>
</a>
</g>
</g>
<!-- Node34 -->
<g id="Node000034" class="node">
<title>Node34</title>
<g id="a_Node000034"><a xlink:title=" ">
<polygon fill="#e0e0e0" stroke="#999999" points="828.88,-384.5 788.88,-384.5 788.88,-365.25 828.88,-365.25 828.88,-384.5"/>
<text text-anchor="middle" x="808.88" y="-370.05" font-family="Helvetica,sans-Serif" font-size="11.00">utility</text>
</a>
</g>
</g>
<!-- Node31&#45;&gt;Node34 -->
<g id="edge45_Node000031_Node000034" class="edge">
<title>Node31&#45;&gt;Node34</title>
<g id="a_edge45_Node000031_Node000034"><a xlink:title=" ">
<path fill="none" stroke="#63b8ff" d="M723.35,-420.05C741.04,-410.91 763.68,-399.22 781.22,-390.16"/>
<polygon fill="#63b8ff" stroke="#63b8ff" points="782.77,-393.3 790.05,-385.6 779.56,-387.08 782.77,-393.3"/>
</a>
</g>
</g>
<!-- Node35 -->
<g id="Node000035" class="node">
<title>Node35</title>
<g id="a_Node000035"><a xlink:title=" ">
<polygon fill="#e0e0e0" stroke="#999999" points="654,-384.5 593.75,-384.5 593.75,-365.25 654,-365.25 654,-384.5"/>
<text text-anchor="middle" x="623.88" y="-370.05" font-family="Helvetica,sans-Serif" font-size="11.00">algorithm</text>
</a>
</g>
</g>
<!-- Node31&#45;&gt;Node35 -->
<g id="edge46_Node000031_Node000035" class="edge">
<title>Node31&#45;&gt;Node35</title>
<g id="a_edge46_Node000031_Node000035"><a xlink:title=" ">
<path fill="none" stroke="#63b8ff" d="M677.32,-420.2C667.03,-411.66 654.01,-400.87 643.4,-392.06"/>
<polygon fill="#63b8ff" stroke="#63b8ff" points="645.92,-389.61 635.99,-385.92 641.45,-394.99 645.92,-389.61"/>
</a>
</g>
</g>
<!-- Node37&#45;&gt;Node2 -->
<g id="edge51_Node000037_Node000002" class="edge">
<title>Node37&#45;&gt;Node2</title>
<g id="a_edge51_Node000037_Node000002"><a xlink:title=" ">
<path fill="none" stroke="#63b8ff" d="M516.56,-541.84C490.31,-533.16 450.4,-519.96 421.02,-510.24"/>
<polygon fill="#63b8ff" stroke="#63b8ff" points="422.35,-506.99 411.76,-507.18 420.15,-513.64 422.35,-506.99"/>
</a>
</g>
</g>
<!-- Node37&#45;&gt;Node3 -->
<g id="edge56_Node000037_Node000003" class="edge">
<title>Node37&#45;&gt;Node3</title>
<g id="a_edge56_Node000037_Node000003"><a xlink:title=" ">
<path fill="none" stroke="#63b8ff" d="M530.94,-541.84C520.48,-533.77 506.31,-520.99 498.88,-506.25 480.9,-470.62 478.6,-423.01 478.96,-396.29"/>
<polygon fill="#63b8ff" stroke="#63b8ff" points="482.45,-396.61 479.25,-386.51 475.46,-396.4 482.45,-396.61"/>
</a>
</g>
</g>
<!-- Node37&#45;&gt;Node30 -->
<g id="edge57_Node000037_Node000030" class="edge">
<title>Node37&#45;&gt;Node30</title>
<g id="a_edge57_Node000037_Node000030"><a xlink:title=" ">
<path fill="none" stroke="#63b8ff" d="M569.49,-541.84C593.89,-533.24 630.89,-520.19 658.37,-510.5"/>
<polygon fill="#63b8ff" stroke="#63b8ff" points="659.44,-513.83 667.71,-507.21 657.11,-507.23 659.44,-513.83"/>
</a>
</g>
</g>
<!-- Node37&#45;&gt;Node31 -->
<g id="edge58_Node000037_Node000031" class="edge">
<title>Node37&#45;&gt;Node31</title>
<g id="a_edge58_Node000037_Node000031"><a xlink:title=" ">
<path fill="none" stroke="#63b8ff" d="M555.37,-541.92C571.34,-529.5 601.18,-506.38 626.88,-487 639.54,-477.45 653.64,-467 665.7,-458.12"/>
<polygon fill="#63b8ff" stroke="#63b8ff" points="667.66,-461.02 673.64,-452.28 663.51,-455.38 667.66,-461.02"/>
</a>
</g>
</g>
<!-- Node38 -->
<g id="Node000038" class="node">
<title>Node38</title>
<g id="a_Node000038"><a xlink:href="angle_8h.html" target="_top" xlink:title="Newtype describing an angle.">
<polygon fill="white" stroke="#666666" points="427.62,-329.25 314.12,-329.25 314.12,-310 427.62,-310 427.62,-329.25"/>
<text text-anchor="middle" x="370.88" y="-314.8" font-family="Helvetica,sans-Serif" font-size="11.00">floppy/euclid/angle.h</text>
</a>
</g>
</g>
<!-- Node37&#45;&gt;Node38 -->
<g id="edge52_Node000037_Node000038" class="edge">
<title>Node37&#45;&gt;Node38</title>
<g id="a_edge52_Node000037_Node000038"><a xlink:title=" ">
<path fill="none" stroke="#63b8ff" d="M529.62,-541.8C517.35,-533.52 499.65,-520.45 486.88,-506.25 438.24,-452.18 397.5,-375.22 380.02,-339.81"/>
<polygon fill="#63b8ff" stroke="#63b8ff" points="383.19,-338.31 375.67,-330.85 376.89,-341.37 383.19,-338.31"/>
</a>
</g>
</g>
<!-- Node39 -->
<g id="Node000039" class="node">
<title>Node39</title>
<g id="a_Node000039"><a xlink:title=" ">
<polygon fill="#e0e0e0" stroke="#999999" points="580,-506.25 507.75,-506.25 507.75,-487 580,-487 580,-506.25"/>
<text text-anchor="middle" x="543.88" y="-491.8" font-family="Helvetica,sans-Serif" font-size="11.00">qvector2d.h</text>
</a>
</g>
</g>
<!-- Node37&#45;&gt;Node39 -->
<g id="edge59_Node000037_Node000039" class="edge">
<title>Node37&#45;&gt;Node39</title>
<g id="a_edge59_Node000037_Node000039"><a xlink:title=" ">
<path fill="none" stroke="#63b8ff" d="M543.88,-542.08C543.88,-535.57 543.88,-526.42 543.88,-518.12"/>
<polygon fill="#63b8ff" stroke="#63b8ff" points="547.38,-518.12 543.88,-508.12 540.38,-518.12 547.38,-518.12"/>
</a>
</g>
</g>
<!-- Node38&#45;&gt;Node5 -->
<g id="edge53_Node000038_Node000005" class="edge">
<title>Node38&#45;&gt;Node5</title>
<g id="a_edge53_Node000038_Node000005"><a xlink:title=" ">
<path fill="none" stroke="#63b8ff" d="M385.95,-309.7C410.56,-295.25 461,-266.07 504.88,-243.5 526.14,-232.56 550.57,-221.11 569.33,-212.55"/>
<polygon fill="#63b8ff" stroke="#63b8ff" points="570.62,-215.81 578.28,-208.49 567.72,-209.43 570.62,-215.81"/>
</a>
</g>
</g>
<!-- Node38&#45;&gt;Node23 -->
<g id="edge54_Node000038_Node000023" class="edge">
<title>Node38&#45;&gt;Node23</title>
<g id="a_edge54_Node000038_Node000023"><a xlink:title=" ">
<path fill="none" stroke="#63b8ff" d="M367.64,-309.62C360.73,-290.38 344.38,-244.85 334.94,-218.55"/>
<polygon fill="#63b8ff" stroke="#63b8ff" points="338.33,-217.63 331.66,-209.4 331.74,-220 338.33,-217.63"/>
</a>
</g>
</g>
<!-- Node38&#45;&gt;Node29 -->
<g id="edge55_Node000038_Node000029" class="edge">
<title>Node38&#45;&gt;Node29</title>
<g id="a_edge55_Node000038_Node000029"><a xlink:title=" ">
<path fill="none" stroke="#63b8ff" d="M403.84,-309.55C435.24,-300.92 483.33,-287.69 522.05,-277.03"/>
<polygon fill="#63b8ff" stroke="#63b8ff" points="522.53,-280.53 531.24,-274.51 520.67,-273.78 522.53,-280.53"/>
</a>
</g>
</g>
</g>
</svg>

<g id="navigator" transform="translate(0 0)" fill="#404254">
  <rect fill="#f2f5e9" fill-opacity="0.5" stroke="#606060" stroke-width=".5" x="0" y="0" width="60" height="60"/>
  <use id="zoomplus" xlink:href="#zoomPlus" x="17" y="9" onmousedown="handleZoom(evt,'in')"/>
  <use id="zoomminus" xlink:href="#zoomMin" x="42" y="9" onmousedown="handleZoom(evt,'out')"/>
  <use id="reset" xlink:href="#resetDef" x="30" y="36" onmousedown="handleReset()"/>
   <use id="arrowup" xlink:href="#arrowUp" x="0" y="0" onmousedown="handlePan(0,-1)"/>
  <use id="arrowright" xlink:href="#arrowRight" x="0" y="0" onmousedown="handlePan(1,0)"/>
  <use id="arrowdown" xlink:href="#arrowDown" x="0" y="0" onmousedown="handlePan(0,1)"/>
  <use id="arrowleft" xlink:href="#arrowLeft" x="0" y="0" onmousedown="handlePan(-1,0)"/>
</g>
<svg viewBox="0 0 15 15" width="100%" height="30px" preserveAspectRatio="xMaxYMin meet">
 <g id="arrow_out" transform="scale(0.3 0.3)">
  <a xlink:href="point2d_8h__incl_org.svg" target="_base">
   <rect id="button" ry="5" rx="5" y="6" x="6" height="38" width="38"
        fill="#f2f5e9" fill-opacity="0.5" stroke="#606060" stroke-width="1.0"/>
   <path id="arrow"
     d="M 11.500037,31.436501 C 11.940474,20.09759 22.043105,11.32322 32.158766,21.979434 L 37.068811,17.246167 C 37.068811,17.246167 37.088388,32 37.088388,32 L 22.160133,31.978069 C 22.160133,31.978069 26.997745,27.140456 26.997745,27.140456 C 18.528582,18.264221 13.291696,25.230495 11.500037,31.436501 z"
     style="fill:#404040;"/>
  </a>
 </g>
</svg>

<style type='text/css'>
<![CDATA[
[data-mouse-over-selected='false'] { opacity: 0.7; }
[data-mouse-over-selected='true']  { opacity: 1.0; }
]]>
</style>
<script type="application/ecmascript"><![CDATA[
document.addEventListener('DOMContentLoaded', (event) => {
  highlightEdges();
  highlightAdjacentNodes();
});
]]></script>
</svg>
