<?xml version="1.0" encoding="UTF-8" standalone="no"?>
<!DOCTYPE svg PUBLIC "-//W3C//DTD SVG 1.1//EN"
 "http://www.w3.org/Graphics/SVG/1.1/DTD/svg11.dtd">
<!-- Generated by graphviz version 10.0.1 (0)
 -->
<!-- Title: scale.h Pages: 1 -->
<svg width="1375pt" height="570pt"
 viewBox="0.00 0.00 1375.08 569.50" xmlns="http://www.w3.org/2000/svg" xmlns:xlink="http://www.w3.org/1999/xlink">
<g id="graph0" class="graph" transform="scale(1 1) rotate(0) translate(4 565.5)">
<title>scale.h</title>
<!-- Node1 -->
<g id="Node000001" class="node">
<title>Node1</title>
<g id="a_Node000001"><a xlink:title="A scaling factor between two different units of measurement.">
<polygon fill="#999999" stroke="#666666" points="417.95,-561.5 368.2,-561.5 368.2,-542.25 417.95,-542.25 417.95,-561.5"/>
<text text-anchor="middle" x="393.08" y="-547.05" font-family="Helvetica,sans-Serif" font-size="11.00">scale.h</text>
</a>
</g>
</g>
<!-- Node2 -->
<g id="Node000002" class="node">
<title>Node2</title>
<g id="a_Node000002"><a xlink:href="math_8h_source.html" target="_top" xlink:title=" ">
<polygon fill="white" stroke="#666666" points="282.58,-323.62 173.58,-323.62 173.58,-304.38 282.58,-304.38 282.58,-323.62"/>
<text text-anchor="middle" x="228.08" y="-309.18" font-family="Helvetica,sans-Serif" font-size="11.00">floppy/detail/math.h</text>
</a>
</g>
</g>
<!-- Node1&#45;&gt;Node2 -->
<g id="edge1_Node000001_Node000002" class="edge">
<title>Node1&#45;&gt;Node2</title>
<g id="a_edge1_Node000001_Node000002"><a xlink:title=" ">
<path fill="none" stroke="#63b8ff" d="M386.07,-541.97C367.69,-518.52 316.85,-452.9 278.08,-395.75 263.95,-374.93 248.9,-350.24 239.05,-333.7"/>
<polygon fill="#63b8ff" stroke="#63b8ff" points="242.26,-332.25 234.15,-325.42 236.23,-335.81 242.26,-332.25"/>
</a>
</g>
</g>
<!-- Node25 -->
<g id="Node000025" class="node">
<title>Node25</title>
<g id="a_Node000025"><a xlink:href="traits_8h_source.html" target="_top" xlink:title=" ">
<polygon fill="white" stroke="#666666" points="735.95,-506.25 656.2,-506.25 656.2,-487 735.95,-487 735.95,-506.25"/>
<text text-anchor="middle" x="696.08" y="-491.8" font-family="Helvetica,sans-Serif" font-size="11.00">floppy/traits.h</text>
</a>
</g>
</g>
<!-- Node1&#45;&gt;Node25 -->
<g id="edge29_Node000001_Node000025" class="edge">
<title>Node1&#45;&gt;Node25</title>
<g id="a_edge29_Node000001_Node000025"><a xlink:title=" ">
<path fill="none" stroke="#63b8ff" d="M418.39,-546.43C467.97,-537.71 578.75,-518.25 644.41,-506.7"/>
<polygon fill="#63b8ff" stroke="#63b8ff" points="645,-510.16 654.24,-504.98 643.79,-503.26 645,-510.16"/>
</a>
</g>
</g>
<!-- Node40 -->
<g id="Node000040" class="node">
<title>Node40</title>
<g id="a_Node000040"><a xlink:href="nt__traits_8h.html" target="_top" xlink:title=" ">
<polygon fill="white" stroke="#666666" points="444.95,-395.75 341.2,-395.75 341.2,-365.25 444.95,-365.25 444.95,-395.75"/>
<text text-anchor="start" x="349.2" y="-381.3" font-family="Helvetica,sans-Serif" font-size="11.00">floppy/euclid/detail</text>
<text text-anchor="middle" x="393.08" y="-370.05" font-family="Helvetica,sans-Serif" font-size="11.00">/nt_traits.h</text>
</a>
</g>
</g>
<!-- Node1&#45;&gt;Node40 -->
<g id="edge72_Node000001_Node000040" class="edge">
<title>Node1&#45;&gt;Node40</title>
<g id="a_edge72_Node000001_Node000040"><a xlink:title=" ">
<path fill="none" stroke="#63b8ff" d="M393.08,-541.77C393.08,-516.72 393.08,-446.09 393.08,-407.49"/>
<polygon fill="#63b8ff" stroke="#63b8ff" points="396.58,-407.69 393.08,-397.69 389.58,-407.69 396.58,-407.69"/>
</a>
</g>
</g>
<!-- Node3 -->
<g id="Node000003" class="node">
<title>Node3</title>
<g id="a_Node000003"><a xlink:title=" ">
<polygon fill="#e0e0e0" stroke="#999999" points="142.7,-262.75 97.45,-262.75 97.45,-243.5 142.7,-243.5 142.7,-262.75"/>
<text text-anchor="middle" x="120.08" y="-248.3" font-family="Helvetica,sans-Serif" font-size="11.00">cmath</text>
</a>
</g>
</g>
<!-- Node2&#45;&gt;Node3 -->
<g id="edge2_Node000002_Node000003" class="edge">
<title>Node2&#45;&gt;Node3</title>
<g id="a_edge2_Node000002_Node000003"><a xlink:title=" ">
<path fill="none" stroke="#63b8ff" d="M211.67,-304.06C194.39,-294.63 166.9,-279.65 146.54,-268.55"/>
<polygon fill="#63b8ff" stroke="#63b8ff" points="148.42,-265.59 137.96,-263.88 145.07,-271.73 148.42,-265.59"/>
</a>
</g>
</g>
<!-- Node4 -->
<g id="Node000004" class="node">
<title>Node4</title>
<g id="a_Node000004"><a xlink:title=" ">
<polygon fill="#e0e0e0" stroke="#999999" points="538.08,-201.88 498.08,-201.88 498.08,-182.62 538.08,-182.62 538.08,-201.88"/>
<text text-anchor="middle" x="518.08" y="-187.43" font-family="Helvetica,sans-Serif" font-size="11.00">limits</text>
</a>
</g>
</g>
<!-- Node2&#45;&gt;Node4 -->
<g id="edge3_Node000002_Node000004" class="edge">
<title>Node2&#45;&gt;Node4</title>
<g id="a_edge3_Node000002_Node000004"><a xlink:title=" ">
<path fill="none" stroke="#63b8ff" d="M216.54,-303.9C200.06,-289.83 173.54,-262.47 190.08,-243.5 228.54,-199.36 393.4,-217.6 451.08,-207.5 462.73,-205.46 475.44,-202.85 486.62,-200.43"/>
<polygon fill="#63b8ff" stroke="#63b8ff" points="487.14,-203.9 496.15,-198.33 485.63,-197.07 487.14,-203.9"/>
</a>
</g>
</g>
<!-- Node5 -->
<g id="Node000005" class="node">
<title>Node5</title>
<g id="a_Node000005"><a xlink:title=" ">
<polygon fill="#e0e0e0" stroke="#999999" points="79.08,-262.75 21.08,-262.75 21.08,-243.5 79.08,-243.5 79.08,-262.75"/>
<text text-anchor="middle" x="50.08" y="-248.3" font-family="Helvetica,sans-Serif" font-size="11.00">numbers</text>
</a>
</g>
</g>
<!-- Node2&#45;&gt;Node5 -->
<g id="edge4_Node000002_Node000005" class="edge">
<title>Node2&#45;&gt;Node5</title>
<g id="a_edge4_Node000002_Node000005"><a xlink:title=" ">
<path fill="none" stroke="#63b8ff" d="M200.65,-303.93C170.6,-293.99 122.18,-277.97 88.38,-266.79"/>
<polygon fill="#63b8ff" stroke="#63b8ff" points="89.56,-263.5 78.97,-263.68 87.36,-270.14 89.56,-263.5"/>
</a>
</g>
</g>
<!-- Node6 -->
<g id="Node000006" class="node">
<title>Node6</title>
<g id="a_Node000006"><a xlink:title=" ">
<polygon fill="#e0e0e0" stroke="#999999" points="257.08,-262.75 199.08,-262.75 199.08,-243.5 257.08,-243.5 257.08,-262.75"/>
<text text-anchor="middle" x="228.08" y="-248.3" font-family="Helvetica,sans-Serif" font-size="11.00">compare</text>
</a>
</g>
</g>
<!-- Node2&#45;&gt;Node6 -->
<g id="edge5_Node000002_Node000006" class="edge">
<title>Node2&#45;&gt;Node6</title>
<g id="a_edge5_Node000002_Node000006"><a xlink:title=" ">
<path fill="none" stroke="#63b8ff" d="M228.08,-304.06C228.08,-296.28 228.08,-284.7 228.08,-274.66"/>
<polygon fill="#63b8ff" stroke="#63b8ff" points="231.58,-274.66 228.08,-264.66 224.58,-274.66 231.58,-274.66"/>
</a>
</g>
</g>
<!-- Node7 -->
<g id="Node000007" class="node">
<title>Node7</title>
<g id="a_Node000007"><a xlink:href="export_8h_source.html" target="_top" xlink:title=" ">
<polygon fill="white" stroke="#666666" points="671.58,-201.88 556.58,-201.88 556.58,-182.62 671.58,-182.62 671.58,-201.88"/>
<text text-anchor="middle" x="614.08" y="-187.43" font-family="Helvetica,sans-Serif" font-size="11.00">floppy/detail/export.h</text>
</a>
</g>
</g>
<!-- Node2&#45;&gt;Node7 -->
<g id="edge6_Node000002_Node000007" class="edge">
<title>Node2&#45;&gt;Node7</title>
<g id="a_edge6_Node000002_Node000007"><a xlink:title=" ">
<path fill="none" stroke="#63b8ff" d="M282.92,-307.27C357.38,-298.9 486.13,-282.21 529.08,-262.75 556.62,-250.27 582.66,-226.57 598.49,-210.35"/>
<polygon fill="#63b8ff" stroke="#63b8ff" points="600.81,-212.99 605.14,-203.32 595.72,-208.18 600.81,-212.99"/>
</a>
</g>
</g>
<!-- Node16 -->
<g id="Node000016" class="node">
<title>Node16</title>
<g id="a_Node000016"><a xlink:href="concepts_8h_source.html" target="_top" xlink:title=" ">
<polygon fill="white" stroke="#666666" points="960.95,-262.75 833.2,-262.75 833.2,-243.5 960.95,-243.5 960.95,-262.75"/>
<text text-anchor="middle" x="897.08" y="-248.3" font-family="Helvetica,sans-Serif" font-size="11.00">floppy/detail/concepts.h</text>
</a>
</g>
</g>
<!-- Node2&#45;&gt;Node16 -->
<g id="edge18_Node000002_Node000016" class="edge">
<title>Node2&#45;&gt;Node16</title>
<g id="a_edge18_Node000002_Node000016"><a xlink:title=" ">
<path fill="none" stroke="#63b8ff" d="M282.94,-307.77C312.34,-305.01 349.17,-301.61 382.08,-298.75 575.22,-281.97 626.63,-282.48 821.51,-263.08"/>
<polygon fill="#63b8ff" stroke="#63b8ff" points="821.61,-266.59 831.21,-262.11 820.91,-259.62 821.61,-266.59"/>
</a>
</g>
</g>
<!-- Node8 -->
<g id="Node000008" class="node">
<title>Node8</title>
<g id="a_Node000008"><a xlink:title=" ">
<polygon fill="#e0e0e0" stroke="#999999" points="647.2,-74.5 604.95,-74.5 604.95,-55.25 647.2,-55.25 647.2,-74.5"/>
<text text-anchor="middle" x="626.08" y="-60.05" font-family="Helvetica,sans-Serif" font-size="11.00">string</text>
</a>
</g>
</g>
<!-- Node7&#45;&gt;Node8 -->
<g id="edge7_Node000007_Node000008" class="edge">
<title>Node7&#45;&gt;Node8</title>
<g id="a_edge7_Node000007_Node000008"><a xlink:title=" ">
<path fill="none" stroke="#63b8ff" d="M614.94,-182.23C616.85,-162.26 621.48,-113.89 624.13,-86.21"/>
<polygon fill="#63b8ff" stroke="#63b8ff" points="627.61,-86.6 625.08,-76.32 620.64,-85.94 627.61,-86.6"/>
</a>
</g>
</g>
<!-- Node9 -->
<g id="Node000009" class="node">
<title>Node9</title>
<g id="a_Node000009"><a xlink:title=" ">
<polygon fill="#e0e0e0" stroke="#999999" points="355.08,-74.5 285.08,-74.5 285.08,-55.25 355.08,-55.25 355.08,-74.5"/>
<text text-anchor="middle" x="320.08" y="-60.05" font-family="Helvetica,sans-Serif" font-size="11.00">string_view</text>
</a>
</g>
</g>
<!-- Node7&#45;&gt;Node9 -->
<g id="edge8_Node000007_Node000009" class="edge">
<title>Node7&#45;&gt;Node9</title>
<g id="a_edge8_Node000007_Node000009"><a xlink:title=" ">
<path fill="none" stroke="#63b8ff" d="M590.07,-182.13C564.43,-172.3 522.68,-156.04 487.08,-141 438.66,-120.55 383.14,-95.18 349.87,-79.78"/>
<polygon fill="#63b8ff" stroke="#63b8ff" points="351.41,-76.63 340.86,-75.59 348.46,-82.98 351.41,-76.63"/>
</a>
</g>
</g>
<!-- Node10 -->
<g id="Node000010" class="node">
<title>Node10</title>
<g id="a_Node000010"><a xlink:title=" ">
<polygon fill="#e0e0e0" stroke="#999999" points="395.7,-135.38 338.45,-135.38 338.45,-116.12 395.7,-116.12 395.7,-135.38"/>
<text text-anchor="middle" x="367.08" y="-120.92" font-family="Helvetica,sans-Serif" font-size="11.00">iostream</text>
</a>
</g>
</g>
<!-- Node7&#45;&gt;Node10 -->
<g id="edge9_Node000007_Node000010" class="edge">
<title>Node7&#45;&gt;Node10</title>
<g id="a_edge9_Node000007_Node000010"><a xlink:title=" ">
<path fill="none" stroke="#63b8ff" d="M579.21,-182.15C533.88,-170.31 454.87,-149.68 407.13,-137.21"/>
<polygon fill="#63b8ff" stroke="#63b8ff" points="408.02,-133.82 397.46,-134.68 406.25,-140.6 408.02,-133.82"/>
</a>
</g>
</g>
<!-- Node11 -->
<g id="Node000011" class="node">
<title>Node11</title>
<g id="a_Node000011"><a xlink:title=" ">
<polygon fill="#e0e0e0" stroke="#999999" points="730.95,-19.25 657.2,-19.25 657.2,0 730.95,0 730.95,-19.25"/>
<text text-anchor="middle" x="694.08" y="-4.8" font-family="Helvetica,sans-Serif" font-size="11.00">fmt/format.h</text>
</a>
</g>
</g>
<!-- Node7&#45;&gt;Node11 -->
<g id="edge10_Node000007_Node000011" class="edge">
<title>Node7&#45;&gt;Node11</title>
<g id="a_edge10_Node000007_Node000011"><a xlink:title=" ">
<path fill="none" stroke="#63b8ff" d="M617.93,-182.54C630.15,-154.95 668.21,-69.04 685.44,-30.13"/>
<polygon fill="#63b8ff" stroke="#63b8ff" points="688.61,-31.62 689.45,-21.06 682.21,-28.78 688.61,-31.62"/>
</a>
</g>
</g>
<!-- Node12 -->
<g id="Node000012" class="node">
<title>Node12</title>
<g id="a_Node000012"><a xlink:href="string__utils_8h_source.html" target="_top" xlink:title=" ">
<polygon fill="white" stroke="#666666" points="598.2,-141 495.95,-141 495.95,-110.5 598.2,-110.5 598.2,-141"/>
<text text-anchor="start" x="503.95" y="-126.55" font-family="Helvetica,sans-Serif" font-size="11.00">floppy/detail/string</text>
<text text-anchor="middle" x="547.08" y="-115.3" font-family="Helvetica,sans-Serif" font-size="11.00">_utils.h</text>
</a>
</g>
</g>
<!-- Node7&#45;&gt;Node12 -->
<g id="edge11_Node000007_Node000012" class="edge">
<title>Node7&#45;&gt;Node12</title>
<g id="a_edge11_Node000007_Node000012"><a xlink:title=" ">
<path fill="none" stroke="#63b8ff" d="M604.76,-182.28C595.91,-173.76 582.23,-160.59 570.41,-149.21"/>
<polygon fill="#63b8ff" stroke="#63b8ff" points="572.95,-146.8 563.32,-142.39 568.1,-151.85 572.95,-146.8"/>
</a>
</g>
</g>
<!-- Node12&#45;&gt;Node8 -->
<g id="edge12_Node000012_Node000008" class="edge">
<title>Node12&#45;&gt;Node8</title>
<g id="a_edge12_Node000012_Node000008"><a xlink:title=" ">
<path fill="none" stroke="#63b8ff" d="M566.6,-110.2C578.17,-101.58 592.84,-90.65 604.71,-81.8"/>
<polygon fill="#63b8ff" stroke="#63b8ff" points="606.76,-84.64 612.68,-75.86 602.57,-79.02 606.76,-84.64"/>
</a>
</g>
</g>
<!-- Node12&#45;&gt;Node9 -->
<g id="edge13_Node000012_Node000009" class="edge">
<title>Node12&#45;&gt;Node9</title>
<g id="a_edge13_Node000012_Node000009"><a xlink:title=" ">
<path fill="none" stroke="#63b8ff" d="M495.57,-111.39C456.68,-101.31 403.8,-87.59 366.28,-77.86"/>
<polygon fill="#63b8ff" stroke="#63b8ff" points="367.18,-74.48 356.62,-75.35 365.42,-81.25 367.18,-74.48"/>
</a>
</g>
</g>
<!-- Node13 -->
<g id="Node000013" class="node">
<title>Node13</title>
<g id="a_Node000013"><a xlink:title=" ">
<polygon fill="#e0e0e0" stroke="#999999" points="587.2,-74.5 526.95,-74.5 526.95,-55.25 587.2,-55.25 587.2,-74.5"/>
<text text-anchor="middle" x="557.08" y="-60.05" font-family="Helvetica,sans-Serif" font-size="11.00">algorithm</text>
</a>
</g>
</g>
<!-- Node12&#45;&gt;Node13 -->
<g id="edge14_Node000012_Node000013" class="edge">
<title>Node12&#45;&gt;Node13</title>
<g id="a_edge14_Node000012_Node000013"><a xlink:title=" ">
<path fill="none" stroke="#63b8ff" d="M549.55,-110.2C550.78,-102.96 552.28,-94.09 553.63,-86.19"/>
<polygon fill="#63b8ff" stroke="#63b8ff" points="557.06,-86.89 555.28,-76.44 550.16,-85.72 557.06,-86.89"/>
</a>
</g>
</g>
<!-- Node14 -->
<g id="Node000014" class="node">
<title>Node14</title>
<g id="a_Node000014"><a xlink:href="exceptions_8h_source.html" target="_top" xlink:title=" ">
<polygon fill="white" stroke="#666666" points="509.08,-74.5 373.08,-74.5 373.08,-55.25 509.08,-55.25 509.08,-74.5"/>
<text text-anchor="middle" x="441.08" y="-60.05" font-family="Helvetica,sans-Serif" font-size="11.00">floppy/detail/exceptions.h</text>
</a>
</g>
</g>
<!-- Node12&#45;&gt;Node14 -->
<g id="edge15_Node000012_Node000014" class="edge">
<title>Node12&#45;&gt;Node14</title>
<g id="a_edge15_Node000012_Node000014"><a xlink:title=" ">
<path fill="none" stroke="#63b8ff" d="M520.6,-110.05C504.3,-100.99 483.5,-89.44 467.25,-80.41"/>
<polygon fill="#63b8ff" stroke="#63b8ff" points="469.1,-77.43 458.66,-75.64 465.7,-83.55 469.1,-77.43"/>
</a>
</g>
</g>
<!-- Node14&#45;&gt;Node11 -->
<g id="edge17_Node000014_Node000011" class="edge">
<title>Node14&#45;&gt;Node11</title>
<g id="a_edge17_Node000014_Node000011"><a xlink:title=" ">
<path fill="none" stroke="#63b8ff" d="M484.28,-54.78C529.13,-45.34 599.13,-30.61 645.78,-20.79"/>
<polygon fill="#63b8ff" stroke="#63b8ff" points="646.27,-24.26 655.34,-18.78 644.83,-17.41 646.27,-24.26"/>
</a>
</g>
</g>
<!-- Node15 -->
<g id="Node000015" class="node">
<title>Node15</title>
<g id="a_Node000015"><a xlink:title=" ">
<polygon fill="#e0e0e0" stroke="#999999" points="360.95,-19.25 299.2,-19.25 299.2,0 360.95,0 360.95,-19.25"/>
<text text-anchor="middle" x="330.08" y="-4.8" font-family="Helvetica,sans-Serif" font-size="11.00">stdexcept</text>
</a>
</g>
</g>
<!-- Node14&#45;&gt;Node15 -->
<g id="edge16_Node000014_Node000015" class="edge">
<title>Node14&#45;&gt;Node15</title>
<g id="a_edge16_Node000014_Node000015"><a xlink:title=" ">
<path fill="none" stroke="#63b8ff" d="M422.25,-54.84C405.02,-46.58 379.28,-34.23 359.37,-24.68"/>
<polygon fill="#63b8ff" stroke="#63b8ff" points="360.89,-21.53 350.36,-20.36 357.87,-27.84 360.89,-21.53"/>
</a>
</g>
</g>
<!-- Node17 -->
<g id="Node000017" class="node">
<title>Node17</title>
<g id="a_Node000017"><a xlink:title=" ">
<polygon fill="#e0e0e0" stroke="#999999" points="911.45,-201.88 852.7,-201.88 852.7,-182.62 911.45,-182.62 911.45,-201.88"/>
<text text-anchor="middle" x="882.08" y="-187.43" font-family="Helvetica,sans-Serif" font-size="11.00">concepts</text>
</a>
</g>
</g>
<!-- Node16&#45;&gt;Node17 -->
<g id="edge19_Node000016_Node000017" class="edge">
<title>Node16&#45;&gt;Node17</title>
<g id="a_edge19_Node000016_Node000017"><a xlink:title=" ">
<path fill="none" stroke="#63b8ff" d="M894.8,-243.18C892.77,-235.23 889.74,-223.31 887.14,-213.12"/>
<polygon fill="#63b8ff" stroke="#63b8ff" points="890.61,-212.57 884.75,-203.74 883.83,-214.3 890.61,-212.57"/>
</a>
</g>
</g>
<!-- Node18 -->
<g id="Node000018" class="node">
<title>Node18</title>
<g id="a_Node000018"><a xlink:href="type__traits_8h_source.html" target="_top" xlink:title=" ">
<polygon fill="white" stroke="#666666" points="1161.2,-207.5 1064.95,-207.5 1064.95,-177 1161.2,-177 1161.2,-207.5"/>
<text text-anchor="start" x="1072.95" y="-193.05" font-family="Helvetica,sans-Serif" font-size="11.00">floppy/detail/type</text>
<text text-anchor="middle" x="1113.08" y="-181.8" font-family="Helvetica,sans-Serif" font-size="11.00">_traits.h</text>
</a>
</g>
</g>
<!-- Node16&#45;&gt;Node18 -->
<g id="edge20_Node000016_Node000018" class="edge">
<title>Node16&#45;&gt;Node18</title>
<g id="a_edge20_Node000016_Node000018"><a xlink:title=" ">
<path fill="none" stroke="#63b8ff" d="M930.35,-243.05C963.13,-234.12 1013.91,-220.28 1053.63,-209.45"/>
<polygon fill="#63b8ff" stroke="#63b8ff" points="1054.33,-212.89 1063.06,-206.88 1052.49,-206.14 1054.33,-212.89"/>
</a>
</g>
</g>
<!-- Node20 -->
<g id="Node000020" class="node">
<title>Node20</title>
<g id="a_Node000020"><a xlink:href="types_8h_source.html" target="_top" xlink:title=" ">
<polygon fill="white" stroke="#666666" points="1040.33,-201.88 929.83,-201.88 929.83,-182.62 1040.33,-182.62 1040.33,-201.88"/>
<text text-anchor="middle" x="985.08" y="-187.43" font-family="Helvetica,sans-Serif" font-size="11.00">floppy/detail/types.h</text>
</a>
</g>
</g>
<!-- Node16&#45;&gt;Node20 -->
<g id="edge22_Node000016_Node000020" class="edge">
<title>Node16&#45;&gt;Node20</title>
<g id="a_edge22_Node000016_Node000020"><a xlink:title=" ">
<path fill="none" stroke="#63b8ff" d="M910.44,-243.18C924.14,-234.02 945.7,-219.59 962.13,-208.6"/>
<polygon fill="#63b8ff" stroke="#63b8ff" points="963.96,-211.59 970.33,-203.12 960.07,-205.77 963.96,-211.59"/>
</a>
</g>
</g>
<!-- Node19 -->
<g id="Node000019" class="node">
<title>Node19</title>
<g id="a_Node000019"><a xlink:title=" ">
<polygon fill="#e0e0e0" stroke="#999999" points="1198.83,-135.38 1133.33,-135.38 1133.33,-116.12 1198.83,-116.12 1198.83,-135.38"/>
<text text-anchor="middle" x="1166.08" y="-120.92" font-family="Helvetica,sans-Serif" font-size="11.00">type_traits</text>
</a>
</g>
</g>
<!-- Node18&#45;&gt;Node19 -->
<g id="edge21_Node000018_Node000019" class="edge">
<title>Node18&#45;&gt;Node19</title>
<g id="a_edge21_Node000018_Node000019"><a xlink:title=" ">
<path fill="none" stroke="#63b8ff" d="M1125.1,-176.61C1132.97,-167.04 1143.3,-154.47 1151.61,-144.35"/>
<polygon fill="#63b8ff" stroke="#63b8ff" points="1154.22,-146.69 1157.87,-136.74 1148.81,-142.25 1154.22,-146.69"/>
</a>
</g>
</g>
<!-- Node20&#45;&gt;Node11 -->
<g id="edge27_Node000020_Node000011" class="edge">
<title>Node20&#45;&gt;Node11</title>
<g id="a_edge27_Node000020_Node000011"><a xlink:title=" ">
<path fill="none" stroke="#63b8ff" d="M962.77,-182.15C940.72,-172.84 906.27,-157.43 878.08,-141 815.27,-104.39 746.78,-52.31 713.89,-26.45"/>
<polygon fill="#63b8ff" stroke="#63b8ff" points="716.43,-24 706.41,-20.54 712.09,-29.49 716.43,-24"/>
</a>
</g>
</g>
<!-- Node20&#45;&gt;Node19 -->
<g id="edge26_Node000020_Node000019" class="edge">
<title>Node20&#45;&gt;Node19</title>
<g id="a_edge26_Node000020_Node000019"><a xlink:title=" ">
<path fill="none" stroke="#63b8ff" d="M1010.63,-182.15C1041.75,-171.05 1094.55,-152.24 1129.86,-139.66"/>
<polygon fill="#63b8ff" stroke="#63b8ff" points="1130.99,-142.97 1139.23,-136.32 1128.64,-136.38 1130.99,-142.97"/>
</a>
</g>
</g>
<!-- Node21 -->
<g id="Node000021" class="node">
<title>Node21</title>
<g id="a_Node000021"><a xlink:title=" ">
<polygon fill="#e0e0e0" stroke="#999999" points="937.33,-135.38 886.83,-135.38 886.83,-116.12 937.33,-116.12 937.33,-135.38"/>
<text text-anchor="middle" x="912.08" y="-120.92" font-family="Helvetica,sans-Serif" font-size="11.00">cstddef</text>
</a>
</g>
</g>
<!-- Node20&#45;&gt;Node21 -->
<g id="edge23_Node000020_Node000021" class="edge">
<title>Node20&#45;&gt;Node21</title>
<g id="a_edge23_Node000020_Node000021"><a xlink:title=" ">
<path fill="none" stroke="#63b8ff" d="M974.93,-182.28C963.49,-172.17 944.65,-155.53 930.58,-143.1"/>
<polygon fill="#63b8ff" stroke="#63b8ff" points="933.09,-140.64 923.27,-136.64 928.45,-145.89 933.09,-140.64"/>
</a>
</g>
</g>
<!-- Node22 -->
<g id="Node000022" class="node">
<title>Node22</title>
<g id="a_Node000022"><a xlink:title=" ">
<polygon fill="#e0e0e0" stroke="#999999" points="791.45,-135.38 744.7,-135.38 744.7,-116.12 791.45,-116.12 791.45,-135.38"/>
<text text-anchor="middle" x="768.08" y="-120.92" font-family="Helvetica,sans-Serif" font-size="11.00">cstdint</text>
</a>
</g>
</g>
<!-- Node20&#45;&gt;Node22 -->
<g id="edge24_Node000020_Node000022" class="edge">
<title>Node20&#45;&gt;Node22</title>
<g id="a_edge24_Node000020_Node000022"><a xlink:title=" ">
<path fill="none" stroke="#63b8ff" d="M954.45,-182.15C914.51,-170.27 844.82,-149.56 802.91,-137.1"/>
<polygon fill="#63b8ff" stroke="#63b8ff" points="803.91,-133.75 793.32,-134.25 801.91,-140.46 803.91,-133.75"/>
</a>
</g>
</g>
<!-- Node23 -->
<g id="Node000023" class="node">
<title>Node23</title>
<g id="a_Node000023"><a xlink:title=" ">
<polygon fill="#e0e0e0" stroke="#999999" points="1008.83,-135.38 955.33,-135.38 955.33,-116.12 1008.83,-116.12 1008.83,-135.38"/>
<text text-anchor="middle" x="982.08" y="-120.92" font-family="Helvetica,sans-Serif" font-size="11.00">optional</text>
</a>
</g>
</g>
<!-- Node20&#45;&gt;Node23 -->
<g id="edge25_Node000020_Node000023" class="edge">
<title>Node20&#45;&gt;Node23</title>
<g id="a_edge25_Node000020_Node000023"><a xlink:title=" ">
<path fill="none" stroke="#63b8ff" d="M984.66,-182.28C984.24,-173.23 983.57,-158.95 983.02,-147.13"/>
<polygon fill="#63b8ff" stroke="#63b8ff" points="986.52,-146.98 982.56,-137.15 979.53,-147.31 986.52,-146.98"/>
</a>
</g>
</g>
<!-- Node24 -->
<g id="Node000024" class="node">
<title>Node24</title>
<g id="a_Node000024"><a xlink:title=" ">
<polygon fill="#e0e0e0" stroke="#999999" points="1115.45,-135.38 1026.7,-135.38 1026.7,-116.12 1115.45,-116.12 1115.45,-135.38"/>
<text text-anchor="middle" x="1071.08" y="-120.92" font-family="Helvetica,sans-Serif" font-size="11.00">tl/expected.hpp</text>
</a>
</g>
</g>
<!-- Node20&#45;&gt;Node24 -->
<g id="edge28_Node000020_Node000024" class="edge">
<title>Node20&#45;&gt;Node24</title>
<g id="a_edge28_Node000020_Node000024"><a xlink:title=" ">
<path fill="none" stroke="#63b8ff" d="M997.03,-182.28C1010.69,-172.04 1033.3,-155.09 1049.94,-142.6"/>
<polygon fill="#63b8ff" stroke="#63b8ff" points="1051.83,-145.56 1057.73,-136.76 1047.63,-139.96 1051.83,-145.56"/>
</a>
</g>
</g>
<!-- Node25&#45;&gt;Node10 -->
<g id="edge30_Node000025_Node000010" class="edge">
<title>Node25&#45;&gt;Node10</title>
<g id="a_edge30_Node000025_Node000010"><a xlink:title=" ">
<path fill="none" stroke="#63b8ff" d="M655.94,-488.7C520.27,-464.35 83.22,-377.86 12.08,-262.75 -60.08,-146 219.24,-129.18 326.63,-126.99"/>
<polygon fill="#63b8ff" stroke="#63b8ff" points="326.5,-130.49 336.44,-126.82 326.39,-123.49 326.5,-130.49"/>
</a>
</g>
</g>
<!-- Node25&#45;&gt;Node19 -->
<g id="edge31_Node000025_Node000019" class="edge">
<title>Node25&#45;&gt;Node19</title>
<g id="a_edge31_Node000025_Node000019"><a xlink:title=" ">
<path fill="none" stroke="#63b8ff" d="M736.29,-493.07C881.05,-483.33 1367.08,-445.86 1367.08,-381.5 1367.08,-381.5 1367.08,-381.5 1367.08,-252.12 1367.08,-178.71 1269.36,-146.72 1210.19,-134.08"/>
<polygon fill="#63b8ff" stroke="#63b8ff" points="1211.25,-130.72 1200.75,-132.17 1209.86,-137.58 1211.25,-130.72"/>
</a>
</g>
</g>
<!-- Node26 -->
<g id="Node000026" class="node">
<title>Node26</title>
<g id="a_Node000026"><a xlink:href="floppy_8h_source.html" target="_top" xlink:title=" ">
<polygon fill="white" stroke="#666666" points="947.58,-451 862.58,-451 862.58,-431.75 947.58,-431.75 947.58,-451"/>
<text text-anchor="middle" x="905.08" y="-436.55" font-family="Helvetica,sans-Serif" font-size="11.00">floppy/floppy.h</text>
</a>
</g>
</g>
<!-- Node25&#45;&gt;Node26 -->
<g id="edge32_Node000025_Node000026" class="edge">
<title>Node25&#45;&gt;Node26</title>
<g id="a_edge32_Node000025_Node000026"><a xlink:title=" ">
<path fill="none" stroke="#63b8ff" d="M731.53,-486.59C766.51,-477.68 820.17,-464.01 858.56,-454.23"/>
<polygon fill="#63b8ff" stroke="#63b8ff" points="859.16,-457.69 867.98,-451.83 857.43,-450.9 859.16,-457.69"/>
</a>
</g>
</g>
<!-- Node26&#45;&gt;Node2 -->
<g id="edge59_Node000026_Node000002" class="edge">
<title>Node26&#45;&gt;Node2</title>
<g id="a_edge59_Node000026_Node000002"><a xlink:title=" ">
<path fill="none" stroke="#63b8ff" d="M862.4,-440.2C746.64,-439.24 428.86,-433.18 332.08,-395.75 296.37,-381.94 262.87,-351.64 243.97,-332.34"/>
<polygon fill="#63b8ff" stroke="#63b8ff" points="246.61,-330.03 237.19,-325.2 241.54,-334.86 246.61,-330.03"/>
</a>
</g>
</g>
<!-- Node26&#45;&gt;Node7 -->
<g id="edge57_Node000026_Node000007" class="edge">
<title>Node26&#45;&gt;Node7</title>
<g id="a_edge57_Node000026_Node000007"><a xlink:title=" ">
<path fill="none" stroke="#63b8ff" d="M862.46,-431.79C808.5,-418.76 716.08,-388.93 662.08,-329.25 631.78,-295.77 620.35,-241.98 616.24,-213.1"/>
<polygon fill="#63b8ff" stroke="#63b8ff" points="619.76,-213.06 615.04,-203.57 612.81,-213.93 619.76,-213.06"/>
</a>
</g>
</g>
<!-- Node26&#45;&gt;Node16 -->
<g id="edge48_Node000026_Node000016" class="edge">
<title>Node26&#45;&gt;Node16</title>
<g id="a_edge48_Node000026_Node000016"><a xlink:title=" ">
<path fill="none" stroke="#63b8ff" d="M929.19,-431.35C944.49,-424.22 963.04,-412.63 972.08,-395.75 978.48,-383.8 973.67,-378.71 972.08,-365.25 968.5,-335.06 972.73,-324.18 956.08,-298.75 948.19,-286.7 935.89,-276.64 924.55,-269.15"/>
<polygon fill="#63b8ff" stroke="#63b8ff" points="926.62,-266.31 916.27,-264.03 922.94,-272.26 926.62,-266.31"/>
</a>
</g>
</g>
<!-- Node26&#45;&gt;Node18 -->
<g id="edge70_Node000026_Node000018" class="edge">
<title>Node26&#45;&gt;Node18</title>
<g id="a_edge70_Node000026_Node000018"><a xlink:title=" ">
<path fill="none" stroke="#63b8ff" d="M948.01,-438.05C996.99,-434.12 1078.64,-423.62 1143.08,-395.75 1189.05,-375.86 1211.4,-373.91 1234.08,-329.25 1251.33,-295.27 1255.24,-275.2 1234.08,-243.5 1226.44,-232.06 1199.01,-220.21 1172.2,-210.9"/>
<polygon fill="#63b8ff" stroke="#63b8ff" points="1173.63,-207.69 1163.03,-207.81 1171.39,-214.32 1173.63,-207.69"/>
</a>
</g>
</g>
<!-- Node26&#45;&gt;Node20 -->
<g id="edge71_Node000026_Node000020" class="edge">
<title>Node26&#45;&gt;Node20</title>
<g id="a_edge71_Node000026_Node000020"><a xlink:title=" ">
<path fill="none" stroke="#63b8ff" d="M937.66,-431.34C959.65,-424.15 988.47,-412.49 1010.08,-395.75 1068.96,-350.12 1088.14,-333.29 1112.08,-262.75 1114.83,-254.65 1116.89,-250.58 1112.08,-243.5 1102.44,-229.32 1063.14,-215.12 1030.79,-205.45"/>
<polygon fill="#63b8ff" stroke="#63b8ff" points="1032.16,-202.21 1021.58,-202.77 1030.21,-208.93 1032.16,-202.21"/>
</a>
</g>
</g>
<!-- Node27 -->
<g id="Node000027" class="node">
<title>Node27</title>
<g id="a_Node000027"><a xlink:href="backports_8h_source.html" target="_top" xlink:title=" ">
<polygon fill="white" stroke="#666666" points="822.2,-323.62 689.95,-323.62 689.95,-304.38 822.2,-304.38 822.2,-323.62"/>
<text text-anchor="middle" x="756.08" y="-309.18" font-family="Helvetica,sans-Serif" font-size="11.00">floppy/detail/backports.h</text>
</a>
</g>
</g>
<!-- Node26&#45;&gt;Node27 -->
<g id="edge33_Node000026_Node000027" class="edge">
<title>Node26&#45;&gt;Node27</title>
<g id="a_edge33_Node000026_Node000027"><a xlink:title=" ">
<path fill="none" stroke="#63b8ff" d="M890.13,-431.34C876.39,-422.79 855.7,-409.28 839.08,-395.75 814.11,-375.43 787.91,-348.95 771.78,-331.95"/>
<polygon fill="#63b8ff" stroke="#63b8ff" points="774.76,-330.01 765.36,-325.12 769.66,-334.8 774.76,-330.01"/>
</a>
</g>
</g>
<!-- Node29 -->
<g id="Node000029" class="node">
<title>Node29</title>
<g id="a_Node000029"><a xlink:href="platform_8h_source.html" target="_top" xlink:title=" ">
<polygon fill="white" stroke="#666666" points="1103.08,-262.75 979.08,-262.75 979.08,-243.5 1103.08,-243.5 1103.08,-262.75"/>
<text text-anchor="middle" x="1041.08" y="-248.3" font-family="Helvetica,sans-Serif" font-size="11.00">floppy/detail/platform.h</text>
</a>
</g>
</g>
<!-- Node26&#45;&gt;Node29 -->
<g id="edge67_Node000026_Node000029" class="edge">
<title>Node26&#45;&gt;Node29</title>
<g id="a_edge67_Node000026_Node000029"><a xlink:title=" ">
<path fill="none" stroke="#63b8ff" d="M931.9,-431.41C949.68,-424.24 972.36,-412.59 987.08,-395.75 1018.44,-359.87 1032.46,-303.86 1037.97,-274.17"/>
<polygon fill="#63b8ff" stroke="#63b8ff" points="1041.36,-275.13 1039.58,-264.69 1034.46,-273.96 1041.36,-275.13"/>
</a>
</g>
</g>
<!-- Node30 -->
<g id="Node000030" class="node">
<title>Node30</title>
<g id="a_Node000030"><a xlink:href="predefs_8h_source.html" target="_top" xlink:title=" ">
<polygon fill="white" stroke="#666666" points="1300.58,-201.88 1179.58,-201.88 1179.58,-182.62 1300.58,-182.62 1300.58,-201.88"/>
<text text-anchor="middle" x="1240.08" y="-187.43" font-family="Helvetica,sans-Serif" font-size="11.00">floppy/detail/predefs.h</text>
</a>
</g>
</g>
<!-- Node26&#45;&gt;Node30 -->
<g id="edge68_Node000026_Node000030" class="edge">
<title>Node26&#45;&gt;Node30</title>
<g id="a_edge68_Node000026_Node000030"><a xlink:title=" ">
<path fill="none" stroke="#63b8ff" d="M948.02,-436.89C1016.51,-430.79 1146.95,-416.79 1188.08,-395.75 1225.15,-376.79 1238.21,-367.75 1254.08,-329.25 1270.07,-290.43 1257.27,-240.31 1247.84,-213.06"/>
<polygon fill="#63b8ff" stroke="#63b8ff" points="1251.13,-211.85 1244.38,-203.68 1244.56,-214.28 1251.13,-211.85"/>
</a>
</g>
</g>
<!-- Node31 -->
<g id="Node000031" class="node">
<title>Node31</title>
<g id="a_Node000031"><a xlink:href="formatters_8h_source.html" target="_top" xlink:title=" ">
<polygon fill="white" stroke="#666666" points="519.95,-262.75 386.2,-262.75 386.2,-243.5 519.95,-243.5 519.95,-262.75"/>
<text text-anchor="middle" x="453.08" y="-248.3" font-family="Helvetica,sans-Serif" font-size="11.00">floppy/detail/formatters.h</text>
</a>
</g>
</g>
<!-- Node26&#45;&gt;Node31 -->
<g id="edge58_Node000026_Node000031" class="edge">
<title>Node26&#45;&gt;Node31</title>
<g id="a_edge58_Node000026_Node000031"><a xlink:title=" ">
<path fill="none" stroke="#63b8ff" d="M862.18,-437.48C791.16,-432.1 652.74,-418.94 610.08,-395.75 559.45,-368.24 568.02,-336.01 524.08,-298.75 510.63,-287.35 494.01,-276.74 480.23,-268.74"/>
<polygon fill="#63b8ff" stroke="#63b8ff" points="482.1,-265.77 471.67,-263.89 478.65,-271.86 482.1,-265.77"/>
</a>
</g>
</g>
<!-- Node34 -->
<g id="Node000034" class="node">
<title>Node34</title>
<g id="a_Node000034"><a xlink:href="corefn_8h_source.html" target="_top" xlink:title=" ">
<polygon fill="white" stroke="#666666" points="962.58,-390.12 847.58,-390.12 847.58,-370.88 962.58,-370.88 962.58,-390.12"/>
<text text-anchor="middle" x="905.08" y="-375.68" font-family="Helvetica,sans-Serif" font-size="11.00">floppy/detail/corefn.h</text>
</a>
</g>
</g>
<!-- Node26&#45;&gt;Node34 -->
<g id="edge49_Node000026_Node000034" class="edge">
<title>Node26&#45;&gt;Node34</title>
<g id="a_edge49_Node000026_Node000034"><a xlink:title=" ">
<path fill="none" stroke="#63b8ff" d="M905.08,-431.43C905.08,-423.65 905.08,-412.08 905.08,-402.03"/>
<polygon fill="#63b8ff" stroke="#63b8ff" points="908.58,-402.04 905.08,-392.04 901.58,-402.04 908.58,-402.04"/>
</a>
</g>
</g>
<!-- Node36 -->
<g id="Node000036" class="node">
<title>Node36</title>
<g id="a_Node000036"><a xlink:href="print__helpers_8h_source.html" target="_top" xlink:title=" ">
<polygon fill="white" stroke="#666666" points="1224.58,-329.25 1127.58,-329.25 1127.58,-298.75 1224.58,-298.75 1224.58,-329.25"/>
<text text-anchor="start" x="1135.58" y="-314.8" font-family="Helvetica,sans-Serif" font-size="11.00">floppy/detail/print</text>
<text text-anchor="middle" x="1176.08" y="-303.55" font-family="Helvetica,sans-Serif" font-size="11.00">_helpers.h</text>
</a>
</g>
</g>
<!-- Node26&#45;&gt;Node36 -->
<g id="edge69_Node000026_Node000036" class="edge">
<title>Node26&#45;&gt;Node36</title>
<g id="a_edge69_Node000026_Node000036"><a xlink:title=" ">
<path fill="none" stroke="#63b8ff" d="M947.7,-439.62C992.12,-437.01 1062.22,-427.62 1113.08,-395.75 1134.99,-382.02 1152.34,-357.82 1163.24,-339.49"/>
<polygon fill="#63b8ff" stroke="#63b8ff" points="1166.27,-341.23 1168.15,-330.81 1160.18,-337.79 1166.27,-341.23"/>
</a>
</g>
</g>
<!-- Node38 -->
<g id="Node000038" class="node">
<title>Node38</title>
<g id="a_Node000038"><a xlink:href="memory_8h_source.html" target="_top" xlink:title=" ">
<polygon fill="white" stroke="#666666" points="514.7,-323.62 391.45,-323.62 391.45,-304.38 514.7,-304.38 514.7,-323.62"/>
<text text-anchor="middle" x="453.08" y="-309.18" font-family="Helvetica,sans-Serif" font-size="11.00">floppy/detail/memory.h</text>
</a>
</g>
</g>
<!-- Node26&#45;&gt;Node38 -->
<g id="edge60_Node000026_Node000038" class="edge">
<title>Node26&#45;&gt;Node38</title>
<g id="a_edge60_Node000026_Node000038"><a xlink:title=" ">
<path fill="none" stroke="#63b8ff" d="M862.1,-437.99C780.26,-432.97 605.27,-419.72 550.08,-395.75 516.57,-381.2 485.56,-351.35 468.01,-332.31"/>
<polygon fill="#63b8ff" stroke="#63b8ff" points="470.81,-330.18 461.54,-325.06 465.6,-334.85 470.81,-330.18"/>
</a>
</g>
</g>
<!-- Node27&#45;&gt;Node11 -->
<g id="edge36_Node000027_Node000011" class="edge">
<title>Node27&#45;&gt;Node11</title>
<g id="a_edge36_Node000027_Node000011"><a xlink:title=" ">
<path fill="none" stroke="#63b8ff" d="M754.22,-303.95C745.72,-262.48 710.37,-90.08 698.21,-30.77"/>
<polygon fill="#63b8ff" stroke="#63b8ff" points="701.67,-30.22 696.23,-21.12 694.81,-31.62 701.67,-30.22"/>
</a>
</g>
</g>
<!-- Node27&#45;&gt;Node16 -->
<g id="edge42_Node000027_Node000016" class="edge">
<title>Node27&#45;&gt;Node16</title>
<g id="a_edge42_Node000027_Node000016"><a xlink:title=" ">
<path fill="none" stroke="#63b8ff" d="M777.8,-303.93C801.15,-294.18 838.52,-278.58 865.2,-267.43"/>
<polygon fill="#63b8ff" stroke="#63b8ff" points="866.28,-270.78 874.16,-263.69 863.59,-264.32 866.28,-270.78"/>
</a>
</g>
</g>
<!-- Node27&#45;&gt;Node22 -->
<g id="edge34_Node000027_Node000022" class="edge">
<title>Node27&#45;&gt;Node22</title>
<g id="a_edge34_Node000027_Node000022"><a xlink:title=" ">
<path fill="none" stroke="#63b8ff" d="M756.17,-304C756.35,-290.74 756.84,-265.19 758.08,-243.5 760.01,-209.73 763.65,-170.57 765.96,-147.27"/>
<polygon fill="#63b8ff" stroke="#63b8ff" points="769.45,-147.63 766.97,-137.33 762.48,-146.92 769.45,-147.63"/>
</a>
</g>
</g>
<!-- Node28 -->
<g id="Node000028" class="node">
<title>Node28</title>
<g id="a_Node000028"><a xlink:title=" ">
<polygon fill="#e0e0e0" stroke="#999999" points="815.58,-262.75 766.58,-262.75 766.58,-243.5 815.58,-243.5 815.58,-262.75"/>
<text text-anchor="middle" x="791.08" y="-248.3" font-family="Helvetica,sans-Serif" font-size="11.00">ranges</text>
</a>
</g>
</g>
<!-- Node27&#45;&gt;Node28 -->
<g id="edge35_Node000027_Node000028" class="edge">
<title>Node27&#45;&gt;Node28</title>
<g id="a_edge35_Node000027_Node000028"><a xlink:title=" ">
<path fill="none" stroke="#63b8ff" d="M761.39,-304.06C766.27,-295.85 773.67,-283.41 779.86,-273"/>
<polygon fill="#63b8ff" stroke="#63b8ff" points="782.84,-274.84 784.94,-264.45 776.82,-271.26 782.84,-274.84"/>
</a>
</g>
</g>
<!-- Node27&#45;&gt;Node29 -->
<g id="edge37_Node000027_Node000029" class="edge">
<title>Node27&#45;&gt;Node29</title>
<g id="a_edge37_Node000027_Node000029"><a xlink:title=" ">
<path fill="none" stroke="#63b8ff" d="M799.98,-303.93C849.98,-293.6 931.75,-276.71 985.99,-265.51"/>
<polygon fill="#63b8ff" stroke="#63b8ff" points="986.55,-268.96 995.64,-263.51 985.14,-262.11 986.55,-268.96"/>
</a>
</g>
</g>
<!-- Node27&#45;&gt;Node31 -->
<g id="edge43_Node000027_Node000031" class="edge">
<title>Node27&#45;&gt;Node31</title>
<g id="a_edge43_Node000027_Node000031"><a xlink:title=" ">
<path fill="none" stroke="#63b8ff" d="M709.4,-303.93C656.02,-293.56 568.58,-276.57 510.92,-265.37"/>
<polygon fill="#63b8ff" stroke="#63b8ff" points="511.78,-261.97 501.29,-263.49 510.44,-268.84 511.78,-261.97"/>
</a>
</g>
</g>
<!-- Node29&#45;&gt;Node4 -->
<g id="edge38_Node000029_Node000004" class="edge">
<title>Node29&#45;&gt;Node4</title>
<g id="a_edge38_Node000029_Node000004"><a xlink:title=" ">
<path fill="none" stroke="#63b8ff" d="M978.75,-244.43C975.82,-244.1 972.92,-243.79 970.08,-243.5 782.84,-224.15 729.78,-256.67 548.08,-207.5 547.08,-207.23 546.07,-206.93 545.06,-206.6"/>
<polygon fill="#63b8ff" stroke="#63b8ff" points="546.48,-203.39 535.89,-202.9 543.86,-209.89 546.48,-203.39"/>
</a>
</g>
</g>
<!-- Node29&#45;&gt;Node7 -->
<g id="edge39_Node000029_Node000007" class="edge">
<title>Node29&#45;&gt;Node7</title>
<g id="a_edge39_Node000029_Node000007"><a xlink:title=" ">
<path fill="none" stroke="#63b8ff" d="M978.99,-243.56C900.23,-232.71 764.84,-214.04 682.98,-202.75"/>
<polygon fill="#63b8ff" stroke="#63b8ff" points="683.67,-199.31 673.29,-201.41 682.72,-206.25 683.67,-199.31"/>
</a>
</g>
</g>
<!-- Node29&#45;&gt;Node20 -->
<g id="edge40_Node000029_Node000020" class="edge">
<title>Node29&#45;&gt;Node20</title>
<g id="a_edge40_Node000029_Node000020"><a xlink:title=" ">
<path fill="none" stroke="#63b8ff" d="M1032.57,-243.18C1024.35,-234.54 1011.67,-221.21 1001.48,-210.5"/>
<polygon fill="#63b8ff" stroke="#63b8ff" points="1004.13,-208.21 994.7,-203.37 999.06,-213.03 1004.13,-208.21"/>
</a>
</g>
</g>
<!-- Node29&#45;&gt;Node30 -->
<g id="edge41_Node000029_Node000030" class="edge">
<title>Node29&#45;&gt;Node30</title>
<g id="a_edge41_Node000029_Node000030"><a xlink:title=" ">
<path fill="none" stroke="#63b8ff" d="M1071.73,-243.05C1105.77,-232.99 1160.89,-216.68 1198.72,-205.49"/>
<polygon fill="#63b8ff" stroke="#63b8ff" points="1199.34,-208.95 1207.93,-202.76 1197.35,-202.24 1199.34,-208.95"/>
</a>
</g>
</g>
<!-- Node31&#45;&gt;Node9 -->
<g id="edge44_Node000031_Node000009" class="edge">
<title>Node31&#45;&gt;Node9</title>
<g id="a_edge44_Node000031_Node000009"><a xlink:title=" ">
<path fill="none" stroke="#63b8ff" d="M405.27,-243.01C369.56,-235.12 325.09,-222.6 314.08,-207.5 287.7,-171.32 301.84,-115.04 312.24,-85.5"/>
<polygon fill="#63b8ff" stroke="#63b8ff" points="315.43,-86.94 315.67,-76.35 308.88,-84.48 315.43,-86.94"/>
</a>
</g>
</g>
<!-- Node31&#45;&gt;Node11 -->
<g id="edge47_Node000031_Node000011" class="edge">
<title>Node31&#45;&gt;Node11</title>
<g id="a_edge47_Node000031_Node000011"><a xlink:title=" ">
<path fill="none" stroke="#63b8ff" d="M455.89,-243.16C460.1,-227.85 466.02,-196.45 451.08,-177 416.63,-132.17 375.98,-172.57 329.08,-141 291.91,-115.98 246.12,-88.57 276.08,-55.25 300.41,-28.18 540.72,-16.2 645.57,-12.23"/>
<polygon fill="#63b8ff" stroke="#63b8ff" points="645.39,-15.74 655.26,-11.87 645.14,-8.74 645.39,-15.74"/>
</a>
</g>
</g>
<!-- Node32 -->
<g id="Node000032" class="node">
<title>Node32</title>
<g id="a_Node000032"><a xlink:title=" ">
<polygon fill="#e0e0e0" stroke="#999999" points="377.2,-201.88 322.95,-201.88 322.95,-182.62 377.2,-182.62 377.2,-201.88"/>
<text text-anchor="middle" x="350.08" y="-187.43" font-family="Helvetica,sans-Serif" font-size="11.00">sstream</text>
</a>
</g>
</g>
<!-- Node31&#45;&gt;Node32 -->
<g id="edge45_Node000031_Node000032" class="edge">
<title>Node31&#45;&gt;Node32</title>
<g id="a_edge45_Node000031_Node000032"><a xlink:title=" ">
<path fill="none" stroke="#63b8ff" d="M437.43,-243.18C421.1,-233.85 395.21,-219.05 375.85,-207.98"/>
<polygon fill="#63b8ff" stroke="#63b8ff" points="377.6,-204.95 367.18,-203.03 374.13,-211.03 377.6,-204.95"/>
</a>
</g>
</g>
<!-- Node33 -->
<g id="Node000033" class="node">
<title>Node33</title>
<g id="a_Node000033"><a xlink:title=" ">
<polygon fill="#e0e0e0" stroke="#999999" points="442.45,-201.88 395.7,-201.88 395.7,-182.62 442.45,-182.62 442.45,-201.88"/>
<text text-anchor="middle" x="419.08" y="-187.43" font-family="Helvetica,sans-Serif" font-size="11.00">iosfwd</text>
</a>
</g>
</g>
<!-- Node31&#45;&gt;Node33 -->
<g id="edge46_Node000031_Node000033" class="edge">
<title>Node31&#45;&gt;Node33</title>
<g id="a_edge46_Node000031_Node000033"><a xlink:title=" ">
<path fill="none" stroke="#63b8ff" d="M447.91,-243.18C443.17,-234.97 435.99,-222.53 429.98,-212.12"/>
<polygon fill="#63b8ff" stroke="#63b8ff" points="433.08,-210.5 425.05,-203.59 427.02,-214 433.08,-210.5"/>
</a>
</g>
</g>
<!-- Node34&#45;&gt;Node7 -->
<g id="edge51_Node000034_Node000007" class="edge">
<title>Node34&#45;&gt;Node7</title>
<g id="a_edge51_Node000034_Node000007"><a xlink:title=" ">
<path fill="none" stroke="#63b8ff" d="M847.18,-372.26C789.66,-364.08 706.48,-349.25 681.08,-329.25 678.55,-327.26 640.71,-248.8 623.04,-211.97"/>
<polygon fill="#63b8ff" stroke="#63b8ff" points="626.4,-210.88 618.92,-203.38 620.09,-213.91 626.4,-210.88"/>
</a>
</g>
</g>
<!-- Node34&#45;&gt;Node16 -->
<g id="edge53_Node000034_Node000016" class="edge">
<title>Node34&#45;&gt;Node16</title>
<g id="a_edge53_Node000034_Node000016"><a xlink:title=" ">
<path fill="none" stroke="#63b8ff" d="M914.25,-370.5C923.07,-361.14 935.82,-345.6 941.08,-329.25 945.22,-316.34 946.22,-311.29 941.08,-298.75 936.48,-287.54 927.56,-277.64 918.95,-270.03"/>
<polygon fill="#63b8ff" stroke="#63b8ff" points="921.41,-267.53 911.45,-263.93 916.99,-272.96 921.41,-267.53"/>
</a>
</g>
</g>
<!-- Node34&#45;&gt;Node27 -->
<g id="edge52_Node000034_Node000027" class="edge">
<title>Node34&#45;&gt;Node27</title>
<g id="a_edge52_Node000034_Node000027"><a xlink:title=" ">
<path fill="none" stroke="#63b8ff" d="M884.04,-370.4C858.86,-359.5 816.46,-341.14 787.41,-328.57"/>
<polygon fill="#63b8ff" stroke="#63b8ff" points="788.96,-325.42 778.39,-324.66 786.18,-331.84 788.96,-325.42"/>
</a>
</g>
</g>
<!-- Node35 -->
<g id="Node000035" class="node">
<title>Node35</title>
<g id="a_Node000035"><a xlink:title=" ">
<polygon fill="#e0e0e0" stroke="#999999" points="931.83,-323.62 878.33,-323.62 878.33,-304.38 931.83,-304.38 931.83,-323.62"/>
<text text-anchor="middle" x="905.08" y="-309.18" font-family="Helvetica,sans-Serif" font-size="11.00">typeinfo</text>
</a>
</g>
</g>
<!-- Node34&#45;&gt;Node35 -->
<g id="edge50_Node000034_Node000035" class="edge">
<title>Node34&#45;&gt;Node35</title>
<g id="a_edge50_Node000034_Node000035"><a xlink:title=" ">
<path fill="none" stroke="#63b8ff" d="M905.08,-370.53C905.08,-361.48 905.08,-347.2 905.08,-335.38"/>
<polygon fill="#63b8ff" stroke="#63b8ff" points="908.58,-335.41 905.08,-325.41 901.58,-335.41 908.58,-335.41"/>
</a>
</g>
</g>
<!-- Node34&#45;&gt;Node36 -->
<g id="edge54_Node000034_Node000036" class="edge">
<title>Node34&#45;&gt;Node36</title>
<g id="a_edge54_Node000034_Node000036"><a xlink:title=" ">
<path fill="none" stroke="#63b8ff" d="M943.33,-370.4C988.42,-359.66 1063.86,-341.71 1116.6,-329.16"/>
<polygon fill="#63b8ff" stroke="#63b8ff" points="1117.1,-332.64 1126.01,-326.92 1115.48,-325.83 1117.1,-332.64"/>
</a>
</g>
</g>
<!-- Node36&#45;&gt;Node11 -->
<g id="edge55_Node000036_Node000011" class="edge">
<title>Node36&#45;&gt;Node11</title>
<g id="a_edge55_Node000036_Node000011"><a xlink:title=" ">
<path fill="none" stroke="#63b8ff" d="M1223.23,-298.36C1268.18,-281.13 1329.08,-247.73 1329.08,-193.25 1329.08,-193.25 1329.08,-193.25 1329.08,-124.75 1329.08,-65.25 891.56,-25.89 742.86,-14.24"/>
<polygon fill="#63b8ff" stroke="#63b8ff" points="743.18,-10.75 732.94,-13.47 742.64,-17.73 743.18,-10.75"/>
</a>
</g>
</g>
<!-- Node37 -->
<g id="Node000037" class="node">
<title>Node37</title>
<g id="a_Node000037"><a xlink:title=" ">
<polygon fill="#e0e0e0" stroke="#999999" points="1224.83,-262.75 1159.33,-262.75 1159.33,-243.5 1224.83,-243.5 1224.83,-262.75"/>
<text text-anchor="middle" x="1192.08" y="-248.3" font-family="Helvetica,sans-Serif" font-size="11.00">fmt/color.h</text>
</a>
</g>
</g>
<!-- Node36&#45;&gt;Node37 -->
<g id="edge56_Node000036_Node000037" class="edge">
<title>Node36&#45;&gt;Node37</title>
<g id="a_edge56_Node000036_Node000037"><a xlink:title=" ">
<path fill="none" stroke="#63b8ff" d="M1180.03,-298.45C1182.02,-291.12 1184.47,-282.12 1186.63,-274.16"/>
<polygon fill="#63b8ff" stroke="#63b8ff" points="1189.97,-275.23 1189.21,-264.66 1183.21,-273.39 1189.97,-275.23"/>
</a>
</g>
</g>
<!-- Node38&#45;&gt;Node6 -->
<g id="edge62_Node000038_Node000006" class="edge">
<title>Node38&#45;&gt;Node6</title>
<g id="a_edge62_Node000038_Node000006"><a xlink:title=" ">
<path fill="none" stroke="#63b8ff" d="M418.41,-303.93C377.99,-293.35 311.26,-275.89 268.51,-264.71"/>
<polygon fill="#63b8ff" stroke="#63b8ff" points="269.42,-261.33 258.86,-262.18 267.65,-268.1 269.42,-261.33"/>
</a>
</g>
</g>
<!-- Node38&#45;&gt;Node7 -->
<g id="edge64_Node000038_Node000007" class="edge">
<title>Node38&#45;&gt;Node7</title>
<g id="a_edge64_Node000038_Node000007"><a xlink:title=" ">
<path fill="none" stroke="#63b8ff" d="M482.58,-303.91C505.86,-295.72 538.26,-282.02 562.08,-262.75 579.61,-248.56 594.42,-227.21 603.69,-211.92"/>
<polygon fill="#63b8ff" stroke="#63b8ff" points="606.67,-213.76 608.67,-203.35 600.62,-210.24 606.67,-213.76"/>
</a>
</g>
</g>
<!-- Node38&#45;&gt;Node15 -->
<g id="edge63_Node000038_Node000015" class="edge">
<title>Node38&#45;&gt;Node15</title>
<g id="a_edge63_Node000038_Node000015"><a xlink:title=" ">
<path fill="none" stroke="#63b8ff" d="M390.99,-306.07C361.05,-299.58 326.98,-287.03 305.08,-262.75 241.99,-192.82 217.34,-138.13 262.08,-55.25 269.27,-41.92 282.39,-31.92 295.19,-24.81"/>
<polygon fill="#63b8ff" stroke="#63b8ff" points="296.58,-28.03 303.92,-20.39 293.42,-21.78 296.58,-28.03"/>
</a>
</g>
</g>
<!-- Node38&#45;&gt;Node16 -->
<g id="edge66_Node000038_Node000016" class="edge">
<title>Node38&#45;&gt;Node16</title>
<g id="a_edge66_Node000038_Node000016"><a xlink:title=" ">
<path fill="none" stroke="#63b8ff" d="M514.81,-304.81C595.08,-294.17 735.21,-275.59 821.68,-264.12"/>
<polygon fill="#63b8ff" stroke="#63b8ff" points="822.04,-267.61 831.49,-262.82 821.12,-260.67 822.04,-267.61"/>
</a>
</g>
</g>
<!-- Node38&#45;&gt;Node31 -->
<g id="edge65_Node000038_Node000031" class="edge">
<title>Node38&#45;&gt;Node31</title>
<g id="a_edge65_Node000038_Node000031"><a xlink:title=" ">
<path fill="none" stroke="#63b8ff" d="M453.08,-304.06C453.08,-296.28 453.08,-284.7 453.08,-274.66"/>
<polygon fill="#63b8ff" stroke="#63b8ff" points="456.58,-274.66 453.08,-264.66 449.58,-274.66 456.58,-274.66"/>
</a>
</g>
</g>
<!-- Node39 -->
<g id="Node000039" class="node">
<title>Node39</title>
<g id="a_Node000039"><a xlink:title=" ">
<polygon fill="#e0e0e0" stroke="#999999" points="368.58,-262.75 313.58,-262.75 313.58,-243.5 368.58,-243.5 368.58,-262.75"/>
<text text-anchor="middle" x="341.08" y="-248.3" font-family="Helvetica,sans-Serif" font-size="11.00">memory</text>
</a>
</g>
</g>
<!-- Node38&#45;&gt;Node39 -->
<g id="edge61_Node000038_Node000039" class="edge">
<title>Node38&#45;&gt;Node39</title>
<g id="a_edge61_Node000038_Node000039"><a xlink:title=" ">
<path fill="none" stroke="#63b8ff" d="M436.07,-304.06C418.06,-294.59 389.37,-279.51 368.23,-268.4"/>
<polygon fill="#63b8ff" stroke="#63b8ff" points="370.07,-265.41 359.59,-263.86 366.81,-271.61 370.07,-265.41"/>
</a>
</g>
</g>
<!-- Node40&#45;&gt;Node2 -->
<g id="edge73_Node000040_Node000002" class="edge">
<title>Node40&#45;&gt;Node2</title>
<g id="a_edge73_Node000040_Node000002"><a xlink:title=" ">
<path fill="none" stroke="#63b8ff" d="M355.64,-364.86C327.39,-353.82 288.98,-338.81 261.71,-328.15"/>
<polygon fill="#63b8ff" stroke="#63b8ff" points="263.12,-324.94 252.53,-324.56 260.57,-331.46 263.12,-324.94"/>
</a>
</g>
</g>
<!-- Node40&#45;&gt;Node16 -->
<g id="edge74_Node000040_Node000016" class="edge">
<title>Node40&#45;&gt;Node16</title>
<g id="a_edge74_Node000040_Node000016"><a xlink:title=" ">
<path fill="none" stroke="#63b8ff" d="M445.35,-378.17C546.56,-374.84 765.12,-363.76 831.08,-329.25 855.52,-316.46 875.05,-290.6 886.35,-272.82"/>
<polygon fill="#63b8ff" stroke="#63b8ff" points="889.19,-274.88 891.37,-264.52 883.2,-271.26 889.19,-274.88"/>
</a>
</g>
</g>
</g>
</svg>
