<?xml version="1.0" encoding="UTF-8" standalone="no"?>
<!DOCTYPE svg PUBLIC "-//W3C//DTD SVG 1.1//EN"
 "http://www.w3.org/Graphics/SVG/1.1/DTD/svg11.dtd">
<!-- Generated by graphviz version 10.0.1 (0)
 -->
<!-- Title: scale.h Pages: 1 -->
<svg width="1560pt" height="570pt"
 viewBox="0.00 0.00 1559.62 569.50" xmlns="http://www.w3.org/2000/svg" xmlns:xlink="http://www.w3.org/1999/xlink">
<g id="graph0" class="graph" transform="scale(1 1) rotate(0) translate(4 565.5)">
<title>scale.h</title>
<!-- Node1 -->
<g id="Node000001" class="node">
<title>Node1</title>
<g id="a_Node000001"><a xlink:title="A scaling factor between two different units of measurement.">
<polygon fill="#999999" stroke="#666666" points="264.5,-561.5 214.75,-561.5 214.75,-542.25 264.5,-542.25 264.5,-561.5"/>
<text text-anchor="middle" x="239.62" y="-547.05" font-family="Helvetica,sans-Serif" font-size="11.00">scale.h</text>
</a>
</g>
</g>
<!-- Node2 -->
<g id="Node000002" class="node">
<title>Node2</title>
<g id="a_Node000002"><a xlink:href="math_8h_source.html" target="_top" xlink:title=" ">
<polygon fill="white" stroke="#666666" points="214.12,-323.62 105.12,-323.62 105.12,-304.38 214.12,-304.38 214.12,-323.62"/>
<text text-anchor="middle" x="159.62" y="-309.18" font-family="Helvetica,sans-Serif" font-size="11.00">floppy/detail/math.h</text>
</a>
</g>
</g>
<!-- Node1&#45;&gt;Node2 -->
<g id="edge1_Node000001_Node000002" class="edge">
<title>Node1&#45;&gt;Node2</title>
<g id="a_edge1_Node000001_Node000002"><a xlink:title=" ">
<path fill="none" stroke="#63b8ff" d="M232.62,-541.76C215.49,-518.81 171.78,-456.19 156.62,-395.75 151.51,-375.36 153.41,-351.18 155.87,-334.63"/>
<polygon fill="#63b8ff" stroke="#63b8ff" points="159.25,-335.59 157.49,-325.14 152.35,-334.41 159.25,-335.59"/>
</a>
</g>
</g>
<!-- Node25 -->
<g id="Node000025" class="node">
<title>Node25</title>
<g id="a_Node000025"><a xlink:href="traits_8h_source.html" target="_top" xlink:title=" ">
<polygon fill="white" stroke="#666666" points="617.5,-506.25 537.75,-506.25 537.75,-487 617.5,-487 617.5,-506.25"/>
<text text-anchor="middle" x="577.62" y="-491.8" font-family="Helvetica,sans-Serif" font-size="11.00">floppy/traits.h</text>
</a>
</g>
</g>
<!-- Node1&#45;&gt;Node25 -->
<g id="edge29_Node000001_Node000025" class="edge">
<title>Node1&#45;&gt;Node25</title>
<g id="a_edge29_Node000001_Node000025"><a xlink:title=" ">
<path fill="none" stroke="#63b8ff" d="M264.75,-546.92C319.87,-538.23 452.3,-517.37 525.98,-505.76"/>
<polygon fill="#63b8ff" stroke="#63b8ff" points="526.45,-509.23 535.78,-504.22 525.36,-502.32 526.45,-509.23"/>
</a>
</g>
</g>
<!-- Node41 -->
<g id="Node000041" class="node">
<title>Node41</title>
<g id="a_Node000041"><a xlink:href="nt__traits_8h.html" target="_top" xlink:title=" ">
<polygon fill="white" stroke="#666666" points="291.5,-395.75 187.75,-395.75 187.75,-365.25 291.5,-365.25 291.5,-395.75"/>
<text text-anchor="start" x="195.75" y="-381.3" font-family="Helvetica,sans-Serif" font-size="11.00">floppy/euclid/detail</text>
<text text-anchor="middle" x="239.62" y="-370.05" font-family="Helvetica,sans-Serif" font-size="11.00">/nt_traits.h</text>
</a>
</g>
</g>
<!-- Node1&#45;&gt;Node41 -->
<g id="edge73_Node000001_Node000041" class="edge">
<title>Node1&#45;&gt;Node41</title>
<g id="a_edge73_Node000001_Node000041"><a xlink:title=" ">
<path fill="none" stroke="#63b8ff" d="M239.62,-541.77C239.62,-516.72 239.62,-446.09 239.62,-407.49"/>
<polygon fill="#63b8ff" stroke="#63b8ff" points="243.13,-407.69 239.63,-397.69 236.13,-407.69 243.13,-407.69"/>
</a>
</g>
</g>
<!-- Node3 -->
<g id="Node000003" class="node">
<title>Node3</title>
<g id="a_Node000003"><a xlink:title=" ">
<polygon fill="#e0e0e0" stroke="#999999" points="45.25,-262.75 0,-262.75 0,-243.5 45.25,-243.5 45.25,-262.75"/>
<text text-anchor="middle" x="22.62" y="-248.3" font-family="Helvetica,sans-Serif" font-size="11.00">cmath</text>
</a>
</g>
</g>
<!-- Node2&#45;&gt;Node3 -->
<g id="edge2_Node000002_Node000003" class="edge">
<title>Node2&#45;&gt;Node3</title>
<g id="a_edge2_Node000002_Node000003"><a xlink:title=" ">
<path fill="none" stroke="#63b8ff" d="M138.52,-303.93C115.93,-294.22 79.84,-278.71 53.94,-267.58"/>
<polygon fill="#63b8ff" stroke="#63b8ff" points="55.49,-264.44 44.92,-263.71 52.73,-270.87 55.49,-264.44"/>
</a>
</g>
</g>
<!-- Node4 -->
<g id="Node000004" class="node">
<title>Node4</title>
<g id="a_Node000004"><a xlink:title=" ">
<polygon fill="#e0e0e0" stroke="#999999" points="302.62,-201.88 262.62,-201.88 262.62,-182.62 302.62,-182.62 302.62,-201.88"/>
<text text-anchor="middle" x="282.62" y="-187.43" font-family="Helvetica,sans-Serif" font-size="11.00">limits</text>
</a>
</g>
</g>
<!-- Node2&#45;&gt;Node4 -->
<g id="edge3_Node000002_Node000004" class="edge">
<title>Node2&#45;&gt;Node4</title>
<g id="a_edge3_Node000002_Node000004"><a xlink:title=" ">
<path fill="none" stroke="#63b8ff" d="M139.25,-303.94C113.48,-291.23 74.53,-267.01 92.62,-243.5 111.85,-218.52 202.3,-203.42 251.14,-196.96"/>
<polygon fill="#63b8ff" stroke="#63b8ff" points="251.34,-200.46 260.81,-195.72 250.45,-193.52 251.34,-200.46"/>
</a>
</g>
</g>
<!-- Node5 -->
<g id="Node000005" class="node">
<title>Node5</title>
<g id="a_Node000005"><a xlink:title=" ">
<polygon fill="#e0e0e0" stroke="#999999" points="159.62,-262.75 101.62,-262.75 101.62,-243.5 159.62,-243.5 159.62,-262.75"/>
<text text-anchor="middle" x="130.62" y="-248.3" font-family="Helvetica,sans-Serif" font-size="11.00">numbers</text>
</a>
</g>
</g>
<!-- Node2&#45;&gt;Node5 -->
<g id="edge4_Node000002_Node000005" class="edge">
<title>Node2&#45;&gt;Node5</title>
<g id="a_edge4_Node000002_Node000005"><a xlink:title=" ">
<path fill="none" stroke="#63b8ff" d="M155.22,-304.06C151.22,-295.93 145.18,-283.67 140.08,-273.33"/>
<polygon fill="#63b8ff" stroke="#63b8ff" points="143.3,-271.93 135.74,-264.51 137.02,-275.03 143.3,-271.93"/>
</a>
</g>
</g>
<!-- Node6 -->
<g id="Node000006" class="node">
<title>Node6</title>
<g id="a_Node000006"><a xlink:title=" ">
<polygon fill="#e0e0e0" stroke="#999999" points="311.62,-262.75 253.62,-262.75 253.62,-243.5 311.62,-243.5 311.62,-262.75"/>
<text text-anchor="middle" x="282.62" y="-248.3" font-family="Helvetica,sans-Serif" font-size="11.00">compare</text>
</a>
</g>
</g>
<!-- Node2&#45;&gt;Node6 -->
<g id="edge5_Node000002_Node000006" class="edge">
<title>Node2&#45;&gt;Node6</title>
<g id="a_edge5_Node000002_Node000006"><a xlink:title=" ">
<path fill="none" stroke="#63b8ff" d="M178.57,-303.93C198.59,-294.35 230.39,-279.13 253.57,-268.03"/>
<polygon fill="#63b8ff" stroke="#63b8ff" points="254.98,-271.24 262.49,-263.76 251.96,-264.92 254.98,-271.24"/>
</a>
</g>
</g>
<!-- Node7 -->
<g id="Node000007" class="node">
<title>Node7</title>
<g id="a_Node000007"><a xlink:href="export_8h_source.html" target="_top" xlink:title=" ">
<polygon fill="white" stroke="#666666" points="733.12,-201.88 618.12,-201.88 618.12,-182.62 733.12,-182.62 733.12,-201.88"/>
<text text-anchor="middle" x="675.62" y="-187.43" font-family="Helvetica,sans-Serif" font-size="11.00">floppy/detail/export.h</text>
</a>
</g>
</g>
<!-- Node2&#45;&gt;Node7 -->
<g id="edge6_Node000002_Node000007" class="edge">
<title>Node2&#45;&gt;Node7</title>
<g id="a_edge6_Node000002_Node000007"><a xlink:title=" ">
<path fill="none" stroke="#63b8ff" d="M166.99,-304.28C180.55,-288.92 211.15,-257.34 244.62,-243.5 394.86,-181.39 447.98,-232.45 608.62,-207.5 614,-206.67 619.59,-205.67 625.15,-204.61"/>
<polygon fill="#63b8ff" stroke="#63b8ff" points="625.83,-208.04 634.95,-202.64 624.46,-201.18 625.83,-208.04"/>
</a>
</g>
</g>
<!-- Node16 -->
<g id="Node000016" class="node">
<title>Node16</title>
<g id="a_Node000016"><a xlink:href="concepts_8h_source.html" target="_top" xlink:title=" ">
<polygon fill="white" stroke="#666666" points="834.5,-262.75 706.75,-262.75 706.75,-243.5 834.5,-243.5 834.5,-262.75"/>
<text text-anchor="middle" x="770.62" y="-248.3" font-family="Helvetica,sans-Serif" font-size="11.00">floppy/detail/concepts.h</text>
</a>
</g>
</g>
<!-- Node2&#45;&gt;Node16 -->
<g id="edge18_Node000002_Node000016" class="edge">
<title>Node2&#45;&gt;Node16</title>
<g id="a_edge18_Node000002_Node000016"><a xlink:title=" ">
<path fill="none" stroke="#63b8ff" d="M214.38,-307.72C324.03,-297.16 570.65,-273.39 695.37,-261.38"/>
<polygon fill="#63b8ff" stroke="#63b8ff" points="695.56,-264.87 705.18,-260.43 694.89,-257.91 695.56,-264.87"/>
</a>
</g>
</g>
<!-- Node8 -->
<g id="Node000008" class="node">
<title>Node8</title>
<g id="a_Node000008"><a xlink:title=" ">
<polygon fill="#e0e0e0" stroke="#999999" points="804.75,-74.5 762.5,-74.5 762.5,-55.25 804.75,-55.25 804.75,-74.5"/>
<text text-anchor="middle" x="783.62" y="-60.05" font-family="Helvetica,sans-Serif" font-size="11.00">string</text>
</a>
</g>
</g>
<!-- Node7&#45;&gt;Node8 -->
<g id="edge7_Node000007_Node000008" class="edge">
<title>Node7&#45;&gt;Node8</title>
<g id="a_edge7_Node000007_Node000008"><a xlink:title=" ">
<path fill="none" stroke="#63b8ff" d="M688.55,-182.24C701.42,-172.88 721.27,-157.33 735.62,-141 751.07,-123.43 765,-100.43 773.83,-84.52"/>
<polygon fill="#63b8ff" stroke="#63b8ff" points="776.69,-86.6 778.36,-76.14 770.53,-83.27 776.69,-86.6"/>
</a>
</g>
</g>
<!-- Node9 -->
<g id="Node000009" class="node">
<title>Node9</title>
<g id="a_Node000009"><a xlink:title=" ">
<polygon fill="#e0e0e0" stroke="#999999" points="512.62,-74.5 442.62,-74.5 442.62,-55.25 512.62,-55.25 512.62,-74.5"/>
<text text-anchor="middle" x="477.62" y="-60.05" font-family="Helvetica,sans-Serif" font-size="11.00">string_view</text>
</a>
</g>
</g>
<!-- Node7&#45;&gt;Node9 -->
<g id="edge8_Node000007_Node000009" class="edge">
<title>Node7&#45;&gt;Node9</title>
<g id="a_edge8_Node000007_Node000009"><a xlink:title=" ">
<path fill="none" stroke="#63b8ff" d="M662.86,-182.21C641.16,-166.95 595.51,-135.28 555.62,-110.5 538.72,-100 519.3,-88.88 504.06,-80.37"/>
<polygon fill="#63b8ff" stroke="#63b8ff" points="506.03,-77.46 495.59,-75.67 502.63,-83.58 506.03,-77.46"/>
</a>
</g>
</g>
<!-- Node10 -->
<g id="Node000010" class="node">
<title>Node10</title>
<g id="a_Node000010"><a xlink:title=" ">
<polygon fill="#e0e0e0" stroke="#999999" points="546.25,-135.38 489,-135.38 489,-116.12 546.25,-116.12 546.25,-135.38"/>
<text text-anchor="middle" x="517.62" y="-120.92" font-family="Helvetica,sans-Serif" font-size="11.00">iostream</text>
</a>
</g>
</g>
<!-- Node7&#45;&gt;Node10 -->
<g id="edge9_Node000007_Node000010" class="edge">
<title>Node7&#45;&gt;Node10</title>
<g id="a_edge9_Node000007_Node000010"><a xlink:title=" ">
<path fill="none" stroke="#63b8ff" d="M653.32,-182.15C626.5,-171.2 581.26,-152.73 550.45,-140.15"/>
<polygon fill="#63b8ff" stroke="#63b8ff" points="551.8,-136.92 541.22,-136.38 549.15,-143.4 551.8,-136.92"/>
</a>
</g>
</g>
<!-- Node11 -->
<g id="Node000011" class="node">
<title>Node11</title>
<g id="a_Node000011"><a xlink:title=" ">
<polygon fill="#e0e0e0" stroke="#999999" points="929.5,-19.25 855.75,-19.25 855.75,0 929.5,0 929.5,-19.25"/>
<text text-anchor="middle" x="892.62" y="-4.8" font-family="Helvetica,sans-Serif" font-size="11.00">fmt/format.h</text>
</a>
</g>
</g>
<!-- Node7&#45;&gt;Node11 -->
<g id="edge10_Node000007_Node000011" class="edge">
<title>Node7&#45;&gt;Node11</title>
<g id="a_edge10_Node000007_Node000011"><a xlink:title=" ">
<path fill="none" stroke="#63b8ff" d="M693.45,-182.18C711.01,-172.89 738.23,-157.51 759.62,-141 806.13,-105.11 853.62,-54.49 877.27,-28.13"/>
<polygon fill="#63b8ff" stroke="#63b8ff" points="879.83,-30.52 883.85,-20.72 874.59,-25.87 879.83,-30.52"/>
</a>
</g>
</g>
<!-- Node12 -->
<g id="Node000012" class="node">
<title>Node12</title>
<g id="a_Node000012"><a xlink:href="string__utils_8h_source.html" target="_top" xlink:title=" ">
<polygon fill="white" stroke="#666666" points="726.75,-141 624.5,-141 624.5,-110.5 726.75,-110.5 726.75,-141"/>
<text text-anchor="start" x="632.5" y="-126.55" font-family="Helvetica,sans-Serif" font-size="11.00">floppy/detail/string</text>
<text text-anchor="middle" x="675.62" y="-115.3" font-family="Helvetica,sans-Serif" font-size="11.00">_utils.h</text>
</a>
</g>
</g>
<!-- Node7&#45;&gt;Node12 -->
<g id="edge11_Node000007_Node000012" class="edge">
<title>Node7&#45;&gt;Node12</title>
<g id="a_edge11_Node000007_Node000012"><a xlink:title=" ">
<path fill="none" stroke="#63b8ff" d="M675.62,-182.28C675.62,-174.54 675.62,-162.95 675.62,-152.37"/>
<polygon fill="#63b8ff" stroke="#63b8ff" points="679.13,-152.61 675.63,-142.61 672.13,-152.61 679.13,-152.61"/>
</a>
</g>
</g>
<!-- Node12&#45;&gt;Node8 -->
<g id="edge12_Node000012_Node000008" class="edge">
<title>Node12&#45;&gt;Node8</title>
<g id="a_edge12_Node000012_Node000008"><a xlink:title=" ">
<path fill="none" stroke="#63b8ff" d="M702.6,-110.05C719.2,-100.99 740.4,-89.44 756.95,-80.41"/>
<polygon fill="#63b8ff" stroke="#63b8ff" points="758.63,-83.49 765.73,-75.63 755.28,-77.34 758.63,-83.49"/>
</a>
</g>
</g>
<!-- Node12&#45;&gt;Node9 -->
<g id="edge13_Node000012_Node000009" class="edge">
<title>Node12&#45;&gt;Node9</title>
<g id="a_edge13_Node000012_Node000009"><a xlink:title=" ">
<path fill="none" stroke="#63b8ff" d="M626.17,-110.05C593.22,-100.25 550.4,-87.52 519.21,-78.24"/>
<polygon fill="#63b8ff" stroke="#63b8ff" points="520.32,-74.92 509.73,-75.42 518.32,-81.63 520.32,-74.92"/>
</a>
</g>
</g>
<!-- Node13 -->
<g id="Node000013" class="node">
<title>Node13</title>
<g id="a_Node000013"><a xlink:title=" ">
<polygon fill="#e0e0e0" stroke="#999999" points="744.75,-74.5 684.5,-74.5 684.5,-55.25 744.75,-55.25 744.75,-74.5"/>
<text text-anchor="middle" x="714.62" y="-60.05" font-family="Helvetica,sans-Serif" font-size="11.00">algorithm</text>
</a>
</g>
</g>
<!-- Node12&#45;&gt;Node13 -->
<g id="edge14_Node000012_Node000013" class="edge">
<title>Node12&#45;&gt;Node13</title>
<g id="a_edge14_Node000012_Node000013"><a xlink:title=" ">
<path fill="none" stroke="#63b8ff" d="M685.27,-110.2C690.4,-102.44 696.78,-92.81 702.28,-84.51"/>
<polygon fill="#63b8ff" stroke="#63b8ff" points="705.17,-86.48 707.78,-76.21 699.34,-82.62 705.17,-86.48"/>
</a>
</g>
</g>
<!-- Node14 -->
<g id="Node000014" class="node">
<title>Node14</title>
<g id="a_Node000014"><a xlink:href="exceptions_8h_source.html" target="_top" xlink:title=" ">
<polygon fill="white" stroke="#666666" points="666.62,-74.5 530.62,-74.5 530.62,-55.25 666.62,-55.25 666.62,-74.5"/>
<text text-anchor="middle" x="598.62" y="-60.05" font-family="Helvetica,sans-Serif" font-size="11.00">floppy/detail/exceptions.h</text>
</a>
</g>
</g>
<!-- Node12&#45;&gt;Node14 -->
<g id="edge15_Node000012_Node000014" class="edge">
<title>Node12&#45;&gt;Node14</title>
<g id="a_edge15_Node000012_Node000014"><a xlink:title=" ">
<path fill="none" stroke="#63b8ff" d="M656.59,-110.2C645.32,-101.58 631.02,-90.65 619.45,-81.8"/>
<polygon fill="#63b8ff" stroke="#63b8ff" points="621.77,-79.16 611.7,-75.87 617.52,-84.73 621.77,-79.16"/>
</a>
</g>
</g>
<!-- Node14&#45;&gt;Node11 -->
<g id="edge17_Node000014_Node000011" class="edge">
<title>Node14&#45;&gt;Node11</title>
<g id="a_edge17_Node000014_Node000011"><a xlink:title=" ">
<path fill="none" stroke="#63b8ff" d="M648.83,-54.78C703.53,-44.87 790.42,-29.14 844.35,-19.37"/>
<polygon fill="#63b8ff" stroke="#63b8ff" points="844.96,-22.82 854.17,-17.59 843.71,-15.93 844.96,-22.82"/>
</a>
</g>
</g>
<!-- Node15 -->
<g id="Node000015" class="node">
<title>Node15</title>
<g id="a_Node000015"><a xlink:title=" ">
<polygon fill="#e0e0e0" stroke="#999999" points="500.5,-19.25 438.75,-19.25 438.75,0 500.5,0 500.5,-19.25"/>
<text text-anchor="middle" x="469.62" y="-4.8" font-family="Helvetica,sans-Serif" font-size="11.00">stdexcept</text>
</a>
</g>
</g>
<!-- Node14&#45;&gt;Node15 -->
<g id="edge16_Node000014_Node000015" class="edge">
<title>Node14&#45;&gt;Node15</title>
<g id="a_edge16_Node000014_Node000015"><a xlink:title=" ">
<path fill="none" stroke="#63b8ff" d="M576.74,-54.84C556.26,-46.39 525.41,-33.65 502.07,-24.02"/>
<polygon fill="#63b8ff" stroke="#63b8ff" points="503.59,-20.86 493.01,-20.28 500.92,-27.33 503.59,-20.86"/>
</a>
</g>
</g>
<!-- Node17 -->
<g id="Node000017" class="node">
<title>Node17</title>
<g id="a_Node000017"><a xlink:title=" ">
<polygon fill="#e0e0e0" stroke="#999999" points="810,-201.88 751.25,-201.88 751.25,-182.62 810,-182.62 810,-201.88"/>
<text text-anchor="middle" x="780.62" y="-187.43" font-family="Helvetica,sans-Serif" font-size="11.00">concepts</text>
</a>
</g>
</g>
<!-- Node16&#45;&gt;Node17 -->
<g id="edge19_Node000016_Node000017" class="edge">
<title>Node16&#45;&gt;Node17</title>
<g id="a_edge19_Node000016_Node000017"><a xlink:title=" ">
<path fill="none" stroke="#63b8ff" d="M772.14,-243.18C773.48,-235.32 775.47,-223.57 777.19,-213.45"/>
<polygon fill="#63b8ff" stroke="#63b8ff" points="780.61,-214.21 778.84,-203.77 773.71,-213.04 780.61,-214.21"/>
</a>
</g>
</g>
<!-- Node18 -->
<g id="Node000018" class="node">
<title>Node18</title>
<g id="a_Node000018"><a xlink:href="type__traits_8h_source.html" target="_top" xlink:title=" ">
<polygon fill="white" stroke="#666666" points="1345.75,-207.5 1249.5,-207.5 1249.5,-177 1345.75,-177 1345.75,-207.5"/>
<text text-anchor="start" x="1257.5" y="-193.05" font-family="Helvetica,sans-Serif" font-size="11.00">floppy/detail/type</text>
<text text-anchor="middle" x="1297.62" y="-181.8" font-family="Helvetica,sans-Serif" font-size="11.00">_traits.h</text>
</a>
</g>
</g>
<!-- Node16&#45;&gt;Node18 -->
<g id="edge20_Node000016_Node000018" class="edge">
<title>Node16&#45;&gt;Node18</title>
<g id="a_edge20_Node000016_Node000018"><a xlink:title=" ">
<path fill="none" stroke="#63b8ff" d="M834.72,-244.53C837.73,-244.18 840.71,-243.83 843.62,-243.5 985,-227.32 1151.25,-209.14 1238.03,-199.7"/>
<polygon fill="#63b8ff" stroke="#63b8ff" points="1238.17,-203.21 1247.73,-198.65 1237.41,-196.25 1238.17,-203.21"/>
</a>
</g>
</g>
<!-- Node20 -->
<g id="Node000020" class="node">
<title>Node20</title>
<g id="a_Node000020"><a xlink:href="types_8h_source.html" target="_top" xlink:title=" ">
<polygon fill="white" stroke="#666666" points="1130.88,-201.88 1020.38,-201.88 1020.38,-182.62 1130.88,-182.62 1130.88,-201.88"/>
<text text-anchor="middle" x="1075.62" y="-187.43" font-family="Helvetica,sans-Serif" font-size="11.00">floppy/detail/types.h</text>
</a>
</g>
</g>
<!-- Node16&#45;&gt;Node20 -->
<g id="edge22_Node000016_Node000020" class="edge">
<title>Node16&#45;&gt;Node20</title>
<g id="a_edge22_Node000016_Node000020"><a xlink:title=" ">
<path fill="none" stroke="#63b8ff" d="M817.61,-243.05C871.35,-232.68 959.36,-215.69 1017.39,-204.49"/>
<polygon fill="#63b8ff" stroke="#63b8ff" points="1017.94,-207.95 1027.1,-202.62 1016.62,-201.08 1017.94,-207.95"/>
</a>
</g>
</g>
<!-- Node19 -->
<g id="Node000019" class="node">
<title>Node19</title>
<g id="a_Node000019"><a xlink:title=" ">
<polygon fill="#e0e0e0" stroke="#999999" points="1362.38,-135.38 1296.88,-135.38 1296.88,-116.12 1362.38,-116.12 1362.38,-135.38"/>
<text text-anchor="middle" x="1329.62" y="-120.92" font-family="Helvetica,sans-Serif" font-size="11.00">type_traits</text>
</a>
</g>
</g>
<!-- Node18&#45;&gt;Node19 -->
<g id="edge21_Node000018_Node000019" class="edge">
<title>Node18&#45;&gt;Node19</title>
<g id="a_edge21_Node000018_Node000019"><a xlink:title=" ">
<path fill="none" stroke="#63b8ff" d="M1304.89,-176.61C1309.44,-167.43 1315.36,-155.5 1320.27,-145.61"/>
<polygon fill="#63b8ff" stroke="#63b8ff" points="1323.27,-147.44 1324.58,-136.93 1317,-144.33 1323.27,-147.44"/>
</a>
</g>
</g>
<!-- Node20&#45;&gt;Node11 -->
<g id="edge27_Node000020_Node000011" class="edge">
<title>Node20&#45;&gt;Node11</title>
<g id="a_edge27_Node000020_Node000011"><a xlink:title=" ">
<path fill="none" stroke="#63b8ff" d="M1068.36,-182.48C1055.69,-167.34 1028.54,-135.53 1003.62,-110.5 972.9,-79.64 934.7,-46.27 912.06,-26.97"/>
<polygon fill="#63b8ff" stroke="#63b8ff" points="914.43,-24.39 904.54,-20.6 909.9,-29.73 914.43,-24.39"/>
</a>
</g>
</g>
<!-- Node20&#45;&gt;Node19 -->
<g id="edge26_Node000020_Node000019" class="edge">
<title>Node20&#45;&gt;Node19</title>
<g id="a_edge26_Node000020_Node000019"><a xlink:title=" ">
<path fill="none" stroke="#63b8ff" d="M1119.38,-182.14C1162.47,-172.88 1230.01,-157.56 1287.62,-141 1289.59,-140.43 1291.61,-139.83 1293.63,-139.21"/>
<polygon fill="#63b8ff" stroke="#63b8ff" points="1294.54,-142.59 1302.99,-136.19 1292.4,-135.93 1294.54,-142.59"/>
</a>
</g>
</g>
<!-- Node21 -->
<g id="Node000021" class="node">
<title>Node21</title>
<g id="a_Node000021"><a xlink:title=" ">
<polygon fill="#e0e0e0" stroke="#999999" points="1100.88,-135.38 1050.38,-135.38 1050.38,-116.12 1100.88,-116.12 1100.88,-135.38"/>
<text text-anchor="middle" x="1075.62" y="-120.92" font-family="Helvetica,sans-Serif" font-size="11.00">cstddef</text>
</a>
</g>
</g>
<!-- Node20&#45;&gt;Node21 -->
<g id="edge23_Node000020_Node000021" class="edge">
<title>Node20&#45;&gt;Node21</title>
<g id="a_edge23_Node000020_Node000021"><a xlink:title=" ">
<path fill="none" stroke="#63b8ff" d="M1075.62,-182.28C1075.62,-173.23 1075.62,-158.95 1075.62,-147.13"/>
<polygon fill="#63b8ff" stroke="#63b8ff" points="1079.13,-147.16 1075.63,-137.16 1072.13,-147.16 1079.13,-147.16"/>
</a>
</g>
</g>
<!-- Node22 -->
<g id="Node000022" class="node">
<title>Node22</title>
<g id="a_Node000022"><a xlink:title=" ">
<polygon fill="#e0e0e0" stroke="#999999" points="995,-135.38 948.25,-135.38 948.25,-116.12 995,-116.12 995,-135.38"/>
<text text-anchor="middle" x="971.62" y="-120.92" font-family="Helvetica,sans-Serif" font-size="11.00">cstdint</text>
</a>
</g>
</g>
<!-- Node20&#45;&gt;Node22 -->
<g id="edge24_Node000020_Node000022" class="edge">
<title>Node20&#45;&gt;Node22</title>
<g id="a_edge24_Node000020_Node000022"><a xlink:title=" ">
<path fill="none" stroke="#63b8ff" d="M1061.16,-182.28C1044.34,-171.85 1016.29,-154.45 996.06,-141.9"/>
<polygon fill="#63b8ff" stroke="#63b8ff" points="997.93,-138.94 987.58,-136.65 994.24,-144.89 997.93,-138.94"/>
</a>
</g>
</g>
<!-- Node23 -->
<g id="Node000023" class="node">
<title>Node23</title>
<g id="a_Node000023"><a xlink:title=" ">
<polygon fill="#e0e0e0" stroke="#999999" points="1172.38,-135.38 1118.88,-135.38 1118.88,-116.12 1172.38,-116.12 1172.38,-135.38"/>
<text text-anchor="middle" x="1145.62" y="-120.92" font-family="Helvetica,sans-Serif" font-size="11.00">optional</text>
</a>
</g>
</g>
<!-- Node20&#45;&gt;Node23 -->
<g id="edge25_Node000020_Node000023" class="edge">
<title>Node20&#45;&gt;Node23</title>
<g id="a_edge25_Node000020_Node000023"><a xlink:title=" ">
<path fill="none" stroke="#63b8ff" d="M1085.36,-182.28C1096.33,-172.17 1114.39,-155.53 1127.89,-143.1"/>
<polygon fill="#63b8ff" stroke="#63b8ff" points="1129.88,-146.02 1134.86,-136.67 1125.14,-140.87 1129.88,-146.02"/>
</a>
</g>
</g>
<!-- Node24 -->
<g id="Node000024" class="node">
<title>Node24</title>
<g id="a_Node000024"><a xlink:title=" ">
<polygon fill="#e0e0e0" stroke="#999999" points="1279,-135.38 1190.25,-135.38 1190.25,-116.12 1279,-116.12 1279,-135.38"/>
<text text-anchor="middle" x="1234.62" y="-120.92" font-family="Helvetica,sans-Serif" font-size="11.00">tl/expected.hpp</text>
</a>
</g>
</g>
<!-- Node20&#45;&gt;Node24 -->
<g id="edge28_Node000020_Node000024" class="edge">
<title>Node20&#45;&gt;Node24</title>
<g id="a_edge28_Node000020_Node000024"><a xlink:title=" ">
<path fill="none" stroke="#63b8ff" d="M1098.07,-182.15C1125.18,-171.15 1170.99,-152.56 1202,-139.99"/>
<polygon fill="#63b8ff" stroke="#63b8ff" points="1202.94,-143.38 1210.89,-136.38 1200.31,-136.89 1202.94,-143.38"/>
</a>
</g>
</g>
<!-- Node25&#45;&gt;Node10 -->
<g id="edge30_Node000025_Node000010" class="edge">
<title>Node25&#45;&gt;Node10</title>
<g id="a_edge30_Node000025_Node000010"><a xlink:title=" ">
<path fill="none" stroke="#63b8ff" d="M550.22,-486.5C483.1,-462.48 311.12,-390.38 244.62,-262.75 234,-242.36 229.74,-202.21 253.62,-177 283.75,-145.22 411.66,-133.02 477.74,-128.78"/>
<polygon fill="#63b8ff" stroke="#63b8ff" points="477.66,-132.3 487.43,-128.19 477.23,-125.31 477.66,-132.3"/>
</a>
</g>
</g>
<!-- Node25&#45;&gt;Node19 -->
<g id="edge31_Node000025_Node000019" class="edge">
<title>Node25&#45;&gt;Node19</title>
<g id="a_edge31_Node000025_Node000019"><a xlink:title=" ">
<path fill="none" stroke="#63b8ff" d="M617.84,-495.02C797,-491.8 1513.62,-473.17 1513.62,-381.5 1513.62,-381.5 1513.62,-381.5 1513.62,-252.12 1513.62,-217.68 1518.39,-201.93 1494.62,-177 1463.26,-144.1 1411.08,-132.55 1373.79,-128.59"/>
<polygon fill="#63b8ff" stroke="#63b8ff" points="1374.52,-125.15 1364.25,-127.73 1373.89,-132.12 1374.52,-125.15"/>
</a>
</g>
</g>
<!-- Node26 -->
<g id="Node000026" class="node">
<title>Node26</title>
<g id="a_Node000026"><a xlink:href="floppy_8h_source.html" target="_top" xlink:title=" ">
<polygon fill="white" stroke="#666666" points="907.12,-451 822.12,-451 822.12,-431.75 907.12,-431.75 907.12,-451"/>
<text text-anchor="middle" x="864.62" y="-436.55" font-family="Helvetica,sans-Serif" font-size="11.00">floppy/floppy.h</text>
</a>
</g>
</g>
<!-- Node25&#45;&gt;Node26 -->
<g id="edge32_Node000025_Node000026" class="edge">
<title>Node25&#45;&gt;Node26</title>
<g id="a_edge32_Node000025_Node000026"><a xlink:title=" ">
<path fill="none" stroke="#63b8ff" d="M617.83,-488.16C668.2,-478.82 754.69,-462.77 810.75,-452.37"/>
<polygon fill="#63b8ff" stroke="#63b8ff" points="811.2,-455.85 820.39,-450.58 809.92,-448.96 811.2,-455.85"/>
</a>
</g>
</g>
<!-- Node26&#45;&gt;Node2 -->
<g id="edge60_Node000026_Node000002" class="edge">
<title>Node26&#45;&gt;Node2</title>
<g id="a_edge60_Node000026_Node000002"><a xlink:title=" ">
<path fill="none" stroke="#63b8ff" d="M821.74,-440.5C679.22,-440.51 227.65,-437.24 178.62,-395.75 161.39,-381.16 158.14,-354.15 158.21,-335.4"/>
<polygon fill="#63b8ff" stroke="#63b8ff" points="161.7,-335.64 158.6,-325.51 154.71,-335.37 161.7,-335.64"/>
</a>
</g>
</g>
<!-- Node26&#45;&gt;Node7 -->
<g id="edge58_Node000026_Node000007" class="edge">
<title>Node26&#45;&gt;Node7</title>
<g id="a_edge58_Node000026_Node000007"><a xlink:title=" ">
<path fill="none" stroke="#63b8ff" d="M821.69,-439.32C787.28,-436.1 740.34,-425.94 712.62,-395.75 665.51,-344.44 668.69,-253.88 672.89,-213.58"/>
<polygon fill="#63b8ff" stroke="#63b8ff" points="676.34,-214.22 674.05,-203.87 669.39,-213.39 676.34,-214.22"/>
</a>
</g>
</g>
<!-- Node26&#45;&gt;Node16 -->
<g id="edge48_Node000026_Node000016" class="edge">
<title>Node26&#45;&gt;Node16</title>
<g id="a_edge48_Node000026_Node000016"><a xlink:title=" ">
<path fill="none" stroke="#63b8ff" d="M863.84,-431.28C861.43,-407.52 852.34,-342.43 822.62,-298.75 815.02,-287.57 803.92,-277.52 793.92,-269.8"/>
<polygon fill="#63b8ff" stroke="#63b8ff" points="796.19,-267.12 786.05,-264.05 792.06,-272.77 796.19,-267.12"/>
</a>
</g>
</g>
<!-- Node26&#45;&gt;Node18 -->
<g id="edge71_Node000026_Node000018" class="edge">
<title>Node26&#45;&gt;Node18</title>
<g id="a_edge71_Node000026_Node000018"><a xlink:title=" ">
<path fill="none" stroke="#63b8ff" d="M907.41,-437.5C968.75,-432.67 1084.83,-420.88 1180.62,-395.75 1259.1,-375.16 1287.25,-379.91 1350.62,-329.25 1384.24,-302.38 1418.07,-280.23 1395.62,-243.5 1386.63,-228.78 1371.8,-218.19 1356.37,-210.65"/>
<polygon fill="#63b8ff" stroke="#63b8ff" points="1358.13,-207.61 1347.58,-206.74 1355.29,-214.01 1358.13,-207.61"/>
</a>
</g>
</g>
<!-- Node26&#45;&gt;Node20 -->
<g id="edge72_Node000026_Node000020" class="edge">
<title>Node26&#45;&gt;Node20</title>
<g id="a_edge72_Node000026_Node000020"><a xlink:title=" ">
<path fill="none" stroke="#63b8ff" d="M907.53,-435.88C956.21,-429.98 1037.56,-417.71 1104.62,-395.75 1234.03,-353.38 1308.19,-378.05 1380.62,-262.75 1385.18,-255.51 1386.16,-250.02 1380.62,-243.5 1365.39,-225.55 1227.8,-208.61 1142.71,-199.72"/>
<polygon fill="#63b8ff" stroke="#63b8ff" points="1143.13,-196.24 1132.83,-198.7 1142.42,-203.2 1143.13,-196.24"/>
</a>
</g>
</g>
<!-- Node27 -->
<g id="Node000027" class="node">
<title>Node27</title>
<g id="a_Node000027"><a xlink:href="backports_8h_source.html" target="_top" xlink:title=" ">
<polygon fill="white" stroke="#666666" points="1024.75,-323.62 892.5,-323.62 892.5,-304.38 1024.75,-304.38 1024.75,-323.62"/>
<text text-anchor="middle" x="958.62" y="-309.18" font-family="Helvetica,sans-Serif" font-size="11.00">floppy/detail/backports.h</text>
</a>
</g>
</g>
<!-- Node26&#45;&gt;Node27 -->
<g id="edge33_Node000026_Node000027" class="edge">
<title>Node26&#45;&gt;Node27</title>
<g id="a_edge33_Node000026_Node000027"><a xlink:title=" ">
<path fill="none" stroke="#63b8ff" d="M871.39,-431.36C886.76,-410.85 924.61,-360.36 945.04,-333.13"/>
<polygon fill="#63b8ff" stroke="#63b8ff" points="947.82,-335.25 951.02,-325.15 942.22,-331.05 947.82,-335.25"/>
</a>
</g>
</g>
<!-- Node29 -->
<g id="Node000029" class="node">
<title>Node29</title>
<g id="a_Node000029"><a xlink:href="platform_8h_source.html" target="_top" xlink:title=" ">
<polygon fill="white" stroke="#666666" points="1119.62,-262.75 995.62,-262.75 995.62,-243.5 1119.62,-243.5 1119.62,-262.75"/>
<text text-anchor="middle" x="1057.62" y="-248.3" font-family="Helvetica,sans-Serif" font-size="11.00">floppy/detail/platform.h</text>
</a>
</g>
</g>
<!-- Node26&#45;&gt;Node29 -->
<g id="edge68_Node000026_Node000029" class="edge">
<title>Node26&#45;&gt;Node29</title>
<g id="a_edge68_Node000026_Node000029"><a xlink:title=" ">
<path fill="none" stroke="#63b8ff" d="M887.64,-431.29C923.97,-415.8 994.46,-380.86 1033.62,-329.25 1045.9,-313.07 1052.01,-290.42 1054.98,-274.22"/>
<polygon fill="#63b8ff" stroke="#63b8ff" points="1058.43,-274.78 1056.51,-264.37 1051.51,-273.71 1058.43,-274.78"/>
</a>
</g>
</g>
<!-- Node30 -->
<g id="Node000030" class="node">
<title>Node30</title>
<g id="a_Node000030"><a xlink:href="predefs_8h_source.html" target="_top" xlink:title=" ">
<polygon fill="white" stroke="#666666" points="1485.12,-201.88 1364.12,-201.88 1364.12,-182.62 1485.12,-182.62 1485.12,-201.88"/>
<text text-anchor="middle" x="1424.62" y="-187.43" font-family="Helvetica,sans-Serif" font-size="11.00">floppy/detail/predefs.h</text>
</a>
</g>
</g>
<!-- Node26&#45;&gt;Node30 -->
<g id="edge69_Node000026_Node000030" class="edge">
<title>Node26&#45;&gt;Node30</title>
<g id="a_edge69_Node000026_Node000030"><a xlink:title=" ">
<path fill="none" stroke="#63b8ff" d="M907.47,-440.26C979.62,-439.01 1129.25,-431.81 1249.62,-395.75 1312.55,-376.9 1335.89,-376.4 1381.62,-329.25 1412.71,-297.2 1421.34,-242.83 1423.72,-213.48"/>
<polygon fill="#63b8ff" stroke="#63b8ff" points="1427.2,-213.96 1424.33,-203.76 1420.21,-213.52 1427.2,-213.96"/>
</a>
</g>
</g>
<!-- Node31 -->
<g id="Node000031" class="node">
<title>Node31</title>
<g id="a_Node000031"><a xlink:href="formatters_8h_source.html" target="_top" xlink:title=" ">
<polygon fill="white" stroke="#666666" points="574.5,-262.75 440.75,-262.75 440.75,-243.5 574.5,-243.5 574.5,-262.75"/>
<text text-anchor="middle" x="507.62" y="-248.3" font-family="Helvetica,sans-Serif" font-size="11.00">floppy/detail/formatters.h</text>
</a>
</g>
</g>
<!-- Node26&#45;&gt;Node31 -->
<g id="edge59_Node000026_Node000031" class="edge">
<title>Node26&#45;&gt;Node31</title>
<g id="a_edge59_Node000026_Node000031"><a xlink:title=" ">
<path fill="none" stroke="#63b8ff" d="M821.88,-436.93C761.9,-431.34 656.74,-418.57 626.62,-395.75 588.28,-366.7 610.87,-334.45 578.62,-298.75 567.35,-286.27 551.79,-275.96 538.11,-268.41"/>
<polygon fill="#63b8ff" stroke="#63b8ff" points="539.94,-265.42 529.45,-263.88 536.69,-271.62 539.94,-265.42"/>
</a>
</g>
</g>
<!-- Node34 -->
<g id="Node000034" class="node">
<title>Node34</title>
<g id="a_Node000034"><a xlink:href="corefn_8h_source.html" target="_top" xlink:title=" ">
<polygon fill="white" stroke="#666666" points="836.12,-390.12 721.12,-390.12 721.12,-370.88 836.12,-370.88 836.12,-390.12"/>
<text text-anchor="middle" x="778.62" y="-375.68" font-family="Helvetica,sans-Serif" font-size="11.00">floppy/detail/corefn.h</text>
</a>
</g>
</g>
<!-- Node26&#45;&gt;Node34 -->
<g id="edge49_Node000026_Node000034" class="edge">
<title>Node26&#45;&gt;Node34</title>
<g id="a_edge49_Node000026_Node000034"><a xlink:title=" ">
<path fill="none" stroke="#63b8ff" d="M851.56,-431.43C838.18,-422.27 817.11,-407.84 801.05,-396.85"/>
<polygon fill="#63b8ff" stroke="#63b8ff" points="803.29,-394.14 793.06,-391.38 799.33,-399.92 803.29,-394.14"/>
</a>
</g>
</g>
<!-- Node36 -->
<g id="Node000036" class="node">
<title>Node36</title>
<g id="a_Node000036"><a xlink:href="print__helpers_8h_source.html" target="_top" xlink:title=" ">
<polygon fill="white" stroke="#666666" points="1219.12,-329.25 1122.12,-329.25 1122.12,-298.75 1219.12,-298.75 1219.12,-329.25"/>
<text text-anchor="start" x="1130.12" y="-314.8" font-family="Helvetica,sans-Serif" font-size="11.00">floppy/detail/print</text>
<text text-anchor="middle" x="1170.62" y="-303.55" font-family="Helvetica,sans-Serif" font-size="11.00">_helpers.h</text>
</a>
</g>
</g>
<!-- Node26&#45;&gt;Node36 -->
<g id="edge70_Node000026_Node000036" class="edge">
<title>Node26&#45;&gt;Node36</title>
<g id="a_edge70_Node000026_Node000036"><a xlink:title=" ">
<path fill="none" stroke="#63b8ff" d="M907.46,-436.69C950.04,-431.74 1016.37,-420.51 1068.62,-395.75 1099.25,-381.24 1129.01,-356.01 1148.4,-337.6"/>
<polygon fill="#63b8ff" stroke="#63b8ff" points="1150.73,-340.22 1155.46,-330.74 1145.85,-335.2 1150.73,-340.22"/>
</a>
</g>
</g>
<!-- Node39 -->
<g id="Node000039" class="node">
<title>Node39</title>
<g id="a_Node000039"><a xlink:href="memory_8h_source.html" target="_top" xlink:title=" ">
<polygon fill="white" stroke="#666666" points="569.25,-323.62 446,-323.62 446,-304.38 569.25,-304.38 569.25,-323.62"/>
<text text-anchor="middle" x="507.62" y="-309.18" font-family="Helvetica,sans-Serif" font-size="11.00">floppy/detail/memory.h</text>
</a>
</g>
</g>
<!-- Node26&#45;&gt;Node39 -->
<g id="edge61_Node000026_Node000039" class="edge">
<title>Node26&#45;&gt;Node39</title>
<g id="a_edge61_Node000026_Node000039"><a xlink:title=" ">
<path fill="none" stroke="#63b8ff" d="M821.87,-436.8C754.42,-430.62 626.83,-416.57 586.62,-395.75 558.26,-381.07 534.02,-352.39 520.13,-333.46"/>
<polygon fill="#63b8ff" stroke="#63b8ff" points="523.02,-331.49 514.39,-325.34 517.3,-335.53 523.02,-331.49"/>
</a>
</g>
</g>
<!-- Node27&#45;&gt;Node11 -->
<g id="edge36_Node000027_Node000011" class="edge">
<title>Node27&#45;&gt;Node11</title>
<g id="a_edge36_Node000027_Node000011"><a xlink:title=" ">
<path fill="none" stroke="#63b8ff" d="M956.65,-303.95C947.6,-262.48 909.97,-90.08 897.02,-30.77"/>
<polygon fill="#63b8ff" stroke="#63b8ff" points="900.47,-30.14 894.92,-21.12 893.63,-31.63 900.47,-30.14"/>
</a>
</g>
</g>
<!-- Node27&#45;&gt;Node16 -->
<g id="edge42_Node000027_Node000016" class="edge">
<title>Node27&#45;&gt;Node16</title>
<g id="a_edge42_Node000027_Node000016"><a xlink:title=" ">
<path fill="none" stroke="#63b8ff" d="M929.66,-303.93C897.65,-293.9 845.88,-277.69 810.16,-266.5"/>
<polygon fill="#63b8ff" stroke="#63b8ff" points="811.65,-263.31 801.07,-263.66 809.56,-269.99 811.65,-263.31"/>
</a>
</g>
</g>
<!-- Node27&#45;&gt;Node22 -->
<g id="edge34_Node000027_Node000022" class="edge">
<title>Node27&#45;&gt;Node22</title>
<g id="a_edge34_Node000027_Node000022"><a xlink:title=" ">
<path fill="none" stroke="#63b8ff" d="M959.25,-304.02C961.23,-275.62 967.4,-187.31 970.21,-147.08"/>
<polygon fill="#63b8ff" stroke="#63b8ff" points="973.69,-147.37 970.9,-137.15 966.71,-146.88 973.69,-147.37"/>
</a>
</g>
</g>
<!-- Node28 -->
<g id="Node000028" class="node">
<title>Node28</title>
<g id="a_Node000028"><a xlink:title=" ">
<polygon fill="#e0e0e0" stroke="#999999" points="901.12,-262.75 852.12,-262.75 852.12,-243.5 901.12,-243.5 901.12,-262.75"/>
<text text-anchor="middle" x="876.62" y="-248.3" font-family="Helvetica,sans-Serif" font-size="11.00">ranges</text>
</a>
</g>
</g>
<!-- Node27&#45;&gt;Node28 -->
<g id="edge35_Node000027_Node000028" class="edge">
<title>Node27&#45;&gt;Node28</title>
<g id="a_edge35_Node000027_Node000028"><a xlink:title=" ">
<path fill="none" stroke="#63b8ff" d="M946.17,-304.06C933.53,-294.98 913.7,-280.74 898.44,-269.79"/>
<polygon fill="#63b8ff" stroke="#63b8ff" points="900.59,-267.02 890.43,-264.03 896.51,-272.71 900.59,-267.02"/>
</a>
</g>
</g>
<!-- Node27&#45;&gt;Node29 -->
<g id="edge37_Node000027_Node000029" class="edge">
<title>Node27&#45;&gt;Node29</title>
<g id="a_edge37_Node000027_Node000029"><a xlink:title=" ">
<path fill="none" stroke="#63b8ff" d="M973.66,-304.06C989.29,-294.76 1014.01,-280.06 1032.59,-269.01"/>
<polygon fill="#63b8ff" stroke="#63b8ff" points="1034.34,-272.04 1041.15,-263.92 1030.76,-266.03 1034.34,-272.04"/>
</a>
</g>
</g>
<!-- Node27&#45;&gt;Node31 -->
<g id="edge43_Node000027_Node000031" class="edge">
<title>Node27&#45;&gt;Node31</title>
<g id="a_edge43_Node000027_Node000031"><a xlink:title=" ">
<path fill="none" stroke="#63b8ff" d="M892.08,-304.31C810.59,-293.68 672.76,-275.68 586.16,-264.38"/>
<polygon fill="#63b8ff" stroke="#63b8ff" points="586.68,-260.92 576.31,-263.09 585.78,-267.86 586.68,-260.92"/>
</a>
</g>
</g>
<!-- Node29&#45;&gt;Node4 -->
<g id="edge38_Node000029_Node000004" class="edge">
<title>Node29&#45;&gt;Node4</title>
<g id="a_edge38_Node000029_Node000004"><a xlink:title=" ">
<path fill="none" stroke="#63b8ff" d="M995.19,-247.38C838.13,-235.45 430.87,-204.51 314.25,-195.65"/>
<polygon fill="#63b8ff" stroke="#63b8ff" points="314.73,-192.18 304.5,-194.91 314.2,-199.16 314.73,-192.18"/>
</a>
</g>
</g>
<!-- Node29&#45;&gt;Node7 -->
<g id="edge39_Node000029_Node000007" class="edge">
<title>Node29&#45;&gt;Node7</title>
<g id="a_edge39_Node000029_Node000007"><a xlink:title=" ">
<path fill="none" stroke="#63b8ff" d="M995.27,-244.58C931.57,-236.57 829.92,-222.95 742.62,-207.5 737.68,-206.63 732.55,-205.65 727.42,-204.64"/>
<polygon fill="#63b8ff" stroke="#63b8ff" points="728.26,-201.24 717.77,-202.67 726.87,-208.09 728.26,-201.24"/>
</a>
</g>
</g>
<!-- Node29&#45;&gt;Node20 -->
<g id="edge40_Node000029_Node000020" class="edge">
<title>Node29&#45;&gt;Node20</title>
<g id="a_edge40_Node000029_Node000020"><a xlink:title=" ">
<path fill="none" stroke="#63b8ff" d="M1060.36,-243.18C1062.79,-235.23 1066.43,-223.31 1069.55,-213.12"/>
<polygon fill="#63b8ff" stroke="#63b8ff" points="1072.85,-214.31 1072.42,-203.72 1066.15,-212.26 1072.85,-214.31"/>
</a>
</g>
</g>
<!-- Node29&#45;&gt;Node30 -->
<g id="edge41_Node000029_Node000030" class="edge">
<title>Node29&#45;&gt;Node30</title>
<g id="a_edge41_Node000029_Node000030"><a xlink:title=" ">
<path fill="none" stroke="#63b8ff" d="M1120.07,-243.7C1180.27,-235.35 1273.88,-221.77 1354.62,-207.5 1359.85,-206.58 1365.28,-205.56 1370.7,-204.52"/>
<polygon fill="#63b8ff" stroke="#63b8ff" points="1371.13,-208 1380.26,-202.64 1369.78,-201.13 1371.13,-208"/>
</a>
</g>
</g>
<!-- Node31&#45;&gt;Node9 -->
<g id="edge44_Node000031_Node000009" class="edge">
<title>Node31&#45;&gt;Node9</title>
<g id="a_edge44_Node000031_Node000009"><a xlink:title=" ">
<path fill="none" stroke="#63b8ff" d="M497.12,-243.08C488.41,-234.82 476.66,-221.77 471.62,-207.5 457.06,-166.25 465.62,-113.99 472.21,-85.91"/>
<polygon fill="#63b8ff" stroke="#63b8ff" points="475.58,-86.85 474.63,-76.3 468.79,-85.14 475.58,-86.85"/>
</a>
</g>
</g>
<!-- Node31&#45;&gt;Node11 -->
<g id="edge47_Node000031_Node000011" class="edge">
<title>Node31&#45;&gt;Node11</title>
<g id="a_edge47_Node000031_Node000011"><a xlink:title=" ">
<path fill="none" stroke="#63b8ff" d="M494.33,-243.1C483.53,-235.05 468.8,-222.26 460.62,-207.5 427.33,-147.38 387.44,-106.14 433.62,-55.25 460.84,-25.26 731.78,-14.8 844.17,-11.73"/>
<polygon fill="#63b8ff" stroke="#63b8ff" points="844.07,-15.24 853.97,-11.47 843.88,-8.24 844.07,-15.24"/>
</a>
</g>
</g>
<!-- Node32 -->
<g id="Node000032" class="node">
<title>Node32</title>
<g id="a_Node000032"><a xlink:title=" ">
<polygon fill="#e0e0e0" stroke="#999999" points="534.75,-201.88 480.5,-201.88 480.5,-182.62 534.75,-182.62 534.75,-201.88"/>
<text text-anchor="middle" x="507.62" y="-187.43" font-family="Helvetica,sans-Serif" font-size="11.00">sstream</text>
</a>
</g>
</g>
<!-- Node31&#45;&gt;Node32 -->
<g id="edge45_Node000031_Node000032" class="edge">
<title>Node31&#45;&gt;Node32</title>
<g id="a_edge45_Node000031_Node000032"><a xlink:title=" ">
<path fill="none" stroke="#63b8ff" d="M507.62,-243.18C507.62,-235.4 507.62,-223.83 507.62,-213.78"/>
<polygon fill="#63b8ff" stroke="#63b8ff" points="511.13,-213.79 507.63,-203.79 504.13,-213.79 511.13,-213.79"/>
</a>
</g>
</g>
<!-- Node33 -->
<g id="Node000033" class="node">
<title>Node33</title>
<g id="a_Node000033"><a xlink:title=" ">
<polygon fill="#e0e0e0" stroke="#999999" points="600,-201.88 553.25,-201.88 553.25,-182.62 600,-182.62 600,-201.88"/>
<text text-anchor="middle" x="576.62" y="-187.43" font-family="Helvetica,sans-Serif" font-size="11.00">iosfwd</text>
</a>
</g>
</g>
<!-- Node31&#45;&gt;Node33 -->
<g id="edge46_Node000031_Node000033" class="edge">
<title>Node31&#45;&gt;Node33</title>
<g id="a_edge46_Node000031_Node000033"><a xlink:title=" ">
<path fill="none" stroke="#63b8ff" d="M518.1,-243.18C528.54,-234.28 544.8,-220.41 557.53,-209.54"/>
<polygon fill="#63b8ff" stroke="#63b8ff" points="559.56,-212.41 564.9,-203.26 555.02,-207.09 559.56,-212.41"/>
</a>
</g>
</g>
<!-- Node34&#45;&gt;Node7 -->
<g id="edge51_Node000034_Node000007" class="edge">
<title>Node34&#45;&gt;Node7</title>
<g id="a_edge51_Node000034_Node000007"><a xlink:title=" ">
<path fill="none" stroke="#63b8ff" d="M770.16,-370.66C761.06,-360.94 746.47,-344.65 735.62,-329.25 716.03,-301.42 711.28,-293.93 697.62,-262.75 690.48,-246.43 684.54,-227.05 680.64,-212.9"/>
<polygon fill="#63b8ff" stroke="#63b8ff" points="684.09,-212.26 678.15,-203.49 677.32,-214.05 684.09,-212.26"/>
</a>
</g>
</g>
<!-- Node34&#45;&gt;Node16 -->
<g id="edge53_Node000034_Node000016" class="edge">
<title>Node34&#45;&gt;Node16</title>
<g id="a_edge53_Node000034_Node000016"><a xlink:title=" ">
<path fill="none" stroke="#63b8ff" d="M786.05,-370.54C797.46,-355.63 817.02,-324.81 807.62,-298.75 803.89,-288.41 796.61,-278.76 789.48,-271.11"/>
<polygon fill="#63b8ff" stroke="#63b8ff" points="792.05,-268.73 782.49,-264.18 787.13,-273.7 792.05,-268.73"/>
</a>
</g>
</g>
<!-- Node34&#45;&gt;Node27 -->
<g id="edge52_Node000034_Node000027" class="edge">
<title>Node34&#45;&gt;Node27</title>
<g id="a_edge52_Node000034_Node000027"><a xlink:title=" ">
<path fill="none" stroke="#63b8ff" d="M804.03,-370.4C834.99,-359.3 887.49,-340.49 922.61,-327.91"/>
<polygon fill="#63b8ff" stroke="#63b8ff" points="923.69,-331.24 931.92,-324.57 921.33,-324.65 923.69,-331.24"/>
</a>
</g>
</g>
<!-- Node35 -->
<g id="Node000035" class="node">
<title>Node35</title>
<g id="a_Node000035"><a xlink:title=" ">
<polygon fill="#e0e0e0" stroke="#999999" points="798.38,-323.62 744.88,-323.62 744.88,-304.38 798.38,-304.38 798.38,-323.62"/>
<text text-anchor="middle" x="771.62" y="-309.18" font-family="Helvetica,sans-Serif" font-size="11.00">typeinfo</text>
</a>
</g>
</g>
<!-- Node34&#45;&gt;Node35 -->
<g id="edge50_Node000034_Node000035" class="edge">
<title>Node34&#45;&gt;Node35</title>
<g id="a_edge50_Node000034_Node000035"><a xlink:title=" ">
<path fill="none" stroke="#63b8ff" d="M777.65,-370.53C776.66,-361.39 775.09,-346.89 773.8,-335"/>
<polygon fill="#63b8ff" stroke="#63b8ff" points="777.31,-334.96 772.75,-325.4 770.35,-335.72 777.31,-334.96"/>
</a>
</g>
</g>
<!-- Node34&#45;&gt;Node36 -->
<g id="edge54_Node000034_Node000036" class="edge">
<title>Node34&#45;&gt;Node36</title>
<g id="a_edge54_Node000034_Node000036"><a xlink:title=" ">
<path fill="none" stroke="#63b8ff" d="M833.96,-370.4C907.03,-358.37 1035.22,-337.28 1110.58,-324.88"/>
<polygon fill="#63b8ff" stroke="#63b8ff" points="1110.96,-328.36 1120.26,-323.29 1109.82,-321.46 1110.96,-328.36"/>
</a>
</g>
</g>
<!-- Node36&#45;&gt;Node11 -->
<g id="edge55_Node000036_Node000011" class="edge">
<title>Node36&#45;&gt;Node11</title>
<g id="a_edge55_Node000036_Node000011"><a xlink:title=" ">
<path fill="none" stroke="#63b8ff" d="M1219.27,-308.05C1321.98,-296.25 1551.62,-262.15 1551.62,-193.25 1551.62,-193.25 1551.62,-193.25 1551.62,-124.75 1551.62,-62.79 1093.53,-24.82 941.21,-13.9"/>
<polygon fill="#63b8ff" stroke="#63b8ff" points="941.68,-10.43 931.45,-13.21 941.18,-17.41 941.68,-10.43"/>
</a>
</g>
</g>
<!-- Node37 -->
<g id="Node000037" class="node">
<title>Node37</title>
<g id="a_Node000037"><a xlink:title=" ">
<polygon fill="#e0e0e0" stroke="#999999" points="1203.38,-262.75 1137.88,-262.75 1137.88,-243.5 1203.38,-243.5 1203.38,-262.75"/>
<text text-anchor="middle" x="1170.62" y="-248.3" font-family="Helvetica,sans-Serif" font-size="11.00">fmt/color.h</text>
</a>
</g>
</g>
<!-- Node36&#45;&gt;Node37 -->
<g id="edge56_Node000036_Node000037" class="edge">
<title>Node36&#45;&gt;Node37</title>
<g id="a_edge56_Node000036_Node000037"><a xlink:title=" ">
<path fill="none" stroke="#63b8ff" d="M1170.62,-298.45C1170.62,-291.21 1170.62,-282.34 1170.62,-274.44"/>
<polygon fill="#63b8ff" stroke="#63b8ff" points="1174.13,-274.71 1170.63,-264.71 1167.13,-274.71 1174.13,-274.71"/>
</a>
</g>
</g>
<!-- Node38 -->
<g id="Node000038" class="node">
<title>Node38</title>
<g id="a_Node000038"><a xlink:href="enumerations_8h_source.html" target="_top" xlink:title=" ">
<polygon fill="white" stroke="#666666" points="1371.75,-262.75 1221.5,-262.75 1221.5,-243.5 1371.75,-243.5 1371.75,-262.75"/>
<text text-anchor="middle" x="1296.62" y="-248.3" font-family="Helvetica,sans-Serif" font-size="11.00">floppy/detail/enumerations.h</text>
</a>
</g>
</g>
<!-- Node36&#45;&gt;Node38 -->
<g id="edge57_Node000036_Node000038" class="edge">
<title>Node36&#45;&gt;Node38</title>
<g id="a_edge57_Node000036_Node000038"><a xlink:title=" ">
<path fill="none" stroke="#63b8ff" d="M1202.1,-298.3C1221.93,-289.03 1247.38,-277.13 1266.88,-268.02"/>
<polygon fill="#63b8ff" stroke="#63b8ff" points="1268.35,-271.2 1275.93,-263.79 1265.39,-264.86 1268.35,-271.2"/>
</a>
</g>
</g>
<!-- Node39&#45;&gt;Node6 -->
<g id="edge63_Node000039_Node000006" class="edge">
<title>Node39&#45;&gt;Node6</title>
<g id="a_edge63_Node000039_Node000006"><a xlink:title=" ">
<path fill="none" stroke="#63b8ff" d="M472.96,-303.93C432.54,-293.35 365.81,-275.89 323.06,-264.71"/>
<polygon fill="#63b8ff" stroke="#63b8ff" points="323.97,-261.33 313.41,-262.18 322.2,-268.1 323.97,-261.33"/>
</a>
</g>
</g>
<!-- Node39&#45;&gt;Node7 -->
<g id="edge65_Node000039_Node000007" class="edge">
<title>Node39&#45;&gt;Node7</title>
<g id="a_edge65_Node000039_Node000007"><a xlink:title=" ">
<path fill="none" stroke="#63b8ff" d="M521.81,-304C537.21,-294.14 562.45,-277.73 583.62,-262.75 608.7,-245.02 636.76,-223.58 655.23,-209.24"/>
<polygon fill="#63b8ff" stroke="#63b8ff" points="657.25,-212.1 662.99,-203.19 652.95,-206.58 657.25,-212.1"/>
</a>
</g>
</g>
<!-- Node39&#45;&gt;Node15 -->
<g id="edge64_Node000039_Node000015" class="edge">
<title>Node39&#45;&gt;Node15</title>
<g id="a_edge64_Node000039_Node000015"><a xlink:title=" ">
<path fill="none" stroke="#63b8ff" d="M445.73,-305.47C416.03,-298.82 382.1,-286.31 359.62,-262.75 337.44,-239.49 339.62,-225.39 339.62,-193.25 339.62,-193.25 339.62,-193.25 339.62,-124.75 339.62,-74.38 395.43,-41.02 433.92,-24.01"/>
<polygon fill="#63b8ff" stroke="#63b8ff" points="435.01,-27.35 442.86,-20.23 432.28,-20.9 435.01,-27.35"/>
</a>
</g>
</g>
<!-- Node39&#45;&gt;Node16 -->
<g id="edge67_Node000039_Node000016" class="edge">
<title>Node39&#45;&gt;Node16</title>
<g id="a_edge67_Node000039_Node000016"><a xlink:title=" ">
<path fill="none" stroke="#63b8ff" d="M548.14,-303.93C593.99,-293.67 668.79,-276.92 718.84,-265.72"/>
<polygon fill="#63b8ff" stroke="#63b8ff" points="719.59,-269.14 728.58,-263.54 718.06,-262.31 719.59,-269.14"/>
</a>
</g>
</g>
<!-- Node39&#45;&gt;Node31 -->
<g id="edge66_Node000039_Node000031" class="edge">
<title>Node39&#45;&gt;Node31</title>
<g id="a_edge66_Node000039_Node000031"><a xlink:title=" ">
<path fill="none" stroke="#63b8ff" d="M507.62,-304.06C507.62,-296.28 507.62,-284.7 507.62,-274.66"/>
<polygon fill="#63b8ff" stroke="#63b8ff" points="511.13,-274.66 507.63,-264.66 504.13,-274.66 511.13,-274.66"/>
</a>
</g>
</g>
<!-- Node40 -->
<g id="Node000040" class="node">
<title>Node40</title>
<g id="a_Node000040"><a xlink:title=" ">
<polygon fill="#e0e0e0" stroke="#999999" points="423.12,-262.75 368.12,-262.75 368.12,-243.5 423.12,-243.5 423.12,-262.75"/>
<text text-anchor="middle" x="395.62" y="-248.3" font-family="Helvetica,sans-Serif" font-size="11.00">memory</text>
</a>
</g>
</g>
<!-- Node39&#45;&gt;Node40 -->
<g id="edge62_Node000039_Node000040" class="edge">
<title>Node39&#45;&gt;Node40</title>
<g id="a_edge62_Node000039_Node000040"><a xlink:title=" ">
<path fill="none" stroke="#63b8ff" d="M490.61,-304.06C472.61,-294.59 443.92,-279.51 422.78,-268.4"/>
<polygon fill="#63b8ff" stroke="#63b8ff" points="424.62,-265.41 414.14,-263.86 421.36,-271.61 424.62,-265.41"/>
</a>
</g>
</g>
<!-- Node41&#45;&gt;Node2 -->
<g id="edge74_Node000041_Node000002" class="edge">
<title>Node41&#45;&gt;Node2</title>
<g id="a_edge74_Node000041_Node000002"><a xlink:title=" ">
<path fill="none" stroke="#63b8ff" d="M221.47,-364.86C208.86,-354.69 192.07,-341.16 179.16,-330.75"/>
<polygon fill="#63b8ff" stroke="#63b8ff" points="181.73,-328.32 171.75,-324.77 177.33,-333.77 181.73,-328.32"/>
</a>
</g>
</g>
<!-- Node41&#45;&gt;Node16 -->
<g id="edge75_Node000041_Node000016" class="edge">
<title>Node41&#45;&gt;Node16</title>
<g id="a_edge75_Node000041_Node000016"><a xlink:title=" ">
<path fill="none" stroke="#63b8ff" d="M291.76,-375.45C358.96,-369.4 479.01,-355.76 578.62,-329.25 638.28,-313.38 704.71,-284.79 741.7,-267.83"/>
<polygon fill="#63b8ff" stroke="#63b8ff" points="742.78,-271.18 750.38,-263.8 739.84,-264.83 742.78,-271.18"/>
</a>
</g>
</g>
</g>
</svg>
