<?xml version="1.0" encoding="UTF-8" standalone="no"?>
<!DOCTYPE svg PUBLIC "-//W3C//DTD SVG 1.1//EN"
 "http://www.w3.org/Graphics/SVG/1.1/DTD/svg11.dtd">
<!-- Generated by graphviz version 10.0.1 (0)
 -->
<!-- Title: scale.h Pages: 1 -->
<svg width="282pt" height="359pt"
 viewBox="0.00 0.00 282.00 358.75" xmlns="http://www.w3.org/2000/svg" xmlns:xlink="http://www.w3.org/1999/xlink">

<svg id="main" version="1.1" xmlns="http://www.w3.org/2000/svg" xmlns:xlink="http://www.w3.org/1999/xlink" xml:space="preserve" onload="init(evt)">
<style type="text/css"><![CDATA[
.node, .edge {opacity: 0.7;}
.node.selected, .edge.selected {opacity: 1;}
.edge:hover path { stroke: red; }
.edge:hover polygon { stroke: red; fill: red; }
]]></style>
<script type="application/ecmascript" xlink:href="svg.min.js"/>
<svg id="graph" class="graph">
<g id="graph0" class="graph" transform="scale(1 1) rotate(0) translate(4 354.75)">
<title>scale.h</title>
<!-- Node1 -->
<g id="Node000001" class="node">
<title>Node1</title>
<g id="a_Node000001"><a xlink:title="A scaling factor between two different units of measurement.">
<polygon fill="#999999" stroke="#666666" points="76.88,-350.75 27.12,-350.75 27.12,-331.5 76.88,-331.5 76.88,-350.75"/>
<text text-anchor="middle" x="52" y="-336.3" font-family="Helvetica,sans-Serif" font-size="11.00">scale.h</text>
</a>
</g>
</g>
<!-- Node2 -->
<g id="Node000002" class="node">
<title>Node2</title>
<g id="a_Node000002"><a xlink:href="euclid_8h.html" target="_top" xlink:title="Small collection of classes and functions for geometric types with a focus on 2d graphics and layout.">
<polygon fill="white" stroke="#666666" points="201.38,-19.25 148.62,-19.25 148.62,0 201.38,0 201.38,-19.25"/>
<text text-anchor="middle" x="175" y="-4.8" font-family="Helvetica,sans-Serif" font-size="11.00">euclid.h</text>
</a>
</g>
</g>
<!-- Node1&#45;&gt;Node2 -->
<g id="edge1_Node000001_Node000002" class="edge">
<title>Node1&#45;&gt;Node2</title>
<g id="a_edge1_Node000001_Node000002"><a xlink:title=" ">
<path fill="none" stroke="#63b8ff" d="M37.44,-322.45C22.05,-301.93 0,-266.45 0,-231.62 0,-231.62 0,-231.62 0,-119.12 0,-50.13 99.47,-23.5 148.42,-14.57"/>
<polygon fill="#63b8ff" stroke="#63b8ff" points="34.47,-324.34 43.39,-330.05 39.98,-320.02 34.47,-324.34"/>
</a>
</g>
</g>
<!-- Node3 -->
<g id="Node000003" class="node">
<title>Node3</title>
<g id="a_Node000003"><a xlink:href="length_8h.html" target="_top" xlink:title="A one&#45;dimensional distance with associated unit of measurement.">
<polygon fill="white" stroke="#666666" points="169.12,-295.5 114.88,-295.5 114.88,-276.25 169.12,-276.25 169.12,-295.5"/>
<text text-anchor="middle" x="142" y="-281.05" font-family="Helvetica,sans-Serif" font-size="11.00">length.h</text>
</a>
</g>
</g>
<!-- Node1&#45;&gt;Node3 -->
<g id="edge2_Node000001_Node000003" class="edge">
<title>Node1&#45;&gt;Node3</title>
<g id="a_edge2_Node000001_Node000003"><a xlink:title=" ">
<path fill="none" stroke="#63b8ff" d="M77.02,-325.32C92.94,-315.9 113.06,-304 126.66,-295.95"/>
<polygon fill="#63b8ff" stroke="#63b8ff" points="75.39,-322.22 68.57,-330.32 78.96,-328.24 75.39,-322.22"/>
</a>
</g>
</g>
<!-- Node3&#45;&gt;Node2 -->
<g id="edge3_Node000003_Node000002" class="edge">
<title>Node3&#45;&gt;Node2</title>
<g id="a_edge3_Node000003_Node000002"><a xlink:title=" ">
<path fill="none" stroke="#63b8ff" d="M179.86,-272.17C218.87,-256.41 274,-225.45 274,-176.38 274,-176.38 274,-176.38 274,-119.12 274,-71.44 221.18,-35.53 192.7,-19.63"/>
<polygon fill="#63b8ff" stroke="#63b8ff" points="178.84,-268.82 170.76,-275.68 181.35,-275.35 178.84,-268.82"/>
</a>
</g>
</g>
<!-- Node4 -->
<g id="Node000004" class="node">
<title>Node4</title>
<g id="a_Node000004"><a xlink:href="nt__traits2d_8h.html" target="_top" xlink:title=" ">
<polygon fill="white" stroke="#666666" points="146.62,-240.25 71.38,-240.25 71.38,-221 146.62,-221 146.62,-240.25"/>
<text text-anchor="middle" x="109" y="-225.8" font-family="Helvetica,sans-Serif" font-size="11.00">nt_traits2d.h</text>
</a>
</g>
</g>
<!-- Node3&#45;&gt;Node4 -->
<g id="edge4_Node000003_Node000004" class="edge">
<title>Node3&#45;&gt;Node4</title>
<g id="a_edge4_Node000003_Node000004"><a xlink:title=" ">
<path fill="none" stroke="#63b8ff" d="M130.53,-266.37C125.12,-257.64 118.92,-247.64 114.57,-240.61"/>
<polygon fill="#63b8ff" stroke="#63b8ff" points="127.51,-268.14 135.75,-274.8 133.46,-264.45 127.51,-268.14"/>
</a>
</g>
</g>
<!-- Node5 -->
<g id="Node000005" class="node">
<title>Node5</title>
<g id="a_Node000005"><a xlink:href="point2d_8h.html" target="_top" xlink:title="A two&#45;dimensional point tagged with a unit.">
<polygon fill="white" stroke="#666666" points="144.12,-74.5 83.88,-74.5 83.88,-55.25 144.12,-55.25 144.12,-74.5"/>
<text text-anchor="middle" x="114" y="-60.05" font-family="Helvetica,sans-Serif" font-size="11.00">point2d.h</text>
</a>
</g>
</g>
<!-- Node3&#45;&gt;Node5 -->
<g id="edge14_Node000003_Node000005" class="edge">
<title>Node3&#45;&gt;Node5</title>
<g id="a_edge14_Node000003_Node000005"><a xlink:title=" ">
<path fill="none" stroke="#63b8ff" d="M104.29,-273.5C88.3,-266.6 71.25,-256 62,-240.25 28.25,-182.77 85.46,-101.58 106.62,-74.82"/>
<polygon fill="#63b8ff" stroke="#63b8ff" points="102.56,-276.58 113.14,-276.97 105.11,-270.06 102.56,-276.58"/>
</a>
</g>
</g>
<!-- Node6 -->
<g id="Node000006" class="node">
<title>Node6</title>
<g id="a_Node000006"><a xlink:href="size2d_8h.html" target="_top" xlink:title="A two&#45;dimensional size tagged with a unit.">
<polygon fill="white" stroke="#666666" points="197.88,-185 142.12,-185 142.12,-165.75 197.88,-165.75 197.88,-185"/>
<text text-anchor="middle" x="170" y="-170.55" font-family="Helvetica,sans-Serif" font-size="11.00">size2d.h</text>
</a>
</g>
</g>
<!-- Node3&#45;&gt;Node6 -->
<g id="edge15_Node000003_Node000006" class="edge">
<title>Node3&#45;&gt;Node6</title>
<g id="a_edge15_Node000003_Node000006"><a xlink:title=" ">
<path fill="none" stroke="#63b8ff" d="M148.58,-265.21C151.06,-257.48 153.81,-248.49 156,-240.25 161.19,-220.72 165.93,-197.47 168.34,-185.11"/>
<polygon fill="#63b8ff" stroke="#63b8ff" points="145.29,-264.02 145.49,-274.61 151.94,-266.2 145.29,-264.02"/>
</a>
</g>
</g>
<!-- Node7 -->
<g id="Node000007" class="node">
<title>Node7</title>
<g id="a_Node000007"><a xlink:href="vector2d_8h.html" target="_top" xlink:title="A two&#45;dimensional vector tagged with a unit.">
<polygon fill="white" stroke="#666666" points="208.12,-129.75 141.88,-129.75 141.88,-110.5 208.12,-110.5 208.12,-129.75"/>
<text text-anchor="middle" x="175" y="-115.3" font-family="Helvetica,sans-Serif" font-size="11.00">vector2d.h</text>
</a>
</g>
</g>
<!-- Node3&#45;&gt;Node7 -->
<g id="edge16_Node000003_Node000007" class="edge">
<title>Node3&#45;&gt;Node7</title>
<g id="a_edge16_Node000003_Node000007"><a xlink:title=" ">
<path fill="none" stroke="#63b8ff" d="M158.14,-267.32C174.17,-248.55 197.67,-217.15 207,-185 209.38,-176.78 209.62,-173.89 207,-165.75 202.51,-151.77 191.84,-138.46 184.05,-130.08"/>
<polygon fill="#63b8ff" stroke="#63b8ff" points="155.55,-264.96 151.55,-274.78 160.79,-269.6 155.55,-264.96"/>
</a>
</g>
</g>
<!-- Node4&#45;&gt;Node5 -->
<g id="edge5_Node000004_Node000005" class="edge">
<title>Node4&#45;&gt;Node5</title>
<g id="a_edge5_Node000004_Node000005"><a xlink:title=" ">
<path fill="none" stroke="#63b8ff" d="M109.62,-209.47C110.71,-173.61 112.95,-100.1 113.73,-74.72"/>
<polygon fill="#63b8ff" stroke="#63b8ff" points="106.12,-209.21 109.32,-219.31 113.12,-209.42 106.12,-209.21"/>
</a>
</g>
</g>
<!-- Node4&#45;&gt;Node6 -->
<g id="edge7_Node000004_Node000006" class="edge">
<title>Node4&#45;&gt;Node6</title>
<g id="a_edge7_Node000004_Node000006"><a xlink:title=" ">
<path fill="none" stroke="#63b8ff" d="M127.89,-213.14C138.42,-203.94 151.12,-192.85 159.81,-185.27"/>
<polygon fill="#63b8ff" stroke="#63b8ff" points="125.72,-210.38 120.49,-219.6 130.32,-215.66 125.72,-210.38"/>
</a>
</g>
</g>
<!-- Node4&#45;&gt;Node7 -->
<g id="edge13_Node000004_Node000007" class="edge">
<title>Node4&#45;&gt;Node7</title>
<g id="a_edge13_Node000004_Node000007"><a xlink:title=" ">
<path fill="none" stroke="#63b8ff" d="M114.22,-209.81C118.2,-196.7 124.45,-179.46 133,-165.75 141.66,-151.84 155.1,-138.52 164.44,-130.11"/>
<polygon fill="#63b8ff" stroke="#63b8ff" points="110.86,-208.83 111.52,-219.41 117.6,-210.73 110.86,-208.83"/>
</a>
</g>
</g>
<!-- Node5&#45;&gt;Node2 -->
<g id="edge6_Node000005_Node000002" class="edge">
<title>Node5&#45;&gt;Node2</title>
<g id="a_edge6_Node000005_Node000002"><a xlink:title=" ">
<path fill="none" stroke="#63b8ff" d="M132.89,-47.39C143.42,-38.19 156.12,-27.1 164.81,-19.52"/>
<polygon fill="#63b8ff" stroke="#63b8ff" points="130.72,-44.63 125.49,-53.85 135.32,-49.91 130.72,-44.63"/>
</a>
</g>
</g>
<!-- Node6&#45;&gt;Node2 -->
<g id="edge8_Node000006_Node000002" class="edge">
<title>Node6&#45;&gt;Node2</title>
<g id="a_edge8_Node000006_Node000002"><a xlink:title=" ">
<path fill="none" stroke="#63b8ff" d="M193.41,-158.69C202.58,-151.14 212.07,-141.23 217,-129.75 234.22,-89.65 199.29,-39.91 182.88,-19.75"/>
<polygon fill="#63b8ff" stroke="#63b8ff" points="191.59,-155.68 185.73,-164.51 195.82,-161.26 191.59,-155.68"/>
</a>
</g>
</g>
<!-- Node6&#45;&gt;Node5 -->
<g id="edge9_Node000006_Node000005" class="edge">
<title>Node6&#45;&gt;Node5</title>
<g id="a_edge9_Node000006_Node000005"><a xlink:title=" ">
<path fill="none" stroke="#63b8ff" d="M152.84,-157.06C145.88,-149.25 138.25,-139.58 133,-129.75 123.3,-111.59 117.9,-87.8 115.51,-74.99"/>
<polygon fill="#63b8ff" stroke="#63b8ff" points="150.11,-159.27 159.5,-164.17 155.22,-154.48 150.11,-159.27"/>
</a>
</g>
</g>
<!-- Node6&#45;&gt;Node7 -->
<g id="edge10_Node000006_Node000007" class="edge">
<title>Node6&#45;&gt;Node7</title>
<g id="a_edge10_Node000006_Node000007"><a xlink:title=" ">
<path fill="none" stroke="#63b8ff" d="M171.9,-154.13C172.68,-145.84 173.54,-136.67 174.16,-130.11"/>
<polygon fill="#63b8ff" stroke="#63b8ff" points="168.42,-153.79 170.97,-164.07 175.39,-154.45 168.42,-153.79"/>
</a>
</g>
</g>
<!-- Node7&#45;&gt;Node2 -->
<g id="edge11_Node000007_Node000002" class="edge">
<title>Node7&#45;&gt;Node2</title>
<g id="a_edge11_Node000007_Node000002"><a xlink:title=" ">
<path fill="none" stroke="#63b8ff" d="M175,-98.78C175,-75.05 175,-36.89 175,-19.63"/>
<polygon fill="#63b8ff" stroke="#63b8ff" points="171.5,-98.73 175,-108.73 178.5,-98.73 171.5,-98.73"/>
</a>
</g>
</g>
<!-- Node7&#45;&gt;Node5 -->
<g id="edge12_Node000007_Node000005" class="edge">
<title>Node7&#45;&gt;Node5</title>
<g id="a_edge12_Node000007_Node000005"><a xlink:title=" ">
<path fill="none" stroke="#63b8ff" d="M156.11,-102.64C145.58,-93.44 132.88,-82.35 124.19,-74.77"/>
<polygon fill="#63b8ff" stroke="#63b8ff" points="153.68,-105.16 163.51,-109.1 158.28,-99.88 153.68,-105.16"/>
</a>
</g>
</g>
</g>
</svg>
</svg>

<style type='text/css'>
<![CDATA[
[data-mouse-over-selected='false'] { opacity: 0.7; }
[data-mouse-over-selected='true']  { opacity: 1.0; }
]]>
</style>
<script type="application/ecmascript"><![CDATA[
document.addEventListener('DOMContentLoaded', (event) => {
  highlightEdges();
  highlightAdjacentNodes();
});
]]></script>
</svg>
