<?xml version="1.0" encoding="UTF-8" standalone="no"?>
<!DOCTYPE svg PUBLIC "-//W3C//DTD SVG 1.1//EN"
 "http://www.w3.org/Graphics/SVG/1.1/DTD/svg11.dtd">
<!-- Generated by graphviz version 10.0.1 (0)
 -->
<!-- Title: scale.h Pages: 1 -->
<svg width="1391pt" height="581pt"
 viewBox="0.00 0.00 1390.50 580.75" xmlns="http://www.w3.org/2000/svg" xmlns:xlink="http://www.w3.org/1999/xlink">
<g id="graph0" class="graph" transform="scale(1 1) rotate(0) translate(4 576.75)">
<title>scale.h</title>
<!-- Node1 -->
<g id="Node000001" class="node">
<title>Node1</title>
<g id="a_Node000001"><a xlink:title="A scaling factor between two different units of measurement.">
<polygon fill="#999999" stroke="#666666" points="263.38,-572.75 213.62,-572.75 213.62,-553.5 263.38,-553.5 263.38,-572.75"/>
<text text-anchor="middle" x="238.5" y="-558.3" font-family="Helvetica,sans-Serif" font-size="11.00">scale.h</text>
</a>
</g>
</g>
<!-- Node2 -->
<g id="Node000002" class="node">
<title>Node2</title>
<g id="a_Node000002"><a xlink:href="math_8h_source.html" target="_top" xlink:title=" ">
<polygon fill="white" stroke="#666666" points="293,-323.62 184,-323.62 184,-304.38 293,-304.38 293,-323.62"/>
<text text-anchor="middle" x="238.5" y="-309.18" font-family="Helvetica,sans-Serif" font-size="11.00">floppy/detail/math.h</text>
</a>
</g>
</g>
<!-- Node1&#45;&gt;Node2 -->
<g id="edge1_Node000001_Node000002" class="edge">
<title>Node1&#45;&gt;Node2</title>
<g id="a_edge1_Node000001_Node000002"><a xlink:title=" ">
<path fill="none" stroke="#63b8ff" d="M231.16,-553.16C208.8,-524.7 144.98,-434.18 177.5,-365.25 184.48,-350.46 198.17,-338.56 210.82,-330.05"/>
<polygon fill="#63b8ff" stroke="#63b8ff" points="212.67,-333.02 219.31,-324.77 208.97,-327.08 212.67,-333.02"/>
</a>
</g>
</g>
<!-- Node25 -->
<g id="Node000025" class="node">
<title>Node25</title>
<g id="a_Node000025"><a xlink:href="traits_8h_source.html" target="_top" xlink:title=" ">
<polygon fill="white" stroke="#666666" points="660.38,-517.5 580.62,-517.5 580.62,-498.25 660.38,-498.25 660.38,-517.5"/>
<text text-anchor="middle" x="620.5" y="-503.05" font-family="Helvetica,sans-Serif" font-size="11.00">floppy/traits.h</text>
</a>
</g>
</g>
<!-- Node1&#45;&gt;Node25 -->
<g id="edge29_Node000001_Node000025" class="edge">
<title>Node1&#45;&gt;Node25</title>
<g id="a_edge29_Node000001_Node000025"><a xlink:title=" ">
<path fill="none" stroke="#63b8ff" d="M263.86,-558.59C325.85,-549.95 486.03,-527.62 568.99,-516.05"/>
<polygon fill="#63b8ff" stroke="#63b8ff" points="569.25,-519.55 578.67,-514.71 568.28,-512.62 569.25,-519.55"/>
</a>
</g>
</g>
<!-- Node41 -->
<g id="Node000041" class="node">
<title>Node41</title>
<g id="a_Node000041"><a xlink:href="nt__traits_8h.html" target="_top" xlink:title=" ">
<polygon fill="white" stroke="#666666" points="290.38,-395.75 186.62,-395.75 186.62,-365.25 290.38,-365.25 290.38,-395.75"/>
<text text-anchor="start" x="194.62" y="-381.3" font-family="Helvetica,sans-Serif" font-size="11.00">floppy/euclid/detail</text>
<text text-anchor="middle" x="238.5" y="-370.05" font-family="Helvetica,sans-Serif" font-size="11.00">/nt_traits.h</text>
</a>
</g>
</g>
<!-- Node1&#45;&gt;Node41 -->
<g id="edge72_Node000001_Node000041" class="edge">
<title>Node1&#45;&gt;Node41</title>
<g id="a_edge72_Node000001_Node000041"><a xlink:title=" ">
<path fill="none" stroke="#63b8ff" d="M238.5,-553.41C238.5,-527.24 238.5,-448.56 238.5,-407.33"/>
<polygon fill="#63b8ff" stroke="#63b8ff" points="242,-407.59 238.5,-397.59 235,-407.59 242,-407.59"/>
</a>
</g>
</g>
<!-- Node3 -->
<g id="Node000003" class="node">
<title>Node3</title>
<g id="a_Node000003"><a xlink:title=" ">
<polygon fill="#e0e0e0" stroke="#999999" points="225.12,-262.75 179.88,-262.75 179.88,-243.5 225.12,-243.5 225.12,-262.75"/>
<text text-anchor="middle" x="202.5" y="-248.3" font-family="Helvetica,sans-Serif" font-size="11.00">cmath</text>
</a>
</g>
</g>
<!-- Node2&#45;&gt;Node3 -->
<g id="edge2_Node000002_Node000003" class="edge">
<title>Node2&#45;&gt;Node3</title>
<g id="a_edge2_Node000002_Node000003"><a xlink:title=" ">
<path fill="none" stroke="#63b8ff" d="M233.03,-304.06C227.96,-295.76 220.24,-283.14 213.84,-272.67"/>
<polygon fill="#63b8ff" stroke="#63b8ff" points="217.01,-271.15 208.81,-264.44 211.04,-274.8 217.01,-271.15"/>
</a>
</g>
</g>
<!-- Node4 -->
<g id="Node000004" class="node">
<title>Node4</title>
<g id="a_Node000004"><a xlink:title=" ">
<polygon fill="#e0e0e0" stroke="#999999" points="216.5,-201.88 176.5,-201.88 176.5,-182.62 216.5,-182.62 216.5,-201.88"/>
<text text-anchor="middle" x="196.5" y="-187.43" font-family="Helvetica,sans-Serif" font-size="11.00">limits</text>
</a>
</g>
</g>
<!-- Node2&#45;&gt;Node4 -->
<g id="edge3_Node000002_Node000004" class="edge">
<title>Node2&#45;&gt;Node4</title>
<g id="a_edge3_Node000002_Node000004"><a xlink:title=" ">
<path fill="none" stroke="#63b8ff" d="M183.76,-309.05C152.11,-303.62 114.66,-291.14 94.5,-262.75 72.91,-232.35 127.79,-211.17 165.16,-200.72"/>
<polygon fill="#63b8ff" stroke="#63b8ff" points="165.86,-204.15 174.63,-198.21 164.07,-197.39 165.86,-204.15"/>
</a>
</g>
</g>
<!-- Node5 -->
<g id="Node000005" class="node">
<title>Node5</title>
<g id="a_Node000005"><a xlink:title=" ">
<polygon fill="#e0e0e0" stroke="#999999" points="161.5,-262.75 103.5,-262.75 103.5,-243.5 161.5,-243.5 161.5,-262.75"/>
<text text-anchor="middle" x="132.5" y="-248.3" font-family="Helvetica,sans-Serif" font-size="11.00">numbers</text>
</a>
</g>
</g>
<!-- Node2&#45;&gt;Node5 -->
<g id="edge4_Node000002_Node000005" class="edge">
<title>Node2&#45;&gt;Node5</title>
<g id="a_edge4_Node000002_Node000005"><a xlink:title=" ">
<path fill="none" stroke="#63b8ff" d="M222.4,-304.06C205.51,-294.68 178.7,-279.79 158.75,-268.7"/>
<polygon fill="#63b8ff" stroke="#63b8ff" points="160.52,-265.68 150.07,-263.89 157.12,-271.8 160.52,-265.68"/>
</a>
</g>
</g>
<!-- Node6 -->
<g id="Node000006" class="node">
<title>Node6</title>
<g id="a_Node000006"><a xlink:title=" ">
<polygon fill="#e0e0e0" stroke="#999999" points="885.5,-262.75 827.5,-262.75 827.5,-243.5 885.5,-243.5 885.5,-262.75"/>
<text text-anchor="middle" x="856.5" y="-248.3" font-family="Helvetica,sans-Serif" font-size="11.00">compare</text>
</a>
</g>
</g>
<!-- Node2&#45;&gt;Node6 -->
<g id="edge5_Node000002_Node000006" class="edge">
<title>Node2&#45;&gt;Node6</title>
<g id="a_edge5_Node000002_Node000006"><a xlink:title=" ">
<path fill="none" stroke="#63b8ff" d="M293.34,-307.78C415.64,-296.12 708.34,-268.24 815.93,-257.99"/>
<polygon fill="#63b8ff" stroke="#63b8ff" points="816.1,-261.49 825.72,-257.06 815.44,-254.52 816.1,-261.49"/>
</a>
</g>
</g>
<!-- Node7 -->
<g id="Node000007" class="node">
<title>Node7</title>
<g id="a_Node000007"><a xlink:href="export_8h_source.html" target="_top" xlink:title=" ">
<polygon fill="white" stroke="#666666" points="938,-201.88 823,-201.88 823,-182.62 938,-182.62 938,-201.88"/>
<text text-anchor="middle" x="880.5" y="-187.43" font-family="Helvetica,sans-Serif" font-size="11.00">floppy/detail/export.h</text>
</a>
</g>
</g>
<!-- Node2&#45;&gt;Node7 -->
<g id="edge6_Node000002_Node000007" class="edge">
<title>Node2&#45;&gt;Node7</title>
<g id="a_edge6_Node000002_Node000007"><a xlink:title=" ">
<path fill="none" stroke="#63b8ff" d="M270.43,-303.92C333.26,-286.1 468.75,-247.88 490.5,-243.5 601.81,-221.1 733.1,-206.59 811.43,-199.18"/>
<polygon fill="#63b8ff" stroke="#63b8ff" points="811.46,-202.69 821.09,-198.28 810.81,-195.72 811.46,-202.69"/>
</a>
</g>
</g>
<!-- Node16 -->
<g id="Node000016" class="node">
<title>Node16</title>
<g id="a_Node000016"><a xlink:href="concepts_8h_source.html" target="_top" xlink:title=" ">
<polygon fill="white" stroke="#666666" points="627.38,-262.75 499.62,-262.75 499.62,-243.5 627.38,-243.5 627.38,-262.75"/>
<text text-anchor="middle" x="563.5" y="-248.3" font-family="Helvetica,sans-Serif" font-size="11.00">floppy/detail/concepts.h</text>
</a>
</g>
</g>
<!-- Node2&#45;&gt;Node16 -->
<g id="edge18_Node000002_Node000016" class="edge">
<title>Node2&#45;&gt;Node16</title>
<g id="a_edge18_Node000002_Node000016"><a xlink:title=" ">
<path fill="none" stroke="#63b8ff" d="M288.57,-303.93C346.06,-293.51 440.39,-276.43 502.22,-265.23"/>
<polygon fill="#63b8ff" stroke="#63b8ff" points="502.67,-268.7 511.88,-263.48 501.42,-261.81 502.67,-268.7"/>
</a>
</g>
</g>
<!-- Node8 -->
<g id="Node000008" class="node">
<title>Node8</title>
<g id="a_Node000008"><a xlink:title=" ">
<polygon fill="#e0e0e0" stroke="#999999" points="869.62,-74.5 827.38,-74.5 827.38,-55.25 869.62,-55.25 869.62,-74.5"/>
<text text-anchor="middle" x="848.5" y="-60.05" font-family="Helvetica,sans-Serif" font-size="11.00">string</text>
</a>
</g>
</g>
<!-- Node7&#45;&gt;Node8 -->
<g id="edge7_Node000007_Node000008" class="edge">
<title>Node7&#45;&gt;Node8</title>
<g id="a_edge7_Node000007_Node000008"><a xlink:title=" ">
<path fill="none" stroke="#63b8ff" d="M878.18,-182.36C875.57,-172.32 871.21,-155.49 867.5,-141 862.71,-122.26 857.31,-100.88 853.49,-85.73"/>
<polygon fill="#63b8ff" stroke="#63b8ff" points="856.91,-84.98 851.08,-76.14 850.12,-86.69 856.91,-84.98"/>
</a>
</g>
</g>
<!-- Node9 -->
<g id="Node000009" class="node">
<title>Node9</title>
<g id="a_Node000009"><a xlink:title=" ">
<polygon fill="#e0e0e0" stroke="#999999" points="1189.5,-74.5 1119.5,-74.5 1119.5,-55.25 1189.5,-55.25 1189.5,-74.5"/>
<text text-anchor="middle" x="1154.5" y="-60.05" font-family="Helvetica,sans-Serif" font-size="11.00">string_view</text>
</a>
</g>
</g>
<!-- Node7&#45;&gt;Node9 -->
<g id="edge8_Node000007_Node000009" class="edge">
<title>Node7&#45;&gt;Node9</title>
<g id="a_edge8_Node000007_Node000009"><a xlink:title=" ">
<path fill="none" stroke="#63b8ff" d="M900.21,-182.23C947.49,-160.6 1067.62,-105.63 1124.18,-79.75"/>
<polygon fill="#63b8ff" stroke="#63b8ff" points="1125.59,-82.95 1133.23,-75.61 1122.68,-76.59 1125.59,-82.95"/>
</a>
</g>
</g>
<!-- Node10 -->
<g id="Node000010" class="node">
<title>Node10</title>
<g id="a_Node000010"><a xlink:title=" ">
<polygon fill="#e0e0e0" stroke="#999999" points="1278.12,-135.38 1220.88,-135.38 1220.88,-116.12 1278.12,-116.12 1278.12,-135.38"/>
<text text-anchor="middle" x="1249.5" y="-120.92" font-family="Helvetica,sans-Serif" font-size="11.00">iostream</text>
</a>
</g>
</g>
<!-- Node7&#45;&gt;Node10 -->
<g id="edge9_Node000007_Node000010" class="edge">
<title>Node7&#45;&gt;Node10</title>
<g id="a_edge9_Node000007_Node000010"><a xlink:title=" ">
<path fill="none" stroke="#63b8ff" d="M932.59,-182.15C1007.14,-169.11 1142.67,-145.42 1209.73,-133.7"/>
<polygon fill="#63b8ff" stroke="#63b8ff" points="1209.92,-137.22 1219.16,-132.05 1208.71,-130.33 1209.92,-137.22"/>
</a>
</g>
</g>
<!-- Node11 -->
<g id="Node000011" class="node">
<title>Node11</title>
<g id="a_Node000011"><a xlink:title=" ">
<polygon fill="#e0e0e0" stroke="#999999" points="990.38,-19.25 916.62,-19.25 916.62,0 990.38,0 990.38,-19.25"/>
<text text-anchor="middle" x="953.5" y="-4.8" font-family="Helvetica,sans-Serif" font-size="11.00">fmt/format.h</text>
</a>
</g>
</g>
<!-- Node7&#45;&gt;Node11 -->
<g id="edge10_Node000007_Node000011" class="edge">
<title>Node7&#45;&gt;Node11</title>
<g id="a_edge10_Node000007_Node000011"><a xlink:title=" ">
<path fill="none" stroke="#63b8ff" d="M870.39,-182.34C845.84,-159.64 787.34,-98.37 818.5,-55.25 838.12,-28.11 874.86,-17.2 905.06,-12.94"/>
<polygon fill="#63b8ff" stroke="#63b8ff" points="905.24,-16.45 914.76,-11.8 904.42,-9.49 905.24,-16.45"/>
</a>
</g>
</g>
<!-- Node12 -->
<g id="Node000012" class="node">
<title>Node12</title>
<g id="a_Node000012"><a xlink:href="string__utils_8h_source.html" target="_top" xlink:title=" ">
<polygon fill="white" stroke="#666666" points="978.62,-141 876.38,-141 876.38,-110.5 978.62,-110.5 978.62,-141"/>
<text text-anchor="start" x="884.38" y="-126.55" font-family="Helvetica,sans-Serif" font-size="11.00">floppy/detail/string</text>
<text text-anchor="middle" x="927.5" y="-115.3" font-family="Helvetica,sans-Serif" font-size="11.00">_utils.h</text>
</a>
</g>
</g>
<!-- Node7&#45;&gt;Node12 -->
<g id="edge11_Node000007_Node000012" class="edge">
<title>Node7&#45;&gt;Node12</title>
<g id="a_edge11_Node000007_Node000012"><a xlink:title=" ">
<path fill="none" stroke="#63b8ff" d="M887.04,-182.28C893.04,-174.04 902.22,-161.44 910.32,-150.33"/>
<polygon fill="#63b8ff" stroke="#63b8ff" points="913.1,-152.46 916.16,-142.32 907.44,-148.34 913.1,-152.46"/>
</a>
</g>
</g>
<!-- Node12&#45;&gt;Node8 -->
<g id="edge12_Node000012_Node000008" class="edge">
<title>Node12&#45;&gt;Node8</title>
<g id="a_edge12_Node000012_Node000008"><a xlink:title=" ">
<path fill="none" stroke="#63b8ff" d="M907.97,-110.2C896.41,-101.58 881.74,-90.65 869.87,-81.8"/>
<polygon fill="#63b8ff" stroke="#63b8ff" points="872,-79.02 861.89,-75.86 867.82,-84.64 872,-79.02"/>
</a>
</g>
</g>
<!-- Node12&#45;&gt;Node9 -->
<g id="edge13_Node000012_Node000009" class="edge">
<title>Node12&#45;&gt;Node9</title>
<g id="a_edge13_Node000012_Node000009"><a xlink:title=" ">
<path fill="none" stroke="#63b8ff" d="M979.01,-111.39C1017.89,-101.31 1070.78,-87.59 1108.3,-77.86"/>
<polygon fill="#63b8ff" stroke="#63b8ff" points="1109.15,-81.25 1117.96,-75.35 1107.4,-74.48 1109.15,-81.25"/>
</a>
</g>
</g>
<!-- Node13 -->
<g id="Node000013" class="node">
<title>Node13</title>
<g id="a_Node000013"><a xlink:title=" ">
<polygon fill="#e0e0e0" stroke="#999999" points="947.62,-74.5 887.38,-74.5 887.38,-55.25 947.62,-55.25 947.62,-74.5"/>
<text text-anchor="middle" x="917.5" y="-60.05" font-family="Helvetica,sans-Serif" font-size="11.00">algorithm</text>
</a>
</g>
</g>
<!-- Node12&#45;&gt;Node13 -->
<g id="edge14_Node000012_Node000013" class="edge">
<title>Node12&#45;&gt;Node13</title>
<g id="a_edge14_Node000012_Node000013"><a xlink:title=" ">
<path fill="none" stroke="#63b8ff" d="M925.03,-110.2C923.8,-102.96 922.29,-94.09 920.95,-86.19"/>
<polygon fill="#63b8ff" stroke="#63b8ff" points="924.42,-85.72 919.3,-76.44 917.52,-86.89 924.42,-85.72"/>
</a>
</g>
</g>
<!-- Node14 -->
<g id="Node000014" class="node">
<title>Node14</title>
<g id="a_Node000014"><a xlink:href="exceptions_8h_source.html" target="_top" xlink:title=" ">
<polygon fill="white" stroke="#666666" points="1101.5,-74.5 965.5,-74.5 965.5,-55.25 1101.5,-55.25 1101.5,-74.5"/>
<text text-anchor="middle" x="1033.5" y="-60.05" font-family="Helvetica,sans-Serif" font-size="11.00">floppy/detail/exceptions.h</text>
</a>
</g>
</g>
<!-- Node12&#45;&gt;Node14 -->
<g id="edge15_Node000012_Node000014" class="edge">
<title>Node12&#45;&gt;Node14</title>
<g id="a_edge15_Node000012_Node000014"><a xlink:title=" ">
<path fill="none" stroke="#63b8ff" d="M953.97,-110.05C970.27,-100.99 991.08,-89.44 1007.32,-80.41"/>
<polygon fill="#63b8ff" stroke="#63b8ff" points="1008.88,-83.55 1015.92,-75.64 1005.48,-77.43 1008.88,-83.55"/>
</a>
</g>
</g>
<!-- Node14&#45;&gt;Node11 -->
<g id="edge17_Node000014_Node000011" class="edge">
<title>Node14&#45;&gt;Node11</title>
<g id="a_edge17_Node000014_Node000011"><a xlink:title=" ">
<path fill="none" stroke="#63b8ff" d="M1019.93,-54.84C1008.09,-46.96 990.66,-35.36 976.63,-26.02"/>
<polygon fill="#63b8ff" stroke="#63b8ff" points="978.66,-23.17 968.4,-20.54 974.78,-29 978.66,-23.17"/>
</a>
</g>
</g>
<!-- Node15 -->
<g id="Node000015" class="node">
<title>Node15</title>
<g id="a_Node000015"><a xlink:title=" ">
<polygon fill="#e0e0e0" stroke="#999999" points="1144.38,-19.25 1082.62,-19.25 1082.62,0 1144.38,0 1144.38,-19.25"/>
<text text-anchor="middle" x="1113.5" y="-4.8" font-family="Helvetica,sans-Serif" font-size="11.00">stdexcept</text>
</a>
</g>
</g>
<!-- Node14&#45;&gt;Node15 -->
<g id="edge16_Node000014_Node000015" class="edge">
<title>Node14&#45;&gt;Node15</title>
<g id="a_edge16_Node000014_Node000015"><a xlink:title=" ">
<path fill="none" stroke="#63b8ff" d="M1047.07,-54.84C1058.91,-46.96 1076.34,-35.36 1090.37,-26.02"/>
<polygon fill="#63b8ff" stroke="#63b8ff" points="1092.22,-29 1098.6,-20.54 1088.34,-23.17 1092.22,-29"/>
</a>
</g>
</g>
<!-- Node17 -->
<g id="Node000017" class="node">
<title>Node17</title>
<g id="a_Node000017"><a xlink:title=" ">
<polygon fill="#e0e0e0" stroke="#999999" points="601.88,-201.88 543.12,-201.88 543.12,-182.62 601.88,-182.62 601.88,-201.88"/>
<text text-anchor="middle" x="572.5" y="-187.43" font-family="Helvetica,sans-Serif" font-size="11.00">concepts</text>
</a>
</g>
</g>
<!-- Node16&#45;&gt;Node17 -->
<g id="edge19_Node000016_Node000017" class="edge">
<title>Node16&#45;&gt;Node17</title>
<g id="a_edge19_Node000016_Node000017"><a xlink:title=" ">
<path fill="none" stroke="#63b8ff" d="M564.87,-243.18C566.07,-235.32 567.86,-223.57 569.41,-213.45"/>
<polygon fill="#63b8ff" stroke="#63b8ff" points="572.84,-214.19 570.89,-203.77 565.92,-213.13 572.84,-214.19"/>
</a>
</g>
</g>
<!-- Node18 -->
<g id="Node000018" class="node">
<title>Node18</title>
<g id="a_Node000018"><a xlink:href="type__traits_8h_source.html" target="_top" xlink:title=" ">
<polygon fill="white" stroke="#666666" points="348.62,-207.5 252.38,-207.5 252.38,-177 348.62,-177 348.62,-207.5"/>
<text text-anchor="start" x="260.38" y="-193.05" font-family="Helvetica,sans-Serif" font-size="11.00">floppy/detail/type</text>
<text text-anchor="middle" x="300.5" y="-181.8" font-family="Helvetica,sans-Serif" font-size="11.00">_traits.h</text>
</a>
</g>
</g>
<!-- Node16&#45;&gt;Node18 -->
<g id="edge20_Node000016_Node000018" class="edge">
<title>Node16&#45;&gt;Node18</title>
<g id="a_edge20_Node000016_Node000018"><a xlink:title=" ">
<path fill="none" stroke="#63b8ff" d="M522.98,-243.05C479.45,-233.31 409.81,-217.72 360.05,-206.58"/>
<polygon fill="#63b8ff" stroke="#63b8ff" points="361.12,-203.23 350.59,-204.46 359.59,-210.06 361.12,-203.23"/>
</a>
</g>
</g>
<!-- Node20 -->
<g id="Node000020" class="node">
<title>Node20</title>
<g id="a_Node000020"><a xlink:href="types_8h_source.html" target="_top" xlink:title=" ">
<polygon fill="white" stroke="#666666" points="524.75,-201.88 414.25,-201.88 414.25,-182.62 524.75,-182.62 524.75,-201.88"/>
<text text-anchor="middle" x="469.5" y="-187.43" font-family="Helvetica,sans-Serif" font-size="11.00">floppy/detail/types.h</text>
</a>
</g>
</g>
<!-- Node16&#45;&gt;Node20 -->
<g id="edge22_Node000016_Node000020" class="edge">
<title>Node16&#45;&gt;Node20</title>
<g id="a_edge22_Node000016_Node000020"><a xlink:title=" ">
<path fill="none" stroke="#63b8ff" d="M549.22,-243.18C534.45,-233.93 511.13,-219.32 493.51,-208.29"/>
<polygon fill="#63b8ff" stroke="#63b8ff" points="495.53,-205.42 485.19,-203.08 491.81,-211.35 495.53,-205.42"/>
</a>
</g>
</g>
<!-- Node19 -->
<g id="Node000019" class="node">
<title>Node19</title>
<g id="a_Node000019"><a xlink:title=" ">
<polygon fill="#e0e0e0" stroke="#999999" points="333.25,-135.38 267.75,-135.38 267.75,-116.12 333.25,-116.12 333.25,-135.38"/>
<text text-anchor="middle" x="300.5" y="-120.92" font-family="Helvetica,sans-Serif" font-size="11.00">type_traits</text>
</a>
</g>
</g>
<!-- Node18&#45;&gt;Node19 -->
<g id="edge21_Node000018_Node000019" class="edge">
<title>Node18&#45;&gt;Node19</title>
<g id="a_edge21_Node000018_Node000019"><a xlink:title=" ">
<path fill="none" stroke="#63b8ff" d="M300.5,-176.61C300.5,-167.83 300.5,-156.52 300.5,-146.9"/>
<polygon fill="#63b8ff" stroke="#63b8ff" points="304,-147.09 300.5,-137.09 297,-147.09 304,-147.09"/>
</a>
</g>
</g>
<!-- Node20&#45;&gt;Node11 -->
<g id="edge27_Node000020_Node000011" class="edge">
<title>Node20&#45;&gt;Node11</title>
<g id="a_edge27_Node000020_Node000011"><a xlink:title=" ">
<path fill="none" stroke="#63b8ff" d="M478.36,-182.25C497.09,-163.38 540.48,-120.59 558.5,-110.5 672.38,-46.71 827.31,-22.99 904.95,-14.72"/>
<polygon fill="#63b8ff" stroke="#63b8ff" points="905.18,-18.21 914.78,-13.71 904.47,-11.25 905.18,-18.21"/>
</a>
</g>
</g>
<!-- Node20&#45;&gt;Node19 -->
<g id="edge26_Node000020_Node000019" class="edge">
<title>Node20&#45;&gt;Node19</title>
<g id="a_edge26_Node000020_Node000019"><a xlink:title=" ">
<path fill="none" stroke="#63b8ff" d="M445.64,-182.15C416.71,-171.1 367.71,-152.4 334.75,-139.82"/>
<polygon fill="#63b8ff" stroke="#63b8ff" points="336.24,-136.64 325.65,-136.35 333.74,-143.18 336.24,-136.64"/>
</a>
</g>
</g>
<!-- Node21 -->
<g id="Node000021" class="node">
<title>Node21</title>
<g id="a_Node000021"><a xlink:title=" ">
<polygon fill="#e0e0e0" stroke="#999999" points="617.75,-135.38 567.25,-135.38 567.25,-116.12 617.75,-116.12 617.75,-135.38"/>
<text text-anchor="middle" x="592.5" y="-120.92" font-family="Helvetica,sans-Serif" font-size="11.00">cstddef</text>
</a>
</g>
</g>
<!-- Node20&#45;&gt;Node21 -->
<g id="edge23_Node000020_Node000021" class="edge">
<title>Node20&#45;&gt;Node21</title>
<g id="a_edge23_Node000020_Node000021"><a xlink:title=" ">
<path fill="none" stroke="#63b8ff" d="M486.86,-182.15C507.19,-171.49 541.12,-153.69 565.03,-141.16"/>
<polygon fill="#63b8ff" stroke="#63b8ff" points="566.66,-144.25 573.89,-136.51 563.4,-138.06 566.66,-144.25"/>
</a>
</g>
</g>
<!-- Node22 -->
<g id="Node000022" class="node">
<title>Node22</title>
<g id="a_Node000022"><a xlink:title=" ">
<polygon fill="#e0e0e0" stroke="#999999" points="682.88,-135.38 636.12,-135.38 636.12,-116.12 682.88,-116.12 682.88,-135.38"/>
<text text-anchor="middle" x="659.5" y="-120.92" font-family="Helvetica,sans-Serif" font-size="11.00">cstdint</text>
</a>
</g>
</g>
<!-- Node20&#45;&gt;Node22 -->
<g id="edge24_Node000020_Node000022" class="edge">
<title>Node20&#45;&gt;Node22</title>
<g id="a_edge24_Node000020_Node000022"><a xlink:title=" ">
<path fill="none" stroke="#63b8ff" d="M501.09,-182.13C533.01,-172.69 583.62,-157.07 626.5,-141 627.29,-140.7 628.09,-140.4 628.89,-140.09"/>
<polygon fill="#63b8ff" stroke="#63b8ff" points="630.04,-143.4 637.98,-136.38 627.4,-136.92 630.04,-143.4"/>
</a>
</g>
</g>
<!-- Node23 -->
<g id="Node000023" class="node">
<title>Node23</title>
<g id="a_Node000023"><a xlink:title=" ">
<polygon fill="#e0e0e0" stroke="#999999" points="405.25,-135.38 351.75,-135.38 351.75,-116.12 405.25,-116.12 405.25,-135.38"/>
<text text-anchor="middle" x="378.5" y="-120.92" font-family="Helvetica,sans-Serif" font-size="11.00">optional</text>
</a>
</g>
</g>
<!-- Node20&#45;&gt;Node23 -->
<g id="edge25_Node000020_Node000023" class="edge">
<title>Node20&#45;&gt;Node23</title>
<g id="a_edge25_Node000020_Node000023"><a xlink:title=" ">
<path fill="none" stroke="#63b8ff" d="M456.85,-182.28C442.26,-171.94 418.03,-154.77 400.37,-142.25"/>
<polygon fill="#63b8ff" stroke="#63b8ff" points="402.76,-139.65 392.57,-136.73 398.71,-145.36 402.76,-139.65"/>
</a>
</g>
</g>
<!-- Node24 -->
<g id="Node000024" class="node">
<title>Node24</title>
<g id="a_Node000024"><a xlink:title=" ">
<polygon fill="#e0e0e0" stroke="#999999" points="511.88,-135.38 423.12,-135.38 423.12,-116.12 511.88,-116.12 511.88,-135.38"/>
<text text-anchor="middle" x="467.5" y="-120.92" font-family="Helvetica,sans-Serif" font-size="11.00">tl/expected.hpp</text>
</a>
</g>
</g>
<!-- Node20&#45;&gt;Node24 -->
<g id="edge28_Node000020_Node000024" class="edge">
<title>Node20&#45;&gt;Node24</title>
<g id="a_edge28_Node000020_Node000024"><a xlink:title=" ">
<path fill="none" stroke="#63b8ff" d="M469.22,-182.28C468.94,-173.23 468.5,-158.95 468.13,-147.13"/>
<polygon fill="#63b8ff" stroke="#63b8ff" points="471.63,-147.04 467.82,-137.16 464.63,-147.26 471.63,-147.04"/>
</a>
</g>
</g>
<!-- Node25&#45;&gt;Node10 -->
<g id="edge30_Node000025_Node000010" class="edge">
<title>Node25&#45;&gt;Node10</title>
<g id="a_edge30_Node000025_Node000010"><a xlink:title=" ">
<path fill="none" stroke="#63b8ff" d="M660.66,-504.56C817.82,-494.97 1382.5,-455.36 1382.5,-381.5 1382.5,-381.5 1382.5,-381.5 1382.5,-252.12 1382.5,-197.33 1321.99,-159.42 1282.6,-140.54"/>
<polygon fill="#63b8ff" stroke="#63b8ff" points="1284.29,-137.46 1273.74,-136.46 1281.36,-143.82 1284.29,-137.46"/>
</a>
</g>
</g>
<!-- Node26 -->
<g id="Node000026" class="node">
<title>Node26</title>
<g id="a_Node000026"><a xlink:title=" ">
<polygon fill="#e0e0e0" stroke="#999999" points="748.12,-462.25 618.88,-462.25 618.88,-431.75 748.12,-431.75 748.12,-462.25"/>
<text text-anchor="start" x="626.88" y="-447.8" font-family="Helvetica,sans-Serif" font-size="11.00">experimental/propagate</text>
<text text-anchor="middle" x="683.5" y="-436.55" font-family="Helvetica,sans-Serif" font-size="11.00">_const</text>
</a>
</g>
</g>
<!-- Node25&#45;&gt;Node26 -->
<g id="edge31_Node000025_Node000026" class="edge">
<title>Node25&#45;&gt;Node26</title>
<g id="a_edge31_Node000025_Node000026"><a xlink:title=" ">
<path fill="none" stroke="#63b8ff" d="M630.07,-497.93C637.92,-490.59 649.38,-479.88 659.68,-470.26"/>
<polygon fill="#63b8ff" stroke="#63b8ff" points="661.93,-472.95 666.84,-463.57 657.15,-467.84 661.93,-472.95"/>
</a>
</g>
</g>
<!-- Node27 -->
<g id="Node000027" class="node">
<title>Node27</title>
<g id="a_Node000027"><a xlink:href="floppy_8h_source.html" target="_top" xlink:title=" ">
<polygon fill="white" stroke="#666666" points="601,-456.62 516,-456.62 516,-437.38 601,-437.38 601,-456.62"/>
<text text-anchor="middle" x="558.5" y="-442.18" font-family="Helvetica,sans-Serif" font-size="11.00">floppy/floppy.h</text>
</a>
</g>
</g>
<!-- Node25&#45;&gt;Node27 -->
<g id="edge32_Node000025_Node000027" class="edge">
<title>Node25&#45;&gt;Node27</title>
<g id="a_edge32_Node000025_Node000027"><a xlink:title=" ">
<path fill="none" stroke="#63b8ff" d="M611.08,-497.93C601.89,-489.2 587.66,-475.69 576.33,-464.93"/>
<polygon fill="#63b8ff" stroke="#63b8ff" points="578.76,-462.42 569.1,-458.07 573.94,-467.49 578.76,-462.42"/>
</a>
</g>
</g>
<!-- Node27&#45;&gt;Node2 -->
<g id="edge59_Node000027_Node000002" class="edge">
<title>Node27&#45;&gt;Node2</title>
<g id="a_edge59_Node000027_Node000002"><a xlink:title=" ">
<path fill="none" stroke="#63b8ff" d="M515.71,-441.55C470.8,-435.64 398.99,-422.65 342.5,-395.75 333.22,-391.33 285.67,-353.29 258.19,-331.03"/>
<polygon fill="#63b8ff" stroke="#63b8ff" points="260.55,-328.43 250.58,-324.85 256.14,-333.87 260.55,-328.43"/>
</a>
</g>
</g>
<!-- Node27&#45;&gt;Node7 -->
<g id="edge57_Node000027_Node000007" class="edge">
<title>Node27&#45;&gt;Node7</title>
<g id="a_edge57_Node000027_Node000007"><a xlink:title=" ">
<path fill="none" stroke="#63b8ff" d="M589.12,-436.92C595.81,-435.08 602.87,-433.26 609.5,-431.75 699.71,-411.28 738.23,-448.1 814.5,-395.75 871.37,-356.71 876.05,-329.22 894.5,-262.75 899.13,-246.07 894.45,-226.75 889.29,-212.71"/>
<polygon fill="#63b8ff" stroke="#63b8ff" points="892.64,-211.67 885.61,-203.75 886.17,-214.33 892.64,-211.67"/>
</a>
</g>
</g>
<!-- Node27&#45;&gt;Node16 -->
<g id="edge48_Node000027_Node000016" class="edge">
<title>Node27&#45;&gt;Node16</title>
<g id="a_edge48_Node000027_Node000016"><a xlink:title=" ">
<path fill="none" stroke="#63b8ff" d="M557.81,-437.02C556.16,-413.99 552.43,-351 556.5,-298.75 557.13,-290.64 558.4,-281.77 559.69,-274.1"/>
<polygon fill="#63b8ff" stroke="#63b8ff" points="563.1,-274.92 561.43,-264.46 556.21,-273.68 563.1,-274.92"/>
</a>
</g>
</g>
<!-- Node27&#45;&gt;Node18 -->
<g id="edge70_Node000027_Node000018" class="edge">
<title>Node27&#45;&gt;Node18</title>
<g id="a_edge70_Node000027_Node000018"><a xlink:title=" ">
<path fill="none" stroke="#63b8ff" d="M522.8,-436.93C494.15,-428.72 453.55,-414.97 421.5,-395.75 402.47,-384.34 281.57,-283 272.5,-262.75 265.74,-247.66 272.6,-230.41 281.22,-216.88"/>
<polygon fill="#63b8ff" stroke="#63b8ff" points="283.87,-219.19 286.77,-209 278.15,-215.16 283.87,-219.19"/>
</a>
</g>
</g>
<!-- Node27&#45;&gt;Node20 -->
<g id="edge71_Node000027_Node000020" class="edge">
<title>Node27&#45;&gt;Node20</title>
<g id="a_edge71_Node000027_Node000020"><a xlink:title=" ">
<path fill="none" stroke="#63b8ff" d="M554.9,-436.92C544.42,-410.34 513.21,-330.29 490.5,-262.75 484.91,-246.12 479.19,-227.02 475.13,-213.06"/>
<polygon fill="#63b8ff" stroke="#63b8ff" points="478.58,-212.4 472.46,-203.76 471.86,-214.34 478.58,-212.4"/>
</a>
</g>
</g>
<!-- Node28 -->
<g id="Node000028" class="node">
<title>Node28</title>
<g id="a_Node000028"><a xlink:href="backports_8h_source.html" target="_top" xlink:title=" ">
<polygon fill="white" stroke="#666666" points="714.62,-323.62 582.38,-323.62 582.38,-304.38 714.62,-304.38 714.62,-323.62"/>
<text text-anchor="middle" x="648.5" y="-309.18" font-family="Helvetica,sans-Serif" font-size="11.00">floppy/detail/backports.h</text>
</a>
</g>
</g>
<!-- Node27&#45;&gt;Node28 -->
<g id="edge33_Node000027_Node000028" class="edge">
<title>Node27&#45;&gt;Node28</title>
<g id="a_edge33_Node000027_Node000028"><a xlink:title=" ">
<path fill="none" stroke="#63b8ff" d="M564.69,-437C579.33,-415.68 616.35,-361.8 635.92,-333.31"/>
<polygon fill="#63b8ff" stroke="#63b8ff" points="638.64,-335.54 641.41,-325.31 632.87,-331.58 638.64,-335.54"/>
</a>
</g>
</g>
<!-- Node30 -->
<g id="Node000030" class="node">
<title>Node30</title>
<g id="a_Node000030"><a xlink:href="platform_8h_source.html" target="_top" xlink:title=" ">
<polygon fill="white" stroke="#666666" points="405.5,-262.75 281.5,-262.75 281.5,-243.5 405.5,-243.5 405.5,-262.75"/>
<text text-anchor="middle" x="343.5" y="-248.3" font-family="Helvetica,sans-Serif" font-size="11.00">floppy/detail/platform.h</text>
</a>
</g>
</g>
<!-- Node27&#45;&gt;Node30 -->
<g id="edge67_Node000027_Node000030" class="edge">
<title>Node27&#45;&gt;Node30</title>
<g id="a_edge67_Node000027_Node000030"><a xlink:title=" ">
<path fill="none" stroke="#63b8ff" d="M533.1,-436.93C511.54,-428.44 480.54,-414.28 457.5,-395.75 412.16,-359.28 373,-301.89 354.63,-272.62"/>
<polygon fill="#63b8ff" stroke="#63b8ff" points="357.85,-271.17 349.63,-264.49 351.89,-274.84 357.85,-271.17"/>
</a>
</g>
</g>
<!-- Node31 -->
<g id="Node000031" class="node">
<title>Node31</title>
<g id="a_Node000031"><a xlink:href="predefs_8h_source.html" target="_top" xlink:title=" ">
<polygon fill="white" stroke="#666666" points="121,-201.88 0,-201.88 0,-182.62 121,-182.62 121,-201.88"/>
<text text-anchor="middle" x="60.5" y="-187.43" font-family="Helvetica,sans-Serif" font-size="11.00">floppy/detail/predefs.h</text>
</a>
</g>
</g>
<!-- Node27&#45;&gt;Node31 -->
<g id="edge68_Node000027_Node000031" class="edge">
<title>Node27&#45;&gt;Node31</title>
<g id="a_edge68_Node000027_Node000031"><a xlink:title=" ">
<path fill="none" stroke="#63b8ff" d="M515.72,-444.67C428.47,-441.27 233.51,-429.97 177.5,-395.75 108.9,-353.84 76.43,-255.63 65.23,-213.28"/>
<polygon fill="#63b8ff" stroke="#63b8ff" points="68.67,-212.58 62.84,-203.73 61.88,-214.28 68.67,-212.58"/>
</a>
</g>
</g>
<!-- Node32 -->
<g id="Node000032" class="node">
<title>Node32</title>
<g id="a_Node000032"><a xlink:href="formatters_8h_source.html" target="_top" xlink:title=" ">
<polygon fill="white" stroke="#666666" points="1186.38,-262.75 1052.62,-262.75 1052.62,-243.5 1186.38,-243.5 1186.38,-262.75"/>
<text text-anchor="middle" x="1119.5" y="-248.3" font-family="Helvetica,sans-Serif" font-size="11.00">floppy/detail/formatters.h</text>
</a>
</g>
</g>
<!-- Node27&#45;&gt;Node32 -->
<g id="edge58_Node000027_Node000032" class="edge">
<title>Node27&#45;&gt;Node32</title>
<g id="a_edge58_Node000027_Node000032"><a xlink:title=" ">
<path fill="none" stroke="#63b8ff" d="M587.69,-436.92C594.78,-434.98 602.36,-433.1 609.5,-431.75 763.14,-402.6 810.74,-443.96 959.5,-395.75 1015.67,-377.55 1032.43,-370.68 1074.5,-329.25 1090.89,-313.11 1103.62,-289.81 1111.3,-273.45"/>
<polygon fill="#63b8ff" stroke="#63b8ff" points="1114.48,-274.91 1115.36,-264.35 1108.09,-272.06 1114.48,-274.91"/>
</a>
</g>
</g>
<!-- Node35 -->
<g id="Node000035" class="node">
<title>Node35</title>
<g id="a_Node000035"><a xlink:href="corefn_8h_source.html" target="_top" xlink:title=" ">
<polygon fill="white" stroke="#666666" points="805,-390.12 690,-390.12 690,-370.88 805,-370.88 805,-390.12"/>
<text text-anchor="middle" x="747.5" y="-375.68" font-family="Helvetica,sans-Serif" font-size="11.00">floppy/detail/corefn.h</text>
</a>
</g>
</g>
<!-- Node27&#45;&gt;Node35 -->
<g id="edge49_Node000027_Node000035" class="edge">
<title>Node27&#45;&gt;Node35</title>
<g id="a_edge49_Node000027_Node000035"><a xlink:title=" ">
<path fill="none" stroke="#63b8ff" d="M585.18,-436.9C617.82,-425.76 673.29,-406.83 710.16,-394.24"/>
<polygon fill="#63b8ff" stroke="#63b8ff" points="711.19,-397.59 719.53,-391.05 708.93,-390.96 711.19,-397.59"/>
</a>
</g>
</g>
<!-- Node37 -->
<g id="Node000037" class="node">
<title>Node37</title>
<g id="a_Node000037"><a xlink:href="print__helpers_8h_source.html" target="_top" xlink:title=" ">
<polygon fill="white" stroke="#666666" points="1288,-329.25 1191,-329.25 1191,-298.75 1288,-298.75 1288,-329.25"/>
<text text-anchor="start" x="1199" y="-314.8" font-family="Helvetica,sans-Serif" font-size="11.00">floppy/detail/print</text>
<text text-anchor="middle" x="1239.5" y="-303.55" font-family="Helvetica,sans-Serif" font-size="11.00">_helpers.h</text>
</a>
</g>
</g>
<!-- Node27&#45;&gt;Node37 -->
<g id="edge69_Node000027_Node000037" class="edge">
<title>Node27&#45;&gt;Node37</title>
<g id="a_edge69_Node000027_Node000037"><a xlink:title=" ">
<path fill="none" stroke="#63b8ff" d="M587.13,-436.91C594.36,-434.91 602.16,-433.02 609.5,-431.75 833.84,-392.92 905.35,-470.23 1120.5,-395.75 1157,-383.12 1192.84,-356.27 1215.49,-336.99"/>
<polygon fill="#63b8ff" stroke="#63b8ff" points="1217.69,-339.72 1222.92,-330.51 1213.09,-334.44 1217.69,-339.72"/>
</a>
</g>
</g>
<!-- Node39 -->
<g id="Node000039" class="node">
<title>Node39</title>
<g id="a_Node000039"><a xlink:href="memory_8h_source.html" target="_top" xlink:title=" ">
<polygon fill="white" stroke="#666666" points="1065.12,-323.62 941.88,-323.62 941.88,-304.38 1065.12,-304.38 1065.12,-323.62"/>
<text text-anchor="middle" x="1003.5" y="-309.18" font-family="Helvetica,sans-Serif" font-size="11.00">floppy/detail/memory.h</text>
</a>
</g>
</g>
<!-- Node27&#45;&gt;Node39 -->
<g id="edge60_Node000027_Node000039" class="edge">
<title>Node27&#45;&gt;Node39</title>
<g id="a_edge60_Node000027_Node000039"><a xlink:title=" ">
<path fill="none" stroke="#63b8ff" d="M587.97,-436.9C594.98,-434.98 602.46,-433.12 609.5,-431.75 749.11,-404.53 800.32,-459.43 927.5,-395.75 955.68,-381.64 978.89,-352.56 991.97,-333.42"/>
<polygon fill="#63b8ff" stroke="#63b8ff" points="994.78,-335.52 997.33,-325.24 988.93,-331.69 994.78,-335.52"/>
</a>
</g>
</g>
<!-- Node28&#45;&gt;Node11 -->
<g id="edge36_Node000028_Node000011" class="edge">
<title>Node28&#45;&gt;Node11</title>
<g id="a_edge36_Node000028_Node000011"><a xlink:title=" ">
<path fill="none" stroke="#63b8ff" d="M678.51,-304.04C699.37,-296.32 726.23,-283.15 742.5,-262.75 762.47,-237.72 761.5,-225.27 761.5,-193.25 761.5,-193.25 761.5,-193.25 761.5,-124.75 761.5,-58 848.31,-29.42 905.19,-17.85"/>
<polygon fill="#63b8ff" stroke="#63b8ff" points="905.83,-21.29 914.99,-15.98 904.51,-14.42 905.83,-21.29"/>
</a>
</g>
</g>
<!-- Node28&#45;&gt;Node16 -->
<g id="edge42_Node000028_Node000016" class="edge">
<title>Node28&#45;&gt;Node16</title>
<g id="a_edge42_Node000028_Node000016"><a xlink:title=" ">
<path fill="none" stroke="#63b8ff" d="M635.59,-304.06C622.36,-294.89 601.53,-280.47 585.66,-269.48"/>
<polygon fill="#63b8ff" stroke="#63b8ff" points="587.99,-266.83 577.78,-264.01 584,-272.58 587.99,-266.83"/>
</a>
</g>
</g>
<!-- Node28&#45;&gt;Node22 -->
<g id="edge34_Node000028_Node000022" class="edge">
<title>Node28&#45;&gt;Node22</title>
<g id="a_edge34_Node000028_Node000022"><a xlink:title=" ">
<path fill="none" stroke="#63b8ff" d="M649.03,-304.02C650.71,-275.62 655.92,-187.31 658.3,-147.08"/>
<polygon fill="#63b8ff" stroke="#63b8ff" points="661.79,-147.34 658.89,-137.15 654.8,-146.93 661.79,-147.34"/>
</a>
</g>
</g>
<!-- Node29 -->
<g id="Node000029" class="node">
<title>Node29</title>
<g id="a_Node000029"><a xlink:title=" ">
<polygon fill="#e0e0e0" stroke="#999999" points="733,-262.75 684,-262.75 684,-243.5 733,-243.5 733,-262.75"/>
<text text-anchor="middle" x="708.5" y="-248.3" font-family="Helvetica,sans-Serif" font-size="11.00">ranges</text>
</a>
</g>
</g>
<!-- Node28&#45;&gt;Node29 -->
<g id="edge35_Node000028_Node000029" class="edge">
<title>Node28&#45;&gt;Node29</title>
<g id="a_edge35_Node000028_Node000029"><a xlink:title=" ">
<path fill="none" stroke="#63b8ff" d="M657.61,-304.06C666.51,-295.33 680.28,-281.82 691.25,-271.05"/>
<polygon fill="#63b8ff" stroke="#63b8ff" points="693.53,-273.71 698.22,-264.21 688.63,-268.72 693.53,-273.71"/>
</a>
</g>
</g>
<!-- Node28&#45;&gt;Node30 -->
<g id="edge37_Node000028_Node000030" class="edge">
<title>Node28&#45;&gt;Node30</title>
<g id="a_edge37_Node000028_Node000030"><a xlink:title=" ">
<path fill="none" stroke="#63b8ff" d="M601.51,-303.93C547.78,-293.56 459.77,-276.57 401.73,-265.37"/>
<polygon fill="#63b8ff" stroke="#63b8ff" points="402.51,-261.95 392.03,-263.49 401.18,-268.82 402.51,-261.95"/>
</a>
</g>
</g>
<!-- Node28&#45;&gt;Node32 -->
<g id="edge43_Node000028_Node000032" class="edge">
<title>Node28&#45;&gt;Node32</title>
<g id="a_edge43_Node000028_Node000032"><a xlink:title=" ">
<path fill="none" stroke="#63b8ff" d="M693.22,-303.93C703.16,-302.07 713.67,-300.23 723.5,-298.75 861.85,-277.88 899.94,-278.88 1041.19,-263.11"/>
<polygon fill="#63b8ff" stroke="#63b8ff" points="1041.39,-266.61 1050.94,-262.02 1040.61,-259.66 1041.39,-266.61"/>
</a>
</g>
</g>
<!-- Node30&#45;&gt;Node4 -->
<g id="edge38_Node000030_Node000004" class="edge">
<title>Node30&#45;&gt;Node4</title>
<g id="a_edge38_Node000030_Node000004"><a xlink:title=" ">
<path fill="none" stroke="#63b8ff" d="M320.85,-243.05C295.68,-232.97 254.91,-216.64 226.96,-205.45"/>
<polygon fill="#63b8ff" stroke="#63b8ff" points="228.56,-202.32 217.98,-201.85 225.96,-208.82 228.56,-202.32"/>
</a>
</g>
</g>
<!-- Node30&#45;&gt;Node7 -->
<g id="edge39_Node000030_Node000007" class="edge">
<title>Node30&#45;&gt;Node7</title>
<g id="a_edge39_Node000030_Node000007"><a xlink:title=" ">
<path fill="none" stroke="#63b8ff" d="M405.71,-245.04C410.38,-244.52 415.01,-244 419.5,-243.5 558.44,-228.04 720.99,-210.44 811.2,-200.71"/>
<polygon fill="#63b8ff" stroke="#63b8ff" points="811.56,-204.19 821.13,-199.64 810.81,-197.23 811.56,-204.19"/>
</a>
</g>
</g>
<!-- Node30&#45;&gt;Node20 -->
<g id="edge40_Node000030_Node000020" class="edge">
<title>Node30&#45;&gt;Node20</title>
<g id="a_edge40_Node000030_Node000020"><a xlink:title=" ">
<path fill="none" stroke="#63b8ff" d="M362.91,-243.05C383.5,-233.43 416.28,-218.12 440.06,-207.01"/>
<polygon fill="#63b8ff" stroke="#63b8ff" points="441.32,-210.28 448.9,-202.87 438.36,-203.94 441.32,-210.28"/>
</a>
</g>
</g>
<!-- Node30&#45;&gt;Node31 -->
<g id="edge41_Node000030_Node000031" class="edge">
<title>Node30&#45;&gt;Node31</title>
<g id="a_edge41_Node000030_Node000031"><a xlink:title=" ">
<path fill="none" stroke="#63b8ff" d="M299.9,-243.05C250.25,-232.73 169.06,-215.83 115.2,-204.63"/>
<polygon fill="#63b8ff" stroke="#63b8ff" points="116.13,-201.25 105.63,-202.64 114.71,-208.1 116.13,-201.25"/>
</a>
</g>
</g>
<!-- Node32&#45;&gt;Node9 -->
<g id="edge44_Node000032_Node000009" class="edge">
<title>Node32&#45;&gt;Node9</title>
<g id="a_edge44_Node000032_Node000009"><a xlink:title=" ">
<path fill="none" stroke="#63b8ff" d="M1141.93,-243.14C1156.67,-235.91 1174.79,-224.19 1183.5,-207.5 1204.62,-167.04 1181.1,-112.59 1165.7,-84.45"/>
<polygon fill="#63b8ff" stroke="#63b8ff" points="1168.89,-82.97 1160.88,-76.04 1162.82,-86.46 1168.89,-82.97"/>
</a>
</g>
</g>
<!-- Node32&#45;&gt;Node11 -->
<g id="edge47_Node000032_Node000011" class="edge">
<title>Node32&#45;&gt;Node11</title>
<g id="a_edge47_Node000032_Node000011"><a xlink:title=" ">
<path fill="none" stroke="#63b8ff" d="M1115.98,-243.02C1110.95,-228.55 1103.18,-199.66 1111.5,-177 1134.42,-114.57 1241.11,-106.32 1198.5,-55.25 1186.03,-40.3 1069.87,-24.3 1002.07,-16.13"/>
<polygon fill="#63b8ff" stroke="#63b8ff" points="1002.66,-12.67 992.32,-14.97 1001.84,-19.62 1002.66,-12.67"/>
</a>
</g>
</g>
<!-- Node33 -->
<g id="Node000033" class="node">
<title>Node33</title>
<g id="a_Node000033"><a xlink:title=" ">
<polygon fill="#e0e0e0" stroke="#999999" points="1174.62,-201.88 1120.38,-201.88 1120.38,-182.62 1174.62,-182.62 1174.62,-201.88"/>
<text text-anchor="middle" x="1147.5" y="-187.43" font-family="Helvetica,sans-Serif" font-size="11.00">sstream</text>
</a>
</g>
</g>
<!-- Node32&#45;&gt;Node33 -->
<g id="edge45_Node000032_Node000033" class="edge">
<title>Node32&#45;&gt;Node33</title>
<g id="a_edge45_Node000032_Node000033"><a xlink:title=" ">
<path fill="none" stroke="#63b8ff" d="M1123.75,-243.18C1127.62,-235.06 1133.45,-222.79 1138.37,-212.45"/>
<polygon fill="#63b8ff" stroke="#63b8ff" points="1141.42,-214.18 1142.56,-203.64 1135.1,-211.17 1141.42,-214.18"/>
</a>
</g>
</g>
<!-- Node34 -->
<g id="Node000034" class="node">
<title>Node34</title>
<g id="a_Node000034"><a xlink:title=" ">
<polygon fill="#e0e0e0" stroke="#999999" points="1064.88,-201.88 1018.12,-201.88 1018.12,-182.62 1064.88,-182.62 1064.88,-201.88"/>
<text text-anchor="middle" x="1041.5" y="-187.43" font-family="Helvetica,sans-Serif" font-size="11.00">iosfwd</text>
</a>
</g>
</g>
<!-- Node32&#45;&gt;Node34 -->
<g id="edge46_Node000032_Node000034" class="edge">
<title>Node32&#45;&gt;Node34</title>
<g id="a_edge46_Node000032_Node000034"><a xlink:title=" ">
<path fill="none" stroke="#63b8ff" d="M1107.65,-243.18C1095.63,-234.11 1076.76,-219.87 1062.25,-208.91"/>
<polygon fill="#63b8ff" stroke="#63b8ff" points="1064.76,-206.42 1054.67,-203.19 1060.54,-212.01 1064.76,-206.42"/>
</a>
</g>
</g>
<!-- Node35&#45;&gt;Node7 -->
<g id="edge51_Node000035_Node000007" class="edge">
<title>Node35&#45;&gt;Node7</title>
<g id="a_edge51_Node000035_Node000007"><a xlink:title=" ">
<path fill="none" stroke="#63b8ff" d="M758.7,-370.7C769.65,-361.5 786.04,-346.08 795.5,-329.25 814.84,-294.86 797.01,-276.59 818.5,-243.5 827.67,-229.38 842.1,-217.34 854.74,-208.59"/>
<polygon fill="#63b8ff" stroke="#63b8ff" points="856.63,-211.53 863.08,-203.13 852.8,-205.68 856.63,-211.53"/>
</a>
</g>
</g>
<!-- Node35&#45;&gt;Node16 -->
<g id="edge53_Node000035_Node000016" class="edge">
<title>Node35&#45;&gt;Node16</title>
<g id="a_edge53_Node000035_Node000016"><a xlink:title=" ">
<path fill="none" stroke="#63b8ff" d="M689.56,-378.36C650.87,-374.33 602.02,-362.37 573.5,-329.25 560.64,-314.31 559.4,-291.13 560.59,-274.47"/>
<polygon fill="#63b8ff" stroke="#63b8ff" points="564.05,-275.07 561.66,-264.75 557.09,-274.31 564.05,-275.07"/>
</a>
</g>
</g>
<!-- Node35&#45;&gt;Node28 -->
<g id="edge52_Node000035_Node000028" class="edge">
<title>Node35&#45;&gt;Node28</title>
<g id="a_edge52_Node000035_Node000028"><a xlink:title=" ">
<path fill="none" stroke="#63b8ff" d="M733.73,-370.53C717.79,-360.14 691.26,-342.86 672.03,-330.33"/>
<polygon fill="#63b8ff" stroke="#63b8ff" points="674.03,-327.45 663.74,-324.93 670.2,-333.32 674.03,-327.45"/>
</a>
</g>
</g>
<!-- Node36 -->
<g id="Node000036" class="node">
<title>Node36</title>
<g id="a_Node000036"><a xlink:title=" ">
<polygon fill="#e0e0e0" stroke="#999999" points="786.25,-323.62 732.75,-323.62 732.75,-304.38 786.25,-304.38 786.25,-323.62"/>
<text text-anchor="middle" x="759.5" y="-309.18" font-family="Helvetica,sans-Serif" font-size="11.00">typeinfo</text>
</a>
</g>
</g>
<!-- Node35&#45;&gt;Node36 -->
<g id="edge50_Node000035_Node000036" class="edge">
<title>Node35&#45;&gt;Node36</title>
<g id="a_edge50_Node000035_Node000036"><a xlink:title=" ">
<path fill="none" stroke="#63b8ff" d="M749.17,-370.53C750.87,-361.39 753.57,-346.89 755.78,-335"/>
<polygon fill="#63b8ff" stroke="#63b8ff" points="759.18,-335.85 757.57,-325.38 752.3,-334.57 759.18,-335.85"/>
</a>
</g>
</g>
<!-- Node35&#45;&gt;Node37 -->
<g id="edge54_Node000035_Node000037" class="edge">
<title>Node35&#45;&gt;Node37</title>
<g id="a_edge54_Node000035_Node000037"><a xlink:title=" ">
<path fill="none" stroke="#63b8ff" d="M805.39,-371.91C899.36,-359.59 1084.19,-335.36 1179.5,-322.87"/>
<polygon fill="#63b8ff" stroke="#63b8ff" points="1179.71,-326.37 1189.17,-321.6 1178.8,-319.43 1179.71,-326.37"/>
</a>
</g>
</g>
<!-- Node37&#45;&gt;Node11 -->
<g id="edge55_Node000037_Node000011" class="edge">
<title>Node37&#45;&gt;Node11</title>
<g id="a_edge55_Node000037_Node000011"><a xlink:title=" ">
<path fill="none" stroke="#63b8ff" d="M1277.17,-298.44C1292.57,-290.39 1308.79,-278.73 1317.5,-262.75 1337.85,-225.44 1389.73,-271.52 1287.5,-110.5 1266.07,-76.74 1253.1,-71.36 1216.5,-55.25 1178.81,-38.66 1066.58,-23.59 1001.56,-15.93"/>
<polygon fill="#63b8ff" stroke="#63b8ff" points="1002.22,-12.48 991.88,-14.8 1001.41,-19.43 1002.22,-12.48"/>
</a>
</g>
</g>
<!-- Node38 -->
<g id="Node000038" class="node">
<title>Node38</title>
<g id="a_Node000038"><a xlink:title=" ">
<polygon fill="#e0e0e0" stroke="#999999" points="1308.25,-262.75 1242.75,-262.75 1242.75,-243.5 1308.25,-243.5 1308.25,-262.75"/>
<text text-anchor="middle" x="1275.5" y="-248.3" font-family="Helvetica,sans-Serif" font-size="11.00">fmt/color.h</text>
</a>
</g>
</g>
<!-- Node37&#45;&gt;Node38 -->
<g id="edge56_Node000037_Node000038" class="edge">
<title>Node37&#45;&gt;Node38</title>
<g id="a_edge56_Node000037_Node000038"><a xlink:title=" ">
<path fill="none" stroke="#63b8ff" d="M1248.4,-298.45C1253.14,-290.69 1259.03,-281.06 1264.1,-272.76"/>
<polygon fill="#63b8ff" stroke="#63b8ff" points="1266.93,-274.85 1269.16,-264.49 1260.96,-271.2 1266.93,-274.85"/>
</a>
</g>
</g>
<!-- Node39&#45;&gt;Node6 -->
<g id="edge62_Node000039_Node000006" class="edge">
<title>Node39&#45;&gt;Node6</title>
<g id="a_edge62_Node000039_Node000006"><a xlink:title=" ">
<path fill="none" stroke="#63b8ff" d="M980.85,-303.93C956.4,-294.13 917.2,-278.44 889.36,-267.29"/>
<polygon fill="#63b8ff" stroke="#63b8ff" points="890.92,-264.14 880.34,-263.67 888.32,-270.64 890.92,-264.14"/>
</a>
</g>
</g>
<!-- Node39&#45;&gt;Node7 -->
<g id="edge64_Node000039_Node000007" class="edge">
<title>Node39&#45;&gt;Node7</title>
<g id="a_edge64_Node000039_Node000007"><a xlink:title=" ">
<path fill="none" stroke="#63b8ff" d="M994.26,-304C973.78,-284.06 924.31,-235.9 897.86,-210.16"/>
<polygon fill="#63b8ff" stroke="#63b8ff" points="900.54,-207.88 890.94,-203.41 895.66,-212.89 900.54,-207.88"/>
</a>
</g>
</g>
<!-- Node39&#45;&gt;Node15 -->
<g id="edge63_Node000039_Node000015" class="edge">
<title>Node39&#45;&gt;Node15</title>
<g id="a_edge63_Node000039_Node000015"><a xlink:title=" ">
<path fill="none" stroke="#63b8ff" d="M1065.28,-307.34C1105.18,-301.28 1156.7,-288.72 1195.5,-262.75 1278.96,-206.89 1297.57,-172.28 1320.5,-74.5 1322.45,-66.17 1325.87,-61.91 1320.5,-55.25 1300.22,-30.13 1210.35,-18.48 1155.91,-13.63"/>
<polygon fill="#63b8ff" stroke="#63b8ff" points="1156.31,-10.15 1146.05,-12.8 1155.72,-17.13 1156.31,-10.15"/>
</a>
</g>
</g>
<!-- Node39&#45;&gt;Node16 -->
<g id="edge66_Node000039_Node000016" class="edge">
<title>Node39&#45;&gt;Node16</title>
<g id="a_edge66_Node000039_Node000016"><a xlink:title=" ">
<path fill="none" stroke="#63b8ff" d="M941.39,-304.69C861.93,-294.06 724.39,-275.65 638.97,-264.22"/>
<polygon fill="#63b8ff" stroke="#63b8ff" points="639.67,-260.79 629.29,-262.93 638.74,-267.72 639.67,-260.79"/>
</a>
</g>
</g>
<!-- Node39&#45;&gt;Node32 -->
<g id="edge65_Node000039_Node000032" class="edge">
<title>Node39&#45;&gt;Node32</title>
<g id="a_edge65_Node000039_Node000032"><a xlink:title=" ">
<path fill="none" stroke="#63b8ff" d="M1021.37,-303.93C1040.16,-294.39 1069.96,-279.27 1091.8,-268.18"/>
<polygon fill="#63b8ff" stroke="#63b8ff" points="1093.12,-271.44 1100.45,-263.79 1089.95,-265.2 1093.12,-271.44"/>
</a>
</g>
</g>
<!-- Node40 -->
<g id="Node000040" class="node">
<title>Node40</title>
<g id="a_Node000040"><a xlink:title=" ">
<polygon fill="#e0e0e0" stroke="#999999" points="1035,-262.75 980,-262.75 980,-243.5 1035,-243.5 1035,-262.75"/>
<text text-anchor="middle" x="1007.5" y="-248.3" font-family="Helvetica,sans-Serif" font-size="11.00">memory</text>
</a>
</g>
</g>
<!-- Node39&#45;&gt;Node40 -->
<g id="edge61_Node000039_Node000040" class="edge">
<title>Node39&#45;&gt;Node40</title>
<g id="a_edge61_Node000039_Node000040"><a xlink:title=" ">
<path fill="none" stroke="#63b8ff" d="M1004.11,-304.06C1004.64,-296.19 1005.44,-284.45 1006.13,-274.32"/>
<polygon fill="#63b8ff" stroke="#63b8ff" points="1009.6,-274.88 1006.78,-264.66 1002.61,-274.4 1009.6,-274.88"/>
</a>
</g>
</g>
<!-- Node41&#45;&gt;Node2 -->
<g id="edge73_Node000041_Node000002" class="edge">
<title>Node41&#45;&gt;Node2</title>
<g id="a_edge73_Node000041_Node000002"><a xlink:title=" ">
<path fill="none" stroke="#63b8ff" d="M238.5,-364.86C238.5,-356.08 238.5,-344.77 238.5,-335.15"/>
<polygon fill="#63b8ff" stroke="#63b8ff" points="242,-335.34 238.5,-325.34 235,-335.34 242,-335.34"/>
</a>
</g>
</g>
<!-- Node41&#45;&gt;Node16 -->
<g id="edge74_Node000041_Node000016" class="edge">
<title>Node41&#45;&gt;Node16</title>
<g id="a_edge74_Node000041_Node000016"><a xlink:title=" ">
<path fill="none" stroke="#63b8ff" d="M276.42,-364.87C340.26,-340.24 468.21,-290.88 529.4,-267.28"/>
<polygon fill="#63b8ff" stroke="#63b8ff" points="530.53,-270.6 538.6,-263.73 528.01,-264.06 530.53,-270.6"/>
</a>
</g>
</g>
</g>
</svg>
