<?xml version="1.0" encoding="UTF-8" standalone="no"?>
<!DOCTYPE svg PUBLIC "-//W3C//DTD SVG 1.1//EN"
 "http://www.w3.org/Graphics/SVG/1.1/DTD/svg11.dtd">
<!-- Generated by graphviz version 10.0.1 (0)
 -->
<!-- Title: scale.h Pages: 1 -->
<svg width="998pt" height="337pt"
 viewBox="0.00 0.00 998.25 337.25" xmlns="http://www.w3.org/2000/svg" xmlns:xlink="http://www.w3.org/1999/xlink">
<g id="graph0" class="graph" transform="scale(1 1) rotate(0) translate(4 333.25)">
<title>scale.h</title>
<!-- Node1 -->
<g id="Node000001" class="node">
<title>Node1</title>
<g id="a_Node000001"><a xlink:title="A scaling factor between two different units of measurement.">
<polygon fill="#999999" stroke="#666666" points="592.75,-329.25 543,-329.25 543,-310 592.75,-310 592.75,-329.25"/>
<text text-anchor="middle" x="567.88" y="-314.8" font-family="Helvetica,sans-Serif" font-size="11.00">scale.h</text>
</a>
</g>
</g>
<!-- Node2 -->
<g id="Node000002" class="node">
<title>Node2</title>
<g id="a_Node000002"><a xlink:href="math_8h_source.html" target="_top" xlink:title=" ">
<polygon fill="white" stroke="#666666" points="662.38,-201.88 553.38,-201.88 553.38,-182.62 662.38,-182.62 662.38,-201.88"/>
<text text-anchor="middle" x="607.88" y="-187.43" font-family="Helvetica,sans-Serif" font-size="11.00">floppy/detail/math.h</text>
</a>
</g>
</g>
<!-- Node1&#45;&gt;Node2 -->
<g id="edge1_Node000001_Node000002" class="edge">
<title>Node1&#45;&gt;Node2</title>
<g id="a_edge1_Node000001_Node000002"><a xlink:title=" ">
<path fill="none" stroke="#63b8ff" d="M569.68,-309.71C572.66,-295.52 579.05,-266.98 586.88,-243.5 590.32,-233.16 594.93,-221.94 598.94,-212.73"/>
<polygon fill="#63b8ff" stroke="#63b8ff" points="602.08,-214.29 602.97,-203.74 595.69,-211.43 602.08,-214.29"/>
</a>
</g>
</g>
<!-- Node20 -->
<g id="Node000020" class="node">
<title>Node20</title>
<g id="a_Node000020"><a xlink:href="traits_8h_source.html" target="_top" xlink:title=" ">
<polygon fill="white" stroke="#666666" points="353.75,-268.38 274,-268.38 274,-249.12 353.75,-249.12 353.75,-268.38"/>
<text text-anchor="middle" x="313.88" y="-253.93" font-family="Helvetica,sans-Serif" font-size="11.00">floppy/traits.h</text>
</a>
</g>
</g>
<!-- Node1&#45;&gt;Node20 -->
<g id="edge21_Node000001_Node000020" class="edge">
<title>Node1&#45;&gt;Node20</title>
<g id="a_edge21_Node000001_Node000020"><a xlink:title=" ">
<path fill="none" stroke="#63b8ff" d="M542.59,-312.76C501.12,-303.15 417.89,-283.86 364.09,-271.39"/>
<polygon fill="#63b8ff" stroke="#63b8ff" points="365.09,-268.03 354.56,-269.18 363.51,-274.85 365.09,-268.03"/>
</a>
</g>
</g>
<!-- Node28 -->
<g id="Node000028" class="node">
<title>Node28</title>
<g id="a_Node000028"><a xlink:href="nt__traits_8h.html" target="_top" xlink:title=" ">
<polygon fill="white" stroke="#666666" points="699.75,-274 596,-274 596,-243.5 699.75,-243.5 699.75,-274"/>
<text text-anchor="start" x="604" y="-259.55" font-family="Helvetica,sans-Serif" font-size="11.00">floppy/euclid/detail</text>
<text text-anchor="middle" x="647.88" y="-248.3" font-family="Helvetica,sans-Serif" font-size="11.00">/nt_traits.h</text>
</a>
</g>
</g>
<!-- Node1&#45;&gt;Node28 -->
<g id="edge37_Node000001_Node000028" class="edge">
<title>Node1&#45;&gt;Node28</title>
<g id="a_edge37_Node000001_Node000028"><a xlink:title=" ">
<path fill="none" stroke="#63b8ff" d="M580.03,-309.68C590.4,-302.05 605.72,-290.77 619.19,-280.86"/>
<polygon fill="#63b8ff" stroke="#63b8ff" points="620.93,-283.93 626.91,-275.18 616.78,-278.29 620.93,-283.93"/>
</a>
</g>
</g>
<!-- Node3 -->
<g id="Node000003" class="node">
<title>Node3</title>
<g id="a_Node000003"><a xlink:title=" ">
<polygon fill="#e0e0e0" stroke="#999999" points="596.5,-141 551.25,-141 551.25,-121.75 596.5,-121.75 596.5,-141"/>
<text text-anchor="middle" x="573.88" y="-126.55" font-family="Helvetica,sans-Serif" font-size="11.00">cmath</text>
</a>
</g>
</g>
<!-- Node2&#45;&gt;Node3 -->
<g id="edge2_Node000002_Node000003" class="edge">
<title>Node2&#45;&gt;Node3</title>
<g id="a_edge2_Node000002_Node000003"><a xlink:title=" ">
<path fill="none" stroke="#63b8ff" d="M602.71,-182.31C597.97,-174.1 590.79,-161.66 584.77,-151.25"/>
<polygon fill="#63b8ff" stroke="#63b8ff" points="587.88,-149.62 579.84,-142.71 581.81,-153.12 587.88,-149.62"/>
</a>
</g>
</g>
<!-- Node4 -->
<g id="Node000004" class="node">
<title>Node4</title>
<g id="a_Node000004"><a xlink:title=" ">
<polygon fill="#e0e0e0" stroke="#999999" points="654.88,-141 614.88,-141 614.88,-121.75 654.88,-121.75 654.88,-141"/>
<text text-anchor="middle" x="634.88" y="-126.55" font-family="Helvetica,sans-Serif" font-size="11.00">limits</text>
</a>
</g>
</g>
<!-- Node2&#45;&gt;Node4 -->
<g id="edge3_Node000002_Node000004" class="edge">
<title>Node2&#45;&gt;Node4</title>
<g id="a_edge3_Node000002_Node000004"><a xlink:title=" ">
<path fill="none" stroke="#63b8ff" d="M611.98,-182.31C615.7,-174.18 621.33,-161.92 626.07,-151.58"/>
<polygon fill="#63b8ff" stroke="#63b8ff" points="629.12,-153.33 630.1,-142.78 622.75,-150.41 629.12,-153.33"/>
</a>
</g>
</g>
<!-- Node5 -->
<g id="Node000005" class="node">
<title>Node5</title>
<g id="a_Node000005"><a xlink:title=" ">
<polygon fill="#e0e0e0" stroke="#999999" points="730.88,-141 672.88,-141 672.88,-121.75 730.88,-121.75 730.88,-141"/>
<text text-anchor="middle" x="701.88" y="-126.55" font-family="Helvetica,sans-Serif" font-size="11.00">numbers</text>
</a>
</g>
</g>
<!-- Node2&#45;&gt;Node5 -->
<g id="edge4_Node000002_Node000005" class="edge">
<title>Node2&#45;&gt;Node5</title>
<g id="a_edge4_Node000002_Node000005"><a xlink:title=" ">
<path fill="none" stroke="#63b8ff" d="M622.15,-182.31C636.92,-173.06 660.25,-158.45 677.86,-147.42"/>
<polygon fill="#63b8ff" stroke="#63b8ff" points="679.56,-150.48 686.18,-142.2 675.85,-144.55 679.56,-150.48"/>
</a>
</g>
</g>
<!-- Node6 -->
<g id="Node000006" class="node">
<title>Node6</title>
<g id="a_Node000006"><a xlink:title=" ">
<polygon fill="#e0e0e0" stroke="#999999" points="399.88,-141 341.88,-141 341.88,-121.75 399.88,-121.75 399.88,-141"/>
<text text-anchor="middle" x="370.88" y="-126.55" font-family="Helvetica,sans-Serif" font-size="11.00">compare</text>
</a>
</g>
</g>
<!-- Node2&#45;&gt;Node6 -->
<g id="edge5_Node000002_Node000006" class="edge">
<title>Node2&#45;&gt;Node6</title>
<g id="a_edge5_Node000002_Node000006"><a xlink:title=" ">
<path fill="none" stroke="#63b8ff" d="M571.36,-182.18C528.12,-171.44 456.32,-153.6 411.4,-142.44"/>
<polygon fill="#63b8ff" stroke="#63b8ff" points="412.33,-139.07 401.78,-140.05 410.64,-145.86 412.33,-139.07"/>
</a>
</g>
</g>
<!-- Node7 -->
<g id="Node000007" class="node">
<title>Node7</title>
<g id="a_Node000007"><a xlink:href="export_8h_source.html" target="_top" xlink:title=" ">
<polygon fill="white" stroke="#666666" points="533.38,-141 418.38,-141 418.38,-121.75 533.38,-121.75 533.38,-141"/>
<text text-anchor="middle" x="475.88" y="-126.55" font-family="Helvetica,sans-Serif" font-size="11.00">floppy/detail/export.h</text>
</a>
</g>
</g>
<!-- Node2&#45;&gt;Node7 -->
<g id="edge6_Node000002_Node000007" class="edge">
<title>Node2&#45;&gt;Node7</title>
<g id="a_edge6_Node000002_Node000007"><a xlink:title=" ">
<path fill="none" stroke="#63b8ff" d="M587.54,-182.18C565.87,-172.51 531.32,-157.1 506.38,-145.98"/>
<polygon fill="#63b8ff" stroke="#63b8ff" points="507.96,-142.85 497.4,-141.98 505.11,-149.25 507.96,-142.85"/>
</a>
</g>
</g>
<!-- Node12 -->
<g id="Node000012" class="node">
<title>Node12</title>
<g id="a_Node000012"><a xlink:href="concepts_8h_source.html" target="_top" xlink:title=" ">
<polygon fill="white" stroke="#666666" points="876.75,-141 749,-141 749,-121.75 876.75,-121.75 876.75,-141"/>
<text text-anchor="middle" x="812.88" y="-126.55" font-family="Helvetica,sans-Serif" font-size="11.00">floppy/detail/concepts.h</text>
</a>
</g>
</g>
<!-- Node2&#45;&gt;Node12 -->
<g id="edge11_Node000002_Node000012" class="edge">
<title>Node2&#45;&gt;Node12</title>
<g id="a_edge11_Node000002_Node000012"><a xlink:title=" ">
<path fill="none" stroke="#63b8ff" d="M639.46,-182.18C674.52,-172.11 731.3,-155.8 770.27,-144.61"/>
<polygon fill="#63b8ff" stroke="#63b8ff" points="771.16,-148 779.8,-141.87 769.22,-141.27 771.16,-148"/>
</a>
</g>
</g>
<!-- Node8 -->
<g id="Node000008" class="node">
<title>Node8</title>
<g id="a_Node000008"><a xlink:title=" ">
<polygon fill="#e0e0e0" stroke="#999999" points="521,-80.12 478.75,-80.12 478.75,-60.88 521,-60.88 521,-80.12"/>
<text text-anchor="middle" x="499.88" y="-65.67" font-family="Helvetica,sans-Serif" font-size="11.00">string</text>
</a>
</g>
</g>
<!-- Node7&#45;&gt;Node8 -->
<g id="edge7_Node000007_Node000008" class="edge">
<title>Node7&#45;&gt;Node8</title>
<g id="a_edge7_Node000007_Node000008"><a xlink:title=" ">
<path fill="none" stroke="#63b8ff" d="M479.52,-121.43C482.8,-113.39 487.73,-101.3 491.91,-91.03"/>
<polygon fill="#63b8ff" stroke="#63b8ff" points="495.09,-92.51 495.62,-81.93 488.61,-89.87 495.09,-92.51"/>
</a>
</g>
</g>
<!-- Node9 -->
<g id="Node000009" class="node">
<title>Node9</title>
<g id="a_Node000009"><a xlink:title=" ">
<polygon fill="#e0e0e0" stroke="#999999" points="319.88,-80.12 249.88,-80.12 249.88,-60.88 319.88,-60.88 319.88,-80.12"/>
<text text-anchor="middle" x="284.88" y="-65.67" font-family="Helvetica,sans-Serif" font-size="11.00">string_view</text>
</a>
</g>
</g>
<!-- Node7&#45;&gt;Node9 -->
<g id="edge8_Node000007_Node000009" class="edge">
<title>Node7&#45;&gt;Node9</title>
<g id="a_edge8_Node000007_Node000009"><a xlink:title=" ">
<path fill="none" stroke="#63b8ff" d="M446.45,-121.3C413.92,-111.28 361.34,-95.07 325.04,-83.88"/>
<polygon fill="#63b8ff" stroke="#63b8ff" points="326.37,-80.63 315.78,-81.03 324.31,-87.32 326.37,-80.63"/>
</a>
</g>
</g>
<!-- Node10 -->
<g id="Node000010" class="node">
<title>Node10</title>
<g id="a_Node000010"><a xlink:title=" ">
<polygon fill="#e0e0e0" stroke="#999999" points="413.5,-80.12 356.25,-80.12 356.25,-60.88 413.5,-60.88 413.5,-80.12"/>
<text text-anchor="middle" x="384.88" y="-65.67" font-family="Helvetica,sans-Serif" font-size="11.00">iostream</text>
</a>
</g>
</g>
<!-- Node7&#45;&gt;Node10 -->
<g id="edge9_Node000007_Node000010" class="edge">
<title>Node7&#45;&gt;Node10</title>
<g id="a_edge9_Node000007_Node000010"><a xlink:title=" ">
<path fill="none" stroke="#63b8ff" d="M462.05,-121.43C447.76,-112.18 425.17,-97.57 408.12,-86.54"/>
<polygon fill="#63b8ff" stroke="#63b8ff" points="410.39,-83.84 400.1,-81.35 406.59,-89.72 410.39,-83.84"/>
</a>
</g>
</g>
<!-- Node11 -->
<g id="Node000011" class="node">
<title>Node11</title>
<g id="a_Node000011"><a xlink:title=" ">
<polygon fill="#e0e0e0" stroke="#999999" points="487.75,-19.25 414,-19.25 414,0 487.75,0 487.75,-19.25"/>
<text text-anchor="middle" x="450.88" y="-4.8" font-family="Helvetica,sans-Serif" font-size="11.00">fmt/format.h</text>
</a>
</g>
</g>
<!-- Node7&#45;&gt;Node11 -->
<g id="edge10_Node000007_Node000011" class="edge">
<title>Node7&#45;&gt;Node11</title>
<g id="a_edge10_Node000007_Node000011"><a xlink:title=" ">
<path fill="none" stroke="#63b8ff" d="M474,-121.37C470,-102.22 460.56,-57.01 455.06,-30.65"/>
<polygon fill="#63b8ff" stroke="#63b8ff" points="458.56,-30.29 453.09,-21.21 451.7,-31.72 458.56,-30.29"/>
</a>
</g>
</g>
<!-- Node13 -->
<g id="Node000013" class="node">
<title>Node13</title>
<g id="a_Node000013"><a xlink:title=" ">
<polygon fill="#e0e0e0" stroke="#999999" points="685.25,-80.12 626.5,-80.12 626.5,-60.88 685.25,-60.88 685.25,-80.12"/>
<text text-anchor="middle" x="655.88" y="-65.67" font-family="Helvetica,sans-Serif" font-size="11.00">concepts</text>
</a>
</g>
</g>
<!-- Node12&#45;&gt;Node13 -->
<g id="edge12_Node000012_Node000013" class="edge">
<title>Node12&#45;&gt;Node13</title>
<g id="a_edge12_Node000012_Node000013"><a xlink:title=" ">
<path fill="none" stroke="#63b8ff" d="M788.69,-121.3C762.53,-111.49 720.58,-95.76 690.83,-84.61"/>
<polygon fill="#63b8ff" stroke="#63b8ff" points="692.1,-81.35 681.51,-81.11 689.64,-87.9 692.1,-81.35"/>
</a>
</g>
</g>
<!-- Node14 -->
<g id="Node000014" class="node">
<title>Node14</title>
<g id="a_Node000014"><a xlink:href="type__traits_8h_source.html" target="_top" xlink:title=" ">
<polygon fill="white" stroke="#666666" points="800,-85.75 703.75,-85.75 703.75,-55.25 800,-55.25 800,-85.75"/>
<text text-anchor="start" x="711.75" y="-71.3" font-family="Helvetica,sans-Serif" font-size="11.00">floppy/detail/type</text>
<text text-anchor="middle" x="751.88" y="-60.05" font-family="Helvetica,sans-Serif" font-size="11.00">_traits.h</text>
</a>
</g>
</g>
<!-- Node12&#45;&gt;Node14 -->
<g id="edge13_Node000012_Node000014" class="edge">
<title>Node12&#45;&gt;Node14</title>
<g id="a_edge13_Node000012_Node000014"><a xlink:title=" ">
<path fill="none" stroke="#63b8ff" d="M803.61,-121.43C796.01,-114.09 784.91,-103.38 774.94,-93.76"/>
<polygon fill="#63b8ff" stroke="#63b8ff" points="777.65,-91.51 768.02,-87.08 772.79,-96.55 777.65,-91.51"/>
</a>
</g>
</g>
<!-- Node16 -->
<g id="Node000016" class="node">
<title>Node16</title>
<g id="a_Node000016"><a xlink:href="types_8h_source.html" target="_top" xlink:title=" ">
<polygon fill="white" stroke="#666666" points="928.12,-80.12 817.62,-80.12 817.62,-60.88 928.12,-60.88 928.12,-80.12"/>
<text text-anchor="middle" x="872.88" y="-65.67" font-family="Helvetica,sans-Serif" font-size="11.00">floppy/detail/types.h</text>
</a>
</g>
</g>
<!-- Node12&#45;&gt;Node16 -->
<g id="edge15_Node000012_Node000016" class="edge">
<title>Node12&#45;&gt;Node16</title>
<g id="a_edge15_Node000012_Node000016"><a xlink:title=" ">
<path fill="none" stroke="#63b8ff" d="M821.99,-121.43C830.89,-112.7 844.65,-99.19 855.62,-88.43"/>
<polygon fill="#63b8ff" stroke="#63b8ff" points="857.91,-91.09 862.6,-81.59 853.01,-86.09 857.91,-91.09"/>
</a>
</g>
</g>
<!-- Node15 -->
<g id="Node000015" class="node">
<title>Node15</title>
<g id="a_Node000015"><a xlink:title=" ">
<polygon fill="#e0e0e0" stroke="#999999" points="784.62,-19.25 719.12,-19.25 719.12,0 784.62,0 784.62,-19.25"/>
<text text-anchor="middle" x="751.88" y="-4.8" font-family="Helvetica,sans-Serif" font-size="11.00">type_traits</text>
</a>
</g>
</g>
<!-- Node14&#45;&gt;Node15 -->
<g id="edge14_Node000014_Node000015" class="edge">
<title>Node14&#45;&gt;Node15</title>
<g id="a_edge14_Node000014_Node000015"><a xlink:title=" ">
<path fill="none" stroke="#63b8ff" d="M751.88,-54.95C751.88,-47.71 751.88,-38.84 751.88,-30.94"/>
<polygon fill="#63b8ff" stroke="#63b8ff" points="755.38,-31.21 751.88,-21.21 748.38,-31.21 755.38,-31.21"/>
</a>
</g>
</g>
<!-- Node16&#45;&gt;Node11 -->
<g id="edge20_Node000016_Node000011" class="edge">
<title>Node16&#45;&gt;Node11</title>
<g id="a_edge20_Node000016_Node000011"><a xlink:title=" ">
<path fill="none" stroke="#63b8ff" d="M834.75,-60.39C826.26,-58.53 817.29,-56.71 808.88,-55.25 698.91,-36.2 568.58,-22.05 499.51,-15.21"/>
<polygon fill="#63b8ff" stroke="#63b8ff" points="499.95,-11.73 489.66,-14.24 499.27,-18.7 499.95,-11.73"/>
</a>
</g>
</g>
<!-- Node16&#45;&gt;Node15 -->
<g id="edge19_Node000016_Node000015" class="edge">
<title>Node16&#45;&gt;Node15</title>
<g id="a_edge19_Node000016_Node000015"><a xlink:title=" ">
<path fill="none" stroke="#63b8ff" d="M854.23,-60.43C834.55,-50.85 803.26,-35.63 780.46,-24.53"/>
<polygon fill="#63b8ff" stroke="#63b8ff" points="782.22,-21.5 771.7,-20.27 779.16,-27.79 782.22,-21.5"/>
</a>
</g>
</g>
<!-- Node17 -->
<g id="Node000017" class="node">
<title>Node17</title>
<g id="a_Node000017"><a xlink:title=" ">
<polygon fill="#e0e0e0" stroke="#999999" points="925.12,-19.25 874.62,-19.25 874.62,0 925.12,0 925.12,-19.25"/>
<text text-anchor="middle" x="899.88" y="-4.8" font-family="Helvetica,sans-Serif" font-size="11.00">cstddef</text>
</a>
</g>
</g>
<!-- Node16&#45;&gt;Node17 -->
<g id="edge16_Node000016_Node000017" class="edge">
<title>Node16&#45;&gt;Node17</title>
<g id="a_edge16_Node000016_Node000017"><a xlink:title=" ">
<path fill="none" stroke="#63b8ff" d="M876.98,-60.56C880.7,-52.43 886.33,-40.17 891.07,-29.83"/>
<polygon fill="#63b8ff" stroke="#63b8ff" points="894.12,-31.58 895.1,-21.03 887.75,-28.66 894.12,-31.58"/>
</a>
</g>
</g>
<!-- Node18 -->
<g id="Node000018" class="node">
<title>Node18</title>
<g id="a_Node000018"><a xlink:title=" ">
<polygon fill="#e0e0e0" stroke="#999999" points="990.25,-19.25 943.5,-19.25 943.5,0 990.25,0 990.25,-19.25"/>
<text text-anchor="middle" x="966.88" y="-4.8" font-family="Helvetica,sans-Serif" font-size="11.00">cstdint</text>
</a>
</g>
</g>
<!-- Node16&#45;&gt;Node18 -->
<g id="edge17_Node000016_Node000018" class="edge">
<title>Node16&#45;&gt;Node18</title>
<g id="a_edge17_Node000016_Node000018"><a xlink:title=" ">
<path fill="none" stroke="#63b8ff" d="M887.15,-60.56C901.92,-51.31 925.25,-36.7 942.86,-25.67"/>
<polygon fill="#63b8ff" stroke="#63b8ff" points="944.56,-28.73 951.18,-20.45 940.85,-22.8 944.56,-28.73"/>
</a>
</g>
</g>
<!-- Node19 -->
<g id="Node000019" class="node">
<title>Node19</title>
<g id="a_Node000019"><a xlink:title=" ">
<polygon fill="#e0e0e0" stroke="#999999" points="856.62,-19.25 803.12,-19.25 803.12,0 856.62,0 856.62,-19.25"/>
<text text-anchor="middle" x="829.88" y="-4.8" font-family="Helvetica,sans-Serif" font-size="11.00">optional</text>
</a>
</g>
</g>
<!-- Node16&#45;&gt;Node19 -->
<g id="edge18_Node000016_Node000019" class="edge">
<title>Node16&#45;&gt;Node19</title>
<g id="a_edge18_Node000016_Node000019"><a xlink:title=" ">
<path fill="none" stroke="#63b8ff" d="M866.34,-60.56C860.22,-52.17 850.88,-39.38 843.18,-28.84"/>
<polygon fill="#63b8ff" stroke="#63b8ff" points="846.08,-26.88 837.36,-20.87 840.43,-31.01 846.08,-26.88"/>
</a>
</g>
</g>
<!-- Node20&#45;&gt;Node7 -->
<g id="edge25_Node000020_Node000007" class="edge">
<title>Node20&#45;&gt;Node7</title>
<g id="a_edge25_Node000020_Node000007"><a xlink:title=" ">
<path fill="none" stroke="#63b8ff" d="M318.1,-248.76C326.19,-232.4 345.37,-197.58 370.88,-177 388.56,-162.73 411.49,-152.28 431.41,-145.1"/>
<polygon fill="#63b8ff" stroke="#63b8ff" points="432.35,-148.48 440.68,-141.94 430.08,-141.86 432.35,-148.48"/>
</a>
</g>
</g>
<!-- Node20&#45;&gt;Node10 -->
<g id="edge23_Node000020_Node000010" class="edge">
<title>Node20&#45;&gt;Node10</title>
<g id="a_edge23_Node000020_Node000010"><a xlink:title=" ">
<path fill="none" stroke="#63b8ff" d="M313.2,-248.89C311.86,-226.32 310.71,-165.31 332.88,-121.75 339.74,-108.25 351.69,-96.31 362.4,-87.46"/>
<polygon fill="#63b8ff" stroke="#63b8ff" points="364.39,-90.35 370.14,-81.45 360.1,-84.82 364.39,-90.35"/>
</a>
</g>
</g>
<!-- Node21 -->
<g id="Node000021" class="node">
<title>Node21</title>
<g id="a_Node000021"><a xlink:title=" ">
<polygon fill="#e0e0e0" stroke="#999999" points="206.38,-141 151.38,-141 151.38,-121.75 206.38,-121.75 206.38,-141"/>
<text text-anchor="middle" x="178.88" y="-126.55" font-family="Helvetica,sans-Serif" font-size="11.00">memory</text>
</a>
</g>
</g>
<!-- Node20&#45;&gt;Node21 -->
<g id="edge22_Node000020_Node000021" class="edge">
<title>Node20&#45;&gt;Node21</title>
<g id="a_edge22_Node000020_Node000021"><a xlink:title=" ">
<path fill="none" stroke="#63b8ff" d="M273.57,-257.7C235.54,-255.24 180.37,-244.89 152.88,-207.5 140.14,-190.19 152.51,-166.15 164.16,-149.97"/>
<polygon fill="#63b8ff" stroke="#63b8ff" points="166.8,-152.28 170.16,-142.23 161.27,-147.99 166.8,-152.28"/>
</a>
</g>
</g>
<!-- Node22 -->
<g id="Node000022" class="node">
<title>Node22</title>
<g id="a_Node000022"><a xlink:title=" ">
<polygon fill="#e0e0e0" stroke="#999999" points="509.5,-207.5 380.25,-207.5 380.25,-177 509.5,-177 509.5,-207.5"/>
<text text-anchor="start" x="388.25" y="-193.05" font-family="Helvetica,sans-Serif" font-size="11.00">experimental/propagate</text>
<text text-anchor="middle" x="444.88" y="-181.8" font-family="Helvetica,sans-Serif" font-size="11.00">_const</text>
</a>
</g>
</g>
<!-- Node20&#45;&gt;Node22 -->
<g id="edge24_Node000020_Node000022" class="edge">
<title>Node20&#45;&gt;Node22</title>
<g id="a_edge24_Node000020_Node000022"><a xlink:title=" ">
<path fill="none" stroke="#63b8ff" d="M332.37,-248.65C351.17,-239.39 380.89,-224.76 405.06,-212.85"/>
<polygon fill="#63b8ff" stroke="#63b8ff" points="406.59,-216 414.01,-208.44 403.5,-209.72 406.59,-216"/>
</a>
</g>
</g>
<!-- Node23 -->
<g id="Node000023" class="node">
<title>Node23</title>
<g id="a_Node000023"><a xlink:href="formatters_8h_source.html" target="_top" xlink:title=" ">
<polygon fill="white" stroke="#666666" points="133.75,-141 0,-141 0,-121.75 133.75,-121.75 133.75,-141"/>
<text text-anchor="middle" x="66.88" y="-126.55" font-family="Helvetica,sans-Serif" font-size="11.00">floppy/detail/formatters.h</text>
</a>
</g>
</g>
<!-- Node20&#45;&gt;Node23 -->
<g id="edge26_Node000020_Node000023" class="edge">
<title>Node20&#45;&gt;Node23</title>
<g id="a_edge26_Node000020_Node000023"><a xlink:title=" ">
<path fill="none" stroke="#63b8ff" d="M273.54,-251.52C237.63,-244.7 184.63,-231.39 143.88,-207.5 118.42,-192.58 95.06,-167.46 80.9,-150.42"/>
<polygon fill="#63b8ff" stroke="#63b8ff" points="83.63,-148.22 74.63,-142.63 78.17,-152.61 83.63,-148.22"/>
</a>
</g>
</g>
<!-- Node26 -->
<g id="Node000026" class="node">
<title>Node26</title>
<g id="a_Node000026"><a xlink:href="memory_8h_source.html" target="_top" xlink:title=" ">
<polygon fill="white" stroke="#666666" points="285.5,-201.88 162.25,-201.88 162.25,-182.62 285.5,-182.62 285.5,-201.88"/>
<text text-anchor="middle" x="223.88" y="-187.43" font-family="Helvetica,sans-Serif" font-size="11.00">floppy/detail/memory.h</text>
</a>
</g>
</g>
<!-- Node20&#45;&gt;Node26 -->
<g id="edge31_Node000020_Node000026" class="edge">
<title>Node20&#45;&gt;Node26</title>
<g id="a_edge31_Node000020_Node000026"><a xlink:title=" ">
<path fill="none" stroke="#63b8ff" d="M301.36,-248.78C286.93,-238.44 262.97,-221.27 245.5,-208.75"/>
<polygon fill="#63b8ff" stroke="#63b8ff" points="247.97,-206.21 237.8,-203.23 243.89,-211.9 247.97,-206.21"/>
</a>
</g>
</g>
<!-- Node23&#45;&gt;Node9 -->
<g id="edge27_Node000023_Node000009" class="edge">
<title>Node23&#45;&gt;Node9</title>
<g id="a_edge27_Node000023_Node000009"><a xlink:title=" ">
<path fill="none" stroke="#63b8ff" d="M100.46,-121.3C137.99,-111.17 198.9,-94.72 240.37,-83.52"/>
<polygon fill="#63b8ff" stroke="#63b8ff" points="241.05,-86.96 249.79,-80.98 239.22,-80.2 241.05,-86.96"/>
</a>
</g>
</g>
<!-- Node23&#45;&gt;Node11 -->
<g id="edge30_Node000023_Node000011" class="edge">
<title>Node23&#45;&gt;Node11</title>
<g id="a_edge30_Node000023_Node000011"><a xlink:title=" ">
<path fill="none" stroke="#63b8ff" d="M84.71,-121.26C115.72,-105.74 181.94,-74.03 240.88,-55.25 295.04,-37.99 359.2,-25.46 402.22,-18.14"/>
<polygon fill="#63b8ff" stroke="#63b8ff" points="402.72,-21.61 412.01,-16.51 401.57,-14.71 402.72,-21.61"/>
</a>
</g>
</g>
<!-- Node24 -->
<g id="Node000024" class="node">
<title>Node24</title>
<g id="a_Node000024"><a xlink:title=" ">
<polygon fill="#e0e0e0" stroke="#999999" points="60,-80.12 5.75,-80.12 5.75,-60.88 60,-60.88 60,-80.12"/>
<text text-anchor="middle" x="32.88" y="-65.67" font-family="Helvetica,sans-Serif" font-size="11.00">sstream</text>
</a>
</g>
</g>
<!-- Node23&#45;&gt;Node24 -->
<g id="edge28_Node000023_Node000024" class="edge">
<title>Node23&#45;&gt;Node24</title>
<g id="a_edge28_Node000023_Node000024"><a xlink:title=" ">
<path fill="none" stroke="#63b8ff" d="M61.71,-121.43C56.97,-113.22 49.79,-100.78 43.77,-90.37"/>
<polygon fill="#63b8ff" stroke="#63b8ff" points="46.88,-88.75 38.84,-81.84 40.81,-92.25 46.88,-88.75"/>
</a>
</g>
</g>
<!-- Node25 -->
<g id="Node000025" class="node">
<title>Node25</title>
<g id="a_Node000025"><a xlink:title=" ">
<polygon fill="#e0e0e0" stroke="#999999" points="125.25,-80.12 78.5,-80.12 78.5,-60.88 125.25,-60.88 125.25,-80.12"/>
<text text-anchor="middle" x="101.88" y="-65.67" font-family="Helvetica,sans-Serif" font-size="11.00">iosfwd</text>
</a>
</g>
</g>
<!-- Node23&#45;&gt;Node25 -->
<g id="edge29_Node000023_Node000025" class="edge">
<title>Node23&#45;&gt;Node25</title>
<g id="a_edge29_Node000023_Node000025"><a xlink:title=" ">
<path fill="none" stroke="#63b8ff" d="M72.19,-121.43C77.07,-113.22 84.47,-100.78 90.65,-90.37"/>
<polygon fill="#63b8ff" stroke="#63b8ff" points="93.63,-92.21 95.74,-81.83 87.62,-88.63 93.63,-92.21"/>
</a>
</g>
</g>
<!-- Node26&#45;&gt;Node6 -->
<g id="edge33_Node000026_Node000006" class="edge">
<title>Node26&#45;&gt;Node6</title>
<g id="a_edge33_Node000026_Node000006"><a xlink:title=" ">
<path fill="none" stroke="#63b8ff" d="M246.52,-182.18C270.98,-172.38 310.17,-156.69 338.02,-145.54"/>
<polygon fill="#63b8ff" stroke="#63b8ff" points="339.06,-148.89 347.04,-141.92 336.45,-142.39 339.06,-148.89"/>
</a>
</g>
</g>
<!-- Node26&#45;&gt;Node7 -->
<g id="edge35_Node000026_Node000007" class="edge">
<title>Node26&#45;&gt;Node7</title>
<g id="a_edge35_Node000026_Node000007"><a xlink:title=" ">
<path fill="none" stroke="#63b8ff" d="M262.7,-182.18C306.54,-171.94 378,-155.24 425.95,-144.04"/>
<polygon fill="#63b8ff" stroke="#63b8ff" points="426.59,-147.48 435.53,-141.8 425,-140.67 426.59,-147.48"/>
</a>
</g>
</g>
<!-- Node26&#45;&gt;Node21 -->
<g id="edge32_Node000026_Node000021" class="edge">
<title>Node26&#45;&gt;Node21</title>
<g id="a_edge32_Node000026_Node000021"><a xlink:title=" ">
<path fill="none" stroke="#63b8ff" d="M217.04,-182.31C210.56,-173.84 200.65,-160.87 192.55,-150.27"/>
<polygon fill="#63b8ff" stroke="#63b8ff" points="195.55,-148.42 186.69,-142.6 189.98,-152.67 195.55,-148.42"/>
</a>
</g>
</g>
<!-- Node26&#45;&gt;Node23 -->
<g id="edge36_Node000026_Node000023" class="edge">
<title>Node26&#45;&gt;Node23</title>
<g id="a_edge36_Node000026_Node000023"><a xlink:title=" ">
<path fill="none" stroke="#63b8ff" d="M199.69,-182.18C173.53,-172.37 131.58,-156.64 101.83,-145.48"/>
<polygon fill="#63b8ff" stroke="#63b8ff" points="103.1,-142.22 92.51,-141.99 100.64,-148.78 103.1,-142.22"/>
</a>
</g>
</g>
<!-- Node27 -->
<g id="Node000027" class="node">
<title>Node27</title>
<g id="a_Node000027"><a xlink:title=" ">
<polygon fill="#e0e0e0" stroke="#999999" points="285.75,-141 224,-141 224,-121.75 285.75,-121.75 285.75,-141"/>
<text text-anchor="middle" x="254.88" y="-126.55" font-family="Helvetica,sans-Serif" font-size="11.00">stdexcept</text>
</a>
</g>
</g>
<!-- Node26&#45;&gt;Node27 -->
<g id="edge34_Node000026_Node000027" class="edge">
<title>Node26&#45;&gt;Node27</title>
<g id="a_edge34_Node000026_Node000027"><a xlink:title=" ">
<path fill="none" stroke="#63b8ff" d="M228.58,-182.31C232.86,-174.18 239.32,-161.92 244.76,-151.58"/>
<polygon fill="#63b8ff" stroke="#63b8ff" points="247.86,-153.22 249.42,-142.74 241.66,-149.96 247.86,-153.22"/>
</a>
</g>
</g>
<!-- Node28&#45;&gt;Node2 -->
<g id="edge38_Node000028_Node000002" class="edge">
<title>Node28&#45;&gt;Node2</title>
<g id="a_edge38_Node000028_Node000002"><a xlink:title=" ">
<path fill="none" stroke="#63b8ff" d="M638.8,-243.11C633.04,-233.83 625.55,-221.75 619.38,-211.8"/>
<polygon fill="#63b8ff" stroke="#63b8ff" points="622.39,-210.01 614.14,-203.36 616.44,-213.7 622.39,-210.01"/>
</a>
</g>
</g>
<!-- Node28&#45;&gt;Node12 -->
<g id="edge39_Node000028_Node000012" class="edge">
<title>Node28&#45;&gt;Node12</title>
<g id="a_edge39_Node000028_Node000012"><a xlink:title=" ">
<path fill="none" stroke="#63b8ff" d="M667.13,-243.12C698.4,-219.36 760,-172.55 792.18,-148.1"/>
<polygon fill="#63b8ff" stroke="#63b8ff" points="794.11,-151.03 799.95,-142.19 789.87,-145.46 794.11,-151.03"/>
</a>
</g>
</g>
</g>
</svg>
