<?xml version="1.0" encoding="UTF-8" standalone="no"?>
<!DOCTYPE svg PUBLIC "-//W3C//DTD SVG 1.1//EN"
 "http://www.w3.org/Graphics/SVG/1.1/DTD/svg11.dtd">
<!-- Generated by graphviz version 10.0.1 (0)
 -->
<!-- Title: scale.h Pages: 1 -->
<!--zoomable 337 -->

<svg id="main" version="1.1" xmlns="http://www.w3.org/2000/svg" xmlns:xlink="http://www.w3.org/1999/xlink" xml:space="preserve" onload="init(evt)">
<style type="text/css"><![CDATA[
.node, .edge {opacity: 0.7;}
.node.selected, .edge.selected {opacity: 1;}
.edge:hover path { stroke: red; }
.edge:hover polygon { stroke: red; fill: red; }
]]></style>

<defs>
  <circle id="rim" cx="0" cy="0" r="7"/>
  <circle id="rim2" cx="0" cy="0" r="3.5"/>
  <g id="zoomPlus">
    <use xlink:href="#rim" fill="#404040"><set attributeName="fill" to="#808080" begin="zoomplus.mouseover" end="zoomplus.mouseout"/></use>
    <path d="M-4,0h8M0,-4v8" fill="none" stroke="white" stroke-width="1.5" pointer-events="none"/>
  </g>
  <g id="zoomMin">
    <use xlink:href="#rim" fill="#404040"><set attributeName="fill" to="#808080" begin="zoomminus.mouseover" end="zoomminus.mouseout"/></use>
    <path d="M-4,0h8" fill="none" stroke="white" stroke-width="1.5" pointer-events="none"/>
  </g>
  <g id="arrowUp" transform="translate(30 24)">
    <use xlink:href="#rim"/>
    <path pointer-events="none" fill="none" stroke="white" stroke-width="1.5" d="M0,-3.0v7 M-2.5,-0.5L0,-3.0L2.5,-0.5"/>
  </g>
  <g id="arrowRight" transform="rotate(90) translate(36 -43)">
    <use xlink:href="#rim"/>
    <path pointer-events="none" fill="none" stroke="white" stroke-width="1.5" d="M0,-3.0v7 M-2.5,-0.5L0,-3.0L2.5,-0.5"/>
  </g>
  <g id="arrowDown" transform="rotate(180) translate(-30 -48)">
    <use xlink:href="#rim"/>
    <path pointer-events="none" fill="none" stroke="white" stroke-width="1.5" d="M0,-3.0v7 M-2.5,-0.5L0,-3.0L2.5,-0.5"/>
  </g>
  <g id="arrowLeft" transform="rotate(270) translate(-36 17)">
    <use xlink:href="#rim"/>
    <path pointer-events="none" fill="none" stroke="white" stroke-width="1.5" d="M0,-3.0v7 M-2.5,-0.5L0,-3.0L2.5,-0.5"/>
  </g>
  <g id="resetDef">
    <use xlink:href="#rim2" fill="#404040"><set attributeName="fill" to="#808080" begin="reset.mouseover" end="reset.mouseout"/></use>
  </g>
</defs>
<script type="application/ecmascript">
var viewWidth = 953;
var viewHeight = 337;
var sectionId = 'dynsection-0';
</script>
<script type="application/ecmascript" xlink:href="svg.min.js"/>
<svg id="graph" class="graph">
<g id="viewport">
<title>scale.h</title>
<!-- Node1 -->
<g id="Node000001" class="node">
<title>Node1</title>
<g id="a_Node000001"><a xlink:title="A scaling factor between two different units of measurement.">
<polygon fill="#999999" stroke="#666666" points="351.88,-329.25 302.12,-329.25 302.12,-310 351.88,-310 351.88,-329.25"/>
<text text-anchor="middle" x="327" y="-314.8" font-family="Helvetica,sans-Serif" font-size="11.00">scale.h</text>
</a>
</g>
</g>
<!-- Node2 -->
<g id="Node000002" class="node">
<title>Node2</title>
<g id="a_Node000002"><a xlink:href="math_8h_source.html" target="_top" xlink:title=" ">
<polygon fill="white" stroke="#666666" points="293.5,-207.5 184.5,-207.5 184.5,-188.25 293.5,-188.25 293.5,-207.5"/>
<text text-anchor="middle" x="239" y="-193.05" font-family="Helvetica,sans-Serif" font-size="11.00">floppy/detail/math.h</text>
</a>
</g>
</g>
<!-- Node1&#45;&gt;Node2 -->
<g id="edge1_Node000001_Node000002" class="edge">
<title>Node1&#45;&gt;Node2</title>
<g id="a_edge1_Node000001_Node000002"><a xlink:title=" ">
<path fill="none" stroke="#63b8ff" d="M309.52,-309.65C295.95,-301.87 277.55,-289.45 266,-274 253.57,-257.37 246.44,-234.48 242.66,-218.35"/>
<polygon fill="#63b8ff" stroke="#63b8ff" points="246.19,-218.09 240.71,-209.03 239.34,-219.53 246.19,-218.09"/>
</a>
</g>
</g>
<!-- Node20 -->
<g id="Node000020" class="node">
<title>Node20</title>
<g id="a_Node000020"><a xlink:href="traits_8h_source.html" target="_top" xlink:title=" ">
<polygon fill="white" stroke="#666666" points="674.88,-207.5 595.12,-207.5 595.12,-188.25 674.88,-188.25 674.88,-207.5"/>
<text text-anchor="middle" x="635" y="-193.05" font-family="Helvetica,sans-Serif" font-size="11.00">floppy/traits.h</text>
</a>
</g>
</g>
<!-- Node1&#45;&gt;Node20 -->
<g id="edge21_Node000001_Node000020" class="edge">
<title>Node1&#45;&gt;Node20</title>
<g id="a_edge21_Node000001_Node000020"><a xlink:title=" ">
<path fill="none" stroke="#63b8ff" d="M350.4,-309.53C404.44,-288.52 538.06,-236.57 601.08,-212.06"/>
<polygon fill="#63b8ff" stroke="#63b8ff" points="602.17,-215.39 610.22,-208.51 599.63,-208.87 602.17,-215.39"/>
</a>
</g>
</g>
<!-- Node26 -->
<g id="Node000026" class="node">
<title>Node26</title>
<g id="a_Node000026"><a xlink:href="nt__traits_8h.html" target="_top" xlink:title=" ">
<polygon fill="white" stroke="#666666" points="378.88,-274 275.12,-274 275.12,-243.5 378.88,-243.5 378.88,-274"/>
<text text-anchor="start" x="283.12" y="-259.55" font-family="Helvetica,sans-Serif" font-size="11.00">floppy/euclid/detail</text>
<text text-anchor="middle" x="327" y="-248.3" font-family="Helvetica,sans-Serif" font-size="11.00">/nt_traits.h</text>
</a>
</g>
</g>
<!-- Node1&#45;&gt;Node26 -->
<g id="edge31_Node000001_Node000026" class="edge">
<title>Node1&#45;&gt;Node26</title>
<g id="a_edge31_Node000001_Node000026"><a xlink:title=" ">
<path fill="none" stroke="#63b8ff" d="M327,-309.68C327,-303.23 327,-294.16 327,-285.51"/>
<polygon fill="#63b8ff" stroke="#63b8ff" points="330.5,-285.8 327,-275.8 323.5,-285.8 330.5,-285.8"/>
</a>
</g>
</g>
<!-- Node3 -->
<g id="Node000003" class="node">
<title>Node3</title>
<g id="a_Node000003"><a xlink:title=" ">
<polygon fill="#e0e0e0" stroke="#999999" points="197.62,-146.62 152.38,-146.62 152.38,-127.38 197.62,-127.38 197.62,-146.62"/>
<text text-anchor="middle" x="175" y="-132.18" font-family="Helvetica,sans-Serif" font-size="11.00">cmath</text>
</a>
</g>
</g>
<!-- Node2&#45;&gt;Node3 -->
<g id="edge2_Node000002_Node000003" class="edge">
<title>Node2&#45;&gt;Node3</title>
<g id="a_edge2_Node000002_Node000003"><a xlink:title=" ">
<path fill="none" stroke="#63b8ff" d="M229.28,-187.93C219.69,-179.12 204.81,-165.43 193.06,-154.61"/>
<polygon fill="#63b8ff" stroke="#63b8ff" points="195.65,-152.25 185.93,-148.05 190.92,-157.4 195.65,-152.25"/>
</a>
</g>
</g>
<!-- Node4 -->
<g id="Node000004" class="node">
<title>Node4</title>
<g id="a_Node000004"><a xlink:title=" ">
<polygon fill="#e0e0e0" stroke="#999999" points="256,-146.62 216,-146.62 216,-127.38 256,-127.38 256,-146.62"/>
<text text-anchor="middle" x="236" y="-132.18" font-family="Helvetica,sans-Serif" font-size="11.00">limits</text>
</a>
</g>
</g>
<!-- Node2&#45;&gt;Node4 -->
<g id="edge3_Node000002_Node000004" class="edge">
<title>Node2&#45;&gt;Node4</title>
<g id="a_edge3_Node000002_Node000004"><a xlink:title=" ">
<path fill="none" stroke="#63b8ff" d="M238.54,-187.93C238.14,-180.07 237.55,-168.32 237.03,-158.2"/>
<polygon fill="#63b8ff" stroke="#63b8ff" points="240.54,-158.35 236.54,-148.54 233.55,-158.7 240.54,-158.35"/>
</a>
</g>
</g>
<!-- Node5 -->
<g id="Node000005" class="node">
<title>Node5</title>
<g id="a_Node000005"><a xlink:title=" ">
<polygon fill="#e0e0e0" stroke="#999999" points="58,-146.62 0,-146.62 0,-127.38 58,-127.38 58,-146.62"/>
<text text-anchor="middle" x="29" y="-132.18" font-family="Helvetica,sans-Serif" font-size="11.00">numbers</text>
</a>
</g>
</g>
<!-- Node2&#45;&gt;Node5 -->
<g id="edge4_Node000002_Node000005" class="edge">
<title>Node2&#45;&gt;Node5</title>
<g id="a_edge4_Node000002_Node000005"><a xlink:title=" ">
<path fill="none" stroke="#63b8ff" d="M199.04,-187.77C163.96,-179.47 111.71,-166.39 67,-152.25 65.45,-151.76 63.86,-151.24 62.27,-150.7"/>
<polygon fill="#63b8ff" stroke="#63b8ff" points="63.79,-147.53 53.2,-147.49 61.46,-154.13 63.79,-147.53"/>
</a>
</g>
</g>
<!-- Node6 -->
<g id="Node000006" class="node">
<title>Node6</title>
<g id="a_Node000006"><a xlink:title=" ">
<polygon fill="#e0e0e0" stroke="#999999" points="134,-146.62 76,-146.62 76,-127.38 134,-127.38 134,-146.62"/>
<text text-anchor="middle" x="105" y="-132.18" font-family="Helvetica,sans-Serif" font-size="11.00">compare</text>
</a>
</g>
</g>
<!-- Node2&#45;&gt;Node6 -->
<g id="edge5_Node000002_Node000006" class="edge">
<title>Node2&#45;&gt;Node6</title>
<g id="a_edge5_Node000002_Node000006"><a xlink:title=" ">
<path fill="none" stroke="#63b8ff" d="M218.36,-187.8C196.36,-178.14 161.28,-162.73 135.97,-151.61"/>
<polygon fill="#63b8ff" stroke="#63b8ff" points="137.4,-148.41 126.83,-147.59 134.58,-154.82 137.4,-148.41"/>
</a>
</g>
</g>
<!-- Node7 -->
<g id="Node000007" class="node">
<title>Node7</title>
<g id="a_Node000007"><a xlink:href="export_8h_source.html" target="_top" xlink:title=" ">
<polygon fill="white" stroke="#666666" points="534.5,-146.62 419.5,-146.62 419.5,-127.38 534.5,-127.38 534.5,-146.62"/>
<text text-anchor="middle" x="477" y="-132.18" font-family="Helvetica,sans-Serif" font-size="11.00">floppy/detail/export.h</text>
</a>
</g>
</g>
<!-- Node2&#45;&gt;Node7 -->
<g id="edge6_Node000002_Node000007" class="edge">
<title>Node2&#45;&gt;Node7</title>
<g id="a_edge6_Node000002_Node000007"><a xlink:title=" ">
<path fill="none" stroke="#63b8ff" d="M275.67,-187.8C316.9,-177.61 383.99,-161.01 429.28,-149.81"/>
<polygon fill="#63b8ff" stroke="#63b8ff" points="429.96,-153.24 438.82,-147.44 428.28,-146.45 429.96,-153.24"/>
</a>
</g>
</g>
<!-- Node12 -->
<g id="Node000012" class="node">
<title>Node12</title>
<g id="a_Node000012"><a xlink:href="concepts_8h_source.html" target="_top" xlink:title=" ">
<polygon fill="white" stroke="#666666" points="401.88,-146.62 274.12,-146.62 274.12,-127.38 401.88,-127.38 401.88,-146.62"/>
<text text-anchor="middle" x="338" y="-132.18" font-family="Helvetica,sans-Serif" font-size="11.00">floppy/detail/concepts.h</text>
</a>
</g>
</g>
<!-- Node2&#45;&gt;Node12 -->
<g id="edge11_Node000002_Node000012" class="edge">
<title>Node2&#45;&gt;Node12</title>
<g id="a_edge11_Node000002_Node000012"><a xlink:title=" ">
<path fill="none" stroke="#63b8ff" d="M254.04,-187.93C269.66,-178.64 294.39,-163.94 312.97,-152.89"/>
<polygon fill="#63b8ff" stroke="#63b8ff" points="314.72,-155.92 321.52,-147.8 311.14,-149.9 314.72,-155.92"/>
</a>
</g>
</g>
<!-- Node8 -->
<g id="Node000008" class="node">
<title>Node8</title>
<g id="a_Node000008"><a xlink:title=" ">
<polygon fill="#e0e0e0" stroke="#999999" points="499.12,-80.12 456.88,-80.12 456.88,-60.88 499.12,-60.88 499.12,-80.12"/>
<text text-anchor="middle" x="478" y="-65.67" font-family="Helvetica,sans-Serif" font-size="11.00">string</text>
</a>
</g>
</g>
<!-- Node7&#45;&gt;Node8 -->
<g id="edge7_Node000007_Node000008" class="edge">
<title>Node7&#45;&gt;Node8</title>
<g id="a_edge7_Node000007_Node000008"><a xlink:title=" ">
<path fill="none" stroke="#63b8ff" d="M477.14,-127.03C477.28,-117.98 477.5,-103.7 477.68,-91.88"/>
<polygon fill="#63b8ff" stroke="#63b8ff" points="481.18,-91.96 477.84,-81.91 474.18,-91.85 481.18,-91.96"/>
</a>
</g>
</g>
<!-- Node9 -->
<g id="Node000009" class="node">
<title>Node9</title>
<g id="a_Node000009"><a xlink:title=" ">
<polygon fill="#e0e0e0" stroke="#999999" points="753,-80.12 683,-80.12 683,-60.88 753,-60.88 753,-80.12"/>
<text text-anchor="middle" x="718" y="-65.67" font-family="Helvetica,sans-Serif" font-size="11.00">string_view</text>
</a>
</g>
</g>
<!-- Node7&#45;&gt;Node9 -->
<g id="edge8_Node000007_Node000009" class="edge">
<title>Node7&#45;&gt;Node9</title>
<g id="a_edge8_Node000007_Node000009"><a xlink:title=" ">
<path fill="none" stroke="#63b8ff" d="M510.97,-126.94C548.62,-116.89 611.16,-100.18 665,-85.75 667.74,-85.02 670.56,-84.26 673.4,-83.5"/>
<polygon fill="#63b8ff" stroke="#63b8ff" points="674.15,-86.92 682.9,-80.95 672.33,-80.16 674.15,-86.92"/>
</a>
</g>
</g>
<!-- Node10 -->
<g id="Node000010" class="node">
<title>Node10</title>
<g id="a_Node000010"><a xlink:title=" ">
<polygon fill="#e0e0e0" stroke="#999999" points="655.62,-80.12 598.38,-80.12 598.38,-60.88 655.62,-60.88 655.62,-80.12"/>
<text text-anchor="middle" x="627" y="-65.67" font-family="Helvetica,sans-Serif" font-size="11.00">iostream</text>
</a>
</g>
</g>
<!-- Node7&#45;&gt;Node10 -->
<g id="edge9_Node000007_Node000010" class="edge">
<title>Node7&#45;&gt;Node10</title>
<g id="a_edge9_Node000007_Node000010"><a xlink:title=" ">
<path fill="none" stroke="#63b8ff" d="M498.17,-126.9C523.52,-116 566.21,-97.64 595.45,-85.07"/>
<polygon fill="#63b8ff" stroke="#63b8ff" points="596.74,-88.32 604.54,-81.16 593.97,-81.89 596.74,-88.32"/>
</a>
</g>
</g>
<!-- Node11 -->
<g id="Node000011" class="node">
<title>Node11</title>
<g id="a_Node000011"><a xlink:title=" ">
<polygon fill="#e0e0e0" stroke="#999999" points="580.88,-19.25 507.12,-19.25 507.12,0 580.88,0 580.88,-19.25"/>
<text text-anchor="middle" x="544" y="-4.8" font-family="Helvetica,sans-Serif" font-size="11.00">fmt/format.h</text>
</a>
</g>
</g>
<!-- Node7&#45;&gt;Node11 -->
<g id="edge10_Node000007_Node000011" class="edge">
<title>Node7&#45;&gt;Node11</title>
<g id="a_edge10_Node000007_Node000011"><a xlink:title=" ">
<path fill="none" stroke="#63b8ff" d="M483.01,-126.91C489.49,-116.98 499.94,-100.5 508,-85.75 518.16,-67.14 528.49,-45.2 535.47,-29.85"/>
<polygon fill="#63b8ff" stroke="#63b8ff" points="538.56,-31.5 539.47,-20.95 532.18,-28.64 538.56,-31.5"/>
</a>
</g>
</g>
<!-- Node13 -->
<g id="Node000013" class="node">
<title>Node13</title>
<g id="a_Node000013"><a xlink:title=" ">
<polygon fill="#e0e0e0" stroke="#999999" points="196.38,-80.12 137.62,-80.12 137.62,-60.88 196.38,-60.88 196.38,-80.12"/>
<text text-anchor="middle" x="167" y="-65.67" font-family="Helvetica,sans-Serif" font-size="11.00">concepts</text>
</a>
</g>
</g>
<!-- Node12&#45;&gt;Node13 -->
<g id="edge12_Node000012_Node000013" class="edge">
<title>Node12&#45;&gt;Node13</title>
<g id="a_edge12_Node000012_Node000013"><a xlink:title=" ">
<path fill="none" stroke="#63b8ff" d="M313.86,-126.9C284.58,-115.85 235.01,-97.15 201.65,-84.57"/>
<polygon fill="#63b8ff" stroke="#63b8ff" points="203.02,-81.35 192.43,-81.09 200.55,-87.9 203.02,-81.35"/>
</a>
</g>
</g>
<!-- Node14 -->
<g id="Node000014" class="node">
<title>Node14</title>
<g id="a_Node000014"><a xlink:href="type__traits_8h_source.html" target="_top" xlink:title=" ">
<polygon fill="white" stroke="#666666" points="311.12,-85.75 214.88,-85.75 214.88,-55.25 311.12,-55.25 311.12,-85.75"/>
<text text-anchor="start" x="222.88" y="-71.3" font-family="Helvetica,sans-Serif" font-size="11.00">floppy/detail/type</text>
<text text-anchor="middle" x="263" y="-60.05" font-family="Helvetica,sans-Serif" font-size="11.00">_traits.h</text>
</a>
</g>
</g>
<!-- Node12&#45;&gt;Node14 -->
<g id="edge13_Node000012_Node000014" class="edge">
<title>Node12&#45;&gt;Node14</title>
<g id="a_edge13_Node000012_Node000014"><a xlink:title=" ">
<path fill="none" stroke="#63b8ff" d="M327.57,-127.03C317.47,-118.34 301.75,-104.83 288.35,-93.3"/>
<polygon fill="#63b8ff" stroke="#63b8ff" points="290.98,-90.94 281.11,-87.08 286.41,-96.25 290.98,-90.94"/>
</a>
</g>
</g>
<!-- Node16 -->
<g id="Node000016" class="node">
<title>Node16</title>
<g id="a_Node000016"><a xlink:href="types_8h_source.html" target="_top" xlink:title=" ">
<polygon fill="white" stroke="#666666" points="439.25,-80.12 328.75,-80.12 328.75,-60.88 439.25,-60.88 439.25,-80.12"/>
<text text-anchor="middle" x="384" y="-65.67" font-family="Helvetica,sans-Serif" font-size="11.00">floppy/detail/types.h</text>
</a>
</g>
</g>
<!-- Node12&#45;&gt;Node16 -->
<g id="edge15_Node000012_Node000016" class="edge">
<title>Node12&#45;&gt;Node16</title>
<g id="a_edge15_Node000012_Node000016"><a xlink:title=" ">
<path fill="none" stroke="#63b8ff" d="M344.4,-127.03C351.26,-117.4 362.35,-101.85 371.06,-89.65"/>
<polygon fill="#63b8ff" stroke="#63b8ff" points="373.82,-91.8 376.78,-81.62 368.12,-87.73 373.82,-91.8"/>
</a>
</g>
</g>
<!-- Node15 -->
<g id="Node000015" class="node">
<title>Node15</title>
<g id="a_Node000015"><a xlink:title=" ">
<polygon fill="#e0e0e0" stroke="#999999" points="284.75,-19.25 219.25,-19.25 219.25,0 284.75,0 284.75,-19.25"/>
<text text-anchor="middle" x="252" y="-4.8" font-family="Helvetica,sans-Serif" font-size="11.00">type_traits</text>
</a>
</g>
</g>
<!-- Node14&#45;&gt;Node15 -->
<g id="edge14_Node000014_Node000015" class="edge">
<title>Node14&#45;&gt;Node15</title>
<g id="a_edge14_Node000014_Node000015"><a xlink:title=" ">
<path fill="none" stroke="#63b8ff" d="M260.28,-54.95C258.93,-47.71 257.27,-38.84 255.8,-30.94"/>
<polygon fill="#63b8ff" stroke="#63b8ff" points="259.25,-30.38 253.97,-21.19 252.37,-31.66 259.25,-30.38"/>
</a>
</g>
</g>
<!-- Node16&#45;&gt;Node11 -->
<g id="edge20_Node000016_Node000011" class="edge">
<title>Node16&#45;&gt;Node11</title>
<g id="a_edge20_Node000016_Node000011"><a xlink:title=" ">
<path fill="none" stroke="#63b8ff" d="M408.65,-60.43C435.43,-50.58 478.44,-34.75 508.77,-23.59"/>
<polygon fill="#63b8ff" stroke="#63b8ff" points="509.73,-26.97 517.9,-20.23 507.31,-20.4 509.73,-26.97"/>
</a>
</g>
</g>
<!-- Node16&#45;&gt;Node15 -->
<g id="edge19_Node000016_Node000015" class="edge">
<title>Node16&#45;&gt;Node15</title>
<g id="a_edge19_Node000016_Node000015"><a xlink:title=" ">
<path fill="none" stroke="#63b8ff" d="M363.66,-60.43C341.99,-50.76 307.44,-35.35 282.51,-24.23"/>
<polygon fill="#63b8ff" stroke="#63b8ff" points="284.08,-21.1 273.52,-20.23 281.23,-27.5 284.08,-21.1"/>
</a>
</g>
</g>
<!-- Node17 -->
<g id="Node000017" class="node">
<title>Node17</title>
<g id="a_Node000017"><a xlink:title=" ">
<polygon fill="#e0e0e0" stroke="#999999" points="489.25,-19.25 438.75,-19.25 438.75,0 489.25,0 489.25,-19.25"/>
<text text-anchor="middle" x="464" y="-4.8" font-family="Helvetica,sans-Serif" font-size="11.00">cstddef</text>
</a>
</g>
</g>
<!-- Node16&#45;&gt;Node17 -->
<g id="edge16_Node000016_Node000017" class="edge">
<title>Node16&#45;&gt;Node17</title>
<g id="a_edge16_Node000016_Node000017"><a xlink:title=" ">
<path fill="none" stroke="#63b8ff" d="M396.15,-60.56C408.48,-51.48 427.83,-37.24 442.72,-26.29"/>
<polygon fill="#63b8ff" stroke="#63b8ff" points="444.54,-29.29 450.52,-20.55 440.39,-23.66 444.54,-29.29"/>
</a>
</g>
</g>
<!-- Node18 -->
<g id="Node000018" class="node">
<title>Node18</title>
<g id="a_Node000018"><a xlink:title=" ">
<polygon fill="#e0e0e0" stroke="#999999" points="349.38,-19.25 302.62,-19.25 302.62,0 349.38,0 349.38,-19.25"/>
<text text-anchor="middle" x="326" y="-4.8" font-family="Helvetica,sans-Serif" font-size="11.00">cstdint</text>
</a>
</g>
</g>
<!-- Node16&#45;&gt;Node18 -->
<g id="edge17_Node000016_Node000018" class="edge">
<title>Node16&#45;&gt;Node18</title>
<g id="a_edge17_Node000016_Node000018"><a xlink:title=" ">
<path fill="none" stroke="#63b8ff" d="M375.19,-60.56C366.59,-51.83 353.28,-38.32 342.68,-27.55"/>
<polygon fill="#63b8ff" stroke="#63b8ff" points="345.47,-25.4 335.95,-20.73 340.48,-30.31 345.47,-25.4"/>
</a>
</g>
</g>
<!-- Node19 -->
<g id="Node000019" class="node">
<title>Node19</title>
<g id="a_Node000019"><a xlink:title=" ">
<polygon fill="#e0e0e0" stroke="#999999" points="420.75,-19.25 367.25,-19.25 367.25,0 420.75,0 420.75,-19.25"/>
<text text-anchor="middle" x="394" y="-4.8" font-family="Helvetica,sans-Serif" font-size="11.00">optional</text>
</a>
</g>
</g>
<!-- Node16&#45;&gt;Node19 -->
<g id="edge18_Node000016_Node000019" class="edge">
<title>Node16&#45;&gt;Node19</title>
<g id="a_edge18_Node000016_Node000019"><a xlink:title=" ">
<path fill="none" stroke="#63b8ff" d="M385.52,-60.56C386.86,-52.69 388.85,-40.95 390.57,-30.82"/>
<polygon fill="#63b8ff" stroke="#63b8ff" points="393.99,-31.59 392.21,-21.14 387.09,-30.42 393.99,-31.59"/>
</a>
</g>
</g>
<!-- Node20&#45;&gt;Node7 -->
<g id="edge25_Node000020_Node000007" class="edge">
<title>Node20&#45;&gt;Node7</title>
<g id="a_edge25_Node000020_Node000007"><a xlink:title=" ">
<path fill="none" stroke="#63b8ff" d="M610.66,-187.8C584.22,-177.95 541.75,-162.13 511.79,-150.96"/>
<polygon fill="#63b8ff" stroke="#63b8ff" points="513.38,-147.82 502.79,-147.61 510.94,-154.38 513.38,-147.82"/>
</a>
</g>
</g>
<!-- Node20&#45;&gt;Node10 -->
<g id="edge23_Node000020_Node000010" class="edge">
<title>Node20&#45;&gt;Node10</title>
<g id="a_edge23_Node000020_Node000010"><a xlink:title=" ">
<path fill="none" stroke="#63b8ff" d="M675.17,-194.81C705.06,-190.91 744,-180.34 764,-152.25 771.86,-141.21 771.76,-132.86 764,-121.75 758.14,-113.36 705.12,-95.55 666.79,-83.55"/>
<polygon fill="#63b8ff" stroke="#63b8ff" points="667.96,-80.25 657.38,-80.63 665.89,-86.93 667.96,-80.25"/>
</a>
</g>
</g>
<!-- Node21 -->
<g id="Node000021" class="node">
<title>Node21</title>
<g id="a_Node000021"><a xlink:title=" ">
<polygon fill="#e0e0e0" stroke="#999999" points="607.5,-146.62 552.5,-146.62 552.5,-127.38 607.5,-127.38 607.5,-146.62"/>
<text text-anchor="middle" x="580" y="-132.18" font-family="Helvetica,sans-Serif" font-size="11.00">memory</text>
</a>
</g>
</g>
<!-- Node20&#45;&gt;Node21 -->
<g id="edge22_Node000020_Node000021" class="edge">
<title>Node20&#45;&gt;Node21</title>
<g id="a_edge22_Node000020_Node000021"><a xlink:title=" ">
<path fill="none" stroke="#63b8ff" d="M626.65,-187.93C618.57,-179.29 606.12,-165.96 596.11,-155.25"/>
<polygon fill="#63b8ff" stroke="#63b8ff" points="598.85,-153.05 589.47,-148.13 593.73,-157.83 598.85,-153.05"/>
</a>
</g>
</g>
<!-- Node22 -->
<g id="Node000022" class="node">
<title>Node22</title>
<g id="a_Node000022"><a xlink:title=" ">
<polygon fill="#e0e0e0" stroke="#999999" points="754.62,-152.25 625.38,-152.25 625.38,-121.75 754.62,-121.75 754.62,-152.25"/>
<text text-anchor="start" x="633.38" y="-137.8" font-family="Helvetica,sans-Serif" font-size="11.00">experimental/propagate</text>
<text text-anchor="middle" x="690" y="-126.55" font-family="Helvetica,sans-Serif" font-size="11.00">_const</text>
</a>
</g>
</g>
<!-- Node20&#45;&gt;Node22 -->
<g id="edge24_Node000020_Node000022" class="edge">
<title>Node20&#45;&gt;Node22</title>
<g id="a_edge24_Node000020_Node000022"><a xlink:title=" ">
<path fill="none" stroke="#63b8ff" d="M643.35,-187.93C650.07,-180.74 659.82,-170.31 668.66,-160.84"/>
<polygon fill="#63b8ff" stroke="#63b8ff" points="671.12,-163.33 675.39,-153.64 666.01,-158.56 671.12,-163.33"/>
</a>
</g>
</g>
<!-- Node23 -->
<g id="Node000023" class="node">
<title>Node23</title>
<g id="a_Node000023"><a xlink:href="formatters_8h_source.html" target="_top" xlink:title=" ">
<polygon fill="white" stroke="#666666" points="944.88,-146.62 811.12,-146.62 811.12,-127.38 944.88,-127.38 944.88,-146.62"/>
<text text-anchor="middle" x="878" y="-132.18" font-family="Helvetica,sans-Serif" font-size="11.00">floppy/detail/formatters.h</text>
</a>
</g>
</g>
<!-- Node20&#45;&gt;Node23 -->
<g id="edge26_Node000020_Node000023" class="edge">
<title>Node20&#45;&gt;Node23</title>
<g id="a_edge26_Node000020_Node000023"><a xlink:title=" ">
<path fill="none" stroke="#63b8ff" d="M672.44,-187.8C714.62,-177.58 783.33,-160.94 829.57,-149.73"/>
<polygon fill="#63b8ff" stroke="#63b8ff" points="830.16,-153.19 839.05,-147.44 828.51,-146.39 830.16,-153.19"/>
</a>
</g>
</g>
<!-- Node23&#45;&gt;Node9 -->
<g id="edge27_Node000023_Node000009" class="edge">
<title>Node23&#45;&gt;Node9</title>
<g id="a_edge27_Node000023_Node000009"><a xlink:title=" ">
<path fill="none" stroke="#63b8ff" d="M855.42,-126.9C828.14,-115.9 782.04,-97.31 750.83,-84.74"/>
<polygon fill="#63b8ff" stroke="#63b8ff" points="752.46,-81.62 741.87,-81.12 749.84,-88.11 752.46,-81.62"/>
</a>
</g>
</g>
<!-- Node23&#45;&gt;Node11 -->
<g id="edge30_Node000023_Node000011" class="edge">
<title>Node23&#45;&gt;Node11</title>
<g id="a_edge30_Node000023_Node000011"><a xlink:title=" ">
<path fill="none" stroke="#63b8ff" d="M865.45,-127.06C836.63,-106.56 767.69,-57.69 762,-55.25 706.64,-31.51 637.84,-20.14 592.51,-14.87"/>
<polygon fill="#63b8ff" stroke="#63b8ff" points="593.06,-11.41 582.74,-13.79 592.3,-18.37 593.06,-11.41"/>
</a>
</g>
</g>
<!-- Node24 -->
<g id="Node000024" class="node">
<title>Node24</title>
<g id="a_Node000024"><a xlink:title=" ">
<polygon fill="#e0e0e0" stroke="#999999" points="870.12,-80.12 815.88,-80.12 815.88,-60.88 870.12,-60.88 870.12,-80.12"/>
<text text-anchor="middle" x="843" y="-65.67" font-family="Helvetica,sans-Serif" font-size="11.00">sstream</text>
</a>
</g>
</g>
<!-- Node23&#45;&gt;Node24 -->
<g id="edge28_Node000023_Node000024" class="edge">
<title>Node23&#45;&gt;Node24</title>
<g id="a_edge28_Node000023_Node000024"><a xlink:title=" ">
<path fill="none" stroke="#63b8ff" d="M873.13,-127.03C868.01,-117.6 859.81,-102.47 853.25,-90.38"/>
<polygon fill="#63b8ff" stroke="#63b8ff" points="856.39,-88.84 848.55,-81.72 850.24,-92.18 856.39,-88.84"/>
</a>
</g>
</g>
<!-- Node25 -->
<g id="Node000025" class="node">
<title>Node25</title>
<g id="a_Node000025"><a xlink:title=" ">
<polygon fill="#e0e0e0" stroke="#999999" points="935.38,-80.12 888.62,-80.12 888.62,-60.88 935.38,-60.88 935.38,-80.12"/>
<text text-anchor="middle" x="912" y="-65.67" font-family="Helvetica,sans-Serif" font-size="11.00">iosfwd</text>
</a>
</g>
</g>
<!-- Node23&#45;&gt;Node25 -->
<g id="edge29_Node000023_Node000025" class="edge">
<title>Node23&#45;&gt;Node25</title>
<g id="a_edge29_Node000023_Node000025"><a xlink:title=" ">
<path fill="none" stroke="#63b8ff" d="M882.73,-127.03C887.7,-117.6 895.67,-102.47 902.05,-90.38"/>
<polygon fill="#63b8ff" stroke="#63b8ff" points="905.04,-92.21 906.61,-81.73 898.85,-88.95 905.04,-92.21"/>
</a>
</g>
</g>
<!-- Node26&#45;&gt;Node2 -->
<g id="edge32_Node000026_Node000002" class="edge">
<title>Node26&#45;&gt;Node2</title>
<g id="a_edge32_Node000026_Node000002"><a xlink:title=" ">
<path fill="none" stroke="#63b8ff" d="M305.25,-243.2C292.11,-234.4 275.37,-223.21 262.01,-214.27"/>
<polygon fill="#63b8ff" stroke="#63b8ff" points="264.08,-211.44 253.82,-208.79 260.19,-217.26 264.08,-211.44"/>
</a>
</g>
</g>
<!-- Node26&#45;&gt;Node12 -->
<g id="edge33_Node000026_Node000012" class="edge">
<title>Node26&#45;&gt;Node12</title>
<g id="a_edge33_Node000026_Node000012"><a xlink:title=" ">
<path fill="none" stroke="#63b8ff" d="M328.35,-243.07C330.3,-221.78 333.93,-182.29 336.14,-158.26"/>
<polygon fill="#63b8ff" stroke="#63b8ff" points="339.61,-158.77 337.04,-148.5 332.64,-158.13 339.61,-158.77"/>
</a>
</g>
</g>
</g>
</svg>

<g id="navigator" transform="translate(0 0)" fill="#404254">
  <rect fill="#f2f5e9" fill-opacity="0.5" stroke="#606060" stroke-width=".5" x="0" y="0" width="60" height="60"/>
  <use id="zoomplus" xlink:href="#zoomPlus" x="17" y="9" onmousedown="handleZoom(evt,'in')"/>
  <use id="zoomminus" xlink:href="#zoomMin" x="42" y="9" onmousedown="handleZoom(evt,'out')"/>
  <use id="reset" xlink:href="#resetDef" x="30" y="36" onmousedown="handleReset()"/>
   <use id="arrowup" xlink:href="#arrowUp" x="0" y="0" onmousedown="handlePan(0,-1)"/>
  <use id="arrowright" xlink:href="#arrowRight" x="0" y="0" onmousedown="handlePan(1,0)"/>
  <use id="arrowdown" xlink:href="#arrowDown" x="0" y="0" onmousedown="handlePan(0,1)"/>
  <use id="arrowleft" xlink:href="#arrowLeft" x="0" y="0" onmousedown="handlePan(-1,0)"/>
</g>
<svg viewBox="0 0 15 15" width="100%" height="30px" preserveAspectRatio="xMaxYMin meet">
 <g id="arrow_out" transform="scale(0.3 0.3)">
  <a xlink:href="scale_8h__incl_org.svg" target="_base">
   <rect id="button" ry="5" rx="5" y="6" x="6" height="38" width="38"
        fill="#f2f5e9" fill-opacity="0.5" stroke="#606060" stroke-width="1.0"/>
   <path id="arrow"
     d="M 11.500037,31.436501 C 11.940474,20.09759 22.043105,11.32322 32.158766,21.979434 L 37.068811,17.246167 C 37.068811,17.246167 37.088388,32 37.088388,32 L 22.160133,31.978069 C 22.160133,31.978069 26.997745,27.140456 26.997745,27.140456 C 18.528582,18.264221 13.291696,25.230495 11.500037,31.436501 z"
     style="fill:#404040;"/>
  </a>
 </g>
</svg>

<style type='text/css'>
<![CDATA[
[data-mouse-over-selected='false'] { opacity: 0.7; }
[data-mouse-over-selected='true']  { opacity: 1.0; }
]]>
</style>
<script type="application/ecmascript"><![CDATA[
document.addEventListener('DOMContentLoaded', (event) => {
  highlightEdges();
  highlightAdjacentNodes();
});
]]></script>
</svg>
