<?xml version="1.0" encoding="UTF-8" standalone="no"?>
<!DOCTYPE svg PUBLIC "-//W3C//DTD SVG 1.1//EN"
 "http://www.w3.org/Graphics/SVG/1.1/DTD/svg11.dtd">
<!-- Generated by graphviz version 10.0.1 (0)
 -->
<!-- Title: size2d.h Pages: 1 -->
<svg width="134pt" height="193pt"
 viewBox="0.00 0.00 133.80 193.00" xmlns="http://www.w3.org/2000/svg" xmlns:xlink="http://www.w3.org/1999/xlink">

<svg id="main" version="1.1" xmlns="http://www.w3.org/2000/svg" xmlns:xlink="http://www.w3.org/1999/xlink" xml:space="preserve" onload="init(evt)">
<style type="text/css"><![CDATA[
.node, .edge {opacity: 0.7;}
.node.selected, .edge.selected {opacity: 1;}
.edge:hover path { stroke: red; }
.edge:hover polygon { stroke: red; fill: red; }
]]></style>
<script type="application/ecmascript" xlink:href="svg.min.js"/>
<svg id="graph" class="graph">
<g id="graph0" class="graph" transform="scale(1 1) rotate(0) translate(4 189)">
<title>size2d.h</title>
<!-- Node1 -->
<g id="Node000001" class="node">
<title>Node1</title>
<g id="a_Node000001"><a xlink:title="A two&#45;dimensional size tagged with a unit.">
<polygon fill="#999999" stroke="#666666" points="59.55,-185 3.8,-185 3.8,-165.75 59.55,-165.75 59.55,-185"/>
<text text-anchor="middle" x="31.67" y="-170.55" font-family="Helvetica,sans-Serif" font-size="11.00">size2d.h</text>
</a>
</g>
</g>
<!-- Node2 -->
<g id="Node000002" class="node">
<title>Node2</title>
<g id="a_Node000002"><a xlink:href="euclid_8h.html" target="_top" xlink:title="Small collection of classes and functions for geometric types with a focus on 2d graphics and layout.">
<polygon fill="white" stroke="#666666" points="70.05,-19.25 17.3,-19.25 17.3,0 70.05,0 70.05,-19.25"/>
<text text-anchor="middle" x="43.67" y="-4.8" font-family="Helvetica,sans-Serif" font-size="11.00">euclid.h</text>
</a>
</g>
</g>
<!-- Node1&#45;&gt;Node2 -->
<g id="edge1_Node000001_Node000002" class="edge">
<title>Node1&#45;&gt;Node2</title>
<g id="a_edge1_Node000001_Node000002"><a xlink:title=" ">
<path fill="none" stroke="#63b8ff" d="M20.86,-155.62C8.58,-131.76 -8.2,-89.53 4.67,-55.25 10.17,-40.61 22.89,-27.62 32.31,-19.49"/>
<polygon fill="#63b8ff" stroke="#63b8ff" points="17.64,-157.03 25.5,-164.14 23.79,-153.68 17.64,-157.03"/>
</a>
</g>
</g>
<!-- Node3 -->
<g id="Node000003" class="node">
<title>Node3</title>
<g id="a_Node000003"><a xlink:href="point2d_8h.html" target="_top" xlink:title="A two&#45;dimensional point tagged with a unit.">
<polygon fill="white" stroke="#666666" points="73.8,-74.5 13.55,-74.5 13.55,-55.25 73.8,-55.25 73.8,-74.5"/>
<text text-anchor="middle" x="43.67" y="-60.05" font-family="Helvetica,sans-Serif" font-size="11.00">point2d.h</text>
</a>
</g>
</g>
<!-- Node1&#45;&gt;Node3 -->
<g id="edge2_Node000001_Node000003" class="edge">
<title>Node1&#45;&gt;Node3</title>
<g id="a_edge2_Node000001_Node000003"><a xlink:title=" ">
<path fill="none" stroke="#63b8ff" d="M33.89,-154.35C36.51,-130.65 40.76,-92.22 42.68,-74.88"/>
<polygon fill="#63b8ff" stroke="#63b8ff" points="30.44,-153.67 32.82,-163.99 37.4,-154.44 30.44,-153.67"/>
</a>
</g>
</g>
<!-- Node4 -->
<g id="Node000004" class="node">
<title>Node4</title>
<g id="a_Node000004"><a xlink:href="vector2d_8h.html" target="_top" xlink:title="A two&#45;dimensional vector tagged with a unit.">
<polygon fill="white" stroke="#666666" points="125.8,-129.75 59.55,-129.75 59.55,-110.5 125.8,-110.5 125.8,-129.75"/>
<text text-anchor="middle" x="92.67" y="-115.3" font-family="Helvetica,sans-Serif" font-size="11.00">vector2d.h</text>
</a>
</g>
</g>
<!-- Node1&#45;&gt;Node4 -->
<g id="edge4_Node000001_Node000004" class="edge">
<title>Node1&#45;&gt;Node4</title>
<g id="a_edge4_Node000001_Node000004"><a xlink:title=" ">
<path fill="none" stroke="#63b8ff" d="M50.56,-157.89C61.09,-148.69 73.8,-137.6 82.48,-130.02"/>
<polygon fill="#63b8ff" stroke="#63b8ff" points="48.39,-155.13 43.16,-164.35 53,-160.41 48.39,-155.13"/>
</a>
</g>
</g>
<!-- Node3&#45;&gt;Node2 -->
<g id="edge3_Node000003_Node000002" class="edge">
<title>Node3&#45;&gt;Node2</title>
<g id="a_edge3_Node000003_Node000002"><a xlink:title=" ">
<path fill="none" stroke="#63b8ff" d="M43.67,-43.63C43.67,-35.34 43.67,-26.17 43.67,-19.61"/>
<polygon fill="#63b8ff" stroke="#63b8ff" points="40.17,-43.57 43.67,-53.57 47.17,-43.57 40.17,-43.57"/>
</a>
</g>
</g>
<!-- Node4&#45;&gt;Node2 -->
<g id="edge5_Node000004_Node000002" class="edge">
<title>Node4&#45;&gt;Node2</title>
<g id="a_edge5_Node000004_Node000002"><a xlink:title=" ">
<path fill="none" stroke="#63b8ff" d="M92.38,-99.01C91.51,-85.99 89.08,-68.98 82.67,-55.25 76.06,-41.08 63.55,-28 54.48,-19.72"/>
<polygon fill="#63b8ff" stroke="#63b8ff" points="88.88,-99.05 92.75,-108.91 95.87,-98.78 88.88,-99.05"/>
</a>
</g>
</g>
<!-- Node4&#45;&gt;Node3 -->
<g id="edge6_Node000004_Node000003" class="edge">
<title>Node4&#45;&gt;Node3</title>
<g id="a_edge6_Node000004_Node000003"><a xlink:title=" ">
<path fill="none" stroke="#63b8ff" d="M76.95,-102.04C68.63,-93 58.76,-82.27 51.94,-74.86"/>
<polygon fill="#63b8ff" stroke="#63b8ff" points="74.21,-104.23 83.56,-109.22 79.36,-99.49 74.21,-104.23"/>
</a>
</g>
</g>
</g>
</svg>
</svg>

<style type='text/css'>
<![CDATA[
[data-mouse-over-selected='false'] { opacity: 0.7; }
[data-mouse-over-selected='true']  { opacity: 1.0; }
]]>
</style>
<script type="application/ecmascript"><![CDATA[
document.addEventListener('DOMContentLoaded', (event) => {
  highlightEdges();
  highlightAdjacentNodes();
});
]]></script>
</svg>
