<?xml version="1.0" encoding="UTF-8" standalone="no"?>
<!DOCTYPE svg PUBLIC "-//W3C//DTD SVG 1.1//EN"
 "http://www.w3.org/Graphics/SVG/1.1/DTD/svg11.dtd">
<!-- Generated by graphviz version 10.0.1 (0)
 -->
<!-- Title: size2d.h Pages: 1 -->
<!--zoomable 514 -->

<svg id="main" version="1.1" xmlns="http://www.w3.org/2000/svg" xmlns:xlink="http://www.w3.org/1999/xlink" xml:space="preserve" onload="init(evt)">
<style type="text/css"><![CDATA[
.node, .edge {opacity: 0.7;}
.node.selected, .edge.selected {opacity: 1;}
.edge:hover path { stroke: red; }
.edge:hover polygon { stroke: red; fill: red; }
]]></style>

<defs>
  <circle id="rim" cx="0" cy="0" r="7"/>
  <circle id="rim2" cx="0" cy="0" r="3.5"/>
  <g id="zoomPlus">
    <use xlink:href="#rim" fill="#404040"><set attributeName="fill" to="#808080" begin="zoomplus.mouseover" end="zoomplus.mouseout"/></use>
    <path d="M-4,0h8M0,-4v8" fill="none" stroke="white" stroke-width="1.5" pointer-events="none"/>
  </g>
  <g id="zoomMin">
    <use xlink:href="#rim" fill="#404040"><set attributeName="fill" to="#808080" begin="zoomminus.mouseover" end="zoomminus.mouseout"/></use>
    <path d="M-4,0h8" fill="none" stroke="white" stroke-width="1.5" pointer-events="none"/>
  </g>
  <g id="arrowUp" transform="translate(30 24)">
    <use xlink:href="#rim"/>
    <path pointer-events="none" fill="none" stroke="white" stroke-width="1.5" d="M0,-3.0v7 M-2.5,-0.5L0,-3.0L2.5,-0.5"/>
  </g>
  <g id="arrowRight" transform="rotate(90) translate(36 -43)">
    <use xlink:href="#rim"/>
    <path pointer-events="none" fill="none" stroke="white" stroke-width="1.5" d="M0,-3.0v7 M-2.5,-0.5L0,-3.0L2.5,-0.5"/>
  </g>
  <g id="arrowDown" transform="rotate(180) translate(-30 -48)">
    <use xlink:href="#rim"/>
    <path pointer-events="none" fill="none" stroke="white" stroke-width="1.5" d="M0,-3.0v7 M-2.5,-0.5L0,-3.0L2.5,-0.5"/>
  </g>
  <g id="arrowLeft" transform="rotate(270) translate(-36 17)">
    <use xlink:href="#rim"/>
    <path pointer-events="none" fill="none" stroke="white" stroke-width="1.5" d="M0,-3.0v7 M-2.5,-0.5L0,-3.0L2.5,-0.5"/>
  </g>
  <g id="resetDef">
    <use xlink:href="#rim2" fill="#404040"><set attributeName="fill" to="#808080" begin="reset.mouseover" end="reset.mouseout"/></use>
  </g>
</defs>
<script type="application/ecmascript">
var viewWidth = 982;
var viewHeight = 514;
var sectionId = 'dynsection-0';
</script>
<script type="application/ecmascript" xlink:href="svg.min.js"/>
<svg id="graph" class="graph">
<g id="viewport">
<title>size2d.h</title>
<!-- Node1 -->
<g id="Node000001" class="node">
<title>Node1</title>
<g id="a_Node000001"><a xlink:title="A two&#45;dimensional size tagged with a unit.">
<polygon fill="#999999" stroke="#666666" points="403.88,-506.25 348.12,-506.25 348.12,-487 403.88,-487 403.88,-506.25"/>
<text text-anchor="middle" x="376" y="-491.8" font-family="Helvetica,sans-Serif" font-size="11.00">size2d.h</text>
</a>
</g>
</g>
<!-- Node2 -->
<g id="Node000002" class="node">
<title>Node2</title>
<g id="a_Node000002"><a xlink:href="math_8h_source.html" target="_top" xlink:title=" ">
<polygon fill="white" stroke="#666666" points="388.5,-207.5 279.5,-207.5 279.5,-188.25 388.5,-188.25 388.5,-207.5"/>
<text text-anchor="middle" x="334" y="-193.05" font-family="Helvetica,sans-Serif" font-size="11.00">floppy/detail/math.h</text>
</a>
</g>
</g>
<!-- Node1&#45;&gt;Node2 -->
<g id="edge1_Node000001_Node000002" class="edge">
<title>Node1&#45;&gt;Node2</title>
<g id="a_edge1_Node000001_Node000002"><a xlink:title=" ">
<path fill="none" stroke="#63b8ff" d="M388.69,-486.69C412.61,-468.7 462,-425.53 462,-375.88 462,-375.88 462,-375.88 462,-318.62 462,-266.61 404.94,-230.67 367.01,-212.53"/>
<polygon fill="#63b8ff" stroke="#63b8ff" points="368.81,-209.5 358.26,-208.51 365.89,-215.86 368.81,-209.5"/>
</a>
</g>
</g>
<!-- Node12 -->
<g id="Node000012" class="node">
<title>Node12</title>
<g id="a_Node000012"><a xlink:href="concepts_8h_source.html" target="_top" xlink:title=" ">
<polygon fill="white" stroke="#666666" points="155.88,-146.62 28.12,-146.62 28.12,-127.38 155.88,-127.38 155.88,-146.62"/>
<text text-anchor="middle" x="92" y="-132.18" font-family="Helvetica,sans-Serif" font-size="11.00">floppy/detail/concepts.h</text>
</a>
</g>
</g>
<!-- Node1&#45;&gt;Node12 -->
<g id="edge21_Node000001_Node000012" class="edge">
<title>Node1&#45;&gt;Node12</title>
<g id="a_edge21_Node000001_Node000012"><a xlink:title=" ">
<path fill="none" stroke="#63b8ff" d="M347.74,-492.8C260.3,-483.29 0,-448.84 0,-375.88 0,-375.88 0,-375.88 0,-257.75 0,-212.69 41.48,-174.15 68.73,-153.69"/>
<polygon fill="#63b8ff" stroke="#63b8ff" points="70.73,-156.56 76.8,-147.88 66.64,-150.89 70.73,-156.56"/>
</a>
</g>
</g>
<!-- Node20 -->
<g id="Node000020" class="node">
<title>Node20</title>
<g id="a_Node000020"><a xlink:href="length_8h.html" target="_top" xlink:title="A one&#45;dimensional distance with associated unit of measurement.">
<polygon fill="white" stroke="#666666" points="434.25,-384.5 317.75,-384.5 317.75,-365.25 434.25,-365.25 434.25,-384.5"/>
<text text-anchor="middle" x="376" y="-370.05" font-family="Helvetica,sans-Serif" font-size="11.00">floppy/euclid/length.h</text>
</a>
</g>
</g>
<!-- Node1&#45;&gt;Node20 -->
<g id="edge22_Node000001_Node000020" class="edge">
<title>Node1&#45;&gt;Node20</title>
<g id="a_edge22_Node000001_Node000020"><a xlink:title=" ">
<path fill="none" stroke="#63b8ff" d="M376,-486.62C376,-467.55 376,-422.66 376,-396.26"/>
<polygon fill="#63b8ff" stroke="#63b8ff" points="379.5,-396.49 376,-386.49 372.5,-396.49 379.5,-396.49"/>
</a>
</g>
</g>
<!-- Node29 -->
<g id="Node000029" class="node">
<title>Node29</title>
<g id="a_Node000029"><a xlink:href="nt__traits2d_8h.html" target="_top" xlink:title=" ">
<polygon fill="white" stroke="#666666" points="273.88,-451 170.12,-451 170.12,-420.5 273.88,-420.5 273.88,-451"/>
<text text-anchor="start" x="178.12" y="-436.55" font-family="Helvetica,sans-Serif" font-size="11.00">floppy/euclid/detail</text>
<text text-anchor="middle" x="222" y="-425.3" font-family="Helvetica,sans-Serif" font-size="11.00">/nt_traits2d.h</text>
</a>
</g>
</g>
<!-- Node1&#45;&gt;Node29 -->
<g id="edge39_Node000001_Node000029" class="edge">
<title>Node1&#45;&gt;Node29</title>
<g id="a_edge39_Node000001_Node000029"><a xlink:title=" ">
<path fill="none" stroke="#63b8ff" d="M352.27,-486.55C330.67,-478.3 298.1,-465.84 270.93,-455.46"/>
<polygon fill="#63b8ff" stroke="#63b8ff" points="272.44,-452.29 261.85,-451.99 269.94,-458.83 272.44,-452.29"/>
</a>
</g>
</g>
<!-- Node34 -->
<g id="Node000034" class="node">
<title>Node34</title>
<g id="a_Node000034"><a xlink:title=" ">
<polygon fill="#e0e0e0" stroke="#999999" points="539.88,-445.38 490.12,-445.38 490.12,-426.12 539.88,-426.12 539.88,-445.38"/>
<text text-anchor="middle" x="515" y="-430.93" font-family="Helvetica,sans-Serif" font-size="11.00">qsize.h</text>
</a>
</g>
</g>
<!-- Node1&#45;&gt;Node34 -->
<g id="edge46_Node000001_Node000034" class="edge">
<title>Node1&#45;&gt;Node34</title>
<g id="a_edge46_Node000001_Node000034"><a xlink:title=" ">
<path fill="none" stroke="#63b8ff" d="M397.41,-486.55C420.34,-476.85 456.95,-461.34 483.23,-450.21"/>
<polygon fill="#63b8ff" stroke="#63b8ff" points="484.55,-453.45 492.4,-446.32 481.82,-447 484.55,-453.45"/>
</a>
</g>
</g>
<!-- Node3 -->
<g id="Node000003" class="node">
<title>Node3</title>
<g id="a_Node000003"><a xlink:title=" ">
<polygon fill="#e0e0e0" stroke="#999999" points="295.62,-146.62 250.38,-146.62 250.38,-127.38 295.62,-127.38 295.62,-146.62"/>
<text text-anchor="middle" x="273" y="-132.18" font-family="Helvetica,sans-Serif" font-size="11.00">cmath</text>
</a>
</g>
</g>
<!-- Node2&#45;&gt;Node3 -->
<g id="edge2_Node000002_Node000003" class="edge">
<title>Node2&#45;&gt;Node3</title>
<g id="a_edge2_Node000002_Node000003"><a xlink:title=" ">
<path fill="none" stroke="#63b8ff" d="M324.74,-187.93C315.69,-179.2 301.69,-165.69 290.54,-154.93"/>
<polygon fill="#63b8ff" stroke="#63b8ff" points="293.07,-152.5 283.44,-148.08 288.21,-157.54 293.07,-152.5"/>
</a>
</g>
</g>
<!-- Node4 -->
<g id="Node000004" class="node">
<title>Node4</title>
<g id="a_Node000004"><a xlink:title=" ">
<polygon fill="#e0e0e0" stroke="#999999" points="354,-146.62 314,-146.62 314,-127.38 354,-127.38 354,-146.62"/>
<text text-anchor="middle" x="334" y="-132.18" font-family="Helvetica,sans-Serif" font-size="11.00">limits</text>
</a>
</g>
</g>
<!-- Node2&#45;&gt;Node4 -->
<g id="edge3_Node000002_Node000004" class="edge">
<title>Node2&#45;&gt;Node4</title>
<g id="a_edge3_Node000002_Node000004"><a xlink:title=" ">
<path fill="none" stroke="#63b8ff" d="M334,-187.93C334,-180.15 334,-168.58 334,-158.53"/>
<polygon fill="#63b8ff" stroke="#63b8ff" points="337.5,-158.54 334,-148.54 330.5,-158.54 337.5,-158.54"/>
</a>
</g>
</g>
<!-- Node5 -->
<g id="Node000005" class="node">
<title>Node5</title>
<g id="a_Node000005"><a xlink:title=" ">
<polygon fill="#e0e0e0" stroke="#999999" points="430,-146.62 372,-146.62 372,-127.38 430,-127.38 430,-146.62"/>
<text text-anchor="middle" x="401" y="-132.18" font-family="Helvetica,sans-Serif" font-size="11.00">numbers</text>
</a>
</g>
</g>
<!-- Node2&#45;&gt;Node5 -->
<g id="edge4_Node000002_Node000005" class="edge">
<title>Node2&#45;&gt;Node5</title>
<g id="a_edge4_Node000002_Node000005"><a xlink:title=" ">
<path fill="none" stroke="#63b8ff" d="M344.18,-187.93C354.21,-179.12 369.79,-165.43 382.1,-154.61"/>
<polygon fill="#63b8ff" stroke="#63b8ff" points="384.39,-157.26 389.59,-148.03 379.77,-152 384.39,-157.26"/>
</a>
</g>
</g>
<!-- Node6 -->
<g id="Node000006" class="node">
<title>Node6</title>
<g id="a_Node000006"><a xlink:title=" ">
<polygon fill="#e0e0e0" stroke="#999999" points="232,-146.62 174,-146.62 174,-127.38 232,-127.38 232,-146.62"/>
<text text-anchor="middle" x="203" y="-132.18" font-family="Helvetica,sans-Serif" font-size="11.00">compare</text>
</a>
</g>
</g>
<!-- Node2&#45;&gt;Node6 -->
<g id="edge5_Node000002_Node000006" class="edge">
<title>Node2&#45;&gt;Node6</title>
<g id="a_edge5_Node000002_Node000006"><a xlink:title=" ">
<path fill="none" stroke="#63b8ff" d="M313.82,-187.8C292.31,-178.14 258.02,-162.73 233.28,-151.61"/>
<polygon fill="#63b8ff" stroke="#63b8ff" points="234.93,-148.51 224.37,-147.6 232.06,-154.9 234.93,-148.51"/>
</a>
</g>
</g>
<!-- Node7 -->
<g id="Node000007" class="node">
<title>Node7</title>
<g id="a_Node000007"><a xlink:href="export_8h_source.html" target="_top" xlink:title=" ">
<polygon fill="white" stroke="#666666" points="563.5,-146.62 448.5,-146.62 448.5,-127.38 563.5,-127.38 563.5,-146.62"/>
<text text-anchor="middle" x="506" y="-132.18" font-family="Helvetica,sans-Serif" font-size="11.00">floppy/detail/export.h</text>
</a>
</g>
</g>
<!-- Node2&#45;&gt;Node7 -->
<g id="edge6_Node000002_Node000007" class="edge">
<title>Node2&#45;&gt;Node7</title>
<g id="a_edge6_Node000002_Node000007"><a xlink:title=" ">
<path fill="none" stroke="#63b8ff" d="M360.5,-187.8C389.54,-177.86 436.33,-161.85 468.99,-150.67"/>
<polygon fill="#63b8ff" stroke="#63b8ff" points="469.71,-154.12 478.04,-147.57 467.45,-147.5 469.71,-154.12"/>
</a>
</g>
</g>
<!-- Node2&#45;&gt;Node12 -->
<g id="edge11_Node000002_Node000012" class="edge">
<title>Node2&#45;&gt;Node12</title>
<g id="a_edge11_Node000002_Node000012"><a xlink:title=" ">
<path fill="none" stroke="#63b8ff" d="M296.72,-187.8C254.71,-177.58 186.28,-160.94 140.23,-149.73"/>
<polygon fill="#63b8ff" stroke="#63b8ff" points="141.34,-146.4 130.8,-147.44 139.68,-153.2 141.34,-146.4"/>
</a>
</g>
</g>
<!-- Node8 -->
<g id="Node000008" class="node">
<title>Node8</title>
<g id="a_Node000008"><a xlink:title=" ">
<polygon fill="#e0e0e0" stroke="#999999" points="481.12,-80.12 438.88,-80.12 438.88,-60.88 481.12,-60.88 481.12,-80.12"/>
<text text-anchor="middle" x="460" y="-65.67" font-family="Helvetica,sans-Serif" font-size="11.00">string</text>
</a>
</g>
</g>
<!-- Node7&#45;&gt;Node8 -->
<g id="edge7_Node000007_Node000008" class="edge">
<title>Node7&#45;&gt;Node8</title>
<g id="a_edge7_Node000007_Node000008"><a xlink:title=" ">
<path fill="none" stroke="#63b8ff" d="M499.6,-127.03C492.74,-117.4 481.65,-101.85 472.94,-89.65"/>
<polygon fill="#63b8ff" stroke="#63b8ff" points="475.88,-87.73 467.22,-81.62 470.18,-91.8 475.88,-87.73"/>
</a>
</g>
</g>
<!-- Node9 -->
<g id="Node000009" class="node">
<title>Node9</title>
<g id="a_Node000009"><a xlink:title=" ">
<polygon fill="#e0e0e0" stroke="#999999" points="645,-80.12 575,-80.12 575,-60.88 645,-60.88 645,-80.12"/>
<text text-anchor="middle" x="610" y="-65.67" font-family="Helvetica,sans-Serif" font-size="11.00">string_view</text>
</a>
</g>
</g>
<!-- Node7&#45;&gt;Node9 -->
<g id="edge8_Node000007_Node000009" class="edge">
<title>Node7&#45;&gt;Node9</title>
<g id="a_edge8_Node000007_Node000009"><a xlink:title=" ">
<path fill="none" stroke="#63b8ff" d="M520.46,-127.03C537.29,-116.6 565.34,-99.2 585.56,-86.65"/>
<polygon fill="#63b8ff" stroke="#63b8ff" points="587.39,-89.64 594.04,-81.4 583.7,-83.69 587.39,-89.64"/>
</a>
</g>
</g>
<!-- Node10 -->
<g id="Node000010" class="node">
<title>Node10</title>
<g id="a_Node000010"><a xlink:title=" ">
<polygon fill="#e0e0e0" stroke="#999999" points="556.62,-80.12 499.38,-80.12 499.38,-60.88 556.62,-60.88 556.62,-80.12"/>
<text text-anchor="middle" x="528" y="-65.67" font-family="Helvetica,sans-Serif" font-size="11.00">iostream</text>
</a>
</g>
</g>
<!-- Node7&#45;&gt;Node10 -->
<g id="edge9_Node000007_Node000010" class="edge">
<title>Node7&#45;&gt;Node10</title>
<g id="a_edge9_Node000007_Node000010"><a xlink:title=" ">
<path fill="none" stroke="#63b8ff" d="M509.06,-127.03C512.21,-117.79 517.23,-103.08 521.3,-91.13"/>
<polygon fill="#63b8ff" stroke="#63b8ff" points="524.56,-92.42 524.48,-81.82 517.94,-90.16 524.56,-92.42"/>
</a>
</g>
</g>
<!-- Node11 -->
<g id="Node000011" class="node">
<title>Node11</title>
<g id="a_Node000011"><a xlink:title=" ">
<polygon fill="#e0e0e0" stroke="#999999" points="447.88,-19.25 374.12,-19.25 374.12,0 447.88,0 447.88,-19.25"/>
<text text-anchor="middle" x="411" y="-4.8" font-family="Helvetica,sans-Serif" font-size="11.00">fmt/format.h</text>
</a>
</g>
</g>
<!-- Node7&#45;&gt;Node11 -->
<g id="edge10_Node000007_Node000011" class="edge">
<title>Node7&#45;&gt;Node11</title>
<g id="a_edge10_Node000007_Node000011"><a xlink:title=" ">
<path fill="none" stroke="#63b8ff" d="M484.07,-126.91C466.83,-118.65 443.55,-104.84 430,-85.75 418.45,-69.47 413.91,-46.84 412.13,-30.67"/>
<polygon fill="#63b8ff" stroke="#63b8ff" points="415.63,-30.54 411.33,-20.85 408.65,-31.1 415.63,-30.54"/>
</a>
</g>
</g>
<!-- Node13 -->
<g id="Node000013" class="node">
<title>Node13</title>
<g id="a_Node000013"><a xlink:title=" ">
<polygon fill="#e0e0e0" stroke="#999999" points="114.38,-80.12 55.62,-80.12 55.62,-60.88 114.38,-60.88 114.38,-80.12"/>
<text text-anchor="middle" x="85" y="-65.67" font-family="Helvetica,sans-Serif" font-size="11.00">concepts</text>
</a>
</g>
</g>
<!-- Node12&#45;&gt;Node13 -->
<g id="edge12_Node000012_Node000013" class="edge">
<title>Node12&#45;&gt;Node13</title>
<g id="a_edge12_Node000012_Node000013"><a xlink:title=" ">
<path fill="none" stroke="#63b8ff" d="M91.03,-127.03C90.03,-117.89 88.46,-103.39 87.17,-91.5"/>
<polygon fill="#63b8ff" stroke="#63b8ff" points="90.69,-91.46 86.13,-81.9 83.73,-92.22 90.69,-91.46"/>
</a>
</g>
</g>
<!-- Node14 -->
<g id="Node000014" class="node">
<title>Node14</title>
<g id="a_Node000014"><a xlink:href="type__traits_8h_source.html" target="_top" xlink:title=" ">
<polygon fill="white" stroke="#666666" points="357.12,-85.75 260.88,-85.75 260.88,-55.25 357.12,-55.25 357.12,-85.75"/>
<text text-anchor="start" x="268.88" y="-71.3" font-family="Helvetica,sans-Serif" font-size="11.00">floppy/detail/type</text>
<text text-anchor="middle" x="309" y="-60.05" font-family="Helvetica,sans-Serif" font-size="11.00">_traits.h</text>
</a>
</g>
</g>
<!-- Node12&#45;&gt;Node14 -->
<g id="edge13_Node000012_Node000014" class="edge">
<title>Node12&#45;&gt;Node14</title>
<g id="a_edge13_Node000012_Node000014"><a xlink:title=" ">
<path fill="none" stroke="#63b8ff" d="M122.63,-126.9C155.48,-117.13 208.47,-101.38 249.56,-89.17"/>
<polygon fill="#63b8ff" stroke="#63b8ff" points="250.5,-92.54 259.09,-86.33 248.51,-85.83 250.5,-92.54"/>
</a>
</g>
</g>
<!-- Node16 -->
<g id="Node000016" class="node">
<title>Node16</title>
<g id="a_Node000016"><a xlink:href="types_8h_source.html" target="_top" xlink:title=" ">
<polygon fill="white" stroke="#666666" points="243.25,-80.12 132.75,-80.12 132.75,-60.88 243.25,-60.88 243.25,-80.12"/>
<text text-anchor="middle" x="188" y="-65.67" font-family="Helvetica,sans-Serif" font-size="11.00">floppy/detail/types.h</text>
</a>
</g>
</g>
<!-- Node12&#45;&gt;Node16 -->
<g id="edge15_Node000012_Node000016" class="edge">
<title>Node12&#45;&gt;Node16</title>
<g id="a_edge15_Node000012_Node000016"><a xlink:title=" ">
<path fill="none" stroke="#63b8ff" d="M105.35,-127.03C120.74,-116.69 146.3,-99.52 164.93,-87"/>
<polygon fill="#63b8ff" stroke="#63b8ff" points="166.85,-89.93 173.2,-81.44 162.95,-84.12 166.85,-89.93"/>
</a>
</g>
</g>
<!-- Node15 -->
<g id="Node000015" class="node">
<title>Node15</title>
<g id="a_Node000015"><a xlink:title=" ">
<polygon fill="#e0e0e0" stroke="#999999" points="341.75,-19.25 276.25,-19.25 276.25,0 341.75,0 341.75,-19.25"/>
<text text-anchor="middle" x="309" y="-4.8" font-family="Helvetica,sans-Serif" font-size="11.00">type_traits</text>
</a>
</g>
</g>
<!-- Node14&#45;&gt;Node15 -->
<g id="edge14_Node000014_Node000015" class="edge">
<title>Node14&#45;&gt;Node15</title>
<g id="a_edge14_Node000014_Node000015"><a xlink:title=" ">
<path fill="none" stroke="#63b8ff" d="M309,-54.95C309,-47.71 309,-38.84 309,-30.94"/>
<polygon fill="#63b8ff" stroke="#63b8ff" points="312.5,-31.21 309,-21.21 305.5,-31.21 312.5,-31.21"/>
</a>
</g>
</g>
<!-- Node16&#45;&gt;Node11 -->
<g id="edge20_Node000016_Node000011" class="edge">
<title>Node16&#45;&gt;Node11</title>
<g id="a_edge20_Node000016_Node000011"><a xlink:title=" ">
<path fill="none" stroke="#63b8ff" d="M222.36,-60.43C260.74,-50.3 323.05,-33.84 365.47,-22.64"/>
<polygon fill="#63b8ff" stroke="#63b8ff" points="366.37,-26.03 375.14,-20.09 364.58,-19.26 366.37,-26.03"/>
</a>
</g>
</g>
<!-- Node16&#45;&gt;Node15 -->
<g id="edge19_Node000016_Node000015" class="edge">
<title>Node16&#45;&gt;Node15</title>
<g id="a_edge19_Node000016_Node000015"><a xlink:title=" ">
<path fill="none" stroke="#63b8ff" d="M206.64,-60.43C226.33,-50.85 257.61,-35.63 280.42,-24.53"/>
<polygon fill="#63b8ff" stroke="#63b8ff" points="281.71,-27.79 289.18,-20.27 278.65,-21.5 281.71,-27.79"/>
</a>
</g>
</g>
<!-- Node17 -->
<g id="Node000017" class="node">
<title>Node17</title>
<g id="a_Node000017"><a xlink:title=" ">
<polygon fill="#e0e0e0" stroke="#999999" points="121.25,-19.25 70.75,-19.25 70.75,0 121.25,0 121.25,-19.25"/>
<text text-anchor="middle" x="96" y="-4.8" font-family="Helvetica,sans-Serif" font-size="11.00">cstddef</text>
</a>
</g>
</g>
<!-- Node16&#45;&gt;Node17 -->
<g id="edge16_Node000016_Node000017" class="edge">
<title>Node16&#45;&gt;Node17</title>
<g id="a_edge16_Node000016_Node000017"><a xlink:title=" ">
<path fill="none" stroke="#63b8ff" d="M174.03,-60.56C159.57,-51.31 136.74,-36.7 119.5,-25.67"/>
<polygon fill="#63b8ff" stroke="#63b8ff" points="121.69,-22.91 111.38,-20.47 117.92,-28.81 121.69,-22.91"/>
</a>
</g>
</g>
<!-- Node18 -->
<g id="Node000018" class="node">
<title>Node18</title>
<g id="a_Node000018"><a xlink:title=" ">
<polygon fill="#e0e0e0" stroke="#999999" points="186.38,-19.25 139.62,-19.25 139.62,0 186.38,0 186.38,-19.25"/>
<text text-anchor="middle" x="163" y="-4.8" font-family="Helvetica,sans-Serif" font-size="11.00">cstdint</text>
</a>
</g>
</g>
<!-- Node16&#45;&gt;Node18 -->
<g id="edge17_Node000016_Node000018" class="edge">
<title>Node16&#45;&gt;Node18</title>
<g id="a_edge17_Node000016_Node000018"><a xlink:title=" ">
<path fill="none" stroke="#63b8ff" d="M184.2,-60.56C180.79,-52.52 175.66,-40.43 171.29,-30.16"/>
<polygon fill="#63b8ff" stroke="#63b8ff" points="174.55,-28.88 167.42,-21.04 168.11,-31.62 174.55,-28.88"/>
</a>
</g>
</g>
<!-- Node19 -->
<g id="Node000019" class="node">
<title>Node19</title>
<g id="a_Node000019"><a xlink:title=" ">
<polygon fill="#e0e0e0" stroke="#999999" points="257.75,-19.25 204.25,-19.25 204.25,0 257.75,0 257.75,-19.25"/>
<text text-anchor="middle" x="231" y="-4.8" font-family="Helvetica,sans-Serif" font-size="11.00">optional</text>
</a>
</g>
</g>
<!-- Node16&#45;&gt;Node19 -->
<g id="edge18_Node000016_Node000019" class="edge">
<title>Node16&#45;&gt;Node19</title>
<g id="a_edge18_Node000016_Node000019"><a xlink:title=" ">
<path fill="none" stroke="#63b8ff" d="M194.53,-60.56C200.66,-52.17 210,-39.38 217.69,-28.84"/>
<polygon fill="#63b8ff" stroke="#63b8ff" points="220.44,-31.01 223.52,-20.87 214.79,-26.88 220.44,-31.01"/>
</a>
</g>
</g>
<!-- Node21 -->
<g id="Node000021" class="node">
<title>Node21</title>
<g id="a_Node000021"><a xlink:href="scale_8h.html" target="_top" xlink:title="A scaling factor between two different units of measurement.">
<polygon fill="white" stroke="#666666" points="432,-329.25 320,-329.25 320,-310 432,-310 432,-329.25"/>
<text text-anchor="middle" x="376" y="-314.8" font-family="Helvetica,sans-Serif" font-size="11.00">floppy/euclid/scale.h</text>
</a>
</g>
</g>
<!-- Node20&#45;&gt;Node21 -->
<g id="edge23_Node000020_Node000021" class="edge">
<title>Node20&#45;&gt;Node21</title>
<g id="a_edge23_Node000020_Node000021"><a xlink:title=" ">
<path fill="none" stroke="#63b8ff" d="M376,-365.08C376,-358.57 376,-349.42 376,-341.12"/>
<polygon fill="#63b8ff" stroke="#63b8ff" points="379.5,-341.12 376,-331.12 372.5,-341.12 379.5,-341.12"/>
</a>
</g>
</g>
<!-- Node28 -->
<g id="Node000028" class="node">
<title>Node28</title>
<g id="a_Node000028"><a xlink:href="nt__traits_8h.html" target="_top" xlink:title=" ">
<polygon fill="white" stroke="#666666" points="343.88,-274 240.12,-274 240.12,-243.5 343.88,-243.5 343.88,-274"/>
<text text-anchor="start" x="248.12" y="-259.55" font-family="Helvetica,sans-Serif" font-size="11.00">floppy/euclid/detail</text>
<text text-anchor="middle" x="292" y="-248.3" font-family="Helvetica,sans-Serif" font-size="11.00">/nt_traits.h</text>
</a>
</g>
</g>
<!-- Node20&#45;&gt;Node28 -->
<g id="edge38_Node000020_Node000028" class="edge">
<title>Node20&#45;&gt;Node28</title>
<g id="a_edge38_Node000020_Node000028"><a xlink:title=" ">
<path fill="none" stroke="#63b8ff" d="M355.82,-364.79C341.29,-357.26 322.34,-345.2 311,-329.25 301.92,-316.48 297.18,-299.56 294.7,-285.61"/>
<polygon fill="#63b8ff" stroke="#63b8ff" points="298.17,-285.19 293.27,-275.8 291.25,-286.2 298.17,-285.19"/>
</a>
</g>
</g>
<!-- Node21&#45;&gt;Node2 -->
<g id="edge24_Node000021_Node000002" class="edge">
<title>Node21&#45;&gt;Node2</title>
<g id="a_edge24_Node000021_Node000002"><a xlink:title=" ">
<path fill="none" stroke="#63b8ff" d="M373.61,-309.74C369.72,-295.57 361.6,-267.08 353,-243.5 349.97,-235.2 346.23,-226.21 342.88,-218.48"/>
<polygon fill="#63b8ff" stroke="#63b8ff" points="346.09,-217.09 338.83,-209.38 339.69,-219.94 346.09,-217.09"/>
</a>
</g>
</g>
<!-- Node22 -->
<g id="Node000022" class="node">
<title>Node22</title>
<g id="a_Node000022"><a xlink:href="traits_8h_source.html" target="_top" xlink:title=" ">
<polygon fill="white" stroke="#666666" points="678.88,-207.5 599.12,-207.5 599.12,-188.25 678.88,-188.25 678.88,-207.5"/>
<text text-anchor="middle" x="639" y="-193.05" font-family="Helvetica,sans-Serif" font-size="11.00">floppy/traits.h</text>
</a>
</g>
</g>
<!-- Node21&#45;&gt;Node22 -->
<g id="edge25_Node000021_Node000022" class="edge">
<title>Node21&#45;&gt;Node22</title>
<g id="a_edge25_Node000021_Node000022"><a xlink:title=" ">
<path fill="none" stroke="#63b8ff" d="M395.77,-309.62C441.37,-288.86 554.16,-237.5 608.62,-212.71"/>
<polygon fill="#63b8ff" stroke="#63b8ff" points="609.97,-215.94 617.63,-208.61 607.07,-209.57 609.97,-215.94"/>
</a>
</g>
</g>
<!-- Node21&#45;&gt;Node28 -->
<g id="edge35_Node000021_Node000028" class="edge">
<title>Node21&#45;&gt;Node28</title>
<g id="a_edge35_Node000021_Node000028"><a xlink:title=" ">
<path fill="none" stroke="#63b8ff" d="M363.24,-309.68C352.35,-302.05 336.26,-290.77 322.12,-280.86"/>
<polygon fill="#63b8ff" stroke="#63b8ff" points="324.17,-278.02 313.97,-275.15 320.15,-283.76 324.17,-278.02"/>
</a>
</g>
</g>
<!-- Node22&#45;&gt;Node7 -->
<g id="edge29_Node000022_Node000007" class="edge">
<title>Node22&#45;&gt;Node7</title>
<g id="a_edge29_Node000022_Node000007"><a xlink:title=" ">
<path fill="none" stroke="#63b8ff" d="M618.51,-187.8C596.68,-178.14 561.86,-162.73 536.74,-151.61"/>
<polygon fill="#63b8ff" stroke="#63b8ff" points="538.24,-148.44 527.68,-147.6 535.41,-154.84 538.24,-148.44"/>
</a>
</g>
</g>
<!-- Node22&#45;&gt;Node10 -->
<g id="edge27_Node000022_Node000010" class="edge">
<title>Node22&#45;&gt;Node10</title>
<g id="a_edge27_Node000022_Node000010"><a xlink:title=" ">
<path fill="none" stroke="#63b8ff" d="M631.3,-188.06C619.02,-174 594.2,-145.65 573,-121.75 563.22,-110.73 552.19,-98.41 543.49,-88.72"/>
<polygon fill="#63b8ff" stroke="#63b8ff" points="546.29,-86.6 537,-81.5 541.08,-91.28 546.29,-86.6"/>
</a>
</g>
</g>
<!-- Node23 -->
<g id="Node000023" class="node">
<title>Node23</title>
<g id="a_Node000023"><a xlink:title=" ">
<polygon fill="#e0e0e0" stroke="#999999" points="826.5,-146.62 771.5,-146.62 771.5,-127.38 826.5,-127.38 826.5,-146.62"/>
<text text-anchor="middle" x="799" y="-132.18" font-family="Helvetica,sans-Serif" font-size="11.00">memory</text>
</a>
</g>
</g>
<!-- Node22&#45;&gt;Node23 -->
<g id="edge26_Node000022_Node000023" class="edge">
<title>Node22&#45;&gt;Node23</title>
<g id="a_edge26_Node000022_Node000023"><a xlink:title=" ">
<path fill="none" stroke="#63b8ff" d="M664.74,-187.88C689.87,-179.03 729.18,-165.02 763,-152.25 763.96,-151.89 764.94,-151.52 765.92,-151.14"/>
<polygon fill="#63b8ff" stroke="#63b8ff" points="767.11,-154.43 775.16,-147.55 764.57,-147.91 767.11,-154.43"/>
</a>
</g>
</g>
<!-- Node24 -->
<g id="Node000024" class="node">
<title>Node24</title>
<g id="a_Node000024"><a xlink:title=" ">
<polygon fill="#e0e0e0" stroke="#999999" points="973.62,-152.25 844.38,-152.25 844.38,-121.75 973.62,-121.75 973.62,-152.25"/>
<text text-anchor="start" x="852.38" y="-137.8" font-family="Helvetica,sans-Serif" font-size="11.00">experimental/propagate</text>
<text text-anchor="middle" x="909" y="-126.55" font-family="Helvetica,sans-Serif" font-size="11.00">_const</text>
</a>
</g>
</g>
<!-- Node22&#45;&gt;Node24 -->
<g id="edge28_Node000022_Node000024" class="edge">
<title>Node22&#45;&gt;Node24</title>
<g id="a_edge28_Node000022_Node000024"><a xlink:title=" ">
<path fill="none" stroke="#63b8ff" d="M679.13,-188.12C719.56,-179.31 782.93,-165.49 832.91,-154.59"/>
<polygon fill="#63b8ff" stroke="#63b8ff" points="833.5,-158.05 842.52,-152.5 832.01,-151.21 833.5,-158.05"/>
</a>
</g>
</g>
<!-- Node25 -->
<g id="Node000025" class="node">
<title>Node25</title>
<g id="a_Node000025"><a xlink:href="formatters_8h_source.html" target="_top" xlink:title=" ">
<polygon fill="white" stroke="#666666" points="753.88,-146.62 620.12,-146.62 620.12,-127.38 753.88,-127.38 753.88,-146.62"/>
<text text-anchor="middle" x="687" y="-132.18" font-family="Helvetica,sans-Serif" font-size="11.00">floppy/detail/formatters.h</text>
</a>
</g>
</g>
<!-- Node22&#45;&gt;Node25 -->
<g id="edge30_Node000022_Node000025" class="edge">
<title>Node22&#45;&gt;Node25</title>
<g id="a_edge30_Node000022_Node000025"><a xlink:title=" ">
<path fill="none" stroke="#63b8ff" d="M646.29,-187.93C653.2,-179.46 663.77,-166.49 672.41,-155.89"/>
<polygon fill="#63b8ff" stroke="#63b8ff" points="675.08,-158.16 678.68,-148.2 669.65,-153.74 675.08,-158.16"/>
</a>
</g>
</g>
<!-- Node25&#45;&gt;Node9 -->
<g id="edge31_Node000025_Node000009" class="edge">
<title>Node25&#45;&gt;Node9</title>
<g id="a_edge31_Node000025_Node000009"><a xlink:title=" ">
<path fill="none" stroke="#63b8ff" d="M676.29,-127.03C664.11,-116.83 643.98,-99.96 629.09,-87.49"/>
<polygon fill="#63b8ff" stroke="#63b8ff" points="631.69,-85.1 621.78,-81.36 627.19,-90.47 631.69,-85.1"/>
</a>
</g>
</g>
<!-- Node25&#45;&gt;Node11 -->
<g id="edge34_Node000025_Node000011" class="edge">
<title>Node25&#45;&gt;Node11</title>
<g id="a_edge34_Node000025_Node000011"><a xlink:title=" ">
<path fill="none" stroke="#63b8ff" d="M686.11,-127.08C683.92,-110.22 676.69,-73.68 654,-55.25 624.77,-31.51 521.34,-19.34 459.23,-14.04"/>
<polygon fill="#63b8ff" stroke="#63b8ff" points="459.9,-10.58 449.65,-13.25 459.33,-17.56 459.9,-10.58"/>
</a>
</g>
</g>
<!-- Node26 -->
<g id="Node000026" class="node">
<title>Node26</title>
<g id="a_Node000026"><a xlink:title=" ">
<polygon fill="#e0e0e0" stroke="#999999" points="755.12,-80.12 700.88,-80.12 700.88,-60.88 755.12,-60.88 755.12,-80.12"/>
<text text-anchor="middle" x="728" y="-65.67" font-family="Helvetica,sans-Serif" font-size="11.00">sstream</text>
</a>
</g>
</g>
<!-- Node25&#45;&gt;Node26 -->
<g id="edge32_Node000025_Node000026" class="edge">
<title>Node25&#45;&gt;Node26</title>
<g id="a_edge32_Node000025_Node000026"><a xlink:title=" ">
<path fill="none" stroke="#63b8ff" d="M692.7,-127.03C698.76,-117.5 708.51,-102.16 716.23,-90.02"/>
<polygon fill="#63b8ff" stroke="#63b8ff" points="719.12,-91.99 721.54,-81.67 713.22,-88.23 719.12,-91.99"/>
</a>
</g>
</g>
<!-- Node27 -->
<g id="Node000027" class="node">
<title>Node27</title>
<g id="a_Node000027"><a xlink:title=" ">
<polygon fill="#e0e0e0" stroke="#999999" points="820.38,-80.12 773.62,-80.12 773.62,-60.88 820.38,-60.88 820.38,-80.12"/>
<text text-anchor="middle" x="797" y="-65.67" font-family="Helvetica,sans-Serif" font-size="11.00">iosfwd</text>
</a>
</g>
</g>
<!-- Node25&#45;&gt;Node27 -->
<g id="edge33_Node000025_Node000027" class="edge">
<title>Node25&#45;&gt;Node27</title>
<g id="a_edge33_Node000025_Node000027"><a xlink:title=" ">
<path fill="none" stroke="#63b8ff" d="M702.3,-127.03C720.25,-116.5 750.31,-98.88 771.74,-86.31"/>
<polygon fill="#63b8ff" stroke="#63b8ff" points="773.32,-89.44 780.17,-81.37 769.78,-83.4 773.32,-89.44"/>
</a>
</g>
</g>
<!-- Node28&#45;&gt;Node2 -->
<g id="edge36_Node000028_Node000002" class="edge">
<title>Node28&#45;&gt;Node2</title>
<g id="a_edge36_Node000028_Node000002"><a xlink:title=" ">
<path fill="none" stroke="#63b8ff" d="M302.38,-243.2C307.98,-235.35 314.94,-225.6 320.9,-217.24"/>
<polygon fill="#63b8ff" stroke="#63b8ff" points="323.69,-219.36 326.65,-209.18 317.99,-215.29 323.69,-219.36"/>
</a>
</g>
</g>
<!-- Node28&#45;&gt;Node12 -->
<g id="edge37_Node000028_Node000012" class="edge">
<title>Node28&#45;&gt;Node12</title>
<g id="a_edge37_Node000028_Node000012"><a xlink:title=" ">
<path fill="none" stroke="#63b8ff" d="M267.48,-243.07C228.98,-220.02 154.82,-175.61 116.4,-152.61"/>
<polygon fill="#63b8ff" stroke="#63b8ff" points="118.69,-149.9 108.31,-147.77 115.09,-155.91 118.69,-149.9"/>
</a>
</g>
</g>
<!-- Node29&#45;&gt;Node20 -->
<g id="edge44_Node000029_Node000020" class="edge">
<title>Node29&#45;&gt;Node20</title>
<g id="a_edge44_Node000029_Node000020"><a xlink:title=" ">
<path fill="none" stroke="#63b8ff" d="M260.46,-420.05C285.49,-410.48 317.85,-398.11 341.95,-388.89"/>
<polygon fill="#63b8ff" stroke="#63b8ff" points="342.88,-392.28 350.97,-385.44 340.38,-385.75 342.88,-392.28"/>
</a>
</g>
</g>
<!-- Node29&#45;&gt;Node28 -->
<g id="edge45_Node000029_Node000028" class="edge">
<title>Node29&#45;&gt;Node28</title>
<g id="a_edge45_Node000029_Node000028"><a xlink:title=" ">
<path fill="none" stroke="#63b8ff" d="M208.95,-420.17C198.07,-406.15 185.45,-384.34 193,-365.25 206.79,-330.41 238.13,-300.34 261.88,-281.32"/>
<polygon fill="#63b8ff" stroke="#63b8ff" points="263.93,-284.17 269.69,-275.27 259.64,-278.63 263.93,-284.17"/>
</a>
</g>
</g>
<!-- Node30 -->
<g id="Node000030" class="node">
<title>Node30</title>
<g id="a_Node000030"><a xlink:title=" ">
<polygon fill="#e0e0e0" stroke="#999999" points="242.38,-384.5 201.62,-384.5 201.62,-365.25 242.38,-365.25 242.38,-384.5"/>
<text text-anchor="middle" x="222" y="-370.05" font-family="Helvetica,sans-Serif" font-size="11.00">array</text>
</a>
</g>
</g>
<!-- Node29&#45;&gt;Node30 -->
<g id="edge40_Node000029_Node000030" class="edge">
<title>Node29&#45;&gt;Node30</title>
<g id="a_edge40_Node000029_Node000030"><a xlink:title=" ">
<path fill="none" stroke="#63b8ff" d="M222,-420.2C222,-412.96 222,-404.09 222,-396.19"/>
<polygon fill="#63b8ff" stroke="#63b8ff" points="225.5,-396.46 222,-386.46 218.5,-396.46 225.5,-396.46"/>
</a>
</g>
</g>
<!-- Node31 -->
<g id="Node000031" class="node">
<title>Node31</title>
<g id="a_Node000031"><a xlink:title=" ">
<polygon fill="#e0e0e0" stroke="#999999" points="299.62,-384.5 260.38,-384.5 260.38,-365.25 299.62,-365.25 299.62,-384.5"/>
<text text-anchor="middle" x="280" y="-370.05" font-family="Helvetica,sans-Serif" font-size="11.00">tuple</text>
</a>
</g>
</g>
<!-- Node29&#45;&gt;Node31 -->
<g id="edge41_Node000029_Node000031" class="edge">
<title>Node29&#45;&gt;Node31</title>
<g id="a_edge41_Node000029_Node000031"><a xlink:title=" ">
<path fill="none" stroke="#63b8ff" d="M236.34,-420.2C244.4,-412.01 254.52,-401.73 262.99,-393.14"/>
<polygon fill="#63b8ff" stroke="#63b8ff" points="265.47,-395.61 270,-386.03 260.49,-390.7 265.47,-395.61"/>
</a>
</g>
</g>
<!-- Node32 -->
<g id="Node000032" class="node">
<title>Node32</title>
<g id="a_Node000032"><a xlink:title=" ">
<polygon fill="#e0e0e0" stroke="#999999" points="68,-384.5 28,-384.5 28,-365.25 68,-365.25 68,-384.5"/>
<text text-anchor="middle" x="48" y="-370.05" font-family="Helvetica,sans-Serif" font-size="11.00">utility</text>
</a>
</g>
</g>
<!-- Node29&#45;&gt;Node32 -->
<g id="edge42_Node000029_Node000032" class="edge">
<title>Node29&#45;&gt;Node32</title>
<g id="a_edge42_Node000029_Node000032"><a xlink:title=" ">
<path fill="none" stroke="#63b8ff" d="M178.54,-420.05C147.58,-409.57 106.7,-395.74 78.99,-386.36"/>
<polygon fill="#63b8ff" stroke="#63b8ff" points="80.38,-383.14 69.79,-383.25 78.14,-389.77 80.38,-383.14"/>
</a>
</g>
</g>
<!-- Node33 -->
<g id="Node000033" class="node">
<title>Node33</title>
<g id="a_Node000033"><a xlink:title=" ">
<polygon fill="#e0e0e0" stroke="#999999" points="146.12,-384.5 85.88,-384.5 85.88,-365.25 146.12,-365.25 146.12,-384.5"/>
<text text-anchor="middle" x="116" y="-370.05" font-family="Helvetica,sans-Serif" font-size="11.00">algorithm</text>
</a>
</g>
</g>
<!-- Node29&#45;&gt;Node33 -->
<g id="edge43_Node000029_Node000033" class="edge">
<title>Node29&#45;&gt;Node33</title>
<g id="a_edge43_Node000029_Node000033"><a xlink:title=" ">
<path fill="none" stroke="#63b8ff" d="M195.53,-420.05C179.23,-410.99 158.42,-399.44 142.18,-390.41"/>
<polygon fill="#63b8ff" stroke="#63b8ff" points="144.02,-387.43 133.58,-385.64 140.62,-393.55 144.02,-387.43"/>
</a>
</g>
</g>
</g>
</svg>

<g id="navigator" transform="translate(0 0)" fill="#404254">
  <rect fill="#f2f5e9" fill-opacity="0.5" stroke="#606060" stroke-width=".5" x="0" y="0" width="60" height="60"/>
  <use id="zoomplus" xlink:href="#zoomPlus" x="17" y="9" onmousedown="handleZoom(evt,'in')"/>
  <use id="zoomminus" xlink:href="#zoomMin" x="42" y="9" onmousedown="handleZoom(evt,'out')"/>
  <use id="reset" xlink:href="#resetDef" x="30" y="36" onmousedown="handleReset()"/>
   <use id="arrowup" xlink:href="#arrowUp" x="0" y="0" onmousedown="handlePan(0,-1)"/>
  <use id="arrowright" xlink:href="#arrowRight" x="0" y="0" onmousedown="handlePan(1,0)"/>
  <use id="arrowdown" xlink:href="#arrowDown" x="0" y="0" onmousedown="handlePan(0,1)"/>
  <use id="arrowleft" xlink:href="#arrowLeft" x="0" y="0" onmousedown="handlePan(-1,0)"/>
</g>
<svg viewBox="0 0 15 15" width="100%" height="30px" preserveAspectRatio="xMaxYMin meet">
 <g id="arrow_out" transform="scale(0.3 0.3)">
  <a xlink:href="size2d_8h__incl_org.svg" target="_base">
   <rect id="button" ry="5" rx="5" y="6" x="6" height="38" width="38"
        fill="#f2f5e9" fill-opacity="0.5" stroke="#606060" stroke-width="1.0"/>
   <path id="arrow"
     d="M 11.500037,31.436501 C 11.940474,20.09759 22.043105,11.32322 32.158766,21.979434 L 37.068811,17.246167 C 37.068811,17.246167 37.088388,32 37.088388,32 L 22.160133,31.978069 C 22.160133,31.978069 26.997745,27.140456 26.997745,27.140456 C 18.528582,18.264221 13.291696,25.230495 11.500037,31.436501 z"
     style="fill:#404040;"/>
  </a>
 </g>
</svg>

<style type='text/css'>
<![CDATA[
[data-mouse-over-selected='false'] { opacity: 0.7; }
[data-mouse-over-selected='true']  { opacity: 1.0; }
]]>
</style>
<script type="application/ecmascript"><![CDATA[
document.addEventListener('DOMContentLoaded', (event) => {
  highlightEdges();
  highlightAdjacentNodes();
});
]]></script>
</svg>
