<?xml version="1.0" encoding="UTF-8" standalone="no"?>
<!DOCTYPE svg PUBLIC "-//W3C//DTD SVG 1.1//EN"
 "http://www.w3.org/Graphics/SVG/1.1/DTD/svg11.dtd">
<!-- Generated by graphviz version 10.0.1 (0)
 -->
<!-- Title: angle&lt; T &gt; Pages: 1 -->
<svg width="284pt" height="229pt"
 viewBox="0.00 0.00 284.25 228.75" xmlns="http://www.w3.org/2000/svg" xmlns:xlink="http://www.w3.org/1999/xlink">

<svg id="main" version="1.1" xmlns="http://www.w3.org/2000/svg" xmlns:xlink="http://www.w3.org/1999/xlink" xml:space="preserve" onload="init(evt)">
<style type="text/css"><![CDATA[
.node, .edge {opacity: 0.7;}
.node.selected, .edge.selected {opacity: 1;}
.edge:hover path { stroke: red; }
.edge:hover polygon { stroke: red; fill: red; }
]]></style>
<script type="application/ecmascript" xlink:href="svg.min.js"/>
<svg id="graph" class="graph">
<g id="graph0" class="graph" transform="scale(1 1) rotate(0) translate(4 224.75)">
<title>angle&lt; T &gt;</title>
<!-- Node1 -->
<g id="Node000001" class="node">
<title>Node1</title>
<g id="a_Node000001"><a xlink:title="Newtype describing an angle.">
<polygon fill="#999999" stroke="#666666" points="170.75,-19.25 102.25,-19.25 102.25,0 170.75,0 170.75,-19.25"/>
<text text-anchor="middle" x="136.5" y="-4.8" font-family="Helvetica,sans-Serif" font-size="11.00">angle&lt; T &gt;</text>
</a>
</g>
</g>
<!-- Node2 -->
<g id="Node000002" class="node">
<title>Node2</title>
<g id="a_Node000002"><a xlink:href="structfloppy_1_1traits_1_1formattable.html" target="_top" xlink:title="Allows type to be converted to string and printed via standard streams or fmt.">
<polygon fill="white" stroke="#666666" points="122.38,-81.12 12.63,-81.12 12.63,-61.88 122.38,-61.88 122.38,-81.12"/>
<text text-anchor="middle" x="67.5" y="-66.67" font-family="Helvetica,sans-Serif" font-size="11.00">formattable&lt; T, C &gt;</text>
</a>
</g>
</g>
<!-- Node2&#45;&gt;Node1 -->
<g id="edge1_Node000001_Node000002" class="edge">
<title>Node2&#45;&gt;Node1</title>
<g id="a_edge1_Node000001_Node000002"><a xlink:title=" ">
<path fill="none" stroke="#63b8ff" d="M86.58,-53.94C99.46,-42.77 115.95,-28.46 126.37,-19.41"/>
<polygon fill="#63b8ff" stroke="#63b8ff" points="84.38,-51.22 79.12,-60.41 88.97,-56.5 84.38,-51.22"/>
</a>
</g>
</g>
<!-- Node3 -->
<g id="Node000003" class="node">
<title>Node3</title>
<g id="a_Node000003"><a xlink:href="structfloppy_1_1traits_1_1detail_1_1formattable__base.html" target="_top" xlink:title="Interface, providing to_string method.">
<polygon fill="white" stroke="#666666" points="127,-148.62 0,-148.62 0,-129.38 127,-129.38 127,-148.62"/>
<text text-anchor="middle" x="63.5" y="-134.18" font-family="Helvetica,sans-Serif" font-size="11.00">formattable_base&lt; C &gt;</text>
</a>
</g>
</g>
<!-- Node3&#45;&gt;Node2 -->
<g id="edge2_Node000002_Node000003" class="edge">
<title>Node3&#45;&gt;Node2</title>
<g id="a_edge2_Node000002_Node000003"><a xlink:title=" ">
<path fill="none" stroke="#63b8ff" d="M64.75,-117.59C65.48,-105.5 66.38,-90.79 66.95,-81.53"/>
<polygon fill="#63b8ff" stroke="#63b8ff" points="61.26,-117.19 64.15,-127.38 68.25,-117.61 61.26,-117.19"/>
</a>
</g>
</g>
<!-- Node4 -->
<g id="Node000004" class="node">
<title>Node4</title>
<g id="a_Node000004"><a xlink:href="structfloppy_1_1math_1_1detail_1_1advanced__numeric__type.html" target="_top" xlink:title="CRTP base for numeric newtypes containing math operations implementation.">
<polygon fill="white" stroke="#666666" points="275,-86.75 142,-86.75 142,-56.25 275,-56.25 275,-86.75"/>
<text text-anchor="start" x="150" y="-72.3" font-family="Helvetica,sans-Serif" font-size="11.00">advanced_numeric_type</text>
<text text-anchor="middle" x="208.5" y="-61.05" font-family="Helvetica,sans-Serif" font-size="11.00">&lt; T, U &gt;</text>
</a>
</g>
</g>
<!-- Node4&#45;&gt;Node1 -->
<g id="edge3_Node000001_Node000004" class="edge">
<title>Node4&#45;&gt;Node1</title>
<g id="a_edge3_Node000001_Node000004"><a xlink:title=" ">
<path fill="none" stroke="#63b8ff" d="M182.24,-48.67C170.17,-38.62 156.51,-27.27 147.29,-19.6"/>
<polygon fill="#63b8ff" stroke="#63b8ff" points="179.98,-51.34 189.91,-55.04 184.46,-45.95 179.98,-51.34"/>
</a>
</g>
</g>
<!-- Node5 -->
<g id="Node000005" class="node">
<title>Node5</title>
<g id="a_Node000005"><a xlink:href="structfloppy_1_1math_1_1detail_1_1basic__numeric__newtype.html" target="_top" xlink:title="CRTP base for numeric newtypes that can be compared.">
<polygon fill="white" stroke="#666666" points="276.25,-154.25 144.75,-154.25 144.75,-123.75 276.25,-123.75 276.25,-154.25"/>
<text text-anchor="start" x="152.75" y="-139.8" font-family="Helvetica,sans-Serif" font-size="11.00">basic_numeric_newtype</text>
<text text-anchor="middle" x="210.5" y="-128.55" font-family="Helvetica,sans-Serif" font-size="11.00">&lt; T, U &gt;</text>
</a>
</g>
</g>
<!-- Node5&#45;&gt;Node4 -->
<g id="edge4_Node000004_Node000005" class="edge">
<title>Node5&#45;&gt;Node4</title>
<g id="a_edge4_Node000004_Node000005"><a xlink:title=" ">
<path fill="none" stroke="#63b8ff" d="M209.71,-112.09C209.45,-103.55 209.17,-94.37 208.94,-87"/>
<polygon fill="#63b8ff" stroke="#63b8ff" points="206.21,-112.06 210.01,-121.95 213.2,-111.85 206.21,-112.06"/>
</a>
</g>
</g>
<!-- Node6 -->
<g id="Node000006" class="node">
<title>Node6</title>
<g id="a_Node000006"><a xlink:href="structfloppy_1_1math_1_1detail_1_1default__comparable.html" target="_top" xlink:title="CRTP base for trivially comparable numeric types.">
<polygon fill="white" stroke="#666666" points="228.88,-220.75 92.12,-220.75 92.12,-201.5 228.88,-201.5 228.88,-220.75"/>
<text text-anchor="middle" x="160.5" y="-206.3" font-family="Helvetica,sans-Serif" font-size="11.00">default_comparable&lt; T &gt;</text>
</a>
</g>
</g>
<!-- Node6&#45;&gt;Node5 -->
<g id="edge5_Node000005_Node000006" class="edge">
<title>Node6&#45;&gt;Node5</title>
<g id="a_edge5_Node000005_Node000006"><a xlink:title=" ">
<path fill="none" stroke="#63b8ff" d="M173.38,-192.07C181.66,-180.45 192.28,-165.55 200.04,-154.67"/>
<polygon fill="#63b8ff" stroke="#63b8ff" points="170.67,-189.84 167.71,-200.01 176.37,-193.9 170.67,-189.84"/>
</a>
</g>
</g>
<!-- Node7 -->
<g id="Node000007" class="node">
<title>Node7</title>
<g id="a_Node000007"><a xlink:title=" ">
<polygon fill="white" stroke="#bfbfbf" points="275.9,-220.75 247.1,-220.75 247.1,-201.5 275.9,-201.5 275.9,-220.75"/>
<text text-anchor="middle" x="261.5" y="-206.3" font-family="Helvetica,sans-Serif" font-size="11.00">U</text>
</a>
</g>
</g>
<!-- Node7&#45;&gt;Node5 -->
<g id="edge6_Node000005_Node000007" class="edge">
<title>Node7&#45;&gt;Node5</title>
<g id="a_edge6_Node000005_Node000007"><a xlink:title=" ">
<path fill="none" stroke="#9a32cd" stroke-dasharray="5,2" d="M248.37,-192.07C239.92,-180.45 229.08,-165.55 221.17,-154.67"/>
<polygon fill="#9a32cd" stroke="#9a32cd" points="245.44,-193.99 254.15,-200.02 251.1,-189.87 245.44,-193.99"/>
</a>
</g>
<text text-anchor="middle" x="250.5" y="-173.05" font-family="Helvetica,sans-Serif" font-size="11.00" fill="grey"> m_</text>
</g>
</g>
</svg>
</svg>

<style type='text/css'>
<![CDATA[
[data-mouse-over-selected='false'] { opacity: 0.7; }
[data-mouse-over-selected='true']  { opacity: 1.0; }
]]>
</style>
<script type="application/ecmascript"><![CDATA[
document.addEventListener('DOMContentLoaded', (event) => {
  highlightEdges();
  highlightAdjacentNodes();
});
]]></script>
</svg>
