<?xml version="1.0" encoding="UTF-8" standalone="no"?>
<!DOCTYPE svg PUBLIC "-//W3C//DTD SVG 1.1//EN"
 "http://www.w3.org/Graphics/SVG/1.1/DTD/svg11.dtd">
<!-- Generated by graphviz version 10.0.1 (0)
 -->
<!-- Title: scale&lt; S, D, T &gt; Pages: 1 -->
<svg width="337pt" height="161pt"
 viewBox="0.00 0.00 336.90 161.25" xmlns="http://www.w3.org/2000/svg" xmlns:xlink="http://www.w3.org/1999/xlink">

<svg id="main" version="1.1" xmlns="http://www.w3.org/2000/svg" xmlns:xlink="http://www.w3.org/1999/xlink" xml:space="preserve" onload="init(evt)">
<style type="text/css"><![CDATA[
.node, .edge {opacity: 0.7;}
.node.selected, .edge.selected {opacity: 1;}
.edge:hover path { stroke: red; }
.edge:hover polygon { stroke: red; fill: red; }
]]></style>
<script type="application/ecmascript" xlink:href="svg.min.js"/>
<svg id="graph" class="graph">
<g id="graph0" class="graph" transform="scale(1 1) rotate(0) translate(4 157.25)">
<title>scale&lt; S, D, T &gt;</title>
<!-- Node1 -->
<g id="Node000001" class="node">
<title>Node1</title>
<g id="a_Node000001"><a xlink:title="A scaling factor between two different units of measurement.">
<polygon fill="#999999" stroke="#666666" points="185.88,-19.25 91.12,-19.25 91.12,0 185.88,0 185.88,-19.25"/>
<text text-anchor="middle" x="138.5" y="-4.8" font-family="Helvetica,sans-Serif" font-size="11.00">scale&lt; S, D, T &gt;</text>
</a>
</g>
</g>
<!-- Node2 -->
<g id="Node000002" class="node">
<title>Node2</title>
<g id="a_Node000002"><a xlink:href="structfloppy_1_1traits_1_1formattable.html" target="_top" xlink:title="Allows type to be converted to string and printed via standard streams or fmt.">
<polygon fill="white" stroke="#666666" points="124.38,-81.12 14.63,-81.12 14.63,-61.88 124.38,-61.88 124.38,-81.12"/>
<text text-anchor="middle" x="69.5" y="-66.67" font-family="Helvetica,sans-Serif" font-size="11.00">formattable&lt; T, C &gt;</text>
</a>
</g>
</g>
<!-- Node2&#45;&gt;Node1 -->
<g id="edge1_Node000001_Node000002" class="edge">
<title>Node2&#45;&gt;Node1</title>
<g id="a_edge1_Node000001_Node000002"><a xlink:title=" ">
<path fill="none" stroke="#63b8ff" d="M88.58,-53.94C101.46,-42.77 117.95,-28.46 128.37,-19.41"/>
<polygon fill="#63b8ff" stroke="#63b8ff" points="86.38,-51.22 81.12,-60.41 90.97,-56.5 86.38,-51.22"/>
</a>
</g>
</g>
<!-- Node3 -->
<g id="Node000003" class="node">
<title>Node3</title>
<g id="a_Node000003"><a xlink:href="structfloppy_1_1traits_1_1detail_1_1formattable__base.html" target="_top" xlink:title="Interface, providing to_string method.">
<polygon fill="white" stroke="#666666" points="127,-153.25 0,-153.25 0,-134 127,-134 127,-153.25"/>
<text text-anchor="middle" x="63.5" y="-138.8" font-family="Helvetica,sans-Serif" font-size="11.00">formattable_base&lt; C &gt;</text>
</a>
</g>
</g>
<!-- Node3&#45;&gt;Node2 -->
<g id="edge2_Node000002_Node000003" class="edge">
<title>Node3&#45;&gt;Node2</title>
<g id="a_edge2_Node000002_Node000003"><a xlink:title=" ">
<path fill="none" stroke="#63b8ff" d="M65.21,-122.66C66.37,-109.12 67.84,-91.87 68.73,-81.53"/>
<polygon fill="#63b8ff" stroke="#63b8ff" points="61.75,-121.97 64.39,-132.24 68.73,-122.57 61.75,-121.97"/>
</a>
</g>
</g>
<!-- Node4 -->
<g id="Node000004" class="node">
<title>Node4</title>
<g id="a_Node000004"><a xlink:href="structfloppy_1_1math_1_1detail_1_1basic__numeric__newtype.html" target="_top" xlink:title="CRTP base for numeric newtypes that can be compared.">
<polygon fill="white" stroke="#666666" points="279.25,-86.75 147.75,-86.75 147.75,-56.25 279.25,-56.25 279.25,-86.75"/>
<text text-anchor="start" x="155.75" y="-72.3" font-family="Helvetica,sans-Serif" font-size="11.00">basic_numeric_newtype</text>
<text text-anchor="middle" x="213.5" y="-61.05" font-family="Helvetica,sans-Serif" font-size="11.00">&lt; T, U &gt;</text>
</a>
</g>
</g>
<!-- Node4&#45;&gt;Node1 -->
<g id="edge3_Node000001_Node000004" class="edge">
<title>Node4&#45;&gt;Node1</title>
<g id="a_edge3_Node000001_Node000004"><a xlink:title=" ">
<path fill="none" stroke="#63b8ff" d="M186.52,-48.96C173.85,-38.85 159.44,-27.34 149.74,-19.6"/>
<polygon fill="#63b8ff" stroke="#63b8ff" points="184.16,-51.56 194.16,-55.06 188.53,-46.09 184.16,-51.56"/>
</a>
</g>
</g>
<!-- Node5 -->
<g id="Node000005" class="node">
<title>Node5</title>
<g id="a_Node000005"><a xlink:href="structfloppy_1_1math_1_1detail_1_1default__comparable.html" target="_top" xlink:title="CRTP base for trivially comparable numeric types.">
<polygon fill="white" stroke="#666666" points="281.88,-153.25 145.12,-153.25 145.12,-134 281.88,-134 281.88,-153.25"/>
<text text-anchor="middle" x="213.5" y="-138.8" font-family="Helvetica,sans-Serif" font-size="11.00">default_comparable&lt; T &gt;</text>
</a>
</g>
</g>
<!-- Node5&#45;&gt;Node4 -->
<g id="edge4_Node000004_Node000005" class="edge">
<title>Node5&#45;&gt;Node4</title>
<g id="a_edge4_Node000004_Node000005"><a xlink:title=" ">
<path fill="none" stroke="#63b8ff" d="M213.5,-122.42C213.5,-111.16 213.5,-97.39 213.5,-87.17"/>
<polygon fill="#63b8ff" stroke="#63b8ff" points="210,-122.23 213.5,-132.23 217,-122.23 210,-122.23"/>
</a>
</g>
</g>
<!-- Node6 -->
<g id="Node000006" class="node">
<title>Node6</title>
<g id="a_Node000006"><a xlink:title=" ">
<polygon fill="white" stroke="#bfbfbf" points="328.9,-153.25 300.1,-153.25 300.1,-134 328.9,-134 328.9,-153.25"/>
<text text-anchor="middle" x="314.5" y="-138.8" font-family="Helvetica,sans-Serif" font-size="11.00">U</text>
</a>
</g>
</g>
<!-- Node6&#45;&gt;Node4 -->
<g id="edge5_Node000004_Node000006" class="edge">
<title>Node6&#45;&gt;Node4</title>
<g id="a_edge5_Node000004_Node000006"><a xlink:title=" ">
<path fill="none" stroke="#9a32cd" stroke-dasharray="5,2" d="M292.45,-127.31C275.27,-115.38 251.56,-98.93 234.62,-87.17"/>
<polygon fill="#9a32cd" stroke="#9a32cd" points="290.25,-130.05 300.47,-132.88 294.25,-124.3 290.25,-130.05"/>
</a>
</g>
<text text-anchor="middle" x="285.5" y="-105.55" font-family="Helvetica,sans-Serif" font-size="11.00" fill="grey"> m_</text>
</g>
</g>
</svg>
</svg>

<style type='text/css'>
<![CDATA[
[data-mouse-over-selected='false'] { opacity: 0.7; }
[data-mouse-over-selected='true']  { opacity: 1.0; }
]]>
</style>
<script type="application/ecmascript"><![CDATA[
document.addEventListener('DOMContentLoaded', (event) => {
  highlightEdges();
  highlightAdjacentNodes();
});
]]></script>
</svg>
