<?xml version="1.0" encoding="UTF-8" standalone="no"?>
<!DOCTYPE svg PUBLIC "-//W3C//DTD SVG 1.1//EN"
 "http://www.w3.org/Graphics/SVG/1.1/DTD/svg11.dtd">
<!-- Generated by graphviz version 10.0.1 (0)
 -->
<!-- Title: default_comparable&lt; T &gt; Pages: 1 -->
<svg width="975pt" height="484pt"
 viewBox="0.00 0.00 975.00 483.50" xmlns="http://www.w3.org/2000/svg" xmlns:xlink="http://www.w3.org/1999/xlink">
<g id="graph0" class="graph" transform="scale(1 1) rotate(0) translate(4 479.5)">
<title>default_comparable&lt; T &gt;</title>
<!-- Node1 -->
<g id="Node000001" class="node">
<title>Node1</title>
<g id="a_Node000001"><a xlink:title="CRTP base for trivially comparable numeric types.">
<polygon fill="#999999" stroke="#666666" points="136.75,-175.88 0,-175.88 0,-156.62 136.75,-156.62 136.75,-175.88"/>
<text text-anchor="middle" x="68.38" y="-161.43" font-family="Helvetica,sans-Serif" font-size="11.00">default_comparable&lt; T &gt;</text>
</a>
</g>
</g>
<!-- Node2 -->
<g id="Node000002" class="node">
<title>Node2</title>
<g id="a_Node000002"><a xlink:href="structfloppy_1_1math_1_1detail_1_1basic__numeric__newtype.html" target="_top" xlink:title=" ">
<polygon fill="white" stroke="#666666" points="693,-475.5 561.5,-475.5 561.5,-445 693,-445 693,-475.5"/>
<text text-anchor="start" x="569.5" y="-461.05" font-family="Helvetica,sans-Serif" font-size="11.00">basic_numeric_newtype</text>
<text text-anchor="middle" x="627.25" y="-449.8" font-family="Helvetica,sans-Serif" font-size="11.00">&lt; angle&lt; f32 &gt;, U &gt;</text>
</a>
</g>
</g>
<!-- Node1&#45;&gt;Node2 -->
<g id="edge1_Node000001_Node000002" class="edge">
<title>Node1&#45;&gt;Node2</title>
<g id="a_edge1_Node000001_Node000002"><a xlink:title=" ">
<path fill="none" stroke="#63b8ff" d="M83.62,-185.28C99.68,-206.11 127.18,-239.91 154.75,-265.25 264.68,-366.29 289.89,-410 432.5,-454.25 473.96,-467.12 522.84,-468.54 561.12,-466.78"/>
<polygon fill="#63b8ff" stroke="#63b8ff" points="86.46,-183.23 77.62,-177.39 80.89,-187.47 86.46,-183.23"/>
</a>
</g>
</g>
<!-- Node3 -->
<g id="Node000003" class="node">
<title>Node3</title>
<g id="a_Node000003"><a xlink:href="structfloppy_1_1math_1_1detail_1_1basic__numeric__newtype.html" target="_top" xlink:title=" ">
<polygon fill="white" stroke="#666666" points="693,-190.12 561.5,-190.12 561.5,-148.38 693,-148.38 693,-190.12"/>
<text text-anchor="start" x="569.5" y="-175.68" font-family="Helvetica,sans-Serif" font-size="11.00">basic_numeric_newtype</text>
<text text-anchor="start" x="569.5" y="-164.43" font-family="Helvetica,sans-Serif" font-size="11.00">&lt; length&lt; default_unit,</text>
<text text-anchor="middle" x="627.25" y="-153.18" font-family="Helvetica,sans-Serif" font-size="11.00"> f32 &gt;, f32 &gt;</text>
</a>
</g>
</g>
<!-- Node1&#45;&gt;Node3 -->
<g id="edge2_Node000001_Node000003" class="edge">
<title>Node1&#45;&gt;Node3</title>
<g id="a_edge2_Node000001_Node000003"><a xlink:title=" ">
<path fill="none" stroke="#63b8ff" d="M148.52,-166.68C259.29,-167.27 458.48,-168.35 561.15,-168.9"/>
<polygon fill="#63b8ff" stroke="#63b8ff" points="148.63,-163.18 138.62,-166.62 148.6,-170.18 148.63,-163.18"/>
</a>
</g>
</g>
<!-- Node4 -->
<g id="Node000004" class="node">
<title>Node4</title>
<g id="a_Node000004"><a xlink:href="structfloppy_1_1math_1_1detail_1_1basic__numeric__newtype.html" target="_top" xlink:title=" ">
<polygon fill="white" stroke="#666666" points="693,-255.12 561.5,-255.12 561.5,-213.38 693,-213.38 693,-255.12"/>
<text text-anchor="start" x="569.5" y="-240.68" font-family="Helvetica,sans-Serif" font-size="11.00">basic_numeric_newtype</text>
<text text-anchor="start" x="569.5" y="-229.43" font-family="Helvetica,sans-Serif" font-size="11.00">&lt; scale&lt; S, D, f32 &gt;,</text>
<text text-anchor="middle" x="627.25" y="-218.18" font-family="Helvetica,sans-Serif" font-size="11.00"> f32 &gt;</text>
</a>
</g>
</g>
<!-- Node1&#45;&gt;Node4 -->
<g id="edge3_Node000001_Node000004" class="edge">
<title>Node1&#45;&gt;Node4</title>
<g id="a_edge3_Node000001_Node000004"><a xlink:title=" ">
<path fill="none" stroke="#63b8ff" d="M138.73,-178.01C144.14,-178.81 149.53,-179.57 154.75,-180.25 326.56,-202.73 371.26,-193.48 542.75,-218.25 548.74,-219.12 554.95,-220.11 561.16,-221.18"/>
<polygon fill="#63b8ff" stroke="#63b8ff" points="139.53,-174.59 129.12,-176.55 138.48,-181.51 139.53,-174.59"/>
</a>
</g>
</g>
<!-- Node5 -->
<g id="Node000005" class="node">
<title>Node5</title>
<g id="a_Node000005"><a xlink:href="structfloppy_1_1math_1_1detail_1_1basic__numeric__newtype.html" target="_top" xlink:title="CRTP base for numeric newtypes that can be compared.">
<polygon fill="white" stroke="#666666" points="414.5,-349.5 283,-349.5 283,-319 414.5,-319 414.5,-349.5"/>
<text text-anchor="start" x="291" y="-335.05" font-family="Helvetica,sans-Serif" font-size="11.00">basic_numeric_newtype</text>
<text text-anchor="middle" x="348.75" y="-323.8" font-family="Helvetica,sans-Serif" font-size="11.00">&lt; T, U &gt;</text>
</a>
</g>
</g>
<!-- Node1&#45;&gt;Node5 -->
<g id="edge4_Node000001_Node000005" class="edge">
<title>Node1&#45;&gt;Node5</title>
<g id="a_edge4_Node000001_Node000005"><a xlink:title=" ">
<path fill="none" stroke="#63b8ff" d="M95.45,-182.18C112.34,-192.5 134.83,-206.2 154.75,-218.25 214.29,-254.27 284.34,-296.28 321.5,-318.54"/>
<polygon fill="#63b8ff" stroke="#63b8ff" points="97.37,-179.26 87.02,-177.04 93.73,-185.23 97.37,-179.26"/>
</a>
</g>
</g>
<!-- Node11 -->
<g id="Node000011" class="node">
<title>Node11</title>
<g id="a_Node000011"><a xlink:href="structfloppy_1_1math_1_1detail_1_1default__comparable.html" target="_top" xlink:title=" ">
<polygon fill="white" stroke="#666666" points="404,-138.5 293.5,-138.5 293.5,-108 404,-108 404,-138.5"/>
<text text-anchor="start" x="301.5" y="-124.05" font-family="Helvetica,sans-Serif" font-size="11.00">default_comparable</text>
<text text-anchor="middle" x="348.75" y="-112.8" font-family="Helvetica,sans-Serif" font-size="11.00">&lt; angle&lt; f32 &gt; &gt;</text>
</a>
</g>
</g>
<!-- Node1&#45;&gt;Node11 -->
<g id="edge14_Node000001_Node000011" class="edge">
<title>Node1&#45;&gt;Node11</title>
<g id="a_edge14_Node000001_Node000011"><a xlink:title=" ">
<path fill="none" stroke="orange" stroke-dasharray="5,2" d="M109.18,-152.72C123.41,-148.35 139.66,-143.9 154.75,-141 201.01,-132.12 254.4,-127.64 293.28,-125.41"/>
<polygon fill="orange" stroke="orange" points="108.19,-149.36 99.71,-155.71 110.3,-156.04 108.19,-149.36"/>
</a>
</g>
<text text-anchor="middle" x="209.88" y="-141.05" font-family="Helvetica,sans-Serif" font-size="11.00" fill="grey"> &lt; angle&lt; f32 &gt; &gt;</text>
</g>
<!-- Node12 -->
<g id="Node000012" class="node">
<title>Node12</title>
<g id="a_Node000012"><a xlink:href="structfloppy_1_1math_1_1detail_1_1default__comparable.html" target="_top" xlink:title=" ">
<polygon fill="white" stroke="#666666" points="410.38,-90.12 287.12,-90.12 287.12,-48.38 410.38,-48.38 410.38,-90.12"/>
<text text-anchor="start" x="295.12" y="-75.67" font-family="Helvetica,sans-Serif" font-size="11.00">default_comparable</text>
<text text-anchor="start" x="295.12" y="-64.42" font-family="Helvetica,sans-Serif" font-size="11.00">&lt; length&lt; default_unit,</text>
<text text-anchor="middle" x="348.75" y="-53.17" font-family="Helvetica,sans-Serif" font-size="11.00"> f32 &gt; &gt;</text>
</a>
</g>
</g>
<!-- Node1&#45;&gt;Node12 -->
<g id="edge15_Node000001_Node000012" class="edge">
<title>Node1&#45;&gt;Node12</title>
<g id="a_edge15_Node000001_Node000012"><a xlink:title=" ">
<path fill="none" stroke="orange" stroke-dasharray="5,2" d="M86.8,-148.65C102.96,-133.43 128.42,-112.14 154.75,-100.75 196.66,-82.63 247.81,-74.85 286.92,-71.55"/>
<polygon fill="orange" stroke="orange" points="84.66,-145.85 79.92,-155.32 89.53,-150.87 84.66,-145.85"/>
</a>
</g>
<text text-anchor="start" x="154.75" y="-112.3" font-family="Helvetica,sans-Serif" font-size="11.00" fill="grey"> &lt; length&lt; default_unit,</text>
<text text-anchor="middle" x="209.88" y="-101.05" font-family="Helvetica,sans-Serif" font-size="11.00" fill="grey"> f32 &gt; &gt;</text>
</g>
<!-- Node13 -->
<g id="Node000013" class="node">
<title>Node13</title>
<g id="a_Node000013"><a xlink:href="structfloppy_1_1math_1_1detail_1_1default__comparable.html" target="_top" xlink:title=" ">
<polygon fill="white" stroke="#666666" points="410,-30.5 287.5,-30.5 287.5,0 410,0 410,-30.5"/>
<text text-anchor="start" x="295.5" y="-16.05" font-family="Helvetica,sans-Serif" font-size="11.00">default_comparable</text>
<text text-anchor="middle" x="348.75" y="-4.8" font-family="Helvetica,sans-Serif" font-size="11.00">&lt; scale&lt; S, D, f32 &gt; &gt;</text>
</a>
</g>
</g>
<!-- Node1&#45;&gt;Node13 -->
<g id="edge16_Node000001_Node000013" class="edge">
<title>Node1&#45;&gt;Node13</title>
<g id="a_edge16_Node000001_Node000013"><a xlink:title=" ">
<path fill="none" stroke="orange" stroke-dasharray="5,2" d="M79.52,-146.25C93.15,-121.5 119.77,-79.96 154.75,-58 194.57,-33.01 247.05,-22.52 287.23,-18.17"/>
<polygon fill="orange" stroke="orange" points="76.49,-144.49 74.9,-154.97 82.67,-147.77 76.49,-144.49"/>
</a>
</g>
<text text-anchor="middle" x="209.88" y="-58.05" font-family="Helvetica,sans-Serif" font-size="11.00" fill="grey"> &lt; scale&lt; S, D, f32 &gt; &gt;</text>
</g>
<!-- Node5&#45;&gt;Node2 -->
<g id="edge11_Node000005_Node000002" class="edge">
<title>Node5&#45;&gt;Node2</title>
<g id="a_edge11_Node000005_Node000002"><a xlink:title=" ">
<path fill="none" stroke="orange" stroke-dasharray="5,2" d="M366.71,-358.74C381.7,-378.46 405.37,-405.29 432.5,-420.25 476.31,-444.42 493.75,-432.88 542.75,-443 548.69,-444.23 554.88,-445.5 561.07,-446.78"/>
<polygon fill="orange" stroke="orange" points="369.71,-356.91 360.96,-350.93 364.07,-361.06 369.71,-356.91"/>
</a>
</g>
<text text-anchor="middle" x="487.62" y="-443.05" font-family="Helvetica,sans-Serif" font-size="11.00" fill="grey"> &lt; angle&lt; f32 &gt;, U &gt;</text>
</g>
<!-- Node5&#45;&gt;Node3 -->
<g id="edge12_Node000005_Node000003" class="edge">
<title>Node5&#45;&gt;Node3</title>
<g id="a_edge12_Node000005_Node000003"><a xlink:title=" ">
<path fill="none" stroke="orange" stroke-dasharray="5,2" d="M364.76,-309.31C379.44,-286.87 403.75,-254.49 432.5,-234.75 471.14,-208.23 521.45,-191.64 561.11,-181.8"/>
<polygon fill="orange" stroke="orange" points="361.92,-307.24 359.52,-317.56 367.83,-310.99 361.92,-307.24"/>
</a>
</g>
<text text-anchor="start" x="432.5" y="-246.3" font-family="Helvetica,sans-Serif" font-size="11.00" fill="grey"> &lt; length&lt; default_unit,</text>
<text text-anchor="middle" x="487.62" y="-235.05" font-family="Helvetica,sans-Serif" font-size="11.00" fill="grey"> f32 &gt;, f32 &gt;</text>
</g>
<!-- Node5&#45;&gt;Node4 -->
<g id="edge13_Node000005_Node000004" class="edge">
<title>Node5&#45;&gt;Node4</title>
<g id="a_edge13_Node000005_Node000004"><a xlink:title=" ">
<path fill="none" stroke="orange" stroke-dasharray="5,2" d="M377.85,-312.05C393.19,-301.01 412.99,-288.42 432.5,-280.75 478.81,-262.55 494.46,-273.27 542.75,-261.25 549.55,-259.56 556.6,-257.6 563.6,-255.53"/>
<polygon fill="orange" stroke="orange" points="376.09,-309 370.14,-317.76 380.26,-314.62 376.09,-309"/>
</a>
</g>
<text text-anchor="start" x="442.62" y="-292.3" font-family="Helvetica,sans-Serif" font-size="11.00" fill="grey"> &lt; scale&lt; S, D, f32</text>
<text text-anchor="middle" x="487.62" y="-281.05" font-family="Helvetica,sans-Serif" font-size="11.00" fill="grey"> &gt;, f32 &gt;</text>
</g>
<!-- Node6 -->
<g id="Node000006" class="node">
<title>Node6</title>
<g id="a_Node000006"><a xlink:href="structfloppy_1_1math_1_1detail_1_1advanced__numeric__type.html" target="_top" xlink:title=" ">
<polygon fill="white" stroke="#666666" points="967,-376.5 834,-376.5 834,-346 967,-346 967,-376.5"/>
<text text-anchor="start" x="842" y="-362.05" font-family="Helvetica,sans-Serif" font-size="11.00">advanced_numeric_type</text>
<text text-anchor="middle" x="900.5" y="-350.8" font-family="Helvetica,sans-Serif" font-size="11.00">&lt; angle&lt; f32 &gt;, f32 &gt;</text>
</a>
</g>
</g>
<!-- Node5&#45;&gt;Node6 -->
<g id="edge5_Node000005_Node000006" class="edge">
<title>Node5&#45;&gt;Node6</title>
<g id="a_edge5_Node000005_Node000006"><a xlink:title=" ">
<path fill="none" stroke="#63b8ff" d="M393.51,-354.33C405.91,-359.44 419.57,-364.53 432.5,-368.25 544.49,-400.44 577.51,-398.4 693.75,-390.25 740.89,-386.94 793.66,-379.43 833.96,-372.88"/>
<polygon fill="#63b8ff" stroke="#63b8ff" points="394.94,-351.13 384.37,-350.45 392.21,-357.58 394.94,-351.13"/>
</a>
</g>
</g>
<!-- Node7 -->
<g id="Node000007" class="node">
<title>Node7</title>
<g id="a_Node000007"><a xlink:href="structfloppy_1_1math_1_1detail_1_1advanced__numeric__type.html" target="_top" xlink:title="CRTP base for numeric newtypes containing math operations implementation.">
<polygon fill="white" stroke="#666666" points="693.75,-306.5 560.75,-306.5 560.75,-276 693.75,-276 693.75,-306.5"/>
<text text-anchor="start" x="568.75" y="-292.05" font-family="Helvetica,sans-Serif" font-size="11.00">advanced_numeric_type</text>
<text text-anchor="middle" x="627.25" y="-280.8" font-family="Helvetica,sans-Serif" font-size="11.00">&lt; T, U &gt;</text>
</a>
</g>
</g>
<!-- Node5&#45;&gt;Node7 -->
<g id="edge6_Node000005_Node000007" class="edge">
<title>Node5&#45;&gt;Node7</title>
<g id="a_edge6_Node000005_Node000007"><a xlink:title=" ">
<path fill="none" stroke="#63b8ff" d="M425.92,-324.49C461.48,-319.71 504.35,-313.61 542.75,-307.25 548.57,-306.29 554.62,-305.23 560.67,-304.14"/>
<polygon fill="#63b8ff" stroke="#63b8ff" points="425.6,-321.01 416.15,-325.8 426.52,-327.94 425.6,-321.01"/>
</a>
</g>
</g>
<!-- Node9 -->
<g id="Node000009" class="node">
<title>Node9</title>
<g id="a_Node000009"><a xlink:href="classfloppy_1_1math_1_1length.html" target="_top" xlink:title="A one&#45;dimensional distance with associated unit of measurement.">
<polygon fill="white" stroke="#666666" points="669.75,-380.88 584.75,-380.88 584.75,-361.62 669.75,-361.62 669.75,-380.88"/>
<text text-anchor="middle" x="627.25" y="-366.43" font-family="Helvetica,sans-Serif" font-size="11.00">length&lt; U, T &gt;</text>
</a>
</g>
</g>
<!-- Node5&#45;&gt;Node9 -->
<g id="edge9_Node000005_Node000009" class="edge">
<title>Node5&#45;&gt;Node9</title>
<g id="a_edge9_Node000005_Node000009"><a xlink:title=" ">
<path fill="none" stroke="#63b8ff" d="M425.93,-347.28C428.14,-347.62 430.34,-347.94 432.5,-348.25 484.8,-355.77 545.31,-362.67 584.6,-366.91"/>
<polygon fill="#63b8ff" stroke="#63b8ff" points="426.66,-343.86 416.25,-345.79 425.59,-350.77 426.66,-343.86"/>
</a>
</g>
</g>
<!-- Node10 -->
<g id="Node000010" class="node">
<title>Node10</title>
<g id="a_Node000010"><a xlink:href="structfloppy_1_1math_1_1scale.html" target="_top" xlink:title="A scaling factor between two different units of measurement.">
<polygon fill="white" stroke="#666666" points="674.62,-343.88 579.88,-343.88 579.88,-324.62 674.62,-324.62 674.62,-343.88"/>
<text text-anchor="middle" x="627.25" y="-329.43" font-family="Helvetica,sans-Serif" font-size="11.00">scale&lt; S, D, T &gt;</text>
</a>
</g>
</g>
<!-- Node5&#45;&gt;Node10 -->
<g id="edge10_Node000005_Node000010" class="edge">
<title>Node5&#45;&gt;Node10</title>
<g id="a_edge10_Node000005_Node000010"><a xlink:title=" ">
<path fill="none" stroke="#63b8ff" d="M426.17,-334.25C475.38,-334.25 537.75,-334.25 579.66,-334.25"/>
<polygon fill="#63b8ff" stroke="#63b8ff" points="426.44,-330.75 416.44,-334.25 426.44,-337.75 426.44,-330.75"/>
</a>
</g>
</g>
<!-- Node7&#45;&gt;Node6 -->
<g id="edge8_Node000007_Node000006" class="edge">
<title>Node7&#45;&gt;Node6</title>
<g id="a_edge8_Node000007_Node000006"><a xlink:title=" ">
<path fill="none" stroke="orange" stroke-dasharray="5,2" d="M700.14,-309.8C743.37,-320.96 797.78,-335 838.83,-345.59"/>
<polygon fill="orange" stroke="orange" points="701.15,-306.45 690.59,-307.34 699.4,-313.23 701.15,-306.45"/>
</a>
</g>
<text text-anchor="middle" x="763.88" y="-339.05" font-family="Helvetica,sans-Serif" font-size="11.00" fill="grey"> &lt; angle&lt; f32 &gt;, f32 &gt;</text>
</g>
<!-- Node8 -->
<g id="Node000008" class="node">
<title>Node8</title>
<g id="a_Node000008"><a xlink:href="structfloppy_1_1math_1_1angle.html" target="_top" xlink:title="Newtype describing an angle.">
<polygon fill="white" stroke="#666666" points="934.75,-300.88 866.25,-300.88 866.25,-281.62 934.75,-281.62 934.75,-300.88"/>
<text text-anchor="middle" x="900.5" y="-286.43" font-family="Helvetica,sans-Serif" font-size="11.00">angle&lt; T &gt;</text>
</a>
</g>
</g>
<!-- Node7&#45;&gt;Node8 -->
<g id="edge7_Node000007_Node000008" class="edge">
<title>Node7&#45;&gt;Node8</title>
<g id="a_edge7_Node000007_Node000008"><a xlink:title=" ">
<path fill="none" stroke="#63b8ff" d="M705.31,-291.25C758.24,-291.25 825.9,-291.25 865.79,-291.25"/>
<polygon fill="#63b8ff" stroke="#63b8ff" points="705.43,-287.75 695.43,-291.25 705.43,-294.75 705.43,-287.75"/>
</a>
</g>
</g>
</g>
</svg>
