<?xml version="1.0" encoding="UTF-8" standalone="no"?>
<!DOCTYPE svg PUBLIC "-//W3C//DTD SVG 1.1//EN"
 "http://www.w3.org/Graphics/SVG/1.1/DTD/svg11.dtd">
<!-- Generated by graphviz version 10.0.1 (0)
 -->
<!-- Title: module_data Pages: 1 -->
<svg width="135pt" height="161pt"
 viewBox="0.00 0.00 134.50 161.25" xmlns="http://www.w3.org/2000/svg" xmlns:xlink="http://www.w3.org/1999/xlink">
<g id="graph0" class="graph" transform="scale(1 1) rotate(0) translate(4 157.25)">
<title>module_data</title>
<!-- Node1 -->
<g id="Node000001" class="node">
<title>Node1</title>
<g id="a_Node000001"><a xlink:title=" ">
<polygon fill="#999999" stroke="#666666" points="97.38,-19.25 19.12,-19.25 19.12,0 97.38,0 97.38,-19.25"/>
<text text-anchor="middle" x="58.25" y="-4.8" font-family="Helvetica,sans-Serif" font-size="11.00">module_data</text>
</a>
</g>
</g>
<!-- Node2 -->
<g id="Node000002" class="node">
<title>Node2</title>
<g id="a_Node000002"><a xlink:title=" ">
<polygon fill="white" stroke="#666666" points="79.38,-97 37.12,-97 37.12,-77.75 79.38,-77.75 79.38,-97"/>
<text text-anchor="middle" x="58.25" y="-82.55" font-family="Helvetica,sans-Serif" font-size="11.00">string</text>
</a>
</g>
</g>
<!-- Node2&#45;&gt;Node1 -->
<g id="edge1_Node000001_Node000002" class="edge">
<title>Node2&#45;&gt;Node1</title>
<g id="a_edge1_Node000001_Node000002"><a xlink:title=" ">
<path fill="none" stroke="#9a32cd" stroke-dasharray="5,2" d="M58.25,-66.1C58.25,-50.95 58.25,-30.98 58.25,-19.6"/>
<polygon fill="#9a32cd" stroke="#9a32cd" points="54.75,-65.87 58.25,-75.87 61.75,-65.87 54.75,-65.87"/>
</a>
</g>
<text text-anchor="middle" x="92.38" y="-49.3" font-family="Helvetica,sans-Serif" font-size="11.00" fill="grey"> image_name</text>
<text text-anchor="middle" x="92.38" y="-38.05" font-family="Helvetica,sans-Serif" font-size="11.00" fill="grey">module_name</text>
</g>
<!-- Node3 -->
<g id="Node000003" class="node">
<title>Node3</title>
<g id="a_Node000003"><a xlink:title=" ">
<polygon fill="white" stroke="#666666" points="116.5,-153.25 0,-153.25 0,-134 116.5,-134 116.5,-153.25"/>
<text text-anchor="middle" x="58.25" y="-138.8" font-family="Helvetica,sans-Serif" font-size="11.00">basic_string&lt; Char &gt;</text>
</a>
</g>
</g>
<!-- Node3&#45;&gt;Node2 -->
<g id="edge2_Node000002_Node000003" class="edge">
<title>Node3&#45;&gt;Node2</title>
<g id="a_edge2_Node000002_Node000003"><a xlink:title=" ">
<path fill="none" stroke="#63b8ff" d="M58.25,-122.44C58.25,-113.73 58.25,-103.99 58.25,-97.17"/>
<polygon fill="#63b8ff" stroke="#63b8ff" points="54.75,-122.15 58.25,-132.15 61.75,-122.15 54.75,-122.15"/>
</a>
</g>
</g>
</g>
</svg>
