<?xml version="1.0" encoding="UTF-8" standalone="no"?>
<!DOCTYPE svg PUBLIC "-//W3C//DTD SVG 1.1//EN"
 "http://www.w3.org/Graphics/SVG/1.1/DTD/svg11.dtd">
<!-- Generated by graphviz version 10.0.1 (0)
 -->
<!-- Title: formattable_base&lt; C &gt; Pages: 1 -->
<!--zoomable 978 -->

<svg id="main" version="1.1" xmlns="http://www.w3.org/2000/svg" xmlns:xlink="http://www.w3.org/1999/xlink" xml:space="preserve" onload="init(evt)">
<style type="text/css"><![CDATA[
.node, .edge {opacity: 0.7;}
.node.selected, .edge.selected {opacity: 1;}
.edge:hover path { stroke: red; }
.edge:hover polygon { stroke: red; fill: red; }
]]></style>

<defs>
  <circle id="rim" cx="0" cy="0" r="7"/>
  <circle id="rim2" cx="0" cy="0" r="3.5"/>
  <g id="zoomPlus">
    <use xlink:href="#rim" fill="#404040"><set attributeName="fill" to="#808080" begin="zoomplus.mouseover" end="zoomplus.mouseout"/></use>
    <path d="M-4,0h8M0,-4v8" fill="none" stroke="white" stroke-width="1.5" pointer-events="none"/>
  </g>
  <g id="zoomMin">
    <use xlink:href="#rim" fill="#404040"><set attributeName="fill" to="#808080" begin="zoomminus.mouseover" end="zoomminus.mouseout"/></use>
    <path d="M-4,0h8" fill="none" stroke="white" stroke-width="1.5" pointer-events="none"/>
  </g>
  <g id="arrowUp" transform="translate(30 24)">
    <use xlink:href="#rim"/>
    <path pointer-events="none" fill="none" stroke="white" stroke-width="1.5" d="M0,-3.0v7 M-2.5,-0.5L0,-3.0L2.5,-0.5"/>
  </g>
  <g id="arrowRight" transform="rotate(90) translate(36 -43)">
    <use xlink:href="#rim"/>
    <path pointer-events="none" fill="none" stroke="white" stroke-width="1.5" d="M0,-3.0v7 M-2.5,-0.5L0,-3.0L2.5,-0.5"/>
  </g>
  <g id="arrowDown" transform="rotate(180) translate(-30 -48)">
    <use xlink:href="#rim"/>
    <path pointer-events="none" fill="none" stroke="white" stroke-width="1.5" d="M0,-3.0v7 M-2.5,-0.5L0,-3.0L2.5,-0.5"/>
  </g>
  <g id="arrowLeft" transform="rotate(270) translate(-36 17)">
    <use xlink:href="#rim"/>
    <path pointer-events="none" fill="none" stroke="white" stroke-width="1.5" d="M0,-3.0v7 M-2.5,-0.5L0,-3.0L2.5,-0.5"/>
  </g>
  <g id="resetDef">
    <use xlink:href="#rim2" fill="#404040"><set attributeName="fill" to="#808080" begin="reset.mouseover" end="reset.mouseout"/></use>
  </g>
</defs>
<script type="application/ecmascript">
var viewWidth = 1106;
var viewHeight = 978;
var sectionId = 'dynsection-0';
</script>
<script type="application/ecmascript" xlink:href="svg.min.js"/>
<svg id="graph" class="graph">
<g id="viewport">
<title>formattable_base&lt; C &gt;</title>
<!-- Node1 -->
<g id="Node000001" class="node">
<title>Node1</title>
<g id="a_Node000001"><a xlink:title="Interface, providing to_string method.">
<polygon fill="#999999" stroke="#666666" points="127,-449.25 0,-449.25 0,-430 127,-430 127,-449.25"/>
<text text-anchor="middle" x="63.5" y="-434.8" font-family="Helvetica,sans-Serif" font-size="11.00">formattable_base&lt; C &gt;</text>
</a>
</g>
</g>
<!-- Node2 -->
<g id="Node000002" class="node">
<title>Node2</title>
<g id="a_Node000002"><a xlink:href="structfloppy_1_1traits_1_1formattable.html" target="_top" xlink:title=" ">
<polygon fill="white" stroke="#666666" points="607.88,-952.88 502.62,-952.88 502.62,-922.38 607.88,-922.38 607.88,-952.88"/>
<text text-anchor="start" x="510.62" y="-938.42" font-family="Helvetica,sans-Serif" font-size="11.00">formattable&lt; color,</text>
<text text-anchor="middle" x="555.25" y="-927.17" font-family="Helvetica,sans-Serif" font-size="11.00"> char &gt;</text>
</a>
</g>
</g>
<!-- Node1&#45;&gt;Node2 -->
<g id="edge1_Node000001_Node000002" class="edge">
<title>Node1&#45;&gt;Node2</title>
<g id="a_edge1_Node000001_Node000002"><a xlink:title=" ">
<path fill="none" stroke="#63b8ff" d="M64.2,-460.78C64.45,-531.54 75.69,-761.56 206.5,-867.62 292.24,-937.15 428.4,-943.63 502.34,-941.27"/>
<polygon fill="#63b8ff" stroke="#63b8ff" points="67.7,-461.01 64.25,-450.99 60.7,-460.98 67.7,-461.01"/>
</a>
</g>
</g>
<!-- Node4 -->
<g id="Node000004" class="node">
<title>Node4</title>
<g id="a_Node000004"><a xlink:href="structfloppy_1_1traits_1_1formattable.html" target="_top" xlink:title=" ">
<polygon fill="white" stroke="#666666" points="606.75,-833.88 503.75,-833.88 503.75,-803.38 606.75,-803.38 606.75,-833.88"/>
<text text-anchor="start" x="511.75" y="-819.42" font-family="Helvetica,sans-Serif" font-size="11.00">formattable&lt; color</text>
<text text-anchor="middle" x="555.25" y="-808.17" font-family="Helvetica,sans-Serif" font-size="11.00">::hsl_t, char &gt;</text>
</a>
</g>
</g>
<!-- Node1&#45;&gt;Node4 -->
<g id="edge3_Node000001_Node000004" class="edge">
<title>Node1&#45;&gt;Node4</title>
<g id="a_edge3_Node000001_Node000004"><a xlink:title=" ">
<path fill="none" stroke="#63b8ff" d="M69.27,-460.84C82.35,-514.75 123.48,-658.84 206.5,-745.62 264.38,-806.13 283.99,-824.74 364.25,-848.62 411.85,-862.79 427.16,-857.67 476,-848.62 491.45,-845.76 507.79,-839.98 521.52,-834.24"/>
<polygon fill="#63b8ff" stroke="#63b8ff" points="72.69,-460.1 67,-451.17 65.88,-461.7 72.69,-460.1"/>
</a>
</g>
</g>
<!-- Node6 -->
<g id="Node000006" class="node">
<title>Node6</title>
<g id="a_Node000006"><a xlink:href="structfloppy_1_1traits_1_1formattable.html" target="_top" xlink:title=" ">
<polygon fill="white" stroke="#666666" points="606.75,-736.88 503.75,-736.88 503.75,-706.38 606.75,-706.38 606.75,-736.88"/>
<text text-anchor="start" x="511.75" y="-722.42" font-family="Helvetica,sans-Serif" font-size="11.00">formattable&lt; color</text>
<text text-anchor="middle" x="555.25" y="-711.17" font-family="Helvetica,sans-Serif" font-size="11.00">::hsla_t, char &gt;</text>
</a>
</g>
</g>
<!-- Node1&#45;&gt;Node6 -->
<g id="edge5_Node000001_Node000006" class="edge">
<title>Node1&#45;&gt;Node6</title>
<g id="a_edge5_Node000001_Node000006"><a xlink:title=" ">
<path fill="none" stroke="#63b8ff" d="M72.68,-459.91C100.84,-526.34 201.11,-736.1 364.25,-789.62 411.44,-805.11 429.48,-807.01 476,-789.62 503.82,-779.23 528.28,-753.98 542.16,-737.35"/>
<polygon fill="#63b8ff" stroke="#63b8ff" points="76.03,-458.86 68.97,-450.96 69.56,-461.54 76.03,-458.86"/>
</a>
</g>
</g>
<!-- Node8 -->
<g id="Node000008" class="node">
<title>Node8</title>
<g id="a_Node000008"><a xlink:href="structfloppy_1_1traits_1_1formattable.html" target="_top" xlink:title=" ">
<polygon fill="white" stroke="#666666" points="606.75,-687.88 503.75,-687.88 503.75,-657.38 606.75,-657.38 606.75,-687.88"/>
<text text-anchor="start" x="511.75" y="-673.42" font-family="Helvetica,sans-Serif" font-size="11.00">formattable&lt; color</text>
<text text-anchor="middle" x="555.25" y="-662.17" font-family="Helvetica,sans-Serif" font-size="11.00">::hsv_t, char &gt;</text>
</a>
</g>
</g>
<!-- Node1&#45;&gt;Node8 -->
<g id="edge7_Node000001_Node000008" class="edge">
<title>Node1&#45;&gt;Node8</title>
<g id="a_edge7_Node000001_Node000008"><a xlink:title=" ">
<path fill="none" stroke="#63b8ff" d="M78.11,-458.69C93.76,-480.38 120.45,-516.67 145,-546.62 221.29,-639.73 247.9,-674.77 364.25,-705.62 412.26,-718.36 427.42,-715.94 476,-705.62 484.56,-703.81 485.96,-701.08 494,-697.62 501.08,-694.59 508.64,-691.4 515.94,-688.35"/>
<polygon fill="#63b8ff" stroke="#63b8ff" points="81.12,-456.88 72.44,-450.8 75.43,-460.96 81.12,-456.88"/>
</a>
</g>
</g>
<!-- Node10 -->
<g id="Node000010" class="node">
<title>Node10</title>
<g id="a_Node000010"><a xlink:href="structfloppy_1_1traits_1_1formattable.html" target="_top" xlink:title=" ">
<polygon fill="white" stroke="#666666" points="606.75,-638.88 503.75,-638.88 503.75,-608.38 606.75,-608.38 606.75,-638.88"/>
<text text-anchor="start" x="511.75" y="-624.42" font-family="Helvetica,sans-Serif" font-size="11.00">formattable&lt; color</text>
<text text-anchor="middle" x="555.25" y="-613.17" font-family="Helvetica,sans-Serif" font-size="11.00">::hsva_t, char &gt;</text>
</a>
</g>
</g>
<!-- Node1&#45;&gt;Node10 -->
<g id="edge9_Node000001_Node000010" class="edge">
<title>Node1&#45;&gt;Node10</title>
<g id="a_edge9_Node000001_Node000010"><a xlink:title=" ">
<path fill="none" stroke="#63b8ff" d="M81.95,-457.65C125,-500.63 241.68,-608.41 364.25,-646.62 412.47,-661.66 470.41,-650.73 509.53,-639.37"/>
<polygon fill="#63b8ff" stroke="#63b8ff" points="84.71,-455.46 75.19,-450.81 79.73,-460.38 84.71,-455.46"/>
</a>
</g>
</g>
<!-- Node12 -->
<g id="Node000012" class="node">
<title>Node12</title>
<g id="a_Node000012"><a xlink:href="structfloppy_1_1traits_1_1formattable.html" target="_top" xlink:title=" ">
<polygon fill="white" stroke="#666666" points="608.25,-389.88 502.25,-389.88 502.25,-359.38 608.25,-359.38 608.25,-389.88"/>
<text text-anchor="start" x="510.25" y="-375.43" font-family="Helvetica,sans-Serif" font-size="11.00">formattable&lt; angle</text>
<text text-anchor="middle" x="555.25" y="-364.18" font-family="Helvetica,sans-Serif" font-size="11.00">&lt; f32 &gt;, char &gt;</text>
</a>
</g>
</g>
<!-- Node1&#45;&gt;Node12 -->
<g id="edge11_Node000001_Node000012" class="edge">
<title>Node1&#45;&gt;Node12</title>
<g id="a_edge11_Node000001_Node000012"><a xlink:title=" ">
<path fill="none" stroke="#63b8ff" d="M111.82,-426.66C170.5,-411.29 273.87,-386.5 364.25,-376.62 410.65,-371.55 463.81,-371.48 502.07,-372.42"/>
<polygon fill="#63b8ff" stroke="#63b8ff" points="111.28,-423.18 102.51,-429.12 113.07,-429.95 111.28,-423.18"/>
</a>
</g>
</g>
<!-- Node13 -->
<g id="Node000013" class="node">
<title>Node13</title>
<g id="a_Node000013"><a xlink:href="structfloppy_1_1traits_1_1formattable.html" target="_top" xlink:title=" ">
<polygon fill="white" stroke="#666666" points="616.5,-892.25 494,-892.25 494,-873 616.5,-873 616.5,-892.25"/>
<text text-anchor="middle" x="555.25" y="-877.8" font-family="Helvetica,sans-Serif" font-size="11.00">formattable&lt; T, char &gt;</text>
</a>
</g>
</g>
<!-- Node1&#45;&gt;Node13 -->
<g id="edge12_Node000001_Node000013" class="edge">
<title>Node1&#45;&gt;Node13</title>
<g id="a_edge12_Node000001_Node000013"><a xlink:title=" ">
<path fill="none" stroke="#63b8ff" d="M66.84,-461.01C74.72,-523.02 105.71,-705 206.5,-807.62 264.67,-866.85 284.53,-884.49 364.25,-907.62 411.95,-921.47 426.93,-915.27 476,-907.62 494.46,-904.75 514.52,-898.27 529.7,-892.63"/>
<polygon fill="#63b8ff" stroke="#63b8ff" points="70.33,-460.69 65.67,-451.17 63.38,-461.52 70.33,-460.69"/>
</a>
</g>
</g>
<!-- Node21 -->
<g id="Node000021" class="node">
<title>Node21</title>
<g id="a_Node000021"><a xlink:href="structfloppy_1_1traits_1_1formattable.html" target="_top" xlink:title=" ">
<polygon fill="white" stroke="#666666" points="609.75,-326.5 500.75,-326.5 500.75,-284.75 609.75,-284.75 609.75,-326.5"/>
<text text-anchor="start" x="508.75" y="-312.05" font-family="Helvetica,sans-Serif" font-size="11.00">formattable&lt; length</text>
<text text-anchor="start" x="508.75" y="-300.8" font-family="Helvetica,sans-Serif" font-size="11.00">&lt; default_unit, f32</text>
<text text-anchor="middle" x="555.25" y="-289.55" font-family="Helvetica,sans-Serif" font-size="11.00"> &gt;, char &gt;</text>
</a>
</g>
</g>
<!-- Node1&#45;&gt;Node21 -->
<g id="edge20_Node000001_Node000021" class="edge">
<title>Node1&#45;&gt;Node21</title>
<g id="a_edge20_Node000001_Node000021"><a xlink:title=" ">
<path fill="none" stroke="#63b8ff" d="M89.9,-423.71C140.01,-393.36 256.16,-328.23 364.25,-305.62 409.45,-296.17 462.04,-297.06 500.41,-299.8"/>
<polygon fill="#63b8ff" stroke="#63b8ff" points="88.22,-420.63 81.52,-428.84 91.88,-426.6 88.22,-420.63"/>
</a>
</g>
</g>
<!-- Node22 -->
<g id="Node000022" class="node">
<title>Node22</title>
<g id="a_Node000022"><a xlink:href="structfloppy_1_1traits_1_1formattable.html" target="_top" xlink:title=" ">
<polygon fill="white" stroke="#666666" points="612.75,-265.5 497.75,-265.5 497.75,-223.75 612.75,-223.75 612.75,-265.5"/>
<text text-anchor="start" x="505.75" y="-251.05" font-family="Helvetica,sans-Serif" font-size="11.00">formattable&lt; point2d</text>
<text text-anchor="start" x="505.75" y="-239.8" font-family="Helvetica,sans-Serif" font-size="11.00">&lt; default_unit, f32 &gt;</text>
<text text-anchor="middle" x="555.25" y="-228.55" font-family="Helvetica,sans-Serif" font-size="11.00">, char &gt;</text>
</a>
</g>
</g>
<!-- Node1&#45;&gt;Node22 -->
<g id="edge21_Node000001_Node000022" class="edge">
<title>Node1&#45;&gt;Node22</title>
<g id="a_edge21_Node000001_Node000022"><a xlink:title=" ">
<path fill="none" stroke="#63b8ff" d="M80.23,-421.28C104.88,-393.41 155.12,-340 206.5,-305.62 270.4,-262.87 289.08,-250.76 364.25,-234.62 408.33,-225.16 459.42,-228.63 497.52,-233.94"/>
<polygon fill="#63b8ff" stroke="#63b8ff" points="77.82,-418.72 73.88,-428.55 83.09,-423.32 77.82,-418.72"/>
</a>
</g>
</g>
<!-- Node23 -->
<g id="Node000023" class="node">
<title>Node23</title>
<g id="a_Node000023"><a xlink:href="structfloppy_1_1traits_1_1formattable.html" target="_top" xlink:title=" ">
<polygon fill="white" stroke="#666666" points="612.75,-204.88 497.75,-204.88 497.75,-174.38 612.75,-174.38 612.75,-204.88"/>
<text text-anchor="start" x="505.75" y="-190.43" font-family="Helvetica,sans-Serif" font-size="11.00">formattable&lt; scale</text>
<text text-anchor="middle" x="555.25" y="-179.18" font-family="Helvetica,sans-Serif" font-size="11.00">&lt; S, D, f32 &gt;, char &gt;</text>
</a>
</g>
</g>
<!-- Node1&#45;&gt;Node23 -->
<g id="edge22_Node000001_Node000023" class="edge">
<title>Node1&#45;&gt;Node23</title>
<g id="a_edge22_Node000001_Node000023"><a xlink:title=" ">
<path fill="none" stroke="#63b8ff" d="M73.51,-419.29C92.46,-378.71 140.22,-287.05 206.5,-234.62 303.65,-157.79 353.73,-143.84 476,-163.62 489.14,-165.75 503.06,-169.76 515.46,-174.01"/>
<polygon fill="#63b8ff" stroke="#63b8ff" points="70.44,-417.6 69.47,-428.15 76.81,-420.5 70.44,-417.6"/>
</a>
</g>
</g>
<!-- Node24 -->
<g id="Node000024" class="node">
<title>Node24</title>
<g id="a_Node000024"><a xlink:href="structfloppy_1_1traits_1_1formattable.html" target="_top" xlink:title=" ">
<polygon fill="white" stroke="#666666" points="610.5,-154.5 500,-154.5 500,-112.75 610.5,-112.75 610.5,-154.5"/>
<text text-anchor="start" x="508" y="-140.05" font-family="Helvetica,sans-Serif" font-size="11.00">formattable&lt; size2d</text>
<text text-anchor="start" x="508" y="-128.8" font-family="Helvetica,sans-Serif" font-size="11.00">&lt; default_unit, f32</text>
<text text-anchor="middle" x="555.25" y="-117.55" font-family="Helvetica,sans-Serif" font-size="11.00"> &gt;, char &gt;</text>
</a>
</g>
</g>
<!-- Node1&#45;&gt;Node24 -->
<g id="edge23_Node000001_Node000024" class="edge">
<title>Node1&#45;&gt;Node24</title>
<g id="a_edge23_Node000001_Node000024"><a xlink:title=" ">
<path fill="none" stroke="#63b8ff" d="M68.8,-418.56C80.7,-365.86 119.1,-227.44 206.5,-156.62 302.15,-79.12 356.46,-63.2 476,-92.62 484.71,-94.77 501.81,-103.52 517.8,-112.39"/>
<polygon fill="#63b8ff" stroke="#63b8ff" points="65.39,-417.77 66.71,-428.29 72.23,-419.25 65.39,-417.77"/>
</a>
</g>
</g>
<!-- Node25 -->
<g id="Node000025" class="node">
<title>Node25</title>
<g id="a_Node000025"><a xlink:href="structfloppy_1_1traits_1_1formattable.html" target="_top" xlink:title=" ">
<polygon fill="white" stroke="#666666" points="615.75,-89.5 494.75,-89.5 494.75,-47.75 615.75,-47.75 615.75,-89.5"/>
<text text-anchor="start" x="502.75" y="-75.05" font-family="Helvetica,sans-Serif" font-size="11.00">formattable&lt; vector2d</text>
<text text-anchor="start" x="502.75" y="-63.8" font-family="Helvetica,sans-Serif" font-size="11.00">&lt; default_unit, f32 &gt;</text>
<text text-anchor="middle" x="555.25" y="-52.55" font-family="Helvetica,sans-Serif" font-size="11.00">, char &gt;</text>
</a>
</g>
</g>
<!-- Node1&#45;&gt;Node25 -->
<g id="edge24_Node000001_Node000025" class="edge">
<title>Node1&#45;&gt;Node25</title>
<g id="a_edge24_Node000001_Node000025"><a xlink:title=" ">
<path fill="none" stroke="#63b8ff" d="M64.58,-418.24C66.17,-351.71 81.42,-148.6 206.5,-78.62 296.63,-28.2 421.51,-40.68 494.51,-54.52"/>
<polygon fill="#63b8ff" stroke="#63b8ff" points="61.08,-418.09 64.44,-428.14 68.08,-418.19 61.08,-418.09"/>
</a>
</g>
</g>
<!-- Node26 -->
<g id="Node000026" class="node">
<title>Node26</title>
<g id="a_Node000026"><a xlink:href="structfloppy_1_1traits_1_1formattable.html" target="_top" xlink:title="Allows type to be converted to string and printed via standard streams or fmt.">
<polygon fill="white" stroke="#666666" points="331.25,-527.25 221.5,-527.25 221.5,-508 331.25,-508 331.25,-527.25"/>
<text text-anchor="middle" x="276.38" y="-512.8" font-family="Helvetica,sans-Serif" font-size="11.00">formattable&lt; T, C &gt;</text>
</a>
</g>
</g>
<!-- Node1&#45;&gt;Node26 -->
<g id="edge25_Node000001_Node000026" class="edge">
<title>Node1&#45;&gt;Node26</title>
<g id="a_edge25_Node000001_Node000026"><a xlink:title=" ">
<path fill="none" stroke="#63b8ff" d="M102.24,-453.59C144.16,-469.09 210.82,-493.75 248.01,-507.5"/>
<polygon fill="#63b8ff" stroke="#63b8ff" points="103.65,-450.37 93.06,-450.19 101.22,-456.94 103.65,-450.37"/>
</a>
</g>
</g>
<!-- Node30 -->
<g id="Node000030" class="node">
<title>Node30</title>
<g id="a_Node000030"><a xlink:href="structfloppy_1_1traits_1_1detail_1_1formattable__base.html" target="_top" xlink:title=" ">
<polygon fill="white" stroke="#666666" points="346.25,-19.25 206.5,-19.25 206.5,0 346.25,0 346.25,-19.25"/>
<text text-anchor="middle" x="276.38" y="-4.8" font-family="Helvetica,sans-Serif" font-size="11.00">formattable_base&lt; char &gt;</text>
</a>
</g>
</g>
<!-- Node1&#45;&gt;Node30 -->
<g id="edge44_Node000001_Node000030" class="edge">
<title>Node1&#45;&gt;Node30</title>
<g id="a_edge44_Node000001_Node000030"><a xlink:title=" ">
<path fill="none" stroke="orange" stroke-dasharray="5,2" d="M65.37,-418.24C68.99,-340.77 85.58,-76.5 145,-22.38 161.39,-7.44 184.21,-2.03 206.18,-1.06"/>
<polygon fill="orange" stroke="orange" points="61.87,-418.08 64.93,-428.22 68.87,-418.39 61.87,-418.08"/>
</a>
</g>
<text text-anchor="middle" x="166.75" y="-23.43" font-family="Helvetica,sans-Serif" font-size="11.00" fill="grey"> &lt; char &gt;</text>
</g>
<!-- Node3 -->
<g id="Node000003" class="node">
<title>Node3</title>
<g id="a_Node000003"><a xlink:href="classfloppy_1_1gfx_1_1color.html" target="_top" xlink:title="Class representing a color.">
<polygon fill="white" stroke="#666666" points="736.25,-947.25 697,-947.25 697,-928 736.25,-928 736.25,-947.25"/>
<text text-anchor="middle" x="716.62" y="-932.8" font-family="Helvetica,sans-Serif" font-size="11.00">color</text>
</a>
</g>
</g>
<!-- Node2&#45;&gt;Node3 -->
<g id="edge2_Node000002_Node000003" class="edge">
<title>Node2&#45;&gt;Node3</title>
<g id="a_edge2_Node000002_Node000003"><a xlink:title=" ">
<path fill="none" stroke="#63b8ff" d="M619.26,-937.62C646.99,-937.62 677.54,-937.62 696.65,-937.62"/>
<polygon fill="#63b8ff" stroke="#63b8ff" points="619.51,-934.13 609.51,-937.63 619.51,-941.13 619.51,-934.13"/>
</a>
</g>
</g>
<!-- Node5 -->
<g id="Node000005" class="node">
<title>Node5</title>
<g id="a_Node000005"><a xlink:href="structfloppy_1_1gfx_1_1color_1_1hsl__t.html" target="_top" xlink:title="HSL color representation.">
<polygon fill="white" stroke="#666666" points="735.88,-828.25 697.38,-828.25 697.38,-809 735.88,-809 735.88,-828.25"/>
<text text-anchor="middle" x="716.62" y="-813.8" font-family="Helvetica,sans-Serif" font-size="11.00">hsl_t</text>
</a>
</g>
</g>
<!-- Node4&#45;&gt;Node5 -->
<g id="edge4_Node000004_Node000005" class="edge">
<title>Node4&#45;&gt;Node5</title>
<g id="a_edge4_Node000004_Node000005"><a xlink:title=" ">
<path fill="none" stroke="#63b8ff" d="M618.55,-818.62C646.74,-818.62 677.98,-818.62 697.21,-818.62"/>
<polygon fill="#63b8ff" stroke="#63b8ff" points="618.63,-815.13 608.63,-818.63 618.63,-822.13 618.63,-815.13"/>
</a>
</g>
</g>
<!-- Node7 -->
<g id="Node000007" class="node">
<title>Node7</title>
<g id="a_Node000007"><a xlink:href="structfloppy_1_1gfx_1_1color_1_1hsla__t.html" target="_top" xlink:title="HSLA color representation.">
<polygon fill="white" stroke="#666666" points="738.88,-731.25 694.38,-731.25 694.38,-712 738.88,-712 738.88,-731.25"/>
<text text-anchor="middle" x="716.62" y="-716.8" font-family="Helvetica,sans-Serif" font-size="11.00">hsla_t</text>
</a>
</g>
</g>
<!-- Node6&#45;&gt;Node7 -->
<g id="edge6_Node000006_Node000007" class="edge">
<title>Node6&#45;&gt;Node7</title>
<g id="a_edge6_Node000006_Node000007"><a xlink:title=" ">
<path fill="none" stroke="#63b8ff" d="M618.36,-721.62C645.08,-721.62 674.58,-721.62 694.01,-721.62"/>
<polygon fill="#63b8ff" stroke="#63b8ff" points="618.63,-718.13 608.63,-721.63 618.63,-725.13 618.63,-718.13"/>
</a>
</g>
</g>
<!-- Node9 -->
<g id="Node000009" class="node">
<title>Node9</title>
<g id="a_Node000009"><a xlink:href="structfloppy_1_1gfx_1_1color_1_1hsv__t.html" target="_top" xlink:title="HSV color representation.">
<polygon fill="white" stroke="#666666" points="737.38,-682.25 695.88,-682.25 695.88,-663 737.38,-663 737.38,-682.25"/>
<text text-anchor="middle" x="716.62" y="-667.8" font-family="Helvetica,sans-Serif" font-size="11.00">hsv_t</text>
</a>
</g>
</g>
<!-- Node8&#45;&gt;Node9 -->
<g id="edge8_Node000008_Node000009" class="edge">
<title>Node8&#45;&gt;Node9</title>
<g id="a_edge8_Node000008_Node000009"><a xlink:title=" ">
<path fill="none" stroke="#63b8ff" d="M618.28,-672.62C645.78,-672.62 676.24,-672.62 695.64,-672.62"/>
<polygon fill="#63b8ff" stroke="#63b8ff" points="618.63,-669.13 608.63,-672.63 618.63,-676.13 618.63,-669.13"/>
</a>
</g>
</g>
<!-- Node11 -->
<g id="Node000011" class="node">
<title>Node11</title>
<g id="a_Node000011"><a xlink:href="structfloppy_1_1gfx_1_1color_1_1hsva__t.html" target="_top" xlink:title="HSVA color representation.">
<polygon fill="white" stroke="#666666" points="740.38,-633.25 692.88,-633.25 692.88,-614 740.38,-614 740.38,-633.25"/>
<text text-anchor="middle" x="716.62" y="-618.8" font-family="Helvetica,sans-Serif" font-size="11.00">hsva_t</text>
</a>
</g>
</g>
<!-- Node10&#45;&gt;Node11 -->
<g id="edge10_Node000010_Node000011" class="edge">
<title>Node10&#45;&gt;Node11</title>
<g id="a_edge10_Node000010_Node000011"><a xlink:title=" ">
<path fill="none" stroke="#63b8ff" d="M618.5,-623.62C644.61,-623.62 673.36,-623.62 692.75,-623.62"/>
<polygon fill="#63b8ff" stroke="#63b8ff" points="618.63,-620.13 608.63,-623.63 618.63,-627.13 618.63,-620.13"/>
</a>
</g>
</g>
<!-- Node14 -->
<g id="Node000014" class="node">
<title>Node14</title>
<g id="a_Node000014"><a xlink:href="structfloppy_1_1math_1_1detail_1_1basic__two__dimensional__type.html" target="_top" xlink:title="CRTP base class for two dimensional numerical types.">
<polygon fill="white" stroke="#666666" points="779.75,-897.88 653.5,-897.88 653.5,-867.38 779.75,-867.38 779.75,-897.88"/>
<text text-anchor="start" x="661.5" y="-883.42" font-family="Helvetica,sans-Serif" font-size="11.00">basic_two_dimensional</text>
<text text-anchor="middle" x="716.62" y="-872.17" font-family="Helvetica,sans-Serif" font-size="11.00">_type&lt; T, U, N &gt;</text>
</a>
</g>
</g>
<!-- Node13&#45;&gt;Node14 -->
<g id="edge13_Node000013_Node000014" class="edge">
<title>Node13&#45;&gt;Node14</title>
<g id="a_edge13_Node000013_Node000014"><a xlink:title=" ">
<path fill="none" stroke="#63b8ff" d="M628.23,-882.62C636.58,-882.62 645.03,-882.62 653.24,-882.62"/>
<polygon fill="#63b8ff" stroke="#63b8ff" points="628.47,-879.13 618.47,-882.63 628.47,-886.13 628.47,-879.13"/>
</a>
</g>
</g>
<!-- Node15 -->
<g id="Node000015" class="node">
<title>Node15</title>
<g id="a_Node000015"><a xlink:href="classfloppy_1_1math_1_1point2d.html" target="_top" xlink:title="A two&#45;dimensional point tagged with a unit.">
<polygon fill="white" stroke="#666666" points="1062.38,-970.25 971.38,-970.25 971.38,-951 1062.38,-951 1062.38,-970.25"/>
<text text-anchor="middle" x="1016.88" y="-955.8" font-family="Helvetica,sans-Serif" font-size="11.00">point2d&lt; U, T &gt;</text>
</a>
</g>
</g>
<!-- Node14&#45;&gt;Node15 -->
<g id="edge14_Node000014_Node000015" class="edge">
<title>Node14&#45;&gt;Node15</title>
<g id="a_edge14_Node000014_Node000015"><a xlink:title=" ">
<path fill="none" stroke="#63b8ff" d="M758.24,-903.07C770.68,-908.73 784.57,-914.46 797.75,-918.62 856.4,-937.17 926.64,-948.91 971.26,-955.13"/>
<polygon fill="#63b8ff" stroke="#63b8ff" points="760.08,-900.07 749.54,-899 757.12,-906.41 760.08,-900.07"/>
</a>
</g>
</g>
<!-- Node16 -->
<g id="Node000016" class="node">
<title>Node16</title>
<g id="a_Node000016"><a xlink:href="classfloppy_1_1math_1_1size2d.html" target="_top" xlink:title="A two&#45;dimensional size2d tagged with a unit.">
<polygon fill="white" stroke="#666666" points="1060.12,-933.25 973.62,-933.25 973.62,-914 1060.12,-914 1060.12,-933.25"/>
<text text-anchor="middle" x="1016.88" y="-918.8" font-family="Helvetica,sans-Serif" font-size="11.00">size2d&lt; U, T &gt;</text>
</a>
</g>
</g>
<!-- Node14&#45;&gt;Node16 -->
<g id="edge15_Node000014_Node000016" class="edge">
<title>Node14&#45;&gt;Node16</title>
<g id="a_edge15_Node000014_Node000016"><a xlink:title=" ">
<path fill="none" stroke="#63b8ff" d="M791.22,-896.6C793.42,-896.95 795.6,-897.3 797.75,-897.62 858.44,-906.91 929.07,-914.8 973.13,-919.38"/>
<polygon fill="#63b8ff" stroke="#63b8ff" points="792.04,-893.19 781.6,-894.99 790.88,-900.09 792.04,-893.19"/>
</a>
</g>
</g>
<!-- Node17 -->
<g id="Node000017" class="node">
<title>Node17</title>
<g id="a_Node000017"><a xlink:href="classfloppy_1_1math_1_1vector2d.html" target="_top" xlink:title="A two&#45;dimensional vector tagged with a unit.">
<polygon fill="white" stroke="#666666" points="1065.38,-896.25 968.38,-896.25 968.38,-877 1065.38,-877 1065.38,-896.25"/>
<text text-anchor="middle" x="1016.88" y="-881.8" font-family="Helvetica,sans-Serif" font-size="11.00">vector2d&lt; U, T &gt;</text>
</a>
</g>
</g>
<!-- Node14&#45;&gt;Node17 -->
<g id="edge16_Node000014_Node000017" class="edge">
<title>Node14&#45;&gt;Node17</title>
<g id="a_edge16_Node000014_Node000017"><a xlink:title=" ">
<path fill="none" stroke="#63b8ff" d="M791.62,-883.62C846.8,-884.36 920.54,-885.35 968.13,-885.98"/>
<polygon fill="#63b8ff" stroke="#63b8ff" points="791.71,-880.12 781.66,-883.48 791.61,-887.12 791.71,-880.12"/>
</a>
</g>
</g>
<!-- Node18 -->
<g id="Node000018" class="node">
<title>Node18</title>
<g id="a_Node000018"><a xlink:href="structfloppy_1_1math_1_1detail_1_1basic__two__dimensional__type.html" target="_top" xlink:title=" ">
<polygon fill="white" stroke="#666666" points="1098,-837.5 935.75,-837.5 935.75,-795.75 1098,-795.75 1098,-837.5"/>
<text text-anchor="start" x="943.75" y="-823.05" font-family="Helvetica,sans-Serif" font-size="11.00">basic_two_dimensional</text>
<text text-anchor="start" x="943.75" y="-811.8" font-family="Helvetica,sans-Serif" font-size="11.00">_type&lt; point2d&lt; default</text>
<text text-anchor="middle" x="1016.88" y="-800.55" font-family="Helvetica,sans-Serif" font-size="11.00">_unit, f32 &gt;, default_unit, f32 &gt;</text>
</a>
</g>
</g>
<!-- Node14&#45;&gt;Node18 -->
<g id="edge17_Node000014_Node000018" class="edge">
<title>Node14&#45;&gt;Node18</title>
<g id="a_edge17_Node000014_Node000018"><a xlink:title=" ">
<path fill="none" stroke="orange" stroke-dasharray="5,2" d="M756.46,-862.01C769.29,-855.96 783.85,-849.9 797.75,-845.88 842.34,-832.97 893.74,-825.73 935.44,-821.68"/>
<polygon fill="orange" stroke="orange" points="754.95,-858.85 747.49,-866.38 758.01,-865.14 754.95,-858.85"/>
</a>
</g>
<text text-anchor="start" x="811.62" y="-868.92" font-family="Helvetica,sans-Serif" font-size="11.00" fill="grey"> &lt; point2d&lt; default</text>
<text text-anchor="start" x="811.62" y="-857.67" font-family="Helvetica,sans-Serif" font-size="11.00" fill="grey">_unit, f32 &gt;, default</text>
<text text-anchor="middle" x="857.75" y="-846.42" font-family="Helvetica,sans-Serif" font-size="11.00" fill="grey">_unit, f32 &gt;</text>
</g>
<!-- Node19 -->
<g id="Node000019" class="node">
<title>Node19</title>
<g id="a_Node000019"><a xlink:href="structfloppy_1_1math_1_1detail_1_1basic__two__dimensional__type.html" target="_top" xlink:title=" ">
<polygon fill="white" stroke="#666666" points="1098,-735.5 935.75,-735.5 935.75,-693.75 1098,-693.75 1098,-735.5"/>
<text text-anchor="start" x="943.75" y="-721.05" font-family="Helvetica,sans-Serif" font-size="11.00">basic_two_dimensional</text>
<text text-anchor="start" x="943.75" y="-709.8" font-family="Helvetica,sans-Serif" font-size="11.00">_type&lt; size2d&lt; default</text>
<text text-anchor="middle" x="1016.88" y="-698.55" font-family="Helvetica,sans-Serif" font-size="11.00">_unit, f32 &gt;, default_unit, f32 &gt;</text>
</a>
</g>
</g>
<!-- Node14&#45;&gt;Node19 -->
<g id="edge18_Node000014_Node000019" class="edge">
<title>Node14&#45;&gt;Node19</title>
<g id="a_edge18_Node000014_Node000019"><a xlink:title=" ">
<path fill="none" stroke="orange" stroke-dasharray="5,2" d="M754.82,-860.54C763.79,-853.99 772.78,-846.23 779.75,-837.62 792.15,-822.32 783.43,-810.65 797.75,-797.12 835.49,-761.46 890.16,-740.83 935.33,-729.11"/>
<polygon fill="orange" stroke="orange" points="753.05,-857.51 746.81,-866.07 757.03,-863.27 753.05,-857.51"/>
</a>
</g>
<text text-anchor="start" x="797.75" y="-808.67" font-family="Helvetica,sans-Serif" font-size="11.00" fill="grey"> &lt; size2d&lt; default_unit,</text>
<text text-anchor="middle" x="857.75" y="-797.42" font-family="Helvetica,sans-Serif" font-size="11.00" fill="grey"> f32 &gt;, default_unit, f32 &gt;</text>
</g>
<!-- Node20 -->
<g id="Node000020" class="node">
<title>Node20</title>
<g id="a_Node000020"><a xlink:href="structfloppy_1_1math_1_1detail_1_1basic__two__dimensional__type.html" target="_top" xlink:title=" ">
<polygon fill="white" stroke="#666666" points="1098,-591.5 935.75,-591.5 935.75,-549.75 1098,-549.75 1098,-591.5"/>
<text text-anchor="start" x="943.75" y="-577.05" font-family="Helvetica,sans-Serif" font-size="11.00">basic_two_dimensional</text>
<text text-anchor="start" x="943.75" y="-565.8" font-family="Helvetica,sans-Serif" font-size="11.00">_type&lt; vector2d&lt; default</text>
<text text-anchor="middle" x="1016.88" y="-554.55" font-family="Helvetica,sans-Serif" font-size="11.00">_unit, f32 &gt;, default_unit, f32 &gt;</text>
</a>
</g>
</g>
<!-- Node14&#45;&gt;Node20 -->
<g id="edge19_Node000014_Node000020" class="edge">
<title>Node14&#45;&gt;Node20</title>
<g id="a_edge19_Node000014_Node000020"><a xlink:title=" ">
<path fill="none" stroke="orange" stroke-dasharray="5,2" d="M758.59,-860.33C766.81,-854.03 774.52,-846.45 779.75,-837.62 811.93,-783.39 762.84,-749.4 797.75,-696.88 832.57,-644.49 897.06,-611.13 946.92,-591.95"/>
<polygon fill="orange" stroke="orange" points="756.63,-857.42 750.44,-866.02 760.64,-863.16 756.63,-857.42"/>
</a>
</g>
<text text-anchor="start" x="809.75" y="-719.92" font-family="Helvetica,sans-Serif" font-size="11.00" fill="grey"> &lt; vector2d&lt; default</text>
<text text-anchor="start" x="809.75" y="-708.67" font-family="Helvetica,sans-Serif" font-size="11.00" fill="grey">_unit, f32 &gt;, default</text>
<text text-anchor="middle" x="857.75" y="-697.42" font-family="Helvetica,sans-Serif" font-size="11.00" fill="grey">_unit, f32 &gt;</text>
</g>
<!-- Node26&#45;&gt;Node2 -->
<g id="edge32_Node000026_Node000002" class="edge">
<title>Node26&#45;&gt;Node2</title>
<g id="a_edge32_Node000026_Node000002"><a xlink:title=" ">
<path fill="none" stroke="orange" stroke-dasharray="5,2" d="M279.83,-538.56C288.26,-607.11 318.08,-823.33 364.25,-873.62 399.79,-912.35 459.51,-927.65 502.52,-933.7"/>
<polygon fill="orange" stroke="orange" points="283.36,-538.57 278.69,-529.05 276.41,-539.4 283.36,-538.57"/>
</a>
</g>
<text text-anchor="middle" x="420.12" y="-928.42" font-family="Helvetica,sans-Serif" font-size="11.00" fill="grey"> &lt; color, char &gt;</text>
</g>
<!-- Node26&#45;&gt;Node4 -->
<g id="edge33_Node000026_Node000004" class="edge">
<title>Node26&#45;&gt;Node4</title>
<g id="a_edge33_Node000026_Node000004"><a xlink:title=" ">
<path fill="none" stroke="orange" stroke-dasharray="5,2" d="M279.05,-538.81C283.81,-584.84 301.49,-694.71 364.25,-755.62 384.32,-775.11 454.3,-795 503.47,-807.09"/>
<polygon fill="orange" stroke="orange" points="282.54,-538.53 278.14,-528.89 275.57,-539.17 282.54,-538.53"/>
</a>
</g>
<text text-anchor="middle" x="420.12" y="-799.42" font-family="Helvetica,sans-Serif" font-size="11.00" fill="grey"> &lt; color::hsl_t, char &gt;</text>
</g>
<!-- Node26&#45;&gt;Node6 -->
<g id="edge34_Node000026_Node000006" class="edge">
<title>Node26&#45;&gt;Node6</title>
<g id="a_edge34_Node000026_Node000006"><a xlink:title=" ">
<path fill="none" stroke="orange" stroke-dasharray="5,2" d="M283.3,-538.45C293.87,-571.78 319.23,-636.88 364.25,-671.62 404.49,-702.67 462.25,-714.52 503.51,-719"/>
<polygon fill="orange" stroke="orange" points="286.74,-537.73 280.5,-529.17 280.04,-539.76 286.74,-537.73"/>
</a>
</g>
<text text-anchor="middle" x="420.12" y="-715.42" font-family="Helvetica,sans-Serif" font-size="11.00" fill="grey"> &lt; color::hsla_t, char &gt;</text>
</g>
<!-- Node26&#45;&gt;Node8 -->
<g id="edge35_Node000026_Node000008" class="edge">
<title>Node26&#45;&gt;Node8</title>
<g id="a_edge35_Node000026_Node000008"><a xlink:title=" ">
<path fill="none" stroke="orange" stroke-dasharray="5,2" d="M290.24,-536.92C305.5,-558.35 332.84,-592.58 364.25,-612.62 407.12,-639.98 463.4,-655.7 503.56,-664.13"/>
<polygon fill="orange" stroke="orange" points="293.19,-535.02 284.62,-528.78 287.43,-539 293.19,-535.02"/>
</a>
</g>
<text text-anchor="middle" x="420.12" y="-657.42" font-family="Helvetica,sans-Serif" font-size="11.00" fill="grey"> &lt; color::hsv_t, char &gt;</text>
</g>
<!-- Node26&#45;&gt;Node10 -->
<g id="edge36_Node000026_Node000010" class="edge">
<title>Node26&#45;&gt;Node10</title>
<g id="a_edge36_Node000026_Node000010"><a xlink:title=" ">
<path fill="none" stroke="orange" stroke-dasharray="5,2" d="M296.6,-534.67C313.33,-548.58 338.83,-567.68 364.25,-578.62 410.81,-598.67 426.75,-589.38 476,-601.38 484.92,-603.55 494.35,-606.05 503.47,-608.58"/>
<polygon fill="orange" stroke="orange" points="299.29,-532.36 289.42,-528.53 294.75,-537.69 299.29,-532.36"/>
</a>
</g>
<text text-anchor="middle" x="420.12" y="-601.42" font-family="Helvetica,sans-Serif" font-size="11.00" fill="grey"> &lt; color::hsva_t, char &gt;</text>
</g>
<!-- Node26&#45;&gt;Node12 -->
<g id="edge37_Node000026_Node000012" class="edge">
<title>Node26&#45;&gt;Node12</title>
<g id="a_edge37_Node000026_Node000012"><a xlink:title=" ">
<path fill="none" stroke="orange" stroke-dasharray="5,2" d="M292.6,-499.2C308.53,-481.23 335.23,-454.58 364.25,-440.38 409.62,-418.17 428.59,-437.08 476,-419.62 486.74,-415.67 510.68,-401.59 529.27,-390.22"/>
<polygon fill="orange" stroke="orange" points="290.15,-496.69 286.28,-506.55 295.45,-501.25 290.15,-496.69"/>
</a>
</g>
<text text-anchor="middle" x="420.12" y="-440.43" font-family="Helvetica,sans-Serif" font-size="11.00" fill="grey"> &lt; angle&lt; f32 &gt;, char &gt;</text>
</g>
<!-- Node26&#45;&gt;Node13 -->
<g id="edge38_Node000026_Node000013" class="edge">
<title>Node26&#45;&gt;Node13</title>
<g id="a_edge38_Node000026_Node000013"><a xlink:title=" ">
<path fill="none" stroke="orange" stroke-dasharray="5,2" d="M277.4,-538.95C278.63,-592.44 289.23,-733.73 364.25,-813.62 385.03,-835.75 464.49,-859.49 513.84,-872.55"/>
<polygon fill="orange" stroke="orange" points="280.91,-539.06 277.28,-529.11 273.91,-539.15 280.91,-539.06"/>
</a>
</g>
<text text-anchor="middle" x="420.12" y="-862.42" font-family="Helvetica,sans-Serif" font-size="11.00" fill="grey"> &lt; T, char &gt;</text>
</g>
<!-- Node26&#45;&gt;Node18 -->
<g id="edge26_Node000026_Node000018" class="edge">
<title>Node26&#45;&gt;Node18</title>
<g id="a_edge26_Node000026_Node000018"><a xlink:title=" ">
<path fill="none" stroke="#63b8ff" d="M279.2,-538.91C284.18,-582.57 302.11,-682.16 364.25,-729.62 413.32,-767.1 857.55,-764.93 917.75,-778.62 935.03,-782.55 953.3,-788.96 969.33,-795.4"/>
<polygon fill="#63b8ff" stroke="#63b8ff" points="282.71,-538.82 278.23,-529.22 275.74,-539.52 282.71,-538.82"/>
</a>
</g>
</g>
<!-- Node26&#45;&gt;Node19 -->
<g id="edge27_Node000026_Node000019" class="edge">
<title>Node26&#45;&gt;Node19</title>
<g id="a_edge27_Node000026_Node000019"><a xlink:title=" ">
<path fill="none" stroke="#63b8ff" d="M318.62,-531.08C332.94,-535.33 349.18,-539.68 364.25,-542.62 424.95,-554.5 862.92,-573.01 917.75,-601.62 957.6,-622.42 988.4,-666.71 1004.19,-693.25"/>
<polygon fill="#63b8ff" stroke="#63b8ff" points="319.65,-527.74 309.06,-528.17 317.61,-534.43 319.65,-527.74"/>
</a>
</g>
</g>
<!-- Node26&#45;&gt;Node20 -->
<g id="edge28_Node000026_Node000020" class="edge">
<title>Node26&#45;&gt;Node20</title>
<g id="a_edge28_Node000026_Node000020"><a xlink:title=" ">
<path fill="none" stroke="#63b8ff" d="M342.86,-522.97C350.08,-523.54 357.32,-524.1 364.25,-524.62 569.93,-540.17 812.26,-556.85 935.35,-565.2"/>
<polygon fill="#63b8ff" stroke="#63b8ff" points="343.34,-519.5 333.1,-522.2 342.79,-526.48 343.34,-519.5"/>
</a>
</g>
</g>
<!-- Node26&#45;&gt;Node21 -->
<g id="edge39_Node000026_Node000021" class="edge">
<title>Node26&#45;&gt;Node21</title>
<g id="a_edge39_Node000026_Node000021"><a xlink:title=" ">
<path fill="none" stroke="orange" stroke-dasharray="5,2" d="M286.6,-497.41C300.03,-470.12 327.41,-421.63 364.25,-393.12 406.15,-360.7 428.15,-374.36 476,-351.62 491.23,-344.39 507.4,-335.17 521.06,-326.88"/>
<polygon fill="orange" stroke="orange" points="283.5,-495.79 282.37,-506.33 289.82,-498.8 283.5,-495.79"/>
</a>
</g>
<text text-anchor="start" x="365" y="-404.68" font-family="Helvetica,sans-Serif" font-size="11.00" fill="grey"> &lt; length&lt; default_unit,</text>
<text text-anchor="middle" x="420.12" y="-393.43" font-family="Helvetica,sans-Serif" font-size="11.00" fill="grey"> f32 &gt;, char &gt;</text>
</g>
<!-- Node26&#45;&gt;Node22 -->
<g id="edge40_Node000026_Node000022" class="edge">
<title>Node26&#45;&gt;Node22</title>
<g id="a_edge40_Node000026_Node000022"><a xlink:title=" ">
<path fill="none" stroke="orange" stroke-dasharray="5,2" d="M281.44,-496.54C289.99,-457.54 313.42,-373.72 364.25,-325.12 402.89,-288.18 426.87,-301.69 476,-280.62 486.72,-276.03 498.17,-270.89 508.91,-265.97"/>
<polygon fill="orange" stroke="orange" points="278.03,-495.74 279.43,-506.24 284.88,-497.16 278.03,-495.74"/>
</a>
</g>
<text text-anchor="start" x="374.75" y="-336.68" font-family="Helvetica,sans-Serif" font-size="11.00" fill="grey"> &lt; point2d&lt; default</text>
<text text-anchor="middle" x="420.12" y="-325.43" font-family="Helvetica,sans-Serif" font-size="11.00" fill="grey">_unit, f32 &gt;, char &gt;</text>
</g>
<!-- Node26&#45;&gt;Node23 -->
<g id="edge41_Node000026_Node000023" class="edge">
<title>Node26&#45;&gt;Node23</title>
<g id="a_edge41_Node000026_Node000023"><a xlink:title=" ">
<path fill="none" stroke="orange" stroke-dasharray="5,2" d="M278.22,-496.25C281.33,-446.72 295.92,-323.06 364.25,-254.12 374.18,-244.11 447.63,-220.94 500.23,-205.27"/>
<polygon fill="orange" stroke="orange" points="274.73,-495.98 277.71,-506.15 281.72,-496.34 274.73,-495.98"/>
</a>
</g>
<text text-anchor="start" x="375.12" y="-265.68" font-family="Helvetica,sans-Serif" font-size="11.00" fill="grey"> &lt; scale&lt; S, D, f32</text>
<text text-anchor="middle" x="420.12" y="-254.43" font-family="Helvetica,sans-Serif" font-size="11.00" fill="grey"> &gt;, char &gt;</text>
</g>
<!-- Node26&#45;&gt;Node24 -->
<g id="edge42_Node000026_Node000024" class="edge">
<title>Node26&#45;&gt;Node24</title>
<g id="a_edge42_Node000026_Node000024"><a xlink:title=" ">
<path fill="none" stroke="orange" stroke-dasharray="5,2" d="M280.18,-496.42C289.29,-430.71 320,-232.15 364.25,-187.12 399.68,-151.07 457.36,-138.8 499.88,-134.88"/>
<polygon fill="orange" stroke="orange" points="276.73,-495.83 278.85,-506.21 283.67,-496.77 276.73,-495.83"/>
</a>
</g>
<text text-anchor="start" x="364.25" y="-198.68" font-family="Helvetica,sans-Serif" font-size="11.00" fill="grey"> &lt; size2d&lt; default_unit,</text>
<text text-anchor="middle" x="420.12" y="-187.43" font-family="Helvetica,sans-Serif" font-size="11.00" fill="grey"> f32 &gt;, char &gt;</text>
</g>
<!-- Node26&#45;&gt;Node25 -->
<g id="edge43_Node000026_Node000025" class="edge">
<title>Node26&#45;&gt;Node25</title>
<g id="a_edge43_Node000026_Node000025"><a xlink:title=" ">
<path fill="none" stroke="orange" stroke-dasharray="5,2" d="M278.96,-496.57C285.02,-421.42 309.3,-167.86 364.25,-112.12 397.87,-78.03 452.37,-68.34 494.4,-66.49"/>
<polygon fill="orange" stroke="orange" points="275.49,-496 278.2,-506.24 282.47,-496.54 275.49,-496"/>
</a>
</g>
<text text-anchor="start" x="372.12" y="-124.67" font-family="Helvetica,sans-Serif" font-size="11.00" fill="grey"> &lt; vector2d&lt; default</text>
<text text-anchor="middle" x="420.12" y="-113.42" font-family="Helvetica,sans-Serif" font-size="11.00" fill="grey">_unit, f32 &gt;, char &gt;</text>
</g>
<!-- Node27 -->
<g id="Node000027" class="node">
<title>Node27</title>
<g id="a_Node000027"><a xlink:href="structfloppy_1_1math_1_1angle.html" target="_top" xlink:title="Newtype describing an angle.">
<polygon fill="white" stroke="#666666" points="589.5,-514.25 521,-514.25 521,-495 589.5,-495 589.5,-514.25"/>
<text text-anchor="middle" x="555.25" y="-499.8" font-family="Helvetica,sans-Serif" font-size="11.00">angle&lt; T &gt;</text>
</a>
</g>
</g>
<!-- Node26&#45;&gt;Node27 -->
<g id="edge29_Node000026_Node000027" class="edge">
<title>Node26&#45;&gt;Node27</title>
<g id="a_edge29_Node000026_Node000027"><a xlink:title=" ">
<path fill="none" stroke="#63b8ff" d="M342.97,-514.55C398.89,-511.92 476.99,-508.25 520.88,-506.19"/>
<polygon fill="#63b8ff" stroke="#63b8ff" points="343.08,-511.04 333.26,-515 343.41,-518.03 343.08,-511.04"/>
</a>
</g>
</g>
<!-- Node28 -->
<g id="Node000028" class="node">
<title>Node28</title>
<g id="a_Node000028"><a xlink:href="classfloppy_1_1math_1_1length.html" target="_top" xlink:title="A one&#45;dimensional distance with associated unit of measurement.">
<polygon fill="white" stroke="#666666" points="597.75,-477.25 512.75,-477.25 512.75,-458 597.75,-458 597.75,-477.25"/>
<text text-anchor="middle" x="555.25" y="-462.8" font-family="Helvetica,sans-Serif" font-size="11.00">length&lt; U, T &gt;</text>
</a>
</g>
</g>
<!-- Node26&#45;&gt;Node28 -->
<g id="edge30_Node000026_Node000028" class="edge">
<title>Node26&#45;&gt;Node28</title>
<g id="a_edge30_Node000026_Node000028"><a xlink:title=" ">
<path fill="none" stroke="#63b8ff" d="M342.98,-505.78C395.56,-496.28 467.72,-483.25 512.64,-475.14"/>
<polygon fill="#63b8ff" stroke="#63b8ff" points="342.45,-502.32 333.24,-507.54 343.7,-509.2 342.45,-502.32"/>
</a>
</g>
</g>
<!-- Node29 -->
<g id="Node000029" class="node">
<title>Node29</title>
<g id="a_Node000029"><a xlink:href="structfloppy_1_1math_1_1scale.html" target="_top" xlink:title="A scaling factor between two different units of measurement.">
<polygon fill="white" stroke="#666666" points="602.62,-440.25 507.88,-440.25 507.88,-421 602.62,-421 602.62,-440.25"/>
<text text-anchor="middle" x="555.25" y="-425.8" font-family="Helvetica,sans-Serif" font-size="11.00">scale&lt; S, D, T &gt;</text>
</a>
</g>
</g>
<!-- Node26&#45;&gt;Node29 -->
<g id="edge31_Node000026_Node000029" class="edge">
<title>Node26&#45;&gt;Node29</title>
<g id="a_edge31_Node000026_Node000029"><a xlink:title=" ">
<path fill="none" stroke="#63b8ff" d="M309.69,-502.9C325.86,-495.88 345.86,-487.7 364.25,-481.62 412.87,-465.56 426.59,-467.07 476,-453.62 490.89,-449.57 507.29,-444.8 521.21,-440.66"/>
<polygon fill="#63b8ff" stroke="#63b8ff" points="308.3,-499.69 300.56,-506.93 311.12,-506.1 308.3,-499.69"/>
</a>
</g>
</g>
</g>
</svg>

<g id="navigator" transform="translate(0 0)" fill="#404254">
  <rect fill="#f2f5e9" fill-opacity="0.5" stroke="#606060" stroke-width=".5" x="0" y="0" width="60" height="60"/>
  <use id="zoomplus" xlink:href="#zoomPlus" x="17" y="9" onmousedown="handleZoom(evt,'in')"/>
  <use id="zoomminus" xlink:href="#zoomMin" x="42" y="9" onmousedown="handleZoom(evt,'out')"/>
  <use id="reset" xlink:href="#resetDef" x="30" y="36" onmousedown="handleReset()"/>
   <use id="arrowup" xlink:href="#arrowUp" x="0" y="0" onmousedown="handlePan(0,-1)"/>
  <use id="arrowright" xlink:href="#arrowRight" x="0" y="0" onmousedown="handlePan(1,0)"/>
  <use id="arrowdown" xlink:href="#arrowDown" x="0" y="0" onmousedown="handlePan(0,1)"/>
  <use id="arrowleft" xlink:href="#arrowLeft" x="0" y="0" onmousedown="handlePan(-1,0)"/>
</g>
<svg viewBox="0 0 15 15" width="100%" height="30px" preserveAspectRatio="xMaxYMin meet">
 <g id="arrow_out" transform="scale(0.3 0.3)">
  <a xlink:href="structfloppy_1_1traits_1_1detail_1_1formattable__base__inherit__graph_org.svg" target="_base">
   <rect id="button" ry="5" rx="5" y="6" x="6" height="38" width="38"
        fill="#f2f5e9" fill-opacity="0.5" stroke="#606060" stroke-width="1.0"/>
   <path id="arrow"
     d="M 11.500037,31.436501 C 11.940474,20.09759 22.043105,11.32322 32.158766,21.979434 L 37.068811,17.246167 C 37.068811,17.246167 37.088388,32 37.088388,32 L 22.160133,31.978069 C 22.160133,31.978069 26.997745,27.140456 26.997745,27.140456 C 18.528582,18.264221 13.291696,25.230495 11.500037,31.436501 z"
     style="fill:#404040;"/>
  </a>
 </g>
</svg>

<style type='text/css'>
<![CDATA[
[data-mouse-over-selected='false'] { opacity: 0.7; }
[data-mouse-over-selected='true']  { opacity: 1.0; }
]]>
</style>
<script type="application/ecmascript"><![CDATA[
document.addEventListener('DOMContentLoaded', (event) => {
  highlightEdges();
  highlightAdjacentNodes();
});
]]></script>
</svg>
