<?xml version="1.0" encoding="UTF-8" standalone="no"?>
<!DOCTYPE svg PUBLIC "-//W3C//DTD SVG 1.1//EN"
 "http://www.w3.org/Graphics/SVG/1.1/DTD/svg11.dtd">
<!-- Generated by graphviz version 10.0.1 (0)
 -->
<!-- Title: basic_two_dimensional_type&lt; T, U, N &gt; Pages: 1 -->
<svg width="319pt" height="204pt"
 viewBox="0.00 0.00 319.00 204.25" xmlns="http://www.w3.org/2000/svg" xmlns:xlink="http://www.w3.org/1999/xlink">
<g id="graph0" class="graph" transform="scale(1 1) rotate(0) translate(4 200.25)">
<title>basic_two_dimensional_type&lt; T, U, N &gt;</title>
<!-- Node1 -->
<g id="Node000001" class="node">
<title>Node1</title>
<g id="a_Node000001"><a xlink:title="CRTP base class for two dimensional numerical types.">
<polygon fill="#999999" stroke="#666666" points="215.62,-85.75 89.38,-85.75 89.38,-55.25 215.62,-55.25 215.62,-85.75"/>
<text text-anchor="start" x="97.38" y="-71.3" font-family="Arial" font-size="11.00">basic_two_dimensional</text>
<text text-anchor="middle" x="152.5" y="-60.05" font-family="Arial" font-size="11.00">_type&lt; T, U, N &gt;</text>
</a>
</g>
</g>
<!-- Node4 -->
<g id="Node000004" class="node">
<title>Node4</title>
<g id="a_Node000004"><a xlink:href="classfloppy_1_1math_1_1point2d.html" target="_top" xlink:title="A two&#45;dimensional point tagged with a unit.">
<polygon fill="white" stroke="#666666" points="91,-19.25 0,-19.25 0,0 91,0 91,-19.25"/>
<text text-anchor="middle" x="45.5" y="-4.8" font-family="Arial" font-size="11.00">point2d&lt; U, T &gt;</text>
</a>
</g>
</g>
<!-- Node1&#45;&gt;Node4 -->
<g id="edge3_Node000001_Node000004" class="edge">
<title>Node1&#45;&gt;Node4</title>
<g id="a_edge3_Node000001_Node000004"><a xlink:title=" ">
<path fill="none" stroke="#63b8ff" d="M115.94,-49.38C97.58,-39.28 76.25,-27.54 61.91,-19.65"/>
<polygon fill="#63b8ff" stroke="#63b8ff" points="114,-52.31 124.45,-54.07 117.38,-46.18 114,-52.31"/>
</a>
</g>
</g>
<!-- Node5 -->
<g id="Node000005" class="node">
<title>Node5</title>
<g id="a_Node000005"><a xlink:href="classfloppy_1_1math_1_1size2d.html" target="_top" xlink:title="A two&#45;dimensional size2d tagged with a unit.">
<polygon fill="white" stroke="#666666" points="195.75,-19.25 109.25,-19.25 109.25,0 195.75,0 195.75,-19.25"/>
<text text-anchor="middle" x="152.5" y="-4.8" font-family="Arial" font-size="11.00">size2d&lt; U, T &gt;</text>
</a>
</g>
</g>
<!-- Node1&#45;&gt;Node5 -->
<g id="edge4_Node000001_Node000005" class="edge">
<title>Node1&#45;&gt;Node5</title>
<g id="a_edge4_Node000001_Node000005"><a xlink:title=" ">
<path fill="none" stroke="#63b8ff" d="M152.5,-43.48C152.5,-34.98 152.5,-26.09 152.5,-19.7"/>
<polygon fill="#63b8ff" stroke="#63b8ff" points="149,-43.43 152.5,-53.43 156,-43.43 149,-43.43"/>
</a>
</g>
</g>
<!-- Node6 -->
<g id="Node000006" class="node">
<title>Node6</title>
<g id="a_Node000006"><a xlink:href="classfloppy_1_1math_1_1vector2d.html" target="_top" xlink:title="A two&#45;dimensional vector tagged with a unit.">
<polygon fill="white" stroke="#666666" points="311,-19.25 214,-19.25 214,0 311,0 311,-19.25"/>
<text text-anchor="middle" x="262.5" y="-4.8" font-family="Arial" font-size="11.00">vector2d&lt; U, T &gt;</text>
</a>
</g>
</g>
<!-- Node1&#45;&gt;Node6 -->
<g id="edge5_Node000001_Node000006" class="edge">
<title>Node1&#45;&gt;Node6</title>
<g id="a_edge5_Node000001_Node000006"><a xlink:title=" ">
<path fill="none" stroke="#63b8ff" d="M190.08,-49.38C208.96,-39.28 230.89,-27.54 245.63,-19.65"/>
<polygon fill="#63b8ff" stroke="#63b8ff" points="188.47,-46.28 181.31,-54.08 191.78,-52.45 188.47,-46.28"/>
</a>
</g>
</g>
<!-- Node2 -->
<g id="Node000002" class="node">
<title>Node2</title>
<g id="a_Node000002"><a xlink:href="structfloppy_1_1traits_1_1formattable.html" target="_top" xlink:title=" ">
<polygon fill="white" stroke="#666666" points="213.75,-141 91.25,-141 91.25,-121.75 213.75,-121.75 213.75,-141"/>
<text text-anchor="middle" x="152.5" y="-126.55" font-family="Arial" font-size="11.00">formattable&lt; T, char &gt;</text>
</a>
</g>
</g>
<!-- Node2&#45;&gt;Node1 -->
<g id="edge1_Node000001_Node000002" class="edge">
<title>Node2&#45;&gt;Node1</title>
<g id="a_edge1_Node000001_Node000002"><a xlink:title=" ">
<path fill="none" stroke="#63b8ff" d="M152.5,-110.17C152.5,-102.24 152.5,-93.31 152.5,-86.03"/>
<polygon fill="#63b8ff" stroke="#63b8ff" points="149,-109.92 152.5,-119.92 156,-109.92 149,-109.92"/>
</a>
</g>
</g>
<!-- Node3 -->
<g id="Node000003" class="node">
<title>Node3</title>
<g id="a_Node000003"><a xlink:href="structfloppy_1_1traits_1_1detail_1_1formattable__base.html" target="_top" xlink:title="Interface, providing to_string method.">
<polygon fill="white" stroke="#666666" points="216,-196.25 89,-196.25 89,-177 216,-177 216,-196.25"/>
<text text-anchor="middle" x="152.5" y="-181.8" font-family="Arial" font-size="11.00">formattable_base&lt; C &gt;</text>
</a>
</g>
</g>
<!-- Node3&#45;&gt;Node2 -->
<g id="edge2_Node000002_Node000003" class="edge">
<title>Node3&#45;&gt;Node2</title>
<g id="a_edge2_Node000002_Node000003"><a xlink:title=" ">
<path fill="none" stroke="#63b8ff" d="M152.5,-165.38C152.5,-157.09 152.5,-147.92 152.5,-141.36"/>
<polygon fill="#63b8ff" stroke="#63b8ff" points="149,-165.32 152.5,-175.32 156,-165.32 149,-165.32"/>
</a>
</g>
</g>
</g>
</svg>
