<?xml version="1.0" encoding="UTF-8" standalone="no"?>
<!DOCTYPE svg PUBLIC "-//W3C//DTD SVG 1.1//EN"
 "http://www.w3.org/Graphics/SVG/1.1/DTD/svg11.dtd">
<!-- Generated by graphviz version 10.0.1 (0)
 -->
<!-- Title: demangler Pages: 1 -->
<svg width="183pt" height="173pt"
 viewBox="0.00 0.00 183.25 172.50" xmlns="http://www.w3.org/2000/svg" xmlns:xlink="http://www.w3.org/1999/xlink">
<g id="graph0" class="graph" transform="scale(1 1) rotate(0) translate(4 168.5)">
<title>demangler</title>
<!-- Node1 -->
<g id="Node000001" class="node">
<title>Node1</title>
<g id="a_Node000001"><a xlink:title=" ">
<polygon fill="#999999" stroke="#666666" points="101.5,-19.25 34.5,-19.25 34.5,0 101.5,0 101.5,-19.25"/>
<text text-anchor="middle" x="68" y="-4.8" font-family="Helvetica,sans-Serif" font-size="11.00">demangler</text>
</a>
</g>
</g>
<!-- Node2 -->
<g id="Node000002" class="node">
<title>Node2</title>
<g id="a_Node000002"><a xlink:href="structfloppy_1_1stacktrace_1_1details_1_1demangler__impl.html" target="_top" xlink:title=" ">
<polygon fill="white" stroke="#bfbfbf" points="136,-86.75 0,-86.75 0,-56.25 136,-56.25 136,-86.75"/>
<text text-anchor="start" x="8" y="-72.3" font-family="Helvetica,sans-Serif" font-size="11.00">demangler_impl&lt; system</text>
<text text-anchor="middle" x="68" y="-61.05" font-family="Helvetica,sans-Serif" font-size="11.00">_tag::current_tag &gt;</text>
</a>
</g>
</g>
<!-- Node2&#45;&gt;Node1 -->
<g id="edge1_Node000001_Node000002" class="edge">
<title>Node2&#45;&gt;Node1</title>
<g id="a_edge1_Node000001_Node000002"><a xlink:title=" ">
<path fill="none" stroke="#63b8ff" d="M68,-44.77C68,-35.79 68,-26.29 68,-19.6"/>
<polygon fill="#63b8ff" stroke="#63b8ff" points="64.5,-44.49 68,-54.49 71.5,-44.49 64.5,-44.49"/>
</a>
</g>
</g>
<!-- Node3 -->
<g id="Node000003" class="node">
<title>Node3</title>
<g id="a_Node000003"><a xlink:href="structfloppy_1_1stacktrace_1_1details_1_1demangler__impl.html" target="_top" xlink:title=" ">
<polygon fill="white" stroke="#bfbfbf" points="134.5,-164.5 1.5,-164.5 1.5,-145.25 134.5,-145.25 134.5,-164.5"/>
<text text-anchor="middle" x="68" y="-150.05" font-family="Helvetica,sans-Serif" font-size="11.00">demangler_impl&lt; TAG &gt;</text>
</a>
</g>
</g>
<!-- Node3&#45;&gt;Node2 -->
<g id="edge2_Node000002_Node000003" class="edge">
<title>Node3&#45;&gt;Node2</title>
<g id="a_edge2_Node000002_Node000003"><a xlink:title=" ">
<path fill="none" stroke="orange" stroke-dasharray="5,2" d="M68,-133.61C68,-119.14 68,-100.02 68,-87.04"/>
<polygon fill="orange" stroke="orange" points="64.5,-133.34 68,-143.34 71.5,-133.34 64.5,-133.34"/>
</a>
</g>
<text text-anchor="start" x="68" y="-116.8" font-family="Helvetica,sans-Serif" font-size="11.00" fill="grey"> &lt; system_tag::current</text>
<text text-anchor="middle" x="121.62" y="-105.55" font-family="Helvetica,sans-Serif" font-size="11.00" fill="grey">_tag &gt;</text>
</g>
</g>
</svg>
