<?xml version="1.0" encoding="UTF-8" standalone="no"?>
<!DOCTYPE svg PUBLIC "-//W3C//DTD SVG 1.1//EN"
 "http://www.w3.org/Graphics/SVG/1.1/DTD/svg11.dtd">
<!-- Generated by graphviz version 10.0.1 (0)
 -->
<!-- Title: formatter Pages: 1 -->
<svg width="700pt" height="441pt"
 viewBox="0.00 0.00 700.00 440.50" xmlns="http://www.w3.org/2000/svg" xmlns:xlink="http://www.w3.org/1999/xlink">
<g id="graph0" class="graph" transform="scale(1 1) rotate(0) translate(4 436.5)">
<title>formatter</title>
<!-- Node1 -->
<g id="Node000001" class="node">
<title>Node1</title>
<g id="a_Node000001"><a xlink:title="Formatter for types which can be easily converted to string.">
<polygon fill="#999999" stroke="#666666" points="59.5,-179.88 0,-179.88 0,-160.62 59.5,-160.62 59.5,-179.88"/>
<text text-anchor="middle" x="29.75" y="-165.43" font-family="Helvetica,sans-Serif" font-size="11.00">formatter</text>
</a>
</g>
</g>
<!-- Node2 -->
<g id="Node000002" class="node">
<title>Node2</title>
<g id="a_Node000002"><a xlink:href="structfloppy_1_1ostream__formatter.html" target="_top" xlink:title=" ">
<polygon fill="white" stroke="#666666" points="523.5,-226.5 412.25,-226.5 412.25,-196 523.5,-196 523.5,-226.5"/>
<text text-anchor="start" x="420.25" y="-212.05" font-family="Helvetica,sans-Serif" font-size="11.00">ostream_formatter&lt;</text>
<text text-anchor="middle" x="467.88" y="-200.8" font-family="Helvetica,sans-Serif" font-size="11.00"> char &gt;</text>
</a>
</g>
</g>
<!-- Node1&#45;&gt;Node2 -->
<g id="edge1_Node000001_Node000002" class="edge">
<title>Node1&#45;&gt;Node2</title>
<g id="a_edge1_Node000001_Node000002"><a xlink:title=" ">
<path fill="none" stroke="#63b8ff" d="M56.05,-185.92C62.81,-189.5 70.25,-192.93 77.5,-195.25 193.49,-232.43 228.96,-214.22 350.75,-216.25 370.08,-216.57 374.93,-216.91 394.25,-216.25 399.93,-216.05 405.86,-215.77 411.78,-215.44"/>
<polygon fill="#63b8ff" stroke="#63b8ff" points="57.87,-182.92 47.45,-181.05 54.43,-189.02 57.87,-182.92"/>
</a>
</g>
</g>
<!-- Node12 -->
<g id="Node000012" class="node">
<title>Node12</title>
<g id="a_Node000012"><a xlink:href="structfloppy_1_1ostream__formatter.html" target="_top" xlink:title="Formatter for types which support stream output.">
<polygon fill="white" stroke="#666666" points="332.75,-201.88 200.5,-201.88 200.5,-182.62 332.75,-182.62 332.75,-201.88"/>
<text text-anchor="middle" x="266.62" y="-187.43" font-family="Helvetica,sans-Serif" font-size="11.00">ostream_formatter&lt; C &gt;</text>
</a>
</g>
</g>
<!-- Node1&#45;&gt;Node12 -->
<g id="edge11_Node000001_Node000012" class="edge">
<title>Node1&#45;&gt;Node12</title>
<g id="a_edge11_Node000001_Node000012"><a xlink:title=" ">
<path fill="none" stroke="#63b8ff" d="M71.24,-175.56C73.36,-175.8 75.45,-176.03 77.5,-176.25 118.24,-180.6 164.05,-184.51 200.26,-187.38"/>
<polygon fill="#63b8ff" stroke="#63b8ff" points="71.76,-172.09 61.41,-174.37 70.92,-179.04 71.76,-172.09"/>
</a>
</g>
</g>
<!-- Node13 -->
<g id="Node000013" class="node">
<title>Node13</title>
<g id="a_Node000013"><a xlink:href="structfmt_1_1formatter.html" target="_top" xlink:title=" ">
<polygon fill="white" stroke="#666666" points="330.5,-164.5 202.75,-164.5 202.75,-134 330.5,-134 330.5,-164.5"/>
<text text-anchor="start" x="210.75" y="-150.05" font-family="Helvetica,sans-Serif" font-size="11.00">formatter&lt; std::basic</text>
<text text-anchor="middle" x="266.62" y="-138.8" font-family="Helvetica,sans-Serif" font-size="11.00">_string_view&lt; C &gt;, C &gt;</text>
</a>
</g>
</g>
<!-- Node1&#45;&gt;Node13 -->
<g id="edge13_Node000001_Node000013" class="edge">
<title>Node1&#45;&gt;Node13</title>
<g id="a_edge13_Node000001_Node000013"><a xlink:title=" ">
<path fill="none" stroke="orange" stroke-dasharray="5,2" d="M65.55,-156.63C69.53,-155.47 73.57,-154.47 77.5,-153.75 118.63,-146.2 165.66,-145.07 202.41,-145.84"/>
<polygon fill="orange" stroke="orange" points="64.48,-153.3 56.06,-159.73 66.65,-159.95 64.48,-153.3"/>
</a>
</g>
<text text-anchor="start" x="85" y="-166.3" font-family="Helvetica,sans-Serif" font-size="11.00" fill="grey"> &lt; std::basic_string</text>
<text text-anchor="middle" x="130" y="-155.05" font-family="Helvetica,sans-Serif" font-size="11.00" fill="grey">_view&lt; C &gt;, C &gt;</text>
</g>
<!-- Node14 -->
<g id="Node000014" class="node">
<title>Node14</title>
<g id="a_Node000014"><a xlink:href="structfmt_1_1formatter.html" target="_top" xlink:title=" ">
<polygon fill="white" stroke="#666666" points="326.38,-116.12 206.88,-116.12 206.88,-74.38 326.38,-74.38 326.38,-116.12"/>
<text text-anchor="start" x="214.88" y="-101.67" font-family="Helvetica,sans-Serif" font-size="11.00">formatter&lt; std::basic</text>
<text text-anchor="start" x="214.88" y="-90.42" font-family="Helvetica,sans-Serif" font-size="11.00">_string_view&lt; char &gt;,</text>
<text text-anchor="middle" x="266.62" y="-79.17" font-family="Helvetica,sans-Serif" font-size="11.00"> char &gt;</text>
</a>
</g>
</g>
<!-- Node1&#45;&gt;Node14 -->
<g id="edge14_Node000001_Node000014" class="edge">
<title>Node1&#45;&gt;Node14</title>
<g id="a_edge14_Node000001_Node000014"><a xlink:title=" ">
<path fill="none" stroke="orange" stroke-dasharray="5,2" d="M43.52,-150.81C51.83,-139.82 63.68,-126.89 77.5,-119.75 117.3,-99.2 167.91,-93.57 206.6,-92.8"/>
<polygon fill="orange" stroke="orange" points="40.71,-148.72 37.8,-158.9 46.43,-152.76 40.71,-148.72"/>
</a>
</g>
<text text-anchor="start" x="77.5" y="-132.3" font-family="Helvetica,sans-Serif" font-size="11.00" fill="grey"> &lt; std::basic_string</text>
<text text-anchor="middle" x="130" y="-121.05" font-family="Helvetica,sans-Serif" font-size="11.00" fill="grey">_view&lt; char &gt;, char &gt;</text>
</g>
<!-- Node3 -->
<g id="Node000003" class="node">
<title>Node3</title>
<g id="a_Node000003"><a xlink:href="structfmt_1_1formatter_3_01enum_01floppy_1_1platform_1_1compiler_01_4.html" target="_top" xlink:title="Formatter for floppy::platform::compiler.">
<polygon fill="white" stroke="#666666" points="690.12,-432.5 562.38,-432.5 562.38,-402 690.12,-402 690.12,-432.5"/>
<text text-anchor="start" x="570.38" y="-418.05" font-family="Helvetica,sans-Serif" font-size="11.00">formatter&lt; enum floppy</text>
<text text-anchor="middle" x="626.25" y="-406.8" font-family="Helvetica,sans-Serif" font-size="11.00">::platform::compiler &gt;</text>
</a>
</g>
</g>
<!-- Node2&#45;&gt;Node3 -->
<g id="edge2_Node000002_Node000003" class="edge">
<title>Node2&#45;&gt;Node3</title>
<g id="a_edge2_Node000002_Node000003"><a xlink:title=" ">
<path fill="none" stroke="#63b8ff" d="M475.72,-237.87C487.05,-276.88 513.28,-349.53 560.5,-392.25 564.43,-395.81 568.93,-398.88 573.67,-401.53"/>
<polygon fill="#63b8ff" stroke="#63b8ff" points="479.14,-237.08 473.08,-228.38 472.39,-238.95 479.14,-237.08"/>
</a>
</g>
</g>
<!-- Node4 -->
<g id="Node000004" class="node">
<title>Node4</title>
<g id="a_Node000004"><a xlink:href="structfmt_1_1formatter_3_01enum_01floppy_1_1platform_1_1endianness_01_4.html" target="_top" xlink:title="Formatter for floppy::platform::endianness.">
<polygon fill="white" stroke="#666666" points="692,-383.5 560.5,-383.5 560.5,-353 692,-353 692,-383.5"/>
<text text-anchor="start" x="568.5" y="-369.05" font-family="Helvetica,sans-Serif" font-size="11.00">formatter&lt; enum floppy</text>
<text text-anchor="middle" x="626.25" y="-357.8" font-family="Helvetica,sans-Serif" font-size="11.00">::platform::endianness &gt;</text>
</a>
</g>
</g>
<!-- Node2&#45;&gt;Node4 -->
<g id="edge3_Node000002_Node000004" class="edge">
<title>Node2&#45;&gt;Node4</title>
<g id="a_edge3_Node000002_Node000004"><a xlink:title=" ">
<path fill="none" stroke="#63b8ff" d="M480.41,-236.69C495.08,-266.38 523.05,-315.11 560.5,-344.25 564.57,-347.42 569.1,-350.2 573.82,-352.63"/>
<polygon fill="#63b8ff" stroke="#63b8ff" points="483.75,-235.56 476.27,-228.05 477.44,-238.58 483.75,-235.56"/>
</a>
</g>
</g>
<!-- Node5 -->
<g id="Node000005" class="node">
<title>Node5</title>
<g id="a_Node000005"><a xlink:href="structfmt_1_1formatter_3_01enum_01floppy_1_1platform_1_1operating__system_01_4.html" target="_top" xlink:title="Formatter for floppy::platform::operating_system.">
<polygon fill="white" stroke="#666666" points="690.12,-335.12 562.38,-335.12 562.38,-293.38 690.12,-293.38 690.12,-335.12"/>
<text text-anchor="start" x="570.38" y="-320.68" font-family="Helvetica,sans-Serif" font-size="11.00">formatter&lt; enum floppy</text>
<text text-anchor="start" x="570.38" y="-309.43" font-family="Helvetica,sans-Serif" font-size="11.00">::platform::operating</text>
<text text-anchor="middle" x="626.25" y="-298.18" font-family="Helvetica,sans-Serif" font-size="11.00">_system &gt;</text>
</a>
</g>
</g>
<!-- Node2&#45;&gt;Node5 -->
<g id="edge4_Node000002_Node000005" class="edge">
<title>Node2&#45;&gt;Node5</title>
<g id="a_edge4_Node000002_Node000005"><a xlink:title=" ">
<path fill="none" stroke="#63b8ff" d="M494.46,-234.38C512.18,-249.7 536.78,-269.6 560.5,-284.25 565.45,-287.31 570.77,-290.26 576.15,-293.03"/>
<polygon fill="#63b8ff" stroke="#63b8ff" points="496.82,-231.8 486.99,-227.84 492.2,-237.06 496.82,-231.8"/>
</a>
</g>
</g>
<!-- Node6 -->
<g id="Node000006" class="node">
<title>Node6</title>
<g id="a_Node000006"><a xlink:href="structfmt_1_1formatter_3_01floppy_1_1meta_1_1project__meta_01_4.html" target="_top" xlink:title="Formatter for floppy::meta::project_meta">
<polygon fill="white" stroke="#666666" points="685.25,-275.5 567.25,-275.5 567.25,-245 685.25,-245 685.25,-275.5"/>
<text text-anchor="start" x="575.25" y="-261.05" font-family="Helvetica,sans-Serif" font-size="11.00">formatter&lt; floppy::</text>
<text text-anchor="middle" x="626.25" y="-249.8" font-family="Helvetica,sans-Serif" font-size="11.00">meta::project_meta &gt;</text>
</a>
</g>
</g>
<!-- Node2&#45;&gt;Node6 -->
<g id="edge5_Node000002_Node000006" class="edge">
<title>Node2&#45;&gt;Node6</title>
<g id="a_edge5_Node000002_Node000006"><a xlink:title=" ">
<path fill="none" stroke="#63b8ff" d="M529.54,-230.26C544.58,-234.97 560.53,-239.97 575.01,-244.51"/>
<polygon fill="#63b8ff" stroke="#63b8ff" points="530.82,-226.99 520.23,-227.34 528.72,-233.67 530.82,-226.99"/>
</a>
</g>
</g>
<!-- Node7 -->
<g id="Node000007" class="node">
<title>Node7</title>
<g id="a_Node000007"><a xlink:href="structfmt_1_1formatter_3_01floppy_1_1meta_1_1version_01_4.html" target="_top" xlink:title="Formatter for floppy::meta::version">
<polygon fill="white" stroke="#666666" points="678.12,-226.5 574.38,-226.5 574.38,-196 678.12,-196 678.12,-226.5"/>
<text text-anchor="start" x="582.38" y="-212.05" font-family="Helvetica,sans-Serif" font-size="11.00">formatter&lt; floppy::</text>
<text text-anchor="middle" x="626.25" y="-200.8" font-family="Helvetica,sans-Serif" font-size="11.00">meta::version &gt;</text>
</a>
</g>
</g>
<!-- Node2&#45;&gt;Node7 -->
<g id="edge6_Node000002_Node000007" class="edge">
<title>Node2&#45;&gt;Node7</title>
<g id="a_edge6_Node000002_Node000007"><a xlink:title=" ">
<path fill="none" stroke="#63b8ff" d="M534.9,-211.25C547.97,-211.25 561.51,-211.25 574,-211.25"/>
<polygon fill="#63b8ff" stroke="#63b8ff" points="535.08,-207.75 525.08,-211.25 535.08,-214.75 535.08,-207.75"/>
</a>
</g>
</g>
<!-- Node8 -->
<g id="Node000008" class="node">
<title>Node8</title>
<g id="a_Node000008"><a xlink:href="structfmt_1_1formatter_3_01floppy_1_1platform_01_4.html" target="_top" xlink:title="Formatter for floppy::platform.">
<polygon fill="white" stroke="#666666" points="678.12,-177.5 574.38,-177.5 574.38,-147 678.12,-147 678.12,-177.5"/>
<text text-anchor="start" x="582.38" y="-163.05" font-family="Helvetica,sans-Serif" font-size="11.00">formatter&lt; floppy::</text>
<text text-anchor="middle" x="626.25" y="-151.8" font-family="Helvetica,sans-Serif" font-size="11.00">platform &gt;</text>
</a>
</g>
</g>
<!-- Node2&#45;&gt;Node8 -->
<g id="edge7_Node000002_Node000008" class="edge">
<title>Node2&#45;&gt;Node8</title>
<g id="a_edge7_Node000002_Node000008"><a xlink:title=" ">
<path fill="none" stroke="#63b8ff" d="M529.54,-192.24C544.58,-187.53 560.53,-182.53 575.01,-177.99"/>
<polygon fill="#63b8ff" stroke="#63b8ff" points="528.72,-188.83 520.23,-195.16 530.82,-195.51 528.72,-188.83"/>
</a>
</g>
</g>
<!-- Node9 -->
<g id="Node000009" class="node">
<title>Node9</title>
<g id="a_Node000009"><a xlink:href="structfmt_1_1formatter_3_01floppy_1_1platform_1_1arch_01_4.html" target="_top" xlink:title="Formatter for floppy::platform::arch.">
<polygon fill="white" stroke="#666666" points="678.12,-128.5 574.38,-128.5 574.38,-98 678.12,-98 678.12,-128.5"/>
<text text-anchor="start" x="582.38" y="-114.05" font-family="Helvetica,sans-Serif" font-size="11.00">formatter&lt; floppy::</text>
<text text-anchor="middle" x="626.25" y="-102.8" font-family="Helvetica,sans-Serif" font-size="11.00">platform::arch &gt;</text>
</a>
</g>
</g>
<!-- Node2&#45;&gt;Node9 -->
<g id="edge8_Node000002_Node000009" class="edge">
<title>Node2&#45;&gt;Node9</title>
<g id="a_edge8_Node000002_Node000009"><a xlink:title=" ">
<path fill="none" stroke="#63b8ff" d="M493.83,-187.9C511.45,-172.32 536.16,-152.21 560.5,-138.25 566.46,-134.83 572.97,-131.7 579.5,-128.89"/>
<polygon fill="#63b8ff" stroke="#63b8ff" points="491.52,-185.27 486.43,-194.57 496.2,-190.48 491.52,-185.27"/>
</a>
</g>
</g>
<!-- Node10 -->
<g id="Node000010" class="node">
<title>Node10</title>
<g id="a_Node000010"><a xlink:href="structfmt_1_1formatter_3_01floppy_1_1platform_1_1vendor_01_4.html" target="_top" xlink:title="Formatter for floppy::platform::vendor.">
<polygon fill="white" stroke="#666666" points="678.12,-79.5 574.38,-79.5 574.38,-49 678.12,-49 678.12,-79.5"/>
<text text-anchor="start" x="582.38" y="-65.05" font-family="Helvetica,sans-Serif" font-size="11.00">formatter&lt; floppy::</text>
<text text-anchor="middle" x="626.25" y="-53.8" font-family="Helvetica,sans-Serif" font-size="11.00">platform::vendor &gt;</text>
</a>
</g>
</g>
<!-- Node2&#45;&gt;Node10 -->
<g id="edge9_Node000002_Node000010" class="edge">
<title>Node2&#45;&gt;Node10</title>
<g id="a_edge9_Node000002_Node000010"><a xlink:title=" ">
<path fill="none" stroke="#63b8ff" d="M482.39,-185.56C497.93,-158.26 525.81,-115.49 560.5,-89.25 565.21,-85.69 570.49,-82.57 575.95,-79.87"/>
<polygon fill="#63b8ff" stroke="#63b8ff" points="479.38,-183.77 477.6,-194.22 485.5,-187.16 479.38,-183.77"/>
</a>
</g>
</g>
<!-- Node11 -->
<g id="Node000011" class="node">
<title>Node11</title>
<g id="a_Node000011"><a xlink:href="structfmt_1_1formatter_3_01floppy_1_1source__location_01_4.html" target="_top" xlink:title="Formatter for floppy::source_location">
<polygon fill="white" stroke="#666666" points="678.12,-30.5 574.38,-30.5 574.38,0 678.12,0 678.12,-30.5"/>
<text text-anchor="start" x="582.38" y="-16.05" font-family="Helvetica,sans-Serif" font-size="11.00">formatter&lt; floppy::</text>
<text text-anchor="middle" x="626.25" y="-4.8" font-family="Helvetica,sans-Serif" font-size="11.00">source_location &gt;</text>
</a>
</g>
</g>
<!-- Node2&#45;&gt;Node11 -->
<g id="edge10_Node000002_Node000011" class="edge">
<title>Node2&#45;&gt;Node11</title>
<g id="a_edge10_Node000002_Node000011"><a xlink:title=" ">
<path fill="none" stroke="#63b8ff" d="M476.56,-184.77C488.63,-147.61 515.41,-80.1 560.5,-40.25 564.56,-36.66 569.2,-33.56 574.08,-30.89"/>
<polygon fill="#63b8ff" stroke="#63b8ff" points="473.24,-183.66 473.61,-194.25 479.93,-185.74 473.24,-183.66"/>
</a>
</g>
</g>
<!-- Node12&#45;&gt;Node2 -->
<g id="edge12_Node000012_Node000002" class="edge">
<title>Node12&#45;&gt;Node2</title>
<g id="a_edge12_Node000012_Node000002"><a xlink:title=" ">
<path fill="none" stroke="orange" stroke-dasharray="5,2" d="M344.4,-199.57C366.93,-201.72 391.11,-204.02 411.98,-206.02"/>
<polygon fill="orange" stroke="orange" points="344.94,-196.11 334.65,-198.64 344.27,-203.07 344.94,-196.11"/>
</a>
</g>
<text text-anchor="middle" x="372.5" y="-205.05" font-family="Helvetica,sans-Serif" font-size="11.00" fill="grey"> &lt; char &gt;</text>
</g>
</g>
</svg>
