<?xml version="1.0" encoding="UTF-8" standalone="no"?>
<!DOCTYPE svg PUBLIC "-//W3C//DTD SVG 1.1//EN"
 "http://www.w3.org/Graphics/SVG/1.1/DTD/svg11.dtd">
<!-- Generated by graphviz version 10.0.1 (0)
 -->
<!-- Title: ostream_formatter&lt; C &gt; Pages: 1 -->
<svg width="651pt" height="137pt"
 viewBox="0.00 0.00 650.75 136.50" xmlns="http://www.w3.org/2000/svg" xmlns:xlink="http://www.w3.org/1999/xlink">
<g id="graph0" class="graph" transform="scale(1 1) rotate(0) translate(4 132.5)">
<title>ostream_formatter&lt; C &gt;</title>
<!-- Node1 -->
<g id="Node000001" class="node">
<title>Node1</title>
<g id="a_Node000001"><a xlink:title="Formatter for types which support stream output.">
<polygon fill="#999999" stroke="#666666" points="297,-73.88 164.75,-73.88 164.75,-54.62 297,-54.62 297,-73.88"/>
<text text-anchor="middle" x="230.88" y="-59.42" font-family="Helvetica,sans-Serif" font-size="11.00">ostream_formatter&lt; C &gt;</text>
</a>
</g>
</g>
<!-- Node3 -->
<g id="Node000003" class="node">
<title>Node3</title>
<g id="a_Node000003"><a xlink:href="structfloppy_1_1ostream__formatter.html" target="_top" xlink:title=" ">
<polygon fill="white" stroke="#666666" points="487.75,-79.5 376.5,-79.5 376.5,-49 487.75,-49 487.75,-79.5"/>
<text text-anchor="start" x="384.5" y="-65.05" font-family="Helvetica,sans-Serif" font-size="11.00">ostream_formatter&lt;</text>
<text text-anchor="middle" x="432.12" y="-53.8" font-family="Helvetica,sans-Serif" font-size="11.00"> char &gt;</text>
</a>
</g>
</g>
<!-- Node1&#45;&gt;Node3 -->
<g id="edge2_Node000001_Node000003" class="edge">
<title>Node1&#45;&gt;Node3</title>
<g id="a_edge2_Node000001_Node000003"><a xlink:title=" ">
<path fill="none" stroke="orange" stroke-dasharray="5,2" d="M308.65,-64.25C331.18,-64.25 355.36,-64.25 376.23,-64.25"/>
<polygon fill="orange" stroke="orange" points="308.91,-60.75 298.91,-64.25 308.91,-67.75 308.91,-60.75"/>
</a>
</g>
<text text-anchor="middle" x="336.75" y="-65.05" font-family="Helvetica,sans-Serif" font-size="11.00" fill="grey"> &lt; char &gt;</text>
</g>
<!-- Node2 -->
<g id="Node000002" class="node">
<title>Node2</title>
<g id="a_Node000002"><a xlink:title=" ">
<polygon fill="white" stroke="#bfbfbf" points="127.75,-79.5 0,-79.5 0,-49 127.75,-49 127.75,-79.5"/>
<text text-anchor="start" x="8" y="-65.05" font-family="Helvetica,sans-Serif" font-size="11.00">formatter&lt; std::basic</text>
<text text-anchor="middle" x="63.88" y="-53.8" font-family="Helvetica,sans-Serif" font-size="11.00">_string_view&lt; C &gt;, C &gt;</text>
</a>
</g>
</g>
<!-- Node2&#45;&gt;Node1 -->
<g id="edge1_Node000001_Node000002" class="edge">
<title>Node2&#45;&gt;Node1</title>
<g id="a_edge1_Node000001_Node000002"><a xlink:title=" ">
<path fill="none" stroke="#63b8ff" d="M139.69,-64.25C147.89,-64.25 156.19,-64.25 164.26,-64.25"/>
<polygon fill="#63b8ff" stroke="#63b8ff" points="139.71,-60.75 129.71,-64.25 139.71,-67.75 139.71,-60.75"/>
</a>
</g>
</g>
<!-- Node4 -->
<g id="Node000004" class="node">
<title>Node4</title>
<g id="a_Node000004"><a xlink:href="structfmt_1_1formatter_3_01floppy_1_1meta_1_1project__meta_01_4.html" target="_top" xlink:title="Formatter for floppy::meta::project_meta">
<polygon fill="white" stroke="#666666" points="642.75,-128.5 524.75,-128.5 524.75,-98 642.75,-98 642.75,-128.5"/>
<text text-anchor="start" x="532.75" y="-114.05" font-family="Helvetica,sans-Serif" font-size="11.00">formatter&lt; floppy::</text>
<text text-anchor="middle" x="583.75" y="-102.8" font-family="Helvetica,sans-Serif" font-size="11.00">meta::project_meta &gt;</text>
</a>
</g>
</g>
<!-- Node3&#45;&gt;Node4 -->
<g id="edge3_Node000003_Node000004" class="edge">
<title>Node3&#45;&gt;Node4</title>
<g id="a_edge3_Node000003_Node000004"><a xlink:title=" ">
<path fill="none" stroke="#63b8ff" d="M491.59,-83.4C505.86,-88.07 520.96,-93.01 534.68,-97.51"/>
<polygon fill="#63b8ff" stroke="#63b8ff" points="492.91,-80.15 482.32,-80.36 490.73,-86.8 492.91,-80.15"/>
</a>
</g>
</g>
<!-- Node5 -->
<g id="Node000005" class="node">
<title>Node5</title>
<g id="a_Node000005"><a xlink:href="structfmt_1_1formatter_3_01floppy_1_1meta_1_1version_01_4.html" target="_top" xlink:title="Formatter for floppy::meta::version">
<polygon fill="white" stroke="#666666" points="635.62,-79.5 531.88,-79.5 531.88,-49 635.62,-49 635.62,-79.5"/>
<text text-anchor="start" x="539.88" y="-65.05" font-family="Helvetica,sans-Serif" font-size="11.00">formatter&lt; floppy::</text>
<text text-anchor="middle" x="583.75" y="-53.8" font-family="Helvetica,sans-Serif" font-size="11.00">meta::version &gt;</text>
</a>
</g>
</g>
<!-- Node3&#45;&gt;Node5 -->
<g id="edge4_Node000003_Node000005" class="edge">
<title>Node3&#45;&gt;Node5</title>
<g id="a_edge4_Node000003_Node000005"><a xlink:title=" ">
<path fill="none" stroke="#63b8ff" d="M499.26,-64.25C510.19,-64.25 521.38,-64.25 531.87,-64.25"/>
<polygon fill="#63b8ff" stroke="#63b8ff" points="499.5,-60.75 489.5,-64.25 499.5,-67.75 499.5,-60.75"/>
</a>
</g>
</g>
<!-- Node6 -->
<g id="Node000006" class="node">
<title>Node6</title>
<g id="a_Node000006"><a xlink:href="structfmt_1_1formatter_3_01floppy_1_1source__location_01_4.html" target="_top" xlink:title="Formatter for floppy::source_location">
<polygon fill="white" stroke="#666666" points="635.62,-30.5 531.88,-30.5 531.88,0 635.62,0 635.62,-30.5"/>
<text text-anchor="start" x="539.88" y="-16.05" font-family="Helvetica,sans-Serif" font-size="11.00">formatter&lt; floppy::</text>
<text text-anchor="middle" x="583.75" y="-4.8" font-family="Helvetica,sans-Serif" font-size="11.00">source_location &gt;</text>
</a>
</g>
</g>
<!-- Node3&#45;&gt;Node6 -->
<g id="edge5_Node000003_Node000006" class="edge">
<title>Node3&#45;&gt;Node6</title>
<g id="a_edge5_Node000003_Node000006"><a xlink:title=" ">
<path fill="none" stroke="#63b8ff" d="M491.59,-45.1C505.86,-40.43 520.96,-35.49 534.68,-30.99"/>
<polygon fill="#63b8ff" stroke="#63b8ff" points="490.73,-41.7 482.32,-48.14 492.91,-48.35 490.73,-41.7"/>
</a>
</g>
</g>
</g>
</svg>
