<?xml version="1.0" encoding="UTF-8" standalone="no"?>
<!DOCTYPE svg PUBLIC "-//W3C//DTD SVG 1.1//EN"
 "http://www.w3.org/Graphics/SVG/1.1/DTD/svg11.dtd">
<!-- Generated by graphviz version 10.0.1 (0)
 -->
<!-- Title: basic_two_dimensional_type&lt; T, U, N &gt; Pages: 1 -->
<svg width="271pt" height="239pt"
 viewBox="0.00 0.00 271.00 239.00" xmlns="http://www.w3.org/2000/svg" xmlns:xlink="http://www.w3.org/1999/xlink">

<svg id="main" version="1.1" xmlns="http://www.w3.org/2000/svg" xmlns:xlink="http://www.w3.org/1999/xlink" xml:space="preserve" onload="init(evt)">
<style type="text/css"><![CDATA[
.node, .edge {opacity: 0.7;}
.node.selected, .edge.selected {opacity: 1;}
.edge:hover path { stroke: red; }
.edge:hover polygon { stroke: red; fill: red; }
]]></style>
<script type="application/ecmascript" xlink:href="svg.min.js"/>
<svg id="graph" class="graph">
<g id="graph0" class="graph" transform="scale(1 1) rotate(0) translate(4 235)">
<title>basic_two_dimensional_type&lt; T, U, N &gt;</title>
<!-- Node1 -->
<g id="Node000001" class="node">
<title>Node1</title>
<g id="a_Node000001"><a xlink:title="CRTP base class for two dimensional numerical types.">
<polygon fill="#999999" stroke="#666666" points="189.62,-30.5 63.38,-30.5 63.38,0 189.62,0 189.62,-30.5"/>
<text text-anchor="start" x="71.38" y="-16.05" font-family="Helvetica,sans-Serif" font-size="11.00">basic_two_dimensional</text>
<text text-anchor="middle" x="126.5" y="-4.8" font-family="Helvetica,sans-Serif" font-size="11.00">_type&lt; T, U, N &gt;</text>
</a>
</g>
</g>
<!-- Node2 -->
<g id="Node000002" class="node">
<title>Node2</title>
<g id="a_Node000002"><a xlink:href="structfloppy_1_1traits_1_1formattable.html" target="_top" xlink:title=" ">
<polygon fill="white" stroke="#666666" points="140.75,-108.25 18.25,-108.25 18.25,-89 140.75,-89 140.75,-108.25"/>
<text text-anchor="middle" x="79.5" y="-93.8" font-family="Helvetica,sans-Serif" font-size="11.00">formattable&lt; T, char &gt;</text>
</a>
</g>
</g>
<!-- Node2&#45;&gt;Node1 -->
<g id="edge1_Node000001_Node000002" class="edge">
<title>Node2&#45;&gt;Node1</title>
<g id="a_edge1_Node000001_Node000002"><a xlink:title=" ">
<path fill="none" stroke="#63b8ff" d="M90.45,-78.66C98.89,-64.05 110.38,-44.16 118.1,-30.79"/>
<polygon fill="#63b8ff" stroke="#63b8ff" points="87.44,-76.88 85.47,-87.29 93.5,-80.39 87.44,-76.88"/>
</a>
</g>
</g>
<!-- Node3 -->
<g id="Node000003" class="node">
<title>Node3</title>
<g id="a_Node000003"><a xlink:href="structfloppy_1_1traits_1_1detail_1_1formattable__base.html" target="_top" xlink:title="Interface, providing to_string method.">
<polygon fill="white" stroke="#666666" points="127,-174.75 0,-174.75 0,-155.5 127,-155.5 127,-174.75"/>
<text text-anchor="middle" x="63.5" y="-160.3" font-family="Helvetica,sans-Serif" font-size="11.00">formattable_base&lt; C &gt;</text>
</a>
</g>
</g>
<!-- Node3&#45;&gt;Node2 -->
<g id="edge2_Node000002_Node000003" class="edge">
<title>Node3&#45;&gt;Node2</title>
<g id="a_edge2_Node000002_Node000003"><a xlink:title=" ">
<path fill="none" stroke="#63b8ff" d="M68.49,-144.02C71.44,-132.12 75.03,-117.63 77.29,-108.52"/>
<polygon fill="#63b8ff" stroke="#63b8ff" points="65.1,-143.14 66.09,-153.69 71.89,-144.82 65.1,-143.14"/>
</a>
</g>
</g>
<!-- Node4 -->
<g id="Node000004" class="node">
<title>Node4</title>
<g id="a_Node000004"><a xlink:href="structfloppy_1_1traits_1_1formattable.html" target="_top" xlink:title="Allows type to be converted to string and printed via standard streams or fmt.">
<polygon fill="white" stroke="#666666" points="254.38,-174.75 144.62,-174.75 144.62,-155.5 254.38,-155.5 254.38,-174.75"/>
<text text-anchor="middle" x="199.5" y="-160.3" font-family="Helvetica,sans-Serif" font-size="11.00">formattable&lt; T, C &gt;</text>
</a>
</g>
</g>
<!-- Node4&#45;&gt;Node2 -->
<g id="edge3_Node000002_Node000004" class="edge">
<title>Node4&#45;&gt;Node2</title>
<g id="a_edge3_Node000002_Node000004"><a xlink:title=" ">
<path fill="none" stroke="orange" stroke-dasharray="5,2" d="M172.6,-149.67C149.24,-137.11 116.15,-119.32 96.35,-108.68"/>
<polygon fill="orange" stroke="orange" points="170.76,-152.65 181.23,-154.3 174.08,-146.49 170.76,-152.65"/>
</a>
</g>
<text text-anchor="middle" x="174.25" y="-127.05" font-family="Helvetica,sans-Serif" font-size="11.00" fill="grey"> &lt; T, char &gt;</text>
</g>
<!-- Node5 -->
<g id="Node000005" class="node">
<title>Node5</title>
<g id="a_Node000005"><a xlink:href="structfloppy_1_1traits_1_1detail_1_1formattable__base.html" target="_top" xlink:title="Interface, providing to_string method.">
<polygon fill="white" stroke="#666666" points="263,-231 136,-231 136,-211.75 263,-211.75 263,-231"/>
<text text-anchor="middle" x="199.5" y="-216.55" font-family="Helvetica,sans-Serif" font-size="11.00">formattable_base&lt; C &gt;</text>
</a>
</g>
</g>
<!-- Node5&#45;&gt;Node4 -->
<g id="edge4_Node000004_Node000005" class="edge">
<title>Node5&#45;&gt;Node4</title>
<g id="a_edge4_Node000004_Node000005"><a xlink:title=" ">
<path fill="none" stroke="#63b8ff" d="M199.5,-200.19C199.5,-191.48 199.5,-181.74 199.5,-174.92"/>
<polygon fill="#63b8ff" stroke="#63b8ff" points="196,-199.9 199.5,-209.9 203,-199.9 196,-199.9"/>
</a>
</g>
</g>
<!-- Node6 -->
<g id="Node000006" class="node">
<title>Node6</title>
<g id="a_Node000006"><a xlink:title=" ">
<polygon fill="white" stroke="#bfbfbf" points="187.9,-108.25 159.1,-108.25 159.1,-89 187.9,-89 187.9,-108.25"/>
<text text-anchor="middle" x="173.5" y="-93.8" font-family="Helvetica,sans-Serif" font-size="11.00">N</text>
</a>
</g>
</g>
<!-- Node6&#45;&gt;Node1 -->
<g id="edge5_Node000001_Node000006" class="edge">
<title>Node6&#45;&gt;Node1</title>
<g id="a_edge5_Node000001_Node000006"><a xlink:title=" ">
<path fill="none" stroke="#9a32cd" stroke-dasharray="5,2" d="M162.55,-78.66C154.11,-64.05 142.62,-44.16 134.9,-30.79"/>
<polygon fill="#9a32cd" stroke="#9a32cd" points="159.5,-80.39 167.53,-87.29 165.56,-76.88 159.5,-80.39"/>
</a>
</g>
<text text-anchor="middle" x="163.62" y="-60.55" font-family="Helvetica,sans-Serif" font-size="11.00" fill="grey"> x_</text>
<text text-anchor="middle" x="163.62" y="-49.3" font-family="Helvetica,sans-Serif" font-size="11.00" fill="grey">y_</text>
</g>
</g>
</svg>
</svg>

<style type='text/css'>
<![CDATA[
[data-mouse-over-selected='false'] { opacity: 0.7; }
[data-mouse-over-selected='true']  { opacity: 1.0; }
]]>
</style>
<script type="application/ecmascript"><![CDATA[
document.addEventListener('DOMContentLoaded', (event) => {
  highlightEdges();
  highlightAdjacentNodes();
});
]]></script>
</svg>
