<?xml version="1.0" encoding="UTF-8" standalone="no"?>
<!DOCTYPE svg PUBLIC "-//W3C//DTD SVG 1.1//EN"
 "http://www.w3.org/Graphics/SVG/1.1/DTD/svg11.dtd">
<!-- Generated by graphviz version 10.0.1 (0)
 -->
<!-- Title: formatter&lt; floppy::source_location &gt; Pages: 1 -->
<svg width="128pt" height="183pt"
 viewBox="0.00 0.00 127.50 182.75" xmlns="http://www.w3.org/2000/svg" xmlns:xlink="http://www.w3.org/1999/xlink">
<g id="graph0" class="graph" transform="scale(1 1) rotate(0) translate(4 178.75)">
<title>formatter&lt; floppy::source_location &gt;</title>
<!-- Node1 -->
<g id="Node000001" class="node">
<title>Node1</title>
<g id="a_Node000001"><a xlink:title=" ">
<polygon fill="#999999" stroke="#666666" points="111.62,-30.5 7.88,-30.5 7.88,0 111.62,0 111.62,-30.5"/>
<text text-anchor="start" x="15.88" y="-16.05" font-family="Arial" font-size="11.00">formatter&lt; floppy::</text>
<text text-anchor="middle" x="59.75" y="-4.8" font-family="Arial" font-size="11.00">source_location &gt;</text>
</a>
</g>
</g>
<!-- Node2 -->
<g id="Node000002" class="node">
<title>Node2</title>
<g id="a_Node000002"><a xlink:href="structfloppy_1_1ostream__formatter.html" target="_top" xlink:title=" ">
<polygon fill="white" stroke="#666666" points="115.38,-97 4.12,-97 4.12,-66.5 115.38,-66.5 115.38,-97"/>
<text text-anchor="start" x="12.12" y="-82.55" font-family="Arial" font-size="11.00">ostream_formatter&lt;</text>
<text text-anchor="middle" x="59.75" y="-71.3" font-family="Arial" font-size="11.00"> char &gt;</text>
</a>
</g>
</g>
<!-- Node2&#45;&gt;Node1 -->
<g id="edge1_Node000001_Node000002" class="edge">
<title>Node2&#45;&gt;Node1</title>
<g id="a_edge1_Node000001_Node000002"><a xlink:title=" ">
<path fill="none" stroke="#63b8ff" d="M59.75,-54.81C59.75,-46.64 59.75,-37.91 59.75,-30.83"/>
<polygon fill="#63b8ff" stroke="#63b8ff" points="56.25,-54.6 59.75,-64.6 63.25,-54.6 56.25,-54.6"/>
</a>
</g>
</g>
<!-- Node3 -->
<g id="Node000003" class="node">
<title>Node3</title>
<g id="a_Node000003"><a xlink:title=" ">
<polygon fill="white" stroke="#bfbfbf" points="119.5,-174.75 0,-174.75 0,-133 119.5,-133 119.5,-174.75"/>
<text text-anchor="start" x="8" y="-160.3" font-family="Arial" font-size="11.00">formatter&lt; std::basic</text>
<text text-anchor="start" x="8" y="-149.05" font-family="Arial" font-size="11.00">_string_view&lt; char &#160;&gt;</text>
<text text-anchor="middle" x="59.75" y="-137.8" font-family="Arial" font-size="11.00">, char &#160;&gt;</text>
</a>
</g>
</g>
<!-- Node3&#45;&gt;Node2 -->
<g id="edge2_Node000002_Node000003" class="edge">
<title>Node3&#45;&gt;Node2</title>
<g id="a_edge2_Node000002_Node000003"><a xlink:title=" ">
<path fill="none" stroke="#63b8ff" d="M59.75,-121.13C59.75,-112.77 59.75,-104.15 59.75,-97.2"/>
<polygon fill="#63b8ff" stroke="#63b8ff" points="56.25,-121.08 59.75,-131.08 63.25,-121.08 56.25,-121.08"/>
</a>
</g>
</g>
</g>
</svg>
