<?xml version="1.0" encoding="UTF-8" standalone="no"?>
<!DOCTYPE svg PUBLIC "-//W3C//DTD SVG 1.1//EN"
 "http://www.w3.org/Graphics/SVG/1.1/DTD/svg11.dtd">
<!-- Generated by graphviz version 10.0.1 (0)
 -->
<!-- Title: ResolvedTrace Pages: 1 -->
<svg width="346pt" height="306pt"
 viewBox="0.00 0.00 345.50 305.50" xmlns="http://www.w3.org/2000/svg" xmlns:xlink="http://www.w3.org/1999/xlink">

<svg id="main" version="1.1" xmlns="http://www.w3.org/2000/svg" xmlns:xlink="http://www.w3.org/1999/xlink" xml:space="preserve" onload="init(evt)">
<style type="text/css"><![CDATA[
.node, .edge {opacity: 0.7;}
.node.selected, .edge.selected {opacity: 1;}
.edge:hover path { stroke: red; }
.edge:hover polygon { stroke: red; fill: red; }
]]></style>
<script type="application/ecmascript" xlink:href="svg.min.js"/>
<svg id="graph" class="graph">
<g id="graph0" class="graph" transform="scale(1 1) rotate(0) translate(4 301.5)">
<title>ResolvedTrace</title>
<!-- Node1 -->
<g id="Node000001" class="node">
<title>Node1</title>
<g id="a_Node000001"><a xlink:title=" ">
<polygon fill="#999999" stroke="#666666" points="231.12,-19.25 143.88,-19.25 143.88,0 231.12,0 231.12,-19.25"/>
<text text-anchor="middle" x="187.5" y="-4.8" font-family="Helvetica,sans-Serif" font-size="11.00">ResolvedTrace</text>
</a>
</g>
</g>
<!-- Node2 -->
<g id="Node000002" class="node">
<title>Node2</title>
<g id="a_Node000002"><a xlink:href="structbackward_1_1Trace.html" target="_top" xlink:title=" ">
<polygon fill="white" stroke="#bfbfbf" points="43,-85.75 0,-85.75 0,-66.5 43,-66.5 43,-85.75"/>
<text text-anchor="middle" x="21.5" y="-71.3" font-family="Helvetica,sans-Serif" font-size="11.00">Trace</text>
</a>
</g>
</g>
<!-- Node2&#45;&gt;Node1 -->
<g id="edge1_Node000001_Node000002" class="edge">
<title>Node2&#45;&gt;Node1</title>
<g id="a_edge1_Node000001_Node000002"><a xlink:title=" ">
<path fill="none" stroke="#63b8ff" d="M53.92,-62.53C86.34,-49.93 135.42,-30.86 164.19,-19.68"/>
<polygon fill="#63b8ff" stroke="#63b8ff" points="52.67,-59.26 44.61,-66.14 55.2,-65.79 52.67,-59.26"/>
</a>
</g>
</g>
<!-- Node3 -->
<g id="Node000003" class="node">
<title>Node3</title>
<g id="a_Node000003"><a xlink:title=" ">
<polygon fill="white" stroke="#666666" points="282.62,-241.25 240.38,-241.25 240.38,-222 282.62,-222 282.62,-241.25"/>
<text text-anchor="middle" x="261.5" y="-226.8" font-family="Helvetica,sans-Serif" font-size="11.00">string</text>
</a>
</g>
</g>
<!-- Node3&#45;&gt;Node1 -->
<g id="edge2_Node000001_Node000003" class="edge">
<title>Node3&#45;&gt;Node1</title>
<g id="a_edge2_Node000001_Node000003"><a xlink:title=" ">
<path fill="none" stroke="#9a32cd" stroke-dasharray="5,2" d="M263.32,-210.44C265.34,-178.15 265.59,-113.69 241.5,-66.5 231.44,-46.8 212.11,-29.41 199.51,-19.45"/>
<polygon fill="#9a32cd" stroke="#9a32cd" points="259.84,-210.08 262.57,-220.32 266.82,-210.62 259.84,-210.08"/>
</a>
</g>
<text text-anchor="middle" x="298.5" y="-115.8" font-family="Helvetica,sans-Serif" font-size="11.00" fill="grey"> object_filename</text>
<text text-anchor="middle" x="298.5" y="-104.55" font-family="Helvetica,sans-Serif" font-size="11.00" fill="grey">object_function</text>
</g>
<!-- Node5 -->
<g id="Node000005" class="node">
<title>Node5</title>
<g id="a_Node000005"><a xlink:href="structbackward_1_1ResolvedTrace_1_1SourceLoc.html" target="_top" xlink:title=" ">
<polygon fill="white" stroke="#bfbfbf" points="229.38,-163.5 161.62,-163.5 161.62,-144.25 229.38,-144.25 229.38,-163.5"/>
<text text-anchor="middle" x="195.5" y="-149.05" font-family="Helvetica,sans-Serif" font-size="11.00">SourceLoc</text>
</a>
</g>
</g>
<!-- Node3&#45;&gt;Node5 -->
<g id="edge5_Node000005_Node000003" class="edge">
<title>Node3&#45;&gt;Node5</title>
<g id="a_edge5_Node000005_Node000003"><a xlink:title=" ">
<path fill="none" stroke="#9a32cd" stroke-dasharray="5,2" d="M232.84,-215.82C227.82,-212.4 222.96,-208.43 219,-204 208.3,-192.01 201.45,-174.28 198.05,-163.72"/>
<polygon fill="#9a32cd" stroke="#9a32cd" points="230.81,-218.68 241.16,-220.94 234.48,-212.72 230.81,-218.68"/>
</a>
</g>
<text text-anchor="middle" x="240.25" y="-193.55" font-family="Helvetica,sans-Serif" font-size="11.00" fill="grey"> filename</text>
<text text-anchor="middle" x="240.25" y="-182.3" font-family="Helvetica,sans-Serif" font-size="11.00" fill="grey">function</text>
</g>
<!-- Node4 -->
<g id="Node000004" class="node">
<title>Node4</title>
<g id="a_Node000004"><a xlink:title=" ">
<polygon fill="white" stroke="#666666" points="319.75,-297.5 203.25,-297.5 203.25,-278.25 319.75,-278.25 319.75,-297.5"/>
<text text-anchor="middle" x="261.5" y="-283.05" font-family="Helvetica,sans-Serif" font-size="11.00">basic_string&lt; Char &gt;</text>
</a>
</g>
</g>
<!-- Node4&#45;&gt;Node3 -->
<g id="edge3_Node000003_Node000004" class="edge">
<title>Node4&#45;&gt;Node3</title>
<g id="a_edge3_Node000003_Node000004"><a xlink:title=" ">
<path fill="none" stroke="#63b8ff" d="M261.5,-266.69C261.5,-257.98 261.5,-248.24 261.5,-241.42"/>
<polygon fill="#63b8ff" stroke="#63b8ff" points="258,-266.4 261.5,-276.4 265,-266.4 258,-266.4"/>
</a>
</g>
</g>
<!-- Node5&#45;&gt;Node1 -->
<g id="edge4_Node000001_Node000005" class="edge">
<title>Node5&#45;&gt;Node1</title>
<g id="a_edge4_Node000001_Node000005"><a xlink:title=" ">
<path fill="none" stroke="#9a32cd" stroke-dasharray="5,2" d="M199.11,-132.94C202.66,-109.68 206.59,-70.22 199.5,-37.25 198.18,-31.1 195.32,-24.66 192.73,-19.66"/>
<polygon fill="#9a32cd" stroke="#9a32cd" points="195.7,-132.11 197.51,-142.55 202.61,-133.26 195.7,-132.11"/>
</a>
</g>
<text text-anchor="middle" x="220.12" y="-71.3" font-family="Helvetica,sans-Serif" font-size="11.00" fill="grey"> source</text>
</g>
<!-- Node7 -->
<g id="Node000007" class="node">
<title>Node7</title>
<g id="a_Node000007"><a xlink:title=" ">
<polygon fill="white" stroke="#666666" points="177.75,-85.75 61.25,-85.75 61.25,-66.5 177.75,-66.5 177.75,-85.75"/>
<text text-anchor="middle" x="119.5" y="-71.3" font-family="Helvetica,sans-Serif" font-size="11.00">vector&lt; SourceLoc &gt;</text>
</a>
</g>
</g>
<!-- Node5&#45;&gt;Node7 -->
<g id="edge8_Node000007_Node000005" class="edge">
<title>Node5&#45;&gt;Node7</title>
<g id="a_edge8_Node000007_Node000005"><a xlink:title=" ">
<path fill="none" stroke="#9a32cd" stroke-dasharray="5,2" d="M168.31,-138.19C162.93,-134.66 157.55,-130.63 153,-126.25 140.35,-114.08 129.73,-96.41 124.02,-85.91"/>
<polygon fill="#9a32cd" stroke="#9a32cd" points="166.15,-140.97 176.51,-143.19 169.79,-135 166.15,-140.97"/>
</a>
</g>
<text text-anchor="middle" x="176.75" y="-110.17" font-family="Helvetica,sans-Serif" font-size="11.00" fill="grey"> elements</text>
</g>
<!-- Node6 -->
<g id="Node000006" class="node">
<title>Node6</title>
<g id="a_Node000006"><a xlink:title=" ">
<polygon fill="white" stroke="#bfbfbf" points="207.25,-241.25 147.75,-241.25 147.75,-222 207.25,-222 207.25,-241.25"/>
<text text-anchor="middle" x="177.5" y="-226.8" font-family="Helvetica,sans-Serif" font-size="11.00">unsigned</text>
</a>
</g>
</g>
<!-- Node6&#45;&gt;Node5 -->
<g id="edge6_Node000005_Node000006" class="edge">
<title>Node6&#45;&gt;Node5</title>
<g id="a_edge6_Node000005_Node000006"><a xlink:title=" ">
<path fill="none" stroke="#9a32cd" stroke-dasharray="5,2" d="M175.78,-210.37C175.6,-201.35 176.22,-190.72 179,-181.5 180.95,-175.04 184.88,-168.6 188.42,-163.66"/>
<polygon fill="#9a32cd" stroke="#9a32cd" points="172.27,-210.41 176.33,-220.2 179.26,-210.02 172.27,-210.41"/>
</a>
</g>
<text text-anchor="middle" x="187.75" y="-193.55" font-family="Helvetica,sans-Serif" font-size="11.00" fill="grey"> col</text>
<text text-anchor="middle" x="187.75" y="-182.3" font-family="Helvetica,sans-Serif" font-size="11.00" fill="grey">line</text>
</g>
<!-- Node7&#45;&gt;Node1 -->
<g id="edge7_Node000001_Node000007" class="edge">
<title>Node7&#45;&gt;Node1</title>
<g id="a_edge7_Node000001_Node000007"><a xlink:title=" ">
<path fill="none" stroke="#9a32cd" stroke-dasharray="5,2" d="M137.21,-58.33C150.3,-45.91 167.6,-29.5 178.13,-19.52"/>
<polygon fill="#9a32cd" stroke="#9a32cd" points="134.9,-55.69 130.05,-65.11 139.72,-60.77 134.9,-55.69"/>
</a>
</g>
<text text-anchor="middle" x="176.88" y="-38.05" font-family="Helvetica,sans-Serif" font-size="11.00" fill="grey"> inliners</text>
</g>
<!-- Node8 -->
<g id="Node000008" class="node">
<title>Node8</title>
<g id="a_Node000008"><a xlink:title=" ">
<polygon fill="white" stroke="#666666" points="90.25,-163.5 18.75,-163.5 18.75,-144.25 90.25,-144.25 90.25,-163.5"/>
<text text-anchor="middle" x="54.5" y="-149.05" font-family="Helvetica,sans-Serif" font-size="11.00">vector&lt; T &gt;</text>
</a>
</g>
</g>
<!-- Node8&#45;&gt;Node7 -->
<g id="edge9_Node000007_Node000008" class="edge">
<title>Node8&#45;&gt;Node7</title>
<g id="a_edge9_Node000007_Node000008"><a xlink:title=" ">
<path fill="none" stroke="orange" stroke-dasharray="5,2" d="M49.99,-132.75C48.99,-123.2 49.59,-112.09 55.25,-103.75 60.68,-95.76 68.99,-90.16 77.85,-86.24"/>
<polygon fill="orange" stroke="orange" points="46.53,-133.28 51.68,-142.54 53.43,-132.09 46.53,-133.28"/>
</a>
</g>
<text text-anchor="middle" x="92.62" y="-110.17" font-family="Helvetica,sans-Serif" font-size="11.00" fill="grey"> &lt; SourceLoc &gt;</text>
</g>
<!-- Node9 -->
<g id="Node000009" class="node">
<title>Node9</title>
<g id="a_Node000009"><a xlink:title=" ">
<polygon fill="white" stroke="#bfbfbf" points="68.9,-241.25 40.1,-241.25 40.1,-222 68.9,-222 68.9,-241.25"/>
<text text-anchor="middle" x="54.5" y="-226.8" font-family="Helvetica,sans-Serif" font-size="11.00">T</text>
</a>
</g>
</g>
<!-- Node9&#45;&gt;Node8 -->
<g id="edge10_Node000008_Node000009" class="edge">
<title>Node9&#45;&gt;Node8</title>
<g id="a_edge10_Node000008_Node000009"><a xlink:title=" ">
<path fill="none" stroke="#9a32cd" stroke-dasharray="5,2" d="M54.5,-210.35C54.5,-195.2 54.5,-175.23 54.5,-163.85"/>
<polygon fill="#9a32cd" stroke="#9a32cd" points="51,-210.12 54.5,-220.12 58,-210.12 51,-210.12"/>
</a>
</g>
<text text-anchor="middle" x="77.75" y="-187.93" font-family="Helvetica,sans-Serif" font-size="11.00" fill="grey"> elements</text>
</g>
</g>
</svg>
</svg>

<style type='text/css'>
<![CDATA[
[data-mouse-over-selected='false'] { opacity: 0.7; }
[data-mouse-over-selected='true']  { opacity: 1.0; }
]]>
</style>
<script type="application/ecmascript"><![CDATA[
document.addEventListener('DOMContentLoaded', (event) => {
  highlightEdges();
  highlightAdjacentNodes();
});
]]></script>
</svg>
