<?xml version="1.0" encoding="UTF-8" standalone="no"?>
<!DOCTYPE svg PUBLIC "-//W3C//DTD SVG 1.1//EN"
 "http://www.w3.org/Graphics/SVG/1.1/DTD/svg11.dtd">
<!-- Generated by graphviz version 10.0.1 (0)
 -->
<!-- Title: formattable&lt; T, C &gt; Pages: 1 -->
<!--zoomable 1018 -->

<svg id="main" version="1.1" xmlns="http://www.w3.org/2000/svg" xmlns:xlink="http://www.w3.org/1999/xlink" xml:space="preserve" onload="init(evt)">
<style type="text/css"><![CDATA[
.node, .edge {opacity: 0.7;}
.node.selected, .edge.selected {opacity: 1;}
.edge:hover path { stroke: red; }
.edge:hover polygon { stroke: red; fill: red; }
]]></style>

<defs>
  <circle id="rim" cx="0" cy="0" r="7"/>
  <circle id="rim2" cx="0" cy="0" r="3.5"/>
  <g id="zoomPlus">
    <use xlink:href="#rim" fill="#404040"><set attributeName="fill" to="#808080" begin="zoomplus.mouseover" end="zoomplus.mouseout"/></use>
    <path d="M-4,0h8M0,-4v8" fill="none" stroke="white" stroke-width="1.5" pointer-events="none"/>
  </g>
  <g id="zoomMin">
    <use xlink:href="#rim" fill="#404040"><set attributeName="fill" to="#808080" begin="zoomminus.mouseover" end="zoomminus.mouseout"/></use>
    <path d="M-4,0h8" fill="none" stroke="white" stroke-width="1.5" pointer-events="none"/>
  </g>
  <g id="arrowUp" transform="translate(30 24)">
    <use xlink:href="#rim"/>
    <path pointer-events="none" fill="none" stroke="white" stroke-width="1.5" d="M0,-3.0v7 M-2.5,-0.5L0,-3.0L2.5,-0.5"/>
  </g>
  <g id="arrowRight" transform="rotate(90) translate(36 -43)">
    <use xlink:href="#rim"/>
    <path pointer-events="none" fill="none" stroke="white" stroke-width="1.5" d="M0,-3.0v7 M-2.5,-0.5L0,-3.0L2.5,-0.5"/>
  </g>
  <g id="arrowDown" transform="rotate(180) translate(-30 -48)">
    <use xlink:href="#rim"/>
    <path pointer-events="none" fill="none" stroke="white" stroke-width="1.5" d="M0,-3.0v7 M-2.5,-0.5L0,-3.0L2.5,-0.5"/>
  </g>
  <g id="arrowLeft" transform="rotate(270) translate(-36 17)">
    <use xlink:href="#rim"/>
    <path pointer-events="none" fill="none" stroke="white" stroke-width="1.5" d="M0,-3.0v7 M-2.5,-0.5L0,-3.0L2.5,-0.5"/>
  </g>
  <g id="resetDef">
    <use xlink:href="#rim2" fill="#404040"><set attributeName="fill" to="#808080" begin="reset.mouseover" end="reset.mouseout"/></use>
  </g>
</defs>
<script type="application/ecmascript">
var viewWidth = 1034;
var viewHeight = 1018;
var sectionId = 'dynsection-0';
</script>
<script type="application/ecmascript" xlink:href="svg.min.js"/>
<svg id="graph" class="graph">
<g id="viewport">
<title>formattable&lt; T, C &gt;</title>
<!-- Node1 -->
<g id="Node000001" class="node">
<title>Node1</title>
<g id="a_Node000001"><a xlink:title="Allows type to be converted to string and printed via standard streams or fmt.">
<polygon fill="#999999" stroke="#666666" points="273.75,-487.5 164,-487.5 164,-468.25 273.75,-468.25 273.75,-487.5"/>
<text text-anchor="middle" x="218.88" y="-473.05" font-family="Helvetica,sans-Serif" font-size="11.00">formattable&lt; T, C &gt;</text>
</a>
</g>
</g>
<!-- Node3 -->
<g id="Node000003" class="node">
<title>Node3</title>
<g id="a_Node000003"><a xlink:href="structfloppy_1_1math_1_1detail_1_1basic__two__dimensional__type.html" target="_top" xlink:title=" ">
<polygon fill="white" stroke="#666666" points="1025.5,-1009.75 863.25,-1009.75 863.25,-968 1025.5,-968 1025.5,-1009.75"/>
<text text-anchor="start" x="871.25" y="-995.3" font-family="Helvetica,sans-Serif" font-size="11.00">basic_two_dimensional</text>
<text text-anchor="start" x="871.25" y="-984.05" font-family="Helvetica,sans-Serif" font-size="11.00">_type&lt; point2d&lt; default</text>
<text text-anchor="middle" x="944.38" y="-972.8" font-family="Helvetica,sans-Serif" font-size="11.00">_unit, f32 &gt;, default_unit, f32 &gt;</text>
</a>
</g>
</g>
<!-- Node1&#45;&gt;Node3 -->
<g id="edge2_Node000001_Node000003" class="edge">
<title>Node1&#45;&gt;Node3</title>
<g id="a_edge2_Node000001_Node000003"><a xlink:title=" ">
<path fill="none" stroke="#63b8ff" d="M221.74,-498.96C228.2,-568.07 251.45,-786.49 291.75,-842.88 420.34,-1022.79 719.08,-1015.65 863.02,-1000.32"/>
<polygon fill="#63b8ff" stroke="#63b8ff" points="225.26,-499.02 220.87,-489.38 218.29,-499.65 225.26,-499.02"/>
</a>
</g>
</g>
<!-- Node4 -->
<g id="Node000004" class="node">
<title>Node4</title>
<g id="a_Node000004"><a xlink:href="structfloppy_1_1math_1_1detail_1_1basic__two__dimensional__type.html" target="_top" xlink:title=" ">
<polygon fill="white" stroke="#666666" points="1025.5,-938.75 863.25,-938.75 863.25,-897 1025.5,-897 1025.5,-938.75"/>
<text text-anchor="start" x="871.25" y="-924.3" font-family="Helvetica,sans-Serif" font-size="11.00">basic_two_dimensional</text>
<text text-anchor="start" x="871.25" y="-913.05" font-family="Helvetica,sans-Serif" font-size="11.00">_type&lt; size2d&lt; default</text>
<text text-anchor="middle" x="944.38" y="-901.8" font-family="Helvetica,sans-Serif" font-size="11.00">_unit, f32 &gt;, default_unit, f32 &gt;</text>
</a>
</g>
</g>
<!-- Node1&#45;&gt;Node4 -->
<g id="edge3_Node000001_Node000004" class="edge">
<title>Node1&#45;&gt;Node4</title>
<g id="a_edge3_Node000001_Node000004"><a xlink:title=" ">
<path fill="none" stroke="#63b8ff" d="M222.32,-499.17C229.81,-561.01 254.21,-738.87 291.75,-781.88 427.52,-937.42 522.26,-911.13 725.25,-948.88 777.68,-958.63 792.54,-957 845.25,-948.88 858.67,-946.81 872.77,-943.23 885.96,-939.23"/>
<polygon fill="#63b8ff" stroke="#63b8ff" points="225.81,-498.85 221.16,-489.33 218.85,-499.68 225.81,-498.85"/>
</a>
</g>
</g>
<!-- Node5 -->
<g id="Node000005" class="node">
<title>Node5</title>
<g id="a_Node000005"><a xlink:href="structfloppy_1_1math_1_1detail_1_1basic__two__dimensional__type.html" target="_top" xlink:title=" ">
<polygon fill="white" stroke="#666666" points="1025.5,-734.75 863.25,-734.75 863.25,-693 1025.5,-693 1025.5,-734.75"/>
<text text-anchor="start" x="871.25" y="-720.3" font-family="Helvetica,sans-Serif" font-size="11.00">basic_two_dimensional</text>
<text text-anchor="start" x="871.25" y="-709.05" font-family="Helvetica,sans-Serif" font-size="11.00">_type&lt; vector2d&lt; default</text>
<text text-anchor="middle" x="944.38" y="-697.8" font-family="Helvetica,sans-Serif" font-size="11.00">_unit, f32 &gt;, default_unit, f32 &gt;</text>
</a>
</g>
</g>
<!-- Node1&#45;&gt;Node5 -->
<g id="edge4_Node000001_Node000005" class="edge">
<title>Node1&#45;&gt;Node5</title>
<g id="a_edge4_Node000001_Node000005"><a xlink:title=" ">
<path fill="none" stroke="#63b8ff" d="M222.61,-498.95C228.46,-535.32 245.65,-609.8 291.75,-649.88 336.74,-688.99 362.62,-674.56 421.5,-683.88 576.35,-708.36 759.86,-713.46 862.83,-714.19"/>
<polygon fill="#63b8ff" stroke="#63b8ff" points="226.1,-498.69 221.2,-489.3 219.18,-499.7 226.1,-498.69"/>
</a>
</g>
</g>
<!-- Node6 -->
<g id="Node000006" class="node">
<title>Node6</title>
<g id="a_Node000006"><a xlink:href="structfloppy_1_1math_1_1angle.html" target="_top" xlink:title="Newtype describing an angle.">
<polygon fill="white" stroke="#666666" points="517,-674.5 448.5,-674.5 448.5,-655.25 517,-655.25 517,-674.5"/>
<text text-anchor="middle" x="482.75" y="-660.05" font-family="Helvetica,sans-Serif" font-size="11.00">angle&lt; T &gt;</text>
</a>
</g>
</g>
<!-- Node1&#45;&gt;Node6 -->
<g id="edge5_Node000001_Node000006" class="edge">
<title>Node1&#45;&gt;Node6</title>
<g id="a_edge5_Node000001_Node000006"><a xlink:title=" ">
<path fill="none" stroke="#63b8ff" d="M225.16,-498.7C233.87,-528.73 254.14,-583.87 291.75,-613.88 337.54,-650.41 407.25,-660.88 448.28,-663.81"/>
<polygon fill="#63b8ff" stroke="#63b8ff" points="228.6,-498.04 222.6,-489.31 221.85,-499.88 228.6,-498.04"/>
</a>
</g>
</g>
<!-- Node7 -->
<g id="Node000007" class="node">
<title>Node7</title>
<g id="a_Node000007"><a xlink:href="classfloppy_1_1math_1_1length.html" target="_top" xlink:title="A one&#45;dimensional distance with associated unit of measurement.">
<polygon fill="white" stroke="#666666" points="525.25,-637.5 440.25,-637.5 440.25,-618.25 525.25,-618.25 525.25,-637.5"/>
<text text-anchor="middle" x="482.75" y="-623.05" font-family="Helvetica,sans-Serif" font-size="11.00">length&lt; U, T &gt;</text>
</a>
</g>
</g>
<!-- Node1&#45;&gt;Node7 -->
<g id="edge6_Node000001_Node000007" class="edge">
<title>Node1&#45;&gt;Node7</title>
<g id="a_edge6_Node000001_Node000007"><a xlink:title=" ">
<path fill="none" stroke="#63b8ff" d="M228.78,-498.22C240.04,-521.54 261.66,-559.19 291.75,-579.88 336.33,-610.52 398.83,-621.61 439.79,-625.62"/>
<polygon fill="#63b8ff" stroke="#63b8ff" points="231.96,-496.77 224.6,-489.15 225.61,-499.7 231.96,-496.77"/>
</a>
</g>
</g>
<!-- Node8 -->
<g id="Node000008" class="node">
<title>Node8</title>
<g id="a_Node000008"><a xlink:href="structfloppy_1_1math_1_1scale.html" target="_top" xlink:title="A scaling factor between two different units of measurement.">
<polygon fill="white" stroke="#666666" points="530.12,-600.5 435.38,-600.5 435.38,-581.25 530.12,-581.25 530.12,-600.5"/>
<text text-anchor="middle" x="482.75" y="-586.05" font-family="Helvetica,sans-Serif" font-size="11.00">scale&lt; S, D, T &gt;</text>
</a>
</g>
</g>
<!-- Node1&#45;&gt;Node8 -->
<g id="edge7_Node000001_Node000008" class="edge">
<title>Node1&#45;&gt;Node8</title>
<g id="a_edge7_Node000001_Node000008"><a xlink:title=" ">
<path fill="none" stroke="#63b8ff" d="M233.76,-496.62C246.89,-512.95 268.05,-535.98 291.75,-548.88 336.7,-573.34 394.99,-583.56 435.09,-587.82"/>
<polygon fill="#63b8ff" stroke="#63b8ff" points="236.83,-494.86 227.93,-489.1 231.29,-499.15 236.83,-494.86"/>
</a>
</g>
</g>
<!-- Node9 -->
<g id="Node000009" class="node">
<title>Node9</title>
<g id="a_Node000009"><a xlink:href="structfloppy_1_1traits_1_1formattable.html" target="_top" xlink:title=" ">
<polygon fill="white" stroke="#666666" points="535.38,-563.12 430.12,-563.12 430.12,-532.62 535.38,-532.62 535.38,-563.12"/>
<text text-anchor="start" x="438.12" y="-548.67" font-family="Helvetica,sans-Serif" font-size="11.00">formattable&lt; color,</text>
<text text-anchor="middle" x="482.75" y="-537.42" font-family="Helvetica,sans-Serif" font-size="11.00"> char &gt;</text>
</a>
</g>
</g>
<!-- Node1&#45;&gt;Node9 -->
<g id="edge8_Node000001_Node000009" class="edge">
<title>Node1&#45;&gt;Node9</title>
<g id="a_edge8_Node000001_Node000009"><a xlink:title=" ">
<path fill="none" stroke="orange" stroke-dasharray="5,2" d="M251.18,-492.45C263.61,-497.83 278.17,-503.65 291.75,-507.88 337.62,-522.14 391.29,-532.92 429.87,-539.67"/>
<polygon fill="orange" stroke="orange" points="252.82,-489.34 242.26,-488.49 249.98,-495.74 252.82,-489.34"/>
</a>
</g>
<text text-anchor="middle" x="347.62" y="-534.67" font-family="Helvetica,sans-Serif" font-size="11.00" fill="grey"> &lt; color, char &gt;</text>
</g>
<!-- Node11 -->
<g id="Node000011" class="node">
<title>Node11</title>
<g id="a_Node000011"><a xlink:href="structfloppy_1_1traits_1_1formattable.html" target="_top" xlink:title=" ">
<polygon fill="white" stroke="#666666" points="534.25,-514.12 431.25,-514.12 431.25,-483.62 534.25,-483.62 534.25,-514.12"/>
<text text-anchor="start" x="439.25" y="-499.68" font-family="Helvetica,sans-Serif" font-size="11.00">formattable&lt; color</text>
<text text-anchor="middle" x="482.75" y="-488.43" font-family="Helvetica,sans-Serif" font-size="11.00">::hsv_t, char &gt;</text>
</a>
</g>
</g>
<!-- Node1&#45;&gt;Node11 -->
<g id="edge10_Node000001_Node000011" class="edge">
<title>Node1&#45;&gt;Node11</title>
<g id="a_edge10_Node000001_Node000011"><a xlink:title=" ">
<path fill="none" stroke="orange" stroke-dasharray="5,2" d="M285.58,-483.14C330.68,-486.76 389.65,-491.49 431.11,-494.81"/>
<polygon fill="orange" stroke="orange" points="285.89,-479.66 275.64,-482.35 285.33,-486.64 285.89,-479.66"/>
</a>
</g>
<text text-anchor="middle" x="347.62" y="-493.68" font-family="Helvetica,sans-Serif" font-size="11.00" fill="grey"> &lt; color::hsv_t, char &gt;</text>
</g>
<!-- Node15 -->
<g id="Node000015" class="node">
<title>Node15</title>
<g id="a_Node000015"><a xlink:href="structfloppy_1_1traits_1_1formattable.html" target="_top" xlink:title=" ">
<polygon fill="white" stroke="#666666" points="534.25,-465.12 431.25,-465.12 431.25,-434.62 534.25,-434.62 534.25,-465.12"/>
<text text-anchor="start" x="439.25" y="-450.68" font-family="Helvetica,sans-Serif" font-size="11.00">formattable&lt; color</text>
<text text-anchor="middle" x="482.75" y="-439.43" font-family="Helvetica,sans-Serif" font-size="11.00">::hsl_t, char &gt;</text>
</a>
</g>
</g>
<!-- Node1&#45;&gt;Node15 -->
<g id="edge14_Node000001_Node000015" class="edge">
<title>Node1&#45;&gt;Node15</title>
<g id="a_edge14_Node000001_Node000015"><a xlink:title=" ">
<path fill="none" stroke="orange" stroke-dasharray="5,2" d="M285.19,-470.35C287.41,-470.1 289.6,-469.86 291.75,-469.62 338.89,-464.47 392.65,-458.91 430.93,-455.01"/>
<polygon fill="orange" stroke="orange" points="285.08,-466.84 275.53,-471.43 285.86,-473.79 285.08,-466.84"/>
</a>
</g>
<text text-anchor="middle" x="347.62" y="-470.68" font-family="Helvetica,sans-Serif" font-size="11.00" fill="grey"> &lt; color::hsl_t, char &gt;</text>
</g>
<!-- Node17 -->
<g id="Node000017" class="node">
<title>Node17</title>
<g id="a_Node000017"><a xlink:href="structfloppy_1_1traits_1_1formattable.html" target="_top" xlink:title=" ">
<polygon fill="white" stroke="#666666" points="534.25,-416.12 431.25,-416.12 431.25,-385.62 534.25,-385.62 534.25,-416.12"/>
<text text-anchor="start" x="439.25" y="-401.68" font-family="Helvetica,sans-Serif" font-size="11.00">formattable&lt; color</text>
<text text-anchor="middle" x="482.75" y="-390.43" font-family="Helvetica,sans-Serif" font-size="11.00">::hsla_t, char &gt;</text>
</a>
</g>
</g>
<!-- Node1&#45;&gt;Node17 -->
<g id="edge16_Node000001_Node000017" class="edge">
<title>Node1&#45;&gt;Node17</title>
<g id="a_edge16_Node000001_Node000017"><a xlink:title=" ">
<path fill="none" stroke="orange" stroke-dasharray="5,2" d="M248.19,-462.58C261.18,-456.04 276.95,-448.74 291.75,-443.62 337.76,-427.71 392.13,-416.17 430.89,-409.12"/>
<polygon fill="orange" stroke="orange" points="246.64,-459.44 239.36,-467.14 249.85,-465.66 246.64,-459.44"/>
</a>
</g>
<text text-anchor="middle" x="347.62" y="-444.68" font-family="Helvetica,sans-Serif" font-size="11.00" fill="grey"> &lt; color::hsla_t, char &gt;</text>
</g>
<!-- Node19 -->
<g id="Node000019" class="node">
<title>Node19</title>
<g id="a_Node000019"><a xlink:href="structfloppy_1_1traits_1_1formattable.html" target="_top" xlink:title=" ">
<polygon fill="white" stroke="#666666" points="534.25,-367.12 431.25,-367.12 431.25,-336.62 534.25,-336.62 534.25,-367.12"/>
<text text-anchor="start" x="439.25" y="-352.68" font-family="Helvetica,sans-Serif" font-size="11.00">formattable&lt; color</text>
<text text-anchor="middle" x="482.75" y="-341.43" font-family="Helvetica,sans-Serif" font-size="11.00">::hsva_t, char &gt;</text>
</a>
</g>
</g>
<!-- Node1&#45;&gt;Node19 -->
<g id="edge18_Node000001_Node000019" class="edge">
<title>Node1&#45;&gt;Node19</title>
<g id="a_edge18_Node000001_Node000019"><a xlink:title=" ">
<path fill="none" stroke="orange" stroke-dasharray="5,2" d="M232.88,-458.51C245.78,-440.82 267.13,-415.26 291.75,-400.62 334.78,-375.05 391.04,-362.77 431.15,-356.95"/>
<polygon fill="orange" stroke="orange" points="230.06,-456.45 227.18,-466.64 235.79,-460.47 230.06,-456.45"/>
</a>
</g>
<text text-anchor="middle" x="347.62" y="-401.68" font-family="Helvetica,sans-Serif" font-size="11.00" fill="grey"> &lt; color::hsva_t, char &gt;</text>
</g>
<!-- Node21 -->
<g id="Node000021" class="node">
<title>Node21</title>
<g id="a_Node000021"><a xlink:href="structfloppy_1_1traits_1_1formattable.html" target="_top" xlink:title=" ">
<polygon fill="white" stroke="#666666" points="535.75,-318.12 429.75,-318.12 429.75,-287.62 535.75,-287.62 535.75,-318.12"/>
<text text-anchor="start" x="437.75" y="-303.68" font-family="Helvetica,sans-Serif" font-size="11.00">formattable&lt; angle</text>
<text text-anchor="middle" x="482.75" y="-292.43" font-family="Helvetica,sans-Serif" font-size="11.00">&lt; f32 &gt;, char &gt;</text>
</a>
</g>
</g>
<!-- Node1&#45;&gt;Node21 -->
<g id="edge20_Node000001_Node000021" class="edge">
<title>Node1&#45;&gt;Node21</title>
<g id="a_edge20_Node000001_Node000021"><a xlink:title=" ">
<path fill="none" stroke="orange" stroke-dasharray="5,2" d="M225.55,-456.95C234.57,-427.82 255.02,-375.49 291.75,-347.62 331.44,-317.52 388.2,-307.23 429.33,-303.93"/>
<polygon fill="orange" stroke="orange" points="222.23,-455.84 222.79,-466.42 228.95,-457.8 222.23,-455.84"/>
</a>
</g>
<text text-anchor="middle" x="347.62" y="-348.68" font-family="Helvetica,sans-Serif" font-size="11.00" fill="grey"> &lt; angle&lt; f32 &gt;, char &gt;</text>
</g>
<!-- Node22 -->
<g id="Node000022" class="node">
<title>Node22</title>
<g id="a_Node000022"><a xlink:href="structfloppy_1_1traits_1_1formattable.html" target="_top" xlink:title=" ">
<polygon fill="white" stroke="#666666" points="544,-784.5 421.5,-784.5 421.5,-765.25 544,-765.25 544,-784.5"/>
<text text-anchor="middle" x="482.75" y="-770.05" font-family="Helvetica,sans-Serif" font-size="11.00">formattable&lt; T, char &gt;</text>
</a>
</g>
</g>
<!-- Node1&#45;&gt;Node22 -->
<g id="edge21_Node000001_Node000022" class="edge">
<title>Node1&#45;&gt;Node22</title>
<g id="a_edge21_Node000001_Node000022"><a xlink:title=" ">
<path fill="none" stroke="orange" stroke-dasharray="5,2" d="M219.93,-499.19C221.24,-545.46 230.97,-655.84 291.75,-716.88 325.82,-751.09 379.45,-765.23 421.06,-771.02"/>
<polygon fill="orange" stroke="orange" points="223.44,-499.39 219.78,-489.45 216.44,-499.5 223.44,-499.39"/>
</a>
</g>
<text text-anchor="middle" x="347.62" y="-767.67" font-family="Helvetica,sans-Serif" font-size="11.00" fill="grey"> &lt; T, char &gt;</text>
</g>
<!-- Node27 -->
<g id="Node000027" class="node">
<title>Node27</title>
<g id="a_Node000027"><a xlink:href="structfloppy_1_1traits_1_1formattable.html" target="_top" xlink:title=" ">
<polygon fill="white" stroke="#666666" points="537.25,-269.75 428.25,-269.75 428.25,-228 537.25,-228 537.25,-269.75"/>
<text text-anchor="start" x="436.25" y="-255.3" font-family="Helvetica,sans-Serif" font-size="11.00">formattable&lt; length</text>
<text text-anchor="start" x="436.25" y="-244.05" font-family="Helvetica,sans-Serif" font-size="11.00">&lt; default_unit, f32</text>
<text text-anchor="middle" x="482.75" y="-232.8" font-family="Helvetica,sans-Serif" font-size="11.00"> &gt;, char &gt;</text>
</a>
</g>
</g>
<!-- Node1&#45;&gt;Node27 -->
<g id="edge29_Node000001_Node000027" class="edge">
<title>Node1&#45;&gt;Node27</title>
<g id="a_edge29_Node000001_Node000027"><a xlink:title=" ">
<path fill="none" stroke="orange" stroke-dasharray="5,2" d="M220.9,-456.69C224.1,-415.7 237.29,-325.6 291.75,-280.38 329.43,-249.08 386.21,-243.29 427.89,-244.06"/>
<polygon fill="orange" stroke="orange" points="217.41,-456.44 220.27,-466.65 224.39,-456.89 217.41,-456.44"/>
</a>
</g>
<text text-anchor="start" x="292.5" y="-292.93" font-family="Helvetica,sans-Serif" font-size="11.00" fill="grey"> &lt; length&lt; default_unit,</text>
<text text-anchor="middle" x="347.62" y="-281.68" font-family="Helvetica,sans-Serif" font-size="11.00" fill="grey"> f32 &gt;, char &gt;</text>
</g>
<!-- Node28 -->
<g id="Node000028" class="node">
<title>Node28</title>
<g id="a_Node000028"><a xlink:href="structfloppy_1_1traits_1_1formattable.html" target="_top" xlink:title=" ">
<polygon fill="white" stroke="#666666" points="540.25,-209.75 425.25,-209.75 425.25,-168 540.25,-168 540.25,-209.75"/>
<text text-anchor="start" x="433.25" y="-195.3" font-family="Helvetica,sans-Serif" font-size="11.00">formattable&lt; point2d</text>
<text text-anchor="start" x="433.25" y="-184.05" font-family="Helvetica,sans-Serif" font-size="11.00">&lt; default_unit, f32 &gt;</text>
<text text-anchor="middle" x="482.75" y="-172.8" font-family="Helvetica,sans-Serif" font-size="11.00">, char &gt;</text>
</a>
</g>
</g>
<!-- Node1&#45;&gt;Node28 -->
<g id="edge30_Node000001_Node000028" class="edge">
<title>Node1&#45;&gt;Node28</title>
<g id="a_edge30_Node000001_Node000028"><a xlink:title=" ">
<path fill="none" stroke="orange" stroke-dasharray="5,2" d="M222.81,-456.43C230.95,-400.19 255.63,-250.53 291.75,-218.38 327.66,-186.42 383.28,-181.08 425.09,-182.52"/>
<polygon fill="orange" stroke="orange" points="219.35,-455.89 221.42,-466.28 226.28,-456.87 219.35,-455.89"/>
</a>
</g>
<text text-anchor="start" x="302.25" y="-230.93" font-family="Helvetica,sans-Serif" font-size="11.00" fill="grey"> &lt; point2d&lt; default</text>
<text text-anchor="middle" x="347.62" y="-219.68" font-family="Helvetica,sans-Serif" font-size="11.00" fill="grey">_unit, f32 &gt;, char &gt;</text>
</g>
<!-- Node29 -->
<g id="Node000029" class="node">
<title>Node29</title>
<g id="a_Node000029"><a xlink:href="structfloppy_1_1traits_1_1formattable.html" target="_top" xlink:title=" ">
<polygon fill="white" stroke="#666666" points="540.25,-150.12 425.25,-150.12 425.25,-119.62 540.25,-119.62 540.25,-150.12"/>
<text text-anchor="start" x="433.25" y="-135.68" font-family="Helvetica,sans-Serif" font-size="11.00">formattable&lt; scale</text>
<text text-anchor="middle" x="482.75" y="-124.42" font-family="Helvetica,sans-Serif" font-size="11.00">&lt; S, D, f32 &gt;, char &gt;</text>
</a>
</g>
</g>
<!-- Node1&#45;&gt;Node29 -->
<g id="edge31_Node000001_Node000029" class="edge">
<title>Node1&#45;&gt;Node29</title>
<g id="a_edge31_Node000001_Node000029"><a xlink:title=" ">
<path fill="none" stroke="orange" stroke-dasharray="5,2" d="M221.49,-456.55C226.89,-391.41 246.57,-196.95 291.75,-156.38 327.32,-124.43 382.99,-121.62 424.89,-125.28"/>
<polygon fill="orange" stroke="orange" points="218.02,-456.02 220.72,-466.27 225,-456.58 218.02,-456.02"/>
</a>
</g>
<text text-anchor="start" x="302.62" y="-168.93" font-family="Helvetica,sans-Serif" font-size="11.00" fill="grey"> &lt; scale&lt; S, D, f32</text>
<text text-anchor="middle" x="347.62" y="-157.68" font-family="Helvetica,sans-Serif" font-size="11.00" fill="grey"> &gt;, char &gt;</text>
</g>
<!-- Node30 -->
<g id="Node000030" class="node">
<title>Node30</title>
<g id="a_Node000030"><a xlink:href="structfloppy_1_1traits_1_1formattable.html" target="_top" xlink:title=" ">
<polygon fill="white" stroke="#666666" points="538,-101.75 427.5,-101.75 427.5,-60 538,-60 538,-101.75"/>
<text text-anchor="start" x="435.5" y="-87.3" font-family="Helvetica,sans-Serif" font-size="11.00">formattable&lt; size2d</text>
<text text-anchor="start" x="435.5" y="-76.05" font-family="Helvetica,sans-Serif" font-size="11.00">&lt; default_unit, f32</text>
<text text-anchor="middle" x="482.75" y="-64.8" font-family="Helvetica,sans-Serif" font-size="11.00"> &gt;, char &gt;</text>
</a>
</g>
</g>
<!-- Node1&#45;&gt;Node30 -->
<g id="edge32_Node000001_Node000030" class="edge">
<title>Node1&#45;&gt;Node30</title>
<g id="a_edge32_Node000001_Node000030"><a xlink:title=" ">
<path fill="none" stroke="orange" stroke-dasharray="5,2" d="M220.66,-456.57C223.83,-383.83 238.15,-147.09 291.75,-98.38 327.78,-65.62 385.08,-64.71 427.34,-69.88"/>
<polygon fill="orange" stroke="orange" points="217.18,-456.18 220.27,-466.31 224.17,-456.46 217.18,-456.18"/>
</a>
</g>
<text text-anchor="start" x="291.75" y="-110.92" font-family="Helvetica,sans-Serif" font-size="11.00" fill="grey"> &lt; size2d&lt; default_unit,</text>
<text text-anchor="middle" x="347.62" y="-99.67" font-family="Helvetica,sans-Serif" font-size="11.00" fill="grey"> f32 &gt;, char &gt;</text>
</g>
<!-- Node31 -->
<g id="Node000031" class="node">
<title>Node31</title>
<g id="a_Node000031"><a xlink:href="structfloppy_1_1traits_1_1formattable.html" target="_top" xlink:title=" ">
<polygon fill="white" stroke="#666666" points="543.25,-41.75 422.25,-41.75 422.25,0 543.25,0 543.25,-41.75"/>
<text text-anchor="start" x="430.25" y="-27.3" font-family="Helvetica,sans-Serif" font-size="11.00">formattable&lt; vector2d</text>
<text text-anchor="start" x="430.25" y="-16.05" font-family="Helvetica,sans-Serif" font-size="11.00">&lt; default_unit, f32 &gt;</text>
<text text-anchor="middle" x="482.75" y="-4.8" font-family="Helvetica,sans-Serif" font-size="11.00">, char &gt;</text>
</a>
</g>
</g>
<!-- Node1&#45;&gt;Node31 -->
<g id="edge33_Node000001_Node000031" class="edge">
<title>Node1&#45;&gt;Node31</title>
<g id="a_edge33_Node000001_Node000031"><a xlink:title=" ">
<path fill="none" stroke="orange" stroke-dasharray="5,2" d="M220.12,-456.58C221.5,-377.06 230.7,-99.11 291.75,-41.38 325.86,-9.12 380.31,-6.26 422.19,-10.15"/>
<polygon fill="orange" stroke="orange" points="216.62,-456.38 219.98,-466.43 223.62,-456.48 216.62,-456.38"/>
</a>
</g>
<text text-anchor="start" x="299.62" y="-53.92" font-family="Helvetica,sans-Serif" font-size="11.00" fill="grey"> &lt; vector2d&lt; default</text>
<text text-anchor="middle" x="347.62" y="-42.67" font-family="Helvetica,sans-Serif" font-size="11.00" fill="grey">_unit, f32 &gt;, char &gt;</text>
</g>
<!-- Node2 -->
<g id="Node000002" class="node">
<title>Node2</title>
<g id="a_Node000002"><a xlink:href="structfloppy_1_1traits_1_1detail_1_1formattable__base.html" target="_top" xlink:title="Interface, providing to_string method.">
<polygon fill="white" stroke="#666666" points="127,-487.5 0,-487.5 0,-468.25 127,-468.25 127,-487.5"/>
<text text-anchor="middle" x="63.5" y="-473.05" font-family="Helvetica,sans-Serif" font-size="11.00">formattable_base&lt; C &gt;</text>
</a>
</g>
</g>
<!-- Node2&#45;&gt;Node1 -->
<g id="edge1_Node000001_Node000002" class="edge">
<title>Node2&#45;&gt;Node1</title>
<g id="a_edge1_Node000001_Node000002"><a xlink:title=" ">
<path fill="none" stroke="#63b8ff" d="M138.75,-477.88C147.17,-477.88 155.64,-477.88 163.73,-477.88"/>
<polygon fill="#63b8ff" stroke="#63b8ff" points="138.84,-474.38 128.84,-477.88 138.84,-481.38 138.84,-474.38"/>
</a>
</g>
</g>
<!-- Node10 -->
<g id="Node000010" class="node">
<title>Node10</title>
<g id="a_Node000010"><a xlink:href="classfloppy_1_1gfx_1_1color.html" target="_top" xlink:title="Class representing a color.">
<polygon fill="white" stroke="#666666" points="663.75,-589.5 624.5,-589.5 624.5,-570.25 663.75,-570.25 663.75,-589.5"/>
<text text-anchor="middle" x="644.12" y="-575.05" font-family="Helvetica,sans-Serif" font-size="11.00">color</text>
</a>
</g>
</g>
<!-- Node9&#45;&gt;Node10 -->
<g id="edge9_Node000009_Node000010" class="edge">
<title>Node9&#45;&gt;Node10</title>
<g id="a_edge9_Node000009_Node000010"><a xlink:title=" ">
<path fill="none" stroke="#63b8ff" d="M546.76,-560.53C574.49,-566.09 605.04,-572.23 624.15,-576.07"/>
<polygon fill="#63b8ff" stroke="#63b8ff" points="547.47,-557.1 536.98,-558.56 546.09,-563.96 547.47,-557.1"/>
</a>
</g>
</g>
<!-- Node12 -->
<g id="Node000012" class="node">
<title>Node12</title>
<g id="a_Node000012"><a xlink:href="structfloppy_1_1gfx_1_1color_1_1cmyk__t.html" target="_top" xlink:title=" ">
<polygon fill="white" stroke="#bfbfbf" points="669,-552.5 619.25,-552.5 619.25,-533.25 669,-533.25 669,-552.5"/>
<text text-anchor="middle" x="644.12" y="-538.05" font-family="Helvetica,sans-Serif" font-size="11.00">cmyk_t</text>
</a>
</g>
</g>
<!-- Node11&#45;&gt;Node12 -->
<g id="edge11_Node000011_Node000012" class="edge">
<title>Node11&#45;&gt;Node12</title>
<g id="a_edge11_Node000011_Node000012"><a xlink:title=" ">
<path fill="none" stroke="#63b8ff" d="M545.43,-515.9C571.13,-523 599.46,-530.82 618.97,-536.21"/>
<polygon fill="#63b8ff" stroke="#63b8ff" points="546.65,-512.61 536.07,-513.32 544.78,-519.36 546.65,-512.61"/>
</a>
</g>
</g>
<!-- Node13 -->
<g id="Node000013" class="node">
<title>Node13</title>
<g id="a_Node000013"><a xlink:href="structfloppy_1_1gfx_1_1color_1_1cmyka__t.html" target="_top" xlink:title=" ">
<polygon fill="white" stroke="#bfbfbf" points="672,-515.5 616.25,-515.5 616.25,-496.25 672,-496.25 672,-515.5"/>
<text text-anchor="middle" x="644.12" y="-501.05" font-family="Helvetica,sans-Serif" font-size="11.00">cmyka_t</text>
</a>
</g>
</g>
<!-- Node11&#45;&gt;Node13 -->
<g id="edge12_Node000011_Node000013" class="edge">
<title>Node11&#45;&gt;Node13</title>
<g id="a_edge12_Node000011_Node000013"><a xlink:title=" ">
<path fill="none" stroke="#63b8ff" d="M545.92,-501.61C570.16,-502.67 596.68,-503.83 615.88,-504.68"/>
<polygon fill="#63b8ff" stroke="#63b8ff" points="546.27,-498.12 536.13,-501.18 545.96,-505.11 546.27,-498.12"/>
</a>
</g>
</g>
<!-- Node14 -->
<g id="Node000014" class="node">
<title>Node14</title>
<g id="a_Node000014"><a xlink:href="structfloppy_1_1gfx_1_1color_1_1hsv__t.html" target="_top" xlink:title="HSV color representation.">
<polygon fill="white" stroke="#666666" points="664.88,-478.5 623.38,-478.5 623.38,-459.25 664.88,-459.25 664.88,-478.5"/>
<text text-anchor="middle" x="644.12" y="-464.05" font-family="Helvetica,sans-Serif" font-size="11.00">hsv_t</text>
</a>
</g>
</g>
<!-- Node11&#45;&gt;Node14 -->
<g id="edge13_Node000011_Node000014" class="edge">
<title>Node11&#45;&gt;Node14</title>
<g id="a_edge13_Node000011_Node000014"><a xlink:title=" ">
<path fill="none" stroke="#63b8ff" d="M545.78,-487.2C573.28,-482.02 603.74,-476.29 623.14,-472.64"/>
<polygon fill="#63b8ff" stroke="#63b8ff" points="545.28,-483.73 536.1,-489.02 546.58,-490.61 545.28,-483.73"/>
</a>
</g>
</g>
<!-- Node16 -->
<g id="Node000016" class="node">
<title>Node16</title>
<g id="a_Node000016"><a xlink:href="structfloppy_1_1gfx_1_1color_1_1hsl__t.html" target="_top" xlink:title="HSL color representation.">
<polygon fill="white" stroke="#666666" points="663.38,-441.5 624.88,-441.5 624.88,-422.25 663.38,-422.25 663.38,-441.5"/>
<text text-anchor="middle" x="644.12" y="-427.05" font-family="Helvetica,sans-Serif" font-size="11.00">hsl_t</text>
</a>
</g>
</g>
<!-- Node15&#45;&gt;Node16 -->
<g id="edge15_Node000015_Node000016" class="edge">
<title>Node15&#45;&gt;Node16</title>
<g id="a_edge15_Node000015_Node000016"><a xlink:title=" ">
<path fill="none" stroke="#63b8ff" d="M546.05,-442.84C574.24,-439.65 605.48,-436.13 624.71,-433.95"/>
<polygon fill="#63b8ff" stroke="#63b8ff" points="545.66,-439.36 536.12,-443.96 546.45,-446.32 545.66,-439.36"/>
</a>
</g>
</g>
<!-- Node18 -->
<g id="Node000018" class="node">
<title>Node18</title>
<g id="a_Node000018"><a xlink:href="structfloppy_1_1gfx_1_1color_1_1hsla__t.html" target="_top" xlink:title="HSLA color representation.">
<polygon fill="white" stroke="#666666" points="666.38,-404.5 621.88,-404.5 621.88,-385.25 666.38,-385.25 666.38,-404.5"/>
<text text-anchor="middle" x="644.12" y="-390.05" font-family="Helvetica,sans-Serif" font-size="11.00">hsla_t</text>
</a>
</g>
</g>
<!-- Node17&#45;&gt;Node18 -->
<g id="edge17_Node000017_Node000018" class="edge">
<title>Node17&#45;&gt;Node18</title>
<g id="a_edge17_Node000017_Node000018"><a xlink:title=" ">
<path fill="none" stroke="#63b8ff" d="M545.86,-398.54C572.58,-397.53 602.08,-396.42 621.51,-395.69"/>
<polygon fill="#63b8ff" stroke="#63b8ff" points="545.99,-395.03 536.13,-398.9 546.25,-402.02 545.99,-395.03"/>
</a>
</g>
</g>
<!-- Node20 -->
<g id="Node000020" class="node">
<title>Node20</title>
<g id="a_Node000020"><a xlink:href="structfloppy_1_1gfx_1_1color_1_1hsva__t.html" target="_top" xlink:title="HSVA color representation.">
<polygon fill="white" stroke="#666666" points="667.88,-361.5 620.38,-361.5 620.38,-342.25 667.88,-342.25 667.88,-361.5"/>
<text text-anchor="middle" x="644.12" y="-347.05" font-family="Helvetica,sans-Serif" font-size="11.00">hsva_t</text>
</a>
</g>
</g>
<!-- Node19&#45;&gt;Node20 -->
<g id="edge19_Node000019_Node000020" class="edge">
<title>Node19&#45;&gt;Node20</title>
<g id="a_edge19_Node000019_Node000020"><a xlink:title=" ">
<path fill="none" stroke="#63b8ff" d="M546,-351.88C572.11,-351.88 600.86,-351.88 620.25,-351.88"/>
<polygon fill="#63b8ff" stroke="#63b8ff" points="546.13,-348.38 536.13,-351.88 546.13,-355.38 546.13,-348.38"/>
</a>
</g>
</g>
<!-- Node23 -->
<g id="Node000023" class="node">
<title>Node23</title>
<g id="a_Node000023"><a xlink:href="structfloppy_1_1math_1_1detail_1_1basic__two__dimensional__type.html" target="_top" xlink:title="CRTP base class for two dimensional numerical types.">
<polygon fill="white" stroke="#666666" points="707.25,-825.12 581,-825.12 581,-794.62 707.25,-794.62 707.25,-825.12"/>
<text text-anchor="start" x="589" y="-810.67" font-family="Helvetica,sans-Serif" font-size="11.00">basic_two_dimensional</text>
<text text-anchor="middle" x="644.12" y="-799.42" font-family="Helvetica,sans-Serif" font-size="11.00">_type&lt; T, U, N &gt;</text>
</a>
</g>
</g>
<!-- Node22&#45;&gt;Node23 -->
<g id="edge22_Node000022_Node000023" class="edge">
<title>Node22&#45;&gt;Node23</title>
<g id="a_edge22_Node000022_Node000023"><a xlink:title=" ">
<path fill="none" stroke="#63b8ff" d="M540.89,-787.42C553.75,-790.25 567.46,-793.26 580.53,-796.13"/>
<polygon fill="#63b8ff" stroke="#63b8ff" points="541.84,-784.05 531.33,-785.32 540.34,-790.89 541.84,-784.05"/>
</a>
</g>
</g>
<!-- Node23&#45;&gt;Node3 -->
<g id="edge26_Node000023_Node000003" class="edge">
<title>Node23&#45;&gt;Node3</title>
<g id="a_edge26_Node000023_Node000003"><a xlink:title=" ">
<path fill="none" stroke="orange" stroke-dasharray="5,2" d="M664.5,-834.18C679.6,-851.92 701.87,-875.62 725.25,-891.88 753.02,-911.19 834.08,-945.32 889.16,-967.51"/>
<polygon fill="orange" stroke="orange" points="667.34,-832.12 658.26,-826.68 661.96,-836.6 667.34,-832.12"/>
</a>
</g>
<text text-anchor="start" x="739.12" y="-972.17" font-family="Helvetica,sans-Serif" font-size="11.00" fill="grey"> &lt; point2d&lt; default</text>
<text text-anchor="start" x="739.12" y="-960.92" font-family="Helvetica,sans-Serif" font-size="11.00" fill="grey">_unit, f32 &gt;, default</text>
<text text-anchor="middle" x="785.25" y="-949.67" font-family="Helvetica,sans-Serif" font-size="11.00" fill="grey">_unit, f32 &gt;</text>
</g>
<!-- Node23&#45;&gt;Node4 -->
<g id="edge27_Node000023_Node000004" class="edge">
<title>Node23&#45;&gt;Node4</title>
<g id="a_edge27_Node000023_Node000004"><a xlink:title=" ">
<path fill="none" stroke="orange" stroke-dasharray="5,2" d="M691.61,-829.85C702.53,-834.15 714.2,-838.43 725.25,-841.88 777.48,-858.18 793.71,-851.02 845.25,-869.38 865.84,-876.71 887.73,-887.24 905.6,-896.62"/>
<polygon fill="orange" stroke="orange" points="692.98,-826.63 682.4,-826.14 690.37,-833.12 692.98,-826.63"/>
</a>
</g>
<text text-anchor="start" x="725.25" y="-880.92" font-family="Helvetica,sans-Serif" font-size="11.00" fill="grey"> &lt; size2d&lt; default_unit,</text>
<text text-anchor="middle" x="785.25" y="-869.67" font-family="Helvetica,sans-Serif" font-size="11.00" fill="grey"> f32 &gt;, default_unit, f32 &gt;</text>
</g>
<!-- Node23&#45;&gt;Node5 -->
<g id="edge28_Node000023_Node000005" class="edge">
<title>Node23&#45;&gt;Node5</title>
<g id="a_edge28_Node000023_Node000005"><a xlink:title=" ">
<path fill="none" stroke="orange" stroke-dasharray="5,2" d="M668.58,-786.66C683.55,-773.23 704.08,-757.23 725.25,-748.12 768.56,-729.5 820.61,-720.86 863,-716.92"/>
<polygon fill="orange" stroke="orange" points="666.51,-783.81 661.55,-793.17 671.27,-788.94 666.51,-783.81"/>
</a>
</g>
<text text-anchor="start" x="737.25" y="-771.17" font-family="Helvetica,sans-Serif" font-size="11.00" fill="grey"> &lt; vector2d&lt; default</text>
<text text-anchor="start" x="737.25" y="-759.92" font-family="Helvetica,sans-Serif" font-size="11.00" fill="grey">_unit, f32 &gt;, default</text>
<text text-anchor="middle" x="785.25" y="-748.67" font-family="Helvetica,sans-Serif" font-size="11.00" fill="grey">_unit, f32 &gt;</text>
</g>
<!-- Node24 -->
<g id="Node000024" class="node">
<title>Node24</title>
<g id="a_Node000024"><a xlink:href="classfloppy_1_1math_1_1point2d.html" target="_top" xlink:title="A two&#45;dimensional point tagged with a unit.">
<polygon fill="white" stroke="#666666" points="989.88,-819.5 898.88,-819.5 898.88,-800.25 989.88,-800.25 989.88,-819.5"/>
<text text-anchor="middle" x="944.38" y="-805.05" font-family="Helvetica,sans-Serif" font-size="11.00">point2d&lt; U, T &gt;</text>
</a>
</g>
</g>
<!-- Node23&#45;&gt;Node24 -->
<g id="edge23_Node000023_Node000024" class="edge">
<title>Node23&#45;&gt;Node24</title>
<g id="a_edge23_Node000023_Node000024"><a xlink:title=" ">
<path fill="none" stroke="#63b8ff" d="M718.99,-809.88C775.26,-809.88 850.9,-809.88 898.4,-809.88"/>
<polygon fill="#63b8ff" stroke="#63b8ff" points="719.16,-806.38 709.16,-809.88 719.16,-813.38 719.16,-806.38"/>
</a>
</g>
</g>
<!-- Node25 -->
<g id="Node000025" class="node">
<title>Node25</title>
<g id="a_Node000025"><a xlink:href="classfloppy_1_1math_1_1size2d.html" target="_top" xlink:title="A two&#45;dimensional size2d tagged with a unit.">
<polygon fill="white" stroke="#666666" points="987.62,-782.5 901.12,-782.5 901.12,-763.25 987.62,-763.25 987.62,-782.5"/>
<text text-anchor="middle" x="944.38" y="-768.05" font-family="Helvetica,sans-Serif" font-size="11.00">size2d&lt; U, T &gt;</text>
</a>
</g>
</g>
<!-- Node23&#45;&gt;Node25 -->
<g id="edge24_Node000023_Node000025" class="edge">
<title>Node23&#45;&gt;Node25</title>
<g id="a_edge24_Node000023_Node000025"><a xlink:title=" ">
<path fill="none" stroke="#63b8ff" d="M718.8,-800.73C775.99,-793.64 853.28,-784.05 900.66,-778.17"/>
<polygon fill="#63b8ff" stroke="#63b8ff" points="718.64,-797.23 709.15,-801.93 719.5,-804.17 718.64,-797.23"/>
</a>
</g>
</g>
<!-- Node26 -->
<g id="Node000026" class="node">
<title>Node26</title>
<g id="a_Node000026"><a xlink:href="classfloppy_1_1math_1_1vector2d.html" target="_top" xlink:title="A two&#45;dimensional vector tagged with a unit.">
<polygon fill="white" stroke="#666666" points="992.88,-856.5 895.88,-856.5 895.88,-837.25 992.88,-837.25 992.88,-856.5"/>
<text text-anchor="middle" x="944.38" y="-842.05" font-family="Helvetica,sans-Serif" font-size="11.00">vector2d&lt; U, T &gt;</text>
</a>
</g>
</g>
<!-- Node23&#45;&gt;Node26 -->
<g id="edge25_Node000023_Node000026" class="edge">
<title>Node23&#45;&gt;Node26</title>
<g id="a_edge25_Node000023_Node000026"><a xlink:title=" ">
<path fill="none" stroke="#63b8ff" d="M719.02,-820.07C721.12,-820.34 723.2,-820.61 725.25,-820.88 783.88,-828.39 851.48,-836.34 895.69,-841.44"/>
<polygon fill="#63b8ff" stroke="#63b8ff" points="719.53,-816.61 709.16,-818.77 718.62,-823.55 719.53,-816.61"/>
</a>
</g>
</g>
</g>
</svg>

<g id="navigator" transform="translate(0 0)" fill="#404254">
  <rect fill="#f2f5e9" fill-opacity="0.5" stroke="#606060" stroke-width=".5" x="0" y="0" width="60" height="60"/>
  <use id="zoomplus" xlink:href="#zoomPlus" x="17" y="9" onmousedown="handleZoom(evt,'in')"/>
  <use id="zoomminus" xlink:href="#zoomMin" x="42" y="9" onmousedown="handleZoom(evt,'out')"/>
  <use id="reset" xlink:href="#resetDef" x="30" y="36" onmousedown="handleReset()"/>
   <use id="arrowup" xlink:href="#arrowUp" x="0" y="0" onmousedown="handlePan(0,-1)"/>
  <use id="arrowright" xlink:href="#arrowRight" x="0" y="0" onmousedown="handlePan(1,0)"/>
  <use id="arrowdown" xlink:href="#arrowDown" x="0" y="0" onmousedown="handlePan(0,1)"/>
  <use id="arrowleft" xlink:href="#arrowLeft" x="0" y="0" onmousedown="handlePan(-1,0)"/>
</g>
<svg viewBox="0 0 15 15" width="100%" height="30px" preserveAspectRatio="xMaxYMin meet">
 <g id="arrow_out" transform="scale(0.3 0.3)">
  <a xlink:href="structfloppy_1_1traits_1_1formattable__inherit__graph_org.svg" target="_base">
   <rect id="button" ry="5" rx="5" y="6" x="6" height="38" width="38"
        fill="#f2f5e9" fill-opacity="0.5" stroke="#606060" stroke-width="1.0"/>
   <path id="arrow"
     d="M 11.500037,31.436501 C 11.940474,20.09759 22.043105,11.32322 32.158766,21.979434 L 37.068811,17.246167 C 37.068811,17.246167 37.088388,32 37.088388,32 L 22.160133,31.978069 C 22.160133,31.978069 26.997745,27.140456 26.997745,27.140456 C 18.528582,18.264221 13.291696,25.230495 11.500037,31.436501 z"
     style="fill:#404040;"/>
  </a>
 </g>
</svg>

<style type='text/css'>
<![CDATA[
[data-mouse-over-selected='false'] { opacity: 0.7; }
[data-mouse-over-selected='true']  { opacity: 1.0; }
]]>
</style>
<script type="application/ecmascript"><![CDATA[
document.addEventListener('DOMContentLoaded', (event) => {
  highlightEdges();
  highlightAdjacentNodes();
});
]]></script>
</svg>
