<?xml version="1.0" encoding="UTF-8" standalone="no"?>
<!DOCTYPE svg PUBLIC "-//W3C//DTD SVG 1.1//EN"
 "http://www.w3.org/Graphics/SVG/1.1/DTD/svg11.dtd">
<!-- Generated by graphviz version 10.0.1 (0)
 -->
<!-- Title: number_base&lt; T, V &gt; Pages: 1 -->
<svg width="213pt" height="116pt"
 viewBox="0.00 0.00 213.25 116.25" xmlns="http://www.w3.org/2000/svg" xmlns:xlink="http://www.w3.org/1999/xlink">
<g id="graph0" class="graph" transform="scale(1 1) rotate(0) translate(4 112.25)">
<title>number_base&lt; T, V &gt;</title>
<!-- Node1 -->
<g id="Node000001" class="node">
<title>Node1</title>
<g id="a_Node000001"><a xlink:title="Base class for numbers.">
<polygon fill="#999999" stroke="#666666" points="138.75,-108.25 17.75,-108.25 17.75,-89 138.75,-89 138.75,-108.25"/>
<text text-anchor="middle" x="78.25" y="-93.8" font-family="Helvetica,sans-Serif" font-size="11.00">number_base&lt; T, V &gt;</text>
</a>
</g>
</g>
<!-- Node2 -->
<g id="Node000002" class="node">
<title>Node2</title>
<g id="a_Node000002"><a xlink:href="structfloppy_1_1math_1_1numbers_1_1pi.html" target="_top" xlink:title="Pi number.">
<polygon fill="white" stroke="#666666" points="50.5,-24.88 0,-24.88 0,-5.63 50.5,-5.63 50.5,-24.88"/>
<text text-anchor="middle" x="25.25" y="-10.43" font-family="Helvetica,sans-Serif" font-size="11.00">pi&lt; T &gt;</text>
</a>
</g>
</g>
<!-- Node1&#45;&gt;Node2 -->
<g id="edge1_Node000001_Node000002" class="edge">
<title>Node1&#45;&gt;Node2</title>
<g id="a_edge1_Node000001_Node000002"><a xlink:title=" ">
<path fill="none" stroke="#63b8ff" d="M66.25,-79.2C55.24,-62.29 39.39,-37.96 30.99,-25.06"/>
<polygon fill="#63b8ff" stroke="#63b8ff" points="63.16,-80.87 71.55,-87.34 69.02,-77.05 63.16,-80.87"/>
</a>
</g>
</g>
<!-- Node3 -->
<g id="Node000003" class="node">
<title>Node3</title>
<g id="a_Node000003"><a xlink:href="structfloppy_1_1math_1_1detail_1_1number__base.html" target="_top" xlink:title=" ">
<polygon fill="white" stroke="#666666" points="195.75,-30.5 68.75,-30.5 68.75,0 195.75,0 195.75,-30.5"/>
<text text-anchor="start" x="76.75" y="-16.05" font-family="Helvetica,sans-Serif" font-size="11.00">number_base&lt; f64, std</text>
<text text-anchor="middle" x="132.25" y="-4.8" font-family="Helvetica,sans-Serif" font-size="11.00">::numbers::pi &gt;</text>
</a>
</g>
</g>
<!-- Node1&#45;&gt;Node3 -->
<g id="edge2_Node000001_Node000003" class="edge">
<title>Node1&#45;&gt;Node3</title>
<g id="a_edge2_Node000001_Node000003"><a xlink:title=" ">
<path fill="none" stroke="orange" stroke-dasharray="5,2" d="M90.55,-79.09C100.27,-64.44 113.64,-44.29 122.6,-30.79"/>
<polygon fill="orange" stroke="orange" points="87.69,-77.08 85.07,-87.34 93.52,-80.95 87.69,-77.08"/>
</a>
</g>
<text text-anchor="start" x="109.25" y="-60.55" font-family="Helvetica,sans-Serif" font-size="11.00" fill="grey"> &lt; f64, std::numbers</text>
<text text-anchor="middle" x="157.25" y="-49.3" font-family="Helvetica,sans-Serif" font-size="11.00" fill="grey">::pi &gt;</text>
</g>
</g>
</svg>
