<?xml version="1.0" encoding="UTF-8" standalone="no"?>
<!DOCTYPE svg PUBLIC "-//W3C//DTD SVG 1.1//EN"
 "http://www.w3.org/Graphics/SVG/1.1/DTD/svg11.dtd">
<!-- Generated by graphviz version 10.0.1 (0)
 -->
<!-- Title: basic_numeric_newtype&lt; T, U &gt; Pages: 1 -->
<!--zoomable 316 -->

<svg id="main" version="1.1" xmlns="http://www.w3.org/2000/svg" xmlns:xlink="http://www.w3.org/1999/xlink" xml:space="preserve" onload="init(evt)">
<style type="text/css"><![CDATA[
.node, .edge {opacity: 0.7;}
.node.selected, .edge.selected {opacity: 1;}
.edge:hover path { stroke: red; }
.edge:hover polygon { stroke: red; fill: red; }
]]></style>

<defs>
  <circle id="rim" cx="0" cy="0" r="7"/>
  <circle id="rim2" cx="0" cy="0" r="3.5"/>
  <g id="zoomPlus">
    <use xlink:href="#rim" fill="#404040"><set attributeName="fill" to="#808080" begin="zoomplus.mouseover" end="zoomplus.mouseout"/></use>
    <path d="M-4,0h8M0,-4v8" fill="none" stroke="white" stroke-width="1.5" pointer-events="none"/>
  </g>
  <g id="zoomMin">
    <use xlink:href="#rim" fill="#404040"><set attributeName="fill" to="#808080" begin="zoomminus.mouseover" end="zoomminus.mouseout"/></use>
    <path d="M-4,0h8" fill="none" stroke="white" stroke-width="1.5" pointer-events="none"/>
  </g>
  <g id="arrowUp" transform="translate(30 24)">
    <use xlink:href="#rim"/>
    <path pointer-events="none" fill="none" stroke="white" stroke-width="1.5" d="M0,-3.0v7 M-2.5,-0.5L0,-3.0L2.5,-0.5"/>
  </g>
  <g id="arrowRight" transform="rotate(90) translate(36 -43)">
    <use xlink:href="#rim"/>
    <path pointer-events="none" fill="none" stroke="white" stroke-width="1.5" d="M0,-3.0v7 M-2.5,-0.5L0,-3.0L2.5,-0.5"/>
  </g>
  <g id="arrowDown" transform="rotate(180) translate(-30 -48)">
    <use xlink:href="#rim"/>
    <path pointer-events="none" fill="none" stroke="white" stroke-width="1.5" d="M0,-3.0v7 M-2.5,-0.5L0,-3.0L2.5,-0.5"/>
  </g>
  <g id="arrowLeft" transform="rotate(270) translate(-36 17)">
    <use xlink:href="#rim"/>
    <path pointer-events="none" fill="none" stroke="white" stroke-width="1.5" d="M0,-3.0v7 M-2.5,-0.5L0,-3.0L2.5,-0.5"/>
  </g>
  <g id="resetDef">
    <use xlink:href="#rim2" fill="#404040"><set attributeName="fill" to="#808080" begin="reset.mouseover" end="reset.mouseout"/></use>
  </g>
</defs>
<script type="application/ecmascript">
var viewWidth = 866;
var viewHeight = 316;
var sectionId = 'dynsection-0';
</script>
<script type="application/ecmascript" xlink:href="svg.min.js"/>
<svg id="graph" class="graph">
<g id="viewport">
<title>basic_numeric_newtype&lt; T, U &gt;</title>
<!-- Node1 -->
<g id="Node000001" class="node">
<title>Node1</title>
<g id="a_Node000001"><a xlink:title="CRTP base for numeric newtypes that can be compared.">
<polygon fill="#999999" stroke="#666666" points="305.25,-193.12 173.75,-193.12 173.75,-162.62 305.25,-162.62 305.25,-193.12"/>
<text text-anchor="start" x="181.75" y="-178.68" font-family="Helvetica,sans-Serif" font-size="11.00">basic_numeric_newtype</text>
<text text-anchor="middle" x="239.5" y="-167.43" font-family="Helvetica,sans-Serif" font-size="11.00">&lt; T, U &gt;</text>
</a>
</g>
</g>
<!-- Node3 -->
<g id="Node000003" class="node">
<title>Node3</title>
<g id="a_Node000003"><a xlink:href="structfloppy_1_1math_1_1detail_1_1advanced__numeric__type.html" target="_top" xlink:title=" ">
<polygon fill="white" stroke="#666666" points="857.75,-308.12 724.75,-308.12 724.75,-277.62 857.75,-277.62 857.75,-308.12"/>
<text text-anchor="start" x="732.75" y="-293.68" font-family="Helvetica,sans-Serif" font-size="11.00">advanced_numeric_type</text>
<text text-anchor="middle" x="791.25" y="-282.43" font-family="Helvetica,sans-Serif" font-size="11.00">&lt; angle&lt; f32 &gt;, f32 &gt;</text>
</a>
</g>
</g>
<!-- Node1&#45;&gt;Node3 -->
<g id="edge2_Node000001_Node000003" class="edge">
<title>Node1&#45;&gt;Node3</title>
<g id="a_edge2_Node000001_Node000003"><a xlink:title=" ">
<path fill="none" stroke="#63b8ff" d="M265.93,-200.89C281.56,-214.06 302.5,-230.07 323.25,-240.88 452.95,-308.41 629.98,-306.86 724.47,-299.87"/>
<polygon fill="#63b8ff" stroke="#63b8ff" points="268.39,-198.39 258.53,-194.51 263.82,-203.69 268.39,-198.39"/>
</a>
</g>
</g>
<!-- Node4 -->
<g id="Node000004" class="node">
<title>Node4</title>
<g id="a_Node000004"><a xlink:href="structfloppy_1_1math_1_1detail_1_1advanced__numeric__type.html" target="_top" xlink:title="CRTP base for numeric newtypes containing math operations implementation.">
<polygon fill="white" stroke="#666666" points="584.5,-273.12 451.5,-273.12 451.5,-242.62 584.5,-242.62 584.5,-273.12"/>
<text text-anchor="start" x="459.5" y="-258.68" font-family="Helvetica,sans-Serif" font-size="11.00">advanced_numeric_type</text>
<text text-anchor="middle" x="518" y="-247.43" font-family="Helvetica,sans-Serif" font-size="11.00">&lt; T, U &gt;</text>
</a>
</g>
</g>
<!-- Node1&#45;&gt;Node4 -->
<g id="edge3_Node000001_Node000004" class="edge">
<title>Node1&#45;&gt;Node4</title>
<g id="a_edge3_Node000001_Node000004"><a xlink:title=" ">
<path fill="none" stroke="#63b8ff" d="M284.36,-198.08C296.77,-203.34 310.4,-208.7 323.25,-212.88 365.12,-226.48 413.35,-237.7 451.21,-245.53"/>
<polygon fill="#63b8ff" stroke="#63b8ff" points="285.78,-194.88 275.21,-194.12 282.99,-201.3 285.78,-194.88"/>
</a>
</g>
</g>
<!-- Node6 -->
<g id="Node000006" class="node">
<title>Node6</title>
<g id="a_Node000006"><a xlink:href="classfloppy_1_1math_1_1length.html" target="_top" xlink:title="A one&#45;dimensional distance with associated unit of measurement.">
<polygon fill="white" stroke="#666666" points="560.5,-224.5 475.5,-224.5 475.5,-205.25 560.5,-205.25 560.5,-224.5"/>
<text text-anchor="middle" x="518" y="-210.05" font-family="Helvetica,sans-Serif" font-size="11.00">length&lt; U, T &gt;</text>
</a>
</g>
</g>
<!-- Node1&#45;&gt;Node6 -->
<g id="edge6_Node000001_Node000006" class="edge">
<title>Node1&#45;&gt;Node6</title>
<g id="a_edge6_Node000001_Node000006"><a xlink:title=" ">
<path fill="none" stroke="#63b8ff" d="M316.68,-190.91C318.89,-191.24 321.09,-191.56 323.25,-191.88 375.55,-199.4 436.06,-206.29 475.35,-210.53"/>
<polygon fill="#63b8ff" stroke="#63b8ff" points="317.41,-187.48 307,-189.41 316.34,-194.4 317.41,-187.48"/>
</a>
</g>
</g>
<!-- Node7 -->
<g id="Node000007" class="node">
<title>Node7</title>
<g id="a_Node000007"><a xlink:href="structfloppy_1_1math_1_1scale.html" target="_top" xlink:title="A scaling factor between two different units of measurement.">
<polygon fill="white" stroke="#666666" points="565.38,-187.5 470.62,-187.5 470.62,-168.25 565.38,-168.25 565.38,-187.5"/>
<text text-anchor="middle" x="518" y="-173.05" font-family="Helvetica,sans-Serif" font-size="11.00">scale&lt; S, D, T &gt;</text>
</a>
</g>
</g>
<!-- Node1&#45;&gt;Node7 -->
<g id="edge7_Node000001_Node000007" class="edge">
<title>Node1&#45;&gt;Node7</title>
<g id="a_edge7_Node000001_Node000007"><a xlink:title=" ">
<path fill="none" stroke="#63b8ff" d="M316.92,-177.88C366.13,-177.88 428.5,-177.88 470.41,-177.88"/>
<polygon fill="#63b8ff" stroke="#63b8ff" points="317.19,-174.38 307.19,-177.88 317.19,-181.38 317.19,-174.38"/>
</a>
</g>
</g>
<!-- Node8 -->
<g id="Node000008" class="node">
<title>Node8</title>
<g id="a_Node000008"><a xlink:href="structfloppy_1_1math_1_1detail_1_1basic__numeric__newtype.html" target="_top" xlink:title=" ">
<polygon fill="white" stroke="#666666" points="583.75,-150.12 452.25,-150.12 452.25,-119.62 583.75,-119.62 583.75,-150.12"/>
<text text-anchor="start" x="460.25" y="-135.68" font-family="Helvetica,sans-Serif" font-size="11.00">basic_numeric_newtype</text>
<text text-anchor="middle" x="518" y="-124.42" font-family="Helvetica,sans-Serif" font-size="11.00">&lt; angle&lt; f32 &gt;, U &gt;</text>
</a>
</g>
</g>
<!-- Node1&#45;&gt;Node8 -->
<g id="edge8_Node000001_Node000008" class="edge">
<title>Node1&#45;&gt;Node8</title>
<g id="a_edge8_Node000001_Node000008"><a xlink:title=" ">
<path fill="none" stroke="orange" stroke-dasharray="5,2" d="M316.68,-163.72C318.89,-163.34 321.09,-162.98 323.25,-162.62 366.01,-155.63 414.23,-148.72 451.88,-143.54"/>
<polygon fill="orange" stroke="orange" points="316.26,-160.24 307,-165.38 317.45,-167.14 316.26,-160.24"/>
</a>
</g>
<text text-anchor="middle" x="378.38" y="-163.68" font-family="Helvetica,sans-Serif" font-size="11.00" fill="grey"> &lt; angle&lt; f32 &gt;, U &gt;</text>
</g>
<!-- Node9 -->
<g id="Node000009" class="node">
<title>Node9</title>
<g id="a_Node000009"><a xlink:href="structfloppy_1_1math_1_1detail_1_1basic__numeric__newtype.html" target="_top" xlink:title=" ">
<polygon fill="white" stroke="#666666" points="583.75,-101.75 452.25,-101.75 452.25,-60 583.75,-60 583.75,-101.75"/>
<text text-anchor="start" x="460.25" y="-87.3" font-family="Helvetica,sans-Serif" font-size="11.00">basic_numeric_newtype</text>
<text text-anchor="start" x="460.25" y="-76.05" font-family="Helvetica,sans-Serif" font-size="11.00">&lt; length&lt; default_unit,</text>
<text text-anchor="middle" x="518" y="-64.8" font-family="Helvetica,sans-Serif" font-size="11.00"> f32 &gt;, f32 &gt;</text>
</a>
</g>
</g>
<!-- Node1&#45;&gt;Node9 -->
<g id="edge9_Node000001_Node000009" class="edge">
<title>Node1&#45;&gt;Node9</title>
<g id="a_edge9_Node000001_Node000009"><a xlink:title=" ">
<path fill="none" stroke="orange" stroke-dasharray="5,2" d="M267.21,-155.12C282.66,-143.08 303,-129.04 323.25,-120.38 364.12,-102.89 413.22,-92.99 451.77,-87.47"/>
<polygon fill="orange" stroke="orange" points="265.06,-152.36 259.45,-161.35 269.44,-157.82 265.06,-152.36"/>
</a>
</g>
<text text-anchor="start" x="323.25" y="-132.93" font-family="Helvetica,sans-Serif" font-size="11.00" fill="grey"> &lt; length&lt; default_unit,</text>
<text text-anchor="middle" x="378.38" y="-121.67" font-family="Helvetica,sans-Serif" font-size="11.00" fill="grey"> f32 &gt;, f32 &gt;</text>
</g>
<!-- Node10 -->
<g id="Node000010" class="node">
<title>Node10</title>
<g id="a_Node000010"><a xlink:href="structfloppy_1_1math_1_1detail_1_1basic__numeric__newtype.html" target="_top" xlink:title=" ">
<polygon fill="white" stroke="#666666" points="583.75,-41.75 452.25,-41.75 452.25,0 583.75,0 583.75,-41.75"/>
<text text-anchor="start" x="460.25" y="-27.3" font-family="Helvetica,sans-Serif" font-size="11.00">basic_numeric_newtype</text>
<text text-anchor="start" x="460.25" y="-16.05" font-family="Helvetica,sans-Serif" font-size="11.00">&lt; scale&lt; S, D, f32 &gt;,</text>
<text text-anchor="middle" x="518" y="-4.8" font-family="Helvetica,sans-Serif" font-size="11.00"> f32 &gt;</text>
</a>
</g>
</g>
<!-- Node1&#45;&gt;Node10 -->
<g id="edge10_Node000001_Node000010" class="edge">
<title>Node1&#45;&gt;Node10</title>
<g id="a_edge10_Node000001_Node000010"><a xlink:title=" ">
<path fill="none" stroke="orange" stroke-dasharray="5,2" d="M252.45,-151.91C265.9,-125.68 290.25,-86.04 323.25,-64.38 361.44,-39.31 412,-28.54 451.89,-23.98"/>
<polygon fill="orange" stroke="orange" points="249.31,-150.36 248.03,-160.88 255.59,-153.46 249.31,-150.36"/>
</a>
</g>
<text text-anchor="start" x="333.38" y="-76.92" font-family="Helvetica,sans-Serif" font-size="11.00" fill="grey"> &lt; scale&lt; S, D, f32</text>
<text text-anchor="middle" x="378.38" y="-65.67" font-family="Helvetica,sans-Serif" font-size="11.00" fill="grey"> &gt;, f32 &gt;</text>
</g>
<!-- Node2 -->
<g id="Node000002" class="node">
<title>Node2</title>
<g id="a_Node000002"><a xlink:href="structfloppy_1_1math_1_1detail_1_1default__comparable.html" target="_top" xlink:title="CRTP base for trivially comparable numeric types.">
<polygon fill="white" stroke="#666666" points="136.75,-187.5 0,-187.5 0,-168.25 136.75,-168.25 136.75,-187.5"/>
<text text-anchor="middle" x="68.38" y="-173.05" font-family="Helvetica,sans-Serif" font-size="11.00">default_comparable&lt; T &gt;</text>
</a>
</g>
</g>
<!-- Node2&#45;&gt;Node1 -->
<g id="edge1_Node000001_Node000002" class="edge">
<title>Node2&#45;&gt;Node1</title>
<g id="a_edge1_Node000001_Node000002"><a xlink:title=" ">
<path fill="none" stroke="#63b8ff" d="M148.5,-177.88C156.84,-177.88 165.26,-177.88 173.42,-177.88"/>
<polygon fill="#63b8ff" stroke="#63b8ff" points="148.7,-174.38 138.7,-177.88 148.7,-181.38 148.7,-174.38"/>
</a>
</g>
</g>
<!-- Node4&#45;&gt;Node3 -->
<g id="edge5_Node000004_Node000003" class="edge">
<title>Node4&#45;&gt;Node3</title>
<g id="a_edge5_Node000004_Node000003"><a xlink:title=" ">
<path fill="none" stroke="orange" stroke-dasharray="5,2" d="M596.09,-263.25C630.12,-266.11 670.53,-270.19 706.75,-275.62 712.46,-276.48 718.37,-277.48 724.28,-278.55"/>
<polygon fill="orange" stroke="orange" points="596.58,-259.78 586.32,-262.45 596,-266.75 596.58,-259.78"/>
</a>
</g>
<text text-anchor="middle" x="654.62" y="-275.68" font-family="Helvetica,sans-Serif" font-size="11.00" fill="grey"> &lt; angle&lt; f32 &gt;, f32 &gt;</text>
</g>
<!-- Node5 -->
<g id="Node000005" class="node">
<title>Node5</title>
<g id="a_Node000005"><a xlink:href="structfloppy_1_1math_1_1angle.html" target="_top" xlink:title="Newtype describing an angle.">
<polygon fill="white" stroke="#666666" points="825.5,-251.5 757,-251.5 757,-232.25 825.5,-232.25 825.5,-251.5"/>
<text text-anchor="middle" x="791.25" y="-237.05" font-family="Helvetica,sans-Serif" font-size="11.00">angle&lt; T &gt;</text>
</a>
</g>
</g>
<!-- Node4&#45;&gt;Node5 -->
<g id="edge4_Node000004_Node000005" class="edge">
<title>Node4&#45;&gt;Node5</title>
<g id="a_edge4_Node000004_Node000005"><a xlink:title=" ">
<path fill="none" stroke="#63b8ff" d="M596.06,-253.33C648.99,-250.21 716.65,-246.22 756.54,-243.86"/>
<polygon fill="#63b8ff" stroke="#63b8ff" points="595.95,-249.83 586.17,-253.91 596.36,-256.82 595.95,-249.83"/>
</a>
</g>
</g>
</g>
</svg>

<g id="navigator" transform="translate(0 0)" fill="#404254">
  <rect fill="#f2f5e9" fill-opacity="0.5" stroke="#606060" stroke-width=".5" x="0" y="0" width="60" height="60"/>
  <use id="zoomplus" xlink:href="#zoomPlus" x="17" y="9" onmousedown="handleZoom(evt,'in')"/>
  <use id="zoomminus" xlink:href="#zoomMin" x="42" y="9" onmousedown="handleZoom(evt,'out')"/>
  <use id="reset" xlink:href="#resetDef" x="30" y="36" onmousedown="handleReset()"/>
   <use id="arrowup" xlink:href="#arrowUp" x="0" y="0" onmousedown="handlePan(0,-1)"/>
  <use id="arrowright" xlink:href="#arrowRight" x="0" y="0" onmousedown="handlePan(1,0)"/>
  <use id="arrowdown" xlink:href="#arrowDown" x="0" y="0" onmousedown="handlePan(0,1)"/>
  <use id="arrowleft" xlink:href="#arrowLeft" x="0" y="0" onmousedown="handlePan(-1,0)"/>
</g>
<svg viewBox="0 0 15 15" width="100%" height="30px" preserveAspectRatio="xMaxYMin meet">
 <g id="arrow_out" transform="scale(0.3 0.3)">
  <a xlink:href="structfloppy_1_1math_1_1detail_1_1basic__numeric__newtype__inherit__graph_org.svg" target="_base">
   <rect id="button" ry="5" rx="5" y="6" x="6" height="38" width="38"
        fill="#f2f5e9" fill-opacity="0.5" stroke="#606060" stroke-width="1.0"/>
   <path id="arrow"
     d="M 11.500037,31.436501 C 11.940474,20.09759 22.043105,11.32322 32.158766,21.979434 L 37.068811,17.246167 C 37.068811,17.246167 37.088388,32 37.088388,32 L 22.160133,31.978069 C 22.160133,31.978069 26.997745,27.140456 26.997745,27.140456 C 18.528582,18.264221 13.291696,25.230495 11.500037,31.436501 z"
     style="fill:#404040;"/>
  </a>
 </g>
</svg>

<style type='text/css'>
<![CDATA[
[data-mouse-over-selected='false'] { opacity: 0.7; }
[data-mouse-over-selected='true']  { opacity: 1.0; }
]]>
</style>
<script type="application/ecmascript"><![CDATA[
document.addEventListener('DOMContentLoaded', (event) => {
  highlightEdges();
  highlightAdjacentNodes();
});
]]></script>
</svg>
