<?xml version="1.0" encoding="UTF-8" standalone="no"?>
<!DOCTYPE svg PUBLIC "-//W3C//DTD SVG 1.1//EN"
 "http://www.w3.org/Graphics/SVG/1.1/DTD/svg11.dtd">
<!-- Generated by graphviz version 10.0.1 (0)
 -->
<!-- Title: pin Pages: 1 -->
<svg width="260pt" height="138pt"
 viewBox="0.00 0.00 260.25 137.75" xmlns="http://www.w3.org/2000/svg" xmlns:xlink="http://www.w3.org/1999/xlink">

<svg id="main" version="1.1" xmlns="http://www.w3.org/2000/svg" xmlns:xlink="http://www.w3.org/1999/xlink" xml:space="preserve" onload="init(evt)">
<style type="text/css"><![CDATA[
.node, .edge {opacity: 0.7;}
.node.selected, .edge.selected {opacity: 1;}
.edge:hover path { stroke: red; }
.edge:hover polygon { stroke: red; fill: red; }
]]></style>
<script type="application/ecmascript" xlink:href="svg.min.js"/>
<svg id="graph" class="graph">
<g id="graph0" class="graph" transform="scale(1 1) rotate(0) translate(4 133.75)">
<title>pin</title>
<!-- Node1 -->
<g id="Node000001" class="node">
<title>Node1</title>
<g id="a_Node000001"><a xlink:title="Disallow copy and move operations for a type.">
<polygon fill="#999999" stroke="#666666" points="124.62,-74.5 94.38,-74.5 94.38,-55.25 124.62,-55.25 124.62,-74.5"/>
<text text-anchor="middle" x="109.5" y="-60.05" font-family="Helvetica,sans-Serif" font-size="11.00">pin</text>
</a>
</g>
</g>
<!-- Node4 -->
<g id="Node000004" class="node">
<title>Node4</title>
<g id="a_Node000004"><a xlink:href="structfloppy_1_1singleton.html" target="_top" xlink:title="Singleton pattern trait.">
<polygon fill="white" stroke="#666666" points="85,-19.25 0,-19.25 0,0 85,0 85,-19.25"/>
<text text-anchor="middle" x="42.5" y="-4.8" font-family="Helvetica,sans-Serif" font-size="11.00">singleton&lt; T &gt;</text>
</a>
</g>
</g>
<!-- Node1&#45;&gt;Node4 -->
<g id="edge3_Node000001_Node000004" class="edge">
<title>Node1&#45;&gt;Node4</title>
<g id="a_edge3_Node000001_Node000004"><a xlink:title=" ">
<path fill="none" stroke="#63b8ff" d="M89.45,-47.94C77.75,-38.64 63.43,-27.26 53.7,-19.52"/>
<polygon fill="#63b8ff" stroke="#63b8ff" points="86.94,-50.42 96.95,-53.9 91.3,-44.94 86.94,-50.42"/>
</a>
</g>
</g>
<!-- Node5 -->
<g id="Node000005" class="node">
<title>Node5</title>
<g id="a_Node000005"><a xlink:href="classfloppy_1_1stacktrace_1_1signal__watcher.html" target="_top" xlink:title=" ">
<polygon fill="white" stroke="#bfbfbf" points="252.25,-19.25 102.75,-19.25 102.75,0 252.25,0 252.25,-19.25"/>
<text text-anchor="middle" x="177.5" y="-4.8" font-family="Helvetica,sans-Serif" font-size="11.00">signal_watcher&lt; Behavior &gt;</text>
</a>
</g>
</g>
<!-- Node1&#45;&gt;Node5 -->
<g id="edge4_Node000001_Node000005" class="edge">
<title>Node1&#45;&gt;Node5</title>
<g id="a_edge4_Node000001_Node000005"><a xlink:title=" ">
<path fill="none" stroke="#8b1a1a" d="M129.85,-47.94C141.72,-38.64 156.26,-27.26 166.14,-19.52"/>
<polygon fill="#8b1a1a" stroke="#8b1a1a" points="127.94,-44.99 122.23,-53.91 132.26,-50.5 127.94,-44.99"/>
</a>
</g>
</g>
<!-- Node2 -->
<g id="Node000002" class="node">
<title>Node2</title>
<g id="a_Node000002"><a xlink:href="structfloppy_1_1non__copyable.html" target="_top" xlink:title="Disallow copy operations for a type.">
<polygon fill="white" stroke="#666666" points="100.88,-129.75 18.12,-129.75 18.12,-110.5 100.88,-110.5 100.88,-129.75"/>
<text text-anchor="middle" x="59.5" y="-115.3" font-family="Helvetica,sans-Serif" font-size="11.00">non_copyable</text>
</a>
</g>
</g>
<!-- Node2&#45;&gt;Node1 -->
<g id="edge1_Node000001_Node000002" class="edge">
<title>Node2&#45;&gt;Node1</title>
<g id="a_edge1_Node000001_Node000002"><a xlink:title=" ">
<path fill="none" stroke="#63b8ff" d="M75.54,-102.04C84.03,-93 94.1,-82.27 101.06,-74.86"/>
<polygon fill="#63b8ff" stroke="#63b8ff" points="73.09,-99.54 68.79,-109.23 78.19,-104.33 73.09,-99.54"/>
</a>
</g>
</g>
<!-- Node3 -->
<g id="Node000003" class="node">
<title>Node3</title>
<g id="a_Node000003"><a xlink:href="structfloppy_1_1non__movable.html" target="_top" xlink:title="Disallow move operations for a type.">
<polygon fill="white" stroke="#666666" points="199.75,-129.75 119.25,-129.75 119.25,-110.5 199.75,-110.5 199.75,-129.75"/>
<text text-anchor="middle" x="159.5" y="-115.3" font-family="Helvetica,sans-Serif" font-size="11.00">non_movable</text>
</a>
</g>
</g>
<!-- Node3&#45;&gt;Node1 -->
<g id="edge2_Node000001_Node000003" class="edge">
<title>Node3&#45;&gt;Node1</title>
<g id="a_edge2_Node000001_Node000003"><a xlink:title=" ">
<path fill="none" stroke="#63b8ff" d="M143.46,-102.04C134.97,-93 124.9,-82.27 117.94,-74.86"/>
<polygon fill="#63b8ff" stroke="#63b8ff" points="140.81,-104.33 150.21,-109.23 145.91,-99.54 140.81,-104.33"/>
</a>
</g>
</g>
</g>
</svg>
</svg>

<style type='text/css'>
<![CDATA[
[data-mouse-over-selected='false'] { opacity: 0.7; }
[data-mouse-over-selected='true']  { opacity: 1.0; }
]]>
</style>
<script type="application/ecmascript"><![CDATA[
document.addEventListener('DOMContentLoaded', (event) => {
  highlightEdges();
  highlightAdjacentNodes();
});
]]></script>
</svg>
