<?xml version="1.0" encoding="UTF-8" standalone="no"?>
<!DOCTYPE svg PUBLIC "-//W3C//DTD SVG 1.1//EN"
 "http://www.w3.org/Graphics/SVG/1.1/DTD/svg11.dtd">
<!-- Generated by graphviz version 10.0.1 (0)
 -->
<!-- Title: resolved_trace Pages: 1 -->
<svg width="342pt" height="306pt"
 viewBox="0.00 0.00 342.00 305.50" xmlns="http://www.w3.org/2000/svg" xmlns:xlink="http://www.w3.org/1999/xlink">

<svg id="main" version="1.1" xmlns="http://www.w3.org/2000/svg" xmlns:xlink="http://www.w3.org/1999/xlink" xml:space="preserve" onload="init(evt)">
<style type="text/css"><![CDATA[
.node, .edge {opacity: 0.7;}
.node.selected, .edge.selected {opacity: 1;}
.edge:hover path { stroke: red; }
.edge:hover polygon { stroke: red; fill: red; }
]]></style>
<script type="application/ecmascript" xlink:href="svg.min.js"/>
<svg id="graph" class="graph">
<g id="graph0" class="graph" transform="scale(1 1) rotate(0) translate(4 301.5)">
<title>resolved_trace</title>
<!-- Node1 -->
<g id="Node000001" class="node">
<title>Node1</title>
<g id="a_Node000001"><a xlink:title=" ">
<polygon fill="#999999" stroke="#666666" points="227.25,-19.25 140.75,-19.25 140.75,0 227.25,0 227.25,-19.25"/>
<text text-anchor="middle" x="184" y="-4.8" font-family="Helvetica,sans-Serif" font-size="11.00">resolved_trace</text>
</a>
</g>
</g>
<!-- Node2 -->
<g id="Node000002" class="node">
<title>Node2</title>
<g id="a_Node000002"><a xlink:href="structfloppy_1_1stacktrace_1_1trace.html" target="_top" xlink:title=" ">
<polygon fill="white" stroke="#bfbfbf" points="40,-85.75 0,-85.75 0,-66.5 40,-66.5 40,-85.75"/>
<text text-anchor="middle" x="20" y="-71.3" font-family="Helvetica,sans-Serif" font-size="11.00">trace</text>
</a>
</g>
</g>
<!-- Node2&#45;&gt;Node1 -->
<g id="edge1_Node000001_Node000002" class="edge">
<title>Node2&#45;&gt;Node1</title>
<g id="a_edge1_Node000001_Node000002"><a xlink:title=" ">
<path fill="none" stroke="#63b8ff" d="M50.98,-62.94C82.98,-50.36 132.18,-31 160.92,-19.7"/>
<polygon fill="#63b8ff" stroke="#63b8ff" points="49.87,-59.62 41.85,-66.53 52.43,-66.13 49.87,-59.62"/>
</a>
</g>
</g>
<!-- Node3 -->
<g id="Node000003" class="node">
<title>Node3</title>
<g id="a_Node000003"><a xlink:title=" ">
<polygon fill="white" stroke="#666666" points="279.12,-241.25 236.88,-241.25 236.88,-222 279.12,-222 279.12,-241.25"/>
<text text-anchor="middle" x="258" y="-226.8" font-family="Helvetica,sans-Serif" font-size="11.00">string</text>
</a>
</g>
</g>
<!-- Node3&#45;&gt;Node1 -->
<g id="edge2_Node000001_Node000003" class="edge">
<title>Node3&#45;&gt;Node1</title>
<g id="a_edge2_Node000001_Node000003"><a xlink:title=" ">
<path fill="none" stroke="#9a32cd" stroke-dasharray="5,2" d="M259.82,-210.44C261.84,-178.15 262.09,-113.69 238,-66.5 227.94,-46.8 208.61,-29.41 196.01,-19.45"/>
<polygon fill="#9a32cd" stroke="#9a32cd" points="256.34,-210.08 259.07,-220.32 263.32,-210.62 256.34,-210.08"/>
</a>
</g>
<text text-anchor="middle" x="295" y="-115.8" font-family="Helvetica,sans-Serif" font-size="11.00" fill="grey"> object_filename</text>
<text text-anchor="middle" x="295" y="-104.55" font-family="Helvetica,sans-Serif" font-size="11.00" fill="grey">object_function</text>
</g>
<!-- Node5 -->
<g id="Node000005" class="node">
<title>Node5</title>
<g id="a_Node000005"><a xlink:href="structfloppy_1_1stacktrace_1_1resolved__trace_1_1SourceLoc.html" target="_top" xlink:title=" ">
<polygon fill="white" stroke="#bfbfbf" points="225.88,-163.5 158.12,-163.5 158.12,-144.25 225.88,-144.25 225.88,-163.5"/>
<text text-anchor="middle" x="192" y="-149.05" font-family="Helvetica,sans-Serif" font-size="11.00">SourceLoc</text>
</a>
</g>
</g>
<!-- Node3&#45;&gt;Node5 -->
<g id="edge5_Node000005_Node000003" class="edge">
<title>Node3&#45;&gt;Node5</title>
<g id="a_edge5_Node000005_Node000003"><a xlink:title=" ">
<path fill="none" stroke="#9a32cd" stroke-dasharray="5,2" d="M229.34,-215.82C224.32,-212.4 219.46,-208.43 215.5,-204 204.8,-192.01 197.95,-174.28 194.55,-163.72"/>
<polygon fill="#9a32cd" stroke="#9a32cd" points="227.31,-218.68 237.66,-220.94 230.98,-212.72 227.31,-218.68"/>
</a>
</g>
<text text-anchor="middle" x="236.75" y="-193.55" font-family="Helvetica,sans-Serif" font-size="11.00" fill="grey"> filename</text>
<text text-anchor="middle" x="236.75" y="-182.3" font-family="Helvetica,sans-Serif" font-size="11.00" fill="grey">function</text>
</g>
<!-- Node4 -->
<g id="Node000004" class="node">
<title>Node4</title>
<g id="a_Node000004"><a xlink:title=" ">
<polygon fill="white" stroke="#666666" points="316.25,-297.5 199.75,-297.5 199.75,-278.25 316.25,-278.25 316.25,-297.5"/>
<text text-anchor="middle" x="258" y="-283.05" font-family="Helvetica,sans-Serif" font-size="11.00">basic_string&lt; Char &gt;</text>
</a>
</g>
</g>
<!-- Node4&#45;&gt;Node3 -->
<g id="edge3_Node000003_Node000004" class="edge">
<title>Node4&#45;&gt;Node3</title>
<g id="a_edge3_Node000003_Node000004"><a xlink:title=" ">
<path fill="none" stroke="#63b8ff" d="M258,-266.69C258,-257.98 258,-248.24 258,-241.42"/>
<polygon fill="#63b8ff" stroke="#63b8ff" points="254.5,-266.4 258,-276.4 261.5,-266.4 254.5,-266.4"/>
</a>
</g>
</g>
<!-- Node5&#45;&gt;Node1 -->
<g id="edge4_Node000001_Node000005" class="edge">
<title>Node5&#45;&gt;Node1</title>
<g id="a_edge4_Node000001_Node000005"><a xlink:title=" ">
<path fill="none" stroke="#9a32cd" stroke-dasharray="5,2" d="M195.61,-132.94C199.16,-109.68 203.09,-70.22 196,-37.25 194.68,-31.1 191.82,-24.66 189.23,-19.66"/>
<polygon fill="#9a32cd" stroke="#9a32cd" points="192.2,-132.11 194.01,-142.55 199.11,-133.26 192.2,-132.11"/>
</a>
</g>
<text text-anchor="middle" x="216.62" y="-71.3" font-family="Helvetica,sans-Serif" font-size="11.00" fill="grey"> source</text>
</g>
<!-- Node7 -->
<g id="Node000007" class="node">
<title>Node7</title>
<g id="a_Node000007"><a xlink:title=" ">
<polygon fill="white" stroke="#666666" points="174.25,-85.75 57.75,-85.75 57.75,-66.5 174.25,-66.5 174.25,-85.75"/>
<text text-anchor="middle" x="116" y="-71.3" font-family="Helvetica,sans-Serif" font-size="11.00">vector&lt; SourceLoc &gt;</text>
</a>
</g>
</g>
<!-- Node5&#45;&gt;Node7 -->
<g id="edge8_Node000007_Node000005" class="edge">
<title>Node5&#45;&gt;Node7</title>
<g id="a_edge8_Node000007_Node000005"><a xlink:title=" ">
<path fill="none" stroke="#9a32cd" stroke-dasharray="5,2" d="M164.81,-138.19C159.43,-134.66 154.05,-130.63 149.5,-126.25 136.85,-114.08 126.23,-96.41 120.52,-85.91"/>
<polygon fill="#9a32cd" stroke="#9a32cd" points="162.65,-140.97 173.01,-143.19 166.29,-135 162.65,-140.97"/>
</a>
</g>
<text text-anchor="middle" x="173.25" y="-110.17" font-family="Helvetica,sans-Serif" font-size="11.00" fill="grey"> elements</text>
</g>
<!-- Node6 -->
<g id="Node000006" class="node">
<title>Node6</title>
<g id="a_Node000006"><a xlink:title=" ">
<polygon fill="white" stroke="#bfbfbf" points="203.75,-241.25 144.25,-241.25 144.25,-222 203.75,-222 203.75,-241.25"/>
<text text-anchor="middle" x="174" y="-226.8" font-family="Helvetica,sans-Serif" font-size="11.00">unsigned</text>
</a>
</g>
</g>
<!-- Node6&#45;&gt;Node5 -->
<g id="edge6_Node000005_Node000006" class="edge">
<title>Node6&#45;&gt;Node5</title>
<g id="a_edge6_Node000005_Node000006"><a xlink:title=" ">
<path fill="none" stroke="#9a32cd" stroke-dasharray="5,2" d="M172.28,-210.37C172.1,-201.35 172.72,-190.72 175.5,-181.5 177.45,-175.04 181.38,-168.6 184.92,-163.66"/>
<polygon fill="#9a32cd" stroke="#9a32cd" points="168.77,-210.41 172.83,-220.2 175.76,-210.02 168.77,-210.41"/>
</a>
</g>
<text text-anchor="middle" x="184.25" y="-193.55" font-family="Helvetica,sans-Serif" font-size="11.00" fill="grey"> col</text>
<text text-anchor="middle" x="184.25" y="-182.3" font-family="Helvetica,sans-Serif" font-size="11.00" fill="grey">line</text>
</g>
<!-- Node7&#45;&gt;Node1 -->
<g id="edge7_Node000001_Node000007" class="edge">
<title>Node7&#45;&gt;Node1</title>
<g id="a_edge7_Node000001_Node000007"><a xlink:title=" ">
<path fill="none" stroke="#9a32cd" stroke-dasharray="5,2" d="M133.71,-58.33C146.8,-45.91 164.1,-29.5 174.63,-19.52"/>
<polygon fill="#9a32cd" stroke="#9a32cd" points="131.4,-55.69 126.55,-65.11 136.22,-60.77 131.4,-55.69"/>
</a>
</g>
<text text-anchor="middle" x="173.38" y="-38.05" font-family="Helvetica,sans-Serif" font-size="11.00" fill="grey"> inliners</text>
</g>
<!-- Node8 -->
<g id="Node000008" class="node">
<title>Node8</title>
<g id="a_Node000008"><a xlink:title=" ">
<polygon fill="white" stroke="#666666" points="86.75,-163.5 15.25,-163.5 15.25,-144.25 86.75,-144.25 86.75,-163.5"/>
<text text-anchor="middle" x="51" y="-149.05" font-family="Helvetica,sans-Serif" font-size="11.00">vector&lt; T &gt;</text>
</a>
</g>
</g>
<!-- Node8&#45;&gt;Node7 -->
<g id="edge9_Node000007_Node000008" class="edge">
<title>Node8&#45;&gt;Node7</title>
<g id="a_edge9_Node000007_Node000008"><a xlink:title=" ">
<path fill="none" stroke="orange" stroke-dasharray="5,2" d="M46.49,-132.75C45.49,-123.2 46.09,-112.09 51.75,-103.75 57.18,-95.76 65.49,-90.16 74.35,-86.24"/>
<polygon fill="orange" stroke="orange" points="43.03,-133.28 48.18,-142.54 49.93,-132.09 43.03,-133.28"/>
</a>
</g>
<text text-anchor="middle" x="89.12" y="-110.17" font-family="Helvetica,sans-Serif" font-size="11.00" fill="grey"> &lt; SourceLoc &gt;</text>
</g>
<!-- Node9 -->
<g id="Node000009" class="node">
<title>Node9</title>
<g id="a_Node000009"><a xlink:title=" ">
<polygon fill="white" stroke="#bfbfbf" points="65.4,-241.25 36.6,-241.25 36.6,-222 65.4,-222 65.4,-241.25"/>
<text text-anchor="middle" x="51" y="-226.8" font-family="Helvetica,sans-Serif" font-size="11.00">T</text>
</a>
</g>
</g>
<!-- Node9&#45;&gt;Node8 -->
<g id="edge10_Node000008_Node000009" class="edge">
<title>Node9&#45;&gt;Node8</title>
<g id="a_edge10_Node000008_Node000009"><a xlink:title=" ">
<path fill="none" stroke="#9a32cd" stroke-dasharray="5,2" d="M51,-210.35C51,-195.2 51,-175.23 51,-163.85"/>
<polygon fill="#9a32cd" stroke="#9a32cd" points="47.5,-210.12 51,-220.12 54.5,-210.12 47.5,-210.12"/>
</a>
</g>
<text text-anchor="middle" x="74.25" y="-187.93" font-family="Helvetica,sans-Serif" font-size="11.00" fill="grey"> elements</text>
</g>
</g>
</svg>
</svg>

<style type='text/css'>
<![CDATA[
[data-mouse-over-selected='false'] { opacity: 0.7; }
[data-mouse-over-selected='true']  { opacity: 1.0; }
]]>
</style>
<script type="application/ecmascript"><![CDATA[
document.addEventListener('DOMContentLoaded', (event) => {
  highlightEdges();
  highlightAdjacentNodes();
});
]]></script>
</svg>
