<?xml version="1.0" encoding="UTF-8" standalone="no"?>
<!DOCTYPE svg PUBLIC "-//W3C//DTD SVG 1.1//EN"
 "http://www.w3.org/Graphics/SVG/1.1/DTD/svg11.dtd">
<!-- Generated by graphviz version 10.0.1 (0)
 -->
<!-- Title: ResolvedTrace::SourceLoc Pages: 1 -->
<svg width="173pt" height="161pt"
 viewBox="0.00 0.00 172.75 161.25" xmlns="http://www.w3.org/2000/svg" xmlns:xlink="http://www.w3.org/1999/xlink">
<g id="graph0" class="graph" transform="scale(1 1) rotate(0) translate(4 157.25)">
<title>ResolvedTrace::SourceLoc</title>
<!-- Node1 -->
<g id="Node000001" class="node">
<title>Node1</title>
<g id="a_Node000001"><a xlink:title=" ">
<polygon fill="#999999" stroke="#666666" points="164.75,-19.25 19.75,-19.25 19.75,0 164.75,0 164.75,-19.25"/>
<text text-anchor="middle" x="92.25" y="-4.8" font-family="Helvetica,sans-Serif" font-size="11.00">ResolvedTrace::SourceLoc</text>
</a>
</g>
</g>
<!-- Node2 -->
<g id="Node000002" class="node">
<title>Node2</title>
<g id="a_Node000002"><a xlink:title=" ">
<polygon fill="white" stroke="#666666" points="79.38,-97 37.12,-97 37.12,-77.75 79.38,-77.75 79.38,-97"/>
<text text-anchor="middle" x="58.25" y="-82.55" font-family="Helvetica,sans-Serif" font-size="11.00">string</text>
</a>
</g>
</g>
<!-- Node2&#45;&gt;Node1 -->
<g id="edge1_Node000001_Node000002" class="edge">
<title>Node2&#45;&gt;Node1</title>
<g id="a_edge1_Node000001_Node000002"><a xlink:title=" ">
<path fill="none" stroke="#9a32cd" stroke-dasharray="5,2" d="M56.28,-66.21C56.2,-56.95 57.35,-46.09 61.75,-37.25 65.26,-30.2 71.54,-24.23 77.49,-19.73"/>
<polygon fill="#9a32cd" stroke="#9a32cd" points="52.77,-66.22 56.85,-76 59.76,-65.81 52.77,-66.22"/>
</a>
</g>
<text text-anchor="middle" x="83" y="-49.3" font-family="Helvetica,sans-Serif" font-size="11.00" fill="grey"> filename</text>
<text text-anchor="middle" x="83" y="-38.05" font-family="Helvetica,sans-Serif" font-size="11.00" fill="grey">function</text>
</g>
<!-- Node3 -->
<g id="Node000003" class="node">
<title>Node3</title>
<g id="a_Node000003"><a xlink:title=" ">
<polygon fill="white" stroke="#666666" points="116.5,-153.25 0,-153.25 0,-134 116.5,-134 116.5,-153.25"/>
<text text-anchor="middle" x="58.25" y="-138.8" font-family="Helvetica,sans-Serif" font-size="11.00">basic_string&lt; Char &gt;</text>
</a>
</g>
</g>
<!-- Node3&#45;&gt;Node2 -->
<g id="edge2_Node000002_Node000003" class="edge">
<title>Node3&#45;&gt;Node2</title>
<g id="a_edge2_Node000002_Node000003"><a xlink:title=" ">
<path fill="none" stroke="#63b8ff" d="M58.25,-122.44C58.25,-113.73 58.25,-103.99 58.25,-97.17"/>
<polygon fill="#63b8ff" stroke="#63b8ff" points="54.75,-122.15 58.25,-132.15 61.75,-122.15 54.75,-122.15"/>
</a>
</g>
</g>
<!-- Node4 -->
<g id="Node000004" class="node">
<title>Node4</title>
<g id="a_Node000004"><a xlink:title=" ">
<polygon fill="white" stroke="#bfbfbf" points="157,-97 97.5,-97 97.5,-77.75 157,-77.75 157,-97"/>
<text text-anchor="middle" x="127.25" y="-82.55" font-family="Helvetica,sans-Serif" font-size="11.00">unsigned</text>
</a>
</g>
</g>
<!-- Node4&#45;&gt;Node1 -->
<g id="edge3_Node000001_Node000004" class="edge">
<title>Node4&#45;&gt;Node1</title>
<g id="a_edge3_Node000001_Node000004"><a xlink:title=" ">
<path fill="none" stroke="#9a32cd" stroke-dasharray="5,2" d="M118.76,-67.02C114.73,-57.94 109.82,-47.01 105.25,-37.25 102.46,-31.29 99.21,-24.63 96.66,-19.46"/>
<polygon fill="#9a32cd" stroke="#9a32cd" points="115.44,-68.16 122.67,-75.9 121.84,-65.33 115.44,-68.16"/>
</a>
</g>
<text text-anchor="middle" x="122.5" y="-49.3" font-family="Helvetica,sans-Serif" font-size="11.00" fill="grey"> col</text>
<text text-anchor="middle" x="122.5" y="-38.05" font-family="Helvetica,sans-Serif" font-size="11.00" fill="grey">line</text>
</g>
</g>
</svg>
