<?xml version="1.0" encoding="UTF-8" standalone="no"?>
<!DOCTYPE svg PUBLIC "-//W3C//DTD SVG 1.1//EN"
 "http://www.w3.org/Graphics/SVG/1.1/DTD/svg11.dtd">
<!-- Generated by graphviz version 10.0.1 (0)
 -->
<!-- Title: formatter&lt; enum floppy::platform::operating_system &gt; Pages: 1 -->
<svg width="278pt" height="274pt"
 viewBox="0.00 0.00 277.88 273.75" xmlns="http://www.w3.org/2000/svg" xmlns:xlink="http://www.w3.org/1999/xlink">
<g id="graph0" class="graph" transform="scale(1 1) rotate(0) translate(4 269.75)">
<title>formatter&lt; enum floppy::platform::operating_system &gt;</title>
<!-- Node1 -->
<g id="Node000001" class="node">
<title>Node1</title>
<g id="a_Node000001"><a xlink:title="Formatter for floppy::platform::operating_system.">
<polygon fill="#999999" stroke="#666666" points="139.62,-41.75 11.88,-41.75 11.88,0 139.62,0 139.62,-41.75"/>
<text text-anchor="start" x="19.88" y="-27.3" font-family="Helvetica,sans-Serif" font-size="11.00">formatter&lt; enum floppy</text>
<text text-anchor="start" x="19.88" y="-16.05" font-family="Helvetica,sans-Serif" font-size="11.00">::platform::operating</text>
<text text-anchor="middle" x="75.75" y="-4.8" font-family="Helvetica,sans-Serif" font-size="11.00">_system &gt;</text>
</a>
</g>
</g>
<!-- Node2 -->
<g id="Node000002" class="node">
<title>Node2</title>
<g id="a_Node000002"><a xlink:href="structfloppy_1_1ostream__formatter.html" target="_top" xlink:title=" ">
<polygon fill="white" stroke="#666666" points="131.38,-109.25 20.12,-109.25 20.12,-78.75 131.38,-78.75 131.38,-109.25"/>
<text text-anchor="start" x="28.12" y="-94.8" font-family="Helvetica,sans-Serif" font-size="11.00">ostream_formatter&lt;</text>
<text text-anchor="middle" x="75.75" y="-83.55" font-family="Helvetica,sans-Serif" font-size="11.00"> char &gt;</text>
</a>
</g>
</g>
<!-- Node2&#45;&gt;Node1 -->
<g id="edge1_Node000001_Node000002" class="edge">
<title>Node2&#45;&gt;Node1</title>
<g id="a_edge1_Node000001_Node000002"><a xlink:title=" ">
<path fill="none" stroke="#63b8ff" d="M75.75,-66.95C75.75,-58.71 75.75,-49.74 75.75,-41.99"/>
<polygon fill="#63b8ff" stroke="#63b8ff" points="72.25,-66.75 75.75,-76.75 79.25,-66.75 72.25,-66.75"/>
</a>
</g>
</g>
<!-- Node3 -->
<g id="Node000003" class="node">
<title>Node3</title>
<g id="a_Node000003"><a xlink:href="structfmt_1_1formatter.html" target="_top" xlink:title="Formatter for types which can be easily converted to string.">
<polygon fill="white" stroke="#666666" points="119.5,-198.25 0,-198.25 0,-156.5 119.5,-156.5 119.5,-198.25"/>
<text text-anchor="start" x="8" y="-183.8" font-family="Helvetica,sans-Serif" font-size="11.00">formatter&lt; std::basic</text>
<text text-anchor="start" x="8" y="-172.55" font-family="Helvetica,sans-Serif" font-size="11.00">_string_view&lt; char &gt;,</text>
<text text-anchor="middle" x="59.75" y="-161.3" font-family="Helvetica,sans-Serif" font-size="11.00"> char &gt;</text>
</a>
</g>
</g>
<!-- Node3&#45;&gt;Node2 -->
<g id="edge2_Node000002_Node000003" class="edge">
<title>Node3&#45;&gt;Node2</title>
<g id="a_edge2_Node000002_Node000003"><a xlink:title=" ">
<path fill="none" stroke="#63b8ff" d="M65.91,-145.05C68.31,-132.82 70.96,-119.39 72.89,-109.52"/>
<polygon fill="#63b8ff" stroke="#63b8ff" points="62.49,-144.29 64,-154.77 69.36,-145.64 62.49,-144.29"/>
</a>
</g>
</g>
<!-- Node4 -->
<g id="Node000004" class="node">
<title>Node4</title>
<g id="a_Node000004"><a xlink:href="structfloppy_1_1ostream__formatter.html" target="_top" xlink:title="Formatter for types which support stream output.">
<polygon fill="white" stroke="#666666" points="269.88,-187 137.62,-187 137.62,-167.75 269.88,-167.75 269.88,-187"/>
<text text-anchor="middle" x="203.75" y="-172.55" font-family="Helvetica,sans-Serif" font-size="11.00">ostream_formatter&lt; C &gt;</text>
</a>
</g>
</g>
<!-- Node4&#45;&gt;Node2 -->
<g id="edge3_Node000002_Node000004" class="edge">
<title>Node4&#45;&gt;Node2</title>
<g id="a_edge3_Node000002_Node000004"><a xlink:title=" ">
<path fill="none" stroke="orange" stroke-dasharray="5,2" d="M180.11,-161.35C156.86,-146.57 121.61,-124.15 98.63,-109.54"/>
<polygon fill="orange" stroke="orange" points="177.97,-164.13 188.29,-166.54 181.72,-158.22 177.97,-164.13"/>
</a>
</g>
<text text-anchor="middle" x="164.5" y="-128.05" font-family="Helvetica,sans-Serif" font-size="11.00" fill="grey"> &lt; char &gt;</text>
</g>
<!-- Node5 -->
<g id="Node000005" class="node">
<title>Node5</title>
<g id="a_Node000005"><a xlink:href="structfmt_1_1formatter.html" target="_top" xlink:title="Formatter for types which can be easily converted to string.">
<polygon fill="white" stroke="#666666" points="267.62,-265.75 139.88,-265.75 139.88,-235.25 267.62,-235.25 267.62,-265.75"/>
<text text-anchor="start" x="147.88" y="-251.3" font-family="Helvetica,sans-Serif" font-size="11.00">formatter&lt; std::basic</text>
<text text-anchor="middle" x="203.75" y="-240.05" font-family="Helvetica,sans-Serif" font-size="11.00">_string_view&lt; C &gt;, C &gt;</text>
</a>
</g>
</g>
<!-- Node5&#45;&gt;Node4 -->
<g id="edge4_Node000004_Node000005" class="edge">
<title>Node5&#45;&gt;Node4</title>
<g id="a_edge4_Node000004_Node000005"><a xlink:title=" ">
<path fill="none" stroke="#63b8ff" d="M203.75,-223.36C203.75,-210.68 203.75,-196.28 203.75,-187.26"/>
<polygon fill="#63b8ff" stroke="#63b8ff" points="200.25,-223.25 203.75,-233.25 207.25,-223.25 200.25,-223.25"/>
</a>
</g>
</g>
</g>
</svg>
