<?xml version="1.0" encoding="UTF-8" standalone="no"?>
<!DOCTYPE svg PUBLIC "-//W3C//DTD SVG 1.1//EN"
 "http://www.w3.org/Graphics/SVG/1.1/DTD/svg11.dtd">
<!-- Generated by graphviz version 10.0.1 (0)
 -->
<!-- Title: formattable_base&lt; C &gt; Pages: 1 -->
<svg width="1106pt" height="984pt"
 viewBox="0.00 0.00 1106.00 983.88" xmlns="http://www.w3.org/2000/svg" xmlns:xlink="http://www.w3.org/1999/xlink">
<g id="graph0" class="graph" transform="scale(1 1) rotate(0) translate(4 979.88)">
<title>formattable_base&lt; C &gt;</title>
<!-- Node1 -->
<g id="Node000001" class="node">
<title>Node1</title>
<g id="a_Node000001"><a xlink:title="Interface, providing to_string method.">
<polygon fill="#999999" stroke="#666666" points="127,-384.25 0,-384.25 0,-365 127,-365 127,-384.25"/>
<text text-anchor="middle" x="63.5" y="-369.8" font-family="Helvetica,sans-Serif" font-size="11.00">formattable_base&lt; C &gt;</text>
</a>
</g>
</g>
<!-- Node2 -->
<g id="Node000002" class="node">
<title>Node2</title>
<g id="a_Node000002"><a xlink:href="structfloppy_1_1traits_1_1formattable.html" target="_top" xlink:title=" ">
<polygon fill="white" stroke="#666666" points="607.88,-975.88 502.62,-975.88 502.62,-945.38 607.88,-945.38 607.88,-975.88"/>
<text text-anchor="start" x="510.62" y="-961.42" font-family="Helvetica,sans-Serif" font-size="11.00">formattable&lt; color,</text>
<text text-anchor="middle" x="555.25" y="-950.17" font-family="Helvetica,sans-Serif" font-size="11.00"> char &gt;</text>
</a>
</g>
</g>
<!-- Node1&#45;&gt;Node2 -->
<g id="edge1_Node000001_Node000002" class="edge">
<title>Node1&#45;&gt;Node2</title>
<g id="a_edge1_Node000001_Node000002"><a xlink:title=" ">
<path fill="none" stroke="#63b8ff" d="M66.34,-395.9C72.07,-455.8 92.41,-630.27 145,-764.62 164.29,-813.92 166.06,-832.47 206.5,-866.62 292.14,-938.96 428.35,-956.08 502.32,-959.85"/>
<polygon fill="#63b8ff" stroke="#63b8ff" points="69.85,-395.77 65.45,-386.13 62.88,-396.41 69.85,-395.77"/>
</a>
</g>
</g>
<!-- Node4 -->
<g id="Node000004" class="node">
<title>Node4</title>
<g id="a_Node000004"><a xlink:href="structfloppy_1_1traits_1_1formattable.html" target="_top" xlink:title=" ">
<polygon fill="white" stroke="#666666" points="606.75,-852.88 503.75,-852.88 503.75,-822.38 606.75,-822.38 606.75,-852.88"/>
<text text-anchor="start" x="511.75" y="-838.42" font-family="Helvetica,sans-Serif" font-size="11.00">formattable&lt; color</text>
<text text-anchor="middle" x="555.25" y="-827.17" font-family="Helvetica,sans-Serif" font-size="11.00">::hsv_t, char &gt;</text>
</a>
</g>
</g>
<!-- Node1&#45;&gt;Node4 -->
<g id="edge3_Node000001_Node000004" class="edge">
<title>Node1&#45;&gt;Node4</title>
<g id="a_edge3_Node000001_Node000004"><a xlink:title=" ">
<path fill="none" stroke="#63b8ff" d="M67.38,-395.93C76.65,-456.98 110.89,-635.03 206.5,-741.62 263.07,-804.69 283.27,-823.75 364.25,-848.62 409.89,-862.64 464.54,-857.33 503.49,-850.05"/>
<polygon fill="#63b8ff" stroke="#63b8ff" points="70.88,-395.64 65.99,-386.24 63.95,-396.64 70.88,-395.64"/>
</a>
</g>
</g>
<!-- Node8 -->
<g id="Node000008" class="node">
<title>Node8</title>
<g id="a_Node000008"><a xlink:href="structfloppy_1_1traits_1_1formattable.html" target="_top" xlink:title=" ">
<polygon fill="white" stroke="#666666" points="606.75,-735.88 503.75,-735.88 503.75,-705.38 606.75,-705.38 606.75,-735.88"/>
<text text-anchor="start" x="511.75" y="-721.42" font-family="Helvetica,sans-Serif" font-size="11.00">formattable&lt; color</text>
<text text-anchor="middle" x="555.25" y="-710.17" font-family="Helvetica,sans-Serif" font-size="11.00">::hsl_t, char &gt;</text>
</a>
</g>
</g>
<!-- Node1&#45;&gt;Node8 -->
<g id="edge7_Node000001_Node000008" class="edge">
<title>Node1&#45;&gt;Node8</title>
<g id="a_edge7_Node000001_Node000008"><a xlink:title=" ">
<path fill="none" stroke="#63b8ff" d="M70.25,-395.41C92.44,-470.72 180.63,-728.14 364.25,-789.62 411.35,-805.4 429.54,-807.18 476,-789.62 504.12,-779 528.68,-753.14 542.46,-736.27"/>
<polygon fill="#63b8ff" stroke="#63b8ff" points="73.68,-394.69 67.57,-386.04 66.95,-396.62 73.68,-394.69"/>
</a>
</g>
</g>
<!-- Node10 -->
<g id="Node000010" class="node">
<title>Node10</title>
<g id="a_Node000010"><a xlink:href="structfloppy_1_1traits_1_1formattable.html" target="_top" xlink:title=" ">
<polygon fill="white" stroke="#666666" points="606.75,-686.88 503.75,-686.88 503.75,-656.38 606.75,-656.38 606.75,-686.88"/>
<text text-anchor="start" x="511.75" y="-672.42" font-family="Helvetica,sans-Serif" font-size="11.00">formattable&lt; color</text>
<text text-anchor="middle" x="555.25" y="-661.17" font-family="Helvetica,sans-Serif" font-size="11.00">::hsla_t, char &gt;</text>
</a>
</g>
</g>
<!-- Node1&#45;&gt;Node10 -->
<g id="edge9_Node000001_Node000010" class="edge">
<title>Node1&#45;&gt;Node10</title>
<g id="a_edge9_Node000001_Node000010"><a xlink:title=" ">
<path fill="none" stroke="#63b8ff" d="M74.7,-394.69C89.38,-423.19 117.72,-476.81 145,-520.62 212.39,-628.86 241.56,-670.92 364.25,-705.62 412.04,-719.14 427.66,-717.04 476,-705.62 484.71,-703.57 485.86,-700.34 494,-696.62 500.8,-693.52 508.1,-690.35 515.18,-687.36"/>
<polygon fill="#63b8ff" stroke="#63b8ff" points="77.97,-393.4 70.3,-386.1 71.74,-396.59 77.97,-393.4"/>
</a>
</g>
</g>
<!-- Node12 -->
<g id="Node000012" class="node">
<title>Node12</title>
<g id="a_Node000012"><a xlink:href="structfloppy_1_1traits_1_1formattable.html" target="_top" xlink:title=" ">
<polygon fill="white" stroke="#666666" points="606.75,-637.88 503.75,-637.88 503.75,-607.38 606.75,-607.38 606.75,-637.88"/>
<text text-anchor="start" x="511.75" y="-623.42" font-family="Helvetica,sans-Serif" font-size="11.00">formattable&lt; color</text>
<text text-anchor="middle" x="555.25" y="-612.17" font-family="Helvetica,sans-Serif" font-size="11.00">::hsva_t, char &gt;</text>
</a>
</g>
</g>
<!-- Node1&#45;&gt;Node12 -->
<g id="edge11_Node000001_Node000012" class="edge">
<title>Node1&#45;&gt;Node12</title>
<g id="a_edge11_Node000001_Node000012"><a xlink:title=" ">
<path fill="none" stroke="#63b8ff" d="M76.9,-394.26C112.95,-449.07 224.1,-602.58 364.25,-646.62 413.1,-661.97 471.93,-650.17 511.06,-638.33"/>
<polygon fill="#63b8ff" stroke="#63b8ff" points="79.89,-392.45 71.53,-385.95 74.02,-396.25 79.89,-392.45"/>
</a>
</g>
</g>
<!-- Node14 -->
<g id="Node000014" class="node">
<title>Node14</title>
<g id="a_Node000014"><a xlink:href="structfloppy_1_1traits_1_1formattable.html" target="_top" xlink:title=" ">
<polygon fill="white" stroke="#666666" points="608.25,-389.88 502.25,-389.88 502.25,-359.38 608.25,-359.38 608.25,-389.88"/>
<text text-anchor="start" x="510.25" y="-375.43" font-family="Helvetica,sans-Serif" font-size="11.00">formattable&lt; angle</text>
<text text-anchor="middle" x="555.25" y="-364.18" font-family="Helvetica,sans-Serif" font-size="11.00">&lt; f32 &gt;, char &gt;</text>
</a>
</g>
</g>
<!-- Node1&#45;&gt;Node14 -->
<g id="edge13_Node000001_Node000014" class="edge">
<title>Node1&#45;&gt;Node14</title>
<g id="a_edge13_Node000001_Node000014"><a xlink:title=" ">
<path fill="none" stroke="#63b8ff" d="M138.23,-374.62C238.2,-374.62 414.28,-374.62 501.81,-374.62"/>
<polygon fill="#63b8ff" stroke="#63b8ff" points="138.54,-371.13 128.54,-374.63 138.54,-378.13 138.54,-371.13"/>
</a>
</g>
</g>
<!-- Node15 -->
<g id="Node000015" class="node">
<title>Node15</title>
<g id="a_Node000015"><a xlink:href="structfloppy_1_1traits_1_1formattable.html" target="_top" xlink:title=" ">
<polygon fill="white" stroke="#666666" points="616.5,-927.25 494,-927.25 494,-908 616.5,-908 616.5,-927.25"/>
<text text-anchor="middle" x="555.25" y="-912.8" font-family="Helvetica,sans-Serif" font-size="11.00">formattable&lt; T, char &gt;</text>
</a>
</g>
</g>
<!-- Node1&#45;&gt;Node15 -->
<g id="edge14_Node000001_Node000015" class="edge">
<title>Node1&#45;&gt;Node15</title>
<g id="a_edge14_Node000001_Node000015"><a xlink:title=" ">
<path fill="none" stroke="#63b8ff" d="M65.34,-396.03C69.16,-464.96 90.34,-683.73 206.5,-805.62 264.1,-866.07 284.82,-881.89 364.25,-907.62 406.04,-921.16 455.69,-923.33 493.76,-922.29"/>
<polygon fill="#63b8ff" stroke="#63b8ff" points="68.84,-395.97 64.86,-386.15 61.84,-396.3 68.84,-395.97"/>
</a>
</g>
</g>
<!-- Node23 -->
<g id="Node000023" class="node">
<title>Node23</title>
<g id="a_Node000023"><a xlink:href="structfloppy_1_1traits_1_1formattable.html" target="_top" xlink:title=" ">
<polygon fill="white" stroke="#666666" points="609.75,-326.5 500.75,-326.5 500.75,-284.75 609.75,-284.75 609.75,-326.5"/>
<text text-anchor="start" x="508.75" y="-312.05" font-family="Helvetica,sans-Serif" font-size="11.00">formattable&lt; length</text>
<text text-anchor="start" x="508.75" y="-300.8" font-family="Helvetica,sans-Serif" font-size="11.00">&lt; default_unit, f32</text>
<text text-anchor="middle" x="555.25" y="-289.55" font-family="Helvetica,sans-Serif" font-size="11.00"> &gt;, char &gt;</text>
</a>
</g>
</g>
<!-- Node1&#45;&gt;Node23 -->
<g id="edge22_Node000001_Node000023" class="edge">
<title>Node1&#45;&gt;Node23</title>
<g id="a_edge22_Node000001_Node000023"><a xlink:title=" ">
<path fill="none" stroke="#63b8ff" d="M107.8,-361.4C165.61,-344.49 271.48,-316.16 364.25,-305.62 409.97,-300.43 462.28,-300.9 500.42,-302.4"/>
<polygon fill="#63b8ff" stroke="#63b8ff" points="106.95,-358 98.35,-364.19 108.94,-364.71 106.95,-358"/>
</a>
</g>
</g>
<!-- Node24 -->
<g id="Node000024" class="node">
<title>Node24</title>
<g id="a_Node000024"><a xlink:href="structfloppy_1_1traits_1_1formattable.html" target="_top" xlink:title=" ">
<polygon fill="white" stroke="#666666" points="612.75,-265.5 497.75,-265.5 497.75,-223.75 612.75,-223.75 612.75,-265.5"/>
<text text-anchor="start" x="505.75" y="-251.05" font-family="Helvetica,sans-Serif" font-size="11.00">formattable&lt; point2d</text>
<text text-anchor="start" x="505.75" y="-239.8" font-family="Helvetica,sans-Serif" font-size="11.00">&lt; default_unit, f32 &gt;</text>
<text text-anchor="middle" x="555.25" y="-228.55" font-family="Helvetica,sans-Serif" font-size="11.00">, char &gt;</text>
</a>
</g>
</g>
<!-- Node1&#45;&gt;Node24 -->
<g id="edge23_Node000001_Node000024" class="edge">
<title>Node1&#45;&gt;Node24</title>
<g id="a_edge23_Node000001_Node000024"><a xlink:title=" ">
<path fill="none" stroke="#63b8ff" d="M88.68,-358.53C137.94,-326.87 254.55,-257.57 364.25,-234.62 408.38,-225.4 459.47,-228.85 497.55,-234.09"/>
<polygon fill="#63b8ff" stroke="#63b8ff" points="86.96,-355.47 80.49,-363.86 90.78,-361.34 86.96,-355.47"/>
</a>
</g>
</g>
<!-- Node25 -->
<g id="Node000025" class="node">
<title>Node25</title>
<g id="a_Node000025"><a xlink:href="structfloppy_1_1traits_1_1formattable.html" target="_top" xlink:title=" ">
<polygon fill="white" stroke="#666666" points="612.75,-204.88 497.75,-204.88 497.75,-174.38 612.75,-174.38 612.75,-204.88"/>
<text text-anchor="start" x="505.75" y="-190.43" font-family="Helvetica,sans-Serif" font-size="11.00">formattable&lt; scale</text>
<text text-anchor="middle" x="555.25" y="-179.18" font-family="Helvetica,sans-Serif" font-size="11.00">&lt; S, D, f32 &gt;, char &gt;</text>
</a>
</g>
</g>
<!-- Node1&#45;&gt;Node25 -->
<g id="edge24_Node000001_Node000025" class="edge">
<title>Node1&#45;&gt;Node25</title>
<g id="a_edge24_Node000001_Node000025"><a xlink:title=" ">
<path fill="none" stroke="#63b8ff" d="M79.69,-355.83C103.98,-326.76 154.15,-270.48 206.5,-234.62 269.93,-191.17 289.08,-179.76 364.25,-163.62 412.81,-153.2 426.97,-155.69 476,-163.62 489.14,-165.75 503.06,-169.76 515.46,-174.01"/>
<polygon fill="#63b8ff" stroke="#63b8ff" points="77.1,-353.47 73.45,-363.41 82.51,-357.92 77.1,-353.47"/>
</a>
</g>
</g>
<!-- Node26 -->
<g id="Node000026" class="node">
<title>Node26</title>
<g id="a_Node000026"><a xlink:href="structfloppy_1_1traits_1_1formattable.html" target="_top" xlink:title=" ">
<polygon fill="white" stroke="#666666" points="610.5,-154.5 500,-154.5 500,-112.75 610.5,-112.75 610.5,-154.5"/>
<text text-anchor="start" x="508" y="-140.05" font-family="Helvetica,sans-Serif" font-size="11.00">formattable&lt; size2d</text>
<text text-anchor="start" x="508" y="-128.8" font-family="Helvetica,sans-Serif" font-size="11.00">&lt; default_unit, f32</text>
<text text-anchor="middle" x="555.25" y="-117.55" font-family="Helvetica,sans-Serif" font-size="11.00"> &gt;, char &gt;</text>
</a>
</g>
</g>
<!-- Node1&#45;&gt;Node26 -->
<g id="edge25_Node000001_Node000026" class="edge">
<title>Node1&#45;&gt;Node26</title>
<g id="a_edge25_Node000001_Node000026"><a xlink:title=" ">
<path fill="none" stroke="#63b8ff" d="M73.09,-354.34C91.56,-312.99 138.95,-218.34 206.5,-164.62 303.54,-87.46 355.61,-63 476,-92.62 484.71,-94.77 501.81,-103.52 517.8,-112.39"/>
<polygon fill="#63b8ff" stroke="#63b8ff" points="69.95,-352.77 69.17,-363.34 76.37,-355.57 69.95,-352.77"/>
</a>
</g>
</g>
<!-- Node27 -->
<g id="Node000027" class="node">
<title>Node27</title>
<g id="a_Node000027"><a xlink:href="structfloppy_1_1traits_1_1formattable.html" target="_top" xlink:title=" ">
<polygon fill="white" stroke="#666666" points="615.75,-89.5 494.75,-89.5 494.75,-47.75 615.75,-47.75 615.75,-89.5"/>
<text text-anchor="start" x="502.75" y="-75.05" font-family="Helvetica,sans-Serif" font-size="11.00">formattable&lt; vector2d</text>
<text text-anchor="start" x="502.75" y="-63.8" font-family="Helvetica,sans-Serif" font-size="11.00">&lt; default_unit, f32 &gt;</text>
<text text-anchor="middle" x="555.25" y="-52.55" font-family="Helvetica,sans-Serif" font-size="11.00">, char &gt;</text>
</a>
</g>
</g>
<!-- Node1&#45;&gt;Node27 -->
<g id="edge26_Node000001_Node000027" class="edge">
<title>Node1&#45;&gt;Node27</title>
<g id="a_edge26_Node000001_Node000027"><a xlink:title=" ">
<path fill="none" stroke="#63b8ff" d="M66.88,-353.59C74.59,-296.69 104.66,-140.14 206.5,-81.62 296.08,-30.15 421.14,-41.64 494.32,-54.95"/>
<polygon fill="#63b8ff" stroke="#63b8ff" points="63.44,-352.84 65.68,-363.2 70.39,-353.71 63.44,-352.84"/>
</a>
</g>
</g>
<!-- Node28 -->
<g id="Node000028" class="node">
<title>Node28</title>
<g id="a_Node000028"><a xlink:href="structfloppy_1_1traits_1_1formattable.html" target="_top" xlink:title="Allows type to be converted to string and printed via standard streams or fmt.">
<polygon fill="white" stroke="#666666" points="331.25,-527.25 221.5,-527.25 221.5,-508 331.25,-508 331.25,-527.25"/>
<text text-anchor="middle" x="276.38" y="-512.8" font-family="Helvetica,sans-Serif" font-size="11.00">formattable&lt; T, C &gt;</text>
</a>
</g>
</g>
<!-- Node1&#45;&gt;Node28 -->
<g id="edge27_Node000001_Node000028" class="edge">
<title>Node1&#45;&gt;Node28</title>
<g id="a_edge27_Node000001_Node000028"><a xlink:title=" ">
<path fill="none" stroke="#63b8ff" d="M88.69,-391.03C132.71,-420.88 224.66,-483.23 260.56,-507.58"/>
<polygon fill="#63b8ff" stroke="#63b8ff" points="90.82,-388.25 80.58,-385.53 86.89,-394.04 90.82,-388.25"/>
</a>
</g>
</g>
<!-- Node32 -->
<g id="Node000032" class="node">
<title>Node32</title>
<g id="a_Node000032"><a xlink:href="structfloppy_1_1traits_1_1detail_1_1formattable__base.html" target="_top" xlink:title=" ">
<polygon fill="white" stroke="#666666" points="346.25,-19.25 206.5,-19.25 206.5,0 346.25,0 346.25,-19.25"/>
<text text-anchor="middle" x="276.38" y="-4.8" font-family="Helvetica,sans-Serif" font-size="11.00">formattable_base&lt; char &gt;</text>
</a>
</g>
</g>
<!-- Node1&#45;&gt;Node32 -->
<g id="edge46_Node000001_Node000032" class="edge">
<title>Node1&#45;&gt;Node32</title>
<g id="a_edge46_Node000001_Node000032"><a xlink:title=" ">
<path fill="none" stroke="orange" stroke-dasharray="5,2" d="M66.17,-353.5C72.08,-284.37 94.47,-66.86 145,-22.38 161.56,-7.8 184.29,-2.44 206.13,-1.4"/>
<polygon fill="orange" stroke="orange" points="62.71,-352.84 65.38,-363.09 69.69,-353.41 62.71,-352.84"/>
</a>
</g>
<text text-anchor="middle" x="166.75" y="-23.43" font-family="Helvetica,sans-Serif" font-size="11.00" fill="grey"> &lt; char &gt;</text>
</g>
<!-- Node3 -->
<g id="Node000003" class="node">
<title>Node3</title>
<g id="a_Node000003"><a xlink:href="classfloppy_1_1gfx_1_1color.html" target="_top" xlink:title="Class representing a color.">
<polygon fill="white" stroke="#666666" points="736.25,-970.25 697,-970.25 697,-951 736.25,-951 736.25,-970.25"/>
<text text-anchor="middle" x="716.62" y="-955.8" font-family="Helvetica,sans-Serif" font-size="11.00">color</text>
</a>
</g>
</g>
<!-- Node2&#45;&gt;Node3 -->
<g id="edge2_Node000002_Node000003" class="edge">
<title>Node2&#45;&gt;Node3</title>
<g id="a_edge2_Node000002_Node000003"><a xlink:title=" ">
<path fill="none" stroke="#63b8ff" d="M619.26,-960.62C646.99,-960.62 677.54,-960.62 696.65,-960.62"/>
<polygon fill="#63b8ff" stroke="#63b8ff" points="619.51,-957.13 609.51,-960.63 619.51,-964.13 619.51,-957.13"/>
</a>
</g>
</g>
<!-- Node5 -->
<g id="Node000005" class="node">
<title>Node5</title>
<g id="a_Node000005"><a xlink:href="structfloppy_1_1gfx_1_1color_1_1cmyk__t.html" target="_top" xlink:title=" ">
<polygon fill="white" stroke="#bfbfbf" points="741.5,-884.25 691.75,-884.25 691.75,-865 741.5,-865 741.5,-884.25"/>
<text text-anchor="middle" x="716.62" y="-869.8" font-family="Helvetica,sans-Serif" font-size="11.00">cmyk_t</text>
</a>
</g>
</g>
<!-- Node4&#45;&gt;Node5 -->
<g id="edge4_Node000004_Node000005" class="edge">
<title>Node4&#45;&gt;Node5</title>
<g id="a_edge4_Node000004_Node000005"><a xlink:title=" ">
<path fill="none" stroke="#63b8ff" d="M618.28,-852.03C643.88,-857.97 672.05,-864.51 691.47,-869.02"/>
<polygon fill="#63b8ff" stroke="#63b8ff" points="619.12,-848.63 608.59,-849.78 617.54,-855.45 619.12,-848.63"/>
</a>
</g>
</g>
<!-- Node6 -->
<g id="Node000006" class="node">
<title>Node6</title>
<g id="a_Node000006"><a xlink:href="structfloppy_1_1gfx_1_1color_1_1cmyka__t.html" target="_top" xlink:title=" ">
<polygon fill="white" stroke="#bfbfbf" points="744.5,-847.25 688.75,-847.25 688.75,-828 744.5,-828 744.5,-847.25"/>
<text text-anchor="middle" x="716.62" y="-832.8" font-family="Helvetica,sans-Serif" font-size="11.00">cmyka_t</text>
</a>
</g>
</g>
<!-- Node4&#45;&gt;Node6 -->
<g id="edge5_Node000004_Node000006" class="edge">
<title>Node4&#45;&gt;Node6</title>
<g id="a_edge5_Node000004_Node000006"><a xlink:title=" ">
<path fill="none" stroke="#63b8ff" d="M618.42,-837.62C642.66,-837.62 669.18,-837.62 688.38,-837.62"/>
<polygon fill="#63b8ff" stroke="#63b8ff" points="618.63,-834.13 608.63,-837.63 618.63,-841.13 618.63,-834.13"/>
</a>
</g>
</g>
<!-- Node7 -->
<g id="Node000007" class="node">
<title>Node7</title>
<g id="a_Node000007"><a xlink:href="structfloppy_1_1gfx_1_1color_1_1hsv__t.html" target="_top" xlink:title="HSV color representation.">
<polygon fill="white" stroke="#666666" points="737.38,-810.25 695.88,-810.25 695.88,-791 737.38,-791 737.38,-810.25"/>
<text text-anchor="middle" x="716.62" y="-795.8" font-family="Helvetica,sans-Serif" font-size="11.00">hsv_t</text>
</a>
</g>
</g>
<!-- Node4&#45;&gt;Node7 -->
<g id="edge6_Node000004_Node000007" class="edge">
<title>Node4&#45;&gt;Node7</title>
<g id="a_edge6_Node000004_Node000007"><a xlink:title=" ">
<path fill="none" stroke="#63b8ff" d="M618.28,-823.22C645.78,-816.84 676.24,-809.77 695.64,-805.27"/>
<polygon fill="#63b8ff" stroke="#63b8ff" points="617.54,-819.8 608.59,-825.47 619.12,-826.62 617.54,-819.8"/>
</a>
</g>
</g>
<!-- Node9 -->
<g id="Node000009" class="node">
<title>Node9</title>
<g id="a_Node000009"><a xlink:href="structfloppy_1_1gfx_1_1color_1_1hsl__t.html" target="_top" xlink:title="HSL color representation.">
<polygon fill="white" stroke="#666666" points="735.88,-730.25 697.38,-730.25 697.38,-711 735.88,-711 735.88,-730.25"/>
<text text-anchor="middle" x="716.62" y="-715.8" font-family="Helvetica,sans-Serif" font-size="11.00">hsl_t</text>
</a>
</g>
</g>
<!-- Node8&#45;&gt;Node9 -->
<g id="edge8_Node000008_Node000009" class="edge">
<title>Node8&#45;&gt;Node9</title>
<g id="a_edge8_Node000008_Node000009"><a xlink:title=" ">
<path fill="none" stroke="#63b8ff" d="M618.55,-720.62C646.74,-720.62 677.98,-720.62 697.21,-720.62"/>
<polygon fill="#63b8ff" stroke="#63b8ff" points="618.63,-717.13 608.63,-720.63 618.63,-724.13 618.63,-717.13"/>
</a>
</g>
</g>
<!-- Node11 -->
<g id="Node000011" class="node">
<title>Node11</title>
<g id="a_Node000011"><a xlink:href="structfloppy_1_1gfx_1_1color_1_1hsla__t.html" target="_top" xlink:title="HSLA color representation.">
<polygon fill="white" stroke="#666666" points="738.88,-681.25 694.38,-681.25 694.38,-662 738.88,-662 738.88,-681.25"/>
<text text-anchor="middle" x="716.62" y="-666.8" font-family="Helvetica,sans-Serif" font-size="11.00">hsla_t</text>
</a>
</g>
</g>
<!-- Node10&#45;&gt;Node11 -->
<g id="edge10_Node000010_Node000011" class="edge">
<title>Node10&#45;&gt;Node11</title>
<g id="a_edge10_Node000010_Node000011"><a xlink:title=" ">
<path fill="none" stroke="#63b8ff" d="M618.36,-671.62C645.08,-671.62 674.58,-671.62 694.01,-671.62"/>
<polygon fill="#63b8ff" stroke="#63b8ff" points="618.63,-668.13 608.63,-671.63 618.63,-675.13 618.63,-668.13"/>
</a>
</g>
</g>
<!-- Node13 -->
<g id="Node000013" class="node">
<title>Node13</title>
<g id="a_Node000013"><a xlink:href="structfloppy_1_1gfx_1_1color_1_1hsva__t.html" target="_top" xlink:title="HSVA color representation.">
<polygon fill="white" stroke="#666666" points="740.38,-632.25 692.88,-632.25 692.88,-613 740.38,-613 740.38,-632.25"/>
<text text-anchor="middle" x="716.62" y="-617.8" font-family="Helvetica,sans-Serif" font-size="11.00">hsva_t</text>
</a>
</g>
</g>
<!-- Node12&#45;&gt;Node13 -->
<g id="edge12_Node000012_Node000013" class="edge">
<title>Node12&#45;&gt;Node13</title>
<g id="a_edge12_Node000012_Node000013"><a xlink:title=" ">
<path fill="none" stroke="#63b8ff" d="M618.5,-622.62C644.61,-622.62 673.36,-622.62 692.75,-622.62"/>
<polygon fill="#63b8ff" stroke="#63b8ff" points="618.63,-619.13 608.63,-622.63 618.63,-626.13 618.63,-619.13"/>
</a>
</g>
</g>
<!-- Node16 -->
<g id="Node000016" class="node">
<title>Node16</title>
<g id="a_Node000016"><a xlink:href="structfloppy_1_1math_1_1detail_1_1basic__two__dimensional__type.html" target="_top" xlink:title="CRTP base class for two dimensional numerical types.">
<polygon fill="white" stroke="#666666" points="779.75,-932.88 653.5,-932.88 653.5,-902.38 779.75,-902.38 779.75,-932.88"/>
<text text-anchor="start" x="661.5" y="-918.42" font-family="Helvetica,sans-Serif" font-size="11.00">basic_two_dimensional</text>
<text text-anchor="middle" x="716.62" y="-907.17" font-family="Helvetica,sans-Serif" font-size="11.00">_type&lt; T, U, N &gt;</text>
</a>
</g>
</g>
<!-- Node15&#45;&gt;Node16 -->
<g id="edge15_Node000015_Node000016" class="edge">
<title>Node15&#45;&gt;Node16</title>
<g id="a_edge15_Node000015_Node000016"><a xlink:title=" ">
<path fill="none" stroke="#63b8ff" d="M628.23,-917.62C636.58,-917.62 645.03,-917.62 653.24,-917.62"/>
<polygon fill="#63b8ff" stroke="#63b8ff" points="628.47,-914.13 618.47,-917.63 628.47,-921.13 628.47,-914.13"/>
</a>
</g>
</g>
<!-- Node17 -->
<g id="Node000017" class="node">
<title>Node17</title>
<g id="a_Node000017"><a xlink:href="classfloppy_1_1math_1_1point2d.html" target="_top" xlink:title="A two&#45;dimensional point tagged with a unit.">
<polygon fill="white" stroke="#666666" points="1062.38,-969.25 971.38,-969.25 971.38,-950 1062.38,-950 1062.38,-969.25"/>
<text text-anchor="middle" x="1016.88" y="-954.8" font-family="Helvetica,sans-Serif" font-size="11.00">point2d&lt; U, T &gt;</text>
</a>
</g>
</g>
<!-- Node16&#45;&gt;Node17 -->
<g id="edge16_Node000016_Node000017" class="edge">
<title>Node16&#45;&gt;Node17</title>
<g id="a_edge16_Node000016_Node000017"><a xlink:title=" ">
<path fill="none" stroke="#63b8ff" d="M791.21,-932.55C793.41,-932.92 795.6,-933.28 797.75,-933.62 857.45,-943.13 926.84,-950.83 971.03,-955.32"/>
<polygon fill="#63b8ff" stroke="#63b8ff" points="792.04,-929.14 781.58,-930.85 790.82,-936.04 792.04,-929.14"/>
</a>
</g>
</g>
<!-- Node18 -->
<g id="Node000018" class="node">
<title>Node18</title>
<g id="a_Node000018"><a xlink:href="classfloppy_1_1math_1_1size2d.html" target="_top" xlink:title="A two&#45;dimensional size2d tagged with a unit.">
<polygon fill="white" stroke="#666666" points="1060.12,-932.25 973.62,-932.25 973.62,-913 1060.12,-913 1060.12,-932.25"/>
<text text-anchor="middle" x="1016.88" y="-917.8" font-family="Helvetica,sans-Serif" font-size="11.00">size2d&lt; U, T &gt;</text>
</a>
</g>
</g>
<!-- Node16&#45;&gt;Node18 -->
<g id="edge17_Node000016_Node000018" class="edge">
<title>Node16&#45;&gt;Node18</title>
<g id="a_edge17_Node000016_Node000018"><a xlink:title=" ">
<path fill="none" stroke="#63b8ff" d="M791.3,-918.86C848.49,-919.82 925.78,-921.11 973.16,-921.91"/>
<polygon fill="#63b8ff" stroke="#63b8ff" points="791.72,-915.37 781.66,-918.7 791.6,-922.37 791.72,-915.37"/>
</a>
</g>
</g>
<!-- Node19 -->
<g id="Node000019" class="node">
<title>Node19</title>
<g id="a_Node000019"><a xlink:href="classfloppy_1_1math_1_1vector2d.html" target="_top" xlink:title="A two&#45;dimensional vector tagged with a unit.">
<polygon fill="white" stroke="#666666" points="1065.38,-895.25 968.38,-895.25 968.38,-876 1065.38,-876 1065.38,-895.25"/>
<text text-anchor="middle" x="1016.88" y="-880.8" font-family="Helvetica,sans-Serif" font-size="11.00">vector2d&lt; U, T &gt;</text>
</a>
</g>
</g>
<!-- Node16&#45;&gt;Node19 -->
<g id="edge18_Node000016_Node000019" class="edge">
<title>Node16&#45;&gt;Node19</title>
<g id="a_edge18_Node000016_Node000019"><a xlink:title=" ">
<path fill="none" stroke="#63b8ff" d="M791.28,-909.72C846.49,-903.8 920.45,-895.86 968.13,-890.75"/>
<polygon fill="#63b8ff" stroke="#63b8ff" points="791.22,-906.21 781.65,-910.76 791.97,-913.17 791.22,-906.21"/>
</a>
</g>
</g>
<!-- Node20 -->
<g id="Node000020" class="node">
<title>Node20</title>
<g id="a_Node000020"><a xlink:href="structfloppy_1_1math_1_1detail_1_1basic__two__dimensional__type.html" target="_top" xlink:title=" ">
<polygon fill="white" stroke="#666666" points="1098,-836.5 935.75,-836.5 935.75,-794.75 1098,-794.75 1098,-836.5"/>
<text text-anchor="start" x="943.75" y="-822.05" font-family="Helvetica,sans-Serif" font-size="11.00">basic_two_dimensional</text>
<text text-anchor="start" x="943.75" y="-810.8" font-family="Helvetica,sans-Serif" font-size="11.00">_type&lt; point2d&lt; default</text>
<text text-anchor="middle" x="1016.88" y="-799.55" font-family="Helvetica,sans-Serif" font-size="11.00">_unit, f32 &gt;, default_unit, f32 &gt;</text>
</a>
</g>
</g>
<!-- Node16&#45;&gt;Node20 -->
<g id="edge19_Node000016_Node000020" class="edge">
<title>Node16&#45;&gt;Node20</title>
<g id="a_edge19_Node000016_Node000020"><a xlink:title=" ">
<path fill="none" stroke="orange" stroke-dasharray="5,2" d="M777.37,-895.64C778.18,-894.99 778.98,-894.32 779.75,-893.62 792.7,-882.02 783.84,-869.32 797.75,-858.88 819.36,-842.64 882.57,-831.23 935.41,-824.22"/>
<polygon fill="orange" stroke="orange" points="775.59,-892.62 769.26,-901.12 779.51,-898.42 775.59,-892.62"/>
</a>
</g>
<text text-anchor="start" x="811.62" y="-881.92" font-family="Helvetica,sans-Serif" font-size="11.00" fill="grey"> &lt; point2d&lt; default</text>
<text text-anchor="start" x="811.62" y="-870.67" font-family="Helvetica,sans-Serif" font-size="11.00" fill="grey">_unit, f32 &gt;, default</text>
<text text-anchor="middle" x="857.75" y="-859.42" font-family="Helvetica,sans-Serif" font-size="11.00" fill="grey">_unit, f32 &gt;</text>
</g>
<!-- Node21 -->
<g id="Node000021" class="node">
<title>Node21</title>
<g id="a_Node000021"><a xlink:href="structfloppy_1_1math_1_1detail_1_1basic__two__dimensional__type.html" target="_top" xlink:title=" ">
<polygon fill="white" stroke="#666666" points="1098,-734.5 935.75,-734.5 935.75,-692.75 1098,-692.75 1098,-734.5"/>
<text text-anchor="start" x="943.75" y="-720.05" font-family="Helvetica,sans-Serif" font-size="11.00">basic_two_dimensional</text>
<text text-anchor="start" x="943.75" y="-708.8" font-family="Helvetica,sans-Serif" font-size="11.00">_type&lt; size2d&lt; default</text>
<text text-anchor="middle" x="1016.88" y="-697.55" font-family="Helvetica,sans-Serif" font-size="11.00">_unit, f32 &gt;, default_unit, f32 &gt;</text>
</a>
</g>
</g>
<!-- Node16&#45;&gt;Node21 -->
<g id="edge20_Node000016_Node000021" class="edge">
<title>Node16&#45;&gt;Node21</title>
<g id="a_edge20_Node000016_Node000021"><a xlink:title=" ">
<path fill="none" stroke="orange" stroke-dasharray="5,2" d="M778.99,-894.51C779.25,-894.22 779.5,-893.92 779.75,-893.62 806.89,-861.15 770.76,-832.72 797.75,-800.12 831.86,-758.95 888.33,-737.25 935.26,-725.89"/>
<polygon fill="orange" stroke="orange" points="776.82,-891.75 771.63,-900.99 781.45,-897.01 776.82,-891.75"/>
</a>
</g>
<text text-anchor="start" x="797.75" y="-811.67" font-family="Helvetica,sans-Serif" font-size="11.00" fill="grey"> &lt; size2d&lt; default_unit,</text>
<text text-anchor="middle" x="857.75" y="-800.42" font-family="Helvetica,sans-Serif" font-size="11.00" fill="grey"> f32 &gt;, default_unit, f32 &gt;</text>
</g>
<!-- Node22 -->
<g id="Node000022" class="node">
<title>Node22</title>
<g id="a_Node000022"><a xlink:href="structfloppy_1_1math_1_1detail_1_1basic__two__dimensional__type.html" target="_top" xlink:title=" ">
<polygon fill="white" stroke="#666666" points="1098,-589.5 935.75,-589.5 935.75,-547.75 1098,-547.75 1098,-589.5"/>
<text text-anchor="start" x="943.75" y="-575.05" font-family="Helvetica,sans-Serif" font-size="11.00">basic_two_dimensional</text>
<text text-anchor="start" x="943.75" y="-563.8" font-family="Helvetica,sans-Serif" font-size="11.00">_type&lt; vector2d&lt; default</text>
<text text-anchor="middle" x="1016.88" y="-552.55" font-family="Helvetica,sans-Serif" font-size="11.00">_unit, f32 &gt;, default_unit, f32 &gt;</text>
</a>
</g>
</g>
<!-- Node16&#45;&gt;Node22 -->
<g id="edge21_Node000016_Node000022" class="edge">
<title>Node16&#45;&gt;Node22</title>
<g id="a_edge21_Node000016_Node000022"><a xlink:title=" ">
<path fill="none" stroke="orange" stroke-dasharray="5,2" d="M779.29,-894.23C779.44,-894.03 779.6,-893.83 779.75,-893.62 806.71,-857.85 773.53,-730.55 797.75,-692.88 831.03,-641.09 893.99,-608.62 943.75,-589.92"/>
<polygon fill="orange" stroke="orange" points="777,-891.57 772.23,-901.02 781.86,-896.61 777,-891.57"/>
</a>
</g>
<text text-anchor="start" x="809.75" y="-715.92" font-family="Helvetica,sans-Serif" font-size="11.00" fill="grey"> &lt; vector2d&lt; default</text>
<text text-anchor="start" x="809.75" y="-704.67" font-family="Helvetica,sans-Serif" font-size="11.00" fill="grey">_unit, f32 &gt;, default</text>
<text text-anchor="middle" x="857.75" y="-693.42" font-family="Helvetica,sans-Serif" font-size="11.00" fill="grey">_unit, f32 &gt;</text>
</g>
<!-- Node28&#45;&gt;Node2 -->
<g id="edge34_Node000028_Node000002" class="edge">
<title>Node28&#45;&gt;Node2</title>
<g id="a_edge34_Node000028_Node000002"><a xlink:title=" ">
<path fill="none" stroke="orange" stroke-dasharray="5,2" d="M276.64,-539.02C275.7,-598.87 280.86,-770.31 364.25,-873.62 383.28,-897.2 458.33,-927.04 508.22,-944.94"/>
<polygon fill="orange" stroke="orange" points="280.13,-539.32 276.88,-529.24 273.13,-539.15 280.13,-539.32"/>
</a>
</g>
<text text-anchor="middle" x="420.12" y="-933.42" font-family="Helvetica,sans-Serif" font-size="11.00" fill="grey"> &lt; color, char &gt;</text>
</g>
<!-- Node28&#45;&gt;Node4 -->
<g id="edge35_Node000028_Node000004" class="edge">
<title>Node28&#45;&gt;Node4</title>
<g id="a_edge35_Node000028_Node000004"><a xlink:title=" ">
<path fill="none" stroke="orange" stroke-dasharray="5,2" d="M279.51,-539.05C285.15,-584.68 304.37,-692.43 364.25,-755.62 401.4,-794.83 426.43,-781.94 476,-803.38 490.02,-809.44 505.42,-816.17 518.83,-822.04"/>
<polygon fill="orange" stroke="orange" points="283,-538.74 278.41,-529.19 276.04,-539.52 283,-538.74"/>
</a>
</g>
<text text-anchor="middle" x="420.12" y="-803.42" font-family="Helvetica,sans-Serif" font-size="11.00" fill="grey"> &lt; color::hsv_t, char &gt;</text>
</g>
<!-- Node28&#45;&gt;Node8 -->
<g id="edge36_Node000028_Node000008" class="edge">
<title>Node28&#45;&gt;Node8</title>
<g id="a_edge36_Node000028_Node000008"><a xlink:title=" ">
<path fill="none" stroke="orange" stroke-dasharray="5,2" d="M283.34,-538.32C293.97,-571.43 319.4,-636.12 364.25,-670.62 404.53,-701.62 462.28,-713.47 503.53,-717.97"/>
<polygon fill="orange" stroke="orange" points="286.79,-537.65 280.52,-529.11 280.1,-539.69 286.79,-537.65"/>
</a>
</g>
<text text-anchor="middle" x="420.12" y="-714.42" font-family="Helvetica,sans-Serif" font-size="11.00" fill="grey"> &lt; color::hsl_t, char &gt;</text>
</g>
<!-- Node28&#45;&gt;Node10 -->
<g id="edge37_Node000028_Node000010" class="edge">
<title>Node28&#45;&gt;Node10</title>
<g id="a_edge37_Node000028_Node000010"><a xlink:title=" ">
<path fill="none" stroke="orange" stroke-dasharray="5,2" d="M290.23,-536.94C305.46,-558.41 332.79,-592.66 364.25,-612.62 407.12,-639.83 463.4,-655.25 503.56,-663.44"/>
<polygon fill="orange" stroke="orange" points="293.17,-535.05 284.61,-528.8 287.41,-539.02 293.17,-535.05"/>
</a>
</g>
<text text-anchor="middle" x="420.12" y="-656.42" font-family="Helvetica,sans-Serif" font-size="11.00" fill="grey"> &lt; color::hsla_t, char &gt;</text>
</g>
<!-- Node28&#45;&gt;Node12 -->
<g id="edge38_Node000028_Node000012" class="edge">
<title>Node28&#45;&gt;Node12</title>
<g id="a_edge38_Node000028_Node000012"><a xlink:title=" ">
<path fill="none" stroke="orange" stroke-dasharray="5,2" d="M296.6,-534.67C313.33,-548.58 338.83,-567.68 364.25,-578.62 410.81,-598.67 426.68,-589.67 476,-601.38 484.9,-603.49 494.33,-605.9 503.44,-608.32"/>
<polygon fill="orange" stroke="orange" points="299.29,-532.36 289.42,-528.53 294.75,-537.69 299.29,-532.36"/>
</a>
</g>
<text text-anchor="middle" x="420.12" y="-601.42" font-family="Helvetica,sans-Serif" font-size="11.00" fill="grey"> &lt; color::hsva_t, char &gt;</text>
</g>
<!-- Node28&#45;&gt;Node14 -->
<g id="edge39_Node000028_Node000014" class="edge">
<title>Node28&#45;&gt;Node14</title>
<g id="a_edge39_Node000028_Node000014"><a xlink:title=" ">
<path fill="none" stroke="orange" stroke-dasharray="5,2" d="M292.6,-499.2C308.53,-481.23 335.23,-454.58 364.25,-440.38 409.62,-418.17 428.59,-437.08 476,-419.62 481.51,-417.59 507.43,-402.49 527.95,-390.34"/>
<polygon fill="orange" stroke="orange" points="290.15,-496.69 286.28,-506.55 295.45,-501.25 290.15,-496.69"/>
</a>
</g>
<text text-anchor="middle" x="420.12" y="-440.43" font-family="Helvetica,sans-Serif" font-size="11.00" fill="grey"> &lt; angle&lt; f32 &gt;, char &gt;</text>
</g>
<!-- Node28&#45;&gt;Node15 -->
<g id="edge40_Node000028_Node000015" class="edge">
<title>Node28&#45;&gt;Node15</title>
<g id="a_edge40_Node000028_Node000015"><a xlink:title=" ">
<path fill="none" stroke="orange" stroke-dasharray="5,2" d="M277.65,-538.77C279.46,-591.86 291.29,-732.4 364.25,-814.62 400.1,-855.02 428.84,-836.04 476,-862.38 500.54,-876.08 526.78,-895.77 541.78,-907.57"/>
<polygon fill="orange" stroke="orange" points="281.16,-538.93 277.42,-529.02 274.16,-539.1 281.16,-538.93"/>
</a>
</g>
<text text-anchor="middle" x="420.12" y="-862.42" font-family="Helvetica,sans-Serif" font-size="11.00" fill="grey"> &lt; T, char &gt;</text>
</g>
<!-- Node28&#45;&gt;Node20 -->
<g id="edge28_Node000028_Node000020" class="edge">
<title>Node28&#45;&gt;Node20</title>
<g id="a_edge28_Node000028_Node000020"><a xlink:title=" ">
<path fill="none" stroke="#63b8ff" d="M279.27,-539.09C284.35,-582.7 302.45,-681.5 364.25,-728.62 413.34,-766.06 857.6,-762.74 917.75,-776.62 935.61,-780.75 954.49,-787.6 970.87,-794.42"/>
<polygon fill="#63b8ff" stroke="#63b8ff" points="282.75,-538.76 278.25,-529.17 275.79,-539.48 282.75,-538.76"/>
</a>
</g>
</g>
<!-- Node28&#45;&gt;Node21 -->
<g id="edge29_Node000028_Node000021" class="edge">
<title>Node28&#45;&gt;Node21</title>
<g id="a_edge29_Node000028_Node000021"><a xlink:title=" ">
<path fill="none" stroke="#63b8ff" d="M321.54,-530.73C335.14,-534.38 350.22,-538.05 364.25,-540.62 425.07,-551.79 863.03,-569.83 917.75,-598.62 958.16,-619.89 988.97,-665.38 1004.56,-692.33"/>
<polygon fill="#63b8ff" stroke="#63b8ff" points="322.55,-527.38 311.98,-528.09 320.69,-534.12 322.55,-527.38"/>
</a>
</g>
</g>
<!-- Node28&#45;&gt;Node22 -->
<g id="edge30_Node000028_Node000022" class="edge">
<title>Node28&#45;&gt;Node22</title>
<g id="a_edge30_Node000028_Node000022"><a xlink:title=" ">
<path fill="none" stroke="#63b8ff" d="M343.06,-522.16C478.45,-531.51 788.13,-552.9 935.32,-563.06"/>
<polygon fill="#63b8ff" stroke="#63b8ff" points="343.41,-518.68 333.19,-521.48 342.92,-525.66 343.41,-518.68"/>
</a>
</g>
</g>
<!-- Node28&#45;&gt;Node23 -->
<g id="edge41_Node000028_Node000023" class="edge">
<title>Node28&#45;&gt;Node23</title>
<g id="a_edge41_Node000028_Node000023"><a xlink:title=" ">
<path fill="none" stroke="orange" stroke-dasharray="5,2" d="M286.6,-497.41C300.03,-470.12 327.41,-421.63 364.25,-393.12 406.15,-360.7 428.15,-374.36 476,-351.62 491.23,-344.39 507.4,-335.17 521.06,-326.88"/>
<polygon fill="orange" stroke="orange" points="283.5,-495.79 282.37,-506.33 289.82,-498.8 283.5,-495.79"/>
</a>
</g>
<text text-anchor="start" x="365" y="-404.68" font-family="Helvetica,sans-Serif" font-size="11.00" fill="grey"> &lt; length&lt; default_unit,</text>
<text text-anchor="middle" x="420.12" y="-393.43" font-family="Helvetica,sans-Serif" font-size="11.00" fill="grey"> f32 &gt;, char &gt;</text>
</g>
<!-- Node28&#45;&gt;Node24 -->
<g id="edge42_Node000028_Node000024" class="edge">
<title>Node28&#45;&gt;Node24</title>
<g id="a_edge42_Node000028_Node000024"><a xlink:title=" ">
<path fill="none" stroke="orange" stroke-dasharray="5,2" d="M281.44,-496.54C289.99,-457.54 313.42,-373.72 364.25,-325.12 402.89,-288.18 426.87,-301.69 476,-280.62 486.72,-276.03 498.17,-270.89 508.91,-265.97"/>
<polygon fill="orange" stroke="orange" points="278.03,-495.74 279.43,-506.24 284.88,-497.16 278.03,-495.74"/>
</a>
</g>
<text text-anchor="start" x="374.75" y="-336.68" font-family="Helvetica,sans-Serif" font-size="11.00" fill="grey"> &lt; point2d&lt; default</text>
<text text-anchor="middle" x="420.12" y="-325.43" font-family="Helvetica,sans-Serif" font-size="11.00" fill="grey">_unit, f32 &gt;, char &gt;</text>
</g>
<!-- Node28&#45;&gt;Node25 -->
<g id="edge43_Node000028_Node000025" class="edge">
<title>Node28&#45;&gt;Node25</title>
<g id="a_edge43_Node000028_Node000025"><a xlink:title=" ">
<path fill="none" stroke="orange" stroke-dasharray="5,2" d="M278.22,-496.25C281.33,-446.72 295.92,-323.06 364.25,-254.12 374.18,-244.11 447.63,-220.94 500.23,-205.27"/>
<polygon fill="orange" stroke="orange" points="274.73,-495.98 277.71,-506.15 281.72,-496.34 274.73,-495.98"/>
</a>
</g>
<text text-anchor="start" x="375.12" y="-265.68" font-family="Helvetica,sans-Serif" font-size="11.00" fill="grey"> &lt; scale&lt; S, D, f32</text>
<text text-anchor="middle" x="420.12" y="-254.43" font-family="Helvetica,sans-Serif" font-size="11.00" fill="grey"> &gt;, char &gt;</text>
</g>
<!-- Node28&#45;&gt;Node26 -->
<g id="edge44_Node000028_Node000026" class="edge">
<title>Node28&#45;&gt;Node26</title>
<g id="a_edge44_Node000028_Node000026"><a xlink:title=" ">
<path fill="none" stroke="orange" stroke-dasharray="5,2" d="M280.18,-496.42C289.29,-430.71 320,-232.15 364.25,-187.12 399.68,-151.07 457.36,-138.8 499.88,-134.88"/>
<polygon fill="orange" stroke="orange" points="276.73,-495.83 278.85,-506.21 283.67,-496.77 276.73,-495.83"/>
</a>
</g>
<text text-anchor="start" x="364.25" y="-198.68" font-family="Helvetica,sans-Serif" font-size="11.00" fill="grey"> &lt; size2d&lt; default_unit,</text>
<text text-anchor="middle" x="420.12" y="-187.43" font-family="Helvetica,sans-Serif" font-size="11.00" fill="grey"> f32 &gt;, char &gt;</text>
</g>
<!-- Node28&#45;&gt;Node27 -->
<g id="edge45_Node000028_Node000027" class="edge">
<title>Node28&#45;&gt;Node27</title>
<g id="a_edge45_Node000028_Node000027"><a xlink:title=" ">
<path fill="none" stroke="orange" stroke-dasharray="5,2" d="M278.96,-496.57C285.02,-421.42 309.3,-167.86 364.25,-112.12 397.87,-78.03 452.37,-68.34 494.4,-66.49"/>
<polygon fill="orange" stroke="orange" points="275.49,-496 278.2,-506.24 282.47,-496.54 275.49,-496"/>
</a>
</g>
<text text-anchor="start" x="372.12" y="-124.67" font-family="Helvetica,sans-Serif" font-size="11.00" fill="grey"> &lt; vector2d&lt; default</text>
<text text-anchor="middle" x="420.12" y="-113.42" font-family="Helvetica,sans-Serif" font-size="11.00" fill="grey">_unit, f32 &gt;, char &gt;</text>
</g>
<!-- Node29 -->
<g id="Node000029" class="node">
<title>Node29</title>
<g id="a_Node000029"><a xlink:href="structfloppy_1_1math_1_1angle.html" target="_top" xlink:title="Newtype describing an angle.">
<polygon fill="white" stroke="#666666" points="589.5,-513.25 521,-513.25 521,-494 589.5,-494 589.5,-513.25"/>
<text text-anchor="middle" x="555.25" y="-498.8" font-family="Helvetica,sans-Serif" font-size="11.00">angle&lt; T &gt;</text>
</a>
</g>
</g>
<!-- Node28&#45;&gt;Node29 -->
<g id="edge31_Node000028_Node000029" class="edge">
<title>Node28&#45;&gt;Node29</title>
<g id="a_edge31_Node000028_Node000029"><a xlink:title=" ">
<path fill="none" stroke="#63b8ff" d="M342.97,-514.31C398.89,-511.48 476.99,-507.53 520.88,-505.31"/>
<polygon fill="#63b8ff" stroke="#63b8ff" points="343.07,-510.8 333.26,-514.8 343.42,-517.79 343.07,-510.8"/>
</a>
</g>
</g>
<!-- Node30 -->
<g id="Node000030" class="node">
<title>Node30</title>
<g id="a_Node000030"><a xlink:href="classfloppy_1_1math_1_1length.html" target="_top" xlink:title="A one&#45;dimensional distance with associated unit of measurement.">
<polygon fill="white" stroke="#666666" points="597.75,-476.25 512.75,-476.25 512.75,-457 597.75,-457 597.75,-476.25"/>
<text text-anchor="middle" x="555.25" y="-461.8" font-family="Helvetica,sans-Serif" font-size="11.00">length&lt; U, T &gt;</text>
</a>
</g>
</g>
<!-- Node28&#45;&gt;Node30 -->
<g id="edge32_Node000028_Node000030" class="edge">
<title>Node28&#45;&gt;Node30</title>
<g id="a_edge32_Node000028_Node000030"><a xlink:title=" ">
<path fill="none" stroke="#63b8ff" d="M342.98,-505.54C395.56,-495.86 467.72,-482.56 512.64,-474.29"/>
<polygon fill="#63b8ff" stroke="#63b8ff" points="342.44,-502.08 333.23,-507.34 343.7,-508.97 342.44,-502.08"/>
</a>
</g>
</g>
<!-- Node31 -->
<g id="Node000031" class="node">
<title>Node31</title>
<g id="a_Node000031"><a xlink:href="structfloppy_1_1math_1_1scale.html" target="_top" xlink:title="A scaling factor between two different units of measurement.">
<polygon fill="white" stroke="#666666" points="602.62,-439.25 507.88,-439.25 507.88,-420 602.62,-420 602.62,-439.25"/>
<text text-anchor="middle" x="555.25" y="-424.8" font-family="Helvetica,sans-Serif" font-size="11.00">scale&lt; S, D, T &gt;</text>
</a>
</g>
</g>
<!-- Node28&#45;&gt;Node31 -->
<g id="edge33_Node000028_Node000031" class="edge">
<title>Node28&#45;&gt;Node31</title>
<g id="a_edge33_Node000028_Node000031"><a xlink:title=" ">
<path fill="none" stroke="#63b8ff" d="M309.69,-502.9C325.86,-495.88 345.86,-487.7 364.25,-481.62 412.87,-465.56 426.84,-467.95 476,-453.62 484.1,-451.27 485.96,-450.17 494,-447.62 502.33,-444.99 511.33,-442.25 519.78,-439.72"/>
<polygon fill="#63b8ff" stroke="#63b8ff" points="308.3,-499.69 300.56,-506.93 311.12,-506.1 308.3,-499.69"/>
</a>
</g>
</g>
</g>
</svg>
