<?xml version="1.0" encoding="UTF-8" standalone="no"?>
<!DOCTYPE svg PUBLIC "-//W3C//DTD SVG 1.1//EN"
 "http://www.w3.org/Graphics/SVG/1.1/DTD/svg11.dtd">
<!-- Generated by graphviz version 10.0.1 (0)
 -->
<!-- Title: basic_two_dimensional_type&lt; T, U, N &gt; Pages: 1 -->
<!--zoomable 282 -->

<svg id="main" version="1.1" xmlns="http://www.w3.org/2000/svg" xmlns:xlink="http://www.w3.org/1999/xlink" xml:space="preserve" onload="init(evt)">
<style type="text/css"><![CDATA[
.node, .edge {opacity: 0.7;}
.node.selected, .edge.selected {opacity: 1;}
.edge:hover path { stroke: red; }
.edge:hover polygon { stroke: red; fill: red; }
]]></style>

<defs>
  <circle id="rim" cx="0" cy="0" r="7"/>
  <circle id="rim2" cx="0" cy="0" r="3.5"/>
  <g id="zoomPlus">
    <use xlink:href="#rim" fill="#404040"><set attributeName="fill" to="#808080" begin="zoomplus.mouseover" end="zoomplus.mouseout"/></use>
    <path d="M-4,0h8M0,-4v8" fill="none" stroke="white" stroke-width="1.5" pointer-events="none"/>
  </g>
  <g id="zoomMin">
    <use xlink:href="#rim" fill="#404040"><set attributeName="fill" to="#808080" begin="zoomminus.mouseover" end="zoomminus.mouseout"/></use>
    <path d="M-4,0h8" fill="none" stroke="white" stroke-width="1.5" pointer-events="none"/>
  </g>
  <g id="arrowUp" transform="translate(30 24)">
    <use xlink:href="#rim"/>
    <path pointer-events="none" fill="none" stroke="white" stroke-width="1.5" d="M0,-3.0v7 M-2.5,-0.5L0,-3.0L2.5,-0.5"/>
  </g>
  <g id="arrowRight" transform="rotate(90) translate(36 -43)">
    <use xlink:href="#rim"/>
    <path pointer-events="none" fill="none" stroke="white" stroke-width="1.5" d="M0,-3.0v7 M-2.5,-0.5L0,-3.0L2.5,-0.5"/>
  </g>
  <g id="arrowDown" transform="rotate(180) translate(-30 -48)">
    <use xlink:href="#rim"/>
    <path pointer-events="none" fill="none" stroke="white" stroke-width="1.5" d="M0,-3.0v7 M-2.5,-0.5L0,-3.0L2.5,-0.5"/>
  </g>
  <g id="arrowLeft" transform="rotate(270) translate(-36 17)">
    <use xlink:href="#rim"/>
    <path pointer-events="none" fill="none" stroke="white" stroke-width="1.5" d="M0,-3.0v7 M-2.5,-0.5L0,-3.0L2.5,-0.5"/>
  </g>
  <g id="resetDef">
    <use xlink:href="#rim2" fill="#404040"><set attributeName="fill" to="#808080" begin="reset.mouseover" end="reset.mouseout"/></use>
  </g>
</defs>
<script type="application/ecmascript">
var viewWidth = 995;
var viewHeight = 282;
var sectionId = 'dynsection-0';
</script>
<script type="application/ecmascript" xlink:href="svg.min.js"/>
<svg id="graph" class="graph">
<g id="viewport">
<title>basic_two_dimensional_type&lt; T, U, N &gt;</title>
<!-- Node1 -->
<g id="Node000001" class="node">
<title>Node1</title>
<g id="a_Node000001"><a xlink:title="CRTP base class for two dimensional numerical types.">
<polygon fill="#999999" stroke="#666666" points="668.25,-180.12 542,-180.12 542,-149.62 668.25,-149.62 668.25,-180.12"/>
<text text-anchor="start" x="550" y="-165.68" font-family="Helvetica,sans-Serif" font-size="11.00">basic_two_dimensional</text>
<text text-anchor="middle" x="605.12" y="-154.43" font-family="Helvetica,sans-Serif" font-size="11.00">_type&lt; T, U, N &gt;</text>
</a>
</g>
</g>
<!-- Node6 -->
<g id="Node000006" class="node">
<title>Node6</title>
<g id="a_Node000006"><a xlink:href="classfloppy_1_1math_1_1point2d.html" target="_top" xlink:title="A two&#45;dimensional point tagged with a unit.">
<polygon fill="white" stroke="#666666" points="950.88,-273.5 859.88,-273.5 859.88,-254.25 950.88,-254.25 950.88,-273.5"/>
<text text-anchor="middle" x="905.38" y="-259.05" font-family="Helvetica,sans-Serif" font-size="11.00">point2d&lt; U, T &gt;</text>
</a>
</g>
</g>
<!-- Node1&#45;&gt;Node6 -->
<g id="edge5_Node000001_Node000006" class="edge">
<title>Node1&#45;&gt;Node6</title>
<g id="a_edge5_Node000001_Node000006"><a xlink:title=" ">
<path fill="none" stroke="#63b8ff" d="M633.71,-187.41C648.49,-198.43 667.48,-210.98 686.25,-218.88 743.27,-242.87 814.22,-254.45 859.42,-259.76"/>
<polygon fill="#63b8ff" stroke="#63b8ff" points="635.92,-184.69 625.86,-181.38 631.66,-190.24 635.92,-184.69"/>
</a>
</g>
</g>
<!-- Node7 -->
<g id="Node000007" class="node">
<title>Node7</title>
<g id="a_Node000007"><a xlink:href="classfloppy_1_1math_1_1size2d.html" target="_top" xlink:title="A two&#45;dimensional size2d tagged with a unit.">
<polygon fill="white" stroke="#666666" points="948.62,-236.5 862.12,-236.5 862.12,-217.25 948.62,-217.25 948.62,-236.5"/>
<text text-anchor="middle" x="905.38" y="-222.05" font-family="Helvetica,sans-Serif" font-size="11.00">size2d&lt; U, T &gt;</text>
</a>
</g>
</g>
<!-- Node1&#45;&gt;Node7 -->
<g id="edge6_Node000001_Node000007" class="edge">
<title>Node1&#45;&gt;Node7</title>
<g id="a_edge6_Node000001_Node000007"><a xlink:title=" ">
<path fill="none" stroke="#63b8ff" d="M655.44,-184.44C665.52,-187.96 676.14,-191.31 686.25,-193.88 746.2,-209.1 817.32,-218.25 861.66,-222.93"/>
<polygon fill="#63b8ff" stroke="#63b8ff" points="656.79,-181.21 646.19,-181.11 654.42,-187.79 656.79,-181.21"/>
</a>
</g>
</g>
<!-- Node8 -->
<g id="Node000008" class="node">
<title>Node8</title>
<g id="a_Node000008"><a xlink:href="classfloppy_1_1math_1_1vector2d.html" target="_top" xlink:title="A two&#45;dimensional vector tagged with a unit.">
<polygon fill="white" stroke="#666666" points="953.88,-199.5 856.88,-199.5 856.88,-180.25 953.88,-180.25 953.88,-199.5"/>
<text text-anchor="middle" x="905.38" y="-185.05" font-family="Helvetica,sans-Serif" font-size="11.00">vector2d&lt; U, T &gt;</text>
</a>
</g>
</g>
<!-- Node1&#45;&gt;Node8 -->
<g id="edge7_Node000001_Node000008" class="edge">
<title>Node1&#45;&gt;Node8</title>
<g id="a_edge7_Node000001_Node000008"><a xlink:title=" ">
<path fill="none" stroke="#63b8ff" d="M680,-175.22C682.1,-175.45 684.19,-175.67 686.25,-175.88 744.77,-181.76 812.39,-185.65 856.64,-187.81"/>
<polygon fill="#63b8ff" stroke="#63b8ff" points="680.46,-171.75 670.13,-174.07 679.66,-178.7 680.46,-171.75"/>
</a>
</g>
</g>
<!-- Node9 -->
<g id="Node000009" class="node">
<title>Node9</title>
<g id="a_Node000009"><a xlink:href="structfloppy_1_1math_1_1detail_1_1basic__two__dimensional__type.html" target="_top" xlink:title=" ">
<polygon fill="white" stroke="#666666" points="986.5,-161.75 824.25,-161.75 824.25,-120 986.5,-120 986.5,-161.75"/>
<text text-anchor="start" x="832.25" y="-147.3" font-family="Helvetica,sans-Serif" font-size="11.00">basic_two_dimensional</text>
<text text-anchor="start" x="832.25" y="-136.05" font-family="Helvetica,sans-Serif" font-size="11.00">_type&lt; point2d&lt; default</text>
<text text-anchor="middle" x="905.38" y="-124.8" font-family="Helvetica,sans-Serif" font-size="11.00">_unit, f32 &gt;, default_unit, f32 &gt;</text>
</a>
</g>
</g>
<!-- Node1&#45;&gt;Node9 -->
<g id="edge8_Node000001_Node000009" class="edge">
<title>Node1&#45;&gt;Node9</title>
<g id="a_edge8_Node000001_Node000009"><a xlink:title=" ">
<path fill="none" stroke="orange" stroke-dasharray="5,2" d="M664.45,-146.35C671.73,-144.62 679.12,-143.14 686.25,-142.12 731.52,-135.69 782.62,-135.05 823.97,-136.16"/>
<polygon fill="orange" stroke="orange" points="663.84,-142.89 655.01,-148.75 665.57,-149.67 663.84,-142.89"/>
</a>
</g>
<text text-anchor="start" x="700.12" y="-166.18" font-family="Helvetica,sans-Serif" font-size="11.00" fill="grey"> &lt; point2d&lt; default</text>
<text text-anchor="start" x="700.12" y="-154.93" font-family="Helvetica,sans-Serif" font-size="11.00" fill="grey">_unit, f32 &gt;, default</text>
<text text-anchor="middle" x="746.25" y="-143.68" font-family="Helvetica,sans-Serif" font-size="11.00" fill="grey">_unit, f32 &gt;</text>
</g>
<!-- Node10 -->
<g id="Node000010" class="node">
<title>Node10</title>
<g id="a_Node000010"><a xlink:href="structfloppy_1_1math_1_1detail_1_1basic__two__dimensional__type.html" target="_top" xlink:title=" ">
<polygon fill="white" stroke="#666666" points="986.5,-101.75 824.25,-101.75 824.25,-60 986.5,-60 986.5,-101.75"/>
<text text-anchor="start" x="832.25" y="-87.3" font-family="Helvetica,sans-Serif" font-size="11.00">basic_two_dimensional</text>
<text text-anchor="start" x="832.25" y="-76.05" font-family="Helvetica,sans-Serif" font-size="11.00">_type&lt; size2d&lt; default</text>
<text text-anchor="middle" x="905.38" y="-64.8" font-family="Helvetica,sans-Serif" font-size="11.00">_unit, f32 &gt;, default_unit, f32 &gt;</text>
</a>
</g>
</g>
<!-- Node1&#45;&gt;Node10 -->
<g id="edge9_Node000001_Node000010" class="edge">
<title>Node1&#45;&gt;Node10</title>
<g id="a_edge9_Node000001_Node000010"><a xlink:title=" ">
<path fill="none" stroke="orange" stroke-dasharray="5,2" d="M632.07,-142.14C646.93,-130.4 666.51,-116.98 686.25,-109.38 729.9,-92.55 781.73,-85.3 823.9,-82.32"/>
<polygon fill="orange" stroke="orange" points="630.18,-139.17 624.65,-148.2 634.6,-144.59 630.18,-139.17"/>
</a>
</g>
<text text-anchor="start" x="686.25" y="-121.92" font-family="Helvetica,sans-Serif" font-size="11.00" fill="grey"> &lt; size2d&lt; default_unit,</text>
<text text-anchor="middle" x="746.25" y="-110.67" font-family="Helvetica,sans-Serif" font-size="11.00" fill="grey"> f32 &gt;, default_unit, f32 &gt;</text>
</g>
<!-- Node11 -->
<g id="Node000011" class="node">
<title>Node11</title>
<g id="a_Node000011"><a xlink:href="structfloppy_1_1math_1_1detail_1_1basic__two__dimensional__type.html" target="_top" xlink:title=" ">
<polygon fill="white" stroke="#666666" points="986.5,-41.75 824.25,-41.75 824.25,0 986.5,0 986.5,-41.75"/>
<text text-anchor="start" x="832.25" y="-27.3" font-family="Helvetica,sans-Serif" font-size="11.00">basic_two_dimensional</text>
<text text-anchor="start" x="832.25" y="-16.05" font-family="Helvetica,sans-Serif" font-size="11.00">_type&lt; vector2d&lt; default</text>
<text text-anchor="middle" x="905.38" y="-4.8" font-family="Helvetica,sans-Serif" font-size="11.00">_unit, f32 &gt;, default_unit, f32 &gt;</text>
</a>
</g>
</g>
<!-- Node1&#45;&gt;Node11 -->
<g id="edge10_Node000001_Node000011" class="edge">
<title>Node1&#45;&gt;Node11</title>
<g id="a_edge10_Node000001_Node000011"><a xlink:title=" ">
<path fill="none" stroke="orange" stroke-dasharray="5,2" d="M616.04,-138.97C628.12,-111.24 651.34,-68.36 686.25,-47.12 727.15,-22.25 780.37,-15.45 824,-14.99"/>
<polygon fill="orange" stroke="orange" points="612.86,-137.5 612.26,-148.08 619.32,-140.19 612.86,-137.5"/>
</a>
</g>
<text text-anchor="start" x="698.25" y="-71.17" font-family="Helvetica,sans-Serif" font-size="11.00" fill="grey"> &lt; vector2d&lt; default</text>
<text text-anchor="start" x="698.25" y="-59.92" font-family="Helvetica,sans-Serif" font-size="11.00" fill="grey">_unit, f32 &gt;, default</text>
<text text-anchor="middle" x="746.25" y="-48.67" font-family="Helvetica,sans-Serif" font-size="11.00" fill="grey">_unit, f32 &gt;</text>
</g>
<!-- Node2 -->
<g id="Node000002" class="node">
<title>Node2</title>
<g id="a_Node000002"><a xlink:href="structfloppy_1_1traits_1_1formattable.html" target="_top" xlink:title=" ">
<polygon fill="white" stroke="#666666" points="505,-174.5 382.5,-174.5 382.5,-155.25 505,-155.25 505,-174.5"/>
<text text-anchor="middle" x="443.75" y="-160.05" font-family="Helvetica,sans-Serif" font-size="11.00">formattable&lt; T, char &gt;</text>
</a>
</g>
</g>
<!-- Node2&#45;&gt;Node1 -->
<g id="edge1_Node000001_Node000002" class="edge">
<title>Node2&#45;&gt;Node1</title>
<g id="a_edge1_Node000001_Node000002"><a xlink:title=" ">
<path fill="none" stroke="#63b8ff" d="M516.73,-164.88C525.08,-164.88 533.53,-164.88 541.74,-164.88"/>
<polygon fill="#63b8ff" stroke="#63b8ff" points="516.97,-161.38 506.97,-164.88 516.97,-168.38 516.97,-161.38"/>
</a>
</g>
</g>
<!-- Node3 -->
<g id="Node000003" class="node">
<title>Node3</title>
<g id="a_Node000003"><a xlink:href="structfloppy_1_1traits_1_1detail_1_1formattable__base.html" target="_top" xlink:title="Interface, providing to_string method.">
<polygon fill="white" stroke="#666666" points="291,-192.5 164,-192.5 164,-173.25 291,-173.25 291,-192.5"/>
<text text-anchor="middle" x="227.5" y="-178.05" font-family="Helvetica,sans-Serif" font-size="11.00">formattable_base&lt; C &gt;</text>
</a>
</g>
</g>
<!-- Node3&#45;&gt;Node2 -->
<g id="edge2_Node000002_Node000003" class="edge">
<title>Node3&#45;&gt;Node2</title>
<g id="a_edge2_Node000002_Node000003"><a xlink:title=" ">
<path fill="none" stroke="#63b8ff" d="M302.65,-176.65C328.6,-174.47 357.41,-172.04 382.13,-169.97"/>
<polygon fill="#63b8ff" stroke="#63b8ff" points="302.51,-173.14 292.84,-177.47 303.1,-180.12 302.51,-173.14"/>
</a>
</g>
</g>
<!-- Node4 -->
<g id="Node000004" class="node">
<title>Node4</title>
<g id="a_Node000004"><a xlink:href="structfloppy_1_1traits_1_1formattable.html" target="_top" xlink:title="Allows type to be converted to string and printed via standard streams or fmt.">
<polygon fill="white" stroke="#666666" points="282.38,-155.5 172.62,-155.5 172.62,-136.25 282.38,-136.25 282.38,-155.5"/>
<text text-anchor="middle" x="227.5" y="-141.05" font-family="Helvetica,sans-Serif" font-size="11.00">formattable&lt; T, C &gt;</text>
</a>
</g>
</g>
<!-- Node4&#45;&gt;Node2 -->
<g id="edge3_Node000002_Node000004" class="edge">
<title>Node4&#45;&gt;Node2</title>
<g id="a_edge3_Node000002_Node000004"><a xlink:title=" ">
<path fill="none" stroke="orange" stroke-dasharray="5,2" d="M294.21,-149.97C316.54,-151.53 341.62,-153.45 364.5,-155.62 370.22,-156.17 376.17,-156.78 382.12,-157.43"/>
<polygon fill="orange" stroke="orange" points="294.54,-146.49 284.32,-149.3 294.06,-153.47 294.54,-146.49"/>
</a>
</g>
<text text-anchor="middle" x="336.75" y="-156.68" font-family="Helvetica,sans-Serif" font-size="11.00" fill="grey"> &lt; T, char &gt;</text>
</g>
<!-- Node5 -->
<g id="Node000005" class="node">
<title>Node5</title>
<g id="a_Node000005"><a xlink:href="structfloppy_1_1traits_1_1detail_1_1formattable__base.html" target="_top" xlink:title="Interface, providing to_string method.">
<polygon fill="white" stroke="#666666" points="127,-155.5 0,-155.5 0,-136.25 127,-136.25 127,-155.5"/>
<text text-anchor="middle" x="63.5" y="-141.05" font-family="Helvetica,sans-Serif" font-size="11.00">formattable_base&lt; C &gt;</text>
</a>
</g>
</g>
<!-- Node5&#45;&gt;Node4 -->
<g id="edge4_Node000004_Node000005" class="edge">
<title>Node5&#45;&gt;Node4</title>
<g id="a_edge4_Node000004_Node000005"><a xlink:title=" ">
<path fill="none" stroke="#63b8ff" d="M138.42,-145.88C149.79,-145.88 161.36,-145.88 172.21,-145.88"/>
<polygon fill="#63b8ff" stroke="#63b8ff" points="138.65,-142.38 128.65,-145.88 138.65,-149.38 138.65,-142.38"/>
</a>
</g>
</g>
</g>
</svg>

<g id="navigator" transform="translate(0 0)" fill="#404254">
  <rect fill="#f2f5e9" fill-opacity="0.5" stroke="#606060" stroke-width=".5" x="0" y="0" width="60" height="60"/>
  <use id="zoomplus" xlink:href="#zoomPlus" x="17" y="9" onmousedown="handleZoom(evt,'in')"/>
  <use id="zoomminus" xlink:href="#zoomMin" x="42" y="9" onmousedown="handleZoom(evt,'out')"/>
  <use id="reset" xlink:href="#resetDef" x="30" y="36" onmousedown="handleReset()"/>
   <use id="arrowup" xlink:href="#arrowUp" x="0" y="0" onmousedown="handlePan(0,-1)"/>
  <use id="arrowright" xlink:href="#arrowRight" x="0" y="0" onmousedown="handlePan(1,0)"/>
  <use id="arrowdown" xlink:href="#arrowDown" x="0" y="0" onmousedown="handlePan(0,1)"/>
  <use id="arrowleft" xlink:href="#arrowLeft" x="0" y="0" onmousedown="handlePan(-1,0)"/>
</g>
<svg viewBox="0 0 15 15" width="100%" height="30px" preserveAspectRatio="xMaxYMin meet">
 <g id="arrow_out" transform="scale(0.3 0.3)">
  <a xlink:href="structfloppy_1_1math_1_1detail_1_1basic__two__dimensional__type__inherit__graph_org.svg" target="_base">
   <rect id="button" ry="5" rx="5" y="6" x="6" height="38" width="38"
        fill="#f2f5e9" fill-opacity="0.5" stroke="#606060" stroke-width="1.0"/>
   <path id="arrow"
     d="M 11.500037,31.436501 C 11.940474,20.09759 22.043105,11.32322 32.158766,21.979434 L 37.068811,17.246167 C 37.068811,17.246167 37.088388,32 37.088388,32 L 22.160133,31.978069 C 22.160133,31.978069 26.997745,27.140456 26.997745,27.140456 C 18.528582,18.264221 13.291696,25.230495 11.500037,31.436501 z"
     style="fill:#404040;"/>
  </a>
 </g>
</svg>

<style type='text/css'>
<![CDATA[
[data-mouse-over-selected='false'] { opacity: 0.7; }
[data-mouse-over-selected='true']  { opacity: 1.0; }
]]>
</style>
<script type="application/ecmascript"><![CDATA[
document.addEventListener('DOMContentLoaded', (event) => {
  highlightEdges();
  highlightAdjacentNodes();
});
]]></script>
</svg>
