<?xml version="1.0" encoding="UTF-8" standalone="no"?>
<!DOCTYPE svg PUBLIC "-//W3C//DTD SVG 1.1//EN"
 "http://www.w3.org/Graphics/SVG/1.1/DTD/svg11.dtd">
<!-- Generated by graphviz version 10.0.1 (0)
 -->
<!-- Title: ostream_formatter&lt; C &gt; Pages: 1 -->
<!--zoomable 441 -->

<svg id="main" version="1.1" xmlns="http://www.w3.org/2000/svg" xmlns:xlink="http://www.w3.org/1999/xlink" xml:space="preserve" onload="init(evt)">
<style type="text/css"><![CDATA[
.node, .edge {opacity: 0.7;}
.node.selected, .edge.selected {opacity: 1;}
.edge:hover path { stroke: red; }
.edge:hover polygon { stroke: red; fill: red; }
]]></style>

<defs>
  <circle id="rim" cx="0" cy="0" r="7"/>
  <circle id="rim2" cx="0" cy="0" r="3.5"/>
  <g id="zoomPlus">
    <use xlink:href="#rim" fill="#404040"><set attributeName="fill" to="#808080" begin="zoomplus.mouseover" end="zoomplus.mouseout"/></use>
    <path d="M-4,0h8M0,-4v8" fill="none" stroke="white" stroke-width="1.5" pointer-events="none"/>
  </g>
  <g id="zoomMin">
    <use xlink:href="#rim" fill="#404040"><set attributeName="fill" to="#808080" begin="zoomminus.mouseover" end="zoomminus.mouseout"/></use>
    <path d="M-4,0h8" fill="none" stroke="white" stroke-width="1.5" pointer-events="none"/>
  </g>
  <g id="arrowUp" transform="translate(30 24)">
    <use xlink:href="#rim"/>
    <path pointer-events="none" fill="none" stroke="white" stroke-width="1.5" d="M0,-3.0v7 M-2.5,-0.5L0,-3.0L2.5,-0.5"/>
  </g>
  <g id="arrowRight" transform="rotate(90) translate(36 -43)">
    <use xlink:href="#rim"/>
    <path pointer-events="none" fill="none" stroke="white" stroke-width="1.5" d="M0,-3.0v7 M-2.5,-0.5L0,-3.0L2.5,-0.5"/>
  </g>
  <g id="arrowDown" transform="rotate(180) translate(-30 -48)">
    <use xlink:href="#rim"/>
    <path pointer-events="none" fill="none" stroke="white" stroke-width="1.5" d="M0,-3.0v7 M-2.5,-0.5L0,-3.0L2.5,-0.5"/>
  </g>
  <g id="arrowLeft" transform="rotate(270) translate(-36 17)">
    <use xlink:href="#rim"/>
    <path pointer-events="none" fill="none" stroke="white" stroke-width="1.5" d="M0,-3.0v7 M-2.5,-0.5L0,-3.0L2.5,-0.5"/>
  </g>
  <g id="resetDef">
    <use xlink:href="#rim2" fill="#404040"><set attributeName="fill" to="#808080" begin="reset.mouseover" end="reset.mouseout"/></use>
  </g>
</defs>
<script type="application/ecmascript">
var viewWidth = 664;
var viewHeight = 441;
var sectionId = 'dynsection-0';
</script>
<script type="application/ecmascript" xlink:href="svg.min.js"/>
<svg id="graph" class="graph">
<g id="viewport">
<title>ostream_formatter&lt; C &gt;</title>
<!-- Node1 -->
<g id="Node000001" class="node">
<title>Node1</title>
<g id="a_Node000001"><a xlink:title="Formatter for types which support stream output.">
<polygon fill="#999999" stroke="#666666" points="297,-220.88 164.75,-220.88 164.75,-201.62 297,-201.62 297,-220.88"/>
<text text-anchor="middle" x="230.88" y="-206.43" font-family="Helvetica,sans-Serif" font-size="11.00">ostream_formatter&lt; C &gt;</text>
</a>
</g>
</g>
<!-- Node3 -->
<g id="Node000003" class="node">
<title>Node3</title>
<g id="a_Node000003"><a xlink:href="structfloppy_1_1ostream__formatter.html" target="_top" xlink:title=" ">
<polygon fill="white" stroke="#666666" points="487.75,-226.5 376.5,-226.5 376.5,-196 487.75,-196 487.75,-226.5"/>
<text text-anchor="start" x="384.5" y="-212.05" font-family="Helvetica,sans-Serif" font-size="11.00">ostream_formatter&lt;</text>
<text text-anchor="middle" x="432.12" y="-200.8" font-family="Helvetica,sans-Serif" font-size="11.00"> char &gt;</text>
</a>
</g>
</g>
<!-- Node1&#45;&gt;Node3 -->
<g id="edge2_Node000001_Node000003" class="edge">
<title>Node1&#45;&gt;Node3</title>
<g id="a_edge2_Node000001_Node000003"><a xlink:title=" ">
<path fill="none" stroke="orange" stroke-dasharray="5,2" d="M308.65,-211.25C331.18,-211.25 355.36,-211.25 376.23,-211.25"/>
<polygon fill="orange" stroke="orange" points="308.91,-207.75 298.91,-211.25 308.91,-214.75 308.91,-207.75"/>
</a>
</g>
<text text-anchor="middle" x="336.75" y="-212.05" font-family="Helvetica,sans-Serif" font-size="11.00" fill="grey"> &lt; char &gt;</text>
</g>
<!-- Node2 -->
<g id="Node000002" class="node">
<title>Node2</title>
<g id="a_Node000002"><a xlink:href="structfmt_1_1formatter.html" target="_top" xlink:title="Formatter for types which can be easily converted to string.">
<polygon fill="white" stroke="#666666" points="127.75,-226.5 0,-226.5 0,-196 127.75,-196 127.75,-226.5"/>
<text text-anchor="start" x="8" y="-212.05" font-family="Helvetica,sans-Serif" font-size="11.00">formatter&lt; std::basic</text>
<text text-anchor="middle" x="63.88" y="-200.8" font-family="Helvetica,sans-Serif" font-size="11.00">_string_view&lt; C &gt;, C &gt;</text>
</a>
</g>
</g>
<!-- Node2&#45;&gt;Node1 -->
<g id="edge1_Node000001_Node000002" class="edge">
<title>Node2&#45;&gt;Node1</title>
<g id="a_edge1_Node000001_Node000002"><a xlink:title=" ">
<path fill="none" stroke="#63b8ff" d="M139.69,-211.25C147.89,-211.25 156.19,-211.25 164.26,-211.25"/>
<polygon fill="#63b8ff" stroke="#63b8ff" points="139.71,-207.75 129.71,-211.25 139.71,-214.75 139.71,-207.75"/>
</a>
</g>
</g>
<!-- Node4 -->
<g id="Node000004" class="node">
<title>Node4</title>
<g id="a_Node000004"><a xlink:href="structfmt_1_1formatter_3_01enum_01floppy_1_1platform_1_1compiler_01_4.html" target="_top" xlink:title="Formatter for floppy::platform::compiler.">
<polygon fill="white" stroke="#666666" points="654.38,-432.5 526.62,-432.5 526.62,-402 654.38,-402 654.38,-432.5"/>
<text text-anchor="start" x="534.62" y="-418.05" font-family="Helvetica,sans-Serif" font-size="11.00">formatter&lt; enum floppy</text>
<text text-anchor="middle" x="590.5" y="-406.8" font-family="Helvetica,sans-Serif" font-size="11.00">::platform::compiler &gt;</text>
</a>
</g>
</g>
<!-- Node3&#45;&gt;Node4 -->
<g id="edge3_Node000003_Node000004" class="edge">
<title>Node3&#45;&gt;Node4</title>
<g id="a_edge3_Node000003_Node000004"><a xlink:title=" ">
<path fill="none" stroke="#63b8ff" d="M439.97,-237.87C451.3,-276.88 477.53,-349.53 524.75,-392.25 528.68,-395.81 533.18,-398.88 537.92,-401.53"/>
<polygon fill="#63b8ff" stroke="#63b8ff" points="443.39,-237.08 437.33,-228.38 436.64,-238.95 443.39,-237.08"/>
</a>
</g>
</g>
<!-- Node5 -->
<g id="Node000005" class="node">
<title>Node5</title>
<g id="a_Node000005"><a xlink:href="structfmt_1_1formatter_3_01enum_01floppy_1_1platform_1_1endianness_01_4.html" target="_top" xlink:title="Formatter for floppy::platform::endianness.">
<polygon fill="white" stroke="#666666" points="656.25,-383.5 524.75,-383.5 524.75,-353 656.25,-353 656.25,-383.5"/>
<text text-anchor="start" x="532.75" y="-369.05" font-family="Helvetica,sans-Serif" font-size="11.00">formatter&lt; enum floppy</text>
<text text-anchor="middle" x="590.5" y="-357.8" font-family="Helvetica,sans-Serif" font-size="11.00">::platform::endianness &gt;</text>
</a>
</g>
</g>
<!-- Node3&#45;&gt;Node5 -->
<g id="edge4_Node000003_Node000005" class="edge">
<title>Node3&#45;&gt;Node5</title>
<g id="a_edge4_Node000003_Node000005"><a xlink:title=" ">
<path fill="none" stroke="#63b8ff" d="M444.66,-236.69C459.33,-266.38 487.3,-315.11 524.75,-344.25 528.82,-347.42 533.35,-350.2 538.07,-352.63"/>
<polygon fill="#63b8ff" stroke="#63b8ff" points="448,-235.56 440.52,-228.05 441.69,-238.58 448,-235.56"/>
</a>
</g>
</g>
<!-- Node6 -->
<g id="Node000006" class="node">
<title>Node6</title>
<g id="a_Node000006"><a xlink:href="structfmt_1_1formatter_3_01enum_01floppy_1_1platform_1_1operating__system_01_4.html" target="_top" xlink:title="Formatter for floppy::platform::operating_system.">
<polygon fill="white" stroke="#666666" points="654.38,-335.12 526.62,-335.12 526.62,-293.38 654.38,-293.38 654.38,-335.12"/>
<text text-anchor="start" x="534.62" y="-320.68" font-family="Helvetica,sans-Serif" font-size="11.00">formatter&lt; enum floppy</text>
<text text-anchor="start" x="534.62" y="-309.43" font-family="Helvetica,sans-Serif" font-size="11.00">::platform::operating</text>
<text text-anchor="middle" x="590.5" y="-298.18" font-family="Helvetica,sans-Serif" font-size="11.00">_system &gt;</text>
</a>
</g>
</g>
<!-- Node3&#45;&gt;Node6 -->
<g id="edge5_Node000003_Node000006" class="edge">
<title>Node3&#45;&gt;Node6</title>
<g id="a_edge5_Node000003_Node000006"><a xlink:title=" ">
<path fill="none" stroke="#63b8ff" d="M458.71,-234.38C476.43,-249.7 501.03,-269.6 524.75,-284.25 529.7,-287.31 535.02,-290.26 540.4,-293.03"/>
<polygon fill="#63b8ff" stroke="#63b8ff" points="461.07,-231.8 451.24,-227.84 456.45,-237.06 461.07,-231.8"/>
</a>
</g>
</g>
<!-- Node7 -->
<g id="Node000007" class="node">
<title>Node7</title>
<g id="a_Node000007"><a xlink:href="structfmt_1_1formatter_3_01floppy_1_1meta_1_1project__meta_01_4.html" target="_top" xlink:title="Formatter for floppy::meta::project_meta">
<polygon fill="white" stroke="#666666" points="649.5,-275.5 531.5,-275.5 531.5,-245 649.5,-245 649.5,-275.5"/>
<text text-anchor="start" x="539.5" y="-261.05" font-family="Helvetica,sans-Serif" font-size="11.00">formatter&lt; floppy::</text>
<text text-anchor="middle" x="590.5" y="-249.8" font-family="Helvetica,sans-Serif" font-size="11.00">meta::project_meta &gt;</text>
</a>
</g>
</g>
<!-- Node3&#45;&gt;Node7 -->
<g id="edge6_Node000003_Node000007" class="edge">
<title>Node3&#45;&gt;Node7</title>
<g id="a_edge6_Node000003_Node000007"><a xlink:title=" ">
<path fill="none" stroke="#63b8ff" d="M493.79,-230.26C508.83,-234.97 524.78,-239.97 539.26,-244.51"/>
<polygon fill="#63b8ff" stroke="#63b8ff" points="495.07,-226.99 484.48,-227.34 492.97,-233.67 495.07,-226.99"/>
</a>
</g>
</g>
<!-- Node8 -->
<g id="Node000008" class="node">
<title>Node8</title>
<g id="a_Node000008"><a xlink:href="structfmt_1_1formatter_3_01floppy_1_1meta_1_1version_01_4.html" target="_top" xlink:title="Formatter for floppy::meta::version">
<polygon fill="white" stroke="#666666" points="642.38,-226.5 538.62,-226.5 538.62,-196 642.38,-196 642.38,-226.5"/>
<text text-anchor="start" x="546.62" y="-212.05" font-family="Helvetica,sans-Serif" font-size="11.00">formatter&lt; floppy::</text>
<text text-anchor="middle" x="590.5" y="-200.8" font-family="Helvetica,sans-Serif" font-size="11.00">meta::version &gt;</text>
</a>
</g>
</g>
<!-- Node3&#45;&gt;Node8 -->
<g id="edge7_Node000003_Node000008" class="edge">
<title>Node3&#45;&gt;Node8</title>
<g id="a_edge7_Node000003_Node000008"><a xlink:title=" ">
<path fill="none" stroke="#63b8ff" d="M499.15,-211.25C512.22,-211.25 525.76,-211.25 538.25,-211.25"/>
<polygon fill="#63b8ff" stroke="#63b8ff" points="499.33,-207.75 489.33,-211.25 499.33,-214.75 499.33,-207.75"/>
</a>
</g>
</g>
<!-- Node9 -->
<g id="Node000009" class="node">
<title>Node9</title>
<g id="a_Node000009"><a xlink:href="structfmt_1_1formatter_3_01floppy_1_1platform_01_4.html" target="_top" xlink:title="Formatter for floppy::platform.">
<polygon fill="white" stroke="#666666" points="642.38,-177.5 538.62,-177.5 538.62,-147 642.38,-147 642.38,-177.5"/>
<text text-anchor="start" x="546.62" y="-163.05" font-family="Helvetica,sans-Serif" font-size="11.00">formatter&lt; floppy::</text>
<text text-anchor="middle" x="590.5" y="-151.8" font-family="Helvetica,sans-Serif" font-size="11.00">platform &gt;</text>
</a>
</g>
</g>
<!-- Node3&#45;&gt;Node9 -->
<g id="edge8_Node000003_Node000009" class="edge">
<title>Node3&#45;&gt;Node9</title>
<g id="a_edge8_Node000003_Node000009"><a xlink:title=" ">
<path fill="none" stroke="#63b8ff" d="M493.79,-192.24C508.83,-187.53 524.78,-182.53 539.26,-177.99"/>
<polygon fill="#63b8ff" stroke="#63b8ff" points="492.97,-188.83 484.48,-195.16 495.07,-195.51 492.97,-188.83"/>
</a>
</g>
</g>
<!-- Node10 -->
<g id="Node000010" class="node">
<title>Node10</title>
<g id="a_Node000010"><a xlink:href="structfmt_1_1formatter_3_01floppy_1_1platform_1_1arch_01_4.html" target="_top" xlink:title="Formatter for floppy::platform::arch.">
<polygon fill="white" stroke="#666666" points="642.38,-128.5 538.62,-128.5 538.62,-98 642.38,-98 642.38,-128.5"/>
<text text-anchor="start" x="546.62" y="-114.05" font-family="Helvetica,sans-Serif" font-size="11.00">formatter&lt; floppy::</text>
<text text-anchor="middle" x="590.5" y="-102.8" font-family="Helvetica,sans-Serif" font-size="11.00">platform::arch &gt;</text>
</a>
</g>
</g>
<!-- Node3&#45;&gt;Node10 -->
<g id="edge9_Node000003_Node000010" class="edge">
<title>Node3&#45;&gt;Node10</title>
<g id="a_edge9_Node000003_Node000010"><a xlink:title=" ">
<path fill="none" stroke="#63b8ff" d="M458.08,-187.9C475.7,-172.32 500.41,-152.21 524.75,-138.25 530.71,-134.83 537.22,-131.7 543.75,-128.89"/>
<polygon fill="#63b8ff" stroke="#63b8ff" points="455.77,-185.27 450.68,-194.57 460.45,-190.48 455.77,-185.27"/>
</a>
</g>
</g>
<!-- Node11 -->
<g id="Node000011" class="node">
<title>Node11</title>
<g id="a_Node000011"><a xlink:href="structfmt_1_1formatter_3_01floppy_1_1platform_1_1vendor_01_4.html" target="_top" xlink:title="Formatter for floppy::platform::vendor.">
<polygon fill="white" stroke="#666666" points="642.38,-79.5 538.62,-79.5 538.62,-49 642.38,-49 642.38,-79.5"/>
<text text-anchor="start" x="546.62" y="-65.05" font-family="Helvetica,sans-Serif" font-size="11.00">formatter&lt; floppy::</text>
<text text-anchor="middle" x="590.5" y="-53.8" font-family="Helvetica,sans-Serif" font-size="11.00">platform::vendor &gt;</text>
</a>
</g>
</g>
<!-- Node3&#45;&gt;Node11 -->
<g id="edge10_Node000003_Node000011" class="edge">
<title>Node3&#45;&gt;Node11</title>
<g id="a_edge10_Node000003_Node000011"><a xlink:title=" ">
<path fill="none" stroke="#63b8ff" d="M446.64,-185.56C462.18,-158.26 490.06,-115.49 524.75,-89.25 529.46,-85.69 534.74,-82.57 540.2,-79.87"/>
<polygon fill="#63b8ff" stroke="#63b8ff" points="443.63,-183.77 441.85,-194.22 449.75,-187.16 443.63,-183.77"/>
</a>
</g>
</g>
<!-- Node12 -->
<g id="Node000012" class="node">
<title>Node12</title>
<g id="a_Node000012"><a xlink:href="structfmt_1_1formatter_3_01floppy_1_1source__location_01_4.html" target="_top" xlink:title="Formatter for floppy::source_location">
<polygon fill="white" stroke="#666666" points="642.38,-30.5 538.62,-30.5 538.62,0 642.38,0 642.38,-30.5"/>
<text text-anchor="start" x="546.62" y="-16.05" font-family="Helvetica,sans-Serif" font-size="11.00">formatter&lt; floppy::</text>
<text text-anchor="middle" x="590.5" y="-4.8" font-family="Helvetica,sans-Serif" font-size="11.00">source_location &gt;</text>
</a>
</g>
</g>
<!-- Node3&#45;&gt;Node12 -->
<g id="edge11_Node000003_Node000012" class="edge">
<title>Node3&#45;&gt;Node12</title>
<g id="a_edge11_Node000003_Node000012"><a xlink:title=" ">
<path fill="none" stroke="#63b8ff" d="M440.81,-184.77C452.88,-147.61 479.66,-80.1 524.75,-40.25 528.81,-36.66 533.45,-33.56 538.33,-30.89"/>
<polygon fill="#63b8ff" stroke="#63b8ff" points="437.49,-183.66 437.86,-194.25 444.18,-185.74 437.49,-183.66"/>
</a>
</g>
</g>
</g>
</svg>

<g id="navigator" transform="translate(0 0)" fill="#404254">
  <rect fill="#f2f5e9" fill-opacity="0.5" stroke="#606060" stroke-width=".5" x="0" y="0" width="60" height="60"/>
  <use id="zoomplus" xlink:href="#zoomPlus" x="17" y="9" onmousedown="handleZoom(evt,'in')"/>
  <use id="zoomminus" xlink:href="#zoomMin" x="42" y="9" onmousedown="handleZoom(evt,'out')"/>
  <use id="reset" xlink:href="#resetDef" x="30" y="36" onmousedown="handleReset()"/>
   <use id="arrowup" xlink:href="#arrowUp" x="0" y="0" onmousedown="handlePan(0,-1)"/>
  <use id="arrowright" xlink:href="#arrowRight" x="0" y="0" onmousedown="handlePan(1,0)"/>
  <use id="arrowdown" xlink:href="#arrowDown" x="0" y="0" onmousedown="handlePan(0,1)"/>
  <use id="arrowleft" xlink:href="#arrowLeft" x="0" y="0" onmousedown="handlePan(-1,0)"/>
</g>
<svg viewBox="0 0 15 15" width="100%" height="30px" preserveAspectRatio="xMaxYMin meet">
 <g id="arrow_out" transform="scale(0.3 0.3)">
  <a xlink:href="structfloppy_1_1ostream__formatter__inherit__graph_org.svg" target="_base">
   <rect id="button" ry="5" rx="5" y="6" x="6" height="38" width="38"
        fill="#f2f5e9" fill-opacity="0.5" stroke="#606060" stroke-width="1.0"/>
   <path id="arrow"
     d="M 11.500037,31.436501 C 11.940474,20.09759 22.043105,11.32322 32.158766,21.979434 L 37.068811,17.246167 C 37.068811,17.246167 37.088388,32 37.088388,32 L 22.160133,31.978069 C 22.160133,31.978069 26.997745,27.140456 26.997745,27.140456 C 18.528582,18.264221 13.291696,25.230495 11.500037,31.436501 z"
     style="fill:#404040;"/>
  </a>
 </g>
</svg>

<style type='text/css'>
<![CDATA[
[data-mouse-over-selected='false'] { opacity: 0.7; }
[data-mouse-over-selected='true']  { opacity: 1.0; }
]]>
</style>
<script type="application/ecmascript"><![CDATA[
document.addEventListener('DOMContentLoaded', (event) => {
  highlightEdges();
  highlightAdjacentNodes();
});
]]></script>
</svg>
