<?xml version="1.0" encoding="UTF-8" standalone="no"?>
<!DOCTYPE svg PUBLIC "-//W3C//DTD SVG 1.1//EN"
 "http://www.w3.org/Graphics/SVG/1.1/DTD/svg11.dtd">
<!-- Generated by graphviz version 10.0.1 (0)
 -->
<!-- Title: basic_numeric_newtype&lt; T, U &gt; Pages: 1 -->
<svg width="192pt" height="105pt"
 viewBox="0.00 0.00 192.12 105.00" xmlns="http://www.w3.org/2000/svg" xmlns:xlink="http://www.w3.org/1999/xlink">
<g id="graph0" class="graph" transform="scale(1 1) rotate(0) translate(4 101)">
<title>basic_numeric_newtype&lt; T, U &gt;</title>
<!-- Node1 -->
<g id="Node000001" class="node">
<title>Node1</title>
<g id="a_Node000001"><a xlink:title="CRTP base for numeric newtypes that can be compared.">
<polygon fill="#999999" stroke="#666666" points="184.12,-30.5 52.62,-30.5 52.62,0 184.12,0 184.12,-30.5"/>
<text text-anchor="start" x="60.62" y="-16.05" font-family="Helvetica,sans-Serif" font-size="11.00">basic_numeric_newtype</text>
<text text-anchor="middle" x="118.38" y="-4.8" font-family="Helvetica,sans-Serif" font-size="11.00">&lt; T, U &gt;</text>
</a>
</g>
</g>
<!-- Node2 -->
<g id="Node000002" class="node">
<title>Node2</title>
<g id="a_Node000002"><a xlink:href="structfloppy_1_1math_1_1detail_1_1default__comparable.html" target="_top" xlink:title="CRTP base for trivially comparable numeric types.">
<polygon fill="white" stroke="#666666" points="136.75,-97 0,-97 0,-77.75 136.75,-77.75 136.75,-97"/>
<text text-anchor="middle" x="68.38" y="-82.55" font-family="Helvetica,sans-Serif" font-size="11.00">default_comparable&lt; T &gt;</text>
</a>
</g>
</g>
<!-- Node2&#45;&gt;Node1 -->
<g id="edge1_Node000001_Node000002" class="edge">
<title>Node2&#45;&gt;Node1</title>
<g id="a_edge1_Node000001_Node000002"><a xlink:title=" ">
<path fill="none" stroke="#63b8ff" d="M81.25,-68.32C89.53,-56.7 100.16,-41.8 107.92,-30.92"/>
<polygon fill="#63b8ff" stroke="#63b8ff" points="78.54,-66.09 75.59,-76.26 84.24,-70.15 78.54,-66.09"/>
</a>
</g>
</g>
<!-- Node3 -->
<g id="Node000003" class="node">
<title>Node3</title>
<g id="a_Node000003"><a xlink:title=" ">
<polygon fill="white" stroke="#bfbfbf" points="183.78,-97 154.97,-97 154.97,-77.75 183.78,-77.75 183.78,-97"/>
<text text-anchor="middle" x="169.38" y="-82.55" font-family="Helvetica,sans-Serif" font-size="11.00">U</text>
</a>
</g>
</g>
<!-- Node3&#45;&gt;Node1 -->
<g id="edge2_Node000001_Node000003" class="edge">
<title>Node3&#45;&gt;Node1</title>
<g id="a_edge2_Node000001_Node000003"><a xlink:title=" ">
<path fill="none" stroke="#9a32cd" stroke-dasharray="5,2" d="M156.24,-68.32C147.79,-56.7 136.96,-41.8 129.04,-30.92"/>
<polygon fill="#9a32cd" stroke="#9a32cd" points="153.31,-70.24 162.03,-76.27 158.97,-66.12 153.31,-70.24"/>
</a>
</g>
<text text-anchor="middle" x="158.38" y="-49.3" font-family="Helvetica,sans-Serif" font-size="11.00" fill="grey"> m_</text>
</g>
</g>
</svg>
