<?xml version="1.0" encoding="UTF-8" standalone="no"?>
<!DOCTYPE svg PUBLIC "-//W3C//DTD SVG 1.1//EN"
 "http://www.w3.org/Graphics/SVG/1.1/DTD/svg11.dtd">
<!-- Generated by graphviz version 10.0.1 (0)
 -->
<!-- Title: basic_numeric_newtype&lt; T, U &gt; Pages: 1 -->
<svg width="586pt" height="162pt"
 viewBox="0.00 0.00 585.75 161.88" xmlns="http://www.w3.org/2000/svg" xmlns:xlink="http://www.w3.org/1999/xlink">
<g id="graph0" class="graph" transform="scale(1 1) rotate(0) translate(4 157.88)">
<title>basic_numeric_newtype&lt; T, U &gt;</title>
<!-- Node1 -->
<g id="Node000001" class="node">
<title>Node1</title>
<g id="a_Node000001"><a xlink:title="CRTP base for numeric newtypes that can be compared.">
<polygon fill="#999999" stroke="#666666" points="304.25,-82.88 172.75,-82.88 172.75,-52.38 304.25,-52.38 304.25,-82.88"/>
<text text-anchor="start" x="180.75" y="-68.42" font-family="Arial" font-size="11.00">basic_numeric_newtype</text>
<text text-anchor="middle" x="238.5" y="-57.17" font-family="Arial" font-size="11.00">&lt; T, U &gt;</text>
</a>
</g>
</g>
<!-- Node3 -->
<g id="Node000003" class="node">
<title>Node3</title>
<g id="a_Node000003"><a xlink:href="structfloppy_1_1math_1_1detail_1_1advanced__numeric__type.html" target="_top" xlink:title=" ">
<polygon fill="white" stroke="#666666" points="473.25,-153.88 340.25,-153.88 340.25,-123.38 473.25,-123.38 473.25,-153.88"/>
<text text-anchor="start" x="348.25" y="-139.43" font-family="Arial" font-size="11.00">advanced_numeric_type</text>
<text text-anchor="middle" x="406.75" y="-128.18" font-family="Arial" font-size="11.00">&lt; angle&lt; f32 &gt;, f32 &gt;</text>
</a>
</g>
</g>
<!-- Node1&#45;&gt;Node3 -->
<g id="edge2_Node000001_Node000003" class="edge">
<title>Node1&#45;&gt;Node3</title>
<g id="a_edge2_Node000001_Node000003"><a xlink:title=" ">
<path fill="none" stroke="#63b8ff" d="M282.46,-87.97C300.23,-96.19 321.12,-105.62 340.25,-113.62 347.66,-116.73 355.6,-119.89 363.31,-122.88"/>
<polygon fill="#63b8ff" stroke="#63b8ff" points="284.31,-84.97 273.76,-83.92 281.35,-91.31 284.31,-84.97"/>
</a>
</g>
</g>
<!-- Node4 -->
<g id="Node000004" class="node">
<title>Node4</title>
<g id="a_Node000004"><a xlink:href="structfloppy_1_1math_1_1detail_1_1advanced__numeric__type.html" target="_top" xlink:title="CRTP base for numeric newtypes containing math operations implementation.">
<polygon fill="white" stroke="#666666" points="473.25,-104.88 340.25,-104.88 340.25,-74.38 473.25,-74.38 473.25,-104.88"/>
<text text-anchor="start" x="348.25" y="-90.42" font-family="Arial" font-size="11.00">advanced_numeric_type</text>
<text text-anchor="middle" x="406.75" y="-79.17" font-family="Arial" font-size="11.00">&lt; T, U &gt;</text>
</a>
</g>
</g>
<!-- Node1&#45;&gt;Node4 -->
<g id="edge3_Node000001_Node000004" class="edge">
<title>Node1&#45;&gt;Node4</title>
<g id="a_edge3_Node000001_Node000004"><a xlink:title=" ">
<path fill="none" stroke="#63b8ff" d="M315.95,-77.74C323.95,-78.8 332.03,-79.87 339.89,-80.91"/>
<polygon fill="#63b8ff" stroke="#63b8ff" points="316.6,-74.3 306.23,-76.46 315.68,-81.24 316.6,-74.3"/>
</a>
</g>
</g>
<!-- Node6 -->
<g id="Node000006" class="node">
<title>Node6</title>
<g id="a_Node000006"><a xlink:href="classfloppy_1_1math_1_1length.html" target="_top" xlink:title="A one&#45;dimensional distance with associated unit of measurement.">
<polygon fill="white" stroke="#666666" points="449.25,-56.25 364.25,-56.25 364.25,-37 449.25,-37 449.25,-56.25"/>
<text text-anchor="middle" x="406.75" y="-41.8" font-family="Arial" font-size="11.00">length&lt; U, T &gt;</text>
</a>
</g>
</g>
<!-- Node1&#45;&gt;Node6 -->
<g id="edge5_Node000001_Node000006" class="edge">
<title>Node1&#45;&gt;Node6</title>
<g id="a_edge5_Node000001_Node000006"><a xlink:title=" ">
<path fill="none" stroke="#63b8ff" d="M316.11,-57.95C332.67,-55.86 349.58,-53.72 364.18,-51.88"/>
<polygon fill="#63b8ff" stroke="#63b8ff" points="315.71,-54.47 306.23,-59.2 316.59,-61.41 315.71,-54.47"/>
</a>
</g>
</g>
<!-- Node7 -->
<g id="Node000007" class="node">
<title>Node7</title>
<g id="a_Node000007"><a xlink:href="structfloppy_1_1math_1_1scale.html" target="_top" xlink:title="A scaling factor between two different units of measurement.">
<polygon fill="white" stroke="#666666" points="454.12,-19.25 359.38,-19.25 359.38,0 454.12,0 454.12,-19.25"/>
<text text-anchor="middle" x="406.75" y="-4.8" font-family="Arial" font-size="11.00">scale&lt; S, D, T &gt;</text>
</a>
</g>
</g>
<!-- Node1&#45;&gt;Node7 -->
<g id="edge6_Node000001_Node000007" class="edge">
<title>Node1&#45;&gt;Node7</title>
<g id="a_edge6_Node000001_Node000007"><a xlink:title=" ">
<path fill="none" stroke="#63b8ff" d="M286.64,-47.67C303.41,-40.9 322.54,-33.56 340.25,-27.62 348.64,-24.82 357.73,-22.11 366.4,-19.68"/>
<polygon fill="#63b8ff" stroke="#63b8ff" points="285.33,-44.43 277.39,-51.45 287.97,-50.91 285.33,-44.43"/>
</a>
</g>
</g>
<!-- Node2 -->
<g id="Node000002" class="node">
<title>Node2</title>
<g id="a_Node000002"><a xlink:href="structfloppy_1_1math_1_1detail_1_1default__comparable.html" target="_top" xlink:title="CRTP base for trivially comparable numeric types.">
<polygon fill="white" stroke="#666666" points="136.75,-77.25 0,-77.25 0,-58 136.75,-58 136.75,-77.25"/>
<text text-anchor="middle" x="68.38" y="-62.8" font-family="Arial" font-size="11.00">default_comparable&lt; T &gt;</text>
</a>
</g>
</g>
<!-- Node2&#45;&gt;Node1 -->
<g id="edge1_Node000001_Node000002" class="edge">
<title>Node2&#45;&gt;Node1</title>
<g id="a_edge1_Node000001_Node000002"><a xlink:title=" ">
<path fill="none" stroke="#63b8ff" d="M148.13,-67.62C156.21,-67.62 164.35,-67.62 172.26,-67.62"/>
<polygon fill="#63b8ff" stroke="#63b8ff" points="148.3,-64.13 138.3,-67.63 148.3,-71.13 148.3,-64.13"/>
</a>
</g>
</g>
<!-- Node5 -->
<g id="Node000005" class="node">
<title>Node5</title>
<g id="a_Node000005"><a xlink:href="structfloppy_1_1math_1_1angle.html" target="_top" xlink:title="Newtype describing an angle.">
<polygon fill="white" stroke="#666666" points="577.75,-99.25 509.25,-99.25 509.25,-80 577.75,-80 577.75,-99.25"/>
<text text-anchor="middle" x="543.5" y="-84.8" font-family="Arial" font-size="11.00">angle&lt; T &gt;</text>
</a>
</g>
</g>
<!-- Node4&#45;&gt;Node5 -->
<g id="edge4_Node000004_Node000005" class="edge">
<title>Node4&#45;&gt;Node5</title>
<g id="a_edge4_Node000004_Node000005"><a xlink:title=" ">
<path fill="none" stroke="#63b8ff" d="M485.04,-89.62C493.41,-89.62 501.57,-89.62 509,-89.62"/>
<polygon fill="#63b8ff" stroke="#63b8ff" points="485.06,-86.13 475.06,-89.63 485.06,-93.13 485.06,-86.13"/>
</a>
</g>
</g>
</g>
</svg>
