<?xml version="1.0" encoding="UTF-8" standalone="no"?>
<!DOCTYPE svg PUBLIC "-//W3C//DTD SVG 1.1//EN"
 "http://www.w3.org/Graphics/SVG/1.1/DTD/svg11.dtd">
<!-- Generated by graphviz version 10.0.1 (0)
 -->
<!-- Title: advanced_numeric_type&lt; T, U &gt; Pages: 1 -->
<svg width="145pt" height="216pt"
 viewBox="0.00 0.00 144.75 215.50" xmlns="http://www.w3.org/2000/svg" xmlns:xlink="http://www.w3.org/1999/xlink">
<g id="graph0" class="graph" transform="scale(1 1) rotate(0) translate(4 211.5)">
<title>advanced_numeric_type&lt; T, U &gt;</title>
<!-- Node1 -->
<g id="Node000001" class="node">
<title>Node1</title>
<g id="a_Node000001"><a xlink:title="CRTP base for numeric newtypes containing math operations implementation.">
<polygon fill="#999999" stroke="#666666" points="134.88,-85.75 1.88,-85.75 1.88,-55.25 134.88,-55.25 134.88,-85.75"/>
<text text-anchor="start" x="9.88" y="-71.3" font-family="Arial" font-size="11.00">advanced_numeric_type</text>
<text text-anchor="middle" x="68.38" y="-60.05" font-family="Arial" font-size="11.00">&lt; T, U &gt;</text>
</a>
</g>
</g>
<!-- Node4 -->
<g id="Node000004" class="node">
<title>Node4</title>
<g id="a_Node000004"><a xlink:href="structfloppy_1_1math_1_1angle.html" target="_top" xlink:title="Newtype describing an angle.">
<polygon fill="white" stroke="#666666" points="102.62,-19.25 34.12,-19.25 34.12,0 102.62,0 102.62,-19.25"/>
<text text-anchor="middle" x="68.38" y="-4.8" font-family="Arial" font-size="11.00">angle&lt; T &gt;</text>
</a>
</g>
</g>
<!-- Node1&#45;&gt;Node4 -->
<g id="edge3_Node000001_Node000004" class="edge">
<title>Node1&#45;&gt;Node4</title>
<g id="a_edge3_Node000001_Node000004"><a xlink:title=" ">
<path fill="none" stroke="#63b8ff" d="M68.38,-43.48C68.38,-34.98 68.38,-26.09 68.38,-19.7"/>
<polygon fill="#63b8ff" stroke="#63b8ff" points="64.88,-43.43 68.38,-53.43 71.88,-43.43 64.88,-43.43"/>
</a>
</g>
</g>
<!-- Node2 -->
<g id="Node000002" class="node">
<title>Node2</title>
<g id="a_Node000002"><a xlink:href="structfloppy_1_1math_1_1detail_1_1basic__numeric__newtype.html" target="_top" xlink:title="CRTP base for numeric newtypes that can be compared.">
<polygon fill="white" stroke="#666666" points="134.12,-152.25 2.62,-152.25 2.62,-121.75 134.12,-121.75 134.12,-152.25"/>
<text text-anchor="start" x="10.62" y="-137.8" font-family="Arial" font-size="11.00">basic_numeric_newtype</text>
<text text-anchor="middle" x="68.38" y="-126.55" font-family="Arial" font-size="11.00">&lt; T, U &gt;</text>
</a>
</g>
</g>
<!-- Node2&#45;&gt;Node1 -->
<g id="edge1_Node000001_Node000002" class="edge">
<title>Node2&#45;&gt;Node1</title>
<g id="a_edge1_Node000001_Node000002"><a xlink:title=" ">
<path fill="none" stroke="#63b8ff" d="M68.38,-110.06C68.38,-101.89 68.38,-93.16 68.38,-86.08"/>
<polygon fill="#63b8ff" stroke="#63b8ff" points="64.88,-109.85 68.38,-119.85 71.88,-109.85 64.88,-109.85"/>
</a>
</g>
</g>
<!-- Node3 -->
<g id="Node000003" class="node">
<title>Node3</title>
<g id="a_Node000003"><a xlink:href="structfloppy_1_1math_1_1detail_1_1default__comparable.html" target="_top" xlink:title="CRTP base for trivially comparable numeric types.">
<polygon fill="white" stroke="#666666" points="136.75,-207.5 0,-207.5 0,-188.25 136.75,-188.25 136.75,-207.5"/>
<text text-anchor="middle" x="68.38" y="-193.05" font-family="Arial" font-size="11.00">default_comparable&lt; T &gt;</text>
</a>
</g>
</g>
<!-- Node3&#45;&gt;Node2 -->
<g id="edge2_Node000002_Node000003" class="edge">
<title>Node3&#45;&gt;Node2</title>
<g id="a_edge2_Node000002_Node000003"><a xlink:title=" ">
<path fill="none" stroke="#63b8ff" d="M68.38,-176.67C68.38,-168.74 68.38,-159.81 68.38,-152.53"/>
<polygon fill="#63b8ff" stroke="#63b8ff" points="64.88,-176.42 68.38,-186.42 71.88,-176.42 64.88,-176.42"/>
</a>
</g>
</g>
</g>
</svg>
