<?xml version="1.0" encoding="UTF-8" standalone="no"?>
<!DOCTYPE svg PUBLIC "-//W3C//DTD SVG 1.1//EN"
 "http://www.w3.org/Graphics/SVG/1.1/DTD/svg11.dtd">
<!-- Generated by graphviz version 10.0.1 (0)
 -->
<!-- Title: singleton&lt; T &gt; Pages: 1 -->
<svg width="242pt" height="138pt"
 viewBox="0.00 0.00 241.88 137.75" xmlns="http://www.w3.org/2000/svg" xmlns:xlink="http://www.w3.org/1999/xlink">
<g id="graph0" class="graph" transform="scale(1 1) rotate(0) translate(4 133.75)">
<title>singleton&lt; T &gt;</title>
<!-- Node1 -->
<g id="Node000001" class="node">
<title>Node1</title>
<g id="a_Node000001"><a xlink:title="Singleton pattern trait.">
<polygon fill="#999999" stroke="#666666" points="160,-19.25 75,-19.25 75,0 160,0 160,-19.25"/>
<text text-anchor="middle" x="117.5" y="-4.8" font-family="Helvetica,sans-Serif" font-size="11.00">singleton&lt; T &gt;</text>
</a>
</g>
</g>
<!-- Node2 -->
<g id="Node000002" class="node">
<title>Node2</title>
<g id="a_Node000002"><a xlink:href="structfloppy_1_1traits_1_1pin.html" target="_top" xlink:title="Disallow copy and move operations for a type.">
<polygon fill="white" stroke="#666666" points="145.75,-74.5 89.25,-74.5 89.25,-55.25 145.75,-55.25 145.75,-74.5"/>
<text text-anchor="middle" x="117.5" y="-60.05" font-family="Helvetica,sans-Serif" font-size="11.00">pin&lt; T &gt;</text>
</a>
</g>
</g>
<!-- Node2&#45;&gt;Node1 -->
<g id="edge1_Node000001_Node000002" class="edge">
<title>Node2&#45;&gt;Node1</title>
<g id="a_edge1_Node000001_Node000002"><a xlink:title=" ">
<path fill="none" stroke="#63b8ff" d="M117.5,-43.63C117.5,-35.34 117.5,-26.17 117.5,-19.61"/>
<polygon fill="#63b8ff" stroke="#63b8ff" points="114,-43.57 117.5,-53.57 121,-43.57 114,-43.57"/>
</a>
</g>
</g>
<!-- Node3 -->
<g id="Node000003" class="node">
<title>Node3</title>
<g id="a_Node000003"><a xlink:href="structfloppy_1_1traits_1_1non__copyable.html" target="_top" xlink:title="Disallow copy operations for a type.">
<polygon fill="white" stroke="#666666" points="109,-129.75 0,-129.75 0,-110.5 109,-110.5 109,-129.75"/>
<text text-anchor="middle" x="54.5" y="-115.3" font-family="Helvetica,sans-Serif" font-size="11.00">non_copyable&lt; T &gt;</text>
</a>
</g>
</g>
<!-- Node3&#45;&gt;Node2 -->
<g id="edge2_Node000002_Node000003" class="edge">
<title>Node3&#45;&gt;Node2</title>
<g id="a_edge2_Node000002_Node000003"><a xlink:title=" ">
<path fill="none" stroke="#63b8ff" d="M73.68,-102.91C84.62,-93.67 97.91,-82.43 106.97,-74.77"/>
<polygon fill="#63b8ff" stroke="#63b8ff" points="71.72,-99.99 66.34,-109.11 76.24,-105.33 71.72,-99.99"/>
</a>
</g>
</g>
<!-- Node4 -->
<g id="Node000004" class="node">
<title>Node4</title>
<g id="a_Node000004"><a xlink:href="structfloppy_1_1traits_1_1non__movable.html" target="_top" xlink:title="Disallow move operations for a type.">
<polygon fill="white" stroke="#666666" points="233.88,-129.75 127.12,-129.75 127.12,-110.5 233.88,-110.5 233.88,-129.75"/>
<text text-anchor="middle" x="180.5" y="-115.3" font-family="Helvetica,sans-Serif" font-size="11.00">non_movable&lt; T &gt;</text>
</a>
</g>
</g>
<!-- Node4&#45;&gt;Node2 -->
<g id="edge3_Node000002_Node000004" class="edge">
<title>Node4&#45;&gt;Node2</title>
<g id="a_edge3_Node000002_Node000004"><a xlink:title=" ">
<path fill="none" stroke="#63b8ff" d="M161.32,-102.91C150.38,-93.67 137.09,-82.43 128.03,-74.77"/>
<polygon fill="#63b8ff" stroke="#63b8ff" points="158.76,-105.33 168.66,-109.11 163.28,-99.99 158.76,-105.33"/>
</a>
</g>
</g>
</g>
</svg>
