<?xml version="1.0" encoding="UTF-8" standalone="no"?>
<!DOCTYPE svg PUBLIC "-//W3C//DTD SVG 1.1//EN"
 "http://www.w3.org/Graphics/SVG/1.1/DTD/svg11.dtd">
<!-- Generated by graphviz version 10.0.1 (0)
 -->
<!-- Title: resolved_trace Pages: 1 -->
<svg width="384pt" height="238pt"
 viewBox="0.00 0.00 384.25 238.00" xmlns="http://www.w3.org/2000/svg" xmlns:xlink="http://www.w3.org/1999/xlink">

<svg id="main" version="1.1" xmlns="http://www.w3.org/2000/svg" xmlns:xlink="http://www.w3.org/1999/xlink" xml:space="preserve" onload="init(evt)">
<style type="text/css"><![CDATA[
.node, .edge {opacity: 0.7;}
.node.selected, .edge.selected {opacity: 1;}
.edge:hover path { stroke: red; }
.edge:hover polygon { stroke: red; fill: red; }
]]></style>
<script type="application/ecmascript" xlink:href="svg.min.js"/>
<svg id="graph" class="graph">
<g id="graph0" class="graph" transform="scale(1 1) rotate(0) translate(4 234)">
<title>resolved_trace</title>
<!-- Node1 -->
<g id="Node000001" class="node">
<title>Node1</title>
<g id="a_Node000001"><a xlink:title=" ">
<polygon fill="#999999" stroke="#666666" points="168.25,-19.25 81.75,-19.25 81.75,0 168.25,0 168.25,-19.25"/>
<text text-anchor="middle" x="125" y="-4.8" font-family="Helvetica,sans-Serif" font-size="11.00">resolved_trace</text>
</a>
</g>
</g>
<!-- Node2 -->
<g id="Node000002" class="node">
<title>Node2</title>
<g id="a_Node000002"><a xlink:href="structfloppy_1_1stacktrace_1_1impl_1_1trace.html" target="_top" xlink:title=" ">
<polygon fill="white" stroke="#bfbfbf" points="40,-97 0,-97 0,-77.75 40,-77.75 40,-97"/>
<text text-anchor="middle" x="20" y="-82.55" font-family="Helvetica,sans-Serif" font-size="11.00">trace</text>
</a>
</g>
</g>
<!-- Node2&#45;&gt;Node1 -->
<g id="edge1_Node000001_Node000002" class="edge">
<title>Node2&#45;&gt;Node1</title>
<g id="a_edge1_Node000001_Node000002"><a xlink:title=" ">
<path fill="none" stroke="#63b8ff" d="M35.36,-69.1C44.94,-58.99 57.91,-46.45 71,-37.25 80.84,-30.34 92.73,-24.27 102.85,-19.67"/>
<polygon fill="#63b8ff" stroke="#63b8ff" points="32.83,-66.69 28.63,-76.42 37.98,-71.43 32.83,-66.69"/>
</a>
</g>
</g>
<!-- Node3 -->
<g id="Node000003" class="node">
<title>Node3</title>
<g id="a_Node000003"><a xlink:title=" ">
<polygon fill="white" stroke="#666666" points="100.12,-97 57.88,-97 57.88,-77.75 100.12,-77.75 100.12,-97"/>
<text text-anchor="middle" x="79" y="-82.55" font-family="Helvetica,sans-Serif" font-size="11.00">string</text>
</a>
</g>
</g>
<!-- Node3&#45;&gt;Node1 -->
<g id="edge2_Node000001_Node000003" class="edge">
<title>Node3&#45;&gt;Node1</title>
<g id="a_edge2_Node000001_Node000003"><a xlink:title=" ">
<path fill="none" stroke="#9a32cd" stroke-dasharray="5,2" d="M75.11,-66.23C74.33,-56.84 74.98,-45.86 80,-37.25 84.58,-29.41 92.44,-23.63 100.33,-19.5"/>
<polygon fill="#9a32cd" stroke="#9a32cd" points="71.6,-66.44 76.5,-75.84 78.53,-65.44 71.6,-66.44"/>
</a>
</g>
<text text-anchor="middle" x="119" y="-49.3" font-family="Helvetica,sans-Serif" font-size="11.00" fill="grey"> object_filename</text>
<text text-anchor="middle" x="119" y="-38.05" font-family="Helvetica,sans-Serif" font-size="11.00" fill="grey">object_function</text>
</g>
<!-- Node4 -->
<g id="Node000004" class="node">
<title>Node4</title>
<g id="a_Node000004"><a xlink:title=" ">
<polygon fill="white" stroke="#666666" points="134.25,-163.5 17.75,-163.5 17.75,-144.25 134.25,-144.25 134.25,-163.5"/>
<text text-anchor="middle" x="76" y="-149.05" font-family="Helvetica,sans-Serif" font-size="11.00">basic_string&lt; Char &gt;</text>
</a>
</g>
</g>
<!-- Node4&#45;&gt;Node3 -->
<g id="edge3_Node000003_Node000004" class="edge">
<title>Node4&#45;&gt;Node3</title>
<g id="a_edge3_Node000003_Node000004"><a xlink:title=" ">
<path fill="none" stroke="#63b8ff" d="M76.93,-132.77C77.49,-120.87 78.16,-106.38 78.59,-97.27"/>
<polygon fill="#63b8ff" stroke="#63b8ff" points="73.46,-132.24 76.49,-142.39 80.45,-132.57 73.46,-132.24"/>
</a>
</g>
</g>
<!-- Node5 -->
<g id="Node000005" class="node">
<title>Node5</title>
<g id="a_Node000005"><a xlink:href="structfloppy_1_1source__location.html" target="_top" xlink:title="Provides information about the location of the current source file.">
<polygon fill="white" stroke="#666666" points="243.5,-163.5 152.5,-163.5 152.5,-144.25 243.5,-144.25 243.5,-163.5"/>
<text text-anchor="middle" x="198" y="-149.05" font-family="Helvetica,sans-Serif" font-size="11.00">source_location</text>
</a>
</g>
</g>
<!-- Node5&#45;&gt;Node1 -->
<g id="edge4_Node000001_Node000005" class="edge">
<title>Node5&#45;&gt;Node1</title>
<g id="a_edge4_Node000001_Node000005"><a xlink:title=" ">
<path fill="none" stroke="#9a32cd" stroke-dasharray="5,2" d="M191.84,-133.18C182.1,-102.33 163.66,-45.31 158,-37.25 153.09,-30.26 145.85,-24.14 139.41,-19.54"/>
<polygon fill="#9a32cd" stroke="#9a32cd" points="188.42,-133.97 194.76,-142.46 195.1,-131.87 188.42,-133.97"/>
</a>
</g>
<text text-anchor="middle" x="197.62" y="-82.55" font-family="Helvetica,sans-Serif" font-size="11.00" fill="grey"> source</text>
</g>
<!-- Node6 -->
<g id="Node000006" class="node">
<title>Node6</title>
<g id="a_Node000006"><a xlink:title=" ">
<polygon fill="white" stroke="#666666" points="350.75,-97 225.25,-97 225.25,-77.75 350.75,-77.75 350.75,-97"/>
<text text-anchor="middle" x="288" y="-82.55" font-family="Helvetica,sans-Serif" font-size="11.00">vector&lt; source_loc_t &gt;</text>
</a>
</g>
</g>
<!-- Node5&#45;&gt;Node6 -->
<g id="edge6_Node000006_Node000005" class="edge">
<title>Node5&#45;&gt;Node6</title>
<g id="a_edge6_Node000006_Node000005"><a xlink:title=" ">
<path fill="none" stroke="#9a32cd" stroke-dasharray="5,2" d="M214.93,-136.26C222.44,-129.29 231.59,-121.35 240.5,-115 249.74,-108.41 260.75,-102.15 269.85,-97.36"/>
<polygon fill="#9a32cd" stroke="#9a32cd" points="212.89,-133.36 208.06,-142.79 217.72,-138.43 212.89,-133.36"/>
</a>
</g>
<text text-anchor="middle" x="263.25" y="-115.8" font-family="Helvetica,sans-Serif" font-size="11.00" fill="grey"> elements</text>
</g>
<!-- Node6&#45;&gt;Node1 -->
<g id="edge5_Node000001_Node000006" class="edge">
<title>Node6&#45;&gt;Node1</title>
<g id="a_edge5_Node000001_Node000006"><a xlink:title=" ">
<path fill="none" stroke="#9a32cd" stroke-dasharray="5,2" d="M259.5,-72.3C239.12,-62.32 210.99,-48.71 186,-37.25 172.87,-31.23 158.02,-24.74 146.26,-19.67"/>
<polygon fill="#9a32cd" stroke="#9a32cd" points="257.79,-75.36 268.31,-76.63 260.88,-69.08 257.79,-75.36"/>
</a>
</g>
<text text-anchor="middle" x="251.38" y="-43.67" font-family="Helvetica,sans-Serif" font-size="11.00" fill="grey"> inliners</text>
</g>
<!-- Node7 -->
<g id="Node000007" class="node">
<title>Node7</title>
<g id="a_Node000007"><a xlink:title=" ">
<polygon fill="white" stroke="#666666" points="332.75,-163.5 261.25,-163.5 261.25,-144.25 332.75,-144.25 332.75,-163.5"/>
<text text-anchor="middle" x="297" y="-149.05" font-family="Helvetica,sans-Serif" font-size="11.00">vector&lt; T &gt;</text>
</a>
</g>
</g>
<!-- Node7&#45;&gt;Node6 -->
<g id="edge7_Node000006_Node000007" class="edge">
<title>Node7&#45;&gt;Node6</title>
<g id="a_edge7_Node000006_Node000007"><a xlink:title=" ">
<path fill="none" stroke="orange" stroke-dasharray="5,2" d="M294.2,-132.77C292.53,-120.87 290.51,-106.38 289.24,-97.27"/>
<polygon fill="orange" stroke="orange" points="290.69,-132.99 295.54,-142.41 297.62,-132.02 290.69,-132.99"/>
</a>
</g>
<text text-anchor="middle" x="334.62" y="-115.8" font-family="Helvetica,sans-Serif" font-size="11.00" fill="grey"> &lt; source_loc_t &gt;</text>
</g>
<!-- Node8 -->
<g id="Node000008" class="node">
<title>Node8</title>
<g id="a_Node000008"><a xlink:title=" ">
<polygon fill="white" stroke="#bfbfbf" points="311.4,-230 282.6,-230 282.6,-210.75 311.4,-210.75 311.4,-230"/>
<text text-anchor="middle" x="297" y="-215.55" font-family="Helvetica,sans-Serif" font-size="11.00">T</text>
</a>
</g>
</g>
<!-- Node8&#45;&gt;Node7 -->
<g id="edge8_Node000007_Node000008" class="edge">
<title>Node8&#45;&gt;Node7</title>
<g id="a_edge8_Node000007_Node000008"><a xlink:title=" ">
<path fill="none" stroke="#9a32cd" stroke-dasharray="5,2" d="M297,-198.9C297,-187.07 297,-172.79 297,-163.77"/>
<polygon fill="#9a32cd" stroke="#9a32cd" points="293.5,-198.89 297,-208.89 300.5,-198.89 293.5,-198.89"/>
</a>
</g>
<text text-anchor="middle" x="320.25" y="-182.3" font-family="Helvetica,sans-Serif" font-size="11.00" fill="grey"> elements</text>
</g>
</g>
</svg>
</svg>

<style type='text/css'>
<![CDATA[
[data-mouse-over-selected='false'] { opacity: 0.7; }
[data-mouse-over-selected='true']  { opacity: 1.0; }
]]>
</style>
<script type="application/ecmascript"><![CDATA[
document.addEventListener('DOMContentLoaded', (event) => {
  highlightEdges();
  highlightAdjacentNodes();
});
]]></script>
</svg>
