<?xml version="1.0" encoding="UTF-8" standalone="no"?>
<!DOCTYPE svg PUBLIC "-//W3C//DTD SVG 1.1//EN"
 "http://www.w3.org/Graphics/SVG/1.1/DTD/svg11.dtd">
<!-- Generated by graphviz version 10.0.1 (0)
 -->
<!-- Title: default_comparable&lt; T &gt; Pages: 1 -->
<svg width="586pt" height="259pt"
 viewBox="0.00 0.00 585.75 258.88" xmlns="http://www.w3.org/2000/svg" xmlns:xlink="http://www.w3.org/1999/xlink">
<g id="graph0" class="graph" transform="scale(1 1) rotate(0) translate(4 254.88)">
<title>default_comparable&lt; T &gt;</title>
<!-- Node1 -->
<g id="Node000001" class="node">
<title>Node1</title>
<g id="a_Node000001"><a xlink:title="CRTP base for trivially comparable numeric types.">
<polygon fill="#999999" stroke="#666666" points="136.75,-161.25 0,-161.25 0,-142 136.75,-142 136.75,-161.25"/>
<text text-anchor="middle" x="68.38" y="-146.8" font-family="Arial" font-size="11.00">default_comparable&lt; T &gt;</text>
</a>
</g>
</g>
<!-- Node2 -->
<g id="Node000002" class="node">
<title>Node2</title>
<g id="a_Node000002"><a xlink:href="structfloppy_1_1math_1_1detail_1_1basic__numeric__newtype.html" target="_top" xlink:title=" ">
<polygon fill="white" stroke="#666666" points="304.25,-250.88 172.75,-250.88 172.75,-220.38 304.25,-220.38 304.25,-250.88"/>
<text text-anchor="start" x="180.75" y="-236.43" font-family="Arial" font-size="11.00">basic_numeric_newtype</text>
<text text-anchor="middle" x="238.5" y="-225.18" font-family="Arial" font-size="11.00">&lt; angle&lt; f32 &gt;, U &gt;</text>
</a>
</g>
</g>
<!-- Node1&#45;&gt;Node2 -->
<g id="edge1_Node000001_Node000002" class="edge">
<title>Node1&#45;&gt;Node2</title>
<g id="a_edge1_Node000001_Node000002"><a xlink:title=" ">
<path fill="none" stroke="#63b8ff" d="M94.22,-167.66C114.76,-180.53 144.97,-198.53 172.75,-211.62 178.93,-214.54 185.57,-217.34 192.16,-219.95"/>
<polygon fill="#63b8ff" stroke="#63b8ff" points="96.29,-164.83 85.97,-162.44 92.54,-170.75 96.29,-164.83"/>
</a>
</g>
</g>
<!-- Node3 -->
<g id="Node000003" class="node">
<title>Node3</title>
<g id="a_Node000003"><a xlink:href="structfloppy_1_1math_1_1detail_1_1basic__numeric__newtype.html" target="_top" xlink:title=" ">
<polygon fill="white" stroke="#666666" points="304.25,-202.5 172.75,-202.5 172.75,-160.75 304.25,-160.75 304.25,-202.5"/>
<text text-anchor="start" x="180.75" y="-188.05" font-family="Arial" font-size="11.00">basic_numeric_newtype</text>
<text text-anchor="start" x="180.75" y="-176.8" font-family="Arial" font-size="11.00">&lt; length&lt; default_unit,</text>
<text text-anchor="middle" x="238.5" y="-165.55" font-family="Arial" font-size="11.00"> f32 &gt;, f32 &gt;</text>
</a>
</g>
</g>
<!-- Node1&#45;&gt;Node3 -->
<g id="edge2_Node000001_Node000003" class="edge">
<title>Node1&#45;&gt;Node3</title>
<g id="a_edge2_Node000001_Node000003"><a xlink:title=" ">
<path fill="none" stroke="#63b8ff" d="M136.91,-163.68C148.64,-165.77 160.82,-167.94 172.49,-170.02"/>
<polygon fill="#63b8ff" stroke="#63b8ff" points="137.78,-160.28 127.32,-161.96 136.55,-167.17 137.78,-160.28"/>
</a>
</g>
</g>
<!-- Node4 -->
<g id="Node000004" class="node">
<title>Node4</title>
<g id="a_Node000004"><a xlink:href="structfloppy_1_1math_1_1detail_1_1basic__numeric__newtype.html" target="_top" xlink:title=" ">
<polygon fill="white" stroke="#666666" points="304.25,-142.5 172.75,-142.5 172.75,-100.75 304.25,-100.75 304.25,-142.5"/>
<text text-anchor="start" x="180.75" y="-128.05" font-family="Arial" font-size="11.00">basic_numeric_newtype</text>
<text text-anchor="start" x="180.75" y="-116.8" font-family="Arial" font-size="11.00">&lt; scale&lt; S, D, f32 &gt;,</text>
<text text-anchor="middle" x="238.5" y="-105.55" font-family="Arial" font-size="11.00"> f32 &gt;</text>
</a>
</g>
</g>
<!-- Node1&#45;&gt;Node4 -->
<g id="edge3_Node000001_Node000004" class="edge">
<title>Node1&#45;&gt;Node4</title>
<g id="a_edge3_Node000001_Node000004"><a xlink:title=" ">
<path fill="none" stroke="#63b8ff" d="M136.91,-139.57C148.64,-137.48 160.82,-135.31 172.49,-133.23"/>
<polygon fill="#63b8ff" stroke="#63b8ff" points="136.55,-136.08 127.32,-141.29 137.78,-142.97 136.55,-136.08"/>
</a>
</g>
</g>
<!-- Node5 -->
<g id="Node000005" class="node">
<title>Node5</title>
<g id="a_Node000005"><a xlink:href="structfloppy_1_1math_1_1detail_1_1basic__numeric__newtype.html" target="_top" xlink:title="CRTP base for numeric newtypes that can be compared.">
<polygon fill="white" stroke="#666666" points="304.25,-82.88 172.75,-82.88 172.75,-52.38 304.25,-52.38 304.25,-82.88"/>
<text text-anchor="start" x="180.75" y="-68.42" font-family="Arial" font-size="11.00">basic_numeric_newtype</text>
<text text-anchor="middle" x="238.5" y="-57.17" font-family="Arial" font-size="11.00">&lt; T, U &gt;</text>
</a>
</g>
</g>
<!-- Node1&#45;&gt;Node5 -->
<g id="edge4_Node000001_Node000005" class="edge">
<title>Node1&#45;&gt;Node5</title>
<g id="a_edge4_Node000001_Node000005"><a xlink:title=" ">
<path fill="none" stroke="#63b8ff" d="M94.22,-135.59C114.76,-122.72 144.97,-104.72 172.75,-91.62 178.93,-88.71 185.57,-85.91 192.16,-83.3"/>
<polygon fill="#63b8ff" stroke="#63b8ff" points="92.54,-132.5 85.97,-140.81 96.29,-138.42 92.54,-132.5"/>
</a>
</g>
</g>
<!-- Node6 -->
<g id="Node000006" class="node">
<title>Node6</title>
<g id="a_Node000006"><a xlink:href="structfloppy_1_1math_1_1detail_1_1advanced__numeric__type.html" target="_top" xlink:title=" ">
<polygon fill="white" stroke="#666666" points="473.25,-153.88 340.25,-153.88 340.25,-123.38 473.25,-123.38 473.25,-153.88"/>
<text text-anchor="start" x="348.25" y="-139.43" font-family="Arial" font-size="11.00">advanced_numeric_type</text>
<text text-anchor="middle" x="406.75" y="-128.18" font-family="Arial" font-size="11.00">&lt; angle&lt; f32 &gt;, f32 &gt;</text>
</a>
</g>
</g>
<!-- Node5&#45;&gt;Node6 -->
<g id="edge5_Node000005_Node000006" class="edge">
<title>Node5&#45;&gt;Node6</title>
<g id="a_edge5_Node000005_Node000006"><a xlink:title=" ">
<path fill="none" stroke="#63b8ff" d="M295.8,-87.73C298.68,-89 301.51,-90.3 304.25,-91.62 321.12,-99.81 323.42,-105.36 340.25,-113.62 346.91,-116.9 354.12,-120.03 361.23,-122.9"/>
<polygon fill="#63b8ff" stroke="#63b8ff" points="297.22,-84.53 286.65,-83.9 294.52,-90.99 297.22,-84.53"/>
</a>
</g>
</g>
<!-- Node7 -->
<g id="Node000007" class="node">
<title>Node7</title>
<g id="a_Node000007"><a xlink:href="structfloppy_1_1math_1_1detail_1_1advanced__numeric__type.html" target="_top" xlink:title="CRTP base for numeric newtypes containing math operations implementation.">
<polygon fill="white" stroke="#666666" points="473.25,-104.88 340.25,-104.88 340.25,-74.38 473.25,-74.38 473.25,-104.88"/>
<text text-anchor="start" x="348.25" y="-90.42" font-family="Arial" font-size="11.00">advanced_numeric_type</text>
<text text-anchor="middle" x="406.75" y="-79.17" font-family="Arial" font-size="11.00">&lt; T, U &gt;</text>
</a>
</g>
</g>
<!-- Node5&#45;&gt;Node7 -->
<g id="edge6_Node000005_Node000007" class="edge">
<title>Node5&#45;&gt;Node7</title>
<g id="a_edge6_Node000005_Node000007"><a xlink:title=" ">
<path fill="none" stroke="#63b8ff" d="M315.95,-77.74C323.95,-78.8 332.03,-79.87 339.89,-80.91"/>
<polygon fill="#63b8ff" stroke="#63b8ff" points="316.6,-74.3 306.23,-76.46 315.68,-81.24 316.6,-74.3"/>
</a>
</g>
</g>
<!-- Node9 -->
<g id="Node000009" class="node">
<title>Node9</title>
<g id="a_Node000009"><a xlink:href="classfloppy_1_1math_1_1length.html" target="_top" xlink:title="A one&#45;dimensional distance with associated unit of measurement.">
<polygon fill="white" stroke="#666666" points="449.25,-56.25 364.25,-56.25 364.25,-37 449.25,-37 449.25,-56.25"/>
<text text-anchor="middle" x="406.75" y="-41.8" font-family="Arial" font-size="11.00">length&lt; U, T &gt;</text>
</a>
</g>
</g>
<!-- Node5&#45;&gt;Node9 -->
<g id="edge8_Node000005_Node000009" class="edge">
<title>Node5&#45;&gt;Node9</title>
<g id="a_edge8_Node000005_Node000009"><a xlink:title=" ">
<path fill="none" stroke="#63b8ff" d="M316.11,-57.95C332.67,-55.86 349.58,-53.72 364.18,-51.88"/>
<polygon fill="#63b8ff" stroke="#63b8ff" points="315.71,-54.47 306.23,-59.2 316.59,-61.41 315.71,-54.47"/>
</a>
</g>
</g>
<!-- Node10 -->
<g id="Node000010" class="node">
<title>Node10</title>
<g id="a_Node000010"><a xlink:href="structfloppy_1_1math_1_1scale.html" target="_top" xlink:title="A scaling factor between two different units of measurement.">
<polygon fill="white" stroke="#666666" points="454.12,-19.25 359.38,-19.25 359.38,0 454.12,0 454.12,-19.25"/>
<text text-anchor="middle" x="406.75" y="-4.8" font-family="Arial" font-size="11.00">scale&lt; S, D, T &gt;</text>
</a>
</g>
</g>
<!-- Node5&#45;&gt;Node10 -->
<g id="edge9_Node000005_Node000010" class="edge">
<title>Node5&#45;&gt;Node10</title>
<g id="a_edge9_Node000005_Node000010"><a xlink:title=" ">
<path fill="none" stroke="#63b8ff" d="M286.64,-47.67C303.41,-40.9 322.54,-33.56 340.25,-27.62 348.64,-24.82 357.73,-22.11 366.4,-19.68"/>
<polygon fill="#63b8ff" stroke="#63b8ff" points="285.33,-44.43 277.39,-51.45 287.97,-50.91 285.33,-44.43"/>
</a>
</g>
</g>
<!-- Node8 -->
<g id="Node000008" class="node">
<title>Node8</title>
<g id="a_Node000008"><a xlink:href="structfloppy_1_1math_1_1angle.html" target="_top" xlink:title="Newtype describing an angle.">
<polygon fill="white" stroke="#666666" points="577.75,-99.25 509.25,-99.25 509.25,-80 577.75,-80 577.75,-99.25"/>
<text text-anchor="middle" x="543.5" y="-84.8" font-family="Arial" font-size="11.00">angle&lt; T &gt;</text>
</a>
</g>
</g>
<!-- Node7&#45;&gt;Node8 -->
<g id="edge7_Node000007_Node000008" class="edge">
<title>Node7&#45;&gt;Node8</title>
<g id="a_edge7_Node000007_Node000008"><a xlink:title=" ">
<path fill="none" stroke="#63b8ff" d="M485.04,-89.62C493.41,-89.62 501.57,-89.62 509,-89.62"/>
<polygon fill="#63b8ff" stroke="#63b8ff" points="485.06,-86.13 475.06,-89.63 485.06,-93.13 485.06,-86.13"/>
</a>
</g>
</g>
</g>
</svg>
