<?xml version="1.0" encoding="UTF-8" standalone="no"?>
<!DOCTYPE svg PUBLIC "-//W3C//DTD SVG 1.1//EN"
 "http://www.w3.org/Graphics/SVG/1.1/DTD/svg11.dtd">
<!-- Generated by graphviz version 10.0.1 (0)
 -->
<!-- Title: vector2d.h Pages: 1 -->
<svg width="999pt" height="570pt"
 viewBox="0.00 0.00 998.62 569.50" xmlns="http://www.w3.org/2000/svg" xmlns:xlink="http://www.w3.org/1999/xlink">
<g id="graph0" class="graph" transform="scale(1 1) rotate(0) translate(4 565.5)">
<title>vector2d.h</title>
<!-- Node1 -->
<g id="Node000001" class="node">
<title>Node1</title>
<g id="a_Node000001"><a xlink:title="A two&#45;dimensional vector tagged with a unit.">
<polygon fill="#999999" stroke="#666666" points="596,-561.5 529.75,-561.5 529.75,-542.25 596,-542.25 596,-561.5"/>
<text text-anchor="middle" x="562.88" y="-547.05" font-family="Helvetica,sans-Serif" font-size="11.00">vector2d.h</text>
</a>
</g>
</g>
<!-- Node2 -->
<g id="Node000002" class="node">
<title>Node2</title>
<g id="a_Node000002"><a xlink:title=" ">
<polygon fill="#e0e0e0" stroke="#999999" points="400.75,-506.25 339,-506.25 339,-487 400.75,-487 400.75,-506.25"/>
<text text-anchor="middle" x="369.88" y="-491.8" font-family="Helvetica,sans-Serif" font-size="11.00">functional</text>
</a>
</g>
</g>
<!-- Node1&#45;&gt;Node2 -->
<g id="edge1_Node000001_Node000002" class="edge">
<title>Node1&#45;&gt;Node2</title>
<g id="a_edge1_Node000001_Node000002"><a xlink:title=" ">
<path fill="none" stroke="#63b8ff" d="M530.14,-541.84C497.63,-532.87 447.64,-519.08 412.15,-509.29"/>
<polygon fill="#63b8ff" stroke="#63b8ff" points="413.2,-505.95 402.63,-506.66 411.34,-512.7 413.2,-505.95"/>
</a>
</g>
</g>
<!-- Node3 -->
<g id="Node000003" class="node">
<title>Node3</title>
<g id="a_Node000003"><a xlink:href="angle_8h.html" target="_top" xlink:title="Newtype describing an angle.">
<polygon fill="white" stroke="#666666" points="438.62,-329.25 325.12,-329.25 325.12,-310 438.62,-310 438.62,-329.25"/>
<text text-anchor="middle" x="381.88" y="-314.8" font-family="Helvetica,sans-Serif" font-size="11.00">floppy/euclid/angle.h</text>
</a>
</g>
</g>
<!-- Node1&#45;&gt;Node3 -->
<g id="edge2_Node000001_Node000003" class="edge">
<title>Node1&#45;&gt;Node3</title>
<g id="a_edge2_Node000001_Node000003"><a xlink:title=" ">
<path fill="none" stroke="#63b8ff" d="M550.41,-541.81C528.6,-525.5 483,-489.33 452.88,-451 424.7,-415.15 401.56,-366.59 389.95,-340"/>
<polygon fill="#63b8ff" stroke="#63b8ff" points="393.19,-338.68 386.05,-330.85 386.75,-341.42 393.19,-338.68"/>
</a>
</g>
</g>
<!-- Node31 -->
<g id="Node000031" class="node">
<title>Node31</title>
<g id="a_Node000031"><a xlink:href="length_8h.html" target="_top" xlink:title="A one&#45;dimensional distance with associated unit of measurement.">
<polygon fill="white" stroke="#666666" points="641.12,-384.5 524.62,-384.5 524.62,-365.25 641.12,-365.25 641.12,-384.5"/>
<text text-anchor="middle" x="582.88" y="-370.05" font-family="Helvetica,sans-Serif" font-size="11.00">floppy/euclid/length.h</text>
</a>
</g>
</g>
<!-- Node1&#45;&gt;Node31 -->
<g id="edge42_Node000001_Node000031" class="edge">
<title>Node1&#45;&gt;Node31</title>
<g id="a_edge42_Node000001_Node000031"><a xlink:title=" ">
<path fill="none" stroke="#63b8ff" d="M556.28,-541.86C550.41,-533.22 542.23,-519.56 538.88,-506.25 529.57,-469.29 524.41,-455.76 538.88,-420.5 543.47,-409.29 552.39,-399.39 561,-391.78"/>
<polygon fill="#63b8ff" stroke="#63b8ff" points="562.96,-394.71 568.5,-385.68 558.54,-389.28 562.96,-394.71"/>
</a>
</g>
</g>
<!-- Node33 -->
<g id="Node000033" class="node">
<title>Node33</title>
<g id="a_Node000033"><a xlink:href="size2d_8h.html" target="_top" xlink:title="A two&#45;dimensional size tagged with a unit.">
<polygon fill="white" stroke="#666666" points="665.88,-506.25 547.88,-506.25 547.88,-487 665.88,-487 665.88,-506.25"/>
<text text-anchor="middle" x="606.88" y="-491.8" font-family="Helvetica,sans-Serif" font-size="11.00">floppy/euclid/size2d.h</text>
</a>
</g>
</g>
<!-- Node1&#45;&gt;Node33 -->
<g id="edge48_Node000001_Node000033" class="edge">
<title>Node1&#45;&gt;Node33</title>
<g id="a_edge48_Node000001_Node000033"><a xlink:title=" ">
<path fill="none" stroke="#63b8ff" d="M570.14,-542.08C576.16,-534.8 584.89,-524.23 592.33,-515.23"/>
<polygon fill="#63b8ff" stroke="#63b8ff" points="594.82,-517.71 598.49,-507.78 589.42,-513.26 594.82,-517.71"/>
</a>
</g>
</g>
<!-- Node34 -->
<g id="Node000034" class="node">
<title>Node34</title>
<g id="a_Node000034"><a xlink:href="nt__traits2d_8h.html" target="_top" xlink:title=" ">
<polygon fill="white" stroke="#666666" points="764.75,-451 661,-451 661,-420.5 764.75,-420.5 764.75,-451"/>
<text text-anchor="start" x="669" y="-436.55" font-family="Helvetica,sans-Serif" font-size="11.00">floppy/euclid/detail</text>
<text text-anchor="middle" x="712.88" y="-425.3" font-family="Helvetica,sans-Serif" font-size="11.00">/nt_traits2d.h</text>
</a>
</g>
</g>
<!-- Node1&#45;&gt;Node34 -->
<g id="edge60_Node000001_Node000034" class="edge">
<title>Node1&#45;&gt;Node34</title>
<g id="a_edge60_Node000001_Node000034"><a xlink:title=" ">
<path fill="none" stroke="#63b8ff" d="M596.49,-543.93C620.6,-537.53 652.62,-525.96 674.88,-506.25 688.33,-494.33 697.95,-476.47 704.14,-461.84"/>
<polygon fill="#63b8ff" stroke="#63b8ff" points="707.28,-463.43 707.67,-452.84 700.76,-460.88 707.28,-463.43"/>
</a>
</g>
</g>
<!-- Node40 -->
<g id="Node000040" class="node">
<title>Node40</title>
<g id="a_Node000040"><a xlink:title=" ">
<polygon fill="#e0e0e0" stroke="#999999" points="794,-506.25 721.75,-506.25 721.75,-487 794,-487 794,-506.25"/>
<text text-anchor="middle" x="757.88" y="-491.8" font-family="Helvetica,sans-Serif" font-size="11.00">qvector2d.h</text>
</a>
</g>
</g>
<!-- Node1&#45;&gt;Node40 -->
<g id="edge61_Node000001_Node000040" class="edge">
<title>Node1&#45;&gt;Node40</title>
<g id="a_edge61_Node000001_Node000040"><a xlink:title=" ">
<path fill="none" stroke="#63b8ff" d="M595.95,-541.84C628.31,-533.01 677.8,-519.49 713.55,-509.73"/>
<polygon fill="#63b8ff" stroke="#63b8ff" points="714.45,-513.11 723.17,-507.1 712.6,-506.36 714.45,-513.11"/>
</a>
</g>
</g>
<!-- Node4 -->
<g id="Node000004" class="node">
<title>Node4</title>
<g id="a_Node000004"><a xlink:href="math_8h_source.html" target="_top" xlink:title=" ">
<polygon fill="white" stroke="#666666" points="646.38,-201.88 537.38,-201.88 537.38,-182.62 646.38,-182.62 646.38,-201.88"/>
<text text-anchor="middle" x="591.88" y="-187.43" font-family="Helvetica,sans-Serif" font-size="11.00">floppy/detail/math.h</text>
</a>
</g>
</g>
<!-- Node3&#45;&gt;Node4 -->
<g id="edge3_Node000003_Node000004" class="edge">
<title>Node3&#45;&gt;Node4</title>
<g id="a_edge3_Node000003_Node000004"><a xlink:title=" ">
<path fill="none" stroke="#63b8ff" d="M387.91,-309.95C399.06,-294.52 424.36,-262.19 452.88,-243.5 479.75,-225.88 513.6,-213.47 541.17,-205.4"/>
<polygon fill="#63b8ff" stroke="#63b8ff" points="542.03,-208.79 550.71,-202.71 540.14,-202.05 542.03,-208.79"/>
</a>
</g>
</g>
<!-- Node22 -->
<g id="Node000022" class="node">
<title>Node22</title>
<g id="a_Node000022"><a xlink:href="traits_8h_source.html" target="_top" xlink:title=" ">
<polygon fill="white" stroke="#666666" points="368.75,-268.38 289,-268.38 289,-249.12 368.75,-249.12 368.75,-268.38"/>
<text text-anchor="middle" x="328.88" y="-253.93" font-family="Helvetica,sans-Serif" font-size="11.00">floppy/traits.h</text>
</a>
</g>
</g>
<!-- Node3&#45;&gt;Node22 -->
<g id="edge23_Node000003_Node000022" class="edge">
<title>Node3&#45;&gt;Node22</title>
<g id="a_edge23_Node000003_Node000022"><a xlink:title=" ">
<path fill="none" stroke="#63b8ff" d="M373.83,-309.68C366.12,-301.12 354.29,-287.98 344.69,-277.32"/>
<polygon fill="#63b8ff" stroke="#63b8ff" points="347.3,-274.99 338.01,-269.9 342.1,-279.67 347.3,-274.99"/>
</a>
</g>
</g>
<!-- Node30 -->
<g id="Node000030" class="node">
<title>Node30</title>
<g id="a_Node000030"><a xlink:href="nt__traits_8h.html" target="_top" xlink:title=" ">
<polygon fill="white" stroke="#666666" points="684.75,-274 581,-274 581,-243.5 684.75,-243.5 684.75,-274"/>
<text text-anchor="start" x="589" y="-259.55" font-family="Helvetica,sans-Serif" font-size="11.00">floppy/euclid/detail</text>
<text text-anchor="middle" x="632.88" y="-248.3" font-family="Helvetica,sans-Serif" font-size="11.00">/nt_traits.h</text>
</a>
</g>
</g>
<!-- Node3&#45;&gt;Node30 -->
<g id="edge39_Node000003_Node000030" class="edge">
<title>Node3&#45;&gt;Node30</title>
<g id="a_edge39_Node000003_Node000030"><a xlink:title=" ">
<path fill="none" stroke="#63b8ff" d="M420.54,-309.55C460.26,-300.24 522.75,-285.58 569.66,-274.58"/>
<polygon fill="#63b8ff" stroke="#63b8ff" points="570.22,-278.04 579.16,-272.35 568.62,-271.23 570.22,-278.04"/>
</a>
</g>
</g>
<!-- Node5 -->
<g id="Node000005" class="node">
<title>Node5</title>
<g id="a_Node000005"><a xlink:title=" ">
<polygon fill="#e0e0e0" stroke="#999999" points="597.5,-141 552.25,-141 552.25,-121.75 597.5,-121.75 597.5,-141"/>
<text text-anchor="middle" x="574.88" y="-126.55" font-family="Helvetica,sans-Serif" font-size="11.00">cmath</text>
</a>
</g>
</g>
<!-- Node4&#45;&gt;Node5 -->
<g id="edge4_Node000004_Node000005" class="edge">
<title>Node4&#45;&gt;Node5</title>
<g id="a_edge4_Node000004_Node000005"><a xlink:title=" ">
<path fill="none" stroke="#63b8ff" d="M589.29,-182.31C587,-174.35 583.56,-162.44 580.61,-152.24"/>
<polygon fill="#63b8ff" stroke="#63b8ff" points="584.04,-151.49 577.9,-142.86 577.31,-153.43 584.04,-151.49"/>
</a>
</g>
</g>
<!-- Node6 -->
<g id="Node000006" class="node">
<title>Node6</title>
<g id="a_Node000006"><a xlink:title=" ">
<polygon fill="#e0e0e0" stroke="#999999" points="655.88,-141 615.88,-141 615.88,-121.75 655.88,-121.75 655.88,-141"/>
<text text-anchor="middle" x="635.88" y="-126.55" font-family="Helvetica,sans-Serif" font-size="11.00">limits</text>
</a>
</g>
</g>
<!-- Node4&#45;&gt;Node6 -->
<g id="edge5_Node000004_Node000006" class="edge">
<title>Node4&#45;&gt;Node6</title>
<g id="a_edge5_Node000004_Node000006"><a xlink:title=" ">
<path fill="none" stroke="#63b8ff" d="M598.56,-182.31C604.82,-173.92 614.38,-161.13 622.26,-150.59"/>
<polygon fill="#63b8ff" stroke="#63b8ff" points="625.04,-152.72 628.22,-142.61 619.43,-148.53 625.04,-152.72"/>
</a>
</g>
</g>
<!-- Node7 -->
<g id="Node000007" class="node">
<title>Node7</title>
<g id="a_Node000007"><a xlink:title=" ">
<polygon fill="#e0e0e0" stroke="#999999" points="731.88,-141 673.88,-141 673.88,-121.75 731.88,-121.75 731.88,-141"/>
<text text-anchor="middle" x="702.88" y="-126.55" font-family="Helvetica,sans-Serif" font-size="11.00">numbers</text>
</a>
</g>
</g>
<!-- Node4&#45;&gt;Node7 -->
<g id="edge6_Node000004_Node000007" class="edge">
<title>Node4&#45;&gt;Node7</title>
<g id="a_edge6_Node000004_Node000007"><a xlink:title=" ">
<path fill="none" stroke="#63b8ff" d="M608.73,-182.31C626.58,-172.84 655.01,-157.76 675.97,-146.65"/>
<polygon fill="#63b8ff" stroke="#63b8ff" points="677.33,-149.89 684.52,-142.11 674.05,-143.7 677.33,-149.89"/>
</a>
</g>
</g>
<!-- Node8 -->
<g id="Node000008" class="node">
<title>Node8</title>
<g id="a_Node000008"><a xlink:title=" ">
<polygon fill="#e0e0e0" stroke="#999999" points="400.88,-141 342.88,-141 342.88,-121.75 400.88,-121.75 400.88,-141"/>
<text text-anchor="middle" x="371.88" y="-126.55" font-family="Helvetica,sans-Serif" font-size="11.00">compare</text>
</a>
</g>
</g>
<!-- Node4&#45;&gt;Node8 -->
<g id="edge7_Node000004_Node000008" class="edge">
<title>Node4&#45;&gt;Node8</title>
<g id="a_edge7_Node000004_Node000008"><a xlink:title=" ">
<path fill="none" stroke="#63b8ff" d="M557.98,-182.18C518.68,-171.66 453.94,-154.34 412.12,-143.14"/>
<polygon fill="#63b8ff" stroke="#63b8ff" points="413.25,-139.83 402.69,-140.62 411.45,-146.59 413.25,-139.83"/>
</a>
</g>
</g>
<!-- Node9 -->
<g id="Node000009" class="node">
<title>Node9</title>
<g id="a_Node000009"><a xlink:href="export_8h_source.html" target="_top" xlink:title=" ">
<polygon fill="white" stroke="#666666" points="534.38,-141 419.38,-141 419.38,-121.75 534.38,-121.75 534.38,-141"/>
<text text-anchor="middle" x="476.88" y="-126.55" font-family="Helvetica,sans-Serif" font-size="11.00">floppy/detail/export.h</text>
</a>
</g>
</g>
<!-- Node4&#45;&gt;Node9 -->
<g id="edge8_Node000004_Node000009" class="edge">
<title>Node4&#45;&gt;Node9</title>
<g id="a_edge8_Node000004_Node000009"><a xlink:title=" ">
<path fill="none" stroke="#63b8ff" d="M574.41,-182.31C555.83,-172.8 526.19,-157.62 504.46,-146.5"/>
<polygon fill="#63b8ff" stroke="#63b8ff" points="506.35,-143.53 495.85,-142.09 503.16,-149.76 506.35,-143.53"/>
</a>
</g>
</g>
<!-- Node14 -->
<g id="Node000014" class="node">
<title>Node14</title>
<g id="a_Node000014"><a xlink:href="concepts_8h_source.html" target="_top" xlink:title=" ">
<polygon fill="white" stroke="#666666" points="877.75,-141 750,-141 750,-121.75 877.75,-121.75 877.75,-141"/>
<text text-anchor="middle" x="813.88" y="-126.55" font-family="Helvetica,sans-Serif" font-size="11.00">floppy/detail/concepts.h</text>
</a>
</g>
</g>
<!-- Node4&#45;&gt;Node14 -->
<g id="edge13_Node000004_Node000014" class="edge">
<title>Node4&#45;&gt;Node14</title>
<g id="a_edge13_Node000004_Node000014"><a xlink:title=" ">
<path fill="none" stroke="#63b8ff" d="M626.08,-182.18C664.29,-172.05 726.32,-155.59 768.55,-144.39"/>
<polygon fill="#63b8ff" stroke="#63b8ff" points="769.4,-147.79 778.17,-141.84 767.61,-141.02 769.4,-147.79"/>
</a>
</g>
</g>
<!-- Node10 -->
<g id="Node000010" class="node">
<title>Node10</title>
<g id="a_Node000010"><a xlink:title=" ">
<polygon fill="#e0e0e0" stroke="#999999" points="473,-80.12 430.75,-80.12 430.75,-60.88 473,-60.88 473,-80.12"/>
<text text-anchor="middle" x="451.88" y="-65.67" font-family="Helvetica,sans-Serif" font-size="11.00">string</text>
</a>
</g>
</g>
<!-- Node9&#45;&gt;Node10 -->
<g id="edge9_Node000009_Node000010" class="edge">
<title>Node9&#45;&gt;Node10</title>
<g id="a_edge9_Node000009_Node000010"><a xlink:title=" ">
<path fill="none" stroke="#63b8ff" d="M473.08,-121.43C469.66,-113.39 464.53,-101.3 460.17,-91.03"/>
<polygon fill="#63b8ff" stroke="#63b8ff" points="463.43,-89.76 456.3,-81.92 456.99,-92.49 463.43,-89.76"/>
</a>
</g>
</g>
<!-- Node11 -->
<g id="Node000011" class="node">
<title>Node11</title>
<g id="a_Node000011"><a xlink:title=" ">
<polygon fill="#e0e0e0" stroke="#999999" points="313.88,-80.12 243.88,-80.12 243.88,-60.88 313.88,-60.88 313.88,-80.12"/>
<text text-anchor="middle" x="278.88" y="-65.67" font-family="Helvetica,sans-Serif" font-size="11.00">string_view</text>
</a>
</g>
</g>
<!-- Node9&#45;&gt;Node11 -->
<g id="edge10_Node000009_Node000011" class="edge">
<title>Node9&#45;&gt;Node11</title>
<g id="a_edge10_Node000009_Node000011"><a xlink:title=" ">
<path fill="none" stroke="#63b8ff" d="M446.37,-121.3C412.51,-111.24 357.67,-94.93 320.02,-83.74"/>
<polygon fill="#63b8ff" stroke="#63b8ff" points="321.45,-80.51 310.86,-81.01 319.45,-87.22 321.45,-80.51"/>
</a>
</g>
</g>
<!-- Node12 -->
<g id="Node000012" class="node">
<title>Node12</title>
<g id="a_Node000012"><a xlink:title=" ">
<polygon fill="#e0e0e0" stroke="#999999" points="404.5,-80.12 347.25,-80.12 347.25,-60.88 404.5,-60.88 404.5,-80.12"/>
<text text-anchor="middle" x="375.88" y="-65.67" font-family="Helvetica,sans-Serif" font-size="11.00">iostream</text>
</a>
</g>
</g>
<!-- Node9&#45;&gt;Node12 -->
<g id="edge11_Node000009_Node000012" class="edge">
<title>Node9&#45;&gt;Node12</title>
<g id="a_edge11_Node000009_Node000012"><a xlink:title=" ">
<path fill="none" stroke="#63b8ff" d="M461.54,-121.43C445.52,-112.1 420.13,-97.3 401.15,-86.23"/>
<polygon fill="#63b8ff" stroke="#63b8ff" points="403.07,-83.3 392.67,-81.29 399.54,-89.35 403.07,-83.3"/>
</a>
</g>
</g>
<!-- Node13 -->
<g id="Node000013" class="node">
<title>Node13</title>
<g id="a_Node000013"><a xlink:title=" ">
<polygon fill="#e0e0e0" stroke="#999999" points="537.75,-19.25 464,-19.25 464,0 537.75,0 537.75,-19.25"/>
<text text-anchor="middle" x="500.88" y="-4.8" font-family="Helvetica,sans-Serif" font-size="11.00">fmt/format.h</text>
</a>
</g>
</g>
<!-- Node9&#45;&gt;Node13 -->
<g id="edge12_Node000009_Node000013" class="edge">
<title>Node9&#45;&gt;Node13</title>
<g id="a_edge12_Node000009_Node000013"><a xlink:title=" ">
<path fill="none" stroke="#63b8ff" d="M478.68,-121.37C482.5,-102.3 491.5,-57.41 496.79,-31.01"/>
<polygon fill="#63b8ff" stroke="#63b8ff" points="500.22,-31.71 498.75,-21.21 493.36,-30.33 500.22,-31.71"/>
</a>
</g>
</g>
<!-- Node15 -->
<g id="Node000015" class="node">
<title>Node15</title>
<g id="a_Node000015"><a xlink:title=" ">
<polygon fill="#e0e0e0" stroke="#999999" points="686.25,-80.12 627.5,-80.12 627.5,-60.88 686.25,-60.88 686.25,-80.12"/>
<text text-anchor="middle" x="656.88" y="-65.67" font-family="Helvetica,sans-Serif" font-size="11.00">concepts</text>
</a>
</g>
</g>
<!-- Node14&#45;&gt;Node15 -->
<g id="edge14_Node000014_Node000015" class="edge">
<title>Node14&#45;&gt;Node15</title>
<g id="a_edge14_Node000014_Node000015"><a xlink:title=" ">
<path fill="none" stroke="#63b8ff" d="M789.69,-121.3C763.53,-111.49 721.58,-95.76 691.83,-84.61"/>
<polygon fill="#63b8ff" stroke="#63b8ff" points="693.1,-81.35 682.51,-81.11 690.64,-87.9 693.1,-81.35"/>
</a>
</g>
</g>
<!-- Node16 -->
<g id="Node000016" class="node">
<title>Node16</title>
<g id="a_Node000016"><a xlink:href="type__traits_8h_source.html" target="_top" xlink:title=" ">
<polygon fill="white" stroke="#666666" points="801,-85.75 704.75,-85.75 704.75,-55.25 801,-55.25 801,-85.75"/>
<text text-anchor="start" x="712.75" y="-71.3" font-family="Helvetica,sans-Serif" font-size="11.00">floppy/detail/type</text>
<text text-anchor="middle" x="752.88" y="-60.05" font-family="Helvetica,sans-Serif" font-size="11.00">_traits.h</text>
</a>
</g>
</g>
<!-- Node14&#45;&gt;Node16 -->
<g id="edge15_Node000014_Node000016" class="edge">
<title>Node14&#45;&gt;Node16</title>
<g id="a_edge15_Node000014_Node000016"><a xlink:title=" ">
<path fill="none" stroke="#63b8ff" d="M804.61,-121.43C797.01,-114.09 785.91,-103.38 775.94,-93.76"/>
<polygon fill="#63b8ff" stroke="#63b8ff" points="778.65,-91.51 769.02,-87.08 773.79,-96.55 778.65,-91.51"/>
</a>
</g>
</g>
<!-- Node18 -->
<g id="Node000018" class="node">
<title>Node18</title>
<g id="a_Node000018"><a xlink:href="types_8h_source.html" target="_top" xlink:title=" ">
<polygon fill="white" stroke="#666666" points="929.12,-80.12 818.62,-80.12 818.62,-60.88 929.12,-60.88 929.12,-80.12"/>
<text text-anchor="middle" x="873.88" y="-65.67" font-family="Helvetica,sans-Serif" font-size="11.00">floppy/detail/types.h</text>
</a>
</g>
</g>
<!-- Node14&#45;&gt;Node18 -->
<g id="edge17_Node000014_Node000018" class="edge">
<title>Node14&#45;&gt;Node18</title>
<g id="a_edge17_Node000014_Node000018"><a xlink:title=" ">
<path fill="none" stroke="#63b8ff" d="M822.99,-121.43C831.89,-112.7 845.65,-99.19 856.62,-88.43"/>
<polygon fill="#63b8ff" stroke="#63b8ff" points="858.91,-91.09 863.6,-81.59 854.01,-86.09 858.91,-91.09"/>
</a>
</g>
</g>
<!-- Node17 -->
<g id="Node000017" class="node">
<title>Node17</title>
<g id="a_Node000017"><a xlink:title=" ">
<polygon fill="#e0e0e0" stroke="#999999" points="785.62,-19.25 720.12,-19.25 720.12,0 785.62,0 785.62,-19.25"/>
<text text-anchor="middle" x="752.88" y="-4.8" font-family="Helvetica,sans-Serif" font-size="11.00">type_traits</text>
</a>
</g>
</g>
<!-- Node16&#45;&gt;Node17 -->
<g id="edge16_Node000016_Node000017" class="edge">
<title>Node16&#45;&gt;Node17</title>
<g id="a_edge16_Node000016_Node000017"><a xlink:title=" ">
<path fill="none" stroke="#63b8ff" d="M752.88,-54.95C752.88,-47.71 752.88,-38.84 752.88,-30.94"/>
<polygon fill="#63b8ff" stroke="#63b8ff" points="756.38,-31.21 752.88,-21.21 749.38,-31.21 756.38,-31.21"/>
</a>
</g>
</g>
<!-- Node18&#45;&gt;Node13 -->
<g id="edge22_Node000018_Node000013" class="edge">
<title>Node18&#45;&gt;Node13</title>
<g id="a_edge22_Node000018_Node000013"><a xlink:title=" ">
<path fill="none" stroke="#63b8ff" d="M835.39,-60.44C827,-58.6 818.16,-56.77 809.88,-55.25 718.22,-38.45 610.31,-24.09 549.31,-16.47"/>
<polygon fill="#63b8ff" stroke="#63b8ff" points="549.98,-13.02 539.63,-15.27 549.12,-19.97 549.98,-13.02"/>
</a>
</g>
</g>
<!-- Node18&#45;&gt;Node17 -->
<g id="edge21_Node000018_Node000017" class="edge">
<title>Node18&#45;&gt;Node17</title>
<g id="a_edge21_Node000018_Node000017"><a xlink:title=" ">
<path fill="none" stroke="#63b8ff" d="M855.23,-60.43C835.55,-50.85 804.26,-35.63 781.46,-24.53"/>
<polygon fill="#63b8ff" stroke="#63b8ff" points="783.22,-21.5 772.7,-20.27 780.16,-27.79 783.22,-21.5"/>
</a>
</g>
</g>
<!-- Node19 -->
<g id="Node000019" class="node">
<title>Node19</title>
<g id="a_Node000019"><a xlink:title=" ">
<polygon fill="#e0e0e0" stroke="#999999" points="854.12,-19.25 803.62,-19.25 803.62,0 854.12,0 854.12,-19.25"/>
<text text-anchor="middle" x="828.88" y="-4.8" font-family="Helvetica,sans-Serif" font-size="11.00">cstddef</text>
</a>
</g>
</g>
<!-- Node18&#45;&gt;Node19 -->
<g id="edge18_Node000018_Node000019" class="edge">
<title>Node18&#45;&gt;Node19</title>
<g id="a_edge18_Node000018_Node000019"><a xlink:title=" ">
<path fill="none" stroke="#63b8ff" d="M867.04,-60.56C860.56,-52.09 850.65,-39.12 842.55,-28.52"/>
<polygon fill="#63b8ff" stroke="#63b8ff" points="845.55,-26.67 836.69,-20.85 839.98,-30.92 845.55,-26.67"/>
</a>
</g>
</g>
<!-- Node20 -->
<g id="Node000020" class="node">
<title>Node20</title>
<g id="a_Node000020"><a xlink:title=" ">
<polygon fill="#e0e0e0" stroke="#999999" points="919.25,-19.25 872.5,-19.25 872.5,0 919.25,0 919.25,-19.25"/>
<text text-anchor="middle" x="895.88" y="-4.8" font-family="Helvetica,sans-Serif" font-size="11.00">cstdint</text>
</a>
</g>
</g>
<!-- Node18&#45;&gt;Node20 -->
<g id="edge19_Node000018_Node000020" class="edge">
<title>Node18&#45;&gt;Node20</title>
<g id="a_edge19_Node000018_Node000020"><a xlink:title=" ">
<path fill="none" stroke="#63b8ff" d="M877.22,-60.56C880.22,-52.52 884.74,-40.43 888.58,-30.16"/>
<polygon fill="#63b8ff" stroke="#63b8ff" points="891.75,-31.66 891.97,-21.07 885.19,-29.21 891.75,-31.66"/>
</a>
</g>
</g>
<!-- Node21 -->
<g id="Node000021" class="node">
<title>Node21</title>
<g id="a_Node000021"><a xlink:title=" ">
<polygon fill="#e0e0e0" stroke="#999999" points="990.62,-19.25 937.12,-19.25 937.12,0 990.62,0 990.62,-19.25"/>
<text text-anchor="middle" x="963.88" y="-4.8" font-family="Helvetica,sans-Serif" font-size="11.00">optional</text>
</a>
</g>
</g>
<!-- Node18&#45;&gt;Node21 -->
<g id="edge20_Node000018_Node000021" class="edge">
<title>Node18&#45;&gt;Node21</title>
<g id="a_edge20_Node000018_Node000021"><a xlink:title=" ">
<path fill="none" stroke="#63b8ff" d="M887.54,-60.56C901.68,-51.31 924.02,-36.7 940.88,-25.67"/>
<polygon fill="#63b8ff" stroke="#63b8ff" points="942.36,-28.88 948.81,-20.48 938.53,-23.03 942.36,-28.88"/>
</a>
</g>
</g>
<!-- Node22&#45;&gt;Node9 -->
<g id="edge27_Node000022_Node000009" class="edge">
<title>Node22&#45;&gt;Node9</title>
<g id="a_edge27_Node000022_Node000009"><a xlink:title=" ">
<path fill="none" stroke="#63b8ff" d="M369.24,-250.74C412.05,-242.39 475.48,-227.08 489.88,-207.5 501.85,-191.21 494.91,-167.62 487.36,-151.23"/>
<polygon fill="#63b8ff" stroke="#63b8ff" points="490.6,-149.89 482.95,-142.57 484.37,-153.07 490.6,-149.89"/>
</a>
</g>
</g>
<!-- Node22&#45;&gt;Node12 -->
<g id="edge25_Node000022_Node000012" class="edge">
<title>Node22&#45;&gt;Node12</title>
<g id="a_edge25_Node000022_Node000012"><a xlink:title=" ">
<path fill="none" stroke="#63b8ff" d="M288.75,-253.83C257.56,-248.58 215.71,-236.28 191.88,-207.5 167.37,-177.9 157.28,-152.07 180.88,-121.75 220.86,-70.37 259.88,-102.2 322.88,-85.75 327.16,-84.63 331.64,-83.45 336.09,-82.26"/>
<polygon fill="#63b8ff" stroke="#63b8ff" points="336.8,-85.7 345.55,-79.73 334.99,-78.94 336.8,-85.7"/>
</a>
</g>
</g>
<!-- Node23 -->
<g id="Node000023" class="node">
<title>Node23</title>
<g id="a_Node000023"><a xlink:title=" ">
<polygon fill="#e0e0e0" stroke="#999999" points="245.38,-141 190.38,-141 190.38,-121.75 245.38,-121.75 245.38,-141"/>
<text text-anchor="middle" x="217.88" y="-126.55" font-family="Helvetica,sans-Serif" font-size="11.00">memory</text>
</a>
</g>
</g>
<!-- Node22&#45;&gt;Node23 -->
<g id="edge24_Node000022_Node000023" class="edge">
<title>Node22&#45;&gt;Node23</title>
<g id="a_edge24_Node000022_Node000023"><a xlink:title=" ">
<path fill="none" stroke="#63b8ff" d="M288.55,-253.73C258.85,-248.42 220.37,-236.1 200.88,-207.5 189.37,-190.62 197.65,-167.14 206.19,-150.94"/>
<polygon fill="#63b8ff" stroke="#63b8ff" points="209.17,-152.78 211.16,-142.37 203.12,-149.27 209.17,-152.78"/>
</a>
</g>
</g>
<!-- Node24 -->
<g id="Node000024" class="node">
<title>Node24</title>
<g id="a_Node000024"><a xlink:title=" ">
<polygon fill="#e0e0e0" stroke="#999999" points="339.5,-207.5 210.25,-207.5 210.25,-177 339.5,-177 339.5,-207.5"/>
<text text-anchor="start" x="218.25" y="-193.05" font-family="Helvetica,sans-Serif" font-size="11.00">experimental/propagate</text>
<text text-anchor="middle" x="274.88" y="-181.8" font-family="Helvetica,sans-Serif" font-size="11.00">_const</text>
</a>
</g>
</g>
<!-- Node22&#45;&gt;Node24 -->
<g id="edge26_Node000022_Node000024" class="edge">
<title>Node22&#45;&gt;Node24</title>
<g id="a_edge26_Node000022_Node000024"><a xlink:title=" ">
<path fill="none" stroke="#63b8ff" d="M321.37,-248.78C314.32,-240.37 303.49,-227.43 294.05,-216.16"/>
<polygon fill="#63b8ff" stroke="#63b8ff" points="296.96,-214.18 287.86,-208.76 291.59,-218.67 296.96,-214.18"/>
</a>
</g>
</g>
<!-- Node25 -->
<g id="Node000025" class="node">
<title>Node25</title>
<g id="a_Node000025"><a xlink:href="formatters_8h_source.html" target="_top" xlink:title=" ">
<polygon fill="white" stroke="#666666" points="133.75,-141 0,-141 0,-121.75 133.75,-121.75 133.75,-141"/>
<text text-anchor="middle" x="66.88" y="-126.55" font-family="Helvetica,sans-Serif" font-size="11.00">floppy/detail/formatters.h</text>
</a>
</g>
</g>
<!-- Node22&#45;&gt;Node25 -->
<g id="edge28_Node000022_Node000025" class="edge">
<title>Node22&#45;&gt;Node25</title>
<g id="a_edge28_Node000022_Node000025"><a xlink:title=" ">
<path fill="none" stroke="#63b8ff" d="M288.65,-254.89C246.3,-250.29 179.08,-238.36 129.88,-207.5 107.19,-193.27 88.59,-168.15 77.62,-150.91"/>
<polygon fill="#63b8ff" stroke="#63b8ff" points="80.79,-149.37 72.6,-142.65 74.81,-153.01 80.79,-149.37"/>
</a>
</g>
</g>
<!-- Node28 -->
<g id="Node000028" class="node">
<title>Node28</title>
<g id="a_Node000028"><a xlink:href="memory_8h_source.html" target="_top" xlink:title=" ">
<polygon fill="white" stroke="#666666" points="480.5,-201.88 357.25,-201.88 357.25,-182.62 480.5,-182.62 480.5,-201.88"/>
<text text-anchor="middle" x="418.88" y="-187.43" font-family="Helvetica,sans-Serif" font-size="11.00">floppy/detail/memory.h</text>
</a>
</g>
</g>
<!-- Node22&#45;&gt;Node28 -->
<g id="edge33_Node000022_Node000028" class="edge">
<title>Node22&#45;&gt;Node28</title>
<g id="a_edge33_Node000022_Node000028"><a xlink:title=" ">
<path fill="none" stroke="#63b8ff" d="M341.39,-248.78C355.82,-238.44 379.78,-221.27 397.25,-208.75"/>
<polygon fill="#63b8ff" stroke="#63b8ff" points="398.86,-211.9 404.95,-203.23 394.78,-206.21 398.86,-211.9"/>
</a>
</g>
</g>
<!-- Node25&#45;&gt;Node11 -->
<g id="edge29_Node000025_Node000011" class="edge">
<title>Node25&#45;&gt;Node11</title>
<g id="a_edge29_Node000025_Node000011"><a xlink:title=" ">
<path fill="none" stroke="#63b8ff" d="M99.54,-121.3C135.95,-111.19 195.02,-94.79 235.34,-83.59"/>
<polygon fill="#63b8ff" stroke="#63b8ff" points="236.02,-87.03 244.72,-80.99 234.15,-80.29 236.02,-87.03"/>
</a>
</g>
</g>
<!-- Node25&#45;&gt;Node13 -->
<g id="edge32_Node000025_Node000013" class="edge">
<title>Node25&#45;&gt;Node13</title>
<g id="a_edge32_Node000025_Node000013"><a xlink:title=" ">
<path fill="none" stroke="#63b8ff" d="M83.03,-121.47C112.37,-105.68 176.76,-72.8 234.88,-55.25 309,-32.86 398.35,-20.77 452.33,-15.02"/>
<polygon fill="#63b8ff" stroke="#63b8ff" points="452.53,-18.52 462.12,-14.02 451.81,-11.56 452.53,-18.52"/>
</a>
</g>
</g>
<!-- Node26 -->
<g id="Node000026" class="node">
<title>Node26</title>
<g id="a_Node000026"><a xlink:title=" ">
<polygon fill="#e0e0e0" stroke="#999999" points="60,-80.12 5.75,-80.12 5.75,-60.88 60,-60.88 60,-80.12"/>
<text text-anchor="middle" x="32.88" y="-65.67" font-family="Helvetica,sans-Serif" font-size="11.00">sstream</text>
</a>
</g>
</g>
<!-- Node25&#45;&gt;Node26 -->
<g id="edge30_Node000025_Node000026" class="edge">
<title>Node25&#45;&gt;Node26</title>
<g id="a_edge30_Node000025_Node000026"><a xlink:title=" ">
<path fill="none" stroke="#63b8ff" d="M61.71,-121.43C56.97,-113.22 49.79,-100.78 43.77,-90.37"/>
<polygon fill="#63b8ff" stroke="#63b8ff" points="46.88,-88.75 38.84,-81.84 40.81,-92.25 46.88,-88.75"/>
</a>
</g>
</g>
<!-- Node27 -->
<g id="Node000027" class="node">
<title>Node27</title>
<g id="a_Node000027"><a xlink:title=" ">
<polygon fill="#e0e0e0" stroke="#999999" points="125.25,-80.12 78.5,-80.12 78.5,-60.88 125.25,-60.88 125.25,-80.12"/>
<text text-anchor="middle" x="101.88" y="-65.67" font-family="Helvetica,sans-Serif" font-size="11.00">iosfwd</text>
</a>
</g>
</g>
<!-- Node25&#45;&gt;Node27 -->
<g id="edge31_Node000025_Node000027" class="edge">
<title>Node25&#45;&gt;Node27</title>
<g id="a_edge31_Node000025_Node000027"><a xlink:title=" ">
<path fill="none" stroke="#63b8ff" d="M72.19,-121.43C77.07,-113.22 84.47,-100.78 90.65,-90.37"/>
<polygon fill="#63b8ff" stroke="#63b8ff" points="93.63,-92.21 95.74,-81.83 87.62,-88.63 93.63,-92.21"/>
</a>
</g>
</g>
<!-- Node28&#45;&gt;Node8 -->
<g id="edge35_Node000028_Node000008" class="edge">
<title>Node28&#45;&gt;Node8</title>
<g id="a_edge35_Node000028_Node000008"><a xlink:title=" ">
<path fill="none" stroke="#63b8ff" d="M411.74,-182.31C404.97,-173.84 394.62,-160.87 386.16,-150.27"/>
<polygon fill="#63b8ff" stroke="#63b8ff" points="389,-148.22 380.02,-142.58 383.53,-152.58 389,-148.22"/>
</a>
</g>
</g>
<!-- Node28&#45;&gt;Node9 -->
<g id="edge37_Node000028_Node000009" class="edge">
<title>Node28&#45;&gt;Node9</title>
<g id="a_edge37_Node000028_Node000009"><a xlink:title=" ">
<path fill="none" stroke="#63b8ff" d="M427.68,-182.31C436.29,-173.58 449.59,-160.07 460.2,-149.3"/>
<polygon fill="#63b8ff" stroke="#63b8ff" points="462.4,-152.06 466.92,-142.48 457.41,-147.15 462.4,-152.06"/>
</a>
</g>
</g>
<!-- Node28&#45;&gt;Node23 -->
<g id="edge34_Node000028_Node000023" class="edge">
<title>Node28&#45;&gt;Node23</title>
<g id="a_edge34_Node000028_Node000023"><a xlink:title=" ">
<path fill="none" stroke="#63b8ff" d="M387.91,-182.18C352.53,-171.82 294.6,-154.85 256.35,-143.64"/>
<polygon fill="#63b8ff" stroke="#63b8ff" points="257.67,-140.38 247.09,-140.93 255.7,-147.1 257.67,-140.38"/>
</a>
</g>
</g>
<!-- Node28&#45;&gt;Node25 -->
<g id="edge38_Node000028_Node000025" class="edge">
<title>Node28&#45;&gt;Node25</title>
<g id="a_edge38_Node000028_Node000025"><a xlink:title=" ">
<path fill="none" stroke="#63b8ff" d="M375.62,-182.13C366.78,-180.36 357.54,-178.57 348.88,-177 278.34,-164.25 197.51,-151.66 140.52,-143.12"/>
<polygon fill="#63b8ff" stroke="#63b8ff" points="141.36,-139.71 130.95,-141.7 140.32,-146.63 141.36,-139.71"/>
</a>
</g>
</g>
<!-- Node29 -->
<g id="Node000029" class="node">
<title>Node29</title>
<g id="a_Node000029"><a xlink:title=" ">
<polygon fill="#e0e0e0" stroke="#999999" points="324.75,-141 263,-141 263,-121.75 324.75,-121.75 324.75,-141"/>
<text text-anchor="middle" x="293.88" y="-126.55" font-family="Helvetica,sans-Serif" font-size="11.00">stdexcept</text>
</a>
</g>
</g>
<!-- Node28&#45;&gt;Node29 -->
<g id="edge36_Node000028_Node000029" class="edge">
<title>Node28&#45;&gt;Node29</title>
<g id="a_edge36_Node000028_Node000029"><a xlink:title=" ">
<path fill="none" stroke="#63b8ff" d="M399.62,-182.18C379.19,-172.56 346.67,-157.24 323.08,-146.13"/>
<polygon fill="#63b8ff" stroke="#63b8ff" points="324.86,-143.1 314.32,-142 321.87,-149.43 324.86,-143.1"/>
</a>
</g>
</g>
<!-- Node30&#45;&gt;Node4 -->
<g id="edge40_Node000030_Node000004" class="edge">
<title>Node30&#45;&gt;Node4</title>
<g id="a_edge40_Node000030_Node000004"><a xlink:title=" ">
<path fill="none" stroke="#63b8ff" d="M623.57,-243.11C617.61,-233.73 609.82,-221.49 603.46,-211.48"/>
<polygon fill="#63b8ff" stroke="#63b8ff" points="606.61,-209.91 598.3,-203.35 600.71,-213.67 606.61,-209.91"/>
</a>
</g>
</g>
<!-- Node30&#45;&gt;Node14 -->
<g id="edge41_Node000030_Node000014" class="edge">
<title>Node30&#45;&gt;Node14</title>
<g id="a_edge41_Node000030_Node000014"><a xlink:title=" ">
<path fill="none" stroke="#63b8ff" d="M653.99,-243.12C688.45,-219.25 756.45,-172.15 791.63,-147.78"/>
<polygon fill="#63b8ff" stroke="#63b8ff" points="793.55,-150.71 799.78,-142.14 789.56,-144.96 793.55,-150.71"/>
</a>
</g>
</g>
<!-- Node31&#45;&gt;Node30 -->
<g id="edge47_Node000031_Node000030" class="edge">
<title>Node31&#45;&gt;Node30</title>
<g id="a_edge47_Node000031_Node000030"><a xlink:title=" ">
<path fill="none" stroke="#63b8ff" d="M591.13,-365C598.64,-356.45 609.5,-342.86 615.88,-329.25 622.29,-315.56 626.45,-299.17 629.05,-285.75"/>
<polygon fill="#63b8ff" stroke="#63b8ff" points="632.49,-286.36 630.75,-275.91 625.6,-285.17 632.49,-286.36"/>
</a>
</g>
</g>
<!-- Node32 -->
<g id="Node000032" class="node">
<title>Node32</title>
<g id="a_Node000032"><a xlink:href="scale_8h.html" target="_top" xlink:title="A scaling factor between two different units of measurement.">
<polygon fill="white" stroke="#666666" points="606.88,-329.25 494.88,-329.25 494.88,-310 606.88,-310 606.88,-329.25"/>
<text text-anchor="middle" x="550.88" y="-314.8" font-family="Helvetica,sans-Serif" font-size="11.00">floppy/euclid/scale.h</text>
</a>
</g>
</g>
<!-- Node31&#45;&gt;Node32 -->
<g id="edge43_Node000031_Node000032" class="edge">
<title>Node31&#45;&gt;Node32</title>
<g id="a_edge43_Node000031_Node000032"><a xlink:title=" ">
<path fill="none" stroke="#63b8ff" d="M577.59,-365.08C573.4,-358.11 567.4,-348.12 562.14,-339.37"/>
<polygon fill="#63b8ff" stroke="#63b8ff" points="565.2,-337.68 557.05,-330.91 559.2,-341.28 565.2,-337.68"/>
</a>
</g>
</g>
<!-- Node32&#45;&gt;Node4 -->
<g id="edge44_Node000032_Node000004" class="edge">
<title>Node32&#45;&gt;Node4</title>
<g id="a_edge44_Node000032_Node000004"><a xlink:title=" ">
<path fill="none" stroke="#63b8ff" d="M553.03,-309.74C556.54,-295.59 563.9,-267.11 571.88,-243.5 575.38,-233.12 579.85,-221.76 583.67,-212.47"/>
<polygon fill="#63b8ff" stroke="#63b8ff" points="586.82,-214.01 587.46,-203.44 580.36,-211.3 586.82,-214.01"/>
</a>
</g>
</g>
<!-- Node32&#45;&gt;Node22 -->
<g id="edge45_Node000032_Node000022" class="edge">
<title>Node32&#45;&gt;Node22</title>
<g id="a_edge45_Node000032_Node000022"><a xlink:title=" ">
<path fill="none" stroke="#63b8ff" d="M516.67,-309.55C478.46,-299.42 416.43,-282.97 374.2,-271.77"/>
<polygon fill="#63b8ff" stroke="#63b8ff" points="375.14,-268.4 364.58,-269.22 373.35,-275.17 375.14,-268.4"/>
</a>
</g>
</g>
<!-- Node32&#45;&gt;Node30 -->
<g id="edge46_Node000032_Node000030" class="edge">
<title>Node32&#45;&gt;Node30</title>
<g id="a_edge46_Node000032_Node000030"><a xlink:title=" ">
<path fill="none" stroke="#63b8ff" d="M563.33,-309.68C573.96,-302.05 589.67,-290.77 603.47,-280.86"/>
<polygon fill="#63b8ff" stroke="#63b8ff" points="605.32,-283.84 611.41,-275.16 601.24,-278.15 605.32,-283.84"/>
</a>
</g>
</g>
<!-- Node33&#45;&gt;Node4 -->
<g id="edge49_Node000033_Node000004" class="edge">
<title>Node33&#45;&gt;Node4</title>
<g id="a_edge49_Node000033_Node000004"><a xlink:title=" ">
<path fill="none" stroke="#63b8ff" d="M579.88,-486.5C539.2,-470.84 466.88,-434.73 466.88,-375.88 466.88,-375.88 466.88,-375.88 466.88,-318.62 466.88,-265.24 524.4,-226.59 561.41,-207.25"/>
<polygon fill="#63b8ff" stroke="#63b8ff" points="562.52,-210.61 569.88,-202.99 559.37,-204.35 562.52,-210.61"/>
</a>
</g>
</g>
<!-- Node33&#45;&gt;Node14 -->
<g id="edge50_Node000033_Node000014" class="edge">
<title>Node33&#45;&gt;Node14</title>
<g id="a_edge50_Node000033_Node000014"><a xlink:title=" ">
<path fill="none" stroke="#63b8ff" d="M666.19,-487.9C766.51,-473.17 958.88,-436.96 958.88,-375.88 958.88,-375.88 958.88,-375.88 958.88,-257.75 958.88,-200.81 894.1,-163.97 851.14,-145.81"/>
<polygon fill="#63b8ff" stroke="#63b8ff" points="852.46,-142.57 841.87,-142.05 849.83,-149.05 852.46,-142.57"/>
</a>
</g>
</g>
<!-- Node33&#45;&gt;Node31 -->
<g id="edge51_Node000033_Node000031" class="edge">
<title>Node33&#45;&gt;Node31</title>
<g id="a_edge51_Node000033_Node000031"><a xlink:title=" ">
<path fill="none" stroke="#63b8ff" d="M608.27,-486.66C610.17,-472.4 612.74,-443.77 606.88,-420.5 604.6,-411.46 600.09,-402.25 595.59,-394.56"/>
<polygon fill="#63b8ff" stroke="#63b8ff" points="598.58,-392.75 590.28,-386.17 592.67,-396.49 598.58,-392.75"/>
</a>
</g>
</g>
<!-- Node33&#45;&gt;Node34 -->
<g id="edge52_Node000033_Node000034" class="edge">
<title>Node33&#45;&gt;Node34</title>
<g id="a_edge52_Node000033_Node000034"><a xlink:title=" ">
<path fill="none" stroke="#63b8ff" d="M622.97,-486.68C637.18,-478.79 658.4,-467.01 676.66,-456.87"/>
<polygon fill="#63b8ff" stroke="#63b8ff" points="678.35,-459.93 685.39,-452.02 674.95,-453.81 678.35,-459.93"/>
</a>
</g>
</g>
<!-- Node39 -->
<g id="Node000039" class="node">
<title>Node39</title>
<g id="a_Node000039"><a xlink:title=" ">
<polygon fill="#e0e0e0" stroke="#999999" points="597.75,-445.38 548,-445.38 548,-426.12 597.75,-426.12 597.75,-445.38"/>
<text text-anchor="middle" x="572.88" y="-430.93" font-family="Helvetica,sans-Serif" font-size="11.00">qsize.h</text>
</a>
</g>
</g>
<!-- Node33&#45;&gt;Node39 -->
<g id="edge59_Node000033_Node000039" class="edge">
<title>Node33&#45;&gt;Node39</title>
<g id="a_edge59_Node000033_Node000039"><a xlink:title=" ">
<path fill="none" stroke="#63b8ff" d="M601.71,-486.68C596.97,-478.47 589.79,-466.03 583.77,-455.62"/>
<polygon fill="#63b8ff" stroke="#63b8ff" points="586.88,-454 578.84,-447.09 580.81,-457.5 586.88,-454"/>
</a>
</g>
</g>
<!-- Node34&#45;&gt;Node30 -->
<g id="edge58_Node000034_Node000030" class="edge">
<title>Node34&#45;&gt;Node30</title>
<g id="a_edge58_Node000034_Node000030"><a xlink:title=" ">
<path fill="none" stroke="#63b8ff" d="M705.48,-420.32C700.4,-410.33 693.58,-396.67 687.88,-384.5 671.84,-350.3 654.43,-310.27 643.58,-284.96"/>
<polygon fill="#63b8ff" stroke="#63b8ff" points="646.83,-283.66 639.69,-275.84 640.39,-286.41 646.83,-283.66"/>
</a>
</g>
</g>
<!-- Node34&#45;&gt;Node31 -->
<g id="edge57_Node000034_Node000031" class="edge">
<title>Node34&#45;&gt;Node31</title>
<g id="a_edge57_Node000034_Node000031"><a xlink:title=" ">
<path fill="none" stroke="#63b8ff" d="M680.41,-420.05C659.85,-410.73 633.44,-398.77 613.29,-389.65"/>
<polygon fill="#63b8ff" stroke="#63b8ff" points="614.74,-386.47 604.19,-385.53 611.86,-392.84 614.74,-386.47"/>
</a>
</g>
</g>
<!-- Node35 -->
<g id="Node000035" class="node">
<title>Node35</title>
<g id="a_Node000035"><a xlink:title=" ">
<polygon fill="#e0e0e0" stroke="#999999" points="737.25,-384.5 696.5,-384.5 696.5,-365.25 737.25,-365.25 737.25,-384.5"/>
<text text-anchor="middle" x="716.88" y="-370.05" font-family="Helvetica,sans-Serif" font-size="11.00">array</text>
</a>
</g>
</g>
<!-- Node34&#45;&gt;Node35 -->
<g id="edge53_Node000034_Node000035" class="edge">
<title>Node34&#45;&gt;Node35</title>
<g id="a_edge53_Node000034_Node000035"><a xlink:title=" ">
<path fill="none" stroke="#63b8ff" d="M713.86,-420.2C714.36,-412.96 714.96,-404.09 715.49,-396.19"/>
<polygon fill="#63b8ff" stroke="#63b8ff" points="718.97,-396.68 716.16,-386.46 711.99,-396.2 718.97,-396.68"/>
</a>
</g>
</g>
<!-- Node36 -->
<g id="Node000036" class="node">
<title>Node36</title>
<g id="a_Node000036"><a xlink:title=" ">
<polygon fill="#e0e0e0" stroke="#999999" points="794.5,-384.5 755.25,-384.5 755.25,-365.25 794.5,-365.25 794.5,-384.5"/>
<text text-anchor="middle" x="774.88" y="-370.05" font-family="Helvetica,sans-Serif" font-size="11.00">tuple</text>
</a>
</g>
</g>
<!-- Node34&#45;&gt;Node36 -->
<g id="edge54_Node000034_Node000036" class="edge">
<title>Node34&#45;&gt;Node36</title>
<g id="a_edge54_Node000034_Node000036"><a xlink:title=" ">
<path fill="none" stroke="#63b8ff" d="M728.2,-420.2C736.91,-411.92 747.87,-401.52 756.98,-392.87"/>
<polygon fill="#63b8ff" stroke="#63b8ff" points="759.38,-395.42 764.22,-385.99 754.56,-390.34 759.38,-395.42"/>
</a>
</g>
</g>
<!-- Node37 -->
<g id="Node000037" class="node">
<title>Node37</title>
<g id="a_Node000037"><a xlink:title=" ">
<polygon fill="#e0e0e0" stroke="#999999" points="852.88,-384.5 812.88,-384.5 812.88,-365.25 852.88,-365.25 852.88,-384.5"/>
<text text-anchor="middle" x="832.88" y="-370.05" font-family="Helvetica,sans-Serif" font-size="11.00">utility</text>
</a>
</g>
</g>
<!-- Node34&#45;&gt;Node37 -->
<g id="edge55_Node000034_Node000037" class="edge">
<title>Node34&#45;&gt;Node37</title>
<g id="a_edge55_Node000034_Node000037"><a xlink:title=" ">
<path fill="none" stroke="#63b8ff" d="M742.85,-420.05C761.65,-410.82 785.75,-399 804.29,-389.9"/>
<polygon fill="#63b8ff" stroke="#63b8ff" points="805.68,-393.12 813.11,-385.57 802.59,-386.83 805.68,-393.12"/>
</a>
</g>
</g>
<!-- Node38 -->
<g id="Node000038" class="node">
<title>Node38</title>
<g id="a_Node000038"><a xlink:title=" ">
<polygon fill="#e0e0e0" stroke="#999999" points="931,-384.5 870.75,-384.5 870.75,-365.25 931,-365.25 931,-384.5"/>
<text text-anchor="middle" x="900.88" y="-370.05" font-family="Helvetica,sans-Serif" font-size="11.00">algorithm</text>
</a>
</g>
</g>
<!-- Node34&#45;&gt;Node38 -->
<g id="edge56_Node000034_Node000038" class="edge">
<title>Node34&#45;&gt;Node38</title>
<g id="a_edge56_Node000034_Node000038"><a xlink:title=" ">
<path fill="none" stroke="#63b8ff" d="M759.83,-420.05C790.98,-410.29 831.42,-397.63 861,-388.36"/>
<polygon fill="#63b8ff" stroke="#63b8ff" points="861.83,-391.77 870.32,-385.44 859.73,-385.09 861.83,-391.77"/>
</a>
</g>
</g>
</g>
</svg>
