<?xml version="1.0" encoding="UTF-8" standalone="no"?>
<!DOCTYPE svg PUBLIC "-//W3C//DTD SVG 1.1//EN"
 "http://www.w3.org/Graphics/SVG/1.1/DTD/svg11.dtd">
<!-- Generated by graphviz version 10.0.1 (0)
 -->
<!-- Title: vector2d.h Pages: 1 -->
<svg width="1162pt" height="570pt"
 viewBox="0.00 0.00 1161.88 569.50" xmlns="http://www.w3.org/2000/svg" xmlns:xlink="http://www.w3.org/1999/xlink">
<g id="graph0" class="graph" transform="scale(1 1) rotate(0) translate(4 565.5)">
<title>vector2d.h</title>
<!-- Node1 -->
<g id="Node000001" class="node">
<title>Node1</title>
<g id="a_Node000001"><a xlink:title="A two&#45;dimensional vector tagged with a unit.">
<polygon fill="#999999" stroke="#666666" points="758,-561.5 691.75,-561.5 691.75,-542.25 758,-542.25 758,-561.5"/>
<text text-anchor="middle" x="724.88" y="-547.05" font-family="Helvetica,sans-Serif" font-size="11.00">vector2d.h</text>
</a>
</g>
</g>
<!-- Node2 -->
<g id="Node000002" class="node">
<title>Node2</title>
<g id="a_Node000002"><a xlink:title=" ">
<polygon fill="#e0e0e0" stroke="#999999" points="605.75,-506.25 544,-506.25 544,-487 605.75,-487 605.75,-506.25"/>
<text text-anchor="middle" x="574.88" y="-491.8" font-family="Helvetica,sans-Serif" font-size="11.00">functional</text>
</a>
</g>
</g>
<!-- Node1&#45;&gt;Node2 -->
<g id="edge1_Node000001_Node000002" class="edge">
<title>Node1&#45;&gt;Node2</title>
<g id="a_edge1_Node000001_Node000002"><a xlink:title=" ">
<path fill="none" stroke="#63b8ff" d="M699.43,-541.84C675.19,-533.24 638.44,-520.19 611.14,-510.5"/>
<polygon fill="#63b8ff" stroke="#63b8ff" points="612.47,-507.26 601.87,-507.21 610.12,-513.85 612.47,-507.26"/>
</a>
</g>
</g>
<!-- Node3 -->
<g id="Node000003" class="node">
<title>Node3</title>
<g id="a_Node000003"><a xlink:href="angle_8h.html" target="_top" xlink:title="Newtype describing an angle.">
<polygon fill="white" stroke="#666666" points="609.62,-329.25 496.12,-329.25 496.12,-310 609.62,-310 609.62,-329.25"/>
<text text-anchor="middle" x="552.88" y="-314.8" font-family="Helvetica,sans-Serif" font-size="11.00">floppy/euclid/angle.h</text>
</a>
</g>
</g>
<!-- Node1&#45;&gt;Node3 -->
<g id="edge2_Node000001_Node000003" class="edge">
<title>Node1&#45;&gt;Node3</title>
<g id="a_edge2_Node000001_Node000003"><a xlink:title=" ">
<path fill="none" stroke="#63b8ff" d="M717.83,-542.04C710.7,-533.08 699.41,-518.79 689.88,-506.25 643.5,-445.3 589.97,-371.84 565.84,-338.56"/>
<polygon fill="#63b8ff" stroke="#63b8ff" points="568.93,-336.85 560.23,-330.81 563.26,-340.96 568.93,-336.85"/>
</a>
</g>
</g>
<!-- Node29 -->
<g id="Node000029" class="node">
<title>Node29</title>
<g id="a_Node000029"><a xlink:href="length_8h.html" target="_top" xlink:title="A one&#45;dimensional distance with associated unit of measurement.">
<polygon fill="white" stroke="#666666" points="788.12,-384.5 671.62,-384.5 671.62,-365.25 788.12,-365.25 788.12,-384.5"/>
<text text-anchor="middle" x="729.88" y="-370.05" font-family="Helvetica,sans-Serif" font-size="11.00">floppy/euclid/length.h</text>
</a>
</g>
</g>
<!-- Node1&#45;&gt;Node29 -->
<g id="edge36_Node000001_Node000029" class="edge">
<title>Node1&#45;&gt;Node29</title>
<g id="a_edge36_Node000001_Node000029"><a xlink:title=" ">
<path fill="none" stroke="#63b8ff" d="M718.76,-541.82C705.04,-520.34 674.27,-464.74 690.88,-420.5 694.91,-409.75 702.84,-399.89 710.5,-392.19"/>
<polygon fill="#63b8ff" stroke="#63b8ff" points="712.47,-395.14 717.41,-385.77 707.7,-390.01 712.47,-395.14"/>
</a>
</g>
</g>
<!-- Node31 -->
<g id="Node000031" class="node">
<title>Node31</title>
<g id="a_Node000031"><a xlink:href="size2d_8h.html" target="_top" xlink:title="A two&#45;dimensional size tagged with a unit.">
<polygon fill="white" stroke="#666666" points="836.88,-506.25 718.88,-506.25 718.88,-487 836.88,-487 836.88,-506.25"/>
<text text-anchor="middle" x="777.88" y="-491.8" font-family="Helvetica,sans-Serif" font-size="11.00">floppy/euclid/size2d.h</text>
</a>
</g>
</g>
<!-- Node1&#45;&gt;Node31 -->
<g id="edge42_Node000001_Node000031" class="edge">
<title>Node1&#45;&gt;Node31</title>
<g id="a_edge42_Node000001_Node000031"><a xlink:title=" ">
<path fill="none" stroke="#63b8ff" d="M733.63,-542.08C741.02,-534.65 751.84,-523.79 760.92,-514.66"/>
<polygon fill="#63b8ff" stroke="#63b8ff" points="763.29,-517.24 767.87,-507.68 758.33,-512.3 763.29,-517.24"/>
</a>
</g>
</g>
<!-- Node32 -->
<g id="Node000032" class="node">
<title>Node32</title>
<g id="a_Node000032"><a xlink:href="nt__traits2d_8h.html" target="_top" xlink:title=" ">
<polygon fill="white" stroke="#666666" points="1003.75,-451 900,-451 900,-420.5 1003.75,-420.5 1003.75,-451"/>
<text text-anchor="start" x="908" y="-436.55" font-family="Helvetica,sans-Serif" font-size="11.00">floppy/euclid/detail</text>
<text text-anchor="middle" x="951.88" y="-425.3" font-family="Helvetica,sans-Serif" font-size="11.00">/nt_traits2d.h</text>
</a>
</g>
</g>
<!-- Node1&#45;&gt;Node32 -->
<g id="edge54_Node000001_Node000032" class="edge">
<title>Node1&#45;&gt;Node32</title>
<g id="a_edge54_Node000001_Node000032"><a xlink:title=" ">
<path fill="none" stroke="#63b8ff" d="M755.26,-541.79C780.22,-533.83 816.18,-521.21 845.88,-506.25 873.36,-492.4 902.45,-472.94 923.19,-458.13"/>
<polygon fill="#63b8ff" stroke="#63b8ff" points="925.09,-461.07 931.15,-452.38 920.99,-455.4 925.09,-461.07"/>
</a>
</g>
</g>
<!-- Node38 -->
<g id="Node000038" class="node">
<title>Node38</title>
<g id="a_Node000038"><a xlink:title=" ">
<polygon fill="#e0e0e0" stroke="#999999" points="965,-506.25 892.75,-506.25 892.75,-487 965,-487 965,-506.25"/>
<text text-anchor="middle" x="928.88" y="-491.8" font-family="Helvetica,sans-Serif" font-size="11.00">qvector2d.h</text>
</a>
</g>
</g>
<!-- Node1&#45;&gt;Node38 -->
<g id="edge55_Node000001_Node000038" class="edge">
<title>Node1&#45;&gt;Node38</title>
<g id="a_edge55_Node000001_Node000038"><a xlink:title=" ">
<path fill="none" stroke="#63b8ff" d="M758.11,-542.2C792.12,-533.32 845.23,-519.46 883.19,-509.55"/>
<polygon fill="#63b8ff" stroke="#63b8ff" points="883.69,-513.04 892.49,-507.12 881.93,-506.26 883.69,-513.04"/>
</a>
</g>
</g>
<!-- Node4 -->
<g id="Node000004" class="node">
<title>Node4</title>
<g id="a_Node000004"><a xlink:href="math_8h_source.html" target="_top" xlink:title=" ">
<polygon fill="white" stroke="#666666" points="730.38,-207.5 621.38,-207.5 621.38,-188.25 730.38,-188.25 730.38,-207.5"/>
<text text-anchor="middle" x="675.88" y="-193.05" font-family="Helvetica,sans-Serif" font-size="11.00">floppy/detail/math.h</text>
</a>
</g>
</g>
<!-- Node3&#45;&gt;Node4 -->
<g id="edge3_Node000003_Node000004" class="edge">
<title>Node3&#45;&gt;Node4</title>
<g id="a_edge3_Node000003_Node000004"><a xlink:title=" ">
<path fill="none" stroke="#63b8ff" d="M562.12,-309.62C582.6,-289.69 632.06,-241.53 658.51,-215.78"/>
<polygon fill="#63b8ff" stroke="#63b8ff" points="660.71,-218.52 665.44,-209.04 655.83,-213.5 660.71,-218.52"/>
</a>
</g>
</g>
<!-- Node22 -->
<g id="Node000022" class="node">
<title>Node22</title>
<g id="a_Node000022"><a xlink:href="traits_8h_source.html" target="_top" xlink:title=" ">
<polygon fill="white" stroke="#666666" points="367.75,-207.5 288,-207.5 288,-188.25 367.75,-188.25 367.75,-207.5"/>
<text text-anchor="middle" x="327.88" y="-193.05" font-family="Helvetica,sans-Serif" font-size="11.00">floppy/traits.h</text>
</a>
</g>
</g>
<!-- Node3&#45;&gt;Node22 -->
<g id="edge23_Node000003_Node000022" class="edge">
<title>Node3&#45;&gt;Node22</title>
<g id="a_edge23_Node000003_Node000022"><a xlink:title=" ">
<path fill="none" stroke="#63b8ff" d="M535.96,-309.62C497.28,-289.04 402.06,-238.36 355.04,-213.33"/>
<polygon fill="#63b8ff" stroke="#63b8ff" points="356.79,-210.3 346.32,-208.69 353.5,-216.48 356.79,-210.3"/>
</a>
</g>
</g>
<!-- Node28 -->
<g id="Node000028" class="node">
<title>Node28</title>
<g id="a_Node000028"><a xlink:href="nt__traits_8h.html" target="_top" xlink:title=" ">
<polygon fill="white" stroke="#666666" points="787.75,-274 684,-274 684,-243.5 787.75,-243.5 787.75,-274"/>
<text text-anchor="start" x="692" y="-259.55" font-family="Helvetica,sans-Serif" font-size="11.00">floppy/euclid/detail</text>
<text text-anchor="middle" x="735.88" y="-248.3" font-family="Helvetica,sans-Serif" font-size="11.00">/nt_traits.h</text>
</a>
</g>
</g>
<!-- Node3&#45;&gt;Node28 -->
<g id="edge33_Node000003_Node000028" class="edge">
<title>Node3&#45;&gt;Node28</title>
<g id="a_edge33_Node000003_Node000028"><a xlink:title=" ">
<path fill="none" stroke="#63b8ff" d="M581.07,-309.55C607.19,-301.15 646.81,-288.4 679.44,-277.91"/>
<polygon fill="#63b8ff" stroke="#63b8ff" points="680.31,-281.3 688.76,-274.91 678.17,-274.64 680.31,-281.3"/>
</a>
</g>
</g>
<!-- Node5 -->
<g id="Node000005" class="node">
<title>Node5</title>
<g id="a_Node000005"><a xlink:title=" ">
<polygon fill="#e0e0e0" stroke="#999999" points="741.5,-146.62 696.25,-146.62 696.25,-127.38 741.5,-127.38 741.5,-146.62"/>
<text text-anchor="middle" x="718.88" y="-132.18" font-family="Helvetica,sans-Serif" font-size="11.00">cmath</text>
</a>
</g>
</g>
<!-- Node4&#45;&gt;Node5 -->
<g id="edge4_Node000004_Node000005" class="edge">
<title>Node4&#45;&gt;Node5</title>
<g id="a_edge4_Node000004_Node000005"><a xlink:title=" ">
<path fill="none" stroke="#63b8ff" d="M682.41,-187.93C688.53,-179.55 697.87,-166.76 705.57,-156.22"/>
<polygon fill="#63b8ff" stroke="#63b8ff" points="708.32,-158.39 711.39,-148.25 702.67,-154.26 708.32,-158.39"/>
</a>
</g>
</g>
<!-- Node6 -->
<g id="Node000006" class="node">
<title>Node6</title>
<g id="a_Node000006"><a xlink:title=" ">
<polygon fill="#e0e0e0" stroke="#999999" points="799.88,-146.62 759.88,-146.62 759.88,-127.38 799.88,-127.38 799.88,-146.62"/>
<text text-anchor="middle" x="779.88" y="-132.18" font-family="Helvetica,sans-Serif" font-size="11.00">limits</text>
</a>
</g>
</g>
<!-- Node4&#45;&gt;Node6 -->
<g id="edge5_Node000004_Node000006" class="edge">
<title>Node4&#45;&gt;Node6</title>
<g id="a_edge5_Node000004_Node000006"><a xlink:title=" ">
<path fill="none" stroke="#63b8ff" d="M691.67,-187.93C708.24,-178.55 734.55,-163.66 754.12,-152.58"/>
<polygon fill="#63b8ff" stroke="#63b8ff" points="755.64,-155.74 762.61,-147.77 752.19,-149.65 755.64,-155.74"/>
</a>
</g>
</g>
<!-- Node7 -->
<g id="Node000007" class="node">
<title>Node7</title>
<g id="a_Node000007"><a xlink:title=" ">
<polygon fill="#e0e0e0" stroke="#999999" points="601.88,-146.62 543.88,-146.62 543.88,-127.38 601.88,-127.38 601.88,-146.62"/>
<text text-anchor="middle" x="572.88" y="-132.18" font-family="Helvetica,sans-Serif" font-size="11.00">numbers</text>
</a>
</g>
</g>
<!-- Node4&#45;&gt;Node7 -->
<g id="edge6_Node000004_Node000007" class="edge">
<title>Node4&#45;&gt;Node7</title>
<g id="a_edge6_Node000004_Node000007"><a xlink:title=" ">
<path fill="none" stroke="#63b8ff" d="M660.23,-187.93C643.9,-178.6 618.01,-163.8 598.65,-152.73"/>
<polygon fill="#63b8ff" stroke="#63b8ff" points="600.4,-149.7 589.98,-147.78 596.92,-155.78 600.4,-149.7"/>
</a>
</g>
</g>
<!-- Node8 -->
<g id="Node000008" class="node">
<title>Node8</title>
<g id="a_Node000008"><a xlink:title=" ">
<polygon fill="#e0e0e0" stroke="#999999" points="677.88,-146.62 619.88,-146.62 619.88,-127.38 677.88,-127.38 677.88,-146.62"/>
<text text-anchor="middle" x="648.88" y="-132.18" font-family="Helvetica,sans-Serif" font-size="11.00">compare</text>
</a>
</g>
</g>
<!-- Node4&#45;&gt;Node8 -->
<g id="edge7_Node000004_Node000008" class="edge">
<title>Node4&#45;&gt;Node8</title>
<g id="a_edge7_Node000004_Node000008"><a xlink:title=" ">
<path fill="none" stroke="#63b8ff" d="M671.77,-187.93C668.05,-179.81 662.42,-167.54 657.68,-157.2"/>
<polygon fill="#63b8ff" stroke="#63b8ff" points="661,-156.03 653.65,-148.4 654.63,-158.95 661,-156.03"/>
</a>
</g>
</g>
<!-- Node9 -->
<g id="Node000009" class="node">
<title>Node9</title>
<g id="a_Node000009"><a xlink:href="export_8h_source.html" target="_top" xlink:title=" ">
<polygon fill="white" stroke="#666666" points="525.38,-146.62 410.38,-146.62 410.38,-127.38 525.38,-127.38 525.38,-146.62"/>
<text text-anchor="middle" x="467.88" y="-132.18" font-family="Helvetica,sans-Serif" font-size="11.00">floppy/detail/export.h</text>
</a>
</g>
</g>
<!-- Node4&#45;&gt;Node9 -->
<g id="edge8_Node000004_Node000009" class="edge">
<title>Node4&#45;&gt;Node9</title>
<g id="a_edge8_Node000004_Node000009"><a xlink:title=" ">
<path fill="none" stroke="#63b8ff" d="M643.83,-187.8C608.18,-177.71 550.4,-161.36 510.85,-150.16"/>
<polygon fill="#63b8ff" stroke="#63b8ff" points="511.99,-146.85 501.41,-147.49 510.08,-153.58 511.99,-146.85"/>
</a>
</g>
</g>
<!-- Node14 -->
<g id="Node000014" class="node">
<title>Node14</title>
<g id="a_Node000014"><a xlink:href="concepts_8h_source.html" target="_top" xlink:title=" ">
<polygon fill="white" stroke="#666666" points="945.75,-146.62 818,-146.62 818,-127.38 945.75,-127.38 945.75,-146.62"/>
<text text-anchor="middle" x="881.88" y="-132.18" font-family="Helvetica,sans-Serif" font-size="11.00">floppy/detail/concepts.h</text>
</a>
</g>
</g>
<!-- Node4&#45;&gt;Node14 -->
<g id="edge13_Node000004_Node000014" class="edge">
<title>Node4&#45;&gt;Node14</title>
<g id="a_edge13_Node000004_Node000014"><a xlink:title=" ">
<path fill="none" stroke="#63b8ff" d="M707.61,-187.8C742.84,-177.74 799.9,-161.43 839.07,-150.24"/>
<polygon fill="#63b8ff" stroke="#63b8ff" points="839.99,-153.61 848.65,-147.5 838.07,-146.88 839.99,-153.61"/>
</a>
</g>
</g>
<!-- Node10 -->
<g id="Node000010" class="node">
<title>Node10</title>
<g id="a_Node000010"><a xlink:title=" ">
<polygon fill="#e0e0e0" stroke="#999999" points="464,-80.12 421.75,-80.12 421.75,-60.88 464,-60.88 464,-80.12"/>
<text text-anchor="middle" x="442.88" y="-65.67" font-family="Helvetica,sans-Serif" font-size="11.00">string</text>
</a>
</g>
</g>
<!-- Node9&#45;&gt;Node10 -->
<g id="edge9_Node000009_Node000010" class="edge">
<title>Node9&#45;&gt;Node10</title>
<g id="a_edge9_Node000009_Node000010"><a xlink:title=" ">
<path fill="none" stroke="#63b8ff" d="M464.4,-127.03C460.78,-117.69 455,-102.78 450.34,-90.76"/>
<polygon fill="#63b8ff" stroke="#63b8ff" points="453.75,-89.86 446.87,-81.8 447.22,-92.39 453.75,-89.86"/>
</a>
</g>
</g>
<!-- Node11 -->
<g id="Node000011" class="node">
<title>Node11</title>
<g id="a_Node000011"><a xlink:title=" ">
<polygon fill="#e0e0e0" stroke="#999999" points="306.88,-80.12 236.88,-80.12 236.88,-60.88 306.88,-60.88 306.88,-80.12"/>
<text text-anchor="middle" x="271.88" y="-65.67" font-family="Helvetica,sans-Serif" font-size="11.00">string_view</text>
</a>
</g>
</g>
<!-- Node9&#45;&gt;Node11 -->
<g id="edge10_Node000009_Node000011" class="edge">
<title>Node9&#45;&gt;Node11</title>
<g id="a_edge10_Node000009_Node000011"><a xlink:title=" ">
<path fill="none" stroke="#63b8ff" d="M440.21,-126.9C406.21,-115.71 348.34,-96.66 310.11,-84.08"/>
<polygon fill="#63b8ff" stroke="#63b8ff" points="311.43,-80.83 300.84,-81.03 309.24,-87.48 311.43,-80.83"/>
</a>
</g>
</g>
<!-- Node12 -->
<g id="Node000012" class="node">
<title>Node12</title>
<g id="a_Node000012"><a xlink:title=" ">
<polygon fill="#e0e0e0" stroke="#999999" points="396.5,-80.12 339.25,-80.12 339.25,-60.88 396.5,-60.88 396.5,-80.12"/>
<text text-anchor="middle" x="367.88" y="-65.67" font-family="Helvetica,sans-Serif" font-size="11.00">iostream</text>
</a>
</g>
</g>
<!-- Node9&#45;&gt;Node12 -->
<g id="edge11_Node000009_Node000012" class="edge">
<title>Node9&#45;&gt;Node12</title>
<g id="a_edge11_Node000009_Node000012"><a xlink:title=" ">
<path fill="none" stroke="#63b8ff" d="M453.97,-127.03C437.87,-116.64 411.07,-99.36 391.64,-86.83"/>
<polygon fill="#63b8ff" stroke="#63b8ff" points="393.56,-83.9 383.26,-81.42 389.76,-89.78 393.56,-83.9"/>
</a>
</g>
</g>
<!-- Node13 -->
<g id="Node000013" class="node">
<title>Node13</title>
<g id="a_Node000013"><a xlink:title=" ">
<polygon fill="#e0e0e0" stroke="#999999" points="528.75,-19.25 455,-19.25 455,0 528.75,0 528.75,-19.25"/>
<text text-anchor="middle" x="491.88" y="-4.8" font-family="Helvetica,sans-Serif" font-size="11.00">fmt/format.h</text>
</a>
</g>
</g>
<!-- Node9&#45;&gt;Node13 -->
<g id="edge12_Node000009_Node000013" class="edge">
<title>Node9&#45;&gt;Node13</title>
<g id="a_edge12_Node000009_Node000013"><a xlink:title=" ">
<path fill="none" stroke="#63b8ff" d="M469.6,-126.98C473.44,-106.92 482.77,-58.2 488.05,-30.58"/>
<polygon fill="#63b8ff" stroke="#63b8ff" points="491.44,-31.53 489.88,-21.05 484.56,-30.21 491.44,-31.53"/>
</a>
</g>
</g>
<!-- Node15 -->
<g id="Node000015" class="node">
<title>Node15</title>
<g id="a_Node000015"><a xlink:title=" ">
<polygon fill="#e0e0e0" stroke="#999999" points="863.25,-80.12 804.5,-80.12 804.5,-60.88 863.25,-60.88 863.25,-80.12"/>
<text text-anchor="middle" x="833.88" y="-65.67" font-family="Helvetica,sans-Serif" font-size="11.00">concepts</text>
</a>
</g>
</g>
<!-- Node14&#45;&gt;Node15 -->
<g id="edge14_Node000014_Node000015" class="edge">
<title>Node14&#45;&gt;Node15</title>
<g id="a_edge14_Node000014_Node000015"><a xlink:title=" ">
<path fill="none" stroke="#63b8ff" d="M875.2,-127.03C867.96,-117.31 856.23,-101.54 847.11,-89.28"/>
<polygon fill="#63b8ff" stroke="#63b8ff" points="850.17,-87.54 841.4,-81.61 844.56,-91.72 850.17,-87.54"/>
</a>
</g>
</g>
<!-- Node16 -->
<g id="Node000016" class="node">
<title>Node16</title>
<g id="a_Node000016"><a xlink:href="type__traits_8h_source.html" target="_top" xlink:title=" ">
<polygon fill="white" stroke="#666666" points="978,-85.75 881.75,-85.75 881.75,-55.25 978,-55.25 978,-85.75"/>
<text text-anchor="start" x="889.75" y="-71.3" font-family="Helvetica,sans-Serif" font-size="11.00">floppy/detail/type</text>
<text text-anchor="middle" x="929.88" y="-60.05" font-family="Helvetica,sans-Serif" font-size="11.00">_traits.h</text>
</a>
</g>
</g>
<!-- Node14&#45;&gt;Node16 -->
<g id="edge15_Node000014_Node000016" class="edge">
<title>Node14&#45;&gt;Node16</title>
<g id="a_edge15_Node000014_Node000016"><a xlink:title=" ">
<path fill="none" stroke="#63b8ff" d="M888.55,-127.03C894.69,-118.79 904.06,-106.19 912.33,-95.08"/>
<polygon fill="#63b8ff" stroke="#63b8ff" points="915.13,-97.17 918.3,-87.06 909.52,-92.99 915.13,-97.17"/>
</a>
</g>
</g>
<!-- Node18 -->
<g id="Node000018" class="node">
<title>Node18</title>
<g id="a_Node000018"><a xlink:href="types_8h_source.html" target="_top" xlink:title=" ">
<polygon fill="white" stroke="#666666" points="786.12,-80.12 675.62,-80.12 675.62,-60.88 786.12,-60.88 786.12,-80.12"/>
<text text-anchor="middle" x="730.88" y="-65.67" font-family="Helvetica,sans-Serif" font-size="11.00">floppy/detail/types.h</text>
</a>
</g>
</g>
<!-- Node14&#45;&gt;Node18 -->
<g id="edge17_Node000014_Node000018" class="edge">
<title>Node14&#45;&gt;Node18</title>
<g id="a_edge17_Node000014_Node000018"><a xlink:title=" ">
<path fill="none" stroke="#63b8ff" d="M860.56,-126.9C835.04,-116 792.07,-97.64 762.63,-85.07"/>
<polygon fill="#63b8ff" stroke="#63b8ff" points="764.04,-81.86 753.47,-81.15 761.29,-88.3 764.04,-81.86"/>
</a>
</g>
</g>
<!-- Node17 -->
<g id="Node000017" class="node">
<title>Node17</title>
<g id="a_Node000017"><a xlink:title=" ">
<polygon fill="#e0e0e0" stroke="#999999" points="935.62,-19.25 870.12,-19.25 870.12,0 935.62,0 935.62,-19.25"/>
<text text-anchor="middle" x="902.88" y="-4.8" font-family="Helvetica,sans-Serif" font-size="11.00">type_traits</text>
</a>
</g>
</g>
<!-- Node16&#45;&gt;Node17 -->
<g id="edge16_Node000016_Node000017" class="edge">
<title>Node16&#45;&gt;Node17</title>
<g id="a_edge16_Node000016_Node000017"><a xlink:title=" ">
<path fill="none" stroke="#63b8ff" d="M923.2,-54.95C919.76,-47.45 915.52,-38.2 911.8,-30.1"/>
<polygon fill="#63b8ff" stroke="#63b8ff" points="915.02,-28.71 907.67,-21.08 908.66,-31.63 915.02,-28.71"/>
</a>
</g>
</g>
<!-- Node18&#45;&gt;Node13 -->
<g id="edge22_Node000018_Node000013" class="edge">
<title>Node18&#45;&gt;Node13</title>
<g id="a_edge22_Node000018_Node000013"><a xlink:title=" ">
<path fill="none" stroke="#63b8ff" d="M694.06,-60.43C652.65,-50.23 585.27,-33.63 539.8,-22.43"/>
<polygon fill="#63b8ff" stroke="#63b8ff" points="540.75,-19.06 530.21,-20.07 539.08,-25.86 540.75,-19.06"/>
</a>
</g>
</g>
<!-- Node18&#45;&gt;Node17 -->
<g id="edge21_Node000018_Node000017" class="edge">
<title>Node18&#45;&gt;Node17</title>
<g id="a_edge21_Node000018_Node000017"><a xlink:title=" ">
<path fill="none" stroke="#63b8ff" d="M757.37,-60.43C786.41,-50.49 833.21,-34.47 865.86,-23.29"/>
<polygon fill="#63b8ff" stroke="#63b8ff" points="866.59,-26.75 874.91,-20.2 864.32,-20.12 866.59,-26.75"/>
</a>
</g>
</g>
<!-- Node19 -->
<g id="Node000019" class="node">
<title>Node19</title>
<g id="a_Node000019"><a xlink:title=" ">
<polygon fill="#e0e0e0" stroke="#999999" points="826.12,-19.25 775.62,-19.25 775.62,0 826.12,0 826.12,-19.25"/>
<text text-anchor="middle" x="800.88" y="-4.8" font-family="Helvetica,sans-Serif" font-size="11.00">cstddef</text>
</a>
</g>
</g>
<!-- Node18&#45;&gt;Node19 -->
<g id="edge18_Node000018_Node000019" class="edge">
<title>Node18&#45;&gt;Node19</title>
<g id="a_edge18_Node000018_Node000019"><a xlink:title=" ">
<path fill="none" stroke="#63b8ff" d="M741.51,-60.56C752.09,-51.65 768.59,-37.78 781.5,-26.92"/>
<polygon fill="#63b8ff" stroke="#63b8ff" points="783.58,-29.74 788.99,-20.63 779.08,-24.38 783.58,-29.74"/>
</a>
</g>
</g>
<!-- Node20 -->
<g id="Node000020" class="node">
<title>Node20</title>
<g id="a_Node000020"><a xlink:title=" ">
<polygon fill="#e0e0e0" stroke="#999999" points="686.25,-19.25 639.5,-19.25 639.5,0 686.25,0 686.25,-19.25"/>
<text text-anchor="middle" x="662.88" y="-4.8" font-family="Helvetica,sans-Serif" font-size="11.00">cstdint</text>
</a>
</g>
</g>
<!-- Node18&#45;&gt;Node20 -->
<g id="edge19_Node000018_Node000020" class="edge">
<title>Node18&#45;&gt;Node20</title>
<g id="a_edge19_Node000018_Node000020"><a xlink:title=" ">
<path fill="none" stroke="#63b8ff" d="M720.55,-60.56C710.26,-51.65 694.24,-37.78 681.69,-26.92"/>
<polygon fill="#63b8ff" stroke="#63b8ff" points="684.3,-24.54 674.44,-20.64 679.71,-29.83 684.3,-24.54"/>
</a>
</g>
</g>
<!-- Node21 -->
<g id="Node000021" class="node">
<title>Node21</title>
<g id="a_Node000021"><a xlink:title=" ">
<polygon fill="#e0e0e0" stroke="#999999" points="757.62,-19.25 704.12,-19.25 704.12,0 757.62,0 757.62,-19.25"/>
<text text-anchor="middle" x="730.88" y="-4.8" font-family="Helvetica,sans-Serif" font-size="11.00">optional</text>
</a>
</g>
</g>
<!-- Node18&#45;&gt;Node21 -->
<g id="edge20_Node000018_Node000021" class="edge">
<title>Node18&#45;&gt;Node21</title>
<g id="a_edge20_Node000018_Node000021"><a xlink:title=" ">
<path fill="none" stroke="#63b8ff" d="M730.88,-60.56C730.88,-52.78 730.88,-41.2 730.88,-31.16"/>
<polygon fill="#63b8ff" stroke="#63b8ff" points="734.38,-31.16 730.88,-21.16 727.38,-31.16 734.38,-31.16"/>
</a>
</g>
</g>
<!-- Node22&#45;&gt;Node9 -->
<g id="edge27_Node000022_Node000009" class="edge">
<title>Node22&#45;&gt;Node9</title>
<g id="a_edge27_Node000022_Node000009"><a xlink:title=" ">
<path fill="none" stroke="#63b8ff" d="M349.44,-187.8C372.63,-178.05 409.73,-162.45 436.23,-151.31"/>
<polygon fill="#63b8ff" stroke="#63b8ff" points="437.26,-154.67 445.12,-147.57 434.54,-148.22 437.26,-154.67"/>
</a>
</g>
</g>
<!-- Node22&#45;&gt;Node12 -->
<g id="edge25_Node000022_Node000012" class="edge">
<title>Node22&#45;&gt;Node12</title>
<g id="a_edge25_Node000022_Node000012"><a xlink:title=" ">
<path fill="none" stroke="#63b8ff" d="M287.94,-191.69C234.41,-183.07 149.53,-162.55 180.88,-121.75 218.71,-72.51 255.93,-101.96 315.88,-85.75 319.86,-84.67 324.01,-83.54 328.16,-82.41"/>
<polygon fill="#63b8ff" stroke="#63b8ff" points="328.82,-85.86 337.54,-79.85 326.98,-79.11 328.82,-85.86"/>
</a>
</g>
</g>
<!-- Node23 -->
<g id="Node000023" class="node">
<title>Node23</title>
<g id="a_Node000023"><a xlink:title=" ">
<polygon fill="#e0e0e0" stroke="#999999" points="245.38,-146.62 190.38,-146.62 190.38,-127.38 245.38,-127.38 245.38,-146.62"/>
<text text-anchor="middle" x="217.88" y="-132.18" font-family="Helvetica,sans-Serif" font-size="11.00">memory</text>
</a>
</g>
</g>
<!-- Node22&#45;&gt;Node23 -->
<g id="edge24_Node000022_Node000023" class="edge">
<title>Node22&#45;&gt;Node23</title>
<g id="a_edge24_Node000022_Node000023"><a xlink:title=" ">
<path fill="none" stroke="#63b8ff" d="M311.17,-187.93C293.56,-178.51 265.56,-163.52 244.83,-152.43"/>
<polygon fill="#63b8ff" stroke="#63b8ff" points="246.54,-149.37 236.07,-147.74 243.24,-155.54 246.54,-149.37"/>
</a>
</g>
</g>
<!-- Node24 -->
<g id="Node000024" class="node">
<title>Node24</title>
<g id="a_Node000024"><a xlink:title=" ">
<polygon fill="#e0e0e0" stroke="#999999" points="392.5,-152.25 263.25,-152.25 263.25,-121.75 392.5,-121.75 392.5,-152.25"/>
<text text-anchor="start" x="271.25" y="-137.8" font-family="Helvetica,sans-Serif" font-size="11.00">experimental/propagate</text>
<text text-anchor="middle" x="327.88" y="-126.55" font-family="Helvetica,sans-Serif" font-size="11.00">_const</text>
</a>
</g>
</g>
<!-- Node22&#45;&gt;Node24 -->
<g id="edge26_Node000022_Node000024" class="edge">
<title>Node22&#45;&gt;Node24</title>
<g id="a_edge26_Node000022_Node000024"><a xlink:title=" ">
<path fill="none" stroke="#63b8ff" d="M327.88,-187.93C327.88,-181.48 327.88,-172.41 327.88,-163.76"/>
<polygon fill="#63b8ff" stroke="#63b8ff" points="331.38,-164.05 327.88,-154.05 324.38,-164.05 331.38,-164.05"/>
</a>
</g>
</g>
<!-- Node25 -->
<g id="Node000025" class="node">
<title>Node25</title>
<g id="a_Node000025"><a xlink:href="formatters_8h_source.html" target="_top" xlink:title=" ">
<polygon fill="white" stroke="#666666" points="133.75,-146.62 0,-146.62 0,-127.38 133.75,-127.38 133.75,-146.62"/>
<text text-anchor="middle" x="66.88" y="-132.18" font-family="Helvetica,sans-Serif" font-size="11.00">floppy/detail/formatters.h</text>
</a>
</g>
</g>
<!-- Node22&#45;&gt;Node25 -->
<g id="edge28_Node000022_Node000025" class="edge">
<title>Node22&#45;&gt;Node25</title>
<g id="a_edge28_Node000022_Node000025"><a xlink:title=" ">
<path fill="none" stroke="#63b8ff" d="M287.67,-187.8C242.16,-177.54 167.94,-160.8 118.26,-149.59"/>
<polygon fill="#63b8ff" stroke="#63b8ff" points="119.13,-146.2 108.61,-147.41 117.59,-153.03 119.13,-146.2"/>
</a>
</g>
</g>
<!-- Node25&#45;&gt;Node11 -->
<g id="edge29_Node000025_Node000011" class="edge">
<title>Node25&#45;&gt;Node11</title>
<g id="a_edge29_Node000025_Node000011"><a xlink:title=" ">
<path fill="none" stroke="#63b8ff" d="M95.81,-126.9C131.45,-115.68 192.16,-96.58 232.14,-84"/>
<polygon fill="#63b8ff" stroke="#63b8ff" points="233.15,-87.35 241.64,-81.01 231.05,-80.68 233.15,-87.35"/>
</a>
</g>
</g>
<!-- Node25&#45;&gt;Node13 -->
<g id="edge32_Node000025_Node000013" class="edge">
<title>Node25&#45;&gt;Node13</title>
<g id="a_edge32_Node000025_Node000013"><a xlink:title=" ">
<path fill="none" stroke="#63b8ff" d="M62.1,-126.89C54.17,-110.35 40.85,-75.23 58.88,-55.25 84.25,-27.13 335.44,-15.68 443.2,-12.04"/>
<polygon fill="#63b8ff" stroke="#63b8ff" points="443.3,-15.54 453.18,-11.72 443.07,-8.55 443.3,-15.54"/>
</a>
</g>
</g>
<!-- Node26 -->
<g id="Node000026" class="node">
<title>Node26</title>
<g id="a_Node000026"><a xlink:title=" ">
<polygon fill="#e0e0e0" stroke="#999999" points="122,-80.12 67.75,-80.12 67.75,-60.88 122,-60.88 122,-80.12"/>
<text text-anchor="middle" x="94.88" y="-65.67" font-family="Helvetica,sans-Serif" font-size="11.00">sstream</text>
</a>
</g>
</g>
<!-- Node25&#45;&gt;Node26 -->
<g id="edge30_Node000025_Node000026" class="edge">
<title>Node25&#45;&gt;Node26</title>
<g id="a_edge30_Node000025_Node000026"><a xlink:title=" ">
<path fill="none" stroke="#63b8ff" d="M70.77,-127.03C74.82,-117.69 81.3,-102.78 86.52,-90.76"/>
<polygon fill="#63b8ff" stroke="#63b8ff" points="89.64,-92.35 90.41,-81.78 83.22,-89.56 89.64,-92.35"/>
</a>
</g>
</g>
<!-- Node27 -->
<g id="Node000027" class="node">
<title>Node27</title>
<g id="a_Node000027"><a xlink:title=" ">
<polygon fill="#e0e0e0" stroke="#999999" points="187.25,-80.12 140.5,-80.12 140.5,-60.88 187.25,-60.88 187.25,-80.12"/>
<text text-anchor="middle" x="163.88" y="-65.67" font-family="Helvetica,sans-Serif" font-size="11.00">iosfwd</text>
</a>
</g>
</g>
<!-- Node25&#45;&gt;Node27 -->
<g id="edge31_Node000025_Node000027" class="edge">
<title>Node25&#45;&gt;Node27</title>
<g id="a_edge31_Node000025_Node000027"><a xlink:title=" ">
<path fill="none" stroke="#63b8ff" d="M80.36,-127.03C95.98,-116.64 121.98,-99.36 140.82,-86.83"/>
<polygon fill="#63b8ff" stroke="#63b8ff" points="142.54,-89.89 148.93,-81.44 138.66,-84.06 142.54,-89.89"/>
</a>
</g>
</g>
<!-- Node28&#45;&gt;Node4 -->
<g id="edge34_Node000028_Node000004" class="edge">
<title>Node28&#45;&gt;Node4</title>
<g id="a_edge34_Node000028_Node000004"><a xlink:title=" ">
<path fill="none" stroke="#63b8ff" d="M721.04,-243.2C712.61,-234.92 702.01,-224.52 693.19,-215.87"/>
<polygon fill="#63b8ff" stroke="#63b8ff" points="695.79,-213.52 686.2,-209.01 690.89,-218.51 695.79,-213.52"/>
</a>
</g>
</g>
<!-- Node28&#45;&gt;Node14 -->
<g id="edge35_Node000028_Node000014" class="edge">
<title>Node28&#45;&gt;Node14</title>
<g id="a_edge35_Node000028_Node000014"><a xlink:title=" ">
<path fill="none" stroke="#63b8ff" d="M753.78,-243.07C781.28,-220.51 833.72,-177.49 862.23,-154.11"/>
<polygon fill="#63b8ff" stroke="#63b8ff" points="864.23,-157 869.75,-147.95 859.79,-151.58 864.23,-157"/>
</a>
</g>
</g>
<!-- Node29&#45;&gt;Node28 -->
<g id="edge41_Node000029_Node000028" class="edge">
<title>Node29&#45;&gt;Node28</title>
<g id="a_edge41_Node000029_Node000028"><a xlink:title=" ">
<path fill="none" stroke="#63b8ff" d="M734.93,-364.99C739.6,-356.23 746.22,-342.29 748.88,-329.25 751.85,-314.65 749.08,-298.26 745.35,-285.07"/>
<polygon fill="#63b8ff" stroke="#63b8ff" points="748.78,-284.32 742.39,-275.86 742.11,-286.45 748.78,-284.32"/>
</a>
</g>
</g>
<!-- Node30 -->
<g id="Node000030" class="node">
<title>Node30</title>
<g id="a_Node000030"><a xlink:href="scale_8h.html" target="_top" xlink:title="A scaling factor between two different units of measurement.">
<polygon fill="white" stroke="#666666" points="739.88,-329.25 627.88,-329.25 627.88,-310 739.88,-310 739.88,-329.25"/>
<text text-anchor="middle" x="683.88" y="-314.8" font-family="Helvetica,sans-Serif" font-size="11.00">floppy/euclid/scale.h</text>
</a>
</g>
</g>
<!-- Node29&#45;&gt;Node30 -->
<g id="edge37_Node000029_Node000030" class="edge">
<title>Node29&#45;&gt;Node30</title>
<g id="a_edge37_Node000029_Node000030"><a xlink:title=" ">
<path fill="none" stroke="#63b8ff" d="M722.28,-365.08C715.99,-357.8 706.86,-347.23 699.08,-338.23"/>
<polygon fill="#63b8ff" stroke="#63b8ff" points="701.81,-336.03 692.63,-330.75 696.51,-340.61 701.81,-336.03"/>
</a>
</g>
</g>
<!-- Node30&#45;&gt;Node4 -->
<g id="edge38_Node000030_Node000004" class="edge">
<title>Node30&#45;&gt;Node4</title>
<g id="a_edge38_Node000030_Node000004"><a xlink:title=" ">
<path fill="none" stroke="#63b8ff" d="M681.56,-309.81C679.33,-300.87 676.13,-286.58 674.88,-274 673.01,-255.34 673.56,-233.95 674.39,-218.78"/>
<polygon fill="#63b8ff" stroke="#63b8ff" points="677.86,-219.41 675.02,-209.2 670.87,-218.95 677.86,-219.41"/>
</a>
</g>
</g>
<!-- Node30&#45;&gt;Node22 -->
<g id="edge39_Node000030_Node000022" class="edge">
<title>Node30&#45;&gt;Node22</title>
<g id="a_edge39_Node000030_Node000022"><a xlink:title=" ">
<path fill="none" stroke="#63b8ff" d="M656.82,-309.53C593.98,-288.39 438,-235.92 365.74,-211.61"/>
<polygon fill="#63b8ff" stroke="#63b8ff" points="366.91,-208.31 356.32,-208.44 364.68,-214.95 366.91,-208.31"/>
</a>
</g>
</g>
<!-- Node30&#45;&gt;Node28 -->
<g id="edge40_Node000030_Node000028" class="edge">
<title>Node30&#45;&gt;Node28</title>
<g id="a_edge40_Node000030_Node000028"><a xlink:title=" ">
<path fill="none" stroke="#63b8ff" d="M691.77,-309.68C698.06,-302.56 707.15,-292.27 715.45,-282.88"/>
<polygon fill="#63b8ff" stroke="#63b8ff" points="718.04,-285.23 722.04,-275.42 712.79,-280.59 718.04,-285.23"/>
</a>
</g>
</g>
<!-- Node31&#45;&gt;Node4 -->
<g id="edge43_Node000031_Node000004" class="edge">
<title>Node31&#45;&gt;Node4</title>
<g id="a_edge43_Node000031_Node000004"><a xlink:title=" ">
<path fill="none" stroke="#63b8ff" d="M782.84,-486.62C793.14,-467.08 815.88,-419.06 815.88,-375.88 815.88,-375.88 815.88,-375.88 815.88,-318.62 815.88,-284.18 819.91,-269.1 796.88,-243.5 782.47,-227.49 761.8,-217.21 741.61,-210.61"/>
<polygon fill="#63b8ff" stroke="#63b8ff" points="742.85,-207.33 732.26,-207.83 740.85,-214.04 742.85,-207.33"/>
</a>
</g>
</g>
<!-- Node31&#45;&gt;Node14 -->
<g id="edge44_Node000031_Node000014" class="edge">
<title>Node31&#45;&gt;Node14</title>
<g id="a_edge44_Node000031_Node000014"><a xlink:title=" ">
<path fill="none" stroke="#63b8ff" d="M788.76,-486.65C809.78,-468.24 853.88,-423.89 853.88,-375.88 853.88,-375.88 853.88,-375.88 853.88,-257.75 853.88,-221.57 866.14,-180.82 874.44,-157.4"/>
<polygon fill="#63b8ff" stroke="#63b8ff" points="877.63,-158.86 877.81,-148.27 871.06,-156.44 877.63,-158.86"/>
</a>
</g>
</g>
<!-- Node31&#45;&gt;Node29 -->
<g id="edge45_Node000031_Node000029" class="edge">
<title>Node31&#45;&gt;Node29</title>
<g id="a_edge45_Node000031_Node000029"><a xlink:title=" ">
<path fill="none" stroke="#63b8ff" d="M776.56,-486.52C774.27,-472.07 768.79,-443.18 758.88,-420.5 754.86,-411.32 749.04,-401.9 743.67,-394.1"/>
<polygon fill="#63b8ff" stroke="#63b8ff" points="746.63,-392.22 737.94,-386.16 740.95,-396.32 746.63,-392.22"/>
</a>
</g>
</g>
<!-- Node31&#45;&gt;Node32 -->
<g id="edge46_Node000031_Node000032" class="edge">
<title>Node31&#45;&gt;Node32</title>
<g id="a_edge46_Node000031_Node000032"><a xlink:title=" ">
<path fill="none" stroke="#63b8ff" d="M804.68,-486.55C829.41,-478.19 866.87,-465.51 897.81,-455.04"/>
<polygon fill="#63b8ff" stroke="#63b8ff" points="898.66,-458.45 907.01,-451.93 896.42,-451.82 898.66,-458.45"/>
</a>
</g>
</g>
<!-- Node37 -->
<g id="Node000037" class="node">
<title>Node37</title>
<g id="a_Node000037"><a xlink:title=" ">
<polygon fill="#e0e0e0" stroke="#999999" points="749.75,-445.38 700,-445.38 700,-426.12 749.75,-426.12 749.75,-445.38"/>
<text text-anchor="middle" x="724.88" y="-430.93" font-family="Helvetica,sans-Serif" font-size="11.00">qsize.h</text>
</a>
</g>
</g>
<!-- Node31&#45;&gt;Node37 -->
<g id="edge53_Node000031_Node000037" class="edge">
<title>Node31&#45;&gt;Node37</title>
<g id="a_edge53_Node000031_Node000037"><a xlink:title=" ">
<path fill="none" stroke="#63b8ff" d="M769.83,-486.68C762.12,-478.12 750.29,-464.98 740.69,-454.32"/>
<polygon fill="#63b8ff" stroke="#63b8ff" points="743.3,-451.99 734.01,-446.9 738.1,-456.67 743.3,-451.99"/>
</a>
</g>
</g>
<!-- Node32&#45;&gt;Node28 -->
<g id="edge52_Node000032_Node000028" class="edge">
<title>Node32&#45;&gt;Node28</title>
<g id="a_edge52_Node000032_Node000028"><a xlink:title=" ">
<path fill="none" stroke="#63b8ff" d="M955.8,-420.2C958.96,-405.21 961.33,-381.77 950.88,-365.25 917.51,-312.56 849.43,-285.4 798.78,-271.93"/>
<polygon fill="#63b8ff" stroke="#63b8ff" points="799.95,-268.62 789.4,-269.56 798.23,-275.41 799.95,-268.62"/>
</a>
</g>
</g>
<!-- Node32&#45;&gt;Node29 -->
<g id="edge51_Node000032_Node000029" class="edge">
<title>Node32&#45;&gt;Node29</title>
<g id="a_edge51_Node000032_Node000029"><a xlink:title=" ">
<path fill="none" stroke="#63b8ff" d="M899.55,-420.87C861.67,-410.83 811.01,-397.39 774.93,-387.83"/>
<polygon fill="#63b8ff" stroke="#63b8ff" points="776.26,-384.56 765.7,-385.38 774.47,-391.32 776.26,-384.56"/>
</a>
</g>
</g>
<!-- Node33 -->
<g id="Node000033" class="node">
<title>Node33</title>
<g id="a_Node000033"><a xlink:title=" ">
<polygon fill="#e0e0e0" stroke="#999999" points="1038.25,-384.5 997.5,-384.5 997.5,-365.25 1038.25,-365.25 1038.25,-384.5"/>
<text text-anchor="middle" x="1017.88" y="-370.05" font-family="Helvetica,sans-Serif" font-size="11.00">array</text>
</a>
</g>
</g>
<!-- Node32&#45;&gt;Node33 -->
<g id="edge47_Node000032_Node000033" class="edge">
<title>Node32&#45;&gt;Node33</title>
<g id="a_edge47_Node000032_Node000033"><a xlink:title=" ">
<path fill="none" stroke="#63b8ff" d="M968.19,-420.2C977.56,-411.84 989.37,-401.3 999.13,-392.6"/>
<polygon fill="#63b8ff" stroke="#63b8ff" points="1001.44,-395.23 1006.57,-385.96 996.78,-390 1001.44,-395.23"/>
</a>
</g>
</g>
<!-- Node34 -->
<g id="Node000034" class="node">
<title>Node34</title>
<g id="a_Node000034"><a xlink:title=" ">
<polygon fill="#e0e0e0" stroke="#999999" points="1095.5,-384.5 1056.25,-384.5 1056.25,-365.25 1095.5,-365.25 1095.5,-384.5"/>
<text text-anchor="middle" x="1075.88" y="-370.05" font-family="Helvetica,sans-Serif" font-size="11.00">tuple</text>
</a>
</g>
</g>
<!-- Node32&#45;&gt;Node34 -->
<g id="edge48_Node000032_Node000034" class="edge">
<title>Node32&#45;&gt;Node34</title>
<g id="a_edge48_Node000032_Node000034"><a xlink:title=" ">
<path fill="none" stroke="#63b8ff" d="M982.85,-420.05C1002.37,-410.78 1027.41,-398.88 1046.6,-389.77"/>
<polygon fill="#63b8ff" stroke="#63b8ff" points="1047.96,-393 1055.49,-385.55 1044.96,-386.68 1047.96,-393"/>
</a>
</g>
</g>
<!-- Node35 -->
<g id="Node000035" class="node">
<title>Node35</title>
<g id="a_Node000035"><a xlink:title=" ">
<polygon fill="#e0e0e0" stroke="#999999" points="1153.88,-384.5 1113.88,-384.5 1113.88,-365.25 1153.88,-365.25 1153.88,-384.5"/>
<text text-anchor="middle" x="1133.88" y="-370.05" font-family="Helvetica,sans-Serif" font-size="11.00">utility</text>
</a>
</g>
</g>
<!-- Node32&#45;&gt;Node35 -->
<g id="edge49_Node000032_Node000035" class="edge">
<title>Node32&#45;&gt;Node35</title>
<g id="a_edge49_Node000032_Node000035"><a xlink:title=" ">
<path fill="none" stroke="#63b8ff" d="M997.33,-420.05C1030.24,-409.4 1073.84,-395.29 1102.83,-385.92"/>
<polygon fill="#63b8ff" stroke="#63b8ff" points="1103.66,-389.33 1112.1,-382.92 1101.51,-382.67 1103.66,-389.33"/>
</a>
</g>
</g>
<!-- Node36 -->
<g id="Node000036" class="node">
<title>Node36</title>
<g id="a_Node000036"><a xlink:title=" ">
<polygon fill="#e0e0e0" stroke="#999999" points="942,-384.5 881.75,-384.5 881.75,-365.25 942,-365.25 942,-384.5"/>
<text text-anchor="middle" x="911.88" y="-370.05" font-family="Helvetica,sans-Serif" font-size="11.00">algorithm</text>
</a>
</g>
</g>
<!-- Node32&#45;&gt;Node36 -->
<g id="edge50_Node000032_Node000036" class="edge">
<title>Node32&#45;&gt;Node36</title>
<g id="a_edge50_Node000032_Node000036"><a xlink:title=" ">
<path fill="none" stroke="#63b8ff" d="M941.99,-420.2C936.66,-412.35 930.03,-402.6 924.35,-394.24"/>
<polygon fill="#63b8ff" stroke="#63b8ff" points="927.41,-392.51 918.89,-386.2 921.62,-396.44 927.41,-392.51"/>
</a>
</g>
</g>
</g>
</svg>
