<?xml version="1.0" encoding="UTF-8" standalone="no"?>
<!DOCTYPE svg PUBLIC "-//W3C//DTD SVG 1.1//EN"
 "http://www.w3.org/Graphics/SVG/1.1/DTD/svg11.dtd">
<!-- Generated by graphviz version 10.0.1 (0)
 -->
<!-- Title: vector2d.h Pages: 1 -->
<svg width="100pt" height="138pt"
 viewBox="0.00 0.00 100.25 137.75" xmlns="http://www.w3.org/2000/svg" xmlns:xlink="http://www.w3.org/1999/xlink">
<g id="graph0" class="graph" transform="scale(1 1) rotate(0) translate(4 133.75)">
<title>vector2d.h</title>
<!-- Node1 -->
<g id="Node000001" class="node">
<title>Node1</title>
<g id="a_Node000001"><a xlink:title="A two&#45;dimensional vector tagged with a unit.">
<polygon fill="#999999" stroke="#666666" points="66.25,-129.75 0,-129.75 0,-110.5 66.25,-110.5 66.25,-129.75"/>
<text text-anchor="middle" x="33.12" y="-115.3" font-family="Helvetica,sans-Serif" font-size="11.00">vector2d.h</text>
</a>
</g>
</g>
<!-- Node2 -->
<g id="Node000002" class="node">
<title>Node2</title>
<g id="a_Node000002"><a xlink:href="euclid_8h.html" target="_top" xlink:title="Small collection of classes and functions for geometric types with a focus on 2d graphics and layout.">
<polygon fill="white" stroke="#666666" points="59.5,-19.25 6.75,-19.25 6.75,0 59.5,0 59.5,-19.25"/>
<text text-anchor="middle" x="33.12" y="-4.8" font-family="Helvetica,sans-Serif" font-size="11.00">euclid.h</text>
</a>
</g>
</g>
<!-- Node1&#45;&gt;Node2 -->
<g id="edge1_Node000001_Node000002" class="edge">
<title>Node1&#45;&gt;Node2</title>
<g id="a_edge1_Node000001_Node000002"><a xlink:title=" ">
<path fill="none" stroke="#63b8ff" d="M27.21,-99.05C24.2,-86.5 21.5,-69.98 23.12,-55.25 24.52,-42.62 28.08,-28.35 30.55,-19.42"/>
<polygon fill="#63b8ff" stroke="#63b8ff" points="23.8,-99.85 29.78,-108.6 30.56,-98.04 23.8,-99.85"/>
</a>
</g>
</g>
<!-- Node3 -->
<g id="Node000003" class="node">
<title>Node3</title>
<g id="a_Node000003"><a xlink:href="point2d_8h.html" target="_top" xlink:title="A two&#45;dimensional point tagged with a unit.">
<polygon fill="white" stroke="#666666" points="92.25,-74.5 32,-74.5 32,-55.25 92.25,-55.25 92.25,-74.5"/>
<text text-anchor="middle" x="62.12" y="-60.05" font-family="Helvetica,sans-Serif" font-size="11.00">point2d.h</text>
</a>
</g>
</g>
<!-- Node1&#45;&gt;Node3 -->
<g id="edge2_Node000001_Node000003" class="edge">
<title>Node1&#45;&gt;Node3</title>
<g id="a_edge2_Node000001_Node000003"><a xlink:title=" ">
<path fill="none" stroke="#63b8ff" d="M43.36,-100.33C48.07,-91.67 53.45,-81.81 57.23,-74.86"/>
<polygon fill="#63b8ff" stroke="#63b8ff" points="40.35,-98.55 38.64,-109 46.49,-101.89 40.35,-98.55"/>
</a>
</g>
</g>
<!-- Node3&#45;&gt;Node2 -->
<g id="edge3_Node000003_Node000002" class="edge">
<title>Node3&#45;&gt;Node2</title>
<g id="a_edge3_Node000003_Node000002"><a xlink:title=" ">
<path fill="none" stroke="#63b8ff" d="M51.89,-45.08C47.18,-36.42 41.8,-26.56 38.02,-19.61"/>
<polygon fill="#63b8ff" stroke="#63b8ff" points="48.76,-46.64 56.61,-53.75 54.9,-43.3 48.76,-46.64"/>
</a>
</g>
</g>
</g>
</svg>
