<?xml version="1.0" encoding="UTF-8" standalone="no"?>
<!DOCTYPE svg PUBLIC "-//W3C//DTD SVG 1.1//EN"
 "http://www.w3.org/Graphics/SVG/1.1/DTD/svg11.dtd">
<!-- Generated by graphviz version 10.0.1 (0)
 -->
<!-- Title: angle.h Pages: 1 -->
<!--zoomable 337 -->

<svg id="main" version="1.1" xmlns="http://www.w3.org/2000/svg" xmlns:xlink="http://www.w3.org/1999/xlink" xml:space="preserve" onload="init(evt)">
<style type="text/css"><![CDATA[
.node, .edge {opacity: 0.7;}
.node.selected, .edge.selected {opacity: 1;}
.edge:hover path { stroke: red; }
.edge:hover polygon { stroke: red; fill: red; }
]]></style>

<defs>
  <circle id="rim" cx="0" cy="0" r="7"/>
  <circle id="rim2" cx="0" cy="0" r="3.5"/>
  <g id="zoomPlus">
    <use xlink:href="#rim" fill="#404040"><set attributeName="fill" to="#808080" begin="zoomplus.mouseover" end="zoomplus.mouseout"/></use>
    <path d="M-4,0h8M0,-4v8" fill="none" stroke="white" stroke-width="1.5" pointer-events="none"/>
  </g>
  <g id="zoomMin">
    <use xlink:href="#rim" fill="#404040"><set attributeName="fill" to="#808080" begin="zoomminus.mouseover" end="zoomminus.mouseout"/></use>
    <path d="M-4,0h8" fill="none" stroke="white" stroke-width="1.5" pointer-events="none"/>
  </g>
  <g id="arrowUp" transform="translate(30 24)">
    <use xlink:href="#rim"/>
    <path pointer-events="none" fill="none" stroke="white" stroke-width="1.5" d="M0,-3.0v7 M-2.5,-0.5L0,-3.0L2.5,-0.5"/>
  </g>
  <g id="arrowRight" transform="rotate(90) translate(36 -43)">
    <use xlink:href="#rim"/>
    <path pointer-events="none" fill="none" stroke="white" stroke-width="1.5" d="M0,-3.0v7 M-2.5,-0.5L0,-3.0L2.5,-0.5"/>
  </g>
  <g id="arrowDown" transform="rotate(180) translate(-30 -48)">
    <use xlink:href="#rim"/>
    <path pointer-events="none" fill="none" stroke="white" stroke-width="1.5" d="M0,-3.0v7 M-2.5,-0.5L0,-3.0L2.5,-0.5"/>
  </g>
  <g id="arrowLeft" transform="rotate(270) translate(-36 17)">
    <use xlink:href="#rim"/>
    <path pointer-events="none" fill="none" stroke="white" stroke-width="1.5" d="M0,-3.0v7 M-2.5,-0.5L0,-3.0L2.5,-0.5"/>
  </g>
  <g id="resetDef">
    <use xlink:href="#rim2" fill="#404040"><set attributeName="fill" to="#808080" begin="reset.mouseover" end="reset.mouseout"/></use>
  </g>
</defs>
<script type="application/ecmascript">
var viewWidth = 990;
var viewHeight = 337;
var sectionId = 'dynsection-0';
</script>
<script type="application/ecmascript" xlink:href="../../svg.min.js"/>
<svg id="graph" class="graph">
<g id="viewport">
<title>angle.h</title>
<!-- Node1 -->
<g id="Node000001" class="node">
<title>Node1</title>
<g id="a_Node000001"><a xlink:title="Newtype describing an angle.">
<polygon fill="#999999" stroke="#666666" points="352.62,-329.25 301.38,-329.25 301.38,-310 352.62,-310 352.62,-329.25"/>
<text text-anchor="middle" x="327" y="-314.8" font-family="Arial" font-size="11.00">angle.h</text>
</a>
</g>
</g>
<!-- Node2 -->
<g id="Node000002" class="node">
<title>Node2</title>
<g id="a_Node000002"><a xlink:href="../../df/db1/math_8h_source.html" target="_top" xlink:title=" ">
<polygon fill="white" stroke="#666666" points="293.5,-207.5 184.5,-207.5 184.5,-188.25 293.5,-188.25 293.5,-207.5"/>
<text text-anchor="middle" x="239" y="-193.05" font-family="Arial" font-size="11.00">floppy/detail/math.h</text>
</a>
</g>
</g>
<!-- Node1&#45;&gt;Node2 -->
<g id="edge1_Node000001_Node000002" class="edge">
<title>Node1&#45;&gt;Node2</title>
<g id="a_edge1_Node000001_Node000002"><a xlink:title=" ">
<path fill="none" stroke="#63b8ff" d="M309.52,-309.65C295.95,-301.87 277.55,-289.45 266,-274 253.57,-257.37 246.44,-234.48 242.66,-218.35"/>
<polygon fill="#63b8ff" stroke="#63b8ff" points="246.19,-218.09 240.71,-209.03 239.34,-219.53 246.19,-218.09"/>
</a>
</g>
</g>
<!-- Node18 -->
<g id="Node000018" class="node">
<title>Node18</title>
<g id="a_Node000018"><a xlink:href="../../dd/dff/traits_8h_source.html" target="_top" xlink:title=" ">
<polygon fill="white" stroke="#666666" points="675.88,-207.5 596.12,-207.5 596.12,-188.25 675.88,-188.25 675.88,-207.5"/>
<text text-anchor="middle" x="636" y="-193.05" font-family="Arial" font-size="11.00">floppy/traits.h</text>
</a>
</g>
</g>
<!-- Node1&#45;&gt;Node18 -->
<g id="edge18_Node000001_Node000018" class="edge">
<title>Node1&#45;&gt;Node18</title>
<g id="a_edge18_Node000001_Node000018"><a xlink:title=" ">
<path fill="none" stroke="#63b8ff" d="M350.48,-309.53C404.69,-288.52 538.75,-236.57 601.97,-212.06"/>
<polygon fill="#63b8ff" stroke="#63b8ff" points="603.09,-215.38 611.15,-208.51 600.56,-208.86 603.09,-215.38"/>
</a>
</g>
</g>
<!-- Node25 -->
<g id="Node000025" class="node">
<title>Node25</title>
<g id="a_Node000025"><a xlink:href="../../de/de1/nt__traits_8h_source.html" target="_top" xlink:title=" ">
<polygon fill="white" stroke="#666666" points="378.88,-274 275.12,-274 275.12,-243.5 378.88,-243.5 378.88,-274"/>
<text text-anchor="start" x="283.12" y="-259.55" font-family="Arial" font-size="11.00">floppy/euclid/detail</text>
<text text-anchor="middle" x="327" y="-248.3" font-family="Arial" font-size="11.00">/nt_traits.h</text>
</a>
</g>
</g>
<!-- Node1&#45;&gt;Node25 -->
<g id="edge28_Node000001_Node000025" class="edge">
<title>Node1&#45;&gt;Node25</title>
<g id="a_edge28_Node000001_Node000025"><a xlink:title=" ">
<path fill="none" stroke="#63b8ff" d="M327,-309.68C327,-303.23 327,-294.16 327,-285.51"/>
<polygon fill="#63b8ff" stroke="#63b8ff" points="330.5,-285.8 327,-275.8 323.5,-285.8 330.5,-285.8"/>
</a>
</g>
</g>
<!-- Node3 -->
<g id="Node000003" class="node">
<title>Node3</title>
<g id="a_Node000003"><a xlink:title=" ">
<polygon fill="#e0e0e0" stroke="#999999" points="197.62,-146.62 152.38,-146.62 152.38,-127.38 197.62,-127.38 197.62,-146.62"/>
<text text-anchor="middle" x="175" y="-132.18" font-family="Arial" font-size="11.00">cmath</text>
</a>
</g>
</g>
<!-- Node2&#45;&gt;Node3 -->
<g id="edge2_Node000002_Node000003" class="edge">
<title>Node2&#45;&gt;Node3</title>
<g id="a_edge2_Node000002_Node000003"><a xlink:title=" ">
<path fill="none" stroke="#63b8ff" d="M229.28,-187.93C219.69,-179.12 204.81,-165.43 193.06,-154.61"/>
<polygon fill="#63b8ff" stroke="#63b8ff" points="195.65,-152.25 185.93,-148.05 190.92,-157.4 195.65,-152.25"/>
</a>
</g>
</g>
<!-- Node4 -->
<g id="Node000004" class="node">
<title>Node4</title>
<g id="a_Node000004"><a xlink:title=" ">
<polygon fill="#e0e0e0" stroke="#999999" points="256,-146.62 216,-146.62 216,-127.38 256,-127.38 256,-146.62"/>
<text text-anchor="middle" x="236" y="-132.18" font-family="Arial" font-size="11.00">limits</text>
</a>
</g>
</g>
<!-- Node2&#45;&gt;Node4 -->
<g id="edge3_Node000002_Node000004" class="edge">
<title>Node2&#45;&gt;Node4</title>
<g id="a_edge3_Node000002_Node000004"><a xlink:title=" ">
<path fill="none" stroke="#63b8ff" d="M238.54,-187.93C238.14,-180.07 237.55,-168.32 237.03,-158.2"/>
<polygon fill="#63b8ff" stroke="#63b8ff" points="240.54,-158.35 236.54,-148.54 233.55,-158.7 240.54,-158.35"/>
</a>
</g>
</g>
<!-- Node5 -->
<g id="Node000005" class="node">
<title>Node5</title>
<g id="a_Node000005"><a xlink:title=" ">
<polygon fill="#e0e0e0" stroke="#999999" points="58,-146.62 0,-146.62 0,-127.38 58,-127.38 58,-146.62"/>
<text text-anchor="middle" x="29" y="-132.18" font-family="Arial" font-size="11.00">numbers</text>
</a>
</g>
</g>
<!-- Node2&#45;&gt;Node5 -->
<g id="edge4_Node000002_Node000005" class="edge">
<title>Node2&#45;&gt;Node5</title>
<g id="a_edge4_Node000002_Node000005"><a xlink:title=" ">
<path fill="none" stroke="#63b8ff" d="M199.04,-187.77C163.96,-179.47 111.71,-166.39 67,-152.25 65.45,-151.76 63.86,-151.24 62.27,-150.7"/>
<polygon fill="#63b8ff" stroke="#63b8ff" points="63.79,-147.53 53.2,-147.49 61.46,-154.13 63.79,-147.53"/>
</a>
</g>
</g>
<!-- Node6 -->
<g id="Node000006" class="node">
<title>Node6</title>
<g id="a_Node000006"><a xlink:title=" ">
<polygon fill="#e0e0e0" stroke="#999999" points="134,-146.62 76,-146.62 76,-127.38 134,-127.38 134,-146.62"/>
<text text-anchor="middle" x="105" y="-132.18" font-family="Arial" font-size="11.00">compare</text>
</a>
</g>
</g>
<!-- Node2&#45;&gt;Node6 -->
<g id="edge5_Node000002_Node000006" class="edge">
<title>Node2&#45;&gt;Node6</title>
<g id="a_edge5_Node000002_Node000006"><a xlink:title=" ">
<path fill="none" stroke="#63b8ff" d="M218.36,-187.8C196.36,-178.14 161.28,-162.73 135.97,-151.61"/>
<polygon fill="#63b8ff" stroke="#63b8ff" points="137.4,-148.41 126.83,-147.59 134.58,-154.82 137.4,-148.41"/>
</a>
</g>
</g>
<!-- Node7 -->
<g id="Node000007" class="node">
<title>Node7</title>
<g id="a_Node000007"><a xlink:href="../../db/db5/export_8h_source.html" target="_top" xlink:title=" ">
<polygon fill="white" stroke="#666666" points="534.5,-146.62 419.5,-146.62 419.5,-127.38 534.5,-127.38 534.5,-146.62"/>
<text text-anchor="middle" x="477" y="-132.18" font-family="Arial" font-size="11.00">floppy/detail/export.h</text>
</a>
</g>
</g>
<!-- Node2&#45;&gt;Node7 -->
<g id="edge6_Node000002_Node000007" class="edge">
<title>Node2&#45;&gt;Node7</title>
<g id="a_edge6_Node000002_Node000007"><a xlink:title=" ">
<path fill="none" stroke="#63b8ff" d="M275.67,-187.8C316.9,-177.61 383.99,-161.01 429.28,-149.81"/>
<polygon fill="#63b8ff" stroke="#63b8ff" points="429.96,-153.24 438.82,-147.44 428.28,-146.45 429.96,-153.24"/>
</a>
</g>
</g>
<!-- Node10 -->
<g id="Node000010" class="node">
<title>Node10</title>
<g id="a_Node000010"><a xlink:href="../../d9/db1/concepts_8h_source.html" target="_top" xlink:title=" ">
<polygon fill="white" stroke="#666666" points="401.88,-146.62 274.12,-146.62 274.12,-127.38 401.88,-127.38 401.88,-146.62"/>
<text text-anchor="middle" x="338" y="-132.18" font-family="Arial" font-size="11.00">floppy/detail/concepts.h</text>
</a>
</g>
</g>
<!-- Node2&#45;&gt;Node10 -->
<g id="edge9_Node000002_Node000010" class="edge">
<title>Node2&#45;&gt;Node10</title>
<g id="a_edge9_Node000002_Node000010"><a xlink:title=" ">
<path fill="none" stroke="#63b8ff" d="M254.04,-187.93C269.66,-178.64 294.39,-163.94 312.97,-152.89"/>
<polygon fill="#63b8ff" stroke="#63b8ff" points="314.72,-155.92 321.52,-147.8 311.14,-149.9 314.72,-155.92"/>
</a>
</g>
</g>
<!-- Node8 -->
<g id="Node000008" class="node">
<title>Node8</title>
<g id="a_Node000008"><a xlink:title=" ">
<polygon fill="#e0e0e0" stroke="#999999" points="511.12,-80.12 468.88,-80.12 468.88,-60.88 511.12,-60.88 511.12,-80.12"/>
<text text-anchor="middle" x="490" y="-65.67" font-family="Arial" font-size="11.00">string</text>
</a>
</g>
</g>
<!-- Node7&#45;&gt;Node8 -->
<g id="edge7_Node000007_Node000008" class="edge">
<title>Node7&#45;&gt;Node8</title>
<g id="a_edge7_Node000007_Node000008"><a xlink:title=" ">
<path fill="none" stroke="#63b8ff" d="M478.81,-127.03C480.65,-117.89 483.57,-103.39 485.97,-91.5"/>
<polygon fill="#63b8ff" stroke="#63b8ff" points="489.36,-92.37 487.91,-81.88 482.5,-90.99 489.36,-92.37"/>
</a>
</g>
</g>
<!-- Node9 -->
<g id="Node000009" class="node">
<title>Node9</title>
<g id="a_Node000009"><a xlink:title=" ">
<polygon fill="#e0e0e0" stroke="#999999" points="646,-80.12 576,-80.12 576,-60.88 646,-60.88 646,-80.12"/>
<text text-anchor="middle" x="611" y="-65.67" font-family="Arial" font-size="11.00">string_view</text>
</a>
</g>
</g>
<!-- Node7&#45;&gt;Node9 -->
<g id="edge8_Node000007_Node000009" class="edge">
<title>Node7&#45;&gt;Node9</title>
<g id="a_edge8_Node000007_Node000009"><a xlink:title=" ">
<path fill="none" stroke="#63b8ff" d="M495.91,-126.9C518.36,-116.09 556.03,-97.96 582.12,-85.4"/>
<polygon fill="#63b8ff" stroke="#63b8ff" points="583.33,-88.71 590.82,-81.21 580.29,-82.4 583.33,-88.71"/>
</a>
</g>
</g>
<!-- Node11 -->
<g id="Node000011" class="node">
<title>Node11</title>
<g id="a_Node000011"><a xlink:href="../../df/d63/type__traits_8h_source.html" target="_top" xlink:title=" ">
<polygon fill="white" stroke="#666666" points="323.12,-85.75 226.88,-85.75 226.88,-55.25 323.12,-55.25 323.12,-85.75"/>
<text text-anchor="start" x="234.88" y="-71.3" font-family="Arial" font-size="11.00">floppy/detail/type</text>
<text text-anchor="middle" x="275" y="-60.05" font-family="Arial" font-size="11.00">_traits.h</text>
</a>
</g>
</g>
<!-- Node10&#45;&gt;Node11 -->
<g id="edge10_Node000010_Node000011" class="edge">
<title>Node10&#45;&gt;Node11</title>
<g id="a_edge10_Node000010_Node000011"><a xlink:title=" ">
<path fill="none" stroke="#63b8ff" d="M329.24,-127.03C320.94,-118.54 308.14,-105.42 297.05,-94.07"/>
<polygon fill="#63b8ff" stroke="#63b8ff" points="299.56,-91.64 290.07,-86.93 294.55,-96.53 299.56,-91.64"/>
</a>
</g>
</g>
<!-- Node13 -->
<g id="Node000013" class="node">
<title>Node13</title>
<g id="a_Node000013"><a xlink:href="../../d9/d49/types_8h_source.html" target="_top" xlink:title=" ">
<polygon fill="white" stroke="#666666" points="451.25,-80.12 340.75,-80.12 340.75,-60.88 451.25,-60.88 451.25,-80.12"/>
<text text-anchor="middle" x="396" y="-65.67" font-family="Arial" font-size="11.00">floppy/detail/types.h</text>
</a>
</g>
</g>
<!-- Node10&#45;&gt;Node13 -->
<g id="edge12_Node000010_Node000013" class="edge">
<title>Node10&#45;&gt;Node13</title>
<g id="a_edge12_Node000010_Node000013"><a xlink:title=" ">
<path fill="none" stroke="#63b8ff" d="M346.06,-127.03C354.89,-117.21 369.27,-101.23 380.33,-88.92"/>
<polygon fill="#63b8ff" stroke="#63b8ff" points="382.91,-91.29 386.99,-81.52 377.7,-86.61 382.91,-91.29"/>
</a>
</g>
</g>
<!-- Node12 -->
<g id="Node000012" class="node">
<title>Node12</title>
<g id="a_Node000012"><a xlink:title=" ">
<polygon fill="#e0e0e0" stroke="#999999" points="307.75,-19.25 242.25,-19.25 242.25,0 307.75,0 307.75,-19.25"/>
<text text-anchor="middle" x="275" y="-4.8" font-family="Arial" font-size="11.00">type_traits</text>
</a>
</g>
</g>
<!-- Node11&#45;&gt;Node12 -->
<g id="edge11_Node000011_Node000012" class="edge">
<title>Node11&#45;&gt;Node12</title>
<g id="a_edge11_Node000011_Node000012"><a xlink:title=" ">
<path fill="none" stroke="#63b8ff" d="M275,-54.95C275,-47.71 275,-38.84 275,-30.94"/>
<polygon fill="#63b8ff" stroke="#63b8ff" points="278.5,-31.21 275,-21.21 271.5,-31.21 278.5,-31.21"/>
</a>
</g>
</g>
<!-- Node13&#45;&gt;Node12 -->
<g id="edge16_Node000013_Node000012" class="edge">
<title>Node13&#45;&gt;Node12</title>
<g id="a_edge16_Node000013_Node000012"><a xlink:title=" ">
<path fill="none" stroke="#63b8ff" d="M377.36,-60.43C357.67,-50.85 326.39,-35.63 303.58,-24.53"/>
<polygon fill="#63b8ff" stroke="#63b8ff" points="305.35,-21.5 294.82,-20.27 302.29,-27.79 305.35,-21.5"/>
</a>
</g>
</g>
<!-- Node14 -->
<g id="Node000014" class="node">
<title>Node14</title>
<g id="a_Node000014"><a xlink:title=" ">
<polygon fill="#e0e0e0" stroke="#999999" points="512.25,-19.25 461.75,-19.25 461.75,0 512.25,0 512.25,-19.25"/>
<text text-anchor="middle" x="487" y="-4.8" font-family="Arial" font-size="11.00">cstddef</text>
</a>
</g>
</g>
<!-- Node13&#45;&gt;Node14 -->
<g id="edge13_Node000013_Node000014" class="edge">
<title>Node13&#45;&gt;Node14</title>
<g id="a_edge13_Node000013_Node000014"><a xlink:title=" ">
<path fill="none" stroke="#63b8ff" d="M409.82,-60.56C424.12,-51.31 446.7,-36.7 463.75,-25.67"/>
<polygon fill="#63b8ff" stroke="#63b8ff" points="465.28,-28.84 471.78,-20.47 461.48,-22.97 465.28,-28.84"/>
</a>
</g>
</g>
<!-- Node15 -->
<g id="Node000015" class="node">
<title>Node15</title>
<g id="a_Node000015"><a xlink:title=" ">
<polygon fill="#e0e0e0" stroke="#999999" points="372.38,-19.25 325.62,-19.25 325.62,0 372.38,0 372.38,-19.25"/>
<text text-anchor="middle" x="349" y="-4.8" font-family="Arial" font-size="11.00">cstdint</text>
</a>
</g>
</g>
<!-- Node13&#45;&gt;Node15 -->
<g id="edge14_Node000013_Node000015" class="edge">
<title>Node13&#45;&gt;Node15</title>
<g id="a_edge14_Node000013_Node000015"><a xlink:title=" ">
<path fill="none" stroke="#63b8ff" d="M388.86,-60.56C382.1,-52.09 371.75,-39.12 363.29,-28.52"/>
<polygon fill="#63b8ff" stroke="#63b8ff" points="366.12,-26.47 357.15,-20.83 360.65,-30.83 366.12,-26.47"/>
</a>
</g>
</g>
<!-- Node16 -->
<g id="Node000016" class="node">
<title>Node16</title>
<g id="a_Node000016"><a xlink:title=" ">
<polygon fill="#e0e0e0" stroke="#999999" points="443.75,-19.25 390.25,-19.25 390.25,0 443.75,0 443.75,-19.25"/>
<text text-anchor="middle" x="417" y="-4.8" font-family="Arial" font-size="11.00">optional</text>
</a>
</g>
</g>
<!-- Node13&#45;&gt;Node16 -->
<g id="edge15_Node000013_Node000016" class="edge">
<title>Node13&#45;&gt;Node16</title>
<g id="a_edge15_Node000013_Node000016"><a xlink:title=" ">
<path fill="none" stroke="#63b8ff" d="M399.19,-60.56C402.03,-52.6 406.28,-40.69 409.91,-30.49"/>
<polygon fill="#63b8ff" stroke="#63b8ff" points="413.21,-31.67 413.27,-21.08 406.62,-29.32 413.21,-31.67"/>
</a>
</g>
</g>
<!-- Node17 -->
<g id="Node000017" class="node">
<title>Node17</title>
<g id="a_Node000017"><a xlink:title=" ">
<polygon fill="#e0e0e0" stroke="#999999" points="685.88,-19.25 612.12,-19.25 612.12,0 685.88,0 685.88,-19.25"/>
<text text-anchor="middle" x="649" y="-4.8" font-family="Arial" font-size="11.00">fmt/format.h</text>
</a>
</g>
</g>
<!-- Node13&#45;&gt;Node17 -->
<g id="edge17_Node000013_Node000017" class="edge">
<title>Node13&#45;&gt;Node17</title>
<g id="a_edge17_Node000013_Node000017"><a xlink:title=" ">
<path fill="none" stroke="#63b8ff" d="M434.98,-60.43C479.5,-50.07 552.41,-33.1 600.56,-21.9"/>
<polygon fill="#63b8ff" stroke="#63b8ff" points="601.21,-25.34 610.16,-19.66 599.62,-18.52 601.21,-25.34"/>
</a>
</g>
</g>
<!-- Node18&#45;&gt;Node7 -->
<g id="edge22_Node000018_Node000007" class="edge">
<title>Node18&#45;&gt;Node7</title>
<g id="a_edge22_Node000018_Node000007"><a xlink:title=" ">
<path fill="none" stroke="#63b8ff" d="M611.5,-187.8C584.89,-177.95 542.16,-162.13 512.01,-150.96"/>
<polygon fill="#63b8ff" stroke="#63b8ff" points="513.54,-147.8 502.94,-147.61 511.1,-154.36 513.54,-147.8"/>
</a>
</g>
</g>
<!-- Node19 -->
<g id="Node000019" class="node">
<title>Node19</title>
<g id="a_Node000019"><a xlink:title=" ">
<polygon fill="#e0e0e0" stroke="#999999" points="981.5,-146.62 926.5,-146.62 926.5,-127.38 981.5,-127.38 981.5,-146.62"/>
<text text-anchor="middle" x="954" y="-132.18" font-family="Arial" font-size="11.00">memory</text>
</a>
</g>
</g>
<!-- Node18&#45;&gt;Node19 -->
<g id="edge19_Node000018_Node000019" class="edge">
<title>Node18&#45;&gt;Node19</title>
<g id="a_edge19_Node000018_Node000019"><a xlink:title=" ">
<path fill="none" stroke="#63b8ff" d="M676.28,-193.31C731.54,-187.79 833.61,-175.33 918,-152.25 919.58,-151.82 921.19,-151.34 922.8,-150.83"/>
<polygon fill="#63b8ff" stroke="#63b8ff" points="923.65,-154.24 931.9,-147.59 921.3,-147.64 923.65,-154.24"/>
</a>
</g>
</g>
<!-- Node20 -->
<g id="Node000020" class="node">
<title>Node20</title>
<g id="a_Node000020"><a xlink:title=" ">
<polygon fill="#e0e0e0" stroke="#999999" points="609.62,-146.62 552.38,-146.62 552.38,-127.38 609.62,-127.38 609.62,-146.62"/>
<text text-anchor="middle" x="581" y="-132.18" font-family="Arial" font-size="11.00">iostream</text>
</a>
</g>
</g>
<!-- Node18&#45;&gt;Node20 -->
<g id="edge20_Node000018_Node000020" class="edge">
<title>Node18&#45;&gt;Node20</title>
<g id="a_edge20_Node000018_Node000020"><a xlink:title=" ">
<path fill="none" stroke="#63b8ff" d="M627.65,-187.93C619.57,-179.29 607.12,-165.96 597.11,-155.25"/>
<polygon fill="#63b8ff" stroke="#63b8ff" points="599.85,-153.05 590.47,-148.13 594.73,-157.83 599.85,-153.05"/>
</a>
</g>
</g>
<!-- Node21 -->
<g id="Node000021" class="node">
<title>Node21</title>
<g id="a_Node000021"><a xlink:title=" ">
<polygon fill="#e0e0e0" stroke="#999999" points="756.62,-152.25 627.38,-152.25 627.38,-121.75 756.62,-121.75 756.62,-152.25"/>
<text text-anchor="start" x="635.38" y="-137.8" font-family="Arial" font-size="11.00">experimental/propagate</text>
<text text-anchor="middle" x="692" y="-126.55" font-family="Arial" font-size="11.00">_const</text>
</a>
</g>
</g>
<!-- Node18&#45;&gt;Node21 -->
<g id="edge21_Node000018_Node000021" class="edge">
<title>Node18&#45;&gt;Node21</title>
<g id="a_edge21_Node000018_Node000021"><a xlink:title=" ">
<path fill="none" stroke="#63b8ff" d="M644.51,-187.93C651.35,-180.74 661.27,-170.31 670.28,-160.84"/>
<polygon fill="#63b8ff" stroke="#63b8ff" points="672.78,-163.29 677.13,-153.63 667.71,-158.46 672.78,-163.29"/>
</a>
</g>
</g>
<!-- Node22 -->
<g id="Node000022" class="node">
<title>Node22</title>
<g id="a_Node000022"><a xlink:href="../../d6/d45/formatters_8h_source.html" target="_top" xlink:title=" ">
<polygon fill="white" stroke="#666666" points="908.88,-146.62 775.12,-146.62 775.12,-127.38 908.88,-127.38 908.88,-146.62"/>
<text text-anchor="middle" x="842" y="-132.18" font-family="Arial" font-size="11.00">floppy/detail/formatters.h</text>
</a>
</g>
</g>
<!-- Node18&#45;&gt;Node22 -->
<g id="edge23_Node000018_Node000022" class="edge">
<title>Node18&#45;&gt;Node22</title>
<g id="a_edge23_Node000018_Node000022"><a xlink:title=" ">
<path fill="none" stroke="#63b8ff" d="M667.74,-187.8C702.97,-177.74 760.02,-161.43 799.19,-150.24"/>
<polygon fill="#63b8ff" stroke="#63b8ff" points="800.12,-153.61 808.77,-147.5 798.2,-146.88 800.12,-153.61"/>
</a>
</g>
</g>
<!-- Node22&#45;&gt;Node9 -->
<g id="edge24_Node000022_Node000009" class="edge">
<title>Node22&#45;&gt;Node9</title>
<g id="a_edge24_Node000022_Node000009"><a xlink:title=" ">
<path fill="none" stroke="#63b8ff" d="M809.39,-126.9C768.81,-115.56 699.36,-96.17 654.33,-83.6"/>
<polygon fill="#63b8ff" stroke="#63b8ff" points="655.47,-80.28 644.9,-80.97 653.59,-87.03 655.47,-80.28"/>
</a>
</g>
</g>
<!-- Node22&#45;&gt;Node17 -->
<g id="edge27_Node000022_Node000017" class="edge">
<title>Node22&#45;&gt;Node17</title>
<g id="a_edge27_Node000022_Node000017"><a xlink:title=" ">
<path fill="none" stroke="#63b8ff" d="M828.12,-126.98C795.44,-105.75 713.35,-52.43 672.64,-25.98"/>
<polygon fill="#63b8ff" stroke="#63b8ff" points="674.58,-23.07 664.28,-20.55 670.76,-28.94 674.58,-23.07"/>
</a>
</g>
</g>
<!-- Node23 -->
<g id="Node000023" class="node">
<title>Node23</title>
<g id="a_Node000023"><a xlink:title=" ">
<polygon fill="#e0e0e0" stroke="#999999" points="834.12,-80.12 779.88,-80.12 779.88,-60.88 834.12,-60.88 834.12,-80.12"/>
<text text-anchor="middle" x="807" y="-65.67" font-family="Arial" font-size="11.00">sstream</text>
</a>
</g>
</g>
<!-- Node22&#45;&gt;Node23 -->
<g id="edge25_Node000022_Node000023" class="edge">
<title>Node22&#45;&gt;Node23</title>
<g id="a_edge25_Node000022_Node000023"><a xlink:title=" ">
<path fill="none" stroke="#63b8ff" d="M837.13,-127.03C832.01,-117.6 823.81,-102.47 817.25,-90.38"/>
<polygon fill="#63b8ff" stroke="#63b8ff" points="820.39,-88.84 812.55,-81.72 814.24,-92.18 820.39,-88.84"/>
</a>
</g>
</g>
<!-- Node24 -->
<g id="Node000024" class="node">
<title>Node24</title>
<g id="a_Node000024"><a xlink:title=" ">
<polygon fill="#e0e0e0" stroke="#999999" points="899.38,-80.12 852.62,-80.12 852.62,-60.88 899.38,-60.88 899.38,-80.12"/>
<text text-anchor="middle" x="876" y="-65.67" font-family="Arial" font-size="11.00">iosfwd</text>
</a>
</g>
</g>
<!-- Node22&#45;&gt;Node24 -->
<g id="edge26_Node000022_Node000024" class="edge">
<title>Node22&#45;&gt;Node24</title>
<g id="a_edge26_Node000022_Node000024"><a xlink:title=" ">
<path fill="none" stroke="#63b8ff" d="M846.73,-127.03C851.7,-117.6 859.67,-102.47 866.05,-90.38"/>
<polygon fill="#63b8ff" stroke="#63b8ff" points="869.04,-92.21 870.61,-81.73 862.85,-88.95 869.04,-92.21"/>
</a>
</g>
</g>
<!-- Node25&#45;&gt;Node2 -->
<g id="edge29_Node000025_Node000002" class="edge">
<title>Node25&#45;&gt;Node2</title>
<g id="a_edge29_Node000025_Node000002"><a xlink:title=" ">
<path fill="none" stroke="#63b8ff" d="M305.25,-243.2C292.11,-234.4 275.37,-223.21 262.01,-214.27"/>
<polygon fill="#63b8ff" stroke="#63b8ff" points="264.08,-211.44 253.82,-208.79 260.19,-217.26 264.08,-211.44"/>
</a>
</g>
</g>
<!-- Node25&#45;&gt;Node10 -->
<g id="edge30_Node000025_Node000010" class="edge">
<title>Node25&#45;&gt;Node10</title>
<g id="a_edge30_Node000025_Node000010"><a xlink:title=" ">
<path fill="none" stroke="#63b8ff" d="M328.35,-243.07C330.3,-221.78 333.93,-182.29 336.14,-158.26"/>
<polygon fill="#63b8ff" stroke="#63b8ff" points="339.61,-158.77 337.04,-148.5 332.64,-158.13 339.61,-158.77"/>
</a>
</g>
</g>
</g>
</svg>

<g id="navigator" transform="translate(0 0)" fill="#404254">
  <rect fill="#f2f5e9" fill-opacity="0.5" stroke="#606060" stroke-width=".5" x="0" y="0" width="60" height="60"/>
  <use id="zoomplus" xlink:href="#zoomPlus" x="17" y="9" onmousedown="handleZoom(evt,'in')"/>
  <use id="zoomminus" xlink:href="#zoomMin" x="42" y="9" onmousedown="handleZoom(evt,'out')"/>
  <use id="reset" xlink:href="#resetDef" x="30" y="36" onmousedown="handleReset()"/>
   <use id="arrowup" xlink:href="#arrowUp" x="0" y="0" onmousedown="handlePan(0,-1)"/>
  <use id="arrowright" xlink:href="#arrowRight" x="0" y="0" onmousedown="handlePan(1,0)"/>
  <use id="arrowdown" xlink:href="#arrowDown" x="0" y="0" onmousedown="handlePan(0,1)"/>
  <use id="arrowleft" xlink:href="#arrowLeft" x="0" y="0" onmousedown="handlePan(-1,0)"/>
</g>
<svg viewBox="0 0 15 15" width="100%" height="30px" preserveAspectRatio="xMaxYMin meet">
 <g id="arrow_out" transform="scale(0.3 0.3)">
  <a xlink:href="angle_8h__incl_org.svg" target="_base">
   <rect id="button" ry="5" rx="5" y="6" x="6" height="38" width="38"
        fill="#f2f5e9" fill-opacity="0.5" stroke="#606060" stroke-width="1.0"/>
   <path id="arrow"
     d="M 11.500037,31.436501 C 11.940474,20.09759 22.043105,11.32322 32.158766,21.979434 L 37.068811,17.246167 C 37.068811,17.246167 37.088388,32 37.088388,32 L 22.160133,31.978069 C 22.160133,31.978069 26.997745,27.140456 26.997745,27.140456 C 18.528582,18.264221 13.291696,25.230495 11.500037,31.436501 z"
     style="fill:#404040;"/>
  </a>
 </g>
</svg>

<style type='text/css'>
<![CDATA[
[data-mouse-over-selected='false'] { opacity: 0.7; }
[data-mouse-over-selected='true']  { opacity: 1.0; }
]]>
</style>
<script type="application/ecmascript"><![CDATA[
document.addEventListener('DOMContentLoaded', (event) => {
  highlightEdges();
  highlightAdjacentNodes();
});
]]></script>
</svg>
