<?xml version="1.0" encoding="UTF-8" standalone="no"?>
<!DOCTYPE svg PUBLIC "-//W3C//DTD SVG 1.1//EN"
 "http://www.w3.org/Graphics/SVG/1.1/DTD/svg11.dtd">
<!-- Generated by graphviz version 10.0.1 (0)
 -->
<!-- Title: formattable&lt; T, C &gt; Pages: 1 -->
<svg width="402pt" height="138pt"
 viewBox="0.00 0.00 401.62 137.75" xmlns="http://www.w3.org/2000/svg" xmlns:xlink="http://www.w3.org/1999/xlink">
<g id="graph0" class="graph" transform="scale(1 1) rotate(0) translate(4 133.75)">
<title>formattable&lt; T, C &gt;</title>
<!-- Node1 -->
<g id="Node000001" class="node">
<title>Node1</title>
<g id="a_Node000001"><a xlink:title="Allows type to be converted to string and printed via standard streams or fmt.">
<polygon fill="#999999" stroke="#666666" points="237.12,-74.5 127.38,-74.5 127.38,-55.25 237.12,-55.25 237.12,-74.5"/>
<text text-anchor="middle" x="182.25" y="-60.05" font-family="Arial" font-size="11.00">formattable&lt; T, C &gt;</text>
</a>
</g>
</g>
<!-- Node3 -->
<g id="Node000003" class="node">
<title>Node3</title>
<g id="a_Node000003"><a xlink:href="../../de/d4d/structfloppy_1_1math_1_1angle.html" target="_top" xlink:title="Newtype describing an angle.">
<polygon fill="white" stroke="#666666" points="68.5,-19.25 0,-19.25 0,0 68.5,0 68.5,-19.25"/>
<text text-anchor="middle" x="34.25" y="-4.8" font-family="Arial" font-size="11.00">angle&lt; T &gt;</text>
</a>
</g>
</g>
<!-- Node1&#45;&gt;Node3 -->
<g id="edge2_Node000001_Node000003" class="edge">
<title>Node1&#45;&gt;Node3</title>
<g id="a_edge2_Node000001_Node000003"><a xlink:title=" ">
<path fill="none" stroke="#63b8ff" d="M146.61,-51.05C119.7,-41.37 83.44,-28.32 59.48,-19.7"/>
<polygon fill="#63b8ff" stroke="#63b8ff" points="145.13,-54.24 155.72,-54.33 147.5,-47.65 145.13,-54.24"/>
</a>
</g>
</g>
<!-- Node4 -->
<g id="Node000004" class="node">
<title>Node4</title>
<g id="a_Node000004"><a xlink:href="../../dd/dd1/classfloppy_1_1math_1_1length.html" target="_top" xlink:title="A one&#45;dimensional distance with associated unit of measurement.">
<polygon fill="white" stroke="#666666" points="171.75,-19.25 86.75,-19.25 86.75,0 171.75,0 171.75,-19.25"/>
<text text-anchor="middle" x="129.25" y="-4.8" font-family="Arial" font-size="11.00">length&lt; U, T &gt;</text>
</a>
</g>
</g>
<!-- Node1&#45;&gt;Node4 -->
<g id="edge3_Node000001_Node000004" class="edge">
<title>Node1&#45;&gt;Node4</title>
<g id="a_edge3_Node000001_Node000004"><a xlink:title=" ">
<path fill="none" stroke="#63b8ff" d="M165.53,-47.07C156.47,-37.98 145.65,-27.1 138.19,-19.61"/>
<polygon fill="#63b8ff" stroke="#63b8ff" points="162.9,-49.39 172.43,-54.01 167.86,-44.45 162.9,-49.39"/>
</a>
</g>
</g>
<!-- Node5 -->
<g id="Node000005" class="node">
<title>Node5</title>
<g id="a_Node000005"><a xlink:href="../../db/d35/classfloppy_1_1math_1_1point2d.html" target="_top" xlink:title="A two&#45;dimensional point tagged with a unit.">
<polygon fill="white" stroke="#666666" points="280.75,-19.25 189.75,-19.25 189.75,0 280.75,0 280.75,-19.25"/>
<text text-anchor="middle" x="235.25" y="-4.8" font-family="Arial" font-size="11.00">point2d&lt; U, T &gt;</text>
</a>
</g>
</g>
<!-- Node1&#45;&gt;Node5 -->
<g id="edge4_Node000001_Node000005" class="edge">
<title>Node1&#45;&gt;Node5</title>
<g id="a_edge4_Node000001_Node000005"><a xlink:title=" ">
<path fill="none" stroke="#63b8ff" d="M198.97,-47.07C208.03,-37.98 218.85,-27.1 226.31,-19.61"/>
<polygon fill="#63b8ff" stroke="#63b8ff" points="196.64,-44.45 192.07,-54.01 201.6,-49.39 196.64,-44.45"/>
</a>
</g>
</g>
<!-- Node6 -->
<g id="Node000006" class="node">
<title>Node6</title>
<g id="a_Node000006"><a xlink:href="../../db/db2/structfloppy_1_1math_1_1scale.html" target="_top" xlink:title="A scaling factor between two different units of measurement.">
<polygon fill="white" stroke="#666666" points="393.62,-19.25 298.88,-19.25 298.88,0 393.62,0 393.62,-19.25"/>
<text text-anchor="middle" x="346.25" y="-4.8" font-family="Arial" font-size="11.00">scale&lt; S, D, T &gt;</text>
</a>
</g>
</g>
<!-- Node1&#45;&gt;Node6 -->
<g id="edge5_Node000001_Node000006" class="edge">
<title>Node1&#45;&gt;Node6</title>
<g id="a_edge5_Node000001_Node000006"><a xlink:title=" ">
<path fill="none" stroke="#63b8ff" d="M220.95,-51.31C250.84,-41.6 291.5,-28.4 318.29,-19.7"/>
<polygon fill="#63b8ff" stroke="#63b8ff" points="219.94,-47.96 211.51,-54.37 222.1,-54.62 219.94,-47.96"/>
</a>
</g>
</g>
<!-- Node2 -->
<g id="Node000002" class="node">
<title>Node2</title>
<g id="a_Node000002"><a xlink:href="../../d5/d4f/structfloppy_1_1traits_1_1detail_1_1formattable__base.html" target="_top" xlink:title="Interface, providing to_string method.">
<polygon fill="white" stroke="#666666" points="245.75,-129.75 118.75,-129.75 118.75,-110.5 245.75,-110.5 245.75,-129.75"/>
<text text-anchor="middle" x="182.25" y="-115.3" font-family="Arial" font-size="11.00">formattable_base&lt; C &gt;</text>
</a>
</g>
</g>
<!-- Node2&#45;&gt;Node1 -->
<g id="edge1_Node000001_Node000002" class="edge">
<title>Node2&#45;&gt;Node1</title>
<g id="a_edge1_Node000001_Node000002"><a xlink:title=" ">
<path fill="none" stroke="#63b8ff" d="M182.25,-98.88C182.25,-90.59 182.25,-81.42 182.25,-74.86"/>
<polygon fill="#63b8ff" stroke="#63b8ff" points="178.75,-98.82 182.25,-108.82 185.75,-98.82 178.75,-98.82"/>
</a>
</g>
</g>
</g>
</svg>
