<?xml version="1.0" encoding="UTF-8" standalone="no"?>
<!DOCTYPE svg PUBLIC "-//W3C//DTD SVG 1.1//EN"
 "http://www.w3.org/Graphics/SVG/1.1/DTD/svg11.dtd">
<!-- Generated by graphviz version 10.0.1 (0)
 -->
<!-- Title: formattable&lt; T, C &gt; Pages: 1 -->
<svg width="479pt" height="282pt"
 viewBox="0.00 0.00 479.00 281.50" xmlns="http://www.w3.org/2000/svg" xmlns:xlink="http://www.w3.org/1999/xlink">

<svg id="main" version="1.1" xmlns="http://www.w3.org/2000/svg" xmlns:xlink="http://www.w3.org/1999/xlink" xml:space="preserve" onload="init(evt)">
<style type="text/css"><![CDATA[
.node, .edge {opacity: 0.7;}
.node.selected, .edge.selected {opacity: 1;}
.edge:hover path { stroke: red; }
.edge:hover polygon { stroke: red; fill: red; }
]]></style>
<script type="application/ecmascript" xlink:href="../../svg.min.js"/>
<svg id="graph" class="graph">
<g id="graph0" class="graph" transform="scale(1 1) rotate(0) translate(4 277.5)">
<title>formattable&lt; T, C &gt;</title>
<!-- Node1 -->
<g id="Node000001" class="node">
<title>Node1</title>
<g id="a_Node000001"><a xlink:title="Allows type to be converted to string and printed via standard streams or fmt.">
<polygon fill="#999999" stroke="#666666" points="272.75,-117.25 163,-117.25 163,-98 272.75,-98 272.75,-117.25"/>
<text text-anchor="middle" x="217.88" y="-102.8" font-family="Arial" font-size="11.00">formattable&lt; T, C &gt;</text>
</a>
</g>
</g>
<!-- Node3 -->
<g id="Node000003" class="node">
<title>Node3</title>
<g id="a_Node000003"><a xlink:href="../../d7/dd8/structfloppy_1_1math_1_1detail_1_1basic__two__dimensional__type.html" target="_top" xlink:title=" ">
<polygon fill="white" stroke="#bfbfbf" points="471,-273.5 308.75,-273.5 308.75,-231.75 471,-231.75 471,-273.5"/>
<text text-anchor="start" x="316.75" y="-259.05" font-family="Arial" font-size="11.00">basic_two_dimensional</text>
<text text-anchor="start" x="316.75" y="-247.8" font-family="Arial" font-size="11.00">_type&lt; point2d&lt; default</text>
<text text-anchor="middle" x="389.88" y="-236.55" font-family="Arial" font-size="11.00">_unit, f32 &gt;, default_unit, f32 &gt;</text>
</a>
</g>
</g>
<!-- Node1&#45;&gt;Node3 -->
<g id="edge2_Node000001_Node000003" class="edge">
<title>Node1&#45;&gt;Node3</title>
<g id="a_edge2_Node000001_Node000003"><a xlink:title=" ">
<path fill="none" stroke="#63b8ff" d="M229.63,-127.34C244.38,-152.68 273.15,-196.52 308.75,-222.62 313.18,-225.88 318.01,-228.81 323.02,-231.46"/>
<polygon fill="#63b8ff" stroke="#63b8ff" points="232.74,-125.73 224.77,-118.74 226.65,-129.17 232.74,-125.73"/>
</a>
</g>
</g>
<!-- Node4 -->
<g id="Node000004" class="node">
<title>Node4</title>
<g id="a_Node000004"><a xlink:href="../../d7/dd8/structfloppy_1_1math_1_1detail_1_1basic__two__dimensional__type.html" target="_top" xlink:title=" ">
<polygon fill="white" stroke="#bfbfbf" points="471,-213.5 308.75,-213.5 308.75,-171.75 471,-171.75 471,-213.5"/>
<text text-anchor="start" x="316.75" y="-199.05" font-family="Arial" font-size="11.00">basic_two_dimensional</text>
<text text-anchor="start" x="316.75" y="-187.8" font-family="Arial" font-size="11.00">_type&lt; size2d&lt; default</text>
<text text-anchor="middle" x="389.88" y="-176.55" font-family="Arial" font-size="11.00">_unit, f32 &gt;, default_unit, f32 &gt;</text>
</a>
</g>
</g>
<!-- Node1&#45;&gt;Node4 -->
<g id="edge3_Node000001_Node000004" class="edge">
<title>Node1&#45;&gt;Node4</title>
<g id="a_edge3_Node000001_Node000004"><a xlink:title=" ">
<path fill="none" stroke="#63b8ff" d="M242.85,-124.04C260.56,-135.72 285.52,-151.3 308.75,-162.62 315.02,-165.68 321.7,-168.63 328.41,-171.41"/>
<polygon fill="#63b8ff" stroke="#63b8ff" points="244.85,-121.16 234.59,-118.51 240.96,-126.98 244.85,-121.16"/>
</a>
</g>
</g>
<!-- Node5 -->
<g id="Node000005" class="node">
<title>Node5</title>
<g id="a_Node000005"><a xlink:href="../../d7/dd8/structfloppy_1_1math_1_1detail_1_1basic__two__dimensional__type.html" target="_top" xlink:title=" ">
<polygon fill="white" stroke="#bfbfbf" points="471,-153.5 308.75,-153.5 308.75,-111.75 471,-111.75 471,-153.5"/>
<text text-anchor="start" x="316.75" y="-139.05" font-family="Arial" font-size="11.00">basic_two_dimensional</text>
<text text-anchor="start" x="316.75" y="-127.8" font-family="Arial" font-size="11.00">_type&lt; vector2d&lt; default</text>
<text text-anchor="middle" x="389.88" y="-116.55" font-family="Arial" font-size="11.00">_unit, f32 &gt;, default_unit, f32 &gt;</text>
</a>
</g>
</g>
<!-- Node1&#45;&gt;Node5 -->
<g id="edge4_Node000001_Node000005" class="edge">
<title>Node1&#45;&gt;Node5</title>
<g id="a_edge4_Node000001_Node000005"><a xlink:title=" ">
<path fill="none" stroke="#63b8ff" d="M284.46,-117.27C292.33,-118.43 300.44,-119.62 308.49,-120.8"/>
<polygon fill="#63b8ff" stroke="#63b8ff" points="285.03,-113.82 274.63,-115.82 284.01,-120.74 285.03,-113.82"/>
</a>
</g>
</g>
<!-- Node6 -->
<g id="Node000006" class="node">
<title>Node6</title>
<g id="a_Node000006"><a xlink:href="../../de/d4d/structfloppy_1_1math_1_1angle.html" target="_top" xlink:title="Newtype describing an angle.">
<polygon fill="white" stroke="#666666" points="424.12,-93.25 355.62,-93.25 355.62,-74 424.12,-74 424.12,-93.25"/>
<text text-anchor="middle" x="389.88" y="-78.8" font-family="Arial" font-size="11.00">angle&lt; T &gt;</text>
</a>
</g>
</g>
<!-- Node1&#45;&gt;Node6 -->
<g id="edge5_Node000001_Node000006" class="edge">
<title>Node1&#45;&gt;Node6</title>
<g id="a_edge5_Node000001_Node000006"><a xlink:title=" ">
<path fill="none" stroke="#63b8ff" d="M284.45,-98.37C308.68,-94.95 335.15,-91.21 355.37,-88.35"/>
<polygon fill="#63b8ff" stroke="#63b8ff" points="284.04,-94.89 274.63,-99.75 285.02,-101.82 284.04,-94.89"/>
</a>
</g>
</g>
<!-- Node7 -->
<g id="Node000007" class="node">
<title>Node7</title>
<g id="a_Node000007"><a xlink:href="../../dd/dd1/classfloppy_1_1math_1_1length.html" target="_top" xlink:title="A one&#45;dimensional distance with associated unit of measurement.">
<polygon fill="white" stroke="#666666" points="432.38,-56.25 347.38,-56.25 347.38,-37 432.38,-37 432.38,-56.25"/>
<text text-anchor="middle" x="389.88" y="-41.8" font-family="Arial" font-size="11.00">length&lt; U, T &gt;</text>
</a>
</g>
</g>
<!-- Node1&#45;&gt;Node7 -->
<g id="edge6_Node000001_Node000007" class="edge">
<title>Node1&#45;&gt;Node7</title>
<g id="a_edge6_Node000001_Node000007"><a xlink:title=" ">
<path fill="none" stroke="#63b8ff" d="M246.65,-92.33C264.07,-83.24 287.23,-72.08 308.75,-64.62 321.01,-60.38 334.68,-56.87 347.2,-54.12"/>
<polygon fill="#63b8ff" stroke="#63b8ff" points="245.14,-89.17 237.95,-96.95 248.42,-95.35 245.14,-89.17"/>
</a>
</g>
</g>
<!-- Node8 -->
<g id="Node000008" class="node">
<title>Node8</title>
<g id="a_Node000008"><a xlink:href="../../db/db2/structfloppy_1_1math_1_1scale.html" target="_top" xlink:title="A scaling factor between two different units of measurement.">
<polygon fill="white" stroke="#666666" points="437.25,-19.25 342.5,-19.25 342.5,0 437.25,0 437.25,-19.25"/>
<text text-anchor="middle" x="389.88" y="-4.8" font-family="Arial" font-size="11.00">scale&lt; S, D, T &gt;</text>
</a>
</g>
</g>
<!-- Node1&#45;&gt;Node8 -->
<g id="edge7_Node000001_Node000008" class="edge">
<title>Node1&#45;&gt;Node8</title>
<g id="a_edge7_Node000001_Node000008"><a xlink:title=" ">
<path fill="none" stroke="#63b8ff" d="M234.25,-89.33C250.76,-70.9 278.7,-43.05 308.75,-27.62 319.02,-22.35 330.82,-18.61 342.14,-15.97"/>
<polygon fill="#63b8ff" stroke="#63b8ff" points="231.83,-86.78 227.9,-96.62 237.11,-91.38 231.83,-86.78"/>
</a>
</g>
</g>
<!-- Node2 -->
<g id="Node000002" class="node">
<title>Node2</title>
<g id="a_Node000002"><a xlink:href="../../d5/d4f/structfloppy_1_1traits_1_1detail_1_1formattable__base.html" target="_top" xlink:title="Interface, providing to_string method.">
<polygon fill="white" stroke="#666666" points="127,-117.25 0,-117.25 0,-98 127,-98 127,-117.25"/>
<text text-anchor="middle" x="63.5" y="-102.8" font-family="Arial" font-size="11.00">formattable_base&lt; C &gt;</text>
</a>
</g>
</g>
<!-- Node2&#45;&gt;Node1 -->
<g id="edge1_Node000001_Node000002" class="edge">
<title>Node2&#45;&gt;Node1</title>
<g id="a_edge1_Node000001_Node000002"><a xlink:title=" ">
<path fill="none" stroke="#63b8ff" d="M138.8,-107.62C146.93,-107.62 155.09,-107.62 162.91,-107.62"/>
<polygon fill="#63b8ff" stroke="#63b8ff" points="138.87,-104.13 128.87,-107.63 138.87,-111.13 138.87,-104.13"/>
</a>
</g>
</g>
</g>
</svg>
</svg>

<style type='text/css'>
<![CDATA[
[data-mouse-over-selected='false'] { opacity: 0.7; }
[data-mouse-over-selected='true']  { opacity: 1.0; }
]]>
</style>
<script type="application/ecmascript"><![CDATA[
document.addEventListener('DOMContentLoaded', (event) => {
  highlightEdges();
  highlightAdjacentNodes();
});
]]></script>
</svg>
