<?xml version="1.0" encoding="UTF-8" standalone="no"?>
<!DOCTYPE svg PUBLIC "-//W3C//DTD SVG 1.1//EN"
 "http://www.w3.org/Graphics/SVG/1.1/DTD/svg11.dtd">
<!-- Generated by graphviz version 10.0.1 (0)
 -->
<!-- Title: scale&lt; S, D, T &gt; Pages: 1 -->
<svg width="281pt" height="138pt"
 viewBox="0.00 0.00 280.88 137.75" xmlns="http://www.w3.org/2000/svg" xmlns:xlink="http://www.w3.org/1999/xlink">
<g id="graph0" class="graph" transform="scale(1 1) rotate(0) translate(4 133.75)">
<title>scale&lt; S, D, T &gt;</title>
<!-- Node1 -->
<g id="Node000001" class="node">
<title>Node1</title>
<g id="a_Node000001"><a xlink:title="A scaling factor between two different units of measurement.">
<polygon fill="#999999" stroke="#666666" points="180.88,-19.25 86.12,-19.25 86.12,0 180.88,0 180.88,-19.25"/>
<text text-anchor="middle" x="133.5" y="-4.8" font-family="Arial" font-size="11.00">scale&lt; S, D, T &gt;</text>
</a>
</g>
</g>
<!-- Node2 -->
<g id="Node000002" class="node">
<title>Node2</title>
<g id="a_Node000002"><a xlink:href="../../db/d59/structfloppy_1_1traits_1_1formattable.html" target="_top" xlink:title="Allows type to be converted to string and printed via standard streams or fmt.">
<polygon fill="white" stroke="#666666" points="118.38,-74.5 8.63,-74.5 8.63,-55.25 118.38,-55.25 118.38,-74.5"/>
<text text-anchor="middle" x="63.5" y="-60.05" font-family="Arial" font-size="11.00">formattable&lt; T, C &gt;</text>
</a>
</g>
</g>
<!-- Node2&#45;&gt;Node1 -->
<g id="edge1_Node000001_Node000002" class="edge">
<title>Node2&#45;&gt;Node1</title>
<g id="a_edge1_Node000001_Node000002"><a xlink:title=" ">
<path fill="none" stroke="#63b8ff" d="M84.45,-47.94C96.67,-38.64 111.64,-27.26 121.8,-19.52"/>
<polygon fill="#63b8ff" stroke="#63b8ff" points="82.42,-45.09 76.58,-53.93 86.66,-50.66 82.42,-45.09"/>
</a>
</g>
</g>
<!-- Node3 -->
<g id="Node000003" class="node">
<title>Node3</title>
<g id="a_Node000003"><a xlink:href="../../d5/d4f/structfloppy_1_1traits_1_1detail_1_1formattable__base.html" target="_top" xlink:title="Interface, providing to_string method.">
<polygon fill="white" stroke="#666666" points="127,-129.75 0,-129.75 0,-110.5 127,-110.5 127,-129.75"/>
<text text-anchor="middle" x="63.5" y="-115.3" font-family="Arial" font-size="11.00">formattable_base&lt; C &gt;</text>
</a>
</g>
</g>
<!-- Node3&#45;&gt;Node2 -->
<g id="edge2_Node000002_Node000003" class="edge">
<title>Node3&#45;&gt;Node2</title>
<g id="a_edge2_Node000002_Node000003"><a xlink:title=" ">
<path fill="none" stroke="#63b8ff" d="M63.5,-98.88C63.5,-90.59 63.5,-81.42 63.5,-74.86"/>
<polygon fill="#63b8ff" stroke="#63b8ff" points="60,-98.82 63.5,-108.82 67,-98.82 60,-98.82"/>
</a>
</g>
</g>
<!-- Node4 -->
<g id="Node000004" class="node">
<title>Node4</title>
<g id="a_Node000004"><a xlink:href="../../d0/d3b/structfloppy_1_1math_1_1detail_1_1default__comparable.html" target="_top" xlink:title=" ">
<polygon fill="white" stroke="#bfbfbf" points="272.88,-74.5 136.12,-74.5 136.12,-55.25 272.88,-55.25 272.88,-74.5"/>
<text text-anchor="middle" x="204.5" y="-60.05" font-family="Arial" font-size="11.00">default_comparable&lt; T &gt;</text>
</a>
</g>
</g>
<!-- Node4&#45;&gt;Node1 -->
<g id="edge3_Node000001_Node000004" class="edge">
<title>Node4&#45;&gt;Node1</title>
<g id="a_edge3_Node000001_Node000004"><a xlink:title=" ">
<path fill="none" stroke="#63b8ff" d="M183.25,-47.94C170.86,-38.64 155.68,-27.26 145.37,-19.52"/>
<polygon fill="#63b8ff" stroke="#63b8ff" points="181.14,-50.73 191.24,-53.93 185.34,-45.13 181.14,-50.73"/>
</a>
</g>
</g>
</g>
</svg>
