<?xml version="1.0" encoding="UTF-8" standalone="no"?>
<!DOCTYPE svg PUBLIC "-//W3C//DTD SVG 1.1//EN"
 "http://www.w3.org/Graphics/SVG/1.1/DTD/svg11.dtd">
<!-- Generated by graphviz version 10.0.1 (0)
 -->
<!-- Title: graphics.h Pages: 1 -->
<svg width="1033pt" height="326pt"
 viewBox="0.00 0.00 1032.75 326.00" xmlns="http://www.w3.org/2000/svg" xmlns:xlink="http://www.w3.org/1999/xlink">
<g id="graph0" class="graph" transform="scale(1 1) rotate(0) translate(4 322)">
<title>graphics.h</title>
<!-- Node1 -->
<g id="Node000001" class="node">
<title>Node1</title>
<g id="a_Node000001"><a xlink:title="Classes and functions related to graphics and drawing.">
<polygon fill="#999999" stroke="#666666" points="661.88,-318 596.38,-318 596.38,-298.75 661.88,-298.75 661.88,-318"/>
<text text-anchor="middle" x="629.12" y="-303.55" font-family="Arial" font-size="11.00">graphics.h</text>
</a>
</g>
</g>
<!-- Node2 -->
<g id="Node000002" class="node">
<title>Node2</title>
<g id="a_Node000002"><a xlink:href="../../da/dec/color_8h.html" target="_top" xlink:title="Class representing a color.">
<polygon fill="white" stroke="#666666" points="690.38,-262.75 567.88,-262.75 567.88,-243.5 690.38,-243.5 690.38,-262.75"/>
<text text-anchor="middle" x="629.12" y="-248.3" font-family="Arial" font-size="11.00">floppy/graphics/color.h</text>
</a>
</g>
</g>
<!-- Node1&#45;&gt;Node2 -->
<g id="edge1_Node000001_Node000002" class="edge">
<title>Node1&#45;&gt;Node2</title>
<g id="a_edge1_Node000001_Node000002"><a xlink:title=" ">
<path fill="none" stroke="#63b8ff" d="M629.12,-298.58C629.12,-292.07 629.12,-282.92 629.12,-274.62"/>
<polygon fill="#63b8ff" stroke="#63b8ff" points="632.63,-274.62 629.13,-264.62 625.63,-274.62 632.63,-274.62"/>
</a>
</g>
</g>
<!-- Node3 -->
<g id="Node000003" class="node">
<title>Node3</title>
<g id="a_Node000003"><a xlink:title=" ">
<polygon fill="#e0e0e0" stroke="#999999" points="315.5,-207.5 274.75,-207.5 274.75,-188.25 315.5,-188.25 315.5,-207.5"/>
<text text-anchor="middle" x="295.12" y="-193.05" font-family="Arial" font-size="11.00">array</text>
</a>
</g>
</g>
<!-- Node2&#45;&gt;Node3 -->
<g id="edge2_Node000002_Node000003" class="edge">
<title>Node2&#45;&gt;Node3</title>
<g id="a_edge2_Node000002_Node000003"><a xlink:title=" ">
<path fill="none" stroke="#63b8ff" d="M567.6,-245.76C508.15,-239.01 415.4,-226.94 326.98,-207.88"/>
<polygon fill="#63b8ff" stroke="#63b8ff" points="327.94,-204.5 317.42,-205.78 326.44,-211.34 327.94,-204.5"/>
</a>
</g>
</g>
<!-- Node4 -->
<g id="Node000004" class="node">
<title>Node4</title>
<g id="a_Node000004"><a xlink:href="../../df/db1/math_8h_source.html" target="_top" xlink:title=" ">
<polygon fill="white" stroke="#666666" points="442.62,-207.5 333.62,-207.5 333.62,-188.25 442.62,-188.25 442.62,-207.5"/>
<text text-anchor="middle" x="388.12" y="-193.05" font-family="Arial" font-size="11.00">floppy/detail/math.h</text>
</a>
</g>
</g>
<!-- Node2&#45;&gt;Node4 -->
<g id="edge3_Node000002_Node000004" class="edge">
<title>Node2&#45;&gt;Node4</title>
<g id="a_edge3_Node000002_Node000004"><a xlink:title=" ">
<path fill="none" stroke="#63b8ff" d="M587.97,-243.03C547.16,-234.01 484.49,-220.17 440.22,-210.39"/>
<polygon fill="#63b8ff" stroke="#63b8ff" points="441.11,-207 430.59,-208.26 439.6,-213.83 441.11,-207"/>
</a>
</g>
</g>
<!-- Node21 -->
<g id="Node000021" class="node">
<title>Node21</title>
<g id="a_Node000021"><a xlink:href="../../d6/d45/formatters_8h_source.html" target="_top" xlink:title=" ">
<polygon fill="white" stroke="#666666" points="730,-146.62 596.25,-146.62 596.25,-127.38 730,-127.38 730,-146.62"/>
<text text-anchor="middle" x="663.12" y="-132.18" font-family="Arial" font-size="11.00">floppy/detail/formatters.h</text>
</a>
</g>
</g>
<!-- Node2&#45;&gt;Node21 -->
<g id="edge21_Node000002_Node000021" class="edge">
<title>Node2&#45;&gt;Node21</title>
<g id="a_edge21_Node000002_Node000021"><a xlink:title=" ">
<path fill="none" stroke="#63b8ff" d="M631.83,-243.03C635.51,-230.64 642.31,-207.76 648.12,-188.25 651.13,-178.18 654.47,-166.97 657.24,-157.71"/>
<polygon fill="#63b8ff" stroke="#63b8ff" points="660.53,-158.93 660.03,-148.35 653.82,-156.93 660.53,-158.93"/>
</a>
</g>
</g>
<!-- Node24 -->
<g id="Node000024" class="node">
<title>Node24</title>
<g id="a_Node000024"><a xlink:href="../../dd/dff/traits_8h_source.html" target="_top" xlink:title=" ">
<polygon fill="white" stroke="#666666" points="737,-207.5 657.25,-207.5 657.25,-188.25 737,-188.25 737,-207.5"/>
<text text-anchor="middle" x="697.12" y="-193.05" font-family="Arial" font-size="11.00">floppy/traits.h</text>
</a>
</g>
</g>
<!-- Node2&#45;&gt;Node24 -->
<g id="edge26_Node000002_Node000024" class="edge">
<title>Node2&#45;&gt;Node24</title>
<g id="a_edge26_Node000002_Node000024"><a xlink:title=" ">
<path fill="none" stroke="#63b8ff" d="M640.66,-243.09C650.59,-235.32 665.14,-223.92 676.98,-214.65"/>
<polygon fill="#63b8ff" stroke="#63b8ff" points="678.85,-217.63 684.57,-208.71 674.54,-212.12 678.85,-217.63"/>
</a>
</g>
</g>
<!-- Node28 -->
<g id="Node000028" class="node">
<title>Node28</title>
<g id="a_Node000028"><a xlink:title=" ">
<polygon fill="#e0e0e0" stroke="#999999" points="808.88,-207.5 755.38,-207.5 755.38,-188.25 808.88,-188.25 808.88,-207.5"/>
<text text-anchor="middle" x="782.12" y="-193.05" font-family="Arial" font-size="11.00">qcolor.h</text>
</a>
</g>
</g>
<!-- Node2&#45;&gt;Node28 -->
<g id="edge32_Node000002_Node000028" class="edge">
<title>Node2&#45;&gt;Node28</title>
<g id="a_edge32_Node000002_Node000028"><a xlink:title=" ">
<path fill="none" stroke="#63b8ff" d="M655.08,-243.09C679.92,-234.45 717.62,-221.32 745.51,-211.62"/>
<polygon fill="#63b8ff" stroke="#63b8ff" points="746.32,-215.04 754.61,-208.45 744.02,-208.43 746.32,-215.04"/>
</a>
</g>
</g>
<!-- Node5 -->
<g id="Node000005" class="node">
<title>Node5</title>
<g id="a_Node000005"><a xlink:title=" ">
<polygon fill="#e0e0e0" stroke="#999999" points="445.75,-146.62 400.5,-146.62 400.5,-127.38 445.75,-127.38 445.75,-146.62"/>
<text text-anchor="middle" x="423.12" y="-132.18" font-family="Arial" font-size="11.00">cmath</text>
</a>
</g>
</g>
<!-- Node4&#45;&gt;Node5 -->
<g id="edge4_Node000004_Node000005" class="edge">
<title>Node4&#45;&gt;Node5</title>
<g id="a_edge4_Node000004_Node000005"><a xlink:title=" ">
<path fill="none" stroke="#63b8ff" d="M393.44,-187.93C398.32,-179.72 405.72,-167.28 411.9,-156.87"/>
<polygon fill="#63b8ff" stroke="#63b8ff" points="414.88,-158.71 416.99,-148.33 408.87,-155.13 414.88,-158.71"/>
</a>
</g>
</g>
<!-- Node6 -->
<g id="Node000006" class="node">
<title>Node6</title>
<g id="a_Node000006"><a xlink:title=" ">
<polygon fill="#e0e0e0" stroke="#999999" points="230.12,-146.62 190.12,-146.62 190.12,-127.38 230.12,-127.38 230.12,-146.62"/>
<text text-anchor="middle" x="210.12" y="-132.18" font-family="Arial" font-size="11.00">limits</text>
</a>
</g>
</g>
<!-- Node4&#45;&gt;Node6 -->
<g id="edge5_Node000004_Node000006" class="edge">
<title>Node4&#45;&gt;Node6</title>
<g id="a_edge5_Node000004_Node000006"><a xlink:title=" ">
<path fill="none" stroke="#63b8ff" d="M351.73,-187.79C321.21,-179.74 276.71,-166.99 239.12,-152.25 238.64,-152.06 238.16,-151.87 237.67,-151.67"/>
<polygon fill="#63b8ff" stroke="#63b8ff" points="239.34,-148.58 228.78,-147.69 236.47,-154.97 239.34,-148.58"/>
</a>
</g>
</g>
<!-- Node7 -->
<g id="Node000007" class="node">
<title>Node7</title>
<g id="a_Node000007"><a xlink:title=" ">
<polygon fill="#e0e0e0" stroke="#999999" points="306.12,-146.62 248.12,-146.62 248.12,-127.38 306.12,-127.38 306.12,-146.62"/>
<text text-anchor="middle" x="277.12" y="-132.18" font-family="Arial" font-size="11.00">numbers</text>
</a>
</g>
</g>
<!-- Node4&#45;&gt;Node7 -->
<g id="edge6_Node000004_Node000007" class="edge">
<title>Node4&#45;&gt;Node7</title>
<g id="a_edge6_Node000004_Node000007"><a xlink:title=" ">
<path fill="none" stroke="#63b8ff" d="M371.27,-187.93C353.42,-178.47 324.99,-163.39 304.03,-152.27"/>
<polygon fill="#63b8ff" stroke="#63b8ff" points="305.95,-149.33 295.48,-147.74 302.67,-155.51 305.95,-149.33"/>
</a>
</g>
</g>
<!-- Node8 -->
<g id="Node000008" class="node">
<title>Node8</title>
<g id="a_Node000008"><a xlink:title=" ">
<polygon fill="#e0e0e0" stroke="#999999" points="382.12,-146.62 324.12,-146.62 324.12,-127.38 382.12,-127.38 382.12,-146.62"/>
<text text-anchor="middle" x="353.12" y="-132.18" font-family="Arial" font-size="11.00">compare</text>
</a>
</g>
</g>
<!-- Node4&#45;&gt;Node8 -->
<g id="edge7_Node000004_Node000008" class="edge">
<title>Node4&#45;&gt;Node8</title>
<g id="a_edge7_Node000004_Node000008"><a xlink:title=" ">
<path fill="none" stroke="#63b8ff" d="M382.81,-187.93C377.93,-179.72 370.53,-167.28 364.35,-156.87"/>
<polygon fill="#63b8ff" stroke="#63b8ff" points="367.38,-155.13 359.26,-148.33 361.37,-158.71 367.38,-155.13"/>
</a>
</g>
</g>
<!-- Node9 -->
<g id="Node000009" class="node">
<title>Node9</title>
<g id="a_Node000009"><a xlink:href="../../db/db5/export_8h_source.html" target="_top" xlink:title=" ">
<polygon fill="white" stroke="#666666" points="578.62,-146.62 463.62,-146.62 463.62,-127.38 578.62,-127.38 578.62,-146.62"/>
<text text-anchor="middle" x="521.12" y="-132.18" font-family="Arial" font-size="11.00">floppy/detail/export.h</text>
</a>
</g>
</g>
<!-- Node4&#45;&gt;Node9 -->
<g id="edge8_Node000004_Node000009" class="edge">
<title>Node4&#45;&gt;Node9</title>
<g id="a_edge8_Node000004_Node000009"><a xlink:title=" ">
<path fill="none" stroke="#63b8ff" d="M408.61,-187.8C430.45,-178.14 465.26,-162.73 490.39,-151.61"/>
<polygon fill="#63b8ff" stroke="#63b8ff" points="491.72,-154.84 499.45,-147.6 488.89,-148.44 491.72,-154.84"/>
</a>
</g>
</g>
<!-- Node12 -->
<g id="Node000012" class="node">
<title>Node12</title>
<g id="a_Node000012"><a xlink:href="../../d9/db1/concepts_8h_source.html" target="_top" xlink:title=" ">
<polygon fill="white" stroke="#666666" points="172,-146.62 44.25,-146.62 44.25,-127.38 172,-127.38 172,-146.62"/>
<text text-anchor="middle" x="108.12" y="-132.18" font-family="Arial" font-size="11.00">floppy/detail/concepts.h</text>
</a>
</g>
</g>
<!-- Node4&#45;&gt;Node12 -->
<g id="edge11_Node000004_Node000012" class="edge">
<title>Node4&#45;&gt;Node12</title>
<g id="a_edge11_Node000004_Node000012"><a xlink:title=" ">
<path fill="none" stroke="#63b8ff" d="M344.99,-187.8C295.87,-177.48 215.54,-160.58 162.25,-149.38"/>
<polygon fill="#63b8ff" stroke="#63b8ff" points="163.3,-146.02 152.79,-147.39 161.86,-152.87 163.3,-146.02"/>
</a>
</g>
</g>
<!-- Node10 -->
<g id="Node000010" class="node">
<title>Node10</title>
<g id="a_Node000010"><a xlink:title=" ">
<polygon fill="#e0e0e0" stroke="#999999" points="492.25,-80.12 450,-80.12 450,-60.88 492.25,-60.88 492.25,-80.12"/>
<text text-anchor="middle" x="471.12" y="-65.67" font-family="Arial" font-size="11.00">string</text>
</a>
</g>
</g>
<!-- Node9&#45;&gt;Node10 -->
<g id="edge9_Node000009_Node000010" class="edge">
<title>Node9&#45;&gt;Node10</title>
<g id="a_edge9_Node000009_Node000010"><a xlink:title=" ">
<path fill="none" stroke="#63b8ff" d="M514.17,-127.03C506.64,-117.31 494.41,-101.54 484.91,-89.28"/>
<polygon fill="#63b8ff" stroke="#63b8ff" points="487.84,-87.35 478.95,-81.59 482.31,-91.64 487.84,-87.35"/>
</a>
</g>
</g>
<!-- Node11 -->
<g id="Node000011" class="node">
<title>Node11</title>
<g id="a_Node000011"><a xlink:title=" ">
<polygon fill="#e0e0e0" stroke="#999999" points="580.12,-80.12 510.12,-80.12 510.12,-60.88 580.12,-60.88 580.12,-80.12"/>
<text text-anchor="middle" x="545.12" y="-65.67" font-family="Arial" font-size="11.00">string_view</text>
</a>
</g>
</g>
<!-- Node9&#45;&gt;Node11 -->
<g id="edge10_Node000009_Node000011" class="edge">
<title>Node9&#45;&gt;Node11</title>
<g id="a_edge10_Node000009_Node000011"><a xlink:title=" ">
<path fill="none" stroke="#63b8ff" d="M524.46,-127.03C527.9,-117.79 533.37,-103.08 537.82,-91.13"/>
<polygon fill="#63b8ff" stroke="#63b8ff" points="541.08,-92.4 541.29,-81.81 534.52,-89.96 541.08,-92.4"/>
</a>
</g>
</g>
<!-- Node13 -->
<g id="Node000013" class="node">
<title>Node13</title>
<g id="a_Node000013"><a xlink:title=" ">
<polygon fill="#e0e0e0" stroke="#999999" points="301.5,-80.12 242.75,-80.12 242.75,-60.88 301.5,-60.88 301.5,-80.12"/>
<text text-anchor="middle" x="272.12" y="-65.67" font-family="Arial" font-size="11.00">concepts</text>
</a>
</g>
</g>
<!-- Node12&#45;&gt;Node13 -->
<g id="edge12_Node000012_Node000013" class="edge">
<title>Node12&#45;&gt;Node13</title>
<g id="a_edge12_Node000012_Node000013"><a xlink:title=" ">
<path fill="none" stroke="#63b8ff" d="M131.27,-126.9C159.23,-115.9 206.49,-97.31 238.47,-84.74"/>
<polygon fill="#63b8ff" stroke="#63b8ff" points="239.66,-88.03 247.68,-81.11 237.1,-81.52 239.66,-88.03"/>
</a>
</g>
</g>
<!-- Node14 -->
<g id="Node000014" class="node">
<title>Node14</title>
<g id="a_Node000014"><a xlink:href="../../df/d63/type__traits_8h_source.html" target="_top" xlink:title=" ">
<polygon fill="white" stroke="#666666" points="96.25,-85.75 0,-85.75 0,-55.25 96.25,-55.25 96.25,-85.75"/>
<text text-anchor="start" x="8" y="-71.3" font-family="Arial" font-size="11.00">floppy/detail/type</text>
<text text-anchor="middle" x="48.12" y="-60.05" font-family="Arial" font-size="11.00">_traits.h</text>
</a>
</g>
</g>
<!-- Node12&#45;&gt;Node14 -->
<g id="edge13_Node000012_Node000014" class="edge">
<title>Node12&#45;&gt;Node14</title>
<g id="a_edge13_Node000012_Node000014"><a xlink:title=" ">
<path fill="none" stroke="#63b8ff" d="M99.78,-127.03C91.88,-118.54 79.68,-105.42 69.12,-94.07"/>
<polygon fill="#63b8ff" stroke="#63b8ff" points="71.87,-91.89 62.5,-86.95 66.75,-96.66 71.87,-91.89"/>
</a>
</g>
</g>
<!-- Node16 -->
<g id="Node000016" class="node">
<title>Node16</title>
<g id="a_Node000016"><a xlink:href="../../d9/d49/types_8h_source.html" target="_top" xlink:title=" ">
<polygon fill="white" stroke="#666666" points="224.38,-80.12 113.88,-80.12 113.88,-60.88 224.38,-60.88 224.38,-80.12"/>
<text text-anchor="middle" x="169.12" y="-65.67" font-family="Arial" font-size="11.00">floppy/detail/types.h</text>
</a>
</g>
</g>
<!-- Node12&#45;&gt;Node16 -->
<g id="edge15_Node000012_Node000016" class="edge">
<title>Node12&#45;&gt;Node16</title>
<g id="a_edge15_Node000012_Node000016"><a xlink:title=" ">
<path fill="none" stroke="#63b8ff" d="M116.61,-127.03C125.98,-117.12 141.31,-100.91 152.99,-88.56"/>
<polygon fill="#63b8ff" stroke="#63b8ff" points="155.35,-91.16 159.68,-81.49 150.26,-86.35 155.35,-91.16"/>
</a>
</g>
</g>
<!-- Node15 -->
<g id="Node000015" class="node">
<title>Node15</title>
<g id="a_Node000015"><a xlink:title=" ">
<polygon fill="#e0e0e0" stroke="#999999" points="80.88,-19.25 15.38,-19.25 15.38,0 80.88,0 80.88,-19.25"/>
<text text-anchor="middle" x="48.12" y="-4.8" font-family="Arial" font-size="11.00">type_traits</text>
</a>
</g>
</g>
<!-- Node14&#45;&gt;Node15 -->
<g id="edge14_Node000014_Node000015" class="edge">
<title>Node14&#45;&gt;Node15</title>
<g id="a_edge14_Node000014_Node000015"><a xlink:title=" ">
<path fill="none" stroke="#63b8ff" d="M48.12,-54.95C48.12,-47.71 48.12,-38.84 48.12,-30.94"/>
<polygon fill="#63b8ff" stroke="#63b8ff" points="51.63,-31.21 48.13,-21.21 44.63,-31.21 51.63,-31.21"/>
</a>
</g>
</g>
<!-- Node16&#45;&gt;Node15 -->
<g id="edge19_Node000016_Node000015" class="edge">
<title>Node16&#45;&gt;Node15</title>
<g id="a_edge19_Node000016_Node000015"><a xlink:title=" ">
<path fill="none" stroke="#63b8ff" d="M150.48,-60.43C130.8,-50.85 99.51,-35.63 76.71,-24.53"/>
<polygon fill="#63b8ff" stroke="#63b8ff" points="78.47,-21.5 67.95,-20.27 75.41,-27.79 78.47,-21.5"/>
</a>
</g>
</g>
<!-- Node17 -->
<g id="Node000017" class="node">
<title>Node17</title>
<g id="a_Node000017"><a xlink:title=" ">
<polygon fill="#e0e0e0" stroke="#999999" points="285.38,-19.25 234.88,-19.25 234.88,0 285.38,0 285.38,-19.25"/>
<text text-anchor="middle" x="260.12" y="-4.8" font-family="Arial" font-size="11.00">cstddef</text>
</a>
</g>
</g>
<!-- Node16&#45;&gt;Node17 -->
<g id="edge16_Node000016_Node000017" class="edge">
<title>Node16&#45;&gt;Node17</title>
<g id="a_edge16_Node000016_Node000017"><a xlink:title=" ">
<path fill="none" stroke="#63b8ff" d="M182.95,-60.56C197.24,-51.31 219.83,-36.7 236.88,-25.67"/>
<polygon fill="#63b8ff" stroke="#63b8ff" points="238.41,-28.84 244.9,-20.47 234.61,-22.97 238.41,-28.84"/>
</a>
</g>
</g>
<!-- Node18 -->
<g id="Node000018" class="node">
<title>Node18</title>
<g id="a_Node000018"><a xlink:title=" ">
<polygon fill="#e0e0e0" stroke="#999999" points="145.5,-19.25 98.75,-19.25 98.75,0 145.5,0 145.5,-19.25"/>
<text text-anchor="middle" x="122.12" y="-4.8" font-family="Arial" font-size="11.00">cstdint</text>
</a>
</g>
</g>
<!-- Node16&#45;&gt;Node18 -->
<g id="edge17_Node000016_Node000018" class="edge">
<title>Node16&#45;&gt;Node18</title>
<g id="a_edge17_Node000016_Node000018"><a xlink:title=" ">
<path fill="none" stroke="#63b8ff" d="M161.99,-60.56C155.22,-52.09 144.87,-39.12 136.41,-28.52"/>
<polygon fill="#63b8ff" stroke="#63b8ff" points="139.25,-26.47 130.27,-20.83 133.78,-30.83 139.25,-26.47"/>
</a>
</g>
</g>
<!-- Node19 -->
<g id="Node000019" class="node">
<title>Node19</title>
<g id="a_Node000019"><a xlink:title=" ">
<polygon fill="#e0e0e0" stroke="#999999" points="216.88,-19.25 163.38,-19.25 163.38,0 216.88,0 216.88,-19.25"/>
<text text-anchor="middle" x="190.12" y="-4.8" font-family="Arial" font-size="11.00">optional</text>
</a>
</g>
</g>
<!-- Node16&#45;&gt;Node19 -->
<g id="edge18_Node000016_Node000019" class="edge">
<title>Node16&#45;&gt;Node19</title>
<g id="a_edge18_Node000016_Node000019"><a xlink:title=" ">
<path fill="none" stroke="#63b8ff" d="M172.31,-60.56C175.15,-52.6 179.4,-40.69 183.04,-30.49"/>
<polygon fill="#63b8ff" stroke="#63b8ff" points="186.33,-31.67 186.4,-21.08 179.74,-29.32 186.33,-31.67"/>
</a>
</g>
</g>
<!-- Node20 -->
<g id="Node000020" class="node">
<title>Node20</title>
<g id="a_Node000020"><a xlink:title=" ">
<polygon fill="#e0e0e0" stroke="#999999" points="511,-19.25 437.25,-19.25 437.25,0 511,0 511,-19.25"/>
<text text-anchor="middle" x="474.12" y="-4.8" font-family="Arial" font-size="11.00">fmt/format.h</text>
</a>
</g>
</g>
<!-- Node16&#45;&gt;Node20 -->
<g id="edge20_Node000016_Node000020" class="edge">
<title>Node16&#45;&gt;Node20</title>
<g id="a_edge20_Node000016_Node000020"><a xlink:title=" ">
<path fill="none" stroke="#63b8ff" d="M209.65,-60.41C217.75,-58.65 226.2,-56.86 234.12,-55.25 300.46,-41.82 377.43,-27.78 425.95,-19.12"/>
<polygon fill="#63b8ff" stroke="#63b8ff" points="426.33,-22.6 435.56,-17.4 425.1,-15.71 426.33,-22.6"/>
</a>
</g>
</g>
<!-- Node21&#45;&gt;Node11 -->
<g id="edge22_Node000021_Node000011" class="edge">
<title>Node21&#45;&gt;Node11</title>
<g id="a_edge22_Node000021_Node000011"><a xlink:title=" ">
<path fill="none" stroke="#63b8ff" d="M646.47,-126.9C627.05,-116.28 594.71,-98.6 571.79,-86.07"/>
<polygon fill="#63b8ff" stroke="#63b8ff" points="573.48,-83.01 563.02,-81.28 570.12,-89.15 573.48,-83.01"/>
</a>
</g>
</g>
<!-- Node21&#45;&gt;Node20 -->
<g id="edge25_Node000021_Node000020" class="edge">
<title>Node21&#45;&gt;Node20</title>
<g id="a_edge25_Node000021_Node000020"><a xlink:title=" ">
<path fill="none" stroke="#63b8ff" d="M657.03,-126.99C645.54,-110.61 619.11,-75.74 589.12,-55.25 568.25,-40.98 542.17,-30.39 520.13,-23.11"/>
<polygon fill="#63b8ff" stroke="#63b8ff" points="521.38,-19.83 510.79,-20.15 519.27,-26.5 521.38,-19.83"/>
</a>
</g>
</g>
<!-- Node22 -->
<g id="Node000022" class="node">
<title>Node22</title>
<g id="a_Node000022"><a xlink:title=" ">
<polygon fill="#e0e0e0" stroke="#999999" points="690.25,-80.12 636,-80.12 636,-60.88 690.25,-60.88 690.25,-80.12"/>
<text text-anchor="middle" x="663.12" y="-65.67" font-family="Arial" font-size="11.00">sstream</text>
</a>
</g>
</g>
<!-- Node21&#45;&gt;Node22 -->
<g id="edge23_Node000021_Node000022" class="edge">
<title>Node21&#45;&gt;Node22</title>
<g id="a_edge23_Node000021_Node000022"><a xlink:title=" ">
<path fill="none" stroke="#63b8ff" d="M663.12,-127.03C663.12,-117.98 663.12,-103.7 663.12,-91.88"/>
<polygon fill="#63b8ff" stroke="#63b8ff" points="666.63,-91.91 663.13,-81.91 659.63,-91.91 666.63,-91.91"/>
</a>
</g>
</g>
<!-- Node23 -->
<g id="Node000023" class="node">
<title>Node23</title>
<g id="a_Node000023"><a xlink:title=" ">
<polygon fill="#e0e0e0" stroke="#999999" points="755.5,-80.12 708.75,-80.12 708.75,-60.88 755.5,-60.88 755.5,-80.12"/>
<text text-anchor="middle" x="732.12" y="-65.67" font-family="Arial" font-size="11.00">iosfwd</text>
</a>
</g>
</g>
<!-- Node21&#45;&gt;Node23 -->
<g id="edge24_Node000021_Node000023" class="edge">
<title>Node21&#45;&gt;Node23</title>
<g id="a_edge24_Node000021_Node000023"><a xlink:title=" ">
<path fill="none" stroke="#63b8ff" d="M672.72,-127.03C683.43,-117.02 701,-100.6 714.26,-88.2"/>
<polygon fill="#63b8ff" stroke="#63b8ff" points="716.59,-90.81 721.51,-81.43 711.81,-85.7 716.59,-90.81"/>
</a>
</g>
</g>
<!-- Node24&#45;&gt;Node9 -->
<g id="edge30_Node000024_Node000009" class="edge">
<title>Node24&#45;&gt;Node9</title>
<g id="a_edge30_Node000024_Node000009"><a xlink:title=" ">
<path fill="none" stroke="#63b8ff" d="M670.01,-187.8C640.3,-177.86 592.42,-161.85 559,-150.67"/>
<polygon fill="#63b8ff" stroke="#63b8ff" points="560.3,-147.41 549.71,-147.56 558.08,-154.05 560.3,-147.41"/>
</a>
</g>
</g>
<!-- Node24&#45;&gt;Node21 -->
<g id="edge31_Node000024_Node000021" class="edge">
<title>Node24&#45;&gt;Node21</title>
<g id="a_edge31_Node000024_Node000021"><a xlink:title=" ">
<path fill="none" stroke="#63b8ff" d="M691.96,-187.93C687.22,-179.72 680.04,-167.28 674.02,-156.87"/>
<polygon fill="#63b8ff" stroke="#63b8ff" points="677.13,-155.25 669.09,-148.34 671.06,-158.75 677.13,-155.25"/>
</a>
</g>
</g>
<!-- Node25 -->
<g id="Node000025" class="node">
<title>Node25</title>
<g id="a_Node000025"><a xlink:title=" ">
<polygon fill="#e0e0e0" stroke="#999999" points="802.62,-146.62 747.62,-146.62 747.62,-127.38 802.62,-127.38 802.62,-146.62"/>
<text text-anchor="middle" x="775.12" y="-132.18" font-family="Arial" font-size="11.00">memory</text>
</a>
</g>
</g>
<!-- Node24&#45;&gt;Node25 -->
<g id="edge27_Node000024_Node000025" class="edge">
<title>Node24&#45;&gt;Node25</title>
<g id="a_edge27_Node000024_Node000025"><a xlink:title=" ">
<path fill="none" stroke="#63b8ff" d="M708.97,-187.93C721,-178.86 739.86,-164.62 754.37,-153.66"/>
<polygon fill="#63b8ff" stroke="#63b8ff" points="756.09,-156.76 761.96,-147.94 751.87,-151.17 756.09,-156.76"/>
</a>
</g>
</g>
<!-- Node26 -->
<g id="Node000026" class="node">
<title>Node26</title>
<g id="a_Node000026"><a xlink:title=" ">
<polygon fill="#e0e0e0" stroke="#999999" points="877.75,-146.62 820.5,-146.62 820.5,-127.38 877.75,-127.38 877.75,-146.62"/>
<text text-anchor="middle" x="849.12" y="-132.18" font-family="Arial" font-size="11.00">iostream</text>
</a>
</g>
</g>
<!-- Node24&#45;&gt;Node26 -->
<g id="edge28_Node000024_Node000026" class="edge">
<title>Node24&#45;&gt;Node26</title>
<g id="a_edge28_Node000024_Node000026"><a xlink:title=" ">
<path fill="none" stroke="#63b8ff" d="M720.54,-187.8C745.87,-177.99 786.48,-162.26 815.28,-151.11"/>
<polygon fill="#63b8ff" stroke="#63b8ff" points="816.21,-154.5 824.27,-147.63 813.68,-147.98 816.21,-154.5"/>
</a>
</g>
</g>
<!-- Node27 -->
<g id="Node000027" class="node">
<title>Node27</title>
<g id="a_Node000027"><a xlink:title=" ">
<polygon fill="#e0e0e0" stroke="#999999" points="1024.75,-152.25 895.5,-152.25 895.5,-121.75 1024.75,-121.75 1024.75,-152.25"/>
<text text-anchor="start" x="903.5" y="-137.8" font-family="Arial" font-size="11.00">experimental/propagate</text>
<text text-anchor="middle" x="960.12" y="-126.55" font-family="Arial" font-size="11.00">_const</text>
</a>
</g>
</g>
<!-- Node24&#45;&gt;Node27 -->
<g id="edge29_Node000024_Node000027" class="edge">
<title>Node24&#45;&gt;Node27</title>
<g id="a_edge29_Node000024_Node000027"><a xlink:title=" ">
<path fill="none" stroke="#63b8ff" d="M737.36,-187.87C776.27,-179.16 836.23,-165.74 884.14,-155.01"/>
<polygon fill="#63b8ff" stroke="#63b8ff" points="884.63,-158.49 893.62,-152.89 883.1,-151.66 884.63,-158.49"/>
</a>
</g>
</g>
</g>
</svg>
