<?xml version="1.0" encoding="UTF-8" standalone="no"?>
<!DOCTYPE svg PUBLIC "-//W3C//DTD SVG 1.1//EN"
 "http://www.w3.org/Graphics/SVG/1.1/DTD/svg11.dtd">
<!-- Generated by graphviz version 10.0.1 (0)
 -->
<!-- Title: length.h Pages: 1 -->
<svg width="206pt" height="248pt"
 viewBox="0.00 0.00 205.85 248.25" xmlns="http://www.w3.org/2000/svg" xmlns:xlink="http://www.w3.org/1999/xlink">

<svg id="main" version="1.1" xmlns="http://www.w3.org/2000/svg" xmlns:xlink="http://www.w3.org/1999/xlink" xml:space="preserve" onload="init(evt)">
<style type="text/css"><![CDATA[
.node, .edge {opacity: 0.7;}
.node.selected, .edge.selected {opacity: 1;}
.edge:hover path { stroke: red; }
.edge:hover polygon { stroke: red; fill: red; }
]]></style>
<script type="application/ecmascript" xlink:href="../../svg.min.js"/>
<svg id="graph" class="graph">
<g id="graph0" class="graph" transform="scale(1 1) rotate(0) translate(4 244.25)">
<title>length.h</title>
<!-- Node1 -->
<g id="Node000001" class="node">
<title>Node1</title>
<g id="a_Node000001"><a xlink:title="A one&#45;dimensional distance with associated unit of measurement.">
<polygon fill="#999999" stroke="#666666" points="175.25,-240.25 121,-240.25 121,-221 175.25,-221 175.25,-240.25"/>
<text text-anchor="middle" x="148.12" y="-225.8" font-family="Arial" font-size="11.00">length.h</text>
</a>
</g>
</g>
<!-- Node2 -->
<g id="Node000002" class="node">
<title>Node2</title>
<g id="a_Node000002"><a xlink:href="../../de/d44/euclid_8h.html" target="_top" xlink:title="Small collection of classes and functions for geometric types with a focus on 2d graphics and layout.">
<polygon fill="white" stroke="#666666" points="178.5,-19.25 125.75,-19.25 125.75,0 178.5,0 178.5,-19.25"/>
<text text-anchor="middle" x="152.12" y="-4.8" font-family="Arial" font-size="11.00">euclid.h</text>
</a>
</g>
</g>
<!-- Node1&#45;&gt;Node2 -->
<g id="edge1_Node000001_Node000002" class="edge">
<title>Node1&#45;&gt;Node2</title>
<g id="a_edge1_Node000001_Node000002"><a xlink:title=" ">
<path fill="none" stroke="#63b8ff" d="M159.77,-211.21C178.64,-178.93 211.8,-110.33 191.12,-55.25 185.63,-40.61 172.91,-27.62 163.48,-19.49"/>
<polygon fill="#63b8ff" stroke="#63b8ff" points="157,-209.04 154.81,-219.4 162.99,-212.67 157,-209.04"/>
</a>
</g>
</g>
<!-- Node3 -->
<g id="Node000003" class="node">
<title>Node3</title>
<g id="a_Node000003"><a xlink:href="../../da/d53/nt__traits2d_8h_source.html" target="_top" xlink:title=" ">
<polygon fill="white" stroke="#666666" points="119.75,-185 44.5,-185 44.5,-165.75 119.75,-165.75 119.75,-185"/>
<text text-anchor="middle" x="82.12" y="-170.55" font-family="Arial" font-size="11.00">nt_traits2d.h</text>
</a>
</g>
</g>
<!-- Node1&#45;&gt;Node3 -->
<g id="edge2_Node000001_Node000003" class="edge">
<title>Node1&#45;&gt;Node3</title>
<g id="a_edge2_Node000001_Node000003"><a xlink:title=" ">
<path fill="none" stroke="#63b8ff" d="M128.03,-213.41C116.57,-204.17 102.64,-192.93 93.16,-185.27"/>
<polygon fill="#63b8ff" stroke="#63b8ff" points="125.77,-216.09 135.75,-219.64 130.17,-210.64 125.77,-216.09"/>
</a>
</g>
</g>
<!-- Node4 -->
<g id="Node000004" class="node">
<title>Node4</title>
<g id="a_Node000004"><a xlink:href="../../d4/d12/point2d_8h.html" target="_top" xlink:title="A two&#45;dimensional point tagged with a unit.">
<polygon fill="white" stroke="#666666" points="182.25,-74.5 122,-74.5 122,-55.25 182.25,-55.25 182.25,-74.5"/>
<text text-anchor="middle" x="152.12" y="-60.05" font-family="Arial" font-size="11.00">point2d.h</text>
</a>
</g>
</g>
<!-- Node1&#45;&gt;Node4 -->
<g id="edge10_Node000001_Node000004" class="edge">
<title>Node1&#45;&gt;Node4</title>
<g id="a_edge10_Node000001_Node000004"><a xlink:title=" ">
<path fill="none" stroke="#63b8ff" d="M148.62,-209.47C149.49,-173.61 151.29,-100.1 151.91,-74.72"/>
<polygon fill="#63b8ff" stroke="#63b8ff" points="145.12,-209.23 148.38,-219.31 152.12,-209.4 145.12,-209.23"/>
</a>
</g>
</g>
<!-- Node5 -->
<g id="Node000005" class="node">
<title>Node5</title>
<g id="a_Node000005"><a xlink:href="../../dc/df8/size2d_8h.html" target="_top" xlink:title="A two&#45;dimensional size tagged with a unit.">
<polygon fill="white" stroke="#666666" points="120,-129.75 64.25,-129.75 64.25,-110.5 120,-110.5 120,-129.75"/>
<text text-anchor="middle" x="92.12" y="-115.3" font-family="Arial" font-size="11.00">size2d.h</text>
</a>
</g>
</g>
<!-- Node1&#45;&gt;Node5 -->
<g id="edge11_Node000001_Node000005" class="edge">
<title>Node1&#45;&gt;Node5</title>
<g id="a_edge11_Node000001_Node000005"><a xlink:title=" ">
<path fill="none" stroke="#63b8ff" d="M144.33,-209.51C141.36,-196.51 136.48,-179.51 129.12,-165.75 121.82,-152.08 109.92,-138.71 101.59,-130.22"/>
<polygon fill="#63b8ff" stroke="#63b8ff" points="140.85,-209.95 146.3,-219.03 147.7,-208.52 140.85,-209.95"/>
</a>
</g>
</g>
<!-- Node6 -->
<g id="Node000006" class="node">
<title>Node6</title>
<g id="a_Node000006"><a xlink:href="../../d1/dab/vector2d_8h.html" target="_top" xlink:title="A two&#45;dimensional vector tagged with a unit.">
<polygon fill="white" stroke="#666666" points="66.25,-74.5 0,-74.5 0,-55.25 66.25,-55.25 66.25,-74.5"/>
<text text-anchor="middle" x="33.12" y="-60.05" font-family="Arial" font-size="11.00">vector2d.h</text>
</a>
</g>
</g>
<!-- Node1&#45;&gt;Node6 -->
<g id="edge12_Node000001_Node000006" class="edge">
<title>Node1&#45;&gt;Node6</title>
<g id="a_edge12_Node000001_Node000006"><a xlink:title=" ">
<path fill="none" stroke="#63b8ff" d="M109.69,-225.35C83.98,-220.29 51.89,-209.21 35.12,-185 11.34,-150.65 23.84,-96.34 30.18,-74.96"/>
<polygon fill="#63b8ff" stroke="#63b8ff" points="109.04,-228.79 119.49,-227.03 110.22,-221.89 109.04,-228.79"/>
</a>
</g>
</g>
<!-- Node3&#45;&gt;Node4 -->
<g id="edge3_Node000003_Node000004" class="edge">
<title>Node3&#45;&gt;Node4</title>
<g id="a_edge3_Node000003_Node000004"><a xlink:title=" ">
<path fill="none" stroke="#63b8ff" d="M103.27,-158.08C112.23,-150.31 122.18,-140.38 129.12,-129.75 140.72,-111.99 147.38,-87.62 150.31,-74.72"/>
<polygon fill="#63b8ff" stroke="#63b8ff" points="101.12,-155.33 95.63,-164.39 105.57,-160.73 101.12,-155.33"/>
</a>
</g>
</g>
<!-- Node3&#45;&gt;Node5 -->
<g id="edge5_Node000003_Node000005" class="edge">
<title>Node3&#45;&gt;Node5</title>
<g id="a_edge5_Node000003_Node000005"><a xlink:title=" ">
<path fill="none" stroke="#63b8ff" d="M85.87,-154.42C87.44,-146.05 89.19,-136.75 90.44,-130.11"/>
<polygon fill="#63b8ff" stroke="#63b8ff" points="82.46,-153.62 84.06,-164.09 89.34,-154.91 82.46,-153.62"/>
</a>
</g>
</g>
<!-- Node3&#45;&gt;Node6 -->
<g id="edge9_Node000003_Node000006" class="edge">
<title>Node3&#45;&gt;Node6</title>
<g id="a_edge9_Node000003_Node000006"><a xlink:title=" ">
<path fill="none" stroke="#63b8ff" d="M69.73,-155.89C64.79,-148.04 59.3,-138.66 55.12,-129.75 46.27,-110.84 39.09,-87.35 35.54,-74.79"/>
<polygon fill="#63b8ff" stroke="#63b8ff" points="66.74,-157.71 75.13,-164.19 72.61,-153.9 66.74,-157.71"/>
</a>
</g>
</g>
<!-- Node4&#45;&gt;Node2 -->
<g id="edge4_Node000004_Node000002" class="edge">
<title>Node4&#45;&gt;Node2</title>
<g id="a_edge4_Node000004_Node000002"><a xlink:title=" ">
<path fill="none" stroke="#63b8ff" d="M152.12,-43.63C152.12,-35.34 152.12,-26.17 152.12,-19.61"/>
<polygon fill="#63b8ff" stroke="#63b8ff" points="148.63,-43.57 152.13,-53.57 155.63,-43.57 148.63,-43.57"/>
</a>
</g>
</g>
<!-- Node5&#45;&gt;Node2 -->
<g id="edge6_Node000005_Node000002" class="edge">
<title>Node5&#45;&gt;Node2</title>
<g id="a_edge6_Node000005_Node000002"><a xlink:title=" ">
<path fill="none" stroke="#63b8ff" d="M96.43,-99.39C99.8,-86.31 105.24,-69.08 113.12,-55.25 120.97,-41.48 133.49,-28.13 142.22,-19.68"/>
<polygon fill="#63b8ff" stroke="#63b8ff" points="93.07,-98.4 94.18,-108.93 99.88,-100.01 93.07,-98.4"/>
</a>
</g>
</g>
<!-- Node5&#45;&gt;Node4 -->
<g id="edge7_Node000005_Node000004" class="edge">
<title>Node5&#45;&gt;Node4</title>
<g id="a_edge7_Node000005_Node000004"><a xlink:title=" ">
<path fill="none" stroke="#63b8ff" d="M110.7,-102.64C121.06,-93.44 133.56,-82.35 142.1,-74.77"/>
<polygon fill="#63b8ff" stroke="#63b8ff" points="108.59,-99.83 103.44,-109.09 113.24,-105.07 108.59,-99.83"/>
</a>
</g>
</g>
<!-- Node5&#45;&gt;Node6 -->
<g id="edge8_Node000005_Node000006" class="edge">
<title>Node5&#45;&gt;Node6</title>
<g id="a_edge8_Node000005_Node000006"><a xlink:title=" ">
<path fill="none" stroke="#63b8ff" d="M73.86,-102.64C63.67,-93.44 51.38,-82.35 42.99,-74.77"/>
<polygon fill="#63b8ff" stroke="#63b8ff" points="71.22,-104.98 80.99,-109.08 75.91,-99.78 71.22,-104.98"/>
</a>
</g>
</g>
</g>
</svg>
</svg>

<style type='text/css'>
<![CDATA[
[data-mouse-over-selected='false'] { opacity: 0.7; }
[data-mouse-over-selected='true']  { opacity: 1.0; }
]]>
</style>
<script type="application/ecmascript"><![CDATA[
document.addEventListener('DOMContentLoaded', (event) => {
  highlightEdges();
  highlightAdjacentNodes();
});
]]></script>
</svg>
