<?xml version="1.0" encoding="UTF-8" standalone="no"?>
<!DOCTYPE svg PUBLIC "-//W3C//DTD SVG 1.1//EN"
 "http://www.w3.org/Graphics/SVG/1.1/DTD/svg11.dtd">
<!-- Generated by graphviz version 10.0.1 (0)
 -->
<!-- Title: length.h Pages: 1 -->
<svg width="150pt" height="248pt"
 viewBox="0.00 0.00 149.51 248.25" xmlns="http://www.w3.org/2000/svg" xmlns:xlink="http://www.w3.org/1999/xlink">
<g id="graph0" class="graph" transform="scale(1 1) rotate(0) translate(4 244.25)">
<title>length.h</title>
<!-- Node1 -->
<g id="Node000001" class="node">
<title>Node1</title>
<g id="a_Node000001"><a xlink:title="A one&#45;dimensional distance with associated unit of measurement.">
<polygon fill="#999999" stroke="#666666" points="81.53,-240.25 27.28,-240.25 27.28,-221 81.53,-221 81.53,-240.25"/>
<text text-anchor="middle" x="54.41" y="-225.8" font-family="Arial" font-size="11.00">length.h</text>
</a>
</g>
</g>
<!-- Node2 -->
<g id="Node000002" class="node">
<title>Node2</title>
<g id="a_Node000002"><a xlink:href="../../de/d44/euclid_8h.html" target="_top" xlink:title="Small collection of classes and functions for geometric types with a focus on 2d graphics and layout.">
<polygon fill="white" stroke="#666666" points="63.78,-19.25 11.03,-19.25 11.03,0 63.78,0 63.78,-19.25"/>
<text text-anchor="middle" x="37.41" y="-4.8" font-family="Arial" font-size="11.00">euclid.h</text>
</a>
</g>
</g>
<!-- Node1&#45;&gt;Node2 -->
<g id="edge1_Node000001_Node000002" class="edge">
<title>Node1&#45;&gt;Node2</title>
<g id="a_edge1_Node000001_Node000002"><a xlink:title=" ">
<path fill="none" stroke="#63b8ff" d="M41.37,-211.26C28.56,-192 9.9,-160.35 2.41,-129.75 -7.79,-88.08 19.02,-39.21 31.46,-19.52"/>
<polygon fill="#63b8ff" stroke="#63b8ff" points="38.37,-213.08 46.91,-219.34 44.15,-209.12 38.37,-213.08"/>
</a>
</g>
</g>
<!-- Node3 -->
<g id="Node000003" class="node">
<title>Node3</title>
<g id="a_Node000003"><a xlink:href="../../da/d53/nt__traits2d_8h_source.html" target="_top" xlink:title=" ">
<polygon fill="white" stroke="#666666" points="125.03,-185 49.78,-185 49.78,-165.75 125.03,-165.75 125.03,-185"/>
<text text-anchor="middle" x="87.41" y="-170.55" font-family="Arial" font-size="11.00">nt_traits2d.h</text>
</a>
</g>
</g>
<!-- Node1&#45;&gt;Node3 -->
<g id="edge2_Node000001_Node000003" class="edge">
<title>Node1&#45;&gt;Node3</title>
<g id="a_edge2_Node000001_Node000003"><a xlink:title=" ">
<path fill="none" stroke="#63b8ff" d="M65.88,-211.12C71.28,-202.39 77.49,-192.39 81.84,-185.36"/>
<polygon fill="#63b8ff" stroke="#63b8ff" points="62.95,-209.2 60.65,-219.55 68.9,-212.89 62.95,-209.2"/>
</a>
</g>
</g>
<!-- Node4 -->
<g id="Node000004" class="node">
<title>Node4</title>
<g id="a_Node000004"><a xlink:href="../../d4/d12/point2d_8h.html" target="_top" xlink:title="A two&#45;dimensional point tagged with a unit.">
<polygon fill="white" stroke="#666666" points="125.53,-74.5 65.28,-74.5 65.28,-55.25 125.53,-55.25 125.53,-74.5"/>
<text text-anchor="middle" x="95.41" y="-60.05" font-family="Arial" font-size="11.00">point2d.h</text>
</a>
</g>
</g>
<!-- Node1&#45;&gt;Node4 -->
<g id="edge8_Node000001_Node000004" class="edge">
<title>Node1&#45;&gt;Node4</title>
<g id="a_edge8_Node000001_Node000004"><a xlink:title=" ">
<path fill="none" stroke="#63b8ff" d="M92.12,-218.25C108.11,-211.35 125.16,-200.75 134.41,-185 156.56,-147.28 119.88,-95.36 103.1,-74.79"/>
<polygon fill="#63b8ff" stroke="#63b8ff" points="91.3,-214.81 83.26,-221.72 93.85,-221.33 91.3,-214.81"/>
</a>
</g>
</g>
<!-- Node5 -->
<g id="Node000005" class="node">
<title>Node5</title>
<g id="a_Node000005"><a xlink:href="../../dc/df8/size2d_8h.html" target="_top" xlink:title="A two&#45;dimensional size tagged with a unit.">
<polygon fill="white" stroke="#666666" points="67.28,-129.75 11.53,-129.75 11.53,-110.5 67.28,-110.5 67.28,-129.75"/>
<text text-anchor="middle" x="39.41" y="-115.3" font-family="Arial" font-size="11.00">size2d.h</text>
</a>
</g>
</g>
<!-- Node1&#45;&gt;Node5 -->
<g id="edge9_Node000001_Node000005" class="edge">
<title>Node1&#45;&gt;Node5</title>
<g id="a_edge9_Node000001_Node000005"><a xlink:title=" ">
<path fill="none" stroke="#63b8ff" d="M46.86,-209.86C44.3,-202.21 41.75,-193.31 40.41,-185 37.27,-165.51 38.01,-142.24 38.76,-129.87"/>
<polygon fill="#63b8ff" stroke="#63b8ff" points="43.53,-210.93 50.21,-219.16 50.11,-208.56 43.53,-210.93"/>
</a>
</g>
</g>
<!-- Node3&#45;&gt;Node4 -->
<g id="edge3_Node000003_Node000004" class="edge">
<title>Node3&#45;&gt;Node4</title>
<g id="a_edge3_Node000003_Node000004"><a xlink:title=" ">
<path fill="none" stroke="#63b8ff" d="M88.91,-154.03C90.66,-130.3 93.47,-92.14 94.74,-74.88"/>
<polygon fill="#63b8ff" stroke="#63b8ff" points="85.42,-153.76 88.17,-163.99 92.4,-154.27 85.42,-153.76"/>
</a>
</g>
</g>
<!-- Node3&#45;&gt;Node5 -->
<g id="edge5_Node000003_Node000005" class="edge">
<title>Node3&#45;&gt;Node5</title>
<g id="a_edge5_Node000003_Node000005"><a xlink:title=" ">
<path fill="none" stroke="#63b8ff" d="M72.01,-157.29C63.86,-148.25 54.19,-137.52 47.51,-130.11"/>
<polygon fill="#63b8ff" stroke="#63b8ff" points="69.17,-159.37 78.47,-164.46 74.37,-154.69 69.17,-159.37"/>
</a>
</g>
</g>
<!-- Node4&#45;&gt;Node2 -->
<g id="edge4_Node000004_Node000002" class="edge">
<title>Node4&#45;&gt;Node2</title>
<g id="a_edge4_Node000004_Node000002"><a xlink:title=" ">
<path fill="none" stroke="#63b8ff" d="M77.14,-47.11C67.19,-37.97 55.27,-27.03 47.1,-19.52"/>
<polygon fill="#63b8ff" stroke="#63b8ff" points="74.72,-49.63 84.45,-53.82 79.46,-44.48 74.72,-49.63"/>
</a>
</g>
</g>
<!-- Node5&#45;&gt;Node2 -->
<g id="edge6_Node000005_Node000002" class="edge">
<title>Node5&#45;&gt;Node2</title>
<g id="a_edge6_Node000005_Node000002"><a xlink:title=" ">
<path fill="none" stroke="#63b8ff" d="M39.03,-98.78C38.6,-75.05 37.89,-36.89 37.57,-19.63"/>
<polygon fill="#63b8ff" stroke="#63b8ff" points="35.53,-98.8 39.22,-108.73 42.53,-98.67 35.53,-98.8"/>
</a>
</g>
</g>
<!-- Node5&#45;&gt;Node4 -->
<g id="edge7_Node000005_Node000004" class="edge">
<title>Node5&#45;&gt;Node4</title>
<g id="a_edge7_Node000005_Node000004"><a xlink:title=" ">
<path fill="none" stroke="#63b8ff" d="M57.04,-102.36C66.65,-93.22 78.16,-82.28 86.05,-74.77"/>
<polygon fill="#63b8ff" stroke="#63b8ff" points="54.84,-99.62 50,-109.05 59.66,-104.69 54.84,-99.62"/>
</a>
</g>
</g>
</g>
</svg>
