<?xml version="1.0" encoding="UTF-8" standalone="no"?>
<!DOCTYPE svg PUBLIC "-//W3C//DTD SVG 1.1//EN"
 "http://www.w3.org/Graphics/SVG/1.1/DTD/svg11.dtd">
<!-- Generated by graphviz version 10.0.1 (0)
 -->
<!-- Title: length.h Pages: 1 -->
<svg width="153pt" height="193pt"
 viewBox="0.00 0.00 152.89 193.00" xmlns="http://www.w3.org/2000/svg" xmlns:xlink="http://www.w3.org/1999/xlink">

<svg id="main" version="1.1" xmlns="http://www.w3.org/2000/svg" xmlns:xlink="http://www.w3.org/1999/xlink" xml:space="preserve" onload="init(evt)">
<style type="text/css"><![CDATA[
.node, .edge {opacity: 0.7;}
.node.selected, .edge.selected {opacity: 1;}
.edge:hover path { stroke: red; }
.edge:hover polygon { stroke: red; fill: red; }
]]></style>
<script type="application/ecmascript" xlink:href="../../svg.min.js"/>
<svg id="graph" class="graph">
<g id="graph0" class="graph" transform="scale(1 1) rotate(0) translate(4 189)">
<title>length.h</title>
<!-- Node1 -->
<g id="Node000001" class="node">
<title>Node1</title>
<g id="a_Node000001"><a xlink:title="A one&#45;dimensional distance with associated unit of measurement.">
<polygon fill="#999999" stroke="#666666" points="81.14,-185 26.89,-185 26.89,-165.75 81.14,-165.75 81.14,-185"/>
<text text-anchor="middle" x="54.01" y="-170.55" font-family="Arial" font-size="11.00">length.h</text>
</a>
</g>
</g>
<!-- Node2 -->
<g id="Node000002" class="node">
<title>Node2</title>
<g id="a_Node000002"><a xlink:href="../../de/d44/euclid_8h.html" target="_top" xlink:title="Small collection of classes and functions for geometric types with a focus on 2d graphics and layout.">
<polygon fill="white" stroke="#666666" points="67.39,-19.25 14.64,-19.25 14.64,0 67.39,0 67.39,-19.25"/>
<text text-anchor="middle" x="41.01" y="-4.8" font-family="Arial" font-size="11.00">euclid.h</text>
</a>
</g>
</g>
<!-- Node1&#45;&gt;Node2 -->
<g id="edge1_Node000001_Node000002" class="edge">
<title>Node1&#45;&gt;Node2</title>
<g id="a_edge1_Node000001_Node000002"><a xlink:title=" ">
<path fill="none" stroke="#63b8ff" d="M40.97,-156.01C28.17,-136.75 9.5,-105.1 2.01,-74.5 -0.02,-66.19 -0.99,-63.26 2.01,-55.25 7.51,-40.61 20.23,-27.62 29.65,-19.49"/>
<polygon fill="#63b8ff" stroke="#63b8ff" points="37.98,-157.83 46.52,-164.09 43.75,-153.87 37.98,-157.83"/>
</a>
</g>
</g>
<!-- Node3 -->
<g id="Node000003" class="node">
<title>Node3</title>
<g id="a_Node000003"><a xlink:href="../../da/d53/nt__traits2d_8h_source.html" target="_top" xlink:title=" ">
<polygon fill="white" stroke="#666666" points="124.64,-129.75 49.39,-129.75 49.39,-110.5 124.64,-110.5 124.64,-129.75"/>
<text text-anchor="middle" x="87.01" y="-115.3" font-family="Arial" font-size="11.00">nt_traits2d.h</text>
</a>
</g>
</g>
<!-- Node1&#45;&gt;Node3 -->
<g id="edge2_Node000001_Node000003" class="edge">
<title>Node1&#45;&gt;Node3</title>
<g id="a_edge2_Node000001_Node000003"><a xlink:title=" ">
<path fill="none" stroke="#63b8ff" d="M65.48,-155.87C70.89,-147.14 77.09,-137.14 81.44,-130.11"/>
<polygon fill="#63b8ff" stroke="#63b8ff" points="62.55,-153.95 60.26,-164.3 68.5,-157.64 62.55,-153.95"/>
</a>
</g>
</g>
<!-- Node4 -->
<g id="Node000004" class="node">
<title>Node4</title>
<g id="a_Node000004"><a xlink:href="../../d4/d12/point2d_8h.html" target="_top" xlink:title="A two&#45;dimensional point tagged with a unit.">
<polygon fill="white" stroke="#666666" points="71.14,-74.5 10.89,-74.5 10.89,-55.25 71.14,-55.25 71.14,-74.5"/>
<text text-anchor="middle" x="41.01" y="-60.05" font-family="Arial" font-size="11.00">point2d.h</text>
</a>
</g>
</g>
<!-- Node1&#45;&gt;Node4 -->
<g id="edge7_Node000001_Node000004" class="edge">
<title>Node1&#45;&gt;Node4</title>
<g id="a_edge7_Node000001_Node000004"><a xlink:title=" ">
<path fill="none" stroke="#63b8ff" d="M46.4,-154.62C43.83,-146.97 41.29,-138.07 40.01,-129.75 37.02,-110.24 38.67,-86.98 39.96,-74.62"/>
<polygon fill="#63b8ff" stroke="#63b8ff" points="43.07,-155.71 49.77,-163.92 49.65,-153.32 43.07,-155.71"/>
</a>
</g>
</g>
<!-- Node5 -->
<g id="Node000005" class="node">
<title>Node5</title>
<g id="a_Node000005"><a xlink:href="../../dc/df8/size2d_8h.html" target="_top" xlink:title="A two&#45;dimensional size tagged with a unit.">
<polygon fill="white" stroke="#666666" points="144.89,-74.5 89.14,-74.5 89.14,-55.25 144.89,-55.25 144.89,-74.5"/>
<text text-anchor="middle" x="117.01" y="-60.05" font-family="Arial" font-size="11.00">size2d.h</text>
</a>
</g>
</g>
<!-- Node1&#45;&gt;Node5 -->
<g id="edge8_Node000001_Node000005" class="edge">
<title>Node1&#45;&gt;Node5</title>
<g id="a_edge8_Node000001_Node000005"><a xlink:title=" ">
<path fill="none" stroke="#63b8ff" d="M91.72,-163C107.71,-156.1 124.76,-145.5 134.01,-129.75 144.47,-111.94 131.82,-87.6 123.38,-74.71"/>
<polygon fill="#63b8ff" stroke="#63b8ff" points="90.9,-159.56 82.87,-166.47 93.46,-166.08 90.9,-159.56"/>
</a>
</g>
</g>
<!-- Node3&#45;&gt;Node4 -->
<g id="edge3_Node000003_Node000004" class="edge">
<title>Node3&#45;&gt;Node4</title>
<g id="a_edge3_Node000003_Node000004"><a xlink:title=" ">
<path fill="none" stroke="#63b8ff" d="M72.01,-101.76C64.25,-92.78 55.11,-82.2 48.77,-74.86"/>
<polygon fill="#63b8ff" stroke="#63b8ff" points="69.24,-103.91 78.43,-109.19 74.54,-99.33 69.24,-103.91"/>
</a>
</g>
</g>
<!-- Node3&#45;&gt;Node5 -->
<g id="edge5_Node000003_Node000005" class="edge">
<title>Node3&#45;&gt;Node5</title>
<g id="a_edge5_Node000003_Node000005"><a xlink:title=" ">
<path fill="none" stroke="#63b8ff" d="M97.6,-100.33C102.48,-91.67 108.04,-81.81 111.95,-74.86"/>
<polygon fill="#63b8ff" stroke="#63b8ff" points="94.57,-98.58 92.71,-109.01 100.67,-102.02 94.57,-98.58"/>
</a>
</g>
</g>
<!-- Node4&#45;&gt;Node2 -->
<g id="edge4_Node000004_Node000002" class="edge">
<title>Node4&#45;&gt;Node2</title>
<g id="a_edge4_Node000004_Node000002"><a xlink:title=" ">
<path fill="none" stroke="#63b8ff" d="M41.01,-43.63C41.01,-35.34 41.01,-26.17 41.01,-19.61"/>
<polygon fill="#63b8ff" stroke="#63b8ff" points="37.51,-43.57 41.01,-53.57 44.51,-43.57 37.51,-43.57"/>
</a>
</g>
</g>
<!-- Node5&#45;&gt;Node2 -->
<g id="edge6_Node000005_Node000002" class="edge">
<title>Node5&#45;&gt;Node2</title>
<g id="a_edge6_Node000005_Node000002"><a xlink:title=" ">
<path fill="none" stroke="#63b8ff" d="M94.73,-48.26C81.47,-38.97 65.12,-27.52 53.97,-19.7"/>
<polygon fill="#63b8ff" stroke="#63b8ff" points="92.68,-51.1 102.88,-53.97 96.7,-45.37 92.68,-51.1"/>
</a>
</g>
</g>
</g>
</svg>
</svg>

<style type='text/css'>
<![CDATA[
[data-mouse-over-selected='false'] { opacity: 0.7; }
[data-mouse-over-selected='true']  { opacity: 1.0; }
]]>
</style>
<script type="application/ecmascript"><![CDATA[
document.addEventListener('DOMContentLoaded', (event) => {
  highlightEdges();
  highlightAdjacentNodes();
});
]]></script>
</svg>
