<?xml version="1.0" encoding="UTF-8" standalone="no"?>
<!DOCTYPE svg PUBLIC "-//W3C//DTD SVG 1.1//EN"
 "http://www.w3.org/Graphics/SVG/1.1/DTD/svg11.dtd">
<!-- Generated by graphviz version 10.0.1 (0)
 -->
<!-- Title: vector2d.h Pages: 1 -->
<svg width="1142pt" height="570pt"
 viewBox="0.00 0.00 1141.88 569.50" xmlns="http://www.w3.org/2000/svg" xmlns:xlink="http://www.w3.org/1999/xlink">
<g id="graph0" class="graph" transform="scale(1 1) rotate(0) translate(4 565.5)">
<title>vector2d.h</title>
<!-- Node1 -->
<g id="Node000001" class="node">
<title>Node1</title>
<g id="a_Node000001"><a xlink:title="A two&#45;dimensional vector tagged with a unit.">
<polygon fill="#999999" stroke="#666666" points="622,-561.5 555.75,-561.5 555.75,-542.25 622,-542.25 622,-561.5"/>
<text text-anchor="middle" x="588.88" y="-547.05" font-family="Arial" font-size="11.00">vector2d.h</text>
</a>
</g>
</g>
<!-- Node2 -->
<g id="Node000002" class="node">
<title>Node2</title>
<g id="a_Node000002"><a xlink:title=" ">
<polygon fill="#e0e0e0" stroke="#999999" points="522.75,-506.25 461,-506.25 461,-487 522.75,-487 522.75,-506.25"/>
<text text-anchor="middle" x="491.88" y="-491.8" font-family="Arial" font-size="11.00">functional</text>
</a>
</g>
</g>
<!-- Node1&#45;&gt;Node2 -->
<g id="edge1_Node000001_Node000002" class="edge">
<title>Node1&#45;&gt;Node2</title>
<g id="a_edge1_Node000001_Node000002"><a xlink:title=" ">
<path fill="none" stroke="#63b8ff" d="M572.42,-541.84C557.65,-533.73 535.7,-521.68 518.44,-512.21"/>
<polygon fill="#63b8ff" stroke="#63b8ff" points="520.19,-509.18 509.74,-507.43 516.82,-515.31 520.19,-509.18"/>
</a>
</g>
</g>
<!-- Node3 -->
<g id="Node000003" class="node">
<title>Node3</title>
<g id="a_Node000003"><a xlink:href="../../da/dac/angle_8h.html" target="_top" xlink:title="Newtype describing an angle.">
<polygon fill="white" stroke="#666666" points="598.62,-329.25 485.12,-329.25 485.12,-310 598.62,-310 598.62,-329.25"/>
<text text-anchor="middle" x="541.88" y="-314.8" font-family="Arial" font-size="11.00">floppy/euclid/angle.h</text>
</a>
</g>
</g>
<!-- Node1&#45;&gt;Node3 -->
<g id="edge2_Node000001_Node000003" class="edge">
<title>Node1&#45;&gt;Node3</title>
<g id="a_edge2_Node000001_Node000003"><a xlink:title=" ">
<path fill="none" stroke="#63b8ff" d="M587.03,-541.85C580.13,-508.03 555.7,-388.35 545.94,-340.55"/>
<polygon fill="#63b8ff" stroke="#63b8ff" points="549.39,-339.92 543.96,-330.82 542.53,-341.32 549.39,-339.92"/>
</a>
</g>
</g>
<!-- Node29 -->
<g id="Node000029" class="node">
<title>Node29</title>
<g id="a_Node000029"><a xlink:href="../../dd/db9/length_8h.html" target="_top" xlink:title="A one&#45;dimensional distance with associated unit of measurement.">
<polygon fill="white" stroke="#666666" points="788.12,-384.5 671.62,-384.5 671.62,-365.25 788.12,-365.25 788.12,-384.5"/>
<text text-anchor="middle" x="729.88" y="-370.05" font-family="Arial" font-size="11.00">floppy/euclid/length.h</text>
</a>
</g>
</g>
<!-- Node1&#45;&gt;Node29 -->
<g id="edge36_Node000001_Node000029" class="edge">
<title>Node1&#45;&gt;Node29</title>
<g id="a_edge36_Node000001_Node000029"><a xlink:title=" ">
<path fill="none" stroke="#63b8ff" d="M596.06,-541.96C618.21,-514.46 685.74,-430.65 715.52,-393.7"/>
<polygon fill="#63b8ff" stroke="#63b8ff" points="718.04,-396.15 721.58,-386.16 712.59,-391.76 718.04,-396.15"/>
</a>
</g>
</g>
<!-- Node31 -->
<g id="Node000031" class="node">
<title>Node31</title>
<g id="a_Node000031"><a xlink:href="../../dc/df8/size2d_8h.html" target="_top" xlink:title="A two&#45;dimensional size tagged with a unit.">
<polygon fill="white" stroke="#666666" points="788.88,-506.25 670.88,-506.25 670.88,-487 788.88,-487 788.88,-506.25"/>
<text text-anchor="middle" x="729.88" y="-491.8" font-family="Arial" font-size="11.00">floppy/euclid/size2d.h</text>
</a>
</g>
</g>
<!-- Node1&#45;&gt;Node31 -->
<g id="edge42_Node000001_Node000031" class="edge">
<title>Node1&#45;&gt;Node31</title>
<g id="a_edge42_Node000001_Node000031"><a xlink:title=" ">
<path fill="none" stroke="#63b8ff" d="M612.79,-541.84C635.38,-533.31 669.51,-520.42 695.1,-510.76"/>
<polygon fill="#63b8ff" stroke="#63b8ff" points="696.3,-514.04 704.42,-507.24 693.83,-507.5 696.3,-514.04"/>
</a>
</g>
</g>
<!-- Node32 -->
<g id="Node000032" class="node">
<title>Node32</title>
<g id="a_Node000032"><a xlink:href="../../da/d53/nt__traits2d_8h_source.html" target="_top" xlink:title=" ">
<polygon fill="white" stroke="#666666" points="972.75,-451 869,-451 869,-420.5 972.75,-420.5 972.75,-451"/>
<text text-anchor="start" x="877" y="-436.55" font-family="Arial" font-size="11.00">floppy/euclid/detail</text>
<text text-anchor="middle" x="920.88" y="-425.3" font-family="Arial" font-size="11.00">/nt_traits2d.h</text>
</a>
</g>
</g>
<!-- Node1&#45;&gt;Node32 -->
<g id="edge53_Node000001_Node000032" class="edge">
<title>Node1&#45;&gt;Node32</title>
<g id="a_edge53_Node000001_Node000032"><a xlink:title=" ">
<path fill="none" stroke="#63b8ff" d="M622.34,-546.92C664.37,-541.24 738.2,-528.87 797.88,-506.25 831.13,-493.64 866.18,-473.02 890.32,-457.5"/>
<polygon fill="#63b8ff" stroke="#63b8ff" points="891.92,-460.64 898.38,-452.24 888.09,-454.78 891.92,-460.64"/>
</a>
</g>
</g>
<!-- Node4 -->
<g id="Node000004" class="node">
<title>Node4</title>
<g id="a_Node000004"><a xlink:href="../../df/db1/math_8h_source.html" target="_top" xlink:title=" ">
<polygon fill="white" stroke="#666666" points="738.38,-207.5 629.38,-207.5 629.38,-188.25 738.38,-188.25 738.38,-207.5"/>
<text text-anchor="middle" x="683.88" y="-193.05" font-family="Arial" font-size="11.00">floppy/detail/math.h</text>
</a>
</g>
</g>
<!-- Node3&#45;&gt;Node4 -->
<g id="edge3_Node000003_Node000004" class="edge">
<title>Node3&#45;&gt;Node4</title>
<g id="a_edge3_Node000003_Node000004"><a xlink:title=" ">
<path fill="none" stroke="#63b8ff" d="M549.11,-309.6C561.29,-294.74 587.08,-264.68 612.88,-243.5 626.59,-232.24 643.35,-221.58 657.14,-213.51"/>
<polygon fill="#63b8ff" stroke="#63b8ff" points="658.74,-216.62 665.69,-208.62 655.27,-210.54 658.74,-216.62"/>
</a>
</g>
</g>
<!-- Node22 -->
<g id="Node000022" class="node">
<title>Node22</title>
<g id="a_Node000022"><a xlink:href="../../dd/dff/traits_8h_source.html" target="_top" xlink:title=" ">
<polygon fill="white" stroke="#666666" points="367.75,-207.5 288,-207.5 288,-188.25 367.75,-188.25 367.75,-207.5"/>
<text text-anchor="middle" x="327.88" y="-193.05" font-family="Arial" font-size="11.00">floppy/traits.h</text>
</a>
</g>
</g>
<!-- Node3&#45;&gt;Node22 -->
<g id="edge23_Node000003_Node000022" class="edge">
<title>Node3&#45;&gt;Node22</title>
<g id="a_edge23_Node000003_Node000022"><a xlink:title=" ">
<path fill="none" stroke="#63b8ff" d="M525.79,-309.62C489.07,-289.08 398.82,-238.57 354,-213.49"/>
<polygon fill="#63b8ff" stroke="#63b8ff" points="355.9,-210.55 345.47,-208.72 352.48,-216.66 355.9,-210.55"/>
</a>
</g>
</g>
<!-- Node28 -->
<g id="Node000028" class="node">
<title>Node28</title>
<g id="a_Node000028"><a xlink:href="../../de/de1/nt__traits_8h_source.html" target="_top" xlink:title=" ">
<polygon fill="white" stroke="#666666" points="834.75,-274 731,-274 731,-243.5 834.75,-243.5 834.75,-274"/>
<text text-anchor="start" x="739" y="-259.55" font-family="Arial" font-size="11.00">floppy/euclid/detail</text>
<text text-anchor="middle" x="782.88" y="-248.3" font-family="Arial" font-size="11.00">/nt_traits.h</text>
</a>
</g>
</g>
<!-- Node3&#45;&gt;Node28 -->
<g id="edge33_Node000003_Node000028" class="edge">
<title>Node3&#45;&gt;Node28</title>
<g id="a_edge33_Node000003_Node000028"><a xlink:title=" ">
<path fill="none" stroke="#63b8ff" d="M579,-309.55C616.49,-300.4 675.1,-286.08 719.87,-275.14"/>
<polygon fill="#63b8ff" stroke="#63b8ff" points="720.58,-278.57 729.47,-272.8 718.92,-271.77 720.58,-278.57"/>
</a>
</g>
</g>
<!-- Node5 -->
<g id="Node000005" class="node">
<title>Node5</title>
<g id="a_Node000005"><a xlink:title=" ">
<polygon fill="#e0e0e0" stroke="#999999" points="741.5,-146.62 696.25,-146.62 696.25,-127.38 741.5,-127.38 741.5,-146.62"/>
<text text-anchor="middle" x="718.88" y="-132.18" font-family="Arial" font-size="11.00">cmath</text>
</a>
</g>
</g>
<!-- Node4&#45;&gt;Node5 -->
<g id="edge4_Node000004_Node000005" class="edge">
<title>Node4&#45;&gt;Node5</title>
<g id="a_edge4_Node000004_Node000005"><a xlink:title=" ">
<path fill="none" stroke="#63b8ff" d="M689.19,-187.93C694.07,-179.72 701.47,-167.28 707.65,-156.87"/>
<polygon fill="#63b8ff" stroke="#63b8ff" points="710.63,-158.71 712.74,-148.33 704.62,-155.13 710.63,-158.71"/>
</a>
</g>
</g>
<!-- Node6 -->
<g id="Node000006" class="node">
<title>Node6</title>
<g id="a_Node000006"><a xlink:title=" ">
<polygon fill="#e0e0e0" stroke="#999999" points="799.88,-146.62 759.88,-146.62 759.88,-127.38 799.88,-127.38 799.88,-146.62"/>
<text text-anchor="middle" x="779.88" y="-132.18" font-family="Arial" font-size="11.00">limits</text>
</a>
</g>
</g>
<!-- Node4&#45;&gt;Node6 -->
<g id="edge5_Node000004_Node000006" class="edge">
<title>Node4&#45;&gt;Node6</title>
<g id="a_edge5_Node000004_Node000006"><a xlink:title=" ">
<path fill="none" stroke="#63b8ff" d="M698.46,-187.93C713.54,-178.68 737.36,-164.07 755.35,-153.04"/>
<polygon fill="#63b8ff" stroke="#63b8ff" points="757.17,-156.03 763.87,-147.82 753.51,-150.06 757.17,-156.03"/>
</a>
</g>
</g>
<!-- Node7 -->
<g id="Node000007" class="node">
<title>Node7</title>
<g id="a_Node000007"><a xlink:title=" ">
<polygon fill="#e0e0e0" stroke="#999999" points="601.88,-146.62 543.88,-146.62 543.88,-127.38 601.88,-127.38 601.88,-146.62"/>
<text text-anchor="middle" x="572.88" y="-132.18" font-family="Arial" font-size="11.00">numbers</text>
</a>
</g>
</g>
<!-- Node4&#45;&gt;Node7 -->
<g id="edge6_Node000004_Node000007" class="edge">
<title>Node4&#45;&gt;Node7</title>
<g id="a_edge6_Node000004_Node000007"><a xlink:title=" ">
<path fill="none" stroke="#63b8ff" d="M667.02,-187.93C649.17,-178.47 620.74,-163.39 599.78,-152.27"/>
<polygon fill="#63b8ff" stroke="#63b8ff" points="601.7,-149.33 591.23,-147.74 598.42,-155.51 601.7,-149.33"/>
</a>
</g>
</g>
<!-- Node8 -->
<g id="Node000008" class="node">
<title>Node8</title>
<g id="a_Node000008"><a xlink:title=" ">
<polygon fill="#e0e0e0" stroke="#999999" points="677.88,-146.62 619.88,-146.62 619.88,-127.38 677.88,-127.38 677.88,-146.62"/>
<text text-anchor="middle" x="648.88" y="-132.18" font-family="Arial" font-size="11.00">compare</text>
</a>
</g>
</g>
<!-- Node4&#45;&gt;Node8 -->
<g id="edge7_Node000004_Node000008" class="edge">
<title>Node4&#45;&gt;Node8</title>
<g id="a_edge7_Node000004_Node000008"><a xlink:title=" ">
<path fill="none" stroke="#63b8ff" d="M678.56,-187.93C673.68,-179.72 666.28,-167.28 660.1,-156.87"/>
<polygon fill="#63b8ff" stroke="#63b8ff" points="663.13,-155.13 655.01,-148.33 657.12,-158.71 663.13,-155.13"/>
</a>
</g>
</g>
<!-- Node9 -->
<g id="Node000009" class="node">
<title>Node9</title>
<g id="a_Node000009"><a xlink:href="../../db/db5/export_8h_source.html" target="_top" xlink:title=" ">
<polygon fill="white" stroke="#666666" points="525.38,-146.62 410.38,-146.62 410.38,-127.38 525.38,-127.38 525.38,-146.62"/>
<text text-anchor="middle" x="467.88" y="-132.18" font-family="Arial" font-size="11.00">floppy/detail/export.h</text>
</a>
</g>
</g>
<!-- Node4&#45;&gt;Node9 -->
<g id="edge8_Node000004_Node000009" class="edge">
<title>Node4&#45;&gt;Node9</title>
<g id="a_edge8_Node000004_Node000009"><a xlink:title=" ">
<path fill="none" stroke="#63b8ff" d="M650.6,-187.8C613.5,-177.69 553.32,-161.29 512.24,-150.09"/>
<polygon fill="#63b8ff" stroke="#63b8ff" points="513.22,-146.73 502.65,-147.48 511.38,-153.49 513.22,-146.73"/>
</a>
</g>
</g>
<!-- Node14 -->
<g id="Node000014" class="node">
<title>Node14</title>
<g id="a_Node000014"><a xlink:href="../../d9/db1/concepts_8h_source.html" target="_top" xlink:title=" ">
<polygon fill="white" stroke="#666666" points="945.75,-146.62 818,-146.62 818,-127.38 945.75,-127.38 945.75,-146.62"/>
<text text-anchor="middle" x="881.88" y="-132.18" font-family="Arial" font-size="11.00">floppy/detail/concepts.h</text>
</a>
</g>
</g>
<!-- Node4&#45;&gt;Node14 -->
<g id="edge13_Node000004_Node000014" class="edge">
<title>Node4&#45;&gt;Node14</title>
<g id="a_edge13_Node000004_Node000014"><a xlink:title=" ">
<path fill="none" stroke="#63b8ff" d="M714.38,-187.8C748.24,-177.74 803.08,-161.43 840.73,-150.24"/>
<polygon fill="#63b8ff" stroke="#63b8ff" points="841.3,-153.72 849.89,-147.51 839.3,-147.01 841.3,-153.72"/>
</a>
</g>
</g>
<!-- Node10 -->
<g id="Node000010" class="node">
<title>Node10</title>
<g id="a_Node000010"><a xlink:title=" ">
<polygon fill="#e0e0e0" stroke="#999999" points="464,-80.12 421.75,-80.12 421.75,-60.88 464,-60.88 464,-80.12"/>
<text text-anchor="middle" x="442.88" y="-65.67" font-family="Arial" font-size="11.00">string</text>
</a>
</g>
</g>
<!-- Node9&#45;&gt;Node10 -->
<g id="edge9_Node000009_Node000010" class="edge">
<title>Node9&#45;&gt;Node10</title>
<g id="a_edge9_Node000009_Node000010"><a xlink:title=" ">
<path fill="none" stroke="#63b8ff" d="M464.4,-127.03C460.78,-117.69 455,-102.78 450.34,-90.76"/>
<polygon fill="#63b8ff" stroke="#63b8ff" points="453.75,-89.86 446.87,-81.8 447.22,-92.39 453.75,-89.86"/>
</a>
</g>
</g>
<!-- Node11 -->
<g id="Node000011" class="node">
<title>Node11</title>
<g id="a_Node000011"><a xlink:title=" ">
<polygon fill="#e0e0e0" stroke="#999999" points="306.88,-80.12 236.88,-80.12 236.88,-60.88 306.88,-60.88 306.88,-80.12"/>
<text text-anchor="middle" x="271.88" y="-65.67" font-family="Arial" font-size="11.00">string_view</text>
</a>
</g>
</g>
<!-- Node9&#45;&gt;Node11 -->
<g id="edge10_Node000009_Node000011" class="edge">
<title>Node9&#45;&gt;Node11</title>
<g id="a_edge10_Node000009_Node000011"><a xlink:title=" ">
<path fill="none" stroke="#63b8ff" d="M440.21,-126.9C406.21,-115.71 348.34,-96.66 310.11,-84.08"/>
<polygon fill="#63b8ff" stroke="#63b8ff" points="311.43,-80.83 300.84,-81.03 309.24,-87.48 311.43,-80.83"/>
</a>
</g>
</g>
<!-- Node12 -->
<g id="Node000012" class="node">
<title>Node12</title>
<g id="a_Node000012"><a xlink:title=" ">
<polygon fill="#e0e0e0" stroke="#999999" points="396.5,-80.12 339.25,-80.12 339.25,-60.88 396.5,-60.88 396.5,-80.12"/>
<text text-anchor="middle" x="367.88" y="-65.67" font-family="Arial" font-size="11.00">iostream</text>
</a>
</g>
</g>
<!-- Node9&#45;&gt;Node12 -->
<g id="edge11_Node000009_Node000012" class="edge">
<title>Node9&#45;&gt;Node12</title>
<g id="a_edge11_Node000009_Node000012"><a xlink:title=" ">
<path fill="none" stroke="#63b8ff" d="M453.97,-127.03C437.87,-116.64 411.07,-99.36 391.64,-86.83"/>
<polygon fill="#63b8ff" stroke="#63b8ff" points="393.56,-83.9 383.26,-81.42 389.76,-89.78 393.56,-83.9"/>
</a>
</g>
</g>
<!-- Node13 -->
<g id="Node000013" class="node">
<title>Node13</title>
<g id="a_Node000013"><a xlink:title=" ">
<polygon fill="#e0e0e0" stroke="#999999" points="528.75,-19.25 455,-19.25 455,0 528.75,0 528.75,-19.25"/>
<text text-anchor="middle" x="491.88" y="-4.8" font-family="Arial" font-size="11.00">fmt/format.h</text>
</a>
</g>
</g>
<!-- Node9&#45;&gt;Node13 -->
<g id="edge12_Node000009_Node000013" class="edge">
<title>Node9&#45;&gt;Node13</title>
<g id="a_edge12_Node000009_Node000013"><a xlink:title=" ">
<path fill="none" stroke="#63b8ff" d="M469.6,-126.98C473.44,-106.92 482.77,-58.2 488.05,-30.58"/>
<polygon fill="#63b8ff" stroke="#63b8ff" points="491.44,-31.53 489.88,-21.05 484.56,-30.21 491.44,-31.53"/>
</a>
</g>
</g>
<!-- Node15 -->
<g id="Node000015" class="node">
<title>Node15</title>
<g id="a_Node000015"><a xlink:title=" ">
<polygon fill="#e0e0e0" stroke="#999999" points="863.25,-80.12 804.5,-80.12 804.5,-60.88 863.25,-60.88 863.25,-80.12"/>
<text text-anchor="middle" x="833.88" y="-65.67" font-family="Arial" font-size="11.00">concepts</text>
</a>
</g>
</g>
<!-- Node14&#45;&gt;Node15 -->
<g id="edge14_Node000014_Node000015" class="edge">
<title>Node14&#45;&gt;Node15</title>
<g id="a_edge14_Node000014_Node000015"><a xlink:title=" ">
<path fill="none" stroke="#63b8ff" d="M875.2,-127.03C867.96,-117.31 856.23,-101.54 847.11,-89.28"/>
<polygon fill="#63b8ff" stroke="#63b8ff" points="850.17,-87.54 841.4,-81.61 844.56,-91.72 850.17,-87.54"/>
</a>
</g>
</g>
<!-- Node16 -->
<g id="Node000016" class="node">
<title>Node16</title>
<g id="a_Node000016"><a xlink:href="../../df/d63/type__traits_8h_source.html" target="_top" xlink:title=" ">
<polygon fill="white" stroke="#666666" points="978,-85.75 881.75,-85.75 881.75,-55.25 978,-55.25 978,-85.75"/>
<text text-anchor="start" x="889.75" y="-71.3" font-family="Arial" font-size="11.00">floppy/detail/type</text>
<text text-anchor="middle" x="929.88" y="-60.05" font-family="Arial" font-size="11.00">_traits.h</text>
</a>
</g>
</g>
<!-- Node14&#45;&gt;Node16 -->
<g id="edge15_Node000014_Node000016" class="edge">
<title>Node14&#45;&gt;Node16</title>
<g id="a_edge15_Node000014_Node000016"><a xlink:title=" ">
<path fill="none" stroke="#63b8ff" d="M888.55,-127.03C894.69,-118.79 904.06,-106.19 912.33,-95.08"/>
<polygon fill="#63b8ff" stroke="#63b8ff" points="915.13,-97.17 918.3,-87.06 909.52,-92.99 915.13,-97.17"/>
</a>
</g>
</g>
<!-- Node18 -->
<g id="Node000018" class="node">
<title>Node18</title>
<g id="a_Node000018"><a xlink:href="../../d9/d49/types_8h_source.html" target="_top" xlink:title=" ">
<polygon fill="white" stroke="#666666" points="786.12,-80.12 675.62,-80.12 675.62,-60.88 786.12,-60.88 786.12,-80.12"/>
<text text-anchor="middle" x="730.88" y="-65.67" font-family="Arial" font-size="11.00">floppy/detail/types.h</text>
</a>
</g>
</g>
<!-- Node14&#45;&gt;Node18 -->
<g id="edge17_Node000014_Node000018" class="edge">
<title>Node14&#45;&gt;Node18</title>
<g id="a_edge17_Node000014_Node000018"><a xlink:title=" ">
<path fill="none" stroke="#63b8ff" d="M860.56,-126.9C835.04,-116 792.07,-97.64 762.63,-85.07"/>
<polygon fill="#63b8ff" stroke="#63b8ff" points="764.04,-81.86 753.47,-81.15 761.29,-88.3 764.04,-81.86"/>
</a>
</g>
</g>
<!-- Node17 -->
<g id="Node000017" class="node">
<title>Node17</title>
<g id="a_Node000017"><a xlink:title=" ">
<polygon fill="#e0e0e0" stroke="#999999" points="935.62,-19.25 870.12,-19.25 870.12,0 935.62,0 935.62,-19.25"/>
<text text-anchor="middle" x="902.88" y="-4.8" font-family="Arial" font-size="11.00">type_traits</text>
</a>
</g>
</g>
<!-- Node16&#45;&gt;Node17 -->
<g id="edge16_Node000016_Node000017" class="edge">
<title>Node16&#45;&gt;Node17</title>
<g id="a_edge16_Node000016_Node000017"><a xlink:title=" ">
<path fill="none" stroke="#63b8ff" d="M923.2,-54.95C919.76,-47.45 915.52,-38.2 911.8,-30.1"/>
<polygon fill="#63b8ff" stroke="#63b8ff" points="915.02,-28.71 907.67,-21.08 908.66,-31.63 915.02,-28.71"/>
</a>
</g>
</g>
<!-- Node18&#45;&gt;Node13 -->
<g id="edge22_Node000018_Node000013" class="edge">
<title>Node18&#45;&gt;Node13</title>
<g id="a_edge22_Node000018_Node000013"><a xlink:title=" ">
<path fill="none" stroke="#63b8ff" d="M694.06,-60.43C652.65,-50.23 585.27,-33.63 539.8,-22.43"/>
<polygon fill="#63b8ff" stroke="#63b8ff" points="540.75,-19.06 530.21,-20.07 539.08,-25.86 540.75,-19.06"/>
</a>
</g>
</g>
<!-- Node18&#45;&gt;Node17 -->
<g id="edge21_Node000018_Node000017" class="edge">
<title>Node18&#45;&gt;Node17</title>
<g id="a_edge21_Node000018_Node000017"><a xlink:title=" ">
<path fill="none" stroke="#63b8ff" d="M757.37,-60.43C786.41,-50.49 833.21,-34.47 865.86,-23.29"/>
<polygon fill="#63b8ff" stroke="#63b8ff" points="866.59,-26.75 874.91,-20.2 864.32,-20.12 866.59,-26.75"/>
</a>
</g>
</g>
<!-- Node19 -->
<g id="Node000019" class="node">
<title>Node19</title>
<g id="a_Node000019"><a xlink:title=" ">
<polygon fill="#e0e0e0" stroke="#999999" points="826.12,-19.25 775.62,-19.25 775.62,0 826.12,0 826.12,-19.25"/>
<text text-anchor="middle" x="800.88" y="-4.8" font-family="Arial" font-size="11.00">cstddef</text>
</a>
</g>
</g>
<!-- Node18&#45;&gt;Node19 -->
<g id="edge18_Node000018_Node000019" class="edge">
<title>Node18&#45;&gt;Node19</title>
<g id="a_edge18_Node000018_Node000019"><a xlink:title=" ">
<path fill="none" stroke="#63b8ff" d="M741.51,-60.56C752.09,-51.65 768.59,-37.78 781.5,-26.92"/>
<polygon fill="#63b8ff" stroke="#63b8ff" points="783.58,-29.74 788.99,-20.63 779.08,-24.38 783.58,-29.74"/>
</a>
</g>
</g>
<!-- Node20 -->
<g id="Node000020" class="node">
<title>Node20</title>
<g id="a_Node000020"><a xlink:title=" ">
<polygon fill="#e0e0e0" stroke="#999999" points="686.25,-19.25 639.5,-19.25 639.5,0 686.25,0 686.25,-19.25"/>
<text text-anchor="middle" x="662.88" y="-4.8" font-family="Arial" font-size="11.00">cstdint</text>
</a>
</g>
</g>
<!-- Node18&#45;&gt;Node20 -->
<g id="edge19_Node000018_Node000020" class="edge">
<title>Node18&#45;&gt;Node20</title>
<g id="a_edge19_Node000018_Node000020"><a xlink:title=" ">
<path fill="none" stroke="#63b8ff" d="M720.55,-60.56C710.26,-51.65 694.24,-37.78 681.69,-26.92"/>
<polygon fill="#63b8ff" stroke="#63b8ff" points="684.3,-24.54 674.44,-20.64 679.71,-29.83 684.3,-24.54"/>
</a>
</g>
</g>
<!-- Node21 -->
<g id="Node000021" class="node">
<title>Node21</title>
<g id="a_Node000021"><a xlink:title=" ">
<polygon fill="#e0e0e0" stroke="#999999" points="757.62,-19.25 704.12,-19.25 704.12,0 757.62,0 757.62,-19.25"/>
<text text-anchor="middle" x="730.88" y="-4.8" font-family="Arial" font-size="11.00">optional</text>
</a>
</g>
</g>
<!-- Node18&#45;&gt;Node21 -->
<g id="edge20_Node000018_Node000021" class="edge">
<title>Node18&#45;&gt;Node21</title>
<g id="a_edge20_Node000018_Node000021"><a xlink:title=" ">
<path fill="none" stroke="#63b8ff" d="M730.88,-60.56C730.88,-52.78 730.88,-41.2 730.88,-31.16"/>
<polygon fill="#63b8ff" stroke="#63b8ff" points="734.38,-31.16 730.88,-21.16 727.38,-31.16 734.38,-31.16"/>
</a>
</g>
</g>
<!-- Node22&#45;&gt;Node9 -->
<g id="edge27_Node000022_Node000009" class="edge">
<title>Node22&#45;&gt;Node9</title>
<g id="a_edge27_Node000022_Node000009"><a xlink:title=" ">
<path fill="none" stroke="#63b8ff" d="M349.44,-187.8C372.63,-178.05 409.73,-162.45 436.23,-151.31"/>
<polygon fill="#63b8ff" stroke="#63b8ff" points="437.26,-154.67 445.12,-147.57 434.54,-148.22 437.26,-154.67"/>
</a>
</g>
</g>
<!-- Node22&#45;&gt;Node12 -->
<g id="edge25_Node000022_Node000012" class="edge">
<title>Node22&#45;&gt;Node12</title>
<g id="a_edge25_Node000022_Node000012"><a xlink:title=" ">
<path fill="none" stroke="#63b8ff" d="M287.94,-191.69C234.41,-183.07 149.53,-162.55 180.88,-121.75 218.71,-72.51 255.93,-101.96 315.88,-85.75 319.86,-84.67 324.01,-83.54 328.16,-82.41"/>
<polygon fill="#63b8ff" stroke="#63b8ff" points="328.82,-85.86 337.54,-79.85 326.98,-79.11 328.82,-85.86"/>
</a>
</g>
</g>
<!-- Node23 -->
<g id="Node000023" class="node">
<title>Node23</title>
<g id="a_Node000023"><a xlink:title=" ">
<polygon fill="#e0e0e0" stroke="#999999" points="245.38,-146.62 190.38,-146.62 190.38,-127.38 245.38,-127.38 245.38,-146.62"/>
<text text-anchor="middle" x="217.88" y="-132.18" font-family="Arial" font-size="11.00">memory</text>
</a>
</g>
</g>
<!-- Node22&#45;&gt;Node23 -->
<g id="edge24_Node000022_Node000023" class="edge">
<title>Node22&#45;&gt;Node23</title>
<g id="a_edge24_Node000022_Node000023"><a xlink:title=" ">
<path fill="none" stroke="#63b8ff" d="M311.17,-187.93C293.56,-178.51 265.56,-163.52 244.83,-152.43"/>
<polygon fill="#63b8ff" stroke="#63b8ff" points="246.54,-149.37 236.07,-147.74 243.24,-155.54 246.54,-149.37"/>
</a>
</g>
</g>
<!-- Node24 -->
<g id="Node000024" class="node">
<title>Node24</title>
<g id="a_Node000024"><a xlink:title=" ">
<polygon fill="#e0e0e0" stroke="#999999" points="392.5,-152.25 263.25,-152.25 263.25,-121.75 392.5,-121.75 392.5,-152.25"/>
<text text-anchor="start" x="271.25" y="-137.8" font-family="Arial" font-size="11.00">experimental/propagate</text>
<text text-anchor="middle" x="327.88" y="-126.55" font-family="Arial" font-size="11.00">_const</text>
</a>
</g>
</g>
<!-- Node22&#45;&gt;Node24 -->
<g id="edge26_Node000022_Node000024" class="edge">
<title>Node22&#45;&gt;Node24</title>
<g id="a_edge26_Node000022_Node000024"><a xlink:title=" ">
<path fill="none" stroke="#63b8ff" d="M327.88,-187.93C327.88,-181.48 327.88,-172.41 327.88,-163.76"/>
<polygon fill="#63b8ff" stroke="#63b8ff" points="331.38,-164.05 327.88,-154.05 324.38,-164.05 331.38,-164.05"/>
</a>
</g>
</g>
<!-- Node25 -->
<g id="Node000025" class="node">
<title>Node25</title>
<g id="a_Node000025"><a xlink:href="../../d6/d45/formatters_8h_source.html" target="_top" xlink:title=" ">
<polygon fill="white" stroke="#666666" points="133.75,-146.62 0,-146.62 0,-127.38 133.75,-127.38 133.75,-146.62"/>
<text text-anchor="middle" x="66.88" y="-132.18" font-family="Arial" font-size="11.00">floppy/detail/formatters.h</text>
</a>
</g>
</g>
<!-- Node22&#45;&gt;Node25 -->
<g id="edge28_Node000022_Node000025" class="edge">
<title>Node22&#45;&gt;Node25</title>
<g id="a_edge28_Node000022_Node000025"><a xlink:title=" ">
<path fill="none" stroke="#63b8ff" d="M287.67,-187.8C242.16,-177.54 167.94,-160.8 118.26,-149.59"/>
<polygon fill="#63b8ff" stroke="#63b8ff" points="119.13,-146.2 108.61,-147.41 117.59,-153.03 119.13,-146.2"/>
</a>
</g>
</g>
<!-- Node25&#45;&gt;Node11 -->
<g id="edge29_Node000025_Node000011" class="edge">
<title>Node25&#45;&gt;Node11</title>
<g id="a_edge29_Node000025_Node000011"><a xlink:title=" ">
<path fill="none" stroke="#63b8ff" d="M95.81,-126.9C131.45,-115.68 192.16,-96.58 232.14,-84"/>
<polygon fill="#63b8ff" stroke="#63b8ff" points="233.15,-87.35 241.64,-81.01 231.05,-80.68 233.15,-87.35"/>
</a>
</g>
</g>
<!-- Node25&#45;&gt;Node13 -->
<g id="edge32_Node000025_Node000013" class="edge">
<title>Node25&#45;&gt;Node13</title>
<g id="a_edge32_Node000025_Node000013"><a xlink:title=" ">
<path fill="none" stroke="#63b8ff" d="M62.1,-126.89C54.17,-110.35 40.85,-75.23 58.88,-55.25 84.25,-27.13 335.44,-15.68 443.2,-12.04"/>
<polygon fill="#63b8ff" stroke="#63b8ff" points="443.3,-15.54 453.18,-11.72 443.07,-8.55 443.3,-15.54"/>
</a>
</g>
</g>
<!-- Node26 -->
<g id="Node000026" class="node">
<title>Node26</title>
<g id="a_Node000026"><a xlink:title=" ">
<polygon fill="#e0e0e0" stroke="#999999" points="122,-80.12 67.75,-80.12 67.75,-60.88 122,-60.88 122,-80.12"/>
<text text-anchor="middle" x="94.88" y="-65.67" font-family="Arial" font-size="11.00">sstream</text>
</a>
</g>
</g>
<!-- Node25&#45;&gt;Node26 -->
<g id="edge30_Node000025_Node000026" class="edge">
<title>Node25&#45;&gt;Node26</title>
<g id="a_edge30_Node000025_Node000026"><a xlink:title=" ">
<path fill="none" stroke="#63b8ff" d="M70.77,-127.03C74.82,-117.69 81.3,-102.78 86.52,-90.76"/>
<polygon fill="#63b8ff" stroke="#63b8ff" points="89.64,-92.35 90.41,-81.78 83.22,-89.56 89.64,-92.35"/>
</a>
</g>
</g>
<!-- Node27 -->
<g id="Node000027" class="node">
<title>Node27</title>
<g id="a_Node000027"><a xlink:title=" ">
<polygon fill="#e0e0e0" stroke="#999999" points="187.25,-80.12 140.5,-80.12 140.5,-60.88 187.25,-60.88 187.25,-80.12"/>
<text text-anchor="middle" x="163.88" y="-65.67" font-family="Arial" font-size="11.00">iosfwd</text>
</a>
</g>
</g>
<!-- Node25&#45;&gt;Node27 -->
<g id="edge31_Node000025_Node000027" class="edge">
<title>Node25&#45;&gt;Node27</title>
<g id="a_edge31_Node000025_Node000027"><a xlink:title=" ">
<path fill="none" stroke="#63b8ff" d="M80.36,-127.03C95.98,-116.64 121.98,-99.36 140.82,-86.83"/>
<polygon fill="#63b8ff" stroke="#63b8ff" points="142.54,-89.89 148.93,-81.44 138.66,-84.06 142.54,-89.89"/>
</a>
</g>
</g>
<!-- Node28&#45;&gt;Node4 -->
<g id="edge34_Node000028_Node000004" class="edge">
<title>Node28&#45;&gt;Node4</title>
<g id="a_edge34_Node000028_Node000004"><a xlink:title=" ">
<path fill="none" stroke="#63b8ff" d="M758.15,-243.05C743.07,-234.08 723.86,-222.66 708.76,-213.67"/>
<polygon fill="#63b8ff" stroke="#63b8ff" points="710.74,-210.78 700.36,-208.68 707.16,-216.8 710.74,-210.78"/>
</a>
</g>
</g>
<!-- Node28&#45;&gt;Node14 -->
<g id="edge35_Node000028_Node000014" class="edge">
<title>Node28&#45;&gt;Node14</title>
<g id="a_edge35_Node000028_Node000014"><a xlink:title=" ">
<path fill="none" stroke="#63b8ff" d="M795.01,-243.07C813.26,-221 847.69,-179.36 867.27,-155.66"/>
<polygon fill="#63b8ff" stroke="#63b8ff" points="869.81,-158.09 873.48,-148.15 864.41,-153.63 869.81,-158.09"/>
</a>
</g>
</g>
<!-- Node29&#45;&gt;Node28 -->
<g id="edge41_Node000029_Node000028" class="edge">
<title>Node29&#45;&gt;Node28</title>
<g id="a_edge41_Node000029_Node000028"><a xlink:title=" ">
<path fill="none" stroke="#63b8ff" d="M743.27,-364.99C754.06,-357.01 768.61,-344.27 775.88,-329.25 782.34,-315.88 784.22,-299.39 784.43,-285.83"/>
<polygon fill="#63b8ff" stroke="#63b8ff" points="787.93,-285.82 784.25,-275.88 780.93,-285.94 787.93,-285.82"/>
</a>
</g>
</g>
<!-- Node30 -->
<g id="Node000030" class="node">
<title>Node30</title>
<g id="a_Node000030"><a xlink:href="../../d8/d0c/scale_8h.html" target="_top" xlink:title="A scaling factor between two different units of measurement.">
<polygon fill="white" stroke="#666666" points="766.88,-329.25 654.88,-329.25 654.88,-310 766.88,-310 766.88,-329.25"/>
<text text-anchor="middle" x="710.88" y="-314.8" font-family="Arial" font-size="11.00">floppy/euclid/scale.h</text>
</a>
</g>
</g>
<!-- Node29&#45;&gt;Node30 -->
<g id="edge37_Node000029_Node000030" class="edge">
<title>Node29&#45;&gt;Node30</title>
<g id="a_edge37_Node000029_Node000030"><a xlink:title=" ">
<path fill="none" stroke="#63b8ff" d="M726.74,-365.08C724.33,-358.34 720.92,-348.77 717.87,-340.24"/>
<polygon fill="#63b8ff" stroke="#63b8ff" points="721.25,-339.28 714.59,-331.03 714.65,-341.63 721.25,-339.28"/>
</a>
</g>
</g>
<!-- Node30&#45;&gt;Node4 -->
<g id="edge38_Node000030_Node000004" class="edge">
<title>Node30&#45;&gt;Node4</title>
<g id="a_edge38_Node000030_Node000004"><a xlink:title=" ">
<path fill="none" stroke="#63b8ff" d="M708.85,-309.62C704.53,-290.47 694.33,-245.26 688.39,-218.9"/>
<polygon fill="#63b8ff" stroke="#63b8ff" points="691.87,-218.44 686.26,-209.46 685.05,-219.98 691.87,-218.44"/>
</a>
</g>
</g>
<!-- Node30&#45;&gt;Node22 -->
<g id="edge39_Node000030_Node000022" class="edge">
<title>Node30&#45;&gt;Node22</title>
<g id="a_edge39_Node000030_Node000022"><a xlink:title=" ">
<path fill="none" stroke="#63b8ff" d="M681.77,-309.53C613.89,-288.3 444.97,-235.49 367.65,-211.31"/>
<polygon fill="#63b8ff" stroke="#63b8ff" points="368.97,-208.06 358.38,-208.41 366.88,-214.74 368.97,-208.06"/>
</a>
</g>
</g>
<!-- Node30&#45;&gt;Node28 -->
<g id="edge40_Node000030_Node000028" class="edge">
<title>Node30&#45;&gt;Node28</title>
<g id="a_edge40_Node000030_Node000028"><a xlink:title=" ">
<path fill="none" stroke="#63b8ff" d="M721.81,-309.68C730.96,-302.2 744.41,-291.2 756.36,-281.43"/>
<polygon fill="#63b8ff" stroke="#63b8ff" points="758.41,-284.28 763.93,-275.24 753.97,-278.86 758.41,-284.28"/>
</a>
</g>
</g>
<!-- Node31&#45;&gt;Node4 -->
<g id="edge43_Node000031_Node000004" class="edge">
<title>Node31&#45;&gt;Node4</title>
<g id="a_edge43_Node000031_Node000004"><a xlink:title=" ">
<path fill="none" stroke="#63b8ff" d="M713.33,-486.52C684.21,-469.13 626.88,-428.25 626.88,-375.88 626.88,-375.88 626.88,-375.88 626.88,-318.62 626.88,-279.29 652.26,-239.13 669.15,-216.76"/>
<polygon fill="#63b8ff" stroke="#63b8ff" points="671.83,-219.01 675.25,-208.99 666.32,-214.69 671.83,-219.01"/>
</a>
</g>
</g>
<!-- Node31&#45;&gt;Node14 -->
<g id="edge44_Node000031_Node000014" class="edge">
<title>Node31&#45;&gt;Node14</title>
<g id="a_edge44_Node000031_Node000014"><a xlink:title=" ">
<path fill="none" stroke="#63b8ff" d="M735.88,-486.65C748.18,-468.07 776.79,-423.82 796.88,-384.5 821.16,-336.98 826.21,-324.36 843.88,-274 858.09,-233.46 870.65,-184.69 877.16,-157.96"/>
<polygon fill="#63b8ff" stroke="#63b8ff" points="880.5,-159.05 879.43,-148.51 873.69,-157.42 880.5,-159.05"/>
</a>
</g>
</g>
<!-- Node31&#45;&gt;Node29 -->
<g id="edge45_Node000031_Node000029" class="edge">
<title>Node31&#45;&gt;Node29</title>
<g id="a_edge45_Node000031_Node000029"><a xlink:title=" ">
<path fill="none" stroke="#63b8ff" d="M729.88,-486.62C729.88,-467.55 729.88,-422.66 729.88,-396.26"/>
<polygon fill="#63b8ff" stroke="#63b8ff" points="733.38,-396.49 729.88,-386.49 726.38,-396.49 733.38,-396.49"/>
</a>
</g>
</g>
<!-- Node31&#45;&gt;Node32 -->
<g id="edge46_Node000031_Node000032" class="edge">
<title>Node31&#45;&gt;Node32</title>
<g id="a_edge46_Node000031_Node000032"><a xlink:title=" ">
<path fill="none" stroke="#63b8ff" d="M759.3,-486.55C786.68,-478.11 828.28,-465.29 862.41,-454.77"/>
<polygon fill="#63b8ff" stroke="#63b8ff" points="863.23,-458.18 871.76,-451.89 861.17,-451.49 863.23,-458.18"/>
</a>
</g>
</g>
<!-- Node32&#45;&gt;Node28 -->
<g id="edge52_Node000032_Node000028" class="edge">
<title>Node32&#45;&gt;Node28</title>
<g id="a_edge52_Node000032_Node000028"><a xlink:title=" ">
<path fill="none" stroke="#63b8ff" d="M909.35,-420.13C885.44,-389.82 830.3,-319.89 801.36,-283.19"/>
<polygon fill="#63b8ff" stroke="#63b8ff" points="804.15,-281.08 795.21,-275.39 798.65,-285.41 804.15,-281.08"/>
</a>
</g>
</g>
<!-- Node32&#45;&gt;Node29 -->
<g id="edge51_Node000032_Node000029" class="edge">
<title>Node32&#45;&gt;Node29</title>
<g id="a_edge51_Node000032_Node000029"><a xlink:title=" ">
<path fill="none" stroke="#63b8ff" d="M873.17,-420.05C841.52,-410.29 800.44,-397.63 770.39,-388.36"/>
<polygon fill="#63b8ff" stroke="#63b8ff" points="771.48,-385.04 760.89,-385.44 769.42,-391.73 771.48,-385.04"/>
</a>
</g>
</g>
<!-- Node33 -->
<g id="Node000033" class="node">
<title>Node33</title>
<g id="a_Node000033"><a xlink:title=" ">
<polygon fill="#e0e0e0" stroke="#999999" points="1018.25,-384.5 977.5,-384.5 977.5,-365.25 1018.25,-365.25 1018.25,-384.5"/>
<text text-anchor="middle" x="997.88" y="-370.05" font-family="Arial" font-size="11.00">array</text>
</a>
</g>
</g>
<!-- Node32&#45;&gt;Node33 -->
<g id="edge47_Node000032_Node000033" class="edge">
<title>Node32&#45;&gt;Node33</title>
<g id="a_edge47_Node000032_Node000033"><a xlink:title=" ">
<path fill="none" stroke="#63b8ff" d="M939.91,-420.2C951.18,-411.58 965.48,-400.65 977.05,-391.8"/>
<polygon fill="#63b8ff" stroke="#63b8ff" points="978.98,-394.73 984.8,-385.87 974.73,-389.16 978.98,-394.73"/>
</a>
</g>
</g>
<!-- Node34 -->
<g id="Node000034" class="node">
<title>Node34</title>
<g id="a_Node000034"><a xlink:title=" ">
<polygon fill="#e0e0e0" stroke="#999999" points="1075.5,-384.5 1036.25,-384.5 1036.25,-365.25 1075.5,-365.25 1075.5,-384.5"/>
<text text-anchor="middle" x="1055.88" y="-370.05" font-family="Arial" font-size="11.00">tuple</text>
</a>
</g>
</g>
<!-- Node32&#45;&gt;Node34 -->
<g id="edge48_Node000032_Node000034" class="edge">
<title>Node32&#45;&gt;Node34</title>
<g id="a_edge48_Node000032_Node000034"><a xlink:title=" ">
<path fill="none" stroke="#63b8ff" d="M954.59,-420.05C976.41,-410.53 1004.56,-398.25 1025.65,-389.06"/>
<polygon fill="#63b8ff" stroke="#63b8ff" points="1026.81,-392.37 1034.57,-385.17 1024.01,-385.95 1026.81,-392.37"/>
</a>
</g>
</g>
<!-- Node35 -->
<g id="Node000035" class="node">
<title>Node35</title>
<g id="a_Node000035"><a xlink:title=" ">
<polygon fill="#e0e0e0" stroke="#999999" points="1133.88,-384.5 1093.88,-384.5 1093.88,-365.25 1133.88,-365.25 1133.88,-384.5"/>
<text text-anchor="middle" x="1113.88" y="-370.05" font-family="Arial" font-size="11.00">utility</text>
</a>
</g>
</g>
<!-- Node32&#45;&gt;Node35 -->
<g id="edge49_Node000032_Node000035" class="edge">
<title>Node32&#45;&gt;Node35</title>
<g id="a_edge49_Node000032_Node000035"><a xlink:title=" ">
<path fill="none" stroke="#63b8ff" d="M969.08,-420.05C1004.72,-409.17 1052.2,-394.69 1082.91,-385.32"/>
<polygon fill="#63b8ff" stroke="#63b8ff" points="1083.8,-388.71 1092.35,-382.44 1081.76,-382.01 1083.8,-388.71"/>
</a>
</g>
</g>
<!-- Node36 -->
<g id="Node000036" class="node">
<title>Node36</title>
<g id="a_Node000036"><a xlink:title=" ">
<polygon fill="#e0e0e0" stroke="#999999" points="959,-384.5 898.75,-384.5 898.75,-365.25 959,-365.25 959,-384.5"/>
<text text-anchor="middle" x="928.88" y="-370.05" font-family="Arial" font-size="11.00">algorithm</text>
</a>
</g>
</g>
<!-- Node32&#45;&gt;Node36 -->
<g id="edge50_Node000032_Node000036" class="edge">
<title>Node32&#45;&gt;Node36</title>
<g id="a_edge50_Node000032_Node000036"><a xlink:title=" ">
<path fill="none" stroke="#63b8ff" d="M922.85,-420.2C923.84,-412.96 925.04,-404.09 926.11,-396.19"/>
<polygon fill="#63b8ff" stroke="#63b8ff" points="929.56,-396.83 927.44,-386.45 922.62,-395.89 929.56,-396.83"/>
</a>
</g>
</g>
</g>
</svg>
