<?xml version="1.0" encoding="UTF-8" standalone="no"?>
<!DOCTYPE svg PUBLIC "-//W3C//DTD SVG 1.1//EN"
 "http://www.w3.org/Graphics/SVG/1.1/DTD/svg11.dtd">
<!-- Generated by graphviz version 10.0.1 (0)
 -->
<!-- Title: vector2d.h Pages: 1 -->
<svg width="1103pt" height="570pt"
 viewBox="0.00 0.00 1103.25 569.50" xmlns="http://www.w3.org/2000/svg" xmlns:xlink="http://www.w3.org/1999/xlink">
<g id="graph0" class="graph" transform="scale(1 1) rotate(0) translate(4 565.5)">
<title>vector2d.h</title>
<!-- Node1 -->
<g id="Node000001" class="node">
<title>Node1</title>
<g id="a_Node000001"><a xlink:title="A two&#45;dimensional vector tagged with a unit.">
<polygon fill="#999999" stroke="#666666" points="611,-561.5 544.75,-561.5 544.75,-542.25 611,-542.25 611,-561.5"/>
<text text-anchor="middle" x="577.88" y="-547.05" font-family="Arial" font-size="11.00">vector2d.h</text>
</a>
</g>
</g>
<!-- Node2 -->
<g id="Node000002" class="node">
<title>Node2</title>
<g id="a_Node000002"><a xlink:title=" ">
<polygon fill="#e0e0e0" stroke="#999999" points="463.75,-506.25 402,-506.25 402,-487 463.75,-487 463.75,-506.25"/>
<text text-anchor="middle" x="432.88" y="-491.8" font-family="Arial" font-size="11.00">functional</text>
</a>
</g>
</g>
<!-- Node1&#45;&gt;Node2 -->
<g id="edge1_Node000001_Node000002" class="edge">
<title>Node1&#45;&gt;Node2</title>
<g id="a_edge1_Node000001_Node000002"><a xlink:title=" ">
<path fill="none" stroke="#63b8ff" d="M553.28,-541.84C529.95,-533.27 494.64,-520.31 468.28,-510.63"/>
<polygon fill="#63b8ff" stroke="#63b8ff" points="469.61,-507.39 459.01,-507.22 467.19,-513.96 469.61,-507.39"/>
</a>
</g>
</g>
<!-- Node3 -->
<g id="Node000003" class="node">
<title>Node3</title>
<g id="a_Node000003"><a xlink:href="../../da/dac/angle_8h.html" target="_top" xlink:title="Newtype describing an angle.">
<polygon fill="white" stroke="#666666" points="535.62,-329.25 422.12,-329.25 422.12,-310 535.62,-310 535.62,-329.25"/>
<text text-anchor="middle" x="478.88" y="-314.8" font-family="Arial" font-size="11.00">floppy/euclid/angle.h</text>
</a>
</g>
</g>
<!-- Node1&#45;&gt;Node3 -->
<g id="edge2_Node000001_Node000003" class="edge">
<title>Node1&#45;&gt;Node3</title>
<g id="a_edge2_Node000001_Node000003"><a xlink:title=" ">
<path fill="none" stroke="#63b8ff" d="M573.99,-541.85C559.36,-507.82 507.33,-386.81 487.05,-339.64"/>
<polygon fill="#63b8ff" stroke="#63b8ff" points="490.39,-338.54 483.22,-330.73 483.96,-341.3 490.39,-338.54"/>
</a>
</g>
</g>
<!-- Node29 -->
<g id="Node000029" class="node">
<title>Node29</title>
<g id="a_Node000029"><a xlink:href="../../dd/db9/length_8h.html" target="_top" xlink:title="A one&#45;dimensional distance with associated unit of measurement.">
<polygon fill="white" stroke="#666666" points="636.12,-384.5 519.62,-384.5 519.62,-365.25 636.12,-365.25 636.12,-384.5"/>
<text text-anchor="middle" x="577.88" y="-370.05" font-family="Arial" font-size="11.00">floppy/euclid/length.h</text>
</a>
</g>
</g>
<!-- Node1&#45;&gt;Node29 -->
<g id="edge34_Node000001_Node000029" class="edge">
<title>Node1&#45;&gt;Node29</title>
<g id="a_edge34_Node000001_Node000029"><a xlink:title=" ">
<path fill="none" stroke="#63b8ff" d="M577.88,-541.96C577.88,-515.05 577.88,-434.19 577.88,-396.12"/>
<polygon fill="#63b8ff" stroke="#63b8ff" points="581.38,-396.5 577.88,-386.5 574.38,-396.5 581.38,-396.5"/>
</a>
</g>
</g>
<!-- Node31 -->
<g id="Node000031" class="node">
<title>Node31</title>
<g id="a_Node000031"><a xlink:href="../../dc/df8/size2d_8h.html" target="_top" xlink:title="A two&#45;dimensional size tagged with a unit.">
<polygon fill="white" stroke="#666666" points="782.88,-506.25 664.88,-506.25 664.88,-487 782.88,-487 782.88,-506.25"/>
<text text-anchor="middle" x="723.88" y="-491.8" font-family="Arial" font-size="11.00">floppy/euclid/size2d.h</text>
</a>
</g>
</g>
<!-- Node1&#45;&gt;Node31 -->
<g id="edge40_Node000001_Node000031" class="edge">
<title>Node1&#45;&gt;Node31</title>
<g id="a_edge40_Node000001_Node000031"><a xlink:title=" ">
<path fill="none" stroke="#63b8ff" d="M602.64,-541.84C626.13,-533.27 661.69,-520.31 688.23,-510.63"/>
<polygon fill="#63b8ff" stroke="#63b8ff" points="689.37,-513.94 697.56,-507.22 686.97,-507.36 689.37,-513.94"/>
</a>
</g>
</g>
<!-- Node32 -->
<g id="Node000032" class="node">
<title>Node32</title>
<g id="a_Node000032"><a xlink:href="../../da/d53/nt__traits2d_8h_source.html" target="_top" xlink:title=" ">
<polygon fill="white" stroke="#666666" points="775.75,-451 672,-451 672,-420.5 775.75,-420.5 775.75,-451"/>
<text text-anchor="start" x="680" y="-436.55" font-family="Arial" font-size="11.00">floppy/euclid/detail</text>
<text text-anchor="middle" x="723.88" y="-425.3" font-family="Arial" font-size="11.00">/nt_traits2d.h</text>
</a>
</g>
</g>
<!-- Node1&#45;&gt;Node32 -->
<g id="edge50_Node000001_Node000032" class="edge">
<title>Node1&#45;&gt;Node32</title>
<g id="a_edge50_Node000001_Node000032"><a xlink:title=" ">
<path fill="none" stroke="#63b8ff" d="M588.34,-542.03C603.18,-529.54 631.29,-506.13 655.88,-487 668.31,-477.33 682.27,-466.93 694.29,-458.12"/>
<polygon fill="#63b8ff" stroke="#63b8ff" points="696.21,-461.05 702.22,-452.33 692.08,-455.4 696.21,-461.05"/>
</a>
</g>
</g>
<!-- Node4 -->
<g id="Node000004" class="node">
<title>Node4</title>
<g id="a_Node000004"><a xlink:href="../../df/db1/math_8h_source.html" target="_top" xlink:title=" ">
<polygon fill="white" stroke="#666666" points="741.38,-207.5 632.38,-207.5 632.38,-188.25 741.38,-188.25 741.38,-207.5"/>
<text text-anchor="middle" x="686.88" y="-193.05" font-family="Arial" font-size="11.00">floppy/detail/math.h</text>
</a>
</g>
</g>
<!-- Node3&#45;&gt;Node4 -->
<g id="edge3_Node000003_Node000004" class="edge">
<title>Node3&#45;&gt;Node4</title>
<g id="a_edge3_Node000003_Node000004"><a xlink:title=" ">
<path fill="none" stroke="#63b8ff" d="M494.51,-309.62C530.12,-289.12 617.55,-238.79 661.21,-213.65"/>
<polygon fill="#63b8ff" stroke="#63b8ff" points="662.83,-216.76 669.75,-208.74 659.34,-210.69 662.83,-216.76"/>
</a>
</g>
</g>
<!-- Node21 -->
<g id="Node000021" class="node">
<title>Node21</title>
<g id="a_Node000021"><a xlink:href="../../dd/dff/traits_8h_source.html" target="_top" xlink:title=" ">
<polygon fill="white" stroke="#666666" points="403.75,-207.5 324,-207.5 324,-188.25 403.75,-188.25 403.75,-207.5"/>
<text text-anchor="middle" x="363.88" y="-193.05" font-family="Arial" font-size="11.00">floppy/traits.h</text>
</a>
</g>
</g>
<!-- Node3&#45;&gt;Node21 -->
<g id="edge21_Node000003_Node000021" class="edge">
<title>Node3&#45;&gt;Node21</title>
<g id="a_edge21_Node000003_Node000021"><a xlink:title=" ">
<path fill="none" stroke="#63b8ff" d="M470.23,-309.62C451.17,-289.77 405.24,-241.95 380.43,-216.12"/>
<polygon fill="#63b8ff" stroke="#63b8ff" points="383.12,-213.86 373.67,-209.07 378.07,-218.71 383.12,-213.86"/>
</a>
</g>
</g>
<!-- Node28 -->
<g id="Node000028" class="node">
<title>Node28</title>
<g id="a_Node000028"><a xlink:href="../../de/de1/nt__traits_8h_source.html" target="_top" xlink:title=" ">
<polygon fill="white" stroke="#666666" points="744.75,-274 641,-274 641,-243.5 744.75,-243.5 744.75,-274"/>
<text text-anchor="start" x="649" y="-259.55" font-family="Arial" font-size="11.00">floppy/euclid/detail</text>
<text text-anchor="middle" x="692.88" y="-248.3" font-family="Arial" font-size="11.00">/nt_traits.h</text>
</a>
</g>
</g>
<!-- Node3&#45;&gt;Node28 -->
<g id="edge31_Node000003_Node000028" class="edge">
<title>Node3&#45;&gt;Node28</title>
<g id="a_edge31_Node000003_Node000028"><a xlink:title=" ">
<path fill="none" stroke="#63b8ff" d="M511.84,-309.55C543.24,-300.92 591.33,-287.69 630.05,-277.03"/>
<polygon fill="#63b8ff" stroke="#63b8ff" points="630.53,-280.53 639.24,-274.51 628.67,-273.78 630.53,-280.53"/>
</a>
</g>
</g>
<!-- Node5 -->
<g id="Node000005" class="node">
<title>Node5</title>
<g id="a_Node000005"><a xlink:title=" ">
<polygon fill="#e0e0e0" stroke="#999999" points="777.5,-146.62 732.25,-146.62 732.25,-127.38 777.5,-127.38 777.5,-146.62"/>
<text text-anchor="middle" x="754.88" y="-132.18" font-family="Arial" font-size="11.00">cmath</text>
</a>
</g>
</g>
<!-- Node4&#45;&gt;Node5 -->
<g id="edge4_Node000004_Node000005" class="edge">
<title>Node4&#45;&gt;Node5</title>
<g id="a_edge4_Node000004_Node000005"><a xlink:title=" ">
<path fill="none" stroke="#63b8ff" d="M697.2,-187.93C707.49,-179.03 723.51,-165.16 736.06,-154.29"/>
<polygon fill="#63b8ff" stroke="#63b8ff" points="738.04,-157.21 743.31,-148.02 733.45,-151.92 738.04,-157.21"/>
</a>
</g>
</g>
<!-- Node6 -->
<g id="Node000006" class="node">
<title>Node6</title>
<g id="a_Node000006"><a xlink:title=" ">
<polygon fill="#e0e0e0" stroke="#999999" points="835.88,-146.62 795.88,-146.62 795.88,-127.38 835.88,-127.38 835.88,-146.62"/>
<text text-anchor="middle" x="815.88" y="-132.18" font-family="Arial" font-size="11.00">limits</text>
</a>
</g>
</g>
<!-- Node4&#45;&gt;Node6 -->
<g id="edge5_Node000004_Node000006" class="edge">
<title>Node4&#45;&gt;Node6</title>
<g id="a_edge5_Node000004_Node000006"><a xlink:title=" ">
<path fill="none" stroke="#63b8ff" d="M707.66,-187.87C727.96,-179.01 759.68,-165 786.88,-152.25 787.1,-152.15 787.32,-152.04 787.54,-151.94"/>
<polygon fill="#63b8ff" stroke="#63b8ff" points="788.96,-155.14 796.46,-147.65 785.93,-148.83 788.96,-155.14"/>
</a>
</g>
</g>
<!-- Node7 -->
<g id="Node000007" class="node">
<title>Node7</title>
<g id="a_Node000007"><a xlink:title=" ">
<polygon fill="#e0e0e0" stroke="#999999" points="637.88,-146.62 579.88,-146.62 579.88,-127.38 637.88,-127.38 637.88,-146.62"/>
<text text-anchor="middle" x="608.88" y="-132.18" font-family="Arial" font-size="11.00">numbers</text>
</a>
</g>
</g>
<!-- Node4&#45;&gt;Node7 -->
<g id="edge6_Node000004_Node000007" class="edge">
<title>Node4&#45;&gt;Node7</title>
<g id="a_edge6_Node000004_Node000007"><a xlink:title=" ">
<path fill="none" stroke="#63b8ff" d="M675.03,-187.93C663,-178.86 644.14,-164.62 629.63,-153.66"/>
<polygon fill="#63b8ff" stroke="#63b8ff" points="632.13,-151.17 622.04,-147.94 627.91,-156.76 632.13,-151.17"/>
</a>
</g>
</g>
<!-- Node8 -->
<g id="Node000008" class="node">
<title>Node8</title>
<g id="a_Node000008"><a xlink:title=" ">
<polygon fill="#e0e0e0" stroke="#999999" points="713.88,-146.62 655.88,-146.62 655.88,-127.38 713.88,-127.38 713.88,-146.62"/>
<text text-anchor="middle" x="684.88" y="-132.18" font-family="Arial" font-size="11.00">compare</text>
</a>
</g>
</g>
<!-- Node4&#45;&gt;Node8 -->
<g id="edge7_Node000004_Node000008" class="edge">
<title>Node4&#45;&gt;Node8</title>
<g id="a_edge7_Node000004_Node000008"><a xlink:title=" ">
<path fill="none" stroke="#63b8ff" d="M686.57,-187.93C686.3,-180.07 685.91,-168.32 685.56,-158.2"/>
<polygon fill="#63b8ff" stroke="#63b8ff" points="689.07,-158.41 685.23,-148.54 682.07,-158.65 689.07,-158.41"/>
</a>
</g>
</g>
<!-- Node9 -->
<g id="Node000009" class="node">
<title>Node9</title>
<g id="a_Node000009"><a xlink:href="../../db/db5/export_8h_source.html" target="_top" xlink:title=" ">
<polygon fill="white" stroke="#666666" points="561.38,-146.62 446.38,-146.62 446.38,-127.38 561.38,-127.38 561.38,-146.62"/>
<text text-anchor="middle" x="503.88" y="-132.18" font-family="Arial" font-size="11.00">floppy/detail/export.h</text>
</a>
</g>
</g>
<!-- Node4&#45;&gt;Node9 -->
<g id="edge8_Node000004_Node000009" class="edge">
<title>Node4&#45;&gt;Node9</title>
<g id="a_edge8_Node000004_Node000009"><a xlink:title=" ">
<path fill="none" stroke="#63b8ff" d="M658.68,-187.8C627.65,-177.82 577.57,-161.71 542.8,-150.52"/>
<polygon fill="#63b8ff" stroke="#63b8ff" points="544.13,-147.27 533.54,-147.54 541.99,-153.94 544.13,-147.27"/>
</a>
</g>
</g>
<!-- Node12 -->
<g id="Node000012" class="node">
<title>Node12</title>
<g id="a_Node000012"><a xlink:href="../../d9/db1/concepts_8h_source.html" target="_top" xlink:title=" ">
<polygon fill="white" stroke="#666666" points="981.75,-146.62 854,-146.62 854,-127.38 981.75,-127.38 981.75,-146.62"/>
<text text-anchor="middle" x="917.88" y="-132.18" font-family="Arial" font-size="11.00">floppy/detail/concepts.h</text>
</a>
</g>
</g>
<!-- Node4&#45;&gt;Node12 -->
<g id="edge11_Node000004_Node000012" class="edge">
<title>Node4&#45;&gt;Node12</title>
<g id="a_edge11_Node000004_Node000012"><a xlink:title=" ">
<path fill="none" stroke="#63b8ff" d="M722.46,-187.8C762.4,-177.63 827.33,-161.08 871.28,-149.88"/>
<polygon fill="#63b8ff" stroke="#63b8ff" points="871.95,-153.32 880.78,-147.45 870.23,-146.53 871.95,-153.32"/>
</a>
</g>
</g>
<!-- Node10 -->
<g id="Node000010" class="node">
<title>Node10</title>
<g id="a_Node000010"><a xlink:title=" ">
<polygon fill="#e0e0e0" stroke="#999999" points="525,-80.12 482.75,-80.12 482.75,-60.88 525,-60.88 525,-80.12"/>
<text text-anchor="middle" x="503.88" y="-65.67" font-family="Arial" font-size="11.00">string</text>
</a>
</g>
</g>
<!-- Node9&#45;&gt;Node10 -->
<g id="edge9_Node000009_Node000010" class="edge">
<title>Node9&#45;&gt;Node10</title>
<g id="a_edge9_Node000009_Node000010"><a xlink:title=" ">
<path fill="none" stroke="#63b8ff" d="M503.88,-127.03C503.88,-117.98 503.88,-103.7 503.88,-91.88"/>
<polygon fill="#63b8ff" stroke="#63b8ff" points="507.38,-91.91 503.88,-81.91 500.38,-91.91 507.38,-91.91"/>
</a>
</g>
</g>
<!-- Node11 -->
<g id="Node000011" class="node">
<title>Node11</title>
<g id="a_Node000011"><a xlink:title=" ">
<polygon fill="#e0e0e0" stroke="#999999" points="369.88,-80.12 299.88,-80.12 299.88,-60.88 369.88,-60.88 369.88,-80.12"/>
<text text-anchor="middle" x="334.88" y="-65.67" font-family="Arial" font-size="11.00">string_view</text>
</a>
</g>
</g>
<!-- Node9&#45;&gt;Node11 -->
<g id="edge10_Node000009_Node000011" class="edge">
<title>Node9&#45;&gt;Node11</title>
<g id="a_edge10_Node000009_Node000011"><a xlink:title=" ">
<path fill="none" stroke="#63b8ff" d="M480.02,-126.9C451.08,-115.85 402.09,-97.15 369.12,-84.57"/>
<polygon fill="#63b8ff" stroke="#63b8ff" points="370.61,-81.39 360.02,-81.1 368.12,-87.93 370.61,-81.39"/>
</a>
</g>
</g>
<!-- Node13 -->
<g id="Node000013" class="node">
<title>Node13</title>
<g id="a_Node000013"><a xlink:title=" ">
<polygon fill="#e0e0e0" stroke="#999999" points="790.25,-80.12 731.5,-80.12 731.5,-60.88 790.25,-60.88 790.25,-80.12"/>
<text text-anchor="middle" x="760.88" y="-65.67" font-family="Arial" font-size="11.00">concepts</text>
</a>
</g>
</g>
<!-- Node12&#45;&gt;Node13 -->
<g id="edge12_Node000012_Node000013" class="edge">
<title>Node12&#45;&gt;Node13</title>
<g id="a_edge12_Node000012_Node000013"><a xlink:title=" ">
<path fill="none" stroke="#63b8ff" d="M895.71,-126.9C869.06,-115.95 824.11,-97.48 793.49,-84.9"/>
<polygon fill="#63b8ff" stroke="#63b8ff" points="794.9,-81.7 784.32,-81.13 792.24,-88.17 794.9,-81.7"/>
</a>
</g>
</g>
<!-- Node14 -->
<g id="Node000014" class="node">
<title>Node14</title>
<g id="a_Node000014"><a xlink:href="../../df/d63/type__traits_8h_source.html" target="_top" xlink:title=" ">
<polygon fill="white" stroke="#666666" points="905,-85.75 808.75,-85.75 808.75,-55.25 905,-55.25 905,-85.75"/>
<text text-anchor="start" x="816.75" y="-71.3" font-family="Arial" font-size="11.00">floppy/detail/type</text>
<text text-anchor="middle" x="856.88" y="-60.05" font-family="Arial" font-size="11.00">_traits.h</text>
</a>
</g>
</g>
<!-- Node12&#45;&gt;Node14 -->
<g id="edge13_Node000012_Node000014" class="edge">
<title>Node12&#45;&gt;Node14</title>
<g id="a_edge13_Node000012_Node000014"><a xlink:title=" ">
<path fill="none" stroke="#63b8ff" d="M909.39,-127.03C901.36,-118.54 888.96,-105.42 878.22,-94.07"/>
<polygon fill="#63b8ff" stroke="#63b8ff" points="880.9,-91.8 871.48,-86.94 875.81,-96.61 880.9,-91.8"/>
</a>
</g>
</g>
<!-- Node16 -->
<g id="Node000016" class="node">
<title>Node16</title>
<g id="a_Node000016"><a xlink:href="../../d9/d49/types_8h_source.html" target="_top" xlink:title=" ">
<polygon fill="white" stroke="#666666" points="1033.12,-80.12 922.62,-80.12 922.62,-60.88 1033.12,-60.88 1033.12,-80.12"/>
<text text-anchor="middle" x="977.88" y="-65.67" font-family="Arial" font-size="11.00">floppy/detail/types.h</text>
</a>
</g>
</g>
<!-- Node12&#45;&gt;Node16 -->
<g id="edge15_Node000012_Node000016" class="edge">
<title>Node12&#45;&gt;Node16</title>
<g id="a_edge15_Node000012_Node000016"><a xlink:title=" ">
<path fill="none" stroke="#63b8ff" d="M926.22,-127.03C935.44,-117.12 950.52,-100.91 962.01,-88.56"/>
<polygon fill="#63b8ff" stroke="#63b8ff" points="964.32,-91.21 968.57,-81.5 959.2,-86.44 964.32,-91.21"/>
</a>
</g>
</g>
<!-- Node15 -->
<g id="Node000015" class="node">
<title>Node15</title>
<g id="a_Node000015"><a xlink:title=" ">
<polygon fill="#e0e0e0" stroke="#999999" points="889.62,-19.25 824.12,-19.25 824.12,0 889.62,0 889.62,-19.25"/>
<text text-anchor="middle" x="856.88" y="-4.8" font-family="Arial" font-size="11.00">type_traits</text>
</a>
</g>
</g>
<!-- Node14&#45;&gt;Node15 -->
<g id="edge14_Node000014_Node000015" class="edge">
<title>Node14&#45;&gt;Node15</title>
<g id="a_edge14_Node000014_Node000015"><a xlink:title=" ">
<path fill="none" stroke="#63b8ff" d="M856.88,-54.95C856.88,-47.71 856.88,-38.84 856.88,-30.94"/>
<polygon fill="#63b8ff" stroke="#63b8ff" points="860.38,-31.21 856.88,-21.21 853.38,-31.21 860.38,-31.21"/>
</a>
</g>
</g>
<!-- Node16&#45;&gt;Node15 -->
<g id="edge19_Node000016_Node000015" class="edge">
<title>Node16&#45;&gt;Node15</title>
<g id="a_edge19_Node000016_Node000015"><a xlink:title=" ">
<path fill="none" stroke="#63b8ff" d="M959.23,-60.43C939.55,-50.85 908.26,-35.63 885.46,-24.53"/>
<polygon fill="#63b8ff" stroke="#63b8ff" points="887.22,-21.5 876.7,-20.27 884.16,-27.79 887.22,-21.5"/>
</a>
</g>
</g>
<!-- Node17 -->
<g id="Node000017" class="node">
<title>Node17</title>
<g id="a_Node000017"><a xlink:title=" ">
<polygon fill="#e0e0e0" stroke="#999999" points="1030.12,-19.25 979.62,-19.25 979.62,0 1030.12,0 1030.12,-19.25"/>
<text text-anchor="middle" x="1004.88" y="-4.8" font-family="Arial" font-size="11.00">cstddef</text>
</a>
</g>
</g>
<!-- Node16&#45;&gt;Node17 -->
<g id="edge16_Node000016_Node000017" class="edge">
<title>Node16&#45;&gt;Node17</title>
<g id="a_edge16_Node000016_Node000017"><a xlink:title=" ">
<path fill="none" stroke="#63b8ff" d="M981.98,-60.56C985.7,-52.43 991.33,-40.17 996.07,-29.83"/>
<polygon fill="#63b8ff" stroke="#63b8ff" points="999.12,-31.58 1000.1,-21.03 992.75,-28.66 999.12,-31.58"/>
</a>
</g>
</g>
<!-- Node18 -->
<g id="Node000018" class="node">
<title>Node18</title>
<g id="a_Node000018"><a xlink:title=" ">
<polygon fill="#e0e0e0" stroke="#999999" points="1095.25,-19.25 1048.5,-19.25 1048.5,0 1095.25,0 1095.25,-19.25"/>
<text text-anchor="middle" x="1071.88" y="-4.8" font-family="Arial" font-size="11.00">cstdint</text>
</a>
</g>
</g>
<!-- Node16&#45;&gt;Node18 -->
<g id="edge17_Node000016_Node000018" class="edge">
<title>Node16&#45;&gt;Node18</title>
<g id="a_edge17_Node000016_Node000018"><a xlink:title=" ">
<path fill="none" stroke="#63b8ff" d="M992.15,-60.56C1006.92,-51.31 1030.25,-36.7 1047.86,-25.67"/>
<polygon fill="#63b8ff" stroke="#63b8ff" points="1049.56,-28.73 1056.18,-20.45 1045.85,-22.8 1049.56,-28.73"/>
</a>
</g>
</g>
<!-- Node19 -->
<g id="Node000019" class="node">
<title>Node19</title>
<g id="a_Node000019"><a xlink:title=" ">
<polygon fill="#e0e0e0" stroke="#999999" points="961.62,-19.25 908.12,-19.25 908.12,0 961.62,0 961.62,-19.25"/>
<text text-anchor="middle" x="934.88" y="-4.8" font-family="Arial" font-size="11.00">optional</text>
</a>
</g>
</g>
<!-- Node16&#45;&gt;Node19 -->
<g id="edge18_Node000016_Node000019" class="edge">
<title>Node16&#45;&gt;Node19</title>
<g id="a_edge18_Node000016_Node000019"><a xlink:title=" ">
<path fill="none" stroke="#63b8ff" d="M971.34,-60.56C965.22,-52.17 955.88,-39.38 948.18,-28.84"/>
<polygon fill="#63b8ff" stroke="#63b8ff" points="951.08,-26.88 942.36,-20.87 945.43,-31.01 951.08,-26.88"/>
</a>
</g>
</g>
<!-- Node20 -->
<g id="Node000020" class="node">
<title>Node20</title>
<g id="a_Node000020"><a xlink:title=" ">
<polygon fill="#e0e0e0" stroke="#999999" points="471.75,-19.25 398,-19.25 398,0 471.75,0 471.75,-19.25"/>
<text text-anchor="middle" x="434.88" y="-4.8" font-family="Arial" font-size="11.00">fmt/format.h</text>
</a>
</g>
</g>
<!-- Node16&#45;&gt;Node20 -->
<g id="edge20_Node000016_Node000020" class="edge">
<title>Node16&#45;&gt;Node20</title>
<g id="a_edge20_Node000016_Node000020"><a xlink:title=" ">
<path fill="none" stroke="#63b8ff" d="M940.8,-60.41C932.01,-58.49 922.65,-56.63 913.88,-55.25 757.5,-30.66 570.11,-18.02 483.35,-13.11"/>
<polygon fill="#63b8ff" stroke="#63b8ff" points="483.72,-9.63 473.54,-12.57 483.34,-16.62 483.72,-9.63"/>
</a>
</g>
</g>
<!-- Node21&#45;&gt;Node9 -->
<g id="edge25_Node000021_Node000009" class="edge">
<title>Node21&#45;&gt;Node9</title>
<g id="a_edge25_Node000021_Node000009"><a xlink:title=" ">
<path fill="none" stroke="#63b8ff" d="M385.44,-187.8C408.63,-178.05 445.73,-162.45 472.23,-151.31"/>
<polygon fill="#63b8ff" stroke="#63b8ff" points="473.26,-154.67 481.12,-147.57 470.54,-148.22 473.26,-154.67"/>
</a>
</g>
</g>
<!-- Node22 -->
<g id="Node000022" class="node">
<title>Node22</title>
<g id="a_Node000022"><a xlink:title=" ">
<polygon fill="#e0e0e0" stroke="#999999" points="206.38,-146.62 151.38,-146.62 151.38,-127.38 206.38,-127.38 206.38,-146.62"/>
<text text-anchor="middle" x="178.88" y="-132.18" font-family="Arial" font-size="11.00">memory</text>
</a>
</g>
</g>
<!-- Node21&#45;&gt;Node22 -->
<g id="edge22_Node000021_Node000022" class="edge">
<title>Node21&#45;&gt;Node22</title>
<g id="a_edge22_Node000021_Node000022"><a xlink:title=" ">
<path fill="none" stroke="#63b8ff" d="M330.47,-187.76C300.1,-179.26 254.16,-165.88 214.88,-152.25 213.73,-151.85 212.57,-151.44 211.4,-151.02"/>
<polygon fill="#63b8ff" stroke="#63b8ff" points="212.86,-147.83 202.26,-147.58 210.39,-154.38 212.86,-147.83"/>
</a>
</g>
</g>
<!-- Node23 -->
<g id="Node000023" class="node">
<title>Node23</title>
<g id="a_Node000023"><a xlink:title=" ">
<polygon fill="#e0e0e0" stroke="#999999" points="281.5,-146.62 224.25,-146.62 224.25,-127.38 281.5,-127.38 281.5,-146.62"/>
<text text-anchor="middle" x="252.88" y="-132.18" font-family="Arial" font-size="11.00">iostream</text>
</a>
</g>
</g>
<!-- Node21&#45;&gt;Node23 -->
<g id="edge23_Node000021_Node000023" class="edge">
<title>Node21&#45;&gt;Node23</title>
<g id="a_edge23_Node000021_Node000023"><a xlink:title=" ">
<path fill="none" stroke="#63b8ff" d="M347.02,-187.93C329.17,-178.47 300.74,-163.39 279.78,-152.27"/>
<polygon fill="#63b8ff" stroke="#63b8ff" points="281.7,-149.33 271.23,-147.74 278.42,-155.51 281.7,-149.33"/>
</a>
</g>
</g>
<!-- Node24 -->
<g id="Node000024" class="node">
<title>Node24</title>
<g id="a_Node000024"><a xlink:title=" ">
<polygon fill="#e0e0e0" stroke="#999999" points="428.5,-152.25 299.25,-152.25 299.25,-121.75 428.5,-121.75 428.5,-152.25"/>
<text text-anchor="start" x="307.25" y="-137.8" font-family="Arial" font-size="11.00">experimental/propagate</text>
<text text-anchor="middle" x="363.88" y="-126.55" font-family="Arial" font-size="11.00">_const</text>
</a>
</g>
</g>
<!-- Node21&#45;&gt;Node24 -->
<g id="edge24_Node000021_Node000024" class="edge">
<title>Node21&#45;&gt;Node24</title>
<g id="a_edge24_Node000021_Node000024"><a xlink:title=" ">
<path fill="none" stroke="#63b8ff" d="M363.88,-187.93C363.88,-181.48 363.88,-172.41 363.88,-163.76"/>
<polygon fill="#63b8ff" stroke="#63b8ff" points="367.38,-164.05 363.88,-154.05 360.38,-164.05 367.38,-164.05"/>
</a>
</g>
</g>
<!-- Node25 -->
<g id="Node000025" class="node">
<title>Node25</title>
<g id="a_Node000025"><a xlink:href="../../d6/d45/formatters_8h_source.html" target="_top" xlink:title=" ">
<polygon fill="white" stroke="#666666" points="133.75,-146.62 0,-146.62 0,-127.38 133.75,-127.38 133.75,-146.62"/>
<text text-anchor="middle" x="66.88" y="-132.18" font-family="Arial" font-size="11.00">floppy/detail/formatters.h</text>
</a>
</g>
</g>
<!-- Node21&#45;&gt;Node25 -->
<g id="edge26_Node000021_Node000025" class="edge">
<title>Node21&#45;&gt;Node25</title>
<g id="a_edge26_Node000021_Node000025"><a xlink:title=" ">
<path fill="none" stroke="#63b8ff" d="M323.51,-188.87C271.92,-178.65 182.28,-160.88 123.77,-149.28"/>
<polygon fill="#63b8ff" stroke="#63b8ff" points="124.48,-145.85 113.99,-147.34 123.12,-152.72 124.48,-145.85"/>
</a>
</g>
</g>
<!-- Node25&#45;&gt;Node11 -->
<g id="edge27_Node000025_Node000011" class="edge">
<title>Node25&#45;&gt;Node11</title>
<g id="a_edge27_Node000025_Node000011"><a xlink:title=" ">
<path fill="none" stroke="#63b8ff" d="M104.7,-126.9C153.1,-115.25 236.86,-95.09 288.88,-82.57"/>
<polygon fill="#63b8ff" stroke="#63b8ff" points="289.42,-86.04 298.32,-80.3 287.78,-79.23 289.42,-86.04"/>
</a>
</g>
</g>
<!-- Node25&#45;&gt;Node20 -->
<g id="edge30_Node000025_Node000020" class="edge">
<title>Node25&#45;&gt;Node20</title>
<g id="a_edge30_Node000025_Node000020"><a xlink:title=" ">
<path fill="none" stroke="#63b8ff" d="M62.13,-126.92C54.25,-110.42 41,-75.37 58.88,-55.25 80.3,-31.14 289.89,-17.77 386.52,-12.84"/>
<polygon fill="#63b8ff" stroke="#63b8ff" points="386.4,-16.35 396.21,-12.36 386.05,-9.36 386.4,-16.35"/>
</a>
</g>
</g>
<!-- Node26 -->
<g id="Node000026" class="node">
<title>Node26</title>
<g id="a_Node000026"><a xlink:title=" ">
<polygon fill="#e0e0e0" stroke="#999999" points="122,-80.12 67.75,-80.12 67.75,-60.88 122,-60.88 122,-80.12"/>
<text text-anchor="middle" x="94.88" y="-65.67" font-family="Arial" font-size="11.00">sstream</text>
</a>
</g>
</g>
<!-- Node25&#45;&gt;Node26 -->
<g id="edge28_Node000025_Node000026" class="edge">
<title>Node25&#45;&gt;Node26</title>
<g id="a_edge28_Node000025_Node000026"><a xlink:title=" ">
<path fill="none" stroke="#63b8ff" d="M70.77,-127.03C74.82,-117.69 81.3,-102.78 86.52,-90.76"/>
<polygon fill="#63b8ff" stroke="#63b8ff" points="89.64,-92.35 90.41,-81.78 83.22,-89.56 89.64,-92.35"/>
</a>
</g>
</g>
<!-- Node27 -->
<g id="Node000027" class="node">
<title>Node27</title>
<g id="a_Node000027"><a xlink:title=" ">
<polygon fill="#e0e0e0" stroke="#999999" points="187.25,-80.12 140.5,-80.12 140.5,-60.88 187.25,-60.88 187.25,-80.12"/>
<text text-anchor="middle" x="163.88" y="-65.67" font-family="Arial" font-size="11.00">iosfwd</text>
</a>
</g>
</g>
<!-- Node25&#45;&gt;Node27 -->
<g id="edge29_Node000025_Node000027" class="edge">
<title>Node25&#45;&gt;Node27</title>
<g id="a_edge29_Node000025_Node000027"><a xlink:title=" ">
<path fill="none" stroke="#63b8ff" d="M80.36,-127.03C95.98,-116.64 121.98,-99.36 140.82,-86.83"/>
<polygon fill="#63b8ff" stroke="#63b8ff" points="142.54,-89.89 148.93,-81.44 138.66,-84.06 142.54,-89.89"/>
</a>
</g>
</g>
<!-- Node28&#45;&gt;Node4 -->
<g id="edge32_Node000028_Node000004" class="edge">
<title>Node28&#45;&gt;Node4</title>
<g id="a_edge32_Node000028_Node000004"><a xlink:title=" ">
<path fill="none" stroke="#63b8ff" d="M691.39,-243.2C690.65,-235.96 689.75,-227.09 688.95,-219.19"/>
<polygon fill="#63b8ff" stroke="#63b8ff" points="692.45,-219.05 687.95,-209.46 685.49,-219.76 692.45,-219.05"/>
</a>
</g>
</g>
<!-- Node28&#45;&gt;Node12 -->
<g id="edge33_Node000028_Node000012" class="edge">
<title>Node28&#45;&gt;Node12</title>
<g id="a_edge33_Node000028_Node000012"><a xlink:title=" ">
<path fill="none" stroke="#63b8ff" d="M720.46,-243.07C763.95,-219.92 847.91,-175.24 890.97,-152.32"/>
<polygon fill="#63b8ff" stroke="#63b8ff" points="892.47,-155.49 899.65,-147.7 889.18,-149.31 892.47,-155.49"/>
</a>
</g>
</g>
<!-- Node29&#45;&gt;Node28 -->
<g id="edge39_Node000029_Node000028" class="edge">
<title>Node29&#45;&gt;Node28</title>
<g id="a_edge39_Node000029_Node000028"><a xlink:title=" ">
<path fill="none" stroke="#63b8ff" d="M615.92,-364.9C636.16,-358.26 659.89,-347.17 674.88,-329.25 685.06,-317.07 689.56,-299.82 691.52,-285.54"/>
<polygon fill="#63b8ff" stroke="#63b8ff" points="694.97,-286.24 692.48,-275.94 688,-285.54 694.97,-286.24"/>
</a>
</g>
</g>
<!-- Node30 -->
<g id="Node000030" class="node">
<title>Node30</title>
<g id="a_Node000030"><a xlink:href="../../d8/d0c/scale_8h.html" target="_top" xlink:title="A scaling factor between two different units of measurement.">
<polygon fill="white" stroke="#666666" points="665.88,-329.25 553.88,-329.25 553.88,-310 665.88,-310 665.88,-329.25"/>
<text text-anchor="middle" x="609.88" y="-314.8" font-family="Arial" font-size="11.00">floppy/euclid/scale.h</text>
</a>
</g>
</g>
<!-- Node29&#45;&gt;Node30 -->
<g id="edge35_Node000029_Node000030" class="edge">
<title>Node29&#45;&gt;Node30</title>
<g id="a_edge35_Node000029_Node000030"><a xlink:title=" ">
<path fill="none" stroke="#63b8ff" d="M583.16,-365.08C587.35,-358.11 593.35,-348.12 598.61,-339.37"/>
<polygon fill="#63b8ff" stroke="#63b8ff" points="601.55,-341.28 603.7,-330.91 595.55,-337.68 601.55,-341.28"/>
</a>
</g>
</g>
<!-- Node30&#45;&gt;Node4 -->
<g id="edge36_Node000030_Node000004" class="edge">
<title>Node30&#45;&gt;Node4</title>
<g id="a_edge36_Node000030_Node000004"><a xlink:title=" ">
<path fill="none" stroke="#63b8ff" d="M610.77,-309.57C612.6,-294.67 617.87,-264.55 631.88,-243.5 639.59,-231.9 651.25,-221.83 661.86,-214.2"/>
<polygon fill="#63b8ff" stroke="#63b8ff" points="663.58,-217.26 669.9,-208.76 659.65,-211.46 663.58,-217.26"/>
</a>
</g>
</g>
<!-- Node30&#45;&gt;Node21 -->
<g id="edge37_Node000030_Node000021" class="edge">
<title>Node30&#45;&gt;Node21</title>
<g id="a_edge37_Node000030_Node000021"><a xlink:title=" ">
<path fill="none" stroke="#63b8ff" d="M591.39,-309.62C548.82,-288.91 443.67,-237.72 392.61,-212.86"/>
<polygon fill="#63b8ff" stroke="#63b8ff" points="394.46,-209.87 383.94,-208.64 391.4,-216.17 394.46,-209.87"/>
</a>
</g>
</g>
<!-- Node30&#45;&gt;Node28 -->
<g id="edge38_Node000030_Node000028" class="edge">
<title>Node30&#45;&gt;Node28</title>
<g id="a_edge38_Node000030_Node000028"><a xlink:title=" ">
<path fill="none" stroke="#63b8ff" d="M622.48,-309.68C633.24,-302.05 649.14,-290.77 663.11,-280.86"/>
<polygon fill="#63b8ff" stroke="#63b8ff" points="665.02,-283.8 671.15,-275.16 660.97,-278.09 665.02,-283.8"/>
</a>
</g>
</g>
<!-- Node31&#45;&gt;Node4 -->
<g id="edge41_Node000031_Node000004" class="edge">
<title>Node31&#45;&gt;Node4</title>
<g id="a_edge41_Node000031_Node000004"><a xlink:title=" ">
<path fill="none" stroke="#63b8ff" d="M755,-486.59C799.47,-471.56 875.88,-436.85 875.88,-375.88 875.88,-375.88 875.88,-375.88 875.88,-318.62 875.88,-256.85 802.93,-225.61 747.67,-210.81"/>
<polygon fill="#63b8ff" stroke="#63b8ff" points="748.55,-207.42 738,-208.35 746.83,-214.21 748.55,-207.42"/>
</a>
</g>
</g>
<!-- Node31&#45;&gt;Node12 -->
<g id="edge42_Node000031_Node000012" class="edge">
<title>Node31&#45;&gt;Node12</title>
<g id="a_edge42_Node000031_Node000012"><a xlink:title=" ">
<path fill="none" stroke="#63b8ff" d="M776.1,-486.51C833.26,-473.18 916.88,-442.32 916.88,-375.88 916.88,-375.88 916.88,-375.88 916.88,-257.75 916.88,-222.84 917.31,-182.21 917.6,-158.38"/>
<polygon fill="#63b8ff" stroke="#63b8ff" points="921.1,-158.57 917.73,-148.53 914.1,-158.48 921.1,-158.57"/>
</a>
</g>
</g>
<!-- Node31&#45;&gt;Node29 -->
<g id="edge43_Node000031_Node000029" class="edge">
<title>Node31&#45;&gt;Node29</title>
<g id="a_edge43_Node000031_Node000029"><a xlink:title=" ">
<path fill="none" stroke="#63b8ff" d="M711,-486.73C698.48,-477.95 679.03,-464 662.88,-451 639.06,-431.83 612.87,-408.28 595.94,-392.72"/>
<polygon fill="#63b8ff" stroke="#63b8ff" points="598.39,-390.22 588.68,-386 593.64,-395.36 598.39,-390.22"/>
</a>
</g>
</g>
<!-- Node31&#45;&gt;Node32 -->
<g id="edge44_Node000031_Node000032" class="edge">
<title>Node31&#45;&gt;Node32</title>
<g id="a_edge44_Node000031_Node000032"><a xlink:title=" ">
<path fill="none" stroke="#63b8ff" d="M723.88,-486.68C723.88,-480.23 723.88,-471.16 723.88,-462.51"/>
<polygon fill="#63b8ff" stroke="#63b8ff" points="727.38,-462.8 723.88,-452.8 720.38,-462.8 727.38,-462.8"/>
</a>
</g>
</g>
<!-- Node32&#45;&gt;Node28 -->
<g id="edge49_Node000032_Node000028" class="edge">
<title>Node32&#45;&gt;Node28</title>
<g id="a_edge49_Node000032_Node000028"><a xlink:title=" ">
<path fill="none" stroke="#63b8ff" d="M774.05,-420.1C802.68,-408.74 830.72,-390.62 818.88,-365.25 801.09,-327.16 762.04,-297.97 732.09,-280.05"/>
<polygon fill="#63b8ff" stroke="#63b8ff" points="734.05,-277.14 723.64,-275.16 730.55,-283.2 734.05,-277.14"/>
</a>
</g>
</g>
<!-- Node32&#45;&gt;Node29 -->
<g id="edge48_Node000032_Node000029" class="edge">
<title>Node32&#45;&gt;Node29</title>
<g id="a_edge48_Node000032_Node000029"><a xlink:title=" ">
<path fill="none" stroke="#63b8ff" d="M687.41,-420.05C663.89,-410.56 633.56,-398.33 610.78,-389.14"/>
<polygon fill="#63b8ff" stroke="#63b8ff" points="612.25,-385.96 601.67,-385.47 609.63,-392.46 612.25,-385.96"/>
</a>
</g>
</g>
<!-- Node33 -->
<g id="Node000033" class="node">
<title>Node33</title>
<g id="a_Node000033"><a xlink:title=" ">
<polygon fill="#e0e0e0" stroke="#999999" points="810.25,-384.5 769.5,-384.5 769.5,-365.25 810.25,-365.25 810.25,-384.5"/>
<text text-anchor="middle" x="789.88" y="-370.05" font-family="Arial" font-size="11.00">array</text>
</a>
</g>
</g>
<!-- Node32&#45;&gt;Node33 -->
<g id="edge45_Node000032_Node000033" class="edge">
<title>Node32&#45;&gt;Node33</title>
<g id="a_edge45_Node000032_Node000033"><a xlink:title=" ">
<path fill="none" stroke="#63b8ff" d="M740.19,-420.2C749.56,-411.84 761.37,-401.3 771.13,-392.6"/>
<polygon fill="#63b8ff" stroke="#63b8ff" points="773.44,-395.23 778.57,-385.96 768.78,-390 773.44,-395.23"/>
</a>
</g>
</g>
<!-- Node34 -->
<g id="Node000034" class="node">
<title>Node34</title>
<g id="a_Node000034"><a xlink:title=" ">
<polygon fill="#e0e0e0" stroke="#999999" points="693.5,-384.5 654.25,-384.5 654.25,-365.25 693.5,-365.25 693.5,-384.5"/>
<text text-anchor="middle" x="673.88" y="-370.05" font-family="Arial" font-size="11.00">tuple</text>
</a>
</g>
</g>
<!-- Node32&#45;&gt;Node34 -->
<g id="edge46_Node000032_Node000034" class="edge">
<title>Node32&#45;&gt;Node34</title>
<g id="a_edge46_Node000032_Node000034"><a xlink:title=" ">
<path fill="none" stroke="#63b8ff" d="M711.52,-420.2C704.71,-412.18 696.2,-402.17 689,-393.69"/>
<polygon fill="#63b8ff" stroke="#63b8ff" points="691.7,-391.46 682.56,-386.1 686.37,-395.99 691.7,-391.46"/>
</a>
</g>
</g>
<!-- Node35 -->
<g id="Node000035" class="node">
<title>Node35</title>
<g id="a_Node000035"><a xlink:title=" ">
<polygon fill="#e0e0e0" stroke="#999999" points="751.88,-384.5 711.88,-384.5 711.88,-365.25 751.88,-365.25 751.88,-384.5"/>
<text text-anchor="middle" x="731.88" y="-370.05" font-family="Arial" font-size="11.00">utility</text>
</a>
</g>
</g>
<!-- Node32&#45;&gt;Node35 -->
<g id="edge47_Node000032_Node000035" class="edge">
<title>Node32&#45;&gt;Node35</title>
<g id="a_edge47_Node000032_Node000035"><a xlink:title=" ">
<path fill="none" stroke="#63b8ff" d="M725.85,-420.2C726.84,-412.96 728.04,-404.09 729.11,-396.19"/>
<polygon fill="#63b8ff" stroke="#63b8ff" points="732.56,-396.83 730.44,-386.45 725.62,-395.89 732.56,-396.83"/>
</a>
</g>
</g>
</g>
</svg>
