<?xml version="1.0" encoding="UTF-8" standalone="no"?>
<!DOCTYPE svg PUBLIC "-//W3C//DTD SVG 1.1//EN"
 "http://www.w3.org/Graphics/SVG/1.1/DTD/svg11.dtd">
<!-- Generated by graphviz version 10.0.1 (0)
 -->
<!-- Title: vector2d.h Pages: 1 -->
<svg width="986pt" height="570pt"
 viewBox="0.00 0.00 986.00 569.50" xmlns="http://www.w3.org/2000/svg" xmlns:xlink="http://www.w3.org/1999/xlink">
<g id="graph0" class="graph" transform="scale(1 1) rotate(0) translate(4 565.5)">
<title>vector2d.h</title>
<!-- Node1 -->
<g id="Node000001" class="node">
<title>Node1</title>
<g id="a_Node000001"><a xlink:title="A two&#45;dimensional vector tagged with a unit.">
<polygon fill="#999999" stroke="#666666" points="575,-561.5 508.75,-561.5 508.75,-542.25 575,-542.25 575,-561.5"/>
<text text-anchor="middle" x="541.88" y="-547.05" font-family="Arial" font-size="11.00">vector2d.h</text>
</a>
</g>
</g>
<!-- Node2 -->
<g id="Node000002" class="node">
<title>Node2</title>
<g id="a_Node000002"><a xlink:title=" ">
<polygon fill="#e0e0e0" stroke="#999999" points="427.75,-506.25 366,-506.25 366,-487 427.75,-487 427.75,-506.25"/>
<text text-anchor="middle" x="396.88" y="-491.8" font-family="Arial" font-size="11.00">functional</text>
</a>
</g>
</g>
<!-- Node1&#45;&gt;Node2 -->
<g id="edge1_Node000001_Node000002" class="edge">
<title>Node1&#45;&gt;Node2</title>
<g id="a_edge1_Node000001_Node000002"><a xlink:title=" ">
<path fill="none" stroke="#63b8ff" d="M517.28,-541.84C493.95,-533.27 458.64,-520.31 432.28,-510.63"/>
<polygon fill="#63b8ff" stroke="#63b8ff" points="433.61,-507.39 423.01,-507.22 431.19,-513.96 433.61,-507.39"/>
</a>
</g>
</g>
<!-- Node3 -->
<g id="Node000003" class="node">
<title>Node3</title>
<g id="a_Node000003"><a xlink:href="../../da/dac/angle_8h.html" target="_top" xlink:title="Newtype describing an angle.">
<polygon fill="white" stroke="#666666" points="499.62,-329.25 386.12,-329.25 386.12,-310 499.62,-310 499.62,-329.25"/>
<text text-anchor="middle" x="442.88" y="-314.8" font-family="Arial" font-size="11.00">floppy/euclid/angle.h</text>
</a>
</g>
</g>
<!-- Node1&#45;&gt;Node3 -->
<g id="edge2_Node000001_Node000003" class="edge">
<title>Node1&#45;&gt;Node3</title>
<g id="a_edge2_Node000001_Node000003"><a xlink:title=" ">
<path fill="none" stroke="#63b8ff" d="M537.99,-541.85C523.36,-507.82 471.33,-386.81 451.05,-339.64"/>
<polygon fill="#63b8ff" stroke="#63b8ff" points="454.39,-338.54 447.22,-330.73 447.96,-341.3 454.39,-338.54"/>
</a>
</g>
</g>
<!-- Node29 -->
<g id="Node000029" class="node">
<title>Node29</title>
<g id="a_Node000029"><a xlink:href="../../dd/db9/length_8h.html" target="_top" xlink:title="A one&#45;dimensional distance with associated unit of measurement.">
<polygon fill="white" stroke="#666666" points="600.12,-384.5 483.62,-384.5 483.62,-365.25 600.12,-365.25 600.12,-384.5"/>
<text text-anchor="middle" x="541.88" y="-370.05" font-family="Arial" font-size="11.00">floppy/euclid/length.h</text>
</a>
</g>
</g>
<!-- Node1&#45;&gt;Node29 -->
<g id="edge36_Node000001_Node000029" class="edge">
<title>Node1&#45;&gt;Node29</title>
<g id="a_edge36_Node000001_Node000029"><a xlink:title=" ">
<path fill="none" stroke="#63b8ff" d="M541.88,-541.96C541.88,-515.05 541.88,-434.19 541.88,-396.12"/>
<polygon fill="#63b8ff" stroke="#63b8ff" points="545.38,-396.5 541.88,-386.5 538.38,-396.5 545.38,-396.5"/>
</a>
</g>
</g>
<!-- Node31 -->
<g id="Node000031" class="node">
<title>Node31</title>
<g id="a_Node000031"><a xlink:href="../../dc/df8/size2d_8h.html" target="_top" xlink:title="A two&#45;dimensional size tagged with a unit.">
<polygon fill="white" stroke="#666666" points="746.88,-506.25 628.88,-506.25 628.88,-487 746.88,-487 746.88,-506.25"/>
<text text-anchor="middle" x="687.88" y="-491.8" font-family="Arial" font-size="11.00">floppy/euclid/size2d.h</text>
</a>
</g>
</g>
<!-- Node1&#45;&gt;Node31 -->
<g id="edge42_Node000001_Node000031" class="edge">
<title>Node1&#45;&gt;Node31</title>
<g id="a_edge42_Node000001_Node000031"><a xlink:title=" ">
<path fill="none" stroke="#63b8ff" d="M566.64,-541.84C590.13,-533.27 625.69,-520.31 652.23,-510.63"/>
<polygon fill="#63b8ff" stroke="#63b8ff" points="653.37,-513.94 661.56,-507.22 650.97,-507.36 653.37,-513.94"/>
</a>
</g>
</g>
<!-- Node32 -->
<g id="Node000032" class="node">
<title>Node32</title>
<g id="a_Node000032"><a xlink:href="../../da/d53/nt__traits2d_8h_source.html" target="_top" xlink:title=" ">
<polygon fill="white" stroke="#666666" points="739.75,-451 636,-451 636,-420.5 739.75,-420.5 739.75,-451"/>
<text text-anchor="start" x="644" y="-436.55" font-family="Arial" font-size="11.00">floppy/euclid/detail</text>
<text text-anchor="middle" x="687.88" y="-425.3" font-family="Arial" font-size="11.00">/nt_traits2d.h</text>
</a>
</g>
</g>
<!-- Node1&#45;&gt;Node32 -->
<g id="edge52_Node000001_Node000032" class="edge">
<title>Node1&#45;&gt;Node32</title>
<g id="a_edge52_Node000001_Node000032"><a xlink:title=" ">
<path fill="none" stroke="#63b8ff" d="M552.34,-542.03C567.18,-529.54 595.29,-506.13 619.88,-487 632.31,-477.33 646.27,-466.93 658.29,-458.12"/>
<polygon fill="#63b8ff" stroke="#63b8ff" points="660.21,-461.05 666.22,-452.33 656.08,-455.4 660.21,-461.05"/>
</a>
</g>
</g>
<!-- Node4 -->
<g id="Node000004" class="node">
<title>Node4</title>
<g id="a_Node000004"><a xlink:href="../../df/db1/math_8h_source.html" target="_top" xlink:title=" ">
<polygon fill="white" stroke="#666666" points="705.38,-207.5 596.38,-207.5 596.38,-188.25 705.38,-188.25 705.38,-207.5"/>
<text text-anchor="middle" x="650.88" y="-193.05" font-family="Arial" font-size="11.00">floppy/detail/math.h</text>
</a>
</g>
</g>
<!-- Node3&#45;&gt;Node4 -->
<g id="edge3_Node000003_Node000004" class="edge">
<title>Node3&#45;&gt;Node4</title>
<g id="a_edge3_Node000003_Node000004"><a xlink:title=" ">
<path fill="none" stroke="#63b8ff" d="M458.51,-309.62C494.12,-289.12 581.55,-238.79 625.21,-213.65"/>
<polygon fill="#63b8ff" stroke="#63b8ff" points="626.83,-216.76 633.75,-208.74 623.34,-210.69 626.83,-216.76"/>
</a>
</g>
</g>
<!-- Node22 -->
<g id="Node000022" class="node">
<title>Node22</title>
<g id="a_Node000022"><a xlink:href="../../dd/dff/traits_8h_source.html" target="_top" xlink:title=" ">
<polygon fill="white" stroke="#666666" points="367.75,-207.5 288,-207.5 288,-188.25 367.75,-188.25 367.75,-207.5"/>
<text text-anchor="middle" x="327.88" y="-193.05" font-family="Arial" font-size="11.00">floppy/traits.h</text>
</a>
</g>
</g>
<!-- Node3&#45;&gt;Node22 -->
<g id="edge23_Node000003_Node000022" class="edge">
<title>Node3&#45;&gt;Node22</title>
<g id="a_edge23_Node000003_Node000022"><a xlink:title=" ">
<path fill="none" stroke="#63b8ff" d="M434.23,-309.62C415.17,-289.77 369.24,-241.95 344.43,-216.12"/>
<polygon fill="#63b8ff" stroke="#63b8ff" points="347.12,-213.86 337.67,-209.07 342.07,-218.71 347.12,-213.86"/>
</a>
</g>
</g>
<!-- Node28 -->
<g id="Node000028" class="node">
<title>Node28</title>
<g id="a_Node000028"><a xlink:href="../../de/de1/nt__traits_8h_source.html" target="_top" xlink:title=" ">
<polygon fill="white" stroke="#666666" points="708.75,-274 605,-274 605,-243.5 708.75,-243.5 708.75,-274"/>
<text text-anchor="start" x="613" y="-259.55" font-family="Arial" font-size="11.00">floppy/euclid/detail</text>
<text text-anchor="middle" x="656.88" y="-248.3" font-family="Arial" font-size="11.00">/nt_traits.h</text>
</a>
</g>
</g>
<!-- Node3&#45;&gt;Node28 -->
<g id="edge33_Node000003_Node000028" class="edge">
<title>Node3&#45;&gt;Node28</title>
<g id="a_edge33_Node000003_Node000028"><a xlink:title=" ">
<path fill="none" stroke="#63b8ff" d="M475.84,-309.55C507.24,-300.92 555.33,-287.69 594.05,-277.03"/>
<polygon fill="#63b8ff" stroke="#63b8ff" points="594.53,-280.53 603.24,-274.51 592.67,-273.78 594.53,-280.53"/>
</a>
</g>
</g>
<!-- Node5 -->
<g id="Node000005" class="node">
<title>Node5</title>
<g id="a_Node000005"><a xlink:title=" ">
<polygon fill="#e0e0e0" stroke="#999999" points="741.5,-146.62 696.25,-146.62 696.25,-127.38 741.5,-127.38 741.5,-146.62"/>
<text text-anchor="middle" x="718.88" y="-132.18" font-family="Arial" font-size="11.00">cmath</text>
</a>
</g>
</g>
<!-- Node4&#45;&gt;Node5 -->
<g id="edge4_Node000004_Node000005" class="edge">
<title>Node4&#45;&gt;Node5</title>
<g id="a_edge4_Node000004_Node000005"><a xlink:title=" ">
<path fill="none" stroke="#63b8ff" d="M661.2,-187.93C671.49,-179.03 687.51,-165.16 700.06,-154.29"/>
<polygon fill="#63b8ff" stroke="#63b8ff" points="702.04,-157.21 707.31,-148.02 697.45,-151.92 702.04,-157.21"/>
</a>
</g>
</g>
<!-- Node6 -->
<g id="Node000006" class="node">
<title>Node6</title>
<g id="a_Node000006"><a xlink:title=" ">
<polygon fill="#e0e0e0" stroke="#999999" points="799.88,-146.62 759.88,-146.62 759.88,-127.38 799.88,-127.38 799.88,-146.62"/>
<text text-anchor="middle" x="779.88" y="-132.18" font-family="Arial" font-size="11.00">limits</text>
</a>
</g>
</g>
<!-- Node4&#45;&gt;Node6 -->
<g id="edge5_Node000004_Node000006" class="edge">
<title>Node4&#45;&gt;Node6</title>
<g id="a_edge5_Node000004_Node000006"><a xlink:title=" ">
<path fill="none" stroke="#63b8ff" d="M671.66,-187.87C691.96,-179.01 723.68,-165 750.88,-152.25 751.1,-152.15 751.32,-152.04 751.54,-151.94"/>
<polygon fill="#63b8ff" stroke="#63b8ff" points="752.96,-155.14 760.46,-147.65 749.93,-148.83 752.96,-155.14"/>
</a>
</g>
</g>
<!-- Node7 -->
<g id="Node000007" class="node">
<title>Node7</title>
<g id="a_Node000007"><a xlink:title=" ">
<polygon fill="#e0e0e0" stroke="#999999" points="601.88,-146.62 543.88,-146.62 543.88,-127.38 601.88,-127.38 601.88,-146.62"/>
<text text-anchor="middle" x="572.88" y="-132.18" font-family="Arial" font-size="11.00">numbers</text>
</a>
</g>
</g>
<!-- Node4&#45;&gt;Node7 -->
<g id="edge6_Node000004_Node000007" class="edge">
<title>Node4&#45;&gt;Node7</title>
<g id="a_edge6_Node000004_Node000007"><a xlink:title=" ">
<path fill="none" stroke="#63b8ff" d="M639.03,-187.93C627,-178.86 608.14,-164.62 593.63,-153.66"/>
<polygon fill="#63b8ff" stroke="#63b8ff" points="596.13,-151.17 586.04,-147.94 591.91,-156.76 596.13,-151.17"/>
</a>
</g>
</g>
<!-- Node8 -->
<g id="Node000008" class="node">
<title>Node8</title>
<g id="a_Node000008"><a xlink:title=" ">
<polygon fill="#e0e0e0" stroke="#999999" points="677.88,-146.62 619.88,-146.62 619.88,-127.38 677.88,-127.38 677.88,-146.62"/>
<text text-anchor="middle" x="648.88" y="-132.18" font-family="Arial" font-size="11.00">compare</text>
</a>
</g>
</g>
<!-- Node4&#45;&gt;Node8 -->
<g id="edge7_Node000004_Node000008" class="edge">
<title>Node4&#45;&gt;Node8</title>
<g id="a_edge7_Node000004_Node000008"><a xlink:title=" ">
<path fill="none" stroke="#63b8ff" d="M650.57,-187.93C650.3,-180.07 649.91,-168.32 649.56,-158.2"/>
<polygon fill="#63b8ff" stroke="#63b8ff" points="653.07,-158.41 649.23,-148.54 646.07,-158.65 653.07,-158.41"/>
</a>
</g>
</g>
<!-- Node9 -->
<g id="Node000009" class="node">
<title>Node9</title>
<g id="a_Node000009"><a xlink:href="../../db/db5/export_8h_source.html" target="_top" xlink:title=" ">
<polygon fill="white" stroke="#666666" points="525.38,-146.62 410.38,-146.62 410.38,-127.38 525.38,-127.38 525.38,-146.62"/>
<text text-anchor="middle" x="467.88" y="-132.18" font-family="Arial" font-size="11.00">floppy/detail/export.h</text>
</a>
</g>
</g>
<!-- Node4&#45;&gt;Node9 -->
<g id="edge8_Node000004_Node000009" class="edge">
<title>Node4&#45;&gt;Node9</title>
<g id="a_edge8_Node000004_Node000009"><a xlink:title=" ">
<path fill="none" stroke="#63b8ff" d="M622.68,-187.8C591.65,-177.82 541.57,-161.71 506.8,-150.52"/>
<polygon fill="#63b8ff" stroke="#63b8ff" points="508.13,-147.27 497.54,-147.54 505.99,-153.94 508.13,-147.27"/>
</a>
</g>
</g>
<!-- Node14 -->
<g id="Node000014" class="node">
<title>Node14</title>
<g id="a_Node000014"><a xlink:href="../../d9/db1/concepts_8h_source.html" target="_top" xlink:title=" ">
<polygon fill="white" stroke="#666666" points="945.75,-146.62 818,-146.62 818,-127.38 945.75,-127.38 945.75,-146.62"/>
<text text-anchor="middle" x="881.88" y="-132.18" font-family="Arial" font-size="11.00">floppy/detail/concepts.h</text>
</a>
</g>
</g>
<!-- Node4&#45;&gt;Node14 -->
<g id="edge13_Node000004_Node000014" class="edge">
<title>Node4&#45;&gt;Node14</title>
<g id="a_edge13_Node000004_Node000014"><a xlink:title=" ">
<path fill="none" stroke="#63b8ff" d="M686.46,-187.8C726.4,-177.63 791.33,-161.08 835.28,-149.88"/>
<polygon fill="#63b8ff" stroke="#63b8ff" points="835.95,-153.32 844.78,-147.45 834.23,-146.53 835.95,-153.32"/>
</a>
</g>
</g>
<!-- Node10 -->
<g id="Node000010" class="node">
<title>Node10</title>
<g id="a_Node000010"><a xlink:title=" ">
<polygon fill="#e0e0e0" stroke="#999999" points="479,-80.12 436.75,-80.12 436.75,-60.88 479,-60.88 479,-80.12"/>
<text text-anchor="middle" x="457.88" y="-65.67" font-family="Arial" font-size="11.00">string</text>
</a>
</g>
</g>
<!-- Node9&#45;&gt;Node10 -->
<g id="edge9_Node000009_Node000010" class="edge">
<title>Node9&#45;&gt;Node10</title>
<g id="a_edge9_Node000009_Node000010"><a xlink:title=" ">
<path fill="none" stroke="#63b8ff" d="M466.48,-127.03C465.07,-117.89 462.82,-103.39 460.98,-91.5"/>
<polygon fill="#63b8ff" stroke="#63b8ff" points="464.48,-91.23 459.49,-81.89 457.56,-92.31 464.48,-91.23"/>
</a>
</g>
</g>
<!-- Node11 -->
<g id="Node000011" class="node">
<title>Node11</title>
<g id="a_Node000011"><a xlink:title=" ">
<polygon fill="#e0e0e0" stroke="#999999" points="284.88,-80.12 214.88,-80.12 214.88,-60.88 284.88,-60.88 284.88,-80.12"/>
<text text-anchor="middle" x="249.88" y="-65.67" font-family="Arial" font-size="11.00">string_view</text>
</a>
</g>
</g>
<!-- Node9&#45;&gt;Node11 -->
<g id="edge10_Node000009_Node000011" class="edge">
<title>Node9&#45;&gt;Node11</title>
<g id="a_edge10_Node000009_Node000011"><a xlink:title=" ">
<path fill="none" stroke="#63b8ff" d="M437.1,-126.9C398.96,-115.61 333.82,-96.34 291.31,-83.76"/>
<polygon fill="#63b8ff" stroke="#63b8ff" points="292.52,-80.47 281.94,-80.99 290.54,-87.18 292.52,-80.47"/>
</a>
</g>
</g>
<!-- Node12 -->
<g id="Node000012" class="node">
<title>Node12</title>
<g id="a_Node000012"><a xlink:title=" ">
<polygon fill="#e0e0e0" stroke="#999999" points="399.5,-80.12 342.25,-80.12 342.25,-60.88 399.5,-60.88 399.5,-80.12"/>
<text text-anchor="middle" x="370.88" y="-65.67" font-family="Arial" font-size="11.00">iostream</text>
</a>
</g>
</g>
<!-- Node9&#45;&gt;Node12 -->
<g id="edge11_Node000009_Node000012" class="edge">
<title>Node9&#45;&gt;Node12</title>
<g id="a_edge11_Node000009_Node000012"><a xlink:title=" ">
<path fill="none" stroke="#63b8ff" d="M454.39,-127.03C438.77,-116.64 412.77,-99.36 393.93,-86.83"/>
<polygon fill="#63b8ff" stroke="#63b8ff" points="396.09,-84.06 385.82,-81.44 392.21,-89.89 396.09,-84.06"/>
</a>
</g>
</g>
<!-- Node13 -->
<g id="Node000013" class="node">
<title>Node13</title>
<g id="a_Node000013"><a xlink:title=" ">
<polygon fill="#e0e0e0" stroke="#999999" points="543.75,-19.25 470,-19.25 470,0 543.75,0 543.75,-19.25"/>
<text text-anchor="middle" x="506.88" y="-4.8" font-family="Arial" font-size="11.00">fmt/format.h</text>
</a>
</g>
</g>
<!-- Node9&#45;&gt;Node13 -->
<g id="edge12_Node000009_Node000013" class="edge">
<title>Node9&#45;&gt;Node13</title>
<g id="a_edge12_Node000009_Node000013"><a xlink:title=" ">
<path fill="none" stroke="#63b8ff" d="M471.77,-127.23C476.09,-117.3 483.07,-100.58 487.88,-85.75 493.83,-67.35 499.09,-45.93 502.56,-30.68"/>
<polygon fill="#63b8ff" stroke="#63b8ff" points="505.96,-31.52 504.7,-21 499.12,-30.01 505.96,-31.52"/>
</a>
</g>
</g>
<!-- Node15 -->
<g id="Node000015" class="node">
<title>Node15</title>
<g id="a_Node000015"><a xlink:title=" ">
<polygon fill="#e0e0e0" stroke="#999999" points="863.25,-80.12 804.5,-80.12 804.5,-60.88 863.25,-60.88 863.25,-80.12"/>
<text text-anchor="middle" x="833.88" y="-65.67" font-family="Arial" font-size="11.00">concepts</text>
</a>
</g>
</g>
<!-- Node14&#45;&gt;Node15 -->
<g id="edge14_Node000014_Node000015" class="edge">
<title>Node14&#45;&gt;Node15</title>
<g id="a_edge14_Node000014_Node000015"><a xlink:title=" ">
<path fill="none" stroke="#63b8ff" d="M875.2,-127.03C867.96,-117.31 856.23,-101.54 847.11,-89.28"/>
<polygon fill="#63b8ff" stroke="#63b8ff" points="850.17,-87.54 841.4,-81.61 844.56,-91.72 850.17,-87.54"/>
</a>
</g>
</g>
<!-- Node16 -->
<g id="Node000016" class="node">
<title>Node16</title>
<g id="a_Node000016"><a xlink:href="../../df/d63/type__traits_8h_source.html" target="_top" xlink:title=" ">
<polygon fill="white" stroke="#666666" points="978,-85.75 881.75,-85.75 881.75,-55.25 978,-55.25 978,-85.75"/>
<text text-anchor="start" x="889.75" y="-71.3" font-family="Arial" font-size="11.00">floppy/detail/type</text>
<text text-anchor="middle" x="929.88" y="-60.05" font-family="Arial" font-size="11.00">_traits.h</text>
</a>
</g>
</g>
<!-- Node14&#45;&gt;Node16 -->
<g id="edge15_Node000014_Node000016" class="edge">
<title>Node14&#45;&gt;Node16</title>
<g id="a_edge15_Node000014_Node000016"><a xlink:title=" ">
<path fill="none" stroke="#63b8ff" d="M888.55,-127.03C894.69,-118.79 904.06,-106.19 912.33,-95.08"/>
<polygon fill="#63b8ff" stroke="#63b8ff" points="915.13,-97.17 918.3,-87.06 909.52,-92.99 915.13,-97.17"/>
</a>
</g>
</g>
<!-- Node18 -->
<g id="Node000018" class="node">
<title>Node18</title>
<g id="a_Node000018"><a xlink:href="../../d9/d49/types_8h_source.html" target="_top" xlink:title=" ">
<polygon fill="white" stroke="#666666" points="786.12,-80.12 675.62,-80.12 675.62,-60.88 786.12,-60.88 786.12,-80.12"/>
<text text-anchor="middle" x="730.88" y="-65.67" font-family="Arial" font-size="11.00">floppy/detail/types.h</text>
</a>
</g>
</g>
<!-- Node14&#45;&gt;Node18 -->
<g id="edge17_Node000014_Node000018" class="edge">
<title>Node14&#45;&gt;Node18</title>
<g id="a_edge17_Node000014_Node000018"><a xlink:title=" ">
<path fill="none" stroke="#63b8ff" d="M860.56,-126.9C835.04,-116 792.07,-97.64 762.63,-85.07"/>
<polygon fill="#63b8ff" stroke="#63b8ff" points="764.04,-81.86 753.47,-81.15 761.29,-88.3 764.04,-81.86"/>
</a>
</g>
</g>
<!-- Node17 -->
<g id="Node000017" class="node">
<title>Node17</title>
<g id="a_Node000017"><a xlink:title=" ">
<polygon fill="#e0e0e0" stroke="#999999" points="935.62,-19.25 870.12,-19.25 870.12,0 935.62,0 935.62,-19.25"/>
<text text-anchor="middle" x="902.88" y="-4.8" font-family="Arial" font-size="11.00">type_traits</text>
</a>
</g>
</g>
<!-- Node16&#45;&gt;Node17 -->
<g id="edge16_Node000016_Node000017" class="edge">
<title>Node16&#45;&gt;Node17</title>
<g id="a_edge16_Node000016_Node000017"><a xlink:title=" ">
<path fill="none" stroke="#63b8ff" d="M923.2,-54.95C919.76,-47.45 915.52,-38.2 911.8,-30.1"/>
<polygon fill="#63b8ff" stroke="#63b8ff" points="915.02,-28.71 907.67,-21.08 908.66,-31.63 915.02,-28.71"/>
</a>
</g>
</g>
<!-- Node18&#45;&gt;Node13 -->
<g id="edge22_Node000018_Node000013" class="edge">
<title>Node18&#45;&gt;Node13</title>
<g id="a_edge22_Node000018_Node000013"><a xlink:title=" ">
<path fill="none" stroke="#63b8ff" d="M696.37,-60.43C657.73,-50.27 594.95,-33.77 552.33,-22.57"/>
<polygon fill="#63b8ff" stroke="#63b8ff" points="553.45,-19.25 542.89,-20.09 551.67,-26.02 553.45,-19.25"/>
</a>
</g>
</g>
<!-- Node18&#45;&gt;Node17 -->
<g id="edge21_Node000018_Node000017" class="edge">
<title>Node18&#45;&gt;Node17</title>
<g id="a_edge21_Node000018_Node000017"><a xlink:title=" ">
<path fill="none" stroke="#63b8ff" d="M757.37,-60.43C786.41,-50.49 833.21,-34.47 865.86,-23.29"/>
<polygon fill="#63b8ff" stroke="#63b8ff" points="866.59,-26.75 874.91,-20.2 864.32,-20.12 866.59,-26.75"/>
</a>
</g>
</g>
<!-- Node19 -->
<g id="Node000019" class="node">
<title>Node19</title>
<g id="a_Node000019"><a xlink:title=" ">
<polygon fill="#e0e0e0" stroke="#999999" points="826.12,-19.25 775.62,-19.25 775.62,0 826.12,0 826.12,-19.25"/>
<text text-anchor="middle" x="800.88" y="-4.8" font-family="Arial" font-size="11.00">cstddef</text>
</a>
</g>
</g>
<!-- Node18&#45;&gt;Node19 -->
<g id="edge18_Node000018_Node000019" class="edge">
<title>Node18&#45;&gt;Node19</title>
<g id="a_edge18_Node000018_Node000019"><a xlink:title=" ">
<path fill="none" stroke="#63b8ff" d="M741.51,-60.56C752.09,-51.65 768.59,-37.78 781.5,-26.92"/>
<polygon fill="#63b8ff" stroke="#63b8ff" points="783.58,-29.74 788.99,-20.63 779.08,-24.38 783.58,-29.74"/>
</a>
</g>
</g>
<!-- Node20 -->
<g id="Node000020" class="node">
<title>Node20</title>
<g id="a_Node000020"><a xlink:title=" ">
<polygon fill="#e0e0e0" stroke="#999999" points="686.25,-19.25 639.5,-19.25 639.5,0 686.25,0 686.25,-19.25"/>
<text text-anchor="middle" x="662.88" y="-4.8" font-family="Arial" font-size="11.00">cstdint</text>
</a>
</g>
</g>
<!-- Node18&#45;&gt;Node20 -->
<g id="edge19_Node000018_Node000020" class="edge">
<title>Node18&#45;&gt;Node20</title>
<g id="a_edge19_Node000018_Node000020"><a xlink:title=" ">
<path fill="none" stroke="#63b8ff" d="M720.55,-60.56C710.26,-51.65 694.24,-37.78 681.69,-26.92"/>
<polygon fill="#63b8ff" stroke="#63b8ff" points="684.3,-24.54 674.44,-20.64 679.71,-29.83 684.3,-24.54"/>
</a>
</g>
</g>
<!-- Node21 -->
<g id="Node000021" class="node">
<title>Node21</title>
<g id="a_Node000021"><a xlink:title=" ">
<polygon fill="#e0e0e0" stroke="#999999" points="757.62,-19.25 704.12,-19.25 704.12,0 757.62,0 757.62,-19.25"/>
<text text-anchor="middle" x="730.88" y="-4.8" font-family="Arial" font-size="11.00">optional</text>
</a>
</g>
</g>
<!-- Node18&#45;&gt;Node21 -->
<g id="edge20_Node000018_Node000021" class="edge">
<title>Node18&#45;&gt;Node21</title>
<g id="a_edge20_Node000018_Node000021"><a xlink:title=" ">
<path fill="none" stroke="#63b8ff" d="M730.88,-60.56C730.88,-52.78 730.88,-41.2 730.88,-31.16"/>
<polygon fill="#63b8ff" stroke="#63b8ff" points="734.38,-31.16 730.88,-21.16 727.38,-31.16 734.38,-31.16"/>
</a>
</g>
</g>
<!-- Node22&#45;&gt;Node9 -->
<g id="edge27_Node000022_Node000009" class="edge">
<title>Node22&#45;&gt;Node9</title>
<g id="a_edge27_Node000022_Node000009"><a xlink:title=" ">
<path fill="none" stroke="#63b8ff" d="M349.44,-187.8C372.63,-178.05 409.73,-162.45 436.23,-151.31"/>
<polygon fill="#63b8ff" stroke="#63b8ff" points="437.26,-154.67 445.12,-147.57 434.54,-148.22 437.26,-154.67"/>
</a>
</g>
</g>
<!-- Node22&#45;&gt;Node12 -->
<g id="edge25_Node000022_Node000012" class="edge">
<title>Node22&#45;&gt;Node12</title>
<g id="a_edge25_Node000022_Node000012"><a xlink:title=" ">
<path fill="none" stroke="#63b8ff" d="M287.93,-191.68C234.39,-183.05 149.49,-162.51 180.88,-121.75 190.11,-109.75 277.86,-90.24 330.82,-79.4"/>
<polygon fill="#63b8ff" stroke="#63b8ff" points="331.28,-82.87 340.39,-77.46 329.89,-76.01 331.28,-82.87"/>
</a>
</g>
</g>
<!-- Node23 -->
<g id="Node000023" class="node">
<title>Node23</title>
<g id="a_Node000023"><a xlink:title=" ">
<polygon fill="#e0e0e0" stroke="#999999" points="245.38,-146.62 190.38,-146.62 190.38,-127.38 245.38,-127.38 245.38,-146.62"/>
<text text-anchor="middle" x="217.88" y="-132.18" font-family="Arial" font-size="11.00">memory</text>
</a>
</g>
</g>
<!-- Node22&#45;&gt;Node23 -->
<g id="edge24_Node000022_Node000023" class="edge">
<title>Node22&#45;&gt;Node23</title>
<g id="a_edge24_Node000022_Node000023"><a xlink:title=" ">
<path fill="none" stroke="#63b8ff" d="M311.17,-187.93C293.56,-178.51 265.56,-163.52 244.83,-152.43"/>
<polygon fill="#63b8ff" stroke="#63b8ff" points="246.54,-149.37 236.07,-147.74 243.24,-155.54 246.54,-149.37"/>
</a>
</g>
</g>
<!-- Node24 -->
<g id="Node000024" class="node">
<title>Node24</title>
<g id="a_Node000024"><a xlink:title=" ">
<polygon fill="#e0e0e0" stroke="#999999" points="392.5,-152.25 263.25,-152.25 263.25,-121.75 392.5,-121.75 392.5,-152.25"/>
<text text-anchor="start" x="271.25" y="-137.8" font-family="Arial" font-size="11.00">experimental/propagate</text>
<text text-anchor="middle" x="327.88" y="-126.55" font-family="Arial" font-size="11.00">_const</text>
</a>
</g>
</g>
<!-- Node22&#45;&gt;Node24 -->
<g id="edge26_Node000022_Node000024" class="edge">
<title>Node22&#45;&gt;Node24</title>
<g id="a_edge26_Node000022_Node000024"><a xlink:title=" ">
<path fill="none" stroke="#63b8ff" d="M327.88,-187.93C327.88,-181.48 327.88,-172.41 327.88,-163.76"/>
<polygon fill="#63b8ff" stroke="#63b8ff" points="331.38,-164.05 327.88,-154.05 324.38,-164.05 331.38,-164.05"/>
</a>
</g>
</g>
<!-- Node25 -->
<g id="Node000025" class="node">
<title>Node25</title>
<g id="a_Node000025"><a xlink:href="../../d6/d45/formatters_8h_source.html" target="_top" xlink:title=" ">
<polygon fill="white" stroke="#666666" points="133.75,-146.62 0,-146.62 0,-127.38 133.75,-127.38 133.75,-146.62"/>
<text text-anchor="middle" x="66.88" y="-132.18" font-family="Arial" font-size="11.00">floppy/detail/formatters.h</text>
</a>
</g>
</g>
<!-- Node22&#45;&gt;Node25 -->
<g id="edge28_Node000022_Node000025" class="edge">
<title>Node22&#45;&gt;Node25</title>
<g id="a_edge28_Node000022_Node000025"><a xlink:title=" ">
<path fill="none" stroke="#63b8ff" d="M287.67,-187.8C242.16,-177.54 167.94,-160.8 118.26,-149.59"/>
<polygon fill="#63b8ff" stroke="#63b8ff" points="119.13,-146.2 108.61,-147.41 117.59,-153.03 119.13,-146.2"/>
</a>
</g>
</g>
<!-- Node25&#45;&gt;Node11 -->
<g id="edge29_Node000025_Node000011" class="edge">
<title>Node25&#45;&gt;Node11</title>
<g id="a_edge29_Node000025_Node000011"><a xlink:title=" ">
<path fill="none" stroke="#63b8ff" d="M92.71,-126.9C124.31,-115.76 178.02,-96.83 213.72,-84.24"/>
<polygon fill="#63b8ff" stroke="#63b8ff" points="214.48,-87.69 222.75,-81.06 212.15,-81.08 214.48,-87.69"/>
</a>
</g>
</g>
<!-- Node25&#45;&gt;Node13 -->
<g id="edge32_Node000025_Node000013" class="edge">
<title>Node25&#45;&gt;Node13</title>
<g id="a_edge32_Node000025_Node000013"><a xlink:title=" ">
<path fill="none" stroke="#63b8ff" d="M62.1,-126.88C54.16,-110.33 40.82,-75.2 58.88,-55.25 85.29,-26.07 347.45,-15.18 458.05,-11.87"/>
<polygon fill="#63b8ff" stroke="#63b8ff" points="458.11,-15.37 468.01,-11.58 457.91,-8.37 458.11,-15.37"/>
</a>
</g>
</g>
<!-- Node26 -->
<g id="Node000026" class="node">
<title>Node26</title>
<g id="a_Node000026"><a xlink:title=" ">
<polygon fill="#e0e0e0" stroke="#999999" points="122,-80.12 67.75,-80.12 67.75,-60.88 122,-60.88 122,-80.12"/>
<text text-anchor="middle" x="94.88" y="-65.67" font-family="Arial" font-size="11.00">sstream</text>
</a>
</g>
</g>
<!-- Node25&#45;&gt;Node26 -->
<g id="edge30_Node000025_Node000026" class="edge">
<title>Node25&#45;&gt;Node26</title>
<g id="a_edge30_Node000025_Node000026"><a xlink:title=" ">
<path fill="none" stroke="#63b8ff" d="M70.77,-127.03C74.82,-117.69 81.3,-102.78 86.52,-90.76"/>
<polygon fill="#63b8ff" stroke="#63b8ff" points="89.64,-92.35 90.41,-81.78 83.22,-89.56 89.64,-92.35"/>
</a>
</g>
</g>
<!-- Node27 -->
<g id="Node000027" class="node">
<title>Node27</title>
<g id="a_Node000027"><a xlink:title=" ">
<polygon fill="#e0e0e0" stroke="#999999" points="187.25,-80.12 140.5,-80.12 140.5,-60.88 187.25,-60.88 187.25,-80.12"/>
<text text-anchor="middle" x="163.88" y="-65.67" font-family="Arial" font-size="11.00">iosfwd</text>
</a>
</g>
</g>
<!-- Node25&#45;&gt;Node27 -->
<g id="edge31_Node000025_Node000027" class="edge">
<title>Node25&#45;&gt;Node27</title>
<g id="a_edge31_Node000025_Node000027"><a xlink:title=" ">
<path fill="none" stroke="#63b8ff" d="M80.36,-127.03C95.98,-116.64 121.98,-99.36 140.82,-86.83"/>
<polygon fill="#63b8ff" stroke="#63b8ff" points="142.54,-89.89 148.93,-81.44 138.66,-84.06 142.54,-89.89"/>
</a>
</g>
</g>
<!-- Node28&#45;&gt;Node4 -->
<g id="edge34_Node000028_Node000004" class="edge">
<title>Node28&#45;&gt;Node4</title>
<g id="a_edge34_Node000028_Node000004"><a xlink:title=" ">
<path fill="none" stroke="#63b8ff" d="M655.39,-243.2C654.65,-235.96 653.75,-227.09 652.95,-219.19"/>
<polygon fill="#63b8ff" stroke="#63b8ff" points="656.45,-219.05 651.95,-209.46 649.49,-219.76 656.45,-219.05"/>
</a>
</g>
</g>
<!-- Node28&#45;&gt;Node14 -->
<g id="edge35_Node000028_Node000014" class="edge">
<title>Node28&#45;&gt;Node14</title>
<g id="a_edge35_Node000028_Node000014"><a xlink:title=" ">
<path fill="none" stroke="#63b8ff" d="M684.46,-243.07C727.95,-219.92 811.91,-175.24 854.97,-152.32"/>
<polygon fill="#63b8ff" stroke="#63b8ff" points="856.47,-155.49 863.65,-147.7 853.18,-149.31 856.47,-155.49"/>
</a>
</g>
</g>
<!-- Node29&#45;&gt;Node28 -->
<g id="edge41_Node000029_Node000028" class="edge">
<title>Node29&#45;&gt;Node28</title>
<g id="a_edge41_Node000029_Node000028"><a xlink:title=" ">
<path fill="none" stroke="#63b8ff" d="M579.92,-364.9C600.16,-358.26 623.89,-347.17 638.88,-329.25 649.06,-317.07 653.56,-299.82 655.52,-285.54"/>
<polygon fill="#63b8ff" stroke="#63b8ff" points="658.97,-286.24 656.48,-275.94 652,-285.54 658.97,-286.24"/>
</a>
</g>
</g>
<!-- Node30 -->
<g id="Node000030" class="node">
<title>Node30</title>
<g id="a_Node000030"><a xlink:href="../../d8/d0c/scale_8h.html" target="_top" xlink:title="A scaling factor between two different units of measurement.">
<polygon fill="white" stroke="#666666" points="629.88,-329.25 517.88,-329.25 517.88,-310 629.88,-310 629.88,-329.25"/>
<text text-anchor="middle" x="573.88" y="-314.8" font-family="Arial" font-size="11.00">floppy/euclid/scale.h</text>
</a>
</g>
</g>
<!-- Node29&#45;&gt;Node30 -->
<g id="edge37_Node000029_Node000030" class="edge">
<title>Node29&#45;&gt;Node30</title>
<g id="a_edge37_Node000029_Node000030"><a xlink:title=" ">
<path fill="none" stroke="#63b8ff" d="M547.16,-365.08C551.35,-358.11 557.35,-348.12 562.61,-339.37"/>
<polygon fill="#63b8ff" stroke="#63b8ff" points="565.55,-341.28 567.7,-330.91 559.55,-337.68 565.55,-341.28"/>
</a>
</g>
</g>
<!-- Node30&#45;&gt;Node4 -->
<g id="edge38_Node000030_Node000004" class="edge">
<title>Node30&#45;&gt;Node4</title>
<g id="a_edge38_Node000030_Node000004"><a xlink:title=" ">
<path fill="none" stroke="#63b8ff" d="M574.77,-309.57C576.6,-294.67 581.87,-264.55 595.88,-243.5 603.59,-231.9 615.25,-221.83 625.86,-214.2"/>
<polygon fill="#63b8ff" stroke="#63b8ff" points="627.58,-217.26 633.9,-208.76 623.65,-211.46 627.58,-217.26"/>
</a>
</g>
</g>
<!-- Node30&#45;&gt;Node22 -->
<g id="edge39_Node000030_Node000022" class="edge">
<title>Node30&#45;&gt;Node22</title>
<g id="a_edge39_Node000030_Node000022"><a xlink:title=" ">
<path fill="none" stroke="#63b8ff" d="M555.39,-309.62C512.82,-288.91 407.67,-237.72 356.61,-212.86"/>
<polygon fill="#63b8ff" stroke="#63b8ff" points="358.46,-209.87 347.94,-208.64 355.4,-216.17 358.46,-209.87"/>
</a>
</g>
</g>
<!-- Node30&#45;&gt;Node28 -->
<g id="edge40_Node000030_Node000028" class="edge">
<title>Node30&#45;&gt;Node28</title>
<g id="a_edge40_Node000030_Node000028"><a xlink:title=" ">
<path fill="none" stroke="#63b8ff" d="M586.48,-309.68C597.24,-302.05 613.14,-290.77 627.11,-280.86"/>
<polygon fill="#63b8ff" stroke="#63b8ff" points="629.02,-283.8 635.15,-275.16 624.97,-278.09 629.02,-283.8"/>
</a>
</g>
</g>
<!-- Node31&#45;&gt;Node4 -->
<g id="edge43_Node000031_Node000004" class="edge">
<title>Node31&#45;&gt;Node4</title>
<g id="a_edge43_Node000031_Node000004"><a xlink:title=" ">
<path fill="none" stroke="#63b8ff" d="M719,-486.59C763.47,-471.56 839.88,-436.85 839.88,-375.88 839.88,-375.88 839.88,-375.88 839.88,-318.62 839.88,-256.85 766.93,-225.61 711.67,-210.81"/>
<polygon fill="#63b8ff" stroke="#63b8ff" points="712.55,-207.42 702,-208.35 710.83,-214.21 712.55,-207.42"/>
</a>
</g>
</g>
<!-- Node31&#45;&gt;Node14 -->
<g id="edge44_Node000031_Node000014" class="edge">
<title>Node31&#45;&gt;Node14</title>
<g id="a_edge44_Node000031_Node000014"><a xlink:title=" ">
<path fill="none" stroke="#63b8ff" d="M740.1,-486.51C797.26,-473.18 880.88,-442.32 880.88,-375.88 880.88,-375.88 880.88,-375.88 880.88,-257.75 880.88,-222.84 881.31,-182.21 881.6,-158.38"/>
<polygon fill="#63b8ff" stroke="#63b8ff" points="885.1,-158.57 881.73,-148.53 878.1,-158.48 885.1,-158.57"/>
</a>
</g>
</g>
<!-- Node31&#45;&gt;Node29 -->
<g id="edge45_Node000031_Node000029" class="edge">
<title>Node31&#45;&gt;Node29</title>
<g id="a_edge45_Node000031_Node000029"><a xlink:title=" ">
<path fill="none" stroke="#63b8ff" d="M675,-486.73C662.48,-477.95 643.03,-464 626.88,-451 603.06,-431.83 576.87,-408.28 559.94,-392.72"/>
<polygon fill="#63b8ff" stroke="#63b8ff" points="562.39,-390.22 552.68,-386 557.64,-395.36 562.39,-390.22"/>
</a>
</g>
</g>
<!-- Node31&#45;&gt;Node32 -->
<g id="edge46_Node000031_Node000032" class="edge">
<title>Node31&#45;&gt;Node32</title>
<g id="a_edge46_Node000031_Node000032"><a xlink:title=" ">
<path fill="none" stroke="#63b8ff" d="M687.88,-486.68C687.88,-480.23 687.88,-471.16 687.88,-462.51"/>
<polygon fill="#63b8ff" stroke="#63b8ff" points="691.38,-462.8 687.88,-452.8 684.38,-462.8 691.38,-462.8"/>
</a>
</g>
</g>
<!-- Node32&#45;&gt;Node28 -->
<g id="edge51_Node000032_Node000028" class="edge">
<title>Node32&#45;&gt;Node28</title>
<g id="a_edge51_Node000032_Node000028"><a xlink:title=" ">
<path fill="none" stroke="#63b8ff" d="M738.05,-420.1C766.68,-408.74 794.72,-390.62 782.88,-365.25 765.09,-327.16 726.04,-297.97 696.09,-280.05"/>
<polygon fill="#63b8ff" stroke="#63b8ff" points="698.05,-277.14 687.64,-275.16 694.55,-283.2 698.05,-277.14"/>
</a>
</g>
</g>
<!-- Node32&#45;&gt;Node29 -->
<g id="edge50_Node000032_Node000029" class="edge">
<title>Node32&#45;&gt;Node29</title>
<g id="a_edge50_Node000032_Node000029"><a xlink:title=" ">
<path fill="none" stroke="#63b8ff" d="M651.41,-420.05C627.89,-410.56 597.56,-398.33 574.78,-389.14"/>
<polygon fill="#63b8ff" stroke="#63b8ff" points="576.25,-385.96 565.67,-385.47 573.63,-392.46 576.25,-385.96"/>
</a>
</g>
</g>
<!-- Node33 -->
<g id="Node000033" class="node">
<title>Node33</title>
<g id="a_Node000033"><a xlink:title=" ">
<polygon fill="#e0e0e0" stroke="#999999" points="774.25,-384.5 733.5,-384.5 733.5,-365.25 774.25,-365.25 774.25,-384.5"/>
<text text-anchor="middle" x="753.88" y="-370.05" font-family="Arial" font-size="11.00">array</text>
</a>
</g>
</g>
<!-- Node32&#45;&gt;Node33 -->
<g id="edge47_Node000032_Node000033" class="edge">
<title>Node32&#45;&gt;Node33</title>
<g id="a_edge47_Node000032_Node000033"><a xlink:title=" ">
<path fill="none" stroke="#63b8ff" d="M704.19,-420.2C713.56,-411.84 725.37,-401.3 735.13,-392.6"/>
<polygon fill="#63b8ff" stroke="#63b8ff" points="737.44,-395.23 742.57,-385.96 732.78,-390 737.44,-395.23"/>
</a>
</g>
</g>
<!-- Node34 -->
<g id="Node000034" class="node">
<title>Node34</title>
<g id="a_Node000034"><a xlink:title=" ">
<polygon fill="#e0e0e0" stroke="#999999" points="657.5,-384.5 618.25,-384.5 618.25,-365.25 657.5,-365.25 657.5,-384.5"/>
<text text-anchor="middle" x="637.88" y="-370.05" font-family="Arial" font-size="11.00">tuple</text>
</a>
</g>
</g>
<!-- Node32&#45;&gt;Node34 -->
<g id="edge48_Node000032_Node000034" class="edge">
<title>Node32&#45;&gt;Node34</title>
<g id="a_edge48_Node000032_Node000034"><a xlink:title=" ">
<path fill="none" stroke="#63b8ff" d="M675.52,-420.2C668.71,-412.18 660.2,-402.17 653,-393.69"/>
<polygon fill="#63b8ff" stroke="#63b8ff" points="655.7,-391.46 646.56,-386.1 650.37,-395.99 655.7,-391.46"/>
</a>
</g>
</g>
<!-- Node35 -->
<g id="Node000035" class="node">
<title>Node35</title>
<g id="a_Node000035"><a xlink:title=" ">
<polygon fill="#e0e0e0" stroke="#999999" points="715.88,-384.5 675.88,-384.5 675.88,-365.25 715.88,-365.25 715.88,-384.5"/>
<text text-anchor="middle" x="695.88" y="-370.05" font-family="Arial" font-size="11.00">utility</text>
</a>
</g>
</g>
<!-- Node32&#45;&gt;Node35 -->
<g id="edge49_Node000032_Node000035" class="edge">
<title>Node32&#45;&gt;Node35</title>
<g id="a_edge49_Node000032_Node000035"><a xlink:title=" ">
<path fill="none" stroke="#63b8ff" d="M689.85,-420.2C690.84,-412.96 692.04,-404.09 693.11,-396.19"/>
<polygon fill="#63b8ff" stroke="#63b8ff" points="696.56,-396.83 694.44,-386.45 689.62,-395.89 696.56,-396.83"/>
</a>
</g>
</g>
</g>
</svg>
