<svg width="140" height="140" viewBox="0 0 140 140" fill="none" xmlns="http://www.w3.org/2000/svg">
<path d="M0 66C0 29.5492 29.5492 0 66 0H73.9111C110.362 0 139.911 29.5492 139.911 66V140H66C29.5492 140 0 110.451 0 74V66Z" fill="#416275"/>
<path d="M49.2895 122C47.9242 122 46.7722 121.531 45.8335 120.592C44.8948 119.653 44.4255 118.459 44.4255 117.008V49.808C44.4255 44.6027 45.4495 39.9093 47.4975 35.728C49.5455 31.4613 52.6602 28.0907 56.8415 25.616C61.0228 23.1413 66.2282 21.9467 72.4575 22.032C74.2495 22.032 76.1695 22.2027 78.2175 22.544C80.3508 22.8 82.5268 23.2693 84.7455 23.952C86.7082 24.464 88.2015 25.1893 89.2255 26.128C90.2495 26.9813 90.7615 28.1333 90.7615 29.584C90.7615 31.2907 90.1642 32.4427 88.9695 33.04C87.8602 33.6373 86.4522 33.68 84.7455 33.168C82.4415 32.4853 80.2655 31.9733 78.2175 31.632C76.1695 31.2907 74.2495 31.12 72.4575 31.12C66.6548 31.12 62.1748 32.656 59.0175 35.728C55.8602 38.8 54.2815 43.5787 54.2815 50.064V117.008C54.2815 118.459 53.8122 119.653 52.8735 120.592C51.9348 121.531 50.7402 122 49.2895 122ZM36.2335 63.12C34.8682 63.12 33.7588 62.736 32.9055 61.968C32.1375 61.1147 31.7535 60.0907 31.7535 58.896C31.7535 57.616 32.1375 56.592 32.9055 55.824C33.7588 54.9707 34.8682 54.544 36.2335 54.544H68.6175C69.9828 54.544 71.0495 54.9707 71.8175 55.824C72.6708 56.592 73.0975 57.616 73.0975 58.896C73.0975 60.0907 72.6708 61.1147 71.8175 61.968C71.0495 62.736 69.9828 63.12 68.6175 63.12H36.2335ZM101.642 122C98.1428 122 95.0708 121.061 92.4255 119.184C89.7802 117.307 87.6895 114.704 86.1535 111.376C84.6175 108.048 83.8495 104.208 83.8495 99.856V26.896C83.8495 25.4453 84.3188 24.2933 85.2575 23.44C86.1962 22.5013 87.3908 22.032 88.8415 22.032C90.2068 22.032 91.3588 22.5013 92.2975 23.44C93.2362 24.2933 93.7055 25.4453 93.7055 26.896V99.856C93.7055 103.525 94.4308 106.512 95.8815 108.816C97.4175 111.12 99.3375 112.272 101.642 112.272H104.842C106.036 112.272 107.018 112.741 107.786 113.68C108.639 114.533 109.066 115.685 109.066 117.136C109.066 118.587 108.511 119.781 107.402 120.72C106.292 121.573 104.884 122 103.178 122H101.642Z" fill="#F6C67C"/>
</svg>
