<?xml version="1.0" encoding="UTF-8" standalone="no"?>
<!DOCTYPE svg PUBLIC "-//W3C//DTD SVG 1.1//EN"
 "http://www.w3.org/Graphics/SVG/1.1/DTD/svg11.dtd">
<!-- Generated by graphviz version 10.0.1 (0)
 -->
<!-- Title: length&lt; U, T &gt; Pages: 1 -->
<svg width="274pt" height="138pt"
 viewBox="0.00 0.00 273.62 137.75" xmlns="http://www.w3.org/2000/svg" xmlns:xlink="http://www.w3.org/1999/xlink">
<g id="graph0" class="graph" transform="scale(1 1) rotate(0) translate(4 133.75)">
<title>length&lt; U, T &gt;</title>
<!-- Node1 -->
<g id="Node000001" class="node">
<title>Node1</title>
<g id="a_Node000001"><a xlink:title="A one&#45;dimensional distance with associated unit of measurement.">
<polygon fill="#999999" stroke="#666666" points="177,-19.25 92,-19.25 92,0 177,0 177,-19.25"/>
<text text-anchor="middle" x="134.5" y="-4.8" font-family="Arial" font-size="11.00">length&lt; U, T &gt;</text>
</a>
</g>
</g>
<!-- Node2 -->
<g id="Node000002" class="node">
<title>Node2</title>
<g id="a_Node000002"><a xlink:href="../../db/d59/structfloppy_1_1traits_1_1formattable.html" target="_top" xlink:title="Allows type to be converted to string and printed via standard streams or fmt.">
<polygon fill="white" stroke="#666666" points="123.38,-74.5 13.63,-74.5 13.63,-55.25 123.38,-55.25 123.38,-74.5"/>
<text text-anchor="middle" x="68.5" y="-60.05" font-family="Arial" font-size="11.00">formattable&lt; T, C &gt;</text>
</a>
</g>
</g>
<!-- Node2&#45;&gt;Node1 -->
<g id="edge1_Node000001_Node000002" class="edge">
<title>Node2&#45;&gt;Node1</title>
<g id="a_edge1_Node000001_Node000002"><a xlink:title=" ">
<path fill="none" stroke="#63b8ff" d="M88.59,-47.66C100.05,-38.42 113.98,-27.18 123.47,-19.52"/>
<polygon fill="#63b8ff" stroke="#63b8ff" points="86.46,-44.89 80.87,-53.89 90.85,-50.34 86.46,-44.89"/>
</a>
</g>
</g>
<!-- Node3 -->
<g id="Node000003" class="node">
<title>Node3</title>
<g id="a_Node000003"><a xlink:href="../../d5/d4f/structfloppy_1_1traits_1_1detail_1_1formattable__base.html" target="_top" xlink:title="Interface, providing to_string method.">
<polygon fill="white" stroke="#666666" points="127,-129.75 0,-129.75 0,-110.5 127,-110.5 127,-129.75"/>
<text text-anchor="middle" x="63.5" y="-115.3" font-family="Arial" font-size="11.00">formattable_base&lt; C &gt;</text>
</a>
</g>
</g>
<!-- Node3&#45;&gt;Node2 -->
<g id="edge2_Node000002_Node000003" class="edge">
<title>Node3&#45;&gt;Node2</title>
<g id="a_edge2_Node000002_Node000003"><a xlink:title=" ">
<path fill="none" stroke="#63b8ff" d="M65.4,-98.88C66.18,-90.59 67.04,-81.42 67.66,-74.86"/>
<polygon fill="#63b8ff" stroke="#63b8ff" points="61.92,-98.54 64.47,-108.82 68.89,-99.2 61.92,-98.54"/>
</a>
</g>
</g>
<!-- Node4 -->
<g id="Node000004" class="node">
<title>Node4</title>
<g id="a_Node000004"><a xlink:href="../../dd/d8c/structfloppy_1_1math_1_1detail_1_1default__equality.html" target="_top" xlink:title=" ">
<polygon fill="white" stroke="#bfbfbf" points="261.12,-74.5 143.88,-74.5 143.88,-55.25 261.12,-55.25 261.12,-74.5"/>
<text text-anchor="middle" x="202.5" y="-60.05" font-family="Arial" font-size="11.00">default_equality&lt; T &gt;</text>
</a>
</g>
</g>
<!-- Node4&#45;&gt;Node1 -->
<g id="edge3_Node000001_Node000004" class="edge">
<title>Node4&#45;&gt;Node1</title>
<g id="a_edge3_Node000001_Node000004"><a xlink:title=" ">
<path fill="none" stroke="#63b8ff" d="M182.15,-47.94C170.28,-38.64 155.74,-27.26 145.86,-19.52"/>
<polygon fill="#63b8ff" stroke="#63b8ff" points="179.74,-50.5 189.77,-53.91 184.06,-44.99 179.74,-50.5"/>
</a>
</g>
</g>
<!-- Node5 -->
<g id="Node000005" class="node">
<title>Node5</title>
<g id="a_Node000005"><a xlink:href="../../d2/d59/structfloppy_1_1math_1_1detail_1_1default__ordering.html" target="_top" xlink:title=" ">
<polygon fill="white" stroke="#bfbfbf" points="265.62,-129.75 145.38,-129.75 145.38,-110.5 265.62,-110.5 265.62,-129.75"/>
<text text-anchor="middle" x="205.5" y="-115.3" font-family="Arial" font-size="11.00">default_ordering&lt; T &gt;</text>
</a>
</g>
</g>
<!-- Node5&#45;&gt;Node4 -->
<g id="edge4_Node000004_Node000005" class="edge">
<title>Node5&#45;&gt;Node4</title>
<g id="a_edge4_Node000004_Node000005"><a xlink:title=" ">
<path fill="none" stroke="#63b8ff" d="M204.36,-98.88C203.89,-90.59 203.38,-81.42 203.01,-74.86"/>
<polygon fill="#63b8ff" stroke="#63b8ff" points="200.86,-99.03 204.92,-108.82 207.85,-98.64 200.86,-99.03"/>
</a>
</g>
</g>
</g>
</svg>
