<?xml version="1.0" encoding="UTF-8" standalone="no"?>
<!DOCTYPE svg PUBLIC "-//W3C//DTD SVG 1.1//EN"
 "http://www.w3.org/Graphics/SVG/1.1/DTD/svg11.dtd">
<!-- Generated by graphviz version 10.0.1 (0)
 -->
<!-- Title: euclid.h Pages: 1 -->
<svg width="1153pt" height="570pt"
 viewBox="0.00 0.00 1153.00 569.50" xmlns="http://www.w3.org/2000/svg" xmlns:xlink="http://www.w3.org/1999/xlink">
<g id="graph0" class="graph" transform="scale(1 1) rotate(0) translate(4 565.5)">
<title>euclid.h</title>
<!-- Node1 -->
<g id="Node000001" class="node">
<title>Node1</title>
<g id="a_Node000001"><a xlink:title="Small collection of classes and functions for geometric types with a focus on 2d graphics and layout.">
<polygon fill="#999999" stroke="#666666" points="677,-561.5 624.25,-561.5 624.25,-542.25 677,-542.25 677,-561.5"/>
<text text-anchor="middle" x="650.62" y="-547.05" font-family="Arial" font-size="11.00">euclid.h</text>
</a>
</g>
</g>
<!-- Node2 -->
<g id="Node000002" class="node">
<title>Node2</title>
<g id="a_Node000002"><a xlink:href="../../da/dac/angle_8h.html" target="_top" xlink:title="Newtype describing an angle.">
<polygon fill="white" stroke="#666666" points="628.38,-329.25 514.88,-329.25 514.88,-310 628.38,-310 628.38,-329.25"/>
<text text-anchor="middle" x="571.62" y="-314.8" font-family="Arial" font-size="11.00">floppy/euclid/angle.h</text>
</a>
</g>
</g>
<!-- Node1&#45;&gt;Node2 -->
<g id="edge1_Node000001_Node000002" class="edge">
<title>Node1&#45;&gt;Node2</title>
<g id="a_edge1_Node000001_Node000002"><a xlink:title=" ">
<path fill="none" stroke="#63b8ff" d="M635.2,-541.99C623.17,-534.18 607.11,-521.68 598.62,-506.25 568.84,-452.12 568.37,-376.28 570.13,-340.63"/>
<polygon fill="#63b8ff" stroke="#63b8ff" points="573.6,-341.14 570.73,-330.94 566.62,-340.71 573.6,-341.14"/>
</a>
</g>
</g>
<!-- Node27 -->
<g id="Node000027" class="node">
<title>Node27</title>
<g id="a_Node000027"><a xlink:href="../../dd/db9/length_8h.html" target="_top" xlink:title="A one&#45;dimensional distance with associated unit of measurement.">
<polygon fill="white" stroke="#666666" points="825.88,-384.5 709.38,-384.5 709.38,-365.25 825.88,-365.25 825.88,-384.5"/>
<text text-anchor="middle" x="767.62" y="-370.05" font-family="Arial" font-size="11.00">floppy/euclid/length.h</text>
</a>
</g>
</g>
<!-- Node1&#45;&gt;Node27 -->
<g id="edge32_Node000001_Node000027" class="edge">
<title>Node1&#45;&gt;Node27</title>
<g id="a_edge32_Node000001_Node000027"><a xlink:title=" ">
<path fill="none" stroke="#63b8ff" d="M652.52,-542.17C655.53,-529.46 662.14,-505.33 672.62,-487 694.01,-449.6 728.81,-412.94 749.82,-392.48"/>
<polygon fill="#63b8ff" stroke="#63b8ff" points="752.01,-395.24 756.82,-385.8 747.17,-390.18 752.01,-395.24"/>
</a>
</g>
</g>
<!-- Node28 -->
<g id="Node000028" class="node">
<title>Node28</title>
<g id="a_Node000028"><a xlink:href="../../d8/d0c/scale_8h.html" target="_top" xlink:title="A scaling factor between two different units of measurement.">
<polygon fill="white" stroke="#666666" points="796.62,-329.25 684.62,-329.25 684.62,-310 796.62,-310 796.62,-329.25"/>
<text text-anchor="middle" x="740.62" y="-314.8" font-family="Arial" font-size="11.00">floppy/euclid/scale.h</text>
</a>
</g>
</g>
<!-- Node1&#45;&gt;Node28 -->
<g id="edge38_Node000001_Node000028" class="edge">
<title>Node1&#45;&gt;Node28</title>
<g id="a_edge38_Node000001_Node000028"><a xlink:title=" ">
<path fill="none" stroke="#63b8ff" d="M651.35,-542.12C653.98,-514.39 664.82,-426.66 700.62,-365.25 706.49,-355.19 714.87,-345.4 722.44,-337.57"/>
<polygon fill="#63b8ff" stroke="#63b8ff" points="724.74,-340.22 729.4,-330.7 719.82,-335.23 724.74,-340.22"/>
</a>
</g>
</g>
<!-- Node29 -->
<g id="Node000029" class="node">
<title>Node29</title>
<g id="a_Node000029"><a xlink:href="../../dc/df8/size2d_8h.html" target="_top" xlink:title="A two&#45;dimensional size tagged with a unit.">
<polygon fill="white" stroke="#666666" points="799.62,-506.25 681.62,-506.25 681.62,-487 799.62,-487 799.62,-506.25"/>
<text text-anchor="middle" x="740.62" y="-491.8" font-family="Arial" font-size="11.00">floppy/euclid/size2d.h</text>
</a>
</g>
</g>
<!-- Node1&#45;&gt;Node29 -->
<g id="edge39_Node000001_Node000029" class="edge">
<title>Node1&#45;&gt;Node29</title>
<g id="a_edge39_Node000001_Node000029"><a xlink:title=" ">
<path fill="none" stroke="#63b8ff" d="M665.89,-541.84C679.47,-533.81 699.58,-521.91 715.52,-512.48"/>
<polygon fill="#63b8ff" stroke="#63b8ff" points="717.16,-515.58 723.98,-507.47 713.59,-509.55 717.16,-515.58"/>
</a>
</g>
</g>
<!-- Node31 -->
<g id="Node000031" class="node">
<title>Node31</title>
<g id="a_Node000031"><a xlink:href="../../d4/d12/point2d_8h.html" target="_top" xlink:title="A two&#45;dimensional point tagged with a unit.">
<polygon fill="white" stroke="#666666" points="1023.88,-506.25 901.38,-506.25 901.38,-487 1023.88,-487 1023.88,-506.25"/>
<text text-anchor="middle" x="962.62" y="-491.8" font-family="Arial" font-size="11.00">floppy/euclid/point2d.h</text>
</a>
</g>
</g>
<!-- Node1&#45;&gt;Node31 -->
<g id="edge46_Node000001_Node000031" class="edge">
<title>Node1&#45;&gt;Node31</title>
<g id="a_edge46_Node000001_Node000031"><a xlink:title=" ">
<path fill="none" stroke="#63b8ff" d="M677.5,-546.29C726.22,-537.97 830.4,-520.19 898.43,-508.58"/>
<polygon fill="#63b8ff" stroke="#63b8ff" points="898.68,-512.09 907.94,-506.96 897.5,-505.19 898.68,-512.09"/>
</a>
</g>
</g>
<!-- Node3 -->
<g id="Node000003" class="node">
<title>Node3</title>
<g id="a_Node000003"><a xlink:href="../../df/db1/math_8h_source.html" target="_top" xlink:title=" ">
<polygon fill="white" stroke="#666666" points="775.12,-207.5 666.12,-207.5 666.12,-188.25 775.12,-188.25 775.12,-207.5"/>
<text text-anchor="middle" x="720.62" y="-193.05" font-family="Arial" font-size="11.00">floppy/detail/math.h</text>
</a>
</g>
</g>
<!-- Node2&#45;&gt;Node3 -->
<g id="edge2_Node000002_Node000003" class="edge">
<title>Node2&#45;&gt;Node3</title>
<g id="a_edge2_Node000002_Node000003"><a xlink:title=" ">
<path fill="none" stroke="#63b8ff" d="M578.38,-309.96C590.25,-295.1 616.11,-264.36 642.62,-243.5 657.67,-231.66 676.21,-220.92 691.44,-212.95"/>
<polygon fill="#63b8ff" stroke="#63b8ff" points="692.7,-216.23 700.02,-208.57 689.52,-210 692.7,-216.23"/>
</a>
</g>
</g>
<!-- Node19 -->
<g id="Node000019" class="node">
<title>Node19</title>
<g id="a_Node000019"><a xlink:href="../../dd/dff/traits_8h_source.html" target="_top" xlink:title=" ">
<polygon fill="white" stroke="#666666" points="440.5,-207.5 360.75,-207.5 360.75,-188.25 440.5,-188.25 440.5,-207.5"/>
<text text-anchor="middle" x="400.62" y="-193.05" font-family="Arial" font-size="11.00">floppy/traits.h</text>
</a>
</g>
</g>
<!-- Node2&#45;&gt;Node19 -->
<g id="edge19_Node000002_Node000019" class="edge">
<title>Node2&#45;&gt;Node19</title>
<g id="a_edge19_Node000002_Node000019"><a xlink:title=" ">
<path fill="none" stroke="#63b8ff" d="M558.77,-309.62C529.81,-289.34 459.13,-239.85 422.88,-214.46"/>
<polygon fill="#63b8ff" stroke="#63b8ff" points="425.07,-211.72 414.87,-208.85 421.05,-217.45 425.07,-211.72"/>
</a>
</g>
</g>
<!-- Node26 -->
<g id="Node000026" class="node">
<title>Node26</title>
<g id="a_Node000026"><a xlink:href="../../de/de1/nt__traits_8h_source.html" target="_top" xlink:title=" ">
<polygon fill="white" stroke="#666666" points="871.5,-274 767.75,-274 767.75,-243.5 871.5,-243.5 871.5,-274"/>
<text text-anchor="start" x="775.75" y="-259.55" font-family="Arial" font-size="11.00">floppy/euclid/detail</text>
<text text-anchor="middle" x="819.62" y="-248.3" font-family="Arial" font-size="11.00">/nt_traits.h</text>
</a>
</g>
</g>
<!-- Node2&#45;&gt;Node26 -->
<g id="edge29_Node000002_Node000026" class="edge">
<title>Node2&#45;&gt;Node26</title>
<g id="a_edge29_Node000002_Node000026"><a xlink:title=" ">
<path fill="none" stroke="#63b8ff" d="M609.83,-309.55C648.87,-300.29 710.16,-285.74 756.43,-274.75"/>
<polygon fill="#63b8ff" stroke="#63b8ff" points="757.16,-278.18 766.08,-272.46 755.54,-271.37 757.16,-278.18"/>
</a>
</g>
</g>
<!-- Node4 -->
<g id="Node000004" class="node">
<title>Node4</title>
<g id="a_Node000004"><a xlink:title=" ">
<polygon fill="#e0e0e0" stroke="#999999" points="778.25,-146.62 733,-146.62 733,-127.38 778.25,-127.38 778.25,-146.62"/>
<text text-anchor="middle" x="755.62" y="-132.18" font-family="Arial" font-size="11.00">cmath</text>
</a>
</g>
</g>
<!-- Node3&#45;&gt;Node4 -->
<g id="edge3_Node000003_Node000004" class="edge">
<title>Node3&#45;&gt;Node4</title>
<g id="a_edge3_Node000003_Node000004"><a xlink:title=" ">
<path fill="none" stroke="#63b8ff" d="M725.94,-187.93C730.82,-179.72 738.22,-167.28 744.4,-156.87"/>
<polygon fill="#63b8ff" stroke="#63b8ff" points="747.38,-158.71 749.49,-148.33 741.37,-155.13 747.38,-158.71"/>
</a>
</g>
</g>
<!-- Node5 -->
<g id="Node000005" class="node">
<title>Node5</title>
<g id="a_Node000005"><a xlink:title=" ">
<polygon fill="#e0e0e0" stroke="#999999" points="836.62,-146.62 796.62,-146.62 796.62,-127.38 836.62,-127.38 836.62,-146.62"/>
<text text-anchor="middle" x="816.62" y="-132.18" font-family="Arial" font-size="11.00">limits</text>
</a>
</g>
</g>
<!-- Node3&#45;&gt;Node5 -->
<g id="edge4_Node000003_Node000005" class="edge">
<title>Node3&#45;&gt;Node5</title>
<g id="a_edge4_Node000003_Node000005"><a xlink:title=" ">
<path fill="none" stroke="#63b8ff" d="M735.21,-187.93C750.29,-178.68 774.11,-164.07 792.1,-153.04"/>
<polygon fill="#63b8ff" stroke="#63b8ff" points="793.92,-156.03 800.62,-147.82 790.26,-150.06 793.92,-156.03"/>
</a>
</g>
</g>
<!-- Node6 -->
<g id="Node000006" class="node">
<title>Node6</title>
<g id="a_Node000006"><a xlink:title=" ">
<polygon fill="#e0e0e0" stroke="#999999" points="638.62,-146.62 580.62,-146.62 580.62,-127.38 638.62,-127.38 638.62,-146.62"/>
<text text-anchor="middle" x="609.62" y="-132.18" font-family="Arial" font-size="11.00">numbers</text>
</a>
</g>
</g>
<!-- Node3&#45;&gt;Node6 -->
<g id="edge5_Node000003_Node000006" class="edge">
<title>Node3&#45;&gt;Node6</title>
<g id="a_edge5_Node000003_Node000006"><a xlink:title=" ">
<path fill="none" stroke="#63b8ff" d="M703.77,-187.93C685.92,-178.47 657.49,-163.39 636.53,-152.27"/>
<polygon fill="#63b8ff" stroke="#63b8ff" points="638.45,-149.33 627.98,-147.74 635.17,-155.51 638.45,-149.33"/>
</a>
</g>
</g>
<!-- Node7 -->
<g id="Node000007" class="node">
<title>Node7</title>
<g id="a_Node000007"><a xlink:title=" ">
<polygon fill="#e0e0e0" stroke="#999999" points="714.62,-146.62 656.62,-146.62 656.62,-127.38 714.62,-127.38 714.62,-146.62"/>
<text text-anchor="middle" x="685.62" y="-132.18" font-family="Arial" font-size="11.00">compare</text>
</a>
</g>
</g>
<!-- Node3&#45;&gt;Node7 -->
<g id="edge6_Node000003_Node000007" class="edge">
<title>Node3&#45;&gt;Node7</title>
<g id="a_edge6_Node000003_Node000007"><a xlink:title=" ">
<path fill="none" stroke="#63b8ff" d="M715.31,-187.93C710.43,-179.72 703.03,-167.28 696.85,-156.87"/>
<polygon fill="#63b8ff" stroke="#63b8ff" points="699.88,-155.13 691.76,-148.33 693.87,-158.71 699.88,-155.13"/>
</a>
</g>
</g>
<!-- Node8 -->
<g id="Node000008" class="node">
<title>Node8</title>
<g id="a_Node000008"><a xlink:href="../../db/db5/export_8h_source.html" target="_top" xlink:title=" ">
<polygon fill="white" stroke="#666666" points="562.12,-146.62 447.12,-146.62 447.12,-127.38 562.12,-127.38 562.12,-146.62"/>
<text text-anchor="middle" x="504.62" y="-132.18" font-family="Arial" font-size="11.00">floppy/detail/export.h</text>
</a>
</g>
</g>
<!-- Node3&#45;&gt;Node8 -->
<g id="edge7_Node000003_Node000008" class="edge">
<title>Node3&#45;&gt;Node8</title>
<g id="a_edge7_Node000003_Node000008"><a xlink:title=" ">
<path fill="none" stroke="#63b8ff" d="M687.35,-187.8C650.25,-177.69 590.07,-161.29 548.99,-150.09"/>
<polygon fill="#63b8ff" stroke="#63b8ff" points="549.97,-146.73 539.4,-147.48 548.13,-153.49 549.97,-146.73"/>
</a>
</g>
</g>
<!-- Node11 -->
<g id="Node000011" class="node">
<title>Node11</title>
<g id="a_Node000011"><a xlink:href="../../d9/db1/concepts_8h_source.html" target="_top" xlink:title=" ">
<polygon fill="white" stroke="#666666" points="982.5,-146.62 854.75,-146.62 854.75,-127.38 982.5,-127.38 982.5,-146.62"/>
<text text-anchor="middle" x="918.62" y="-132.18" font-family="Arial" font-size="11.00">floppy/detail/concepts.h</text>
</a>
</g>
</g>
<!-- Node3&#45;&gt;Node11 -->
<g id="edge10_Node000003_Node000011" class="edge">
<title>Node3&#45;&gt;Node11</title>
<g id="a_edge10_Node000003_Node000011"><a xlink:title=" ">
<path fill="none" stroke="#63b8ff" d="M751.13,-187.8C784.99,-177.74 839.83,-161.43 877.48,-150.24"/>
<polygon fill="#63b8ff" stroke="#63b8ff" points="878.05,-153.72 886.64,-147.51 876.05,-147.01 878.05,-153.72"/>
</a>
</g>
</g>
<!-- Node9 -->
<g id="Node000009" class="node">
<title>Node9</title>
<g id="a_Node000009"><a xlink:title=" ">
<polygon fill="#e0e0e0" stroke="#999999" points="525.75,-80.12 483.5,-80.12 483.5,-60.88 525.75,-60.88 525.75,-80.12"/>
<text text-anchor="middle" x="504.62" y="-65.67" font-family="Arial" font-size="11.00">string</text>
</a>
</g>
</g>
<!-- Node8&#45;&gt;Node9 -->
<g id="edge8_Node000008_Node000009" class="edge">
<title>Node8&#45;&gt;Node9</title>
<g id="a_edge8_Node000008_Node000009"><a xlink:title=" ">
<path fill="none" stroke="#63b8ff" d="M504.62,-127.03C504.62,-117.98 504.62,-103.7 504.62,-91.88"/>
<polygon fill="#63b8ff" stroke="#63b8ff" points="508.13,-91.91 504.63,-81.91 501.13,-91.91 508.13,-91.91"/>
</a>
</g>
</g>
<!-- Node10 -->
<g id="Node000010" class="node">
<title>Node10</title>
<g id="a_Node000010"><a xlink:title=" ">
<polygon fill="#e0e0e0" stroke="#999999" points="430.62,-80.12 360.62,-80.12 360.62,-60.88 430.62,-60.88 430.62,-80.12"/>
<text text-anchor="middle" x="395.62" y="-65.67" font-family="Arial" font-size="11.00">string_view</text>
</a>
</g>
</g>
<!-- Node8&#45;&gt;Node10 -->
<g id="edge9_Node000008_Node000010" class="edge">
<title>Node8&#45;&gt;Node10</title>
<g id="a_edge9_Node000008_Node000010"><a xlink:title=" ">
<path fill="none" stroke="#63b8ff" d="M489.47,-127.03C471.67,-116.5 441.89,-98.88 420.65,-86.31"/>
<polygon fill="#63b8ff" stroke="#63b8ff" points="422.69,-83.45 412.31,-81.37 419.13,-89.48 422.69,-83.45"/>
</a>
</g>
</g>
<!-- Node12 -->
<g id="Node000012" class="node">
<title>Node12</title>
<g id="a_Node000012"><a xlink:href="../../df/d63/type__traits_8h_source.html" target="_top" xlink:title=" ">
<polygon fill="white" stroke="#666666" points="966.75,-85.75 870.5,-85.75 870.5,-55.25 966.75,-55.25 966.75,-85.75"/>
<text text-anchor="start" x="878.5" y="-71.3" font-family="Arial" font-size="11.00">floppy/detail/type</text>
<text text-anchor="middle" x="918.62" y="-60.05" font-family="Arial" font-size="11.00">_traits.h</text>
</a>
</g>
</g>
<!-- Node11&#45;&gt;Node12 -->
<g id="edge11_Node000011_Node000012" class="edge">
<title>Node11&#45;&gt;Node12</title>
<g id="a_edge11_Node000011_Node000012"><a xlink:title=" ">
<path fill="none" stroke="#63b8ff" d="M918.62,-127.03C918.62,-119.29 918.62,-107.7 918.62,-97.12"/>
<polygon fill="#63b8ff" stroke="#63b8ff" points="922.13,-97.36 918.63,-87.36 915.13,-97.36 922.13,-97.36"/>
</a>
</g>
</g>
<!-- Node14 -->
<g id="Node000014" class="node">
<title>Node14</title>
<g id="a_Node000014"><a xlink:href="../../d9/d49/types_8h_source.html" target="_top" xlink:title=" ">
<polygon fill="white" stroke="#666666" points="840.88,-80.12 730.38,-80.12 730.38,-60.88 840.88,-60.88 840.88,-80.12"/>
<text text-anchor="middle" x="785.62" y="-65.67" font-family="Arial" font-size="11.00">floppy/detail/types.h</text>
</a>
</g>
</g>
<!-- Node11&#45;&gt;Node14 -->
<g id="edge13_Node000011_Node000014" class="edge">
<title>Node11&#45;&gt;Node14</title>
<g id="a_edge13_Node000011_Node000014"><a xlink:title=" ">
<path fill="none" stroke="#63b8ff" d="M899.85,-126.9C877.67,-116.14 840.52,-98.12 814.63,-85.57"/>
<polygon fill="#63b8ff" stroke="#63b8ff" points="816.19,-82.43 805.66,-81.22 813.14,-88.73 816.19,-82.43"/>
</a>
</g>
</g>
<!-- Node13 -->
<g id="Node000013" class="node">
<title>Node13</title>
<g id="a_Node000013"><a xlink:title=" ">
<polygon fill="#e0e0e0" stroke="#999999" points="951.38,-19.25 885.88,-19.25 885.88,0 951.38,0 951.38,-19.25"/>
<text text-anchor="middle" x="918.62" y="-4.8" font-family="Arial" font-size="11.00">type_traits</text>
</a>
</g>
</g>
<!-- Node12&#45;&gt;Node13 -->
<g id="edge12_Node000012_Node000013" class="edge">
<title>Node12&#45;&gt;Node13</title>
<g id="a_edge12_Node000012_Node000013"><a xlink:title=" ">
<path fill="none" stroke="#63b8ff" d="M918.62,-54.95C918.62,-47.71 918.62,-38.84 918.62,-30.94"/>
<polygon fill="#63b8ff" stroke="#63b8ff" points="922.13,-31.21 918.63,-21.21 915.13,-31.21 922.13,-31.21"/>
</a>
</g>
</g>
<!-- Node14&#45;&gt;Node13 -->
<g id="edge17_Node000014_Node000013" class="edge">
<title>Node14&#45;&gt;Node13</title>
<g id="a_edge17_Node000014_Node000013"><a xlink:title=" ">
<path fill="none" stroke="#63b8ff" d="M806.11,-60.43C827.95,-50.76 862.76,-35.35 887.89,-24.23"/>
<polygon fill="#63b8ff" stroke="#63b8ff" points="889.22,-27.47 896.95,-20.22 886.39,-21.07 889.22,-27.47"/>
</a>
</g>
</g>
<!-- Node15 -->
<g id="Node000015" class="node">
<title>Node15</title>
<g id="a_Node000015"><a xlink:title=" ">
<polygon fill="#e0e0e0" stroke="#999999" points="867.88,-19.25 817.38,-19.25 817.38,0 867.88,0 867.88,-19.25"/>
<text text-anchor="middle" x="842.62" y="-4.8" font-family="Arial" font-size="11.00">cstddef</text>
</a>
</g>
</g>
<!-- Node14&#45;&gt;Node15 -->
<g id="edge14_Node000014_Node000015" class="edge">
<title>Node14&#45;&gt;Node15</title>
<g id="a_edge14_Node000014_Node000015"><a xlink:title=" ">
<path fill="none" stroke="#63b8ff" d="M794.28,-60.56C802.65,-51.91 815.55,-38.59 825.93,-27.87"/>
<polygon fill="#63b8ff" stroke="#63b8ff" points="828.39,-30.36 832.83,-20.74 823.36,-25.49 828.39,-30.36"/>
</a>
</g>
</g>
<!-- Node16 -->
<g id="Node000016" class="node">
<title>Node16</title>
<g id="a_Node000016"><a xlink:title=" ">
<polygon fill="#e0e0e0" stroke="#999999" points="728,-19.25 681.25,-19.25 681.25,0 728,0 728,-19.25"/>
<text text-anchor="middle" x="704.62" y="-4.8" font-family="Arial" font-size="11.00">cstdint</text>
</a>
</g>
</g>
<!-- Node14&#45;&gt;Node16 -->
<g id="edge15_Node000014_Node000016" class="edge">
<title>Node14&#45;&gt;Node16</title>
<g id="a_edge15_Node000014_Node000016"><a xlink:title=" ">
<path fill="none" stroke="#63b8ff" d="M773.32,-60.56C760.83,-51.48 741.24,-37.24 726.17,-26.29"/>
<polygon fill="#63b8ff" stroke="#63b8ff" points="728.41,-23.59 718.27,-20.54 724.3,-29.25 728.41,-23.59"/>
</a>
</g>
</g>
<!-- Node17 -->
<g id="Node000017" class="node">
<title>Node17</title>
<g id="a_Node000017"><a xlink:title=" ">
<polygon fill="#e0e0e0" stroke="#999999" points="799.38,-19.25 745.88,-19.25 745.88,0 799.38,0 799.38,-19.25"/>
<text text-anchor="middle" x="772.62" y="-4.8" font-family="Arial" font-size="11.00">optional</text>
</a>
</g>
</g>
<!-- Node14&#45;&gt;Node17 -->
<g id="edge16_Node000014_Node000017" class="edge">
<title>Node14&#45;&gt;Node17</title>
<g id="a_edge16_Node000014_Node000017"><a xlink:title=" ">
<path fill="none" stroke="#63b8ff" d="M783.65,-60.56C781.91,-52.69 779.32,-40.95 777.09,-30.82"/>
<polygon fill="#63b8ff" stroke="#63b8ff" points="780.52,-30.14 774.94,-21.13 773.68,-31.65 780.52,-30.14"/>
</a>
</g>
</g>
<!-- Node18 -->
<g id="Node000018" class="node">
<title>Node18</title>
<g id="a_Node000018"><a xlink:title=" ">
<polygon fill="#e0e0e0" stroke="#999999" points="430.5,-19.25 356.75,-19.25 356.75,0 430.5,0 430.5,-19.25"/>
<text text-anchor="middle" x="393.62" y="-4.8" font-family="Arial" font-size="11.00">fmt/format.h</text>
</a>
</g>
</g>
<!-- Node14&#45;&gt;Node18 -->
<g id="edge18_Node000014_Node000018" class="edge">
<title>Node14&#45;&gt;Node18</title>
<g id="a_edge18_Node000014_Node000018"><a xlink:title=" ">
<path fill="none" stroke="#63b8ff" d="M729.88,-61.13C652.83,-49.56 515.07,-28.86 442.08,-17.9"/>
<polygon fill="#63b8ff" stroke="#63b8ff" points="442.85,-14.48 432.44,-16.46 441.81,-21.4 442.85,-14.48"/>
</a>
</g>
</g>
<!-- Node19&#45;&gt;Node8 -->
<g id="edge23_Node000019_Node000008" class="edge">
<title>Node19&#45;&gt;Node8</title>
<g id="a_edge23_Node000019_Node000008"><a xlink:title=" ">
<path fill="none" stroke="#63b8ff" d="M416.42,-187.93C432.99,-178.55 459.3,-163.66 478.87,-152.58"/>
<polygon fill="#63b8ff" stroke="#63b8ff" points="480.39,-155.74 487.36,-147.77 476.94,-149.65 480.39,-155.74"/>
</a>
</g>
</g>
<!-- Node20 -->
<g id="Node000020" class="node">
<title>Node20</title>
<g id="a_Node000020"><a xlink:title=" ">
<polygon fill="#e0e0e0" stroke="#999999" points="354.12,-146.62 299.12,-146.62 299.12,-127.38 354.12,-127.38 354.12,-146.62"/>
<text text-anchor="middle" x="326.62" y="-132.18" font-family="Arial" font-size="11.00">memory</text>
</a>
</g>
</g>
<!-- Node19&#45;&gt;Node20 -->
<g id="edge20_Node000019_Node000020" class="edge">
<title>Node19&#45;&gt;Node20</title>
<g id="a_edge20_Node000019_Node000020"><a xlink:title=" ">
<path fill="none" stroke="#63b8ff" d="M389.39,-187.93C378.09,-178.94 360.42,-164.89 346.71,-153.98"/>
<polygon fill="#63b8ff" stroke="#63b8ff" points="349.16,-151.46 339.15,-147.97 344.8,-156.93 349.16,-151.46"/>
</a>
</g>
</g>
<!-- Node21 -->
<g id="Node000021" class="node">
<title>Node21</title>
<g id="a_Node000021"><a xlink:title=" ">
<polygon fill="#e0e0e0" stroke="#999999" points="429.25,-146.62 372,-146.62 372,-127.38 429.25,-127.38 429.25,-146.62"/>
<text text-anchor="middle" x="400.62" y="-132.18" font-family="Arial" font-size="11.00">iostream</text>
</a>
</g>
</g>
<!-- Node19&#45;&gt;Node21 -->
<g id="edge21_Node000019_Node000021" class="edge">
<title>Node19&#45;&gt;Node21</title>
<g id="a_edge21_Node000019_Node000021"><a xlink:title=" ">
<path fill="none" stroke="#63b8ff" d="M400.62,-187.93C400.62,-180.15 400.62,-168.58 400.62,-158.53"/>
<polygon fill="#63b8ff" stroke="#63b8ff" points="404.13,-158.54 400.63,-148.54 397.13,-158.54 404.13,-158.54"/>
</a>
</g>
</g>
<!-- Node22 -->
<g id="Node000022" class="node">
<title>Node22</title>
<g id="a_Node000022"><a xlink:title=" ">
<polygon fill="#e0e0e0" stroke="#999999" points="129.25,-152.25 0,-152.25 0,-121.75 129.25,-121.75 129.25,-152.25"/>
<text text-anchor="start" x="8" y="-137.8" font-family="Arial" font-size="11.00">experimental/propagate</text>
<text text-anchor="middle" x="64.62" y="-126.55" font-family="Arial" font-size="11.00">_const</text>
</a>
</g>
</g>
<!-- Node19&#45;&gt;Node22 -->
<g id="edge22_Node000019_Node000022" class="edge">
<title>Node19&#45;&gt;Node22</title>
<g id="a_edge22_Node000019_Node000022"><a xlink:title=" ">
<path fill="none" stroke="#63b8ff" d="M360.63,-190.34C311.41,-182.23 225,-167.81 140.89,-152.64"/>
<polygon fill="#63b8ff" stroke="#63b8ff" points="141.54,-149.2 131.07,-150.86 140.29,-156.09 141.54,-149.2"/>
</a>
</g>
</g>
<!-- Node23 -->
<g id="Node000023" class="node">
<title>Node23</title>
<g id="a_Node000023"><a xlink:href="../../d6/d45/formatters_8h_source.html" target="_top" xlink:title=" ">
<polygon fill="white" stroke="#666666" points="281.5,-146.62 147.75,-146.62 147.75,-127.38 281.5,-127.38 281.5,-146.62"/>
<text text-anchor="middle" x="214.62" y="-132.18" font-family="Arial" font-size="11.00">floppy/detail/formatters.h</text>
</a>
</g>
</g>
<!-- Node19&#45;&gt;Node23 -->
<g id="edge24_Node000019_Node000023" class="edge">
<title>Node19&#45;&gt;Node23</title>
<g id="a_edge24_Node000019_Node000023"><a xlink:title=" ">
<path fill="none" stroke="#63b8ff" d="M371.97,-187.8C340.43,-177.82 289.53,-161.71 254.19,-150.52"/>
<polygon fill="#63b8ff" stroke="#63b8ff" points="255.35,-147.22 244.76,-147.54 253.23,-153.89 255.35,-147.22"/>
</a>
</g>
</g>
<!-- Node23&#45;&gt;Node10 -->
<g id="edge25_Node000023_Node000010" class="edge">
<title>Node23&#45;&gt;Node10</title>
<g id="a_edge25_Node000023_Node000010"><a xlink:title=" ">
<path fill="none" stroke="#63b8ff" d="M240.17,-126.9C271.3,-115.8 324.1,-96.99 359.41,-84.41"/>
<polygon fill="#63b8ff" stroke="#63b8ff" points="360.54,-87.72 368.78,-81.07 358.19,-81.13 360.54,-87.72"/>
</a>
</g>
</g>
<!-- Node23&#45;&gt;Node18 -->
<g id="edge28_Node000023_Node000018" class="edge">
<title>Node23&#45;&gt;Node18</title>
<g id="a_edge28_Node000023_Node000018"><a xlink:title=" ">
<path fill="none" stroke="#63b8ff" d="M208.26,-126.92C197.76,-110.72 179.59,-76.57 196.62,-55.25 214.89,-32.39 293.05,-20.37 345.26,-14.77"/>
<polygon fill="#63b8ff" stroke="#63b8ff" points="345.53,-18.26 355.12,-13.76 344.82,-11.3 345.53,-18.26"/>
</a>
</g>
</g>
<!-- Node24 -->
<g id="Node000024" class="node">
<title>Node24</title>
<g id="a_Node000024"><a xlink:title=" ">
<polygon fill="#e0e0e0" stroke="#999999" points="259.75,-80.12 205.5,-80.12 205.5,-60.88 259.75,-60.88 259.75,-80.12"/>
<text text-anchor="middle" x="232.62" y="-65.67" font-family="Arial" font-size="11.00">sstream</text>
</a>
</g>
</g>
<!-- Node23&#45;&gt;Node24 -->
<g id="edge26_Node000023_Node000024" class="edge">
<title>Node23&#45;&gt;Node24</title>
<g id="a_edge26_Node000023_Node000024"><a xlink:title=" ">
<path fill="none" stroke="#63b8ff" d="M217.13,-127.03C219.71,-117.79 223.81,-103.08 227.15,-91.13"/>
<polygon fill="#63b8ff" stroke="#63b8ff" points="230.42,-92.42 229.74,-81.85 223.68,-90.54 230.42,-92.42"/>
</a>
</g>
</g>
<!-- Node25 -->
<g id="Node000025" class="node">
<title>Node25</title>
<g id="a_Node000025"><a xlink:title=" ">
<polygon fill="#e0e0e0" stroke="#999999" points="325,-80.12 278.25,-80.12 278.25,-60.88 325,-60.88 325,-80.12"/>
<text text-anchor="middle" x="301.62" y="-65.67" font-family="Arial" font-size="11.00">iosfwd</text>
</a>
</g>
</g>
<!-- Node23&#45;&gt;Node25 -->
<g id="edge27_Node000023_Node000025" class="edge">
<title>Node23&#45;&gt;Node25</title>
<g id="a_edge27_Node000023_Node000025"><a xlink:title=" ">
<path fill="none" stroke="#63b8ff" d="M226.72,-127.03C240.54,-116.79 263.41,-99.84 280.25,-87.35"/>
<polygon fill="#63b8ff" stroke="#63b8ff" points="282.19,-90.27 288.13,-81.5 278.02,-84.65 282.19,-90.27"/>
</a>
</g>
</g>
<!-- Node26&#45;&gt;Node3 -->
<g id="edge30_Node000026_Node000003" class="edge">
<title>Node26&#45;&gt;Node3</title>
<g id="a_edge30_Node000026_Node000003"><a xlink:title=" ">
<path fill="none" stroke="#63b8ff" d="M794.9,-243.05C779.82,-234.08 760.61,-222.66 745.51,-213.67"/>
<polygon fill="#63b8ff" stroke="#63b8ff" points="747.49,-210.78 737.11,-208.68 743.91,-216.8 747.49,-210.78"/>
</a>
</g>
</g>
<!-- Node26&#45;&gt;Node11 -->
<g id="edge31_Node000026_Node000011" class="edge">
<title>Node26&#45;&gt;Node11</title>
<g id="a_edge31_Node000026_Node000011"><a xlink:title=" ">
<path fill="none" stroke="#63b8ff" d="M831.76,-243.07C850.01,-221 884.44,-179.36 904.02,-155.66"/>
<polygon fill="#63b8ff" stroke="#63b8ff" points="906.56,-158.09 910.23,-148.15 901.16,-153.63 906.56,-158.09"/>
</a>
</g>
</g>
<!-- Node27&#45;&gt;Node26 -->
<g id="edge37_Node000027_Node000026" class="edge">
<title>Node27&#45;&gt;Node26</title>
<g id="a_edge37_Node000027_Node000026"><a xlink:title=" ">
<path fill="none" stroke="#63b8ff" d="M777.66,-364.98C786.42,-356.63 798.78,-343.35 805.62,-329.25 812.21,-315.69 815.7,-299.19 817.55,-285.67"/>
<polygon fill="#63b8ff" stroke="#63b8ff" points="821.02,-286.1 818.66,-275.77 814.07,-285.32 821.02,-286.1"/>
</a>
</g>
</g>
<!-- Node27&#45;&gt;Node28 -->
<g id="edge33_Node000027_Node000028" class="edge">
<title>Node27&#45;&gt;Node28</title>
<g id="a_edge33_Node000027_Node000028"><a xlink:title=" ">
<path fill="none" stroke="#63b8ff" d="M763.17,-365.08C759.67,-358.19 754.68,-348.34 750.28,-339.66"/>
<polygon fill="#63b8ff" stroke="#63b8ff" points="753.51,-338.3 745.86,-330.96 747.27,-341.46 753.51,-338.3"/>
</a>
</g>
</g>
<!-- Node28&#45;&gt;Node3 -->
<g id="edge34_Node000028_Node000003" class="edge">
<title>Node28&#45;&gt;Node3</title>
<g id="a_edge34_Node000028_Node000003"><a xlink:title=" ">
<path fill="none" stroke="#63b8ff" d="M739.12,-309.62C735.94,-290.55 728.44,-245.66 724.03,-219.26"/>
<polygon fill="#63b8ff" stroke="#63b8ff" points="727.49,-218.76 722.4,-209.47 720.59,-219.91 727.49,-218.76"/>
</a>
</g>
</g>
<!-- Node28&#45;&gt;Node19 -->
<g id="edge35_Node000028_Node000019" class="edge">
<title>Node28&#45;&gt;Node19</title>
<g id="a_edge35_Node000028_Node000019"><a xlink:title=" ">
<path fill="none" stroke="#63b8ff" d="M714.79,-309.53C654.9,-288.43 506.41,-236.13 437.21,-211.76"/>
<polygon fill="#63b8ff" stroke="#63b8ff" points="438.44,-208.48 427.85,-208.46 436.12,-215.09 438.44,-208.48"/>
</a>
</g>
</g>
<!-- Node28&#45;&gt;Node26 -->
<g id="edge36_Node000028_Node000026" class="edge">
<title>Node28&#45;&gt;Node26</title>
<g id="a_edge36_Node000028_Node000026"><a xlink:title=" ">
<path fill="none" stroke="#63b8ff" d="M752.62,-309.68C762.77,-302.12 777.71,-290.99 790.91,-281.15"/>
<polygon fill="#63b8ff" stroke="#63b8ff" points="792.99,-283.97 798.91,-275.19 788.8,-278.36 792.99,-283.97"/>
</a>
</g>
</g>
<!-- Node29&#45;&gt;Node3 -->
<g id="edge40_Node000029_Node000003" class="edge">
<title>Node29&#45;&gt;Node3</title>
<g id="a_edge40_Node000029_Node000003"><a xlink:title=" ">
<path fill="none" stroke="#63b8ff" d="M735.7,-486.61C722.67,-462.18 687.51,-392.33 675.62,-329.25 667.83,-287.87 691.98,-241.81 707.87,-217.03"/>
<polygon fill="#63b8ff" stroke="#63b8ff" points="710.56,-219.31 713.21,-209.05 704.74,-215.41 710.56,-219.31"/>
</a>
</g>
</g>
<!-- Node29&#45;&gt;Node11 -->
<g id="edge41_Node000029_Node000011" class="edge">
<title>Node29&#45;&gt;Node11</title>
<g id="a_edge41_Node000029_Node000011"><a xlink:title=" ">
<path fill="none" stroke="#63b8ff" d="M799.83,-490.2C828.19,-484.62 860.49,-473.42 881.62,-451 905.25,-425.94 900.62,-410.32 900.62,-375.88 900.62,-375.88 900.62,-375.88 900.62,-257.75 900.62,-222.29 908.44,-181.57 913.77,-157.91"/>
<polygon fill="#63b8ff" stroke="#63b8ff" points="917.12,-158.95 916,-148.42 910.31,-157.35 917.12,-158.95"/>
</a>
</g>
</g>
<!-- Node29&#45;&gt;Node27 -->
<g id="edge42_Node000029_Node000027" class="edge">
<title>Node29&#45;&gt;Node27</title>
<g id="a_edge42_Node000029_Node000027"><a xlink:title=" ">
<path fill="none" stroke="#63b8ff" d="M742.65,-486.62C746.97,-467.47 757.17,-422.26 763.11,-395.9"/>
<polygon fill="#63b8ff" stroke="#63b8ff" points="766.45,-396.98 765.24,-386.46 759.63,-395.44 766.45,-396.98"/>
</a>
</g>
</g>
<!-- Node30 -->
<g id="Node000030" class="node">
<title>Node30</title>
<g id="a_Node000030"><a xlink:href="../../da/d53/nt__traits2d_8h_source.html" target="_top" xlink:title=" ">
<polygon fill="white" stroke="#666666" points="872.5,-451 768.75,-451 768.75,-420.5 872.5,-420.5 872.5,-451"/>
<text text-anchor="start" x="776.75" y="-436.55" font-family="Arial" font-size="11.00">floppy/euclid/detail</text>
<text text-anchor="middle" x="820.62" y="-425.3" font-family="Arial" font-size="11.00">/nt_traits2d.h</text>
</a>
</g>
</g>
<!-- Node29&#45;&gt;Node30 -->
<g id="edge43_Node000029_Node000030" class="edge">
<title>Node29&#45;&gt;Node30</title>
<g id="a_edge43_Node000029_Node000030"><a xlink:title=" ">
<path fill="none" stroke="#63b8ff" d="M752.78,-486.68C763.15,-479.05 778.47,-467.77 791.94,-457.86"/>
<polygon fill="#63b8ff" stroke="#63b8ff" points="793.68,-460.93 799.66,-452.18 789.53,-455.29 793.68,-460.93"/>
</a>
</g>
</g>
<!-- Node30&#45;&gt;Node26 -->
<g id="edge45_Node000030_Node000026" class="edge">
<title>Node30&#45;&gt;Node26</title>
<g id="a_edge45_Node000030_Node000026"><a xlink:title=" ">
<path fill="none" stroke="#63b8ff" d="M825.87,-420.02C829.11,-410.12 832.96,-396.7 834.62,-384.5 839.3,-350.32 832.47,-310.77 826.57,-285.52"/>
<polygon fill="#63b8ff" stroke="#63b8ff" points="829.98,-284.7 824.17,-275.83 823.18,-286.38 829.98,-284.7"/>
</a>
</g>
</g>
<!-- Node30&#45;&gt;Node27 -->
<g id="edge44_Node000030_Node000027" class="edge">
<title>Node30&#45;&gt;Node27</title>
<g id="a_edge44_Node000030_Node000027"><a xlink:title=" ">
<path fill="none" stroke="#63b8ff" d="M807.52,-420.2C800.23,-412.09 791.1,-401.95 783.41,-393.41"/>
<polygon fill="#63b8ff" stroke="#63b8ff" points="786.1,-391.17 776.81,-386.08 780.9,-395.85 786.1,-391.17"/>
</a>
</g>
</g>
<!-- Node31&#45;&gt;Node27 -->
<g id="edge50_Node000031_Node000027" class="edge">
<title>Node31&#45;&gt;Node27</title>
<g id="a_edge50_Node000031_Node000027"><a xlink:title=" ">
<path fill="none" stroke="#63b8ff" d="M954.98,-486.6C941.53,-471.2 912.17,-439.67 881.62,-420.5 859.76,-406.78 832.97,-396.03 810.86,-388.52"/>
<polygon fill="#63b8ff" stroke="#63b8ff" points="812.13,-385.26 801.54,-385.47 809.95,-391.91 812.13,-385.26"/>
</a>
</g>
</g>
<!-- Node31&#45;&gt;Node30 -->
<g id="edge51_Node000031_Node000030" class="edge">
<title>Node31&#45;&gt;Node30</title>
<g id="a_edge51_Node000031_Node000030"><a xlink:title=" ">
<path fill="none" stroke="#63b8ff" d="M940.75,-486.55C921.01,-478.37 891.33,-466.06 866.41,-455.73"/>
<polygon fill="#63b8ff" stroke="#63b8ff" points="868.04,-452.62 857.47,-452.02 865.36,-459.09 868.04,-452.62"/>
</a>
</g>
</g>
<!-- Node32 -->
<g id="Node000032" class="node">
<title>Node32</title>
<g id="a_Node000032"><a xlink:title=" ">
<polygon fill="#e0e0e0" stroke="#999999" points="1145,-445.38 1104.25,-445.38 1104.25,-426.12 1145,-426.12 1145,-445.38"/>
<text text-anchor="middle" x="1124.62" y="-430.93" font-family="Arial" font-size="11.00">array</text>
</a>
</g>
</g>
<!-- Node31&#45;&gt;Node32 -->
<g id="edge47_Node000031_Node000032" class="edge">
<title>Node31&#45;&gt;Node32</title>
<g id="a_edge47_Node000031_Node000032"><a xlink:title=" ">
<path fill="none" stroke="#63b8ff" d="M993.42,-486.57C1020.65,-478.26 1061.28,-465.13 1095.62,-451 1095.98,-450.86 1096.33,-450.71 1096.68,-450.56"/>
<polygon fill="#63b8ff" stroke="#63b8ff" points="1097.97,-453.82 1105.63,-446.5 1095.08,-447.45 1097.97,-453.82"/>
</a>
</g>
</g>
<!-- Node33 -->
<g id="Node000033" class="node">
<title>Node33</title>
<g id="a_Node000033"><a xlink:title=" ">
<polygon fill="#e0e0e0" stroke="#999999" points="1006.25,-445.38 967,-445.38 967,-426.12 1006.25,-426.12 1006.25,-445.38"/>
<text text-anchor="middle" x="986.62" y="-430.93" font-family="Arial" font-size="11.00">tuple</text>
</a>
</g>
</g>
<!-- Node31&#45;&gt;Node33 -->
<g id="edge48_Node000031_Node000033" class="edge">
<title>Node31&#45;&gt;Node33</title>
<g id="a_edge48_Node000031_Node000033"><a xlink:title=" ">
<path fill="none" stroke="#63b8ff" d="M966.27,-486.68C969.55,-478.64 974.48,-466.55 978.66,-456.28"/>
<polygon fill="#63b8ff" stroke="#63b8ff" points="981.84,-457.76 982.37,-447.18 975.36,-455.12 981.84,-457.76"/>
</a>
</g>
</g>
<!-- Node34 -->
<g id="Node000034" class="node">
<title>Node34</title>
<g id="a_Node000034"><a xlink:title=" ">
<polygon fill="#e0e0e0" stroke="#999999" points="1086.5,-445.38 1024.75,-445.38 1024.75,-426.12 1086.5,-426.12 1086.5,-445.38"/>
<text text-anchor="middle" x="1055.62" y="-430.93" font-family="Arial" font-size="11.00">functional</text>
</a>
</g>
</g>
<!-- Node31&#45;&gt;Node34 -->
<g id="edge49_Node000031_Node000034" class="edge">
<title>Node31&#45;&gt;Node34</title>
<g id="a_edge49_Node000031_Node000034"><a xlink:title=" ">
<path fill="none" stroke="#63b8ff" d="M976.75,-486.68C991.36,-477.43 1014.44,-462.82 1031.87,-451.79"/>
<polygon fill="#63b8ff" stroke="#63b8ff" points="1033.51,-454.89 1040.09,-446.59 1029.77,-448.98 1033.51,-454.89"/>
</a>
</g>
</g>
</g>
</svg>
