<?xml version="1.0" encoding="UTF-8" standalone="no"?>
<!DOCTYPE svg PUBLIC "-//W3C//DTD SVG 1.1//EN"
 "http://www.w3.org/Graphics/SVG/1.1/DTD/svg11.dtd">
<!-- Generated by graphviz version 10.0.1 (0)
 -->
<!-- Title: euclid.h Pages: 1 -->
<!--zoomable 680 -->

<svg id="main" version="1.1" xmlns="http://www.w3.org/2000/svg" xmlns:xlink="http://www.w3.org/1999/xlink" xml:space="preserve" onload="init(evt)">
<style type="text/css"><![CDATA[
.node, .edge {opacity: 0.7;}
.node.selected, .edge.selected {opacity: 1;}
.edge:hover path { stroke: red; }
.edge:hover polygon { stroke: red; fill: red; }
]]></style>

<defs>
  <circle id="rim" cx="0" cy="0" r="7"/>
  <circle id="rim2" cx="0" cy="0" r="3.5"/>
  <g id="zoomPlus">
    <use xlink:href="#rim" fill="#404040"><set attributeName="fill" to="#808080" begin="zoomplus.mouseover" end="zoomplus.mouseout"/></use>
    <path d="M-4,0h8M0,-4v8" fill="none" stroke="white" stroke-width="1.5" pointer-events="none"/>
  </g>
  <g id="zoomMin">
    <use xlink:href="#rim" fill="#404040"><set attributeName="fill" to="#808080" begin="zoomminus.mouseover" end="zoomminus.mouseout"/></use>
    <path d="M-4,0h8" fill="none" stroke="white" stroke-width="1.5" pointer-events="none"/>
  </g>
  <g id="arrowUp" transform="translate(30 24)">
    <use xlink:href="#rim"/>
    <path pointer-events="none" fill="none" stroke="white" stroke-width="1.5" d="M0,-3.0v7 M-2.5,-0.5L0,-3.0L2.5,-0.5"/>
  </g>
  <g id="arrowRight" transform="rotate(90) translate(36 -43)">
    <use xlink:href="#rim"/>
    <path pointer-events="none" fill="none" stroke="white" stroke-width="1.5" d="M0,-3.0v7 M-2.5,-0.5L0,-3.0L2.5,-0.5"/>
  </g>
  <g id="arrowDown" transform="rotate(180) translate(-30 -48)">
    <use xlink:href="#rim"/>
    <path pointer-events="none" fill="none" stroke="white" stroke-width="1.5" d="M0,-3.0v7 M-2.5,-0.5L0,-3.0L2.5,-0.5"/>
  </g>
  <g id="arrowLeft" transform="rotate(270) translate(-36 17)">
    <use xlink:href="#rim"/>
    <path pointer-events="none" fill="none" stroke="white" stroke-width="1.5" d="M0,-3.0v7 M-2.5,-0.5L0,-3.0L2.5,-0.5"/>
  </g>
  <g id="resetDef">
    <use xlink:href="#rim2" fill="#404040"><set attributeName="fill" to="#808080" begin="reset.mouseover" end="reset.mouseout"/></use>
  </g>
</defs>
<script type="application/ecmascript">
var viewWidth = 998;
var viewHeight = 680;
var sectionId = 'dynsection-0';
</script>
<script type="application/ecmascript" xlink:href="../../svg.min.js"/>
<svg id="graph" class="graph">
<g id="viewport">
<title>euclid.h</title>
<!-- Node1 -->
<g id="Node000001" class="node">
<title>Node1</title>
<g id="a_Node000001"><a xlink:title="Small collection of classes and functions for geometric types with a focus on 2d graphics and layout.">
<polygon fill="#999999" stroke="#666666" points="478.5,-672 425.75,-672 425.75,-652.75 478.5,-652.75 478.5,-672"/>
<text text-anchor="middle" x="452.12" y="-657.55" font-family="Arial" font-size="11.00">euclid.h</text>
</a>
</g>
</g>
<!-- Node2 -->
<g id="Node000002" class="node">
<title>Node2</title>
<g id="a_Node000002"><a xlink:href="../../da/dac/angle_8h.html" target="_top" xlink:title="Newtype describing an angle.">
<polygon fill="white" stroke="#666666" points="629.88,-329.25 516.38,-329.25 516.38,-310 629.88,-310 629.88,-329.25"/>
<text text-anchor="middle" x="573.12" y="-314.8" font-family="Arial" font-size="11.00">floppy/euclid/angle.h</text>
</a>
</g>
</g>
<!-- Node1&#45;&gt;Node2 -->
<g id="edge1_Node000001_Node000002" class="edge">
<title>Node1&#45;&gt;Node2</title>
<g id="a_edge1_Node000001_Node000002"><a xlink:title=" ">
<path fill="none" stroke="#63b8ff" d="M478.74,-656.03C524,-645.23 611.12,-616.2 611.12,-552.88 611.12,-552.88 611.12,-552.88 611.12,-434.75 611.12,-399.9 594.97,-361.98 583.73,-339.81"/>
<polygon fill="#63b8ff" stroke="#63b8ff" points="586.89,-338.29 579.12,-331.09 580.7,-341.56 586.89,-338.29"/>
</a>
</g>
</g>
<!-- Node28 -->
<g id="Node000028" class="node">
<title>Node28</title>
<g id="a_Node000028"><a xlink:href="../../dd/db9/length_8h.html" target="_top" xlink:title="A one&#45;dimensional distance with associated unit of measurement.">
<polygon fill="white" stroke="#666666" points="497.38,-384.5 380.88,-384.5 380.88,-365.25 497.38,-365.25 497.38,-384.5"/>
<text text-anchor="middle" x="439.12" y="-370.05" font-family="Arial" font-size="11.00">floppy/euclid/length.h</text>
</a>
</g>
</g>
<!-- Node1&#45;&gt;Node28 -->
<g id="edge35_Node000001_Node000028" class="edge">
<title>Node1&#45;&gt;Node28</title>
<g id="a_edge35_Node000001_Node000028"><a xlink:title=" ">
<path fill="none" stroke="#63b8ff" d="M458.76,-652.33C471.28,-634.35 497.12,-592.44 497.12,-552.88 497.12,-552.88 497.12,-552.88 497.12,-495.62 497.12,-456.16 471.3,-416.04 454.11,-393.71"/>
<polygon fill="#63b8ff" stroke="#63b8ff" points="456.88,-391.57 447.89,-385.95 451.42,-395.95 456.88,-391.57"/>
</a>
</g>
</g>
<!-- Node29 -->
<g id="Node000029" class="node">
<title>Node29</title>
<g id="a_Node000029"><a xlink:href="../../d8/d0c/scale_8h.html" target="_top" xlink:title="A scaling factor between two different units of measurement.">
<polygon fill="white" stroke="#666666" points="495.12,-329.25 383.12,-329.25 383.12,-310 495.12,-310 495.12,-329.25"/>
<text text-anchor="middle" x="439.12" y="-314.8" font-family="Arial" font-size="11.00">floppy/euclid/scale.h</text>
</a>
</g>
</g>
<!-- Node1&#45;&gt;Node29 -->
<g id="edge41_Node000001_Node000029" class="edge">
<title>Node1&#45;&gt;Node29</title>
<g id="a_edge41_Node000001_Node000029"><a xlink:title=" ">
<path fill="none" stroke="#63b8ff" d="M465.83,-652.44C489.41,-635.88 535.12,-597.94 535.12,-552.88 535.12,-552.88 535.12,-552.88 535.12,-434.75 535.12,-401.28 527.41,-391.08 506.12,-365.25 495.96,-352.91 481.49,-342.69 468.61,-335.15"/>
<polygon fill="#63b8ff" stroke="#63b8ff" points="470.49,-332.2 460.05,-330.43 467.11,-338.33 470.49,-332.2"/>
</a>
</g>
</g>
<!-- Node30 -->
<g id="Node000030" class="node">
<title>Node30</title>
<g id="a_Node000030"><a xlink:href="../../dc/df8/size2d_8h.html" target="_top" xlink:title="A two&#45;dimensional size tagged with a unit.">
<polygon fill="white" stroke="#666666" points="199.12,-506.25 81.12,-506.25 81.12,-487 199.12,-487 199.12,-506.25"/>
<text text-anchor="middle" x="140.12" y="-491.8" font-family="Arial" font-size="11.00">floppy/euclid/size2d.h</text>
</a>
</g>
</g>
<!-- Node1&#45;&gt;Node30 -->
<g id="edge42_Node000001_Node000030" class="edge">
<title>Node1&#45;&gt;Node30</title>
<g id="a_edge42_Node000001_Node000030"><a xlink:title=" ">
<path fill="none" stroke="#63b8ff" d="M425.46,-657.3C374.02,-648.25 259.7,-622.31 186.12,-561.5 171,-549 158.37,-530.42 150.19,-516.52"/>
<polygon fill="#63b8ff" stroke="#63b8ff" points="153.31,-514.92 145.37,-507.9 147.2,-518.34 153.31,-514.92"/>
</a>
</g>
</g>
<!-- Node35 -->
<g id="Node000035" class="node">
<title>Node35</title>
<g id="a_Node000035"><a xlink:href="../../d4/d12/point2d_8h.html" target="_top" xlink:title="A two&#45;dimensional point tagged with a unit.">
<polygon fill="white" stroke="#666666" points="456.38,-616.75 333.88,-616.75 333.88,-597.5 456.38,-597.5 456.38,-616.75"/>
<text text-anchor="middle" x="395.12" y="-602.3" font-family="Arial" font-size="11.00">floppy/euclid/point2d.h</text>
</a>
</g>
</g>
<!-- Node1&#45;&gt;Node35 -->
<g id="edge52_Node000001_Node000035" class="edge">
<title>Node1&#45;&gt;Node35</title>
<g id="a_edge52_Node000001_Node000035"><a xlink:title=" ">
<path fill="none" stroke="#63b8ff" d="M442.46,-652.34C434.38,-644.8 422.66,-633.85 412.9,-624.73"/>
<polygon fill="#63b8ff" stroke="#63b8ff" points="415.45,-622.33 405.76,-618.06 410.68,-627.44 415.45,-622.33"/>
</a>
</g>
</g>
<!-- Node37 -->
<g id="Node000037" class="node">
<title>Node37</title>
<g id="a_Node000037"><a xlink:href="../../d1/dab/vector2d_8h.html" target="_top" xlink:title="A two&#45;dimensional vector tagged with a unit.">
<polygon fill="white" stroke="#666666" points="355.38,-561.5 226.88,-561.5 226.88,-542.25 355.38,-542.25 355.38,-561.5"/>
<text text-anchor="middle" x="291.12" y="-547.05" font-family="Arial" font-size="11.00">floppy/euclid/vector2d.h</text>
</a>
</g>
</g>
<!-- Node1&#45;&gt;Node37 -->
<g id="edge63_Node000001_Node000037" class="edge">
<title>Node1&#45;&gt;Node37</title>
<g id="a_edge63_Node000001_Node000037"><a xlink:title=" ">
<path fill="none" stroke="#63b8ff" d="M425.46,-657.81C397.61,-652.88 354.02,-641.57 325.12,-616.75 311.43,-604.98 302.39,-586.29 297.1,-572.16"/>
<polygon fill="#63b8ff" stroke="#63b8ff" points="300.54,-571.39 294.01,-563.05 293.91,-573.64 300.54,-571.39"/>
</a>
</g>
</g>
<!-- Node3 -->
<g id="Node000003" class="node">
<title>Node3</title>
<g id="a_Node000003"><a xlink:href="../../df/db1/math_8h_source.html" target="_top" xlink:title=" ">
<polygon fill="white" stroke="#666666" points="406.62,-207.5 297.62,-207.5 297.62,-188.25 406.62,-188.25 406.62,-207.5"/>
<text text-anchor="middle" x="352.12" y="-193.05" font-family="Arial" font-size="11.00">floppy/detail/math.h</text>
</a>
</g>
</g>
<!-- Node2&#45;&gt;Node3 -->
<g id="edge2_Node000002_Node000003" class="edge">
<title>Node2&#45;&gt;Node3</title>
<g id="a_edge2_Node000002_Node000003"><a xlink:title=" ">
<path fill="none" stroke="#63b8ff" d="M556.57,-309.58C530.68,-295.44 479.03,-267.25 435.12,-243.5 416.36,-233.35 395.17,-221.96 378.9,-213.22"/>
<polygon fill="#63b8ff" stroke="#63b8ff" points="380.79,-210.27 370.32,-208.62 377.48,-216.44 380.79,-210.27"/>
</a>
</g>
</g>
<!-- Node21 -->
<g id="Node000021" class="node">
<title>Node21</title>
<g id="a_Node000021"><a xlink:href="../../dd/dff/traits_8h_source.html" target="_top" xlink:title=" ">
<polygon fill="white" stroke="#666666" points="665,-207.5 585.25,-207.5 585.25,-188.25 665,-188.25 665,-207.5"/>
<text text-anchor="middle" x="625.12" y="-193.05" font-family="Arial" font-size="11.00">floppy/traits.h</text>
</a>
</g>
</g>
<!-- Node2&#45;&gt;Node21 -->
<g id="edge22_Node000002_Node000021" class="edge">
<title>Node2&#45;&gt;Node21</title>
<g id="a_edge22_Node000002_Node000021"><a xlink:title=" ">
<path fill="none" stroke="#63b8ff" d="M577.03,-309.62C585.43,-290.29 605.34,-244.43 616.74,-218.19"/>
<polygon fill="#63b8ff" stroke="#63b8ff" points="619.8,-219.94 620.57,-209.37 613.37,-217.15 619.8,-219.94"/>
</a>
</g>
</g>
<!-- Node27 -->
<g id="Node000027" class="node">
<title>Node27</title>
<g id="a_Node000027"><a xlink:href="../../de/de1/nt__traits_8h_source.html" target="_top" xlink:title=" ">
<polygon fill="white" stroke="#666666" points="405,-274 301.25,-274 301.25,-243.5 405,-243.5 405,-274"/>
<text text-anchor="start" x="309.25" y="-259.55" font-family="Arial" font-size="11.00">floppy/euclid/detail</text>
<text text-anchor="middle" x="353.12" y="-248.3" font-family="Arial" font-size="11.00">/nt_traits.h</text>
</a>
</g>
</g>
<!-- Node2&#45;&gt;Node27 -->
<g id="edge32_Node000002_Node000027" class="edge">
<title>Node2&#45;&gt;Node27</title>
<g id="a_edge32_Node000002_Node000027"><a xlink:title=" ">
<path fill="none" stroke="#63b8ff" d="M539.23,-309.55C506.62,-300.83 456.51,-287.42 416.49,-276.71"/>
<polygon fill="#63b8ff" stroke="#63b8ff" points="417.52,-273.36 406.96,-274.16 415.71,-280.12 417.52,-273.36"/>
</a>
</g>
</g>
<!-- Node4 -->
<g id="Node000004" class="node">
<title>Node4</title>
<g id="a_Node000004"><a xlink:title=" ">
<polygon fill="#e0e0e0" stroke="#999999" points="311.75,-146.62 266.5,-146.62 266.5,-127.38 311.75,-127.38 311.75,-146.62"/>
<text text-anchor="middle" x="289.12" y="-132.18" font-family="Arial" font-size="11.00">cmath</text>
</a>
</g>
</g>
<!-- Node3&#45;&gt;Node4 -->
<g id="edge3_Node000003_Node000004" class="edge">
<title>Node3&#45;&gt;Node4</title>
<g id="a_edge3_Node000003_Node000004"><a xlink:title=" ">
<path fill="none" stroke="#63b8ff" d="M342.56,-187.93C333.12,-179.12 318.47,-165.43 306.9,-154.61"/>
<polygon fill="#63b8ff" stroke="#63b8ff" points="309.59,-152.33 299.89,-148.06 304.81,-157.44 309.59,-152.33"/>
</a>
</g>
</g>
<!-- Node5 -->
<g id="Node000005" class="node">
<title>Node5</title>
<g id="a_Node000005"><a xlink:title=" ">
<polygon fill="#e0e0e0" stroke="#999999" points="370.12,-146.62 330.12,-146.62 330.12,-127.38 370.12,-127.38 370.12,-146.62"/>
<text text-anchor="middle" x="350.12" y="-132.18" font-family="Arial" font-size="11.00">limits</text>
</a>
</g>
</g>
<!-- Node3&#45;&gt;Node5 -->
<g id="edge4_Node000003_Node000005" class="edge">
<title>Node3&#45;&gt;Node5</title>
<g id="a_edge4_Node000003_Node000005"><a xlink:title=" ">
<path fill="none" stroke="#63b8ff" d="M351.82,-187.93C351.55,-180.07 351.16,-168.32 350.81,-158.2"/>
<polygon fill="#63b8ff" stroke="#63b8ff" points="354.32,-158.41 350.48,-148.54 347.32,-158.65 354.32,-158.41"/>
</a>
</g>
</g>
<!-- Node6 -->
<g id="Node000006" class="node">
<title>Node6</title>
<g id="a_Node000006"><a xlink:title=" ">
<polygon fill="#e0e0e0" stroke="#999999" points="446.12,-146.62 388.12,-146.62 388.12,-127.38 446.12,-127.38 446.12,-146.62"/>
<text text-anchor="middle" x="417.12" y="-132.18" font-family="Arial" font-size="11.00">numbers</text>
</a>
</g>
</g>
<!-- Node3&#45;&gt;Node6 -->
<g id="edge5_Node000003_Node000006" class="edge">
<title>Node3&#45;&gt;Node6</title>
<g id="a_edge5_Node000003_Node000006"><a xlink:title=" ">
<path fill="none" stroke="#63b8ff" d="M362,-187.93C371.73,-179.12 386.85,-165.43 398.79,-154.61"/>
<polygon fill="#63b8ff" stroke="#63b8ff" points="400.98,-157.35 406.04,-148.04 396.28,-152.16 400.98,-157.35"/>
</a>
</g>
</g>
<!-- Node7 -->
<g id="Node000007" class="node">
<title>Node7</title>
<g id="a_Node000007"><a xlink:title=" ">
<polygon fill="#e0e0e0" stroke="#999999" points="248.12,-146.62 190.12,-146.62 190.12,-127.38 248.12,-127.38 248.12,-146.62"/>
<text text-anchor="middle" x="219.12" y="-132.18" font-family="Arial" font-size="11.00">compare</text>
</a>
</g>
</g>
<!-- Node3&#45;&gt;Node7 -->
<g id="edge6_Node000003_Node000007" class="edge">
<title>Node3&#45;&gt;Node7</title>
<g id="a_edge6_Node000003_Node000007"><a xlink:title=" ">
<path fill="none" stroke="#63b8ff" d="M331.64,-187.8C309.8,-178.14 274.99,-162.73 249.86,-151.61"/>
<polygon fill="#63b8ff" stroke="#63b8ff" points="251.36,-148.44 240.8,-147.6 248.53,-154.84 251.36,-148.44"/>
</a>
</g>
</g>
<!-- Node8 -->
<g id="Node000008" class="node">
<title>Node8</title>
<g id="a_Node000008"><a xlink:href="../../db/db5/export_8h_source.html" target="_top" xlink:title=" ">
<polygon fill="white" stroke="#666666" points="579.62,-146.62 464.62,-146.62 464.62,-127.38 579.62,-127.38 579.62,-146.62"/>
<text text-anchor="middle" x="522.12" y="-132.18" font-family="Arial" font-size="11.00">floppy/detail/export.h</text>
</a>
</g>
</g>
<!-- Node3&#45;&gt;Node8 -->
<g id="edge7_Node000003_Node000008" class="edge">
<title>Node3&#45;&gt;Node8</title>
<g id="a_edge7_Node000003_Node000008"><a xlink:title=" ">
<path fill="none" stroke="#63b8ff" d="M378.31,-187.8C406.89,-177.91 452.86,-161.99 485.12,-150.82"/>
<polygon fill="#63b8ff" stroke="#63b8ff" points="486.17,-154.16 494.48,-147.58 483.88,-147.54 486.17,-154.16"/>
</a>
</g>
</g>
<!-- Node13 -->
<g id="Node000013" class="node">
<title>Node13</title>
<g id="a_Node000013"><a xlink:href="../../d9/db1/concepts_8h_source.html" target="_top" xlink:title=" ">
<polygon fill="white" stroke="#666666" points="172,-146.62 44.25,-146.62 44.25,-127.38 172,-127.38 172,-146.62"/>
<text text-anchor="middle" x="108.12" y="-132.18" font-family="Arial" font-size="11.00">floppy/detail/concepts.h</text>
</a>
</g>
</g>
<!-- Node3&#45;&gt;Node13 -->
<g id="edge12_Node000003_Node000013" class="edge">
<title>Node3&#45;&gt;Node13</title>
<g id="a_edge12_Node000003_Node000013"><a xlink:title=" ">
<path fill="none" stroke="#63b8ff" d="M314.53,-187.8C272.18,-177.58 203.19,-160.94 156.76,-149.73"/>
<polygon fill="#63b8ff" stroke="#63b8ff" points="157.77,-146.38 147.23,-147.44 156.13,-153.18 157.77,-146.38"/>
</a>
</g>
</g>
<!-- Node9 -->
<g id="Node000009" class="node">
<title>Node9</title>
<g id="a_Node000009"><a xlink:title=" ">
<polygon fill="#e0e0e0" stroke="#999999" points="568.25,-80.12 526,-80.12 526,-60.88 568.25,-60.88 568.25,-80.12"/>
<text text-anchor="middle" x="547.12" y="-65.67" font-family="Arial" font-size="11.00">string</text>
</a>
</g>
</g>
<!-- Node8&#45;&gt;Node9 -->
<g id="edge8_Node000008_Node000009" class="edge">
<title>Node8&#45;&gt;Node9</title>
<g id="a_edge8_Node000008_Node000009"><a xlink:title=" ">
<path fill="none" stroke="#63b8ff" d="M525.6,-127.03C529.22,-117.69 535,-102.78 539.66,-90.76"/>
<polygon fill="#63b8ff" stroke="#63b8ff" points="542.78,-92.39 543.13,-81.8 536.25,-89.86 542.78,-92.39"/>
</a>
</g>
</g>
<!-- Node10 -->
<g id="Node000010" class="node">
<title>Node10</title>
<g id="a_Node000010"><a xlink:title=" ">
<polygon fill="#e0e0e0" stroke="#999999" points="799.12,-80.12 729.12,-80.12 729.12,-60.88 799.12,-60.88 799.12,-80.12"/>
<text text-anchor="middle" x="764.12" y="-65.67" font-family="Arial" font-size="11.00">string_view</text>
</a>
</g>
</g>
<!-- Node8&#45;&gt;Node10 -->
<g id="edge9_Node000008_Node000010" class="edge">
<title>Node8&#45;&gt;Node10</title>
<g id="a_edge9_Node000008_Node000010"><a xlink:title=" ">
<path fill="none" stroke="#63b8ff" d="M557.37,-126.9C595.73,-116.95 658.85,-100.47 713.12,-85.75 715.67,-85.06 718.29,-84.35 720.92,-83.62"/>
<polygon fill="#63b8ff" stroke="#63b8ff" points="721.61,-87.06 730.31,-81.02 719.74,-80.32 721.61,-87.06"/>
</a>
</g>
</g>
<!-- Node11 -->
<g id="Node000011" class="node">
<title>Node11</title>
<g id="a_Node000011"><a xlink:title=" ">
<polygon fill="#e0e0e0" stroke="#999999" points="703.75,-80.12 646.5,-80.12 646.5,-60.88 703.75,-60.88 703.75,-80.12"/>
<text text-anchor="middle" x="675.12" y="-65.67" font-family="Arial" font-size="11.00">iostream</text>
</a>
</g>
</g>
<!-- Node8&#45;&gt;Node11 -->
<g id="edge10_Node000008_Node000011" class="edge">
<title>Node8&#45;&gt;Node11</title>
<g id="a_edge10_Node000008_Node000011"><a xlink:title=" ">
<path fill="none" stroke="#63b8ff" d="M543.72,-126.9C569.69,-115.95 613.5,-97.48 643.34,-84.9"/>
<polygon fill="#63b8ff" stroke="#63b8ff" points="644.39,-88.26 652.24,-81.15 641.67,-81.81 644.39,-88.26"/>
</a>
</g>
</g>
<!-- Node12 -->
<g id="Node000012" class="node">
<title>Node12</title>
<g id="a_Node000012"><a xlink:title=" ">
<polygon fill="#e0e0e0" stroke="#999999" points="535,-19.25 461.25,-19.25 461.25,0 535,0 535,-19.25"/>
<text text-anchor="middle" x="498.12" y="-4.8" font-family="Arial" font-size="11.00">fmt/format.h</text>
</a>
</g>
</g>
<!-- Node8&#45;&gt;Node12 -->
<g id="edge11_Node000008_Node000012" class="edge">
<title>Node8&#45;&gt;Node12</title>
<g id="a_edge11_Node000008_Node000012"><a xlink:title=" ">
<path fill="none" stroke="#63b8ff" d="M520.4,-126.98C516.56,-106.92 507.23,-58.2 501.95,-30.58"/>
<polygon fill="#63b8ff" stroke="#63b8ff" points="505.44,-30.21 500.12,-21.05 498.56,-31.53 505.44,-30.21"/>
</a>
</g>
</g>
<!-- Node14 -->
<g id="Node000014" class="node">
<title>Node14</title>
<g id="a_Node000014"><a xlink:title=" ">
<polygon fill="#e0e0e0" stroke="#999999" points="301.5,-80.12 242.75,-80.12 242.75,-60.88 301.5,-60.88 301.5,-80.12"/>
<text text-anchor="middle" x="272.12" y="-65.67" font-family="Arial" font-size="11.00">concepts</text>
</a>
</g>
</g>
<!-- Node13&#45;&gt;Node14 -->
<g id="edge13_Node000013_Node000014" class="edge">
<title>Node13&#45;&gt;Node14</title>
<g id="a_edge13_Node000013_Node000014"><a xlink:title=" ">
<path fill="none" stroke="#63b8ff" d="M131.27,-126.9C159.23,-115.9 206.49,-97.31 238.47,-84.74"/>
<polygon fill="#63b8ff" stroke="#63b8ff" points="239.66,-88.03 247.68,-81.11 237.1,-81.52 239.66,-88.03"/>
</a>
</g>
</g>
<!-- Node15 -->
<g id="Node000015" class="node">
<title>Node15</title>
<g id="a_Node000015"><a xlink:href="../../df/d63/type__traits_8h_source.html" target="_top" xlink:title=" ">
<polygon fill="white" stroke="#666666" points="96.25,-85.75 0,-85.75 0,-55.25 96.25,-55.25 96.25,-85.75"/>
<text text-anchor="start" x="8" y="-71.3" font-family="Arial" font-size="11.00">floppy/detail/type</text>
<text text-anchor="middle" x="48.12" y="-60.05" font-family="Arial" font-size="11.00">_traits.h</text>
</a>
</g>
</g>
<!-- Node13&#45;&gt;Node15 -->
<g id="edge14_Node000013_Node000015" class="edge">
<title>Node13&#45;&gt;Node15</title>
<g id="a_edge14_Node000013_Node000015"><a xlink:title=" ">
<path fill="none" stroke="#63b8ff" d="M99.78,-127.03C91.88,-118.54 79.68,-105.42 69.12,-94.07"/>
<polygon fill="#63b8ff" stroke="#63b8ff" points="71.87,-91.89 62.5,-86.95 66.75,-96.66 71.87,-91.89"/>
</a>
</g>
</g>
<!-- Node17 -->
<g id="Node000017" class="node">
<title>Node17</title>
<g id="a_Node000017"><a xlink:href="../../d9/d49/types_8h_source.html" target="_top" xlink:title=" ">
<polygon fill="white" stroke="#666666" points="224.38,-80.12 113.88,-80.12 113.88,-60.88 224.38,-60.88 224.38,-80.12"/>
<text text-anchor="middle" x="169.12" y="-65.67" font-family="Arial" font-size="11.00">floppy/detail/types.h</text>
</a>
</g>
</g>
<!-- Node13&#45;&gt;Node17 -->
<g id="edge16_Node000013_Node000017" class="edge">
<title>Node13&#45;&gt;Node17</title>
<g id="a_edge16_Node000013_Node000017"><a xlink:title=" ">
<path fill="none" stroke="#63b8ff" d="M116.61,-127.03C125.98,-117.12 141.31,-100.91 152.99,-88.56"/>
<polygon fill="#63b8ff" stroke="#63b8ff" points="155.35,-91.16 159.68,-81.49 150.26,-86.35 155.35,-91.16"/>
</a>
</g>
</g>
<!-- Node16 -->
<g id="Node000016" class="node">
<title>Node16</title>
<g id="a_Node000016"><a xlink:title=" ">
<polygon fill="#e0e0e0" stroke="#999999" points="80.88,-19.25 15.38,-19.25 15.38,0 80.88,0 80.88,-19.25"/>
<text text-anchor="middle" x="48.12" y="-4.8" font-family="Arial" font-size="11.00">type_traits</text>
</a>
</g>
</g>
<!-- Node15&#45;&gt;Node16 -->
<g id="edge15_Node000015_Node000016" class="edge">
<title>Node15&#45;&gt;Node16</title>
<g id="a_edge15_Node000015_Node000016"><a xlink:title=" ">
<path fill="none" stroke="#63b8ff" d="M48.12,-54.95C48.12,-47.71 48.12,-38.84 48.12,-30.94"/>
<polygon fill="#63b8ff" stroke="#63b8ff" points="51.63,-31.21 48.13,-21.21 44.63,-31.21 51.63,-31.21"/>
</a>
</g>
</g>
<!-- Node17&#45;&gt;Node12 -->
<g id="edge21_Node000017_Node000012" class="edge">
<title>Node17&#45;&gt;Node12</title>
<g id="a_edge21_Node000017_Node000012"><a xlink:title=" ">
<path fill="none" stroke="#63b8ff" d="M209.28,-60.38C217.49,-58.6 226.07,-56.81 234.12,-55.25 309.16,-40.69 396.72,-26.42 449.76,-18.08"/>
<polygon fill="#63b8ff" stroke="#63b8ff" points="450.03,-21.58 459.36,-16.58 448.94,-14.67 450.03,-21.58"/>
</a>
</g>
</g>
<!-- Node17&#45;&gt;Node16 -->
<g id="edge20_Node000017_Node000016" class="edge">
<title>Node17&#45;&gt;Node16</title>
<g id="a_edge20_Node000017_Node000016"><a xlink:title=" ">
<path fill="none" stroke="#63b8ff" d="M150.48,-60.43C130.8,-50.85 99.51,-35.63 76.71,-24.53"/>
<polygon fill="#63b8ff" stroke="#63b8ff" points="78.47,-21.5 67.95,-20.27 75.41,-27.79 78.47,-21.5"/>
</a>
</g>
</g>
<!-- Node18 -->
<g id="Node000018" class="node">
<title>Node18</title>
<g id="a_Node000018"><a xlink:title=" ">
<polygon fill="#e0e0e0" stroke="#999999" points="149.38,-19.25 98.88,-19.25 98.88,0 149.38,0 149.38,-19.25"/>
<text text-anchor="middle" x="124.12" y="-4.8" font-family="Arial" font-size="11.00">cstddef</text>
</a>
</g>
</g>
<!-- Node17&#45;&gt;Node18 -->
<g id="edge17_Node000017_Node000018" class="edge">
<title>Node17&#45;&gt;Node18</title>
<g id="a_edge17_Node000017_Node000018"><a xlink:title=" ">
<path fill="none" stroke="#63b8ff" d="M162.29,-60.56C155.81,-52.09 145.9,-39.12 137.8,-28.52"/>
<polygon fill="#63b8ff" stroke="#63b8ff" points="140.8,-26.67 131.94,-20.85 135.23,-30.92 140.8,-26.67"/>
</a>
</g>
</g>
<!-- Node19 -->
<g id="Node000019" class="node">
<title>Node19</title>
<g id="a_Node000019"><a xlink:title=" ">
<polygon fill="#e0e0e0" stroke="#999999" points="214.5,-19.25 167.75,-19.25 167.75,0 214.5,0 214.5,-19.25"/>
<text text-anchor="middle" x="191.12" y="-4.8" font-family="Arial" font-size="11.00">cstdint</text>
</a>
</g>
</g>
<!-- Node17&#45;&gt;Node19 -->
<g id="edge18_Node000017_Node000019" class="edge">
<title>Node17&#45;&gt;Node19</title>
<g id="a_edge18_Node000017_Node000019"><a xlink:title=" ">
<path fill="none" stroke="#63b8ff" d="M172.47,-60.56C175.47,-52.52 179.99,-40.43 183.83,-30.16"/>
<polygon fill="#63b8ff" stroke="#63b8ff" points="187,-31.66 187.22,-21.07 180.44,-29.21 187,-31.66"/>
</a>
</g>
</g>
<!-- Node20 -->
<g id="Node000020" class="node">
<title>Node20</title>
<g id="a_Node000020"><a xlink:title=" ">
<polygon fill="#e0e0e0" stroke="#999999" points="285.88,-19.25 232.38,-19.25 232.38,0 285.88,0 285.88,-19.25"/>
<text text-anchor="middle" x="259.12" y="-4.8" font-family="Arial" font-size="11.00">optional</text>
</a>
</g>
</g>
<!-- Node17&#45;&gt;Node20 -->
<g id="edge19_Node000017_Node000020" class="edge">
<title>Node17&#45;&gt;Node20</title>
<g id="a_edge19_Node000017_Node000020"><a xlink:title=" ">
<path fill="none" stroke="#63b8ff" d="M182.79,-60.56C196.93,-51.31 219.27,-36.7 236.13,-25.67"/>
<polygon fill="#63b8ff" stroke="#63b8ff" points="237.61,-28.88 244.06,-20.48 233.78,-23.03 237.61,-28.88"/>
</a>
</g>
</g>
<!-- Node21&#45;&gt;Node8 -->
<g id="edge26_Node000021_Node000008" class="edge">
<title>Node21&#45;&gt;Node8</title>
<g id="a_edge26_Node000021_Node000008"><a xlink:title=" ">
<path fill="none" stroke="#63b8ff" d="M609.48,-187.93C593.15,-178.6 567.26,-163.8 547.9,-152.73"/>
<polygon fill="#63b8ff" stroke="#63b8ff" points="549.65,-149.7 539.23,-147.78 546.17,-155.78 549.65,-149.7"/>
</a>
</g>
</g>
<!-- Node21&#45;&gt;Node11 -->
<g id="edge24_Node000021_Node000011" class="edge">
<title>Node21&#45;&gt;Node11</title>
<g id="a_edge24_Node000021_Node000011"><a xlink:title=" ">
<path fill="none" stroke="#63b8ff" d="M665.49,-192.84C714.15,-187.05 791.6,-174.53 809.12,-152.25 817.5,-141.59 816.85,-132.89 809.12,-121.75 806.19,-117.52 750.78,-97.67 712.14,-84.22"/>
<polygon fill="#63b8ff" stroke="#63b8ff" points="713.77,-81.08 703.18,-81.11 711.48,-87.69 713.77,-81.08"/>
</a>
</g>
</g>
<!-- Node22 -->
<g id="Node000022" class="node">
<title>Node22</title>
<g id="a_Node000022"><a xlink:title=" ">
<polygon fill="#e0e0e0" stroke="#999999" points="652.62,-146.62 597.62,-146.62 597.62,-127.38 652.62,-127.38 652.62,-146.62"/>
<text text-anchor="middle" x="625.12" y="-132.18" font-family="Arial" font-size="11.00">memory</text>
</a>
</g>
</g>
<!-- Node21&#45;&gt;Node22 -->
<g id="edge23_Node000021_Node000022" class="edge">
<title>Node21&#45;&gt;Node22</title>
<g id="a_edge23_Node000021_Node000022"><a xlink:title=" ">
<path fill="none" stroke="#63b8ff" d="M625.12,-187.93C625.12,-180.15 625.12,-168.58 625.12,-158.53"/>
<polygon fill="#63b8ff" stroke="#63b8ff" points="628.63,-158.54 625.13,-148.54 621.63,-158.54 628.63,-158.54"/>
</a>
</g>
</g>
<!-- Node23 -->
<g id="Node000023" class="node">
<title>Node23</title>
<g id="a_Node000023"><a xlink:title=" ">
<polygon fill="#e0e0e0" stroke="#999999" points="799.75,-152.25 670.5,-152.25 670.5,-121.75 799.75,-121.75 799.75,-152.25"/>
<text text-anchor="start" x="678.5" y="-137.8" font-family="Arial" font-size="11.00">experimental/propagate</text>
<text text-anchor="middle" x="735.12" y="-126.55" font-family="Arial" font-size="11.00">_const</text>
</a>
</g>
</g>
<!-- Node21&#45;&gt;Node23 -->
<g id="edge25_Node000021_Node000023" class="edge">
<title>Node21&#45;&gt;Node23</title>
<g id="a_edge25_Node000021_Node000023"><a xlink:title=" ">
<path fill="none" stroke="#63b8ff" d="M641.83,-187.93C656.71,-179.97 679,-168.04 698.07,-157.83"/>
<polygon fill="#63b8ff" stroke="#63b8ff" points="699.47,-161.05 706.64,-153.25 696.17,-154.88 699.47,-161.05"/>
</a>
</g>
</g>
<!-- Node24 -->
<g id="Node000024" class="node">
<title>Node24</title>
<g id="a_Node000024"><a xlink:href="../../d6/d45/formatters_8h_source.html" target="_top" xlink:title=" ">
<polygon fill="white" stroke="#666666" points="990,-146.62 856.25,-146.62 856.25,-127.38 990,-127.38 990,-146.62"/>
<text text-anchor="middle" x="923.12" y="-132.18" font-family="Arial" font-size="11.00">floppy/detail/formatters.h</text>
</a>
</g>
</g>
<!-- Node21&#45;&gt;Node24 -->
<g id="edge27_Node000021_Node000024" class="edge">
<title>Node21&#45;&gt;Node24</title>
<g id="a_edge27_Node000021_Node000024"><a xlink:title=" ">
<path fill="none" stroke="#63b8ff" d="M665.31,-188.93C717.03,-178.72 807.2,-160.9 866.02,-149.28"/>
<polygon fill="#63b8ff" stroke="#63b8ff" points="866.37,-152.78 875.5,-147.41 865.01,-145.91 866.37,-152.78"/>
</a>
</g>
</g>
<!-- Node24&#45;&gt;Node10 -->
<g id="edge28_Node000024_Node000010" class="edge">
<title>Node24&#45;&gt;Node10</title>
<g id="a_edge28_Node000024_Node000010"><a xlink:title=" ">
<path fill="none" stroke="#63b8ff" d="M900.68,-126.9C873.57,-115.9 827.76,-97.31 796.75,-84.74"/>
<polygon fill="#63b8ff" stroke="#63b8ff" points="798.44,-81.64 787.86,-81.13 795.81,-88.13 798.44,-81.64"/>
</a>
</g>
</g>
<!-- Node24&#45;&gt;Node12 -->
<g id="edge31_Node000024_Node000012" class="edge">
<title>Node24&#45;&gt;Node12</title>
<g id="a_edge31_Node000024_Node000012"><a xlink:title=" ">
<path fill="none" stroke="#63b8ff" d="M910.56,-127.12C881.03,-106.26 809.56,-55.82 808.12,-55.25 720.52,-20.5 609.43,-12.35 546.82,-10.71"/>
<polygon fill="#63b8ff" stroke="#63b8ff" points="546.92,-7.21 536.85,-10.5 546.78,-14.21 546.92,-7.21"/>
</a>
</g>
</g>
<!-- Node25 -->
<g id="Node000025" class="node">
<title>Node25</title>
<g id="a_Node000025"><a xlink:title=" ">
<polygon fill="#e0e0e0" stroke="#999999" points="915.25,-80.12 861,-80.12 861,-60.88 915.25,-60.88 915.25,-80.12"/>
<text text-anchor="middle" x="888.12" y="-65.67" font-family="Arial" font-size="11.00">sstream</text>
</a>
</g>
</g>
<!-- Node24&#45;&gt;Node25 -->
<g id="edge29_Node000024_Node000025" class="edge">
<title>Node24&#45;&gt;Node25</title>
<g id="a_edge29_Node000024_Node000025"><a xlink:title=" ">
<path fill="none" stroke="#63b8ff" d="M918.26,-127.03C913.14,-117.6 904.93,-102.47 898.37,-90.38"/>
<polygon fill="#63b8ff" stroke="#63b8ff" points="901.52,-88.84 893.67,-81.72 895.37,-92.18 901.52,-88.84"/>
</a>
</g>
</g>
<!-- Node26 -->
<g id="Node000026" class="node">
<title>Node26</title>
<g id="a_Node000026"><a xlink:title=" ">
<polygon fill="#e0e0e0" stroke="#999999" points="980.5,-80.12 933.75,-80.12 933.75,-60.88 980.5,-60.88 980.5,-80.12"/>
<text text-anchor="middle" x="957.12" y="-65.67" font-family="Arial" font-size="11.00">iosfwd</text>
</a>
</g>
</g>
<!-- Node24&#45;&gt;Node26 -->
<g id="edge30_Node000024_Node000026" class="edge">
<title>Node24&#45;&gt;Node26</title>
<g id="a_edge30_Node000024_Node000026"><a xlink:title=" ">
<path fill="none" stroke="#63b8ff" d="M927.85,-127.03C932.83,-117.6 940.8,-102.47 947.17,-90.38"/>
<polygon fill="#63b8ff" stroke="#63b8ff" points="950.16,-92.21 951.73,-81.73 943.97,-88.95 950.16,-92.21"/>
</a>
</g>
</g>
<!-- Node27&#45;&gt;Node3 -->
<g id="edge33_Node000027_Node000003" class="edge">
<title>Node27&#45;&gt;Node3</title>
<g id="a_edge33_Node000027_Node000003"><a xlink:title=" ">
<path fill="none" stroke="#63b8ff" d="M352.88,-243.2C352.75,-235.96 352.6,-227.09 352.47,-219.19"/>
<polygon fill="#63b8ff" stroke="#63b8ff" points="355.97,-219.4 352.3,-209.46 348.98,-219.52 355.97,-219.4"/>
</a>
</g>
</g>
<!-- Node27&#45;&gt;Node13 -->
<g id="edge34_Node000027_Node000013" class="edge">
<title>Node27&#45;&gt;Node13</title>
<g id="a_edge34_Node000027_Node000013"><a xlink:title=" ">
<path fill="none" stroke="#63b8ff" d="M323.08,-243.07C275.53,-219.82 183.53,-174.86 136.83,-152.03"/>
<polygon fill="#63b8ff" stroke="#63b8ff" points="138.4,-148.9 127.87,-147.65 135.32,-155.19 138.4,-148.9"/>
</a>
</g>
</g>
<!-- Node28&#45;&gt;Node27 -->
<g id="edge40_Node000028_Node000027" class="edge">
<title>Node28&#45;&gt;Node27</title>
<g id="a_edge40_Node000028_Node000027"><a xlink:title=" ">
<path fill="none" stroke="#63b8ff" d="M419.37,-364.86C404.87,-357.29 385.76,-345.16 374.12,-329.25 364.8,-316.5 359.58,-299.58 356.67,-285.63"/>
<polygon fill="#63b8ff" stroke="#63b8ff" points="360.12,-285.04 354.93,-275.8 353.23,-286.26 360.12,-285.04"/>
</a>
</g>
</g>
<!-- Node28&#45;&gt;Node29 -->
<g id="edge36_Node000028_Node000029" class="edge">
<title>Node28&#45;&gt;Node29</title>
<g id="a_edge36_Node000028_Node000029"><a xlink:title=" ">
<path fill="none" stroke="#63b8ff" d="M439.12,-365.08C439.12,-358.57 439.12,-349.42 439.12,-341.12"/>
<polygon fill="#63b8ff" stroke="#63b8ff" points="442.63,-341.12 439.13,-331.12 435.63,-341.12 442.63,-341.12"/>
</a>
</g>
</g>
<!-- Node29&#45;&gt;Node3 -->
<g id="edge37_Node000029_Node000003" class="edge">
<title>Node29&#45;&gt;Node3</title>
<g id="a_edge37_Node000029_Node000003"><a xlink:title=" ">
<path fill="none" stroke="#63b8ff" d="M438.01,-309.95C435.74,-295.08 429.44,-264.32 414.12,-243.5 405.16,-231.31 391.88,-221.13 379.9,-213.58"/>
<polygon fill="#63b8ff" stroke="#63b8ff" points="381.96,-210.73 371.58,-208.64 378.39,-216.75 381.96,-210.73"/>
</a>
</g>
</g>
<!-- Node29&#45;&gt;Node21 -->
<g id="edge38_Node000029_Node000021" class="edge">
<title>Node29&#45;&gt;Node21</title>
<g id="a_edge38_Node000029_Node000021"><a xlink:title=" ">
<path fill="none" stroke="#63b8ff" d="M453.11,-309.62C484.75,-289.25 562.14,-239.42 601.43,-214.13"/>
<polygon fill="#63b8ff" stroke="#63b8ff" points="603.2,-217.16 609.71,-208.8 599.41,-211.27 603.2,-217.16"/>
</a>
</g>
</g>
<!-- Node29&#45;&gt;Node27 -->
<g id="edge39_Node000029_Node000027" class="edge">
<title>Node29&#45;&gt;Node27</title>
<g id="a_edge39_Node000029_Node000027"><a xlink:title=" ">
<path fill="none" stroke="#63b8ff" d="M426.06,-309.68C414.81,-301.98 398.12,-290.55 383.55,-280.58"/>
<polygon fill="#63b8ff" stroke="#63b8ff" points="385.83,-277.9 375.6,-275.14 381.88,-283.67 385.83,-277.9"/>
</a>
</g>
</g>
<!-- Node30&#45;&gt;Node3 -->
<g id="edge43_Node000030_Node000003" class="edge">
<title>Node30&#45;&gt;Node3</title>
<g id="a_edge43_Node000030_Node000003"><a xlink:title=" ">
<path fill="none" stroke="#63b8ff" d="M140.25,-486.61C140.52,-466.66 141.12,-417.25 141.12,-375.88 141.12,-375.88 141.12,-375.88 141.12,-318.62 141.12,-251.02 224.07,-221.11 285.95,-208.21"/>
<polygon fill="#63b8ff" stroke="#63b8ff" points="286.62,-211.65 295.75,-206.29 285.27,-204.78 286.62,-211.65"/>
</a>
</g>
</g>
<!-- Node30&#45;&gt;Node13 -->
<g id="edge44_Node000030_Node000013" class="edge">
<title>Node30&#45;&gt;Node13</title>
<g id="a_edge44_Node000030_Node000013"><a xlink:title=" ">
<path fill="none" stroke="#63b8ff" d="M135.29,-486.6C125.26,-467.03 103.12,-418.96 103.12,-375.88 103.12,-375.88 103.12,-375.88 103.12,-257.75 103.12,-222.81 105.28,-182.19 106.76,-158.37"/>
<polygon fill="#63b8ff" stroke="#63b8ff" points="110.24,-158.72 107.39,-148.52 103.26,-158.27 110.24,-158.72"/>
</a>
</g>
</g>
<!-- Node30&#45;&gt;Node28 -->
<g id="edge45_Node000030_Node000028" class="edge">
<title>Node30&#45;&gt;Node28</title>
<g id="a_edge45_Node000030_Node000028"><a xlink:title=" ">
<path fill="none" stroke="#63b8ff" d="M183.28,-486.53C213.57,-479.22 254.49,-467.45 288.12,-451 309.17,-440.71 310.61,-431.82 331.12,-420.5 353.81,-407.98 380.75,-396.84 402.04,-388.83"/>
<polygon fill="#63b8ff" stroke="#63b8ff" points="403.02,-392.19 411.19,-385.45 400.6,-385.63 403.02,-392.19"/>
</a>
</g>
</g>
<!-- Node31 -->
<g id="Node000031" class="node">
<title>Node31</title>
<g id="a_Node000031"><a xlink:href="../../da/d53/nt__traits2d_8h_source.html" target="_top" xlink:title=" ">
<polygon fill="white" stroke="#666666" points="279,-451 175.25,-451 175.25,-420.5 279,-420.5 279,-451"/>
<text text-anchor="start" x="183.25" y="-436.55" font-family="Arial" font-size="11.00">floppy/euclid/detail</text>
<text text-anchor="middle" x="227.12" y="-425.3" font-family="Arial" font-size="11.00">/nt_traits2d.h</text>
</a>
</g>
</g>
<!-- Node30&#45;&gt;Node31 -->
<g id="edge46_Node000030_Node000031" class="edge">
<title>Node30&#45;&gt;Node31</title>
<g id="a_edge46_Node000030_Node000031"><a xlink:title=" ">
<path fill="none" stroke="#63b8ff" d="M153.34,-486.68C164.72,-478.98 181.61,-467.55 196.35,-457.58"/>
<polygon fill="#63b8ff" stroke="#63b8ff" points="198.08,-460.63 204.4,-452.13 194.15,-454.84 198.08,-460.63"/>
</a>
</g>
</g>
<!-- Node31&#45;&gt;Node27 -->
<g id="edge51_Node000031_Node000027" class="edge">
<title>Node31&#45;&gt;Node27</title>
<g id="a_edge51_Node000031_Node000027"><a xlink:title=" ">
<path fill="none" stroke="#63b8ff" d="M213.38,-420.02C201.78,-405.7 188.47,-383.51 198.12,-365.25 219.95,-324 265.93,-295.87 302.17,-279.1"/>
<polygon fill="#63b8ff" stroke="#63b8ff" points="303.5,-282.34 311.21,-275.08 300.65,-275.94 303.5,-282.34"/>
</a>
</g>
</g>
<!-- Node31&#45;&gt;Node28 -->
<g id="edge50_Node000031_Node000028" class="edge">
<title>Node31&#45;&gt;Node28</title>
<g id="a_edge50_Node000031_Node000028"><a xlink:title=" ">
<path fill="none" stroke="#63b8ff" d="M279.26,-420.27C314.95,-410.36 361.73,-397.37 395.46,-388"/>
<polygon fill="#63b8ff" stroke="#63b8ff" points="396.2,-391.43 404.9,-385.38 394.33,-384.68 396.2,-391.43"/>
</a>
</g>
</g>
<!-- Node32 -->
<g id="Node000032" class="node">
<title>Node32</title>
<g id="a_Node000032"><a xlink:title=" ">
<polygon fill="#e0e0e0" stroke="#999999" points="305.5,-384.5 264.75,-384.5 264.75,-365.25 305.5,-365.25 305.5,-384.5"/>
<text text-anchor="middle" x="285.12" y="-370.05" font-family="Arial" font-size="11.00">array</text>
</a>
</g>
</g>
<!-- Node31&#45;&gt;Node32 -->
<g id="edge47_Node000031_Node000032" class="edge">
<title>Node31&#45;&gt;Node32</title>
<g id="a_edge47_Node000031_Node000032"><a xlink:title=" ">
<path fill="none" stroke="#63b8ff" d="M241.46,-420.2C249.53,-412.01 259.65,-401.73 268.12,-393.14"/>
<polygon fill="#63b8ff" stroke="#63b8ff" points="270.6,-395.61 275.12,-386.03 265.61,-390.7 270.6,-395.61"/>
</a>
</g>
</g>
<!-- Node33 -->
<g id="Node000033" class="node">
<title>Node33</title>
<g id="a_Node000033"><a xlink:title=" ">
<polygon fill="#e0e0e0" stroke="#999999" points="362.75,-384.5 323.5,-384.5 323.5,-365.25 362.75,-365.25 362.75,-384.5"/>
<text text-anchor="middle" x="343.12" y="-370.05" font-family="Arial" font-size="11.00">tuple</text>
</a>
</g>
</g>
<!-- Node31&#45;&gt;Node33 -->
<g id="edge48_Node000031_Node000033" class="edge">
<title>Node31&#45;&gt;Node33</title>
<g id="a_edge48_Node000031_Node000033"><a xlink:title=" ">
<path fill="none" stroke="#63b8ff" d="M256.1,-420.05C274.19,-410.86 297.35,-399.11 315.24,-390.03"/>
<polygon fill="#63b8ff" stroke="#63b8ff" points="316.65,-393.24 323.99,-385.59 313.48,-386.99 316.65,-393.24"/>
</a>
</g>
</g>
<!-- Node34 -->
<g id="Node000034" class="node">
<title>Node34</title>
<g id="a_Node000034"><a xlink:title=" ">
<polygon fill="#e0e0e0" stroke="#999999" points="247.12,-384.5 207.12,-384.5 207.12,-365.25 247.12,-365.25 247.12,-384.5"/>
<text text-anchor="middle" x="227.12" y="-370.05" font-family="Arial" font-size="11.00">utility</text>
</a>
</g>
</g>
<!-- Node31&#45;&gt;Node34 -->
<g id="edge49_Node000031_Node000034" class="edge">
<title>Node31&#45;&gt;Node34</title>
<g id="a_edge49_Node000031_Node000034"><a xlink:title=" ">
<path fill="none" stroke="#63b8ff" d="M227.12,-420.2C227.12,-412.96 227.12,-404.09 227.12,-396.19"/>
<polygon fill="#63b8ff" stroke="#63b8ff" points="230.63,-396.46 227.13,-386.46 223.63,-396.46 230.63,-396.46"/>
</a>
</g>
</g>
<!-- Node35&#45;&gt;Node28 -->
<g id="edge54_Node000035_Node000028" class="edge">
<title>Node35&#45;&gt;Node28</title>
<g id="a_edge54_Node000035_Node000028"><a xlink:title=" ">
<path fill="none" stroke="#63b8ff" d="M403.67,-597.04C411.06,-588.57 421.3,-575.2 426.12,-561.5 446.29,-504.22 443.85,-430.97 441.13,-396.09"/>
<polygon fill="#63b8ff" stroke="#63b8ff" points="444.63,-395.87 440.25,-386.22 437.65,-396.49 444.63,-395.87"/>
</a>
</g>
</g>
<!-- Node35&#45;&gt;Node30 -->
<g id="edge55_Node000035_Node000030" class="edge">
<title>Node35&#45;&gt;Node30</title>
<g id="a_edge55_Node000035_Node000030"><a xlink:title=" ">
<path fill="none" stroke="#63b8ff" d="M333.38,-597.42C298.26,-590.82 254.21,-579.68 218.12,-561.5 194.31,-549.5 171.21,-529.16 156.41,-514.65"/>
<polygon fill="#63b8ff" stroke="#63b8ff" points="158.93,-512.22 149.4,-507.58 153.95,-517.15 158.93,-512.22"/>
</a>
</g>
</g>
<!-- Node35&#45;&gt;Node31 -->
<g id="edge62_Node000035_Node000031" class="edge">
<title>Node35&#45;&gt;Node31</title>
<g id="a_edge62_Node000035_Node000031"><a xlink:title=" ">
<path fill="none" stroke="#63b8ff" d="M399.15,-597.24C408.2,-575.81 427.43,-520.59 402.12,-487 388.41,-468.79 334.57,-455.14 290.19,-446.7"/>
<polygon fill="#63b8ff" stroke="#63b8ff" points="291.1,-443.31 280.63,-444.94 289.83,-450.19 291.1,-443.31"/>
</a>
</g>
</g>
<!-- Node36 -->
<g id="Node000036" class="node">
<title>Node36</title>
<g id="a_Node000036"><a xlink:title=" ">
<polygon fill="#e0e0e0" stroke="#999999" points="393,-506.25 331.25,-506.25 331.25,-487 393,-487 393,-506.25"/>
<text text-anchor="middle" x="362.12" y="-491.8" font-family="Arial" font-size="11.00">functional</text>
</a>
</g>
</g>
<!-- Node35&#45;&gt;Node36 -->
<g id="edge53_Node000035_Node000036" class="edge">
<title>Node35&#45;&gt;Node36</title>
<g id="a_edge53_Node000035_Node000036"><a xlink:title=" ">
<path fill="none" stroke="#63b8ff" d="M392.42,-597.25C387.15,-579.92 375.39,-541.23 368.17,-517.49"/>
<polygon fill="#63b8ff" stroke="#63b8ff" points="371.56,-516.62 365.3,-508.07 364.86,-518.66 371.56,-516.62"/>
</a>
</g>
</g>
<!-- Node35&#45;&gt;Node37 -->
<g id="edge56_Node000035_Node000037" class="edge">
<title>Node35&#45;&gt;Node37</title>
<g id="a_edge56_Node000035_Node000037"><a xlink:title=" ">
<path fill="none" stroke="#63b8ff" d="M377.48,-597.09C361.5,-588.91 337.67,-576.71 319.09,-567.19"/>
<polygon fill="#63b8ff" stroke="#63b8ff" points="320.7,-564.08 310.2,-562.64 317.51,-570.32 320.7,-564.08"/>
</a>
</g>
</g>
<!-- Node37&#45;&gt;Node2 -->
<g id="edge58_Node000037_Node000002" class="edge">
<title>Node37&#45;&gt;Node2</title>
<g id="a_edge58_Node000037_Node000002"><a xlink:title=" ">
<path fill="none" stroke="#63b8ff" d="M293.54,-542.04C297.55,-528.71 306.72,-503.3 322.12,-487 386.42,-418.97 430.76,-440.02 506.12,-384.5 525.23,-370.43 544.59,-351.34 557.55,-337.7"/>
<polygon fill="#63b8ff" stroke="#63b8ff" points="559.78,-340.44 564.04,-330.74 554.66,-335.66 559.78,-340.44"/>
</a>
</g>
</g>
<!-- Node37&#45;&gt;Node28 -->
<g id="edge59_Node000037_Node000028" class="edge">
<title>Node37&#45;&gt;Node28</title>
<g id="a_edge59_Node000037_Node000028"><a xlink:title=" ">
<path fill="none" stroke="#63b8ff" d="M288.33,-542.04C284.78,-529.17 280.14,-504.84 289.12,-487 302.58,-460.29 374.61,-414.33 413.75,-390.76"/>
<polygon fill="#63b8ff" stroke="#63b8ff" points="415.53,-393.78 422.32,-385.65 411.94,-387.77 415.53,-393.78"/>
</a>
</g>
</g>
<!-- Node37&#45;&gt;Node30 -->
<g id="edge60_Node000037_Node000030" class="edge">
<title>Node37&#45;&gt;Node30</title>
<g id="a_edge60_Node000037_Node000030"><a xlink:title=" ">
<path fill="none" stroke="#63b8ff" d="M265.51,-541.84C241.11,-533.24 204.11,-520.19 176.63,-510.5"/>
<polygon fill="#63b8ff" stroke="#63b8ff" points="177.89,-507.23 167.29,-507.21 175.56,-513.83 177.89,-507.23"/>
</a>
</g>
</g>
<!-- Node37&#45;&gt;Node31 -->
<g id="edge61_Node000037_Node000031" class="edge">
<title>Node37&#45;&gt;Node31</title>
<g id="a_edge61_Node000037_Node000031"><a xlink:title=" ">
<path fill="none" stroke="#63b8ff" d="M281,-541.84C272.07,-533.4 259.25,-520.06 251.12,-506.25 243.12,-492.63 237.24,-475.94 233.31,-462.33"/>
<polygon fill="#63b8ff" stroke="#63b8ff" points="236.72,-461.52 230.74,-452.77 229.96,-463.34 236.72,-461.52"/>
</a>
</g>
</g>
<!-- Node37&#45;&gt;Node36 -->
<g id="edge57_Node000037_Node000036" class="edge">
<title>Node37&#45;&gt;Node36</title>
<g id="a_edge57_Node000037_Node000036"><a xlink:title=" ">
<path fill="none" stroke="#63b8ff" d="M303.17,-541.84C313.53,-534.07 328.73,-522.67 341.09,-513.4"/>
<polygon fill="#63b8ff" stroke="#63b8ff" points="343.15,-516.23 349.05,-507.43 338.95,-510.63 343.15,-516.23"/>
</a>
</g>
</g>
</g>
</svg>

<g id="navigator" transform="translate(0 0)" fill="#404254">
  <rect fill="#f2f5e9" fill-opacity="0.5" stroke="#606060" stroke-width=".5" x="0" y="0" width="60" height="60"/>
  <use id="zoomplus" xlink:href="#zoomPlus" x="17" y="9" onmousedown="handleZoom(evt,'in')"/>
  <use id="zoomminus" xlink:href="#zoomMin" x="42" y="9" onmousedown="handleZoom(evt,'out')"/>
  <use id="reset" xlink:href="#resetDef" x="30" y="36" onmousedown="handleReset()"/>
   <use id="arrowup" xlink:href="#arrowUp" x="0" y="0" onmousedown="handlePan(0,-1)"/>
  <use id="arrowright" xlink:href="#arrowRight" x="0" y="0" onmousedown="handlePan(1,0)"/>
  <use id="arrowdown" xlink:href="#arrowDown" x="0" y="0" onmousedown="handlePan(0,1)"/>
  <use id="arrowleft" xlink:href="#arrowLeft" x="0" y="0" onmousedown="handlePan(-1,0)"/>
</g>
<svg viewBox="0 0 15 15" width="100%" height="30px" preserveAspectRatio="xMaxYMin meet">
 <g id="arrow_out" transform="scale(0.3 0.3)">
  <a xlink:href="euclid_8h__incl_org.svg" target="_base">
   <rect id="button" ry="5" rx="5" y="6" x="6" height="38" width="38"
        fill="#f2f5e9" fill-opacity="0.5" stroke="#606060" stroke-width="1.0"/>
   <path id="arrow"
     d="M 11.500037,31.436501 C 11.940474,20.09759 22.043105,11.32322 32.158766,21.979434 L 37.068811,17.246167 C 37.068811,17.246167 37.088388,32 37.088388,32 L 22.160133,31.978069 C 22.160133,31.978069 26.997745,27.140456 26.997745,27.140456 C 18.528582,18.264221 13.291696,25.230495 11.500037,31.436501 z"
     style="fill:#404040;"/>
  </a>
 </g>
</svg>

<style type='text/css'>
<![CDATA[
[data-mouse-over-selected='false'] { opacity: 0.7; }
[data-mouse-over-selected='true']  { opacity: 1.0; }
]]>
</style>
<script type="application/ecmascript"><![CDATA[
document.addEventListener('DOMContentLoaded', (event) => {
  highlightEdges();
  highlightAdjacentNodes();
});
]]></script>
</svg>
