<?xml version="1.0" encoding="UTF-8" standalone="no"?>
<!DOCTYPE svg PUBLIC "-//W3C//DTD SVG 1.1//EN"
 "http://www.w3.org/Graphics/SVG/1.1/DTD/svg11.dtd">
<!-- Generated by graphviz version 10.0.1 (0)
 -->
<!-- Title: euclid.h Pages: 1 -->
<svg width="1007pt" height="625pt"
 viewBox="0.00 0.00 1007.00 624.75" xmlns="http://www.w3.org/2000/svg" xmlns:xlink="http://www.w3.org/1999/xlink">
<g id="graph0" class="graph" transform="scale(1 1) rotate(0) translate(4 620.75)">
<title>euclid.h</title>
<!-- Node1 -->
<g id="Node000001" class="node">
<title>Node1</title>
<g id="a_Node000001"><a xlink:title="Small collection of classes and functions for geometric types with a focus on 2d graphics and layout.">
<polygon fill="#999999" stroke="#666666" points="576,-616.75 523.25,-616.75 523.25,-597.5 576,-597.5 576,-616.75"/>
<text text-anchor="middle" x="549.62" y="-602.3" font-family="Arial" font-size="11.00">euclid.h</text>
</a>
</g>
</g>
<!-- Node2 -->
<g id="Node000002" class="node">
<title>Node2</title>
<g id="a_Node000002"><a xlink:href="../../da/dac/angle_8h.html" target="_top" xlink:title="Newtype describing an angle.">
<polygon fill="white" stroke="#666666" points="607.38,-329.25 493.88,-329.25 493.88,-310 607.38,-310 607.38,-329.25"/>
<text text-anchor="middle" x="550.62" y="-314.8" font-family="Arial" font-size="11.00">floppy/euclid/angle.h</text>
</a>
</g>
</g>
<!-- Node1&#45;&gt;Node2 -->
<g id="edge1_Node000001_Node000002" class="edge">
<title>Node1&#45;&gt;Node2</title>
<g id="a_edge1_Node000001_Node000002"><a xlink:title=" ">
<path fill="none" stroke="#63b8ff" d="M542.54,-597.15C529.19,-579.29 501.62,-537.58 501.62,-497.62 501.62,-497.62 501.62,-497.62 501.62,-434.75 501.62,-402.73 507.29,-394.37 520.62,-365.25 524.84,-356.04 530.87,-346.63 536.42,-338.83"/>
<polygon fill="#63b8ff" stroke="#63b8ff" points="539.17,-341 542.34,-330.89 533.56,-336.81 539.17,-341"/>
</a>
</g>
</g>
<!-- Node28 -->
<g id="Node000028" class="node">
<title>Node28</title>
<g id="a_Node000028"><a xlink:href="../../dd/db9/length_8h.html" target="_top" xlink:title="A one&#45;dimensional distance with associated unit of measurement.">
<polygon fill="white" stroke="#666666" points="645.88,-384.5 529.38,-384.5 529.38,-365.25 645.88,-365.25 645.88,-384.5"/>
<text text-anchor="middle" x="587.62" y="-370.05" font-family="Arial" font-size="11.00">floppy/euclid/length.h</text>
</a>
</g>
</g>
<!-- Node1&#45;&gt;Node28 -->
<g id="edge33_Node000001_Node000028" class="edge">
<title>Node1&#45;&gt;Node28</title>
<g id="a_edge33_Node000001_Node000028"><a xlink:title=" ">
<path fill="none" stroke="#63b8ff" d="M551.11,-597.1C556.7,-563.28 576.45,-443.6 584.34,-395.8"/>
<polygon fill="#63b8ff" stroke="#63b8ff" points="587.76,-396.52 585.94,-386.08 580.86,-395.38 587.76,-396.52"/>
</a>
</g>
</g>
<!-- Node29 -->
<g id="Node000029" class="node">
<title>Node29</title>
<g id="a_Node000029"><a xlink:href="../../d8/d0c/scale_8h.html" target="_top" xlink:title="A scaling factor between two different units of measurement.">
<polygon fill="white" stroke="#666666" points="475.62,-329.25 363.62,-329.25 363.62,-310 475.62,-310 475.62,-329.25"/>
<text text-anchor="middle" x="419.62" y="-314.8" font-family="Arial" font-size="11.00">floppy/euclid/scale.h</text>
</a>
</g>
</g>
<!-- Node1&#45;&gt;Node29 -->
<g id="edge39_Node000001_Node000029" class="edge">
<title>Node1&#45;&gt;Node29</title>
<g id="a_edge39_Node000001_Node000029"><a xlink:title=" ">
<path fill="none" stroke="#63b8ff" d="M529.31,-597.06C498.03,-581.56 441.62,-546.79 441.62,-497.62 441.62,-497.62 441.62,-497.62 441.62,-434.75 441.62,-401.21 432.35,-363.11 425.84,-340.51"/>
<polygon fill="#63b8ff" stroke="#63b8ff" points="429.26,-339.7 423.03,-331.13 422.55,-341.72 429.26,-339.7"/>
</a>
</g>
</g>
<!-- Node30 -->
<g id="Node000030" class="node">
<title>Node30</title>
<g id="a_Node000030"><a xlink:href="../../dc/df8/size2d_8h.html" target="_top" xlink:title="A two&#45;dimensional size tagged with a unit.">
<polygon fill="white" stroke="#666666" points="851.62,-506.25 733.62,-506.25 733.62,-487 851.62,-487 851.62,-506.25"/>
<text text-anchor="middle" x="792.62" y="-491.8" font-family="Arial" font-size="11.00">floppy/euclid/size2d.h</text>
</a>
</g>
</g>
<!-- Node1&#45;&gt;Node30 -->
<g id="edge40_Node000001_Node000030" class="edge">
<title>Node1&#45;&gt;Node30</title>
<g id="a_edge40_Node000001_Node000030"><a xlink:title=" ">
<path fill="none" stroke="#63b8ff" d="M576.38,-602.65C610.5,-597.43 670.57,-585.48 716.62,-561.5 739.92,-549.37 762.41,-529.05 776.8,-514.59"/>
<polygon fill="#63b8ff" stroke="#63b8ff" points="779.16,-517.18 783.6,-507.55 774.13,-512.31 779.16,-517.18"/>
</a>
</g>
</g>
<!-- Node35 -->
<g id="Node000035" class="node">
<title>Node35</title>
<g id="a_Node000035"><a xlink:href="../../d4/d12/point2d_8h.html" target="_top" xlink:title="A two&#45;dimensional point tagged with a unit.">
<polygon fill="white" stroke="#666666" points="707.88,-561.5 585.38,-561.5 585.38,-542.25 707.88,-542.25 707.88,-561.5"/>
<text text-anchor="middle" x="646.62" y="-547.05" font-family="Arial" font-size="11.00">floppy/euclid/point2d.h</text>
</a>
</g>
</g>
<!-- Node1&#45;&gt;Node35 -->
<g id="edge50_Node000001_Node000035" class="edge">
<title>Node1&#45;&gt;Node35</title>
<g id="a_edge50_Node000001_Node000035"><a xlink:title=" ">
<path fill="none" stroke="#63b8ff" d="M566.08,-597.09C580.85,-588.98 602.8,-576.93 620.06,-567.46"/>
<polygon fill="#63b8ff" stroke="#63b8ff" points="621.68,-570.56 628.76,-562.68 618.31,-564.43 621.68,-570.56"/>
</a>
</g>
</g>
<!-- Node3 -->
<g id="Node000003" class="node">
<title>Node3</title>
<g id="a_Node000003"><a xlink:href="../../df/db1/math_8h_source.html" target="_top" xlink:title=" ">
<polygon fill="white" stroke="#666666" points="704.12,-207.5 595.12,-207.5 595.12,-188.25 704.12,-188.25 704.12,-207.5"/>
<text text-anchor="middle" x="649.62" y="-193.05" font-family="Arial" font-size="11.00">floppy/detail/math.h</text>
</a>
</g>
</g>
<!-- Node2&#45;&gt;Node3 -->
<g id="edge2_Node000002_Node000003" class="edge">
<title>Node2&#45;&gt;Node3</title>
<g id="a_edge2_Node000002_Node000003"><a xlink:title=" ">
<path fill="none" stroke="#63b8ff" d="M552.15,-309.84C555.14,-294.82 562.98,-263.84 579.62,-243.5 590.03,-230.79 605.04,-220.55 618.49,-213.11"/>
<polygon fill="#63b8ff" stroke="#63b8ff" points="619.78,-216.38 627.04,-208.66 616.55,-210.17 619.78,-216.38"/>
</a>
</g>
</g>
<!-- Node20 -->
<g id="Node000020" class="node">
<title>Node20</title>
<g id="a_Node000020"><a xlink:href="../../dd/dff/traits_8h_source.html" target="_top" xlink:title=" ">
<polygon fill="white" stroke="#666666" points="440.5,-207.5 360.75,-207.5 360.75,-188.25 440.5,-188.25 440.5,-207.5"/>
<text text-anchor="middle" x="400.62" y="-193.05" font-family="Arial" font-size="11.00">floppy/traits.h</text>
</a>
</g>
</g>
<!-- Node2&#45;&gt;Node20 -->
<g id="edge20_Node000002_Node000020" class="edge">
<title>Node2&#45;&gt;Node20</title>
<g id="a_edge20_Node000002_Node000020"><a xlink:title=" ">
<path fill="none" stroke="#63b8ff" d="M539.35,-309.62C514.16,-289.51 453,-240.69 420.97,-215.11"/>
<polygon fill="#63b8ff" stroke="#63b8ff" points="423.21,-212.43 413.21,-208.92 418.84,-217.9 423.21,-212.43"/>
</a>
</g>
</g>
<!-- Node27 -->
<g id="Node000027" class="node">
<title>Node27</title>
<g id="a_Node000027"><a xlink:href="../../de/de1/nt__traits_8h_source.html" target="_top" xlink:title=" ">
<polygon fill="white" stroke="#666666" points="692.5,-274 588.75,-274 588.75,-243.5 692.5,-243.5 692.5,-274"/>
<text text-anchor="start" x="596.75" y="-259.55" font-family="Arial" font-size="11.00">floppy/euclid/detail</text>
<text text-anchor="middle" x="640.62" y="-248.3" font-family="Arial" font-size="11.00">/nt_traits.h</text>
</a>
</g>
</g>
<!-- Node2&#45;&gt;Node27 -->
<g id="edge30_Node000002_Node000027" class="edge">
<title>Node2&#45;&gt;Node27</title>
<g id="a_edge30_Node000002_Node000027"><a xlink:title=" ">
<path fill="none" stroke="#63b8ff" d="M564.29,-309.68C576.07,-301.98 593.54,-290.55 608.79,-280.58"/>
<polygon fill="#63b8ff" stroke="#63b8ff" points="610.69,-283.51 617.14,-275.11 606.86,-277.66 610.69,-283.51"/>
</a>
</g>
</g>
<!-- Node4 -->
<g id="Node000004" class="node">
<title>Node4</title>
<g id="a_Node000004"><a xlink:title=" ">
<polygon fill="#e0e0e0" stroke="#999999" points="836.25,-146.62 791,-146.62 791,-127.38 836.25,-127.38 836.25,-146.62"/>
<text text-anchor="middle" x="813.62" y="-132.18" font-family="Arial" font-size="11.00">cmath</text>
</a>
</g>
</g>
<!-- Node3&#45;&gt;Node4 -->
<g id="edge3_Node000003_Node000004" class="edge">
<title>Node3&#45;&gt;Node4</title>
<g id="a_edge3_Node000003_Node000004"><a xlink:title=" ">
<path fill="none" stroke="#63b8ff" d="M679,-187.81C705.94,-179.29 746.81,-165.85 781.62,-152.25 782.26,-152 782.91,-151.75 783.55,-151.49"/>
<polygon fill="#63b8ff" stroke="#63b8ff" points="784.87,-154.73 792.72,-147.62 782.15,-148.28 784.87,-154.73"/>
</a>
</g>
</g>
<!-- Node5 -->
<g id="Node000005" class="node">
<title>Node5</title>
<g id="a_Node000005"><a xlink:title=" ">
<polygon fill="#e0e0e0" stroke="#999999" points="620.62,-146.62 580.62,-146.62 580.62,-127.38 620.62,-127.38 620.62,-146.62"/>
<text text-anchor="middle" x="600.62" y="-132.18" font-family="Arial" font-size="11.00">limits</text>
</a>
</g>
</g>
<!-- Node3&#45;&gt;Node5 -->
<g id="edge4_Node000003_Node000005" class="edge">
<title>Node3&#45;&gt;Node5</title>
<g id="a_edge4_Node000003_Node000005"><a xlink:title=" ">
<path fill="none" stroke="#63b8ff" d="M642.18,-187.93C635.06,-179.37 624.12,-166.23 615.25,-155.57"/>
<polygon fill="#63b8ff" stroke="#63b8ff" points="618.19,-153.64 609.11,-148.19 612.81,-158.11 618.19,-153.64"/>
</a>
</g>
</g>
<!-- Node6 -->
<g id="Node000006" class="node">
<title>Node6</title>
<g id="a_Node000006"><a xlink:title=" ">
<polygon fill="#e0e0e0" stroke="#999999" points="696.62,-146.62 638.62,-146.62 638.62,-127.38 696.62,-127.38 696.62,-146.62"/>
<text text-anchor="middle" x="667.62" y="-132.18" font-family="Arial" font-size="11.00">numbers</text>
</a>
</g>
</g>
<!-- Node3&#45;&gt;Node6 -->
<g id="edge5_Node000003_Node000006" class="edge">
<title>Node3&#45;&gt;Node6</title>
<g id="a_edge5_Node000003_Node000006"><a xlink:title=" ">
<path fill="none" stroke="#63b8ff" d="M652.36,-187.93C654.79,-179.98 658.43,-168.06 661.55,-157.87"/>
<polygon fill="#63b8ff" stroke="#63b8ff" points="664.85,-159.06 664.42,-148.47 658.15,-157.01 664.85,-159.06"/>
</a>
</g>
</g>
<!-- Node7 -->
<g id="Node000007" class="node">
<title>Node7</title>
<g id="a_Node000007"><a xlink:title=" ">
<polygon fill="#e0e0e0" stroke="#999999" points="772.62,-146.62 714.62,-146.62 714.62,-127.38 772.62,-127.38 772.62,-146.62"/>
<text text-anchor="middle" x="743.62" y="-132.18" font-family="Arial" font-size="11.00">compare</text>
</a>
</g>
</g>
<!-- Node3&#45;&gt;Node7 -->
<g id="edge6_Node000003_Node000007" class="edge">
<title>Node3&#45;&gt;Node7</title>
<g id="a_edge6_Node000003_Node000007"><a xlink:title=" ">
<path fill="none" stroke="#63b8ff" d="M663.9,-187.93C678.67,-178.68 702,-164.07 719.61,-153.04"/>
<polygon fill="#63b8ff" stroke="#63b8ff" points="721.31,-156.1 727.93,-147.83 717.6,-150.17 721.31,-156.1"/>
</a>
</g>
</g>
<!-- Node8 -->
<g id="Node000008" class="node">
<title>Node8</title>
<g id="a_Node000008"><a xlink:href="../../db/db5/export_8h_source.html" target="_top" xlink:title=" ">
<polygon fill="white" stroke="#666666" points="562.12,-146.62 447.12,-146.62 447.12,-127.38 562.12,-127.38 562.12,-146.62"/>
<text text-anchor="middle" x="504.62" y="-132.18" font-family="Arial" font-size="11.00">floppy/detail/export.h</text>
</a>
</g>
</g>
<!-- Node3&#45;&gt;Node8 -->
<g id="edge7_Node000003_Node000008" class="edge">
<title>Node3&#45;&gt;Node8</title>
<g id="a_edge7_Node000003_Node000008"><a xlink:title=" ">
<path fill="none" stroke="#63b8ff" d="M627.29,-187.8C603.27,-178.05 564.84,-162.45 537.4,-151.31"/>
<polygon fill="#63b8ff" stroke="#63b8ff" points="538.74,-148.07 528.15,-147.55 536.1,-154.56 538.74,-148.07"/>
</a>
</g>
</g>
<!-- Node11 -->
<g id="Node000011" class="node">
<title>Node11</title>
<g id="a_Node000011"><a xlink:href="../../d9/db1/concepts_8h_source.html" target="_top" xlink:title=" ">
<polygon fill="white" stroke="#666666" points="982.5,-146.62 854.75,-146.62 854.75,-127.38 982.5,-127.38 982.5,-146.62"/>
<text text-anchor="middle" x="918.62" y="-132.18" font-family="Arial" font-size="11.00">floppy/detail/concepts.h</text>
</a>
</g>
</g>
<!-- Node3&#45;&gt;Node11 -->
<g id="edge10_Node000003_Node000011" class="edge">
<title>Node3&#45;&gt;Node11</title>
<g id="a_edge10_Node000003_Node000011"><a xlink:title=" ">
<path fill="none" stroke="#63b8ff" d="M691.07,-187.8C738.06,-177.52 814.79,-160.73 865.98,-149.52"/>
<polygon fill="#63b8ff" stroke="#63b8ff" points="866.64,-152.96 875.66,-147.4 865.14,-146.12 866.64,-152.96"/>
</a>
</g>
</g>
<!-- Node9 -->
<g id="Node000009" class="node">
<title>Node9</title>
<g id="a_Node000009"><a xlink:title=" ">
<polygon fill="#e0e0e0" stroke="#999999" points="525.75,-80.12 483.5,-80.12 483.5,-60.88 525.75,-60.88 525.75,-80.12"/>
<text text-anchor="middle" x="504.62" y="-65.67" font-family="Arial" font-size="11.00">string</text>
</a>
</g>
</g>
<!-- Node8&#45;&gt;Node9 -->
<g id="edge8_Node000008_Node000009" class="edge">
<title>Node8&#45;&gt;Node9</title>
<g id="a_edge8_Node000008_Node000009"><a xlink:title=" ">
<path fill="none" stroke="#63b8ff" d="M504.62,-127.03C504.62,-117.98 504.62,-103.7 504.62,-91.88"/>
<polygon fill="#63b8ff" stroke="#63b8ff" points="508.13,-91.91 504.63,-81.91 501.13,-91.91 508.13,-91.91"/>
</a>
</g>
</g>
<!-- Node10 -->
<g id="Node000010" class="node">
<title>Node10</title>
<g id="a_Node000010"><a xlink:title=" ">
<polygon fill="#e0e0e0" stroke="#999999" points="425.62,-80.12 355.62,-80.12 355.62,-60.88 425.62,-60.88 425.62,-80.12"/>
<text text-anchor="middle" x="390.62" y="-65.67" font-family="Arial" font-size="11.00">string_view</text>
</a>
</g>
</g>
<!-- Node8&#45;&gt;Node10 -->
<g id="edge9_Node000008_Node000010" class="edge">
<title>Node8&#45;&gt;Node10</title>
<g id="a_edge9_Node000008_Node000010"><a xlink:title=" ">
<path fill="none" stroke="#63b8ff" d="M488.77,-127.03C470.08,-116.45 438.73,-98.72 416.5,-86.14"/>
<polygon fill="#63b8ff" stroke="#63b8ff" points="418.45,-83.22 408.03,-81.35 415.01,-89.32 418.45,-83.22"/>
</a>
</g>
</g>
<!-- Node12 -->
<g id="Node000012" class="node">
<title>Node12</title>
<g id="a_Node000012"><a xlink:title=" ">
<polygon fill="#e0e0e0" stroke="#999999" points="999,-80.12 940.25,-80.12 940.25,-60.88 999,-60.88 999,-80.12"/>
<text text-anchor="middle" x="969.62" y="-65.67" font-family="Arial" font-size="11.00">concepts</text>
</a>
</g>
</g>
<!-- Node11&#45;&gt;Node12 -->
<g id="edge11_Node000011_Node000012" class="edge">
<title>Node11&#45;&gt;Node12</title>
<g id="a_edge11_Node000011_Node000012"><a xlink:title=" ">
<path fill="none" stroke="#63b8ff" d="M925.72,-127.03C933.4,-117.31 945.87,-101.54 955.56,-89.28"/>
<polygon fill="#63b8ff" stroke="#63b8ff" points="958.2,-91.59 961.66,-81.58 952.71,-87.25 958.2,-91.59"/>
</a>
</g>
</g>
<!-- Node13 -->
<g id="Node000013" class="node">
<title>Node13</title>
<g id="a_Node000013"><a xlink:href="../../df/d63/type__traits_8h_source.html" target="_top" xlink:title=" ">
<polygon fill="white" stroke="#666666" points="793.75,-85.75 697.5,-85.75 697.5,-55.25 793.75,-55.25 793.75,-85.75"/>
<text text-anchor="start" x="705.5" y="-71.3" font-family="Arial" font-size="11.00">floppy/detail/type</text>
<text text-anchor="middle" x="745.62" y="-60.05" font-family="Arial" font-size="11.00">_traits.h</text>
</a>
</g>
</g>
<!-- Node11&#45;&gt;Node13 -->
<g id="edge12_Node000011_Node000013" class="edge">
<title>Node11&#45;&gt;Node13</title>
<g id="a_edge12_Node000011_Node000013"><a xlink:title=" ">
<path fill="none" stroke="#63b8ff" d="M894.21,-126.9C868.68,-117.38 827.92,-102.18 795.54,-90.11"/>
<polygon fill="#63b8ff" stroke="#63b8ff" points="796.93,-86.89 786.33,-86.68 794.48,-93.45 796.93,-86.89"/>
</a>
</g>
</g>
<!-- Node15 -->
<g id="Node000015" class="node">
<title>Node15</title>
<g id="a_Node000015"><a xlink:href="../../d9/d49/types_8h_source.html" target="_top" xlink:title=" ">
<polygon fill="white" stroke="#666666" points="921.88,-80.12 811.38,-80.12 811.38,-60.88 921.88,-60.88 921.88,-80.12"/>
<text text-anchor="middle" x="866.62" y="-65.67" font-family="Arial" font-size="11.00">floppy/detail/types.h</text>
</a>
</g>
</g>
<!-- Node11&#45;&gt;Node15 -->
<g id="edge14_Node000011_Node000015" class="edge">
<title>Node11&#45;&gt;Node15</title>
<g id="a_edge14_Node000011_Node000015"><a xlink:title=" ">
<path fill="none" stroke="#63b8ff" d="M911.39,-127.03C903.56,-117.31 890.84,-101.54 880.96,-89.28"/>
<polygon fill="#63b8ff" stroke="#63b8ff" points="883.75,-87.16 874.74,-81.57 878.3,-91.55 883.75,-87.16"/>
</a>
</g>
</g>
<!-- Node14 -->
<g id="Node000014" class="node">
<title>Node14</title>
<g id="a_Node000014"><a xlink:title=" ">
<polygon fill="#e0e0e0" stroke="#999999" points="778.38,-19.25 712.88,-19.25 712.88,0 778.38,0 778.38,-19.25"/>
<text text-anchor="middle" x="745.62" y="-4.8" font-family="Arial" font-size="11.00">type_traits</text>
</a>
</g>
</g>
<!-- Node13&#45;&gt;Node14 -->
<g id="edge13_Node000013_Node000014" class="edge">
<title>Node13&#45;&gt;Node14</title>
<g id="a_edge13_Node000013_Node000014"><a xlink:title=" ">
<path fill="none" stroke="#63b8ff" d="M745.62,-54.95C745.62,-47.71 745.62,-38.84 745.62,-30.94"/>
<polygon fill="#63b8ff" stroke="#63b8ff" points="749.13,-31.21 745.63,-21.21 742.13,-31.21 749.13,-31.21"/>
</a>
</g>
</g>
<!-- Node15&#45;&gt;Node14 -->
<g id="edge18_Node000015_Node000014" class="edge">
<title>Node15&#45;&gt;Node14</title>
<g id="a_edge18_Node000015_Node000014"><a xlink:title=" ">
<path fill="none" stroke="#63b8ff" d="M847.98,-60.43C828.3,-50.85 797.01,-35.63 774.21,-24.53"/>
<polygon fill="#63b8ff" stroke="#63b8ff" points="775.97,-21.5 765.45,-20.27 772.91,-27.79 775.97,-21.5"/>
</a>
</g>
</g>
<!-- Node16 -->
<g id="Node000016" class="node">
<title>Node16</title>
<g id="a_Node000016"><a xlink:title=" ">
<polygon fill="#e0e0e0" stroke="#999999" points="846.88,-19.25 796.38,-19.25 796.38,0 846.88,0 846.88,-19.25"/>
<text text-anchor="middle" x="821.62" y="-4.8" font-family="Arial" font-size="11.00">cstddef</text>
</a>
</g>
</g>
<!-- Node15&#45;&gt;Node16 -->
<g id="edge15_Node000015_Node000016" class="edge">
<title>Node15&#45;&gt;Node16</title>
<g id="a_edge15_Node000015_Node000016"><a xlink:title=" ">
<path fill="none" stroke="#63b8ff" d="M859.79,-60.56C853.31,-52.09 843.4,-39.12 835.3,-28.52"/>
<polygon fill="#63b8ff" stroke="#63b8ff" points="838.3,-26.67 829.44,-20.85 832.73,-30.92 838.3,-26.67"/>
</a>
</g>
</g>
<!-- Node17 -->
<g id="Node000017" class="node">
<title>Node17</title>
<g id="a_Node000017"><a xlink:title=" ">
<polygon fill="#e0e0e0" stroke="#999999" points="912,-19.25 865.25,-19.25 865.25,0 912,0 912,-19.25"/>
<text text-anchor="middle" x="888.62" y="-4.8" font-family="Arial" font-size="11.00">cstdint</text>
</a>
</g>
</g>
<!-- Node15&#45;&gt;Node17 -->
<g id="edge16_Node000015_Node000017" class="edge">
<title>Node15&#45;&gt;Node17</title>
<g id="a_edge16_Node000015_Node000017"><a xlink:title=" ">
<path fill="none" stroke="#63b8ff" d="M869.97,-60.56C872.97,-52.52 877.49,-40.43 881.33,-30.16"/>
<polygon fill="#63b8ff" stroke="#63b8ff" points="884.5,-31.66 884.72,-21.07 877.94,-29.21 884.5,-31.66"/>
</a>
</g>
</g>
<!-- Node18 -->
<g id="Node000018" class="node">
<title>Node18</title>
<g id="a_Node000018"><a xlink:title=" ">
<polygon fill="#e0e0e0" stroke="#999999" points="983.38,-19.25 929.88,-19.25 929.88,0 983.38,0 983.38,-19.25"/>
<text text-anchor="middle" x="956.62" y="-4.8" font-family="Arial" font-size="11.00">optional</text>
</a>
</g>
</g>
<!-- Node15&#45;&gt;Node18 -->
<g id="edge17_Node000015_Node000018" class="edge">
<title>Node15&#45;&gt;Node18</title>
<g id="a_edge17_Node000015_Node000018"><a xlink:title=" ">
<path fill="none" stroke="#63b8ff" d="M880.29,-60.56C894.43,-51.31 916.77,-36.7 933.63,-25.67"/>
<polygon fill="#63b8ff" stroke="#63b8ff" points="935.11,-28.88 941.56,-20.48 931.28,-23.03 935.11,-28.88"/>
</a>
</g>
</g>
<!-- Node19 -->
<g id="Node000019" class="node">
<title>Node19</title>
<g id="a_Node000019"><a xlink:title=" ">
<polygon fill="#e0e0e0" stroke="#999999" points="498.5,-19.25 424.75,-19.25 424.75,0 498.5,0 498.5,-19.25"/>
<text text-anchor="middle" x="461.62" y="-4.8" font-family="Arial" font-size="11.00">fmt/format.h</text>
</a>
</g>
</g>
<!-- Node15&#45;&gt;Node19 -->
<g id="edge19_Node000015_Node000019" class="edge">
<title>Node15&#45;&gt;Node19</title>
<g id="a_edge19_Node000015_Node000019"><a xlink:title=" ">
<path fill="none" stroke="#63b8ff" d="M828.49,-60.43C820.01,-58.57 811.03,-56.73 802.62,-55.25 699.04,-36.98 576.53,-22.72 510.2,-15.61"/>
<polygon fill="#63b8ff" stroke="#63b8ff" points="510.7,-12.14 500.38,-14.56 509.96,-19.1 510.7,-12.14"/>
</a>
</g>
</g>
<!-- Node20&#45;&gt;Node8 -->
<g id="edge24_Node000020_Node000008" class="edge">
<title>Node20&#45;&gt;Node8</title>
<g id="a_edge24_Node000020_Node000008"><a xlink:title=" ">
<path fill="none" stroke="#63b8ff" d="M416.42,-187.93C432.99,-178.55 459.3,-163.66 478.87,-152.58"/>
<polygon fill="#63b8ff" stroke="#63b8ff" points="480.39,-155.74 487.36,-147.77 476.94,-149.65 480.39,-155.74"/>
</a>
</g>
</g>
<!-- Node21 -->
<g id="Node000021" class="node">
<title>Node21</title>
<g id="a_Node000021"><a xlink:title=" ">
<polygon fill="#e0e0e0" stroke="#999999" points="354.12,-146.62 299.12,-146.62 299.12,-127.38 354.12,-127.38 354.12,-146.62"/>
<text text-anchor="middle" x="326.62" y="-132.18" font-family="Arial" font-size="11.00">memory</text>
</a>
</g>
</g>
<!-- Node20&#45;&gt;Node21 -->
<g id="edge21_Node000020_Node000021" class="edge">
<title>Node20&#45;&gt;Node21</title>
<g id="a_edge21_Node000020_Node000021"><a xlink:title=" ">
<path fill="none" stroke="#63b8ff" d="M389.39,-187.93C378.09,-178.94 360.42,-164.89 346.71,-153.98"/>
<polygon fill="#63b8ff" stroke="#63b8ff" points="349.16,-151.46 339.15,-147.97 344.8,-156.93 349.16,-151.46"/>
</a>
</g>
</g>
<!-- Node22 -->
<g id="Node000022" class="node">
<title>Node22</title>
<g id="a_Node000022"><a xlink:title=" ">
<polygon fill="#e0e0e0" stroke="#999999" points="429.25,-146.62 372,-146.62 372,-127.38 429.25,-127.38 429.25,-146.62"/>
<text text-anchor="middle" x="400.62" y="-132.18" font-family="Arial" font-size="11.00">iostream</text>
</a>
</g>
</g>
<!-- Node20&#45;&gt;Node22 -->
<g id="edge22_Node000020_Node000022" class="edge">
<title>Node20&#45;&gt;Node22</title>
<g id="a_edge22_Node000020_Node000022"><a xlink:title=" ">
<path fill="none" stroke="#63b8ff" d="M400.62,-187.93C400.62,-180.15 400.62,-168.58 400.62,-158.53"/>
<polygon fill="#63b8ff" stroke="#63b8ff" points="404.13,-158.54 400.63,-148.54 397.13,-158.54 404.13,-158.54"/>
</a>
</g>
</g>
<!-- Node23 -->
<g id="Node000023" class="node">
<title>Node23</title>
<g id="a_Node000023"><a xlink:title=" ">
<polygon fill="#e0e0e0" stroke="#999999" points="129.25,-152.25 0,-152.25 0,-121.75 129.25,-121.75 129.25,-152.25"/>
<text text-anchor="start" x="8" y="-137.8" font-family="Arial" font-size="11.00">experimental/propagate</text>
<text text-anchor="middle" x="64.62" y="-126.55" font-family="Arial" font-size="11.00">_const</text>
</a>
</g>
</g>
<!-- Node20&#45;&gt;Node23 -->
<g id="edge23_Node000020_Node000023" class="edge">
<title>Node20&#45;&gt;Node23</title>
<g id="a_edge23_Node000020_Node000023"><a xlink:title=" ">
<path fill="none" stroke="#63b8ff" d="M360.63,-190.34C311.41,-182.23 225,-167.81 140.89,-152.64"/>
<polygon fill="#63b8ff" stroke="#63b8ff" points="141.54,-149.2 131.07,-150.86 140.29,-156.09 141.54,-149.2"/>
</a>
</g>
</g>
<!-- Node24 -->
<g id="Node000024" class="node">
<title>Node24</title>
<g id="a_Node000024"><a xlink:href="../../d6/d45/formatters_8h_source.html" target="_top" xlink:title=" ">
<polygon fill="white" stroke="#666666" points="281.5,-146.62 147.75,-146.62 147.75,-127.38 281.5,-127.38 281.5,-146.62"/>
<text text-anchor="middle" x="214.62" y="-132.18" font-family="Arial" font-size="11.00">floppy/detail/formatters.h</text>
</a>
</g>
</g>
<!-- Node20&#45;&gt;Node24 -->
<g id="edge25_Node000020_Node000024" class="edge">
<title>Node20&#45;&gt;Node24</title>
<g id="a_edge25_Node000020_Node000024"><a xlink:title=" ">
<path fill="none" stroke="#63b8ff" d="M371.97,-187.8C340.43,-177.82 289.53,-161.71 254.19,-150.52"/>
<polygon fill="#63b8ff" stroke="#63b8ff" points="255.35,-147.22 244.76,-147.54 253.23,-153.89 255.35,-147.22"/>
</a>
</g>
</g>
<!-- Node24&#45;&gt;Node10 -->
<g id="edge26_Node000024_Node000010" class="edge">
<title>Node24&#45;&gt;Node10</title>
<g id="a_edge26_Node000024_Node000010"><a xlink:title=" ">
<path fill="none" stroke="#63b8ff" d="M239.47,-126.9C269.74,-115.8 321.07,-96.99 355.41,-84.41"/>
<polygon fill="#63b8ff" stroke="#63b8ff" points="356.3,-87.81 364.49,-81.08 353.89,-81.23 356.3,-87.81"/>
</a>
</g>
</g>
<!-- Node24&#45;&gt;Node19 -->
<g id="edge29_Node000024_Node000019" class="edge">
<title>Node24&#45;&gt;Node19</title>
<g id="a_edge29_Node000024_Node000019"><a xlink:title=" ">
<path fill="none" stroke="#63b8ff" d="M216.26,-127.11C219.83,-110.28 230,-73.82 253.62,-55.25 277.97,-36.11 359.68,-22.9 413.14,-16.06"/>
<polygon fill="#63b8ff" stroke="#63b8ff" points="413.43,-19.55 422.92,-14.84 412.57,-12.61 413.43,-19.55"/>
</a>
</g>
</g>
<!-- Node25 -->
<g id="Node000025" class="node">
<title>Node25</title>
<g id="a_Node000025"><a xlink:title=" ">
<polygon fill="#e0e0e0" stroke="#999999" points="316.75,-80.12 262.5,-80.12 262.5,-60.88 316.75,-60.88 316.75,-80.12"/>
<text text-anchor="middle" x="289.62" y="-65.67" font-family="Arial" font-size="11.00">sstream</text>
</a>
</g>
</g>
<!-- Node24&#45;&gt;Node25 -->
<g id="edge27_Node000024_Node000025" class="edge">
<title>Node24&#45;&gt;Node25</title>
<g id="a_edge27_Node000024_Node000025"><a xlink:title=" ">
<path fill="none" stroke="#63b8ff" d="M225.05,-127.03C236.81,-116.92 256.16,-100.28 270.62,-87.85"/>
<polygon fill="#63b8ff" stroke="#63b8ff" points="272.84,-90.55 278.14,-81.38 268.27,-85.25 272.84,-90.55"/>
</a>
</g>
</g>
<!-- Node26 -->
<g id="Node000026" class="node">
<title>Node26</title>
<g id="a_Node000026"><a xlink:title=" ">
<polygon fill="#e0e0e0" stroke="#999999" points="207,-80.12 160.25,-80.12 160.25,-60.88 207,-60.88 207,-80.12"/>
<text text-anchor="middle" x="183.62" y="-65.67" font-family="Arial" font-size="11.00">iosfwd</text>
</a>
</g>
</g>
<!-- Node24&#45;&gt;Node26 -->
<g id="edge28_Node000024_Node000026" class="edge">
<title>Node24&#45;&gt;Node26</title>
<g id="a_edge28_Node000024_Node000026"><a xlink:title=" ">
<path fill="none" stroke="#63b8ff" d="M210.31,-127.03C205.83,-117.69 198.66,-102.78 192.88,-90.76"/>
<polygon fill="#63b8ff" stroke="#63b8ff" points="196.04,-89.25 188.55,-81.76 189.73,-92.29 196.04,-89.25"/>
</a>
</g>
</g>
<!-- Node27&#45;&gt;Node3 -->
<g id="edge31_Node000027_Node000003" class="edge">
<title>Node27&#45;&gt;Node3</title>
<g id="a_edge31_Node000027_Node000003"><a xlink:title=" ">
<path fill="none" stroke="#63b8ff" d="M642.85,-243.2C643.96,-235.96 645.31,-227.09 646.52,-219.19"/>
<polygon fill="#63b8ff" stroke="#63b8ff" points="649.96,-219.86 648.01,-209.45 643.04,-218.8 649.96,-219.86"/>
</a>
</g>
</g>
<!-- Node27&#45;&gt;Node11 -->
<g id="edge32_Node000027_Node000011" class="edge">
<title>Node27&#45;&gt;Node11</title>
<g id="a_edge32_Node000027_Node000011"><a xlink:title=" ">
<path fill="none" stroke="#63b8ff" d="M674.71,-243.07C729.13,-219.63 834.83,-174.1 887.39,-151.46"/>
<polygon fill="#63b8ff" stroke="#63b8ff" points="888.57,-154.76 896.37,-147.59 885.8,-148.33 888.57,-154.76"/>
</a>
</g>
</g>
<!-- Node28&#45;&gt;Node27 -->
<g id="edge38_Node000028_Node000027" class="edge">
<title>Node28&#45;&gt;Node27</title>
<g id="a_edge38_Node000028_Node000027"><a xlink:title=" ">
<path fill="none" stroke="#63b8ff" d="M594.3,-365.03C600.67,-356.29 610.22,-342.37 616.62,-329.25 623.52,-315.14 629.32,-298.55 633.5,-285.12"/>
<polygon fill="#63b8ff" stroke="#63b8ff" points="636.8,-286.3 636.3,-275.72 630.09,-284.3 636.8,-286.3"/>
</a>
</g>
</g>
<!-- Node28&#45;&gt;Node29 -->
<g id="edge34_Node000028_Node000029" class="edge">
<title>Node28&#45;&gt;Node29</title>
<g id="a_edge34_Node000028_Node000029"><a xlink:title=" ">
<path fill="none" stroke="#63b8ff" d="M559.13,-364.84C531.61,-356.12 489.72,-342.84 459.02,-333.11"/>
<polygon fill="#63b8ff" stroke="#63b8ff" points="460.3,-329.84 449.71,-330.16 458.18,-336.52 460.3,-329.84"/>
</a>
</g>
</g>
<!-- Node29&#45;&gt;Node3 -->
<g id="edge35_Node000029_Node000003" class="edge">
<title>Node29&#45;&gt;Node3</title>
<g id="a_edge35_Node000029_Node000003"><a xlink:title=" ">
<path fill="none" stroke="#63b8ff" d="M435.78,-309.63C461.58,-295.31 513.76,-266.62 558.62,-243.5 579.19,-232.91 602.63,-221.43 620.57,-212.76"/>
<polygon fill="#63b8ff" stroke="#63b8ff" points="621.84,-216.04 629.33,-208.55 618.8,-209.73 621.84,-216.04"/>
</a>
</g>
</g>
<!-- Node29&#45;&gt;Node20 -->
<g id="edge36_Node000029_Node000020" class="edge">
<title>Node29&#45;&gt;Node20</title>
<g id="a_edge36_Node000029_Node000020"><a xlink:title=" ">
<path fill="none" stroke="#63b8ff" d="M418.2,-309.62C415.17,-290.55 408.05,-245.66 403.86,-219.26"/>
<polygon fill="#63b8ff" stroke="#63b8ff" points="407.33,-218.8 402.31,-209.48 400.42,-219.9 407.33,-218.8"/>
</a>
</g>
</g>
<!-- Node29&#45;&gt;Node27 -->
<g id="edge37_Node000029_Node000027" class="edge">
<title>Node29&#45;&gt;Node27</title>
<g id="a_edge37_Node000029_Node000027"><a xlink:title=" ">
<path fill="none" stroke="#63b8ff" d="M453.67,-309.55C486.54,-300.8 537.12,-287.33 577.38,-276.6"/>
<polygon fill="#63b8ff" stroke="#63b8ff" points="578.21,-280 586.97,-274.04 576.41,-273.24 578.21,-280"/>
</a>
</g>
</g>
<!-- Node30&#45;&gt;Node3 -->
<g id="edge41_Node000030_Node000003" class="edge">
<title>Node30&#45;&gt;Node3</title>
<g id="a_edge41_Node000030_Node000003"><a xlink:title=" ">
<path fill="none" stroke="#63b8ff" d="M806.75,-486.67C832.77,-468.94 885.62,-426.68 885.62,-375.88 885.62,-375.88 885.62,-375.88 885.62,-318.62 885.62,-242.03 785.53,-214.41 715.72,-204.46"/>
<polygon fill="#63b8ff" stroke="#63b8ff" points="716.23,-201 705.86,-203.16 715.32,-207.94 716.23,-201"/>
</a>
</g>
</g>
<!-- Node30&#45;&gt;Node11 -->
<g id="edge42_Node000030_Node000011" class="edge">
<title>Node30&#45;&gt;Node11</title>
<g id="a_edge42_Node000030_Node000011"><a xlink:title=" ">
<path fill="none" stroke="#63b8ff" d="M816.65,-486.52C854.47,-470.43 923.62,-433.19 923.62,-375.88 923.62,-375.88 923.62,-375.88 923.62,-257.75 923.62,-222.81 921.47,-182.19 919.99,-158.37"/>
<polygon fill="#63b8ff" stroke="#63b8ff" points="923.49,-158.27 919.36,-148.52 916.51,-158.72 923.49,-158.27"/>
</a>
</g>
</g>
<!-- Node30&#45;&gt;Node28 -->
<g id="edge43_Node000030_Node000028" class="edge">
<title>Node30&#45;&gt;Node28</title>
<g id="a_edge43_Node000030_Node000028"><a xlink:title=" ">
<path fill="none" stroke="#63b8ff" d="M749.33,-486.51C722.4,-479.54 687.84,-468.17 660.62,-451 636.2,-435.59 613.98,-410.38 600.63,-393.47"/>
<polygon fill="#63b8ff" stroke="#63b8ff" points="603.63,-391.62 594.77,-385.81 598.07,-395.87 603.63,-391.62"/>
</a>
</g>
</g>
<!-- Node31 -->
<g id="Node000031" class="node">
<title>Node31</title>
<g id="a_Node000031"><a xlink:href="../../da/d53/nt__traits2d_8h_source.html" target="_top" xlink:title=" ">
<polygon fill="white" stroke="#666666" points="773.5,-451 669.75,-451 669.75,-420.5 773.5,-420.5 773.5,-451"/>
<text text-anchor="start" x="677.75" y="-436.55" font-family="Arial" font-size="11.00">floppy/euclid/detail</text>
<text text-anchor="middle" x="721.62" y="-425.3" font-family="Arial" font-size="11.00">/nt_traits2d.h</text>
</a>
</g>
</g>
<!-- Node30&#45;&gt;Node31 -->
<g id="edge44_Node000030_Node000031" class="edge">
<title>Node30&#45;&gt;Node31</title>
<g id="a_edge44_Node000030_Node000031"><a xlink:title=" ">
<path fill="none" stroke="#63b8ff" d="M781.84,-486.68C772.81,-479.2 759.56,-468.2 747.78,-458.43"/>
<polygon fill="#63b8ff" stroke="#63b8ff" points="750.25,-455.94 740.32,-452.25 745.78,-461.33 750.25,-455.94"/>
</a>
</g>
</g>
<!-- Node31&#45;&gt;Node27 -->
<g id="edge49_Node000031_Node000027" class="edge">
<title>Node31&#45;&gt;Node27</title>
<g id="a_edge49_Node000031_Node000027"><a xlink:title=" ">
<path fill="none" stroke="#63b8ff" d="M712.48,-420.07C706.5,-410.19 698.7,-396.78 692.62,-384.5 675.94,-350.76 659.75,-310.31 649.98,-284.82"/>
<polygon fill="#63b8ff" stroke="#63b8ff" points="653.32,-283.76 646.5,-275.65 646.78,-286.24 653.32,-283.76"/>
</a>
</g>
</g>
<!-- Node31&#45;&gt;Node28 -->
<g id="edge48_Node000031_Node000028" class="edge">
<title>Node31&#45;&gt;Node28</title>
<g id="a_edge48_Node000031_Node000028"><a xlink:title=" ">
<path fill="none" stroke="#63b8ff" d="M688.16,-420.05C666.87,-410.69 639.49,-398.66 618.68,-389.52"/>
<polygon fill="#63b8ff" stroke="#63b8ff" points="620.12,-386.33 609.56,-385.51 617.31,-392.74 620.12,-386.33"/>
</a>
</g>
</g>
<!-- Node32 -->
<g id="Node000032" class="node">
<title>Node32</title>
<g id="a_Node000032"><a xlink:title=" ">
<polygon fill="#e0e0e0" stroke="#999999" points="742,-384.5 701.25,-384.5 701.25,-365.25 742,-365.25 742,-384.5"/>
<text text-anchor="middle" x="721.62" y="-370.05" font-family="Arial" font-size="11.00">array</text>
</a>
</g>
</g>
<!-- Node31&#45;&gt;Node32 -->
<g id="edge45_Node000031_Node000032" class="edge">
<title>Node31&#45;&gt;Node32</title>
<g id="a_edge45_Node000031_Node000032"><a xlink:title=" ">
<path fill="none" stroke="#63b8ff" d="M721.62,-420.2C721.62,-412.96 721.62,-404.09 721.62,-396.19"/>
<polygon fill="#63b8ff" stroke="#63b8ff" points="725.13,-396.46 721.63,-386.46 718.13,-396.46 725.13,-396.46"/>
</a>
</g>
</g>
<!-- Node33 -->
<g id="Node000033" class="node">
<title>Node33</title>
<g id="a_Node000033"><a xlink:title=" ">
<polygon fill="#e0e0e0" stroke="#999999" points="799.25,-384.5 760,-384.5 760,-365.25 799.25,-365.25 799.25,-384.5"/>
<text text-anchor="middle" x="779.62" y="-370.05" font-family="Arial" font-size="11.00">tuple</text>
</a>
</g>
</g>
<!-- Node31&#45;&gt;Node33 -->
<g id="edge46_Node000031_Node000033" class="edge">
<title>Node31&#45;&gt;Node33</title>
<g id="a_edge46_Node000031_Node000033"><a xlink:title=" ">
<path fill="none" stroke="#63b8ff" d="M735.96,-420.2C744.03,-412.01 754.15,-401.73 762.62,-393.14"/>
<polygon fill="#63b8ff" stroke="#63b8ff" points="765.1,-395.61 769.62,-386.03 760.11,-390.7 765.1,-395.61"/>
</a>
</g>
</g>
<!-- Node34 -->
<g id="Node000034" class="node">
<title>Node34</title>
<g id="a_Node000034"><a xlink:title=" ">
<polygon fill="#e0e0e0" stroke="#999999" points="857.62,-384.5 817.62,-384.5 817.62,-365.25 857.62,-365.25 857.62,-384.5"/>
<text text-anchor="middle" x="837.62" y="-370.05" font-family="Arial" font-size="11.00">utility</text>
</a>
</g>
</g>
<!-- Node31&#45;&gt;Node34 -->
<g id="edge47_Node000031_Node000034" class="edge">
<title>Node31&#45;&gt;Node34</title>
<g id="a_edge47_Node000031_Node000034"><a xlink:title=" ">
<path fill="none" stroke="#63b8ff" d="M750.6,-420.05C768.69,-410.86 791.85,-399.11 809.74,-390.03"/>
<polygon fill="#63b8ff" stroke="#63b8ff" points="811.15,-393.24 818.49,-385.59 807.98,-386.99 811.15,-393.24"/>
</a>
</g>
</g>
<!-- Node35&#45;&gt;Node28 -->
<g id="edge52_Node000035_Node000028" class="edge">
<title>Node35&#45;&gt;Node28</title>
<g id="a_edge52_Node000035_Node000028"><a xlink:title=" ">
<path fill="none" stroke="#63b8ff" d="M635.5,-541.86C626.17,-533.62 613.33,-520.57 606.62,-506.25 589.71,-470.11 587.03,-422.68 587.03,-396.13"/>
<polygon fill="#63b8ff" stroke="#63b8ff" points="590.53,-396.48 587.18,-386.43 583.53,-396.38 590.53,-396.48"/>
</a>
</g>
</g>
<!-- Node35&#45;&gt;Node30 -->
<g id="edge53_Node000035_Node000030" class="edge">
<title>Node35&#45;&gt;Node30</title>
<g id="a_edge53_Node000035_Node000030"><a xlink:title=" ">
<path fill="none" stroke="#63b8ff" d="M671.39,-541.84C694.88,-533.27 730.44,-520.31 756.98,-510.63"/>
<polygon fill="#63b8ff" stroke="#63b8ff" points="758.12,-513.94 766.31,-507.22 755.72,-507.36 758.12,-513.94"/>
</a>
</g>
</g>
<!-- Node35&#45;&gt;Node31 -->
<g id="edge54_Node000035_Node000031" class="edge">
<title>Node35&#45;&gt;Node31</title>
<g id="a_edge54_Node000035_Node000031"><a xlink:title=" ">
<path fill="none" stroke="#63b8ff" d="M655.98,-541.9C664.63,-533.3 677.48,-519.66 686.62,-506.25 696.18,-492.25 704.77,-475.28 711.06,-461.61"/>
<polygon fill="#63b8ff" stroke="#63b8ff" points="714.08,-463.42 714.96,-452.86 707.69,-460.57 714.08,-463.42"/>
</a>
</g>
</g>
<!-- Node36 -->
<g id="Node000036" class="node">
<title>Node36</title>
<g id="a_Node000036"><a xlink:title=" ">
<polygon fill="#e0e0e0" stroke="#999999" points="677.5,-506.25 615.75,-506.25 615.75,-487 677.5,-487 677.5,-506.25"/>
<text text-anchor="middle" x="646.62" y="-491.8" font-family="Arial" font-size="11.00">functional</text>
</a>
</g>
</g>
<!-- Node35&#45;&gt;Node36 -->
<g id="edge51_Node000035_Node000036" class="edge">
<title>Node35&#45;&gt;Node36</title>
<g id="a_edge51_Node000035_Node000036"><a xlink:title=" ">
<path fill="none" stroke="#63b8ff" d="M646.62,-542.08C646.62,-535.57 646.62,-526.42 646.62,-518.12"/>
<polygon fill="#63b8ff" stroke="#63b8ff" points="650.13,-518.12 646.63,-508.12 643.13,-518.12 650.13,-518.12"/>
</a>
</g>
</g>
</g>
</svg>
