<?xml version="1.0" encoding="UTF-8" standalone="no"?>
<!DOCTYPE svg PUBLIC "-//W3C//DTD SVG 1.1//EN"
 "http://www.w3.org/Graphics/SVG/1.1/DTD/svg11.dtd">
<!-- Generated by graphviz version 10.0.1 (0)
 -->
<!-- Title: euclid.h Pages: 1 -->
<!--zoomable 680 -->

<svg id="main" version="1.1" xmlns="http://www.w3.org/2000/svg" xmlns:xlink="http://www.w3.org/1999/xlink" xml:space="preserve" onload="init(evt)">
<style type="text/css"><![CDATA[
.node, .edge {opacity: 0.7;}
.node.selected, .edge.selected {opacity: 1;}
.edge:hover path { stroke: red; }
.edge:hover polygon { stroke: red; fill: red; }
]]></style>

<defs>
  <circle id="rim" cx="0" cy="0" r="7"/>
  <circle id="rim2" cx="0" cy="0" r="3.5"/>
  <g id="zoomPlus">
    <use xlink:href="#rim" fill="#404040"><set attributeName="fill" to="#808080" begin="zoomplus.mouseover" end="zoomplus.mouseout"/></use>
    <path d="M-4,0h8M0,-4v8" fill="none" stroke="white" stroke-width="1.5" pointer-events="none"/>
  </g>
  <g id="zoomMin">
    <use xlink:href="#rim" fill="#404040"><set attributeName="fill" to="#808080" begin="zoomminus.mouseover" end="zoomminus.mouseout"/></use>
    <path d="M-4,0h8" fill="none" stroke="white" stroke-width="1.5" pointer-events="none"/>
  </g>
  <g id="arrowUp" transform="translate(30 24)">
    <use xlink:href="#rim"/>
    <path pointer-events="none" fill="none" stroke="white" stroke-width="1.5" d="M0,-3.0v7 M-2.5,-0.5L0,-3.0L2.5,-0.5"/>
  </g>
  <g id="arrowRight" transform="rotate(90) translate(36 -43)">
    <use xlink:href="#rim"/>
    <path pointer-events="none" fill="none" stroke="white" stroke-width="1.5" d="M0,-3.0v7 M-2.5,-0.5L0,-3.0L2.5,-0.5"/>
  </g>
  <g id="arrowDown" transform="rotate(180) translate(-30 -48)">
    <use xlink:href="#rim"/>
    <path pointer-events="none" fill="none" stroke="white" stroke-width="1.5" d="M0,-3.0v7 M-2.5,-0.5L0,-3.0L2.5,-0.5"/>
  </g>
  <g id="arrowLeft" transform="rotate(270) translate(-36 17)">
    <use xlink:href="#rim"/>
    <path pointer-events="none" fill="none" stroke="white" stroke-width="1.5" d="M0,-3.0v7 M-2.5,-0.5L0,-3.0L2.5,-0.5"/>
  </g>
  <g id="resetDef">
    <use xlink:href="#rim2" fill="#404040"><set attributeName="fill" to="#808080" begin="reset.mouseover" end="reset.mouseout"/></use>
  </g>
</defs>
<script type="application/ecmascript">
var viewWidth = 1007;
var viewHeight = 680;
var sectionId = 'dynsection-0';
</script>
<script type="application/ecmascript" xlink:href="../../svg.min.js"/>
<svg id="graph" class="graph">
<g id="viewport">
<title>euclid.h</title>
<!-- Node1 -->
<g id="Node000001" class="node">
<title>Node1</title>
<g id="a_Node000001"><a xlink:title="Small collection of classes and functions for geometric types with a focus on 2d graphics and layout.">
<polygon fill="#999999" stroke="#666666" points="493,-672 440.25,-672 440.25,-652.75 493,-652.75 493,-672"/>
<text text-anchor="middle" x="466.62" y="-657.55" font-family="Arial" font-size="11.00">euclid.h</text>
</a>
</g>
</g>
<!-- Node2 -->
<g id="Node000002" class="node">
<title>Node2</title>
<g id="a_Node000002"><a xlink:href="../../da/dac/angle_8h.html" target="_top" xlink:title="Newtype describing an angle.">
<polygon fill="white" stroke="#666666" points="607.38,-329.25 493.88,-329.25 493.88,-310 607.38,-310 607.38,-329.25"/>
<text text-anchor="middle" x="550.62" y="-314.8" font-family="Arial" font-size="11.00">floppy/euclid/angle.h</text>
</a>
</g>
</g>
<!-- Node1&#45;&gt;Node2 -->
<g id="edge1_Node000001_Node000002" class="edge">
<title>Node1&#45;&gt;Node2</title>
<g id="a_edge1_Node000001_Node000002"><a xlink:title=" ">
<path fill="none" stroke="#63b8ff" d="M450.08,-652.44C422.86,-636.4 371.62,-599.94 371.62,-552.88 371.62,-552.88 371.62,-552.88 371.62,-434.75 371.62,-376.77 439.22,-346.95 491.33,-332.58"/>
<polygon fill="#63b8ff" stroke="#63b8ff" points="491.93,-336.04 500.72,-330.13 490.16,-329.27 491.93,-336.04"/>
</a>
</g>
</g>
<!-- Node28 -->
<g id="Node000028" class="node">
<title>Node28</title>
<g id="a_Node000028"><a xlink:href="../../dd/db9/length_8h.html" target="_top" xlink:title="A one&#45;dimensional distance with associated unit of measurement.">
<polygon fill="white" stroke="#666666" points="607.88,-384.5 491.38,-384.5 491.38,-365.25 607.88,-365.25 607.88,-384.5"/>
<text text-anchor="middle" x="549.62" y="-370.05" font-family="Arial" font-size="11.00">floppy/euclid/length.h</text>
</a>
</g>
</g>
<!-- Node1&#45;&gt;Node28 -->
<g id="edge33_Node000001_Node000028" class="edge">
<title>Node1&#45;&gt;Node28</title>
<g id="a_edge33_Node000001_Node000028"><a xlink:title=" ">
<path fill="none" stroke="#63b8ff" d="M457.97,-652.36C442.02,-634.76 409.62,-593.94 409.62,-552.88 409.62,-552.88 409.62,-552.88 409.62,-495.62 409.62,-441.6 470.57,-406.74 512.04,-389.27"/>
<polygon fill="#63b8ff" stroke="#63b8ff" points="513.26,-392.55 521.23,-385.56 510.64,-386.05 513.26,-392.55"/>
</a>
</g>
</g>
<!-- Node29 -->
<g id="Node000029" class="node">
<title>Node29</title>
<g id="a_Node000029"><a xlink:href="../../d8/d0c/scale_8h.html" target="_top" xlink:title="A scaling factor between two different units of measurement.">
<polygon fill="white" stroke="#666666" points="475.62,-329.25 363.62,-329.25 363.62,-310 475.62,-310 475.62,-329.25"/>
<text text-anchor="middle" x="419.62" y="-314.8" font-family="Arial" font-size="11.00">floppy/euclid/scale.h</text>
</a>
</g>
</g>
<!-- Node1&#45;&gt;Node29 -->
<g id="edge39_Node000001_Node000029" class="edge">
<title>Node1&#45;&gt;Node29</title>
<g id="a_edge39_Node000001_Node000029"><a xlink:title=" ">
<path fill="none" stroke="#63b8ff" d="M439.9,-656.74C415.46,-651.2 379.85,-639.63 357.62,-616.75 336.5,-595 333.62,-583.2 333.62,-552.88 333.62,-552.88 333.62,-552.88 333.62,-434.75 333.62,-402.07 338.12,-391.47 357.62,-365.25 366.66,-353.11 379.95,-342.93 391.91,-335.38"/>
<polygon fill="#63b8ff" stroke="#63b8ff" points="393.42,-338.55 400.22,-330.43 389.84,-332.54 393.42,-338.55"/>
</a>
</g>
</g>
<!-- Node30 -->
<g id="Node000030" class="node">
<title>Node30</title>
<g id="a_Node000030"><a xlink:href="../../dc/df8/size2d_8h.html" target="_top" xlink:title="A two&#45;dimensional size tagged with a unit.">
<polygon fill="white" stroke="#666666" points="825.62,-506.25 707.62,-506.25 707.62,-487 825.62,-487 825.62,-506.25"/>
<text text-anchor="middle" x="766.62" y="-491.8" font-family="Arial" font-size="11.00">floppy/euclid/size2d.h</text>
</a>
</g>
</g>
<!-- Node1&#45;&gt;Node30 -->
<g id="edge40_Node000001_Node000030" class="edge">
<title>Node1&#45;&gt;Node30</title>
<g id="a_edge40_Node000001_Node000030"><a xlink:title=" ">
<path fill="none" stroke="#63b8ff" d="M493.37,-656.19C542.23,-645.63 647.25,-617.68 716.62,-561.5 732.5,-548.65 746.43,-529.86 755.53,-515.98"/>
<polygon fill="#63b8ff" stroke="#63b8ff" points="758.32,-518.11 760.69,-507.79 752.4,-514.38 758.32,-518.11"/>
</a>
</g>
</g>
<!-- Node35 -->
<g id="Node000035" class="node">
<title>Node35</title>
<g id="a_Node000035"><a xlink:href="../../d4/d12/point2d_8h.html" target="_top" xlink:title="A two&#45;dimensional point tagged with a unit.">
<polygon fill="white" stroke="#666666" points="572.88,-616.75 450.38,-616.75 450.38,-597.5 572.88,-597.5 572.88,-616.75"/>
<text text-anchor="middle" x="511.62" y="-602.3" font-family="Arial" font-size="11.00">floppy/euclid/point2d.h</text>
</a>
</g>
</g>
<!-- Node1&#45;&gt;Node35 -->
<g id="edge50_Node000001_Node000035" class="edge">
<title>Node1&#45;&gt;Node35</title>
<g id="a_edge50_Node000001_Node000035"><a xlink:title=" ">
<path fill="none" stroke="#63b8ff" d="M474.06,-652.58C480.21,-645.3 489.14,-634.73 496.75,-625.73"/>
<polygon fill="#63b8ff" stroke="#63b8ff" points="499.27,-628.16 503.06,-618.27 493.93,-623.64 499.27,-628.16"/>
</a>
</g>
</g>
<!-- Node37 -->
<g id="Node000037" class="node">
<title>Node37</title>
<g id="a_Node000037"><a xlink:href="../../d1/dab/vector2d_8h.html" target="_top" xlink:title="A two&#45;dimensional vector tagged with a unit.">
<polygon fill="white" stroke="#666666" points="679.88,-561.5 551.38,-561.5 551.38,-542.25 679.88,-542.25 679.88,-561.5"/>
<text text-anchor="middle" x="615.62" y="-547.05" font-family="Arial" font-size="11.00">floppy/euclid/vector2d.h</text>
</a>
</g>
</g>
<!-- Node1&#45;&gt;Node37 -->
<g id="edge61_Node000001_Node000037" class="edge">
<title>Node1&#45;&gt;Node37</title>
<g id="a_edge61_Node000001_Node000037"><a xlink:title=" ">
<path fill="none" stroke="#63b8ff" d="M493.15,-656.64C518.44,-650.95 556.32,-639.21 581.62,-616.75 594.98,-604.89 603.99,-586.5 609.36,-572.49"/>
<polygon fill="#63b8ff" stroke="#63b8ff" points="612.54,-574.02 612.53,-563.43 605.93,-571.71 612.54,-574.02"/>
</a>
</g>
</g>
<!-- Node3 -->
<g id="Node000003" class="node">
<title>Node3</title>
<g id="a_Node000003"><a xlink:href="../../df/db1/math_8h_source.html" target="_top" xlink:title=" ">
<polygon fill="white" stroke="#666666" points="731.12,-207.5 622.12,-207.5 622.12,-188.25 731.12,-188.25 731.12,-207.5"/>
<text text-anchor="middle" x="676.62" y="-193.05" font-family="Arial" font-size="11.00">floppy/detail/math.h</text>
</a>
</g>
</g>
<!-- Node2&#45;&gt;Node3 -->
<g id="edge2_Node000002_Node000003" class="edge">
<title>Node2&#45;&gt;Node3</title>
<g id="a_edge2_Node000002_Node000003"><a xlink:title=" ">
<path fill="none" stroke="#63b8ff" d="M556.51,-309.57C566.48,-294.68 587.82,-264.56 610.62,-243.5 622.81,-232.24 638.07,-221.74 650.84,-213.75"/>
<polygon fill="#63b8ff" stroke="#63b8ff" points="652.42,-216.89 659.15,-208.71 648.79,-210.91 652.42,-216.89"/>
</a>
</g>
</g>
<!-- Node20 -->
<g id="Node000020" class="node">
<title>Node20</title>
<g id="a_Node000020"><a xlink:href="../../dd/dff/traits_8h_source.html" target="_top" xlink:title=" ">
<polygon fill="white" stroke="#666666" points="440.5,-207.5 360.75,-207.5 360.75,-188.25 440.5,-188.25 440.5,-207.5"/>
<text text-anchor="middle" x="400.62" y="-193.05" font-family="Arial" font-size="11.00">floppy/traits.h</text>
</a>
</g>
</g>
<!-- Node2&#45;&gt;Node20 -->
<g id="edge20_Node000002_Node000020" class="edge">
<title>Node2&#45;&gt;Node20</title>
<g id="a_edge20_Node000002_Node000020"><a xlink:title=" ">
<path fill="none" stroke="#63b8ff" d="M539.35,-309.62C514.16,-289.51 453,-240.69 420.97,-215.11"/>
<polygon fill="#63b8ff" stroke="#63b8ff" points="423.21,-212.43 413.21,-208.92 418.84,-217.9 423.21,-212.43"/>
</a>
</g>
</g>
<!-- Node27 -->
<g id="Node000027" class="node">
<title>Node27</title>
<g id="a_Node000027"><a xlink:href="../../de/de1/nt__traits_8h_source.html" target="_top" xlink:title=" ">
<polygon fill="white" stroke="#666666" points="723.5,-274 619.75,-274 619.75,-243.5 723.5,-243.5 723.5,-274"/>
<text text-anchor="start" x="627.75" y="-259.55" font-family="Arial" font-size="11.00">floppy/euclid/detail</text>
<text text-anchor="middle" x="671.62" y="-248.3" font-family="Arial" font-size="11.00">/nt_traits.h</text>
</a>
</g>
</g>
<!-- Node2&#45;&gt;Node27 -->
<g id="edge30_Node000002_Node000027" class="edge">
<title>Node2&#45;&gt;Node27</title>
<g id="a_edge30_Node000002_Node000027"><a xlink:title=" ">
<path fill="none" stroke="#63b8ff" d="M569.27,-309.55C585.71,-301.55 610.25,-289.61 631.18,-279.43"/>
<polygon fill="#63b8ff" stroke="#63b8ff" points="632.6,-282.63 640.06,-275.11 629.54,-276.34 632.6,-282.63"/>
</a>
</g>
</g>
<!-- Node4 -->
<g id="Node000004" class="node">
<title>Node4</title>
<g id="a_Node000004"><a xlink:title=" ">
<polygon fill="#e0e0e0" stroke="#999999" points="778.25,-146.62 733,-146.62 733,-127.38 778.25,-127.38 778.25,-146.62"/>
<text text-anchor="middle" x="755.62" y="-132.18" font-family="Arial" font-size="11.00">cmath</text>
</a>
</g>
</g>
<!-- Node3&#45;&gt;Node4 -->
<g id="edge3_Node000003_Node000004" class="edge">
<title>Node3&#45;&gt;Node4</title>
<g id="a_edge3_Node000003_Node000004"><a xlink:title=" ">
<path fill="none" stroke="#63b8ff" d="M688.62,-187.93C700.8,-178.86 719.91,-164.62 734.61,-153.66"/>
<polygon fill="#63b8ff" stroke="#63b8ff" points="736.37,-156.71 742.3,-147.93 732.19,-151.1 736.37,-156.71"/>
</a>
</g>
</g>
<!-- Node5 -->
<g id="Node000005" class="node">
<title>Node5</title>
<g id="a_Node000005"><a xlink:title=" ">
<polygon fill="#e0e0e0" stroke="#999999" points="836.62,-146.62 796.62,-146.62 796.62,-127.38 836.62,-127.38 836.62,-146.62"/>
<text text-anchor="middle" x="816.62" y="-132.18" font-family="Arial" font-size="11.00">limits</text>
</a>
</g>
</g>
<!-- Node3&#45;&gt;Node5 -->
<g id="edge4_Node000003_Node000005" class="edge">
<title>Node3&#45;&gt;Node5</title>
<g id="a_edge4_Node000003_Node000005"><a xlink:title=" ">
<path fill="none" stroke="#63b8ff" d="M700.66,-187.81C723.29,-179.13 758.03,-165.45 787.62,-152.25 787.85,-152.15 788.07,-152.05 788.3,-151.95"/>
<polygon fill="#63b8ff" stroke="#63b8ff" points="789.69,-155.16 797.25,-147.75 786.71,-148.83 789.69,-155.16"/>
</a>
</g>
</g>
<!-- Node6 -->
<g id="Node000006" class="node">
<title>Node6</title>
<g id="a_Node000006"><a xlink:title=" ">
<polygon fill="#e0e0e0" stroke="#999999" points="638.62,-146.62 580.62,-146.62 580.62,-127.38 638.62,-127.38 638.62,-146.62"/>
<text text-anchor="middle" x="609.62" y="-132.18" font-family="Arial" font-size="11.00">numbers</text>
</a>
</g>
</g>
<!-- Node3&#45;&gt;Node6 -->
<g id="edge5_Node000003_Node000006" class="edge">
<title>Node3&#45;&gt;Node6</title>
<g id="a_edge5_Node000003_Node000006"><a xlink:title=" ">
<path fill="none" stroke="#63b8ff" d="M666.45,-187.93C656.41,-179.12 640.84,-165.43 628.53,-154.61"/>
<polygon fill="#63b8ff" stroke="#63b8ff" points="630.86,-152 621.03,-148.03 626.24,-157.26 630.86,-152"/>
</a>
</g>
</g>
<!-- Node7 -->
<g id="Node000007" class="node">
<title>Node7</title>
<g id="a_Node000007"><a xlink:title=" ">
<polygon fill="#e0e0e0" stroke="#999999" points="714.62,-146.62 656.62,-146.62 656.62,-127.38 714.62,-127.38 714.62,-146.62"/>
<text text-anchor="middle" x="685.62" y="-132.18" font-family="Arial" font-size="11.00">compare</text>
</a>
</g>
</g>
<!-- Node3&#45;&gt;Node7 -->
<g id="edge6_Node000003_Node000007" class="edge">
<title>Node3&#45;&gt;Node7</title>
<g id="a_edge6_Node000003_Node000007"><a xlink:title=" ">
<path fill="none" stroke="#63b8ff" d="M677.99,-187.93C679.19,-180.07 680.99,-168.32 682.54,-158.2"/>
<polygon fill="#63b8ff" stroke="#63b8ff" points="685.97,-158.94 684.02,-148.52 679.05,-157.88 685.97,-158.94"/>
</a>
</g>
</g>
<!-- Node8 -->
<g id="Node000008" class="node">
<title>Node8</title>
<g id="a_Node000008"><a xlink:href="../../db/db5/export_8h_source.html" target="_top" xlink:title=" ">
<polygon fill="white" stroke="#666666" points="562.12,-146.62 447.12,-146.62 447.12,-127.38 562.12,-127.38 562.12,-146.62"/>
<text text-anchor="middle" x="504.62" y="-132.18" font-family="Arial" font-size="11.00">floppy/detail/export.h</text>
</a>
</g>
</g>
<!-- Node3&#45;&gt;Node8 -->
<g id="edge7_Node000003_Node000008" class="edge">
<title>Node3&#45;&gt;Node8</title>
<g id="a_edge7_Node000003_Node000008"><a xlink:title=" ">
<path fill="none" stroke="#63b8ff" d="M650.13,-187.8C621.09,-177.86 574.29,-161.85 541.64,-150.67"/>
<polygon fill="#63b8ff" stroke="#63b8ff" points="543.18,-147.5 532.59,-147.57 540.91,-154.12 543.18,-147.5"/>
</a>
</g>
</g>
<!-- Node11 -->
<g id="Node000011" class="node">
<title>Node11</title>
<g id="a_Node000011"><a xlink:href="../../d9/db1/concepts_8h_source.html" target="_top" xlink:title=" ">
<polygon fill="white" stroke="#666666" points="982.5,-146.62 854.75,-146.62 854.75,-127.38 982.5,-127.38 982.5,-146.62"/>
<text text-anchor="middle" x="918.62" y="-132.18" font-family="Arial" font-size="11.00">floppy/detail/concepts.h</text>
</a>
</g>
</g>
<!-- Node3&#45;&gt;Node11 -->
<g id="edge10_Node000003_Node000011" class="edge">
<title>Node3&#45;&gt;Node11</title>
<g id="a_edge10_Node000003_Node000011"><a xlink:title=" ">
<path fill="none" stroke="#63b8ff" d="M713.91,-187.8C755.92,-177.58 824.34,-160.94 870.39,-149.73"/>
<polygon fill="#63b8ff" stroke="#63b8ff" points="870.94,-153.2 879.83,-147.44 869.29,-146.4 870.94,-153.2"/>
</a>
</g>
</g>
<!-- Node9 -->
<g id="Node000009" class="node">
<title>Node9</title>
<g id="a_Node000009"><a xlink:title=" ">
<polygon fill="#e0e0e0" stroke="#999999" points="525.75,-80.12 483.5,-80.12 483.5,-60.88 525.75,-60.88 525.75,-80.12"/>
<text text-anchor="middle" x="504.62" y="-65.67" font-family="Arial" font-size="11.00">string</text>
</a>
</g>
</g>
<!-- Node8&#45;&gt;Node9 -->
<g id="edge8_Node000008_Node000009" class="edge">
<title>Node8&#45;&gt;Node9</title>
<g id="a_edge8_Node000008_Node000009"><a xlink:title=" ">
<path fill="none" stroke="#63b8ff" d="M504.62,-127.03C504.62,-117.98 504.62,-103.7 504.62,-91.88"/>
<polygon fill="#63b8ff" stroke="#63b8ff" points="508.13,-91.91 504.63,-81.91 501.13,-91.91 508.13,-91.91"/>
</a>
</g>
</g>
<!-- Node10 -->
<g id="Node000010" class="node">
<title>Node10</title>
<g id="a_Node000010"><a xlink:title=" ">
<polygon fill="#e0e0e0" stroke="#999999" points="425.62,-80.12 355.62,-80.12 355.62,-60.88 425.62,-60.88 425.62,-80.12"/>
<text text-anchor="middle" x="390.62" y="-65.67" font-family="Arial" font-size="11.00">string_view</text>
</a>
</g>
</g>
<!-- Node8&#45;&gt;Node10 -->
<g id="edge9_Node000008_Node000010" class="edge">
<title>Node8&#45;&gt;Node10</title>
<g id="a_edge9_Node000008_Node000010"><a xlink:title=" ">
<path fill="none" stroke="#63b8ff" d="M488.77,-127.03C470.08,-116.45 438.73,-98.72 416.5,-86.14"/>
<polygon fill="#63b8ff" stroke="#63b8ff" points="418.45,-83.22 408.03,-81.35 415.01,-89.32 418.45,-83.22"/>
</a>
</g>
</g>
<!-- Node12 -->
<g id="Node000012" class="node">
<title>Node12</title>
<g id="a_Node000012"><a xlink:title=" ">
<polygon fill="#e0e0e0" stroke="#999999" points="999,-80.12 940.25,-80.12 940.25,-60.88 999,-60.88 999,-80.12"/>
<text text-anchor="middle" x="969.62" y="-65.67" font-family="Arial" font-size="11.00">concepts</text>
</a>
</g>
</g>
<!-- Node11&#45;&gt;Node12 -->
<g id="edge11_Node000011_Node000012" class="edge">
<title>Node11&#45;&gt;Node12</title>
<g id="a_edge11_Node000011_Node000012"><a xlink:title=" ">
<path fill="none" stroke="#63b8ff" d="M925.72,-127.03C933.4,-117.31 945.87,-101.54 955.56,-89.28"/>
<polygon fill="#63b8ff" stroke="#63b8ff" points="958.2,-91.59 961.66,-81.58 952.71,-87.25 958.2,-91.59"/>
</a>
</g>
</g>
<!-- Node13 -->
<g id="Node000013" class="node">
<title>Node13</title>
<g id="a_Node000013"><a xlink:href="../../df/d63/type__traits_8h_source.html" target="_top" xlink:title=" ">
<polygon fill="white" stroke="#666666" points="793.75,-85.75 697.5,-85.75 697.5,-55.25 793.75,-55.25 793.75,-85.75"/>
<text text-anchor="start" x="705.5" y="-71.3" font-family="Arial" font-size="11.00">floppy/detail/type</text>
<text text-anchor="middle" x="745.62" y="-60.05" font-family="Arial" font-size="11.00">_traits.h</text>
</a>
</g>
</g>
<!-- Node11&#45;&gt;Node13 -->
<g id="edge12_Node000011_Node000013" class="edge">
<title>Node11&#45;&gt;Node13</title>
<g id="a_edge12_Node000011_Node000013"><a xlink:title=" ">
<path fill="none" stroke="#63b8ff" d="M894.21,-126.9C868.68,-117.38 827.92,-102.18 795.54,-90.11"/>
<polygon fill="#63b8ff" stroke="#63b8ff" points="796.93,-86.89 786.33,-86.68 794.48,-93.45 796.93,-86.89"/>
</a>
</g>
</g>
<!-- Node15 -->
<g id="Node000015" class="node">
<title>Node15</title>
<g id="a_Node000015"><a xlink:href="../../d9/d49/types_8h_source.html" target="_top" xlink:title=" ">
<polygon fill="white" stroke="#666666" points="921.88,-80.12 811.38,-80.12 811.38,-60.88 921.88,-60.88 921.88,-80.12"/>
<text text-anchor="middle" x="866.62" y="-65.67" font-family="Arial" font-size="11.00">floppy/detail/types.h</text>
</a>
</g>
</g>
<!-- Node11&#45;&gt;Node15 -->
<g id="edge14_Node000011_Node000015" class="edge">
<title>Node11&#45;&gt;Node15</title>
<g id="a_edge14_Node000011_Node000015"><a xlink:title=" ">
<path fill="none" stroke="#63b8ff" d="M911.39,-127.03C903.56,-117.31 890.84,-101.54 880.96,-89.28"/>
<polygon fill="#63b8ff" stroke="#63b8ff" points="883.75,-87.16 874.74,-81.57 878.3,-91.55 883.75,-87.16"/>
</a>
</g>
</g>
<!-- Node14 -->
<g id="Node000014" class="node">
<title>Node14</title>
<g id="a_Node000014"><a xlink:title=" ">
<polygon fill="#e0e0e0" stroke="#999999" points="778.38,-19.25 712.88,-19.25 712.88,0 778.38,0 778.38,-19.25"/>
<text text-anchor="middle" x="745.62" y="-4.8" font-family="Arial" font-size="11.00">type_traits</text>
</a>
</g>
</g>
<!-- Node13&#45;&gt;Node14 -->
<g id="edge13_Node000013_Node000014" class="edge">
<title>Node13&#45;&gt;Node14</title>
<g id="a_edge13_Node000013_Node000014"><a xlink:title=" ">
<path fill="none" stroke="#63b8ff" d="M745.62,-54.95C745.62,-47.71 745.62,-38.84 745.62,-30.94"/>
<polygon fill="#63b8ff" stroke="#63b8ff" points="749.13,-31.21 745.63,-21.21 742.13,-31.21 749.13,-31.21"/>
</a>
</g>
</g>
<!-- Node15&#45;&gt;Node14 -->
<g id="edge18_Node000015_Node000014" class="edge">
<title>Node15&#45;&gt;Node14</title>
<g id="a_edge18_Node000015_Node000014"><a xlink:title=" ">
<path fill="none" stroke="#63b8ff" d="M847.98,-60.43C828.3,-50.85 797.01,-35.63 774.21,-24.53"/>
<polygon fill="#63b8ff" stroke="#63b8ff" points="775.97,-21.5 765.45,-20.27 772.91,-27.79 775.97,-21.5"/>
</a>
</g>
</g>
<!-- Node16 -->
<g id="Node000016" class="node">
<title>Node16</title>
<g id="a_Node000016"><a xlink:title=" ">
<polygon fill="#e0e0e0" stroke="#999999" points="846.88,-19.25 796.38,-19.25 796.38,0 846.88,0 846.88,-19.25"/>
<text text-anchor="middle" x="821.62" y="-4.8" font-family="Arial" font-size="11.00">cstddef</text>
</a>
</g>
</g>
<!-- Node15&#45;&gt;Node16 -->
<g id="edge15_Node000015_Node000016" class="edge">
<title>Node15&#45;&gt;Node16</title>
<g id="a_edge15_Node000015_Node000016"><a xlink:title=" ">
<path fill="none" stroke="#63b8ff" d="M859.79,-60.56C853.31,-52.09 843.4,-39.12 835.3,-28.52"/>
<polygon fill="#63b8ff" stroke="#63b8ff" points="838.3,-26.67 829.44,-20.85 832.73,-30.92 838.3,-26.67"/>
</a>
</g>
</g>
<!-- Node17 -->
<g id="Node000017" class="node">
<title>Node17</title>
<g id="a_Node000017"><a xlink:title=" ">
<polygon fill="#e0e0e0" stroke="#999999" points="912,-19.25 865.25,-19.25 865.25,0 912,0 912,-19.25"/>
<text text-anchor="middle" x="888.62" y="-4.8" font-family="Arial" font-size="11.00">cstdint</text>
</a>
</g>
</g>
<!-- Node15&#45;&gt;Node17 -->
<g id="edge16_Node000015_Node000017" class="edge">
<title>Node15&#45;&gt;Node17</title>
<g id="a_edge16_Node000015_Node000017"><a xlink:title=" ">
<path fill="none" stroke="#63b8ff" d="M869.97,-60.56C872.97,-52.52 877.49,-40.43 881.33,-30.16"/>
<polygon fill="#63b8ff" stroke="#63b8ff" points="884.5,-31.66 884.72,-21.07 877.94,-29.21 884.5,-31.66"/>
</a>
</g>
</g>
<!-- Node18 -->
<g id="Node000018" class="node">
<title>Node18</title>
<g id="a_Node000018"><a xlink:title=" ">
<polygon fill="#e0e0e0" stroke="#999999" points="983.38,-19.25 929.88,-19.25 929.88,0 983.38,0 983.38,-19.25"/>
<text text-anchor="middle" x="956.62" y="-4.8" font-family="Arial" font-size="11.00">optional</text>
</a>
</g>
</g>
<!-- Node15&#45;&gt;Node18 -->
<g id="edge17_Node000015_Node000018" class="edge">
<title>Node15&#45;&gt;Node18</title>
<g id="a_edge17_Node000015_Node000018"><a xlink:title=" ">
<path fill="none" stroke="#63b8ff" d="M880.29,-60.56C894.43,-51.31 916.77,-36.7 933.63,-25.67"/>
<polygon fill="#63b8ff" stroke="#63b8ff" points="935.11,-28.88 941.56,-20.48 931.28,-23.03 935.11,-28.88"/>
</a>
</g>
</g>
<!-- Node19 -->
<g id="Node000019" class="node">
<title>Node19</title>
<g id="a_Node000019"><a xlink:title=" ">
<polygon fill="#e0e0e0" stroke="#999999" points="498.5,-19.25 424.75,-19.25 424.75,0 498.5,0 498.5,-19.25"/>
<text text-anchor="middle" x="461.62" y="-4.8" font-family="Arial" font-size="11.00">fmt/format.h</text>
</a>
</g>
</g>
<!-- Node15&#45;&gt;Node19 -->
<g id="edge19_Node000015_Node000019" class="edge">
<title>Node15&#45;&gt;Node19</title>
<g id="a_edge19_Node000015_Node000019"><a xlink:title=" ">
<path fill="none" stroke="#63b8ff" d="M828.49,-60.43C820.01,-58.57 811.03,-56.73 802.62,-55.25 699.04,-36.98 576.53,-22.72 510.2,-15.61"/>
<polygon fill="#63b8ff" stroke="#63b8ff" points="510.7,-12.14 500.38,-14.56 509.96,-19.1 510.7,-12.14"/>
</a>
</g>
</g>
<!-- Node20&#45;&gt;Node8 -->
<g id="edge24_Node000020_Node000008" class="edge">
<title>Node20&#45;&gt;Node8</title>
<g id="a_edge24_Node000020_Node000008"><a xlink:title=" ">
<path fill="none" stroke="#63b8ff" d="M416.42,-187.93C432.99,-178.55 459.3,-163.66 478.87,-152.58"/>
<polygon fill="#63b8ff" stroke="#63b8ff" points="480.39,-155.74 487.36,-147.77 476.94,-149.65 480.39,-155.74"/>
</a>
</g>
</g>
<!-- Node21 -->
<g id="Node000021" class="node">
<title>Node21</title>
<g id="a_Node000021"><a xlink:title=" ">
<polygon fill="#e0e0e0" stroke="#999999" points="354.12,-146.62 299.12,-146.62 299.12,-127.38 354.12,-127.38 354.12,-146.62"/>
<text text-anchor="middle" x="326.62" y="-132.18" font-family="Arial" font-size="11.00">memory</text>
</a>
</g>
</g>
<!-- Node20&#45;&gt;Node21 -->
<g id="edge21_Node000020_Node000021" class="edge">
<title>Node20&#45;&gt;Node21</title>
<g id="a_edge21_Node000020_Node000021"><a xlink:title=" ">
<path fill="none" stroke="#63b8ff" d="M389.39,-187.93C378.09,-178.94 360.42,-164.89 346.71,-153.98"/>
<polygon fill="#63b8ff" stroke="#63b8ff" points="349.16,-151.46 339.15,-147.97 344.8,-156.93 349.16,-151.46"/>
</a>
</g>
</g>
<!-- Node22 -->
<g id="Node000022" class="node">
<title>Node22</title>
<g id="a_Node000022"><a xlink:title=" ">
<polygon fill="#e0e0e0" stroke="#999999" points="429.25,-146.62 372,-146.62 372,-127.38 429.25,-127.38 429.25,-146.62"/>
<text text-anchor="middle" x="400.62" y="-132.18" font-family="Arial" font-size="11.00">iostream</text>
</a>
</g>
</g>
<!-- Node20&#45;&gt;Node22 -->
<g id="edge22_Node000020_Node000022" class="edge">
<title>Node20&#45;&gt;Node22</title>
<g id="a_edge22_Node000020_Node000022"><a xlink:title=" ">
<path fill="none" stroke="#63b8ff" d="M400.62,-187.93C400.62,-180.15 400.62,-168.58 400.62,-158.53"/>
<polygon fill="#63b8ff" stroke="#63b8ff" points="404.13,-158.54 400.63,-148.54 397.13,-158.54 404.13,-158.54"/>
</a>
</g>
</g>
<!-- Node23 -->
<g id="Node000023" class="node">
<title>Node23</title>
<g id="a_Node000023"><a xlink:title=" ">
<polygon fill="#e0e0e0" stroke="#999999" points="129.25,-152.25 0,-152.25 0,-121.75 129.25,-121.75 129.25,-152.25"/>
<text text-anchor="start" x="8" y="-137.8" font-family="Arial" font-size="11.00">experimental/propagate</text>
<text text-anchor="middle" x="64.62" y="-126.55" font-family="Arial" font-size="11.00">_const</text>
</a>
</g>
</g>
<!-- Node20&#45;&gt;Node23 -->
<g id="edge23_Node000020_Node000023" class="edge">
<title>Node20&#45;&gt;Node23</title>
<g id="a_edge23_Node000020_Node000023"><a xlink:title=" ">
<path fill="none" stroke="#63b8ff" d="M360.63,-190.34C311.41,-182.23 225,-167.81 140.89,-152.64"/>
<polygon fill="#63b8ff" stroke="#63b8ff" points="141.54,-149.2 131.07,-150.86 140.29,-156.09 141.54,-149.2"/>
</a>
</g>
</g>
<!-- Node24 -->
<g id="Node000024" class="node">
<title>Node24</title>
<g id="a_Node000024"><a xlink:href="../../d6/d45/formatters_8h_source.html" target="_top" xlink:title=" ">
<polygon fill="white" stroke="#666666" points="281.5,-146.62 147.75,-146.62 147.75,-127.38 281.5,-127.38 281.5,-146.62"/>
<text text-anchor="middle" x="214.62" y="-132.18" font-family="Arial" font-size="11.00">floppy/detail/formatters.h</text>
</a>
</g>
</g>
<!-- Node20&#45;&gt;Node24 -->
<g id="edge25_Node000020_Node000024" class="edge">
<title>Node20&#45;&gt;Node24</title>
<g id="a_edge25_Node000020_Node000024"><a xlink:title=" ">
<path fill="none" stroke="#63b8ff" d="M371.97,-187.8C340.43,-177.82 289.53,-161.71 254.19,-150.52"/>
<polygon fill="#63b8ff" stroke="#63b8ff" points="255.35,-147.22 244.76,-147.54 253.23,-153.89 255.35,-147.22"/>
</a>
</g>
</g>
<!-- Node24&#45;&gt;Node10 -->
<g id="edge26_Node000024_Node000010" class="edge">
<title>Node24&#45;&gt;Node10</title>
<g id="a_edge26_Node000024_Node000010"><a xlink:title=" ">
<path fill="none" stroke="#63b8ff" d="M239.47,-126.9C269.74,-115.8 321.07,-96.99 355.41,-84.41"/>
<polygon fill="#63b8ff" stroke="#63b8ff" points="356.3,-87.81 364.49,-81.08 353.89,-81.23 356.3,-87.81"/>
</a>
</g>
</g>
<!-- Node24&#45;&gt;Node19 -->
<g id="edge29_Node000024_Node000019" class="edge">
<title>Node24&#45;&gt;Node19</title>
<g id="a_edge29_Node000024_Node000019"><a xlink:title=" ">
<path fill="none" stroke="#63b8ff" d="M216.26,-127.11C219.83,-110.28 230,-73.82 253.62,-55.25 277.97,-36.11 359.68,-22.9 413.14,-16.06"/>
<polygon fill="#63b8ff" stroke="#63b8ff" points="413.43,-19.55 422.92,-14.84 412.57,-12.61 413.43,-19.55"/>
</a>
</g>
</g>
<!-- Node25 -->
<g id="Node000025" class="node">
<title>Node25</title>
<g id="a_Node000025"><a xlink:title=" ">
<polygon fill="#e0e0e0" stroke="#999999" points="316.75,-80.12 262.5,-80.12 262.5,-60.88 316.75,-60.88 316.75,-80.12"/>
<text text-anchor="middle" x="289.62" y="-65.67" font-family="Arial" font-size="11.00">sstream</text>
</a>
</g>
</g>
<!-- Node24&#45;&gt;Node25 -->
<g id="edge27_Node000024_Node000025" class="edge">
<title>Node24&#45;&gt;Node25</title>
<g id="a_edge27_Node000024_Node000025"><a xlink:title=" ">
<path fill="none" stroke="#63b8ff" d="M225.05,-127.03C236.81,-116.92 256.16,-100.28 270.62,-87.85"/>
<polygon fill="#63b8ff" stroke="#63b8ff" points="272.84,-90.55 278.14,-81.38 268.27,-85.25 272.84,-90.55"/>
</a>
</g>
</g>
<!-- Node26 -->
<g id="Node000026" class="node">
<title>Node26</title>
<g id="a_Node000026"><a xlink:title=" ">
<polygon fill="#e0e0e0" stroke="#999999" points="207,-80.12 160.25,-80.12 160.25,-60.88 207,-60.88 207,-80.12"/>
<text text-anchor="middle" x="183.62" y="-65.67" font-family="Arial" font-size="11.00">iosfwd</text>
</a>
</g>
</g>
<!-- Node24&#45;&gt;Node26 -->
<g id="edge28_Node000024_Node000026" class="edge">
<title>Node24&#45;&gt;Node26</title>
<g id="a_edge28_Node000024_Node000026"><a xlink:title=" ">
<path fill="none" stroke="#63b8ff" d="M210.31,-127.03C205.83,-117.69 198.66,-102.78 192.88,-90.76"/>
<polygon fill="#63b8ff" stroke="#63b8ff" points="196.04,-89.25 188.55,-81.76 189.73,-92.29 196.04,-89.25"/>
</a>
</g>
</g>
<!-- Node27&#45;&gt;Node3 -->
<g id="edge31_Node000027_Node000003" class="edge">
<title>Node27&#45;&gt;Node3</title>
<g id="a_edge31_Node000027_Node000003"><a xlink:title=" ">
<path fill="none" stroke="#63b8ff" d="M672.86,-243.2C673.48,-235.96 674.23,-227.09 674.9,-219.19"/>
<polygon fill="#63b8ff" stroke="#63b8ff" points="678.37,-219.72 675.73,-209.46 671.39,-219.13 678.37,-219.72"/>
</a>
</g>
</g>
<!-- Node27&#45;&gt;Node11 -->
<g id="edge32_Node000027_Node000011" class="edge">
<title>Node27&#45;&gt;Node11</title>
<g id="a_edge32_Node000027_Node000011"><a xlink:title=" ">
<path fill="none" stroke="#63b8ff" d="M701.91,-243.07C749.96,-219.77 842.99,-174.67 889.99,-151.89"/>
<polygon fill="#63b8ff" stroke="#63b8ff" points="891.25,-155.16 898.72,-147.65 888.2,-148.86 891.25,-155.16"/>
</a>
</g>
</g>
<!-- Node28&#45;&gt;Node27 -->
<g id="edge38_Node000028_Node000027" class="edge">
<title>Node28&#45;&gt;Node27</title>
<g id="a_edge38_Node000028_Node000027"><a xlink:title=" ">
<path fill="none" stroke="#63b8ff" d="M566.08,-364.89C580.31,-356.68 601,-343.64 616.62,-329.25 631.43,-315.61 645.46,-297.76 655.65,-283.57"/>
<polygon fill="#63b8ff" stroke="#63b8ff" points="658.32,-285.86 661.18,-275.66 652.58,-281.85 658.32,-285.86"/>
</a>
</g>
</g>
<!-- Node28&#45;&gt;Node29 -->
<g id="edge34_Node000028_Node000029" class="edge">
<title>Node28&#45;&gt;Node29</title>
<g id="a_edge34_Node000028_Node000029"><a xlink:title=" ">
<path fill="none" stroke="#63b8ff" d="M527.57,-364.84C506.94,-356.39 475.84,-343.65 452.32,-334.02"/>
<polygon fill="#63b8ff" stroke="#63b8ff" points="453.77,-330.83 443.19,-330.28 451.11,-337.31 453.77,-330.83"/>
</a>
</g>
</g>
<!-- Node29&#45;&gt;Node3 -->
<g id="edge35_Node000029_Node000003" class="edge">
<title>Node29&#45;&gt;Node3</title>
<g id="a_edge35_Node000029_Node000003"><a xlink:title=" ">
<path fill="none" stroke="#63b8ff" d="M438.95,-309.6C469.17,-295.48 529.46,-267.33 580.62,-243.5 602.77,-233.19 627.8,-221.55 646.75,-212.75"/>
<polygon fill="#63b8ff" stroke="#63b8ff" points="648.16,-215.95 655.76,-208.56 645.22,-209.6 648.16,-215.95"/>
</a>
</g>
</g>
<!-- Node29&#45;&gt;Node20 -->
<g id="edge36_Node000029_Node000020" class="edge">
<title>Node29&#45;&gt;Node20</title>
<g id="a_edge36_Node000029_Node000020"><a xlink:title=" ">
<path fill="none" stroke="#63b8ff" d="M418.2,-309.62C415.17,-290.55 408.05,-245.66 403.86,-219.26"/>
<polygon fill="#63b8ff" stroke="#63b8ff" points="407.33,-218.8 402.31,-209.48 400.42,-219.9 407.33,-218.8"/>
</a>
</g>
</g>
<!-- Node29&#45;&gt;Node27 -->
<g id="edge37_Node000029_Node000027" class="edge">
<title>Node29&#45;&gt;Node27</title>
<g id="a_edge37_Node000029_Node000027"><a xlink:title=" ">
<path fill="none" stroke="#63b8ff" d="M458.45,-309.55C498.45,-300.21 561.46,-285.49 608.62,-274.47"/>
<polygon fill="#63b8ff" stroke="#63b8ff" points="609.22,-277.93 618.16,-272.24 607.62,-271.11 609.22,-277.93"/>
</a>
</g>
</g>
<!-- Node30&#45;&gt;Node3 -->
<g id="edge41_Node000030_Node000003" class="edge">
<title>Node30&#45;&gt;Node3</title>
<g id="a_edge41_Node000030_Node000003"><a xlink:title=" ">
<path fill="none" stroke="#63b8ff" d="M787.08,-486.56C821.11,-469.94 885.62,-431.12 885.62,-375.88 885.62,-375.88 885.62,-375.88 885.62,-318.62 885.62,-251.7 803.94,-221.65 742.71,-208.53"/>
<polygon fill="#63b8ff" stroke="#63b8ff" points="743.52,-205.12 733.02,-206.57 742.13,-211.98 743.52,-205.12"/>
</a>
</g>
</g>
<!-- Node30&#45;&gt;Node11 -->
<g id="edge42_Node000030_Node000011" class="edge">
<title>Node30&#45;&gt;Node11</title>
<g id="a_edge42_Node000030_Node000011"><a xlink:title=" ">
<path fill="none" stroke="#63b8ff" d="M799.92,-486.54C846.01,-471.72 923.62,-437.58 923.62,-375.88 923.62,-375.88 923.62,-375.88 923.62,-257.75 923.62,-222.81 921.47,-182.19 919.99,-158.37"/>
<polygon fill="#63b8ff" stroke="#63b8ff" points="923.49,-158.27 919.36,-148.52 916.51,-158.72 923.49,-158.27"/>
</a>
</g>
</g>
<!-- Node30&#45;&gt;Node28 -->
<g id="edge43_Node000030_Node000028" class="edge">
<title>Node30&#45;&gt;Node28</title>
<g id="a_edge43_Node000030_Node000028"><a xlink:title=" ">
<path fill="none" stroke="#63b8ff" d="M741.13,-486.51C719.25,-478.31 687.13,-465.37 660.62,-451 627.45,-433.02 591.76,-407.67 570.06,-391.51"/>
<polygon fill="#63b8ff" stroke="#63b8ff" points="572.44,-388.91 562.34,-385.7 568.23,-394.51 572.44,-388.91"/>
</a>
</g>
</g>
<!-- Node31 -->
<g id="Node000031" class="node">
<title>Node31</title>
<g id="a_Node000031"><a xlink:href="../../da/d53/nt__traits2d_8h_source.html" target="_top" xlink:title=" ">
<polygon fill="white" stroke="#666666" points="773.5,-451 669.75,-451 669.75,-420.5 773.5,-420.5 773.5,-451"/>
<text text-anchor="start" x="677.75" y="-436.55" font-family="Arial" font-size="11.00">floppy/euclid/detail</text>
<text text-anchor="middle" x="721.62" y="-425.3" font-family="Arial" font-size="11.00">/nt_traits2d.h</text>
</a>
</g>
</g>
<!-- Node30&#45;&gt;Node31 -->
<g id="edge44_Node000030_Node000031" class="edge">
<title>Node30&#45;&gt;Node31</title>
<g id="a_edge44_Node000030_Node000031"><a xlink:title=" ">
<path fill="none" stroke="#63b8ff" d="M759.79,-486.68C754.41,-479.64 746.65,-469.48 739.53,-460.17"/>
<polygon fill="#63b8ff" stroke="#63b8ff" points="742.5,-458.3 733.65,-452.48 736.94,-462.56 742.5,-458.3"/>
</a>
</g>
</g>
<!-- Node31&#45;&gt;Node27 -->
<g id="edge49_Node000031_Node000027" class="edge">
<title>Node31&#45;&gt;Node27</title>
<g id="a_edge49_Node000031_Node000027"><a xlink:title=" ">
<path fill="none" stroke="#63b8ff" d="M711.25,-420.04C704.92,-410.37 697.19,-397.2 692.62,-384.5 680.81,-351.64 675.57,-311.48 673.3,-285.76"/>
<polygon fill="#63b8ff" stroke="#63b8ff" points="676.8,-285.59 672.52,-275.9 669.82,-286.14 676.8,-285.59"/>
</a>
</g>
</g>
<!-- Node31&#45;&gt;Node28 -->
<g id="edge48_Node000031_Node000028" class="edge">
<title>Node31&#45;&gt;Node28</title>
<g id="a_edge48_Node000031_Node000028"><a xlink:title=" ">
<path fill="none" stroke="#63b8ff" d="M678.67,-420.05C650.42,-410.38 613.82,-397.85 586.82,-388.61"/>
<polygon fill="#63b8ff" stroke="#63b8ff" points="588.28,-385.41 577.69,-385.48 586.02,-392.03 588.28,-385.41"/>
</a>
</g>
</g>
<!-- Node32 -->
<g id="Node000032" class="node">
<title>Node32</title>
<g id="a_Node000032"><a xlink:title=" ">
<polygon fill="#e0e0e0" stroke="#999999" points="800,-384.5 759.25,-384.5 759.25,-365.25 800,-365.25 800,-384.5"/>
<text text-anchor="middle" x="779.62" y="-370.05" font-family="Arial" font-size="11.00">array</text>
</a>
</g>
</g>
<!-- Node31&#45;&gt;Node32 -->
<g id="edge45_Node000031_Node000032" class="edge">
<title>Node31&#45;&gt;Node32</title>
<g id="a_edge45_Node000031_Node000032"><a xlink:title=" ">
<path fill="none" stroke="#63b8ff" d="M735.96,-420.2C744.03,-412.01 754.15,-401.73 762.62,-393.14"/>
<polygon fill="#63b8ff" stroke="#63b8ff" points="765.1,-395.61 769.62,-386.03 760.11,-390.7 765.1,-395.61"/>
</a>
</g>
</g>
<!-- Node33 -->
<g id="Node000033" class="node">
<title>Node33</title>
<g id="a_Node000033"><a xlink:title=" ">
<polygon fill="#e0e0e0" stroke="#999999" points="857.25,-384.5 818,-384.5 818,-365.25 857.25,-365.25 857.25,-384.5"/>
<text text-anchor="middle" x="837.62" y="-370.05" font-family="Arial" font-size="11.00">tuple</text>
</a>
</g>
</g>
<!-- Node31&#45;&gt;Node33 -->
<g id="edge46_Node000031_Node000033" class="edge">
<title>Node31&#45;&gt;Node33</title>
<g id="a_edge46_Node000031_Node000033"><a xlink:title=" ">
<path fill="none" stroke="#63b8ff" d="M750.6,-420.05C768.69,-410.86 791.85,-399.11 809.74,-390.03"/>
<polygon fill="#63b8ff" stroke="#63b8ff" points="811.15,-393.24 818.49,-385.59 807.98,-386.99 811.15,-393.24"/>
</a>
</g>
</g>
<!-- Node34 -->
<g id="Node000034" class="node">
<title>Node34</title>
<g id="a_Node000034"><a xlink:title=" ">
<polygon fill="#e0e0e0" stroke="#999999" points="741.62,-384.5 701.62,-384.5 701.62,-365.25 741.62,-365.25 741.62,-384.5"/>
<text text-anchor="middle" x="721.62" y="-370.05" font-family="Arial" font-size="11.00">utility</text>
</a>
</g>
</g>
<!-- Node31&#45;&gt;Node34 -->
<g id="edge47_Node000031_Node000034" class="edge">
<title>Node31&#45;&gt;Node34</title>
<g id="a_edge47_Node000031_Node000034"><a xlink:title=" ">
<path fill="none" stroke="#63b8ff" d="M721.62,-420.2C721.62,-412.96 721.62,-404.09 721.62,-396.19"/>
<polygon fill="#63b8ff" stroke="#63b8ff" points="725.13,-396.46 721.63,-386.46 718.13,-396.46 725.13,-396.46"/>
</a>
</g>
</g>
<!-- Node35&#45;&gt;Node28 -->
<g id="edge52_Node000035_Node000028" class="edge">
<title>Node35&#45;&gt;Node28</title>
<g id="a_edge52_Node000035_Node000028"><a xlink:title=" ">
<path fill="none" stroke="#63b8ff" d="M505.31,-597.07C499.67,-588.39 491.83,-574.71 488.62,-561.5 485.11,-547 485.98,-507.58 491.62,-487 501.23,-451.99 522.94,-415.42 536.91,-394.19"/>
<polygon fill="#63b8ff" stroke="#63b8ff" points="539.69,-396.33 542.38,-386.08 533.89,-392.41 539.69,-396.33"/>
</a>
</g>
</g>
<!-- Node35&#45;&gt;Node30 -->
<g id="edge53_Node000035_Node000030" class="edge">
<title>Node35&#45;&gt;Node30</title>
<g id="a_edge53_Node000035_Node000030"><a xlink:title=" ">
<path fill="none" stroke="#63b8ff" d="M573.37,-597.42C608.49,-590.82 652.54,-579.68 688.62,-561.5 712.44,-549.5 735.54,-529.16 750.34,-514.65"/>
<polygon fill="#63b8ff" stroke="#63b8ff" points="752.8,-517.15 757.35,-507.58 747.82,-512.22 752.8,-517.15"/>
</a>
</g>
</g>
<!-- Node35&#45;&gt;Node31 -->
<g id="edge60_Node000035_Node000031" class="edge">
<title>Node35&#45;&gt;Node31</title>
<g id="a_edge60_Node000035_Node000031"><a xlink:title=" ">
<path fill="none" stroke="#63b8ff" d="M507.48,-597.15C498.19,-575.54 478.46,-519.92 504.62,-487 523.57,-463.16 601.34,-449.63 658.39,-442.76"/>
<polygon fill="#63b8ff" stroke="#63b8ff" points="658.46,-446.27 667.99,-441.64 657.65,-439.32 658.46,-446.27"/>
</a>
</g>
</g>
<!-- Node36 -->
<g id="Node000036" class="node">
<title>Node36</title>
<g id="a_Node000036"><a xlink:title=" ">
<polygon fill="#e0e0e0" stroke="#999999" points="575.5,-506.25 513.75,-506.25 513.75,-487 575.5,-487 575.5,-506.25"/>
<text text-anchor="middle" x="544.62" y="-491.8" font-family="Arial" font-size="11.00">functional</text>
</a>
</g>
</g>
<!-- Node35&#45;&gt;Node36 -->
<g id="edge51_Node000035_Node000036" class="edge">
<title>Node35&#45;&gt;Node36</title>
<g id="a_edge51_Node000035_Node000036"><a xlink:title=" ">
<path fill="none" stroke="#63b8ff" d="M514.33,-597.25C519.6,-579.92 531.36,-541.23 538.58,-517.49"/>
<polygon fill="#63b8ff" stroke="#63b8ff" points="541.89,-518.66 541.45,-508.07 535.19,-516.62 541.89,-518.66"/>
</a>
</g>
</g>
<!-- Node35&#45;&gt;Node37 -->
<g id="edge54_Node000035_Node000037" class="edge">
<title>Node35&#45;&gt;Node37</title>
<g id="a_edge54_Node000035_Node000037"><a xlink:title=" ">
<path fill="none" stroke="#63b8ff" d="M529.27,-597.09C545.25,-588.91 569.08,-576.71 587.66,-567.19"/>
<polygon fill="#63b8ff" stroke="#63b8ff" points="589.24,-570.32 596.55,-562.64 586.05,-564.08 589.24,-570.32"/>
</a>
</g>
</g>
<!-- Node37&#45;&gt;Node2 -->
<g id="edge56_Node000037_Node000002" class="edge">
<title>Node37&#45;&gt;Node2</title>
<g id="a_edge56_Node000037_Node000002"><a xlink:title=" ">
<path fill="none" stroke="#63b8ff" d="M618.42,-542.05C626.75,-514.12 648.82,-425.88 616.62,-365.25 609.61,-352.04 596.75,-342.03 584.24,-334.88"/>
<polygon fill="#63b8ff" stroke="#63b8ff" points="586.22,-331.96 575.73,-330.44 582.98,-338.17 586.22,-331.96"/>
</a>
</g>
</g>
<!-- Node37&#45;&gt;Node28 -->
<g id="edge57_Node000037_Node000028" class="edge">
<title>Node37&#45;&gt;Node28</title>
<g id="a_edge57_Node000037_Node000028"><a xlink:title=" ">
<path fill="none" stroke="#63b8ff" d="M612.26,-541.96C602.07,-514.93 571.35,-433.49 557.07,-395.62"/>
<polygon fill="#63b8ff" stroke="#63b8ff" points="560.4,-394.52 553.6,-386.4 553.85,-396.99 560.4,-394.52"/>
</a>
</g>
</g>
<!-- Node37&#45;&gt;Node30 -->
<g id="edge58_Node000037_Node000030" class="edge">
<title>Node37&#45;&gt;Node30</title>
<g id="a_edge58_Node000037_Node000030"><a xlink:title=" ">
<path fill="none" stroke="#63b8ff" d="M641.24,-541.84C665.64,-533.24 702.64,-520.19 730.12,-510.5"/>
<polygon fill="#63b8ff" stroke="#63b8ff" points="731.19,-513.83 739.46,-507.21 728.86,-507.23 731.19,-513.83"/>
</a>
</g>
</g>
<!-- Node37&#45;&gt;Node31 -->
<g id="edge59_Node000037_Node000031" class="edge">
<title>Node37&#45;&gt;Node31</title>
<g id="a_edge59_Node000037_Node000031"><a xlink:title=" ">
<path fill="none" stroke="#63b8ff" d="M623.94,-541.92C640.27,-524.34 676.97,-484.83 700.44,-459.56"/>
<polygon fill="#63b8ff" stroke="#63b8ff" points="702.87,-462.09 707.11,-452.38 697.74,-457.32 702.87,-462.09"/>
</a>
</g>
</g>
<!-- Node37&#45;&gt;Node36 -->
<g id="edge55_Node000037_Node000036" class="edge">
<title>Node37&#45;&gt;Node36</title>
<g id="a_edge55_Node000037_Node000036"><a xlink:title=" ">
<path fill="none" stroke="#63b8ff" d="M603.58,-541.84C593.22,-534.07 578.02,-522.67 565.66,-513.4"/>
<polygon fill="#63b8ff" stroke="#63b8ff" points="567.8,-510.63 557.7,-507.43 563.6,-516.23 567.8,-510.63"/>
</a>
</g>
</g>
</g>
</svg>

<g id="navigator" transform="translate(0 0)" fill="#404254">
  <rect fill="#f2f5e9" fill-opacity="0.5" stroke="#606060" stroke-width=".5" x="0" y="0" width="60" height="60"/>
  <use id="zoomplus" xlink:href="#zoomPlus" x="17" y="9" onmousedown="handleZoom(evt,'in')"/>
  <use id="zoomminus" xlink:href="#zoomMin" x="42" y="9" onmousedown="handleZoom(evt,'out')"/>
  <use id="reset" xlink:href="#resetDef" x="30" y="36" onmousedown="handleReset()"/>
   <use id="arrowup" xlink:href="#arrowUp" x="0" y="0" onmousedown="handlePan(0,-1)"/>
  <use id="arrowright" xlink:href="#arrowRight" x="0" y="0" onmousedown="handlePan(1,0)"/>
  <use id="arrowdown" xlink:href="#arrowDown" x="0" y="0" onmousedown="handlePan(0,1)"/>
  <use id="arrowleft" xlink:href="#arrowLeft" x="0" y="0" onmousedown="handlePan(-1,0)"/>
</g>
<svg viewBox="0 0 15 15" width="100%" height="30px" preserveAspectRatio="xMaxYMin meet">
 <g id="arrow_out" transform="scale(0.3 0.3)">
  <a xlink:href="euclid_8h__incl_org.svg" target="_base">
   <rect id="button" ry="5" rx="5" y="6" x="6" height="38" width="38"
        fill="#f2f5e9" fill-opacity="0.5" stroke="#606060" stroke-width="1.0"/>
   <path id="arrow"
     d="M 11.500037,31.436501 C 11.940474,20.09759 22.043105,11.32322 32.158766,21.979434 L 37.068811,17.246167 C 37.068811,17.246167 37.088388,32 37.088388,32 L 22.160133,31.978069 C 22.160133,31.978069 26.997745,27.140456 26.997745,27.140456 C 18.528582,18.264221 13.291696,25.230495 11.500037,31.436501 z"
     style="fill:#404040;"/>
  </a>
 </g>
</svg>

<style type='text/css'>
<![CDATA[
[data-mouse-over-selected='false'] { opacity: 0.7; }
[data-mouse-over-selected='true']  { opacity: 1.0; }
]]>
</style>
<script type="application/ecmascript"><![CDATA[
document.addEventListener('DOMContentLoaded', (event) => {
  highlightEdges();
  highlightAdjacentNodes();
});
]]></script>
</svg>
