<?xml version="1.0" encoding="UTF-8" standalone="no"?>
<!DOCTYPE svg PUBLIC "-//W3C//DTD SVG 1.1//EN"
 "http://www.w3.org/Graphics/SVG/1.1/DTD/svg11.dtd">
<!-- Generated by graphviz version 10.0.1 (0)
 -->
<!-- Title: euclid.h Pages: 1 -->
<svg width="1040pt" height="570pt"
 viewBox="0.00 0.00 1039.75 569.50" xmlns="http://www.w3.org/2000/svg" xmlns:xlink="http://www.w3.org/1999/xlink">
<g id="graph0" class="graph" transform="scale(1 1) rotate(0) translate(4 565.5)">
<title>euclid.h</title>
<!-- Node1 -->
<g id="Node000001" class="node">
<title>Node1</title>
<g id="a_Node000001"><a xlink:title="Small collection of classes and functions for geometric types with a focus on 2d graphics and layout.">
<polygon fill="#999999" stroke="#666666" points="622.25,-561.5 569.5,-561.5 569.5,-542.25 622.25,-542.25 622.25,-561.5"/>
<text text-anchor="middle" x="595.88" y="-547.05" font-family="Arial" font-size="11.00">euclid.h</text>
</a>
</g>
</g>
<!-- Node2 -->
<g id="Node000002" class="node">
<title>Node2</title>
<g id="a_Node000002"><a xlink:href="../../da/dac/angle_8h.html" target="_top" xlink:title="Newtype describing an angle.">
<polygon fill="white" stroke="#666666" points="445.62,-329.25 332.12,-329.25 332.12,-310 445.62,-310 445.62,-329.25"/>
<text text-anchor="middle" x="388.88" y="-314.8" font-family="Arial" font-size="11.00">floppy/euclid/angle.h</text>
</a>
</g>
</g>
<!-- Node1&#45;&gt;Node2 -->
<g id="edge1_Node000001_Node000002" class="edge">
<title>Node1&#45;&gt;Node2</title>
<g id="a_edge1_Node000001_Node000002"><a xlink:title=" ">
<path fill="none" stroke="#63b8ff" d="M587.76,-541.85C556.78,-507.38 445.6,-383.72 404.39,-337.88"/>
<polygon fill="#63b8ff" stroke="#63b8ff" points="407.01,-335.56 397.72,-330.47 401.81,-340.24 407.01,-335.56"/>
</a>
</g>
</g>
<!-- Node27 -->
<g id="Node000027" class="node">
<title>Node27</title>
<g id="a_Node000027"><a xlink:href="../../dd/db9/length_8h.html" target="_top" xlink:title="A one&#45;dimensional distance with associated unit of measurement.">
<polygon fill="white" stroke="#666666" points="702.12,-384.5 585.62,-384.5 585.62,-365.25 702.12,-365.25 702.12,-384.5"/>
<text text-anchor="middle" x="643.88" y="-370.05" font-family="Arial" font-size="11.00">floppy/euclid/length.h</text>
</a>
</g>
</g>
<!-- Node1&#45;&gt;Node27 -->
<g id="edge32_Node000001_Node000027" class="edge">
<title>Node1&#45;&gt;Node27</title>
<g id="a_edge32_Node000001_Node000027"><a xlink:title=" ">
<path fill="none" stroke="#63b8ff" d="M598.32,-541.96C605.73,-514.93 628.07,-433.49 638.46,-395.62"/>
<polygon fill="#63b8ff" stroke="#63b8ff" points="641.71,-397.02 640.98,-386.45 634.96,-395.16 641.71,-397.02"/>
</a>
</g>
</g>
<!-- Node28 -->
<g id="Node000028" class="node">
<title>Node28</title>
<g id="a_Node000028"><a xlink:href="../../d8/d0c/scale_8h.html" target="_top" xlink:title="A scaling factor between two different units of measurement.">
<polygon fill="white" stroke="#666666" points="575.88,-329.25 463.88,-329.25 463.88,-310 575.88,-310 575.88,-329.25"/>
<text text-anchor="middle" x="519.88" y="-314.8" font-family="Arial" font-size="11.00">floppy/euclid/scale.h</text>
</a>
</g>
</g>
<!-- Node1&#45;&gt;Node28 -->
<g id="edge38_Node000001_Node000028" class="edge">
<title>Node1&#45;&gt;Node28</title>
<g id="a_edge38_Node000001_Node000028"><a xlink:title=" ">
<path fill="none" stroke="#63b8ff" d="M590.04,-541.92C579.22,-524.93 556.07,-486.5 543.88,-451 530.95,-413.39 524.54,-367.15 521.74,-341.07"/>
<polygon fill="#63b8ff" stroke="#63b8ff" points="525.23,-340.82 520.76,-331.22 518.26,-341.51 525.23,-340.82"/>
</a>
</g>
</g>
<!-- Node29 -->
<g id="Node000029" class="node">
<title>Node29</title>
<g id="a_Node000029"><a xlink:href="../../dc/df8/size2d_8h.html" target="_top" xlink:title="A two&#45;dimensional size tagged with a unit.">
<polygon fill="white" stroke="#666666" points="741.88,-506.25 623.88,-506.25 623.88,-487 741.88,-487 741.88,-506.25"/>
<text text-anchor="middle" x="682.88" y="-491.8" font-family="Arial" font-size="11.00">floppy/euclid/size2d.h</text>
</a>
</g>
</g>
<!-- Node1&#45;&gt;Node29 -->
<g id="edge39_Node000001_Node000029" class="edge">
<title>Node1&#45;&gt;Node29</title>
<g id="a_edge39_Node000001_Node000029"><a xlink:title=" ">
<path fill="none" stroke="#63b8ff" d="M610.63,-541.84C623.76,-533.81 643.2,-521.91 658.61,-512.48"/>
<polygon fill="#63b8ff" stroke="#63b8ff" points="660.05,-515.7 666.75,-507.49 656.4,-509.73 660.05,-515.7"/>
</a>
</g>
</g>
<!-- Node34 -->
<g id="Node000034" class="node">
<title>Node34</title>
<g id="a_Node000034"><a xlink:href="../../d4/d12/point2d_8h.html" target="_top" xlink:title="A two&#45;dimensional point tagged with a unit.">
<polygon fill="white" stroke="#666666" points="882.12,-506.25 759.62,-506.25 759.62,-487 882.12,-487 882.12,-506.25"/>
<text text-anchor="middle" x="820.88" y="-491.8" font-family="Arial" font-size="11.00">floppy/euclid/point2d.h</text>
</a>
</g>
</g>
<!-- Node1&#45;&gt;Node34 -->
<g id="edge49_Node000001_Node000034" class="edge">
<title>Node1&#45;&gt;Node34</title>
<g id="a_edge49_Node000001_Node000034"><a xlink:title=" ">
<path fill="none" stroke="#63b8ff" d="M622.57,-544.56C659.16,-535.9 725.58,-520.18 771.4,-509.33"/>
<polygon fill="#63b8ff" stroke="#63b8ff" points="772.18,-512.75 781.1,-507.04 770.56,-505.94 772.18,-512.75"/>
</a>
</g>
</g>
<!-- Node3 -->
<g id="Node000003" class="node">
<title>Node3</title>
<g id="a_Node000003"><a xlink:href="../../df/db1/math_8h_source.html" target="_top" xlink:title=" ">
<polygon fill="white" stroke="#666666" points="684.38,-207.5 575.38,-207.5 575.38,-188.25 684.38,-188.25 684.38,-207.5"/>
<text text-anchor="middle" x="629.88" y="-193.05" font-family="Arial" font-size="11.00">floppy/detail/math.h</text>
</a>
</g>
</g>
<!-- Node2&#45;&gt;Node3 -->
<g id="edge2_Node000002_Node000003" class="edge">
<title>Node2&#45;&gt;Node3</title>
<g id="a_edge2_Node000002_Node000003"><a xlink:title=" ">
<path fill="none" stroke="#63b8ff" d="M406.99,-309.62C448.6,-288.95 551.27,-237.93 601.41,-213.02"/>
<polygon fill="#63b8ff" stroke="#63b8ff" points="602.8,-216.24 610.2,-208.65 599.68,-209.97 602.8,-216.24"/>
</a>
</g>
</g>
<!-- Node19 -->
<g id="Node000019" class="node">
<title>Node19</title>
<g id="a_Node000019"><a xlink:href="../../dd/dff/traits_8h_source.html" target="_top" xlink:title=" ">
<polygon fill="white" stroke="#666666" points="403.75,-207.5 324,-207.5 324,-188.25 403.75,-188.25 403.75,-207.5"/>
<text text-anchor="middle" x="363.88" y="-193.05" font-family="Arial" font-size="11.00">floppy/traits.h</text>
</a>
</g>
</g>
<!-- Node2&#45;&gt;Node19 -->
<g id="edge19_Node000002_Node000019" class="edge">
<title>Node2&#45;&gt;Node19</title>
<g id="a_edge19_Node000002_Node000019"><a xlink:title=" ">
<path fill="none" stroke="#63b8ff" d="M387,-309.62C383,-290.47 373.56,-245.26 368.06,-218.9"/>
<polygon fill="#63b8ff" stroke="#63b8ff" points="371.56,-218.54 366.09,-209.46 364.7,-219.97 371.56,-218.54"/>
</a>
</g>
</g>
<!-- Node26 -->
<g id="Node000026" class="node">
<title>Node26</title>
<g id="a_Node000026"><a xlink:href="../../de/de1/nt__traits_8h_source.html" target="_top" xlink:title=" ">
<polygon fill="white" stroke="#666666" points="735.75,-274 632,-274 632,-243.5 735.75,-243.5 735.75,-274"/>
<text text-anchor="start" x="640" y="-259.55" font-family="Arial" font-size="11.00">floppy/euclid/detail</text>
<text text-anchor="middle" x="683.88" y="-248.3" font-family="Arial" font-size="11.00">/nt_traits.h</text>
</a>
</g>
</g>
<!-- Node2&#45;&gt;Node26 -->
<g id="edge29_Node000002_Node000026" class="edge">
<title>Node2&#45;&gt;Node26</title>
<g id="a_edge29_Node000002_Node000026"><a xlink:title=" ">
<path fill="none" stroke="#63b8ff" d="M434.32,-309.55C484.14,-299.61 564.43,-283.59 620.44,-272.41"/>
<polygon fill="#63b8ff" stroke="#63b8ff" points="621.05,-275.86 630.17,-270.47 619.68,-268.99 621.05,-275.86"/>
</a>
</g>
</g>
<!-- Node4 -->
<g id="Node000004" class="node">
<title>Node4</title>
<g id="a_Node000004"><a xlink:title=" ">
<polygon fill="#e0e0e0" stroke="#999999" points="624.5,-146.62 579.25,-146.62 579.25,-127.38 624.5,-127.38 624.5,-146.62"/>
<text text-anchor="middle" x="601.88" y="-132.18" font-family="Arial" font-size="11.00">cmath</text>
</a>
</g>
</g>
<!-- Node3&#45;&gt;Node4 -->
<g id="edge3_Node000003_Node000004" class="edge">
<title>Node3&#45;&gt;Node4</title>
<g id="a_edge3_Node000003_Node000004"><a xlink:title=" ">
<path fill="none" stroke="#63b8ff" d="M625.62,-187.93C621.76,-179.81 615.93,-167.54 611.01,-157.2"/>
<polygon fill="#63b8ff" stroke="#63b8ff" points="614.27,-155.92 606.82,-148.39 607.95,-158.93 614.27,-155.92"/>
</a>
</g>
</g>
<!-- Node5 -->
<g id="Node000005" class="node">
<title>Node5</title>
<g id="a_Node000005"><a xlink:title=" ">
<polygon fill="#e0e0e0" stroke="#999999" points="682.88,-146.62 642.88,-146.62 642.88,-127.38 682.88,-127.38 682.88,-146.62"/>
<text text-anchor="middle" x="662.88" y="-132.18" font-family="Arial" font-size="11.00">limits</text>
</a>
</g>
</g>
<!-- Node3&#45;&gt;Node5 -->
<g id="edge4_Node000003_Node000005" class="edge">
<title>Node3&#45;&gt;Node5</title>
<g id="a_edge4_Node000003_Node000005"><a xlink:title=" ">
<path fill="none" stroke="#63b8ff" d="M634.89,-187.93C639.49,-179.72 646.46,-167.28 652.3,-156.87"/>
<polygon fill="#63b8ff" stroke="#63b8ff" points="655.24,-158.78 657.08,-148.35 649.13,-155.36 655.24,-158.78"/>
</a>
</g>
</g>
<!-- Node6 -->
<g id="Node000006" class="node">
<title>Node6</title>
<g id="a_Node000006"><a xlink:title=" ">
<polygon fill="#e0e0e0" stroke="#999999" points="758.88,-146.62 700.88,-146.62 700.88,-127.38 758.88,-127.38 758.88,-146.62"/>
<text text-anchor="middle" x="729.88" y="-132.18" font-family="Arial" font-size="11.00">numbers</text>
</a>
</g>
</g>
<!-- Node3&#45;&gt;Node6 -->
<g id="edge5_Node000003_Node000006" class="edge">
<title>Node3&#45;&gt;Node6</title>
<g id="a_edge5_Node000003_Node000006"><a xlink:title=" ">
<path fill="none" stroke="#63b8ff" d="M645.06,-187.93C660.92,-178.6 686.06,-163.8 704.85,-152.73"/>
<polygon fill="#63b8ff" stroke="#63b8ff" points="706.4,-155.88 713.24,-147.79 702.85,-149.85 706.4,-155.88"/>
</a>
</g>
</g>
<!-- Node7 -->
<g id="Node000007" class="node">
<title>Node7</title>
<g id="a_Node000007"><a xlink:title=" ">
<polygon fill="#e0e0e0" stroke="#999999" points="834.88,-146.62 776.88,-146.62 776.88,-127.38 834.88,-127.38 834.88,-146.62"/>
<text text-anchor="middle" x="805.88" y="-132.18" font-family="Arial" font-size="11.00">compare</text>
</a>
</g>
</g>
<!-- Node3&#45;&gt;Node7 -->
<g id="edge6_Node000003_Node000007" class="edge">
<title>Node3&#45;&gt;Node7</title>
<g id="a_edge6_Node000003_Node000007"><a xlink:title=" ">
<path fill="none" stroke="#63b8ff" d="M659.35,-187.78C687.38,-179.02 730.67,-165.23 767.88,-152.25 769.04,-151.84 770.22,-151.43 771.41,-151"/>
<polygon fill="#63b8ff" stroke="#63b8ff" points="772.6,-154.29 780.8,-147.58 770.2,-147.72 772.6,-154.29"/>
</a>
</g>
</g>
<!-- Node8 -->
<g id="Node000008" class="node">
<title>Node8</title>
<g id="a_Node000008"><a xlink:href="../../db/db5/export_8h_source.html" target="_top" xlink:title=" ">
<polygon fill="white" stroke="#666666" points="561.38,-146.62 446.38,-146.62 446.38,-127.38 561.38,-127.38 561.38,-146.62"/>
<text text-anchor="middle" x="503.88" y="-132.18" font-family="Arial" font-size="11.00">floppy/detail/export.h</text>
</a>
</g>
</g>
<!-- Node3&#45;&gt;Node8 -->
<g id="edge7_Node000003_Node000008" class="edge">
<title>Node3&#45;&gt;Node8</title>
<g id="a_edge7_Node000003_Node000008"><a xlink:title=" ">
<path fill="none" stroke="#63b8ff" d="M610.46,-187.8C589.87,-178.18 557.09,-162.87 533.32,-151.76"/>
<polygon fill="#63b8ff" stroke="#63b8ff" points="535.01,-148.69 524.47,-147.62 532.05,-155.03 535.01,-148.69"/>
</a>
</g>
</g>
<!-- Node11 -->
<g id="Node000011" class="node">
<title>Node11</title>
<g id="a_Node000011"><a xlink:href="../../d9/db1/concepts_8h_source.html" target="_top" xlink:title=" ">
<polygon fill="white" stroke="#666666" points="980.75,-146.62 853,-146.62 853,-127.38 980.75,-127.38 980.75,-146.62"/>
<text text-anchor="middle" x="916.88" y="-132.18" font-family="Arial" font-size="11.00">floppy/detail/concepts.h</text>
</a>
</g>
</g>
<!-- Node3&#45;&gt;Node11 -->
<g id="edge10_Node000003_Node000011" class="edge">
<title>Node3&#45;&gt;Node11</title>
<g id="a_edge10_Node000003_Node000011"><a xlink:title=" ">
<path fill="none" stroke="#63b8ff" d="M674.09,-187.8C724.44,-177.48 806.78,-160.58 861.4,-149.38"/>
<polygon fill="#63b8ff" stroke="#63b8ff" points="862.03,-152.82 871.13,-147.38 860.63,-145.97 862.03,-152.82"/>
</a>
</g>
</g>
<!-- Node9 -->
<g id="Node000009" class="node">
<title>Node9</title>
<g id="a_Node000009"><a xlink:title=" ">
<polygon fill="#e0e0e0" stroke="#999999" points="525,-80.12 482.75,-80.12 482.75,-60.88 525,-60.88 525,-80.12"/>
<text text-anchor="middle" x="503.88" y="-65.67" font-family="Arial" font-size="11.00">string</text>
</a>
</g>
</g>
<!-- Node8&#45;&gt;Node9 -->
<g id="edge8_Node000008_Node000009" class="edge">
<title>Node8&#45;&gt;Node9</title>
<g id="a_edge8_Node000008_Node000009"><a xlink:title=" ">
<path fill="none" stroke="#63b8ff" d="M503.88,-127.03C503.88,-117.98 503.88,-103.7 503.88,-91.88"/>
<polygon fill="#63b8ff" stroke="#63b8ff" points="507.38,-91.91 503.88,-81.91 500.38,-91.91 507.38,-91.91"/>
</a>
</g>
</g>
<!-- Node10 -->
<g id="Node000010" class="node">
<title>Node10</title>
<g id="a_Node000010"><a xlink:title=" ">
<polygon fill="#e0e0e0" stroke="#999999" points="369.88,-80.12 299.88,-80.12 299.88,-60.88 369.88,-60.88 369.88,-80.12"/>
<text text-anchor="middle" x="334.88" y="-65.67" font-family="Arial" font-size="11.00">string_view</text>
</a>
</g>
</g>
<!-- Node8&#45;&gt;Node10 -->
<g id="edge9_Node000008_Node000010" class="edge">
<title>Node8&#45;&gt;Node10</title>
<g id="a_edge9_Node000008_Node000010"><a xlink:title=" ">
<path fill="none" stroke="#63b8ff" d="M480.02,-126.9C451.08,-115.85 402.09,-97.15 369.12,-84.57"/>
<polygon fill="#63b8ff" stroke="#63b8ff" points="370.61,-81.39 360.02,-81.1 368.12,-87.93 370.61,-81.39"/>
</a>
</g>
</g>
<!-- Node12 -->
<g id="Node000012" class="node">
<title>Node12</title>
<g id="a_Node000012"><a xlink:href="../../df/d63/type__traits_8h_source.html" target="_top" xlink:title=" ">
<polygon fill="white" stroke="#666666" points="965,-85.75 868.75,-85.75 868.75,-55.25 965,-55.25 965,-85.75"/>
<text text-anchor="start" x="876.75" y="-71.3" font-family="Arial" font-size="11.00">floppy/detail/type</text>
<text text-anchor="middle" x="916.88" y="-60.05" font-family="Arial" font-size="11.00">_traits.h</text>
</a>
</g>
</g>
<!-- Node11&#45;&gt;Node12 -->
<g id="edge11_Node000011_Node000012" class="edge">
<title>Node11&#45;&gt;Node12</title>
<g id="a_edge11_Node000011_Node000012"><a xlink:title=" ">
<path fill="none" stroke="#63b8ff" d="M916.88,-127.03C916.88,-119.29 916.88,-107.7 916.88,-97.12"/>
<polygon fill="#63b8ff" stroke="#63b8ff" points="920.38,-97.36 916.88,-87.36 913.38,-97.36 920.38,-97.36"/>
</a>
</g>
</g>
<!-- Node14 -->
<g id="Node000014" class="node">
<title>Node14</title>
<g id="a_Node000014"><a xlink:href="../../d9/d49/types_8h_source.html" target="_top" xlink:title=" ">
<polygon fill="white" stroke="#666666" points="839.12,-80.12 728.62,-80.12 728.62,-60.88 839.12,-60.88 839.12,-80.12"/>
<text text-anchor="middle" x="783.88" y="-65.67" font-family="Arial" font-size="11.00">floppy/detail/types.h</text>
</a>
</g>
</g>
<!-- Node11&#45;&gt;Node14 -->
<g id="edge13_Node000011_Node000014" class="edge">
<title>Node11&#45;&gt;Node14</title>
<g id="a_edge13_Node000011_Node000014"><a xlink:title=" ">
<path fill="none" stroke="#63b8ff" d="M898.1,-126.9C875.92,-116.14 838.77,-98.12 812.88,-85.57"/>
<polygon fill="#63b8ff" stroke="#63b8ff" points="814.44,-82.43 803.91,-81.22 811.39,-88.73 814.44,-82.43"/>
</a>
</g>
</g>
<!-- Node13 -->
<g id="Node000013" class="node">
<title>Node13</title>
<g id="a_Node000013"><a xlink:title=" ">
<polygon fill="#e0e0e0" stroke="#999999" points="949.62,-19.25 884.12,-19.25 884.12,0 949.62,0 949.62,-19.25"/>
<text text-anchor="middle" x="916.88" y="-4.8" font-family="Arial" font-size="11.00">type_traits</text>
</a>
</g>
</g>
<!-- Node12&#45;&gt;Node13 -->
<g id="edge12_Node000012_Node000013" class="edge">
<title>Node12&#45;&gt;Node13</title>
<g id="a_edge12_Node000012_Node000013"><a xlink:title=" ">
<path fill="none" stroke="#63b8ff" d="M916.88,-54.95C916.88,-47.71 916.88,-38.84 916.88,-30.94"/>
<polygon fill="#63b8ff" stroke="#63b8ff" points="920.38,-31.21 916.88,-21.21 913.38,-31.21 920.38,-31.21"/>
</a>
</g>
</g>
<!-- Node14&#45;&gt;Node13 -->
<g id="edge17_Node000014_Node000013" class="edge">
<title>Node14&#45;&gt;Node13</title>
<g id="a_edge17_Node000014_Node000013"><a xlink:title=" ">
<path fill="none" stroke="#63b8ff" d="M804.36,-60.43C826.2,-50.76 861.01,-35.35 886.14,-24.23"/>
<polygon fill="#63b8ff" stroke="#63b8ff" points="887.47,-27.47 895.2,-20.22 884.64,-21.07 887.47,-27.47"/>
</a>
</g>
</g>
<!-- Node15 -->
<g id="Node000015" class="node">
<title>Node15</title>
<g id="a_Node000015"><a xlink:title=" ">
<polygon fill="#e0e0e0" stroke="#999999" points="866.12,-19.25 815.62,-19.25 815.62,0 866.12,0 866.12,-19.25"/>
<text text-anchor="middle" x="840.88" y="-4.8" font-family="Arial" font-size="11.00">cstddef</text>
</a>
</g>
</g>
<!-- Node14&#45;&gt;Node15 -->
<g id="edge14_Node000014_Node000015" class="edge">
<title>Node14&#45;&gt;Node15</title>
<g id="a_edge14_Node000014_Node000015"><a xlink:title=" ">
<path fill="none" stroke="#63b8ff" d="M792.53,-60.56C800.9,-51.91 813.8,-38.59 824.18,-27.87"/>
<polygon fill="#63b8ff" stroke="#63b8ff" points="826.64,-30.36 831.08,-20.74 821.61,-25.49 826.64,-30.36"/>
</a>
</g>
</g>
<!-- Node16 -->
<g id="Node000016" class="node">
<title>Node16</title>
<g id="a_Node000016"><a xlink:title=" ">
<polygon fill="#e0e0e0" stroke="#999999" points="726.25,-19.25 679.5,-19.25 679.5,0 726.25,0 726.25,-19.25"/>
<text text-anchor="middle" x="702.88" y="-4.8" font-family="Arial" font-size="11.00">cstdint</text>
</a>
</g>
</g>
<!-- Node14&#45;&gt;Node16 -->
<g id="edge15_Node000014_Node000016" class="edge">
<title>Node14&#45;&gt;Node16</title>
<g id="a_edge15_Node000014_Node000016"><a xlink:title=" ">
<path fill="none" stroke="#63b8ff" d="M771.57,-60.56C759.08,-51.48 739.49,-37.24 724.42,-26.29"/>
<polygon fill="#63b8ff" stroke="#63b8ff" points="726.66,-23.59 716.52,-20.54 722.55,-29.25 726.66,-23.59"/>
</a>
</g>
</g>
<!-- Node17 -->
<g id="Node000017" class="node">
<title>Node17</title>
<g id="a_Node000017"><a xlink:title=" ">
<polygon fill="#e0e0e0" stroke="#999999" points="797.62,-19.25 744.12,-19.25 744.12,0 797.62,0 797.62,-19.25"/>
<text text-anchor="middle" x="770.88" y="-4.8" font-family="Arial" font-size="11.00">optional</text>
</a>
</g>
</g>
<!-- Node14&#45;&gt;Node17 -->
<g id="edge16_Node000014_Node000017" class="edge">
<title>Node14&#45;&gt;Node17</title>
<g id="a_edge16_Node000014_Node000017"><a xlink:title=" ">
<path fill="none" stroke="#63b8ff" d="M781.9,-60.56C780.16,-52.69 777.57,-40.95 775.34,-30.82"/>
<polygon fill="#63b8ff" stroke="#63b8ff" points="778.77,-30.14 773.19,-21.13 771.93,-31.65 778.77,-30.14"/>
</a>
</g>
</g>
<!-- Node18 -->
<g id="Node000018" class="node">
<title>Node18</title>
<g id="a_Node000018"><a xlink:title=" ">
<polygon fill="#e0e0e0" stroke="#999999" points="369.75,-19.25 296,-19.25 296,0 369.75,0 369.75,-19.25"/>
<text text-anchor="middle" x="332.88" y="-4.8" font-family="Arial" font-size="11.00">fmt/format.h</text>
</a>
</g>
</g>
<!-- Node14&#45;&gt;Node18 -->
<g id="edge18_Node000014_Node000018" class="edge">
<title>Node14&#45;&gt;Node18</title>
<g id="a_edge18_Node000014_Node000018"><a xlink:title=" ">
<path fill="none" stroke="#63b8ff" d="M728.57,-62.28C639.5,-50.65 465.72,-27.97 381.27,-16.94"/>
<polygon fill="#63b8ff" stroke="#63b8ff" points="381.83,-13.49 371.46,-15.66 380.93,-20.43 381.83,-13.49"/>
</a>
</g>
</g>
<!-- Node19&#45;&gt;Node8 -->
<g id="edge23_Node000019_Node000008" class="edge">
<title>Node19&#45;&gt;Node8</title>
<g id="a_edge23_Node000019_Node000008"><a xlink:title=" ">
<path fill="none" stroke="#63b8ff" d="M385.44,-187.8C408.63,-178.05 445.73,-162.45 472.23,-151.31"/>
<polygon fill="#63b8ff" stroke="#63b8ff" points="473.26,-154.67 481.12,-147.57 470.54,-148.22 473.26,-154.67"/>
</a>
</g>
</g>
<!-- Node20 -->
<g id="Node000020" class="node">
<title>Node20</title>
<g id="a_Node000020"><a xlink:title=" ">
<polygon fill="#e0e0e0" stroke="#999999" points="206.38,-146.62 151.38,-146.62 151.38,-127.38 206.38,-127.38 206.38,-146.62"/>
<text text-anchor="middle" x="178.88" y="-132.18" font-family="Arial" font-size="11.00">memory</text>
</a>
</g>
</g>
<!-- Node19&#45;&gt;Node20 -->
<g id="edge20_Node000019_Node000020" class="edge">
<title>Node19&#45;&gt;Node20</title>
<g id="a_edge20_Node000019_Node000020"><a xlink:title=" ">
<path fill="none" stroke="#63b8ff" d="M330.47,-187.76C300.1,-179.26 254.16,-165.88 214.88,-152.25 213.73,-151.85 212.57,-151.44 211.4,-151.02"/>
<polygon fill="#63b8ff" stroke="#63b8ff" points="212.86,-147.83 202.26,-147.58 210.39,-154.38 212.86,-147.83"/>
</a>
</g>
</g>
<!-- Node21 -->
<g id="Node000021" class="node">
<title>Node21</title>
<g id="a_Node000021"><a xlink:title=" ">
<polygon fill="#e0e0e0" stroke="#999999" points="281.5,-146.62 224.25,-146.62 224.25,-127.38 281.5,-127.38 281.5,-146.62"/>
<text text-anchor="middle" x="252.88" y="-132.18" font-family="Arial" font-size="11.00">iostream</text>
</a>
</g>
</g>
<!-- Node19&#45;&gt;Node21 -->
<g id="edge21_Node000019_Node000021" class="edge">
<title>Node19&#45;&gt;Node21</title>
<g id="a_edge21_Node000019_Node000021"><a xlink:title=" ">
<path fill="none" stroke="#63b8ff" d="M347.02,-187.93C329.17,-178.47 300.74,-163.39 279.78,-152.27"/>
<polygon fill="#63b8ff" stroke="#63b8ff" points="281.7,-149.33 271.23,-147.74 278.42,-155.51 281.7,-149.33"/>
</a>
</g>
</g>
<!-- Node22 -->
<g id="Node000022" class="node">
<title>Node22</title>
<g id="a_Node000022"><a xlink:title=" ">
<polygon fill="#e0e0e0" stroke="#999999" points="428.5,-152.25 299.25,-152.25 299.25,-121.75 428.5,-121.75 428.5,-152.25"/>
<text text-anchor="start" x="307.25" y="-137.8" font-family="Arial" font-size="11.00">experimental/propagate</text>
<text text-anchor="middle" x="363.88" y="-126.55" font-family="Arial" font-size="11.00">_const</text>
</a>
</g>
</g>
<!-- Node19&#45;&gt;Node22 -->
<g id="edge22_Node000019_Node000022" class="edge">
<title>Node19&#45;&gt;Node22</title>
<g id="a_edge22_Node000019_Node000022"><a xlink:title=" ">
<path fill="none" stroke="#63b8ff" d="M363.88,-187.93C363.88,-181.48 363.88,-172.41 363.88,-163.76"/>
<polygon fill="#63b8ff" stroke="#63b8ff" points="367.38,-164.05 363.88,-154.05 360.38,-164.05 367.38,-164.05"/>
</a>
</g>
</g>
<!-- Node23 -->
<g id="Node000023" class="node">
<title>Node23</title>
<g id="a_Node000023"><a xlink:href="../../d6/d45/formatters_8h_source.html" target="_top" xlink:title=" ">
<polygon fill="white" stroke="#666666" points="133.75,-146.62 0,-146.62 0,-127.38 133.75,-127.38 133.75,-146.62"/>
<text text-anchor="middle" x="66.88" y="-132.18" font-family="Arial" font-size="11.00">floppy/detail/formatters.h</text>
</a>
</g>
</g>
<!-- Node19&#45;&gt;Node23 -->
<g id="edge24_Node000019_Node000023" class="edge">
<title>Node19&#45;&gt;Node23</title>
<g id="a_edge24_Node000019_Node000023"><a xlink:title=" ">
<path fill="none" stroke="#63b8ff" d="M323.51,-188.87C271.92,-178.65 182.28,-160.88 123.77,-149.28"/>
<polygon fill="#63b8ff" stroke="#63b8ff" points="124.48,-145.85 113.99,-147.34 123.12,-152.72 124.48,-145.85"/>
</a>
</g>
</g>
<!-- Node23&#45;&gt;Node10 -->
<g id="edge25_Node000023_Node000010" class="edge">
<title>Node23&#45;&gt;Node10</title>
<g id="a_edge25_Node000023_Node000010"><a xlink:title=" ">
<path fill="none" stroke="#63b8ff" d="M104.7,-126.9C153.1,-115.25 236.86,-95.09 288.88,-82.57"/>
<polygon fill="#63b8ff" stroke="#63b8ff" points="289.42,-86.04 298.32,-80.3 287.78,-79.23 289.42,-86.04"/>
</a>
</g>
</g>
<!-- Node23&#45;&gt;Node18 -->
<g id="edge28_Node000023_Node000018" class="edge">
<title>Node23&#45;&gt;Node18</title>
<g id="a_edge28_Node000023_Node000018"><a xlink:title=" ">
<path fill="none" stroke="#63b8ff" d="M62.22,-126.99C54.48,-110.61 41.44,-75.75 58.88,-55.25 87.27,-21.86 213.61,-13.39 284.4,-11.28"/>
<polygon fill="#63b8ff" stroke="#63b8ff" points="284.26,-14.79 294.17,-11.03 284.08,-7.79 284.26,-14.79"/>
</a>
</g>
</g>
<!-- Node24 -->
<g id="Node000024" class="node">
<title>Node24</title>
<g id="a_Node000024"><a xlink:title=" ">
<polygon fill="#e0e0e0" stroke="#999999" points="122,-80.12 67.75,-80.12 67.75,-60.88 122,-60.88 122,-80.12"/>
<text text-anchor="middle" x="94.88" y="-65.67" font-family="Arial" font-size="11.00">sstream</text>
</a>
</g>
</g>
<!-- Node23&#45;&gt;Node24 -->
<g id="edge26_Node000023_Node000024" class="edge">
<title>Node23&#45;&gt;Node24</title>
<g id="a_edge26_Node000023_Node000024"><a xlink:title=" ">
<path fill="none" stroke="#63b8ff" d="M70.77,-127.03C74.82,-117.69 81.3,-102.78 86.52,-90.76"/>
<polygon fill="#63b8ff" stroke="#63b8ff" points="89.64,-92.35 90.41,-81.78 83.22,-89.56 89.64,-92.35"/>
</a>
</g>
</g>
<!-- Node25 -->
<g id="Node000025" class="node">
<title>Node25</title>
<g id="a_Node000025"><a xlink:title=" ">
<polygon fill="#e0e0e0" stroke="#999999" points="187.25,-80.12 140.5,-80.12 140.5,-60.88 187.25,-60.88 187.25,-80.12"/>
<text text-anchor="middle" x="163.88" y="-65.67" font-family="Arial" font-size="11.00">iosfwd</text>
</a>
</g>
</g>
<!-- Node23&#45;&gt;Node25 -->
<g id="edge27_Node000023_Node000025" class="edge">
<title>Node23&#45;&gt;Node25</title>
<g id="a_edge27_Node000023_Node000025"><a xlink:title=" ">
<path fill="none" stroke="#63b8ff" d="M80.36,-127.03C95.98,-116.64 121.98,-99.36 140.82,-86.83"/>
<polygon fill="#63b8ff" stroke="#63b8ff" points="142.54,-89.89 148.93,-81.44 138.66,-84.06 142.54,-89.89"/>
</a>
</g>
</g>
<!-- Node26&#45;&gt;Node3 -->
<g id="edge30_Node000026_Node000003" class="edge">
<title>Node26&#45;&gt;Node3</title>
<g id="a_edge30_Node000026_Node000003"><a xlink:title=" ">
<path fill="none" stroke="#63b8ff" d="M670.53,-243.2C663.1,-235.09 653.79,-224.95 645.96,-216.41"/>
<polygon fill="#63b8ff" stroke="#63b8ff" points="648.56,-214.07 639.22,-209.07 643.4,-218.8 648.56,-214.07"/>
</a>
</g>
</g>
<!-- Node26&#45;&gt;Node11 -->
<g id="edge31_Node000026_Node000011" class="edge">
<title>Node26&#45;&gt;Node11</title>
<g id="a_edge31_Node000026_Node000011"><a xlink:title=" ">
<path fill="none" stroke="#63b8ff" d="M712.45,-243.07C757.57,-219.87 844.79,-175.05 889.3,-152.17"/>
<polygon fill="#63b8ff" stroke="#63b8ff" points="890.75,-155.36 898.04,-147.68 887.55,-149.14 890.75,-155.36"/>
</a>
</g>
</g>
<!-- Node27&#45;&gt;Node26 -->
<g id="edge37_Node000027_Node000026" class="edge">
<title>Node27&#45;&gt;Node26</title>
<g id="a_edge37_Node000027_Node000026"><a xlink:title=" ">
<path fill="none" stroke="#63b8ff" d="M647.01,-364.92C652.99,-347.88 666.18,-310.23 675.06,-284.91"/>
<polygon fill="#63b8ff" stroke="#63b8ff" points="678.28,-286.29 678.29,-275.7 671.67,-283.98 678.28,-286.29"/>
</a>
</g>
</g>
<!-- Node27&#45;&gt;Node28 -->
<g id="edge33_Node000027_Node000028" class="edge">
<title>Node27&#45;&gt;Node28</title>
<g id="a_edge33_Node000027_Node000028"><a xlink:title=" ">
<path fill="none" stroke="#63b8ff" d="M622.84,-364.84C603.24,-356.43 573.77,-343.77 551.37,-334.15"/>
<polygon fill="#63b8ff" stroke="#63b8ff" points="552.97,-331.03 542.4,-330.3 550.21,-337.46 552.97,-331.03"/>
</a>
</g>
</g>
<!-- Node28&#45;&gt;Node3 -->
<g id="edge34_Node000028_Node000003" class="edge">
<title>Node28&#45;&gt;Node3</title>
<g id="a_edge34_Node000028_Node000003"><a xlink:title=" ">
<path fill="none" stroke="#63b8ff" d="M528.14,-309.62C546.3,-289.86 589.93,-242.37 613.72,-216.46"/>
<polygon fill="#63b8ff" stroke="#63b8ff" points="616.3,-218.83 620.49,-209.09 611.14,-214.09 616.3,-218.83"/>
</a>
</g>
</g>
<!-- Node28&#45;&gt;Node19 -->
<g id="edge35_Node000028_Node000019" class="edge">
<title>Node28&#45;&gt;Node19</title>
<g id="a_edge35_Node000028_Node000019"><a xlink:title=" ">
<path fill="none" stroke="#63b8ff" d="M508.15,-309.62C481.84,-289.43 417.8,-240.27 384.6,-214.78"/>
<polygon fill="#63b8ff" stroke="#63b8ff" points="387,-212.21 376.94,-208.9 382.74,-217.77 387,-212.21"/>
</a>
</g>
</g>
<!-- Node28&#45;&gt;Node26 -->
<g id="edge36_Node000028_Node000026" class="edge">
<title>Node28&#45;&gt;Node26</title>
<g id="a_edge36_Node000028_Node000026"><a xlink:title=" ">
<path fill="none" stroke="#63b8ff" d="M545.14,-309.55C568.25,-301.26 603.14,-288.73 632.15,-278.32"/>
<polygon fill="#63b8ff" stroke="#63b8ff" points="633.29,-281.63 641.52,-274.96 630.92,-275.04 633.29,-281.63"/>
</a>
</g>
</g>
<!-- Node29&#45;&gt;Node3 -->
<g id="edge40_Node000029_Node000003" class="edge">
<title>Node29&#45;&gt;Node3</title>
<g id="a_edge40_Node000029_Node000003"><a xlink:title=" ">
<path fill="none" stroke="#63b8ff" d="M669.13,-486.65C644.97,-469.96 595.71,-431.53 576.88,-384.5 573.69,-376.56 575.56,-373.7 576.88,-365.25 581.39,-336.19 609.5,-255.63 622.85,-218.31"/>
<polygon fill="#63b8ff" stroke="#63b8ff" points="626.01,-219.85 626.11,-209.26 619.43,-217.48 626.01,-219.85"/>
</a>
</g>
</g>
<!-- Node29&#45;&gt;Node11 -->
<g id="edge41_Node000029_Node000011" class="edge">
<title>Node29&#45;&gt;Node11</title>
<g id="a_edge41_Node000029_Node000011"><a xlink:title=" ">
<path fill="none" stroke="#63b8ff" d="M730.53,-486.56C762.27,-479.44 804.33,-467.88 838.88,-451 889.79,-426.13 941.88,-432.54 941.88,-375.88 941.88,-375.88 941.88,-375.88 941.88,-257.75 941.88,-221.92 931.02,-181.32 923.62,-157.79"/>
<polygon fill="#63b8ff" stroke="#63b8ff" points="926.95,-156.73 920.51,-148.32 920.3,-158.91 926.95,-156.73"/>
</a>
</g>
</g>
<!-- Node29&#45;&gt;Node27 -->
<g id="edge42_Node000029_Node000027" class="edge">
<title>Node29&#45;&gt;Node27</title>
<g id="a_edge42_Node000029_Node000027"><a xlink:title=" ">
<path fill="none" stroke="#63b8ff" d="M679.94,-486.62C673.7,-467.47 658.98,-422.26 650.4,-395.9"/>
<polygon fill="#63b8ff" stroke="#63b8ff" points="653.73,-394.84 647.31,-386.42 647.08,-397.01 653.73,-394.84"/>
</a>
</g>
</g>
<!-- Node30 -->
<g id="Node000030" class="node">
<title>Node30</title>
<g id="a_Node000030"><a xlink:href="../../da/d53/nt__traits2d_8h_source.html" target="_top" xlink:title=" ">
<polygon fill="white" stroke="#666666" points="829.75,-451 726,-451 726,-420.5 829.75,-420.5 829.75,-451"/>
<text text-anchor="start" x="734" y="-436.55" font-family="Arial" font-size="11.00">floppy/euclid/detail</text>
<text text-anchor="middle" x="777.88" y="-425.3" font-family="Arial" font-size="11.00">/nt_traits2d.h</text>
</a>
</g>
</g>
<!-- Node29&#45;&gt;Node30 -->
<g id="edge43_Node000029_Node000030" class="edge">
<title>Node29&#45;&gt;Node30</title>
<g id="a_edge43_Node000029_Node000030"><a xlink:title=" ">
<path fill="none" stroke="#63b8ff" d="M697.3,-486.68C709.86,-478.9 728.52,-467.34 744.73,-457.29"/>
<polygon fill="#63b8ff" stroke="#63b8ff" points="746.48,-460.32 753.14,-452.08 742.8,-454.37 746.48,-460.32"/>
</a>
</g>
</g>
<!-- Node30&#45;&gt;Node26 -->
<g id="edge48_Node000030_Node000026" class="edge">
<title>Node30&#45;&gt;Node26</title>
<g id="a_edge48_Node000030_Node000026"><a xlink:title=" ">
<path fill="none" stroke="#63b8ff" d="M769.33,-420.33C763.47,-410.34 755.56,-396.69 748.88,-384.5 730.04,-350.18 709.31,-309.94 696.44,-284.64"/>
<polygon fill="#63b8ff" stroke="#63b8ff" points="699.61,-283.14 691.96,-275.8 693.37,-286.31 699.61,-283.14"/>
</a>
</g>
</g>
<!-- Node30&#45;&gt;Node27 -->
<g id="edge47_Node000030_Node000027" class="edge">
<title>Node30&#45;&gt;Node27</title>
<g id="a_edge47_Node000030_Node000027"><a xlink:title=" ">
<path fill="none" stroke="#63b8ff" d="M744.41,-420.05C723.12,-410.69 695.74,-398.66 674.93,-389.52"/>
<polygon fill="#63b8ff" stroke="#63b8ff" points="676.37,-386.33 665.81,-385.51 673.56,-392.74 676.37,-386.33"/>
</a>
</g>
</g>
<!-- Node31 -->
<g id="Node000031" class="node">
<title>Node31</title>
<g id="a_Node000031"><a xlink:title=" ">
<polygon fill="#e0e0e0" stroke="#999999" points="798.25,-384.5 757.5,-384.5 757.5,-365.25 798.25,-365.25 798.25,-384.5"/>
<text text-anchor="middle" x="777.88" y="-370.05" font-family="Arial" font-size="11.00">array</text>
</a>
</g>
</g>
<!-- Node30&#45;&gt;Node31 -->
<g id="edge44_Node000030_Node000031" class="edge">
<title>Node30&#45;&gt;Node31</title>
<g id="a_edge44_Node000030_Node000031"><a xlink:title=" ">
<path fill="none" stroke="#63b8ff" d="M777.88,-420.2C777.88,-412.96 777.88,-404.09 777.88,-396.19"/>
<polygon fill="#63b8ff" stroke="#63b8ff" points="781.38,-396.46 777.88,-386.46 774.38,-396.46 781.38,-396.46"/>
</a>
</g>
</g>
<!-- Node32 -->
<g id="Node000032" class="node">
<title>Node32</title>
<g id="a_Node000032"><a xlink:title=" ">
<polygon fill="#e0e0e0" stroke="#999999" points="855.5,-384.5 816.25,-384.5 816.25,-365.25 855.5,-365.25 855.5,-384.5"/>
<text text-anchor="middle" x="835.88" y="-370.05" font-family="Arial" font-size="11.00">tuple</text>
</a>
</g>
</g>
<!-- Node30&#45;&gt;Node32 -->
<g id="edge45_Node000030_Node000032" class="edge">
<title>Node30&#45;&gt;Node32</title>
<g id="a_edge45_Node000030_Node000032"><a xlink:title=" ">
<path fill="none" stroke="#63b8ff" d="M792.21,-420.2C800.28,-412.01 810.4,-401.73 818.87,-393.14"/>
<polygon fill="#63b8ff" stroke="#63b8ff" points="821.35,-395.61 825.87,-386.03 816.36,-390.7 821.35,-395.61"/>
</a>
</g>
</g>
<!-- Node33 -->
<g id="Node000033" class="node">
<title>Node33</title>
<g id="a_Node000033"><a xlink:title=" ">
<polygon fill="#e0e0e0" stroke="#999999" points="913.88,-384.5 873.88,-384.5 873.88,-365.25 913.88,-365.25 913.88,-384.5"/>
<text text-anchor="middle" x="893.88" y="-370.05" font-family="Arial" font-size="11.00">utility</text>
</a>
</g>
</g>
<!-- Node30&#45;&gt;Node33 -->
<g id="edge46_Node000030_Node000033" class="edge">
<title>Node30&#45;&gt;Node33</title>
<g id="a_edge46_Node000030_Node000033"><a xlink:title=" ">
<path fill="none" stroke="#63b8ff" d="M806.85,-420.05C824.94,-410.86 848.1,-399.11 865.99,-390.03"/>
<polygon fill="#63b8ff" stroke="#63b8ff" points="867.4,-393.24 874.74,-385.59 864.23,-386.99 867.4,-393.24"/>
</a>
</g>
</g>
<!-- Node34&#45;&gt;Node27 -->
<g id="edge51_Node000034_Node000027" class="edge">
<title>Node34&#45;&gt;Node27</title>
<g id="a_edge51_Node000034_Node000027"><a xlink:title=" ">
<path fill="none" stroke="#63b8ff" d="M791.5,-486.52C769.76,-478.98 740.02,-466.92 716.88,-451 693.33,-434.8 671.18,-410.18 657.59,-393.58"/>
<polygon fill="#63b8ff" stroke="#63b8ff" points="660.55,-391.68 651.57,-386.04 655.07,-396.04 660.55,-391.68"/>
</a>
</g>
</g>
<!-- Node34&#45;&gt;Node30 -->
<g id="edge52_Node000034_Node000030" class="edge">
<title>Node34&#45;&gt;Node30</title>
<g id="a_edge52_Node000034_Node000030"><a xlink:title=" ">
<path fill="none" stroke="#63b8ff" d="M814.34,-486.68C809.25,-479.71 801.94,-469.7 795.19,-460.46"/>
<polygon fill="#63b8ff" stroke="#63b8ff" points="798.11,-458.52 789.38,-452.5 792.45,-462.64 798.11,-458.52"/>
</a>
</g>
</g>
<!-- Node35 -->
<g id="Node000035" class="node">
<title>Node35</title>
<g id="a_Node000035"><a xlink:title=" ">
<polygon fill="#e0e0e0" stroke="#999999" points="1031.75,-445.38 970,-445.38 970,-426.12 1031.75,-426.12 1031.75,-445.38"/>
<text text-anchor="middle" x="1000.88" y="-430.93" font-family="Arial" font-size="11.00">functional</text>
</a>
</g>
</g>
<!-- Node34&#45;&gt;Node35 -->
<g id="edge50_Node000034_Node000035" class="edge">
<title>Node34&#45;&gt;Node35</title>
<g id="a_edge50_Node000034_Node000035"><a xlink:title=" ">
<path fill="none" stroke="#63b8ff" d="M848.61,-486.55C879.13,-476.57 928.39,-460.46 962.58,-449.27"/>
<polygon fill="#63b8ff" stroke="#63b8ff" points="963.26,-452.74 971.67,-446.3 961.08,-446.08 963.26,-452.74"/>
</a>
</g>
</g>
</g>
</svg>
