<?xml version="1.0" encoding="UTF-8" standalone="no"?>
<!DOCTYPE svg PUBLIC "-//W3C//DTD SVG 1.1//EN"
 "http://www.w3.org/Graphics/SVG/1.1/DTD/svg11.dtd">
<!-- Generated by graphviz version 10.0.1 (0)
 -->
<!-- Title: project_meta Pages: 1 -->
<svg width="130pt" height="161pt"
 viewBox="0.00 0.00 130.00 161.25" xmlns="http://www.w3.org/2000/svg" xmlns:xlink="http://www.w3.org/1999/xlink">
<g id="graph0" class="graph" transform="scale(1 1) rotate(0) translate(4 157.25)">
<title>project_meta</title>
<!-- Node1 -->
<g id="Node000001" class="node">
<title>Node1</title>
<g id="a_Node000001"><a xlink:title="Project version constexpr structure. Equals to current cmake/conan version.">
<polygon fill="#999999" stroke="#666666" points="92.88,-19.25 14.62,-19.25 14.62,0 92.88,0 92.88,-19.25"/>
<text text-anchor="middle" x="53.75" y="-4.8" font-family="Arial" font-size="11.00">project_meta</text>
</a>
</g>
</g>
<!-- Node2 -->
<g id="Node000002" class="node">
<title>Node2</title>
<g id="a_Node000002"><a xlink:title=" ">
<polygon fill="white" stroke="#666666" points="88.75,-85.75 18.75,-85.75 18.75,-66.5 88.75,-66.5 88.75,-85.75"/>
<text text-anchor="middle" x="53.75" y="-71.3" font-family="Arial" font-size="11.00">string_view</text>
</a>
</g>
</g>
<!-- Node2&#45;&gt;Node1 -->
<g id="edge1_Node000001_Node000002" class="edge">
<title>Node2&#45;&gt;Node1</title>
<g id="a_edge1_Node000001_Node000002"><a xlink:title=" ">
<path fill="none" stroke="#9a32cd" stroke-dasharray="5,2" d="M53.75,-54.65C53.75,-42.82 53.75,-28.54 53.75,-19.52"/>
<polygon fill="#9a32cd" stroke="#9a32cd" points="50.25,-54.64 53.75,-64.64 57.25,-54.64 50.25,-54.64"/>
</a>
</g>
<text text-anchor="middle" x="87.88" y="-38.05" font-family="Arial" font-size="11.00" fill="grey"> project_name</text>
</g>
<!-- Node3 -->
<g id="Node000003" class="node">
<title>Node3</title>
<g id="a_Node000003"><a xlink:title=" ">
<polygon fill="white" stroke="#666666" points="107.5,-153.25 0,-153.25 0,-122.75 107.5,-122.75 107.5,-153.25"/>
<text text-anchor="start" x="8" y="-138.8" font-family="Arial" font-size="11.00">basic_string_view&lt;</text>
<text text-anchor="middle" x="53.75" y="-127.55" font-family="Arial" font-size="11.00"> Char &gt;</text>
</a>
</g>
</g>
<!-- Node3&#45;&gt;Node2 -->
<g id="edge2_Node000002_Node000003" class="edge">
<title>Node3&#45;&gt;Node2</title>
<g id="a_edge2_Node000002_Node000003"><a xlink:title=" ">
<path fill="none" stroke="#63b8ff" d="M53.75,-111.27C53.75,-102.29 53.75,-92.79 53.75,-86.1"/>
<polygon fill="#63b8ff" stroke="#63b8ff" points="50.25,-110.99 53.75,-120.99 57.25,-110.99 50.25,-110.99"/>
</a>
</g>
</g>
</g>
</svg>
