<?xml version="1.0" encoding="UTF-8" standalone="no"?>
<!DOCTYPE svg PUBLIC "-//W3C//DTD SVG 1.1//EN"
 "http://www.w3.org/Graphics/SVG/1.1/DTD/svg11.dtd">
<!-- Generated by graphviz version 10.0.1 (0)
 -->
<!-- Title: pin&lt; T &gt; Pages: 1 -->
<svg width="262pt" height="193pt"
 viewBox="0.00 0.00 262.12 193.00" xmlns="http://www.w3.org/2000/svg" xmlns:xlink="http://www.w3.org/1999/xlink">
<g id="graph0" class="graph" transform="scale(1 1) rotate(0) translate(4 189)">
<title>pin&lt; T &gt;</title>
<!-- Node1 -->
<g id="Node000001" class="node">
<title>Node1</title>
<g id="a_Node000001"><a xlink:title="Disallow copy and move operations for a type.">
<polygon fill="#999999" stroke="#666666" points="166,-129.75 109.5,-129.75 109.5,-110.5 166,-110.5 166,-129.75"/>
<text text-anchor="middle" x="137.75" y="-115.3" font-family="Arial" font-size="11.00">pin&lt; T &gt;</text>
</a>
</g>
</g>
<!-- Node4 -->
<g id="Node000004" class="node">
<title>Node4</title>
<g id="a_Node000004"><a xlink:href="../../d9/d8a/structfloppy_1_1traits_1_1singleton.html" target="_top" xlink:title=" ">
<polygon fill="white" stroke="#666666" points="143.5,-74.5 0,-74.5 0,-55.25 143.5,-55.25 143.5,-74.5"/>
<text text-anchor="middle" x="71.75" y="-60.05" font-family="Arial" font-size="11.00">singleton&lt; TestSingleton &gt;</text>
</a>
</g>
</g>
<!-- Node1&#45;&gt;Node4 -->
<g id="edge3_Node000001_Node000004" class="edge">
<title>Node1&#45;&gt;Node4</title>
<g id="a_edge3_Node000001_Node000004"><a xlink:title=" ">
<path fill="none" stroke="#63b8ff" d="M117.66,-102.91C106.2,-93.67 92.27,-82.43 82.78,-74.77"/>
<polygon fill="#63b8ff" stroke="#63b8ff" points="115.4,-105.59 125.38,-109.14 119.79,-100.14 115.4,-105.59"/>
</a>
</g>
</g>
<!-- Node6 -->
<g id="Node000006" class="node">
<title>Node6</title>
<g id="a_Node000006"><a xlink:href="../../d9/d8a/structfloppy_1_1traits_1_1singleton.html" target="_top" xlink:title="Singleton pattern trait.">
<polygon fill="white" stroke="#666666" points="246.25,-74.5 161.25,-74.5 161.25,-55.25 246.25,-55.25 246.25,-74.5"/>
<text text-anchor="middle" x="203.75" y="-60.05" font-family="Arial" font-size="11.00">singleton&lt; T &gt;</text>
</a>
</g>
</g>
<!-- Node1&#45;&gt;Node6 -->
<g id="edge5_Node000001_Node000006" class="edge">
<title>Node1&#45;&gt;Node6</title>
<g id="a_edge5_Node000001_Node000006"><a xlink:title=" ">
<path fill="none" stroke="#63b8ff" d="M157.84,-102.91C169.3,-93.67 183.23,-82.43 192.72,-74.77"/>
<polygon fill="#63b8ff" stroke="#63b8ff" points="155.71,-100.14 150.12,-109.14 160.1,-105.59 155.71,-100.14"/>
</a>
</g>
</g>
<!-- Node2 -->
<g id="Node000002" class="node">
<title>Node2</title>
<g id="a_Node000002"><a xlink:href="../../d7/d83/structfloppy_1_1traits_1_1non__copyable.html" target="_top" xlink:title="Disallow copy operations for a type.">
<polygon fill="white" stroke="#666666" points="129.25,-185 20.25,-185 20.25,-165.75 129.25,-165.75 129.25,-185"/>
<text text-anchor="middle" x="74.75" y="-170.55" font-family="Arial" font-size="11.00">non_copyable&lt; T &gt;</text>
</a>
</g>
</g>
<!-- Node2&#45;&gt;Node1 -->
<g id="edge1_Node000001_Node000002" class="edge">
<title>Node2&#45;&gt;Node1</title>
<g id="a_edge1_Node000001_Node000002"><a xlink:title=" ">
<path fill="none" stroke="#63b8ff" d="M93.93,-158.16C104.87,-148.92 118.16,-137.68 127.22,-130.02"/>
<polygon fill="#63b8ff" stroke="#63b8ff" points="91.97,-155.24 86.59,-164.36 96.49,-160.58 91.97,-155.24"/>
</a>
</g>
</g>
<!-- Node3 -->
<g id="Node000003" class="node">
<title>Node3</title>
<g id="a_Node000003"><a xlink:href="../../d2/df5/structfloppy_1_1traits_1_1non__movable.html" target="_top" xlink:title="Disallow move operations for a type.">
<polygon fill="white" stroke="#666666" points="254.12,-185 147.38,-185 147.38,-165.75 254.12,-165.75 254.12,-185"/>
<text text-anchor="middle" x="200.75" y="-170.55" font-family="Arial" font-size="11.00">non_movable&lt; T &gt;</text>
</a>
</g>
</g>
<!-- Node3&#45;&gt;Node1 -->
<g id="edge2_Node000001_Node000003" class="edge">
<title>Node3&#45;&gt;Node1</title>
<g id="a_edge2_Node000001_Node000003"><a xlink:title=" ">
<path fill="none" stroke="#63b8ff" d="M181.57,-158.16C170.63,-148.92 157.34,-137.68 148.28,-130.02"/>
<polygon fill="#63b8ff" stroke="#63b8ff" points="179.01,-160.58 188.91,-164.36 183.53,-155.24 179.01,-160.58"/>
</a>
</g>
</g>
<!-- Node5 -->
<g id="Node000005" class="node">
<title>Node5</title>
<g id="a_Node000005"><a xlink:title=" ">
<polygon fill="white" stroke="#bfbfbf" points="112.38,-19.25 31.12,-19.25 31.12,0 112.38,0 112.38,-19.25"/>
<text text-anchor="middle" x="71.75" y="-4.8" font-family="Arial" font-size="11.00">TestSingleton</text>
</a>
</g>
</g>
<!-- Node4&#45;&gt;Node5 -->
<g id="edge4_Node000004_Node000005" class="edge">
<title>Node4&#45;&gt;Node5</title>
<g id="a_edge4_Node000004_Node000005"><a xlink:title=" ">
<path fill="none" stroke="#63b8ff" d="M71.75,-43.63C71.75,-35.34 71.75,-26.17 71.75,-19.61"/>
<polygon fill="#63b8ff" stroke="#63b8ff" points="68.25,-43.57 71.75,-53.57 75.25,-43.57 68.25,-43.57"/>
</a>
</g>
</g>
</g>
</svg>
