<?xml version="1.0" encoding="UTF-8" standalone="no"?>
<!DOCTYPE svg PUBLIC "-//W3C//DTD SVG 1.1//EN"
 "http://www.w3.org/Graphics/SVG/1.1/DTD/svg11.dtd">
<!-- Generated by graphviz version 10.0.1 (0)
 -->
<!-- Title: point2d&lt; U, T &gt; Pages: 1 -->
<svg width="182pt" height="229pt"
 viewBox="0.00 0.00 181.62 228.75" xmlns="http://www.w3.org/2000/svg" xmlns:xlink="http://www.w3.org/1999/xlink">

<svg id="main" version="1.1" xmlns="http://www.w3.org/2000/svg" xmlns:xlink="http://www.w3.org/1999/xlink" xml:space="preserve" onload="init(evt)">
<style type="text/css"><![CDATA[
.node, .edge {opacity: 0.7;}
.node.selected, .edge.selected {opacity: 1;}
.edge:hover path { stroke: red; }
.edge:hover polygon { stroke: red; fill: red; }
]]></style>
<script type="application/ecmascript" xlink:href="../../svg.min.js"/>
<svg id="graph" class="graph">
<g id="graph0" class="graph" transform="scale(1 1) rotate(0) translate(4 224.75)">
<title>point2d&lt; U, T &gt;</title>
<!-- Node1 -->
<g id="Node000001" class="node">
<title>Node1</title>
<g id="a_Node000001"><a xlink:title="A two&#45;dimensional point tagged with a unit.">
<polygon fill="#999999" stroke="#666666" points="156,-19.25 65,-19.25 65,0 156,0 156,-19.25"/>
<text text-anchor="middle" x="110.5" y="-4.8" font-family="Arial" font-size="11.00">point2d&lt; U, T &gt;</text>
</a>
</g>
</g>
<!-- Node2 -->
<g id="Node000002" class="node">
<title>Node2</title>
<g id="a_Node000002"><a xlink:href="../../d7/dd8/structfloppy_1_1math_1_1detail_1_1basic__two__dimensional__type.html" target="_top" xlink:title="CRTP base class for two dimensional numerical types.">
<polygon fill="white" stroke="#666666" points="173.62,-86.75 47.38,-86.75 47.38,-56.25 173.62,-56.25 173.62,-86.75"/>
<text text-anchor="start" x="55.38" y="-72.3" font-family="Arial" font-size="11.00">basic_two_dimensional</text>
<text text-anchor="middle" x="110.5" y="-61.05" font-family="Arial" font-size="11.00">_type&lt; T, U, N &gt;</text>
</a>
</g>
</g>
<!-- Node2&#45;&gt;Node1 -->
<g id="edge1_Node000001_Node000002" class="edge">
<title>Node2&#45;&gt;Node1</title>
<g id="a_edge1_Node000001_Node000002"><a xlink:title=" ">
<path fill="none" stroke="#63b8ff" d="M110.5,-44.77C110.5,-35.79 110.5,-26.29 110.5,-19.6"/>
<polygon fill="#63b8ff" stroke="#63b8ff" points="107,-44.49 110.5,-54.49 114,-44.49 107,-44.49"/>
</a>
</g>
</g>
<!-- Node3 -->
<g id="Node000003" class="node">
<title>Node3</title>
<g id="a_Node000003"><a xlink:href="../../db/d59/structfloppy_1_1traits_1_1formattable.html" target="_top" xlink:title=" ">
<polygon fill="white" stroke="#666666" points="124.75,-164.5 2.25,-164.5 2.25,-145.25 124.75,-145.25 124.75,-164.5"/>
<text text-anchor="middle" x="63.5" y="-150.05" font-family="Arial" font-size="11.00">formattable&lt; T, char &gt;</text>
</a>
</g>
</g>
<!-- Node3&#45;&gt;Node2 -->
<g id="edge2_Node000002_Node000003" class="edge">
<title>Node3&#45;&gt;Node2</title>
<g id="a_edge2_Node000002_Node000003"><a xlink:title=" ">
<path fill="none" stroke="#63b8ff" d="M74.45,-134.91C82.89,-120.3 94.38,-100.41 102.1,-87.04"/>
<polygon fill="#63b8ff" stroke="#63b8ff" points="71.44,-133.13 69.47,-143.54 77.5,-136.64 71.44,-133.13"/>
</a>
</g>
</g>
<!-- Node4 -->
<g id="Node000004" class="node">
<title>Node4</title>
<g id="a_Node000004"><a xlink:href="../../d5/d4f/structfloppy_1_1traits_1_1detail_1_1formattable__base.html" target="_top" xlink:title="Interface, providing to_string method.">
<polygon fill="white" stroke="#666666" points="127,-220.75 0,-220.75 0,-201.5 127,-201.5 127,-220.75"/>
<text text-anchor="middle" x="63.5" y="-206.3" font-family="Arial" font-size="11.00">formattable_base&lt; C &gt;</text>
</a>
</g>
</g>
<!-- Node4&#45;&gt;Node3 -->
<g id="edge3_Node000003_Node000004" class="edge">
<title>Node4&#45;&gt;Node3</title>
<g id="a_edge3_Node000003_Node000004"><a xlink:title=" ">
<path fill="none" stroke="#63b8ff" d="M63.5,-189.94C63.5,-181.23 63.5,-171.49 63.5,-164.67"/>
<polygon fill="#63b8ff" stroke="#63b8ff" points="60,-189.65 63.5,-199.65 67,-189.65 60,-189.65"/>
</a>
</g>
</g>
<!-- Node5 -->
<g id="Node000005" class="node">
<title>Node5</title>
<g id="a_Node000005"><a xlink:title=" ">
<polygon fill="white" stroke="#bfbfbf" points="171.9,-164.5 143.1,-164.5 143.1,-145.25 171.9,-145.25 171.9,-164.5"/>
<text text-anchor="middle" x="157.5" y="-150.05" font-family="Arial" font-size="11.00">N</text>
</a>
</g>
</g>
<!-- Node5&#45;&gt;Node2 -->
<g id="edge4_Node000002_Node000005" class="edge">
<title>Node5&#45;&gt;Node2</title>
<g id="a_edge4_Node000002_Node000005"><a xlink:title=" ">
<path fill="none" stroke="#9a32cd" stroke-dasharray="5,2" d="M146.55,-134.91C138.11,-120.3 126.62,-100.41 118.9,-87.04"/>
<polygon fill="#9a32cd" stroke="#9a32cd" points="143.5,-136.64 151.53,-143.54 149.56,-133.13 143.5,-136.64"/>
</a>
</g>
<text text-anchor="middle" x="147.62" y="-116.8" font-family="Arial" font-size="11.00" fill="grey"> x_</text>
<text text-anchor="middle" x="147.62" y="-105.55" font-family="Arial" font-size="11.00" fill="grey">y_</text>
</g>
</g>
</svg>
</svg>

<style type='text/css'>
<![CDATA[
[data-mouse-over-selected='false'] { opacity: 0.7; }
[data-mouse-over-selected='true']  { opacity: 1.0; }
]]>
</style>
<script type="application/ecmascript"><![CDATA[
document.addEventListener('DOMContentLoaded', (event) => {
  highlightEdges();
  highlightAdjacentNodes();
});
]]></script>
</svg>
