<?xml version="1.0" encoding="UTF-8" standalone="no"?>
<!DOCTYPE svg PUBLIC "-//W3C//DTD SVG 1.1//EN"
 "http://www.w3.org/Graphics/SVG/1.1/DTD/svg11.dtd">
<!-- Generated by graphviz version 10.0.1 (0)
 -->
<!-- Title: point2d.h Pages: 1 -->
<!--zoomable 625 -->

<svg id="main" version="1.1" xmlns="http://www.w3.org/2000/svg" xmlns:xlink="http://www.w3.org/1999/xlink" xml:space="preserve" onload="init(evt)">
<style type="text/css"><![CDATA[
.node, .edge {opacity: 0.7;}
.node.selected, .edge.selected {opacity: 1;}
.edge:hover path { stroke: red; }
.edge:hover polygon { stroke: red; fill: red; }
]]></style>

<defs>
  <circle id="rim" cx="0" cy="0" r="7"/>
  <circle id="rim2" cx="0" cy="0" r="3.5"/>
  <g id="zoomPlus">
    <use xlink:href="#rim" fill="#404040"><set attributeName="fill" to="#808080" begin="zoomplus.mouseover" end="zoomplus.mouseout"/></use>
    <path d="M-4,0h8M0,-4v8" fill="none" stroke="white" stroke-width="1.5" pointer-events="none"/>
  </g>
  <g id="zoomMin">
    <use xlink:href="#rim" fill="#404040"><set attributeName="fill" to="#808080" begin="zoomminus.mouseover" end="zoomminus.mouseout"/></use>
    <path d="M-4,0h8" fill="none" stroke="white" stroke-width="1.5" pointer-events="none"/>
  </g>
  <g id="arrowUp" transform="translate(30 24)">
    <use xlink:href="#rim"/>
    <path pointer-events="none" fill="none" stroke="white" stroke-width="1.5" d="M0,-3.0v7 M-2.5,-0.5L0,-3.0L2.5,-0.5"/>
  </g>
  <g id="arrowRight" transform="rotate(90) translate(36 -43)">
    <use xlink:href="#rim"/>
    <path pointer-events="none" fill="none" stroke="white" stroke-width="1.5" d="M0,-3.0v7 M-2.5,-0.5L0,-3.0L2.5,-0.5"/>
  </g>
  <g id="arrowDown" transform="rotate(180) translate(-30 -48)">
    <use xlink:href="#rim"/>
    <path pointer-events="none" fill="none" stroke="white" stroke-width="1.5" d="M0,-3.0v7 M-2.5,-0.5L0,-3.0L2.5,-0.5"/>
  </g>
  <g id="arrowLeft" transform="rotate(270) translate(-36 17)">
    <use xlink:href="#rim"/>
    <path pointer-events="none" fill="none" stroke="white" stroke-width="1.5" d="M0,-3.0v7 M-2.5,-0.5L0,-3.0L2.5,-0.5"/>
  </g>
  <g id="resetDef">
    <use xlink:href="#rim2" fill="#404040"><set attributeName="fill" to="#808080" begin="reset.mouseover" end="reset.mouseout"/></use>
  </g>
</defs>
<script type="application/ecmascript">
var viewWidth = 774;
var viewHeight = 625;
var sectionId = 'dynsection-0';
</script>
<script type="application/ecmascript" xlink:href="../../svg.min.js"/>
<svg id="graph" class="graph">
<g id="viewport">
<title>point2d.h</title>
<!-- Node1 -->
<g id="Node000001" class="node">
<title>Node1</title>
<g id="a_Node000001"><a xlink:title="A two&#45;dimensional point tagged with a unit.">
<polygon fill="#999999" stroke="#666666" points="258.25,-616.75 198,-616.75 198,-597.5 258.25,-597.5 258.25,-616.75"/>
<text text-anchor="middle" x="228.12" y="-602.3" font-family="Arial" font-size="11.00">point2d.h</text>
</a>
</g>
</g>
<!-- Node2 -->
<g id="Node000002" class="node">
<title>Node2</title>
<g id="a_Node000002"><a xlink:title=" ">
<polygon fill="#e0e0e0" stroke="#999999" points="205,-506.25 143.25,-506.25 143.25,-487 205,-487 205,-506.25"/>
<text text-anchor="middle" x="174.12" y="-491.8" font-family="Arial" font-size="11.00">functional</text>
</a>
</g>
</g>
<!-- Node1&#45;&gt;Node2 -->
<g id="edge1_Node000001_Node000002" class="edge">
<title>Node1&#45;&gt;Node2</title>
<g id="a_edge1_Node000001_Node000002"><a xlink:title=" ">
<path fill="none" stroke="#63b8ff" d="M223.71,-597.25C215,-579.76 195.47,-540.52 183.69,-516.84"/>
<polygon fill="#63b8ff" stroke="#63b8ff" points="186.87,-515.37 179.28,-507.98 180.6,-518.49 186.87,-515.37"/>
</a>
</g>
</g>
<!-- Node3 -->
<g id="Node000003" class="node">
<title>Node3</title>
<g id="a_Node000003"><a xlink:href="../../dd/db9/length_8h.html" target="_top" xlink:title="A one&#45;dimensional distance with associated unit of measurement.">
<polygon fill="white" stroke="#666666" points="465.38,-384.5 348.88,-384.5 348.88,-365.25 465.38,-365.25 465.38,-384.5"/>
<text text-anchor="middle" x="407.12" y="-370.05" font-family="Arial" font-size="11.00">floppy/euclid/length.h</text>
</a>
</g>
</g>
<!-- Node1&#45;&gt;Node3 -->
<g id="edge2_Node000001_Node000003" class="edge">
<title>Node1&#45;&gt;Node3</title>
<g id="a_edge2_Node000001_Node000003"><a xlink:title=" ">
<path fill="none" stroke="#63b8ff" d="M258.74,-606.49C295.67,-605.23 357.23,-597.36 393.12,-561.5 438.45,-516.22 434.1,-483.62 423.12,-420.5 421.65,-411.99 418.69,-402.96 415.72,-395.27"/>
<polygon fill="#63b8ff" stroke="#63b8ff" points="419.04,-394.14 411.97,-386.25 412.58,-396.83 419.04,-394.14"/>
</a>
</g>
</g>
<!-- Node30 -->
<g id="Node000030" class="node">
<title>Node30</title>
<g id="a_Node000030"><a xlink:href="../../dc/df8/size2d_8h.html" target="_top" xlink:title="A two&#45;dimensional size tagged with a unit.">
<polygon fill="white" stroke="#666666" points="379.12,-506.25 261.12,-506.25 261.12,-487 379.12,-487 379.12,-506.25"/>
<text text-anchor="middle" x="320.12" y="-491.8" font-family="Arial" font-size="11.00">floppy/euclid/size2d.h</text>
</a>
</g>
</g>
<!-- Node1&#45;&gt;Node30 -->
<g id="edge36_Node000001_Node000030" class="edge">
<title>Node1&#45;&gt;Node30</title>
<g id="a_edge36_Node000001_Node000030"><a xlink:title=" ">
<path fill="none" stroke="#63b8ff" d="M228.75,-597.38C230.1,-584.18 234.29,-558.94 247.12,-542.25 257.23,-529.11 272.39,-518.95 286.28,-511.67"/>
<polygon fill="#63b8ff" stroke="#63b8ff" points="287.74,-514.85 295.19,-507.32 284.67,-508.56 287.74,-514.85"/>
</a>
</g>
</g>
<!-- Node31 -->
<g id="Node000031" class="node">
<title>Node31</title>
<g id="a_Node000031"><a xlink:href="../../da/d53/nt__traits2d_8h_source.html" target="_top" xlink:title=" ">
<polygon fill="white" stroke="#666666" points="276,-451 172.25,-451 172.25,-420.5 276,-420.5 276,-451"/>
<text text-anchor="start" x="180.25" y="-436.55" font-family="Arial" font-size="11.00">floppy/euclid/detail</text>
<text text-anchor="middle" x="224.12" y="-425.3" font-family="Arial" font-size="11.00">/nt_traits2d.h</text>
</a>
</g>
</g>
<!-- Node1&#45;&gt;Node31 -->
<g id="edge55_Node000001_Node000031" class="edge">
<title>Node1&#45;&gt;Node31</title>
<g id="a_edge55_Node000001_Node000031"><a xlink:title=" ">
<path fill="none" stroke="#63b8ff" d="M214.55,-597.04C192.68,-581.49 150.45,-547.42 134.12,-506.25 125.41,-484.27 144.55,-467.64 167.39,-456.17"/>
<polygon fill="#63b8ff" stroke="#63b8ff" points="168.71,-459.42 176.32,-452.05 165.77,-453.06 168.71,-459.42"/>
</a>
</g>
</g>
<!-- Node35 -->
<g id="Node000035" class="node">
<title>Node35</title>
<g id="a_Node000035"><a xlink:href="../../d1/dab/vector2d_8h.html" target="_top" xlink:title="A two&#45;dimensional vector tagged with a unit.">
<polygon fill="white" stroke="#666666" points="384.38,-561.5 255.88,-561.5 255.88,-542.25 384.38,-542.25 384.38,-561.5"/>
<text text-anchor="middle" x="320.12" y="-547.05" font-family="Arial" font-size="11.00">floppy/euclid/vector2d.h</text>
</a>
</g>
</g>
<!-- Node1&#45;&gt;Node35 -->
<g id="edge46_Node000001_Node000035" class="edge">
<title>Node1&#45;&gt;Node35</title>
<g id="a_edge46_Node000001_Node000035"><a xlink:title=" ">
<path fill="none" stroke="#63b8ff" d="M243.73,-597.09C257.74,-588.98 278.56,-576.93 294.93,-567.46"/>
<polygon fill="#63b8ff" stroke="#63b8ff" points="296.23,-570.75 303.13,-562.71 292.72,-564.69 296.23,-570.75"/>
</a>
</g>
</g>
<!-- Node4 -->
<g id="Node000004" class="node">
<title>Node4</title>
<g id="a_Node000004"><a xlink:href="../../d8/d0c/scale_8h.html" target="_top" xlink:title="A scaling factor between two different units of measurement.">
<polygon fill="white" stroke="#666666" points="447.12,-329.25 335.12,-329.25 335.12,-310 447.12,-310 447.12,-329.25"/>
<text text-anchor="middle" x="391.12" y="-314.8" font-family="Arial" font-size="11.00">floppy/euclid/scale.h</text>
</a>
</g>
</g>
<!-- Node3&#45;&gt;Node4 -->
<g id="edge3_Node000003_Node000004" class="edge">
<title>Node3&#45;&gt;Node4</title>
<g id="a_edge3_Node000003_Node000004"><a xlink:title=" ">
<path fill="none" stroke="#63b8ff" d="M404.48,-365.08C402.48,-358.42 399.65,-348.99 397.11,-340.53"/>
<polygon fill="#63b8ff" stroke="#63b8ff" points="400.49,-339.63 394.26,-331.06 393.79,-341.64 400.49,-339.63"/>
</a>
</g>
</g>
<!-- Node29 -->
<g id="Node000029" class="node">
<title>Node29</title>
<g id="a_Node000029"><a xlink:href="../../de/de1/nt__traits_8h_source.html" target="_top" xlink:title=" ">
<polygon fill="white" stroke="#666666" points="363,-274 259.25,-274 259.25,-243.5 363,-243.5 363,-274"/>
<text text-anchor="start" x="267.25" y="-259.55" font-family="Arial" font-size="11.00">floppy/euclid/detail</text>
<text text-anchor="middle" x="311.12" y="-248.3" font-family="Arial" font-size="11.00">/nt_traits.h</text>
</a>
</g>
</g>
<!-- Node3&#45;&gt;Node29 -->
<g id="edge35_Node000003_Node000029" class="edge">
<title>Node3&#45;&gt;Node29</title>
<g id="a_edge35_Node000003_Node000029"><a xlink:title=" ">
<path fill="none" stroke="#63b8ff" d="M378.22,-364.89C360.56,-357.93 338.97,-346.51 326.12,-329.25 316.89,-316.84 313.1,-299.93 311.64,-285.9"/>
<polygon fill="#63b8ff" stroke="#63b8ff" points="315.14,-285.75 310.98,-276 308.15,-286.21 315.14,-285.75"/>
</a>
</g>
</g>
<!-- Node5 -->
<g id="Node000005" class="node">
<title>Node5</title>
<g id="a_Node000005"><a xlink:href="../../df/db1/math_8h_source.html" target="_top" xlink:title=" ">
<polygon fill="white" stroke="#666666" points="365.62,-201.88 256.62,-201.88 256.62,-182.62 365.62,-182.62 365.62,-201.88"/>
<text text-anchor="middle" x="311.12" y="-187.43" font-family="Arial" font-size="11.00">floppy/detail/math.h</text>
</a>
</g>
</g>
<!-- Node4&#45;&gt;Node5 -->
<g id="edge4_Node000004_Node000005" class="edge">
<title>Node4&#45;&gt;Node5</title>
<g id="a_edge4_Node000004_Node000005"><a xlink:title=" ">
<path fill="none" stroke="#63b8ff" d="M390.64,-309.59C389.48,-294.72 385.52,-264.64 372.12,-243.5 363.2,-229.42 349.01,-217.38 336.55,-208.62"/>
<polygon fill="#63b8ff" stroke="#63b8ff" points="338.6,-205.78 328.33,-203.16 334.73,-211.61 338.6,-205.78"/>
</a>
</g>
</g>
<!-- Node22 -->
<g id="Node000022" class="node">
<title>Node22</title>
<g id="a_Node000022"><a xlink:href="../../dd/dff/traits_8h_source.html" target="_top" xlink:title=" ">
<polygon fill="white" stroke="#666666" points="562,-268.38 482.25,-268.38 482.25,-249.12 562,-249.12 562,-268.38"/>
<text text-anchor="middle" x="522.12" y="-253.93" font-family="Arial" font-size="11.00">floppy/traits.h</text>
</a>
</g>
</g>
<!-- Node4&#45;&gt;Node22 -->
<g id="edge22_Node000004_Node000022" class="edge">
<title>Node4&#45;&gt;Node22</title>
<g id="a_edge22_Node000004_Node000022"><a xlink:title=" ">
<path fill="none" stroke="#63b8ff" d="M411.31,-309.55C432.81,-299.89 467.1,-284.48 491.85,-273.36"/>
<polygon fill="#63b8ff" stroke="#63b8ff" points="493.07,-276.65 500.75,-269.35 490.2,-270.26 493.07,-276.65"/>
</a>
</g>
</g>
<!-- Node4&#45;&gt;Node29 -->
<g id="edge32_Node000004_Node000029" class="edge">
<title>Node4&#45;&gt;Node29</title>
<g id="a_edge32_Node000004_Node000029"><a xlink:title=" ">
<path fill="none" stroke="#63b8ff" d="M378.97,-309.68C368.6,-302.05 353.28,-290.77 339.81,-280.86"/>
<polygon fill="#63b8ff" stroke="#63b8ff" points="342.22,-278.29 332.09,-275.18 338.07,-283.93 342.22,-278.29"/>
</a>
</g>
</g>
<!-- Node6 -->
<g id="Node000006" class="node">
<title>Node6</title>
<g id="a_Node000006"><a xlink:title=" ">
<polygon fill="#e0e0e0" stroke="#999999" points="311.75,-141 266.5,-141 266.5,-121.75 311.75,-121.75 311.75,-141"/>
<text text-anchor="middle" x="289.12" y="-126.55" font-family="Arial" font-size="11.00">cmath</text>
</a>
</g>
</g>
<!-- Node5&#45;&gt;Node6 -->
<g id="edge5_Node000005_Node000006" class="edge">
<title>Node5&#45;&gt;Node6</title>
<g id="a_edge5_Node000005_Node000006"><a xlink:title=" ">
<path fill="none" stroke="#63b8ff" d="M307.78,-182.31C304.78,-174.27 300.26,-162.18 296.42,-151.91"/>
<polygon fill="#63b8ff" stroke="#63b8ff" points="299.81,-150.96 293.03,-142.82 293.25,-153.41 299.81,-150.96"/>
</a>
</g>
</g>
<!-- Node7 -->
<g id="Node000007" class="node">
<title>Node7</title>
<g id="a_Node000007"><a xlink:title=" ">
<polygon fill="#e0e0e0" stroke="#999999" points="370.12,-141 330.12,-141 330.12,-121.75 370.12,-121.75 370.12,-141"/>
<text text-anchor="middle" x="350.12" y="-126.55" font-family="Arial" font-size="11.00">limits</text>
</a>
</g>
</g>
<!-- Node5&#45;&gt;Node7 -->
<g id="edge6_Node000005_Node000007" class="edge">
<title>Node5&#45;&gt;Node7</title>
<g id="a_edge6_Node000005_Node000007"><a xlink:title=" ">
<path fill="none" stroke="#63b8ff" d="M317.05,-182.31C322.55,-174.01 330.9,-161.39 337.84,-150.92"/>
<polygon fill="#63b8ff" stroke="#63b8ff" points="340.71,-152.93 343.31,-142.66 334.87,-149.07 340.71,-152.93"/>
</a>
</g>
</g>
<!-- Node8 -->
<g id="Node000008" class="node">
<title>Node8</title>
<g id="a_Node000008"><a xlink:title=" ">
<polygon fill="#e0e0e0" stroke="#999999" points="446.12,-141 388.12,-141 388.12,-121.75 446.12,-121.75 446.12,-141"/>
<text text-anchor="middle" x="417.12" y="-126.55" font-family="Arial" font-size="11.00">numbers</text>
</a>
</g>
</g>
<!-- Node5&#45;&gt;Node8 -->
<g id="edge7_Node000005_Node000008" class="edge">
<title>Node5&#45;&gt;Node8</title>
<g id="a_edge7_Node000005_Node000008"><a xlink:title=" ">
<path fill="none" stroke="#63b8ff" d="M327.22,-182.31C344.11,-172.93 370.92,-158.04 390.88,-146.95"/>
<polygon fill="#63b8ff" stroke="#63b8ff" points="392.51,-150.05 399.55,-142.14 389.11,-143.93 392.51,-150.05"/>
</a>
</g>
</g>
<!-- Node9 -->
<g id="Node000009" class="node">
<title>Node9</title>
<g id="a_Node000009"><a xlink:title=" ">
<polygon fill="#e0e0e0" stroke="#999999" points="248.12,-141 190.12,-141 190.12,-121.75 248.12,-121.75 248.12,-141"/>
<text text-anchor="middle" x="219.12" y="-126.55" font-family="Arial" font-size="11.00">compare</text>
</a>
</g>
</g>
<!-- Node5&#45;&gt;Node9 -->
<g id="edge8_Node000005_Node000009" class="edge">
<title>Node5&#45;&gt;Node9</title>
<g id="a_edge8_Node000005_Node000009"><a xlink:title=" ">
<path fill="none" stroke="#63b8ff" d="M297.15,-182.31C282.7,-173.06 259.87,-158.45 242.63,-147.42"/>
<polygon fill="#63b8ff" stroke="#63b8ff" points="244.81,-144.66 234.5,-142.22 241.04,-150.56 244.81,-144.66"/>
</a>
</g>
</g>
<!-- Node10 -->
<g id="Node000010" class="node">
<title>Node10</title>
<g id="a_Node000010"><a xlink:href="../../db/db5/export_8h_source.html" target="_top" xlink:title=" ">
<polygon fill="white" stroke="#666666" points="579.62,-141 464.62,-141 464.62,-121.75 579.62,-121.75 579.62,-141"/>
<text text-anchor="middle" x="522.12" y="-126.55" font-family="Arial" font-size="11.00">floppy/detail/export.h</text>
</a>
</g>
</g>
<!-- Node5&#45;&gt;Node10 -->
<g id="edge9_Node000005_Node000010" class="edge">
<title>Node5&#45;&gt;Node10</title>
<g id="a_edge9_Node000005_Node000010"><a xlink:title=" ">
<path fill="none" stroke="#63b8ff" d="M343.63,-182.18C379.8,-172.09 438.41,-155.73 478.53,-144.54"/>
<polygon fill="#63b8ff" stroke="#63b8ff" points="479.43,-147.92 488.12,-141.86 477.55,-141.18 479.43,-147.92"/>
</a>
</g>
</g>
<!-- Node13 -->
<g id="Node000013" class="node">
<title>Node13</title>
<g id="a_Node000013"><a xlink:href="../../d9/db1/concepts_8h_source.html" target="_top" xlink:title=" ">
<polygon fill="white" stroke="#666666" points="172,-141 44.25,-141 44.25,-121.75 172,-121.75 172,-141"/>
<text text-anchor="middle" x="108.12" y="-126.55" font-family="Arial" font-size="11.00">floppy/detail/concepts.h</text>
</a>
</g>
</g>
<!-- Node5&#45;&gt;Node13 -->
<g id="edge12_Node000005_Node000013" class="edge">
<title>Node5&#45;&gt;Node13</title>
<g id="a_edge12_Node000005_Node000013"><a xlink:title=" ">
<path fill="none" stroke="#63b8ff" d="M279.85,-182.18C245.13,-172.11 188.91,-155.8 150.31,-144.61"/>
<polygon fill="#63b8ff" stroke="#63b8ff" points="151.47,-141.3 140.89,-141.88 149.52,-148.02 151.47,-141.3"/>
</a>
</g>
</g>
<!-- Node11 -->
<g id="Node000011" class="node">
<title>Node11</title>
<g id="a_Node000011"><a xlink:title=" ">
<polygon fill="#e0e0e0" stroke="#999999" points="497.25,-80.12 455,-80.12 455,-60.88 497.25,-60.88 497.25,-80.12"/>
<text text-anchor="middle" x="476.12" y="-65.67" font-family="Arial" font-size="11.00">string</text>
</a>
</g>
</g>
<!-- Node10&#45;&gt;Node11 -->
<g id="edge10_Node000010_Node000011" class="edge">
<title>Node10&#45;&gt;Node11</title>
<g id="a_edge10_Node000010_Node000011"><a xlink:title=" ">
<path fill="none" stroke="#63b8ff" d="M515.14,-121.43C508.52,-112.96 498.39,-99.99 490.11,-89.39"/>
<polygon fill="#63b8ff" stroke="#63b8ff" points="493.02,-87.44 484.11,-81.72 487.51,-91.75 493.02,-87.44"/>
</a>
</g>
</g>
<!-- Node12 -->
<g id="Node000012" class="node">
<title>Node12</title>
<g id="a_Node000012"><a xlink:title=" ">
<polygon fill="#e0e0e0" stroke="#999999" points="585.12,-80.12 515.12,-80.12 515.12,-60.88 585.12,-60.88 585.12,-80.12"/>
<text text-anchor="middle" x="550.12" y="-65.67" font-family="Arial" font-size="11.00">string_view</text>
</a>
</g>
</g>
<!-- Node10&#45;&gt;Node12 -->
<g id="edge11_Node000010_Node000012" class="edge">
<title>Node10&#45;&gt;Node12</title>
<g id="a_edge11_Node000010_Node000012"><a xlink:title=" ">
<path fill="none" stroke="#63b8ff" d="M526.38,-121.43C530.24,-113.31 536.07,-101.04 540.99,-90.7"/>
<polygon fill="#63b8ff" stroke="#63b8ff" points="544.05,-92.43 545.18,-81.89 537.73,-89.42 544.05,-92.43"/>
</a>
</g>
</g>
<!-- Node14 -->
<g id="Node000014" class="node">
<title>Node14</title>
<g id="a_Node000014"><a xlink:title=" ">
<polygon fill="#e0e0e0" stroke="#999999" points="301.5,-80.12 242.75,-80.12 242.75,-60.88 301.5,-60.88 301.5,-80.12"/>
<text text-anchor="middle" x="272.12" y="-65.67" font-family="Arial" font-size="11.00">concepts</text>
</a>
</g>
</g>
<!-- Node13&#45;&gt;Node14 -->
<g id="edge13_Node000013_Node000014" class="edge">
<title>Node13&#45;&gt;Node14</title>
<g id="a_edge13_Node000013_Node000014"><a xlink:title=" ">
<path fill="none" stroke="#63b8ff" d="M133.52,-121.37C158.79,-112.4 198.67,-98.2 233.12,-85.75 234.28,-85.33 235.45,-84.91 236.63,-84.48"/>
<polygon fill="#63b8ff" stroke="#63b8ff" points="237.75,-87.8 245.96,-81.09 235.36,-81.22 237.75,-87.8"/>
</a>
</g>
</g>
<!-- Node15 -->
<g id="Node000015" class="node">
<title>Node15</title>
<g id="a_Node000015"><a xlink:href="../../df/d63/type__traits_8h_source.html" target="_top" xlink:title=" ">
<polygon fill="white" stroke="#666666" points="96.25,-85.75 0,-85.75 0,-55.25 96.25,-55.25 96.25,-85.75"/>
<text text-anchor="start" x="8" y="-71.3" font-family="Arial" font-size="11.00">floppy/detail/type</text>
<text text-anchor="middle" x="48.12" y="-60.05" font-family="Arial" font-size="11.00">_traits.h</text>
</a>
</g>
</g>
<!-- Node13&#45;&gt;Node15 -->
<g id="edge14_Node000013_Node000015" class="edge">
<title>Node13&#45;&gt;Node15</title>
<g id="a_edge14_Node000013_Node000015"><a xlink:title=" ">
<path fill="none" stroke="#63b8ff" d="M99.01,-121.43C91.61,-114.17 80.84,-103.6 71.11,-94.05"/>
<polygon fill="#63b8ff" stroke="#63b8ff" points="73.6,-91.6 64.02,-87.09 68.7,-96.59 73.6,-91.6"/>
</a>
</g>
</g>
<!-- Node17 -->
<g id="Node000017" class="node">
<title>Node17</title>
<g id="a_Node000017"><a xlink:href="../../d9/d49/types_8h_source.html" target="_top" xlink:title=" ">
<polygon fill="white" stroke="#666666" points="224.38,-80.12 113.88,-80.12 113.88,-60.88 224.38,-60.88 224.38,-80.12"/>
<text text-anchor="middle" x="169.12" y="-65.67" font-family="Arial" font-size="11.00">floppy/detail/types.h</text>
</a>
</g>
</g>
<!-- Node13&#45;&gt;Node17 -->
<g id="edge16_Node000013_Node000017" class="edge">
<title>Node13&#45;&gt;Node17</title>
<g id="a_edge16_Node000013_Node000017"><a xlink:title=" ">
<path fill="none" stroke="#63b8ff" d="M117.39,-121.43C126.44,-112.7 140.43,-99.19 151.59,-88.43"/>
<polygon fill="#63b8ff" stroke="#63b8ff" points="153.92,-91.04 158.68,-81.58 149.06,-86 153.92,-91.04"/>
</a>
</g>
</g>
<!-- Node16 -->
<g id="Node000016" class="node">
<title>Node16</title>
<g id="a_Node000016"><a xlink:title=" ">
<polygon fill="#e0e0e0" stroke="#999999" points="80.88,-19.25 15.38,-19.25 15.38,0 80.88,0 80.88,-19.25"/>
<text text-anchor="middle" x="48.12" y="-4.8" font-family="Arial" font-size="11.00">type_traits</text>
</a>
</g>
</g>
<!-- Node15&#45;&gt;Node16 -->
<g id="edge15_Node000015_Node000016" class="edge">
<title>Node15&#45;&gt;Node16</title>
<g id="a_edge15_Node000015_Node000016"><a xlink:title=" ">
<path fill="none" stroke="#63b8ff" d="M48.12,-54.95C48.12,-47.71 48.12,-38.84 48.12,-30.94"/>
<polygon fill="#63b8ff" stroke="#63b8ff" points="51.63,-31.21 48.13,-21.21 44.63,-31.21 51.63,-31.21"/>
</a>
</g>
</g>
<!-- Node17&#45;&gt;Node16 -->
<g id="edge20_Node000017_Node000016" class="edge">
<title>Node17&#45;&gt;Node16</title>
<g id="a_edge20_Node000017_Node000016"><a xlink:title=" ">
<path fill="none" stroke="#63b8ff" d="M150.48,-60.43C130.8,-50.85 99.51,-35.63 76.71,-24.53"/>
<polygon fill="#63b8ff" stroke="#63b8ff" points="78.47,-21.5 67.95,-20.27 75.41,-27.79 78.47,-21.5"/>
</a>
</g>
</g>
<!-- Node18 -->
<g id="Node000018" class="node">
<title>Node18</title>
<g id="a_Node000018"><a xlink:title=" ">
<polygon fill="#e0e0e0" stroke="#999999" points="221.38,-19.25 170.88,-19.25 170.88,0 221.38,0 221.38,-19.25"/>
<text text-anchor="middle" x="196.12" y="-4.8" font-family="Arial" font-size="11.00">cstddef</text>
</a>
</g>
</g>
<!-- Node17&#45;&gt;Node18 -->
<g id="edge17_Node000017_Node000018" class="edge">
<title>Node17&#45;&gt;Node18</title>
<g id="a_edge17_Node000017_Node000018"><a xlink:title=" ">
<path fill="none" stroke="#63b8ff" d="M173.23,-60.56C176.95,-52.43 182.58,-40.17 187.32,-29.83"/>
<polygon fill="#63b8ff" stroke="#63b8ff" points="190.37,-31.58 191.35,-21.03 184,-28.66 190.37,-31.58"/>
</a>
</g>
</g>
<!-- Node19 -->
<g id="Node000019" class="node">
<title>Node19</title>
<g id="a_Node000019"><a xlink:title=" ">
<polygon fill="#e0e0e0" stroke="#999999" points="286.5,-19.25 239.75,-19.25 239.75,0 286.5,0 286.5,-19.25"/>
<text text-anchor="middle" x="263.12" y="-4.8" font-family="Arial" font-size="11.00">cstdint</text>
</a>
</g>
</g>
<!-- Node17&#45;&gt;Node19 -->
<g id="edge18_Node000017_Node000019" class="edge">
<title>Node17&#45;&gt;Node19</title>
<g id="a_edge18_Node000017_Node000019"><a xlink:title=" ">
<path fill="none" stroke="#63b8ff" d="M183.4,-60.56C198.17,-51.31 221.5,-36.7 239.11,-25.67"/>
<polygon fill="#63b8ff" stroke="#63b8ff" points="240.81,-28.73 247.43,-20.45 237.1,-22.8 240.81,-28.73"/>
</a>
</g>
</g>
<!-- Node20 -->
<g id="Node000020" class="node">
<title>Node20</title>
<g id="a_Node000020"><a xlink:title=" ">
<polygon fill="#e0e0e0" stroke="#999999" points="152.88,-19.25 99.38,-19.25 99.38,0 152.88,0 152.88,-19.25"/>
<text text-anchor="middle" x="126.12" y="-4.8" font-family="Arial" font-size="11.00">optional</text>
</a>
</g>
</g>
<!-- Node17&#45;&gt;Node20 -->
<g id="edge19_Node000017_Node000020" class="edge">
<title>Node17&#45;&gt;Node20</title>
<g id="a_edge19_Node000017_Node000020"><a xlink:title=" ">
<path fill="none" stroke="#63b8ff" d="M162.59,-60.56C156.47,-52.17 147.13,-39.38 139.43,-28.84"/>
<polygon fill="#63b8ff" stroke="#63b8ff" points="142.33,-26.88 133.61,-20.87 136.68,-31.01 142.33,-26.88"/>
</a>
</g>
</g>
<!-- Node21 -->
<g id="Node000021" class="node">
<title>Node21</title>
<g id="a_Node000021"><a xlink:title=" ">
<polygon fill="#e0e0e0" stroke="#999999" points="568,-19.25 494.25,-19.25 494.25,0 568,0 568,-19.25"/>
<text text-anchor="middle" x="531.12" y="-4.8" font-family="Arial" font-size="11.00">fmt/format.h</text>
</a>
</g>
</g>
<!-- Node17&#45;&gt;Node21 -->
<g id="edge21_Node000017_Node000021" class="edge">
<title>Node17&#45;&gt;Node21</title>
<g id="a_edge21_Node000017_Node000021"><a xlink:title=" ">
<path fill="none" stroke="#63b8ff" d="M208.57,-60.41C216.98,-58.6 225.83,-56.78 234.12,-55.25 321.37,-39.15 423.85,-24.74 482.77,-16.88"/>
<polygon fill="#63b8ff" stroke="#63b8ff" points="483,-20.38 492.45,-15.6 482.08,-13.44 483,-20.38"/>
</a>
</g>
</g>
<!-- Node22&#45;&gt;Node10 -->
<g id="edge26_Node000022_Node000010" class="edge">
<title>Node22&#45;&gt;Node10</title>
<g id="a_edge26_Node000022_Node000010"><a xlink:title=" ">
<path fill="none" stroke="#63b8ff" d="M512.95,-248.75C504.13,-239.39 491.38,-223.85 486.12,-207.5 481.98,-194.59 481.61,-189.78 486.12,-177 489.75,-166.75 496.83,-157.12 503.77,-149.45"/>
<polygon fill="#63b8ff" stroke="#63b8ff" points="506.07,-152.1 510.56,-142.5 501.07,-147.2 506.07,-152.1"/>
</a>
</g>
</g>
<!-- Node23 -->
<g id="Node000023" class="node">
<title>Node23</title>
<g id="a_Node000023"><a xlink:title=" ">
<polygon fill="#e0e0e0" stroke="#999999" points="438.62,-201.88 383.62,-201.88 383.62,-182.62 438.62,-182.62 438.62,-201.88"/>
<text text-anchor="middle" x="411.12" y="-187.43" font-family="Arial" font-size="11.00">memory</text>
</a>
</g>
</g>
<!-- Node22&#45;&gt;Node23 -->
<g id="edge23_Node000022_Node000023" class="edge">
<title>Node22&#45;&gt;Node23</title>
<g id="a_edge23_Node000022_Node000023"><a xlink:title=" ">
<path fill="none" stroke="#63b8ff" d="M506.69,-248.78C488.57,-238.25 458.24,-220.63 436.61,-208.06"/>
<polygon fill="#63b8ff" stroke="#63b8ff" points="438.5,-205.11 428.09,-203.11 434.98,-211.16 438.5,-205.11"/>
</a>
</g>
</g>
<!-- Node24 -->
<g id="Node000024" class="node">
<title>Node24</title>
<g id="a_Node000024"><a xlink:title=" ">
<polygon fill="#e0e0e0" stroke="#999999" points="552.75,-201.88 495.5,-201.88 495.5,-182.62 552.75,-182.62 552.75,-201.88"/>
<text text-anchor="middle" x="524.12" y="-187.43" font-family="Arial" font-size="11.00">iostream</text>
</a>
</g>
</g>
<!-- Node22&#45;&gt;Node24 -->
<g id="edge24_Node000022_Node000024" class="edge">
<title>Node22&#45;&gt;Node24</title>
<g id="a_edge24_Node000022_Node000024"><a xlink:title=" ">
<path fill="none" stroke="#63b8ff" d="M522.4,-248.78C522.68,-239.73 523.13,-225.45 523.49,-213.63"/>
<polygon fill="#63b8ff" stroke="#63b8ff" points="526.99,-213.76 523.8,-203.66 519.99,-213.54 526.99,-213.76"/>
</a>
</g>
</g>
<!-- Node25 -->
<g id="Node000025" class="node">
<title>Node25</title>
<g id="a_Node000025"><a xlink:title=" ">
<polygon fill="#e0e0e0" stroke="#999999" points="699.75,-207.5 570.5,-207.5 570.5,-177 699.75,-177 699.75,-207.5"/>
<text text-anchor="start" x="578.5" y="-193.05" font-family="Arial" font-size="11.00">experimental/propagate</text>
<text text-anchor="middle" x="635.12" y="-181.8" font-family="Arial" font-size="11.00">_const</text>
</a>
</g>
</g>
<!-- Node22&#45;&gt;Node25 -->
<g id="edge25_Node000022_Node000025" class="edge">
<title>Node22&#45;&gt;Node25</title>
<g id="a_edge25_Node000022_Node000025"><a xlink:title=" ">
<path fill="none" stroke="#63b8ff" d="M537.84,-248.78C553.78,-239.68 579.01,-225.28 599.78,-213.42"/>
<polygon fill="#63b8ff" stroke="#63b8ff" points="601.3,-216.59 608.25,-208.59 597.83,-210.51 601.3,-216.59"/>
</a>
</g>
</g>
<!-- Node26 -->
<g id="Node000026" class="node">
<title>Node26</title>
<g id="a_Node000026"><a xlink:href="../../d6/d45/formatters_8h_source.html" target="_top" xlink:title=" ">
<polygon fill="white" stroke="#666666" points="766,-141 632.25,-141 632.25,-121.75 766,-121.75 766,-141"/>
<text text-anchor="middle" x="699.12" y="-126.55" font-family="Arial" font-size="11.00">floppy/detail/formatters.h</text>
</a>
</g>
</g>
<!-- Node22&#45;&gt;Node26 -->
<g id="edge27_Node000022_Node000026" class="edge">
<title>Node22&#45;&gt;Node26</title>
<g id="a_edge27_Node000022_Node000026"><a xlink:title=" ">
<path fill="none" stroke="#63b8ff" d="M562.34,-252.67C611.79,-245.5 691.38,-230.64 709.12,-207.5 721.35,-191.55 715.43,-167.89 708.66,-151.4"/>
<polygon fill="#63b8ff" stroke="#63b8ff" points="712.02,-150.32 704.68,-142.68 705.65,-153.23 712.02,-150.32"/>
</a>
</g>
</g>
<!-- Node26&#45;&gt;Node12 -->
<g id="edge28_Node000026_Node000012" class="edge">
<title>Node26&#45;&gt;Node12</title>
<g id="a_edge28_Node000026_Node000012"><a xlink:title=" ">
<path fill="none" stroke="#63b8ff" d="M676.17,-121.3C651.38,-111.51 611.65,-95.81 583.43,-84.66"/>
<polygon fill="#63b8ff" stroke="#63b8ff" points="584.86,-81.46 574.27,-81.04 582.28,-87.97 584.86,-81.46"/>
</a>
</g>
</g>
<!-- Node26&#45;&gt;Node21 -->
<g id="edge31_Node000026_Node000021" class="edge">
<title>Node26&#45;&gt;Node21</title>
<g id="a_edge31_Node000026_Node000021"><a xlink:title=" ">
<path fill="none" stroke="#63b8ff" d="M708.23,-121.69C722.72,-106.81 747.79,-76.05 731.12,-55.25 712.47,-31.97 632.43,-20.04 579.44,-14.58"/>
<polygon fill="#63b8ff" stroke="#63b8ff" points="580.05,-11.13 569.75,-13.63 579.36,-18.09 580.05,-11.13"/>
</a>
</g>
</g>
<!-- Node27 -->
<g id="Node000027" class="node">
<title>Node27</title>
<g id="a_Node000027"><a xlink:title=" ">
<polygon fill="#e0e0e0" stroke="#999999" points="657.25,-80.12 603,-80.12 603,-60.88 657.25,-60.88 657.25,-80.12"/>
<text text-anchor="middle" x="630.12" y="-65.67" font-family="Arial" font-size="11.00">sstream</text>
</a>
</g>
</g>
<!-- Node26&#45;&gt;Node27 -->
<g id="edge29_Node000026_Node000027" class="edge">
<title>Node26&#45;&gt;Node27</title>
<g id="a_edge29_Node000026_Node000027"><a xlink:title=" ">
<path fill="none" stroke="#63b8ff" d="M688.65,-121.43C678.21,-112.53 661.95,-98.66 649.22,-87.79"/>
<polygon fill="#63b8ff" stroke="#63b8ff" points="651.73,-85.34 641.85,-81.51 647.19,-90.66 651.73,-85.34"/>
</a>
</g>
</g>
<!-- Node28 -->
<g id="Node000028" class="node">
<title>Node28</title>
<g id="a_Node000028"><a xlink:title=" ">
<polygon fill="#e0e0e0" stroke="#999999" points="722.5,-80.12 675.75,-80.12 675.75,-60.88 722.5,-60.88 722.5,-80.12"/>
<text text-anchor="middle" x="699.12" y="-65.67" font-family="Arial" font-size="11.00">iosfwd</text>
</a>
</g>
</g>
<!-- Node26&#45;&gt;Node28 -->
<g id="edge30_Node000026_Node000028" class="edge">
<title>Node26&#45;&gt;Node28</title>
<g id="a_edge30_Node000026_Node000028"><a xlink:title=" ">
<path fill="none" stroke="#63b8ff" d="M699.12,-121.43C699.12,-113.65 699.12,-102.08 699.12,-92.03"/>
<polygon fill="#63b8ff" stroke="#63b8ff" points="702.63,-92.04 699.13,-82.04 695.63,-92.04 702.63,-92.04"/>
</a>
</g>
</g>
<!-- Node29&#45;&gt;Node5 -->
<g id="edge33_Node000029_Node000005" class="edge">
<title>Node29&#45;&gt;Node5</title>
<g id="a_edge33_Node000029_Node000005"><a xlink:title=" ">
<path fill="none" stroke="#63b8ff" d="M311.12,-243.11C311.12,-234.33 311.12,-223.02 311.12,-213.4"/>
<polygon fill="#63b8ff" stroke="#63b8ff" points="314.63,-213.59 311.13,-203.59 307.63,-213.59 314.63,-213.59"/>
</a>
</g>
</g>
<!-- Node29&#45;&gt;Node13 -->
<g id="edge34_Node000029_Node000013" class="edge">
<title>Node29&#45;&gt;Node13</title>
<g id="a_edge34_Node000029_Node000013"><a xlink:title=" ">
<path fill="none" stroke="#63b8ff" d="M287.44,-243.12C248.56,-219.11 171.6,-171.58 132.36,-147.34"/>
<polygon fill="#63b8ff" stroke="#63b8ff" points="134.43,-144.51 124.08,-142.23 130.75,-150.46 134.43,-144.51"/>
</a>
</g>
</g>
<!-- Node30&#45;&gt;Node3 -->
<g id="edge39_Node000030_Node000003" class="edge">
<title>Node30&#45;&gt;Node3</title>
<g id="a_edge39_Node000030_Node000003"><a xlink:title=" ">
<path fill="none" stroke="#63b8ff" d="M326.66,-486.62C340.9,-467.03 374.93,-420.2 393.85,-394.14"/>
<polygon fill="#63b8ff" stroke="#63b8ff" points="396.57,-396.35 399.62,-386.2 390.91,-392.24 396.57,-396.35"/>
</a>
</g>
</g>
<!-- Node30&#45;&gt;Node5 -->
<g id="edge37_Node000030_Node000005" class="edge">
<title>Node30&#45;&gt;Node5</title>
<g id="a_edge37_Node000030_Node000005"><a xlink:title=" ">
<path fill="none" stroke="#63b8ff" d="M320.04,-486.5C319.6,-464.86 316.98,-408.95 302.12,-365.25 287.11,-321.05 262.08,-319.12 250.12,-274 246.65,-260.9 244.34,-255.76 250.12,-243.5 257.1,-228.71 270.8,-216.81 283.45,-208.3"/>
<polygon fill="#63b8ff" stroke="#63b8ff" points="285.29,-211.27 291.93,-203.02 281.59,-205.33 285.29,-211.27"/>
</a>
</g>
</g>
<!-- Node30&#45;&gt;Node13 -->
<g id="edge38_Node000030_Node000013" class="edge">
<title>Node30&#45;&gt;Node13</title>
<g id="a_edge38_Node000030_Node000013"><a xlink:title=" ">
<path fill="none" stroke="#63b8ff" d="M260.8,-492.43C187.15,-484.88 71.12,-459.7 71.12,-375.88 71.12,-375.88 71.12,-375.88 71.12,-257.75 71.12,-218.74 87.8,-175.6 98.76,-151.46"/>
<polygon fill="#63b8ff" stroke="#63b8ff" points="101.84,-153.14 102.94,-142.6 95.51,-150.15 101.84,-153.14"/>
</a>
</g>
</g>
<!-- Node30&#45;&gt;Node31 -->
<g id="edge40_Node000030_Node000031" class="edge">
<title>Node30&#45;&gt;Node31</title>
<g id="a_edge40_Node000030_Node000031"><a xlink:title=" ">
<path fill="none" stroke="#63b8ff" d="M305.54,-486.68C292.86,-478.9 274,-467.34 257.62,-457.29"/>
<polygon fill="#63b8ff" stroke="#63b8ff" points="259.47,-454.32 249.11,-452.07 255.81,-460.29 259.47,-454.32"/>
</a>
</g>
</g>
<!-- Node31&#45;&gt;Node3 -->
<g id="edge44_Node000031_Node000003" class="edge">
<title>Node31&#45;&gt;Node3</title>
<g id="a_edge44_Node000031_Node000003"><a xlink:title=" ">
<path fill="none" stroke="#63b8ff" d="M269.83,-420.05C300.02,-410.33 339.17,-397.74 367.93,-388.48"/>
<polygon fill="#63b8ff" stroke="#63b8ff" points="368.9,-391.85 377.35,-385.45 366.76,-385.19 368.9,-391.85"/>
</a>
</g>
</g>
<!-- Node31&#45;&gt;Node29 -->
<g id="edge45_Node000031_Node000029" class="edge">
<title>Node31&#45;&gt;Node29</title>
<g id="a_edge45_Node000031_Node000029"><a xlink:title=" ">
<path fill="none" stroke="#63b8ff" d="M173.65,-420.11C143.56,-408.51 113.77,-390.1 128.12,-365.25 153.78,-320.85 206,-293.48 248.12,-277.78"/>
<polygon fill="#63b8ff" stroke="#63b8ff" points="249.2,-281.11 257.44,-274.45 246.84,-274.52 249.2,-281.11"/>
</a>
</g>
</g>
<!-- Node32 -->
<g id="Node000032" class="node">
<title>Node32</title>
<g id="a_Node000032"><a xlink:title=" ">
<polygon fill="#e0e0e0" stroke="#999999" points="293.5,-384.5 252.75,-384.5 252.75,-365.25 293.5,-365.25 293.5,-384.5"/>
<text text-anchor="middle" x="273.12" y="-370.05" font-family="Arial" font-size="11.00">array</text>
</a>
</g>
</g>
<!-- Node31&#45;&gt;Node32 -->
<g id="edge41_Node000031_Node000032" class="edge">
<title>Node31&#45;&gt;Node32</title>
<g id="a_edge41_Node000031_Node000032"><a xlink:title=" ">
<path fill="none" stroke="#63b8ff" d="M236.24,-420.2C242.91,-412.18 251.24,-402.17 258.3,-393.69"/>
<polygon fill="#63b8ff" stroke="#63b8ff" points="260.9,-396.04 264.6,-386.11 255.52,-391.56 260.9,-396.04"/>
</a>
</g>
</g>
<!-- Node33 -->
<g id="Node000033" class="node">
<title>Node33</title>
<g id="a_Node000033"><a xlink:title=" ">
<polygon fill="#e0e0e0" stroke="#999999" points="176.75,-384.5 137.5,-384.5 137.5,-365.25 176.75,-365.25 176.75,-384.5"/>
<text text-anchor="middle" x="157.12" y="-370.05" font-family="Arial" font-size="11.00">tuple</text>
</a>
</g>
</g>
<!-- Node31&#45;&gt;Node33 -->
<g id="edge42_Node000031_Node000033" class="edge">
<title>Node31&#45;&gt;Node33</title>
<g id="a_edge42_Node000031_Node000033"><a xlink:title=" ">
<path fill="none" stroke="#63b8ff" d="M207.56,-420.2C197.95,-411.75 185.81,-401.08 175.85,-392.33"/>
<polygon fill="#63b8ff" stroke="#63b8ff" points="178.41,-389.92 168.59,-385.95 173.79,-395.18 178.41,-389.92"/>
</a>
</g>
</g>
<!-- Node34 -->
<g id="Node000034" class="node">
<title>Node34</title>
<g id="a_Node000034"><a xlink:title=" ">
<polygon fill="#e0e0e0" stroke="#999999" points="235.12,-384.5 195.12,-384.5 195.12,-365.25 235.12,-365.25 235.12,-384.5"/>
<text text-anchor="middle" x="215.12" y="-370.05" font-family="Arial" font-size="11.00">utility</text>
</a>
</g>
</g>
<!-- Node31&#45;&gt;Node34 -->
<g id="edge43_Node000031_Node000034" class="edge">
<title>Node31&#45;&gt;Node34</title>
<g id="a_edge43_Node000031_Node000034"><a xlink:title=" ">
<path fill="none" stroke="#63b8ff" d="M221.9,-420.2C220.79,-412.96 219.44,-404.09 218.23,-396.19"/>
<polygon fill="#63b8ff" stroke="#63b8ff" points="221.71,-395.8 216.74,-386.45 214.79,-396.86 221.71,-395.8"/>
</a>
</g>
</g>
<!-- Node35&#45;&gt;Node2 -->
<g id="edge47_Node000035_Node000002" class="edge">
<title>Node35&#45;&gt;Node2</title>
<g id="a_edge47_Node000035_Node000002"><a xlink:title=" ">
<path fill="none" stroke="#63b8ff" d="M295.36,-541.84C271.87,-533.27 236.31,-520.31 209.77,-510.63"/>
<polygon fill="#63b8ff" stroke="#63b8ff" points="211.03,-507.36 200.44,-507.22 208.63,-513.94 211.03,-507.36"/>
</a>
</g>
</g>
<!-- Node35&#45;&gt;Node3 -->
<g id="edge52_Node000035_Node000003" class="edge">
<title>Node35&#45;&gt;Node3</title>
<g id="a_edge52_Node000035_Node000003"><a xlink:title=" ">
<path fill="none" stroke="#63b8ff" d="M343.14,-541.8C358.44,-534.54 377.58,-522.8 388.12,-506.25 409.77,-472.28 410.63,-423.35 409.05,-396.12"/>
<polygon fill="#63b8ff" stroke="#63b8ff" points="412.57,-396.17 408.31,-386.47 405.59,-396.7 412.57,-396.17"/>
</a>
</g>
</g>
<!-- Node35&#45;&gt;Node30 -->
<g id="edge53_Node000035_Node000030" class="edge">
<title>Node35&#45;&gt;Node30</title>
<g id="a_edge53_Node000035_Node000030"><a xlink:title=" ">
<path fill="none" stroke="#63b8ff" d="M320.12,-542.08C320.12,-535.57 320.12,-526.42 320.12,-518.12"/>
<polygon fill="#63b8ff" stroke="#63b8ff" points="323.63,-518.12 320.13,-508.12 316.63,-518.12 323.63,-518.12"/>
</a>
</g>
</g>
<!-- Node35&#45;&gt;Node31 -->
<g id="edge54_Node000035_Node000031" class="edge">
<title>Node35&#45;&gt;Node31</title>
<g id="a_edge54_Node000035_Node000031"><a xlink:title=" ">
<path fill="none" stroke="#63b8ff" d="M299.87,-541.76C284.92,-534.13 265.01,-521.98 252.12,-506.25 241.69,-493.52 234.73,-476.39 230.36,-462.32"/>
<polygon fill="#63b8ff" stroke="#63b8ff" points="233.77,-461.52 227.69,-452.84 227.03,-463.42 233.77,-461.52"/>
</a>
</g>
</g>
<!-- Node36 -->
<g id="Node000036" class="node">
<title>Node36</title>
<g id="a_Node000036"><a xlink:href="../../da/dac/angle_8h.html" target="_top" xlink:title="Newtype describing an angle.">
<polygon fill="white" stroke="#666666" points="578.88,-329.25 465.38,-329.25 465.38,-310 578.88,-310 578.88,-329.25"/>
<text text-anchor="middle" x="522.12" y="-314.8" font-family="Arial" font-size="11.00">floppy/euclid/angle.h</text>
</a>
</g>
</g>
<!-- Node35&#45;&gt;Node36 -->
<g id="edge48_Node000035_Node000036" class="edge">
<title>Node35&#45;&gt;Node36</title>
<g id="a_edge48_Node000035_Node000036"><a xlink:title=" ">
<path fill="none" stroke="#63b8ff" d="M346.37,-541.77C364.93,-534.37 389.53,-522.48 407.12,-506.25 460.93,-456.62 499,-376.25 514.45,-339.75"/>
<polygon fill="#63b8ff" stroke="#63b8ff" points="517.51,-341.51 518.09,-330.93 511.04,-338.84 517.51,-341.51"/>
</a>
</g>
</g>
<!-- Node36&#45;&gt;Node5 -->
<g id="edge49_Node000036_Node000005" class="edge">
<title>Node36&#45;&gt;Node5</title>
<g id="a_edge49_Node000036_Node000005"><a xlink:title=" ">
<path fill="none" stroke="#63b8ff" d="M506.95,-309.61C471,-288.24 380.33,-234.37 336.13,-208.11"/>
<polygon fill="#63b8ff" stroke="#63b8ff" points="338.13,-205.23 327.75,-203.13 334.56,-211.24 338.13,-205.23"/>
</a>
</g>
</g>
<!-- Node36&#45;&gt;Node22 -->
<g id="edge50_Node000036_Node000022" class="edge">
<title>Node36&#45;&gt;Node22</title>
<g id="a_edge50_Node000036_Node000022"><a xlink:title=" ">
<path fill="none" stroke="#63b8ff" d="M522.12,-309.68C522.12,-301.9 522.12,-290.33 522.12,-280.28"/>
<polygon fill="#63b8ff" stroke="#63b8ff" points="525.63,-280.29 522.13,-270.29 518.63,-280.29 525.63,-280.29"/>
</a>
</g>
</g>
<!-- Node36&#45;&gt;Node29 -->
<g id="edge51_Node000036_Node000029" class="edge">
<title>Node36&#45;&gt;Node29</title>
<g id="a_edge51_Node000036_Node000029"><a xlink:title=" ">
<path fill="none" stroke="#63b8ff" d="M489.62,-309.55C459,-301.01 412.3,-287.98 374.34,-277.39"/>
<polygon fill="#63b8ff" stroke="#63b8ff" points="375.41,-274.05 364.84,-274.74 373.53,-280.8 375.41,-274.05"/>
</a>
</g>
</g>
</g>
</svg>

<g id="navigator" transform="translate(0 0)" fill="#404254">
  <rect fill="#f2f5e9" fill-opacity="0.5" stroke="#606060" stroke-width=".5" x="0" y="0" width="60" height="60"/>
  <use id="zoomplus" xlink:href="#zoomPlus" x="17" y="9" onmousedown="handleZoom(evt,'in')"/>
  <use id="zoomminus" xlink:href="#zoomMin" x="42" y="9" onmousedown="handleZoom(evt,'out')"/>
  <use id="reset" xlink:href="#resetDef" x="30" y="36" onmousedown="handleReset()"/>
   <use id="arrowup" xlink:href="#arrowUp" x="0" y="0" onmousedown="handlePan(0,-1)"/>
  <use id="arrowright" xlink:href="#arrowRight" x="0" y="0" onmousedown="handlePan(1,0)"/>
  <use id="arrowdown" xlink:href="#arrowDown" x="0" y="0" onmousedown="handlePan(0,1)"/>
  <use id="arrowleft" xlink:href="#arrowLeft" x="0" y="0" onmousedown="handlePan(-1,0)"/>
</g>
<svg viewBox="0 0 15 15" width="100%" height="30px" preserveAspectRatio="xMaxYMin meet">
 <g id="arrow_out" transform="scale(0.3 0.3)">
  <a xlink:href="point2d_8h__incl_org.svg" target="_base">
   <rect id="button" ry="5" rx="5" y="6" x="6" height="38" width="38"
        fill="#f2f5e9" fill-opacity="0.5" stroke="#606060" stroke-width="1.0"/>
   <path id="arrow"
     d="M 11.500037,31.436501 C 11.940474,20.09759 22.043105,11.32322 32.158766,21.979434 L 37.068811,17.246167 C 37.068811,17.246167 37.088388,32 37.088388,32 L 22.160133,31.978069 C 22.160133,31.978069 26.997745,27.140456 26.997745,27.140456 C 18.528582,18.264221 13.291696,25.230495 11.500037,31.436501 z"
     style="fill:#404040;"/>
  </a>
 </g>
</svg>

<style type='text/css'>
<![CDATA[
[data-mouse-over-selected='false'] { opacity: 0.7; }
[data-mouse-over-selected='true']  { opacity: 1.0; }
]]>
</style>
<script type="application/ecmascript"><![CDATA[
document.addEventListener('DOMContentLoaded', (event) => {
  highlightEdges();
  highlightAdjacentNodes();
});
]]></script>
</svg>
