<?xml version="1.0" encoding="UTF-8" standalone="no"?>
<!DOCTYPE svg PUBLIC "-//W3C//DTD SVG 1.1//EN"
 "http://www.w3.org/Graphics/SVG/1.1/DTD/svg11.dtd">
<!-- Generated by graphviz version 10.0.1 (0)
 -->
<!-- Title: point2d.h Pages: 1 -->
<svg width="989pt" height="514pt"
 viewBox="0.00 0.00 988.62 514.25" xmlns="http://www.w3.org/2000/svg" xmlns:xlink="http://www.w3.org/1999/xlink">
<g id="graph0" class="graph" transform="scale(1 1) rotate(0) translate(4 510.25)">
<title>point2d.h</title>
<!-- Node1 -->
<g id="Node000001" class="node">
<title>Node1</title>
<g id="a_Node000001"><a xlink:title="A two&#45;dimensional point tagged with a unit.">
<polygon fill="#999999" stroke="#666666" points="296.12,-506.25 235.88,-506.25 235.88,-487 296.12,-487 296.12,-506.25"/>
<text text-anchor="middle" x="266" y="-491.8" font-family="Arial" font-size="11.00">point2d.h</text>
</a>
</g>
</g>
<!-- Node2 -->
<g id="Node000002" class="node">
<title>Node2</title>
<g id="a_Node000002"><a xlink:title=" ">
<polygon fill="#e0e0e0" stroke="#999999" points="237.88,-445.38 176.12,-445.38 176.12,-426.12 237.88,-426.12 237.88,-445.38"/>
<text text-anchor="middle" x="207" y="-430.93" font-family="Arial" font-size="11.00">functional</text>
</a>
</g>
</g>
<!-- Node1&#45;&gt;Node2 -->
<g id="edge1_Node000001_Node000002" class="edge">
<title>Node1&#45;&gt;Node2</title>
<g id="a_edge1_Node000001_Node000002"><a xlink:title=" ">
<path fill="none" stroke="#63b8ff" d="M257.04,-486.68C248.29,-477.95 234.75,-464.44 223.96,-453.68"/>
<polygon fill="#63b8ff" stroke="#63b8ff" points="226.67,-451.43 217.12,-446.85 221.72,-456.39 226.67,-451.43"/>
</a>
</g>
</g>
<!-- Node3 -->
<g id="Node000003" class="node">
<title>Node3</title>
<g id="a_Node000003"><a xlink:href="../../dd/db9/length_8h.html" target="_top" xlink:title="A one&#45;dimensional distance with associated unit of measurement.">
<polygon fill="white" stroke="#666666" points="316.25,-384.5 199.75,-384.5 199.75,-365.25 316.25,-365.25 316.25,-384.5"/>
<text text-anchor="middle" x="258" y="-370.05" font-family="Arial" font-size="11.00">floppy/euclid/length.h</text>
</a>
</g>
</g>
<!-- Node1&#45;&gt;Node3 -->
<g id="edge2_Node000001_Node000003" class="edge">
<title>Node1&#45;&gt;Node3</title>
<g id="a_edge2_Node000001_Node000003"><a xlink:title=" ">
<path fill="none" stroke="#63b8ff" d="M265.4,-486.62C264.12,-467.55 261.13,-422.66 259.36,-396.26"/>
<polygon fill="#63b8ff" stroke="#63b8ff" points="262.87,-396.23 258.71,-386.49 255.88,-396.7 262.87,-396.23"/>
</a>
</g>
</g>
<!-- Node29 -->
<g id="Node000029" class="node">
<title>Node29</title>
<g id="a_Node000029"><a xlink:href="../../da/d53/nt__traits2d_8h_source.html" target="_top" xlink:title=" ">
<polygon fill="white" stroke="#666666" points="429.88,-451 326.12,-451 326.12,-420.5 429.88,-420.5 429.88,-451"/>
<text text-anchor="start" x="334.12" y="-436.55" font-family="Arial" font-size="11.00">floppy/euclid/detail</text>
<text text-anchor="middle" x="378" y="-425.3" font-family="Arial" font-size="11.00">/nt_traits2d.h</text>
</a>
</g>
</g>
<!-- Node1&#45;&gt;Node29 -->
<g id="edge35_Node000001_Node000029" class="edge">
<title>Node1&#45;&gt;Node29</title>
<g id="a_edge35_Node000001_Node000029"><a xlink:title=" ">
<path fill="none" stroke="#63b8ff" d="M283.01,-486.68C298.16,-478.72 320.86,-466.79 340.27,-456.58"/>
<polygon fill="#63b8ff" stroke="#63b8ff" points="341.79,-459.74 349.02,-451.99 338.54,-453.54 341.79,-459.74"/>
</a>
</g>
</g>
<!-- Node4 -->
<g id="Node000004" class="node">
<title>Node4</title>
<g id="a_Node000004"><a xlink:href="../../d8/d0c/scale_8h.html" target="_top" xlink:title="A scaling factor between two different units of measurement.">
<polygon fill="white" stroke="#666666" points="314,-329.25 202,-329.25 202,-310 314,-310 314,-329.25"/>
<text text-anchor="middle" x="258" y="-314.8" font-family="Arial" font-size="11.00">floppy/euclid/scale.h</text>
</a>
</g>
</g>
<!-- Node3&#45;&gt;Node4 -->
<g id="edge3_Node000003_Node000004" class="edge">
<title>Node3&#45;&gt;Node4</title>
<g id="a_edge3_Node000003_Node000004"><a xlink:title=" ">
<path fill="none" stroke="#63b8ff" d="M258,-365.08C258,-358.57 258,-349.42 258,-341.12"/>
<polygon fill="#63b8ff" stroke="#63b8ff" points="261.5,-341.12 258,-331.12 254.5,-341.12 261.5,-341.12"/>
</a>
</g>
</g>
<!-- Node28 -->
<g id="Node000028" class="node">
<title>Node28</title>
<g id="a_Node000028"><a xlink:href="../../de/de1/nt__traits_8h_source.html" target="_top" xlink:title=" ">
<polygon fill="white" stroke="#666666" points="393.88,-274 290.12,-274 290.12,-243.5 393.88,-243.5 393.88,-274"/>
<text text-anchor="start" x="298.12" y="-259.55" font-family="Arial" font-size="11.00">floppy/euclid/detail</text>
<text text-anchor="middle" x="342" y="-248.3" font-family="Arial" font-size="11.00">/nt_traits.h</text>
</a>
</g>
</g>
<!-- Node3&#45;&gt;Node28 -->
<g id="edge34_Node000003_Node000028" class="edge">
<title>Node3&#45;&gt;Node28</title>
<g id="a_edge34_Node000003_Node000028"><a xlink:title=" ">
<path fill="none" stroke="#63b8ff" d="M278.18,-364.79C292.71,-357.26 311.66,-345.2 323,-329.25 332.08,-316.48 336.82,-299.56 339.3,-285.61"/>
<polygon fill="#63b8ff" stroke="#63b8ff" points="342.75,-286.2 340.73,-275.8 335.83,-285.19 342.75,-286.2"/>
</a>
</g>
</g>
<!-- Node5 -->
<g id="Node000005" class="node">
<title>Node5</title>
<g id="a_Node000005"><a xlink:href="../../df/db1/math_8h_source.html" target="_top" xlink:title=" ">
<polygon fill="white" stroke="#666666" points="286.5,-207.5 177.5,-207.5 177.5,-188.25 286.5,-188.25 286.5,-207.5"/>
<text text-anchor="middle" x="232" y="-193.05" font-family="Arial" font-size="11.00">floppy/detail/math.h</text>
</a>
</g>
</g>
<!-- Node4&#45;&gt;Node5 -->
<g id="edge4_Node000004_Node000005" class="edge">
<title>Node4&#45;&gt;Node5</title>
<g id="a_edge4_Node000004_Node000005"><a xlink:title=" ">
<path fill="none" stroke="#63b8ff" d="M255.98,-309.74C253.94,-300.74 250.71,-286.41 248,-274 243.91,-255.27 239.37,-233.89 236.17,-218.74"/>
<polygon fill="#63b8ff" stroke="#63b8ff" points="239.64,-218.22 234.15,-209.15 232.79,-219.66 239.64,-218.22"/>
</a>
</g>
</g>
<!-- Node21 -->
<g id="Node000021" class="node">
<title>Node21</title>
<g id="a_Node000021"><a xlink:href="../../dd/dff/traits_8h_source.html" target="_top" xlink:title=" ">
<polygon fill="white" stroke="#666666" points="714.88,-207.5 635.12,-207.5 635.12,-188.25 714.88,-188.25 714.88,-207.5"/>
<text text-anchor="middle" x="675" y="-193.05" font-family="Arial" font-size="11.00">floppy/traits.h</text>
</a>
</g>
</g>
<!-- Node4&#45;&gt;Node21 -->
<g id="edge21_Node000004_Node000021" class="edge">
<title>Node4&#45;&gt;Node21</title>
<g id="a_edge21_Node000004_Node000021"><a xlink:title=" ">
<path fill="none" stroke="#63b8ff" d="M257.82,-309.52C258.05,-293.42 261.07,-260.06 281,-243.5 306.85,-222.02 522.5,-207.35 623.36,-201.59"/>
<polygon fill="#63b8ff" stroke="#63b8ff" points="623.49,-205.09 633.27,-201.04 623.09,-198.1 623.49,-205.09"/>
</a>
</g>
</g>
<!-- Node4&#45;&gt;Node28 -->
<g id="edge31_Node000004_Node000028" class="edge">
<title>Node4&#45;&gt;Node28</title>
<g id="a_edge31_Node000004_Node000028"><a xlink:title=" ">
<path fill="none" stroke="#63b8ff" d="M270.76,-309.68C281.65,-302.05 297.74,-290.77 311.88,-280.86"/>
<polygon fill="#63b8ff" stroke="#63b8ff" points="313.85,-283.76 320.03,-275.15 309.83,-278.02 313.85,-283.76"/>
</a>
</g>
</g>
<!-- Node6 -->
<g id="Node000006" class="node">
<title>Node6</title>
<g id="a_Node000006"><a xlink:title=" ">
<polygon fill="#e0e0e0" stroke="#999999" points="197.62,-146.62 152.38,-146.62 152.38,-127.38 197.62,-127.38 197.62,-146.62"/>
<text text-anchor="middle" x="175" y="-132.18" font-family="Arial" font-size="11.00">cmath</text>
</a>
</g>
</g>
<!-- Node5&#45;&gt;Node6 -->
<g id="edge5_Node000005_Node000006" class="edge">
<title>Node5&#45;&gt;Node6</title>
<g id="a_edge5_Node000005_Node000006"><a xlink:title=" ">
<path fill="none" stroke="#63b8ff" d="M223.34,-187.93C214.97,-179.29 202.07,-165.96 191.7,-155.25"/>
<polygon fill="#63b8ff" stroke="#63b8ff" points="194.26,-152.86 184.79,-148.11 189.23,-157.73 194.26,-152.86"/>
</a>
</g>
</g>
<!-- Node7 -->
<g id="Node000007" class="node">
<title>Node7</title>
<g id="a_Node000007"><a xlink:title=" ">
<polygon fill="#e0e0e0" stroke="#999999" points="256,-146.62 216,-146.62 216,-127.38 256,-127.38 256,-146.62"/>
<text text-anchor="middle" x="236" y="-132.18" font-family="Arial" font-size="11.00">limits</text>
</a>
</g>
</g>
<!-- Node5&#45;&gt;Node7 -->
<g id="edge6_Node000005_Node000007" class="edge">
<title>Node5&#45;&gt;Node7</title>
<g id="a_edge6_Node000005_Node000007"><a xlink:title=" ">
<path fill="none" stroke="#63b8ff" d="M232.61,-187.93C233.14,-180.07 233.94,-168.32 234.63,-158.2"/>
<polygon fill="#63b8ff" stroke="#63b8ff" points="238.1,-158.75 235.28,-148.54 231.11,-158.28 238.1,-158.75"/>
</a>
</g>
</g>
<!-- Node8 -->
<g id="Node000008" class="node">
<title>Node8</title>
<g id="a_Node000008"><a xlink:title=" ">
<polygon fill="#e0e0e0" stroke="#999999" points="58,-146.62 0,-146.62 0,-127.38 58,-127.38 58,-146.62"/>
<text text-anchor="middle" x="29" y="-132.18" font-family="Arial" font-size="11.00">numbers</text>
</a>
</g>
</g>
<!-- Node5&#45;&gt;Node8 -->
<g id="edge7_Node000005_Node000008" class="edge">
<title>Node5&#45;&gt;Node8</title>
<g id="a_edge7_Node000005_Node000008"><a xlink:title=" ">
<path fill="none" stroke="#63b8ff" d="M194.35,-187.77C160.71,-179.39 110.22,-166.16 67,-152.25 65.64,-151.81 64.26,-151.36 62.87,-150.88"/>
<polygon fill="#63b8ff" stroke="#63b8ff" points="64.21,-147.65 53.62,-147.6 61.87,-154.24 64.21,-147.65"/>
</a>
</g>
</g>
<!-- Node9 -->
<g id="Node000009" class="node">
<title>Node9</title>
<g id="a_Node000009"><a xlink:title=" ">
<polygon fill="#e0e0e0" stroke="#999999" points="134,-146.62 76,-146.62 76,-127.38 134,-127.38 134,-146.62"/>
<text text-anchor="middle" x="105" y="-132.18" font-family="Arial" font-size="11.00">compare</text>
</a>
</g>
</g>
<!-- Node5&#45;&gt;Node9 -->
<g id="edge8_Node000005_Node000009" class="edge">
<title>Node5&#45;&gt;Node9</title>
<g id="a_edge8_Node000005_Node000009"><a xlink:title=" ">
<path fill="none" stroke="#63b8ff" d="M212.43,-187.8C191.68,-178.18 158.64,-162.87 134.67,-151.76"/>
<polygon fill="#63b8ff" stroke="#63b8ff" points="136.3,-148.65 125.75,-147.62 133.35,-155 136.3,-148.65"/>
</a>
</g>
</g>
<!-- Node10 -->
<g id="Node000010" class="node">
<title>Node10</title>
<g id="a_Node000010"><a xlink:href="../../db/db5/export_8h_source.html" target="_top" xlink:title=" ">
<polygon fill="white" stroke="#666666" points="534.5,-146.62 419.5,-146.62 419.5,-127.38 534.5,-127.38 534.5,-146.62"/>
<text text-anchor="middle" x="477" y="-132.18" font-family="Arial" font-size="11.00">floppy/detail/export.h</text>
</a>
</g>
</g>
<!-- Node5&#45;&gt;Node10 -->
<g id="edge9_Node000005_Node000010" class="edge">
<title>Node5&#45;&gt;Node10</title>
<g id="a_edge9_Node000005_Node000010"><a xlink:title=" ">
<path fill="none" stroke="#63b8ff" d="M269.74,-187.8C312.28,-177.58 381.55,-160.94 428.17,-149.73"/>
<polygon fill="#63b8ff" stroke="#63b8ff" points="428.84,-153.17 437.74,-147.43 427.2,-146.37 428.84,-153.17"/>
</a>
</g>
</g>
<!-- Node13 -->
<g id="Node000013" class="node">
<title>Node13</title>
<g id="a_Node000013"><a xlink:href="../../d9/db1/concepts_8h_source.html" target="_top" xlink:title=" ">
<polygon fill="white" stroke="#666666" points="401.88,-146.62 274.12,-146.62 274.12,-127.38 401.88,-127.38 401.88,-146.62"/>
<text text-anchor="middle" x="338" y="-132.18" font-family="Arial" font-size="11.00">floppy/detail/concepts.h</text>
</a>
</g>
</g>
<!-- Node5&#45;&gt;Node13 -->
<g id="edge12_Node000005_Node000013" class="edge">
<title>Node5&#45;&gt;Node13</title>
<g id="a_edge12_Node000005_Node000013"><a xlink:title=" ">
<path fill="none" stroke="#63b8ff" d="M248.1,-187.93C264.99,-178.55 291.8,-163.66 311.75,-152.58"/>
<polygon fill="#63b8ff" stroke="#63b8ff" points="313.38,-155.68 320.43,-147.76 309.98,-149.56 313.38,-155.68"/>
</a>
</g>
</g>
<!-- Node11 -->
<g id="Node000011" class="node">
<title>Node11</title>
<g id="a_Node000011"><a xlink:title=" ">
<polygon fill="#e0e0e0" stroke="#999999" points="475.12,-80.12 432.88,-80.12 432.88,-60.88 475.12,-60.88 475.12,-80.12"/>
<text text-anchor="middle" x="454" y="-65.67" font-family="Arial" font-size="11.00">string</text>
</a>
</g>
</g>
<!-- Node10&#45;&gt;Node11 -->
<g id="edge10_Node000010_Node000011" class="edge">
<title>Node10&#45;&gt;Node11</title>
<g id="a_edge10_Node000010_Node000011"><a xlink:title=" ">
<path fill="none" stroke="#63b8ff" d="M473.8,-127.03C470.51,-117.79 465.26,-103.08 461,-91.13"/>
<polygon fill="#63b8ff" stroke="#63b8ff" points="464.33,-90.06 457.68,-81.82 457.74,-92.41 464.33,-90.06"/>
</a>
</g>
</g>
<!-- Node12 -->
<g id="Node000012" class="node">
<title>Node12</title>
<g id="a_Node000012"><a xlink:title=" ">
<polygon fill="#e0e0e0" stroke="#999999" points="563,-80.12 493,-80.12 493,-60.88 563,-60.88 563,-80.12"/>
<text text-anchor="middle" x="528" y="-65.67" font-family="Arial" font-size="11.00">string_view</text>
</a>
</g>
</g>
<!-- Node10&#45;&gt;Node12 -->
<g id="edge11_Node000010_Node000012" class="edge">
<title>Node10&#45;&gt;Node12</title>
<g id="a_edge11_Node000010_Node000012"><a xlink:title=" ">
<path fill="none" stroke="#63b8ff" d="M484.09,-127.03C491.78,-117.31 504.25,-101.54 513.94,-89.28"/>
<polygon fill="#63b8ff" stroke="#63b8ff" points="516.57,-91.59 520.03,-81.58 511.08,-87.25 516.57,-91.59"/>
</a>
</g>
</g>
<!-- Node14 -->
<g id="Node000014" class="node">
<title>Node14</title>
<g id="a_Node000014"><a xlink:href="../../df/d63/type__traits_8h_source.html" target="_top" xlink:title=" ">
<polygon fill="white" stroke="#666666" points="287.12,-85.75 190.88,-85.75 190.88,-55.25 287.12,-55.25 287.12,-85.75"/>
<text text-anchor="start" x="198.88" y="-71.3" font-family="Arial" font-size="11.00">floppy/detail/type</text>
<text text-anchor="middle" x="239" y="-60.05" font-family="Arial" font-size="11.00">_traits.h</text>
</a>
</g>
</g>
<!-- Node13&#45;&gt;Node14 -->
<g id="edge13_Node000013_Node000014" class="edge">
<title>Node13&#45;&gt;Node14</title>
<g id="a_edge13_Node000013_Node000014"><a xlink:title=" ">
<path fill="none" stroke="#63b8ff" d="M324.23,-127.03C310.52,-118.09 288.96,-104.05 270.96,-92.32"/>
<polygon fill="#63b8ff" stroke="#63b8ff" points="272.95,-89.44 262.66,-86.92 269.13,-95.31 272.95,-89.44"/>
</a>
</g>
</g>
<!-- Node16 -->
<g id="Node000016" class="node">
<title>Node16</title>
<g id="a_Node000016"><a xlink:href="../../d9/d49/types_8h_source.html" target="_top" xlink:title=" ">
<polygon fill="white" stroke="#666666" points="415.25,-80.12 304.75,-80.12 304.75,-60.88 415.25,-60.88 415.25,-80.12"/>
<text text-anchor="middle" x="360" y="-65.67" font-family="Arial" font-size="11.00">floppy/detail/types.h</text>
</a>
</g>
</g>
<!-- Node13&#45;&gt;Node16 -->
<g id="edge15_Node000013_Node000016" class="edge">
<title>Node13&#45;&gt;Node16</title>
<g id="a_edge15_Node000013_Node000016"><a xlink:title=" ">
<path fill="none" stroke="#63b8ff" d="M341.06,-127.03C344.21,-117.79 349.23,-103.08 353.3,-91.13"/>
<polygon fill="#63b8ff" stroke="#63b8ff" points="356.56,-92.42 356.48,-81.82 349.94,-90.16 356.56,-92.42"/>
</a>
</g>
</g>
<!-- Node15 -->
<g id="Node000015" class="node">
<title>Node15</title>
<g id="a_Node000015"><a xlink:title=" ">
<polygon fill="#e0e0e0" stroke="#999999" points="271.75,-19.25 206.25,-19.25 206.25,0 271.75,0 271.75,-19.25"/>
<text text-anchor="middle" x="239" y="-4.8" font-family="Arial" font-size="11.00">type_traits</text>
</a>
</g>
</g>
<!-- Node14&#45;&gt;Node15 -->
<g id="edge14_Node000014_Node000015" class="edge">
<title>Node14&#45;&gt;Node15</title>
<g id="a_edge14_Node000014_Node000015"><a xlink:title=" ">
<path fill="none" stroke="#63b8ff" d="M239,-54.95C239,-47.71 239,-38.84 239,-30.94"/>
<polygon fill="#63b8ff" stroke="#63b8ff" points="242.5,-31.21 239,-21.21 235.5,-31.21 242.5,-31.21"/>
</a>
</g>
</g>
<!-- Node16&#45;&gt;Node15 -->
<g id="edge19_Node000016_Node000015" class="edge">
<title>Node16&#45;&gt;Node15</title>
<g id="a_edge19_Node000016_Node000015"><a xlink:title=" ">
<path fill="none" stroke="#63b8ff" d="M341.36,-60.43C321.67,-50.85 290.39,-35.63 267.58,-24.53"/>
<polygon fill="#63b8ff" stroke="#63b8ff" points="269.35,-21.5 258.82,-20.27 266.29,-27.79 269.35,-21.5"/>
</a>
</g>
</g>
<!-- Node17 -->
<g id="Node000017" class="node">
<title>Node17</title>
<g id="a_Node000017"><a xlink:title=" ">
<polygon fill="#e0e0e0" stroke="#999999" points="476.25,-19.25 425.75,-19.25 425.75,0 476.25,0 476.25,-19.25"/>
<text text-anchor="middle" x="451" y="-4.8" font-family="Arial" font-size="11.00">cstddef</text>
</a>
</g>
</g>
<!-- Node16&#45;&gt;Node17 -->
<g id="edge16_Node000016_Node000017" class="edge">
<title>Node16&#45;&gt;Node17</title>
<g id="a_edge16_Node000016_Node000017"><a xlink:title=" ">
<path fill="none" stroke="#63b8ff" d="M373.82,-60.56C388.12,-51.31 410.7,-36.7 427.75,-25.67"/>
<polygon fill="#63b8ff" stroke="#63b8ff" points="429.28,-28.84 435.78,-20.47 425.48,-22.97 429.28,-28.84"/>
</a>
</g>
</g>
<!-- Node18 -->
<g id="Node000018" class="node">
<title>Node18</title>
<g id="a_Node000018"><a xlink:title=" ">
<polygon fill="#e0e0e0" stroke="#999999" points="336.38,-19.25 289.62,-19.25 289.62,0 336.38,0 336.38,-19.25"/>
<text text-anchor="middle" x="313" y="-4.8" font-family="Arial" font-size="11.00">cstdint</text>
</a>
</g>
</g>
<!-- Node16&#45;&gt;Node18 -->
<g id="edge17_Node000016_Node000018" class="edge">
<title>Node16&#45;&gt;Node18</title>
<g id="a_edge17_Node000016_Node000018"><a xlink:title=" ">
<path fill="none" stroke="#63b8ff" d="M352.86,-60.56C346.1,-52.09 335.75,-39.12 327.29,-28.52"/>
<polygon fill="#63b8ff" stroke="#63b8ff" points="330.12,-26.47 321.15,-20.83 324.65,-30.83 330.12,-26.47"/>
</a>
</g>
</g>
<!-- Node19 -->
<g id="Node000019" class="node">
<title>Node19</title>
<g id="a_Node000019"><a xlink:title=" ">
<polygon fill="#e0e0e0" stroke="#999999" points="407.75,-19.25 354.25,-19.25 354.25,0 407.75,0 407.75,-19.25"/>
<text text-anchor="middle" x="381" y="-4.8" font-family="Arial" font-size="11.00">optional</text>
</a>
</g>
</g>
<!-- Node16&#45;&gt;Node19 -->
<g id="edge18_Node000016_Node000019" class="edge">
<title>Node16&#45;&gt;Node19</title>
<g id="a_edge18_Node000016_Node000019"><a xlink:title=" ">
<path fill="none" stroke="#63b8ff" d="M363.19,-60.56C366.03,-52.6 370.28,-40.69 373.91,-30.49"/>
<polygon fill="#63b8ff" stroke="#63b8ff" points="377.21,-31.67 377.27,-21.08 370.62,-29.32 377.21,-31.67"/>
</a>
</g>
</g>
<!-- Node20 -->
<g id="Node000020" class="node">
<title>Node20</title>
<g id="a_Node000020"><a xlink:title=" ">
<polygon fill="#e0e0e0" stroke="#999999" points="597.88,-19.25 524.12,-19.25 524.12,0 597.88,0 597.88,-19.25"/>
<text text-anchor="middle" x="561" y="-4.8" font-family="Arial" font-size="11.00">fmt/format.h</text>
</a>
</g>
</g>
<!-- Node16&#45;&gt;Node20 -->
<g id="edge20_Node000016_Node000020" class="edge">
<title>Node16&#45;&gt;Node20</title>
<g id="a_edge20_Node000016_Node000020"><a xlink:title=" ">
<path fill="none" stroke="#63b8ff" d="M390.97,-60.43C425.34,-50.36 481.01,-34.05 519.23,-22.86"/>
<polygon fill="#63b8ff" stroke="#63b8ff" points="519.93,-26.3 528.55,-20.13 517.97,-19.58 519.93,-26.3"/>
</a>
</g>
</g>
<!-- Node21&#45;&gt;Node10 -->
<g id="edge25_Node000021_Node000010" class="edge">
<title>Node21&#45;&gt;Node10</title>
<g id="a_edge25_Node000021_Node000010"><a xlink:title=" ">
<path fill="none" stroke="#63b8ff" d="M644.5,-187.8C610.63,-177.74 555.79,-161.43 518.15,-150.24"/>
<polygon fill="#63b8ff" stroke="#63b8ff" points="519.57,-147.01 508.99,-147.51 517.58,-153.72 519.57,-147.01"/>
</a>
</g>
</g>
<!-- Node22 -->
<g id="Node000022" class="node">
<title>Node22</title>
<g id="a_Node000022"><a xlink:title=" ">
<polygon fill="#e0e0e0" stroke="#999999" points="758.5,-146.62 703.5,-146.62 703.5,-127.38 758.5,-127.38 758.5,-146.62"/>
<text text-anchor="middle" x="731" y="-132.18" font-family="Arial" font-size="11.00">memory</text>
</a>
</g>
</g>
<!-- Node21&#45;&gt;Node22 -->
<g id="edge22_Node000021_Node000022" class="edge">
<title>Node21&#45;&gt;Node22</title>
<g id="a_edge22_Node000021_Node000022"><a xlink:title=" ">
<path fill="none" stroke="#63b8ff" d="M683.51,-187.93C691.73,-179.29 704.4,-165.96 714.59,-155.25"/>
<polygon fill="#63b8ff" stroke="#63b8ff" points="717.02,-157.78 721.37,-148.12 711.94,-152.96 717.02,-157.78"/>
</a>
</g>
</g>
<!-- Node23 -->
<g id="Node000023" class="node">
<title>Node23</title>
<g id="a_Node000023"><a xlink:title=" ">
<polygon fill="#e0e0e0" stroke="#999999" points="833.62,-146.62 776.38,-146.62 776.38,-127.38 833.62,-127.38 833.62,-146.62"/>
<text text-anchor="middle" x="805" y="-132.18" font-family="Arial" font-size="11.00">iostream</text>
</a>
</g>
</g>
<!-- Node21&#45;&gt;Node23 -->
<g id="edge23_Node000021_Node000023" class="edge">
<title>Node21&#45;&gt;Node23</title>
<g id="a_edge23_Node000021_Node000023"><a xlink:title=" ">
<path fill="none" stroke="#63b8ff" d="M695.03,-187.8C716.37,-178.14 750.4,-162.73 774.96,-151.61"/>
<polygon fill="#63b8ff" stroke="#63b8ff" points="776.12,-154.92 783.78,-147.61 773.23,-148.55 776.12,-154.92"/>
</a>
</g>
</g>
<!-- Node24 -->
<g id="Node000024" class="node">
<title>Node24</title>
<g id="a_Node000024"><a xlink:title=" ">
<polygon fill="#e0e0e0" stroke="#999999" points="980.62,-152.25 851.38,-152.25 851.38,-121.75 980.62,-121.75 980.62,-152.25"/>
<text text-anchor="start" x="859.38" y="-137.8" font-family="Arial" font-size="11.00">experimental/propagate</text>
<text text-anchor="middle" x="916" y="-126.55" font-family="Arial" font-size="11.00">_const</text>
</a>
</g>
</g>
<!-- Node21&#45;&gt;Node24 -->
<g id="edge24_Node000021_Node000024" class="edge">
<title>Node21&#45;&gt;Node24</title>
<g id="a_edge24_Node000021_Node000024"><a xlink:title=" ">
<path fill="none" stroke="#63b8ff" d="M712.13,-187.8C747.35,-179.2 801.22,-166.04 844.74,-155.41"/>
<polygon fill="#63b8ff" stroke="#63b8ff" points="845.49,-158.83 854.38,-153.05 843.83,-152.03 845.49,-158.83"/>
</a>
</g>
</g>
<!-- Node25 -->
<g id="Node000025" class="node">
<title>Node25</title>
<g id="a_Node000025"><a xlink:href="../../d6/d45/formatters_8h_source.html" target="_top" xlink:title=" ">
<polygon fill="white" stroke="#666666" points="685.88,-146.62 552.12,-146.62 552.12,-127.38 685.88,-127.38 685.88,-146.62"/>
<text text-anchor="middle" x="619" y="-132.18" font-family="Arial" font-size="11.00">floppy/detail/formatters.h</text>
</a>
</g>
</g>
<!-- Node21&#45;&gt;Node25 -->
<g id="edge26_Node000021_Node000025" class="edge">
<title>Node21&#45;&gt;Node25</title>
<g id="a_edge26_Node000021_Node000025"><a xlink:title=" ">
<path fill="none" stroke="#63b8ff" d="M666.49,-187.93C658.27,-179.29 645.6,-165.96 635.41,-155.25"/>
<polygon fill="#63b8ff" stroke="#63b8ff" points="638.06,-152.96 628.63,-148.12 632.98,-157.78 638.06,-152.96"/>
</a>
</g>
</g>
<!-- Node25&#45;&gt;Node12 -->
<g id="edge27_Node000025_Node000012" class="edge">
<title>Node25&#45;&gt;Node12</title>
<g id="a_edge27_Node000025_Node000012"><a xlink:title=" ">
<path fill="none" stroke="#63b8ff" d="M606.35,-127.03C591.76,-116.69 567.53,-99.52 549.87,-87"/>
<polygon fill="#63b8ff" stroke="#63b8ff" points="552.26,-84.4 542.07,-81.48 548.21,-90.11 552.26,-84.4"/>
</a>
</g>
</g>
<!-- Node25&#45;&gt;Node20 -->
<g id="edge30_Node000025_Node000020" class="edge">
<title>Node25&#45;&gt;Node20</title>
<g id="a_edge30_Node000025_Node000020"><a xlink:title=" ">
<path fill="none" stroke="#63b8ff" d="M614.83,-126.98C605.47,-106.74 582.6,-57.32 569.89,-29.84"/>
<polygon fill="#63b8ff" stroke="#63b8ff" points="573.14,-28.54 565.77,-20.93 566.79,-31.48 573.14,-28.54"/>
</a>
</g>
</g>
<!-- Node26 -->
<g id="Node000026" class="node">
<title>Node26</title>
<g id="a_Node000026"><a xlink:title=" ">
<polygon fill="#e0e0e0" stroke="#999999" points="673.12,-80.12 618.88,-80.12 618.88,-60.88 673.12,-60.88 673.12,-80.12"/>
<text text-anchor="middle" x="646" y="-65.67" font-family="Arial" font-size="11.00">sstream</text>
</a>
</g>
</g>
<!-- Node25&#45;&gt;Node26 -->
<g id="edge28_Node000025_Node000026" class="edge">
<title>Node25&#45;&gt;Node26</title>
<g id="a_edge28_Node000025_Node000026"><a xlink:title=" ">
<path fill="none" stroke="#63b8ff" d="M622.75,-127.03C626.66,-117.69 632.91,-102.78 637.94,-90.76"/>
<polygon fill="#63b8ff" stroke="#63b8ff" points="641.06,-92.36 641.69,-81.79 634.6,-89.66 641.06,-92.36"/>
</a>
</g>
</g>
<!-- Node27 -->
<g id="Node000027" class="node">
<title>Node27</title>
<g id="a_Node000027"><a xlink:title=" ">
<polygon fill="#e0e0e0" stroke="#999999" points="738.38,-80.12 691.62,-80.12 691.62,-60.88 738.38,-60.88 738.38,-80.12"/>
<text text-anchor="middle" x="715" y="-65.67" font-family="Arial" font-size="11.00">iosfwd</text>
</a>
</g>
</g>
<!-- Node25&#45;&gt;Node27 -->
<g id="edge29_Node000025_Node000027" class="edge">
<title>Node25&#45;&gt;Node27</title>
<g id="a_edge29_Node000025_Node000027"><a xlink:title=" ">
<path fill="none" stroke="#63b8ff" d="M632.35,-127.03C647.74,-116.69 673.3,-99.52 691.93,-87"/>
<polygon fill="#63b8ff" stroke="#63b8ff" points="693.85,-89.93 700.2,-81.44 689.95,-84.12 693.85,-89.93"/>
</a>
</g>
</g>
<!-- Node28&#45;&gt;Node5 -->
<g id="edge32_Node000028_Node000005" class="edge">
<title>Node28&#45;&gt;Node5</title>
<g id="a_edge32_Node000028_Node000005"><a xlink:title=" ">
<path fill="none" stroke="#63b8ff" d="M314.53,-243.05C297.45,-233.91 275.61,-222.22 258.69,-213.16"/>
<polygon fill="#63b8ff" stroke="#63b8ff" points="260.67,-210.25 250.2,-208.62 257.37,-216.42 260.67,-210.25"/>
</a>
</g>
</g>
<!-- Node28&#45;&gt;Node13 -->
<g id="edge33_Node000028_Node000013" class="edge">
<title>Node28&#45;&gt;Node13</title>
<g id="a_edge33_Node000028_Node000013"><a xlink:title=" ">
<path fill="none" stroke="#63b8ff" d="M341.51,-243.07C340.8,-221.78 339.48,-182.29 338.68,-158.26"/>
<polygon fill="#63b8ff" stroke="#63b8ff" points="342.18,-158.38 338.35,-148.5 335.19,-158.61 342.18,-158.38"/>
</a>
</g>
</g>
<!-- Node29&#45;&gt;Node3 -->
<g id="edge39_Node000029_Node000003" class="edge">
<title>Node29&#45;&gt;Node3</title>
<g id="a_edge39_Node000029_Node000003"><a xlink:title=" ">
<path fill="none" stroke="#63b8ff" d="M348.03,-420.05C329.23,-410.82 305.12,-399 286.59,-389.9"/>
<polygon fill="#63b8ff" stroke="#63b8ff" points="288.28,-386.83 277.76,-385.57 285.2,-393.12 288.28,-386.83"/>
</a>
</g>
</g>
<!-- Node29&#45;&gt;Node28 -->
<g id="edge40_Node000029_Node000028" class="edge">
<title>Node29&#45;&gt;Node28</title>
<g id="a_edge40_Node000029_Node000028"><a xlink:title=" ">
<path fill="none" stroke="#63b8ff" d="M379.83,-420.27C380.99,-410.24 382.4,-396.58 383,-384.5 383.42,-375.95 384.58,-373.66 383,-365.25 377.6,-336.44 364.57,-305.38 354.64,-284.47"/>
<polygon fill="#63b8ff" stroke="#63b8ff" points="357.84,-283.07 350.31,-275.62 351.55,-286.14 357.84,-283.07"/>
</a>
</g>
</g>
<!-- Node30 -->
<g id="Node000030" class="node">
<title>Node30</title>
<g id="a_Node000030"><a xlink:title=" ">
<polygon fill="#e0e0e0" stroke="#999999" points="470.38,-384.5 429.62,-384.5 429.62,-365.25 470.38,-365.25 470.38,-384.5"/>
<text text-anchor="middle" x="450" y="-370.05" font-family="Arial" font-size="11.00">array</text>
</a>
</g>
</g>
<!-- Node29&#45;&gt;Node30 -->
<g id="edge36_Node000029_Node000030" class="edge">
<title>Node29&#45;&gt;Node30</title>
<g id="a_edge36_Node000029_Node000030"><a xlink:title=" ">
<path fill="none" stroke="#63b8ff" d="M395.8,-420.2C406.23,-411.66 419.44,-400.87 430.2,-392.06"/>
<polygon fill="#63b8ff" stroke="#63b8ff" points="432.2,-394.95 437.73,-385.91 427.77,-389.53 432.2,-394.95"/>
</a>
</g>
</g>
<!-- Node31 -->
<g id="Node000031" class="node">
<title>Node31</title>
<g id="a_Node000031"><a xlink:title=" ">
<polygon fill="#e0e0e0" stroke="#999999" points="527.62,-384.5 488.38,-384.5 488.38,-365.25 527.62,-365.25 527.62,-384.5"/>
<text text-anchor="middle" x="508" y="-370.05" font-family="Arial" font-size="11.00">tuple</text>
</a>
</g>
</g>
<!-- Node29&#45;&gt;Node31 -->
<g id="edge37_Node000029_Node000031" class="edge">
<title>Node29&#45;&gt;Node31</title>
<g id="a_edge37_Node000029_Node000031"><a xlink:title=" ">
<path fill="none" stroke="#63b8ff" d="M410.47,-420.05C431.03,-410.73 457.44,-398.77 477.59,-389.65"/>
<polygon fill="#63b8ff" stroke="#63b8ff" points="479.02,-392.84 486.68,-385.53 476.13,-386.47 479.02,-392.84"/>
</a>
</g>
</g>
<!-- Node32 -->
<g id="Node000032" class="node">
<title>Node32</title>
<g id="a_Node000032"><a xlink:title=" ">
<polygon fill="#e0e0e0" stroke="#999999" points="374,-384.5 334,-384.5 334,-365.25 374,-365.25 374,-384.5"/>
<text text-anchor="middle" x="354" y="-370.05" font-family="Arial" font-size="11.00">utility</text>
</a>
</g>
</g>
<!-- Node29&#45;&gt;Node32 -->
<g id="edge38_Node000029_Node000032" class="edge">
<title>Node29&#45;&gt;Node32</title>
<g id="a_edge38_Node000029_Node000032"><a xlink:title=" ">
<path fill="none" stroke="#63b8ff" d="M372.07,-420.2C369.01,-412.7 365.24,-403.45 361.94,-395.35"/>
<polygon fill="#63b8ff" stroke="#63b8ff" points="365.29,-394.29 358.27,-386.35 358.81,-396.93 365.29,-394.29"/>
</a>
</g>
</g>
</g>
</svg>
