<?xml version="1.0" encoding="UTF-8" standalone="no"?>
<!DOCTYPE svg PUBLIC "-//W3C//DTD SVG 1.1//EN"
 "http://www.w3.org/Graphics/SVG/1.1/DTD/svg11.dtd">
<!-- Generated by graphviz version 10.0.1 (0)
 -->
<!-- Title: point2d.h Pages: 1 -->
<!--zoomable 448 -->

<svg id="main" version="1.1" xmlns="http://www.w3.org/2000/svg" xmlns:xlink="http://www.w3.org/1999/xlink" xml:space="preserve" onload="init(evt)">
<style type="text/css"><![CDATA[
.node, .edge {opacity: 0.7;}
.node.selected, .edge.selected {opacity: 1;}
.edge:hover path { stroke: red; }
.edge:hover polygon { stroke: red; fill: red; }
]]></style>

<defs>
  <circle id="rim" cx="0" cy="0" r="7"/>
  <circle id="rim2" cx="0" cy="0" r="3.5"/>
  <g id="zoomPlus">
    <use xlink:href="#rim" fill="#404040"><set attributeName="fill" to="#808080" begin="zoomplus.mouseover" end="zoomplus.mouseout"/></use>
    <path d="M-4,0h8M0,-4v8" fill="none" stroke="white" stroke-width="1.5" pointer-events="none"/>
  </g>
  <g id="zoomMin">
    <use xlink:href="#rim" fill="#404040"><set attributeName="fill" to="#808080" begin="zoomminus.mouseover" end="zoomminus.mouseout"/></use>
    <path d="M-4,0h8" fill="none" stroke="white" stroke-width="1.5" pointer-events="none"/>
  </g>
  <g id="arrowUp" transform="translate(30 24)">
    <use xlink:href="#rim"/>
    <path pointer-events="none" fill="none" stroke="white" stroke-width="1.5" d="M0,-3.0v7 M-2.5,-0.5L0,-3.0L2.5,-0.5"/>
  </g>
  <g id="arrowRight" transform="rotate(90) translate(36 -43)">
    <use xlink:href="#rim"/>
    <path pointer-events="none" fill="none" stroke="white" stroke-width="1.5" d="M0,-3.0v7 M-2.5,-0.5L0,-3.0L2.5,-0.5"/>
  </g>
  <g id="arrowDown" transform="rotate(180) translate(-30 -48)">
    <use xlink:href="#rim"/>
    <path pointer-events="none" fill="none" stroke="white" stroke-width="1.5" d="M0,-3.0v7 M-2.5,-0.5L0,-3.0L2.5,-0.5"/>
  </g>
  <g id="arrowLeft" transform="rotate(270) translate(-36 17)">
    <use xlink:href="#rim"/>
    <path pointer-events="none" fill="none" stroke="white" stroke-width="1.5" d="M0,-3.0v7 M-2.5,-0.5L0,-3.0L2.5,-0.5"/>
  </g>
  <g id="resetDef">
    <use xlink:href="#rim2" fill="#404040"><set attributeName="fill" to="#808080" begin="reset.mouseover" end="reset.mouseout"/></use>
  </g>
</defs>
<script type="application/ecmascript">
var viewWidth = 989;
var viewHeight = 448;
var sectionId = 'dynsection-0';
</script>
<script type="application/ecmascript" xlink:href="../../svg.min.js"/>
<svg id="graph" class="graph">
<g id="viewport">
<title>point2d.h</title>
<!-- Node1 -->
<g id="Node000001" class="node">
<title>Node1</title>
<g id="a_Node000001"><a xlink:title="A two&#45;dimensional point tagged with a unit.">
<polygon fill="#999999" stroke="#666666" points="211.12,-439.75 150.88,-439.75 150.88,-420.5 211.12,-420.5 211.12,-439.75"/>
<text text-anchor="middle" x="181" y="-425.3" font-family="Arial" font-size="11.00">point2d.h</text>
</a>
</g>
</g>
<!-- Node2 -->
<g id="Node000002" class="node">
<title>Node2</title>
<g id="a_Node000002"><a xlink:title=" ">
<polygon fill="#e0e0e0" stroke="#999999" points="109.38,-384.5 68.62,-384.5 68.62,-365.25 109.38,-365.25 109.38,-384.5"/>
<text text-anchor="middle" x="89" y="-370.05" font-family="Arial" font-size="11.00">array</text>
</a>
</g>
</g>
<!-- Node1&#45;&gt;Node2 -->
<g id="edge1_Node000001_Node000002" class="edge">
<title>Node1&#45;&gt;Node2</title>
<g id="a_edge1_Node000001_Node000002"><a xlink:title=" ">
<path fill="none" stroke="#63b8ff" d="M165.39,-420.09C151.38,-411.98 130.57,-399.93 114.2,-390.46"/>
<polygon fill="#63b8ff" stroke="#63b8ff" points="116.4,-387.69 105.99,-385.71 112.89,-393.75 116.4,-387.69"/>
</a>
</g>
</g>
<!-- Node3 -->
<g id="Node000003" class="node">
<title>Node3</title>
<g id="a_Node000003"><a xlink:title=" ">
<polygon fill="#e0e0e0" stroke="#999999" points="166.62,-384.5 127.38,-384.5 127.38,-365.25 166.62,-365.25 166.62,-384.5"/>
<text text-anchor="middle" x="147" y="-370.05" font-family="Arial" font-size="11.00">tuple</text>
</a>
</g>
</g>
<!-- Node1&#45;&gt;Node3 -->
<g id="edge2_Node000001_Node000003" class="edge">
<title>Node1&#45;&gt;Node3</title>
<g id="a_edge2_Node000001_Node000003"><a xlink:title=" ">
<path fill="none" stroke="#63b8ff" d="M175.39,-420.33C170.88,-413.28 164.41,-403.15 158.79,-394.33"/>
<polygon fill="#63b8ff" stroke="#63b8ff" points="161.88,-392.68 153.55,-386.13 155.98,-396.45 161.88,-392.68"/>
</a>
</g>
</g>
<!-- Node4 -->
<g id="Node000004" class="node">
<title>Node4</title>
<g id="a_Node000004"><a xlink:title=" ">
<polygon fill="#e0e0e0" stroke="#999999" points="246.88,-384.5 185.12,-384.5 185.12,-365.25 246.88,-365.25 246.88,-384.5"/>
<text text-anchor="middle" x="216" y="-370.05" font-family="Arial" font-size="11.00">functional</text>
</a>
</g>
</g>
<!-- Node1&#45;&gt;Node4 -->
<g id="edge3_Node000001_Node000004" class="edge">
<title>Node1&#45;&gt;Node4</title>
<g id="a_edge3_Node000001_Node000004"><a xlink:title=" ">
<path fill="none" stroke="#63b8ff" d="M186.78,-420.33C191.41,-413.28 198.07,-403.15 203.87,-394.33"/>
<polygon fill="#63b8ff" stroke="#63b8ff" points="206.7,-396.4 209.26,-386.12 200.85,-392.56 206.7,-396.4"/>
</a>
</g>
</g>
<!-- Node5 -->
<g id="Node000005" class="node">
<title>Node5</title>
<g id="a_Node000005"><a xlink:href="../../dd/db9/length_8h.html" target="_top" xlink:title="A one&#45;dimensional distance with associated unit of measurement.">
<polygon fill="white" stroke="#666666" points="381.25,-384.5 264.75,-384.5 264.75,-365.25 381.25,-365.25 381.25,-384.5"/>
<text text-anchor="middle" x="323" y="-370.05" font-family="Arial" font-size="11.00">floppy/euclid/length.h</text>
</a>
</g>
</g>
<!-- Node1&#45;&gt;Node5 -->
<g id="edge4_Node000001_Node000005" class="edge">
<title>Node1&#45;&gt;Node5</title>
<g id="a_edge4_Node000001_Node000005"><a xlink:title=" ">
<path fill="none" stroke="#63b8ff" d="M205.09,-420.09C227.94,-411.52 262.52,-398.56 288.33,-388.88"/>
<polygon fill="#63b8ff" stroke="#63b8ff" points="289.24,-392.27 297.38,-385.48 286.78,-385.72 289.24,-392.27"/>
</a>
</g>
</g>
<!-- Node6 -->
<g id="Node000006" class="node">
<title>Node6</title>
<g id="a_Node000006"><a xlink:href="../../d8/d0c/scale_8h.html" target="_top" xlink:title="A scaling factor between two different units of measurement.">
<polygon fill="white" stroke="#666666" points="337,-329.25 225,-329.25 225,-310 337,-310 337,-329.25"/>
<text text-anchor="middle" x="281" y="-314.8" font-family="Arial" font-size="11.00">floppy/euclid/scale.h</text>
</a>
</g>
</g>
<!-- Node5&#45;&gt;Node6 -->
<g id="edge5_Node000005_Node000006" class="edge">
<title>Node5&#45;&gt;Node6</title>
<g id="a_edge5_Node000005_Node000006"><a xlink:title=" ">
<path fill="none" stroke="#63b8ff" d="M316.06,-365.08C310.38,-357.88 302.16,-347.46 295.11,-338.51"/>
<polygon fill="#63b8ff" stroke="#63b8ff" points="297.96,-336.48 289.02,-330.8 292.47,-340.82 297.96,-336.48"/>
</a>
</g>
</g>
<!-- Node30 -->
<g id="Node000030" class="node">
<title>Node30</title>
<g id="a_Node000030"><a xlink:href="../../de/de1/nt__traits_8h_source.html" target="_top" xlink:title=" ">
<polygon fill="white" stroke="#666666" points="378.88,-274 275.12,-274 275.12,-243.5 378.88,-243.5 378.88,-274"/>
<text text-anchor="start" x="283.12" y="-259.55" font-family="Arial" font-size="11.00">floppy/euclid/detail</text>
<text text-anchor="middle" x="327" y="-248.3" font-family="Arial" font-size="11.00">/nt_traits.h</text>
</a>
</g>
</g>
<!-- Node5&#45;&gt;Node30 -->
<g id="edge36_Node000005_Node000030" class="edge">
<title>Node5&#45;&gt;Node30</title>
<g id="a_edge36_Node000005_Node000030"><a xlink:title=" ">
<path fill="none" stroke="#63b8ff" d="M329.32,-364.82C334.96,-356.14 342.8,-342.46 346,-329.25 349.62,-314.34 345.41,-297.76 340.04,-284.54"/>
<polygon fill="#63b8ff" stroke="#63b8ff" points="343.35,-283.37 336.03,-275.71 336.98,-286.26 343.35,-283.37"/>
</a>
</g>
</g>
<!-- Node7 -->
<g id="Node000007" class="node">
<title>Node7</title>
<g id="a_Node000007"><a xlink:href="../../df/db1/math_8h_source.html" target="_top" xlink:title=" ">
<polygon fill="white" stroke="#666666" points="293.5,-207.5 184.5,-207.5 184.5,-188.25 293.5,-188.25 293.5,-207.5"/>
<text text-anchor="middle" x="239" y="-193.05" font-family="Arial" font-size="11.00">floppy/detail/math.h</text>
</a>
</g>
</g>
<!-- Node6&#45;&gt;Node7 -->
<g id="edge6_Node000006_Node000007" class="edge">
<title>Node6&#45;&gt;Node7</title>
<g id="a_edge6_Node000006_Node000007"><a xlink:title=" ">
<path fill="none" stroke="#63b8ff" d="M277.84,-309.62C271.09,-290.38 255.12,-244.85 245.9,-218.55"/>
<polygon fill="#63b8ff" stroke="#63b8ff" points="249.31,-217.69 242.69,-209.41 242.7,-220 249.31,-217.69"/>
</a>
</g>
</g>
<!-- Node23 -->
<g id="Node000023" class="node">
<title>Node23</title>
<g id="a_Node000023"><a xlink:href="../../dd/dff/traits_8h_source.html" target="_top" xlink:title=" ">
<polygon fill="white" stroke="#666666" points="714.88,-207.5 635.12,-207.5 635.12,-188.25 714.88,-188.25 714.88,-207.5"/>
<text text-anchor="middle" x="675" y="-193.05" font-family="Arial" font-size="11.00">floppy/traits.h</text>
</a>
</g>
</g>
<!-- Node6&#45;&gt;Node23 -->
<g id="edge23_Node000006_Node000023" class="edge">
<title>Node6&#45;&gt;Node23</title>
<g id="a_edge23_Node000006_Node000023"><a xlink:title=" ">
<path fill="none" stroke="#63b8ff" d="M310.94,-309.53C380.92,-288.26 555.26,-235.27 634.57,-211.16"/>
<polygon fill="#63b8ff" stroke="#63b8ff" points="635.11,-214.66 643.66,-208.4 633.07,-207.96 635.11,-214.66"/>
</a>
</g>
</g>
<!-- Node6&#45;&gt;Node30 -->
<g id="edge33_Node000006_Node000030" class="edge">
<title>Node6&#45;&gt;Node30</title>
<g id="a_edge33_Node000006_Node000030"><a xlink:title=" ">
<path fill="none" stroke="#63b8ff" d="M287.99,-309.68C293.49,-302.64 301.42,-292.48 308.7,-283.17"/>
<polygon fill="#63b8ff" stroke="#63b8ff" points="311.32,-285.51 314.71,-275.47 305.8,-281.2 311.32,-285.51"/>
</a>
</g>
</g>
<!-- Node8 -->
<g id="Node000008" class="node">
<title>Node8</title>
<g id="a_Node000008"><a xlink:title=" ">
<polygon fill="#e0e0e0" stroke="#999999" points="197.62,-146.62 152.38,-146.62 152.38,-127.38 197.62,-127.38 197.62,-146.62"/>
<text text-anchor="middle" x="175" y="-132.18" font-family="Arial" font-size="11.00">cmath</text>
</a>
</g>
</g>
<!-- Node7&#45;&gt;Node8 -->
<g id="edge7_Node000007_Node000008" class="edge">
<title>Node7&#45;&gt;Node8</title>
<g id="a_edge7_Node000007_Node000008"><a xlink:title=" ">
<path fill="none" stroke="#63b8ff" d="M229.28,-187.93C219.69,-179.12 204.81,-165.43 193.06,-154.61"/>
<polygon fill="#63b8ff" stroke="#63b8ff" points="195.65,-152.25 185.93,-148.05 190.92,-157.4 195.65,-152.25"/>
</a>
</g>
</g>
<!-- Node9 -->
<g id="Node000009" class="node">
<title>Node9</title>
<g id="a_Node000009"><a xlink:title=" ">
<polygon fill="#e0e0e0" stroke="#999999" points="256,-146.62 216,-146.62 216,-127.38 256,-127.38 256,-146.62"/>
<text text-anchor="middle" x="236" y="-132.18" font-family="Arial" font-size="11.00">limits</text>
</a>
</g>
</g>
<!-- Node7&#45;&gt;Node9 -->
<g id="edge8_Node000007_Node000009" class="edge">
<title>Node7&#45;&gt;Node9</title>
<g id="a_edge8_Node000007_Node000009"><a xlink:title=" ">
<path fill="none" stroke="#63b8ff" d="M238.54,-187.93C238.14,-180.07 237.55,-168.32 237.03,-158.2"/>
<polygon fill="#63b8ff" stroke="#63b8ff" points="240.54,-158.35 236.54,-148.54 233.55,-158.7 240.54,-158.35"/>
</a>
</g>
</g>
<!-- Node10 -->
<g id="Node000010" class="node">
<title>Node10</title>
<g id="a_Node000010"><a xlink:title=" ">
<polygon fill="#e0e0e0" stroke="#999999" points="58,-146.62 0,-146.62 0,-127.38 58,-127.38 58,-146.62"/>
<text text-anchor="middle" x="29" y="-132.18" font-family="Arial" font-size="11.00">numbers</text>
</a>
</g>
</g>
<!-- Node7&#45;&gt;Node10 -->
<g id="edge9_Node000007_Node000010" class="edge">
<title>Node7&#45;&gt;Node10</title>
<g id="a_edge9_Node000007_Node000010"><a xlink:title=" ">
<path fill="none" stroke="#63b8ff" d="M199.04,-187.77C163.96,-179.47 111.71,-166.39 67,-152.25 65.45,-151.76 63.86,-151.24 62.27,-150.7"/>
<polygon fill="#63b8ff" stroke="#63b8ff" points="63.79,-147.53 53.2,-147.49 61.46,-154.13 63.79,-147.53"/>
</a>
</g>
</g>
<!-- Node11 -->
<g id="Node000011" class="node">
<title>Node11</title>
<g id="a_Node000011"><a xlink:title=" ">
<polygon fill="#e0e0e0" stroke="#999999" points="134,-146.62 76,-146.62 76,-127.38 134,-127.38 134,-146.62"/>
<text text-anchor="middle" x="105" y="-132.18" font-family="Arial" font-size="11.00">compare</text>
</a>
</g>
</g>
<!-- Node7&#45;&gt;Node11 -->
<g id="edge10_Node000007_Node000011" class="edge">
<title>Node7&#45;&gt;Node11</title>
<g id="a_edge10_Node000007_Node000011"><a xlink:title=" ">
<path fill="none" stroke="#63b8ff" d="M218.36,-187.8C196.36,-178.14 161.28,-162.73 135.97,-151.61"/>
<polygon fill="#63b8ff" stroke="#63b8ff" points="137.4,-148.41 126.83,-147.59 134.58,-154.82 137.4,-148.41"/>
</a>
</g>
</g>
<!-- Node12 -->
<g id="Node000012" class="node">
<title>Node12</title>
<g id="a_Node000012"><a xlink:href="../../db/db5/export_8h_source.html" target="_top" xlink:title=" ">
<polygon fill="white" stroke="#666666" points="534.5,-146.62 419.5,-146.62 419.5,-127.38 534.5,-127.38 534.5,-146.62"/>
<text text-anchor="middle" x="477" y="-132.18" font-family="Arial" font-size="11.00">floppy/detail/export.h</text>
</a>
</g>
</g>
<!-- Node7&#45;&gt;Node12 -->
<g id="edge11_Node000007_Node000012" class="edge">
<title>Node7&#45;&gt;Node12</title>
<g id="a_edge11_Node000007_Node000012"><a xlink:title=" ">
<path fill="none" stroke="#63b8ff" d="M275.67,-187.8C316.9,-177.61 383.99,-161.01 429.28,-149.81"/>
<polygon fill="#63b8ff" stroke="#63b8ff" points="429.96,-153.24 438.82,-147.44 428.28,-146.45 429.96,-153.24"/>
</a>
</g>
</g>
<!-- Node15 -->
<g id="Node000015" class="node">
<title>Node15</title>
<g id="a_Node000015"><a xlink:href="../../d9/db1/concepts_8h_source.html" target="_top" xlink:title=" ">
<polygon fill="white" stroke="#666666" points="401.88,-146.62 274.12,-146.62 274.12,-127.38 401.88,-127.38 401.88,-146.62"/>
<text text-anchor="middle" x="338" y="-132.18" font-family="Arial" font-size="11.00">floppy/detail/concepts.h</text>
</a>
</g>
</g>
<!-- Node7&#45;&gt;Node15 -->
<g id="edge14_Node000007_Node000015" class="edge">
<title>Node7&#45;&gt;Node15</title>
<g id="a_edge14_Node000007_Node000015"><a xlink:title=" ">
<path fill="none" stroke="#63b8ff" d="M254.04,-187.93C269.66,-178.64 294.39,-163.94 312.97,-152.89"/>
<polygon fill="#63b8ff" stroke="#63b8ff" points="314.72,-155.92 321.52,-147.8 311.14,-149.9 314.72,-155.92"/>
</a>
</g>
</g>
<!-- Node13 -->
<g id="Node000013" class="node">
<title>Node13</title>
<g id="a_Node000013"><a xlink:title=" ">
<polygon fill="#e0e0e0" stroke="#999999" points="475.12,-80.12 432.88,-80.12 432.88,-60.88 475.12,-60.88 475.12,-80.12"/>
<text text-anchor="middle" x="454" y="-65.67" font-family="Arial" font-size="11.00">string</text>
</a>
</g>
</g>
<!-- Node12&#45;&gt;Node13 -->
<g id="edge12_Node000012_Node000013" class="edge">
<title>Node12&#45;&gt;Node13</title>
<g id="a_edge12_Node000012_Node000013"><a xlink:title=" ">
<path fill="none" stroke="#63b8ff" d="M473.8,-127.03C470.51,-117.79 465.26,-103.08 461,-91.13"/>
<polygon fill="#63b8ff" stroke="#63b8ff" points="464.33,-90.06 457.68,-81.82 457.74,-92.41 464.33,-90.06"/>
</a>
</g>
</g>
<!-- Node14 -->
<g id="Node000014" class="node">
<title>Node14</title>
<g id="a_Node000014"><a xlink:title=" ">
<polygon fill="#e0e0e0" stroke="#999999" points="563,-80.12 493,-80.12 493,-60.88 563,-60.88 563,-80.12"/>
<text text-anchor="middle" x="528" y="-65.67" font-family="Arial" font-size="11.00">string_view</text>
</a>
</g>
</g>
<!-- Node12&#45;&gt;Node14 -->
<g id="edge13_Node000012_Node000014" class="edge">
<title>Node12&#45;&gt;Node14</title>
<g id="a_edge13_Node000012_Node000014"><a xlink:title=" ">
<path fill="none" stroke="#63b8ff" d="M484.09,-127.03C491.78,-117.31 504.25,-101.54 513.94,-89.28"/>
<polygon fill="#63b8ff" stroke="#63b8ff" points="516.57,-91.59 520.03,-81.58 511.08,-87.25 516.57,-91.59"/>
</a>
</g>
</g>
<!-- Node16 -->
<g id="Node000016" class="node">
<title>Node16</title>
<g id="a_Node000016"><a xlink:href="../../df/d63/type__traits_8h_source.html" target="_top" xlink:title=" ">
<polygon fill="white" stroke="#666666" points="287.12,-85.75 190.88,-85.75 190.88,-55.25 287.12,-55.25 287.12,-85.75"/>
<text text-anchor="start" x="198.88" y="-71.3" font-family="Arial" font-size="11.00">floppy/detail/type</text>
<text text-anchor="middle" x="239" y="-60.05" font-family="Arial" font-size="11.00">_traits.h</text>
</a>
</g>
</g>
<!-- Node15&#45;&gt;Node16 -->
<g id="edge15_Node000015_Node000016" class="edge">
<title>Node15&#45;&gt;Node16</title>
<g id="a_edge15_Node000015_Node000016"><a xlink:title=" ">
<path fill="none" stroke="#63b8ff" d="M324.23,-127.03C310.52,-118.09 288.96,-104.05 270.96,-92.32"/>
<polygon fill="#63b8ff" stroke="#63b8ff" points="272.95,-89.44 262.66,-86.92 269.13,-95.31 272.95,-89.44"/>
</a>
</g>
</g>
<!-- Node18 -->
<g id="Node000018" class="node">
<title>Node18</title>
<g id="a_Node000018"><a xlink:href="../../d9/d49/types_8h_source.html" target="_top" xlink:title=" ">
<polygon fill="white" stroke="#666666" points="415.25,-80.12 304.75,-80.12 304.75,-60.88 415.25,-60.88 415.25,-80.12"/>
<text text-anchor="middle" x="360" y="-65.67" font-family="Arial" font-size="11.00">floppy/detail/types.h</text>
</a>
</g>
</g>
<!-- Node15&#45;&gt;Node18 -->
<g id="edge17_Node000015_Node000018" class="edge">
<title>Node15&#45;&gt;Node18</title>
<g id="a_edge17_Node000015_Node000018"><a xlink:title=" ">
<path fill="none" stroke="#63b8ff" d="M341.06,-127.03C344.21,-117.79 349.23,-103.08 353.3,-91.13"/>
<polygon fill="#63b8ff" stroke="#63b8ff" points="356.56,-92.42 356.48,-81.82 349.94,-90.16 356.56,-92.42"/>
</a>
</g>
</g>
<!-- Node17 -->
<g id="Node000017" class="node">
<title>Node17</title>
<g id="a_Node000017"><a xlink:title=" ">
<polygon fill="#e0e0e0" stroke="#999999" points="271.75,-19.25 206.25,-19.25 206.25,0 271.75,0 271.75,-19.25"/>
<text text-anchor="middle" x="239" y="-4.8" font-family="Arial" font-size="11.00">type_traits</text>
</a>
</g>
</g>
<!-- Node16&#45;&gt;Node17 -->
<g id="edge16_Node000016_Node000017" class="edge">
<title>Node16&#45;&gt;Node17</title>
<g id="a_edge16_Node000016_Node000017"><a xlink:title=" ">
<path fill="none" stroke="#63b8ff" d="M239,-54.95C239,-47.71 239,-38.84 239,-30.94"/>
<polygon fill="#63b8ff" stroke="#63b8ff" points="242.5,-31.21 239,-21.21 235.5,-31.21 242.5,-31.21"/>
</a>
</g>
</g>
<!-- Node18&#45;&gt;Node17 -->
<g id="edge21_Node000018_Node000017" class="edge">
<title>Node18&#45;&gt;Node17</title>
<g id="a_edge21_Node000018_Node000017"><a xlink:title=" ">
<path fill="none" stroke="#63b8ff" d="M341.36,-60.43C321.67,-50.85 290.39,-35.63 267.58,-24.53"/>
<polygon fill="#63b8ff" stroke="#63b8ff" points="269.35,-21.5 258.82,-20.27 266.29,-27.79 269.35,-21.5"/>
</a>
</g>
</g>
<!-- Node19 -->
<g id="Node000019" class="node">
<title>Node19</title>
<g id="a_Node000019"><a xlink:title=" ">
<polygon fill="#e0e0e0" stroke="#999999" points="476.25,-19.25 425.75,-19.25 425.75,0 476.25,0 476.25,-19.25"/>
<text text-anchor="middle" x="451" y="-4.8" font-family="Arial" font-size="11.00">cstddef</text>
</a>
</g>
</g>
<!-- Node18&#45;&gt;Node19 -->
<g id="edge18_Node000018_Node000019" class="edge">
<title>Node18&#45;&gt;Node19</title>
<g id="a_edge18_Node000018_Node000019"><a xlink:title=" ">
<path fill="none" stroke="#63b8ff" d="M373.82,-60.56C388.12,-51.31 410.7,-36.7 427.75,-25.67"/>
<polygon fill="#63b8ff" stroke="#63b8ff" points="429.28,-28.84 435.78,-20.47 425.48,-22.97 429.28,-28.84"/>
</a>
</g>
</g>
<!-- Node20 -->
<g id="Node000020" class="node">
<title>Node20</title>
<g id="a_Node000020"><a xlink:title=" ">
<polygon fill="#e0e0e0" stroke="#999999" points="336.38,-19.25 289.62,-19.25 289.62,0 336.38,0 336.38,-19.25"/>
<text text-anchor="middle" x="313" y="-4.8" font-family="Arial" font-size="11.00">cstdint</text>
</a>
</g>
</g>
<!-- Node18&#45;&gt;Node20 -->
<g id="edge19_Node000018_Node000020" class="edge">
<title>Node18&#45;&gt;Node20</title>
<g id="a_edge19_Node000018_Node000020"><a xlink:title=" ">
<path fill="none" stroke="#63b8ff" d="M352.86,-60.56C346.1,-52.09 335.75,-39.12 327.29,-28.52"/>
<polygon fill="#63b8ff" stroke="#63b8ff" points="330.12,-26.47 321.15,-20.83 324.65,-30.83 330.12,-26.47"/>
</a>
</g>
</g>
<!-- Node21 -->
<g id="Node000021" class="node">
<title>Node21</title>
<g id="a_Node000021"><a xlink:title=" ">
<polygon fill="#e0e0e0" stroke="#999999" points="407.75,-19.25 354.25,-19.25 354.25,0 407.75,0 407.75,-19.25"/>
<text text-anchor="middle" x="381" y="-4.8" font-family="Arial" font-size="11.00">optional</text>
</a>
</g>
</g>
<!-- Node18&#45;&gt;Node21 -->
<g id="edge20_Node000018_Node000021" class="edge">
<title>Node18&#45;&gt;Node21</title>
<g id="a_edge20_Node000018_Node000021"><a xlink:title=" ">
<path fill="none" stroke="#63b8ff" d="M363.19,-60.56C366.03,-52.6 370.28,-40.69 373.91,-30.49"/>
<polygon fill="#63b8ff" stroke="#63b8ff" points="377.21,-31.67 377.27,-21.08 370.62,-29.32 377.21,-31.67"/>
</a>
</g>
</g>
<!-- Node22 -->
<g id="Node000022" class="node">
<title>Node22</title>
<g id="a_Node000022"><a xlink:title=" ">
<polygon fill="#e0e0e0" stroke="#999999" points="597.88,-19.25 524.12,-19.25 524.12,0 597.88,0 597.88,-19.25"/>
<text text-anchor="middle" x="561" y="-4.8" font-family="Arial" font-size="11.00">fmt/format.h</text>
</a>
</g>
</g>
<!-- Node18&#45;&gt;Node22 -->
<g id="edge22_Node000018_Node000022" class="edge">
<title>Node18&#45;&gt;Node22</title>
<g id="a_edge22_Node000018_Node000022"><a xlink:title=" ">
<path fill="none" stroke="#63b8ff" d="M390.97,-60.43C425.34,-50.36 481.01,-34.05 519.23,-22.86"/>
<polygon fill="#63b8ff" stroke="#63b8ff" points="519.93,-26.3 528.55,-20.13 517.97,-19.58 519.93,-26.3"/>
</a>
</g>
</g>
<!-- Node23&#45;&gt;Node12 -->
<g id="edge27_Node000023_Node000012" class="edge">
<title>Node23&#45;&gt;Node12</title>
<g id="a_edge27_Node000023_Node000012"><a xlink:title=" ">
<path fill="none" stroke="#63b8ff" d="M644.5,-187.8C610.63,-177.74 555.79,-161.43 518.15,-150.24"/>
<polygon fill="#63b8ff" stroke="#63b8ff" points="519.57,-147.01 508.99,-147.51 517.58,-153.72 519.57,-147.01"/>
</a>
</g>
</g>
<!-- Node24 -->
<g id="Node000024" class="node">
<title>Node24</title>
<g id="a_Node000024"><a xlink:title=" ">
<polygon fill="#e0e0e0" stroke="#999999" points="758.5,-146.62 703.5,-146.62 703.5,-127.38 758.5,-127.38 758.5,-146.62"/>
<text text-anchor="middle" x="731" y="-132.18" font-family="Arial" font-size="11.00">memory</text>
</a>
</g>
</g>
<!-- Node23&#45;&gt;Node24 -->
<g id="edge24_Node000023_Node000024" class="edge">
<title>Node23&#45;&gt;Node24</title>
<g id="a_edge24_Node000023_Node000024"><a xlink:title=" ">
<path fill="none" stroke="#63b8ff" d="M683.51,-187.93C691.73,-179.29 704.4,-165.96 714.59,-155.25"/>
<polygon fill="#63b8ff" stroke="#63b8ff" points="717.02,-157.78 721.37,-148.12 711.94,-152.96 717.02,-157.78"/>
</a>
</g>
</g>
<!-- Node25 -->
<g id="Node000025" class="node">
<title>Node25</title>
<g id="a_Node000025"><a xlink:title=" ">
<polygon fill="#e0e0e0" stroke="#999999" points="833.62,-146.62 776.38,-146.62 776.38,-127.38 833.62,-127.38 833.62,-146.62"/>
<text text-anchor="middle" x="805" y="-132.18" font-family="Arial" font-size="11.00">iostream</text>
</a>
</g>
</g>
<!-- Node23&#45;&gt;Node25 -->
<g id="edge25_Node000023_Node000025" class="edge">
<title>Node23&#45;&gt;Node25</title>
<g id="a_edge25_Node000023_Node000025"><a xlink:title=" ">
<path fill="none" stroke="#63b8ff" d="M695.03,-187.8C716.37,-178.14 750.4,-162.73 774.96,-151.61"/>
<polygon fill="#63b8ff" stroke="#63b8ff" points="776.12,-154.92 783.78,-147.61 773.23,-148.55 776.12,-154.92"/>
</a>
</g>
</g>
<!-- Node26 -->
<g id="Node000026" class="node">
<title>Node26</title>
<g id="a_Node000026"><a xlink:title=" ">
<polygon fill="#e0e0e0" stroke="#999999" points="980.62,-152.25 851.38,-152.25 851.38,-121.75 980.62,-121.75 980.62,-152.25"/>
<text text-anchor="start" x="859.38" y="-137.8" font-family="Arial" font-size="11.00">experimental/propagate</text>
<text text-anchor="middle" x="916" y="-126.55" font-family="Arial" font-size="11.00">_const</text>
</a>
</g>
</g>
<!-- Node23&#45;&gt;Node26 -->
<g id="edge26_Node000023_Node000026" class="edge">
<title>Node23&#45;&gt;Node26</title>
<g id="a_edge26_Node000023_Node000026"><a xlink:title=" ">
<path fill="none" stroke="#63b8ff" d="M712.13,-187.8C747.35,-179.2 801.22,-166.04 844.74,-155.41"/>
<polygon fill="#63b8ff" stroke="#63b8ff" points="845.49,-158.83 854.38,-153.05 843.83,-152.03 845.49,-158.83"/>
</a>
</g>
</g>
<!-- Node27 -->
<g id="Node000027" class="node">
<title>Node27</title>
<g id="a_Node000027"><a xlink:href="../../d6/d45/formatters_8h_source.html" target="_top" xlink:title=" ">
<polygon fill="white" stroke="#666666" points="685.88,-146.62 552.12,-146.62 552.12,-127.38 685.88,-127.38 685.88,-146.62"/>
<text text-anchor="middle" x="619" y="-132.18" font-family="Arial" font-size="11.00">floppy/detail/formatters.h</text>
</a>
</g>
</g>
<!-- Node23&#45;&gt;Node27 -->
<g id="edge28_Node000023_Node000027" class="edge">
<title>Node23&#45;&gt;Node27</title>
<g id="a_edge28_Node000023_Node000027"><a xlink:title=" ">
<path fill="none" stroke="#63b8ff" d="M666.49,-187.93C658.27,-179.29 645.6,-165.96 635.41,-155.25"/>
<polygon fill="#63b8ff" stroke="#63b8ff" points="638.06,-152.96 628.63,-148.12 632.98,-157.78 638.06,-152.96"/>
</a>
</g>
</g>
<!-- Node27&#45;&gt;Node14 -->
<g id="edge29_Node000027_Node000014" class="edge">
<title>Node27&#45;&gt;Node14</title>
<g id="a_edge29_Node000027_Node000014"><a xlink:title=" ">
<path fill="none" stroke="#63b8ff" d="M606.35,-127.03C591.76,-116.69 567.53,-99.52 549.87,-87"/>
<polygon fill="#63b8ff" stroke="#63b8ff" points="552.26,-84.4 542.07,-81.48 548.21,-90.11 552.26,-84.4"/>
</a>
</g>
</g>
<!-- Node27&#45;&gt;Node22 -->
<g id="edge32_Node000027_Node000022" class="edge">
<title>Node27&#45;&gt;Node22</title>
<g id="a_edge32_Node000027_Node000022"><a xlink:title=" ">
<path fill="none" stroke="#63b8ff" d="M614.83,-126.98C605.47,-106.74 582.6,-57.32 569.89,-29.84"/>
<polygon fill="#63b8ff" stroke="#63b8ff" points="573.14,-28.54 565.77,-20.93 566.79,-31.48 573.14,-28.54"/>
</a>
</g>
</g>
<!-- Node28 -->
<g id="Node000028" class="node">
<title>Node28</title>
<g id="a_Node000028"><a xlink:title=" ">
<polygon fill="#e0e0e0" stroke="#999999" points="673.12,-80.12 618.88,-80.12 618.88,-60.88 673.12,-60.88 673.12,-80.12"/>
<text text-anchor="middle" x="646" y="-65.67" font-family="Arial" font-size="11.00">sstream</text>
</a>
</g>
</g>
<!-- Node27&#45;&gt;Node28 -->
<g id="edge30_Node000027_Node000028" class="edge">
<title>Node27&#45;&gt;Node28</title>
<g id="a_edge30_Node000027_Node000028"><a xlink:title=" ">
<path fill="none" stroke="#63b8ff" d="M622.75,-127.03C626.66,-117.69 632.91,-102.78 637.94,-90.76"/>
<polygon fill="#63b8ff" stroke="#63b8ff" points="641.06,-92.36 641.69,-81.79 634.6,-89.66 641.06,-92.36"/>
</a>
</g>
</g>
<!-- Node29 -->
<g id="Node000029" class="node">
<title>Node29</title>
<g id="a_Node000029"><a xlink:title=" ">
<polygon fill="#e0e0e0" stroke="#999999" points="738.38,-80.12 691.62,-80.12 691.62,-60.88 738.38,-60.88 738.38,-80.12"/>
<text text-anchor="middle" x="715" y="-65.67" font-family="Arial" font-size="11.00">iosfwd</text>
</a>
</g>
</g>
<!-- Node27&#45;&gt;Node29 -->
<g id="edge31_Node000027_Node000029" class="edge">
<title>Node27&#45;&gt;Node29</title>
<g id="a_edge31_Node000027_Node000029"><a xlink:title=" ">
<path fill="none" stroke="#63b8ff" d="M632.35,-127.03C647.74,-116.69 673.3,-99.52 691.93,-87"/>
<polygon fill="#63b8ff" stroke="#63b8ff" points="693.85,-89.93 700.2,-81.44 689.95,-84.12 693.85,-89.93"/>
</a>
</g>
</g>
<!-- Node30&#45;&gt;Node7 -->
<g id="edge34_Node000030_Node000007" class="edge">
<title>Node30&#45;&gt;Node7</title>
<g id="a_edge34_Node000030_Node000007"><a xlink:title=" ">
<path fill="none" stroke="#63b8ff" d="M305.25,-243.2C292.11,-234.4 275.37,-223.21 262.01,-214.27"/>
<polygon fill="#63b8ff" stroke="#63b8ff" points="264.08,-211.44 253.82,-208.79 260.19,-217.26 264.08,-211.44"/>
</a>
</g>
</g>
<!-- Node30&#45;&gt;Node15 -->
<g id="edge35_Node000030_Node000015" class="edge">
<title>Node30&#45;&gt;Node15</title>
<g id="a_edge35_Node000030_Node000015"><a xlink:title=" ">
<path fill="none" stroke="#63b8ff" d="M328.35,-243.07C330.3,-221.78 333.93,-182.29 336.14,-158.26"/>
<polygon fill="#63b8ff" stroke="#63b8ff" points="339.61,-158.77 337.04,-148.5 332.64,-158.13 339.61,-158.77"/>
</a>
</g>
</g>
</g>
</svg>

<g id="navigator" transform="translate(0 0)" fill="#404254">
  <rect fill="#f2f5e9" fill-opacity="0.5" stroke="#606060" stroke-width=".5" x="0" y="0" width="60" height="60"/>
  <use id="zoomplus" xlink:href="#zoomPlus" x="17" y="9" onmousedown="handleZoom(evt,'in')"/>
  <use id="zoomminus" xlink:href="#zoomMin" x="42" y="9" onmousedown="handleZoom(evt,'out')"/>
  <use id="reset" xlink:href="#resetDef" x="30" y="36" onmousedown="handleReset()"/>
   <use id="arrowup" xlink:href="#arrowUp" x="0" y="0" onmousedown="handlePan(0,-1)"/>
  <use id="arrowright" xlink:href="#arrowRight" x="0" y="0" onmousedown="handlePan(1,0)"/>
  <use id="arrowdown" xlink:href="#arrowDown" x="0" y="0" onmousedown="handlePan(0,1)"/>
  <use id="arrowleft" xlink:href="#arrowLeft" x="0" y="0" onmousedown="handlePan(-1,0)"/>
</g>
<svg viewBox="0 0 15 15" width="100%" height="30px" preserveAspectRatio="xMaxYMin meet">
 <g id="arrow_out" transform="scale(0.3 0.3)">
  <a xlink:href="point2d_8h__incl_org.svg" target="_base">
   <rect id="button" ry="5" rx="5" y="6" x="6" height="38" width="38"
        fill="#f2f5e9" fill-opacity="0.5" stroke="#606060" stroke-width="1.0"/>
   <path id="arrow"
     d="M 11.500037,31.436501 C 11.940474,20.09759 22.043105,11.32322 32.158766,21.979434 L 37.068811,17.246167 C 37.068811,17.246167 37.088388,32 37.088388,32 L 22.160133,31.978069 C 22.160133,31.978069 26.997745,27.140456 26.997745,27.140456 C 18.528582,18.264221 13.291696,25.230495 11.500037,31.436501 z"
     style="fill:#404040;"/>
  </a>
 </g>
</svg>

<style type='text/css'>
<![CDATA[
[data-mouse-over-selected='false'] { opacity: 0.7; }
[data-mouse-over-selected='true']  { opacity: 1.0; }
]]>
</style>
<script type="application/ecmascript"><![CDATA[
document.addEventListener('DOMContentLoaded', (event) => {
  highlightEdges();
  highlightAdjacentNodes();
});
]]></script>
</svg>
