<?xml version="1.0" encoding="UTF-8" standalone="no"?>
<!DOCTYPE svg PUBLIC "-//W3C//DTD SVG 1.1//EN"
 "http://www.w3.org/Graphics/SVG/1.1/DTD/svg11.dtd">
<!-- Generated by graphviz version 10.0.1 (0)
 -->
<!-- Title: point2d.h Pages: 1 -->
<svg width="1037pt" height="570pt"
 viewBox="0.00 0.00 1036.50 569.50" xmlns="http://www.w3.org/2000/svg" xmlns:xlink="http://www.w3.org/1999/xlink">
<g id="graph0" class="graph" transform="scale(1 1) rotate(0) translate(4 565.5)">
<title>point2d.h</title>
<!-- Node1 -->
<g id="Node000001" class="node">
<title>Node1</title>
<g id="a_Node000001"><a xlink:title="A two&#45;dimensional point tagged with a unit.">
<polygon fill="#999999" stroke="#666666" points="182,-561.5 121.75,-561.5 121.75,-542.25 182,-542.25 182,-561.5"/>
<text text-anchor="middle" x="151.88" y="-547.05" font-family="Arial" font-size="11.00">point2d.h</text>
</a>
</g>
</g>
<!-- Node2 -->
<g id="Node000002" class="node">
<title>Node2</title>
<g id="a_Node000002"><a xlink:title=" ">
<polygon fill="#e0e0e0" stroke="#999999" points="61.75,-506.25 0,-506.25 0,-487 61.75,-487 61.75,-506.25"/>
<text text-anchor="middle" x="30.88" y="-491.8" font-family="Arial" font-size="11.00">functional</text>
</a>
</g>
</g>
<!-- Node1&#45;&gt;Node2 -->
<g id="edge1_Node000001_Node000002" class="edge">
<title>Node1&#45;&gt;Node2</title>
<g id="a_edge1_Node000001_Node000002"><a xlink:title=" ">
<path fill="none" stroke="#63b8ff" d="M131.35,-541.84C112.31,-533.47 83.72,-520.88 61.9,-511.28"/>
<polygon fill="#63b8ff" stroke="#63b8ff" points="63.45,-508.14 52.89,-507.31 60.63,-514.54 63.45,-508.14"/>
</a>
</g>
</g>
<!-- Node3 -->
<g id="Node000003" class="node">
<title>Node3</title>
<g id="a_Node000003"><a xlink:href="../../dd/db9/length_8h.html" target="_top" xlink:title="A one&#45;dimensional distance with associated unit of measurement.">
<polygon fill="white" stroke="#666666" points="254.12,-384.5 137.62,-384.5 137.62,-365.25 254.12,-365.25 254.12,-384.5"/>
<text text-anchor="middle" x="195.88" y="-370.05" font-family="Arial" font-size="11.00">floppy/euclid/length.h</text>
</a>
</g>
</g>
<!-- Node1&#45;&gt;Node3 -->
<g id="edge2_Node000001_Node000003" class="edge">
<title>Node1&#45;&gt;Node3</title>
<g id="a_edge2_Node000001_Node000003"><a xlink:title=" ">
<path fill="none" stroke="#63b8ff" d="M144.65,-541.94C135.69,-529.73 122.22,-507.07 127.88,-487 138.15,-450.54 164.08,-414.22 180.79,-393.47"/>
<polygon fill="#63b8ff" stroke="#63b8ff" points="183.29,-395.94 186.97,-386.01 177.9,-391.48 183.29,-395.94"/>
</a>
</g>
</g>
<!-- Node30 -->
<g id="Node000030" class="node">
<title>Node30</title>
<g id="a_Node000030"><a xlink:href="../../dc/df8/size2d_8h.html" target="_top" xlink:title="A two&#45;dimensional size tagged with a unit.">
<polygon fill="white" stroke="#666666" points="254.88,-506.25 136.88,-506.25 136.88,-487 254.88,-487 254.88,-506.25"/>
<text text-anchor="middle" x="195.88" y="-491.8" font-family="Arial" font-size="11.00">floppy/euclid/size2d.h</text>
</a>
</g>
</g>
<!-- Node1&#45;&gt;Node30 -->
<g id="edge36_Node000001_Node000030" class="edge">
<title>Node1&#45;&gt;Node30</title>
<g id="a_edge36_Node000001_Node000030"><a xlink:title=" ">
<path fill="none" stroke="#63b8ff" d="M159.14,-542.08C165.16,-534.8 173.89,-524.23 181.33,-515.23"/>
<polygon fill="#63b8ff" stroke="#63b8ff" points="183.82,-517.71 187.49,-507.78 178.42,-513.26 183.82,-517.71"/>
</a>
</g>
</g>
<!-- Node31 -->
<g id="Node000031" class="node">
<title>Node31</title>
<g id="a_Node000031"><a xlink:href="../../da/d53/nt__traits2d_8h_source.html" target="_top" xlink:title=" ">
<polygon fill="white" stroke="#666666" points="413.75,-451 310,-451 310,-420.5 413.75,-420.5 413.75,-451"/>
<text text-anchor="start" x="318" y="-436.55" font-family="Arial" font-size="11.00">floppy/euclid/detail</text>
<text text-anchor="middle" x="361.88" y="-425.3" font-family="Arial" font-size="11.00">/nt_traits2d.h</text>
</a>
</g>
</g>
<!-- Node1&#45;&gt;Node31 -->
<g id="edge46_Node000001_Node000031" class="edge">
<title>Node1&#45;&gt;Node31</title>
<g id="a_edge46_Node000001_Node000031"><a xlink:title=" ">
<path fill="none" stroke="#63b8ff" d="M179.86,-541.81C203.03,-533.82 236.48,-521.15 263.88,-506.25 289.27,-492.44 315.89,-473.22 334.97,-458.49"/>
<polygon fill="#63b8ff" stroke="#63b8ff" points="337.04,-461.31 342.76,-452.38 332.72,-455.8 337.04,-461.31"/>
</a>
</g>
</g>
<!-- Node4 -->
<g id="Node000004" class="node">
<title>Node4</title>
<g id="a_Node000004"><a xlink:href="../../d8/d0c/scale_8h.html" target="_top" xlink:title="A scaling factor between two different units of measurement.">
<polygon fill="white" stroke="#666666" points="362.88,-329.25 250.88,-329.25 250.88,-310 362.88,-310 362.88,-329.25"/>
<text text-anchor="middle" x="306.88" y="-314.8" font-family="Arial" font-size="11.00">floppy/euclid/scale.h</text>
</a>
</g>
</g>
<!-- Node3&#45;&gt;Node4 -->
<g id="edge3_Node000003_Node000004" class="edge">
<title>Node3&#45;&gt;Node4</title>
<g id="a_edge3_Node000003_Node000004"><a xlink:title=" ">
<path fill="none" stroke="#63b8ff" d="M214.7,-364.84C231.93,-356.58 257.68,-344.23 277.58,-334.68"/>
<polygon fill="#63b8ff" stroke="#63b8ff" points="279.09,-337.84 286.59,-330.36 276.06,-331.53 279.09,-337.84"/>
</a>
</g>
</g>
<!-- Node29 -->
<g id="Node000029" class="node">
<title>Node29</title>
<g id="a_Node000029"><a xlink:href="../../de/de1/nt__traits_8h_source.html" target="_top" xlink:title=" ">
<polygon fill="white" stroke="#666666" points="274.75,-274 171,-274 171,-243.5 274.75,-243.5 274.75,-274"/>
<text text-anchor="start" x="179" y="-259.55" font-family="Arial" font-size="11.00">floppy/euclid/detail</text>
<text text-anchor="middle" x="222.88" y="-248.3" font-family="Arial" font-size="11.00">/nt_traits.h</text>
</a>
</g>
</g>
<!-- Node3&#45;&gt;Node29 -->
<g id="edge35_Node000003_Node000029" class="edge">
<title>Node3&#45;&gt;Node29</title>
<g id="a_edge35_Node000003_Node000029"><a xlink:title=" ">
<path fill="none" stroke="#63b8ff" d="M197.45,-365.15C199.72,-352.82 204.16,-329.58 208.88,-310 210.84,-301.84 213.22,-292.99 215.45,-285.04"/>
<polygon fill="#63b8ff" stroke="#63b8ff" points="218.75,-286.22 218.14,-275.65 212.02,-284.3 218.75,-286.22"/>
</a>
</g>
</g>
<!-- Node5 -->
<g id="Node000005" class="node">
<title>Node5</title>
<g id="a_Node000005"><a xlink:href="../../df/db1/math_8h_source.html" target="_top" xlink:title=" ">
<polygon fill="white" stroke="#666666" points="361.38,-207.5 252.38,-207.5 252.38,-188.25 361.38,-188.25 361.38,-207.5"/>
<text text-anchor="middle" x="306.88" y="-193.05" font-family="Arial" font-size="11.00">floppy/detail/math.h</text>
</a>
</g>
</g>
<!-- Node4&#45;&gt;Node5 -->
<g id="edge4_Node000004_Node000005" class="edge">
<title>Node4&#45;&gt;Node5</title>
<g id="a_edge4_Node000004_Node000005"><a xlink:title=" ">
<path fill="none" stroke="#63b8ff" d="M306.88,-309.62C306.88,-290.55 306.88,-245.66 306.88,-219.26"/>
<polygon fill="#63b8ff" stroke="#63b8ff" points="310.38,-219.49 306.88,-209.49 303.38,-219.49 310.38,-219.49"/>
</a>
</g>
</g>
<!-- Node22 -->
<g id="Node000022" class="node">
<title>Node22</title>
<g id="a_Node000022"><a xlink:href="../../dd/dff/traits_8h_source.html" target="_top" xlink:title=" ">
<polygon fill="white" stroke="#666666" points="778.75,-207.5 699,-207.5 699,-188.25 778.75,-188.25 778.75,-207.5"/>
<text text-anchor="middle" x="738.88" y="-193.05" font-family="Arial" font-size="11.00">floppy/traits.h</text>
</a>
</g>
</g>
<!-- Node4&#45;&gt;Node22 -->
<g id="edge22_Node000004_Node000022" class="edge">
<title>Node4&#45;&gt;Node22</title>
<g id="a_edge22_Node000004_Node000022"><a xlink:title=" ">
<path fill="none" stroke="#63b8ff" d="M339.7,-309.53C416.58,-288.21 608.36,-235.05 695.08,-211.02"/>
<polygon fill="#63b8ff" stroke="#63b8ff" points="695.94,-214.41 704.64,-208.36 694.07,-207.66 695.94,-214.41"/>
</a>
</g>
</g>
<!-- Node4&#45;&gt;Node29 -->
<g id="edge32_Node000004_Node000029" class="edge">
<title>Node4&#45;&gt;Node29</title>
<g id="a_edge32_Node000004_Node000029"><a xlink:title=" ">
<path fill="none" stroke="#63b8ff" d="M294.12,-309.68C283.23,-302.05 267.13,-290.77 253,-280.86"/>
<polygon fill="#63b8ff" stroke="#63b8ff" points="255.05,-278.02 244.85,-275.15 251.03,-283.76 255.05,-278.02"/>
</a>
</g>
</g>
<!-- Node6 -->
<g id="Node000006" class="node">
<title>Node6</title>
<g id="a_Node000006"><a xlink:title=" ">
<polygon fill="#e0e0e0" stroke="#999999" points="389.5,-146.62 344.25,-146.62 344.25,-127.38 389.5,-127.38 389.5,-146.62"/>
<text text-anchor="middle" x="366.88" y="-132.18" font-family="Arial" font-size="11.00">cmath</text>
</a>
</g>
</g>
<!-- Node5&#45;&gt;Node6 -->
<g id="edge5_Node000005_Node000006" class="edge">
<title>Node5&#45;&gt;Node6</title>
<g id="a_edge5_Node000005_Node000006"><a xlink:title=" ">
<path fill="none" stroke="#63b8ff" d="M315.99,-187.93C324.89,-179.2 338.65,-165.69 349.62,-154.93"/>
<polygon fill="#63b8ff" stroke="#63b8ff" points="351.91,-157.59 356.6,-148.09 347.01,-152.59 351.91,-157.59"/>
</a>
</g>
</g>
<!-- Node7 -->
<g id="Node000007" class="node">
<title>Node7</title>
<g id="a_Node000007"><a xlink:title=" ">
<polygon fill="#e0e0e0" stroke="#999999" points="447.88,-146.62 407.88,-146.62 407.88,-127.38 447.88,-127.38 447.88,-146.62"/>
<text text-anchor="middle" x="427.88" y="-132.18" font-family="Arial" font-size="11.00">limits</text>
</a>
</g>
</g>
<!-- Node5&#45;&gt;Node7 -->
<g id="edge6_Node000005_Node000007" class="edge">
<title>Node5&#45;&gt;Node7</title>
<g id="a_edge6_Node000005_Node000007"><a xlink:title=" ">
<path fill="none" stroke="#63b8ff" d="M325.57,-187.84C344.16,-178.85 373.51,-164.63 398.88,-152.25 398.98,-152.2 399.09,-152.15 399.2,-152.09"/>
<polygon fill="#63b8ff" stroke="#63b8ff" points="400.67,-155.27 408.11,-147.73 397.59,-148.98 400.67,-155.27"/>
</a>
</g>
</g>
<!-- Node8 -->
<g id="Node000008" class="node">
<title>Node8</title>
<g id="a_Node000008"><a xlink:title=" ">
<polygon fill="#e0e0e0" stroke="#999999" points="249.88,-146.62 191.88,-146.62 191.88,-127.38 249.88,-127.38 249.88,-146.62"/>
<text text-anchor="middle" x="220.88" y="-132.18" font-family="Arial" font-size="11.00">numbers</text>
</a>
</g>
</g>
<!-- Node5&#45;&gt;Node8 -->
<g id="edge7_Node000005_Node000008" class="edge">
<title>Node5&#45;&gt;Node8</title>
<g id="a_edge7_Node000005_Node000008"><a xlink:title=" ">
<path fill="none" stroke="#63b8ff" d="M293.81,-187.93C280.43,-178.77 259.36,-164.34 243.3,-153.35"/>
<polygon fill="#63b8ff" stroke="#63b8ff" points="245.54,-150.64 235.31,-147.88 241.58,-156.42 245.54,-150.64"/>
</a>
</g>
</g>
<!-- Node9 -->
<g id="Node000009" class="node">
<title>Node9</title>
<g id="a_Node000009"><a xlink:title=" ">
<polygon fill="#e0e0e0" stroke="#999999" points="325.88,-146.62 267.88,-146.62 267.88,-127.38 325.88,-127.38 325.88,-146.62"/>
<text text-anchor="middle" x="296.88" y="-132.18" font-family="Arial" font-size="11.00">compare</text>
</a>
</g>
</g>
<!-- Node5&#45;&gt;Node9 -->
<g id="edge8_Node000005_Node000009" class="edge">
<title>Node5&#45;&gt;Node9</title>
<g id="a_edge8_Node000005_Node000009"><a xlink:title=" ">
<path fill="none" stroke="#63b8ff" d="M305.36,-187.93C304.02,-180.07 302.03,-168.32 300.31,-158.2"/>
<polygon fill="#63b8ff" stroke="#63b8ff" points="303.79,-157.79 298.66,-148.52 296.89,-158.96 303.79,-157.79"/>
</a>
</g>
</g>
<!-- Node10 -->
<g id="Node000010" class="node">
<title>Node10</title>
<g id="a_Node000010"><a xlink:href="../../db/db5/export_8h_source.html" target="_top" xlink:title=" ">
<polygon fill="white" stroke="#666666" points="581.38,-146.62 466.38,-146.62 466.38,-127.38 581.38,-127.38 581.38,-146.62"/>
<text text-anchor="middle" x="523.88" y="-132.18" font-family="Arial" font-size="11.00">floppy/detail/export.h</text>
</a>
</g>
</g>
<!-- Node5&#45;&gt;Node10 -->
<g id="edge9_Node000005_Node000010" class="edge">
<title>Node5&#45;&gt;Node10</title>
<g id="a_edge9_Node000005_Node000010"><a xlink:title=" ">
<path fill="none" stroke="#63b8ff" d="M340.31,-187.8C377.58,-177.69 438.04,-161.29 479.31,-150.09"/>
<polygon fill="#63b8ff" stroke="#63b8ff" points="480.21,-153.47 488.95,-147.48 478.38,-146.72 480.21,-153.47"/>
</a>
</g>
</g>
<!-- Node13 -->
<g id="Node000013" class="node">
<title>Node13</title>
<g id="a_Node000013"><a xlink:href="../../d9/db1/concepts_8h_source.html" target="_top" xlink:title=" ">
<polygon fill="white" stroke="#666666" points="173.75,-146.62 46,-146.62 46,-127.38 173.75,-127.38 173.75,-146.62"/>
<text text-anchor="middle" x="109.88" y="-132.18" font-family="Arial" font-size="11.00">floppy/detail/concepts.h</text>
</a>
</g>
</g>
<!-- Node5&#45;&gt;Node13 -->
<g id="edge12_Node000005_Node000013" class="edge">
<title>Node5&#45;&gt;Node13</title>
<g id="a_edge12_Node000005_Node000013"><a xlink:title=" ">
<path fill="none" stroke="#63b8ff" d="M276.53,-187.8C242.83,-177.74 188.27,-161.43 150.81,-150.24"/>
<polygon fill="#63b8ff" stroke="#63b8ff" points="152.29,-147.02 141.71,-147.51 150.29,-153.73 152.29,-147.02"/>
</a>
</g>
</g>
<!-- Node11 -->
<g id="Node000011" class="node">
<title>Node11</title>
<g id="a_Node000011"><a xlink:title=" ">
<polygon fill="#e0e0e0" stroke="#999999" points="545,-80.12 502.75,-80.12 502.75,-60.88 545,-60.88 545,-80.12"/>
<text text-anchor="middle" x="523.88" y="-65.67" font-family="Arial" font-size="11.00">string</text>
</a>
</g>
</g>
<!-- Node10&#45;&gt;Node11 -->
<g id="edge10_Node000010_Node000011" class="edge">
<title>Node10&#45;&gt;Node11</title>
<g id="a_edge10_Node000010_Node000011"><a xlink:title=" ">
<path fill="none" stroke="#63b8ff" d="M523.88,-127.03C523.88,-117.98 523.88,-103.7 523.88,-91.88"/>
<polygon fill="#63b8ff" stroke="#63b8ff" points="527.38,-91.91 523.88,-81.91 520.38,-91.91 527.38,-91.91"/>
</a>
</g>
</g>
<!-- Node12 -->
<g id="Node000012" class="node">
<title>Node12</title>
<g id="a_Node000012"><a xlink:title=" ">
<polygon fill="#e0e0e0" stroke="#999999" points="676.88,-80.12 606.88,-80.12 606.88,-60.88 676.88,-60.88 676.88,-80.12"/>
<text text-anchor="middle" x="641.88" y="-65.67" font-family="Arial" font-size="11.00">string_view</text>
</a>
</g>
</g>
<!-- Node10&#45;&gt;Node12 -->
<g id="edge11_Node000010_Node000012" class="edge">
<title>Node10&#45;&gt;Node12</title>
<g id="a_edge11_Node000010_Node000012"><a xlink:title=" ">
<path fill="none" stroke="#63b8ff" d="M540.53,-126.9C559.95,-116.28 592.29,-98.6 615.21,-86.07"/>
<polygon fill="#63b8ff" stroke="#63b8ff" points="616.88,-89.15 623.98,-81.28 613.52,-83.01 616.88,-89.15"/>
</a>
</g>
</g>
<!-- Node14 -->
<g id="Node000014" class="node">
<title>Node14</title>
<g id="a_Node000014"><a xlink:title=" ">
<polygon fill="#e0e0e0" stroke="#999999" points="91.25,-80.12 32.5,-80.12 32.5,-60.88 91.25,-60.88 91.25,-80.12"/>
<text text-anchor="middle" x="61.88" y="-65.67" font-family="Arial" font-size="11.00">concepts</text>
</a>
</g>
</g>
<!-- Node13&#45;&gt;Node14 -->
<g id="edge13_Node000013_Node000014" class="edge">
<title>Node13&#45;&gt;Node14</title>
<g id="a_edge13_Node000013_Node000014"><a xlink:title=" ">
<path fill="none" stroke="#63b8ff" d="M103.2,-127.03C95.96,-117.31 84.23,-101.54 75.11,-89.28"/>
<polygon fill="#63b8ff" stroke="#63b8ff" points="78.17,-87.54 69.4,-81.61 72.56,-91.72 78.17,-87.54"/>
</a>
</g>
</g>
<!-- Node15 -->
<g id="Node000015" class="node">
<title>Node15</title>
<g id="a_Node000015"><a xlink:href="../../df/d63/type__traits_8h_source.html" target="_top" xlink:title=" ">
<polygon fill="white" stroke="#666666" points="206,-85.75 109.75,-85.75 109.75,-55.25 206,-55.25 206,-85.75"/>
<text text-anchor="start" x="117.75" y="-71.3" font-family="Arial" font-size="11.00">floppy/detail/type</text>
<text text-anchor="middle" x="157.88" y="-60.05" font-family="Arial" font-size="11.00">_traits.h</text>
</a>
</g>
</g>
<!-- Node13&#45;&gt;Node15 -->
<g id="edge14_Node000013_Node000015" class="edge">
<title>Node13&#45;&gt;Node15</title>
<g id="a_edge14_Node000013_Node000015"><a xlink:title=" ">
<path fill="none" stroke="#63b8ff" d="M116.55,-127.03C122.69,-118.79 132.06,-106.19 140.33,-95.08"/>
<polygon fill="#63b8ff" stroke="#63b8ff" points="143.13,-97.17 146.3,-87.06 137.52,-92.99 143.13,-97.17"/>
</a>
</g>
</g>
<!-- Node17 -->
<g id="Node000017" class="node">
<title>Node17</title>
<g id="a_Node000017"><a xlink:href="../../d9/d49/types_8h_source.html" target="_top" xlink:title=" ">
<polygon fill="white" stroke="#666666" points="348.12,-80.12 237.62,-80.12 237.62,-60.88 348.12,-60.88 348.12,-80.12"/>
<text text-anchor="middle" x="292.88" y="-65.67" font-family="Arial" font-size="11.00">floppy/detail/types.h</text>
</a>
</g>
</g>
<!-- Node13&#45;&gt;Node17 -->
<g id="edge16_Node000013_Node000017" class="edge">
<title>Node13&#45;&gt;Node17</title>
<g id="a_edge16_Node000013_Node000017"><a xlink:title=" ">
<path fill="none" stroke="#63b8ff" d="M135.71,-126.9C167.31,-115.76 221.02,-96.83 256.72,-84.24"/>
<polygon fill="#63b8ff" stroke="#63b8ff" points="257.48,-87.69 265.75,-81.06 255.15,-81.08 257.48,-87.69"/>
</a>
</g>
</g>
<!-- Node16 -->
<g id="Node000016" class="node">
<title>Node16</title>
<g id="a_Node000016"><a xlink:title=" ">
<polygon fill="#e0e0e0" stroke="#999999" points="190.62,-19.25 125.12,-19.25 125.12,0 190.62,0 190.62,-19.25"/>
<text text-anchor="middle" x="157.88" y="-4.8" font-family="Arial" font-size="11.00">type_traits</text>
</a>
</g>
</g>
<!-- Node15&#45;&gt;Node16 -->
<g id="edge15_Node000015_Node000016" class="edge">
<title>Node15&#45;&gt;Node16</title>
<g id="a_edge15_Node000015_Node000016"><a xlink:title=" ">
<path fill="none" stroke="#63b8ff" d="M157.88,-54.95C157.88,-47.71 157.88,-38.84 157.88,-30.94"/>
<polygon fill="#63b8ff" stroke="#63b8ff" points="161.38,-31.21 157.88,-21.21 154.38,-31.21 161.38,-31.21"/>
</a>
</g>
</g>
<!-- Node17&#45;&gt;Node16 -->
<g id="edge20_Node000017_Node000016" class="edge">
<title>Node17&#45;&gt;Node16</title>
<g id="a_edge20_Node000017_Node000016"><a xlink:title=" ">
<path fill="none" stroke="#63b8ff" d="M272.08,-60.43C249.81,-50.72 214.26,-35.21 188.73,-24.08"/>
<polygon fill="#63b8ff" stroke="#63b8ff" points="190.43,-21 179.86,-20.21 187.63,-27.42 190.43,-21"/>
</a>
</g>
</g>
<!-- Node18 -->
<g id="Node000018" class="node">
<title>Node18</title>
<g id="a_Node000018"><a xlink:title=" ">
<polygon fill="#e0e0e0" stroke="#999999" points="331.12,-19.25 280.62,-19.25 280.62,0 331.12,0 331.12,-19.25"/>
<text text-anchor="middle" x="305.88" y="-4.8" font-family="Arial" font-size="11.00">cstddef</text>
</a>
</g>
</g>
<!-- Node17&#45;&gt;Node18 -->
<g id="edge17_Node000017_Node000018" class="edge">
<title>Node17&#45;&gt;Node18</title>
<g id="a_edge17_Node000017_Node000018"><a xlink:title=" ">
<path fill="none" stroke="#63b8ff" d="M294.85,-60.56C296.59,-52.69 299.18,-40.95 301.41,-30.82"/>
<polygon fill="#63b8ff" stroke="#63b8ff" points="304.82,-31.65 303.56,-21.13 297.98,-30.14 304.82,-31.65"/>
</a>
</g>
</g>
<!-- Node19 -->
<g id="Node000019" class="node">
<title>Node19</title>
<g id="a_Node000019"><a xlink:title=" ">
<polygon fill="#e0e0e0" stroke="#999999" points="396.25,-19.25 349.5,-19.25 349.5,0 396.25,0 396.25,-19.25"/>
<text text-anchor="middle" x="372.88" y="-4.8" font-family="Arial" font-size="11.00">cstdint</text>
</a>
</g>
</g>
<!-- Node17&#45;&gt;Node19 -->
<g id="edge18_Node000017_Node000019" class="edge">
<title>Node17&#45;&gt;Node19</title>
<g id="a_edge18_Node000017_Node000019"><a xlink:title=" ">
<path fill="none" stroke="#63b8ff" d="M305.03,-60.56C317.36,-51.48 336.71,-37.24 351.59,-26.29"/>
<polygon fill="#63b8ff" stroke="#63b8ff" points="353.41,-29.29 359.39,-20.55 349.26,-23.66 353.41,-29.29"/>
</a>
</g>
</g>
<!-- Node20 -->
<g id="Node000020" class="node">
<title>Node20</title>
<g id="a_Node000020"><a xlink:title=" ">
<polygon fill="#e0e0e0" stroke="#999999" points="262.62,-19.25 209.12,-19.25 209.12,0 262.62,0 262.62,-19.25"/>
<text text-anchor="middle" x="235.88" y="-4.8" font-family="Arial" font-size="11.00">optional</text>
</a>
</g>
</g>
<!-- Node17&#45;&gt;Node20 -->
<g id="edge19_Node000017_Node000020" class="edge">
<title>Node17&#45;&gt;Node20</title>
<g id="a_edge19_Node000017_Node000020"><a xlink:title=" ">
<path fill="none" stroke="#63b8ff" d="M284.22,-60.56C275.85,-51.91 262.95,-38.59 252.57,-27.87"/>
<polygon fill="#63b8ff" stroke="#63b8ff" points="255.14,-25.49 245.67,-20.74 250.11,-30.36 255.14,-25.49"/>
</a>
</g>
</g>
<!-- Node21 -->
<g id="Node000021" class="node">
<title>Node21</title>
<g id="a_Node000021"><a xlink:title=" ">
<polygon fill="#e0e0e0" stroke="#999999" points="641.75,-19.25 568,-19.25 568,0 641.75,0 641.75,-19.25"/>
<text text-anchor="middle" x="604.88" y="-4.8" font-family="Arial" font-size="11.00">fmt/format.h</text>
</a>
</g>
</g>
<!-- Node17&#45;&gt;Node21 -->
<g id="edge21_Node000017_Node000021" class="edge">
<title>Node17&#45;&gt;Node21</title>
<g id="a_edge21_Node000017_Node000021"><a xlink:title=" ">
<path fill="none" stroke="#63b8ff" d="M340.94,-60.43C399.43,-49.39 497.63,-30.86 556.34,-19.78"/>
<polygon fill="#63b8ff" stroke="#63b8ff" points="556.86,-23.25 566.04,-17.95 555.56,-16.37 556.86,-23.25"/>
</a>
</g>
</g>
<!-- Node22&#45;&gt;Node10 -->
<g id="edge26_Node000022_Node000010" class="edge">
<title>Node22&#45;&gt;Node10</title>
<g id="a_edge26_Node000022_Node000010"><a xlink:title=" ">
<path fill="none" stroke="#63b8ff" d="M705.75,-187.8C668.82,-177.69 608.92,-161.29 568.03,-150.09"/>
<polygon fill="#63b8ff" stroke="#63b8ff" points="569.06,-146.75 558.5,-147.48 567.22,-153.5 569.06,-146.75"/>
</a>
</g>
</g>
<!-- Node23 -->
<g id="Node000023" class="node">
<title>Node23</title>
<g id="a_Node000023"><a xlink:title=" ">
<polygon fill="#e0e0e0" stroke="#999999" points="953.38,-146.62 898.38,-146.62 898.38,-127.38 953.38,-127.38 953.38,-146.62"/>
<text text-anchor="middle" x="925.88" y="-132.18" font-family="Arial" font-size="11.00">memory</text>
</a>
</g>
</g>
<!-- Node22&#45;&gt;Node23 -->
<g id="edge23_Node000022_Node000023" class="edge">
<title>Node22&#45;&gt;Node23</title>
<g id="a_edge23_Node000022_Node000023"><a xlink:title=" ">
<path fill="none" stroke="#63b8ff" d="M772.73,-187.8C803.52,-179.34 850.08,-165.98 889.88,-152.25 891.02,-151.86 892.18,-151.45 893.35,-151.03"/>
<polygon fill="#63b8ff" stroke="#63b8ff" points="894.36,-154.38 902.49,-147.59 891.9,-147.83 894.36,-154.38"/>
</a>
</g>
</g>
<!-- Node24 -->
<g id="Node000024" class="node">
<title>Node24</title>
<g id="a_Node000024"><a xlink:title=" ">
<polygon fill="#e0e0e0" stroke="#999999" points="1028.5,-146.62 971.25,-146.62 971.25,-127.38 1028.5,-127.38 1028.5,-146.62"/>
<text text-anchor="middle" x="999.88" y="-132.18" font-family="Arial" font-size="11.00">iostream</text>
</a>
</g>
</g>
<!-- Node22&#45;&gt;Node24 -->
<g id="edge24_Node000022_Node000024" class="edge">
<title>Node22&#45;&gt;Node24</title>
<g id="a_edge24_Node000022_Node000024"><a xlink:title=" ">
<path fill="none" stroke="#63b8ff" d="M779.02,-191C824.24,-183.9 899.65,-170.58 962.88,-152.25 964.45,-151.79 966.04,-151.3 967.65,-150.78"/>
<polygon fill="#63b8ff" stroke="#63b8ff" points="968.48,-154.2 976.75,-147.57 966.15,-147.6 968.48,-154.2"/>
</a>
</g>
</g>
<!-- Node25 -->
<g id="Node000025" class="node">
<title>Node25</title>
<g id="a_Node000025"><a xlink:title=" ">
<polygon fill="#e0e0e0" stroke="#999999" points="728.5,-152.25 599.25,-152.25 599.25,-121.75 728.5,-121.75 728.5,-152.25"/>
<text text-anchor="start" x="607.25" y="-137.8" font-family="Arial" font-size="11.00">experimental/propagate</text>
<text text-anchor="middle" x="663.88" y="-126.55" font-family="Arial" font-size="11.00">_const</text>
</a>
</g>
</g>
<!-- Node22&#45;&gt;Node25 -->
<g id="edge25_Node000022_Node000025" class="edge">
<title>Node22&#45;&gt;Node25</title>
<g id="a_edge25_Node000022_Node000025"><a xlink:title=" ">
<path fill="none" stroke="#63b8ff" d="M727.48,-187.93C717.86,-180.37 703.67,-169.24 691.13,-159.4"/>
<polygon fill="#63b8ff" stroke="#63b8ff" points="693.6,-156.89 683.58,-153.47 689.28,-162.39 693.6,-156.89"/>
</a>
</g>
</g>
<!-- Node26 -->
<g id="Node000026" class="node">
<title>Node26</title>
<g id="a_Node000026"><a xlink:href="../../d6/d45/formatters_8h_source.html" target="_top" xlink:title=" ">
<polygon fill="white" stroke="#666666" points="880.75,-146.62 747,-146.62 747,-127.38 880.75,-127.38 880.75,-146.62"/>
<text text-anchor="middle" x="813.88" y="-132.18" font-family="Arial" font-size="11.00">floppy/detail/formatters.h</text>
</a>
</g>
</g>
<!-- Node22&#45;&gt;Node26 -->
<g id="edge27_Node000022_Node000026" class="edge">
<title>Node22&#45;&gt;Node26</title>
<g id="a_edge27_Node000022_Node000026"><a xlink:title=" ">
<path fill="none" stroke="#63b8ff" d="M750.27,-187.93C761.72,-178.94 779.62,-164.89 793.52,-153.98"/>
<polygon fill="#63b8ff" stroke="#63b8ff" points="795.48,-156.89 801.19,-147.96 791.16,-151.38 795.48,-156.89"/>
</a>
</g>
</g>
<!-- Node26&#45;&gt;Node12 -->
<g id="edge28_Node000026_Node000012" class="edge">
<title>Node26&#45;&gt;Node12</title>
<g id="a_edge28_Node000026_Node000012"><a xlink:title=" ">
<path fill="none" stroke="#63b8ff" d="M789.6,-126.9C760.14,-115.85 710.28,-97.15 676.73,-84.57"/>
<polygon fill="#63b8ff" stroke="#63b8ff" points="678.04,-81.32 667.45,-81.09 675.58,-87.88 678.04,-81.32"/>
</a>
</g>
</g>
<!-- Node26&#45;&gt;Node21 -->
<g id="edge31_Node000026_Node000021" class="edge">
<title>Node26&#45;&gt;Node21</title>
<g id="a_edge31_Node000026_Node000021"><a xlink:title=" ">
<path fill="none" stroke="#63b8ff" d="M811.16,-126.95C805.65,-110.17 791.55,-74.25 766.88,-55.25 734.17,-30.06 688.12,-19.09 653.48,-14.31"/>
<polygon fill="#63b8ff" stroke="#63b8ff" points="654.06,-10.85 643.7,-13.1 653.2,-17.8 654.06,-10.85"/>
</a>
</g>
</g>
<!-- Node27 -->
<g id="Node000027" class="node">
<title>Node27</title>
<g id="a_Node000027"><a xlink:title=" ">
<polygon fill="#e0e0e0" stroke="#999999" points="868,-80.12 813.75,-80.12 813.75,-60.88 868,-60.88 868,-80.12"/>
<text text-anchor="middle" x="840.88" y="-65.67" font-family="Arial" font-size="11.00">sstream</text>
</a>
</g>
</g>
<!-- Node26&#45;&gt;Node27 -->
<g id="edge29_Node000026_Node000027" class="edge">
<title>Node26&#45;&gt;Node27</title>
<g id="a_edge29_Node000026_Node000027"><a xlink:title=" ">
<path fill="none" stroke="#63b8ff" d="M817.63,-127.03C821.54,-117.69 827.78,-102.78 832.81,-90.76"/>
<polygon fill="#63b8ff" stroke="#63b8ff" points="835.94,-92.36 836.57,-81.79 829.48,-89.66 835.94,-92.36"/>
</a>
</g>
</g>
<!-- Node28 -->
<g id="Node000028" class="node">
<title>Node28</title>
<g id="a_Node000028"><a xlink:title=" ">
<polygon fill="#e0e0e0" stroke="#999999" points="758.25,-80.12 711.5,-80.12 711.5,-60.88 758.25,-60.88 758.25,-80.12"/>
<text text-anchor="middle" x="734.88" y="-65.67" font-family="Arial" font-size="11.00">iosfwd</text>
</a>
</g>
</g>
<!-- Node26&#45;&gt;Node28 -->
<g id="edge30_Node000026_Node000028" class="edge">
<title>Node26&#45;&gt;Node28</title>
<g id="a_edge30_Node000026_Node000028"><a xlink:title=" ">
<path fill="none" stroke="#63b8ff" d="M802.89,-127.03C790.46,-116.88 769.97,-100.15 754.72,-87.7"/>
<polygon fill="#63b8ff" stroke="#63b8ff" points="757.15,-85.17 747.19,-81.56 752.73,-90.59 757.15,-85.17"/>
</a>
</g>
</g>
<!-- Node29&#45;&gt;Node5 -->
<g id="edge33_Node000029_Node000005" class="edge">
<title>Node29&#45;&gt;Node5</title>
<g id="a_edge33_Node000029_Node000005"><a xlink:title=" ">
<path fill="none" stroke="#63b8ff" d="M243.64,-243.2C256.06,-234.49 271.84,-223.43 284.53,-214.53"/>
<polygon fill="#63b8ff" stroke="#63b8ff" points="286.51,-217.43 292.69,-208.82 282.49,-211.69 286.51,-217.43"/>
</a>
</g>
</g>
<!-- Node29&#45;&gt;Node13 -->
<g id="edge34_Node000029_Node000013" class="edge">
<title>Node29&#45;&gt;Node13</title>
<g id="a_edge34_Node000029_Node000013"><a xlink:title=" ">
<path fill="none" stroke="#63b8ff" d="M209.02,-243.07C188.1,-220.9 148.55,-178.98 126.24,-155.35"/>
<polygon fill="#63b8ff" stroke="#63b8ff" points="128.8,-152.96 119.4,-148.09 123.71,-157.76 128.8,-152.96"/>
</a>
</g>
</g>
<!-- Node30&#45;&gt;Node3 -->
<g id="edge39_Node000030_Node000003" class="edge">
<title>Node30&#45;&gt;Node3</title>
<g id="a_edge39_Node000030_Node000003"><a xlink:title=" ">
<path fill="none" stroke="#63b8ff" d="M195.88,-486.62C195.88,-467.55 195.88,-422.66 195.88,-396.26"/>
<polygon fill="#63b8ff" stroke="#63b8ff" points="199.38,-396.49 195.88,-386.49 192.38,-396.49 199.38,-396.49"/>
</a>
</g>
</g>
<!-- Node30&#45;&gt;Node5 -->
<g id="edge37_Node000030_Node000005" class="edge">
<title>Node30&#45;&gt;Node5</title>
<g id="a_edge37_Node000030_Node000005"><a xlink:title=" ">
<path fill="none" stroke="#63b8ff" d="M205.81,-486.64C242.33,-453.54 367.33,-339.8 371.88,-329.25 389.87,-287.49 350.52,-240.07 325.51,-215.55"/>
<polygon fill="#63b8ff" stroke="#63b8ff" points="328.15,-213.23 318.47,-208.92 323.34,-218.32 328.15,-213.23"/>
</a>
</g>
</g>
<!-- Node30&#45;&gt;Node13 -->
<g id="edge38_Node000030_Node000013" class="edge">
<title>Node30&#45;&gt;Node13</title>
<g id="a_edge38_Node000030_Node000013"><a xlink:title=" ">
<path fill="none" stroke="#63b8ff" d="M187.63,-486.55C166.1,-461.87 109.88,-390.7 109.88,-320.62 109.88,-320.62 109.88,-320.62 109.88,-257.75 109.88,-222.84 109.88,-182.21 109.88,-158.38"/>
<polygon fill="#63b8ff" stroke="#63b8ff" points="113.38,-158.53 109.88,-148.53 106.38,-158.53 113.38,-158.53"/>
</a>
</g>
</g>
<!-- Node30&#45;&gt;Node31 -->
<g id="edge40_Node000030_Node000031" class="edge">
<title>Node30&#45;&gt;Node31</title>
<g id="a_edge40_Node000030_Node000031"><a xlink:title=" ">
<path fill="none" stroke="#63b8ff" d="M221.45,-486.55C244.94,-478.22 280.46,-465.62 309.9,-455.18"/>
<polygon fill="#63b8ff" stroke="#63b8ff" points="310.76,-458.59 319.02,-451.95 308.42,-451.99 310.76,-458.59"/>
</a>
</g>
</g>
<!-- Node31&#45;&gt;Node3 -->
<g id="edge44_Node000031_Node000003" class="edge">
<title>Node31&#45;&gt;Node3</title>
<g id="a_edge44_Node000031_Node000003"><a xlink:title=" ">
<path fill="none" stroke="#63b8ff" d="M320.41,-420.05C293.19,-410.39 257.93,-397.88 231.88,-388.65"/>
<polygon fill="#63b8ff" stroke="#63b8ff" points="233.35,-385.45 222.76,-385.41 231.01,-392.05 233.35,-385.45"/>
</a>
</g>
</g>
<!-- Node31&#45;&gt;Node29 -->
<g id="edge45_Node000031_Node000029" class="edge">
<title>Node31&#45;&gt;Node29</title>
<g id="a_edge45_Node000031_Node000029"><a xlink:title=" ">
<path fill="none" stroke="#63b8ff" d="M338.32,-420.26C311.05,-402.25 266.71,-369.01 241.88,-329.25 233.62,-316.04 228.9,-299.24 226.23,-285.46"/>
<polygon fill="#63b8ff" stroke="#63b8ff" points="229.72,-285.08 224.62,-275.8 222.81,-286.23 229.72,-285.08"/>
</a>
</g>
</g>
<!-- Node32 -->
<g id="Node000032" class="node">
<title>Node32</title>
<g id="a_Node000032"><a xlink:title=" ">
<polygon fill="#e0e0e0" stroke="#999999" points="446.25,-384.5 405.5,-384.5 405.5,-365.25 446.25,-365.25 446.25,-384.5"/>
<text text-anchor="middle" x="425.88" y="-370.05" font-family="Arial" font-size="11.00">array</text>
</a>
</g>
</g>
<!-- Node31&#45;&gt;Node32 -->
<g id="edge41_Node000031_Node000032" class="edge">
<title>Node31&#45;&gt;Node32</title>
<g id="a_edge41_Node000031_Node000032"><a xlink:title=" ">
<path fill="none" stroke="#63b8ff" d="M377.7,-420.2C386.78,-411.84 398.24,-401.3 407.69,-392.6"/>
<polygon fill="#63b8ff" stroke="#63b8ff" points="409.9,-395.32 414.89,-385.98 405.17,-390.17 409.9,-395.32"/>
</a>
</g>
</g>
<!-- Node33 -->
<g id="Node000033" class="node">
<title>Node33</title>
<g id="a_Node000033"><a xlink:title=" ">
<polygon fill="#e0e0e0" stroke="#999999" points="503.5,-384.5 464.25,-384.5 464.25,-365.25 503.5,-365.25 503.5,-384.5"/>
<text text-anchor="middle" x="483.88" y="-370.05" font-family="Arial" font-size="11.00">tuple</text>
</a>
</g>
</g>
<!-- Node31&#45;&gt;Node33 -->
<g id="edge42_Node000031_Node000033" class="edge">
<title>Node31&#45;&gt;Node33</title>
<g id="a_edge42_Node000031_Node000033"><a xlink:title=" ">
<path fill="none" stroke="#63b8ff" d="M392.35,-420.05C411.46,-410.82 435.97,-399 454.81,-389.9"/>
<polygon fill="#63b8ff" stroke="#63b8ff" points="456.32,-393.06 463.8,-385.56 453.27,-386.76 456.32,-393.06"/>
</a>
</g>
</g>
<!-- Node34 -->
<g id="Node000034" class="node">
<title>Node34</title>
<g id="a_Node000034"><a xlink:title=" ">
<polygon fill="#e0e0e0" stroke="#999999" points="387.88,-384.5 347.88,-384.5 347.88,-365.25 387.88,-365.25 387.88,-384.5"/>
<text text-anchor="middle" x="367.88" y="-370.05" font-family="Arial" font-size="11.00">utility</text>
</a>
</g>
</g>
<!-- Node31&#45;&gt;Node34 -->
<g id="edge43_Node000031_Node000034" class="edge">
<title>Node31&#45;&gt;Node34</title>
<g id="a_edge43_Node000031_Node000034"><a xlink:title=" ">
<path fill="none" stroke="#63b8ff" d="M363.36,-420.2C364.1,-412.96 365,-404.09 365.8,-396.19"/>
<polygon fill="#63b8ff" stroke="#63b8ff" points="369.26,-396.76 366.8,-386.46 362.3,-396.05 369.26,-396.76"/>
</a>
</g>
</g>
</g>
</svg>
