<?xml version="1.0" encoding="UTF-8" standalone="no"?>
<!DOCTYPE svg PUBLIC "-//W3C//DTD SVG 1.1//EN"
 "http://www.w3.org/Graphics/SVG/1.1/DTD/svg11.dtd">
<!-- Generated by graphviz version 10.0.1 (0)
 -->
<!-- Title: size2d.h Pages: 1 -->
<svg width="178pt" height="138pt"
 viewBox="0.00 0.00 177.50 137.75" xmlns="http://www.w3.org/2000/svg" xmlns:xlink="http://www.w3.org/1999/xlink">

<svg id="main" version="1.1" xmlns="http://www.w3.org/2000/svg" xmlns:xlink="http://www.w3.org/1999/xlink" xml:space="preserve" onload="init(evt)">
<style type="text/css"><![CDATA[
.node, .edge {opacity: 0.7;}
.node.selected, .edge.selected {opacity: 1;}
.edge:hover path { stroke: red; }
.edge:hover polygon { stroke: red; fill: red; }
]]></style>
<script type="application/ecmascript" xlink:href="../../svg.min.js"/>
<svg id="graph" class="graph">
<g id="graph0" class="graph" transform="scale(1 1) rotate(0) translate(4 133.75)">
<title>size2d.h</title>
<!-- Node1 -->
<g id="Node000001" class="node">
<title>Node1</title>
<g id="a_Node000001"><a xlink:title="A two&#45;dimensional size tagged with a unit.">
<polygon fill="#999999" stroke="#666666" points="83.25,-129.75 27.5,-129.75 27.5,-110.5 83.25,-110.5 83.25,-129.75"/>
<text text-anchor="middle" x="55.38" y="-115.3" font-family="Arial" font-size="11.00">size2d.h</text>
</a>
</g>
</g>
<!-- Node2 -->
<g id="Node000002" class="node">
<title>Node2</title>
<g id="a_Node000002"><a xlink:href="../../de/d44/euclid_8h.html" target="_top" xlink:title="Small collection of classes and functions for geometric types with a focus on 2d graphics and layout.">
<polygon fill="white" stroke="#666666" points="52.75,-19.25 0,-19.25 0,0 52.75,0 52.75,-19.25"/>
<text text-anchor="middle" x="26.38" y="-4.8" font-family="Arial" font-size="11.00">euclid.h</text>
</a>
</g>
</g>
<!-- Node1&#45;&gt;Node2 -->
<g id="edge1_Node000001_Node000002" class="edge">
<title>Node1&#45;&gt;Node2</title>
<g id="a_edge1_Node000001_Node000002"><a xlink:title=" ">
<path fill="none" stroke="#63b8ff" d="M36,-102.81C28.34,-95.11 20.41,-85.25 16.38,-74.5 9.35,-55.79 16.93,-32.22 22.2,-19.59"/>
<polygon fill="#63b8ff" stroke="#63b8ff" points="33.2,-104.99 42.91,-109.23 37.97,-99.86 33.2,-104.99"/>
</a>
</g>
</g>
<!-- Node3 -->
<g id="Node000003" class="node">
<title>Node3</title>
<g id="a_Node000003"><a xlink:href="../../d4/d12/point2d_8h.html" target="_top" xlink:title="A two&#45;dimensional point tagged with a unit.">
<polygon fill="white" stroke="#666666" points="85.5,-74.5 25.25,-74.5 25.25,-55.25 85.5,-55.25 85.5,-74.5"/>
<text text-anchor="middle" x="55.38" y="-60.05" font-family="Arial" font-size="11.00">point2d.h</text>
</a>
</g>
</g>
<!-- Node1&#45;&gt;Node3 -->
<g id="edge2_Node000001_Node000003" class="edge">
<title>Node1&#45;&gt;Node3</title>
<g id="a_edge2_Node000001_Node000003"><a xlink:title=" ">
<path fill="none" stroke="#63b8ff" d="M55.38,-98.88C55.38,-90.59 55.38,-81.42 55.38,-74.86"/>
<polygon fill="#63b8ff" stroke="#63b8ff" points="51.88,-98.82 55.38,-108.82 58.88,-98.82 51.88,-98.82"/>
</a>
</g>
</g>
<!-- Node4 -->
<g id="Node000004" class="node">
<title>Node4</title>
<g id="a_Node000004"><a xlink:href="../../d1/dab/vector2d_8h.html" target="_top" xlink:title="A two&#45;dimensional vector tagged with a unit.">
<polygon fill="white" stroke="#666666" points="169.5,-74.5 103.25,-74.5 103.25,-55.25 169.5,-55.25 169.5,-74.5"/>
<text text-anchor="middle" x="136.38" y="-60.05" font-family="Arial" font-size="11.00">vector2d.h</text>
</a>
</g>
</g>
<!-- Node1&#45;&gt;Node4 -->
<g id="edge4_Node000001_Node000004" class="edge">
<title>Node1&#45;&gt;Node4</title>
<g id="a_edge4_Node000001_Node000004"><a xlink:title=" ">
<path fill="none" stroke="#63b8ff" d="M78.71,-103.78C92.91,-94.45 110.56,-82.85 122.57,-74.95"/>
<polygon fill="#63b8ff" stroke="#63b8ff" points="76.81,-100.84 70.38,-109.26 80.66,-106.69 76.81,-100.84"/>
</a>
</g>
</g>
<!-- Node3&#45;&gt;Node2 -->
<g id="edge3_Node000003_Node000002" class="edge">
<title>Node3&#45;&gt;Node2</title>
<g id="a_edge3_Node000003_Node000002"><a xlink:title=" ">
<path fill="none" stroke="#63b8ff" d="M45.14,-45.08C40.43,-36.42 35.05,-26.56 31.27,-19.61"/>
<polygon fill="#63b8ff" stroke="#63b8ff" points="42.01,-46.64 49.86,-53.75 48.15,-43.3 42.01,-46.64"/>
</a>
</g>
</g>
</g>
</svg>
</svg>

<style type='text/css'>
<![CDATA[
[data-mouse-over-selected='false'] { opacity: 0.7; }
[data-mouse-over-selected='true']  { opacity: 1.0; }
]]>
</style>
<script type="application/ecmascript"><![CDATA[
document.addEventListener('DOMContentLoaded', (event) => {
  highlightEdges();
  highlightAdjacentNodes();
});
]]></script>
</svg>
