<?xml version="1.0" encoding="UTF-8" standalone="no"?>
<!DOCTYPE svg PUBLIC "-//W3C//DTD SVG 1.1//EN"
 "http://www.w3.org/Graphics/SVG/1.1/DTD/svg11.dtd">
<!-- Generated by graphviz version 10.0.1 (0)
 -->
<!-- Title: non_copyable&lt; T &gt; Pages: 1 -->
<svg width="405pt" height="193pt"
 viewBox="0.00 0.00 404.62 193.00" xmlns="http://www.w3.org/2000/svg" xmlns:xlink="http://www.w3.org/1999/xlink">
<g id="graph0" class="graph" transform="scale(1 1) rotate(0) translate(4 189)">
<title>non_copyable&lt; T &gt;</title>
<!-- Node1 -->
<g id="Node000001" class="node">
<title>Node1</title>
<g id="a_Node000001"><a xlink:title="Disallow copy operations for a type.">
<polygon fill="#999999" stroke="#666666" points="226.62,-185 117.62,-185 117.62,-165.75 226.62,-165.75 226.62,-185"/>
<text text-anchor="middle" x="172.12" y="-170.55" font-family="Arial" font-size="11.00">non_copyable&lt; T &gt;</text>
</a>
</g>
</g>
<!-- Node2 -->
<g id="Node000002" class="node">
<title>Node2</title>
<g id="a_Node000002"><a xlink:href="../../d7/dac/structfloppy_1_1traits_1_1pin.html" target="_top" xlink:title=" ">
<polygon fill="white" stroke="#666666" points="96.25,-129.75 0,-129.75 0,-110.5 96.25,-110.5 96.25,-129.75"/>
<text text-anchor="middle" x="48.12" y="-115.3" font-family="Arial" font-size="11.00">pin&lt; TestPimpl &gt;</text>
</a>
</g>
</g>
<!-- Node1&#45;&gt;Node2 -->
<g id="edge1_Node000001_Node000002" class="edge">
<title>Node1&#45;&gt;Node2</title>
<g id="a_edge1_Node000001_Node000002"><a xlink:title=" ">
<path fill="none" stroke="#63b8ff" d="M140.75,-160.9C118.38,-151.29 88.89,-138.63 69.26,-130.2"/>
<polygon fill="#63b8ff" stroke="#63b8ff" points="139.13,-164.01 149.7,-164.74 141.89,-157.58 139.13,-164.01"/>
</a>
</g>
</g>
<!-- Node4 -->
<g id="Node000004" class="node">
<title>Node4</title>
<g id="a_Node000004"><a xlink:href="../../d7/dac/structfloppy_1_1traits_1_1pin.html" target="_top" xlink:title=" ">
<polygon fill="white" stroke="#666666" points="229.62,-129.75 114.62,-129.75 114.62,-110.5 229.62,-110.5 229.62,-129.75"/>
<text text-anchor="middle" x="172.12" y="-115.3" font-family="Arial" font-size="11.00">pin&lt; TestSingleton &gt;</text>
</a>
</g>
</g>
<!-- Node1&#45;&gt;Node4 -->
<g id="edge3_Node000001_Node000004" class="edge">
<title>Node1&#45;&gt;Node4</title>
<g id="a_edge3_Node000001_Node000004"><a xlink:title=" ">
<path fill="none" stroke="#63b8ff" d="M172.12,-154.13C172.12,-145.84 172.12,-136.67 172.12,-130.11"/>
<polygon fill="#63b8ff" stroke="#63b8ff" points="168.63,-154.07 172.13,-164.07 175.63,-154.07 168.63,-154.07"/>
</a>
</g>
</g>
<!-- Node5 -->
<g id="Node000005" class="node">
<title>Node5</title>
<g id="a_Node000005"><a xlink:href="../../d7/dac/structfloppy_1_1traits_1_1pin.html" target="_top" xlink:title="Disallow copy and move operations for a type.">
<polygon fill="white" stroke="#666666" points="304.38,-129.75 247.88,-129.75 247.88,-110.5 304.38,-110.5 304.38,-129.75"/>
<text text-anchor="middle" x="276.12" y="-115.3" font-family="Arial" font-size="11.00">pin&lt; T &gt;</text>
</a>
</g>
</g>
<!-- Node1&#45;&gt;Node5 -->
<g id="edge4_Node000001_Node000005" class="edge">
<title>Node1&#45;&gt;Node5</title>
<g id="a_edge4_Node000001_Node000005"><a xlink:title=" ">
<path fill="none" stroke="#63b8ff" d="M199.99,-160.11C218.55,-150.61 242.38,-138.4 258.4,-130.2"/>
<polygon fill="#63b8ff" stroke="#63b8ff" points="198.42,-156.98 191.11,-164.65 201.61,-163.21 198.42,-156.98"/>
</a>
</g>
</g>
<!-- Node3 -->
<g id="Node000003" class="node">
<title>Node3</title>
<g id="a_Node000003"><a xlink:title=" ">
<polygon fill="white" stroke="#bfbfbf" points="79.38,-74.5 16.88,-74.5 16.88,-55.25 79.38,-55.25 79.38,-74.5"/>
<text text-anchor="middle" x="48.12" y="-60.05" font-family="Arial" font-size="11.00">TestPimpl</text>
</a>
</g>
</g>
<!-- Node2&#45;&gt;Node3 -->
<g id="edge2_Node000002_Node000003" class="edge">
<title>Node2&#45;&gt;Node3</title>
<g id="a_edge2_Node000002_Node000003"><a xlink:title=" ">
<path fill="none" stroke="#63b8ff" d="M48.12,-98.88C48.12,-90.59 48.12,-81.42 48.12,-74.86"/>
<polygon fill="#63b8ff" stroke="#63b8ff" points="44.63,-98.82 48.13,-108.82 51.63,-98.82 44.63,-98.82"/>
</a>
</g>
</g>
<!-- Node6 -->
<g id="Node000006" class="node">
<title>Node6</title>
<g id="a_Node000006"><a xlink:href="../../d9/d8a/structfloppy_1_1traits_1_1singleton.html" target="_top" xlink:title=" ">
<polygon fill="white" stroke="#666666" points="293.88,-74.5 150.38,-74.5 150.38,-55.25 293.88,-55.25 293.88,-74.5"/>
<text text-anchor="middle" x="222.12" y="-60.05" font-family="Arial" font-size="11.00">singleton&lt; TestSingleton &gt;</text>
</a>
</g>
</g>
<!-- Node5&#45;&gt;Node6 -->
<g id="edge5_Node000005_Node000006" class="edge">
<title>Node5&#45;&gt;Node6</title>
<g id="a_edge5_Node000005_Node000006"><a xlink:title=" ">
<path fill="none" stroke="#63b8ff" d="M259.09,-102.32C249.86,-93.23 238.83,-82.35 231.24,-74.86"/>
<polygon fill="#63b8ff" stroke="#63b8ff" points="256.55,-104.74 266.13,-109.27 261.47,-99.76 256.55,-104.74"/>
</a>
</g>
</g>
<!-- Node8 -->
<g id="Node000008" class="node">
<title>Node8</title>
<g id="a_Node000008"><a xlink:href="../../d9/d8a/structfloppy_1_1traits_1_1singleton.html" target="_top" xlink:title="Singleton pattern trait.">
<polygon fill="white" stroke="#666666" points="396.62,-74.5 311.62,-74.5 311.62,-55.25 396.62,-55.25 396.62,-74.5"/>
<text text-anchor="middle" x="354.12" y="-60.05" font-family="Arial" font-size="11.00">singleton&lt; T &gt;</text>
</a>
</g>
</g>
<!-- Node5&#45;&gt;Node8 -->
<g id="edge7_Node000005_Node000008" class="edge">
<title>Node5&#45;&gt;Node8</title>
<g id="a_edge7_Node000005_Node000008"><a xlink:title=" ">
<path fill="none" stroke="#63b8ff" d="M298.6,-103.78C312.27,-94.45 329.27,-82.85 340.83,-74.95"/>
<polygon fill="#63b8ff" stroke="#63b8ff" points="296.89,-100.71 290.61,-109.24 300.84,-106.49 296.89,-100.71"/>
</a>
</g>
</g>
<!-- Node7 -->
<g id="Node000007" class="node">
<title>Node7</title>
<g id="a_Node000007"><a xlink:title=" ">
<polygon fill="white" stroke="#bfbfbf" points="262.75,-19.25 181.5,-19.25 181.5,0 262.75,0 262.75,-19.25"/>
<text text-anchor="middle" x="222.12" y="-4.8" font-family="Arial" font-size="11.00">TestSingleton</text>
</a>
</g>
</g>
<!-- Node6&#45;&gt;Node7 -->
<g id="edge6_Node000006_Node000007" class="edge">
<title>Node6&#45;&gt;Node7</title>
<g id="a_edge6_Node000006_Node000007"><a xlink:title=" ">
<path fill="none" stroke="#63b8ff" d="M222.12,-43.63C222.12,-35.34 222.12,-26.17 222.12,-19.61"/>
<polygon fill="#63b8ff" stroke="#63b8ff" points="218.63,-43.57 222.13,-53.57 225.63,-43.57 218.63,-43.57"/>
</a>
</g>
</g>
</g>
</svg>
