<?xml version="1.0" encoding="UTF-8" standalone="no"?>
<!DOCTYPE svg PUBLIC "-//W3C//DTD SVG 1.1//EN"
 "http://www.w3.org/Graphics/SVG/1.1/DTD/svg11.dtd">
<!-- Generated by graphviz version 10.0.1 (0)
 -->
<!-- Title: scale.h Pages: 1 -->
<!--zoomable 271 -->

<svg id="main" version="1.1" xmlns="http://www.w3.org/2000/svg" xmlns:xlink="http://www.w3.org/1999/xlink" xml:space="preserve" onload="init(evt)">
<style type="text/css"><![CDATA[
.node, .edge {opacity: 0.7;}
.node.selected, .edge.selected {opacity: 1;}
.edge:hover path { stroke: red; }
.edge:hover polygon { stroke: red; fill: red; }
]]></style>

<defs>
  <circle id="rim" cx="0" cy="0" r="7"/>
  <circle id="rim2" cx="0" cy="0" r="3.5"/>
  <g id="zoomPlus">
    <use xlink:href="#rim" fill="#404040"><set attributeName="fill" to="#808080" begin="zoomplus.mouseover" end="zoomplus.mouseout"/></use>
    <path d="M-4,0h8M0,-4v8" fill="none" stroke="white" stroke-width="1.5" pointer-events="none"/>
  </g>
  <g id="zoomMin">
    <use xlink:href="#rim" fill="#404040"><set attributeName="fill" to="#808080" begin="zoomminus.mouseover" end="zoomminus.mouseout"/></use>
    <path d="M-4,0h8" fill="none" stroke="white" stroke-width="1.5" pointer-events="none"/>
  </g>
  <g id="arrowUp" transform="translate(30 24)">
    <use xlink:href="#rim"/>
    <path pointer-events="none" fill="none" stroke="white" stroke-width="1.5" d="M0,-3.0v7 M-2.5,-0.5L0,-3.0L2.5,-0.5"/>
  </g>
  <g id="arrowRight" transform="rotate(90) translate(36 -43)">
    <use xlink:href="#rim"/>
    <path pointer-events="none" fill="none" stroke="white" stroke-width="1.5" d="M0,-3.0v7 M-2.5,-0.5L0,-3.0L2.5,-0.5"/>
  </g>
  <g id="arrowDown" transform="rotate(180) translate(-30 -48)">
    <use xlink:href="#rim"/>
    <path pointer-events="none" fill="none" stroke="white" stroke-width="1.5" d="M0,-3.0v7 M-2.5,-0.5L0,-3.0L2.5,-0.5"/>
  </g>
  <g id="arrowLeft" transform="rotate(270) translate(-36 17)">
    <use xlink:href="#rim"/>
    <path pointer-events="none" fill="none" stroke="white" stroke-width="1.5" d="M0,-3.0v7 M-2.5,-0.5L0,-3.0L2.5,-0.5"/>
  </g>
  <g id="resetDef">
    <use xlink:href="#rim2" fill="#404040"><set attributeName="fill" to="#808080" begin="reset.mouseover" end="reset.mouseout"/></use>
  </g>
</defs>
<script type="application/ecmascript">
var viewWidth = 989;
var viewHeight = 271;
var sectionId = 'dynsection-0';
</script>
<script type="application/ecmascript" xlink:href="../../svg.min.js"/>
<svg id="graph" class="graph">
<g id="viewport">
<title>scale.h</title>
<!-- Node1 -->
<g id="Node000001" class="node">
<title>Node1</title>
<g id="a_Node000001"><a xlink:title="A scaling factor between two different units of measurement.">
<polygon fill="#999999" stroke="#666666" points="469.75,-262.75 420,-262.75 420,-243.5 469.75,-243.5 469.75,-262.75"/>
<text text-anchor="middle" x="444.88" y="-248.3" font-family="Arial" font-size="11.00">scale.h</text>
</a>
</g>
</g>
<!-- Node2 -->
<g id="Node000002" class="node">
<title>Node2</title>
<g id="a_Node000002"><a xlink:href="../../df/db1/math_8h_source.html" target="_top" xlink:title=" ">
<polygon fill="white" stroke="#666666" points="363.38,-207.5 254.38,-207.5 254.38,-188.25 363.38,-188.25 363.38,-207.5"/>
<text text-anchor="middle" x="308.88" y="-193.05" font-family="Arial" font-size="11.00">floppy/detail/math.h</text>
</a>
</g>
</g>
<!-- Node1&#45;&gt;Node2 -->
<g id="edge1_Node000001_Node000002" class="edge">
<title>Node1&#45;&gt;Node2</title>
<g id="a_edge1_Node000001_Node000002"><a xlink:title=" ">
<path fill="none" stroke="#63b8ff" d="M421.8,-243.09C400.12,-234.6 367.39,-221.79 342.75,-212.14"/>
<polygon fill="#63b8ff" stroke="#63b8ff" points="344.06,-208.89 333.47,-208.5 341.5,-215.41 344.06,-208.89"/>
</a>
</g>
</g>
<!-- Node18 -->
<g id="Node000018" class="node">
<title>Node18</title>
<g id="a_Node000018"><a xlink:href="../../dd/dff/traits_8h_source.html" target="_top" xlink:title=" ">
<polygon fill="white" stroke="#666666" points="675.75,-207.5 596,-207.5 596,-188.25 675.75,-188.25 675.75,-207.5"/>
<text text-anchor="middle" x="635.88" y="-193.05" font-family="Arial" font-size="11.00">floppy/traits.h</text>
</a>
</g>
</g>
<!-- Node1&#45;&gt;Node18 -->
<g id="edge18_Node000001_Node000018" class="edge">
<title>Node1&#45;&gt;Node18</title>
<g id="a_edge18_Node000001_Node000018"><a xlink:title=" ">
<path fill="none" stroke="#63b8ff" d="M470.24,-245.05C501.46,-236.35 554.96,-221.43 592.69,-210.91"/>
<polygon fill="#63b8ff" stroke="#63b8ff" points="593.22,-214.4 601.91,-208.34 591.34,-207.66 593.22,-214.4"/>
</a>
</g>
</g>
<!-- Node3 -->
<g id="Node000003" class="node">
<title>Node3</title>
<g id="a_Node000003"><a xlink:title=" ">
<polygon fill="#e0e0e0" stroke="#999999" points="401.5,-146.62 356.25,-146.62 356.25,-127.38 401.5,-127.38 401.5,-146.62"/>
<text text-anchor="middle" x="378.88" y="-132.18" font-family="Arial" font-size="11.00">cmath</text>
</a>
</g>
</g>
<!-- Node2&#45;&gt;Node3 -->
<g id="edge2_Node000002_Node000003" class="edge">
<title>Node2&#45;&gt;Node3</title>
<g id="a_edge2_Node000002_Node000003"><a xlink:title=" ">
<path fill="none" stroke="#63b8ff" d="M319.51,-187.93C330.09,-179.03 346.59,-165.16 359.5,-154.29"/>
<polygon fill="#63b8ff" stroke="#63b8ff" points="361.58,-157.12 366.99,-148 357.08,-151.76 361.58,-157.12"/>
</a>
</g>
</g>
<!-- Node4 -->
<g id="Node000004" class="node">
<title>Node4</title>
<g id="a_Node000004"><a xlink:title=" ">
<polygon fill="#e0e0e0" stroke="#999999" points="185.88,-146.62 145.88,-146.62 145.88,-127.38 185.88,-127.38 185.88,-146.62"/>
<text text-anchor="middle" x="165.88" y="-132.18" font-family="Arial" font-size="11.00">limits</text>
</a>
</g>
</g>
<!-- Node2&#45;&gt;Node4 -->
<g id="edge3_Node000002_Node000004" class="edge">
<title>Node2&#45;&gt;Node4</title>
<g id="a_edge3_Node000002_Node000004"><a xlink:title=" ">
<path fill="none" stroke="#63b8ff" d="M284.17,-187.89C260.91,-179.26 225.22,-165.62 194.88,-152.25 194.53,-152.1 194.18,-151.94 193.83,-151.79"/>
<polygon fill="#63b8ff" stroke="#63b8ff" points="195.47,-148.69 184.93,-147.62 192.5,-155.03 195.47,-148.69"/>
</a>
</g>
</g>
<!-- Node5 -->
<g id="Node000005" class="node">
<title>Node5</title>
<g id="a_Node000005"><a xlink:title=" ">
<polygon fill="#e0e0e0" stroke="#999999" points="261.88,-146.62 203.88,-146.62 203.88,-127.38 261.88,-127.38 261.88,-146.62"/>
<text text-anchor="middle" x="232.88" y="-132.18" font-family="Arial" font-size="11.00">numbers</text>
</a>
</g>
</g>
<!-- Node2&#45;&gt;Node5 -->
<g id="edge4_Node000002_Node000005" class="edge">
<title>Node2&#45;&gt;Node5</title>
<g id="a_edge4_Node000002_Node000005"><a xlink:title=" ">
<path fill="none" stroke="#63b8ff" d="M297.33,-187.93C285.73,-178.94 267.58,-164.89 253.5,-153.98"/>
<polygon fill="#63b8ff" stroke="#63b8ff" points="255.77,-151.31 245.72,-147.95 251.48,-156.84 255.77,-151.31"/>
</a>
</g>
</g>
<!-- Node6 -->
<g id="Node000006" class="node">
<title>Node6</title>
<g id="a_Node000006"><a xlink:title=" ">
<polygon fill="#e0e0e0" stroke="#999999" points="337.88,-146.62 279.88,-146.62 279.88,-127.38 337.88,-127.38 337.88,-146.62"/>
<text text-anchor="middle" x="308.88" y="-132.18" font-family="Arial" font-size="11.00">compare</text>
</a>
</g>
</g>
<!-- Node2&#45;&gt;Node6 -->
<g id="edge5_Node000002_Node000006" class="edge">
<title>Node2&#45;&gt;Node6</title>
<g id="a_edge5_Node000002_Node000006"><a xlink:title=" ">
<path fill="none" stroke="#63b8ff" d="M308.88,-187.93C308.88,-180.15 308.88,-168.58 308.88,-158.53"/>
<polygon fill="#63b8ff" stroke="#63b8ff" points="312.38,-158.54 308.88,-148.54 305.38,-158.54 312.38,-158.54"/>
</a>
</g>
</g>
<!-- Node7 -->
<g id="Node000007" class="node">
<title>Node7</title>
<g id="a_Node000007"><a xlink:href="../../db/db5/export_8h_source.html" target="_top" xlink:title=" ">
<polygon fill="white" stroke="#666666" points="534.38,-146.62 419.38,-146.62 419.38,-127.38 534.38,-127.38 534.38,-146.62"/>
<text text-anchor="middle" x="476.88" y="-132.18" font-family="Arial" font-size="11.00">floppy/detail/export.h</text>
</a>
</g>
</g>
<!-- Node2&#45;&gt;Node7 -->
<g id="edge6_Node000002_Node000007" class="edge">
<title>Node2&#45;&gt;Node7</title>
<g id="a_edge6_Node000002_Node000007"><a xlink:title=" ">
<path fill="none" stroke="#63b8ff" d="M334.76,-187.8C363,-177.91 408.43,-161.99 440.3,-150.82"/>
<polygon fill="#63b8ff" stroke="#63b8ff" points="441.26,-154.19 449.54,-147.58 438.94,-147.59 441.26,-154.19"/>
</a>
</g>
</g>
<!-- Node10 -->
<g id="Node000010" class="node">
<title>Node10</title>
<g id="a_Node000010"><a xlink:href="../../d9/db1/concepts_8h_source.html" target="_top" xlink:title=" ">
<polygon fill="white" stroke="#666666" points="127.75,-146.62 0,-146.62 0,-127.38 127.75,-127.38 127.75,-146.62"/>
<text text-anchor="middle" x="63.88" y="-132.18" font-family="Arial" font-size="11.00">floppy/detail/concepts.h</text>
</a>
</g>
</g>
<!-- Node2&#45;&gt;Node10 -->
<g id="edge9_Node000002_Node000010" class="edge">
<title>Node2&#45;&gt;Node10</title>
<g id="a_edge9_Node000002_Node000010"><a xlink:title=" ">
<path fill="none" stroke="#63b8ff" d="M271.13,-187.8C228.6,-177.58 159.33,-160.94 112.7,-149.73"/>
<polygon fill="#63b8ff" stroke="#63b8ff" points="113.67,-146.37 103.13,-147.43 112.04,-153.17 113.67,-146.37"/>
</a>
</g>
</g>
<!-- Node8 -->
<g id="Node000008" class="node">
<title>Node8</title>
<g id="a_Node000008"><a xlink:title=" ">
<polygon fill="#e0e0e0" stroke="#999999" points="498,-80.12 455.75,-80.12 455.75,-60.88 498,-60.88 498,-80.12"/>
<text text-anchor="middle" x="476.88" y="-65.67" font-family="Arial" font-size="11.00">string</text>
</a>
</g>
</g>
<!-- Node7&#45;&gt;Node8 -->
<g id="edge7_Node000007_Node000008" class="edge">
<title>Node7&#45;&gt;Node8</title>
<g id="a_edge7_Node000007_Node000008"><a xlink:title=" ">
<path fill="none" stroke="#63b8ff" d="M476.88,-127.03C476.88,-117.98 476.88,-103.7 476.88,-91.88"/>
<polygon fill="#63b8ff" stroke="#63b8ff" points="480.38,-91.91 476.88,-81.91 473.38,-91.91 480.38,-91.91"/>
</a>
</g>
</g>
<!-- Node9 -->
<g id="Node000009" class="node">
<title>Node9</title>
<g id="a_Node000009"><a xlink:title=" ">
<polygon fill="#e0e0e0" stroke="#999999" points="656.88,-80.12 586.88,-80.12 586.88,-60.88 656.88,-60.88 656.88,-80.12"/>
<text text-anchor="middle" x="621.88" y="-65.67" font-family="Arial" font-size="11.00">string_view</text>
</a>
</g>
</g>
<!-- Node7&#45;&gt;Node9 -->
<g id="edge8_Node000007_Node000009" class="edge">
<title>Node7&#45;&gt;Node9</title>
<g id="a_edge8_Node000007_Node000009"><a xlink:title=" ">
<path fill="none" stroke="#63b8ff" d="M497.34,-126.9C521.74,-116.04 562.75,-97.8 591,-85.23"/>
<polygon fill="#63b8ff" stroke="#63b8ff" points="592.41,-88.44 600.13,-81.17 589.57,-82.04 592.41,-88.44"/>
</a>
</g>
</g>
<!-- Node11 -->
<g id="Node000011" class="node">
<title>Node11</title>
<g id="a_Node000011"><a xlink:href="../../df/d63/type__traits_8h_source.html" target="_top" xlink:title=" ">
<polygon fill="white" stroke="#666666" points="112,-85.75 15.75,-85.75 15.75,-55.25 112,-55.25 112,-85.75"/>
<text text-anchor="start" x="23.75" y="-71.3" font-family="Arial" font-size="11.00">floppy/detail/type</text>
<text text-anchor="middle" x="63.88" y="-60.05" font-family="Arial" font-size="11.00">_traits.h</text>
</a>
</g>
</g>
<!-- Node10&#45;&gt;Node11 -->
<g id="edge10_Node000010_Node000011" class="edge">
<title>Node10&#45;&gt;Node11</title>
<g id="a_edge10_Node000010_Node000011"><a xlink:title=" ">
<path fill="none" stroke="#63b8ff" d="M63.88,-127.03C63.88,-119.29 63.88,-107.7 63.88,-97.12"/>
<polygon fill="#63b8ff" stroke="#63b8ff" points="67.38,-97.36 63.88,-87.36 60.38,-97.36 67.38,-97.36"/>
</a>
</g>
</g>
<!-- Node13 -->
<g id="Node000013" class="node">
<title>Node13</title>
<g id="a_Node000013"><a xlink:href="../../d9/d49/types_8h_source.html" target="_top" xlink:title=" ">
<polygon fill="white" stroke="#666666" points="251.12,-80.12 140.62,-80.12 140.62,-60.88 251.12,-60.88 251.12,-80.12"/>
<text text-anchor="middle" x="195.88" y="-65.67" font-family="Arial" font-size="11.00">floppy/detail/types.h</text>
</a>
</g>
</g>
<!-- Node10&#45;&gt;Node13 -->
<g id="edge12_Node000010_Node000013" class="edge">
<title>Node10&#45;&gt;Node13</title>
<g id="a_edge12_Node000010_Node000013"><a xlink:title=" ">
<path fill="none" stroke="#63b8ff" d="M82.51,-126.9C104.52,-116.14 141.39,-98.12 167.09,-85.57"/>
<polygon fill="#63b8ff" stroke="#63b8ff" points="168.53,-88.76 175.98,-81.22 165.46,-82.47 168.53,-88.76"/>
</a>
</g>
</g>
<!-- Node12 -->
<g id="Node000012" class="node">
<title>Node12</title>
<g id="a_Node000012"><a xlink:title=" ">
<polygon fill="#e0e0e0" stroke="#999999" points="96.62,-19.25 31.12,-19.25 31.12,0 96.62,0 96.62,-19.25"/>
<text text-anchor="middle" x="63.88" y="-4.8" font-family="Arial" font-size="11.00">type_traits</text>
</a>
</g>
</g>
<!-- Node11&#45;&gt;Node12 -->
<g id="edge11_Node000011_Node000012" class="edge">
<title>Node11&#45;&gt;Node12</title>
<g id="a_edge11_Node000011_Node000012"><a xlink:title=" ">
<path fill="none" stroke="#63b8ff" d="M63.88,-54.95C63.88,-47.71 63.88,-38.84 63.88,-30.94"/>
<polygon fill="#63b8ff" stroke="#63b8ff" points="67.38,-31.21 63.88,-21.21 60.38,-31.21 67.38,-31.21"/>
</a>
</g>
</g>
<!-- Node13&#45;&gt;Node12 -->
<g id="edge16_Node000013_Node000012" class="edge">
<title>Node13&#45;&gt;Node12</title>
<g id="a_edge16_Node000013_Node000012"><a xlink:title=" ">
<path fill="none" stroke="#63b8ff" d="M175.54,-60.43C153.87,-50.76 119.32,-35.35 94.38,-24.23"/>
<polygon fill="#63b8ff" stroke="#63b8ff" points="95.96,-21.1 85.4,-20.23 93.11,-27.5 95.96,-21.1"/>
</a>
</g>
</g>
<!-- Node14 -->
<g id="Node000014" class="node">
<title>Node14</title>
<g id="a_Node000014"><a xlink:title=" ">
<polygon fill="#e0e0e0" stroke="#999999" points="301.12,-19.25 250.62,-19.25 250.62,0 301.12,0 301.12,-19.25"/>
<text text-anchor="middle" x="275.88" y="-4.8" font-family="Arial" font-size="11.00">cstddef</text>
</a>
</g>
</g>
<!-- Node13&#45;&gt;Node14 -->
<g id="edge13_Node000013_Node000014" class="edge">
<title>Node13&#45;&gt;Node14</title>
<g id="a_edge13_Node000013_Node000014"><a xlink:title=" ">
<path fill="none" stroke="#63b8ff" d="M208.03,-60.56C220.36,-51.48 239.71,-37.24 254.59,-26.29"/>
<polygon fill="#63b8ff" stroke="#63b8ff" points="256.41,-29.29 262.39,-20.55 252.26,-23.66 256.41,-29.29"/>
</a>
</g>
</g>
<!-- Node15 -->
<g id="Node000015" class="node">
<title>Node15</title>
<g id="a_Node000015"><a xlink:title=" ">
<polygon fill="#e0e0e0" stroke="#999999" points="161.25,-19.25 114.5,-19.25 114.5,0 161.25,0 161.25,-19.25"/>
<text text-anchor="middle" x="137.88" y="-4.8" font-family="Arial" font-size="11.00">cstdint</text>
</a>
</g>
</g>
<!-- Node13&#45;&gt;Node15 -->
<g id="edge14_Node000013_Node000015" class="edge">
<title>Node13&#45;&gt;Node15</title>
<g id="a_edge14_Node000013_Node000015"><a xlink:title=" ">
<path fill="none" stroke="#63b8ff" d="M187.07,-60.56C178.46,-51.83 165.16,-38.32 154.55,-27.55"/>
<polygon fill="#63b8ff" stroke="#63b8ff" points="157.34,-25.4 147.83,-20.73 152.35,-30.31 157.34,-25.4"/>
</a>
</g>
</g>
<!-- Node16 -->
<g id="Node000016" class="node">
<title>Node16</title>
<g id="a_Node000016"><a xlink:title=" ">
<polygon fill="#e0e0e0" stroke="#999999" points="232.62,-19.25 179.12,-19.25 179.12,0 232.62,0 232.62,-19.25"/>
<text text-anchor="middle" x="205.88" y="-4.8" font-family="Arial" font-size="11.00">optional</text>
</a>
</g>
</g>
<!-- Node13&#45;&gt;Node16 -->
<g id="edge15_Node000013_Node000016" class="edge">
<title>Node13&#45;&gt;Node16</title>
<g id="a_edge15_Node000013_Node000016"><a xlink:title=" ">
<path fill="none" stroke="#63b8ff" d="M197.39,-60.56C198.73,-52.69 200.72,-40.95 202.44,-30.82"/>
<polygon fill="#63b8ff" stroke="#63b8ff" points="205.86,-31.59 204.09,-21.14 198.96,-30.42 205.86,-31.59"/>
</a>
</g>
</g>
<!-- Node17 -->
<g id="Node000017" class="node">
<title>Node17</title>
<g id="a_Node000017"><a xlink:title=" ">
<polygon fill="#e0e0e0" stroke="#999999" points="635.75,-19.25 562,-19.25 562,0 635.75,0 635.75,-19.25"/>
<text text-anchor="middle" x="598.88" y="-4.8" font-family="Arial" font-size="11.00">fmt/format.h</text>
</a>
</g>
</g>
<!-- Node13&#45;&gt;Node17 -->
<g id="edge17_Node000013_Node000017" class="edge">
<title>Node13&#45;&gt;Node17</title>
<g id="a_edge17_Node000013_Node000017"><a xlink:title=" ">
<path fill="none" stroke="#63b8ff" d="M251.49,-61.38C330.87,-49.78 475.35,-28.67 550.52,-17.69"/>
<polygon fill="#63b8ff" stroke="#63b8ff" points="550.65,-21.21 560.04,-16.3 549.64,-14.28 550.65,-21.21"/>
</a>
</g>
</g>
<!-- Node18&#45;&gt;Node7 -->
<g id="edge22_Node000018_Node000007" class="edge">
<title>Node18&#45;&gt;Node7</title>
<g id="a_edge22_Node000018_Node000007"><a xlink:title=" ">
<path fill="none" stroke="#63b8ff" d="M611.38,-187.8C584.77,-177.95 542.03,-162.13 511.88,-150.96"/>
<polygon fill="#63b8ff" stroke="#63b8ff" points="513.41,-147.8 502.82,-147.61 510.98,-154.36 513.41,-147.8"/>
</a>
</g>
</g>
<!-- Node19 -->
<g id="Node000019" class="node">
<title>Node19</title>
<g id="a_Node000019"><a xlink:title=" ">
<polygon fill="#e0e0e0" stroke="#999999" points="981.38,-146.62 926.38,-146.62 926.38,-127.38 981.38,-127.38 981.38,-146.62"/>
<text text-anchor="middle" x="953.88" y="-132.18" font-family="Arial" font-size="11.00">memory</text>
</a>
</g>
</g>
<!-- Node18&#45;&gt;Node19 -->
<g id="edge19_Node000018_Node000019" class="edge">
<title>Node18&#45;&gt;Node19</title>
<g id="a_edge19_Node000018_Node000019"><a xlink:title=" ">
<path fill="none" stroke="#63b8ff" d="M676.16,-193.31C731.41,-187.79 833.49,-175.33 917.88,-152.25 919.46,-151.82 921.06,-151.34 922.67,-150.83"/>
<polygon fill="#63b8ff" stroke="#63b8ff" points="923.52,-154.24 931.77,-147.59 921.18,-147.64 923.52,-154.24"/>
</a>
</g>
</g>
<!-- Node20 -->
<g id="Node000020" class="node">
<title>Node20</title>
<g id="a_Node000020"><a xlink:title=" ">
<polygon fill="#e0e0e0" stroke="#999999" points="609.5,-146.62 552.25,-146.62 552.25,-127.38 609.5,-127.38 609.5,-146.62"/>
<text text-anchor="middle" x="580.88" y="-132.18" font-family="Arial" font-size="11.00">iostream</text>
</a>
</g>
</g>
<!-- Node18&#45;&gt;Node20 -->
<g id="edge20_Node000018_Node000020" class="edge">
<title>Node18&#45;&gt;Node20</title>
<g id="a_edge20_Node000018_Node000020"><a xlink:title=" ">
<path fill="none" stroke="#63b8ff" d="M627.52,-187.93C619.45,-179.29 607,-165.96 596.99,-155.25"/>
<polygon fill="#63b8ff" stroke="#63b8ff" points="599.72,-153.05 590.34,-148.13 594.61,-157.83 599.72,-153.05"/>
</a>
</g>
</g>
<!-- Node21 -->
<g id="Node000021" class="node">
<title>Node21</title>
<g id="a_Node000021"><a xlink:title=" ">
<polygon fill="#e0e0e0" stroke="#999999" points="756.5,-152.25 627.25,-152.25 627.25,-121.75 756.5,-121.75 756.5,-152.25"/>
<text text-anchor="start" x="635.25" y="-137.8" font-family="Arial" font-size="11.00">experimental/propagate</text>
<text text-anchor="middle" x="691.88" y="-126.55" font-family="Arial" font-size="11.00">_const</text>
</a>
</g>
</g>
<!-- Node18&#45;&gt;Node21 -->
<g id="edge21_Node000018_Node000021" class="edge">
<title>Node18&#45;&gt;Node21</title>
<g id="a_edge21_Node000018_Node000021"><a xlink:title=" ">
<path fill="none" stroke="#63b8ff" d="M644.38,-187.93C651.22,-180.74 661.14,-170.31 670.15,-160.84"/>
<polygon fill="#63b8ff" stroke="#63b8ff" points="672.65,-163.29 677.01,-153.63 667.58,-158.46 672.65,-163.29"/>
</a>
</g>
</g>
<!-- Node22 -->
<g id="Node000022" class="node">
<title>Node22</title>
<g id="a_Node000022"><a xlink:href="../../d6/d45/formatters_8h_source.html" target="_top" xlink:title=" ">
<polygon fill="white" stroke="#666666" points="908.75,-146.62 775,-146.62 775,-127.38 908.75,-127.38 908.75,-146.62"/>
<text text-anchor="middle" x="841.88" y="-132.18" font-family="Arial" font-size="11.00">floppy/detail/formatters.h</text>
</a>
</g>
</g>
<!-- Node18&#45;&gt;Node22 -->
<g id="edge23_Node000018_Node000022" class="edge">
<title>Node18&#45;&gt;Node22</title>
<g id="a_edge23_Node000018_Node000022"><a xlink:title=" ">
<path fill="none" stroke="#63b8ff" d="M667.61,-187.8C702.84,-177.74 759.9,-161.43 799.07,-150.24"/>
<polygon fill="#63b8ff" stroke="#63b8ff" points="799.99,-153.61 808.65,-147.5 798.07,-146.88 799.99,-153.61"/>
</a>
</g>
</g>
<!-- Node22&#45;&gt;Node9 -->
<g id="edge24_Node000022_Node000009" class="edge">
<title>Node22&#45;&gt;Node9</title>
<g id="a_edge24_Node000022_Node000009"><a xlink:title=" ">
<path fill="none" stroke="#63b8ff" d="M810.82,-126.9C772.33,-115.61 706.59,-96.34 663.69,-83.76"/>
<polygon fill="#63b8ff" stroke="#63b8ff" points="664.8,-80.44 654.22,-80.98 662.83,-87.16 664.8,-80.44"/>
</a>
</g>
</g>
<!-- Node22&#45;&gt;Node17 -->
<g id="edge27_Node000022_Node000017" class="edge">
<title>Node22&#45;&gt;Node17</title>
<g id="a_edge27_Node000022_Node000017"><a xlink:title=" ">
<path fill="none" stroke="#63b8ff" d="M846.17,-127.01C853.28,-110.66 865.11,-75.84 847.88,-55.25 822.82,-25.3 712.43,-15.43 647.34,-12.19"/>
<polygon fill="#63b8ff" stroke="#63b8ff" points="647.8,-8.71 637.65,-11.74 647.48,-15.7 647.8,-8.71"/>
</a>
</g>
</g>
<!-- Node23 -->
<g id="Node000023" class="node">
<title>Node23</title>
<g id="a_Node000023"><a xlink:title=" ">
<polygon fill="#e0e0e0" stroke="#999999" points="774,-80.12 719.75,-80.12 719.75,-60.88 774,-60.88 774,-80.12"/>
<text text-anchor="middle" x="746.88" y="-65.67" font-family="Arial" font-size="11.00">sstream</text>
</a>
</g>
</g>
<!-- Node22&#45;&gt;Node23 -->
<g id="edge25_Node000022_Node000023" class="edge">
<title>Node22&#45;&gt;Node23</title>
<g id="a_edge25_Node000022_Node000023"><a xlink:title=" ">
<path fill="none" stroke="#63b8ff" d="M828.67,-127.03C813.44,-116.69 788.14,-99.52 769.71,-87"/>
<polygon fill="#63b8ff" stroke="#63b8ff" points="771.77,-84.17 761.53,-81.45 767.84,-89.96 771.77,-84.17"/>
</a>
</g>
</g>
<!-- Node24 -->
<g id="Node000024" class="node">
<title>Node24</title>
<g id="a_Node000024"><a xlink:title=" ">
<polygon fill="#e0e0e0" stroke="#999999" points="839.25,-80.12 792.5,-80.12 792.5,-60.88 839.25,-60.88 839.25,-80.12"/>
<text text-anchor="middle" x="815.88" y="-65.67" font-family="Arial" font-size="11.00">iosfwd</text>
</a>
</g>
</g>
<!-- Node22&#45;&gt;Node24 -->
<g id="edge26_Node000022_Node000024" class="edge">
<title>Node22&#45;&gt;Node24</title>
<g id="a_edge26_Node000022_Node000024"><a xlink:title=" ">
<path fill="none" stroke="#63b8ff" d="M838.26,-127.03C834.5,-117.69 828.48,-102.78 823.64,-90.76"/>
<polygon fill="#63b8ff" stroke="#63b8ff" points="827.01,-89.76 820.03,-81.8 820.52,-92.38 827.01,-89.76"/>
</a>
</g>
</g>
</g>
</svg>

<g id="navigator" transform="translate(0 0)" fill="#404254">
  <rect fill="#f2f5e9" fill-opacity="0.5" stroke="#606060" stroke-width=".5" x="0" y="0" width="60" height="60"/>
  <use id="zoomplus" xlink:href="#zoomPlus" x="17" y="9" onmousedown="handleZoom(evt,'in')"/>
  <use id="zoomminus" xlink:href="#zoomMin" x="42" y="9" onmousedown="handleZoom(evt,'out')"/>
  <use id="reset" xlink:href="#resetDef" x="30" y="36" onmousedown="handleReset()"/>
   <use id="arrowup" xlink:href="#arrowUp" x="0" y="0" onmousedown="handlePan(0,-1)"/>
  <use id="arrowright" xlink:href="#arrowRight" x="0" y="0" onmousedown="handlePan(1,0)"/>
  <use id="arrowdown" xlink:href="#arrowDown" x="0" y="0" onmousedown="handlePan(0,1)"/>
  <use id="arrowleft" xlink:href="#arrowLeft" x="0" y="0" onmousedown="handlePan(-1,0)"/>
</g>
<svg viewBox="0 0 15 15" width="100%" height="30px" preserveAspectRatio="xMaxYMin meet">
 <g id="arrow_out" transform="scale(0.3 0.3)">
  <a xlink:href="scale_8h__incl_org.svg" target="_base">
   <rect id="button" ry="5" rx="5" y="6" x="6" height="38" width="38"
        fill="#f2f5e9" fill-opacity="0.5" stroke="#606060" stroke-width="1.0"/>
   <path id="arrow"
     d="M 11.500037,31.436501 C 11.940474,20.09759 22.043105,11.32322 32.158766,21.979434 L 37.068811,17.246167 C 37.068811,17.246167 37.088388,32 37.088388,32 L 22.160133,31.978069 C 22.160133,31.978069 26.997745,27.140456 26.997745,27.140456 C 18.528582,18.264221 13.291696,25.230495 11.500037,31.436501 z"
     style="fill:#404040;"/>
  </a>
 </g>
</svg>

<style type='text/css'>
<![CDATA[
[data-mouse-over-selected='false'] { opacity: 0.7; }
[data-mouse-over-selected='true']  { opacity: 1.0; }
]]>
</style>
<script type="application/ecmascript"><![CDATA[
document.addEventListener('DOMContentLoaded', (event) => {
  highlightEdges();
  highlightAdjacentNodes();
});
]]></script>
</svg>
