<?xml version="1.0" encoding="UTF-8" standalone="no"?>
<!DOCTYPE svg PUBLIC "-//W3C//DTD SVG 1.1//EN"
 "http://www.w3.org/Graphics/SVG/1.1/DTD/svg11.dtd">
<!-- Generated by graphviz version 10.0.1 (0)
 -->
<!-- Title: scale.h Pages: 1 -->
<!--zoomable 271 -->

<svg id="main" version="1.1" xmlns="http://www.w3.org/2000/svg" xmlns:xlink="http://www.w3.org/1999/xlink" xml:space="preserve" onload="init(evt)">
<style type="text/css"><![CDATA[
.node, .edge {opacity: 0.7;}
.node.selected, .edge.selected {opacity: 1;}
.edge:hover path { stroke: red; }
.edge:hover polygon { stroke: red; fill: red; }
]]></style>

<defs>
  <circle id="rim" cx="0" cy="0" r="7"/>
  <circle id="rim2" cx="0" cy="0" r="3.5"/>
  <g id="zoomPlus">
    <use xlink:href="#rim" fill="#404040"><set attributeName="fill" to="#808080" begin="zoomplus.mouseover" end="zoomplus.mouseout"/></use>
    <path d="M-4,0h8M0,-4v8" fill="none" stroke="white" stroke-width="1.5" pointer-events="none"/>
  </g>
  <g id="zoomMin">
    <use xlink:href="#rim" fill="#404040"><set attributeName="fill" to="#808080" begin="zoomminus.mouseover" end="zoomminus.mouseout"/></use>
    <path d="M-4,0h8" fill="none" stroke="white" stroke-width="1.5" pointer-events="none"/>
  </g>
  <g id="arrowUp" transform="translate(30 24)">
    <use xlink:href="#rim"/>
    <path pointer-events="none" fill="none" stroke="white" stroke-width="1.5" d="M0,-3.0v7 M-2.5,-0.5L0,-3.0L2.5,-0.5"/>
  </g>
  <g id="arrowRight" transform="rotate(90) translate(36 -43)">
    <use xlink:href="#rim"/>
    <path pointer-events="none" fill="none" stroke="white" stroke-width="1.5" d="M0,-3.0v7 M-2.5,-0.5L0,-3.0L2.5,-0.5"/>
  </g>
  <g id="arrowDown" transform="rotate(180) translate(-30 -48)">
    <use xlink:href="#rim"/>
    <path pointer-events="none" fill="none" stroke="white" stroke-width="1.5" d="M0,-3.0v7 M-2.5,-0.5L0,-3.0L2.5,-0.5"/>
  </g>
  <g id="arrowLeft" transform="rotate(270) translate(-36 17)">
    <use xlink:href="#rim"/>
    <path pointer-events="none" fill="none" stroke="white" stroke-width="1.5" d="M0,-3.0v7 M-2.5,-0.5L0,-3.0L2.5,-0.5"/>
  </g>
  <g id="resetDef">
    <use xlink:href="#rim2" fill="#404040"><set attributeName="fill" to="#808080" begin="reset.mouseover" end="reset.mouseout"/></use>
  </g>
</defs>
<script type="application/ecmascript">
var viewWidth = 914;
var viewHeight = 271;
var sectionId = 'dynsection-0';
</script>
<script type="application/ecmascript" xlink:href="../../svg.min.js"/>
<svg id="graph" class="graph">
<g id="viewport">
<title>scale.h</title>
<!-- Node1 -->
<g id="Node000001" class="node">
<title>Node1</title>
<g id="a_Node000001"><a xlink:title="A scaling factor between two different units of measurement.">
<polygon fill="#999999" stroke="#666666" points="355.88,-262.75 306.12,-262.75 306.12,-243.5 355.88,-243.5 355.88,-262.75"/>
<text text-anchor="middle" x="331" y="-248.3" font-family="Arial" font-size="11.00">scale.h</text>
</a>
</g>
</g>
<!-- Node2 -->
<g id="Node000002" class="node">
<title>Node2</title>
<g id="a_Node000002"><a xlink:href="../../df/db1/math_8h_source.html" target="_top" xlink:title=" ">
<polygon fill="white" stroke="#666666" points="264.5,-207.5 155.5,-207.5 155.5,-188.25 264.5,-188.25 264.5,-207.5"/>
<text text-anchor="middle" x="210" y="-193.05" font-family="Arial" font-size="11.00">floppy/detail/math.h</text>
</a>
</g>
</g>
<!-- Node1&#45;&gt;Node2 -->
<g id="edge1_Node000001_Node000002" class="edge">
<title>Node1&#45;&gt;Node2</title>
<g id="a_edge1_Node000001_Node000002"><a xlink:title=" ">
<path fill="none" stroke="#63b8ff" d="M310.47,-243.09C291.44,-234.72 262.85,-222.13 241.03,-212.53"/>
<polygon fill="#63b8ff" stroke="#63b8ff" points="242.57,-209.39 232.01,-208.56 239.76,-215.79 242.57,-209.39"/>
</a>
</g>
</g>
<!-- Node17 -->
<g id="Node000017" class="node">
<title>Node17</title>
<g id="a_Node000017"><a xlink:href="../../dd/dff/traits_8h_source.html" target="_top" xlink:title=" ">
<polygon fill="white" stroke="#666666" points="580.88,-207.5 501.12,-207.5 501.12,-188.25 580.88,-188.25 580.88,-207.5"/>
<text text-anchor="middle" x="541" y="-193.05" font-family="Arial" font-size="11.00">floppy/traits.h</text>
</a>
</g>
</g>
<!-- Node1&#45;&gt;Node17 -->
<g id="edge17_Node000001_Node000017" class="edge">
<title>Node1&#45;&gt;Node17</title>
<g id="a_edge17_Node000001_Node000017"><a xlink:title=" ">
<path fill="none" stroke="#63b8ff" d="M356.33,-245.7C390.38,-237.07 451.54,-221.56 494.1,-210.77"/>
<polygon fill="#63b8ff" stroke="#63b8ff" points="494.74,-214.22 503.57,-208.37 493.02,-207.43 494.74,-214.22"/>
</a>
</g>
</g>
<!-- Node3 -->
<g id="Node000003" class="node">
<title>Node3</title>
<g id="a_Node000003"><a xlink:title=" ">
<polygon fill="#e0e0e0" stroke="#999999" points="179.62,-146.62 134.38,-146.62 134.38,-127.38 179.62,-127.38 179.62,-146.62"/>
<text text-anchor="middle" x="157" y="-132.18" font-family="Arial" font-size="11.00">cmath</text>
</a>
</g>
</g>
<!-- Node2&#45;&gt;Node3 -->
<g id="edge2_Node000002_Node000003" class="edge">
<title>Node2&#45;&gt;Node3</title>
<g id="a_edge2_Node000002_Node000003"><a xlink:title=" ">
<path fill="none" stroke="#63b8ff" d="M201.95,-187.93C194.25,-179.37 182.41,-166.23 172.82,-155.57"/>
<polygon fill="#63b8ff" stroke="#63b8ff" points="175.43,-153.24 166.14,-148.15 170.23,-157.92 175.43,-153.24"/>
</a>
</g>
</g>
<!-- Node4 -->
<g id="Node000004" class="node">
<title>Node4</title>
<g id="a_Node000004"><a xlink:title=" ">
<polygon fill="#e0e0e0" stroke="#999999" points="40,-146.62 0,-146.62 0,-127.38 40,-127.38 40,-146.62"/>
<text text-anchor="middle" x="20" y="-132.18" font-family="Arial" font-size="11.00">limits</text>
</a>
</g>
</g>
<!-- Node2&#45;&gt;Node4 -->
<g id="edge3_Node000002_Node000004" class="edge">
<title>Node2&#45;&gt;Node4</title>
<g id="a_edge3_Node000002_Node000004"><a xlink:title=" ">
<path fill="none" stroke="#63b8ff" d="M169.3,-187.82C136.34,-179.96 88.99,-167.46 49,-152.25 48.38,-152.01 47.75,-151.77 47.12,-151.51"/>
<polygon fill="#63b8ff" stroke="#63b8ff" points="48.88,-148.47 38.32,-147.6 46.03,-154.86 48.88,-148.47"/>
</a>
</g>
</g>
<!-- Node5 -->
<g id="Node000005" class="node">
<title>Node5</title>
<g id="a_Node000005"><a xlink:title=" ">
<polygon fill="#e0e0e0" stroke="#999999" points="116,-146.62 58,-146.62 58,-127.38 116,-127.38 116,-146.62"/>
<text text-anchor="middle" x="87" y="-132.18" font-family="Arial" font-size="11.00">numbers</text>
</a>
</g>
</g>
<!-- Node2&#45;&gt;Node5 -->
<g id="edge4_Node000002_Node000005" class="edge">
<title>Node2&#45;&gt;Node5</title>
<g id="a_edge4_Node000002_Node000005"><a xlink:title=" ">
<path fill="none" stroke="#63b8ff" d="M191.05,-187.8C171.04,-178.23 139.24,-163 116.05,-151.91"/>
<polygon fill="#63b8ff" stroke="#63b8ff" points="117.67,-148.8 107.13,-147.64 114.64,-155.11 117.67,-148.8"/>
</a>
</g>
</g>
<!-- Node6 -->
<g id="Node000006" class="node">
<title>Node6</title>
<g id="a_Node000006"><a xlink:href="../../db/db5/export_8h_source.html" target="_top" xlink:title=" ">
<polygon fill="white" stroke="#666666" points="458.5,-146.62 343.5,-146.62 343.5,-127.38 458.5,-127.38 458.5,-146.62"/>
<text text-anchor="middle" x="401" y="-132.18" font-family="Arial" font-size="11.00">floppy/detail/export.h</text>
</a>
</g>
</g>
<!-- Node2&#45;&gt;Node6 -->
<g id="edge5_Node000002_Node000006" class="edge">
<title>Node2&#45;&gt;Node6</title>
<g id="a_edge5_Node000002_Node000006"><a xlink:title=" ">
<path fill="none" stroke="#63b8ff" d="M239.43,-187.8C271.95,-177.78 324.54,-161.57 360.84,-150.38"/>
<polygon fill="#63b8ff" stroke="#63b8ff" points="361.57,-153.82 370.1,-147.53 359.51,-147.13 361.57,-153.82"/>
</a>
</g>
</g>
<!-- Node9 -->
<g id="Node000009" class="node">
<title>Node9</title>
<g id="a_Node000009"><a xlink:href="../../d9/db1/concepts_8h_source.html" target="_top" xlink:title=" ">
<polygon fill="white" stroke="#666666" points="325.88,-146.62 198.12,-146.62 198.12,-127.38 325.88,-127.38 325.88,-146.62"/>
<text text-anchor="middle" x="262" y="-132.18" font-family="Arial" font-size="11.00">floppy/detail/concepts.h</text>
</a>
</g>
</g>
<!-- Node2&#45;&gt;Node9 -->
<g id="edge8_Node000002_Node000009" class="edge">
<title>Node2&#45;&gt;Node9</title>
<g id="a_edge8_Node000002_Node000009"><a xlink:title=" ">
<path fill="none" stroke="#63b8ff" d="M217.9,-187.93C225.46,-179.37 237.07,-166.23 246.48,-155.57"/>
<polygon fill="#63b8ff" stroke="#63b8ff" points="249.03,-157.97 253.03,-148.16 243.78,-153.34 249.03,-157.97"/>
</a>
</g>
</g>
<!-- Node7 -->
<g id="Node000007" class="node">
<title>Node7</title>
<g id="a_Node000007"><a xlink:title=" ">
<polygon fill="#e0e0e0" stroke="#999999" points="460.12,-80.12 417.88,-80.12 417.88,-60.88 460.12,-60.88 460.12,-80.12"/>
<text text-anchor="middle" x="439" y="-65.67" font-family="Arial" font-size="11.00">string</text>
</a>
</g>
</g>
<!-- Node6&#45;&gt;Node7 -->
<g id="edge6_Node000006_Node000007" class="edge">
<title>Node6&#45;&gt;Node7</title>
<g id="a_edge6_Node000006_Node000007"><a xlink:title=" ">
<path fill="none" stroke="#63b8ff" d="M406.28,-127.03C411.9,-117.5 420.94,-102.16 428.09,-90.02"/>
<polygon fill="#63b8ff" stroke="#63b8ff" points="430.93,-92.09 432.99,-81.7 424.9,-88.54 430.93,-92.09"/>
</a>
</g>
</g>
<!-- Node8 -->
<g id="Node000008" class="node">
<title>Node8</title>
<g id="a_Node000008"><a xlink:title=" ">
<polygon fill="#e0e0e0" stroke="#999999" points="617,-80.12 547,-80.12 547,-60.88 617,-60.88 617,-80.12"/>
<text text-anchor="middle" x="582" y="-65.67" font-family="Arial" font-size="11.00">string_view</text>
</a>
</g>
</g>
<!-- Node6&#45;&gt;Node8 -->
<g id="edge7_Node000006_Node000008" class="edge">
<title>Node6&#45;&gt;Node8</title>
<g id="a_edge7_Node000006_Node000008"><a xlink:title=" ">
<path fill="none" stroke="#63b8ff" d="M426.55,-126.9C457.68,-115.8 510.47,-96.99 545.78,-84.41"/>
<polygon fill="#63b8ff" stroke="#63b8ff" points="546.91,-87.72 555.16,-81.07 544.56,-81.13 546.91,-87.72"/>
</a>
</g>
</g>
<!-- Node10 -->
<g id="Node000010" class="node">
<title>Node10</title>
<g id="a_Node000010"><a xlink:href="../../df/d63/type__traits_8h_source.html" target="_top" xlink:title=" ">
<polygon fill="white" stroke="#666666" points="272.12,-85.75 175.88,-85.75 175.88,-55.25 272.12,-55.25 272.12,-85.75"/>
<text text-anchor="start" x="183.88" y="-71.3" font-family="Arial" font-size="11.00">floppy/detail/type</text>
<text text-anchor="middle" x="224" y="-60.05" font-family="Arial" font-size="11.00">_traits.h</text>
</a>
</g>
</g>
<!-- Node9&#45;&gt;Node10 -->
<g id="edge9_Node000009_Node000010" class="edge">
<title>Node9&#45;&gt;Node10</title>
<g id="a_edge9_Node000009_Node000010"><a xlink:title=" ">
<path fill="none" stroke="#63b8ff" d="M256.72,-127.03C251.96,-118.95 244.74,-106.7 238.29,-95.76"/>
<polygon fill="#63b8ff" stroke="#63b8ff" points="241.31,-93.99 233.22,-87.15 235.28,-97.54 241.31,-93.99"/>
</a>
</g>
</g>
<!-- Node12 -->
<g id="Node000012" class="node">
<title>Node12</title>
<g id="a_Node000012"><a xlink:href="../../d9/d49/types_8h_source.html" target="_top" xlink:title=" ">
<polygon fill="white" stroke="#666666" points="400.25,-80.12 289.75,-80.12 289.75,-60.88 400.25,-60.88 400.25,-80.12"/>
<text text-anchor="middle" x="345" y="-65.67" font-family="Arial" font-size="11.00">floppy/detail/types.h</text>
</a>
</g>
</g>
<!-- Node9&#45;&gt;Node12 -->
<g id="edge11_Node000009_Node000012" class="edge">
<title>Node9&#45;&gt;Node12</title>
<g id="a_edge11_Node000009_Node000012"><a xlink:title=" ">
<path fill="none" stroke="#63b8ff" d="M273.54,-127.03C286.72,-116.79 308.54,-99.84 324.6,-87.35"/>
<polygon fill="#63b8ff" stroke="#63b8ff" points="326.35,-90.43 332.09,-81.53 322.05,-84.9 326.35,-90.43"/>
</a>
</g>
</g>
<!-- Node11 -->
<g id="Node000011" class="node">
<title>Node11</title>
<g id="a_Node000011"><a xlink:title=" ">
<polygon fill="#e0e0e0" stroke="#999999" points="256.75,-19.25 191.25,-19.25 191.25,0 256.75,0 256.75,-19.25"/>
<text text-anchor="middle" x="224" y="-4.8" font-family="Arial" font-size="11.00">type_traits</text>
</a>
</g>
</g>
<!-- Node10&#45;&gt;Node11 -->
<g id="edge10_Node000010_Node000011" class="edge">
<title>Node10&#45;&gt;Node11</title>
<g id="a_edge10_Node000010_Node000011"><a xlink:title=" ">
<path fill="none" stroke="#63b8ff" d="M224,-54.95C224,-47.71 224,-38.84 224,-30.94"/>
<polygon fill="#63b8ff" stroke="#63b8ff" points="227.5,-31.21 224,-21.21 220.5,-31.21 227.5,-31.21"/>
</a>
</g>
</g>
<!-- Node12&#45;&gt;Node11 -->
<g id="edge15_Node000012_Node000011" class="edge">
<title>Node12&#45;&gt;Node11</title>
<g id="a_edge15_Node000012_Node000011"><a xlink:title=" ">
<path fill="none" stroke="#63b8ff" d="M326.36,-60.43C306.67,-50.85 275.39,-35.63 252.58,-24.53"/>
<polygon fill="#63b8ff" stroke="#63b8ff" points="254.35,-21.5 243.82,-20.27 251.29,-27.79 254.35,-21.5"/>
</a>
</g>
</g>
<!-- Node13 -->
<g id="Node000013" class="node">
<title>Node13</title>
<g id="a_Node000013"><a xlink:title=" ">
<polygon fill="#e0e0e0" stroke="#999999" points="461.25,-19.25 410.75,-19.25 410.75,0 461.25,0 461.25,-19.25"/>
<text text-anchor="middle" x="436" y="-4.8" font-family="Arial" font-size="11.00">cstddef</text>
</a>
</g>
</g>
<!-- Node12&#45;&gt;Node13 -->
<g id="edge12_Node000012_Node000013" class="edge">
<title>Node12&#45;&gt;Node13</title>
<g id="a_edge12_Node000012_Node000013"><a xlink:title=" ">
<path fill="none" stroke="#63b8ff" d="M358.82,-60.56C373.12,-51.31 395.7,-36.7 412.75,-25.67"/>
<polygon fill="#63b8ff" stroke="#63b8ff" points="414.28,-28.84 420.78,-20.47 410.48,-22.97 414.28,-28.84"/>
</a>
</g>
</g>
<!-- Node14 -->
<g id="Node000014" class="node">
<title>Node14</title>
<g id="a_Node000014"><a xlink:title=" ">
<polygon fill="#e0e0e0" stroke="#999999" points="321.38,-19.25 274.62,-19.25 274.62,0 321.38,0 321.38,-19.25"/>
<text text-anchor="middle" x="298" y="-4.8" font-family="Arial" font-size="11.00">cstdint</text>
</a>
</g>
</g>
<!-- Node12&#45;&gt;Node14 -->
<g id="edge13_Node000012_Node000014" class="edge">
<title>Node12&#45;&gt;Node14</title>
<g id="a_edge13_Node000012_Node000014"><a xlink:title=" ">
<path fill="none" stroke="#63b8ff" d="M337.86,-60.56C331.1,-52.09 320.75,-39.12 312.29,-28.52"/>
<polygon fill="#63b8ff" stroke="#63b8ff" points="315.12,-26.47 306.15,-20.83 309.65,-30.83 315.12,-26.47"/>
</a>
</g>
</g>
<!-- Node15 -->
<g id="Node000015" class="node">
<title>Node15</title>
<g id="a_Node000015"><a xlink:title=" ">
<polygon fill="#e0e0e0" stroke="#999999" points="392.75,-19.25 339.25,-19.25 339.25,0 392.75,0 392.75,-19.25"/>
<text text-anchor="middle" x="366" y="-4.8" font-family="Arial" font-size="11.00">optional</text>
</a>
</g>
</g>
<!-- Node12&#45;&gt;Node15 -->
<g id="edge14_Node000012_Node000015" class="edge">
<title>Node12&#45;&gt;Node15</title>
<g id="a_edge14_Node000012_Node000015"><a xlink:title=" ">
<path fill="none" stroke="#63b8ff" d="M348.19,-60.56C351.03,-52.6 355.28,-40.69 358.91,-30.49"/>
<polygon fill="#63b8ff" stroke="#63b8ff" points="362.21,-31.67 362.27,-21.08 355.62,-29.32 362.21,-31.67"/>
</a>
</g>
</g>
<!-- Node16 -->
<g id="Node000016" class="node">
<title>Node16</title>
<g id="a_Node000016"><a xlink:title=" ">
<polygon fill="#e0e0e0" stroke="#999999" points="732.88,-19.25 659.12,-19.25 659.12,0 732.88,0 732.88,-19.25"/>
<text text-anchor="middle" x="696" y="-4.8" font-family="Arial" font-size="11.00">fmt/format.h</text>
</a>
</g>
</g>
<!-- Node12&#45;&gt;Node16 -->
<g id="edge16_Node000012_Node000016" class="edge">
<title>Node12&#45;&gt;Node16</title>
<g id="a_edge16_Node000012_Node000016"><a xlink:title=" ">
<path fill="none" stroke="#63b8ff" d="M383.84,-60.43C392.12,-58.61 400.83,-56.79 409,-55.25 492.44,-39.49 590.29,-25.16 647.49,-17.19"/>
<polygon fill="#63b8ff" stroke="#63b8ff" points="647.79,-20.68 657.22,-15.84 646.83,-13.75 647.79,-20.68"/>
</a>
</g>
</g>
<!-- Node17&#45;&gt;Node6 -->
<g id="edge21_Node000017_Node000006" class="edge">
<title>Node17&#45;&gt;Node6</title>
<g id="a_edge21_Node000017_Node000006"><a xlink:title=" ">
<path fill="none" stroke="#63b8ff" d="M519.43,-187.8C496.24,-178.05 459.14,-162.45 432.65,-151.31"/>
<polygon fill="#63b8ff" stroke="#63b8ff" points="434.33,-148.22 423.76,-147.57 431.62,-154.67 434.33,-148.22"/>
</a>
</g>
</g>
<!-- Node18 -->
<g id="Node000018" class="node">
<title>Node18</title>
<g id="a_Node000018"><a xlink:title=" ">
<polygon fill="#e0e0e0" stroke="#999999" points="531.5,-146.62 476.5,-146.62 476.5,-127.38 531.5,-127.38 531.5,-146.62"/>
<text text-anchor="middle" x="504" y="-132.18" font-family="Arial" font-size="11.00">memory</text>
</a>
</g>
</g>
<!-- Node17&#45;&gt;Node18 -->
<g id="edge18_Node000017_Node000018" class="edge">
<title>Node17&#45;&gt;Node18</title>
<g id="a_edge18_Node000017_Node000018"><a xlink:title=" ">
<path fill="none" stroke="#63b8ff" d="M535.38,-187.93C530.16,-179.63 522.24,-167.02 515.66,-156.55"/>
<polygon fill="#63b8ff" stroke="#63b8ff" points="518.76,-154.91 510.48,-148.31 512.84,-158.64 518.76,-154.91"/>
</a>
</g>
</g>
<!-- Node19 -->
<g id="Node000019" class="node">
<title>Node19</title>
<g id="a_Node000019"><a xlink:title=" ">
<polygon fill="#e0e0e0" stroke="#999999" points="606.62,-146.62 549.38,-146.62 549.38,-127.38 606.62,-127.38 606.62,-146.62"/>
<text text-anchor="middle" x="578" y="-132.18" font-family="Arial" font-size="11.00">iostream</text>
</a>
</g>
</g>
<!-- Node17&#45;&gt;Node19 -->
<g id="edge19_Node000017_Node000019" class="edge">
<title>Node17&#45;&gt;Node19</title>
<g id="a_edge19_Node000017_Node000019"><a xlink:title=" ">
<path fill="none" stroke="#63b8ff" d="M546.62,-187.93C551.84,-179.63 559.76,-167.02 566.34,-156.55"/>
<polygon fill="#63b8ff" stroke="#63b8ff" points="569.16,-158.64 571.52,-148.31 563.24,-154.91 569.16,-158.64"/>
</a>
</g>
</g>
<!-- Node20 -->
<g id="Node000020" class="node">
<title>Node20</title>
<g id="a_Node000020"><a xlink:title=" ">
<polygon fill="#e0e0e0" stroke="#999999" points="753.62,-152.25 624.38,-152.25 624.38,-121.75 753.62,-121.75 753.62,-152.25"/>
<text text-anchor="start" x="632.38" y="-137.8" font-family="Arial" font-size="11.00">experimental/propagate</text>
<text text-anchor="middle" x="689" y="-126.55" font-family="Arial" font-size="11.00">_const</text>
</a>
</g>
</g>
<!-- Node17&#45;&gt;Node20 -->
<g id="edge20_Node000017_Node000020" class="edge">
<title>Node17&#45;&gt;Node20</title>
<g id="a_edge20_Node000017_Node000020"><a xlink:title=" ">
<path fill="none" stroke="#63b8ff" d="M563.8,-187.8C584.47,-179.58 615.59,-167.2 641.63,-156.85"/>
<polygon fill="#63b8ff" stroke="#63b8ff" points="642.66,-160.2 650.65,-153.25 640.07,-153.7 642.66,-160.2"/>
</a>
</g>
</g>
<!-- Node21 -->
<g id="Node000021" class="node">
<title>Node21</title>
<g id="a_Node000021"><a xlink:href="../../d6/d45/formatters_8h_source.html" target="_top" xlink:title=" ">
<polygon fill="white" stroke="#666666" points="905.88,-146.62 772.12,-146.62 772.12,-127.38 905.88,-127.38 905.88,-146.62"/>
<text text-anchor="middle" x="839" y="-132.18" font-family="Arial" font-size="11.00">floppy/detail/formatters.h</text>
</a>
</g>
</g>
<!-- Node17&#45;&gt;Node21 -->
<g id="edge22_Node000017_Node000021" class="edge">
<title>Node17&#45;&gt;Node21</title>
<g id="a_edge22_Node000017_Node000021"><a xlink:title=" ">
<path fill="none" stroke="#63b8ff" d="M581.19,-188.93C632.9,-178.72 723.07,-160.9 781.89,-149.28"/>
<polygon fill="#63b8ff" stroke="#63b8ff" points="782.24,-152.78 791.37,-147.41 780.88,-145.91 782.24,-152.78"/>
</a>
</g>
</g>
<!-- Node21&#45;&gt;Node8 -->
<g id="edge23_Node000021_Node000008" class="edge">
<title>Node21&#45;&gt;Node8</title>
<g id="a_edge23_Node000021_Node000008"><a xlink:title=" ">
<path fill="none" stroke="#63b8ff" d="M802.72,-126.9C757.03,-115.43 678.44,-95.7 628.41,-83.15"/>
<polygon fill="#63b8ff" stroke="#63b8ff" points="629.29,-79.76 618.74,-80.72 627.58,-86.55 629.29,-79.76"/>
</a>
</g>
</g>
<!-- Node21&#45;&gt;Node16 -->
<g id="edge26_Node000021_Node000016" class="edge">
<title>Node21&#45;&gt;Node16</title>
<g id="a_edge26_Node000021_Node000016"><a xlink:title=" ">
<path fill="none" stroke="#63b8ff" d="M843.17,-126.94C849.92,-110.78 860.95,-76.68 845,-55.25 822.04,-24.4 778.52,-14.07 744.42,-10.97"/>
<polygon fill="#63b8ff" stroke="#63b8ff" points="744.99,-7.5 734.76,-10.28 744.49,-14.48 744.99,-7.5"/>
</a>
</g>
</g>
<!-- Node22 -->
<g id="Node000022" class="node">
<title>Node22</title>
<g id="a_Node000022"><a xlink:title=" ">
<polygon fill="#e0e0e0" stroke="#999999" points="771.12,-80.12 716.88,-80.12 716.88,-60.88 771.12,-60.88 771.12,-80.12"/>
<text text-anchor="middle" x="744" y="-65.67" font-family="Arial" font-size="11.00">sstream</text>
</a>
</g>
</g>
<!-- Node21&#45;&gt;Node22 -->
<g id="edge24_Node000021_Node000022" class="edge">
<title>Node21&#45;&gt;Node22</title>
<g id="a_edge24_Node000021_Node000022"><a xlink:title=" ">
<path fill="none" stroke="#63b8ff" d="M825.79,-127.03C810.56,-116.69 785.27,-99.52 766.83,-87"/>
<polygon fill="#63b8ff" stroke="#63b8ff" points="768.89,-84.17 758.66,-81.45 764.96,-89.96 768.89,-84.17"/>
</a>
</g>
</g>
<!-- Node23 -->
<g id="Node000023" class="node">
<title>Node23</title>
<g id="a_Node000023"><a xlink:title=" ">
<polygon fill="#e0e0e0" stroke="#999999" points="836.38,-80.12 789.62,-80.12 789.62,-60.88 836.38,-60.88 836.38,-80.12"/>
<text text-anchor="middle" x="813" y="-65.67" font-family="Arial" font-size="11.00">iosfwd</text>
</a>
</g>
</g>
<!-- Node21&#45;&gt;Node23 -->
<g id="edge25_Node000021_Node000023" class="edge">
<title>Node21&#45;&gt;Node23</title>
<g id="a_edge25_Node000021_Node000023"><a xlink:title=" ">
<path fill="none" stroke="#63b8ff" d="M835.38,-127.03C831.62,-117.69 825.61,-102.78 820.76,-90.76"/>
<polygon fill="#63b8ff" stroke="#63b8ff" points="824.14,-89.76 817.15,-81.8 817.64,-92.38 824.14,-89.76"/>
</a>
</g>
</g>
</g>
</svg>

<g id="navigator" transform="translate(0 0)" fill="#404254">
  <rect fill="#f2f5e9" fill-opacity="0.5" stroke="#606060" stroke-width=".5" x="0" y="0" width="60" height="60"/>
  <use id="zoomplus" xlink:href="#zoomPlus" x="17" y="9" onmousedown="handleZoom(evt,'in')"/>
  <use id="zoomminus" xlink:href="#zoomMin" x="42" y="9" onmousedown="handleZoom(evt,'out')"/>
  <use id="reset" xlink:href="#resetDef" x="30" y="36" onmousedown="handleReset()"/>
   <use id="arrowup" xlink:href="#arrowUp" x="0" y="0" onmousedown="handlePan(0,-1)"/>
  <use id="arrowright" xlink:href="#arrowRight" x="0" y="0" onmousedown="handlePan(1,0)"/>
  <use id="arrowdown" xlink:href="#arrowDown" x="0" y="0" onmousedown="handlePan(0,1)"/>
  <use id="arrowleft" xlink:href="#arrowLeft" x="0" y="0" onmousedown="handlePan(-1,0)"/>
</g>
<svg viewBox="0 0 15 15" width="100%" height="30px" preserveAspectRatio="xMaxYMin meet">
 <g id="arrow_out" transform="scale(0.3 0.3)">
  <a xlink:href="scale_8h__incl_org.svg" target="_base">
   <rect id="button" ry="5" rx="5" y="6" x="6" height="38" width="38"
        fill="#f2f5e9" fill-opacity="0.5" stroke="#606060" stroke-width="1.0"/>
   <path id="arrow"
     d="M 11.500037,31.436501 C 11.940474,20.09759 22.043105,11.32322 32.158766,21.979434 L 37.068811,17.246167 C 37.068811,17.246167 37.088388,32 37.088388,32 L 22.160133,31.978069 C 22.160133,31.978069 26.997745,27.140456 26.997745,27.140456 C 18.528582,18.264221 13.291696,25.230495 11.500037,31.436501 z"
     style="fill:#404040;"/>
  </a>
 </g>
</svg>

<style type='text/css'>
<![CDATA[
[data-mouse-over-selected='false'] { opacity: 0.7; }
[data-mouse-over-selected='true']  { opacity: 1.0; }
]]>
</style>
<script type="application/ecmascript"><![CDATA[
document.addEventListener('DOMContentLoaded', (event) => {
  highlightEdges();
  highlightAdjacentNodes();
});
]]></script>
</svg>
