<?xml version="1.0" encoding="UTF-8" standalone="no"?>
<!DOCTYPE svg PUBLIC "-//W3C//DTD SVG 1.1//EN"
 "http://www.w3.org/Graphics/SVG/1.1/DTD/svg11.dtd">
<!-- Generated by graphviz version 10.0.1 (0)
 -->
<!-- Title: formattable_base&lt; C &gt; Pages: 1 -->
<svg width="417pt" height="299pt"
 viewBox="0.00 0.00 416.75 298.88" xmlns="http://www.w3.org/2000/svg" xmlns:xlink="http://www.w3.org/1999/xlink">
<g id="graph0" class="graph" transform="scale(1 1) rotate(0) translate(4 294.88)">
<title>formattable_base&lt; C &gt;</title>
<!-- Node1 -->
<g id="Node000001" class="node">
<title>Node1</title>
<g id="a_Node000001"><a xlink:title="Interface, providing to_string method.">
<polygon fill="#999999" stroke="#666666" points="127,-171.25 0,-171.25 0,-152 127,-152 127,-171.25"/>
<text text-anchor="middle" x="63.5" y="-156.8" font-family="Arial" font-size="11.00">formattable_base&lt; C &gt;</text>
</a>
</g>
</g>
<!-- Node2 -->
<g id="Node000002" class="node">
<title>Node2</title>
<g id="a_Node000002"><a xlink:href="../../db/d59/structfloppy_1_1traits_1_1formattable.html" target="_top" xlink:title=" ">
<polygon fill="white" stroke="#666666" points="273.5,-290.88 167.5,-290.88 167.5,-260.38 273.5,-260.38 273.5,-290.88"/>
<text text-anchor="start" x="175.5" y="-276.43" font-family="Arial" font-size="11.00">formattable&lt; angle</text>
<text text-anchor="middle" x="220.5" y="-265.18" font-family="Arial" font-size="11.00">&lt; f32 &gt;, char &gt;</text>
</a>
</g>
</g>
<!-- Node1&#45;&gt;Node2 -->
<g id="edge1_Node000001_Node000002" class="edge">
<title>Node1&#45;&gt;Node2</title>
<g id="a_edge1_Node000001_Node000002"><a xlink:title=" ">
<path fill="none" stroke="#63b8ff" d="M81.13,-180.18C99.59,-199.92 131.03,-231.09 163,-251.62 167.66,-254.62 172.76,-257.39 177.93,-259.9"/>
<polygon fill="#63b8ff" stroke="#63b8ff" points="83.75,-177.85 74.41,-172.86 78.59,-182.59 83.75,-177.85"/>
</a>
</g>
</g>
<!-- Node3 -->
<g id="Node000003" class="node">
<title>Node3</title>
<g id="a_Node000003"><a xlink:href="../../db/d59/structfloppy_1_1traits_1_1formattable.html" target="_top" xlink:title=" ">
<polygon fill="white" stroke="#666666" points="275,-242.5 166,-242.5 166,-200.75 275,-200.75 275,-242.5"/>
<text text-anchor="start" x="174" y="-228.05" font-family="Arial" font-size="11.00">formattable&lt; length</text>
<text text-anchor="start" x="174" y="-216.8" font-family="Arial" font-size="11.00">&lt; default_unit, f32</text>
<text text-anchor="middle" x="220.5" y="-205.55" font-family="Arial" font-size="11.00"> &gt;, char &gt;</text>
</a>
</g>
</g>
<!-- Node1&#45;&gt;Node3 -->
<g id="edge2_Node000001_Node000003" class="edge">
<title>Node1&#45;&gt;Node3</title>
<g id="a_edge2_Node000001_Node000003"><a xlink:title=" ">
<path fill="none" stroke="#63b8ff" d="M100.93,-175.73C120.25,-183.21 144.37,-192.54 165.8,-200.84"/>
<polygon fill="#63b8ff" stroke="#63b8ff" points="102.44,-172.56 91.85,-172.21 99.92,-179.09 102.44,-172.56"/>
</a>
</g>
</g>
<!-- Node4 -->
<g id="Node000004" class="node">
<title>Node4</title>
<g id="a_Node000004"><a xlink:href="../../db/d59/structfloppy_1_1traits_1_1formattable.html" target="_top" xlink:title=" ">
<polygon fill="white" stroke="#666666" points="278,-182.5 163,-182.5 163,-140.75 278,-140.75 278,-182.5"/>
<text text-anchor="start" x="171" y="-168.05" font-family="Arial" font-size="11.00">formattable&lt; point2d</text>
<text text-anchor="start" x="171" y="-156.8" font-family="Arial" font-size="11.00">&lt; default_unit, f32 &gt;</text>
<text text-anchor="middle" x="220.5" y="-145.55" font-family="Arial" font-size="11.00">, char &gt;</text>
</a>
</g>
</g>
<!-- Node1&#45;&gt;Node4 -->
<g id="edge3_Node000001_Node000004" class="edge">
<title>Node1&#45;&gt;Node4</title>
<g id="a_edge3_Node000001_Node000004"><a xlink:title=" ">
<path fill="none" stroke="#63b8ff" d="M138.51,-161.62C146.63,-161.62 154.81,-161.62 162.67,-161.62"/>
<polygon fill="#63b8ff" stroke="#63b8ff" points="138.61,-158.13 128.61,-161.63 138.61,-165.13 138.61,-158.13"/>
</a>
</g>
</g>
<!-- Node5 -->
<g id="Node000005" class="node">
<title>Node5</title>
<g id="a_Node000005"><a xlink:href="../../db/d59/structfloppy_1_1traits_1_1formattable.html" target="_top" xlink:title=" ">
<polygon fill="white" stroke="#666666" points="278,-122.88 163,-122.88 163,-92.38 278,-92.38 278,-122.88"/>
<text text-anchor="start" x="171" y="-108.42" font-family="Arial" font-size="11.00">formattable&lt; scale</text>
<text text-anchor="middle" x="220.5" y="-97.17" font-family="Arial" font-size="11.00">&lt; S, D, f32 &gt;, char &gt;</text>
</a>
</g>
</g>
<!-- Node1&#45;&gt;Node5 -->
<g id="edge4_Node000001_Node000005" class="edge">
<title>Node1&#45;&gt;Node5</title>
<g id="a_edge4_Node000001_Node000005"><a xlink:title=" ">
<path fill="none" stroke="#63b8ff" d="M104,-147.86C125.48,-140.38 152.13,-131.1 174.42,-123.33"/>
<polygon fill="#63b8ff" stroke="#63b8ff" points="103.01,-144.5 94.72,-151.1 105.32,-151.11 103.01,-144.5"/>
</a>
</g>
</g>
<!-- Node6 -->
<g id="Node000006" class="node">
<title>Node6</title>
<g id="a_Node000006"><a xlink:href="../../db/d59/structfloppy_1_1traits_1_1formattable.html" target="_top" xlink:title="Allows type to be converted to string and printed via standard streams or fmt.">
<polygon fill="white" stroke="#666666" points="275.38,-74.25 165.62,-74.25 165.62,-55 275.38,-55 275.38,-74.25"/>
<text text-anchor="middle" x="220.5" y="-59.8" font-family="Arial" font-size="11.00">formattable&lt; T, C &gt;</text>
</a>
</g>
</g>
<!-- Node1&#45;&gt;Node6 -->
<g id="edge5_Node000001_Node000006" class="edge">
<title>Node1&#45;&gt;Node6</title>
<g id="a_edge5_Node000001_Node000006"><a xlink:title=" ">
<path fill="none" stroke="#63b8ff" d="M82.78,-143.92C101.58,-126.52 132.35,-100.25 163,-83.62 169.37,-80.17 176.48,-77.18 183.45,-74.67"/>
<polygon fill="#63b8ff" stroke="#63b8ff" points="80.54,-141.21 75.67,-150.62 85.35,-146.31 80.54,-141.21"/>
</a>
</g>
</g>
<!-- Node7 -->
<g id="Node000007" class="node">
<title>Node7</title>
<g id="a_Node000007"><a xlink:href="../../de/d4d/structfloppy_1_1math_1_1angle.html" target="_top" xlink:title="Newtype describing an angle.">
<polygon fill="white" stroke="#666666" points="395.62,-130.25 327.12,-130.25 327.12,-111 395.62,-111 395.62,-130.25"/>
<text text-anchor="middle" x="361.38" y="-115.8" font-family="Arial" font-size="11.00">angle&lt; T &gt;</text>
</a>
</g>
</g>
<!-- Node6&#45;&gt;Node7 -->
<g id="edge6_Node000006_Node000007" class="edge">
<title>Node6&#45;&gt;Node7</title>
<g id="a_edge6_Node000006_Node000007"><a xlink:title=" ">
<path fill="none" stroke="#63b8ff" d="M265.2,-78.53C269.56,-80.16 273.89,-81.86 278,-83.62 294.63,-90.75 297.54,-95.12 314,-102.62 320.13,-105.42 326.83,-108.18 333.18,-110.67"/>
<polygon fill="#63b8ff" stroke="#63b8ff" points="266.42,-75.25 255.83,-75.2 264.08,-81.85 266.42,-75.25"/>
</a>
</g>
</g>
<!-- Node8 -->
<g id="Node000008" class="node">
<title>Node8</title>
<g id="a_Node000008"><a xlink:href="../../dd/dd1/classfloppy_1_1math_1_1length.html" target="_top" xlink:title="A one&#45;dimensional distance with associated unit of measurement.">
<polygon fill="white" stroke="#666666" points="403.88,-93.25 318.88,-93.25 318.88,-74 403.88,-74 403.88,-93.25"/>
<text text-anchor="middle" x="361.38" y="-78.8" font-family="Arial" font-size="11.00">length&lt; U, T &gt;</text>
</a>
</g>
</g>
<!-- Node6&#45;&gt;Node8 -->
<g id="edge7_Node000006_Node000008" class="edge">
<title>Node6&#45;&gt;Node8</title>
<g id="a_edge7_Node000006_Node000008"><a xlink:title=" ">
<path fill="none" stroke="#63b8ff" d="M286.8,-73.56C297.65,-75.04 308.64,-76.55 318.69,-77.92"/>
<polygon fill="#63b8ff" stroke="#63b8ff" points="287.47,-70.12 277.09,-72.23 286.52,-77.05 287.47,-70.12"/>
</a>
</g>
</g>
<!-- Node9 -->
<g id="Node000009" class="node">
<title>Node9</title>
<g id="a_Node000009"><a xlink:href="../../db/d35/classfloppy_1_1math_1_1point2d.html" target="_top" xlink:title="A two&#45;dimensional point tagged with a unit.">
<polygon fill="white" stroke="#666666" points="406.88,-56.25 315.88,-56.25 315.88,-37 406.88,-37 406.88,-56.25"/>
<text text-anchor="middle" x="361.38" y="-41.8" font-family="Arial" font-size="11.00">point2d&lt; U, T &gt;</text>
</a>
</g>
</g>
<!-- Node6&#45;&gt;Node9 -->
<g id="edge8_Node000006_Node000009" class="edge">
<title>Node6&#45;&gt;Node9</title>
<g id="a_edge8_Node000006_Node000009"><a xlink:title=" ">
<path fill="none" stroke="#63b8ff" d="M286.91,-56.15C296.64,-54.89 306.47,-53.61 315.64,-52.42"/>
<polygon fill="#63b8ff" stroke="#63b8ff" points="286.56,-52.66 277.09,-57.42 287.46,-59.61 286.56,-52.66"/>
</a>
</g>
</g>
<!-- Node10 -->
<g id="Node000010" class="node">
<title>Node10</title>
<g id="a_Node000010"><a xlink:href="../../db/db2/structfloppy_1_1math_1_1scale.html" target="_top" xlink:title="A scaling factor between two different units of measurement.">
<polygon fill="white" stroke="#666666" points="408.75,-19.25 314,-19.25 314,0 408.75,0 408.75,-19.25"/>
<text text-anchor="middle" x="361.38" y="-4.8" font-family="Arial" font-size="11.00">scale&lt; S, D, T &gt;</text>
</a>
</g>
</g>
<!-- Node6&#45;&gt;Node10 -->
<g id="edge9_Node000006_Node000010" class="edge">
<title>Node6&#45;&gt;Node10</title>
<g id="a_edge9_Node000006_Node000010"><a xlink:title=" ">
<path fill="none" stroke="#63b8ff" d="M257.27,-50.22C274.42,-43.34 295.26,-35.01 314,-27.62 320.59,-25.03 327.71,-22.25 334.36,-19.67"/>
<polygon fill="#63b8ff" stroke="#63b8ff" points="255.98,-46.97 248,-53.94 258.59,-53.46 255.98,-46.97"/>
</a>
</g>
</g>
</g>
</svg>
