<?xml version="1.0" encoding="UTF-8" standalone="no"?>
<!DOCTYPE svg PUBLIC "-//W3C//DTD SVG 1.1//EN"
 "http://www.w3.org/Graphics/SVG/1.1/DTD/svg11.dtd">
<!-- Generated by graphviz version 10.0.1 (0)
 -->
<!-- Title: formattable_base&lt; C &gt; Pages: 1 -->
<svg width="625pt" height="647pt"
 viewBox="0.00 0.00 624.75 646.88" xmlns="http://www.w3.org/2000/svg" xmlns:xlink="http://www.w3.org/1999/xlink">
<g id="graph0" class="graph" transform="scale(1 1) rotate(0) translate(4 642.88)">
<title>formattable_base&lt; C &gt;</title>
<!-- Node1 -->
<g id="Node000001" class="node">
<title>Node1</title>
<g id="a_Node000001"><a xlink:title="Interface, providing to_string method.">
<polygon fill="#999999" stroke="#666666" points="127,-394.25 0,-394.25 0,-375 127,-375 127,-394.25"/>
<text text-anchor="middle" x="63.5" y="-379.8" font-family="Arial" font-size="11.00">formattable_base&lt; C &gt;</text>
</a>
</g>
</g>
<!-- Node2 -->
<g id="Node000002" class="node">
<title>Node2</title>
<g id="a_Node000002"><a xlink:href="../../db/d59/structfloppy_1_1traits_1_1formattable.html" target="_top" xlink:title=" ">
<polygon fill="white" stroke="#666666" points="276.88,-638.88 171.62,-638.88 171.62,-608.38 276.88,-608.38 276.88,-638.88"/>
<text text-anchor="start" x="179.62" y="-624.42" font-family="Arial" font-size="11.00">formattable&lt; color,</text>
<text text-anchor="middle" x="224.25" y="-613.17" font-family="Arial" font-size="11.00"> char &gt;</text>
</a>
</g>
</g>
<!-- Node1&#45;&gt;Node2 -->
<g id="edge1_Node000001_Node000002" class="edge">
<title>Node1&#45;&gt;Node2</title>
<g id="a_edge1_Node000001_Node000002"><a xlink:title=" ">
<path fill="none" stroke="#63b8ff" d="M68.79,-405.69C78.39,-447.84 105.47,-543.24 163,-598.62 166.75,-602.24 171.1,-605.36 175.71,-608.05"/>
<polygon fill="#63b8ff" stroke="#63b8ff" points="72.25,-405.15 66.72,-396.12 65.41,-406.63 72.25,-405.15"/>
</a>
</g>
</g>
<!-- Node4 -->
<g id="Node000004" class="node">
<title>Node4</title>
<g id="a_Node000004"><a xlink:href="../../db/d59/structfloppy_1_1traits_1_1formattable.html" target="_top" xlink:title=" ">
<polygon fill="white" stroke="#666666" points="275.75,-589.88 172.75,-589.88 172.75,-559.38 275.75,-559.38 275.75,-589.88"/>
<text text-anchor="start" x="180.75" y="-575.42" font-family="Arial" font-size="11.00">formattable&lt; color</text>
<text text-anchor="middle" x="224.25" y="-564.17" font-family="Arial" font-size="11.00">::hsl_t, char &gt;</text>
</a>
</g>
</g>
<!-- Node1&#45;&gt;Node4 -->
<g id="edge3_Node000001_Node000004" class="edge">
<title>Node1&#45;&gt;Node4</title>
<g id="a_edge3_Node000001_Node000004"><a xlink:title=" ">
<path fill="none" stroke="#63b8ff" d="M71.83,-405.25C85.02,-439.62 115.82,-508.83 163,-549.62 167.11,-553.18 171.8,-556.28 176.7,-558.97"/>
<polygon fill="#63b8ff" stroke="#63b8ff" points="75.19,-404.24 68.43,-396.08 68.63,-406.67 75.19,-404.24"/>
</a>
</g>
</g>
<!-- Node6 -->
<g id="Node000006" class="node">
<title>Node6</title>
<g id="a_Node000006"><a xlink:href="../../db/d59/structfloppy_1_1traits_1_1formattable.html" target="_top" xlink:title=" ">
<polygon fill="white" stroke="#666666" points="275.75,-540.88 172.75,-540.88 172.75,-510.38 275.75,-510.38 275.75,-540.88"/>
<text text-anchor="start" x="180.75" y="-526.42" font-family="Arial" font-size="11.00">formattable&lt; color</text>
<text text-anchor="middle" x="224.25" y="-515.17" font-family="Arial" font-size="11.00">::hsla_t, char &gt;</text>
</a>
</g>
</g>
<!-- Node1&#45;&gt;Node6 -->
<g id="edge5_Node000001_Node000006" class="edge">
<title>Node1&#45;&gt;Node6</title>
<g id="a_edge5_Node000001_Node000006"><a xlink:title=" ">
<path fill="none" stroke="#63b8ff" d="M76.88,-404.31C93.65,-429.62 125.83,-473.52 163,-500.62 167.76,-504.09 173.07,-507.19 178.51,-509.91"/>
<polygon fill="#63b8ff" stroke="#63b8ff" points="79.85,-402.47 71.48,-395.98 73.98,-406.28 79.85,-402.47"/>
</a>
</g>
</g>
<!-- Node8 -->
<g id="Node000008" class="node">
<title>Node8</title>
<g id="a_Node000008"><a xlink:href="../../db/d59/structfloppy_1_1traits_1_1formattable.html" target="_top" xlink:title=" ">
<polygon fill="white" stroke="#666666" points="277.25,-491.88 171.25,-491.88 171.25,-461.38 277.25,-461.38 277.25,-491.88"/>
<text text-anchor="start" x="179.25" y="-477.43" font-family="Arial" font-size="11.00">formattable&lt; angle</text>
<text text-anchor="middle" x="224.25" y="-466.18" font-family="Arial" font-size="11.00">&lt; f32 &gt;, char &gt;</text>
</a>
</g>
</g>
<!-- Node1&#45;&gt;Node8 -->
<g id="edge7_Node000001_Node000008" class="edge">
<title>Node1&#45;&gt;Node8</title>
<g id="a_edge7_Node000001_Node000008"><a xlink:title=" ">
<path fill="none" stroke="#63b8ff" d="M85.84,-401.46C105.21,-416.22 134.95,-437.6 163,-452.62 168.46,-455.55 174.35,-458.32 180.24,-460.88"/>
<polygon fill="#63b8ff" stroke="#63b8ff" points="88.23,-398.88 78.17,-395.54 83.95,-404.42 88.23,-398.88"/>
</a>
</g>
</g>
<!-- Node9 -->
<g id="Node000009" class="node">
<title>Node9</title>
<g id="a_Node000009"><a xlink:href="../../db/d59/structfloppy_1_1traits_1_1formattable.html" target="_top" xlink:title=" ">
<polygon fill="white" stroke="#666666" points="285.5,-443.25 163,-443.25 163,-424 285.5,-424 285.5,-443.25"/>
<text text-anchor="middle" x="224.25" y="-428.8" font-family="Arial" font-size="11.00">formattable&lt; T, char &gt;</text>
</a>
</g>
</g>
<!-- Node1&#45;&gt;Node9 -->
<g id="edge8_Node000001_Node000009" class="edge">
<title>Node1&#45;&gt;Node9</title>
<g id="a_edge8_Node000001_Node000009"><a xlink:title=" ">
<path fill="none" stroke="#63b8ff" d="M107.74,-397.97C133.84,-406.03 166.57,-416.13 190.51,-423.52"/>
<polygon fill="#63b8ff" stroke="#63b8ff" points="109.04,-394.71 98.45,-395.11 106.98,-401.4 109.04,-394.71"/>
</a>
</g>
</g>
<!-- Node14 -->
<g id="Node000014" class="node">
<title>Node14</title>
<g id="a_Node000014"><a xlink:href="../../db/d59/structfloppy_1_1traits_1_1formattable.html" target="_top" xlink:title=" ">
<polygon fill="white" stroke="#666666" points="278.75,-405.5 169.75,-405.5 169.75,-363.75 278.75,-363.75 278.75,-405.5"/>
<text text-anchor="start" x="177.75" y="-391.05" font-family="Arial" font-size="11.00">formattable&lt; length</text>
<text text-anchor="start" x="177.75" y="-379.8" font-family="Arial" font-size="11.00">&lt; default_unit, f32</text>
<text text-anchor="middle" x="224.25" y="-368.55" font-family="Arial" font-size="11.00"> &gt;, char &gt;</text>
</a>
</g>
</g>
<!-- Node1&#45;&gt;Node14 -->
<g id="edge13_Node000001_Node000014" class="edge">
<title>Node1&#45;&gt;Node14</title>
<g id="a_edge13_Node000001_Node000014"><a xlink:title=" ">
<path fill="none" stroke="#63b8ff" d="M138.48,-384.62C148.91,-384.62 159.47,-384.62 169.42,-384.62"/>
<polygon fill="#63b8ff" stroke="#63b8ff" points="138.76,-381.13 128.76,-384.63 138.76,-388.13 138.76,-381.13"/>
</a>
</g>
</g>
<!-- Node15 -->
<g id="Node000015" class="node">
<title>Node15</title>
<g id="a_Node000015"><a xlink:href="../../db/d59/structfloppy_1_1traits_1_1formattable.html" target="_top" xlink:title=" ">
<polygon fill="white" stroke="#666666" points="281.75,-345.5 166.75,-345.5 166.75,-303.75 281.75,-303.75 281.75,-345.5"/>
<text text-anchor="start" x="174.75" y="-331.05" font-family="Arial" font-size="11.00">formattable&lt; point2d</text>
<text text-anchor="start" x="174.75" y="-319.8" font-family="Arial" font-size="11.00">&lt; default_unit, f32 &gt;</text>
<text text-anchor="middle" x="224.25" y="-308.55" font-family="Arial" font-size="11.00">, char &gt;</text>
</a>
</g>
</g>
<!-- Node1&#45;&gt;Node15 -->
<g id="edge14_Node000001_Node000015" class="edge">
<title>Node1&#45;&gt;Node15</title>
<g id="a_edge14_Node000001_Node000015"><a xlink:title=" ">
<path fill="none" stroke="#63b8ff" d="M101.62,-370.6C121.05,-363.25 145.24,-354.11 166.93,-345.91"/>
<polygon fill="#63b8ff" stroke="#63b8ff" points="100.6,-367.24 92.49,-374.05 103.08,-373.79 100.6,-367.24"/>
</a>
</g>
</g>
<!-- Node16 -->
<g id="Node000016" class="node">
<title>Node16</title>
<g id="a_Node000016"><a xlink:href="../../db/d59/structfloppy_1_1traits_1_1formattable.html" target="_top" xlink:title=" ">
<polygon fill="white" stroke="#666666" points="281.75,-285.88 166.75,-285.88 166.75,-255.38 281.75,-255.38 281.75,-285.88"/>
<text text-anchor="start" x="174.75" y="-271.43" font-family="Arial" font-size="11.00">formattable&lt; scale</text>
<text text-anchor="middle" x="224.25" y="-260.18" font-family="Arial" font-size="11.00">&lt; S, D, f32 &gt;, char &gt;</text>
</a>
</g>
</g>
<!-- Node1&#45;&gt;Node16 -->
<g id="edge15_Node000001_Node000016" class="edge">
<title>Node1&#45;&gt;Node16</title>
<g id="a_edge15_Node000001_Node000016"><a xlink:title=" ">
<path fill="none" stroke="#63b8ff" d="M80.75,-366.24C99.1,-346.4 130.63,-314.9 163,-294.62 167.87,-291.58 173.18,-288.79 178.58,-286.28"/>
<polygon fill="#63b8ff" stroke="#63b8ff" points="78.22,-363.83 74.09,-373.59 83.4,-368.53 78.22,-363.83"/>
</a>
</g>
</g>
<!-- Node17 -->
<g id="Node000017" class="node">
<title>Node17</title>
<g id="a_Node000017"><a xlink:href="../../db/d59/structfloppy_1_1traits_1_1formattable.html" target="_top" xlink:title=" ">
<polygon fill="white" stroke="#666666" points="279.5,-237.5 169,-237.5 169,-195.75 279.5,-195.75 279.5,-237.5"/>
<text text-anchor="start" x="177" y="-223.05" font-family="Arial" font-size="11.00">formattable&lt; size2d</text>
<text text-anchor="start" x="177" y="-211.8" font-family="Arial" font-size="11.00">&lt; default_unit, f32</text>
<text text-anchor="middle" x="224.25" y="-200.55" font-family="Arial" font-size="11.00"> &gt;, char &gt;</text>
</a>
</g>
</g>
<!-- Node1&#45;&gt;Node17 -->
<g id="edge16_Node000001_Node000017" class="edge">
<title>Node1&#45;&gt;Node17</title>
<g id="a_edge16_Node000001_Node000017"><a xlink:title=" ">
<path fill="none" stroke="#63b8ff" d="M74.71,-364.5C90.34,-335.33 122.68,-281.04 163,-246.62 166.64,-243.52 170.67,-240.63 174.85,-237.98"/>
<polygon fill="#63b8ff" stroke="#63b8ff" points="71.62,-362.86 70.09,-373.34 77.82,-366.1 71.62,-362.86"/>
</a>
</g>
</g>
<!-- Node18 -->
<g id="Node000018" class="node">
<title>Node18</title>
<g id="a_Node000018"><a xlink:href="../../db/d59/structfloppy_1_1traits_1_1formattable.html" target="_top" xlink:title=" ">
<polygon fill="white" stroke="#666666" points="284.75,-177.5 163.75,-177.5 163.75,-135.75 284.75,-135.75 284.75,-177.5"/>
<text text-anchor="start" x="171.75" y="-163.05" font-family="Arial" font-size="11.00">formattable&lt; vector2d</text>
<text text-anchor="start" x="171.75" y="-151.8" font-family="Arial" font-size="11.00">&lt; default_unit, f32 &gt;</text>
<text text-anchor="middle" x="224.25" y="-140.55" font-family="Arial" font-size="11.00">, char &gt;</text>
</a>
</g>
</g>
<!-- Node1&#45;&gt;Node18 -->
<g id="edge17_Node000001_Node000018" class="edge">
<title>Node1&#45;&gt;Node18</title>
<g id="a_edge17_Node000001_Node000018"><a xlink:title=" ">
<path fill="none" stroke="#63b8ff" d="M70.08,-363.59C81.48,-324.24 110.83,-238.81 163,-186.62 166.22,-183.4 169.86,-180.46 173.71,-177.8"/>
<polygon fill="#63b8ff" stroke="#63b8ff" points="66.72,-362.61 67.42,-373.18 73.47,-364.48 66.72,-362.61"/>
</a>
</g>
</g>
<!-- Node19 -->
<g id="Node000019" class="node">
<title>Node19</title>
<g id="a_Node000019"><a xlink:href="../../db/d59/structfloppy_1_1traits_1_1formattable.html" target="_top" xlink:title="Allows type to be converted to string and printed via standard streams or fmt.">
<polygon fill="white" stroke="#666666" points="279.12,-117.25 169.38,-117.25 169.38,-98 279.12,-98 279.12,-117.25"/>
<text text-anchor="middle" x="224.25" y="-102.8" font-family="Arial" font-size="11.00">formattable&lt; T, C &gt;</text>
</a>
</g>
</g>
<!-- Node1&#45;&gt;Node19 -->
<g id="edge18_Node000001_Node000019" class="edge">
<title>Node1&#45;&gt;Node19</title>
<g id="a_edge18_Node000001_Node000019"><a xlink:title=" ">
<path fill="none" stroke="#63b8ff" d="M66.47,-363.19C72.14,-314.12 92.86,-192.73 163,-126.62 166.83,-123.01 171.34,-120.09 176.15,-117.72"/>
<polygon fill="#63b8ff" stroke="#63b8ff" points="63,-362.71 65.45,-373.02 69.97,-363.44 63,-362.71"/>
</a>
</g>
</g>
<!-- Node3 -->
<g id="Node000003" class="node">
<title>Node3</title>
<g id="a_Node000003"><a xlink:href="../../de/da8/classfloppy_1_1gfx_1_1color.html" target="_top" xlink:title="Class representing a color.">
<polygon fill="white" stroke="#666666" points="422.25,-633.25 383,-633.25 383,-614 422.25,-614 422.25,-633.25"/>
<text text-anchor="middle" x="402.62" y="-618.8" font-family="Arial" font-size="11.00">color</text>
</a>
</g>
</g>
<!-- Node2&#45;&gt;Node3 -->
<g id="edge2_Node000002_Node000003" class="edge">
<title>Node2&#45;&gt;Node3</title>
<g id="a_edge2_Node000002_Node000003"><a xlink:title=" ">
<path fill="none" stroke="#63b8ff" d="M288.31,-623.62C321.73,-623.62 360.39,-623.62 382.82,-623.62"/>
<polygon fill="#63b8ff" stroke="#63b8ff" points="288.73,-620.13 278.73,-623.63 288.73,-627.13 288.73,-620.13"/>
</a>
</g>
</g>
<!-- Node5 -->
<g id="Node000005" class="node">
<title>Node5</title>
<g id="a_Node000005"><a xlink:href="../../dc/df5/structfloppy_1_1gfx_1_1color_1_1hsl__t.html" target="_top" xlink:title="HSL color representation.">
<polygon fill="white" stroke="#666666" points="421.88,-584.25 383.38,-584.25 383.38,-565 421.88,-565 421.88,-584.25"/>
<text text-anchor="middle" x="402.62" y="-569.8" font-family="Arial" font-size="11.00">hsl_t</text>
</a>
</g>
</g>
<!-- Node4&#45;&gt;Node5 -->
<g id="edge4_Node000004_Node000005" class="edge">
<title>Node4&#45;&gt;Node5</title>
<g id="a_edge4_Node000004_Node000005"><a xlink:title=" ">
<path fill="none" stroke="#63b8ff" d="M286.99,-574.62C320.76,-574.62 360.23,-574.62 382.94,-574.62"/>
<polygon fill="#63b8ff" stroke="#63b8ff" points="287.31,-571.13 277.31,-574.63 287.31,-578.13 287.31,-571.13"/>
</a>
</g>
</g>
<!-- Node7 -->
<g id="Node000007" class="node">
<title>Node7</title>
<g id="a_Node000007"><a xlink:href="../../d2/d0e/structfloppy_1_1gfx_1_1color_1_1hsla__t.html" target="_top" xlink:title="HSLA color representation.">
<polygon fill="white" stroke="#666666" points="424.88,-535.25 380.38,-535.25 380.38,-516 424.88,-516 424.88,-535.25"/>
<text text-anchor="middle" x="402.62" y="-520.8" font-family="Arial" font-size="11.00">hsla_t</text>
</a>
</g>
</g>
<!-- Node6&#45;&gt;Node7 -->
<g id="edge6_Node000006_Node000007" class="edge">
<title>Node6&#45;&gt;Node7</title>
<g id="a_edge6_Node000006_Node000007"><a xlink:title=" ">
<path fill="none" stroke="#63b8ff" d="M287.03,-525.62C319.51,-525.62 357.25,-525.62 380.28,-525.62"/>
<polygon fill="#63b8ff" stroke="#63b8ff" points="287.31,-522.13 277.31,-525.63 287.31,-529.13 287.31,-522.13"/>
</a>
</g>
</g>
<!-- Node10 -->
<g id="Node000010" class="node">
<title>Node10</title>
<g id="a_Node000010"><a xlink:href="../../d7/dd8/structfloppy_1_1math_1_1detail_1_1basic__two__dimensional__type.html" target="_top" xlink:title=" ">
<polygon fill="white" stroke="#bfbfbf" points="465.75,-448.88 339.5,-448.88 339.5,-418.38 465.75,-418.38 465.75,-448.88"/>
<text text-anchor="start" x="347.5" y="-434.43" font-family="Arial" font-size="11.00">basic_two_dimensional</text>
<text text-anchor="middle" x="402.62" y="-423.18" font-family="Arial" font-size="11.00">_type&lt; T, U, N &gt;</text>
</a>
</g>
</g>
<!-- Node9&#45;&gt;Node10 -->
<g id="edge9_Node000009_Node000010" class="edge">
<title>Node9&#45;&gt;Node10</title>
<g id="a_edge9_Node000009_Node000010"><a xlink:title=" ">
<path fill="none" stroke="#63b8ff" d="M297.39,-433.62C311.19,-433.62 325.54,-433.62 339.02,-433.62"/>
<polygon fill="#63b8ff" stroke="#63b8ff" points="297.46,-430.13 287.46,-433.63 297.46,-437.13 297.46,-430.13"/>
</a>
</g>
</g>
<!-- Node11 -->
<g id="Node000011" class="node">
<title>Node11</title>
<g id="a_Node000011"><a xlink:href="../../db/d35/classfloppy_1_1math_1_1point2d.html" target="_top" xlink:title="A two&#45;dimensional point tagged with a unit.">
<polygon fill="white" stroke="#666666" points="613.75,-480.25 522.75,-480.25 522.75,-461 613.75,-461 613.75,-480.25"/>
<text text-anchor="middle" x="568.25" y="-465.8" font-family="Arial" font-size="11.00">point2d&lt; U, T &gt;</text>
</a>
</g>
</g>
<!-- Node10&#45;&gt;Node11 -->
<g id="edge10_Node000010_Node000011" class="edge">
<title>Node10&#45;&gt;Node11</title>
<g id="a_edge10_Node000010_Node000011"><a xlink:title=" ">
<path fill="none" stroke="#63b8ff" d="M476.75,-450.16C492.48,-453.72 508.65,-457.37 522.89,-460.59"/>
<polygon fill="#63b8ff" stroke="#63b8ff" points="477.95,-446.84 467.43,-448.05 476.41,-453.67 477.95,-446.84"/>
</a>
</g>
</g>
<!-- Node12 -->
<g id="Node000012" class="node">
<title>Node12</title>
<g id="a_Node000012"><a xlink:href="../../d0/d22/classfloppy_1_1math_1_1size2d.html" target="_top" xlink:title="A two&#45;dimensional size2d tagged with a unit.">
<polygon fill="white" stroke="#666666" points="611.5,-443.25 525,-443.25 525,-424 611.5,-424 611.5,-443.25"/>
<text text-anchor="middle" x="568.25" y="-428.8" font-family="Arial" font-size="11.00">size2d&lt; U, T &gt;</text>
</a>
</g>
</g>
<!-- Node10&#45;&gt;Node12 -->
<g id="edge11_Node000010_Node000012" class="edge">
<title>Node10&#45;&gt;Node12</title>
<g id="a_edge11_Node000010_Node000012"><a xlink:title=" ">
<path fill="none" stroke="#63b8ff" d="M477.16,-433.62C493.51,-433.62 510.29,-433.62 524.88,-433.62"/>
<polygon fill="#63b8ff" stroke="#63b8ff" points="477.46,-430.13 467.46,-433.63 477.46,-437.13 477.46,-430.13"/>
</a>
</g>
</g>
<!-- Node13 -->
<g id="Node000013" class="node">
<title>Node13</title>
<g id="a_Node000013"><a xlink:href="../../d4/d33/classfloppy_1_1math_1_1vector2d.html" target="_top" xlink:title="A two&#45;dimensional vector tagged with a unit.">
<polygon fill="white" stroke="#666666" points="616.75,-406.25 519.75,-406.25 519.75,-387 616.75,-387 616.75,-406.25"/>
<text text-anchor="middle" x="568.25" y="-391.8" font-family="Arial" font-size="11.00">vector2d&lt; U, T &gt;</text>
</a>
</g>
</g>
<!-- Node10&#45;&gt;Node13 -->
<g id="edge12_Node000010_Node000013" class="edge">
<title>Node10&#45;&gt;Node13</title>
<g id="a_edge12_Node000010_Node000013"><a xlink:title=" ">
<path fill="none" stroke="#63b8ff" d="M476.75,-417.09C492.48,-413.53 508.65,-409.88 522.89,-406.66"/>
<polygon fill="#63b8ff" stroke="#63b8ff" points="476.41,-413.58 467.43,-419.2 477.95,-420.41 476.41,-413.58"/>
</a>
</g>
</g>
<!-- Node20 -->
<g id="Node000020" class="node">
<title>Node20</title>
<g id="a_Node000020"><a xlink:href="../../d7/dd8/structfloppy_1_1math_1_1detail_1_1basic__two__dimensional__type.html" target="_top" xlink:title=" ">
<polygon fill="white" stroke="#bfbfbf" points="483.75,-273.5 321.5,-273.5 321.5,-231.75 483.75,-231.75 483.75,-273.5"/>
<text text-anchor="start" x="329.5" y="-259.05" font-family="Arial" font-size="11.00">basic_two_dimensional</text>
<text text-anchor="start" x="329.5" y="-247.8" font-family="Arial" font-size="11.00">_type&lt; point2d&lt; default</text>
<text text-anchor="middle" x="402.62" y="-236.55" font-family="Arial" font-size="11.00">_unit, f32 &gt;, default_unit, f32 &gt;</text>
</a>
</g>
</g>
<!-- Node19&#45;&gt;Node20 -->
<g id="edge19_Node000019_Node000020" class="edge">
<title>Node19&#45;&gt;Node20</title>
<g id="a_edge19_Node000019_Node000020"><a xlink:title=" ">
<path fill="none" stroke="#63b8ff" d="M282.12,-123.73C283.3,-124.64 284.43,-125.61 285.5,-126.62 318.57,-157.98 289.27,-190.41 321.5,-222.62 324.76,-225.88 328.4,-228.79 332.29,-231.38"/>
<polygon fill="#63b8ff" stroke="#63b8ff" points="284.01,-120.78 273.66,-118.49 280.32,-126.73 284.01,-120.78"/>
</a>
</g>
</g>
<!-- Node21 -->
<g id="Node000021" class="node">
<title>Node21</title>
<g id="a_Node000021"><a xlink:href="../../d7/dd8/structfloppy_1_1math_1_1detail_1_1basic__two__dimensional__type.html" target="_top" xlink:title=" ">
<polygon fill="white" stroke="#bfbfbf" points="483.75,-213.5 321.5,-213.5 321.5,-171.75 483.75,-171.75 483.75,-213.5"/>
<text text-anchor="start" x="329.5" y="-199.05" font-family="Arial" font-size="11.00">basic_two_dimensional</text>
<text text-anchor="start" x="329.5" y="-187.8" font-family="Arial" font-size="11.00">_type&lt; size2d&lt; default</text>
<text text-anchor="middle" x="402.62" y="-176.55" font-family="Arial" font-size="11.00">_unit, f32 &gt;, default_unit, f32 &gt;</text>
</a>
</g>
</g>
<!-- Node19&#45;&gt;Node21 -->
<g id="edge20_Node000019_Node000021" class="edge">
<title>Node19&#45;&gt;Node21</title>
<g id="a_edge20_Node000019_Node000021"><a xlink:title=" ">
<path fill="none" stroke="#63b8ff" d="M276.92,-122.05C279.89,-123.45 282.77,-124.97 285.5,-126.62 304.84,-138.36 302.47,-150.38 321.5,-162.62 326.37,-165.76 331.62,-168.64 337.01,-171.26"/>
<polygon fill="#63b8ff" stroke="#63b8ff" points="278.57,-118.94 267.99,-118.33 275.88,-125.4 278.57,-118.94"/>
</a>
</g>
</g>
<!-- Node22 -->
<g id="Node000022" class="node">
<title>Node22</title>
<g id="a_Node000022"><a xlink:href="../../d7/dd8/structfloppy_1_1math_1_1detail_1_1basic__two__dimensional__type.html" target="_top" xlink:title=" ">
<polygon fill="white" stroke="#bfbfbf" points="483.75,-153.5 321.5,-153.5 321.5,-111.75 483.75,-111.75 483.75,-153.5"/>
<text text-anchor="start" x="329.5" y="-139.05" font-family="Arial" font-size="11.00">basic_two_dimensional</text>
<text text-anchor="start" x="329.5" y="-127.8" font-family="Arial" font-size="11.00">_type&lt; vector2d&lt; default</text>
<text text-anchor="middle" x="402.62" y="-116.55" font-family="Arial" font-size="11.00">_unit, f32 &gt;, default_unit, f32 &gt;</text>
</a>
</g>
</g>
<!-- Node19&#45;&gt;Node22 -->
<g id="edge21_Node000019_Node000022" class="edge">
<title>Node19&#45;&gt;Node22</title>
<g id="a_edge21_Node000019_Node000022"><a xlink:title=" ">
<path fill="none" stroke="#63b8ff" d="M290.96,-116.94C300.81,-118.34 311.07,-119.79 321.19,-121.22"/>
<polygon fill="#63b8ff" stroke="#63b8ff" points="291.5,-113.48 281.11,-115.54 290.52,-120.41 291.5,-113.48"/>
</a>
</g>
</g>
<!-- Node23 -->
<g id="Node000023" class="node">
<title>Node23</title>
<g id="a_Node000023"><a xlink:href="../../de/d4d/structfloppy_1_1math_1_1angle.html" target="_top" xlink:title="Newtype describing an angle.">
<polygon fill="white" stroke="#666666" points="436.88,-93.25 368.38,-93.25 368.38,-74 436.88,-74 436.88,-93.25"/>
<text text-anchor="middle" x="402.62" y="-78.8" font-family="Arial" font-size="11.00">angle&lt; T &gt;</text>
</a>
</g>
</g>
<!-- Node19&#45;&gt;Node23 -->
<g id="edge22_Node000019_Node000023" class="edge">
<title>Node19&#45;&gt;Node23</title>
<g id="a_edge22_Node000019_Node000023"><a xlink:title=" ">
<path fill="none" stroke="#63b8ff" d="M291.01,-98.68C317.2,-95.11 346.21,-91.17 367.95,-88.21"/>
<polygon fill="#63b8ff" stroke="#63b8ff" points="290.54,-95.21 281.11,-100.02 291.49,-102.14 290.54,-95.21"/>
</a>
</g>
</g>
<!-- Node24 -->
<g id="Node000024" class="node">
<title>Node24</title>
<g id="a_Node000024"><a xlink:href="../../dd/dd1/classfloppy_1_1math_1_1length.html" target="_top" xlink:title="A one&#45;dimensional distance with associated unit of measurement.">
<polygon fill="white" stroke="#666666" points="445.12,-56.25 360.12,-56.25 360.12,-37 445.12,-37 445.12,-56.25"/>
<text text-anchor="middle" x="402.62" y="-41.8" font-family="Arial" font-size="11.00">length&lt; U, T &gt;</text>
</a>
</g>
</g>
<!-- Node19&#45;&gt;Node24 -->
<g id="edge23_Node000019_Node000024" class="edge">
<title>Node19&#45;&gt;Node24</title>
<g id="a_edge23_Node000019_Node000024"><a xlink:title=" ">
<path fill="none" stroke="#63b8ff" d="M254.95,-92.51C273.67,-83.45 298.56,-72.24 321.5,-64.62 333.81,-60.54 347.5,-57.08 360.02,-54.32"/>
<polygon fill="#63b8ff" stroke="#63b8ff" points="253.48,-89.33 246.06,-96.88 256.58,-95.61 253.48,-89.33"/>
</a>
</g>
</g>
<!-- Node25 -->
<g id="Node000025" class="node">
<title>Node25</title>
<g id="a_Node000025"><a xlink:href="../../db/db2/structfloppy_1_1math_1_1scale.html" target="_top" xlink:title="A scaling factor between two different units of measurement.">
<polygon fill="white" stroke="#666666" points="450,-19.25 355.25,-19.25 355.25,0 450,0 450,-19.25"/>
<text text-anchor="middle" x="402.62" y="-4.8" font-family="Arial" font-size="11.00">scale&lt; S, D, T &gt;</text>
</a>
</g>
</g>
<!-- Node19&#45;&gt;Node25 -->
<g id="edge24_Node000019_Node000025" class="edge">
<title>Node19&#45;&gt;Node25</title>
<g id="a_edge24_Node000019_Node000025"><a xlink:title=" ">
<path fill="none" stroke="#63b8ff" d="M242.02,-89.32C259.92,-70.92 290,-43.12 321.5,-27.62 331.86,-22.53 343.69,-18.85 355.02,-16.21"/>
<polygon fill="#63b8ff" stroke="#63b8ff" points="239.64,-86.75 235.3,-96.41 244.72,-91.56 239.64,-86.75"/>
</a>
</g>
</g>
</g>
</svg>
