<?xml version="1.0" encoding="UTF-8" standalone="no"?>
<!DOCTYPE svg PUBLIC "-//W3C//DTD SVG 1.1//EN"
 "http://www.w3.org/Graphics/SVG/1.1/DTD/svg11.dtd">
<!-- Generated by graphviz version 10.0.1 (0)
 -->
<!-- Title: formattable_base&lt; C &gt; Pages: 1 -->
<!--zoomable 745 -->

<svg id="main" version="1.1" xmlns="http://www.w3.org/2000/svg" xmlns:xlink="http://www.w3.org/1999/xlink" xml:space="preserve" onload="init(evt)">
<style type="text/css"><![CDATA[
.node, .edge {opacity: 0.7;}
.node.selected, .edge.selected {opacity: 1;}
.edge:hover path { stroke: red; }
.edge:hover polygon { stroke: red; fill: red; }
]]></style>

<defs>
  <circle id="rim" cx="0" cy="0" r="7"/>
  <circle id="rim2" cx="0" cy="0" r="3.5"/>
  <g id="zoomPlus">
    <use xlink:href="#rim" fill="#404040"><set attributeName="fill" to="#808080" begin="zoomplus.mouseover" end="zoomplus.mouseout"/></use>
    <path d="M-4,0h8M0,-4v8" fill="none" stroke="white" stroke-width="1.5" pointer-events="none"/>
  </g>
  <g id="zoomMin">
    <use xlink:href="#rim" fill="#404040"><set attributeName="fill" to="#808080" begin="zoomminus.mouseover" end="zoomminus.mouseout"/></use>
    <path d="M-4,0h8" fill="none" stroke="white" stroke-width="1.5" pointer-events="none"/>
  </g>
  <g id="arrowUp" transform="translate(30 24)">
    <use xlink:href="#rim"/>
    <path pointer-events="none" fill="none" stroke="white" stroke-width="1.5" d="M0,-3.0v7 M-2.5,-0.5L0,-3.0L2.5,-0.5"/>
  </g>
  <g id="arrowRight" transform="rotate(90) translate(36 -43)">
    <use xlink:href="#rim"/>
    <path pointer-events="none" fill="none" stroke="white" stroke-width="1.5" d="M0,-3.0v7 M-2.5,-0.5L0,-3.0L2.5,-0.5"/>
  </g>
  <g id="arrowDown" transform="rotate(180) translate(-30 -48)">
    <use xlink:href="#rim"/>
    <path pointer-events="none" fill="none" stroke="white" stroke-width="1.5" d="M0,-3.0v7 M-2.5,-0.5L0,-3.0L2.5,-0.5"/>
  </g>
  <g id="arrowLeft" transform="rotate(270) translate(-36 17)">
    <use xlink:href="#rim"/>
    <path pointer-events="none" fill="none" stroke="white" stroke-width="1.5" d="M0,-3.0v7 M-2.5,-0.5L0,-3.0L2.5,-0.5"/>
  </g>
  <g id="resetDef">
    <use xlink:href="#rim2" fill="#404040"><set attributeName="fill" to="#808080" begin="reset.mouseover" end="reset.mouseout"/></use>
  </g>
</defs>
<script type="application/ecmascript">
var viewWidth = 625;
var viewHeight = 745;
var sectionId = 'dynsection-0';
</script>
<script type="application/ecmascript" xlink:href="../../svg.min.js"/>
<svg id="graph" class="graph">
<g id="viewport">
<title>formattable_base&lt; C &gt;</title>
<!-- Node1 -->
<g id="Node000001" class="node">
<title>Node1</title>
<g id="a_Node000001"><a xlink:title="Interface, providing to_string method.">
<polygon fill="#999999" stroke="#666666" points="127,-443.25 0,-443.25 0,-424 127,-424 127,-443.25"/>
<text text-anchor="middle" x="63.5" y="-428.8" font-family="Arial" font-size="11.00">formattable_base&lt; C &gt;</text>
</a>
</g>
</g>
<!-- Node2 -->
<g id="Node000002" class="node">
<title>Node2</title>
<g id="a_Node000002"><a xlink:href="../../db/d59/structfloppy_1_1traits_1_1formattable.html" target="_top" xlink:title=" ">
<polygon fill="white" stroke="#666666" points="276.88,-736.88 171.62,-736.88 171.62,-706.38 276.88,-706.38 276.88,-736.88"/>
<text text-anchor="start" x="179.62" y="-722.42" font-family="Arial" font-size="11.00">formattable&lt; color,</text>
<text text-anchor="middle" x="224.25" y="-711.17" font-family="Arial" font-size="11.00"> char &gt;</text>
</a>
</g>
</g>
<!-- Node1&#45;&gt;Node2 -->
<g id="edge1_Node000001_Node000002" class="edge">
<title>Node1&#45;&gt;Node2</title>
<g id="a_edge1_Node000001_Node000002"><a xlink:title=" ">
<path fill="none" stroke="#63b8ff" d="M66.76,-455.04C73.02,-504.16 94.91,-626.11 163,-696.62 166.46,-700.21 170.51,-703.3 174.85,-705.96"/>
<polygon fill="#63b8ff" stroke="#63b8ff" points="70.24,-454.73 65.61,-445.21 63.29,-455.55 70.24,-454.73"/>
</a>
</g>
</g>
<!-- Node4 -->
<g id="Node000004" class="node">
<title>Node4</title>
<g id="a_Node000004"><a xlink:href="../../db/d59/structfloppy_1_1traits_1_1formattable.html" target="_top" xlink:title=" ">
<polygon fill="white" stroke="#666666" points="275.75,-687.88 172.75,-687.88 172.75,-657.38 275.75,-657.38 275.75,-687.88"/>
<text text-anchor="start" x="180.75" y="-673.42" font-family="Arial" font-size="11.00">formattable&lt; color</text>
<text text-anchor="middle" x="224.25" y="-662.17" font-family="Arial" font-size="11.00">::hsl_t, char &gt;</text>
</a>
</g>
</g>
<!-- Node1&#45;&gt;Node4 -->
<g id="edge3_Node000001_Node000004" class="edge">
<title>Node1&#45;&gt;Node4</title>
<g id="a_edge3_Node000001_Node000004"><a xlink:title=" ">
<path fill="none" stroke="#63b8ff" d="M68.79,-454.69C78.39,-496.84 105.47,-592.24 163,-647.62 166.75,-651.24 171.1,-654.36 175.71,-657.05"/>
<polygon fill="#63b8ff" stroke="#63b8ff" points="72.25,-454.15 66.72,-445.12 65.41,-455.63 72.25,-454.15"/>
</a>
</g>
</g>
<!-- Node6 -->
<g id="Node000006" class="node">
<title>Node6</title>
<g id="a_Node000006"><a xlink:href="../../db/d59/structfloppy_1_1traits_1_1formattable.html" target="_top" xlink:title=" ">
<polygon fill="white" stroke="#666666" points="275.75,-638.88 172.75,-638.88 172.75,-608.38 275.75,-608.38 275.75,-638.88"/>
<text text-anchor="start" x="180.75" y="-624.42" font-family="Arial" font-size="11.00">formattable&lt; color</text>
<text text-anchor="middle" x="224.25" y="-613.17" font-family="Arial" font-size="11.00">::hsla_t, char &gt;</text>
</a>
</g>
</g>
<!-- Node1&#45;&gt;Node6 -->
<g id="edge5_Node000001_Node000006" class="edge">
<title>Node1&#45;&gt;Node6</title>
<g id="a_edge5_Node000001_Node000006"><a xlink:title=" ">
<path fill="none" stroke="#63b8ff" d="M71.83,-454.25C85.02,-488.62 115.82,-557.83 163,-598.62 167.11,-602.18 171.8,-605.28 176.7,-607.97"/>
<polygon fill="#63b8ff" stroke="#63b8ff" points="75.19,-453.24 68.43,-445.08 68.63,-455.67 75.19,-453.24"/>
</a>
</g>
</g>
<!-- Node8 -->
<g id="Node000008" class="node">
<title>Node8</title>
<g id="a_Node000008"><a xlink:href="../../db/d59/structfloppy_1_1traits_1_1formattable.html" target="_top" xlink:title=" ">
<polygon fill="white" stroke="#666666" points="275.75,-589.88 172.75,-589.88 172.75,-559.38 275.75,-559.38 275.75,-589.88"/>
<text text-anchor="start" x="180.75" y="-575.42" font-family="Arial" font-size="11.00">formattable&lt; color</text>
<text text-anchor="middle" x="224.25" y="-564.17" font-family="Arial" font-size="11.00">::hsv_t, char &gt;</text>
</a>
</g>
</g>
<!-- Node1&#45;&gt;Node8 -->
<g id="edge7_Node000001_Node000008" class="edge">
<title>Node1&#45;&gt;Node8</title>
<g id="a_edge7_Node000001_Node000008"><a xlink:title=" ">
<path fill="none" stroke="#63b8ff" d="M76.88,-453.31C93.65,-478.62 125.83,-522.52 163,-549.62 167.76,-553.09 173.07,-556.19 178.51,-558.91"/>
<polygon fill="#63b8ff" stroke="#63b8ff" points="79.85,-451.47 71.48,-444.98 73.98,-455.28 79.85,-451.47"/>
</a>
</g>
</g>
<!-- Node10 -->
<g id="Node000010" class="node">
<title>Node10</title>
<g id="a_Node000010"><a xlink:href="../../db/d59/structfloppy_1_1traits_1_1formattable.html" target="_top" xlink:title=" ">
<polygon fill="white" stroke="#666666" points="275.75,-540.88 172.75,-540.88 172.75,-510.38 275.75,-510.38 275.75,-540.88"/>
<text text-anchor="start" x="180.75" y="-526.42" font-family="Arial" font-size="11.00">formattable&lt; color</text>
<text text-anchor="middle" x="224.25" y="-515.17" font-family="Arial" font-size="11.00">::hsva_t, char &gt;</text>
</a>
</g>
</g>
<!-- Node1&#45;&gt;Node10 -->
<g id="edge9_Node000001_Node000010" class="edge">
<title>Node1&#45;&gt;Node10</title>
<g id="a_edge9_Node000001_Node000010"><a xlink:title=" ">
<path fill="none" stroke="#63b8ff" d="M86.53,-450.54C105.97,-464.98 135.42,-485.72 163,-500.62 169.08,-503.91 175.68,-507.05 182.21,-509.92"/>
<polygon fill="#63b8ff" stroke="#63b8ff" points="88.64,-447.75 78.55,-444.53 84.44,-453.34 88.64,-447.75"/>
</a>
</g>
</g>
<!-- Node12 -->
<g id="Node000012" class="node">
<title>Node12</title>
<g id="a_Node000012"><a xlink:href="../../db/d59/structfloppy_1_1traits_1_1formattable.html" target="_top" xlink:title=" ">
<polygon fill="white" stroke="#666666" points="277.25,-491.88 171.25,-491.88 171.25,-461.38 277.25,-461.38 277.25,-491.88"/>
<text text-anchor="start" x="179.25" y="-477.43" font-family="Arial" font-size="11.00">formattable&lt; angle</text>
<text text-anchor="middle" x="224.25" y="-466.18" font-family="Arial" font-size="11.00">&lt; f32 &gt;, char &gt;</text>
</a>
</g>
</g>
<!-- Node1&#45;&gt;Node12 -->
<g id="edge11_Node000001_Node000012" class="edge">
<title>Node1&#45;&gt;Node12</title>
<g id="a_edge11_Node000001_Node000012"><a xlink:title=" ">
<path fill="none" stroke="#63b8ff" d="M112.78,-446.7C131.17,-451.68 152.2,-457.38 170.94,-462.46"/>
<polygon fill="#63b8ff" stroke="#63b8ff" points="113.75,-443.34 103.18,-444.1 111.92,-450.1 113.75,-443.34"/>
</a>
</g>
</g>
<!-- Node13 -->
<g id="Node000013" class="node">
<title>Node13</title>
<g id="a_Node000013"><a xlink:href="../../db/d59/structfloppy_1_1traits_1_1formattable.html" target="_top" xlink:title=" ">
<polygon fill="white" stroke="#666666" points="285.5,-443.25 163,-443.25 163,-424 285.5,-424 285.5,-443.25"/>
<text text-anchor="middle" x="224.25" y="-428.8" font-family="Arial" font-size="11.00">formattable&lt; T, char &gt;</text>
</a>
</g>
</g>
<!-- Node1&#45;&gt;Node13 -->
<g id="edge12_Node000001_Node000013" class="edge">
<title>Node1&#45;&gt;Node13</title>
<g id="a_edge12_Node000001_Node000013"><a xlink:title=" ">
<path fill="none" stroke="#63b8ff" d="M138.52,-433.62C146.56,-433.62 154.67,-433.62 162.52,-433.62"/>
<polygon fill="#63b8ff" stroke="#63b8ff" points="138.76,-430.13 128.76,-433.63 138.76,-437.13 138.76,-430.13"/>
</a>
</g>
</g>
<!-- Node18 -->
<g id="Node000018" class="node">
<title>Node18</title>
<g id="a_Node000018"><a xlink:href="../../db/d59/structfloppy_1_1traits_1_1formattable.html" target="_top" xlink:title=" ">
<polygon fill="white" stroke="#666666" points="278.75,-405.5 169.75,-405.5 169.75,-363.75 278.75,-363.75 278.75,-405.5"/>
<text text-anchor="start" x="177.75" y="-391.05" font-family="Arial" font-size="11.00">formattable&lt; length</text>
<text text-anchor="start" x="177.75" y="-379.8" font-family="Arial" font-size="11.00">&lt; default_unit, f32</text>
<text text-anchor="middle" x="224.25" y="-368.55" font-family="Arial" font-size="11.00"> &gt;, char &gt;</text>
</a>
</g>
</g>
<!-- Node1&#45;&gt;Node18 -->
<g id="edge17_Node000001_Node000018" class="edge">
<title>Node1&#45;&gt;Node18</title>
<g id="a_edge17_Node000001_Node000018"><a xlink:title=" ">
<path fill="none" stroke="#63b8ff" d="M107.78,-420.27C126.83,-414.39 149.41,-407.42 169.53,-401.21"/>
<polygon fill="#63b8ff" stroke="#63b8ff" points="106.98,-416.85 98.45,-423.14 109.04,-423.54 106.98,-416.85"/>
</a>
</g>
</g>
<!-- Node19 -->
<g id="Node000019" class="node">
<title>Node19</title>
<g id="a_Node000019"><a xlink:href="../../db/d59/structfloppy_1_1traits_1_1formattable.html" target="_top" xlink:title=" ">
<polygon fill="white" stroke="#666666" points="281.75,-345.5 166.75,-345.5 166.75,-303.75 281.75,-303.75 281.75,-345.5"/>
<text text-anchor="start" x="174.75" y="-331.05" font-family="Arial" font-size="11.00">formattable&lt; point2d</text>
<text text-anchor="start" x="174.75" y="-319.8" font-family="Arial" font-size="11.00">&lt; default_unit, f32 &gt;</text>
<text text-anchor="middle" x="224.25" y="-308.55" font-family="Arial" font-size="11.00">, char &gt;</text>
</a>
</g>
</g>
<!-- Node1&#45;&gt;Node19 -->
<g id="edge18_Node000001_Node000019" class="edge">
<title>Node1&#45;&gt;Node19</title>
<g id="a_edge18_Node000001_Node000019"><a xlink:title=" ">
<path fill="none" stroke="#63b8ff" d="M83.88,-416C103.09,-399.05 133.8,-373.3 163,-354.62 167.73,-351.6 172.8,-348.66 177.92,-345.87"/>
<polygon fill="#63b8ff" stroke="#63b8ff" points="81.68,-413.27 76.56,-422.54 86.35,-418.49 81.68,-413.27"/>
</a>
</g>
</g>
<!-- Node20 -->
<g id="Node000020" class="node">
<title>Node20</title>
<g id="a_Node000020"><a xlink:href="../../db/d59/structfloppy_1_1traits_1_1formattable.html" target="_top" xlink:title=" ">
<polygon fill="white" stroke="#666666" points="281.75,-285.88 166.75,-285.88 166.75,-255.38 281.75,-255.38 281.75,-285.88"/>
<text text-anchor="start" x="174.75" y="-271.43" font-family="Arial" font-size="11.00">formattable&lt; scale</text>
<text text-anchor="middle" x="224.25" y="-260.18" font-family="Arial" font-size="11.00">&lt; S, D, f32 &gt;, char &gt;</text>
</a>
</g>
</g>
<!-- Node1&#45;&gt;Node20 -->
<g id="edge19_Node000001_Node000020" class="edge">
<title>Node1&#45;&gt;Node20</title>
<g id="a_edge19_Node000001_Node000020"><a xlink:title=" ">
<path fill="none" stroke="#63b8ff" d="M73.88,-413.73C88.84,-383.99 120.75,-327.87 163,-294.62 166.98,-291.49 171.43,-288.72 176.05,-286.28"/>
<polygon fill="#63b8ff" stroke="#63b8ff" points="70.9,-411.86 69.66,-422.38 77.19,-414.93 70.9,-411.86"/>
</a>
</g>
</g>
<!-- Node21 -->
<g id="Node000021" class="node">
<title>Node21</title>
<g id="a_Node000021"><a xlink:href="../../db/d59/structfloppy_1_1traits_1_1formattable.html" target="_top" xlink:title=" ">
<polygon fill="white" stroke="#666666" points="279.5,-237.5 169,-237.5 169,-195.75 279.5,-195.75 279.5,-237.5"/>
<text text-anchor="start" x="177" y="-223.05" font-family="Arial" font-size="11.00">formattable&lt; size2d</text>
<text text-anchor="start" x="177" y="-211.8" font-family="Arial" font-size="11.00">&lt; default_unit, f32</text>
<text text-anchor="middle" x="224.25" y="-200.55" font-family="Arial" font-size="11.00"> &gt;, char &gt;</text>
</a>
</g>
</g>
<!-- Node1&#45;&gt;Node21 -->
<g id="edge20_Node000001_Node000021" class="edge">
<title>Node1&#45;&gt;Node21</title>
<g id="a_edge20_Node000001_Node000021"><a xlink:title=" ">
<path fill="none" stroke="#63b8ff" d="M70.58,-413.23C82.62,-375.85 112.8,-295.69 163,-246.62 166.26,-243.44 169.92,-240.53 173.79,-237.88"/>
<polygon fill="#63b8ff" stroke="#63b8ff" points="67.37,-411.74 67.75,-422.32 74.06,-413.81 67.37,-411.74"/>
</a>
</g>
</g>
<!-- Node22 -->
<g id="Node000022" class="node">
<title>Node22</title>
<g id="a_Node000022"><a xlink:href="../../db/d59/structfloppy_1_1traits_1_1formattable.html" target="_top" xlink:title=" ">
<polygon fill="white" stroke="#666666" points="284.75,-177.5 163.75,-177.5 163.75,-135.75 284.75,-135.75 284.75,-177.5"/>
<text text-anchor="start" x="171.75" y="-163.05" font-family="Arial" font-size="11.00">formattable&lt; vector2d</text>
<text text-anchor="start" x="171.75" y="-151.8" font-family="Arial" font-size="11.00">&lt; default_unit, f32 &gt;</text>
<text text-anchor="middle" x="224.25" y="-140.55" font-family="Arial" font-size="11.00">, char &gt;</text>
</a>
</g>
</g>
<!-- Node1&#45;&gt;Node22 -->
<g id="edge21_Node000001_Node000022" class="edge">
<title>Node1&#45;&gt;Node22</title>
<g id="a_edge21_Node000001_Node000022"><a xlink:title=" ">
<path fill="none" stroke="#63b8ff" d="M67.74,-412.26C75.82,-365.76 100.83,-254.15 163,-186.62 165.93,-183.44 169.27,-180.56 172.84,-177.94"/>
<polygon fill="#63b8ff" stroke="#63b8ff" points="64.3,-411.63 66.14,-422.06 71.21,-412.76 64.3,-411.63"/>
</a>
</g>
</g>
<!-- Node23 -->
<g id="Node000023" class="node">
<title>Node23</title>
<g id="a_Node000023"><a xlink:href="../../db/d59/structfloppy_1_1traits_1_1formattable.html" target="_top" xlink:title="Allows type to be converted to string and printed via standard streams or fmt.">
<polygon fill="white" stroke="#666666" points="279.12,-117.25 169.38,-117.25 169.38,-98 279.12,-98 279.12,-117.25"/>
<text text-anchor="middle" x="224.25" y="-102.8" font-family="Arial" font-size="11.00">formattable&lt; T, C &gt;</text>
</a>
</g>
</g>
<!-- Node1&#45;&gt;Node23 -->
<g id="edge22_Node000001_Node000023" class="edge">
<title>Node1&#45;&gt;Node23</title>
<g id="a_edge22_Node000001_Node000023"><a xlink:title=" ">
<path fill="none" stroke="#63b8ff" d="M64.95,-412.36C67.29,-357.16 81.27,-207.95 163,-126.62 166.65,-122.99 171,-120.05 175.65,-117.67"/>
<polygon fill="#63b8ff" stroke="#63b8ff" points="61.46,-412.12 64.63,-422.23 68.45,-412.35 61.46,-412.12"/>
</a>
</g>
</g>
<!-- Node3 -->
<g id="Node000003" class="node">
<title>Node3</title>
<g id="a_Node000003"><a xlink:href="../../de/da8/classfloppy_1_1gfx_1_1color.html" target="_top" xlink:title="Class representing a color.">
<polygon fill="white" stroke="#666666" points="422.25,-731.25 383,-731.25 383,-712 422.25,-712 422.25,-731.25"/>
<text text-anchor="middle" x="402.62" y="-716.8" font-family="Arial" font-size="11.00">color</text>
</a>
</g>
</g>
<!-- Node2&#45;&gt;Node3 -->
<g id="edge2_Node000002_Node000003" class="edge">
<title>Node2&#45;&gt;Node3</title>
<g id="a_edge2_Node000002_Node000003"><a xlink:title=" ">
<path fill="none" stroke="#63b8ff" d="M288.31,-721.62C321.73,-721.62 360.39,-721.62 382.82,-721.62"/>
<polygon fill="#63b8ff" stroke="#63b8ff" points="288.73,-718.13 278.73,-721.63 288.73,-725.13 288.73,-718.13"/>
</a>
</g>
</g>
<!-- Node5 -->
<g id="Node000005" class="node">
<title>Node5</title>
<g id="a_Node000005"><a xlink:href="../../dc/df5/structfloppy_1_1gfx_1_1color_1_1hsl__t.html" target="_top" xlink:title="HSL color representation.">
<polygon fill="white" stroke="#666666" points="421.88,-682.25 383.38,-682.25 383.38,-663 421.88,-663 421.88,-682.25"/>
<text text-anchor="middle" x="402.62" y="-667.8" font-family="Arial" font-size="11.00">hsl_t</text>
</a>
</g>
</g>
<!-- Node4&#45;&gt;Node5 -->
<g id="edge4_Node000004_Node000005" class="edge">
<title>Node4&#45;&gt;Node5</title>
<g id="a_edge4_Node000004_Node000005"><a xlink:title=" ">
<path fill="none" stroke="#63b8ff" d="M286.99,-672.62C320.76,-672.62 360.23,-672.62 382.94,-672.62"/>
<polygon fill="#63b8ff" stroke="#63b8ff" points="287.31,-669.13 277.31,-672.63 287.31,-676.13 287.31,-669.13"/>
</a>
</g>
</g>
<!-- Node7 -->
<g id="Node000007" class="node">
<title>Node7</title>
<g id="a_Node000007"><a xlink:href="../../d2/d0e/structfloppy_1_1gfx_1_1color_1_1hsla__t.html" target="_top" xlink:title="HSLA color representation.">
<polygon fill="white" stroke="#666666" points="424.88,-633.25 380.38,-633.25 380.38,-614 424.88,-614 424.88,-633.25"/>
<text text-anchor="middle" x="402.62" y="-618.8" font-family="Arial" font-size="11.00">hsla_t</text>
</a>
</g>
</g>
<!-- Node6&#45;&gt;Node7 -->
<g id="edge6_Node000006_Node000007" class="edge">
<title>Node6&#45;&gt;Node7</title>
<g id="a_edge6_Node000006_Node000007"><a xlink:title=" ">
<path fill="none" stroke="#63b8ff" d="M287.03,-623.62C319.51,-623.62 357.25,-623.62 380.28,-623.62"/>
<polygon fill="#63b8ff" stroke="#63b8ff" points="287.31,-620.13 277.31,-623.63 287.31,-627.13 287.31,-620.13"/>
</a>
</g>
</g>
<!-- Node9 -->
<g id="Node000009" class="node">
<title>Node9</title>
<g id="a_Node000009"><a xlink:href="../../df/de6/structfloppy_1_1gfx_1_1color_1_1hsv__t.html" target="_top" xlink:title="HSV color representation.">
<polygon fill="white" stroke="#666666" points="423.38,-584.25 381.88,-584.25 381.88,-565 423.38,-565 423.38,-584.25"/>
<text text-anchor="middle" x="402.62" y="-569.8" font-family="Arial" font-size="11.00">hsv_t</text>
</a>
</g>
</g>
<!-- Node8&#45;&gt;Node9 -->
<g id="edge8_Node000008_Node000009" class="edge">
<title>Node8&#45;&gt;Node9</title>
<g id="a_edge8_Node000008_Node000009"><a xlink:title=" ">
<path fill="none" stroke="#63b8ff" d="M287.23,-574.62C320.3,-574.62 358.79,-574.62 381.63,-574.62"/>
<polygon fill="#63b8ff" stroke="#63b8ff" points="287.31,-571.13 277.31,-574.63 287.31,-578.13 287.31,-571.13"/>
</a>
</g>
</g>
<!-- Node11 -->
<g id="Node000011" class="node">
<title>Node11</title>
<g id="a_Node000011"><a xlink:href="../../dd/dc9/structfloppy_1_1gfx_1_1color_1_1hsva__t.html" target="_top" xlink:title="HSVA color representation.">
<polygon fill="white" stroke="#666666" points="426.38,-535.25 378.88,-535.25 378.88,-516 426.38,-516 426.38,-535.25"/>
<text text-anchor="middle" x="402.62" y="-520.8" font-family="Arial" font-size="11.00">hsva_t</text>
</a>
</g>
</g>
<!-- Node10&#45;&gt;Node11 -->
<g id="edge10_Node000010_Node000011" class="edge">
<title>Node10&#45;&gt;Node11</title>
<g id="a_edge10_Node000010_Node000011"><a xlink:title=" ">
<path fill="none" stroke="#63b8ff" d="M287.17,-525.62C318.76,-525.62 355.3,-525.62 378.43,-525.62"/>
<polygon fill="#63b8ff" stroke="#63b8ff" points="287.31,-522.13 277.31,-525.63 287.31,-529.13 287.31,-522.13"/>
</a>
</g>
</g>
<!-- Node14 -->
<g id="Node000014" class="node">
<title>Node14</title>
<g id="a_Node000014"><a xlink:href="../../d7/dd8/structfloppy_1_1math_1_1detail_1_1basic__two__dimensional__type.html" target="_top" xlink:title="CRTP base class for two dimensional numerical types.">
<polygon fill="white" stroke="#666666" points="465.75,-448.88 339.5,-448.88 339.5,-418.38 465.75,-418.38 465.75,-448.88"/>
<text text-anchor="start" x="347.5" y="-434.43" font-family="Arial" font-size="11.00">basic_two_dimensional</text>
<text text-anchor="middle" x="402.62" y="-423.18" font-family="Arial" font-size="11.00">_type&lt; T, U, N &gt;</text>
</a>
</g>
</g>
<!-- Node13&#45;&gt;Node14 -->
<g id="edge13_Node000013_Node000014" class="edge">
<title>Node13&#45;&gt;Node14</title>
<g id="a_edge13_Node000013_Node000014"><a xlink:title=" ">
<path fill="none" stroke="#63b8ff" d="M297.39,-433.62C311.19,-433.62 325.54,-433.62 339.02,-433.62"/>
<polygon fill="#63b8ff" stroke="#63b8ff" points="297.46,-430.13 287.46,-433.63 297.46,-437.13 297.46,-430.13"/>
</a>
</g>
</g>
<!-- Node15 -->
<g id="Node000015" class="node">
<title>Node15</title>
<g id="a_Node000015"><a xlink:href="../../db/d35/classfloppy_1_1math_1_1point2d.html" target="_top" xlink:title="A two&#45;dimensional point tagged with a unit.">
<polygon fill="white" stroke="#666666" points="613.75,-480.25 522.75,-480.25 522.75,-461 613.75,-461 613.75,-480.25"/>
<text text-anchor="middle" x="568.25" y="-465.8" font-family="Arial" font-size="11.00">point2d&lt; U, T &gt;</text>
</a>
</g>
</g>
<!-- Node14&#45;&gt;Node15 -->
<g id="edge14_Node000014_Node000015" class="edge">
<title>Node14&#45;&gt;Node15</title>
<g id="a_edge14_Node000014_Node000015"><a xlink:title=" ">
<path fill="none" stroke="#63b8ff" d="M476.75,-450.16C492.48,-453.72 508.65,-457.37 522.89,-460.59"/>
<polygon fill="#63b8ff" stroke="#63b8ff" points="477.95,-446.84 467.43,-448.05 476.41,-453.67 477.95,-446.84"/>
</a>
</g>
</g>
<!-- Node16 -->
<g id="Node000016" class="node">
<title>Node16</title>
<g id="a_Node000016"><a xlink:href="../../d0/d22/classfloppy_1_1math_1_1size2d.html" target="_top" xlink:title="A two&#45;dimensional size2d tagged with a unit.">
<polygon fill="white" stroke="#666666" points="611.5,-443.25 525,-443.25 525,-424 611.5,-424 611.5,-443.25"/>
<text text-anchor="middle" x="568.25" y="-428.8" font-family="Arial" font-size="11.00">size2d&lt; U, T &gt;</text>
</a>
</g>
</g>
<!-- Node14&#45;&gt;Node16 -->
<g id="edge15_Node000014_Node000016" class="edge">
<title>Node14&#45;&gt;Node16</title>
<g id="a_edge15_Node000014_Node000016"><a xlink:title=" ">
<path fill="none" stroke="#63b8ff" d="M477.16,-433.62C493.51,-433.62 510.29,-433.62 524.88,-433.62"/>
<polygon fill="#63b8ff" stroke="#63b8ff" points="477.46,-430.13 467.46,-433.63 477.46,-437.13 477.46,-430.13"/>
</a>
</g>
</g>
<!-- Node17 -->
<g id="Node000017" class="node">
<title>Node17</title>
<g id="a_Node000017"><a xlink:href="../../d4/d33/classfloppy_1_1math_1_1vector2d.html" target="_top" xlink:title="A two&#45;dimensional vector tagged with a unit.">
<polygon fill="white" stroke="#666666" points="616.75,-406.25 519.75,-406.25 519.75,-387 616.75,-387 616.75,-406.25"/>
<text text-anchor="middle" x="568.25" y="-391.8" font-family="Arial" font-size="11.00">vector2d&lt; U, T &gt;</text>
</a>
</g>
</g>
<!-- Node14&#45;&gt;Node17 -->
<g id="edge16_Node000014_Node000017" class="edge">
<title>Node14&#45;&gt;Node17</title>
<g id="a_edge16_Node000014_Node000017"><a xlink:title=" ">
<path fill="none" stroke="#63b8ff" d="M476.75,-417.09C492.48,-413.53 508.65,-409.88 522.89,-406.66"/>
<polygon fill="#63b8ff" stroke="#63b8ff" points="476.41,-413.58 467.43,-419.2 477.95,-420.41 476.41,-413.58"/>
</a>
</g>
</g>
<!-- Node24 -->
<g id="Node000024" class="node">
<title>Node24</title>
<g id="a_Node000024"><a xlink:href="../../d7/dd8/structfloppy_1_1math_1_1detail_1_1basic__two__dimensional__type.html" target="_top" xlink:title=" ">
<polygon fill="white" stroke="#666666" points="483.75,-273.5 321.5,-273.5 321.5,-231.75 483.75,-231.75 483.75,-273.5"/>
<text text-anchor="start" x="329.5" y="-259.05" font-family="Arial" font-size="11.00">basic_two_dimensional</text>
<text text-anchor="start" x="329.5" y="-247.8" font-family="Arial" font-size="11.00">_type&lt; point2d&lt; default</text>
<text text-anchor="middle" x="402.62" y="-236.55" font-family="Arial" font-size="11.00">_unit, f32 &gt;, default_unit, f32 &gt;</text>
</a>
</g>
</g>
<!-- Node23&#45;&gt;Node24 -->
<g id="edge23_Node000023_Node000024" class="edge">
<title>Node23&#45;&gt;Node24</title>
<g id="a_edge23_Node000023_Node000024"><a xlink:title=" ">
<path fill="none" stroke="#63b8ff" d="M282.12,-123.73C283.3,-124.64 284.43,-125.61 285.5,-126.62 318.57,-157.98 289.27,-190.41 321.5,-222.62 324.76,-225.88 328.4,-228.79 332.29,-231.38"/>
<polygon fill="#63b8ff" stroke="#63b8ff" points="284.01,-120.78 273.66,-118.49 280.32,-126.73 284.01,-120.78"/>
</a>
</g>
</g>
<!-- Node25 -->
<g id="Node000025" class="node">
<title>Node25</title>
<g id="a_Node000025"><a xlink:href="../../d7/dd8/structfloppy_1_1math_1_1detail_1_1basic__two__dimensional__type.html" target="_top" xlink:title=" ">
<polygon fill="white" stroke="#666666" points="483.75,-213.5 321.5,-213.5 321.5,-171.75 483.75,-171.75 483.75,-213.5"/>
<text text-anchor="start" x="329.5" y="-199.05" font-family="Arial" font-size="11.00">basic_two_dimensional</text>
<text text-anchor="start" x="329.5" y="-187.8" font-family="Arial" font-size="11.00">_type&lt; size2d&lt; default</text>
<text text-anchor="middle" x="402.62" y="-176.55" font-family="Arial" font-size="11.00">_unit, f32 &gt;, default_unit, f32 &gt;</text>
</a>
</g>
</g>
<!-- Node23&#45;&gt;Node25 -->
<g id="edge24_Node000023_Node000025" class="edge">
<title>Node23&#45;&gt;Node25</title>
<g id="a_edge24_Node000023_Node000025"><a xlink:title=" ">
<path fill="none" stroke="#63b8ff" d="M276.92,-122.05C279.89,-123.45 282.77,-124.97 285.5,-126.62 304.84,-138.36 302.47,-150.38 321.5,-162.62 326.37,-165.76 331.62,-168.64 337.01,-171.26"/>
<polygon fill="#63b8ff" stroke="#63b8ff" points="278.57,-118.94 267.99,-118.33 275.88,-125.4 278.57,-118.94"/>
</a>
</g>
</g>
<!-- Node26 -->
<g id="Node000026" class="node">
<title>Node26</title>
<g id="a_Node000026"><a xlink:href="../../d7/dd8/structfloppy_1_1math_1_1detail_1_1basic__two__dimensional__type.html" target="_top" xlink:title=" ">
<polygon fill="white" stroke="#666666" points="483.75,-153.5 321.5,-153.5 321.5,-111.75 483.75,-111.75 483.75,-153.5"/>
<text text-anchor="start" x="329.5" y="-139.05" font-family="Arial" font-size="11.00">basic_two_dimensional</text>
<text text-anchor="start" x="329.5" y="-127.8" font-family="Arial" font-size="11.00">_type&lt; vector2d&lt; default</text>
<text text-anchor="middle" x="402.62" y="-116.55" font-family="Arial" font-size="11.00">_unit, f32 &gt;, default_unit, f32 &gt;</text>
</a>
</g>
</g>
<!-- Node23&#45;&gt;Node26 -->
<g id="edge25_Node000023_Node000026" class="edge">
<title>Node23&#45;&gt;Node26</title>
<g id="a_edge25_Node000023_Node000026"><a xlink:title=" ">
<path fill="none" stroke="#63b8ff" d="M290.96,-116.94C300.81,-118.34 311.07,-119.79 321.19,-121.22"/>
<polygon fill="#63b8ff" stroke="#63b8ff" points="291.5,-113.48 281.11,-115.54 290.52,-120.41 291.5,-113.48"/>
</a>
</g>
</g>
<!-- Node27 -->
<g id="Node000027" class="node">
<title>Node27</title>
<g id="a_Node000027"><a xlink:href="../../de/d4d/structfloppy_1_1math_1_1angle.html" target="_top" xlink:title="Newtype describing an angle.">
<polygon fill="white" stroke="#666666" points="436.88,-93.25 368.38,-93.25 368.38,-74 436.88,-74 436.88,-93.25"/>
<text text-anchor="middle" x="402.62" y="-78.8" font-family="Arial" font-size="11.00">angle&lt; T &gt;</text>
</a>
</g>
</g>
<!-- Node23&#45;&gt;Node27 -->
<g id="edge26_Node000023_Node000027" class="edge">
<title>Node23&#45;&gt;Node27</title>
<g id="a_edge26_Node000023_Node000027"><a xlink:title=" ">
<path fill="none" stroke="#63b8ff" d="M291.01,-98.68C317.2,-95.11 346.21,-91.17 367.95,-88.21"/>
<polygon fill="#63b8ff" stroke="#63b8ff" points="290.54,-95.21 281.11,-100.02 291.49,-102.14 290.54,-95.21"/>
</a>
</g>
</g>
<!-- Node28 -->
<g id="Node000028" class="node">
<title>Node28</title>
<g id="a_Node000028"><a xlink:href="../../dd/dd1/classfloppy_1_1math_1_1length.html" target="_top" xlink:title="A one&#45;dimensional distance with associated unit of measurement.">
<polygon fill="white" stroke="#666666" points="445.12,-56.25 360.12,-56.25 360.12,-37 445.12,-37 445.12,-56.25"/>
<text text-anchor="middle" x="402.62" y="-41.8" font-family="Arial" font-size="11.00">length&lt; U, T &gt;</text>
</a>
</g>
</g>
<!-- Node23&#45;&gt;Node28 -->
<g id="edge27_Node000023_Node000028" class="edge">
<title>Node23&#45;&gt;Node28</title>
<g id="a_edge27_Node000023_Node000028"><a xlink:title=" ">
<path fill="none" stroke="#63b8ff" d="M254.95,-92.51C273.67,-83.45 298.56,-72.24 321.5,-64.62 333.81,-60.54 347.5,-57.08 360.02,-54.32"/>
<polygon fill="#63b8ff" stroke="#63b8ff" points="253.48,-89.33 246.06,-96.88 256.58,-95.61 253.48,-89.33"/>
</a>
</g>
</g>
<!-- Node29 -->
<g id="Node000029" class="node">
<title>Node29</title>
<g id="a_Node000029"><a xlink:href="../../db/db2/structfloppy_1_1math_1_1scale.html" target="_top" xlink:title="A scaling factor between two different units of measurement.">
<polygon fill="white" stroke="#666666" points="450,-19.25 355.25,-19.25 355.25,0 450,0 450,-19.25"/>
<text text-anchor="middle" x="402.62" y="-4.8" font-family="Arial" font-size="11.00">scale&lt; S, D, T &gt;</text>
</a>
</g>
</g>
<!-- Node23&#45;&gt;Node29 -->
<g id="edge28_Node000023_Node000029" class="edge">
<title>Node23&#45;&gt;Node29</title>
<g id="a_edge28_Node000023_Node000029"><a xlink:title=" ">
<path fill="none" stroke="#63b8ff" d="M242.02,-89.32C259.92,-70.92 290,-43.12 321.5,-27.62 331.86,-22.53 343.69,-18.85 355.02,-16.21"/>
<polygon fill="#63b8ff" stroke="#63b8ff" points="239.64,-86.75 235.3,-96.41 244.72,-91.56 239.64,-86.75"/>
</a>
</g>
</g>
</g>
</svg>

<g id="navigator" transform="translate(0 0)" fill="#404254">
  <rect fill="#f2f5e9" fill-opacity="0.5" stroke="#606060" stroke-width=".5" x="0" y="0" width="60" height="60"/>
  <use id="zoomplus" xlink:href="#zoomPlus" x="17" y="9" onmousedown="handleZoom(evt,'in')"/>
  <use id="zoomminus" xlink:href="#zoomMin" x="42" y="9" onmousedown="handleZoom(evt,'out')"/>
  <use id="reset" xlink:href="#resetDef" x="30" y="36" onmousedown="handleReset()"/>
   <use id="arrowup" xlink:href="#arrowUp" x="0" y="0" onmousedown="handlePan(0,-1)"/>
  <use id="arrowright" xlink:href="#arrowRight" x="0" y="0" onmousedown="handlePan(1,0)"/>
  <use id="arrowdown" xlink:href="#arrowDown" x="0" y="0" onmousedown="handlePan(0,1)"/>
  <use id="arrowleft" xlink:href="#arrowLeft" x="0" y="0" onmousedown="handlePan(-1,0)"/>
</g>
<svg viewBox="0 0 15 15" width="100%" height="30px" preserveAspectRatio="xMaxYMin meet">
 <g id="arrow_out" transform="scale(0.3 0.3)">
  <a xlink:href="structfloppy_1_1traits_1_1detail_1_1formattable__base__inherit__graph_org.svg" target="_base">
   <rect id="button" ry="5" rx="5" y="6" x="6" height="38" width="38"
        fill="#f2f5e9" fill-opacity="0.5" stroke="#606060" stroke-width="1.0"/>
   <path id="arrow"
     d="M 11.500037,31.436501 C 11.940474,20.09759 22.043105,11.32322 32.158766,21.979434 L 37.068811,17.246167 C 37.068811,17.246167 37.088388,32 37.088388,32 L 22.160133,31.978069 C 22.160133,31.978069 26.997745,27.140456 26.997745,27.140456 C 18.528582,18.264221 13.291696,25.230495 11.500037,31.436501 z"
     style="fill:#404040;"/>
  </a>
 </g>
</svg>

<style type='text/css'>
<![CDATA[
[data-mouse-over-selected='false'] { opacity: 0.7; }
[data-mouse-over-selected='true']  { opacity: 1.0; }
]]>
</style>
<script type="application/ecmascript"><![CDATA[
document.addEventListener('DOMContentLoaded', (event) => {
  highlightEdges();
  highlightAdjacentNodes();
});
]]></script>
</svg>
