<?xml version="1.0" encoding="UTF-8" standalone="no"?>
<!DOCTYPE svg PUBLIC "-//W3C//DTD SVG 1.1//EN"
 "http://www.w3.org/Graphics/SVG/1.1/DTD/svg11.dtd">
<!-- Generated by graphviz version 10.0.1 (0)
 -->
<!-- Title: formattable_base&lt; C &gt; Pages: 1 -->
<svg width="625pt" height="771pt"
 viewBox="0.00 0.00 624.75 771.25" xmlns="http://www.w3.org/2000/svg" xmlns:xlink="http://www.w3.org/1999/xlink">
<g id="graph0" class="graph" transform="scale(1 1) rotate(0) translate(4 767.25)">
<title>formattable_base&lt; C &gt;</title>
<!-- Node1 -->
<g id="Node000001" class="node">
<title>Node1</title>
<g id="a_Node000001"><a xlink:title="Interface, providing to_string method.">
<polygon fill="#999999" stroke="#666666" points="127,-443.25 0,-443.25 0,-424 127,-424 127,-443.25"/>
<text text-anchor="middle" x="63.5" y="-428.8" font-family="Arial" font-size="11.00">formattable_base&lt; C &gt;</text>
</a>
</g>
</g>
<!-- Node2 -->
<g id="Node000002" class="node">
<title>Node2</title>
<g id="a_Node000002"><a xlink:href="../../db/d59/structfloppy_1_1traits_1_1formattable.html" target="_top" xlink:title=" ">
<polygon fill="white" stroke="#666666" points="276.88,-756.88 171.62,-756.88 171.62,-726.38 276.88,-726.38 276.88,-756.88"/>
<text text-anchor="start" x="179.62" y="-742.42" font-family="Arial" font-size="11.00">formattable&lt; color,</text>
<text text-anchor="middle" x="224.25" y="-731.17" font-family="Arial" font-size="11.00"> char &gt;</text>
</a>
</g>
</g>
<!-- Node1&#45;&gt;Node2 -->
<g id="edge1_Node000001_Node000002" class="edge">
<title>Node1&#45;&gt;Node2</title>
<g id="a_edge1_Node000001_Node000002"><a xlink:title=" ">
<path fill="none" stroke="#63b8ff" d="M67.77,-454.77C76.11,-502.91 101.98,-622.54 163,-700.62 170.95,-710.79 182.13,-719.37 192.7,-726"/>
<polygon fill="#63b8ff" stroke="#63b8ff" points="71.27,-454.45 66.19,-445.15 64.36,-455.59 71.27,-454.45"/>
</a>
</g>
</g>
<!-- Node4 -->
<g id="Node000004" class="node">
<title>Node4</title>
<g id="a_Node000004"><a xlink:href="../../db/d59/structfloppy_1_1traits_1_1formattable.html" target="_top" xlink:title=" ">
<polygon fill="white" stroke="#666666" points="275.75,-691.88 172.75,-691.88 172.75,-661.38 275.75,-661.38 275.75,-691.88"/>
<text text-anchor="start" x="180.75" y="-677.42" font-family="Arial" font-size="11.00">formattable&lt; color</text>
<text text-anchor="middle" x="224.25" y="-666.17" font-family="Arial" font-size="11.00">::hsv_t, char &gt;</text>
</a>
</g>
</g>
<!-- Node1&#45;&gt;Node4 -->
<g id="edge3_Node000001_Node000004" class="edge">
<title>Node1&#45;&gt;Node4</title>
<g id="a_edge3_Node000001_Node000004"><a xlink:title=" ">
<path fill="none" stroke="#63b8ff" d="M69.11,-454.7C79.25,-496.5 107.14,-590.79 163,-647.62 168.13,-652.84 174.38,-657.25 180.89,-660.92"/>
<polygon fill="#63b8ff" stroke="#63b8ff" points="72.53,-453.94 66.87,-444.98 65.71,-455.51 72.53,-453.94"/>
</a>
</g>
</g>
<!-- Node8 -->
<g id="Node000008" class="node">
<title>Node8</title>
<g id="a_Node000008"><a xlink:href="../../db/d59/structfloppy_1_1traits_1_1formattable.html" target="_top" xlink:title=" ">
<polygon fill="white" stroke="#666666" points="275.75,-638.88 172.75,-638.88 172.75,-608.38 275.75,-608.38 275.75,-638.88"/>
<text text-anchor="start" x="180.75" y="-624.42" font-family="Arial" font-size="11.00">formattable&lt; color</text>
<text text-anchor="middle" x="224.25" y="-613.17" font-family="Arial" font-size="11.00">::hsl_t, char &gt;</text>
</a>
</g>
</g>
<!-- Node1&#45;&gt;Node8 -->
<g id="edge7_Node000001_Node000008" class="edge">
<title>Node1&#45;&gt;Node8</title>
<g id="a_edge7_Node000001_Node000008"><a xlink:title=" ">
<path fill="none" stroke="#63b8ff" d="M71.83,-454.25C85.02,-488.62 115.82,-557.83 163,-598.62 167.11,-602.18 171.8,-605.28 176.7,-607.97"/>
<polygon fill="#63b8ff" stroke="#63b8ff" points="75.19,-453.24 68.43,-445.08 68.63,-455.67 75.19,-453.24"/>
</a>
</g>
</g>
<!-- Node10 -->
<g id="Node000010" class="node">
<title>Node10</title>
<g id="a_Node000010"><a xlink:href="../../db/d59/structfloppy_1_1traits_1_1formattable.html" target="_top" xlink:title=" ">
<polygon fill="white" stroke="#666666" points="275.75,-589.88 172.75,-589.88 172.75,-559.38 275.75,-559.38 275.75,-589.88"/>
<text text-anchor="start" x="180.75" y="-575.42" font-family="Arial" font-size="11.00">formattable&lt; color</text>
<text text-anchor="middle" x="224.25" y="-564.17" font-family="Arial" font-size="11.00">::hsla_t, char &gt;</text>
</a>
</g>
</g>
<!-- Node1&#45;&gt;Node10 -->
<g id="edge9_Node000001_Node000010" class="edge">
<title>Node1&#45;&gt;Node10</title>
<g id="a_edge9_Node000001_Node000010"><a xlink:title=" ">
<path fill="none" stroke="#63b8ff" d="M76.88,-453.31C93.65,-478.62 125.83,-522.52 163,-549.62 167.76,-553.09 173.07,-556.19 178.51,-558.91"/>
<polygon fill="#63b8ff" stroke="#63b8ff" points="79.85,-451.47 71.48,-444.98 73.98,-455.28 79.85,-451.47"/>
</a>
</g>
</g>
<!-- Node12 -->
<g id="Node000012" class="node">
<title>Node12</title>
<g id="a_Node000012"><a xlink:href="../../db/d59/structfloppy_1_1traits_1_1formattable.html" target="_top" xlink:title=" ">
<polygon fill="white" stroke="#666666" points="275.75,-540.88 172.75,-540.88 172.75,-510.38 275.75,-510.38 275.75,-540.88"/>
<text text-anchor="start" x="180.75" y="-526.42" font-family="Arial" font-size="11.00">formattable&lt; color</text>
<text text-anchor="middle" x="224.25" y="-515.17" font-family="Arial" font-size="11.00">::hsva_t, char &gt;</text>
</a>
</g>
</g>
<!-- Node1&#45;&gt;Node12 -->
<g id="edge11_Node000001_Node000012" class="edge">
<title>Node1&#45;&gt;Node12</title>
<g id="a_edge11_Node000001_Node000012"><a xlink:title=" ">
<path fill="none" stroke="#63b8ff" d="M86.53,-450.54C105.97,-464.98 135.42,-485.72 163,-500.62 169.08,-503.91 175.68,-507.05 182.21,-509.92"/>
<polygon fill="#63b8ff" stroke="#63b8ff" points="88.64,-447.75 78.55,-444.53 84.44,-453.34 88.64,-447.75"/>
</a>
</g>
</g>
<!-- Node14 -->
<g id="Node000014" class="node">
<title>Node14</title>
<g id="a_Node000014"><a xlink:href="../../db/d59/structfloppy_1_1traits_1_1formattable.html" target="_top" xlink:title=" ">
<polygon fill="white" stroke="#666666" points="277.25,-491.88 171.25,-491.88 171.25,-461.38 277.25,-461.38 277.25,-491.88"/>
<text text-anchor="start" x="179.25" y="-477.43" font-family="Arial" font-size="11.00">formattable&lt; angle</text>
<text text-anchor="middle" x="224.25" y="-466.18" font-family="Arial" font-size="11.00">&lt; f32 &gt;, char &gt;</text>
</a>
</g>
</g>
<!-- Node1&#45;&gt;Node14 -->
<g id="edge13_Node000001_Node000014" class="edge">
<title>Node1&#45;&gt;Node14</title>
<g id="a_edge13_Node000001_Node000014"><a xlink:title=" ">
<path fill="none" stroke="#63b8ff" d="M112.78,-446.7C131.17,-451.68 152.2,-457.38 170.94,-462.46"/>
<polygon fill="#63b8ff" stroke="#63b8ff" points="113.75,-443.34 103.18,-444.1 111.92,-450.1 113.75,-443.34"/>
</a>
</g>
</g>
<!-- Node15 -->
<g id="Node000015" class="node">
<title>Node15</title>
<g id="a_Node000015"><a xlink:href="../../db/d59/structfloppy_1_1traits_1_1formattable.html" target="_top" xlink:title=" ">
<polygon fill="white" stroke="#666666" points="285.5,-443.25 163,-443.25 163,-424 285.5,-424 285.5,-443.25"/>
<text text-anchor="middle" x="224.25" y="-428.8" font-family="Arial" font-size="11.00">formattable&lt; T, char &gt;</text>
</a>
</g>
</g>
<!-- Node1&#45;&gt;Node15 -->
<g id="edge14_Node000001_Node000015" class="edge">
<title>Node1&#45;&gt;Node15</title>
<g id="a_edge14_Node000001_Node000015"><a xlink:title=" ">
<path fill="none" stroke="#63b8ff" d="M138.52,-433.62C146.56,-433.62 154.67,-433.62 162.52,-433.62"/>
<polygon fill="#63b8ff" stroke="#63b8ff" points="138.76,-430.13 128.76,-433.63 138.76,-437.13 138.76,-430.13"/>
</a>
</g>
</g>
<!-- Node20 -->
<g id="Node000020" class="node">
<title>Node20</title>
<g id="a_Node000020"><a xlink:href="../../db/d59/structfloppy_1_1traits_1_1formattable.html" target="_top" xlink:title=" ">
<polygon fill="white" stroke="#666666" points="278.75,-405.5 169.75,-405.5 169.75,-363.75 278.75,-363.75 278.75,-405.5"/>
<text text-anchor="start" x="177.75" y="-391.05" font-family="Arial" font-size="11.00">formattable&lt; length</text>
<text text-anchor="start" x="177.75" y="-379.8" font-family="Arial" font-size="11.00">&lt; default_unit, f32</text>
<text text-anchor="middle" x="224.25" y="-368.55" font-family="Arial" font-size="11.00"> &gt;, char &gt;</text>
</a>
</g>
</g>
<!-- Node1&#45;&gt;Node20 -->
<g id="edge19_Node000001_Node000020" class="edge">
<title>Node1&#45;&gt;Node20</title>
<g id="a_edge19_Node000001_Node000020"><a xlink:title=" ">
<path fill="none" stroke="#63b8ff" d="M107.78,-420.27C126.83,-414.39 149.41,-407.42 169.53,-401.21"/>
<polygon fill="#63b8ff" stroke="#63b8ff" points="106.98,-416.85 98.45,-423.14 109.04,-423.54 106.98,-416.85"/>
</a>
</g>
</g>
<!-- Node21 -->
<g id="Node000021" class="node">
<title>Node21</title>
<g id="a_Node000021"><a xlink:href="../../db/d59/structfloppy_1_1traits_1_1formattable.html" target="_top" xlink:title=" ">
<polygon fill="white" stroke="#666666" points="281.75,-345.5 166.75,-345.5 166.75,-303.75 281.75,-303.75 281.75,-345.5"/>
<text text-anchor="start" x="174.75" y="-331.05" font-family="Arial" font-size="11.00">formattable&lt; point2d</text>
<text text-anchor="start" x="174.75" y="-319.8" font-family="Arial" font-size="11.00">&lt; default_unit, f32 &gt;</text>
<text text-anchor="middle" x="224.25" y="-308.55" font-family="Arial" font-size="11.00">, char &gt;</text>
</a>
</g>
</g>
<!-- Node1&#45;&gt;Node21 -->
<g id="edge20_Node000001_Node000021" class="edge">
<title>Node1&#45;&gt;Node21</title>
<g id="a_edge20_Node000001_Node000021"><a xlink:title=" ">
<path fill="none" stroke="#63b8ff" d="M83.88,-416C103.09,-399.05 133.8,-373.3 163,-354.62 167.73,-351.6 172.8,-348.66 177.92,-345.87"/>
<polygon fill="#63b8ff" stroke="#63b8ff" points="81.68,-413.27 76.56,-422.54 86.35,-418.49 81.68,-413.27"/>
</a>
</g>
</g>
<!-- Node22 -->
<g id="Node000022" class="node">
<title>Node22</title>
<g id="a_Node000022"><a xlink:href="../../db/d59/structfloppy_1_1traits_1_1formattable.html" target="_top" xlink:title=" ">
<polygon fill="white" stroke="#666666" points="281.75,-285.88 166.75,-285.88 166.75,-255.38 281.75,-255.38 281.75,-285.88"/>
<text text-anchor="start" x="174.75" y="-271.43" font-family="Arial" font-size="11.00">formattable&lt; scale</text>
<text text-anchor="middle" x="224.25" y="-260.18" font-family="Arial" font-size="11.00">&lt; S, D, f32 &gt;, char &gt;</text>
</a>
</g>
</g>
<!-- Node1&#45;&gt;Node22 -->
<g id="edge21_Node000001_Node000022" class="edge">
<title>Node1&#45;&gt;Node22</title>
<g id="a_edge21_Node000001_Node000022"><a xlink:title=" ">
<path fill="none" stroke="#63b8ff" d="M73.88,-413.73C88.84,-383.99 120.75,-327.87 163,-294.62 166.98,-291.49 171.43,-288.72 176.05,-286.28"/>
<polygon fill="#63b8ff" stroke="#63b8ff" points="70.9,-411.86 69.66,-422.38 77.19,-414.93 70.9,-411.86"/>
</a>
</g>
</g>
<!-- Node23 -->
<g id="Node000023" class="node">
<title>Node23</title>
<g id="a_Node000023"><a xlink:href="../../db/d59/structfloppy_1_1traits_1_1formattable.html" target="_top" xlink:title=" ">
<polygon fill="white" stroke="#666666" points="279.5,-237.5 169,-237.5 169,-195.75 279.5,-195.75 279.5,-237.5"/>
<text text-anchor="start" x="177" y="-223.05" font-family="Arial" font-size="11.00">formattable&lt; size2d</text>
<text text-anchor="start" x="177" y="-211.8" font-family="Arial" font-size="11.00">&lt; default_unit, f32</text>
<text text-anchor="middle" x="224.25" y="-200.55" font-family="Arial" font-size="11.00"> &gt;, char &gt;</text>
</a>
</g>
</g>
<!-- Node1&#45;&gt;Node23 -->
<g id="edge22_Node000001_Node000023" class="edge">
<title>Node1&#45;&gt;Node23</title>
<g id="a_edge22_Node000001_Node000023"><a xlink:title=" ">
<path fill="none" stroke="#63b8ff" d="M70.58,-413.23C82.62,-375.85 112.8,-295.69 163,-246.62 166.26,-243.44 169.92,-240.53 173.79,-237.88"/>
<polygon fill="#63b8ff" stroke="#63b8ff" points="67.37,-411.74 67.75,-422.32 74.06,-413.81 67.37,-411.74"/>
</a>
</g>
</g>
<!-- Node24 -->
<g id="Node000024" class="node">
<title>Node24</title>
<g id="a_Node000024"><a xlink:href="../../db/d59/structfloppy_1_1traits_1_1formattable.html" target="_top" xlink:title=" ">
<polygon fill="white" stroke="#666666" points="284.75,-177.5 163.75,-177.5 163.75,-135.75 284.75,-135.75 284.75,-177.5"/>
<text text-anchor="start" x="171.75" y="-163.05" font-family="Arial" font-size="11.00">formattable&lt; vector2d</text>
<text text-anchor="start" x="171.75" y="-151.8" font-family="Arial" font-size="11.00">&lt; default_unit, f32 &gt;</text>
<text text-anchor="middle" x="224.25" y="-140.55" font-family="Arial" font-size="11.00">, char &gt;</text>
</a>
</g>
</g>
<!-- Node1&#45;&gt;Node24 -->
<g id="edge23_Node000001_Node000024" class="edge">
<title>Node1&#45;&gt;Node24</title>
<g id="a_edge23_Node000001_Node000024"><a xlink:title=" ">
<path fill="none" stroke="#63b8ff" d="M67.74,-412.26C75.82,-365.76 100.83,-254.15 163,-186.62 165.93,-183.44 169.27,-180.56 172.84,-177.94"/>
<polygon fill="#63b8ff" stroke="#63b8ff" points="64.3,-411.63 66.14,-422.06 71.21,-412.76 64.3,-411.63"/>
</a>
</g>
</g>
<!-- Node25 -->
<g id="Node000025" class="node">
<title>Node25</title>
<g id="a_Node000025"><a xlink:href="../../db/d59/structfloppy_1_1traits_1_1formattable.html" target="_top" xlink:title="Allows type to be converted to string and printed via standard streams or fmt.">
<polygon fill="white" stroke="#666666" points="279.12,-117.25 169.38,-117.25 169.38,-98 279.12,-98 279.12,-117.25"/>
<text text-anchor="middle" x="224.25" y="-102.8" font-family="Arial" font-size="11.00">formattable&lt; T, C &gt;</text>
</a>
</g>
</g>
<!-- Node1&#45;&gt;Node25 -->
<g id="edge24_Node000001_Node000025" class="edge">
<title>Node1&#45;&gt;Node25</title>
<g id="a_edge24_Node000001_Node000025"><a xlink:title=" ">
<path fill="none" stroke="#63b8ff" d="M64.95,-412.36C67.29,-357.16 81.27,-207.95 163,-126.62 166.65,-122.99 171,-120.05 175.65,-117.67"/>
<polygon fill="#63b8ff" stroke="#63b8ff" points="61.46,-412.12 64.63,-422.23 68.45,-412.35 61.46,-412.12"/>
</a>
</g>
</g>
<!-- Node3 -->
<g id="Node000003" class="node">
<title>Node3</title>
<g id="a_Node000003"><a xlink:href="../../de/da8/classfloppy_1_1gfx_1_1color.html" target="_top" xlink:title="Class representing a color.">
<polygon fill="white" stroke="#666666" points="422.25,-763.25 383,-763.25 383,-744 422.25,-744 422.25,-763.25"/>
<text text-anchor="middle" x="402.62" y="-748.8" font-family="Arial" font-size="11.00">color</text>
</a>
</g>
</g>
<!-- Node2&#45;&gt;Node3 -->
<g id="edge2_Node000002_Node000003" class="edge">
<title>Node2&#45;&gt;Node3</title>
<g id="a_edge2_Node000002_Node000003"><a xlink:title=" ">
<path fill="none" stroke="#63b8ff" d="M288.31,-745.92C321.73,-748.19 360.39,-750.82 382.82,-752.35"/>
<polygon fill="#63b8ff" stroke="#63b8ff" points="288.94,-742.45 278.72,-745.26 288.46,-749.43 288.94,-742.45"/>
</a>
</g>
</g>
<!-- Node5 -->
<g id="Node000005" class="node">
<title>Node5</title>
<g id="a_Node000005"><a xlink:href="../../db/d46/structfloppy_1_1gfx_1_1color_1_1cmyk__t.html" target="_top" xlink:title=" ">
<polygon fill="white" stroke="#bfbfbf" points="427.5,-726.25 377.75,-726.25 377.75,-707 427.5,-707 427.5,-726.25"/>
<text text-anchor="middle" x="402.62" y="-711.8" font-family="Arial" font-size="11.00">cmyk_t</text>
</a>
</g>
</g>
<!-- Node4&#45;&gt;Node5 -->
<g id="edge4_Node000004_Node000005" class="edge">
<title>Node4&#45;&gt;Node5</title>
<g id="a_edge4_Node000004_Node000005"><a xlink:title=" ">
<path fill="none" stroke="#63b8ff" d="M287.37,-690.86C298.72,-693.45 310.47,-696.12 321.5,-698.62 340.27,-702.88 361.53,-707.65 377.43,-711.21"/>
<polygon fill="#63b8ff" stroke="#63b8ff" points="288.2,-687.46 277.67,-688.64 286.64,-694.28 288.2,-687.46"/>
</a>
</g>
</g>
<!-- Node6 -->
<g id="Node000006" class="node">
<title>Node6</title>
<g id="a_Node000006"><a xlink:href="../../d0/d56/structfloppy_1_1gfx_1_1color_1_1cmyka__t.html" target="_top" xlink:title=" ">
<polygon fill="white" stroke="#bfbfbf" points="430.5,-689.25 374.75,-689.25 374.75,-670 430.5,-670 430.5,-689.25"/>
<text text-anchor="middle" x="402.62" y="-674.8" font-family="Arial" font-size="11.00">cmyka_t</text>
</a>
</g>
</g>
<!-- Node4&#45;&gt;Node6 -->
<g id="edge5_Node000004_Node000006" class="edge">
<title>Node4&#45;&gt;Node6</title>
<g id="a_edge5_Node000004_Node000006"><a xlink:title=" ">
<path fill="none" stroke="#63b8ff" d="M287.01,-677.68C316.93,-678.18 351.32,-678.77 374.56,-679.16"/>
<polygon fill="#63b8ff" stroke="#63b8ff" points="287.36,-674.18 277.31,-677.51 287.24,-681.18 287.36,-674.18"/>
</a>
</g>
</g>
<!-- Node7 -->
<g id="Node000007" class="node">
<title>Node7</title>
<g id="a_Node000007"><a xlink:href="../../df/de6/structfloppy_1_1gfx_1_1color_1_1hsv__t.html" target="_top" xlink:title="HSV color representation.">
<polygon fill="white" stroke="#666666" points="423.38,-652.25 381.88,-652.25 381.88,-633 423.38,-633 423.38,-652.25"/>
<text text-anchor="middle" x="402.62" y="-637.8" font-family="Arial" font-size="11.00">hsv_t</text>
</a>
</g>
</g>
<!-- Node4&#45;&gt;Node7 -->
<g id="edge6_Node000004_Node000007" class="edge">
<title>Node4&#45;&gt;Node7</title>
<g id="a_edge6_Node000004_Node000007"><a xlink:title=" ">
<path fill="none" stroke="#63b8ff" d="M286.8,-664.76C319.97,-658.37 358.69,-650.9 381.63,-646.48"/>
<polygon fill="#63b8ff" stroke="#63b8ff" points="286.43,-661.27 277.28,-666.6 287.76,-668.14 286.43,-661.27"/>
</a>
</g>
</g>
<!-- Node9 -->
<g id="Node000009" class="node">
<title>Node9</title>
<g id="a_Node000009"><a xlink:href="../../dc/df5/structfloppy_1_1gfx_1_1color_1_1hsl__t.html" target="_top" xlink:title="HSL color representation.">
<polygon fill="white" stroke="#666666" points="421.88,-615.25 383.38,-615.25 383.38,-596 421.88,-596 421.88,-615.25"/>
<text text-anchor="middle" x="402.62" y="-600.8" font-family="Arial" font-size="11.00">hsl_t</text>
</a>
</g>
</g>
<!-- Node8&#45;&gt;Node9 -->
<g id="edge8_Node000008_Node000009" class="edge">
<title>Node8&#45;&gt;Node9</title>
<g id="a_edge8_Node000008_Node000009"><a xlink:title=" ">
<path fill="none" stroke="#63b8ff" d="M286.99,-617.32C320.76,-613.88 360.23,-609.85 382.94,-607.53"/>
<polygon fill="#63b8ff" stroke="#63b8ff" points="286.89,-613.82 277.3,-618.31 287.6,-620.78 286.89,-613.82"/>
</a>
</g>
</g>
<!-- Node11 -->
<g id="Node000011" class="node">
<title>Node11</title>
<g id="a_Node000011"><a xlink:href="../../d2/d0e/structfloppy_1_1gfx_1_1color_1_1hsla__t.html" target="_top" xlink:title="HSLA color representation.">
<polygon fill="white" stroke="#666666" points="424.88,-578.25 380.38,-578.25 380.38,-559 424.88,-559 424.88,-578.25"/>
<text text-anchor="middle" x="402.62" y="-563.8" font-family="Arial" font-size="11.00">hsla_t</text>
</a>
</g>
</g>
<!-- Node10&#45;&gt;Node11 -->
<g id="edge10_Node000010_Node000011" class="edge">
<title>Node10&#45;&gt;Node11</title>
<g id="a_edge10_Node000010_Node000011"><a xlink:title=" ">
<path fill="none" stroke="#63b8ff" d="M287.03,-572.52C319.51,-571.42 357.25,-570.13 380.28,-569.35"/>
<polygon fill="#63b8ff" stroke="#63b8ff" points="287.18,-569.02 277.3,-572.85 287.42,-576.01 287.18,-569.02"/>
</a>
</g>
</g>
<!-- Node13 -->
<g id="Node000013" class="node">
<title>Node13</title>
<g id="a_Node000013"><a xlink:href="../../dd/dc9/structfloppy_1_1gfx_1_1color_1_1hsva__t.html" target="_top" xlink:title="HSVA color representation.">
<polygon fill="white" stroke="#666666" points="426.38,-535.25 378.88,-535.25 378.88,-516 426.38,-516 426.38,-535.25"/>
<text text-anchor="middle" x="402.62" y="-520.8" font-family="Arial" font-size="11.00">hsva_t</text>
</a>
</g>
</g>
<!-- Node12&#45;&gt;Node13 -->
<g id="edge12_Node000012_Node000013" class="edge">
<title>Node12&#45;&gt;Node13</title>
<g id="a_edge12_Node000012_Node000013"><a xlink:title=" ">
<path fill="none" stroke="#63b8ff" d="M287.17,-525.62C318.76,-525.62 355.3,-525.62 378.43,-525.62"/>
<polygon fill="#63b8ff" stroke="#63b8ff" points="287.31,-522.13 277.31,-525.63 287.31,-529.13 287.31,-522.13"/>
</a>
</g>
</g>
<!-- Node16 -->
<g id="Node000016" class="node">
<title>Node16</title>
<g id="a_Node000016"><a xlink:href="../../d7/dd8/structfloppy_1_1math_1_1detail_1_1basic__two__dimensional__type.html" target="_top" xlink:title=" ">
<polygon fill="white" stroke="#bfbfbf" points="465.75,-448.88 339.5,-448.88 339.5,-418.38 465.75,-418.38 465.75,-448.88"/>
<text text-anchor="start" x="347.5" y="-434.43" font-family="Arial" font-size="11.00">basic_two_dimensional</text>
<text text-anchor="middle" x="402.62" y="-423.18" font-family="Arial" font-size="11.00">_type&lt; T, U, N &gt;</text>
</a>
</g>
</g>
<!-- Node15&#45;&gt;Node16 -->
<g id="edge15_Node000015_Node000016" class="edge">
<title>Node15&#45;&gt;Node16</title>
<g id="a_edge15_Node000015_Node000016"><a xlink:title=" ">
<path fill="none" stroke="#63b8ff" d="M297.39,-433.62C311.19,-433.62 325.54,-433.62 339.02,-433.62"/>
<polygon fill="#63b8ff" stroke="#63b8ff" points="297.46,-430.13 287.46,-433.63 297.46,-437.13 297.46,-430.13"/>
</a>
</g>
</g>
<!-- Node17 -->
<g id="Node000017" class="node">
<title>Node17</title>
<g id="a_Node000017"><a xlink:href="../../db/d35/classfloppy_1_1math_1_1point2d.html" target="_top" xlink:title="A two&#45;dimensional point tagged with a unit.">
<polygon fill="white" stroke="#666666" points="613.75,-480.25 522.75,-480.25 522.75,-461 613.75,-461 613.75,-480.25"/>
<text text-anchor="middle" x="568.25" y="-465.8" font-family="Arial" font-size="11.00">point2d&lt; U, T &gt;</text>
</a>
</g>
</g>
<!-- Node16&#45;&gt;Node17 -->
<g id="edge16_Node000016_Node000017" class="edge">
<title>Node16&#45;&gt;Node17</title>
<g id="a_edge16_Node000016_Node000017"><a xlink:title=" ">
<path fill="none" stroke="#63b8ff" d="M476.75,-450.16C492.48,-453.72 508.65,-457.37 522.89,-460.59"/>
<polygon fill="#63b8ff" stroke="#63b8ff" points="477.95,-446.84 467.43,-448.05 476.41,-453.67 477.95,-446.84"/>
</a>
</g>
</g>
<!-- Node18 -->
<g id="Node000018" class="node">
<title>Node18</title>
<g id="a_Node000018"><a xlink:href="../../d0/d22/classfloppy_1_1math_1_1size2d.html" target="_top" xlink:title="A two&#45;dimensional size2d tagged with a unit.">
<polygon fill="white" stroke="#666666" points="611.5,-443.25 525,-443.25 525,-424 611.5,-424 611.5,-443.25"/>
<text text-anchor="middle" x="568.25" y="-428.8" font-family="Arial" font-size="11.00">size2d&lt; U, T &gt;</text>
</a>
</g>
</g>
<!-- Node16&#45;&gt;Node18 -->
<g id="edge17_Node000016_Node000018" class="edge">
<title>Node16&#45;&gt;Node18</title>
<g id="a_edge17_Node000016_Node000018"><a xlink:title=" ">
<path fill="none" stroke="#63b8ff" d="M477.16,-433.62C493.51,-433.62 510.29,-433.62 524.88,-433.62"/>
<polygon fill="#63b8ff" stroke="#63b8ff" points="477.46,-430.13 467.46,-433.63 477.46,-437.13 477.46,-430.13"/>
</a>
</g>
</g>
<!-- Node19 -->
<g id="Node000019" class="node">
<title>Node19</title>
<g id="a_Node000019"><a xlink:href="../../d4/d33/classfloppy_1_1math_1_1vector2d.html" target="_top" xlink:title="A two&#45;dimensional vector tagged with a unit.">
<polygon fill="white" stroke="#666666" points="616.75,-406.25 519.75,-406.25 519.75,-387 616.75,-387 616.75,-406.25"/>
<text text-anchor="middle" x="568.25" y="-391.8" font-family="Arial" font-size="11.00">vector2d&lt; U, T &gt;</text>
</a>
</g>
</g>
<!-- Node16&#45;&gt;Node19 -->
<g id="edge18_Node000016_Node000019" class="edge">
<title>Node16&#45;&gt;Node19</title>
<g id="a_edge18_Node000016_Node000019"><a xlink:title=" ">
<path fill="none" stroke="#63b8ff" d="M476.75,-417.09C492.48,-413.53 508.65,-409.88 522.89,-406.66"/>
<polygon fill="#63b8ff" stroke="#63b8ff" points="476.41,-413.58 467.43,-419.2 477.95,-420.41 476.41,-413.58"/>
</a>
</g>
</g>
<!-- Node26 -->
<g id="Node000026" class="node">
<title>Node26</title>
<g id="a_Node000026"><a xlink:href="../../d7/dd8/structfloppy_1_1math_1_1detail_1_1basic__two__dimensional__type.html" target="_top" xlink:title=" ">
<polygon fill="white" stroke="#bfbfbf" points="483.75,-273.5 321.5,-273.5 321.5,-231.75 483.75,-231.75 483.75,-273.5"/>
<text text-anchor="start" x="329.5" y="-259.05" font-family="Arial" font-size="11.00">basic_two_dimensional</text>
<text text-anchor="start" x="329.5" y="-247.8" font-family="Arial" font-size="11.00">_type&lt; point2d&lt; default</text>
<text text-anchor="middle" x="402.62" y="-236.55" font-family="Arial" font-size="11.00">_unit, f32 &gt;, default_unit, f32 &gt;</text>
</a>
</g>
</g>
<!-- Node25&#45;&gt;Node26 -->
<g id="edge25_Node000025_Node000026" class="edge">
<title>Node25&#45;&gt;Node26</title>
<g id="a_edge25_Node000025_Node000026"><a xlink:title=" ">
<path fill="none" stroke="#63b8ff" d="M282.12,-123.73C283.3,-124.64 284.43,-125.61 285.5,-126.62 318.57,-157.98 289.27,-190.41 321.5,-222.62 324.76,-225.88 328.4,-228.79 332.29,-231.38"/>
<polygon fill="#63b8ff" stroke="#63b8ff" points="284.01,-120.78 273.66,-118.49 280.32,-126.73 284.01,-120.78"/>
</a>
</g>
</g>
<!-- Node27 -->
<g id="Node000027" class="node">
<title>Node27</title>
<g id="a_Node000027"><a xlink:href="../../d7/dd8/structfloppy_1_1math_1_1detail_1_1basic__two__dimensional__type.html" target="_top" xlink:title=" ">
<polygon fill="white" stroke="#bfbfbf" points="483.75,-213.5 321.5,-213.5 321.5,-171.75 483.75,-171.75 483.75,-213.5"/>
<text text-anchor="start" x="329.5" y="-199.05" font-family="Arial" font-size="11.00">basic_two_dimensional</text>
<text text-anchor="start" x="329.5" y="-187.8" font-family="Arial" font-size="11.00">_type&lt; size2d&lt; default</text>
<text text-anchor="middle" x="402.62" y="-176.55" font-family="Arial" font-size="11.00">_unit, f32 &gt;, default_unit, f32 &gt;</text>
</a>
</g>
</g>
<!-- Node25&#45;&gt;Node27 -->
<g id="edge26_Node000025_Node000027" class="edge">
<title>Node25&#45;&gt;Node27</title>
<g id="a_edge26_Node000025_Node000027"><a xlink:title=" ">
<path fill="none" stroke="#63b8ff" d="M276.92,-122.05C279.89,-123.45 282.77,-124.97 285.5,-126.62 304.84,-138.36 302.47,-150.38 321.5,-162.62 326.37,-165.76 331.62,-168.64 337.01,-171.26"/>
<polygon fill="#63b8ff" stroke="#63b8ff" points="278.57,-118.94 267.99,-118.33 275.88,-125.4 278.57,-118.94"/>
</a>
</g>
</g>
<!-- Node28 -->
<g id="Node000028" class="node">
<title>Node28</title>
<g id="a_Node000028"><a xlink:href="../../d7/dd8/structfloppy_1_1math_1_1detail_1_1basic__two__dimensional__type.html" target="_top" xlink:title=" ">
<polygon fill="white" stroke="#bfbfbf" points="483.75,-153.5 321.5,-153.5 321.5,-111.75 483.75,-111.75 483.75,-153.5"/>
<text text-anchor="start" x="329.5" y="-139.05" font-family="Arial" font-size="11.00">basic_two_dimensional</text>
<text text-anchor="start" x="329.5" y="-127.8" font-family="Arial" font-size="11.00">_type&lt; vector2d&lt; default</text>
<text text-anchor="middle" x="402.62" y="-116.55" font-family="Arial" font-size="11.00">_unit, f32 &gt;, default_unit, f32 &gt;</text>
</a>
</g>
</g>
<!-- Node25&#45;&gt;Node28 -->
<g id="edge27_Node000025_Node000028" class="edge">
<title>Node25&#45;&gt;Node28</title>
<g id="a_edge27_Node000025_Node000028"><a xlink:title=" ">
<path fill="none" stroke="#63b8ff" d="M290.96,-116.94C300.81,-118.34 311.07,-119.79 321.19,-121.22"/>
<polygon fill="#63b8ff" stroke="#63b8ff" points="291.5,-113.48 281.11,-115.54 290.52,-120.41 291.5,-113.48"/>
</a>
</g>
</g>
<!-- Node29 -->
<g id="Node000029" class="node">
<title>Node29</title>
<g id="a_Node000029"><a xlink:href="../../de/d4d/structfloppy_1_1math_1_1angle.html" target="_top" xlink:title="Newtype describing an angle.">
<polygon fill="white" stroke="#666666" points="436.88,-93.25 368.38,-93.25 368.38,-74 436.88,-74 436.88,-93.25"/>
<text text-anchor="middle" x="402.62" y="-78.8" font-family="Arial" font-size="11.00">angle&lt; T &gt;</text>
</a>
</g>
</g>
<!-- Node25&#45;&gt;Node29 -->
<g id="edge28_Node000025_Node000029" class="edge">
<title>Node25&#45;&gt;Node29</title>
<g id="a_edge28_Node000025_Node000029"><a xlink:title=" ">
<path fill="none" stroke="#63b8ff" d="M291.01,-98.68C317.2,-95.11 346.21,-91.17 367.95,-88.21"/>
<polygon fill="#63b8ff" stroke="#63b8ff" points="290.54,-95.21 281.11,-100.02 291.49,-102.14 290.54,-95.21"/>
</a>
</g>
</g>
<!-- Node30 -->
<g id="Node000030" class="node">
<title>Node30</title>
<g id="a_Node000030"><a xlink:href="../../dd/dd1/classfloppy_1_1math_1_1length.html" target="_top" xlink:title="A one&#45;dimensional distance with associated unit of measurement.">
<polygon fill="white" stroke="#666666" points="445.12,-56.25 360.12,-56.25 360.12,-37 445.12,-37 445.12,-56.25"/>
<text text-anchor="middle" x="402.62" y="-41.8" font-family="Arial" font-size="11.00">length&lt; U, T &gt;</text>
</a>
</g>
</g>
<!-- Node25&#45;&gt;Node30 -->
<g id="edge29_Node000025_Node000030" class="edge">
<title>Node25&#45;&gt;Node30</title>
<g id="a_edge29_Node000025_Node000030"><a xlink:title=" ">
<path fill="none" stroke="#63b8ff" d="M254.95,-92.51C273.67,-83.45 298.56,-72.24 321.5,-64.62 333.81,-60.54 347.5,-57.08 360.02,-54.32"/>
<polygon fill="#63b8ff" stroke="#63b8ff" points="253.48,-89.33 246.06,-96.88 256.58,-95.61 253.48,-89.33"/>
</a>
</g>
</g>
<!-- Node31 -->
<g id="Node000031" class="node">
<title>Node31</title>
<g id="a_Node000031"><a xlink:href="../../db/db2/structfloppy_1_1math_1_1scale.html" target="_top" xlink:title="A scaling factor between two different units of measurement.">
<polygon fill="white" stroke="#666666" points="450,-19.25 355.25,-19.25 355.25,0 450,0 450,-19.25"/>
<text text-anchor="middle" x="402.62" y="-4.8" font-family="Arial" font-size="11.00">scale&lt; S, D, T &gt;</text>
</a>
</g>
</g>
<!-- Node25&#45;&gt;Node31 -->
<g id="edge30_Node000025_Node000031" class="edge">
<title>Node25&#45;&gt;Node31</title>
<g id="a_edge30_Node000025_Node000031"><a xlink:title=" ">
<path fill="none" stroke="#63b8ff" d="M242.02,-89.32C259.92,-70.92 290,-43.12 321.5,-27.62 331.86,-22.53 343.69,-18.85 355.02,-16.21"/>
<polygon fill="#63b8ff" stroke="#63b8ff" points="239.64,-86.75 235.3,-96.41 244.72,-91.56 239.64,-86.75"/>
</a>
</g>
</g>
</g>
</svg>
