<?xml version="1.0" encoding="UTF-8" standalone="no"?>
<!DOCTYPE svg PUBLIC "-//W3C//DTD SVG 1.1//EN"
 "http://www.w3.org/Graphics/SVG/1.1/DTD/svg11.dtd">
<!-- Generated by graphviz version 10.0.1 (0)
 -->
<!-- Title: formattable_base&lt; C &gt; Pages: 1 -->
<!--zoomable 416 -->

<svg id="main" version="1.1" xmlns="http://www.w3.org/2000/svg" xmlns:xlink="http://www.w3.org/1999/xlink" xml:space="preserve" onload="init(evt)">
<style type="text/css"><![CDATA[
.node, .edge {opacity: 0.7;}
.node.selected, .edge.selected {opacity: 1;}
.edge:hover path { stroke: red; }
.edge:hover polygon { stroke: red; fill: red; }
]]></style>

<defs>
  <circle id="rim" cx="0" cy="0" r="7"/>
  <circle id="rim2" cx="0" cy="0" r="3.5"/>
  <g id="zoomPlus">
    <use xlink:href="#rim" fill="#404040"><set attributeName="fill" to="#808080" begin="zoomplus.mouseover" end="zoomplus.mouseout"/></use>
    <path d="M-4,0h8M0,-4v8" fill="none" stroke="white" stroke-width="1.5" pointer-events="none"/>
  </g>
  <g id="zoomMin">
    <use xlink:href="#rim" fill="#404040"><set attributeName="fill" to="#808080" begin="zoomminus.mouseover" end="zoomminus.mouseout"/></use>
    <path d="M-4,0h8" fill="none" stroke="white" stroke-width="1.5" pointer-events="none"/>
  </g>
  <g id="arrowUp" transform="translate(30 24)">
    <use xlink:href="#rim"/>
    <path pointer-events="none" fill="none" stroke="white" stroke-width="1.5" d="M0,-3.0v7 M-2.5,-0.5L0,-3.0L2.5,-0.5"/>
  </g>
  <g id="arrowRight" transform="rotate(90) translate(36 -43)">
    <use xlink:href="#rim"/>
    <path pointer-events="none" fill="none" stroke="white" stroke-width="1.5" d="M0,-3.0v7 M-2.5,-0.5L0,-3.0L2.5,-0.5"/>
  </g>
  <g id="arrowDown" transform="rotate(180) translate(-30 -48)">
    <use xlink:href="#rim"/>
    <path pointer-events="none" fill="none" stroke="white" stroke-width="1.5" d="M0,-3.0v7 M-2.5,-0.5L0,-3.0L2.5,-0.5"/>
  </g>
  <g id="arrowLeft" transform="rotate(270) translate(-36 17)">
    <use xlink:href="#rim"/>
    <path pointer-events="none" fill="none" stroke="white" stroke-width="1.5" d="M0,-3.0v7 M-2.5,-0.5L0,-3.0L2.5,-0.5"/>
  </g>
  <g id="resetDef">
    <use xlink:href="#rim2" fill="#404040"><set attributeName="fill" to="#808080" begin="reset.mouseover" end="reset.mouseout"/></use>
  </g>
</defs>
<script type="application/ecmascript">
var viewWidth = 619;
var viewHeight = 416;
var sectionId = 'dynsection-0';
</script>
<script type="application/ecmascript" xlink:href="../../svg.min.js"/>
<svg id="graph" class="graph">
<g id="viewport">
<title>formattable_base&lt; C &gt;</title>
<!-- Node1 -->
<g id="Node000001" class="node">
<title>Node1</title>
<g id="a_Node000001"><a xlink:title="Interface, providing to_string method.">
<polygon fill="#999999" stroke="#666666" points="127,-250.25 0,-250.25 0,-231 127,-231 127,-250.25"/>
<text text-anchor="middle" x="63.5" y="-235.8" font-family="Arial" font-size="11.00">formattable_base&lt; C &gt;</text>
</a>
</g>
</g>
<!-- Node2 -->
<g id="Node000002" class="node">
<title>Node2</title>
<g id="a_Node000002"><a xlink:href="../../db/d59/structfloppy_1_1traits_1_1formattable.html" target="_top" xlink:title=" ">
<polygon fill="white" stroke="#666666" points="277.25,-407.88 171.25,-407.88 171.25,-377.38 277.25,-377.38 277.25,-407.88"/>
<text text-anchor="start" x="179.25" y="-393.43" font-family="Arial" font-size="11.00">formattable&lt; angle</text>
<text text-anchor="middle" x="224.25" y="-382.18" font-family="Arial" font-size="11.00">&lt; f32 &gt;, char &gt;</text>
</a>
</g>
</g>
<!-- Node1&#45;&gt;Node2 -->
<g id="edge1_Node000001_Node000002" class="edge">
<title>Node1&#45;&gt;Node2</title>
<g id="a_edge1_Node000001_Node000002"><a xlink:title=" ">
<path fill="none" stroke="#63b8ff" d="M75.16,-260.46C90.96,-288.17 123.08,-338.47 163,-368.62 167.13,-371.75 171.73,-374.52 176.48,-376.97"/>
<polygon fill="#63b8ff" stroke="#63b8ff" points="78.22,-258.77 70.31,-251.72 72.1,-262.17 78.22,-258.77"/>
</a>
</g>
</g>
<!-- Node3 -->
<g id="Node000003" class="node">
<title>Node3</title>
<g id="a_Node000003"><a xlink:href="../../db/d59/structfloppy_1_1traits_1_1formattable.html" target="_top" xlink:title=" ">
<polygon fill="white" stroke="#666666" points="285.5,-359.25 163,-359.25 163,-340 285.5,-340 285.5,-359.25"/>
<text text-anchor="middle" x="224.25" y="-344.8" font-family="Arial" font-size="11.00">formattable&lt; T, char &gt;</text>
</a>
</g>
</g>
<!-- Node1&#45;&gt;Node3 -->
<g id="edge2_Node000001_Node000003" class="edge">
<title>Node1&#45;&gt;Node3</title>
<g id="a_edge2_Node000001_Node000003"><a xlink:title=" ">
<path fill="none" stroke="#63b8ff" d="M80.19,-259.15C98.25,-279.38 129.74,-311.45 163,-330.62 169.08,-334.13 175.89,-337.07 182.68,-339.51"/>
<polygon fill="#63b8ff" stroke="#63b8ff" points="82.87,-256.9 73.66,-251.66 77.6,-261.5 82.87,-256.9"/>
</a>
</g>
</g>
<!-- Node7 -->
<g id="Node000007" class="node">
<title>Node7</title>
<g id="a_Node000007"><a xlink:href="../../db/d59/structfloppy_1_1traits_1_1formattable.html" target="_top" xlink:title=" ">
<polygon fill="white" stroke="#666666" points="278.75,-321.5 169.75,-321.5 169.75,-279.75 278.75,-279.75 278.75,-321.5"/>
<text text-anchor="start" x="177.75" y="-307.05" font-family="Arial" font-size="11.00">formattable&lt; length</text>
<text text-anchor="start" x="177.75" y="-295.8" font-family="Arial" font-size="11.00">&lt; default_unit, f32</text>
<text text-anchor="middle" x="224.25" y="-284.55" font-family="Arial" font-size="11.00"> &gt;, char &gt;</text>
</a>
</g>
</g>
<!-- Node1&#45;&gt;Node7 -->
<g id="edge6_Node000001_Node000007" class="edge">
<title>Node1&#45;&gt;Node7</title>
<g id="a_edge6_Node000001_Node000007"><a xlink:title=" ">
<path fill="none" stroke="#63b8ff" d="M101.72,-254.69C121.92,-262.33 147.26,-271.9 169.57,-280.33"/>
<polygon fill="#63b8ff" stroke="#63b8ff" points="103.08,-251.46 92.49,-251.2 100.6,-258.01 103.08,-251.46"/>
</a>
</g>
</g>
<!-- Node8 -->
<g id="Node000008" class="node">
<title>Node8</title>
<g id="a_Node000008"><a xlink:href="../../db/d59/structfloppy_1_1traits_1_1formattable.html" target="_top" xlink:title=" ">
<polygon fill="white" stroke="#666666" points="281.75,-261.5 166.75,-261.5 166.75,-219.75 281.75,-219.75 281.75,-261.5"/>
<text text-anchor="start" x="174.75" y="-247.05" font-family="Arial" font-size="11.00">formattable&lt; point2d</text>
<text text-anchor="start" x="174.75" y="-235.8" font-family="Arial" font-size="11.00">&lt; default_unit, f32 &gt;</text>
<text text-anchor="middle" x="224.25" y="-224.55" font-family="Arial" font-size="11.00">, char &gt;</text>
</a>
</g>
</g>
<!-- Node1&#45;&gt;Node8 -->
<g id="edge7_Node000001_Node000008" class="edge">
<title>Node1&#45;&gt;Node8</title>
<g id="a_edge7_Node000001_Node000008"><a xlink:title=" ">
<path fill="none" stroke="#63b8ff" d="M138.56,-240.62C147.91,-240.62 157.35,-240.62 166.38,-240.62"/>
<polygon fill="#63b8ff" stroke="#63b8ff" points="138.76,-237.13 128.76,-240.63 138.76,-244.13 138.76,-237.13"/>
</a>
</g>
</g>
<!-- Node9 -->
<g id="Node000009" class="node">
<title>Node9</title>
<g id="a_Node000009"><a xlink:href="../../db/d59/structfloppy_1_1traits_1_1formattable.html" target="_top" xlink:title=" ">
<polygon fill="white" stroke="#666666" points="281.75,-201.88 166.75,-201.88 166.75,-171.38 281.75,-171.38 281.75,-201.88"/>
<text text-anchor="start" x="174.75" y="-187.43" font-family="Arial" font-size="11.00">formattable&lt; scale</text>
<text text-anchor="middle" x="224.25" y="-176.18" font-family="Arial" font-size="11.00">&lt; S, D, f32 &gt;, char &gt;</text>
</a>
</g>
</g>
<!-- Node1&#45;&gt;Node9 -->
<g id="edge8_Node000001_Node000009" class="edge">
<title>Node1&#45;&gt;Node9</title>
<g id="a_edge8_Node000001_Node000009"><a xlink:title=" ">
<path fill="none" stroke="#63b8ff" d="M104.65,-226.97C126.7,-219.47 154.14,-210.13 177.08,-202.33"/>
<polygon fill="#63b8ff" stroke="#63b8ff" points="103.76,-223.57 95.42,-230.11 106.01,-230.2 103.76,-223.57"/>
</a>
</g>
</g>
<!-- Node10 -->
<g id="Node000010" class="node">
<title>Node10</title>
<g id="a_Node000010"><a xlink:href="../../db/d59/structfloppy_1_1traits_1_1formattable.html" target="_top" xlink:title=" ">
<polygon fill="white" stroke="#666666" points="279.5,-153.5 169,-153.5 169,-111.75 279.5,-111.75 279.5,-153.5"/>
<text text-anchor="start" x="177" y="-139.05" font-family="Arial" font-size="11.00">formattable&lt; size2d</text>
<text text-anchor="start" x="177" y="-127.8" font-family="Arial" font-size="11.00">&lt; default_unit, f32</text>
<text text-anchor="middle" x="224.25" y="-116.55" font-family="Arial" font-size="11.00"> &gt;, char &gt;</text>
</a>
</g>
</g>
<!-- Node1&#45;&gt;Node10 -->
<g id="edge9_Node000001_Node000010" class="edge">
<title>Node1&#45;&gt;Node10</title>
<g id="a_edge9_Node000001_Node000010"><a xlink:title=" ">
<path fill="none" stroke="#63b8ff" d="M83.92,-223.25C103.16,-206.52 133.88,-181.12 163,-162.62 167.73,-159.62 172.81,-156.68 177.94,-153.9"/>
<polygon fill="#63b8ff" stroke="#63b8ff" points="81.79,-220.46 76.59,-229.69 86.41,-225.72 81.79,-220.46"/>
</a>
</g>
</g>
<!-- Node11 -->
<g id="Node000011" class="node">
<title>Node11</title>
<g id="a_Node000011"><a xlink:href="../../db/d59/structfloppy_1_1traits_1_1formattable.html" target="_top" xlink:title="Allows type to be converted to string and printed via standard streams or fmt.">
<polygon fill="white" stroke="#666666" points="279.12,-93.25 169.38,-93.25 169.38,-74 279.12,-74 279.12,-93.25"/>
<text text-anchor="middle" x="224.25" y="-78.8" font-family="Arial" font-size="11.00">formattable&lt; T, C &gt;</text>
</a>
</g>
</g>
<!-- Node1&#45;&gt;Node11 -->
<g id="edge10_Node000001_Node000011" class="edge">
<title>Node1&#45;&gt;Node11</title>
<g id="a_edge10_Node000001_Node000011"><a xlink:title=" ">
<path fill="none" stroke="#63b8ff" d="M73.62,-220.48C88.23,-190.44 119.71,-134.07 163,-102.62 167.97,-99.02 173.65,-96.08 179.49,-93.69"/>
<polygon fill="#63b8ff" stroke="#63b8ff" points="70.6,-218.69 69.5,-229.23 76.93,-221.67 70.6,-218.69"/>
</a>
</g>
</g>
<!-- Node4 -->
<g id="Node000004" class="node">
<title>Node4</title>
<g id="a_Node000004"><a xlink:href="../../d7/dd8/structfloppy_1_1math_1_1detail_1_1basic__two__dimensional__type.html" target="_top" xlink:title=" ">
<polygon fill="white" stroke="#bfbfbf" points="465.75,-364.88 339.5,-364.88 339.5,-334.38 465.75,-334.38 465.75,-364.88"/>
<text text-anchor="start" x="347.5" y="-350.43" font-family="Arial" font-size="11.00">basic_two_dimensional</text>
<text text-anchor="middle" x="402.62" y="-339.18" font-family="Arial" font-size="11.00">_type&lt; T, U, N &gt;</text>
</a>
</g>
</g>
<!-- Node3&#45;&gt;Node4 -->
<g id="edge3_Node000003_Node000004" class="edge">
<title>Node3&#45;&gt;Node4</title>
<g id="a_edge3_Node000003_Node000004"><a xlink:title=" ">
<path fill="none" stroke="#63b8ff" d="M297.39,-349.62C311.19,-349.62 325.54,-349.62 339.02,-349.62"/>
<polygon fill="#63b8ff" stroke="#63b8ff" points="297.46,-346.13 287.46,-349.63 297.46,-353.13 297.46,-346.13"/>
</a>
</g>
</g>
<!-- Node5 -->
<g id="Node000005" class="node">
<title>Node5</title>
<g id="a_Node000005"><a xlink:href="../../db/d35/classfloppy_1_1math_1_1point2d.html" target="_top" xlink:title="A two&#45;dimensional point tagged with a unit.">
<polygon fill="white" stroke="#666666" points="610.75,-377.25 519.75,-377.25 519.75,-358 610.75,-358 610.75,-377.25"/>
<text text-anchor="middle" x="565.25" y="-362.8" font-family="Arial" font-size="11.00">point2d&lt; U, T &gt;</text>
</a>
</g>
</g>
<!-- Node4&#45;&gt;Node5 -->
<g id="edge4_Node000004_Node000005" class="edge">
<title>Node4&#45;&gt;Node5</title>
<g id="a_edge4_Node000004_Node000005"><a xlink:title=" ">
<path fill="none" stroke="#63b8ff" d="M477.58,-357.91C491.89,-359.52 506.48,-361.15 519.5,-362.61"/>
<polygon fill="#63b8ff" stroke="#63b8ff" points="478.02,-354.44 467.69,-356.8 477.24,-361.4 478.02,-354.44"/>
</a>
</g>
</g>
<!-- Node6 -->
<g id="Node000006" class="node">
<title>Node6</title>
<g id="a_Node000006"><a xlink:href="../../d0/d22/classfloppy_1_1math_1_1size2d.html" target="_top" xlink:title="A two&#45;dimensional size2d tagged with a unit.">
<polygon fill="white" stroke="#666666" points="608.5,-340.25 522,-340.25 522,-321 608.5,-321 608.5,-340.25"/>
<text text-anchor="middle" x="565.25" y="-325.8" font-family="Arial" font-size="11.00">size2d&lt; U, T &gt;</text>
</a>
</g>
</g>
<!-- Node4&#45;&gt;Node6 -->
<g id="edge5_Node000004_Node000006" class="edge">
<title>Node4&#45;&gt;Node6</title>
<g id="a_edge5_Node000004_Node000006"><a xlink:title=" ">
<path fill="none" stroke="#63b8ff" d="M477.25,-340.92C492.57,-339.1 508.21,-337.25 521.94,-335.63"/>
<polygon fill="#63b8ff" stroke="#63b8ff" points="477.21,-337.4 467.69,-342.05 478.03,-344.35 477.21,-337.4"/>
</a>
</g>
</g>
<!-- Node12 -->
<g id="Node000012" class="node">
<title>Node12</title>
<g id="a_Node000012"><a xlink:href="../../d7/dd8/structfloppy_1_1math_1_1detail_1_1basic__two__dimensional__type.html" target="_top" xlink:title=" ">
<polygon fill="white" stroke="#bfbfbf" points="483.75,-213.5 321.5,-213.5 321.5,-171.75 483.75,-171.75 483.75,-213.5"/>
<text text-anchor="start" x="329.5" y="-199.05" font-family="Arial" font-size="11.00">basic_two_dimensional</text>
<text text-anchor="start" x="329.5" y="-187.8" font-family="Arial" font-size="11.00">_type&lt; point2d&lt; default</text>
<text text-anchor="middle" x="402.62" y="-176.55" font-family="Arial" font-size="11.00">_unit, f32 &gt;, default_unit, f32 &gt;</text>
</a>
</g>
</g>
<!-- Node11&#45;&gt;Node12 -->
<g id="edge11_Node000011_Node000012" class="edge">
<title>Node11&#45;&gt;Node12</title>
<g id="a_edge11_Node000011_Node000012"><a xlink:title=" ">
<path fill="none" stroke="#63b8ff" d="M280.1,-98.85C281.98,-100.02 283.79,-101.27 285.5,-102.62 309.92,-121.89 297.6,-142.73 321.5,-162.62 325.38,-165.86 329.64,-168.76 334.12,-171.36"/>
<polygon fill="#63b8ff" stroke="#63b8ff" points="282.05,-95.92 271.56,-94.42 278.82,-102.13 282.05,-95.92"/>
</a>
</g>
</g>
<!-- Node13 -->
<g id="Node000013" class="node">
<title>Node13</title>
<g id="a_Node000013"><a xlink:href="../../d7/dd8/structfloppy_1_1math_1_1detail_1_1basic__two__dimensional__type.html" target="_top" xlink:title=" ">
<polygon fill="white" stroke="#bfbfbf" points="483.75,-153.5 321.5,-153.5 321.5,-111.75 483.75,-111.75 483.75,-153.5"/>
<text text-anchor="start" x="329.5" y="-139.05" font-family="Arial" font-size="11.00">basic_two_dimensional</text>
<text text-anchor="start" x="329.5" y="-127.8" font-family="Arial" font-size="11.00">_type&lt; size2d&lt; default</text>
<text text-anchor="middle" x="402.62" y="-116.55" font-family="Arial" font-size="11.00">_unit, f32 &gt;, default_unit, f32 &gt;</text>
</a>
</g>
</g>
<!-- Node11&#45;&gt;Node13 -->
<g id="edge12_Node000011_Node000013" class="edge">
<title>Node11&#45;&gt;Node13</title>
<g id="a_edge12_Node000011_Node000013"><a xlink:title=" ">
<path fill="none" stroke="#63b8ff" d="M272.14,-96.65C288.31,-101.14 306.87,-106.3 324.8,-111.28"/>
<polygon fill="#63b8ff" stroke="#63b8ff" points="273.4,-93.37 262.83,-94.06 271.52,-100.11 273.4,-93.37"/>
</a>
</g>
</g>
<!-- Node14 -->
<g id="Node000014" class="node">
<title>Node14</title>
<g id="a_Node000014"><a xlink:href="../../de/d4d/structfloppy_1_1math_1_1angle.html" target="_top" xlink:title="Newtype describing an angle.">
<polygon fill="white" stroke="#666666" points="436.88,-93.25 368.38,-93.25 368.38,-74 436.88,-74 436.88,-93.25"/>
<text text-anchor="middle" x="402.62" y="-78.8" font-family="Arial" font-size="11.00">angle&lt; T &gt;</text>
</a>
</g>
</g>
<!-- Node11&#45;&gt;Node14 -->
<g id="edge13_Node000011_Node000014" class="edge">
<title>Node11&#45;&gt;Node14</title>
<g id="a_edge13_Node000011_Node000014"><a xlink:title=" ">
<path fill="none" stroke="#63b8ff" d="M291.01,-83.62C317.2,-83.62 346.21,-83.62 367.95,-83.62"/>
<polygon fill="#63b8ff" stroke="#63b8ff" points="291.12,-80.13 281.12,-83.63 291.12,-87.13 291.12,-80.13"/>
</a>
</g>
</g>
<!-- Node15 -->
<g id="Node000015" class="node">
<title>Node15</title>
<g id="a_Node000015"><a xlink:href="../../dd/dd1/classfloppy_1_1math_1_1length.html" target="_top" xlink:title="A one&#45;dimensional distance with associated unit of measurement.">
<polygon fill="white" stroke="#666666" points="445.12,-56.25 360.12,-56.25 360.12,-37 445.12,-37 445.12,-56.25"/>
<text text-anchor="middle" x="402.62" y="-41.8" font-family="Arial" font-size="11.00">length&lt; U, T &gt;</text>
</a>
</g>
</g>
<!-- Node11&#45;&gt;Node15 -->
<g id="edge14_Node000011_Node000015" class="edge">
<title>Node11&#45;&gt;Node15</title>
<g id="a_edge14_Node000011_Node000015"><a xlink:title=" ">
<path fill="none" stroke="#63b8ff" d="M284.52,-71.19C309.21,-66.01 337.3,-60.12 359.78,-55.4"/>
<polygon fill="#63b8ff" stroke="#63b8ff" points="283.99,-67.73 274.93,-73.2 285.43,-74.58 283.99,-67.73"/>
</a>
</g>
</g>
<!-- Node16 -->
<g id="Node000016" class="node">
<title>Node16</title>
<g id="a_Node000016"><a xlink:href="../../db/db2/structfloppy_1_1math_1_1scale.html" target="_top" xlink:title="A scaling factor between two different units of measurement.">
<polygon fill="white" stroke="#666666" points="450,-19.25 355.25,-19.25 355.25,0 450,0 450,-19.25"/>
<text text-anchor="middle" x="402.62" y="-4.8" font-family="Arial" font-size="11.00">scale&lt; S, D, T &gt;</text>
</a>
</g>
</g>
<!-- Node11&#45;&gt;Node16 -->
<g id="edge15_Node000011_Node000016" class="edge">
<title>Node11&#45;&gt;Node16</title>
<g id="a_edge15_Node000011_Node000016"><a xlink:title=" ">
<path fill="none" stroke="#63b8ff" d="M248.75,-67.2C267.63,-54.69 295.23,-37.93 321.5,-27.62 332.12,-23.46 343.92,-20.14 355.14,-17.54"/>
<polygon fill="#63b8ff" stroke="#63b8ff" points="246.8,-64.29 240.48,-72.79 250.72,-70.09 246.8,-64.29"/>
</a>
</g>
</g>
</g>
</svg>

<g id="navigator" transform="translate(0 0)" fill="#404254">
  <rect fill="#f2f5e9" fill-opacity="0.5" stroke="#606060" stroke-width=".5" x="0" y="0" width="60" height="60"/>
  <use id="zoomplus" xlink:href="#zoomPlus" x="17" y="9" onmousedown="handleZoom(evt,'in')"/>
  <use id="zoomminus" xlink:href="#zoomMin" x="42" y="9" onmousedown="handleZoom(evt,'out')"/>
  <use id="reset" xlink:href="#resetDef" x="30" y="36" onmousedown="handleReset()"/>
   <use id="arrowup" xlink:href="#arrowUp" x="0" y="0" onmousedown="handlePan(0,-1)"/>
  <use id="arrowright" xlink:href="#arrowRight" x="0" y="0" onmousedown="handlePan(1,0)"/>
  <use id="arrowdown" xlink:href="#arrowDown" x="0" y="0" onmousedown="handlePan(0,1)"/>
  <use id="arrowleft" xlink:href="#arrowLeft" x="0" y="0" onmousedown="handlePan(-1,0)"/>
</g>
<svg viewBox="0 0 15 15" width="100%" height="30px" preserveAspectRatio="xMaxYMin meet">
 <g id="arrow_out" transform="scale(0.3 0.3)">
  <a xlink:href="structfloppy_1_1traits_1_1detail_1_1formattable__base__inherit__graph_org.svg" target="_base">
   <rect id="button" ry="5" rx="5" y="6" x="6" height="38" width="38"
        fill="#f2f5e9" fill-opacity="0.5" stroke="#606060" stroke-width="1.0"/>
   <path id="arrow"
     d="M 11.500037,31.436501 C 11.940474,20.09759 22.043105,11.32322 32.158766,21.979434 L 37.068811,17.246167 C 37.068811,17.246167 37.088388,32 37.088388,32 L 22.160133,31.978069 C 22.160133,31.978069 26.997745,27.140456 26.997745,27.140456 C 18.528582,18.264221 13.291696,25.230495 11.500037,31.436501 z"
     style="fill:#404040;"/>
  </a>
 </g>
</svg>

<style type='text/css'>
<![CDATA[
[data-mouse-over-selected='false'] { opacity: 0.7; }
[data-mouse-over-selected='true']  { opacity: 1.0; }
]]>
</style>
<script type="application/ecmascript"><![CDATA[
document.addEventListener('DOMContentLoaded', (event) => {
  highlightEdges();
  highlightAdjacentNodes();
});
]]></script>
</svg>
