<?xml version="1.0" encoding="UTF-8" standalone="no"?>
<!DOCTYPE svg PUBLIC "-//W3C//DTD SVG 1.1//EN"
 "http://www.w3.org/Graphics/SVG/1.1/DTD/svg11.dtd">
<!-- Generated by graphviz version 10.0.1 (0)
 -->
<!-- Title: formattable_base&lt; C &gt; Pages: 1 -->
<svg width="625pt" height="500pt"
 viewBox="0.00 0.00 624.75 499.88" xmlns="http://www.w3.org/2000/svg" xmlns:xlink="http://www.w3.org/1999/xlink">
<g id="graph0" class="graph" transform="scale(1 1) rotate(0) translate(4 495.88)">
<title>formattable_base&lt; C &gt;</title>
<!-- Node1 -->
<g id="Node000001" class="node">
<title>Node1</title>
<g id="a_Node000001"><a xlink:title="Interface, providing to_string method.">
<polygon fill="#999999" stroke="#666666" points="127,-307.25 0,-307.25 0,-288 127,-288 127,-307.25"/>
<text text-anchor="middle" x="63.5" y="-292.8" font-family="Arial" font-size="11.00">formattable_base&lt; C &gt;</text>
</a>
</g>
</g>
<!-- Node2 -->
<g id="Node000002" class="node">
<title>Node2</title>
<g id="a_Node000002"><a xlink:href="../../db/d59/structfloppy_1_1traits_1_1formattable.html" target="_top" xlink:title=" ">
<polygon fill="white" stroke="#666666" points="277.25,-491.88 171.25,-491.88 171.25,-461.38 277.25,-461.38 277.25,-491.88"/>
<text text-anchor="start" x="179.25" y="-477.43" font-family="Arial" font-size="11.00">formattable&lt; angle</text>
<text text-anchor="middle" x="224.25" y="-466.18" font-family="Arial" font-size="11.00">&lt; f32 &gt;, char &gt;</text>
</a>
</g>
</g>
<!-- Node1&#45;&gt;Node2 -->
<g id="edge1_Node000001_Node000002" class="edge">
<title>Node1&#45;&gt;Node2</title>
<g id="a_edge1_Node000001_Node000002"><a xlink:title=" ">
<path fill="none" stroke="#63b8ff" d="M72.49,-317.96C86.28,-350.63 117.52,-414.94 163,-452.62 166.81,-455.79 171.1,-458.57 175.58,-461.01"/>
<polygon fill="#63b8ff" stroke="#63b8ff" points="75.8,-316.8 68.78,-308.87 69.32,-319.45 75.8,-316.8"/>
</a>
</g>
</g>
<!-- Node3 -->
<g id="Node000003" class="node">
<title>Node3</title>
<g id="a_Node000003"><a xlink:href="../../db/d59/structfloppy_1_1traits_1_1formattable.html" target="_top" xlink:title=" ">
<polygon fill="white" stroke="#666666" points="285.5,-443.25 163,-443.25 163,-424 285.5,-424 285.5,-443.25"/>
<text text-anchor="middle" x="224.25" y="-428.8" font-family="Arial" font-size="11.00">formattable&lt; T, char &gt;</text>
</a>
</g>
</g>
<!-- Node1&#45;&gt;Node3 -->
<g id="edge2_Node000001_Node000003" class="edge">
<title>Node1&#45;&gt;Node3</title>
<g id="a_edge2_Node000001_Node000003"><a xlink:title=" ">
<path fill="none" stroke="#63b8ff" d="M76.02,-317.26C92.22,-343.23 124.17,-388.72 163,-414.62 168.38,-418.22 174.49,-421.16 180.69,-423.57"/>
<polygon fill="#63b8ff" stroke="#63b8ff" points="79.2,-315.77 71.02,-309.03 73.22,-319.4 79.2,-315.77"/>
</a>
</g>
</g>
<!-- Node8 -->
<g id="Node000008" class="node">
<title>Node8</title>
<g id="a_Node000008"><a xlink:href="../../db/d59/structfloppy_1_1traits_1_1formattable.html" target="_top" xlink:title=" ">
<polygon fill="white" stroke="#666666" points="278.75,-405.5 169.75,-405.5 169.75,-363.75 278.75,-363.75 278.75,-405.5"/>
<text text-anchor="start" x="177.75" y="-391.05" font-family="Arial" font-size="11.00">formattable&lt; length</text>
<text text-anchor="start" x="177.75" y="-379.8" font-family="Arial" font-size="11.00">&lt; default_unit, f32</text>
<text text-anchor="middle" x="224.25" y="-368.55" font-family="Arial" font-size="11.00"> &gt;, char &gt;</text>
</a>
</g>
</g>
<!-- Node1&#45;&gt;Node8 -->
<g id="edge7_Node000001_Node000008" class="edge">
<title>Node1&#45;&gt;Node8</title>
<g id="a_edge7_Node000001_Node000008"><a xlink:title=" ">
<path fill="none" stroke="#63b8ff" d="M90.83,-313.46C110.53,-325.16 138.22,-341.3 163,-354.62 168.35,-357.5 174.02,-360.45 179.64,-363.32"/>
<polygon fill="#63b8ff" stroke="#63b8ff" points="92.73,-310.52 82.35,-308.4 89.15,-316.53 92.73,-310.52"/>
</a>
</g>
</g>
<!-- Node9 -->
<g id="Node000009" class="node">
<title>Node9</title>
<g id="a_Node000009"><a xlink:href="../../db/d59/structfloppy_1_1traits_1_1formattable.html" target="_top" xlink:title=" ">
<polygon fill="white" stroke="#666666" points="281.75,-345.5 166.75,-345.5 166.75,-303.75 281.75,-303.75 281.75,-345.5"/>
<text text-anchor="start" x="174.75" y="-331.05" font-family="Arial" font-size="11.00">formattable&lt; point2d</text>
<text text-anchor="start" x="174.75" y="-319.8" font-family="Arial" font-size="11.00">&lt; default_unit, f32 &gt;</text>
<text text-anchor="middle" x="224.25" y="-308.55" font-family="Arial" font-size="11.00">, char &gt;</text>
</a>
</g>
</g>
<!-- Node1&#45;&gt;Node9 -->
<g id="edge8_Node000001_Node000009" class="edge">
<title>Node1&#45;&gt;Node9</title>
<g id="a_edge8_Node000001_Node000009"><a xlink:title=" ">
<path fill="none" stroke="#63b8ff" d="M134.94,-309.6C145.48,-311.4 156.24,-313.23 166.46,-314.97"/>
<polygon fill="#63b8ff" stroke="#63b8ff" points="135.55,-306.16 125.1,-307.93 134.38,-313.06 135.55,-306.16"/>
</a>
</g>
</g>
<!-- Node10 -->
<g id="Node000010" class="node">
<title>Node10</title>
<g id="a_Node000010"><a xlink:href="../../db/d59/structfloppy_1_1traits_1_1formattable.html" target="_top" xlink:title=" ">
<polygon fill="white" stroke="#666666" points="281.75,-285.88 166.75,-285.88 166.75,-255.38 281.75,-255.38 281.75,-285.88"/>
<text text-anchor="start" x="174.75" y="-271.43" font-family="Arial" font-size="11.00">formattable&lt; scale</text>
<text text-anchor="middle" x="224.25" y="-260.18" font-family="Arial" font-size="11.00">&lt; S, D, f32 &gt;, char &gt;</text>
</a>
</g>
</g>
<!-- Node1&#45;&gt;Node10 -->
<g id="edge9_Node000001_Node000010" class="edge">
<title>Node1&#45;&gt;Node10</title>
<g id="a_edge9_Node000001_Node000010"><a xlink:title=" ">
<path fill="none" stroke="#63b8ff" d="M134.94,-285.65C145.48,-283.85 156.24,-282.02 166.46,-280.28"/>
<polygon fill="#63b8ff" stroke="#63b8ff" points="134.38,-282.19 125.1,-287.32 135.55,-289.09 134.38,-282.19"/>
</a>
</g>
</g>
<!-- Node11 -->
<g id="Node000011" class="node">
<title>Node11</title>
<g id="a_Node000011"><a xlink:href="../../db/d59/structfloppy_1_1traits_1_1formattable.html" target="_top" xlink:title=" ">
<polygon fill="white" stroke="#666666" points="279.5,-237.5 169,-237.5 169,-195.75 279.5,-195.75 279.5,-237.5"/>
<text text-anchor="start" x="177" y="-223.05" font-family="Arial" font-size="11.00">formattable&lt; size2d</text>
<text text-anchor="start" x="177" y="-211.8" font-family="Arial" font-size="11.00">&lt; default_unit, f32</text>
<text text-anchor="middle" x="224.25" y="-200.55" font-family="Arial" font-size="11.00"> &gt;, char &gt;</text>
</a>
</g>
</g>
<!-- Node1&#45;&gt;Node11 -->
<g id="edge10_Node000001_Node000011" class="edge">
<title>Node1&#45;&gt;Node11</title>
<g id="a_edge10_Node000001_Node000011"><a xlink:title=" ">
<path fill="none" stroke="#63b8ff" d="M93.81,-282.29C113.37,-272.1 139.68,-258.47 163,-246.62 168.63,-243.77 174.56,-240.78 180.42,-237.85"/>
<polygon fill="#63b8ff" stroke="#63b8ff" points="92.29,-279.14 85.05,-286.87 95.53,-285.34 92.29,-279.14"/>
</a>
</g>
</g>
<!-- Node12 -->
<g id="Node000012" class="node">
<title>Node12</title>
<g id="a_Node000012"><a xlink:href="../../db/d59/structfloppy_1_1traits_1_1formattable.html" target="_top" xlink:title=" ">
<polygon fill="white" stroke="#666666" points="284.75,-177.5 163.75,-177.5 163.75,-135.75 284.75,-135.75 284.75,-177.5"/>
<text text-anchor="start" x="171.75" y="-163.05" font-family="Arial" font-size="11.00">formattable&lt; vector2d</text>
<text text-anchor="start" x="171.75" y="-151.8" font-family="Arial" font-size="11.00">&lt; default_unit, f32 &gt;</text>
<text text-anchor="middle" x="224.25" y="-140.55" font-family="Arial" font-size="11.00">, char &gt;</text>
</a>
</g>
</g>
<!-- Node1&#45;&gt;Node12 -->
<g id="edge11_Node000001_Node000012" class="edge">
<title>Node1&#45;&gt;Node12</title>
<g id="a_edge11_Node000001_Node000012"><a xlink:title=" ">
<path fill="none" stroke="#63b8ff" d="M77.88,-278.47C95.3,-254.59 127.74,-213.63 163,-186.62 167.08,-183.5 171.54,-180.56 176.13,-177.84"/>
<polygon fill="#63b8ff" stroke="#63b8ff" points="75.22,-276.17 72.24,-286.34 80.91,-280.25 75.22,-276.17"/>
</a>
</g>
</g>
<!-- Node13 -->
<g id="Node000013" class="node">
<title>Node13</title>
<g id="a_Node000013"><a xlink:href="../../db/d59/structfloppy_1_1traits_1_1formattable.html" target="_top" xlink:title="Allows type to be converted to string and printed via standard streams or fmt.">
<polygon fill="white" stroke="#666666" points="279.12,-117.25 169.38,-117.25 169.38,-98 279.12,-98 279.12,-117.25"/>
<text text-anchor="middle" x="224.25" y="-102.8" font-family="Arial" font-size="11.00">formattable&lt; T, C &gt;</text>
</a>
</g>
</g>
<!-- Node1&#45;&gt;Node13 -->
<g id="edge12_Node000001_Node000013" class="edge">
<title>Node1&#45;&gt;Node13</title>
<g id="a_edge12_Node000001_Node000013"><a xlink:title=" ">
<path fill="none" stroke="#63b8ff" d="M70.73,-277.27C82.71,-241.51 112.37,-167.3 163,-126.62 167.53,-122.98 172.77,-120.04 178.23,-117.65"/>
<polygon fill="#63b8ff" stroke="#63b8ff" points="67.53,-275.8 67.8,-286.39 74.19,-277.94 67.53,-275.8"/>
</a>
</g>
</g>
<!-- Node4 -->
<g id="Node000004" class="node">
<title>Node4</title>
<g id="a_Node000004"><a xlink:href="../../d7/dd8/structfloppy_1_1math_1_1detail_1_1basic__two__dimensional__type.html" target="_top" xlink:title=" ">
<polygon fill="white" stroke="#bfbfbf" points="465.75,-448.88 339.5,-448.88 339.5,-418.38 465.75,-418.38 465.75,-448.88"/>
<text text-anchor="start" x="347.5" y="-434.43" font-family="Arial" font-size="11.00">basic_two_dimensional</text>
<text text-anchor="middle" x="402.62" y="-423.18" font-family="Arial" font-size="11.00">_type&lt; T, U, N &gt;</text>
</a>
</g>
</g>
<!-- Node3&#45;&gt;Node4 -->
<g id="edge3_Node000003_Node000004" class="edge">
<title>Node3&#45;&gt;Node4</title>
<g id="a_edge3_Node000003_Node000004"><a xlink:title=" ">
<path fill="none" stroke="#63b8ff" d="M297.39,-433.62C311.19,-433.62 325.54,-433.62 339.02,-433.62"/>
<polygon fill="#63b8ff" stroke="#63b8ff" points="297.46,-430.13 287.46,-433.63 297.46,-437.13 297.46,-430.13"/>
</a>
</g>
</g>
<!-- Node5 -->
<g id="Node000005" class="node">
<title>Node5</title>
<g id="a_Node000005"><a xlink:href="../../db/d35/classfloppy_1_1math_1_1point2d.html" target="_top" xlink:title="A two&#45;dimensional point tagged with a unit.">
<polygon fill="white" stroke="#666666" points="613.75,-480.25 522.75,-480.25 522.75,-461 613.75,-461 613.75,-480.25"/>
<text text-anchor="middle" x="568.25" y="-465.8" font-family="Arial" font-size="11.00">point2d&lt; U, T &gt;</text>
</a>
</g>
</g>
<!-- Node4&#45;&gt;Node5 -->
<g id="edge4_Node000004_Node000005" class="edge">
<title>Node4&#45;&gt;Node5</title>
<g id="a_edge4_Node000004_Node000005"><a xlink:title=" ">
<path fill="none" stroke="#63b8ff" d="M476.75,-450.16C492.48,-453.72 508.65,-457.37 522.89,-460.59"/>
<polygon fill="#63b8ff" stroke="#63b8ff" points="477.95,-446.84 467.43,-448.05 476.41,-453.67 477.95,-446.84"/>
</a>
</g>
</g>
<!-- Node6 -->
<g id="Node000006" class="node">
<title>Node6</title>
<g id="a_Node000006"><a xlink:href="../../d0/d22/classfloppy_1_1math_1_1size2d.html" target="_top" xlink:title="A two&#45;dimensional size2d tagged with a unit.">
<polygon fill="white" stroke="#666666" points="611.5,-443.25 525,-443.25 525,-424 611.5,-424 611.5,-443.25"/>
<text text-anchor="middle" x="568.25" y="-428.8" font-family="Arial" font-size="11.00">size2d&lt; U, T &gt;</text>
</a>
</g>
</g>
<!-- Node4&#45;&gt;Node6 -->
<g id="edge5_Node000004_Node000006" class="edge">
<title>Node4&#45;&gt;Node6</title>
<g id="a_edge5_Node000004_Node000006"><a xlink:title=" ">
<path fill="none" stroke="#63b8ff" d="M477.16,-433.62C493.51,-433.62 510.29,-433.62 524.88,-433.62"/>
<polygon fill="#63b8ff" stroke="#63b8ff" points="477.46,-430.13 467.46,-433.63 477.46,-437.13 477.46,-430.13"/>
</a>
</g>
</g>
<!-- Node7 -->
<g id="Node000007" class="node">
<title>Node7</title>
<g id="a_Node000007"><a xlink:href="../../d4/d33/classfloppy_1_1math_1_1vector2d.html" target="_top" xlink:title="A two&#45;dimensional vector tagged with a unit.">
<polygon fill="white" stroke="#666666" points="616.75,-406.25 519.75,-406.25 519.75,-387 616.75,-387 616.75,-406.25"/>
<text text-anchor="middle" x="568.25" y="-391.8" font-family="Arial" font-size="11.00">vector2d&lt; U, T &gt;</text>
</a>
</g>
</g>
<!-- Node4&#45;&gt;Node7 -->
<g id="edge6_Node000004_Node000007" class="edge">
<title>Node4&#45;&gt;Node7</title>
<g id="a_edge6_Node000004_Node000007"><a xlink:title=" ">
<path fill="none" stroke="#63b8ff" d="M476.75,-417.09C492.48,-413.53 508.65,-409.88 522.89,-406.66"/>
<polygon fill="#63b8ff" stroke="#63b8ff" points="476.41,-413.58 467.43,-419.2 477.95,-420.41 476.41,-413.58"/>
</a>
</g>
</g>
<!-- Node14 -->
<g id="Node000014" class="node">
<title>Node14</title>
<g id="a_Node000014"><a xlink:href="../../d7/dd8/structfloppy_1_1math_1_1detail_1_1basic__two__dimensional__type.html" target="_top" xlink:title=" ">
<polygon fill="white" stroke="#bfbfbf" points="483.75,-273.5 321.5,-273.5 321.5,-231.75 483.75,-231.75 483.75,-273.5"/>
<text text-anchor="start" x="329.5" y="-259.05" font-family="Arial" font-size="11.00">basic_two_dimensional</text>
<text text-anchor="start" x="329.5" y="-247.8" font-family="Arial" font-size="11.00">_type&lt; point2d&lt; default</text>
<text text-anchor="middle" x="402.62" y="-236.55" font-family="Arial" font-size="11.00">_unit, f32 &gt;, default_unit, f32 &gt;</text>
</a>
</g>
</g>
<!-- Node13&#45;&gt;Node14 -->
<g id="edge13_Node000013_Node000014" class="edge">
<title>Node13&#45;&gt;Node14</title>
<g id="a_edge13_Node000013_Node000014"><a xlink:title=" ">
<path fill="none" stroke="#63b8ff" d="M282.12,-123.73C283.3,-124.64 284.43,-125.61 285.5,-126.62 318.57,-157.98 289.27,-190.41 321.5,-222.62 324.76,-225.88 328.4,-228.79 332.29,-231.38"/>
<polygon fill="#63b8ff" stroke="#63b8ff" points="284.01,-120.78 273.66,-118.49 280.32,-126.73 284.01,-120.78"/>
</a>
</g>
</g>
<!-- Node15 -->
<g id="Node000015" class="node">
<title>Node15</title>
<g id="a_Node000015"><a xlink:href="../../d7/dd8/structfloppy_1_1math_1_1detail_1_1basic__two__dimensional__type.html" target="_top" xlink:title=" ">
<polygon fill="white" stroke="#bfbfbf" points="483.75,-213.5 321.5,-213.5 321.5,-171.75 483.75,-171.75 483.75,-213.5"/>
<text text-anchor="start" x="329.5" y="-199.05" font-family="Arial" font-size="11.00">basic_two_dimensional</text>
<text text-anchor="start" x="329.5" y="-187.8" font-family="Arial" font-size="11.00">_type&lt; size2d&lt; default</text>
<text text-anchor="middle" x="402.62" y="-176.55" font-family="Arial" font-size="11.00">_unit, f32 &gt;, default_unit, f32 &gt;</text>
</a>
</g>
</g>
<!-- Node13&#45;&gt;Node15 -->
<g id="edge14_Node000013_Node000015" class="edge">
<title>Node13&#45;&gt;Node15</title>
<g id="a_edge14_Node000013_Node000015"><a xlink:title=" ">
<path fill="none" stroke="#63b8ff" d="M276.92,-122.05C279.89,-123.45 282.77,-124.97 285.5,-126.62 304.84,-138.36 302.47,-150.38 321.5,-162.62 326.37,-165.76 331.62,-168.64 337.01,-171.26"/>
<polygon fill="#63b8ff" stroke="#63b8ff" points="278.57,-118.94 267.99,-118.33 275.88,-125.4 278.57,-118.94"/>
</a>
</g>
</g>
<!-- Node16 -->
<g id="Node000016" class="node">
<title>Node16</title>
<g id="a_Node000016"><a xlink:href="../../d7/dd8/structfloppy_1_1math_1_1detail_1_1basic__two__dimensional__type.html" target="_top" xlink:title=" ">
<polygon fill="white" stroke="#bfbfbf" points="483.75,-153.5 321.5,-153.5 321.5,-111.75 483.75,-111.75 483.75,-153.5"/>
<text text-anchor="start" x="329.5" y="-139.05" font-family="Arial" font-size="11.00">basic_two_dimensional</text>
<text text-anchor="start" x="329.5" y="-127.8" font-family="Arial" font-size="11.00">_type&lt; vector2d&lt; default</text>
<text text-anchor="middle" x="402.62" y="-116.55" font-family="Arial" font-size="11.00">_unit, f32 &gt;, default_unit, f32 &gt;</text>
</a>
</g>
</g>
<!-- Node13&#45;&gt;Node16 -->
<g id="edge15_Node000013_Node000016" class="edge">
<title>Node13&#45;&gt;Node16</title>
<g id="a_edge15_Node000013_Node000016"><a xlink:title=" ">
<path fill="none" stroke="#63b8ff" d="M290.96,-116.94C300.81,-118.34 311.07,-119.79 321.19,-121.22"/>
<polygon fill="#63b8ff" stroke="#63b8ff" points="291.5,-113.48 281.11,-115.54 290.52,-120.41 291.5,-113.48"/>
</a>
</g>
</g>
<!-- Node17 -->
<g id="Node000017" class="node">
<title>Node17</title>
<g id="a_Node000017"><a xlink:href="../../de/d4d/structfloppy_1_1math_1_1angle.html" target="_top" xlink:title="Newtype describing an angle.">
<polygon fill="white" stroke="#666666" points="436.88,-93.25 368.38,-93.25 368.38,-74 436.88,-74 436.88,-93.25"/>
<text text-anchor="middle" x="402.62" y="-78.8" font-family="Arial" font-size="11.00">angle&lt; T &gt;</text>
</a>
</g>
</g>
<!-- Node13&#45;&gt;Node17 -->
<g id="edge16_Node000013_Node000017" class="edge">
<title>Node13&#45;&gt;Node17</title>
<g id="a_edge16_Node000013_Node000017"><a xlink:title=" ">
<path fill="none" stroke="#63b8ff" d="M291.01,-98.68C317.2,-95.11 346.21,-91.17 367.95,-88.21"/>
<polygon fill="#63b8ff" stroke="#63b8ff" points="290.54,-95.21 281.11,-100.02 291.49,-102.14 290.54,-95.21"/>
</a>
</g>
</g>
<!-- Node18 -->
<g id="Node000018" class="node">
<title>Node18</title>
<g id="a_Node000018"><a xlink:href="../../dd/dd1/classfloppy_1_1math_1_1length.html" target="_top" xlink:title="A one&#45;dimensional distance with associated unit of measurement.">
<polygon fill="white" stroke="#666666" points="445.12,-56.25 360.12,-56.25 360.12,-37 445.12,-37 445.12,-56.25"/>
<text text-anchor="middle" x="402.62" y="-41.8" font-family="Arial" font-size="11.00">length&lt; U, T &gt;</text>
</a>
</g>
</g>
<!-- Node13&#45;&gt;Node18 -->
<g id="edge17_Node000013_Node000018" class="edge">
<title>Node13&#45;&gt;Node18</title>
<g id="a_edge17_Node000013_Node000018"><a xlink:title=" ">
<path fill="none" stroke="#63b8ff" d="M254.95,-92.51C273.67,-83.45 298.56,-72.24 321.5,-64.62 333.81,-60.54 347.5,-57.08 360.02,-54.32"/>
<polygon fill="#63b8ff" stroke="#63b8ff" points="253.48,-89.33 246.06,-96.88 256.58,-95.61 253.48,-89.33"/>
</a>
</g>
</g>
<!-- Node19 -->
<g id="Node000019" class="node">
<title>Node19</title>
<g id="a_Node000019"><a xlink:href="../../db/db2/structfloppy_1_1math_1_1scale.html" target="_top" xlink:title="A scaling factor between two different units of measurement.">
<polygon fill="white" stroke="#666666" points="450,-19.25 355.25,-19.25 355.25,0 450,0 450,-19.25"/>
<text text-anchor="middle" x="402.62" y="-4.8" font-family="Arial" font-size="11.00">scale&lt; S, D, T &gt;</text>
</a>
</g>
</g>
<!-- Node13&#45;&gt;Node19 -->
<g id="edge18_Node000013_Node000019" class="edge">
<title>Node13&#45;&gt;Node19</title>
<g id="a_edge18_Node000013_Node000019"><a xlink:title=" ">
<path fill="none" stroke="#63b8ff" d="M242.02,-89.32C259.92,-70.92 290,-43.12 321.5,-27.62 331.86,-22.53 343.69,-18.85 355.02,-16.21"/>
<polygon fill="#63b8ff" stroke="#63b8ff" points="239.64,-86.75 235.3,-96.41 244.72,-91.56 239.64,-86.75"/>
</a>
</g>
</g>
</g>
</svg>
