<?xml version="1.0" encoding="UTF-8" standalone="no"?>
<!DOCTYPE svg PUBLIC "-//W3C//DTD SVG 1.1//EN"
 "http://www.w3.org/Graphics/SVG/1.1/DTD/svg11.dtd">
<!-- Generated by graphviz version 10.0.1 (0)
 -->
<!-- Title: formattable_base&lt; C &gt; Pages: 1 -->
<svg width="417pt" height="221pt"
 viewBox="0.00 0.00 416.75 220.88" xmlns="http://www.w3.org/2000/svg" xmlns:xlink="http://www.w3.org/1999/xlink">

<svg id="main" version="1.1" xmlns="http://www.w3.org/2000/svg" xmlns:xlink="http://www.w3.org/1999/xlink" xml:space="preserve" onload="init(evt)">
<style type="text/css"><![CDATA[
.node, .edge {opacity: 0.7;}
.node.selected, .edge.selected {opacity: 1;}
.edge:hover path { stroke: red; }
.edge:hover polygon { stroke: red; fill: red; }
]]></style>
<script type="application/ecmascript" xlink:href="../../svg.min.js"/>
<svg id="graph" class="graph">
<g id="graph0" class="graph" transform="scale(1 1) rotate(0) translate(4 216.88)">
<title>formattable_base&lt; C &gt;</title>
<!-- Node1 -->
<g id="Node000001" class="node">
<title>Node1</title>
<g id="a_Node000001"><a xlink:title="Interface, providing to_string method.">
<polygon fill="#999999" stroke="#666666" points="127,-126.25 0,-126.25 0,-107 127,-107 127,-126.25"/>
<text text-anchor="middle" x="63.5" y="-111.8" font-family="Arial" font-size="11.00">formattable_base&lt; C &gt;</text>
</a>
</g>
</g>
<!-- Node2 -->
<g id="Node000002" class="node">
<title>Node2</title>
<g id="a_Node000002"><a xlink:href="../../db/d59/structfloppy_1_1traits_1_1formattable.html" target="_top" xlink:title=" ">
<polygon fill="white" stroke="#666666" points="273.5,-212.88 167.5,-212.88 167.5,-182.38 273.5,-182.38 273.5,-212.88"/>
<text text-anchor="start" x="175.5" y="-198.43" font-family="Arial" font-size="11.00">formattable&lt; angle</text>
<text text-anchor="middle" x="220.5" y="-187.18" font-family="Arial" font-size="11.00">&lt; f32 &gt;, char &gt;</text>
</a>
</g>
</g>
<!-- Node1&#45;&gt;Node2 -->
<g id="edge1_Node000001_Node000002" class="edge">
<title>Node1&#45;&gt;Node2</title>
<g id="a_edge1_Node000001_Node000002"><a xlink:title=" ">
<path fill="none" stroke="#63b8ff" d="M90.25,-132.7C109.85,-144.64 137.68,-160.98 163,-173.62 168.72,-176.48 174.86,-179.32 180.92,-181.99"/>
<polygon fill="#63b8ff" stroke="#63b8ff" points="92.19,-129.78 81.84,-127.52 88.52,-135.74 92.19,-129.78"/>
</a>
</g>
</g>
<!-- Node3 -->
<g id="Node000003" class="node">
<title>Node3</title>
<g id="a_Node000003"><a xlink:href="../../db/d59/structfloppy_1_1traits_1_1formattable.html" target="_top" xlink:title=" ">
<polygon fill="white" stroke="#666666" points="275,-164.5 166,-164.5 166,-122.75 275,-122.75 275,-164.5"/>
<text text-anchor="start" x="174" y="-150.05" font-family="Arial" font-size="11.00">formattable&lt; length</text>
<text text-anchor="start" x="174" y="-138.8" font-family="Arial" font-size="11.00">&lt; default_unit, f32</text>
<text text-anchor="middle" x="220.5" y="-127.55" font-family="Arial" font-size="11.00"> &gt;, char &gt;</text>
</a>
</g>
</g>
<!-- Node1&#45;&gt;Node3 -->
<g id="edge2_Node000001_Node000003" class="edge">
<title>Node1&#45;&gt;Node3</title>
<g id="a_edge2_Node000001_Node000003"><a xlink:title=" ">
<path fill="none" stroke="#63b8ff" d="M133.35,-128.62C144.16,-130.5 155.18,-132.42 165.58,-134.23"/>
<polygon fill="#63b8ff" stroke="#63b8ff" points="134.16,-125.21 123.71,-126.94 132.96,-132.1 134.16,-125.21"/>
</a>
</g>
</g>
<!-- Node4 -->
<g id="Node000004" class="node">
<title>Node4</title>
<g id="a_Node000004"><a xlink:href="../../db/d59/structfloppy_1_1traits_1_1formattable.html" target="_top" xlink:title=" ">
<polygon fill="white" stroke="#666666" points="278,-104.88 163,-104.88 163,-74.38 278,-74.38 278,-104.88"/>
<text text-anchor="start" x="171" y="-90.42" font-family="Arial" font-size="11.00">formattable&lt; scale</text>
<text text-anchor="middle" x="220.5" y="-79.17" font-family="Arial" font-size="11.00">&lt; S, D, f32 &gt;, char &gt;</text>
</a>
</g>
</g>
<!-- Node1&#45;&gt;Node4 -->
<g id="edge3_Node000001_Node000004" class="edge">
<title>Node1&#45;&gt;Node4</title>
<g id="a_edge3_Node000001_Node000004"><a xlink:title=" ">
<path fill="none" stroke="#63b8ff" d="M133.48,-104.61C143.19,-102.92 153.07,-101.2 162.51,-99.55"/>
<polygon fill="#63b8ff" stroke="#63b8ff" points="132.96,-101.15 123.71,-106.31 134.16,-108.04 132.96,-101.15"/>
</a>
</g>
</g>
<!-- Node5 -->
<g id="Node000005" class="node">
<title>Node5</title>
<g id="a_Node000005"><a xlink:href="../../db/d59/structfloppy_1_1traits_1_1formattable.html" target="_top" xlink:title="Allows type to be converted to string and printed via standard streams or fmt.">
<polygon fill="white" stroke="#666666" points="275.38,-56.25 165.62,-56.25 165.62,-37 275.38,-37 275.38,-56.25"/>
<text text-anchor="middle" x="220.5" y="-41.8" font-family="Arial" font-size="11.00">formattable&lt; T, C &gt;</text>
</a>
</g>
</g>
<!-- Node1&#45;&gt;Node5 -->
<g id="edge4_Node000001_Node000005" class="edge">
<title>Node1&#45;&gt;Node5</title>
<g id="a_edge4_Node000001_Node000005"><a xlink:title=" ">
<path fill="none" stroke="#63b8ff" d="M91.88,-101C111.35,-90.26 138.32,-76.09 163,-65.62 170.53,-62.43 178.79,-59.4 186.62,-56.74"/>
<polygon fill="#63b8ff" stroke="#63b8ff" points="90.25,-97.91 83.22,-105.84 93.66,-104.02 90.25,-97.91"/>
</a>
</g>
</g>
<!-- Node6 -->
<g id="Node000006" class="node">
<title>Node6</title>
<g id="a_Node000006"><a xlink:href="../../de/d4d/structfloppy_1_1math_1_1angle.html" target="_top" xlink:title="Newtype describing an angle.">
<polygon fill="white" stroke="#666666" points="395.62,-93.25 327.12,-93.25 327.12,-74 395.62,-74 395.62,-93.25"/>
<text text-anchor="middle" x="361.38" y="-78.8" font-family="Arial" font-size="11.00">angle&lt; T &gt;</text>
</a>
</g>
</g>
<!-- Node5&#45;&gt;Node6 -->
<g id="edge5_Node000005_Node000006" class="edge">
<title>Node5&#45;&gt;Node6</title>
<g id="a_edge5_Node000005_Node000006"><a xlink:title=" ">
<path fill="none" stroke="#63b8ff" d="M270.42,-59.66C289.04,-64.62 309.84,-70.16 326.74,-74.66"/>
<polygon fill="#63b8ff" stroke="#63b8ff" points="271.47,-56.32 260.91,-57.13 269.67,-63.08 271.47,-56.32"/>
</a>
</g>
</g>
<!-- Node7 -->
<g id="Node000007" class="node">
<title>Node7</title>
<g id="a_Node000007"><a xlink:href="../../dd/dd1/classfloppy_1_1math_1_1length.html" target="_top" xlink:title="A one&#45;dimensional distance with associated unit of measurement.">
<polygon fill="white" stroke="#666666" points="403.88,-56.25 318.88,-56.25 318.88,-37 403.88,-37 403.88,-56.25"/>
<text text-anchor="middle" x="361.38" y="-41.8" font-family="Arial" font-size="11.00">length&lt; U, T &gt;</text>
</a>
</g>
</g>
<!-- Node5&#45;&gt;Node7 -->
<g id="edge6_Node000005_Node000007" class="edge">
<title>Node5&#45;&gt;Node7</title>
<g id="a_edge6_Node000005_Node000007"><a xlink:title=" ">
<path fill="none" stroke="#63b8ff" d="M286.8,-46.62C297.65,-46.62 308.64,-46.62 318.69,-46.62"/>
<polygon fill="#63b8ff" stroke="#63b8ff" points="287.1,-43.13 277.1,-46.63 287.1,-50.13 287.1,-43.13"/>
</a>
</g>
</g>
<!-- Node8 -->
<g id="Node000008" class="node">
<title>Node8</title>
<g id="a_Node000008"><a xlink:href="../../db/db2/structfloppy_1_1math_1_1scale.html" target="_top" xlink:title="A scaling factor between two different units of measurement.">
<polygon fill="white" stroke="#666666" points="408.75,-19.25 314,-19.25 314,0 408.75,0 408.75,-19.25"/>
<text text-anchor="middle" x="361.38" y="-4.8" font-family="Arial" font-size="11.00">scale&lt; S, D, T &gt;</text>
</a>
</g>
</g>
<!-- Node5&#45;&gt;Node8 -->
<g id="edge7_Node000005_Node000008" class="edge">
<title>Node5&#45;&gt;Node8</title>
<g id="a_edge7_Node000005_Node000008"><a xlink:title=" ">
<path fill="none" stroke="#63b8ff" d="M270.37,-33.6C287.47,-29.05 306.4,-24 322.47,-19.72"/>
<polygon fill="#63b8ff" stroke="#63b8ff" points="269.67,-30.17 260.91,-36.12 271.47,-36.93 269.67,-30.17"/>
</a>
</g>
</g>
</g>
</svg>
</svg>

<style type='text/css'>
<![CDATA[
[data-mouse-over-selected='false'] { opacity: 0.7; }
[data-mouse-over-selected='true']  { opacity: 1.0; }
]]>
</style>
<script type="application/ecmascript"><![CDATA[
document.addEventListener('DOMContentLoaded', (event) => {
  highlightEdges();
  highlightAdjacentNodes();
});
]]></script>
</svg>
