<?xml version="1.0" encoding="UTF-8" standalone="no"?>
<!DOCTYPE svg PUBLIC "-//W3C//DTD SVG 1.1//EN"
 "http://www.w3.org/Graphics/SVG/1.1/DTD/svg11.dtd">
<!-- Generated by graphviz version 10.0.1 (0)
 -->
<!-- Title: scale.h Pages: 1 -->
<svg width="68pt" height="138pt"
 viewBox="0.00 0.00 68.25 137.75" xmlns="http://www.w3.org/2000/svg" xmlns:xlink="http://www.w3.org/1999/xlink">
<g id="graph0" class="graph" transform="scale(1 1) rotate(0) translate(4 133.75)">
<title>scale.h</title>
<!-- Node1 -->
<g id="Node000001" class="node">
<title>Node1</title>
<g id="a_Node000001"><a xlink:title="A scaling factor between two different units of measurement.">
<polygon fill="#999999" stroke="#666666" points="55,-129.75 5.25,-129.75 5.25,-110.5 55,-110.5 55,-129.75"/>
<text text-anchor="middle" x="30.12" y="-115.3" font-family="Arial" font-size="11.00">scale.h</text>
</a>
</g>
</g>
<!-- Node2 -->
<g id="Node000002" class="node">
<title>Node2</title>
<g id="a_Node000002"><a xlink:href="../../dd/db9/length_8h.html" target="_top" xlink:title="A one&#45;dimensional distance with associated unit of measurement.">
<polygon fill="white" stroke="#666666" points="57.25,-74.5 3,-74.5 3,-55.25 57.25,-55.25 57.25,-74.5"/>
<text text-anchor="middle" x="30.12" y="-60.05" font-family="Arial" font-size="11.00">length.h</text>
</a>
</g>
</g>
<!-- Node1&#45;&gt;Node2 -->
<g id="edge1_Node000001_Node000002" class="edge">
<title>Node1&#45;&gt;Node2</title>
<g id="a_edge1_Node000001_Node000002"><a xlink:title=" ">
<path fill="none" stroke="#63b8ff" d="M30.12,-98.88C30.12,-90.59 30.12,-81.42 30.12,-74.86"/>
<polygon fill="#63b8ff" stroke="#63b8ff" points="26.63,-98.82 30.13,-108.82 33.63,-98.82 26.63,-98.82"/>
</a>
</g>
</g>
<!-- Node3 -->
<g id="Node000003" class="node">
<title>Node3</title>
<g id="a_Node000003"><a xlink:href="../../d4/d12/point2d_8h.html" target="_top" xlink:title="A two&#45;dimensional point tagged with a unit.">
<polygon fill="white" stroke="#666666" points="60.25,-19.25 0,-19.25 0,0 60.25,0 60.25,-19.25"/>
<text text-anchor="middle" x="30.12" y="-4.8" font-family="Arial" font-size="11.00">point2d.h</text>
</a>
</g>
</g>
<!-- Node2&#45;&gt;Node3 -->
<g id="edge2_Node000002_Node000003" class="edge">
<title>Node2&#45;&gt;Node3</title>
<g id="a_edge2_Node000002_Node000003"><a xlink:title=" ">
<path fill="none" stroke="#63b8ff" d="M30.12,-43.63C30.12,-35.34 30.12,-26.17 30.12,-19.61"/>
<polygon fill="#63b8ff" stroke="#63b8ff" points="26.63,-43.57 30.13,-53.57 33.63,-43.57 26.63,-43.57"/>
</a>
</g>
</g>
</g>
</svg>
