<?xml version="1.0" encoding="UTF-8" standalone="no"?>
<!DOCTYPE svg PUBLIC "-//W3C//DTD SVG 1.1//EN"
 "http://www.w3.org/Graphics/SVG/1.1/DTD/svg11.dtd">
<!-- Generated by graphviz version 10.0.1 (0)
 -->
<!-- Title: scale.h Pages: 1 -->
<svg width="264pt" height="304pt"
 viewBox="0.00 0.00 264.12 303.50" xmlns="http://www.w3.org/2000/svg" xmlns:xlink="http://www.w3.org/1999/xlink">
<g id="graph0" class="graph" transform="scale(1 1) rotate(0) translate(4 299.5)">
<title>scale.h</title>
<!-- Node1 -->
<g id="Node000001" class="node">
<title>Node1</title>
<g id="a_Node000001"><a xlink:title="A scaling factor between two different units of measurement.">
<polygon fill="#999999" stroke="#666666" points="210,-295.5 160.25,-295.5 160.25,-276.25 210,-276.25 210,-295.5"/>
<text text-anchor="middle" x="185.12" y="-281.05" font-family="Arial" font-size="11.00">scale.h</text>
</a>
</g>
</g>
<!-- Node2 -->
<g id="Node000002" class="node">
<title>Node2</title>
<g id="a_Node000002"><a xlink:href="../../de/d44/euclid_8h.html" target="_top" xlink:title="Small collection of classes and functions for geometric types with a focus on 2d graphics and layout.">
<polygon fill="white" stroke="#666666" points="179.5,-19.25 126.75,-19.25 126.75,0 179.5,0 179.5,-19.25"/>
<text text-anchor="middle" x="153.12" y="-4.8" font-family="Arial" font-size="11.00">euclid.h</text>
</a>
</g>
</g>
<!-- Node1&#45;&gt;Node2 -->
<g id="edge1_Node000001_Node000002" class="edge">
<title>Node1&#45;&gt;Node2</title>
<g id="a_edge1_Node000001_Node000002"><a xlink:title=" ">
<path fill="none" stroke="#63b8ff" d="M204.86,-268.33C225.87,-248.74 256.12,-214 256.12,-176.38 256.12,-176.38 256.12,-176.38 256.12,-119.12 256.12,-70.82 201.75,-35.43 172.02,-19.69"/>
<polygon fill="#63b8ff" stroke="#63b8ff" points="202.79,-265.48 197.66,-274.75 207.45,-270.7 202.79,-265.48"/>
</a>
</g>
</g>
<!-- Node3 -->
<g id="Node000003" class="node">
<title>Node3</title>
<g id="a_Node000003"><a xlink:href="../../dd/db9/length_8h.html" target="_top" xlink:title="A one&#45;dimensional distance with associated unit of measurement.">
<polygon fill="white" stroke="#666666" points="174.25,-240.25 120,-240.25 120,-221 174.25,-221 174.25,-240.25"/>
<text text-anchor="middle" x="147.12" y="-225.8" font-family="Arial" font-size="11.00">length.h</text>
</a>
</g>
</g>
<!-- Node1&#45;&gt;Node3 -->
<g id="edge2_Node000001_Node000003" class="edge">
<title>Node1&#45;&gt;Node3</title>
<g id="a_edge2_Node000001_Node000003"><a xlink:title=" ">
<path fill="none" stroke="#63b8ff" d="M172.33,-266.94C166.01,-258.09 158.66,-247.79 153.54,-240.61"/>
<polygon fill="#63b8ff" stroke="#63b8ff" points="169.31,-268.74 177.97,-274.85 175.01,-264.68 169.31,-268.74"/>
</a>
</g>
</g>
<!-- Node3&#45;&gt;Node2 -->
<g id="edge3_Node000003_Node000002" class="edge">
<title>Node3&#45;&gt;Node2</title>
<g id="a_edge3_Node000003_Node000002"><a xlink:title=" ">
<path fill="none" stroke="#63b8ff" d="M160.9,-211.52C166.16,-203.74 171.7,-194.31 175.12,-185 192.24,-138.42 187.56,-124 191.12,-74.5 191.74,-65.97 194.08,-63.28 191.12,-55.25 185.78,-40.73 173.39,-27.72 164.2,-19.55"/>
<polygon fill="#63b8ff" stroke="#63b8ff" points="158.22,-209.25 155.23,-219.42 163.91,-213.33 158.22,-209.25"/>
</a>
</g>
</g>
<!-- Node4 -->
<g id="Node000004" class="node">
<title>Node4</title>
<g id="a_Node000004"><a xlink:href="../../da/d53/nt__traits2d_8h_source.html" target="_top" xlink:title=" ">
<polygon fill="white" stroke="#666666" points="151.75,-185 76.5,-185 76.5,-165.75 151.75,-165.75 151.75,-185"/>
<text text-anchor="middle" x="114.12" y="-170.55" font-family="Arial" font-size="11.00">nt_traits2d.h</text>
</a>
</g>
</g>
<!-- Node3&#45;&gt;Node4 -->
<g id="edge4_Node000003_Node000004" class="edge">
<title>Node3&#45;&gt;Node4</title>
<g id="a_edge4_Node000003_Node000004"><a xlink:title=" ">
<path fill="none" stroke="#63b8ff" d="M135.65,-211.12C130.25,-202.39 124.05,-192.39 119.69,-185.36"/>
<polygon fill="#63b8ff" stroke="#63b8ff" points="132.64,-212.89 140.88,-219.55 138.59,-209.2 132.64,-212.89"/>
</a>
</g>
</g>
<!-- Node5 -->
<g id="Node000005" class="node">
<title>Node5</title>
<g id="a_Node000005"><a xlink:href="../../d4/d12/point2d_8h.html" target="_top" xlink:title="A two&#45;dimensional point tagged with a unit.">
<polygon fill="white" stroke="#666666" points="60.25,-74.5 0,-74.5 0,-55.25 60.25,-55.25 60.25,-74.5"/>
<text text-anchor="middle" x="30.12" y="-60.05" font-family="Arial" font-size="11.00">point2d.h</text>
</a>
</g>
</g>
<!-- Node3&#45;&gt;Node5 -->
<g id="edge12_Node000003_Node000005" class="edge">
<title>Node3&#45;&gt;Node5</title>
<g id="a_edge12_Node000003_Node000005"><a xlink:title=" ">
<path fill="none" stroke="#63b8ff" d="M109.2,-216.76C92.46,-209.55 73.57,-199.12 60.12,-185 30.12,-153.49 28.89,-96.55 29.62,-74.72"/>
<polygon fill="#63b8ff" stroke="#63b8ff" points="107.83,-219.98 118.41,-220.48 110.45,-213.49 107.83,-219.98"/>
</a>
</g>
</g>
<!-- Node6 -->
<g id="Node000006" class="node">
<title>Node6</title>
<g id="a_Node000006"><a xlink:href="../../dc/df8/size2d_8h.html" target="_top" xlink:title="A two&#45;dimensional size tagged with a unit.">
<polygon fill="white" stroke="#666666" points="114,-129.75 58.25,-129.75 58.25,-110.5 114,-110.5 114,-129.75"/>
<text text-anchor="middle" x="86.12" y="-115.3" font-family="Arial" font-size="11.00">size2d.h</text>
</a>
</g>
</g>
<!-- Node3&#45;&gt;Node6 -->
<g id="edge13_Node000003_Node000006" class="edge">
<title>Node3&#45;&gt;Node6</title>
<g id="a_edge13_Node000003_Node000006"><a xlink:title=" ">
<path fill="none" stroke="#63b8ff" d="M109.42,-218.25C93.42,-211.35 76.37,-200.75 67.12,-185 56.58,-167.04 70.26,-142.76 79.31,-129.92"/>
<polygon fill="#63b8ff" stroke="#63b8ff" points="107.68,-221.33 118.27,-221.72 110.23,-214.81 107.68,-221.33"/>
</a>
</g>
</g>
<!-- Node7 -->
<g id="Node000007" class="node">
<title>Node7</title>
<g id="a_Node000007"><a xlink:href="../../d1/dab/vector2d_8h.html" target="_top" xlink:title="A two&#45;dimensional vector tagged with a unit.">
<polygon fill="white" stroke="#666666" points="182.25,-74.5 116,-74.5 116,-55.25 182.25,-55.25 182.25,-74.5"/>
<text text-anchor="middle" x="149.12" y="-60.05" font-family="Arial" font-size="11.00">vector2d.h</text>
</a>
</g>
</g>
<!-- Node3&#45;&gt;Node7 -->
<g id="edge14_Node000003_Node000007" class="edge">
<title>Node3&#45;&gt;Node7</title>
<g id="a_edge14_Node000003_Node000007"><a xlink:title=" ">
<path fill="none" stroke="#63b8ff" d="M154.74,-209.87C157.31,-202.22 159.85,-193.32 161.12,-185 167.39,-144.11 156.66,-94.81 151.58,-74.88"/>
<polygon fill="#63b8ff" stroke="#63b8ff" points="151.49,-208.57 151.37,-219.17 158.07,-210.96 151.49,-208.57"/>
</a>
</g>
</g>
<!-- Node4&#45;&gt;Node5 -->
<g id="edge5_Node000004_Node000005" class="edge">
<title>Node4&#45;&gt;Node5</title>
<g id="a_edge5_Node000004_Node000005"><a xlink:title=" ">
<path fill="none" stroke="#63b8ff" d="M84.67,-159.99C72.11,-152.53 58.28,-142.33 49.12,-129.75 36.87,-112.91 32.46,-88.17 30.91,-74.97"/>
<polygon fill="#63b8ff" stroke="#63b8ff" points="82.58,-162.84 93.02,-164.64 85.99,-156.72 82.58,-162.84"/>
</a>
</g>
</g>
<!-- Node4&#45;&gt;Node6 -->
<g id="edge7_Node000004_Node000006" class="edge">
<title>Node4&#45;&gt;Node6</title>
<g id="a_edge7_Node000004_Node000006"><a xlink:title=" ">
<path fill="none" stroke="#63b8ff" d="M104.24,-155.58C99.69,-146.92 94.5,-137.06 90.85,-130.11"/>
<polygon fill="#63b8ff" stroke="#63b8ff" points="101.05,-157.02 108.8,-164.24 107.24,-153.76 101.05,-157.02"/>
</a>
</g>
</g>
<!-- Node4&#45;&gt;Node7 -->
<g id="edge11_Node000004_Node000007" class="edge">
<title>Node4&#45;&gt;Node7</title>
<g id="a_edge11_Node000004_Node000007"><a xlink:title=" ">
<path fill="none" stroke="#63b8ff" d="M120.48,-154.68C128.11,-131.01 140.6,-92.3 146.22,-74.88"/>
<polygon fill="#63b8ff" stroke="#63b8ff" points="117.19,-153.46 117.45,-164.06 123.85,-155.61 117.19,-153.46"/>
</a>
</g>
</g>
<!-- Node5&#45;&gt;Node2 -->
<g id="edge6_Node000005_Node000002" class="edge">
<title>Node5&#45;&gt;Node2</title>
<g id="a_edge6_Node000005_Node000002"><a xlink:title=" ">
<path fill="none" stroke="#63b8ff" d="M61.55,-50.27C83.71,-40.68 112.77,-28.09 132.16,-19.7"/>
<polygon fill="#63b8ff" stroke="#63b8ff" points="60.17,-47.06 52.38,-54.24 62.95,-53.48 60.17,-47.06"/>
</a>
</g>
</g>
<!-- Node6&#45;&gt;Node2 -->
<g id="edge8_Node000006_Node000002" class="edge">
<title>Node6&#45;&gt;Node2</title>
<g id="a_edge8_Node000006_Node000002"><a xlink:title=" ">
<path fill="none" stroke="#63b8ff" d="M90.06,-99.17C93.27,-86 98.68,-68.75 107.12,-55.25 116.1,-40.91 130.63,-27.87 140.96,-19.64"/>
<polygon fill="#63b8ff" stroke="#63b8ff" points="86.67,-98.29 87.95,-108.81 93.51,-99.79 86.67,-98.29"/>
</a>
</g>
</g>
<!-- Node6&#45;&gt;Node5 -->
<g id="edge9_Node000006_Node000005" class="edge">
<title>Node6&#45;&gt;Node5</title>
<g id="a_edge9_Node000006_Node000005"><a xlink:title=" ">
<path fill="none" stroke="#63b8ff" d="M68.49,-102.36C58.88,-93.22 47.37,-82.28 39.48,-74.77"/>
<polygon fill="#63b8ff" stroke="#63b8ff" points="65.87,-104.69 75.53,-109.05 70.69,-99.62 65.87,-104.69"/>
</a>
</g>
</g>
<!-- Node6&#45;&gt;Node7 -->
<g id="edge10_Node000006_Node000007" class="edge">
<title>Node6&#45;&gt;Node7</title>
<g id="a_edge10_Node000006_Node000007"><a xlink:title=" ">
<path fill="none" stroke="#63b8ff" d="M105.3,-102.91C116.24,-93.67 129.54,-82.43 138.6,-74.77"/>
<polygon fill="#63b8ff" stroke="#63b8ff" points="103.35,-99.99 97.97,-109.11 107.86,-105.33 103.35,-99.99"/>
</a>
</g>
</g>
</g>
</svg>
