<?xml version="1.0" encoding="UTF-8" standalone="no"?>
<!DOCTYPE svg PUBLIC "-//W3C//DTD SVG 1.1//EN"
 "http://www.w3.org/Graphics/SVG/1.1/DTD/svg11.dtd">
<!-- Generated by graphviz version 10.0.1 (0)
 -->
<!-- Title: scale.h Pages: 1 -->
<svg width="195pt" height="248pt"
 viewBox="0.00 0.00 194.75 248.25" xmlns="http://www.w3.org/2000/svg" xmlns:xlink="http://www.w3.org/1999/xlink">
<g id="graph0" class="graph" transform="scale(1 1) rotate(0) translate(4 244.25)">
<title>scale.h</title>
<!-- Node1 -->
<g id="Node000001" class="node">
<title>Node1</title>
<g id="a_Node000001"><a xlink:title="A scaling factor between two different units of measurement.">
<polygon fill="#999999" stroke="#666666" points="49.75,-240.25 0,-240.25 0,-221 49.75,-221 49.75,-240.25"/>
<text text-anchor="middle" x="24.88" y="-225.8" font-family="Arial" font-size="11.00">scale.h</text>
</a>
</g>
</g>
<!-- Node2 -->
<g id="Node000002" class="node">
<title>Node2</title>
<g id="a_Node000002"><a xlink:href="../../de/d44/euclid_8h_source.html" target="_top" xlink:title=" ">
<polygon fill="white" stroke="#666666" points="80.25,-19.25 27.5,-19.25 27.5,0 80.25,0 80.25,-19.25"/>
<text text-anchor="middle" x="53.88" y="-4.8" font-family="Arial" font-size="11.00">euclid.h</text>
</a>
</g>
</g>
<!-- Node1&#45;&gt;Node2 -->
<g id="edge1_Node000001_Node000002" class="edge">
<title>Node1&#45;&gt;Node2</title>
<g id="a_edge1_Node000001_Node000002"><a xlink:title=" ">
<path fill="none" stroke="#63b8ff" d="M24.73,-209.7C24.87,-177.04 26.8,-110.24 38.88,-55.25 41.65,-42.64 46.71,-28.59 50.18,-19.69"/>
<polygon fill="#63b8ff" stroke="#63b8ff" points="21.22,-209.28 24.74,-219.28 28.22,-209.27 21.22,-209.28"/>
</a>
</g>
</g>
<!-- Node3 -->
<g id="Node000003" class="node">
<title>Node3</title>
<g id="a_Node000003"><a xlink:href="../../dd/db9/length_8h.html" target="_top" xlink:title="A one&#45;dimensional distance with associated unit of measurement.">
<polygon fill="white" stroke="#666666" points="90,-185 35.75,-185 35.75,-165.75 90,-165.75 90,-185"/>
<text text-anchor="middle" x="62.88" y="-170.55" font-family="Arial" font-size="11.00">length.h</text>
</a>
</g>
</g>
<!-- Node1&#45;&gt;Node3 -->
<g id="edge2_Node000001_Node000003" class="edge">
<title>Node1&#45;&gt;Node3</title>
<g id="a_edge2_Node000001_Node000003"><a xlink:title=" ">
<path fill="none" stroke="#63b8ff" d="M37.67,-211.69C43.99,-202.84 51.34,-192.54 56.46,-185.36"/>
<polygon fill="#63b8ff" stroke="#63b8ff" points="34.99,-209.43 32.03,-219.6 40.69,-213.49 34.99,-209.43"/>
</a>
</g>
</g>
<!-- Node3&#45;&gt;Node2 -->
<g id="edge3_Node000003_Node000002" class="edge">
<title>Node3&#45;&gt;Node2</title>
<g id="a_edge3_Node000003_Node000002"><a xlink:title=" ">
<path fill="none" stroke="#63b8ff" d="M56.4,-154.51C49.47,-130.92 39.99,-90.36 43.88,-55.25 45.27,-42.62 48.83,-28.35 51.3,-19.42"/>
<polygon fill="#63b8ff" stroke="#63b8ff" points="53.03,-155.49 59.34,-164 59.72,-153.41 53.03,-155.49"/>
</a>
</g>
</g>
<!-- Node4 -->
<g id="Node000004" class="node">
<title>Node4</title>
<g id="a_Node000004"><a xlink:href="../../da/d53/nt__traits2d_8h_source.html" target="_top" xlink:title=" ">
<polygon fill="white" stroke="#666666" points="166.5,-129.75 91.25,-129.75 91.25,-110.5 166.5,-110.5 166.5,-129.75"/>
<text text-anchor="middle" x="128.88" y="-115.3" font-family="Arial" font-size="11.00">nt_traits2d.h</text>
</a>
</g>
</g>
<!-- Node3&#45;&gt;Node4 -->
<g id="edge4_Node000003_Node000004" class="edge">
<title>Node3&#45;&gt;Node4</title>
<g id="a_edge4_Node000003_Node000004"><a xlink:title=" ">
<path fill="none" stroke="#63b8ff" d="M82.97,-158.16C94.43,-148.92 108.36,-137.68 117.84,-130.02"/>
<polygon fill="#63b8ff" stroke="#63b8ff" points="80.83,-155.39 75.25,-164.39 85.23,-160.84 80.83,-155.39"/>
</a>
</g>
</g>
<!-- Node5 -->
<g id="Node000005" class="node">
<title>Node5</title>
<g id="a_Node000005"><a xlink:href="../../d4/d12/point2d_8h.html" target="_top" xlink:title="A two&#45;dimensional point tagged with a unit.">
<polygon fill="white" stroke="#666666" points="113,-74.5 52.75,-74.5 52.75,-55.25 113,-55.25 113,-74.5"/>
<text text-anchor="middle" x="82.88" y="-60.05" font-family="Arial" font-size="11.00">point2d.h</text>
</a>
</g>
</g>
<!-- Node3&#45;&gt;Node5 -->
<g id="edge9_Node000003_Node000005" class="edge">
<title>Node3&#45;&gt;Node5</title>
<g id="a_edge9_Node000003_Node000005"><a xlink:title=" ">
<path fill="none" stroke="#63b8ff" d="M66.57,-154.35C70.93,-130.65 78.02,-92.22 81.22,-74.88"/>
<polygon fill="#63b8ff" stroke="#63b8ff" points="63.16,-153.54 64.79,-164.01 70.04,-154.81 63.16,-153.54"/>
</a>
</g>
</g>
<!-- Node6 -->
<g id="Node000006" class="node">
<title>Node6</title>
<g id="a_Node000006"><a xlink:href="../../dc/df8/size2d_8h.html" target="_top" xlink:title="A two&#45;dimensional size tagged with a unit.">
<polygon fill="white" stroke="#666666" points="186.75,-74.5 131,-74.5 131,-55.25 186.75,-55.25 186.75,-74.5"/>
<text text-anchor="middle" x="158.88" y="-60.05" font-family="Arial" font-size="11.00">size2d.h</text>
</a>
</g>
</g>
<!-- Node3&#45;&gt;Node6 -->
<g id="edge10_Node000003_Node000006" class="edge">
<title>Node3&#45;&gt;Node6</title>
<g id="a_edge10_Node000003_Node000006"><a xlink:title=" ">
<path fill="none" stroke="#63b8ff" d="M101.43,-170.19C127.2,-165.16 159.31,-154.1 175.88,-129.75 187.49,-112.67 174.37,-88.03 165.55,-74.91"/>
<polygon fill="#63b8ff" stroke="#63b8ff" points="100.89,-166.73 91.61,-171.85 102.05,-173.63 100.89,-166.73"/>
</a>
</g>
</g>
<!-- Node4&#45;&gt;Node5 -->
<g id="edge5_Node000004_Node000005" class="edge">
<title>Node4&#45;&gt;Node5</title>
<g id="a_edge5_Node000004_Node000005"><a xlink:title=" ">
<path fill="none" stroke="#63b8ff" d="M113.87,-101.76C106.12,-92.78 96.97,-82.2 90.64,-74.86"/>
<polygon fill="#63b8ff" stroke="#63b8ff" points="111.1,-103.91 120.29,-109.19 116.4,-99.33 111.1,-103.91"/>
</a>
</g>
</g>
<!-- Node4&#45;&gt;Node6 -->
<g id="edge7_Node000004_Node000006" class="edge">
<title>Node4&#45;&gt;Node6</title>
<g id="a_edge7_Node000004_Node000006"><a xlink:title=" ">
<path fill="none" stroke="#63b8ff" d="M139.46,-100.33C144.34,-91.67 149.9,-81.81 153.81,-74.86"/>
<polygon fill="#63b8ff" stroke="#63b8ff" points="136.43,-98.58 134.57,-109.01 142.53,-102.02 136.43,-98.58"/>
</a>
</g>
</g>
<!-- Node5&#45;&gt;Node2 -->
<g id="edge6_Node000005_Node000002" class="edge">
<title>Node5&#45;&gt;Node2</title>
<g id="a_edge6_Node000005_Node000002"><a xlink:title=" ">
<path fill="none" stroke="#63b8ff" d="M72.64,-45.08C67.93,-36.42 62.55,-26.56 58.77,-19.61"/>
<polygon fill="#63b8ff" stroke="#63b8ff" points="69.51,-46.64 77.36,-53.75 75.65,-43.3 69.51,-46.64"/>
</a>
</g>
</g>
<!-- Node6&#45;&gt;Node2 -->
<g id="edge8_Node000006_Node000002" class="edge">
<title>Node6&#45;&gt;Node2</title>
<g id="a_edge8_Node000006_Node000002"><a xlink:title=" ">
<path fill="none" stroke="#63b8ff" d="M131.01,-49.74C112.23,-40.22 88.02,-27.94 71.77,-19.7"/>
<polygon fill="#63b8ff" stroke="#63b8ff" points="129.21,-52.76 139.71,-54.16 132.38,-46.51 129.21,-52.76"/>
</a>
</g>
</g>
</g>
</svg>
