<?xml version="1.0" encoding="UTF-8" standalone="no"?>
<!DOCTYPE svg PUBLIC "-//W3C//DTD SVG 1.1//EN"
 "http://www.w3.org/Graphics/SVG/1.1/DTD/svg11.dtd">
<!-- Generated by graphviz version 10.0.1 (0)
 -->
<!-- Title: scale.h Pages: 1 -->
<svg width="206pt" height="304pt"
 viewBox="0.00 0.00 206.32 303.50" xmlns="http://www.w3.org/2000/svg" xmlns:xlink="http://www.w3.org/1999/xlink">
<g id="graph0" class="graph" transform="scale(1 1) rotate(0) translate(4 299.5)">
<title>scale.h</title>
<!-- Node1 -->
<g id="Node000001" class="node">
<title>Node1</title>
<g id="a_Node000001"><a xlink:title="A scaling factor between two different units of measurement.">
<polygon fill="#999999" stroke="#666666" points="76.88,-295.5 27.12,-295.5 27.12,-276.25 76.88,-276.25 76.88,-295.5"/>
<text text-anchor="middle" x="52" y="-281.05" font-family="Arial" font-size="11.00">scale.h</text>
</a>
</g>
</g>
<!-- Node2 -->
<g id="Node000002" class="node">
<title>Node2</title>
<g id="a_Node000002"><a xlink:href="../../de/d44/euclid_8h.html" target="_top" xlink:title="Small collection of classes and functions for geometric types with a focus on 2d graphics and layout.">
<polygon fill="white" stroke="#666666" points="120.38,-19.25 67.62,-19.25 67.62,0 120.38,0 120.38,-19.25"/>
<text text-anchor="middle" x="94" y="-4.8" font-family="Arial" font-size="11.00">euclid.h</text>
</a>
</g>
</g>
<!-- Node1&#45;&gt;Node2 -->
<g id="edge1_Node000001_Node000002" class="edge">
<title>Node1&#45;&gt;Node2</title>
<g id="a_edge1_Node000001_Node000002"><a xlink:title=" ">
<path fill="none" stroke="#63b8ff" d="M37.44,-267.2C22.05,-246.68 0,-211.2 0,-176.38 0,-176.38 0,-176.38 0,-119.12 0,-72.27 50.69,-35.72 77.63,-19.61"/>
<polygon fill="#63b8ff" stroke="#63b8ff" points="34.47,-269.09 43.39,-274.8 39.98,-264.77 34.47,-269.09"/>
</a>
</g>
</g>
<!-- Node3 -->
<g id="Node000003" class="node">
<title>Node3</title>
<g id="a_Node000003"><a xlink:href="../../dd/db9/length_8h.html" target="_top" xlink:title="A one&#45;dimensional distance with associated unit of measurement.">
<polygon fill="white" stroke="#666666" points="131.12,-240.25 76.88,-240.25 76.88,-221 131.12,-221 131.12,-240.25"/>
<text text-anchor="middle" x="104" y="-225.8" font-family="Arial" font-size="11.00">length.h</text>
</a>
</g>
</g>
<!-- Node1&#45;&gt;Node3 -->
<g id="edge2_Node000001_Node000003" class="edge">
<title>Node1&#45;&gt;Node3</title>
<g id="a_edge2_Node000001_Node000003"><a xlink:title=" ">
<path fill="none" stroke="#63b8ff" d="M68.41,-268.07C77.29,-258.98 87.91,-248.1 95.23,-240.61"/>
<polygon fill="#63b8ff" stroke="#63b8ff" points="66.13,-265.4 61.64,-275 71.13,-270.29 66.13,-265.4"/>
</a>
</g>
</g>
<!-- Node3&#45;&gt;Node2 -->
<g id="edge3_Node000003_Node000002" class="edge">
<title>Node3&#45;&gt;Node2</title>
<g id="a_edge3_Node000003_Node000002"><a xlink:title=" ">
<path fill="none" stroke="#63b8ff" d="M135.96,-215.14C147.96,-207.92 160.31,-197.93 167,-185 180.51,-158.87 232.58,-179.21 162,-55.25 152.43,-38.44 133.63,-26.84 118.21,-19.69"/>
<polygon fill="#63b8ff" stroke="#63b8ff" points="134.5,-211.95 127.41,-219.82 137.86,-218.08 134.5,-211.95"/>
</a>
</g>
</g>
<!-- Node4 -->
<g id="Node000004" class="node">
<title>Node4</title>
<g id="a_Node000004"><a xlink:href="../../da/d53/nt__traits2d_8h_source.html" target="_top" xlink:title=" ">
<polygon fill="white" stroke="#666666" points="141.62,-185 66.38,-185 66.38,-165.75 141.62,-165.75 141.62,-185"/>
<text text-anchor="middle" x="104" y="-170.55" font-family="Arial" font-size="11.00">nt_traits2d.h</text>
</a>
</g>
</g>
<!-- Node3&#45;&gt;Node4 -->
<g id="edge4_Node000003_Node000004" class="edge">
<title>Node3&#45;&gt;Node4</title>
<g id="a_edge4_Node000003_Node000004"><a xlink:title=" ">
<path fill="none" stroke="#63b8ff" d="M104,-209.38C104,-201.09 104,-191.92 104,-185.36"/>
<polygon fill="#63b8ff" stroke="#63b8ff" points="100.5,-209.32 104,-219.32 107.5,-209.32 100.5,-209.32"/>
</a>
</g>
</g>
<!-- Node5 -->
<g id="Node000005" class="node">
<title>Node5</title>
<g id="a_Node000005"><a xlink:href="../../d4/d12/point2d_8h.html" target="_top" xlink:title="A two&#45;dimensional point tagged with a unit.">
<polygon fill="white" stroke="#666666" points="153.12,-74.5 92.88,-74.5 92.88,-55.25 153.12,-55.25 153.12,-74.5"/>
<text text-anchor="middle" x="123" y="-60.05" font-family="Arial" font-size="11.00">point2d.h</text>
</a>
</g>
</g>
<!-- Node3&#45;&gt;Node5 -->
<g id="edge10_Node000003_Node000005" class="edge">
<title>Node3&#45;&gt;Node5</title>
<g id="a_edge10_Node000003_Node000005"><a xlink:title=" ">
<path fill="none" stroke="#63b8ff" d="M127.41,-213.94C136.58,-206.39 146.07,-196.48 151,-185 167.77,-145.96 141.25,-95.21 128.84,-74.88"/>
<polygon fill="#63b8ff" stroke="#63b8ff" points="125.59,-210.93 119.73,-219.76 129.82,-216.51 125.59,-210.93"/>
</a>
</g>
</g>
<!-- Node6 -->
<g id="Node000006" class="node">
<title>Node6</title>
<g id="a_Node000006"><a xlink:href="../../dc/df8/size2d_8h.html" target="_top" xlink:title="A two&#45;dimensional size tagged with a unit.">
<polygon fill="white" stroke="#666666" points="93.88,-129.75 38.12,-129.75 38.12,-110.5 93.88,-110.5 93.88,-129.75"/>
<text text-anchor="middle" x="66" y="-115.3" font-family="Arial" font-size="11.00">size2d.h</text>
</a>
</g>
</g>
<!-- Node3&#45;&gt;Node6 -->
<g id="edge11_Node000003_Node000006" class="edge">
<title>Node3&#45;&gt;Node6</title>
<g id="a_edge11_Node000003_Node000006"><a xlink:title=" ">
<path fill="none" stroke="#63b8ff" d="M80.59,-213.94C71.42,-206.39 61.93,-196.48 57,-185 49.13,-166.68 56.56,-142.96 61.81,-130.2"/>
<polygon fill="#63b8ff" stroke="#63b8ff" points="78.18,-216.51 88.27,-219.76 82.41,-210.93 78.18,-216.51"/>
</a>
</g>
</g>
<!-- Node4&#45;&gt;Node5 -->
<g id="edge5_Node000004_Node000005" class="edge">
<title>Node4&#45;&gt;Node5</title>
<g id="a_edge5_Node000004_Node000005"><a xlink:title=" ">
<path fill="none" stroke="#63b8ff" d="M107.51,-154.35C111.66,-130.65 118.39,-92.22 121.42,-74.88"/>
<polygon fill="#63b8ff" stroke="#63b8ff" points="104.09,-153.55 105.82,-164.01 110.99,-154.76 104.09,-153.55"/>
</a>
</g>
</g>
<!-- Node4&#45;&gt;Node6 -->
<g id="edge7_Node000004_Node000006" class="edge">
<title>Node4&#45;&gt;Node6</title>
<g id="a_edge7_Node000004_Node000006"><a xlink:title=" ">
<path fill="none" stroke="#63b8ff" d="M91.2,-156.44C84.88,-147.59 77.54,-137.29 72.41,-130.11"/>
<polygon fill="#63b8ff" stroke="#63b8ff" points="88.19,-158.24 96.85,-164.35 93.89,-154.18 88.19,-158.24"/>
</a>
</g>
</g>
<!-- Node5&#45;&gt;Node2 -->
<g id="edge6_Node000005_Node000002" class="edge">
<title>Node5&#45;&gt;Node2</title>
<g id="a_edge6_Node000005_Node000002"><a xlink:title=" ">
<path fill="none" stroke="#63b8ff" d="M112.76,-45.08C108.05,-36.42 102.68,-26.56 98.89,-19.61"/>
<polygon fill="#63b8ff" stroke="#63b8ff" points="109.63,-46.64 117.49,-53.75 115.78,-43.3 109.63,-46.64"/>
</a>
</g>
</g>
<!-- Node6&#45;&gt;Node2 -->
<g id="edge8_Node000006_Node000002" class="edge">
<title>Node6&#45;&gt;Node2</title>
<g id="a_edge8_Node000006_Node000002"><a xlink:title=" ">
<path fill="none" stroke="#63b8ff" d="M71.17,-99.1C77.28,-75.4 87.2,-36.97 91.68,-19.63"/>
<polygon fill="#63b8ff" stroke="#63b8ff" points="67.78,-98.22 68.67,-108.78 74.56,-99.97 67.78,-98.22"/>
</a>
</g>
</g>
<!-- Node6&#45;&gt;Node5 -->
<g id="edge9_Node000006_Node000005" class="edge">
<title>Node6&#45;&gt;Node5</title>
<g id="a_edge9_Node000006_Node000005"><a xlink:title=" ">
<path fill="none" stroke="#63b8ff" d="M83.95,-102.36C93.73,-93.22 105.44,-82.28 113.47,-74.77"/>
<polygon fill="#63b8ff" stroke="#63b8ff" points="81.69,-99.67 76.78,-109.06 86.47,-104.79 81.69,-99.67"/>
</a>
</g>
</g>
</g>
</svg>
