<?xml version="1.0" encoding="UTF-8" standalone="no"?>
<!DOCTYPE svg PUBLIC "-//W3C//DTD SVG 1.1//EN"
 "http://www.w3.org/Graphics/SVG/1.1/DTD/svg11.dtd">
<!-- Generated by graphviz version 10.0.1 (0)
 -->
<!-- Title: size2d.h Pages: 1 -->
<!--zoomable 514 -->

<svg id="main" version="1.1" xmlns="http://www.w3.org/2000/svg" xmlns:xlink="http://www.w3.org/1999/xlink" xml:space="preserve" onload="init(evt)">
<style type="text/css"><![CDATA[
.node, .edge {opacity: 0.7;}
.node.selected, .edge.selected {opacity: 1;}
.edge:hover path { stroke: red; }
.edge:hover polygon { stroke: red; fill: red; }
]]></style>

<defs>
  <circle id="rim" cx="0" cy="0" r="7"/>
  <circle id="rim2" cx="0" cy="0" r="3.5"/>
  <g id="zoomPlus">
    <use xlink:href="#rim" fill="#404040"><set attributeName="fill" to="#808080" begin="zoomplus.mouseover" end="zoomplus.mouseout"/></use>
    <path d="M-4,0h8M0,-4v8" fill="none" stroke="white" stroke-width="1.5" pointer-events="none"/>
  </g>
  <g id="zoomMin">
    <use xlink:href="#rim" fill="#404040"><set attributeName="fill" to="#808080" begin="zoomminus.mouseover" end="zoomminus.mouseout"/></use>
    <path d="M-4,0h8" fill="none" stroke="white" stroke-width="1.5" pointer-events="none"/>
  </g>
  <g id="arrowUp" transform="translate(30 24)">
    <use xlink:href="#rim"/>
    <path pointer-events="none" fill="none" stroke="white" stroke-width="1.5" d="M0,-3.0v7 M-2.5,-0.5L0,-3.0L2.5,-0.5"/>
  </g>
  <g id="arrowRight" transform="rotate(90) translate(36 -43)">
    <use xlink:href="#rim"/>
    <path pointer-events="none" fill="none" stroke="white" stroke-width="1.5" d="M0,-3.0v7 M-2.5,-0.5L0,-3.0L2.5,-0.5"/>
  </g>
  <g id="arrowDown" transform="rotate(180) translate(-30 -48)">
    <use xlink:href="#rim"/>
    <path pointer-events="none" fill="none" stroke="white" stroke-width="1.5" d="M0,-3.0v7 M-2.5,-0.5L0,-3.0L2.5,-0.5"/>
  </g>
  <g id="arrowLeft" transform="rotate(270) translate(-36 17)">
    <use xlink:href="#rim"/>
    <path pointer-events="none" fill="none" stroke="white" stroke-width="1.5" d="M0,-3.0v7 M-2.5,-0.5L0,-3.0L2.5,-0.5"/>
  </g>
  <g id="resetDef">
    <use xlink:href="#rim2" fill="#404040"><set attributeName="fill" to="#808080" begin="reset.mouseover" end="reset.mouseout"/></use>
  </g>
</defs>
<script type="application/ecmascript">
var viewWidth = 1042;
var viewHeight = 514;
var sectionId = 'dynsection-0';
</script>
<script type="application/ecmascript" xlink:href="../../svg.min.js"/>
<svg id="graph" class="graph">
<g id="viewport">
<title>size2d.h</title>
<!-- Node1 -->
<g id="Node000001" class="node">
<title>Node1</title>
<g id="a_Node000001"><a xlink:title="A two&#45;dimensional size tagged with a unit.">
<polygon fill="#999999" stroke="#666666" points="271.25,-506.25 215.5,-506.25 215.5,-487 271.25,-487 271.25,-506.25"/>
<text text-anchor="middle" x="243.38" y="-491.8" font-family="Arial" font-size="11.00">size2d.h</text>
</a>
</g>
</g>
<!-- Node2 -->
<g id="Node000002" class="node">
<title>Node2</title>
<g id="a_Node000002"><a xlink:href="../../df/db1/math_8h_source.html" target="_top" xlink:title=" ">
<polygon fill="white" stroke="#666666" points="415.88,-207.5 306.88,-207.5 306.88,-188.25 415.88,-188.25 415.88,-207.5"/>
<text text-anchor="middle" x="361.38" y="-193.05" font-family="Arial" font-size="11.00">floppy/detail/math.h</text>
</a>
</g>
</g>
<!-- Node1&#45;&gt;Node2 -->
<g id="edge1_Node000001_Node000002" class="edge">
<title>Node1&#45;&gt;Node2</title>
<g id="a_edge1_Node000001_Node000002"><a xlink:title=" ">
<path fill="none" stroke="#63b8ff" d="M271.31,-495C336.92,-491.89 495.38,-474.21 495.38,-375.88 495.38,-375.88 495.38,-375.88 495.38,-318.62 495.38,-265.61 436.34,-230.21 396.64,-212.41"/>
<polygon fill="#63b8ff" stroke="#63b8ff" points="398.23,-209.28 387.66,-208.55 395.46,-215.71 398.23,-209.28"/>
</a>
</g>
</g>
<!-- Node10 -->
<g id="Node000010" class="node">
<title>Node10</title>
<g id="a_Node000010"><a xlink:href="../../d9/db1/concepts_8h_source.html" target="_top" xlink:title=" ">
<polygon fill="white" stroke="#666666" points="180.25,-146.62 52.5,-146.62 52.5,-127.38 180.25,-127.38 180.25,-146.62"/>
<text text-anchor="middle" x="116.38" y="-132.18" font-family="Arial" font-size="11.00">floppy/detail/concepts.h</text>
</a>
</g>
</g>
<!-- Node1&#45;&gt;Node10 -->
<g id="edge18_Node000001_Node000010" class="edge">
<title>Node1&#45;&gt;Node10</title>
<g id="a_edge18_Node000001_Node000010"><a xlink:title=" ">
<path fill="none" stroke="#63b8ff" d="M219.16,-486.57C181.06,-470.56 111.38,-433.43 111.38,-375.88 111.38,-375.88 111.38,-375.88 111.38,-257.75 111.38,-222.81 113.53,-182.19 115.01,-158.37"/>
<polygon fill="#63b8ff" stroke="#63b8ff" points="118.49,-158.72 115.64,-148.52 111.51,-158.27 118.49,-158.72"/>
</a>
</g>
</g>
<!-- Node18 -->
<g id="Node000018" class="node">
<title>Node18</title>
<g id="a_Node000018"><a xlink:href="../../dd/db9/length_8h.html" target="_top" xlink:title="A one&#45;dimensional distance with associated unit of measurement.">
<polygon fill="white" stroke="#666666" points="255.62,-384.5 139.12,-384.5 139.12,-365.25 255.62,-365.25 255.62,-384.5"/>
<text text-anchor="middle" x="197.38" y="-370.05" font-family="Arial" font-size="11.00">floppy/euclid/length.h</text>
</a>
</g>
</g>
<!-- Node1&#45;&gt;Node18 -->
<g id="edge19_Node000001_Node000018" class="edge">
<title>Node1&#45;&gt;Node18</title>
<g id="a_edge19_Node000001_Node000018"><a xlink:title=" ">
<path fill="none" stroke="#63b8ff" d="M239.92,-486.62C232.52,-467.38 215.03,-421.85 204.93,-395.55"/>
<polygon fill="#63b8ff" stroke="#63b8ff" points="208.27,-394.47 201.42,-386.39 201.73,-396.98 208.27,-394.47"/>
</a>
</g>
</g>
<!-- Node28 -->
<g id="Node000028" class="node">
<title>Node28</title>
<g id="a_Node000028"><a xlink:href="../../da/d53/nt__traits2d_8h_source.html" target="_top" xlink:title=" ">
<polygon fill="white" stroke="#666666" points="359.25,-451 255.5,-451 255.5,-420.5 359.25,-420.5 359.25,-451"/>
<text text-anchor="start" x="263.5" y="-436.55" font-family="Arial" font-size="11.00">floppy/euclid/detail</text>
<text text-anchor="middle" x="307.38" y="-425.3" font-family="Arial" font-size="11.00">/nt_traits2d.h</text>
</a>
</g>
</g>
<!-- Node1&#45;&gt;Node28 -->
<g id="edge36_Node000001_Node000028" class="edge">
<title>Node1&#45;&gt;Node28</title>
<g id="a_edge36_Node000001_Node000028"><a xlink:title=" ">
<path fill="none" stroke="#63b8ff" d="M253.1,-486.68C261.07,-479.34 272.72,-468.63 283.18,-459.01"/>
<polygon fill="#63b8ff" stroke="#63b8ff" points="285.47,-461.65 290.46,-452.31 280.73,-456.5 285.47,-461.65"/>
</a>
</g>
</g>
<!-- Node3 -->
<g id="Node000003" class="node">
<title>Node3</title>
<g id="a_Node000003"><a xlink:title=" ">
<polygon fill="#e0e0e0" stroke="#999999" points="454,-146.62 408.75,-146.62 408.75,-127.38 454,-127.38 454,-146.62"/>
<text text-anchor="middle" x="431.38" y="-132.18" font-family="Arial" font-size="11.00">cmath</text>
</a>
</g>
</g>
<!-- Node2&#45;&gt;Node3 -->
<g id="edge2_Node000002_Node000003" class="edge">
<title>Node2&#45;&gt;Node3</title>
<g id="a_edge2_Node000002_Node000003"><a xlink:title=" ">
<path fill="none" stroke="#63b8ff" d="M372.01,-187.93C382.59,-179.03 399.09,-165.16 412,-154.29"/>
<polygon fill="#63b8ff" stroke="#63b8ff" points="414.08,-157.12 419.49,-148 409.58,-151.76 414.08,-157.12"/>
</a>
</g>
</g>
<!-- Node4 -->
<g id="Node000004" class="node">
<title>Node4</title>
<g id="a_Node000004"><a xlink:title=" ">
<polygon fill="#e0e0e0" stroke="#999999" points="238.38,-146.62 198.38,-146.62 198.38,-127.38 238.38,-127.38 238.38,-146.62"/>
<text text-anchor="middle" x="218.38" y="-132.18" font-family="Arial" font-size="11.00">limits</text>
</a>
</g>
</g>
<!-- Node2&#45;&gt;Node4 -->
<g id="edge3_Node000002_Node000004" class="edge">
<title>Node2&#45;&gt;Node4</title>
<g id="a_edge3_Node000002_Node000004"><a xlink:title=" ">
<path fill="none" stroke="#63b8ff" d="M336.67,-187.89C313.41,-179.26 277.72,-165.62 247.38,-152.25 247.03,-152.1 246.68,-151.94 246.33,-151.79"/>
<polygon fill="#63b8ff" stroke="#63b8ff" points="247.97,-148.69 237.43,-147.62 245,-155.03 247.97,-148.69"/>
</a>
</g>
</g>
<!-- Node5 -->
<g id="Node000005" class="node">
<title>Node5</title>
<g id="a_Node000005"><a xlink:title=" ">
<polygon fill="#e0e0e0" stroke="#999999" points="314.38,-146.62 256.38,-146.62 256.38,-127.38 314.38,-127.38 314.38,-146.62"/>
<text text-anchor="middle" x="285.38" y="-132.18" font-family="Arial" font-size="11.00">numbers</text>
</a>
</g>
</g>
<!-- Node2&#45;&gt;Node5 -->
<g id="edge4_Node000002_Node000005" class="edge">
<title>Node2&#45;&gt;Node5</title>
<g id="a_edge4_Node000002_Node000005"><a xlink:title=" ">
<path fill="none" stroke="#63b8ff" d="M349.83,-187.93C338.23,-178.94 320.08,-164.89 306,-153.98"/>
<polygon fill="#63b8ff" stroke="#63b8ff" points="308.27,-151.31 298.22,-147.95 303.98,-156.84 308.27,-151.31"/>
</a>
</g>
</g>
<!-- Node6 -->
<g id="Node000006" class="node">
<title>Node6</title>
<g id="a_Node000006"><a xlink:title=" ">
<polygon fill="#e0e0e0" stroke="#999999" points="390.38,-146.62 332.38,-146.62 332.38,-127.38 390.38,-127.38 390.38,-146.62"/>
<text text-anchor="middle" x="361.38" y="-132.18" font-family="Arial" font-size="11.00">compare</text>
</a>
</g>
</g>
<!-- Node2&#45;&gt;Node6 -->
<g id="edge5_Node000002_Node000006" class="edge">
<title>Node2&#45;&gt;Node6</title>
<g id="a_edge5_Node000002_Node000006"><a xlink:title=" ">
<path fill="none" stroke="#63b8ff" d="M361.38,-187.93C361.38,-180.15 361.38,-168.58 361.38,-158.53"/>
<polygon fill="#63b8ff" stroke="#63b8ff" points="364.88,-158.54 361.38,-148.54 357.88,-158.54 364.88,-158.54"/>
</a>
</g>
</g>
<!-- Node7 -->
<g id="Node000007" class="node">
<title>Node7</title>
<g id="a_Node000007"><a xlink:href="../../db/db5/export_8h_source.html" target="_top" xlink:title=" ">
<polygon fill="white" stroke="#666666" points="586.88,-146.62 471.88,-146.62 471.88,-127.38 586.88,-127.38 586.88,-146.62"/>
<text text-anchor="middle" x="529.38" y="-132.18" font-family="Arial" font-size="11.00">floppy/detail/export.h</text>
</a>
</g>
</g>
<!-- Node2&#45;&gt;Node7 -->
<g id="edge6_Node000002_Node000007" class="edge">
<title>Node2&#45;&gt;Node7</title>
<g id="a_edge6_Node000002_Node000007"><a xlink:title=" ">
<path fill="none" stroke="#63b8ff" d="M387.26,-187.8C415.5,-177.91 460.93,-161.99 492.8,-150.82"/>
<polygon fill="#63b8ff" stroke="#63b8ff" points="493.76,-154.19 502.04,-147.58 491.44,-147.59 493.76,-154.19"/>
</a>
</g>
</g>
<!-- Node2&#45;&gt;Node10 -->
<g id="edge9_Node000002_Node000010" class="edge">
<title>Node2&#45;&gt;Node10</title>
<g id="a_edge9_Node000002_Node000010"><a xlink:title=" ">
<path fill="none" stroke="#63b8ff" d="M323.63,-187.8C281.1,-177.58 211.83,-160.94 165.2,-149.73"/>
<polygon fill="#63b8ff" stroke="#63b8ff" points="166.17,-146.37 155.63,-147.43 164.54,-153.17 166.17,-146.37"/>
</a>
</g>
</g>
<!-- Node8 -->
<g id="Node000008" class="node">
<title>Node8</title>
<g id="a_Node000008"><a xlink:title=" ">
<polygon fill="#e0e0e0" stroke="#999999" points="550.5,-80.12 508.25,-80.12 508.25,-60.88 550.5,-60.88 550.5,-80.12"/>
<text text-anchor="middle" x="529.38" y="-65.67" font-family="Arial" font-size="11.00">string</text>
</a>
</g>
</g>
<!-- Node7&#45;&gt;Node8 -->
<g id="edge7_Node000007_Node000008" class="edge">
<title>Node7&#45;&gt;Node8</title>
<g id="a_edge7_Node000007_Node000008"><a xlink:title=" ">
<path fill="none" stroke="#63b8ff" d="M529.38,-127.03C529.38,-117.98 529.38,-103.7 529.38,-91.88"/>
<polygon fill="#63b8ff" stroke="#63b8ff" points="532.88,-91.91 529.38,-81.91 525.88,-91.91 532.88,-91.91"/>
</a>
</g>
</g>
<!-- Node9 -->
<g id="Node000009" class="node">
<title>Node9</title>
<g id="a_Node000009"><a xlink:title=" ">
<polygon fill="#e0e0e0" stroke="#999999" points="671.38,-80.12 601.38,-80.12 601.38,-60.88 671.38,-60.88 671.38,-80.12"/>
<text text-anchor="middle" x="636.38" y="-65.67" font-family="Arial" font-size="11.00">string_view</text>
</a>
</g>
</g>
<!-- Node7&#45;&gt;Node9 -->
<g id="edge8_Node000007_Node000009" class="edge">
<title>Node7&#45;&gt;Node9</title>
<g id="a_edge8_Node000007_Node000009"><a xlink:title=" ">
<path fill="none" stroke="#63b8ff" d="M544.25,-127.03C561.64,-116.55 590.69,-99.04 611.52,-86.48"/>
<polygon fill="#63b8ff" stroke="#63b8ff" points="613.22,-89.54 619.98,-81.38 609.61,-83.55 613.22,-89.54"/>
</a>
</g>
</g>
<!-- Node11 -->
<g id="Node000011" class="node">
<title>Node11</title>
<g id="a_Node000011"><a xlink:href="../../df/d63/type__traits_8h_source.html" target="_top" xlink:title=" ">
<polygon fill="white" stroke="#666666" points="285.5,-85.75 189.25,-85.75 189.25,-55.25 285.5,-55.25 285.5,-85.75"/>
<text text-anchor="start" x="197.25" y="-71.3" font-family="Arial" font-size="11.00">floppy/detail/type</text>
<text text-anchor="middle" x="237.38" y="-60.05" font-family="Arial" font-size="11.00">_traits.h</text>
</a>
</g>
</g>
<!-- Node10&#45;&gt;Node11 -->
<g id="edge10_Node000010_Node000011" class="edge">
<title>Node10&#45;&gt;Node11</title>
<g id="a_edge10_Node000010_Node000011"><a xlink:title=" ">
<path fill="none" stroke="#63b8ff" d="M133.45,-126.9C150.66,-117.72 177.78,-103.27 200,-91.43"/>
<polygon fill="#63b8ff" stroke="#63b8ff" points="201.61,-94.53 208.79,-86.74 198.32,-88.35 201.61,-94.53"/>
</a>
</g>
</g>
<!-- Node13 -->
<g id="Node000013" class="node">
<title>Node13</title>
<g id="a_Node000013"><a xlink:href="../../d9/d49/types_8h_source.html" target="_top" xlink:title=" ">
<polygon fill="white" stroke="#666666" points="171.62,-80.12 61.12,-80.12 61.12,-60.88 171.62,-60.88 171.62,-80.12"/>
<text text-anchor="middle" x="116.38" y="-65.67" font-family="Arial" font-size="11.00">floppy/detail/types.h</text>
</a>
</g>
</g>
<!-- Node10&#45;&gt;Node13 -->
<g id="edge12_Node000010_Node000013" class="edge">
<title>Node10&#45;&gt;Node13</title>
<g id="a_edge12_Node000010_Node000013"><a xlink:title=" ">
<path fill="none" stroke="#63b8ff" d="M116.38,-127.03C116.38,-117.98 116.38,-103.7 116.38,-91.88"/>
<polygon fill="#63b8ff" stroke="#63b8ff" points="119.88,-91.91 116.38,-81.91 112.88,-91.91 119.88,-91.91"/>
</a>
</g>
</g>
<!-- Node12 -->
<g id="Node000012" class="node">
<title>Node12</title>
<g id="a_Node000012"><a xlink:title=" ">
<polygon fill="#e0e0e0" stroke="#999999" points="270.12,-19.25 204.62,-19.25 204.62,0 270.12,0 270.12,-19.25"/>
<text text-anchor="middle" x="237.38" y="-4.8" font-family="Arial" font-size="11.00">type_traits</text>
</a>
</g>
</g>
<!-- Node11&#45;&gt;Node12 -->
<g id="edge11_Node000011_Node000012" class="edge">
<title>Node11&#45;&gt;Node12</title>
<g id="a_edge11_Node000011_Node000012"><a xlink:title=" ">
<path fill="none" stroke="#63b8ff" d="M237.38,-54.95C237.38,-47.71 237.38,-38.84 237.38,-30.94"/>
<polygon fill="#63b8ff" stroke="#63b8ff" points="240.88,-31.21 237.38,-21.21 233.88,-31.21 240.88,-31.21"/>
</a>
</g>
</g>
<!-- Node13&#45;&gt;Node12 -->
<g id="edge16_Node000013_Node000012" class="edge">
<title>Node13&#45;&gt;Node12</title>
<g id="a_edge16_Node000013_Node000012"><a xlink:title=" ">
<path fill="none" stroke="#63b8ff" d="M135.02,-60.43C154.7,-50.85 185.99,-35.63 208.79,-24.53"/>
<polygon fill="#63b8ff" stroke="#63b8ff" points="210.09,-27.79 217.55,-20.27 207.03,-21.5 210.09,-27.79"/>
</a>
</g>
</g>
<!-- Node14 -->
<g id="Node000014" class="node">
<title>Node14</title>
<g id="a_Node000014"><a xlink:title=" ">
<polygon fill="#e0e0e0" stroke="#999999" points="186.62,-19.25 136.12,-19.25 136.12,0 186.62,0 186.62,-19.25"/>
<text text-anchor="middle" x="161.38" y="-4.8" font-family="Arial" font-size="11.00">cstddef</text>
</a>
</g>
</g>
<!-- Node13&#45;&gt;Node14 -->
<g id="edge13_Node000013_Node000014" class="edge">
<title>Node13&#45;&gt;Node14</title>
<g id="a_edge13_Node000013_Node000014"><a xlink:title=" ">
<path fill="none" stroke="#63b8ff" d="M123.21,-60.56C129.69,-52.09 139.6,-39.12 147.7,-28.52"/>
<polygon fill="#63b8ff" stroke="#63b8ff" points="150.27,-30.92 153.56,-20.85 144.7,-26.67 150.27,-30.92"/>
</a>
</g>
</g>
<!-- Node15 -->
<g id="Node000015" class="node">
<title>Node15</title>
<g id="a_Node000015"><a xlink:title=" ">
<polygon fill="#e0e0e0" stroke="#999999" points="46.75,-19.25 0,-19.25 0,0 46.75,0 46.75,-19.25"/>
<text text-anchor="middle" x="23.38" y="-4.8" font-family="Arial" font-size="11.00">cstdint</text>
</a>
</g>
</g>
<!-- Node13&#45;&gt;Node15 -->
<g id="edge14_Node000013_Node000015" class="edge">
<title>Node13&#45;&gt;Node15</title>
<g id="a_edge14_Node000013_Node000015"><a xlink:title=" ">
<path fill="none" stroke="#63b8ff" d="M102.25,-60.56C87.64,-51.31 64.56,-36.7 47.13,-25.67"/>
<polygon fill="#63b8ff" stroke="#63b8ff" points="49.23,-22.85 38.91,-20.46 45.49,-28.77 49.23,-22.85"/>
</a>
</g>
</g>
<!-- Node16 -->
<g id="Node000016" class="node">
<title>Node16</title>
<g id="a_Node000016"><a xlink:title=" ">
<polygon fill="#e0e0e0" stroke="#999999" points="118.12,-19.25 64.62,-19.25 64.62,0 118.12,0 118.12,-19.25"/>
<text text-anchor="middle" x="91.38" y="-4.8" font-family="Arial" font-size="11.00">optional</text>
</a>
</g>
</g>
<!-- Node13&#45;&gt;Node16 -->
<g id="edge15_Node000013_Node000016" class="edge">
<title>Node13&#45;&gt;Node16</title>
<g id="a_edge15_Node000013_Node000016"><a xlink:title=" ">
<path fill="none" stroke="#63b8ff" d="M112.58,-60.56C109.16,-52.52 104.03,-40.43 99.67,-30.16"/>
<polygon fill="#63b8ff" stroke="#63b8ff" points="102.93,-28.88 95.8,-21.04 96.49,-31.62 102.93,-28.88"/>
</a>
</g>
</g>
<!-- Node17 -->
<g id="Node000017" class="node">
<title>Node17</title>
<g id="a_Node000017"><a xlink:title=" ">
<polygon fill="#e0e0e0" stroke="#999999" points="609.25,-19.25 535.5,-19.25 535.5,0 609.25,0 609.25,-19.25"/>
<text text-anchor="middle" x="572.38" y="-4.8" font-family="Arial" font-size="11.00">fmt/format.h</text>
</a>
</g>
</g>
<!-- Node13&#45;&gt;Node17 -->
<g id="edge17_Node000013_Node000017" class="edge">
<title>Node13&#45;&gt;Node17</title>
<g id="a_edge17_Node000013_Node000017"><a xlink:title=" ">
<path fill="none" stroke="#63b8ff" d="M154.15,-60.39C162.74,-58.52 171.84,-56.68 180.38,-55.25 303.33,-34.62 449.6,-20.77 523.88,-14.48"/>
<polygon fill="#63b8ff" stroke="#63b8ff" points="523.99,-17.99 533.66,-13.67 523.41,-11.01 523.99,-17.99"/>
</a>
</g>
</g>
<!-- Node19 -->
<g id="Node000019" class="node">
<title>Node19</title>
<g id="a_Node000019"><a xlink:href="../../d8/d0c/scale_8h.html" target="_top" xlink:title="A scaling factor between two different units of measurement.">
<polygon fill="white" stroke="#666666" points="423.38,-329.25 311.38,-329.25 311.38,-310 423.38,-310 423.38,-329.25"/>
<text text-anchor="middle" x="367.38" y="-314.8" font-family="Arial" font-size="11.00">floppy/euclid/scale.h</text>
</a>
</g>
</g>
<!-- Node18&#45;&gt;Node19 -->
<g id="edge20_Node000018_Node000019" class="edge">
<title>Node18&#45;&gt;Node19</title>
<g id="a_edge20_Node000018_Node000019"><a xlink:title=" ">
<path fill="none" stroke="#63b8ff" d="M226.21,-364.84C254.05,-356.12 296.45,-342.84 327.51,-333.11"/>
<polygon fill="#63b8ff" stroke="#63b8ff" points="328.45,-336.48 336.95,-330.15 326.36,-329.8 328.45,-336.48"/>
</a>
</g>
</g>
<!-- Node27 -->
<g id="Node000027" class="node">
<title>Node27</title>
<g id="a_Node000027"><a xlink:href="../../de/de1/nt__traits_8h_source.html" target="_top" xlink:title=" ">
<polygon fill="white" stroke="#666666" points="335.25,-274 231.5,-274 231.5,-243.5 335.25,-243.5 335.25,-274"/>
<text text-anchor="start" x="239.5" y="-259.55" font-family="Arial" font-size="11.00">floppy/euclid/detail</text>
<text text-anchor="middle" x="283.38" y="-248.3" font-family="Arial" font-size="11.00">/nt_traits.h</text>
</a>
</g>
</g>
<!-- Node18&#45;&gt;Node27 -->
<g id="edge35_Node000018_Node000027" class="edge">
<title>Node18&#45;&gt;Node27</title>
<g id="a_edge35_Node000018_Node000027"><a xlink:title=" ">
<path fill="none" stroke="#63b8ff" d="M204.12,-364.92C217.25,-347.49 246.62,-308.52 265.69,-283.22"/>
<polygon fill="#63b8ff" stroke="#63b8ff" points="268.3,-285.57 271.52,-275.48 262.71,-281.36 268.3,-285.57"/>
</a>
</g>
</g>
<!-- Node19&#45;&gt;Node2 -->
<g id="edge21_Node000019_Node000002" class="edge">
<title>Node19&#45;&gt;Node2</title>
<g id="a_edge21_Node000019_Node000002"><a xlink:title=" ">
<path fill="none" stroke="#63b8ff" d="M366.92,-309.62C365.97,-290.55 363.72,-245.66 362.4,-219.26"/>
<polygon fill="#63b8ff" stroke="#63b8ff" points="365.9,-219.3 361.91,-209.49 358.91,-219.65 365.9,-219.3"/>
</a>
</g>
</g>
<!-- Node20 -->
<g id="Node000020" class="node">
<title>Node20</title>
<g id="a_Node000020"><a xlink:href="../../dd/dff/traits_8h_source.html" target="_top" xlink:title=" ">
<polygon fill="white" stroke="#666666" points="784.25,-207.5 704.5,-207.5 704.5,-188.25 784.25,-188.25 784.25,-207.5"/>
<text text-anchor="middle" x="744.38" y="-193.05" font-family="Arial" font-size="11.00">floppy/traits.h</text>
</a>
</g>
</g>
<!-- Node19&#45;&gt;Node20 -->
<g id="edge22_Node000019_Node000020" class="edge">
<title>Node19&#45;&gt;Node20</title>
<g id="a_edge22_Node000019_Node000020"><a xlink:title=" ">
<path fill="none" stroke="#63b8ff" d="M396.02,-309.53C462.84,-288.3 629.12,-235.49 705.22,-211.31"/>
<polygon fill="#63b8ff" stroke="#63b8ff" points="705.86,-214.78 714.33,-208.42 703.74,-208.11 705.86,-214.78"/>
</a>
</g>
</g>
<!-- Node19&#45;&gt;Node27 -->
<g id="edge32_Node000019_Node000027" class="edge">
<title>Node19&#45;&gt;Node27</title>
<g id="a_edge32_Node000019_Node000027"><a xlink:title=" ">
<path fill="none" stroke="#63b8ff" d="M354.62,-309.68C343.73,-302.05 327.63,-290.77 313.5,-280.86"/>
<polygon fill="#63b8ff" stroke="#63b8ff" points="315.55,-278.02 305.35,-275.15 311.53,-283.76 315.55,-278.02"/>
</a>
</g>
</g>
<!-- Node20&#45;&gt;Node7 -->
<g id="edge26_Node000020_Node000007" class="edge">
<title>Node20&#45;&gt;Node7</title>
<g id="a_edge26_Node000020_Node000007"><a xlink:title=" ">
<path fill="none" stroke="#63b8ff" d="M711.25,-187.8C674.32,-177.69 614.42,-161.29 573.53,-150.09"/>
<polygon fill="#63b8ff" stroke="#63b8ff" points="574.56,-146.75 564,-147.48 572.72,-153.5 574.56,-146.75"/>
</a>
</g>
</g>
<!-- Node21 -->
<g id="Node000021" class="node">
<title>Node21</title>
<g id="a_Node000021"><a xlink:title=" ">
<polygon fill="#e0e0e0" stroke="#999999" points="958.88,-146.62 903.88,-146.62 903.88,-127.38 958.88,-127.38 958.88,-146.62"/>
<text text-anchor="middle" x="931.38" y="-132.18" font-family="Arial" font-size="11.00">memory</text>
</a>
</g>
</g>
<!-- Node20&#45;&gt;Node21 -->
<g id="edge23_Node000020_Node000021" class="edge">
<title>Node20&#45;&gt;Node21</title>
<g id="a_edge23_Node000020_Node000021"><a xlink:title=" ">
<path fill="none" stroke="#63b8ff" d="M778.23,-187.8C809.02,-179.34 855.58,-165.98 895.38,-152.25 896.52,-151.86 897.68,-151.45 898.85,-151.03"/>
<polygon fill="#63b8ff" stroke="#63b8ff" points="899.86,-154.38 907.99,-147.59 897.4,-147.83 899.86,-154.38"/>
</a>
</g>
</g>
<!-- Node22 -->
<g id="Node000022" class="node">
<title>Node22</title>
<g id="a_Node000022"><a xlink:title=" ">
<polygon fill="#e0e0e0" stroke="#999999" points="1034,-146.62 976.75,-146.62 976.75,-127.38 1034,-127.38 1034,-146.62"/>
<text text-anchor="middle" x="1005.38" y="-132.18" font-family="Arial" font-size="11.00">iostream</text>
</a>
</g>
</g>
<!-- Node20&#45;&gt;Node22 -->
<g id="edge24_Node000020_Node000022" class="edge">
<title>Node20&#45;&gt;Node22</title>
<g id="a_edge24_Node000020_Node000022"><a xlink:title=" ">
<path fill="none" stroke="#63b8ff" d="M784.52,-191C829.74,-183.9 905.15,-170.58 968.38,-152.25 969.95,-151.79 971.54,-151.3 973.15,-150.78"/>
<polygon fill="#63b8ff" stroke="#63b8ff" points="973.98,-154.2 982.25,-147.57 971.65,-147.6 973.98,-154.2"/>
</a>
</g>
</g>
<!-- Node23 -->
<g id="Node000023" class="node">
<title>Node23</title>
<g id="a_Node000023"><a xlink:title=" ">
<polygon fill="#e0e0e0" stroke="#999999" points="734,-152.25 604.75,-152.25 604.75,-121.75 734,-121.75 734,-152.25"/>
<text text-anchor="start" x="612.75" y="-137.8" font-family="Arial" font-size="11.00">experimental/propagate</text>
<text text-anchor="middle" x="669.38" y="-126.55" font-family="Arial" font-size="11.00">_const</text>
</a>
</g>
</g>
<!-- Node20&#45;&gt;Node23 -->
<g id="edge25_Node000020_Node000023" class="edge">
<title>Node20&#45;&gt;Node23</title>
<g id="a_edge25_Node000020_Node000023"><a xlink:title=" ">
<path fill="none" stroke="#63b8ff" d="M732.98,-187.93C723.36,-180.37 709.17,-169.24 696.63,-159.4"/>
<polygon fill="#63b8ff" stroke="#63b8ff" points="699.1,-156.89 689.08,-153.47 694.78,-162.39 699.1,-156.89"/>
</a>
</g>
</g>
<!-- Node24 -->
<g id="Node000024" class="node">
<title>Node24</title>
<g id="a_Node000024"><a xlink:href="../../d6/d45/formatters_8h_source.html" target="_top" xlink:title=" ">
<polygon fill="white" stroke="#666666" points="886.25,-146.62 752.5,-146.62 752.5,-127.38 886.25,-127.38 886.25,-146.62"/>
<text text-anchor="middle" x="819.38" y="-132.18" font-family="Arial" font-size="11.00">floppy/detail/formatters.h</text>
</a>
</g>
</g>
<!-- Node20&#45;&gt;Node24 -->
<g id="edge27_Node000020_Node000024" class="edge">
<title>Node20&#45;&gt;Node24</title>
<g id="a_edge27_Node000020_Node000024"><a xlink:title=" ">
<path fill="none" stroke="#63b8ff" d="M755.77,-187.93C767.22,-178.94 785.12,-164.89 799.02,-153.98"/>
<polygon fill="#63b8ff" stroke="#63b8ff" points="800.98,-156.89 806.69,-147.96 796.66,-151.38 800.98,-156.89"/>
</a>
</g>
</g>
<!-- Node24&#45;&gt;Node9 -->
<g id="edge28_Node000024_Node000009" class="edge">
<title>Node24&#45;&gt;Node9</title>
<g id="a_edge28_Node000024_Node000009"><a xlink:title=" ">
<path fill="none" stroke="#63b8ff" d="M793.54,-126.9C761.94,-115.76 708.23,-96.83 672.53,-84.24"/>
<polygon fill="#63b8ff" stroke="#63b8ff" points="674.1,-81.08 663.5,-81.06 671.77,-87.69 674.1,-81.08"/>
</a>
</g>
</g>
<!-- Node24&#45;&gt;Node17 -->
<g id="edge31_Node000024_Node000017" class="edge">
<title>Node24&#45;&gt;Node17</title>
<g id="a_edge31_Node000024_Node000017"><a xlink:title=" ">
<path fill="none" stroke="#63b8ff" d="M823.68,-127C830.8,-110.65 842.63,-75.82 825.38,-55.25 799.82,-24.79 687.14,-15.11 621.09,-12.04"/>
<polygon fill="#63b8ff" stroke="#63b8ff" points="621.38,-8.55 611.24,-11.62 621.08,-15.55 621.38,-8.55"/>
</a>
</g>
</g>
<!-- Node25 -->
<g id="Node000025" class="node">
<title>Node25</title>
<g id="a_Node000025"><a xlink:title=" ">
<polygon fill="#e0e0e0" stroke="#999999" points="751.5,-80.12 697.25,-80.12 697.25,-60.88 751.5,-60.88 751.5,-80.12"/>
<text text-anchor="middle" x="724.38" y="-65.67" font-family="Arial" font-size="11.00">sstream</text>
</a>
</g>
</g>
<!-- Node24&#45;&gt;Node25 -->
<g id="edge29_Node000024_Node000025" class="edge">
<title>Node24&#45;&gt;Node25</title>
<g id="a_edge29_Node000024_Node000025"><a xlink:title=" ">
<path fill="none" stroke="#63b8ff" d="M806.17,-127.03C790.94,-116.69 765.64,-99.52 747.21,-87"/>
<polygon fill="#63b8ff" stroke="#63b8ff" points="749.27,-84.17 739.03,-81.45 745.34,-89.96 749.27,-84.17"/>
</a>
</g>
</g>
<!-- Node26 -->
<g id="Node000026" class="node">
<title>Node26</title>
<g id="a_Node000026"><a xlink:title=" ">
<polygon fill="#e0e0e0" stroke="#999999" points="816.75,-80.12 770,-80.12 770,-60.88 816.75,-60.88 816.75,-80.12"/>
<text text-anchor="middle" x="793.38" y="-65.67" font-family="Arial" font-size="11.00">iosfwd</text>
</a>
</g>
</g>
<!-- Node24&#45;&gt;Node26 -->
<g id="edge30_Node000024_Node000026" class="edge">
<title>Node24&#45;&gt;Node26</title>
<g id="a_edge30_Node000024_Node000026"><a xlink:title=" ">
<path fill="none" stroke="#63b8ff" d="M815.76,-127.03C812,-117.69 805.98,-102.78 801.14,-90.76"/>
<polygon fill="#63b8ff" stroke="#63b8ff" points="804.51,-89.76 797.53,-81.8 798.02,-92.38 804.51,-89.76"/>
</a>
</g>
</g>
<!-- Node27&#45;&gt;Node2 -->
<g id="edge33_Node000027_Node000002" class="edge">
<title>Node27&#45;&gt;Node2</title>
<g id="a_edge33_Node000027_Node000002"><a xlink:title=" ">
<path fill="none" stroke="#63b8ff" d="M302.66,-243.2C314.08,-234.58 328.56,-223.65 340.28,-214.8"/>
<polygon fill="#63b8ff" stroke="#63b8ff" points="342.27,-217.68 348.14,-208.86 338.05,-212.09 342.27,-217.68"/>
</a>
</g>
</g>
<!-- Node27&#45;&gt;Node10 -->
<g id="edge34_Node000027_Node000010" class="edge">
<title>Node27&#45;&gt;Node10</title>
<g id="a_edge34_Node000027_Node000010"><a xlink:title=" ">
<path fill="none" stroke="#63b8ff" d="M262.9,-243.07C231.17,-220.31 170.41,-176.74 138,-153.5"/>
<polygon fill="#63b8ff" stroke="#63b8ff" points="140.31,-150.85 130.14,-147.87 136.23,-156.54 140.31,-150.85"/>
</a>
</g>
</g>
<!-- Node28&#45;&gt;Node18 -->
<g id="edge40_Node000028_Node000018" class="edge">
<title>Node28&#45;&gt;Node18</title>
<g id="a_edge40_Node000028_Node000018"><a xlink:title=" ">
<path fill="none" stroke="#63b8ff" d="M279.9,-420.05C262.83,-410.91 240.98,-399.22 224.06,-390.16"/>
<polygon fill="#63b8ff" stroke="#63b8ff" points="226.05,-387.25 215.58,-385.62 222.74,-393.42 226.05,-387.25"/>
</a>
</g>
</g>
<!-- Node28&#45;&gt;Node27 -->
<g id="edge41_Node000028_Node000027" class="edge">
<title>Node28&#45;&gt;Node27</title>
<g id="a_edge41_Node000028_Node000027"><a xlink:title=" ">
<path fill="none" stroke="#63b8ff" d="M305.37,-420.13C301.3,-390.46 292.03,-322.84 286.92,-285.58"/>
<polygon fill="#63b8ff" stroke="#63b8ff" points="290.39,-285.14 285.56,-275.7 283.45,-286.09 290.39,-285.14"/>
</a>
</g>
</g>
<!-- Node29 -->
<g id="Node000029" class="node">
<title>Node29</title>
<g id="a_Node000029"><a xlink:title=" ">
<polygon fill="#e0e0e0" stroke="#999999" points="409.75,-384.5 369,-384.5 369,-365.25 409.75,-365.25 409.75,-384.5"/>
<text text-anchor="middle" x="389.38" y="-370.05" font-family="Arial" font-size="11.00">array</text>
</a>
</g>
</g>
<!-- Node28&#45;&gt;Node29 -->
<g id="edge37_Node000028_Node000029" class="edge">
<title>Node28&#45;&gt;Node29</title>
<g id="a_edge37_Node000028_Node000029"><a xlink:title=" ">
<path fill="none" stroke="#63b8ff" d="M327.64,-420.2C339.77,-411.49 355.18,-400.43 367.57,-391.53"/>
<polygon fill="#63b8ff" stroke="#63b8ff" points="369.42,-394.51 375.5,-385.83 365.34,-388.82 369.42,-394.51"/>
</a>
</g>
</g>
<!-- Node30 -->
<g id="Node000030" class="node">
<title>Node30</title>
<g id="a_Node000030"><a xlink:title=" ">
<polygon fill="#e0e0e0" stroke="#999999" points="467,-384.5 427.75,-384.5 427.75,-365.25 467,-365.25 467,-384.5"/>
<text text-anchor="middle" x="447.38" y="-370.05" font-family="Arial" font-size="11.00">tuple</text>
</a>
</g>
</g>
<!-- Node28&#45;&gt;Node30 -->
<g id="edge38_Node000028_Node000030" class="edge">
<title>Node28&#45;&gt;Node30</title>
<g id="a_edge38_Node000028_Node000030"><a xlink:title=" ">
<path fill="none" stroke="#63b8ff" d="M342.34,-420.05C365.34,-410.37 395.15,-397.84 417.13,-388.6"/>
<polygon fill="#63b8ff" stroke="#63b8ff" points="418.27,-391.91 426.13,-384.81 415.56,-385.46 418.27,-391.91"/>
</a>
</g>
</g>
<!-- Node31 -->
<g id="Node000031" class="node">
<title>Node31</title>
<g id="a_Node000031"><a xlink:title=" ">
<polygon fill="#e0e0e0" stroke="#999999" points="351.38,-384.5 311.38,-384.5 311.38,-365.25 351.38,-365.25 351.38,-384.5"/>
<text text-anchor="middle" x="331.38" y="-370.05" font-family="Arial" font-size="11.00">utility</text>
</a>
</g>
</g>
<!-- Node28&#45;&gt;Node31 -->
<g id="edge39_Node000028_Node000031" class="edge">
<title>Node28&#45;&gt;Node31</title>
<g id="a_edge39_Node000028_Node000031"><a xlink:title=" ">
<path fill="none" stroke="#63b8ff" d="M313.31,-420.2C316.36,-412.7 320.13,-403.45 323.44,-395.35"/>
<polygon fill="#63b8ff" stroke="#63b8ff" points="326.57,-396.93 327.1,-386.35 320.09,-394.29 326.57,-396.93"/>
</a>
</g>
</g>
</g>
</svg>

<g id="navigator" transform="translate(0 0)" fill="#404254">
  <rect fill="#f2f5e9" fill-opacity="0.5" stroke="#606060" stroke-width=".5" x="0" y="0" width="60" height="60"/>
  <use id="zoomplus" xlink:href="#zoomPlus" x="17" y="9" onmousedown="handleZoom(evt,'in')"/>
  <use id="zoomminus" xlink:href="#zoomMin" x="42" y="9" onmousedown="handleZoom(evt,'out')"/>
  <use id="reset" xlink:href="#resetDef" x="30" y="36" onmousedown="handleReset()"/>
   <use id="arrowup" xlink:href="#arrowUp" x="0" y="0" onmousedown="handlePan(0,-1)"/>
  <use id="arrowright" xlink:href="#arrowRight" x="0" y="0" onmousedown="handlePan(1,0)"/>
  <use id="arrowdown" xlink:href="#arrowDown" x="0" y="0" onmousedown="handlePan(0,1)"/>
  <use id="arrowleft" xlink:href="#arrowLeft" x="0" y="0" onmousedown="handlePan(-1,0)"/>
</g>
<svg viewBox="0 0 15 15" width="100%" height="30px" preserveAspectRatio="xMaxYMin meet">
 <g id="arrow_out" transform="scale(0.3 0.3)">
  <a xlink:href="size2d_8h__incl_org.svg" target="_base">
   <rect id="button" ry="5" rx="5" y="6" x="6" height="38" width="38"
        fill="#f2f5e9" fill-opacity="0.5" stroke="#606060" stroke-width="1.0"/>
   <path id="arrow"
     d="M 11.500037,31.436501 C 11.940474,20.09759 22.043105,11.32322 32.158766,21.979434 L 37.068811,17.246167 C 37.068811,17.246167 37.088388,32 37.088388,32 L 22.160133,31.978069 C 22.160133,31.978069 26.997745,27.140456 26.997745,27.140456 C 18.528582,18.264221 13.291696,25.230495 11.500037,31.436501 z"
     style="fill:#404040;"/>
  </a>
 </g>
</svg>

<style type='text/css'>
<![CDATA[
[data-mouse-over-selected='false'] { opacity: 0.7; }
[data-mouse-over-selected='true']  { opacity: 1.0; }
]]>
</style>
<script type="application/ecmascript"><![CDATA[
document.addEventListener('DOMContentLoaded', (event) => {
  highlightEdges();
  highlightAdjacentNodes();
});
]]></script>
</svg>
