<?xml version="1.0" encoding="UTF-8" standalone="no"?>
<!DOCTYPE svg PUBLIC "-//W3C//DTD SVG 1.1//EN"
 "http://www.w3.org/Graphics/SVG/1.1/DTD/svg11.dtd">
<!-- Generated by graphviz version 10.0.1 (0)
 -->
<!-- Title: size2d.h Pages: 1 -->
<!--zoomable 514 -->

<svg id="main" version="1.1" xmlns="http://www.w3.org/2000/svg" xmlns:xlink="http://www.w3.org/1999/xlink" xml:space="preserve" onload="init(evt)">
<style type="text/css"><![CDATA[
.node, .edge {opacity: 0.7;}
.node.selected, .edge.selected {opacity: 1;}
.edge:hover path { stroke: red; }
.edge:hover polygon { stroke: red; fill: red; }
]]></style>

<defs>
  <circle id="rim" cx="0" cy="0" r="7"/>
  <circle id="rim2" cx="0" cy="0" r="3.5"/>
  <g id="zoomPlus">
    <use xlink:href="#rim" fill="#404040"><set attributeName="fill" to="#808080" begin="zoomplus.mouseover" end="zoomplus.mouseout"/></use>
    <path d="M-4,0h8M0,-4v8" fill="none" stroke="white" stroke-width="1.5" pointer-events="none"/>
  </g>
  <g id="zoomMin">
    <use xlink:href="#rim" fill="#404040"><set attributeName="fill" to="#808080" begin="zoomminus.mouseover" end="zoomminus.mouseout"/></use>
    <path d="M-4,0h8" fill="none" stroke="white" stroke-width="1.5" pointer-events="none"/>
  </g>
  <g id="arrowUp" transform="translate(30 24)">
    <use xlink:href="#rim"/>
    <path pointer-events="none" fill="none" stroke="white" stroke-width="1.5" d="M0,-3.0v7 M-2.5,-0.5L0,-3.0L2.5,-0.5"/>
  </g>
  <g id="arrowRight" transform="rotate(90) translate(36 -43)">
    <use xlink:href="#rim"/>
    <path pointer-events="none" fill="none" stroke="white" stroke-width="1.5" d="M0,-3.0v7 M-2.5,-0.5L0,-3.0L2.5,-0.5"/>
  </g>
  <g id="arrowDown" transform="rotate(180) translate(-30 -48)">
    <use xlink:href="#rim"/>
    <path pointer-events="none" fill="none" stroke="white" stroke-width="1.5" d="M0,-3.0v7 M-2.5,-0.5L0,-3.0L2.5,-0.5"/>
  </g>
  <g id="arrowLeft" transform="rotate(270) translate(-36 17)">
    <use xlink:href="#rim"/>
    <path pointer-events="none" fill="none" stroke="white" stroke-width="1.5" d="M0,-3.0v7 M-2.5,-0.5L0,-3.0L2.5,-0.5"/>
  </g>
  <g id="resetDef">
    <use xlink:href="#rim2" fill="#404040"><set attributeName="fill" to="#808080" begin="reset.mouseover" end="reset.mouseout"/></use>
  </g>
</defs>
<script type="application/ecmascript">
var viewWidth = 1003;
var viewHeight = 514;
var sectionId = 'dynsection-0';
</script>
<script type="application/ecmascript" xlink:href="../../svg.min.js"/>
<svg id="graph" class="graph">
<g id="viewport">
<title>size2d.h</title>
<!-- Node1 -->
<g id="Node000001" class="node">
<title>Node1</title>
<g id="a_Node000001"><a xlink:title="A two&#45;dimensional size tagged with a unit.">
<polygon fill="#999999" stroke="#666666" points="232.25,-506.25 176.5,-506.25 176.5,-487 232.25,-487 232.25,-506.25"/>
<text text-anchor="middle" x="204.38" y="-491.8" font-family="Arial" font-size="11.00">size2d.h</text>
</a>
</g>
</g>
<!-- Node2 -->
<g id="Node000002" class="node">
<title>Node2</title>
<g id="a_Node000002"><a xlink:href="../../df/db1/math_8h_source.html" target="_top" xlink:title=" ">
<polygon fill="white" stroke="#666666" points="376.88,-207.5 267.88,-207.5 267.88,-188.25 376.88,-188.25 376.88,-207.5"/>
<text text-anchor="middle" x="322.38" y="-193.05" font-family="Arial" font-size="11.00">floppy/detail/math.h</text>
</a>
</g>
</g>
<!-- Node1&#45;&gt;Node2 -->
<g id="edge1_Node000001_Node000002" class="edge">
<title>Node1&#45;&gt;Node2</title>
<g id="a_edge1_Node000001_Node000002"><a xlink:title=" ">
<path fill="none" stroke="#63b8ff" d="M232.31,-495C297.92,-491.89 456.38,-474.21 456.38,-375.88 456.38,-375.88 456.38,-375.88 456.38,-318.62 456.38,-265.61 397.34,-230.21 357.64,-212.41"/>
<polygon fill="#63b8ff" stroke="#63b8ff" points="359.23,-209.28 348.66,-208.55 356.46,-215.71 359.23,-209.28"/>
</a>
</g>
</g>
<!-- Node10 -->
<g id="Node000010" class="node">
<title>Node10</title>
<g id="a_Node000010"><a xlink:href="../../d9/db1/concepts_8h_source.html" target="_top" xlink:title=" ">
<polygon fill="white" stroke="#666666" points="141.25,-146.62 13.5,-146.62 13.5,-127.38 141.25,-127.38 141.25,-146.62"/>
<text text-anchor="middle" x="77.38" y="-132.18" font-family="Arial" font-size="11.00">floppy/detail/concepts.h</text>
</a>
</g>
</g>
<!-- Node1&#45;&gt;Node10 -->
<g id="edge19_Node000001_Node000010" class="edge">
<title>Node1&#45;&gt;Node10</title>
<g id="a_edge19_Node000001_Node000010"><a xlink:title=" ">
<path fill="none" stroke="#63b8ff" d="M180.16,-486.57C142.06,-470.56 72.38,-433.43 72.38,-375.88 72.38,-375.88 72.38,-375.88 72.38,-257.75 72.38,-222.81 74.53,-182.19 76.01,-158.37"/>
<polygon fill="#63b8ff" stroke="#63b8ff" points="79.49,-158.72 76.64,-148.52 72.51,-158.27 79.49,-158.72"/>
</a>
</g>
</g>
<!-- Node19 -->
<g id="Node000019" class="node">
<title>Node19</title>
<g id="a_Node000019"><a xlink:href="../../dd/db9/length_8h.html" target="_top" xlink:title="A one&#45;dimensional distance with associated unit of measurement.">
<polygon fill="white" stroke="#666666" points="216.62,-384.5 100.12,-384.5 100.12,-365.25 216.62,-365.25 216.62,-384.5"/>
<text text-anchor="middle" x="158.38" y="-370.05" font-family="Arial" font-size="11.00">floppy/euclid/length.h</text>
</a>
</g>
</g>
<!-- Node1&#45;&gt;Node19 -->
<g id="edge20_Node000001_Node000019" class="edge">
<title>Node1&#45;&gt;Node19</title>
<g id="a_edge20_Node000001_Node000019"><a xlink:title=" ">
<path fill="none" stroke="#63b8ff" d="M200.92,-486.62C193.52,-467.38 176.03,-421.85 165.93,-395.55"/>
<polygon fill="#63b8ff" stroke="#63b8ff" points="169.27,-394.47 162.42,-386.39 162.73,-396.98 169.27,-394.47"/>
</a>
</g>
</g>
<!-- Node29 -->
<g id="Node000029" class="node">
<title>Node29</title>
<g id="a_Node000029"><a xlink:href="../../da/d53/nt__traits2d_8h_source.html" target="_top" xlink:title=" ">
<polygon fill="white" stroke="#666666" points="320.25,-451 216.5,-451 216.5,-420.5 320.25,-420.5 320.25,-451"/>
<text text-anchor="start" x="224.5" y="-436.55" font-family="Arial" font-size="11.00">floppy/euclid/detail</text>
<text text-anchor="middle" x="268.38" y="-425.3" font-family="Arial" font-size="11.00">/nt_traits2d.h</text>
</a>
</g>
</g>
<!-- Node1&#45;&gt;Node29 -->
<g id="edge37_Node000001_Node000029" class="edge">
<title>Node1&#45;&gt;Node29</title>
<g id="a_edge37_Node000001_Node000029"><a xlink:title=" ">
<path fill="none" stroke="#63b8ff" d="M214.1,-486.68C222.07,-479.34 233.72,-468.63 244.18,-459.01"/>
<polygon fill="#63b8ff" stroke="#63b8ff" points="246.47,-461.65 251.46,-452.31 241.73,-456.5 246.47,-461.65"/>
</a>
</g>
</g>
<!-- Node3 -->
<g id="Node000003" class="node">
<title>Node3</title>
<g id="a_Node000003"><a xlink:title=" ">
<polygon fill="#e0e0e0" stroke="#999999" points="415,-146.62 369.75,-146.62 369.75,-127.38 415,-127.38 415,-146.62"/>
<text text-anchor="middle" x="392.38" y="-132.18" font-family="Arial" font-size="11.00">cmath</text>
</a>
</g>
</g>
<!-- Node2&#45;&gt;Node3 -->
<g id="edge2_Node000002_Node000003" class="edge">
<title>Node2&#45;&gt;Node3</title>
<g id="a_edge2_Node000002_Node000003"><a xlink:title=" ">
<path fill="none" stroke="#63b8ff" d="M333.01,-187.93C343.59,-179.03 360.09,-165.16 373,-154.29"/>
<polygon fill="#63b8ff" stroke="#63b8ff" points="375.08,-157.12 380.49,-148 370.58,-151.76 375.08,-157.12"/>
</a>
</g>
</g>
<!-- Node4 -->
<g id="Node000004" class="node">
<title>Node4</title>
<g id="a_Node000004"><a xlink:title=" ">
<polygon fill="#e0e0e0" stroke="#999999" points="199.38,-146.62 159.38,-146.62 159.38,-127.38 199.38,-127.38 199.38,-146.62"/>
<text text-anchor="middle" x="179.38" y="-132.18" font-family="Arial" font-size="11.00">limits</text>
</a>
</g>
</g>
<!-- Node2&#45;&gt;Node4 -->
<g id="edge3_Node000002_Node000004" class="edge">
<title>Node2&#45;&gt;Node4</title>
<g id="a_edge3_Node000002_Node000004"><a xlink:title=" ">
<path fill="none" stroke="#63b8ff" d="M297.67,-187.89C274.41,-179.26 238.72,-165.62 208.38,-152.25 208.03,-152.1 207.68,-151.94 207.33,-151.79"/>
<polygon fill="#63b8ff" stroke="#63b8ff" points="208.97,-148.69 198.43,-147.62 206,-155.03 208.97,-148.69"/>
</a>
</g>
</g>
<!-- Node5 -->
<g id="Node000005" class="node">
<title>Node5</title>
<g id="a_Node000005"><a xlink:title=" ">
<polygon fill="#e0e0e0" stroke="#999999" points="275.38,-146.62 217.38,-146.62 217.38,-127.38 275.38,-127.38 275.38,-146.62"/>
<text text-anchor="middle" x="246.38" y="-132.18" font-family="Arial" font-size="11.00">numbers</text>
</a>
</g>
</g>
<!-- Node2&#45;&gt;Node5 -->
<g id="edge4_Node000002_Node000005" class="edge">
<title>Node2&#45;&gt;Node5</title>
<g id="a_edge4_Node000002_Node000005"><a xlink:title=" ">
<path fill="none" stroke="#63b8ff" d="M310.83,-187.93C299.23,-178.94 281.08,-164.89 267,-153.98"/>
<polygon fill="#63b8ff" stroke="#63b8ff" points="269.27,-151.31 259.22,-147.95 264.98,-156.84 269.27,-151.31"/>
</a>
</g>
</g>
<!-- Node6 -->
<g id="Node000006" class="node">
<title>Node6</title>
<g id="a_Node000006"><a xlink:title=" ">
<polygon fill="#e0e0e0" stroke="#999999" points="351.38,-146.62 293.38,-146.62 293.38,-127.38 351.38,-127.38 351.38,-146.62"/>
<text text-anchor="middle" x="322.38" y="-132.18" font-family="Arial" font-size="11.00">compare</text>
</a>
</g>
</g>
<!-- Node2&#45;&gt;Node6 -->
<g id="edge5_Node000002_Node000006" class="edge">
<title>Node2&#45;&gt;Node6</title>
<g id="a_edge5_Node000002_Node000006"><a xlink:title=" ">
<path fill="none" stroke="#63b8ff" d="M322.38,-187.93C322.38,-180.15 322.38,-168.58 322.38,-158.53"/>
<polygon fill="#63b8ff" stroke="#63b8ff" points="325.88,-158.54 322.38,-148.54 318.88,-158.54 325.88,-158.54"/>
</a>
</g>
</g>
<!-- Node7 -->
<g id="Node000007" class="node">
<title>Node7</title>
<g id="a_Node000007"><a xlink:href="../../db/db5/export_8h_source.html" target="_top" xlink:title=" ">
<polygon fill="white" stroke="#666666" points="547.88,-146.62 432.88,-146.62 432.88,-127.38 547.88,-127.38 547.88,-146.62"/>
<text text-anchor="middle" x="490.38" y="-132.18" font-family="Arial" font-size="11.00">floppy/detail/export.h</text>
</a>
</g>
</g>
<!-- Node2&#45;&gt;Node7 -->
<g id="edge6_Node000002_Node000007" class="edge">
<title>Node2&#45;&gt;Node7</title>
<g id="a_edge6_Node000002_Node000007"><a xlink:title=" ">
<path fill="none" stroke="#63b8ff" d="M348.26,-187.8C376.5,-177.91 421.93,-161.99 453.8,-150.82"/>
<polygon fill="#63b8ff" stroke="#63b8ff" points="454.76,-154.19 463.04,-147.58 452.44,-147.59 454.76,-154.19"/>
</a>
</g>
</g>
<!-- Node2&#45;&gt;Node10 -->
<g id="edge9_Node000002_Node000010" class="edge">
<title>Node2&#45;&gt;Node10</title>
<g id="a_edge9_Node000002_Node000010"><a xlink:title=" ">
<path fill="none" stroke="#63b8ff" d="M284.63,-187.8C242.1,-177.58 172.83,-160.94 126.2,-149.73"/>
<polygon fill="#63b8ff" stroke="#63b8ff" points="127.17,-146.37 116.63,-147.43 125.54,-153.17 127.17,-146.37"/>
</a>
</g>
</g>
<!-- Node8 -->
<g id="Node000008" class="node">
<title>Node8</title>
<g id="a_Node000008"><a xlink:title=" ">
<polygon fill="#e0e0e0" stroke="#999999" points="511.5,-80.12 469.25,-80.12 469.25,-60.88 511.5,-60.88 511.5,-80.12"/>
<text text-anchor="middle" x="490.38" y="-65.67" font-family="Arial" font-size="11.00">string</text>
</a>
</g>
</g>
<!-- Node7&#45;&gt;Node8 -->
<g id="edge7_Node000007_Node000008" class="edge">
<title>Node7&#45;&gt;Node8</title>
<g id="a_edge7_Node000007_Node000008"><a xlink:title=" ">
<path fill="none" stroke="#63b8ff" d="M490.38,-127.03C490.38,-117.98 490.38,-103.7 490.38,-91.88"/>
<polygon fill="#63b8ff" stroke="#63b8ff" points="493.88,-91.91 490.38,-81.91 486.88,-91.91 493.88,-91.91"/>
</a>
</g>
</g>
<!-- Node9 -->
<g id="Node000009" class="node">
<title>Node9</title>
<g id="a_Node000009"><a xlink:title=" ">
<polygon fill="#e0e0e0" stroke="#999999" points="643.38,-80.12 573.38,-80.12 573.38,-60.88 643.38,-60.88 643.38,-80.12"/>
<text text-anchor="middle" x="608.38" y="-65.67" font-family="Arial" font-size="11.00">string_view</text>
</a>
</g>
</g>
<!-- Node7&#45;&gt;Node9 -->
<g id="edge8_Node000007_Node000009" class="edge">
<title>Node7&#45;&gt;Node9</title>
<g id="a_edge8_Node000007_Node000009"><a xlink:title=" ">
<path fill="none" stroke="#63b8ff" d="M507.03,-126.9C526.45,-116.28 558.79,-98.6 581.71,-86.07"/>
<polygon fill="#63b8ff" stroke="#63b8ff" points="583.38,-89.15 590.48,-81.28 580.02,-83.01 583.38,-89.15"/>
</a>
</g>
</g>
<!-- Node11 -->
<g id="Node000011" class="node">
<title>Node11</title>
<g id="a_Node000011"><a xlink:title=" ">
<polygon fill="#e0e0e0" stroke="#999999" points="58.75,-80.12 0,-80.12 0,-60.88 58.75,-60.88 58.75,-80.12"/>
<text text-anchor="middle" x="29.38" y="-65.67" font-family="Arial" font-size="11.00">concepts</text>
</a>
</g>
</g>
<!-- Node10&#45;&gt;Node11 -->
<g id="edge10_Node000010_Node000011" class="edge">
<title>Node10&#45;&gt;Node11</title>
<g id="a_edge10_Node000010_Node000011"><a xlink:title=" ">
<path fill="none" stroke="#63b8ff" d="M70.7,-127.03C63.46,-117.31 51.73,-101.54 42.61,-89.28"/>
<polygon fill="#63b8ff" stroke="#63b8ff" points="45.67,-87.54 36.9,-81.61 40.06,-91.72 45.67,-87.54"/>
</a>
</g>
</g>
<!-- Node12 -->
<g id="Node000012" class="node">
<title>Node12</title>
<g id="a_Node000012"><a xlink:href="../../df/d63/type__traits_8h_source.html" target="_top" xlink:title=" ">
<polygon fill="white" stroke="#666666" points="173.5,-85.75 77.25,-85.75 77.25,-55.25 173.5,-55.25 173.5,-85.75"/>
<text text-anchor="start" x="85.25" y="-71.3" font-family="Arial" font-size="11.00">floppy/detail/type</text>
<text text-anchor="middle" x="125.38" y="-60.05" font-family="Arial" font-size="11.00">_traits.h</text>
</a>
</g>
</g>
<!-- Node10&#45;&gt;Node12 -->
<g id="edge11_Node000010_Node000012" class="edge">
<title>Node10&#45;&gt;Node12</title>
<g id="a_edge11_Node000010_Node000012"><a xlink:title=" ">
<path fill="none" stroke="#63b8ff" d="M84.05,-127.03C90.19,-118.79 99.56,-106.19 107.83,-95.08"/>
<polygon fill="#63b8ff" stroke="#63b8ff" points="110.63,-97.17 113.8,-87.06 105.02,-92.99 110.63,-97.17"/>
</a>
</g>
</g>
<!-- Node14 -->
<g id="Node000014" class="node">
<title>Node14</title>
<g id="a_Node000014"><a xlink:href="../../d9/d49/types_8h_source.html" target="_top" xlink:title=" ">
<polygon fill="white" stroke="#666666" points="315.62,-80.12 205.12,-80.12 205.12,-60.88 315.62,-60.88 315.62,-80.12"/>
<text text-anchor="middle" x="260.38" y="-65.67" font-family="Arial" font-size="11.00">floppy/detail/types.h</text>
</a>
</g>
</g>
<!-- Node10&#45;&gt;Node14 -->
<g id="edge13_Node000010_Node000014" class="edge">
<title>Node10&#45;&gt;Node14</title>
<g id="a_edge13_Node000010_Node000014"><a xlink:title=" ">
<path fill="none" stroke="#63b8ff" d="M103.21,-126.9C134.81,-115.76 188.52,-96.83 224.22,-84.24"/>
<polygon fill="#63b8ff" stroke="#63b8ff" points="224.98,-87.69 233.25,-81.06 222.65,-81.08 224.98,-87.69"/>
</a>
</g>
</g>
<!-- Node13 -->
<g id="Node000013" class="node">
<title>Node13</title>
<g id="a_Node000013"><a xlink:title=" ">
<polygon fill="#e0e0e0" stroke="#999999" points="158.12,-19.25 92.62,-19.25 92.62,0 158.12,0 158.12,-19.25"/>
<text text-anchor="middle" x="125.38" y="-4.8" font-family="Arial" font-size="11.00">type_traits</text>
</a>
</g>
</g>
<!-- Node12&#45;&gt;Node13 -->
<g id="edge12_Node000012_Node000013" class="edge">
<title>Node12&#45;&gt;Node13</title>
<g id="a_edge12_Node000012_Node000013"><a xlink:title=" ">
<path fill="none" stroke="#63b8ff" d="M125.38,-54.95C125.38,-47.71 125.38,-38.84 125.38,-30.94"/>
<polygon fill="#63b8ff" stroke="#63b8ff" points="128.88,-31.21 125.38,-21.21 121.88,-31.21 128.88,-31.21"/>
</a>
</g>
</g>
<!-- Node14&#45;&gt;Node13 -->
<g id="edge17_Node000014_Node000013" class="edge">
<title>Node14&#45;&gt;Node13</title>
<g id="a_edge17_Node000014_Node000013"><a xlink:title=" ">
<path fill="none" stroke="#63b8ff" d="M239.58,-60.43C217.31,-50.72 181.76,-35.21 156.23,-24.08"/>
<polygon fill="#63b8ff" stroke="#63b8ff" points="157.93,-21 147.36,-20.21 155.13,-27.42 157.93,-21"/>
</a>
</g>
</g>
<!-- Node15 -->
<g id="Node000015" class="node">
<title>Node15</title>
<g id="a_Node000015"><a xlink:title=" ">
<polygon fill="#e0e0e0" stroke="#999999" points="298.62,-19.25 248.12,-19.25 248.12,0 298.62,0 298.62,-19.25"/>
<text text-anchor="middle" x="273.38" y="-4.8" font-family="Arial" font-size="11.00">cstddef</text>
</a>
</g>
</g>
<!-- Node14&#45;&gt;Node15 -->
<g id="edge14_Node000014_Node000015" class="edge">
<title>Node14&#45;&gt;Node15</title>
<g id="a_edge14_Node000014_Node000015"><a xlink:title=" ">
<path fill="none" stroke="#63b8ff" d="M262.35,-60.56C264.09,-52.69 266.68,-40.95 268.91,-30.82"/>
<polygon fill="#63b8ff" stroke="#63b8ff" points="272.32,-31.65 271.06,-21.13 265.48,-30.14 272.32,-31.65"/>
</a>
</g>
</g>
<!-- Node16 -->
<g id="Node000016" class="node">
<title>Node16</title>
<g id="a_Node000016"><a xlink:title=" ">
<polygon fill="#e0e0e0" stroke="#999999" points="363.75,-19.25 317,-19.25 317,0 363.75,0 363.75,-19.25"/>
<text text-anchor="middle" x="340.38" y="-4.8" font-family="Arial" font-size="11.00">cstdint</text>
</a>
</g>
</g>
<!-- Node14&#45;&gt;Node16 -->
<g id="edge15_Node000014_Node000016" class="edge">
<title>Node14&#45;&gt;Node16</title>
<g id="a_edge15_Node000014_Node000016"><a xlink:title=" ">
<path fill="none" stroke="#63b8ff" d="M272.53,-60.56C284.86,-51.48 304.21,-37.24 319.09,-26.29"/>
<polygon fill="#63b8ff" stroke="#63b8ff" points="320.91,-29.29 326.89,-20.55 316.76,-23.66 320.91,-29.29"/>
</a>
</g>
</g>
<!-- Node17 -->
<g id="Node000017" class="node">
<title>Node17</title>
<g id="a_Node000017"><a xlink:title=" ">
<polygon fill="#e0e0e0" stroke="#999999" points="230.12,-19.25 176.62,-19.25 176.62,0 230.12,0 230.12,-19.25"/>
<text text-anchor="middle" x="203.38" y="-4.8" font-family="Arial" font-size="11.00">optional</text>
</a>
</g>
</g>
<!-- Node14&#45;&gt;Node17 -->
<g id="edge16_Node000014_Node000017" class="edge">
<title>Node14&#45;&gt;Node17</title>
<g id="a_edge16_Node000014_Node000017"><a xlink:title=" ">
<path fill="none" stroke="#63b8ff" d="M251.72,-60.56C243.35,-51.91 230.45,-38.59 220.07,-27.87"/>
<polygon fill="#63b8ff" stroke="#63b8ff" points="222.64,-25.49 213.17,-20.74 217.61,-30.36 222.64,-25.49"/>
</a>
</g>
</g>
<!-- Node18 -->
<g id="Node000018" class="node">
<title>Node18</title>
<g id="a_Node000018"><a xlink:title=" ">
<polygon fill="#e0e0e0" stroke="#999999" points="608.25,-19.25 534.5,-19.25 534.5,0 608.25,0 608.25,-19.25"/>
<text text-anchor="middle" x="571.38" y="-4.8" font-family="Arial" font-size="11.00">fmt/format.h</text>
</a>
</g>
</g>
<!-- Node14&#45;&gt;Node18 -->
<g id="edge18_Node000014_Node000018" class="edge">
<title>Node14&#45;&gt;Node18</title>
<g id="a_edge18_Node000014_Node000018"><a xlink:title=" ">
<path fill="none" stroke="#63b8ff" d="M308.29,-60.43C366.59,-49.39 464.48,-30.86 522.99,-19.78"/>
<polygon fill="#63b8ff" stroke="#63b8ff" points="523.49,-23.25 532.66,-17.95 522.18,-16.38 523.49,-23.25"/>
</a>
</g>
</g>
<!-- Node20 -->
<g id="Node000020" class="node">
<title>Node20</title>
<g id="a_Node000020"><a xlink:href="../../d8/d0c/scale_8h.html" target="_top" xlink:title="A scaling factor between two different units of measurement.">
<polygon fill="white" stroke="#666666" points="384.38,-329.25 272.38,-329.25 272.38,-310 384.38,-310 384.38,-329.25"/>
<text text-anchor="middle" x="328.38" y="-314.8" font-family="Arial" font-size="11.00">floppy/euclid/scale.h</text>
</a>
</g>
</g>
<!-- Node19&#45;&gt;Node20 -->
<g id="edge21_Node000019_Node000020" class="edge">
<title>Node19&#45;&gt;Node20</title>
<g id="a_edge21_Node000019_Node000020"><a xlink:title=" ">
<path fill="none" stroke="#63b8ff" d="M187.21,-364.84C215.05,-356.12 257.45,-342.84 288.51,-333.11"/>
<polygon fill="#63b8ff" stroke="#63b8ff" points="289.45,-336.48 297.95,-330.15 287.36,-329.8 289.45,-336.48"/>
</a>
</g>
</g>
<!-- Node28 -->
<g id="Node000028" class="node">
<title>Node28</title>
<g id="a_Node000028"><a xlink:href="../../de/de1/nt__traits_8h_source.html" target="_top" xlink:title=" ">
<polygon fill="white" stroke="#666666" points="296.25,-274 192.5,-274 192.5,-243.5 296.25,-243.5 296.25,-274"/>
<text text-anchor="start" x="200.5" y="-259.55" font-family="Arial" font-size="11.00">floppy/euclid/detail</text>
<text text-anchor="middle" x="244.38" y="-248.3" font-family="Arial" font-size="11.00">/nt_traits.h</text>
</a>
</g>
</g>
<!-- Node19&#45;&gt;Node28 -->
<g id="edge36_Node000019_Node000028" class="edge">
<title>Node19&#45;&gt;Node28</title>
<g id="a_edge36_Node000019_Node000028"><a xlink:title=" ">
<path fill="none" stroke="#63b8ff" d="M165.12,-364.92C178.25,-347.49 207.62,-308.52 226.69,-283.22"/>
<polygon fill="#63b8ff" stroke="#63b8ff" points="229.3,-285.57 232.52,-275.48 223.71,-281.36 229.3,-285.57"/>
</a>
</g>
</g>
<!-- Node20&#45;&gt;Node2 -->
<g id="edge22_Node000020_Node000002" class="edge">
<title>Node20&#45;&gt;Node2</title>
<g id="a_edge22_Node000020_Node000002"><a xlink:title=" ">
<path fill="none" stroke="#63b8ff" d="M327.92,-309.62C326.97,-290.55 324.72,-245.66 323.4,-219.26"/>
<polygon fill="#63b8ff" stroke="#63b8ff" points="326.9,-219.3 322.91,-209.49 319.91,-219.65 326.9,-219.3"/>
</a>
</g>
</g>
<!-- Node21 -->
<g id="Node000021" class="node">
<title>Node21</title>
<g id="a_Node000021"><a xlink:href="../../dd/dff/traits_8h_source.html" target="_top" xlink:title=" ">
<polygon fill="white" stroke="#666666" points="745.25,-207.5 665.5,-207.5 665.5,-188.25 745.25,-188.25 745.25,-207.5"/>
<text text-anchor="middle" x="705.38" y="-193.05" font-family="Arial" font-size="11.00">floppy/traits.h</text>
</a>
</g>
</g>
<!-- Node20&#45;&gt;Node21 -->
<g id="edge23_Node000020_Node000021" class="edge">
<title>Node20&#45;&gt;Node21</title>
<g id="a_edge23_Node000020_Node000021"><a xlink:title=" ">
<path fill="none" stroke="#63b8ff" d="M357.02,-309.53C423.84,-288.3 590.12,-235.49 666.22,-211.31"/>
<polygon fill="#63b8ff" stroke="#63b8ff" points="666.86,-214.78 675.33,-208.42 664.74,-208.11 666.86,-214.78"/>
</a>
</g>
</g>
<!-- Node20&#45;&gt;Node28 -->
<g id="edge33_Node000020_Node000028" class="edge">
<title>Node20&#45;&gt;Node28</title>
<g id="a_edge33_Node000020_Node000028"><a xlink:title=" ">
<path fill="none" stroke="#63b8ff" d="M315.62,-309.68C304.73,-302.05 288.63,-290.77 274.5,-280.86"/>
<polygon fill="#63b8ff" stroke="#63b8ff" points="276.55,-278.02 266.35,-275.15 272.53,-283.76 276.55,-278.02"/>
</a>
</g>
</g>
<!-- Node21&#45;&gt;Node7 -->
<g id="edge27_Node000021_Node000007" class="edge">
<title>Node21&#45;&gt;Node7</title>
<g id="a_edge27_Node000021_Node000007"><a xlink:title=" ">
<path fill="none" stroke="#63b8ff" d="M672.25,-187.8C635.32,-177.69 575.42,-161.29 534.53,-150.09"/>
<polygon fill="#63b8ff" stroke="#63b8ff" points="535.56,-146.75 525,-147.48 533.72,-153.5 535.56,-146.75"/>
</a>
</g>
</g>
<!-- Node22 -->
<g id="Node000022" class="node">
<title>Node22</title>
<g id="a_Node000022"><a xlink:title=" ">
<polygon fill="#e0e0e0" stroke="#999999" points="919.88,-146.62 864.88,-146.62 864.88,-127.38 919.88,-127.38 919.88,-146.62"/>
<text text-anchor="middle" x="892.38" y="-132.18" font-family="Arial" font-size="11.00">memory</text>
</a>
</g>
</g>
<!-- Node21&#45;&gt;Node22 -->
<g id="edge24_Node000021_Node000022" class="edge">
<title>Node21&#45;&gt;Node22</title>
<g id="a_edge24_Node000021_Node000022"><a xlink:title=" ">
<path fill="none" stroke="#63b8ff" d="M739.23,-187.8C770.02,-179.34 816.58,-165.98 856.38,-152.25 857.52,-151.86 858.68,-151.45 859.85,-151.03"/>
<polygon fill="#63b8ff" stroke="#63b8ff" points="860.86,-154.38 868.99,-147.59 858.4,-147.83 860.86,-154.38"/>
</a>
</g>
</g>
<!-- Node23 -->
<g id="Node000023" class="node">
<title>Node23</title>
<g id="a_Node000023"><a xlink:title=" ">
<polygon fill="#e0e0e0" stroke="#999999" points="995,-146.62 937.75,-146.62 937.75,-127.38 995,-127.38 995,-146.62"/>
<text text-anchor="middle" x="966.38" y="-132.18" font-family="Arial" font-size="11.00">iostream</text>
</a>
</g>
</g>
<!-- Node21&#45;&gt;Node23 -->
<g id="edge25_Node000021_Node000023" class="edge">
<title>Node21&#45;&gt;Node23</title>
<g id="a_edge25_Node000021_Node000023"><a xlink:title=" ">
<path fill="none" stroke="#63b8ff" d="M745.52,-191C790.74,-183.9 866.15,-170.58 929.38,-152.25 930.95,-151.79 932.54,-151.3 934.15,-150.78"/>
<polygon fill="#63b8ff" stroke="#63b8ff" points="934.98,-154.2 943.25,-147.57 932.65,-147.6 934.98,-154.2"/>
</a>
</g>
</g>
<!-- Node24 -->
<g id="Node000024" class="node">
<title>Node24</title>
<g id="a_Node000024"><a xlink:title=" ">
<polygon fill="#e0e0e0" stroke="#999999" points="695,-152.25 565.75,-152.25 565.75,-121.75 695,-121.75 695,-152.25"/>
<text text-anchor="start" x="573.75" y="-137.8" font-family="Arial" font-size="11.00">experimental/propagate</text>
<text text-anchor="middle" x="630.38" y="-126.55" font-family="Arial" font-size="11.00">_const</text>
</a>
</g>
</g>
<!-- Node21&#45;&gt;Node24 -->
<g id="edge26_Node000021_Node000024" class="edge">
<title>Node21&#45;&gt;Node24</title>
<g id="a_edge26_Node000021_Node000024"><a xlink:title=" ">
<path fill="none" stroke="#63b8ff" d="M693.98,-187.93C684.36,-180.37 670.17,-169.24 657.63,-159.4"/>
<polygon fill="#63b8ff" stroke="#63b8ff" points="660.1,-156.89 650.08,-153.47 655.78,-162.39 660.1,-156.89"/>
</a>
</g>
</g>
<!-- Node25 -->
<g id="Node000025" class="node">
<title>Node25</title>
<g id="a_Node000025"><a xlink:href="../../d6/d45/formatters_8h_source.html" target="_top" xlink:title=" ">
<polygon fill="white" stroke="#666666" points="847.25,-146.62 713.5,-146.62 713.5,-127.38 847.25,-127.38 847.25,-146.62"/>
<text text-anchor="middle" x="780.38" y="-132.18" font-family="Arial" font-size="11.00">floppy/detail/formatters.h</text>
</a>
</g>
</g>
<!-- Node21&#45;&gt;Node25 -->
<g id="edge28_Node000021_Node000025" class="edge">
<title>Node21&#45;&gt;Node25</title>
<g id="a_edge28_Node000021_Node000025"><a xlink:title=" ">
<path fill="none" stroke="#63b8ff" d="M716.77,-187.93C728.22,-178.94 746.12,-164.89 760.02,-153.98"/>
<polygon fill="#63b8ff" stroke="#63b8ff" points="761.98,-156.89 767.69,-147.96 757.66,-151.38 761.98,-156.89"/>
</a>
</g>
</g>
<!-- Node25&#45;&gt;Node9 -->
<g id="edge29_Node000025_Node000009" class="edge">
<title>Node25&#45;&gt;Node9</title>
<g id="a_edge29_Node000025_Node000009"><a xlink:title=" ">
<path fill="none" stroke="#63b8ff" d="M756.1,-126.9C726.64,-115.85 676.78,-97.15 643.23,-84.57"/>
<polygon fill="#63b8ff" stroke="#63b8ff" points="644.54,-81.32 633.95,-81.09 642.08,-87.88 644.54,-81.32"/>
</a>
</g>
</g>
<!-- Node25&#45;&gt;Node18 -->
<g id="edge32_Node000025_Node000018" class="edge">
<title>Node25&#45;&gt;Node18</title>
<g id="a_edge32_Node000025_Node000018"><a xlink:title=" ">
<path fill="none" stroke="#63b8ff" d="M777.66,-126.95C772.15,-110.17 758.05,-74.25 733.38,-55.25 700.67,-30.06 654.62,-19.09 619.98,-14.31"/>
<polygon fill="#63b8ff" stroke="#63b8ff" points="620.56,-10.85 610.2,-13.1 619.7,-17.8 620.56,-10.85"/>
</a>
</g>
</g>
<!-- Node26 -->
<g id="Node000026" class="node">
<title>Node26</title>
<g id="a_Node000026"><a xlink:title=" ">
<polygon fill="#e0e0e0" stroke="#999999" points="834.5,-80.12 780.25,-80.12 780.25,-60.88 834.5,-60.88 834.5,-80.12"/>
<text text-anchor="middle" x="807.38" y="-65.67" font-family="Arial" font-size="11.00">sstream</text>
</a>
</g>
</g>
<!-- Node25&#45;&gt;Node26 -->
<g id="edge30_Node000025_Node000026" class="edge">
<title>Node25&#45;&gt;Node26</title>
<g id="a_edge30_Node000025_Node000026"><a xlink:title=" ">
<path fill="none" stroke="#63b8ff" d="M784.13,-127.03C788.04,-117.69 794.28,-102.78 799.31,-90.76"/>
<polygon fill="#63b8ff" stroke="#63b8ff" points="802.44,-92.36 803.07,-81.79 795.98,-89.66 802.44,-92.36"/>
</a>
</g>
</g>
<!-- Node27 -->
<g id="Node000027" class="node">
<title>Node27</title>
<g id="a_Node000027"><a xlink:title=" ">
<polygon fill="#e0e0e0" stroke="#999999" points="724.75,-80.12 678,-80.12 678,-60.88 724.75,-60.88 724.75,-80.12"/>
<text text-anchor="middle" x="701.38" y="-65.67" font-family="Arial" font-size="11.00">iosfwd</text>
</a>
</g>
</g>
<!-- Node25&#45;&gt;Node27 -->
<g id="edge31_Node000025_Node000027" class="edge">
<title>Node25&#45;&gt;Node27</title>
<g id="a_edge31_Node000025_Node000027"><a xlink:title=" ">
<path fill="none" stroke="#63b8ff" d="M769.39,-127.03C756.96,-116.88 736.47,-100.15 721.22,-87.7"/>
<polygon fill="#63b8ff" stroke="#63b8ff" points="723.65,-85.17 713.69,-81.56 719.23,-90.59 723.65,-85.17"/>
</a>
</g>
</g>
<!-- Node28&#45;&gt;Node2 -->
<g id="edge34_Node000028_Node000002" class="edge">
<title>Node28&#45;&gt;Node2</title>
<g id="a_edge34_Node000028_Node000002"><a xlink:title=" ">
<path fill="none" stroke="#63b8ff" d="M263.66,-243.2C275.08,-234.58 289.56,-223.65 301.28,-214.8"/>
<polygon fill="#63b8ff" stroke="#63b8ff" points="303.27,-217.68 309.14,-208.86 299.05,-212.09 303.27,-217.68"/>
</a>
</g>
</g>
<!-- Node28&#45;&gt;Node10 -->
<g id="edge35_Node000028_Node000010" class="edge">
<title>Node28&#45;&gt;Node10</title>
<g id="a_edge35_Node000028_Node000010"><a xlink:title=" ">
<path fill="none" stroke="#63b8ff" d="M223.9,-243.07C192.17,-220.31 131.41,-176.74 99,-153.5"/>
<polygon fill="#63b8ff" stroke="#63b8ff" points="101.31,-150.85 91.14,-147.87 97.23,-156.54 101.31,-150.85"/>
</a>
</g>
</g>
<!-- Node29&#45;&gt;Node19 -->
<g id="edge41_Node000029_Node000019" class="edge">
<title>Node29&#45;&gt;Node19</title>
<g id="a_edge41_Node000029_Node000019"><a xlink:title=" ">
<path fill="none" stroke="#63b8ff" d="M240.9,-420.05C223.83,-410.91 201.98,-399.22 185.06,-390.16"/>
<polygon fill="#63b8ff" stroke="#63b8ff" points="187.05,-387.25 176.58,-385.62 183.74,-393.42 187.05,-387.25"/>
</a>
</g>
</g>
<!-- Node29&#45;&gt;Node28 -->
<g id="edge42_Node000029_Node000028" class="edge">
<title>Node29&#45;&gt;Node28</title>
<g id="a_edge42_Node000029_Node000028"><a xlink:title=" ">
<path fill="none" stroke="#63b8ff" d="M266.37,-420.13C262.3,-390.46 253.03,-322.84 247.92,-285.58"/>
<polygon fill="#63b8ff" stroke="#63b8ff" points="251.39,-285.14 246.56,-275.7 244.45,-286.09 251.39,-285.14"/>
</a>
</g>
</g>
<!-- Node30 -->
<g id="Node000030" class="node">
<title>Node30</title>
<g id="a_Node000030"><a xlink:title=" ">
<polygon fill="#e0e0e0" stroke="#999999" points="370.75,-384.5 330,-384.5 330,-365.25 370.75,-365.25 370.75,-384.5"/>
<text text-anchor="middle" x="350.38" y="-370.05" font-family="Arial" font-size="11.00">array</text>
</a>
</g>
</g>
<!-- Node29&#45;&gt;Node30 -->
<g id="edge38_Node000029_Node000030" class="edge">
<title>Node29&#45;&gt;Node30</title>
<g id="a_edge38_Node000029_Node000030"><a xlink:title=" ">
<path fill="none" stroke="#63b8ff" d="M288.64,-420.2C300.77,-411.49 316.18,-400.43 328.57,-391.53"/>
<polygon fill="#63b8ff" stroke="#63b8ff" points="330.42,-394.51 336.5,-385.83 326.34,-388.82 330.42,-394.51"/>
</a>
</g>
</g>
<!-- Node31 -->
<g id="Node000031" class="node">
<title>Node31</title>
<g id="a_Node000031"><a xlink:title=" ">
<polygon fill="#e0e0e0" stroke="#999999" points="428,-384.5 388.75,-384.5 388.75,-365.25 428,-365.25 428,-384.5"/>
<text text-anchor="middle" x="408.38" y="-370.05" font-family="Arial" font-size="11.00">tuple</text>
</a>
</g>
</g>
<!-- Node29&#45;&gt;Node31 -->
<g id="edge39_Node000029_Node000031" class="edge">
<title>Node29&#45;&gt;Node31</title>
<g id="a_edge39_Node000029_Node000031"><a xlink:title=" ">
<path fill="none" stroke="#63b8ff" d="M303.34,-420.05C326.34,-410.37 356.15,-397.84 378.13,-388.6"/>
<polygon fill="#63b8ff" stroke="#63b8ff" points="379.27,-391.91 387.13,-384.81 376.56,-385.46 379.27,-391.91"/>
</a>
</g>
</g>
<!-- Node32 -->
<g id="Node000032" class="node">
<title>Node32</title>
<g id="a_Node000032"><a xlink:title=" ">
<polygon fill="#e0e0e0" stroke="#999999" points="312.38,-384.5 272.38,-384.5 272.38,-365.25 312.38,-365.25 312.38,-384.5"/>
<text text-anchor="middle" x="292.38" y="-370.05" font-family="Arial" font-size="11.00">utility</text>
</a>
</g>
</g>
<!-- Node29&#45;&gt;Node32 -->
<g id="edge40_Node000029_Node000032" class="edge">
<title>Node29&#45;&gt;Node32</title>
<g id="a_edge40_Node000029_Node000032"><a xlink:title=" ">
<path fill="none" stroke="#63b8ff" d="M274.31,-420.2C277.36,-412.7 281.13,-403.45 284.44,-395.35"/>
<polygon fill="#63b8ff" stroke="#63b8ff" points="287.57,-396.93 288.1,-386.35 281.09,-394.29 287.57,-396.93"/>
</a>
</g>
</g>
</g>
</svg>

<g id="navigator" transform="translate(0 0)" fill="#404254">
  <rect fill="#f2f5e9" fill-opacity="0.5" stroke="#606060" stroke-width=".5" x="0" y="0" width="60" height="60"/>
  <use id="zoomplus" xlink:href="#zoomPlus" x="17" y="9" onmousedown="handleZoom(evt,'in')"/>
  <use id="zoomminus" xlink:href="#zoomMin" x="42" y="9" onmousedown="handleZoom(evt,'out')"/>
  <use id="reset" xlink:href="#resetDef" x="30" y="36" onmousedown="handleReset()"/>
   <use id="arrowup" xlink:href="#arrowUp" x="0" y="0" onmousedown="handlePan(0,-1)"/>
  <use id="arrowright" xlink:href="#arrowRight" x="0" y="0" onmousedown="handlePan(1,0)"/>
  <use id="arrowdown" xlink:href="#arrowDown" x="0" y="0" onmousedown="handlePan(0,1)"/>
  <use id="arrowleft" xlink:href="#arrowLeft" x="0" y="0" onmousedown="handlePan(-1,0)"/>
</g>
<svg viewBox="0 0 15 15" width="100%" height="30px" preserveAspectRatio="xMaxYMin meet">
 <g id="arrow_out" transform="scale(0.3 0.3)">
  <a xlink:href="size2d_8h__incl_org.svg" target="_base">
   <rect id="button" ry="5" rx="5" y="6" x="6" height="38" width="38"
        fill="#f2f5e9" fill-opacity="0.5" stroke="#606060" stroke-width="1.0"/>
   <path id="arrow"
     d="M 11.500037,31.436501 C 11.940474,20.09759 22.043105,11.32322 32.158766,21.979434 L 37.068811,17.246167 C 37.068811,17.246167 37.088388,32 37.088388,32 L 22.160133,31.978069 C 22.160133,31.978069 26.997745,27.140456 26.997745,27.140456 C 18.528582,18.264221 13.291696,25.230495 11.500037,31.436501 z"
     style="fill:#404040;"/>
  </a>
 </g>
</svg>

<style type='text/css'>
<![CDATA[
[data-mouse-over-selected='false'] { opacity: 0.7; }
[data-mouse-over-selected='true']  { opacity: 1.0; }
]]>
</style>
<script type="application/ecmascript"><![CDATA[
document.addEventListener('DOMContentLoaded', (event) => {
  highlightEdges();
  highlightAdjacentNodes();
});
]]></script>
</svg>
