<?xml version="1.0" encoding="UTF-8" standalone="no"?>
<!DOCTYPE svg PUBLIC "-//W3C//DTD SVG 1.1//EN"
 "http://www.w3.org/Graphics/SVG/1.1/DTD/svg11.dtd">
<!-- Generated by graphviz version 10.0.1 (0)
 -->
<!-- Title: size2d.h Pages: 1 -->
<!--zoomable 514 -->

<svg id="main" version="1.1" xmlns="http://www.w3.org/2000/svg" xmlns:xlink="http://www.w3.org/1999/xlink" xml:space="preserve" onload="init(evt)">
<style type="text/css"><![CDATA[
.node, .edge {opacity: 0.7;}
.node.selected, .edge.selected {opacity: 1;}
.edge:hover path { stroke: red; }
.edge:hover polygon { stroke: red; fill: red; }
]]></style>

<defs>
  <circle id="rim" cx="0" cy="0" r="7"/>
  <circle id="rim2" cx="0" cy="0" r="3.5"/>
  <g id="zoomPlus">
    <use xlink:href="#rim" fill="#404040"><set attributeName="fill" to="#808080" begin="zoomplus.mouseover" end="zoomplus.mouseout"/></use>
    <path d="M-4,0h8M0,-4v8" fill="none" stroke="white" stroke-width="1.5" pointer-events="none"/>
  </g>
  <g id="zoomMin">
    <use xlink:href="#rim" fill="#404040"><set attributeName="fill" to="#808080" begin="zoomminus.mouseover" end="zoomminus.mouseout"/></use>
    <path d="M-4,0h8" fill="none" stroke="white" stroke-width="1.5" pointer-events="none"/>
  </g>
  <g id="arrowUp" transform="translate(30 24)">
    <use xlink:href="#rim"/>
    <path pointer-events="none" fill="none" stroke="white" stroke-width="1.5" d="M0,-3.0v7 M-2.5,-0.5L0,-3.0L2.5,-0.5"/>
  </g>
  <g id="arrowRight" transform="rotate(90) translate(36 -43)">
    <use xlink:href="#rim"/>
    <path pointer-events="none" fill="none" stroke="white" stroke-width="1.5" d="M0,-3.0v7 M-2.5,-0.5L0,-3.0L2.5,-0.5"/>
  </g>
  <g id="arrowDown" transform="rotate(180) translate(-30 -48)">
    <use xlink:href="#rim"/>
    <path pointer-events="none" fill="none" stroke="white" stroke-width="1.5" d="M0,-3.0v7 M-2.5,-0.5L0,-3.0L2.5,-0.5"/>
  </g>
  <g id="arrowLeft" transform="rotate(270) translate(-36 17)">
    <use xlink:href="#rim"/>
    <path pointer-events="none" fill="none" stroke="white" stroke-width="1.5" d="M0,-3.0v7 M-2.5,-0.5L0,-3.0L2.5,-0.5"/>
  </g>
  <g id="resetDef">
    <use xlink:href="#rim2" fill="#404040"><set attributeName="fill" to="#808080" begin="reset.mouseover" end="reset.mouseout"/></use>
  </g>
</defs>
<script type="application/ecmascript">
var viewWidth = 1066;
var viewHeight = 514;
var sectionId = 'dynsection-0';
</script>
<script type="application/ecmascript" xlink:href="../../svg.min.js"/>
<svg id="graph" class="graph">
<g id="viewport">
<title>size2d.h</title>
<!-- Node1 -->
<g id="Node000001" class="node">
<title>Node1</title>
<g id="a_Node000001"><a xlink:title="A two&#45;dimensional size tagged with a unit.">
<polygon fill="#999999" stroke="#666666" points="332.12,-506.25 276.38,-506.25 276.38,-487 332.12,-487 332.12,-506.25"/>
<text text-anchor="middle" x="304.25" y="-491.8" font-family="Arial" font-size="11.00">size2d.h</text>
</a>
</g>
</g>
<!-- Node2 -->
<g id="Node000002" class="node">
<title>Node2</title>
<g id="a_Node000002"><a xlink:href="../../df/db1/math_8h_source.html" target="_top" xlink:title=" ">
<polygon fill="white" stroke="#666666" points="476.75,-207.5 367.75,-207.5 367.75,-188.25 476.75,-188.25 476.75,-207.5"/>
<text text-anchor="middle" x="422.25" y="-193.05" font-family="Arial" font-size="11.00">floppy/detail/math.h</text>
</a>
</g>
</g>
<!-- Node1&#45;&gt;Node2 -->
<g id="edge1_Node000001_Node000002" class="edge">
<title>Node1&#45;&gt;Node2</title>
<g id="a_edge1_Node000001_Node000002"><a xlink:title=" ">
<path fill="none" stroke="#63b8ff" d="M332.18,-495C397.79,-491.89 556.25,-474.21 556.25,-375.88 556.25,-375.88 556.25,-375.88 556.25,-318.62 556.25,-265.61 497.21,-230.21 457.51,-212.41"/>
<polygon fill="#63b8ff" stroke="#63b8ff" points="459.1,-209.28 448.53,-208.55 456.34,-215.71 459.1,-209.28"/>
</a>
</g>
</g>
<!-- Node12 -->
<g id="Node000012" class="node">
<title>Node12</title>
<g id="a_Node000012"><a xlink:href="../../d9/db1/concepts_8h_source.html" target="_top" xlink:title=" ">
<polygon fill="white" stroke="#666666" points="241.12,-146.62 113.38,-146.62 113.38,-127.38 241.12,-127.38 241.12,-146.62"/>
<text text-anchor="middle" x="177.25" y="-132.18" font-family="Arial" font-size="11.00">floppy/detail/concepts.h</text>
</a>
</g>
</g>
<!-- Node1&#45;&gt;Node12 -->
<g id="edge21_Node000001_Node000012" class="edge">
<title>Node1&#45;&gt;Node12</title>
<g id="a_edge21_Node000001_Node000012"><a xlink:title=" ">
<path fill="none" stroke="#63b8ff" d="M280.04,-486.57C241.93,-470.56 172.25,-433.43 172.25,-375.88 172.25,-375.88 172.25,-375.88 172.25,-257.75 172.25,-222.81 174.4,-182.19 175.88,-158.37"/>
<polygon fill="#63b8ff" stroke="#63b8ff" points="179.37,-158.72 176.52,-148.52 172.38,-158.27 179.37,-158.72"/>
</a>
</g>
</g>
<!-- Node20 -->
<g id="Node000020" class="node">
<title>Node20</title>
<g id="a_Node000020"><a xlink:href="../../dd/db9/length_8h.html" target="_top" xlink:title="A one&#45;dimensional distance with associated unit of measurement.">
<polygon fill="white" stroke="#666666" points="316.5,-384.5 200,-384.5 200,-365.25 316.5,-365.25 316.5,-384.5"/>
<text text-anchor="middle" x="258.25" y="-370.05" font-family="Arial" font-size="11.00">floppy/euclid/length.h</text>
</a>
</g>
</g>
<!-- Node1&#45;&gt;Node20 -->
<g id="edge22_Node000001_Node000020" class="edge">
<title>Node1&#45;&gt;Node20</title>
<g id="a_edge22_Node000001_Node000020"><a xlink:title=" ">
<path fill="none" stroke="#63b8ff" d="M300.79,-486.62C293.4,-467.38 275.91,-421.85 265.81,-395.55"/>
<polygon fill="#63b8ff" stroke="#63b8ff" points="269.14,-394.47 262.29,-386.39 262.61,-396.98 269.14,-394.47"/>
</a>
</g>
</g>
<!-- Node29 -->
<g id="Node000029" class="node">
<title>Node29</title>
<g id="a_Node000029"><a xlink:href="../../da/d53/nt__traits2d_8h_source.html" target="_top" xlink:title=" ">
<polygon fill="white" stroke="#666666" points="420.12,-451 316.38,-451 316.38,-420.5 420.12,-420.5 420.12,-451"/>
<text text-anchor="start" x="324.38" y="-436.55" font-family="Arial" font-size="11.00">floppy/euclid/detail</text>
<text text-anchor="middle" x="368.25" y="-425.3" font-family="Arial" font-size="11.00">/nt_traits2d.h</text>
</a>
</g>
</g>
<!-- Node1&#45;&gt;Node29 -->
<g id="edge39_Node000001_Node000029" class="edge">
<title>Node1&#45;&gt;Node29</title>
<g id="a_edge39_Node000001_Node000029"><a xlink:title=" ">
<path fill="none" stroke="#63b8ff" d="M313.97,-486.68C321.95,-479.34 333.59,-468.63 344.05,-459.01"/>
<polygon fill="#63b8ff" stroke="#63b8ff" points="346.35,-461.65 351.34,-452.31 341.61,-456.5 346.35,-461.65"/>
</a>
</g>
</g>
<!-- Node3 -->
<g id="Node000003" class="node">
<title>Node3</title>
<g id="a_Node000003"><a xlink:title=" ">
<polygon fill="#e0e0e0" stroke="#999999" points="514.88,-146.62 469.62,-146.62 469.62,-127.38 514.88,-127.38 514.88,-146.62"/>
<text text-anchor="middle" x="492.25" y="-132.18" font-family="Arial" font-size="11.00">cmath</text>
</a>
</g>
</g>
<!-- Node2&#45;&gt;Node3 -->
<g id="edge2_Node000002_Node000003" class="edge">
<title>Node2&#45;&gt;Node3</title>
<g id="a_edge2_Node000002_Node000003"><a xlink:title=" ">
<path fill="none" stroke="#63b8ff" d="M432.88,-187.93C443.47,-179.03 459.96,-165.16 472.88,-154.29"/>
<polygon fill="#63b8ff" stroke="#63b8ff" points="474.96,-157.12 480.36,-148 470.45,-151.76 474.96,-157.12"/>
</a>
</g>
</g>
<!-- Node4 -->
<g id="Node000004" class="node">
<title>Node4</title>
<g id="a_Node000004"><a xlink:title=" ">
<polygon fill="#e0e0e0" stroke="#999999" points="299.25,-146.62 259.25,-146.62 259.25,-127.38 299.25,-127.38 299.25,-146.62"/>
<text text-anchor="middle" x="279.25" y="-132.18" font-family="Arial" font-size="11.00">limits</text>
</a>
</g>
</g>
<!-- Node2&#45;&gt;Node4 -->
<g id="edge3_Node000002_Node000004" class="edge">
<title>Node2&#45;&gt;Node4</title>
<g id="a_edge3_Node000002_Node000004"><a xlink:title=" ">
<path fill="none" stroke="#63b8ff" d="M397.54,-187.89C374.29,-179.26 338.59,-165.62 308.25,-152.25 307.9,-152.1 307.56,-151.94 307.21,-151.79"/>
<polygon fill="#63b8ff" stroke="#63b8ff" points="308.84,-148.69 298.3,-147.62 305.88,-155.03 308.84,-148.69"/>
</a>
</g>
</g>
<!-- Node5 -->
<g id="Node000005" class="node">
<title>Node5</title>
<g id="a_Node000005"><a xlink:title=" ">
<polygon fill="#e0e0e0" stroke="#999999" points="375.25,-146.62 317.25,-146.62 317.25,-127.38 375.25,-127.38 375.25,-146.62"/>
<text text-anchor="middle" x="346.25" y="-132.18" font-family="Arial" font-size="11.00">numbers</text>
</a>
</g>
</g>
<!-- Node2&#45;&gt;Node5 -->
<g id="edge4_Node000002_Node000005" class="edge">
<title>Node2&#45;&gt;Node5</title>
<g id="a_edge4_Node000002_Node000005"><a xlink:title=" ">
<path fill="none" stroke="#63b8ff" d="M410.71,-187.93C399.1,-178.94 380.96,-164.89 366.87,-153.98"/>
<polygon fill="#63b8ff" stroke="#63b8ff" points="369.15,-151.31 359.1,-147.95 364.86,-156.84 369.15,-151.31"/>
</a>
</g>
</g>
<!-- Node6 -->
<g id="Node000006" class="node">
<title>Node6</title>
<g id="a_Node000006"><a xlink:title=" ">
<polygon fill="#e0e0e0" stroke="#999999" points="451.25,-146.62 393.25,-146.62 393.25,-127.38 451.25,-127.38 451.25,-146.62"/>
<text text-anchor="middle" x="422.25" y="-132.18" font-family="Arial" font-size="11.00">compare</text>
</a>
</g>
</g>
<!-- Node2&#45;&gt;Node6 -->
<g id="edge5_Node000002_Node000006" class="edge">
<title>Node2&#45;&gt;Node6</title>
<g id="a_edge5_Node000002_Node000006"><a xlink:title=" ">
<path fill="none" stroke="#63b8ff" d="M422.25,-187.93C422.25,-180.15 422.25,-168.58 422.25,-158.53"/>
<polygon fill="#63b8ff" stroke="#63b8ff" points="425.75,-158.54 422.25,-148.54 418.75,-158.54 425.75,-158.54"/>
</a>
</g>
</g>
<!-- Node7 -->
<g id="Node000007" class="node">
<title>Node7</title>
<g id="a_Node000007"><a xlink:href="../../db/db5/export_8h_source.html" target="_top" xlink:title=" ">
<polygon fill="white" stroke="#666666" points="647.75,-146.62 532.75,-146.62 532.75,-127.38 647.75,-127.38 647.75,-146.62"/>
<text text-anchor="middle" x="590.25" y="-132.18" font-family="Arial" font-size="11.00">floppy/detail/export.h</text>
</a>
</g>
</g>
<!-- Node2&#45;&gt;Node7 -->
<g id="edge6_Node000002_Node000007" class="edge">
<title>Node2&#45;&gt;Node7</title>
<g id="a_edge6_Node000002_Node000007"><a xlink:title=" ">
<path fill="none" stroke="#63b8ff" d="M448.13,-187.8C476.37,-177.91 521.8,-161.99 553.68,-150.82"/>
<polygon fill="#63b8ff" stroke="#63b8ff" points="554.63,-154.19 562.91,-147.58 552.32,-147.59 554.63,-154.19"/>
</a>
</g>
</g>
<!-- Node2&#45;&gt;Node12 -->
<g id="edge11_Node000002_Node000012" class="edge">
<title>Node2&#45;&gt;Node12</title>
<g id="a_edge11_Node000002_Node000012"><a xlink:title=" ">
<path fill="none" stroke="#63b8ff" d="M384.51,-187.8C341.97,-177.58 272.7,-160.94 226.08,-149.73"/>
<polygon fill="#63b8ff" stroke="#63b8ff" points="227.05,-146.37 216.51,-147.43 225.41,-153.17 227.05,-146.37"/>
</a>
</g>
</g>
<!-- Node8 -->
<g id="Node000008" class="node">
<title>Node8</title>
<g id="a_Node000008"><a xlink:title=" ">
<polygon fill="#e0e0e0" stroke="#999999" points="564.38,-80.12 522.12,-80.12 522.12,-60.88 564.38,-60.88 564.38,-80.12"/>
<text text-anchor="middle" x="543.25" y="-65.67" font-family="Arial" font-size="11.00">string</text>
</a>
</g>
</g>
<!-- Node7&#45;&gt;Node8 -->
<g id="edge7_Node000007_Node000008" class="edge">
<title>Node7&#45;&gt;Node8</title>
<g id="a_edge7_Node000007_Node000008"><a xlink:title=" ">
<path fill="none" stroke="#63b8ff" d="M583.71,-127.03C576.7,-117.4 565.37,-101.85 556.47,-89.65"/>
<polygon fill="#63b8ff" stroke="#63b8ff" points="559.34,-87.64 550.62,-81.62 553.68,-91.76 559.34,-87.64"/>
</a>
</g>
</g>
<!-- Node9 -->
<g id="Node000009" class="node">
<title>Node9</title>
<g id="a_Node000009"><a xlink:title=" ">
<polygon fill="#e0e0e0" stroke="#999999" points="796.25,-80.12 726.25,-80.12 726.25,-60.88 796.25,-60.88 796.25,-80.12"/>
<text text-anchor="middle" x="761.25" y="-65.67" font-family="Arial" font-size="11.00">string_view</text>
</a>
</g>
</g>
<!-- Node7&#45;&gt;Node9 -->
<g id="edge8_Node000007_Node000009" class="edge">
<title>Node7&#45;&gt;Node9</title>
<g id="a_edge8_Node000007_Node000009"><a xlink:title=" ">
<path fill="none" stroke="#63b8ff" d="M614.39,-126.9C643.67,-115.85 693.24,-97.15 726.6,-84.57"/>
<polygon fill="#63b8ff" stroke="#63b8ff" points="727.7,-87.9 735.82,-81.09 725.23,-81.35 727.7,-87.9"/>
</a>
</g>
</g>
<!-- Node10 -->
<g id="Node000010" class="node">
<title>Node10</title>
<g id="a_Node000010"><a xlink:title=" ">
<polygon fill="#e0e0e0" stroke="#999999" points="697.88,-80.12 640.62,-80.12 640.62,-60.88 697.88,-60.88 697.88,-80.12"/>
<text text-anchor="middle" x="669.25" y="-65.67" font-family="Arial" font-size="11.00">iostream</text>
</a>
</g>
</g>
<!-- Node7&#45;&gt;Node10 -->
<g id="edge9_Node000007_Node000010" class="edge">
<title>Node7&#45;&gt;Node10</title>
<g id="a_edge9_Node000007_Node000010"><a xlink:title=" ">
<path fill="none" stroke="#63b8ff" d="M601.23,-127.03C613.66,-116.88 634.16,-100.15 649.41,-87.7"/>
<polygon fill="#63b8ff" stroke="#63b8ff" points="651.4,-90.59 656.93,-81.56 646.97,-85.17 651.4,-90.59"/>
</a>
</g>
</g>
<!-- Node11 -->
<g id="Node000011" class="node">
<title>Node11</title>
<g id="a_Node000011"><a xlink:title=" ">
<polygon fill="#e0e0e0" stroke="#999999" points="629.12,-19.25 555.38,-19.25 555.38,0 629.12,0 629.12,-19.25"/>
<text text-anchor="middle" x="592.25" y="-4.8" font-family="Arial" font-size="11.00">fmt/format.h</text>
</a>
</g>
</g>
<!-- Node7&#45;&gt;Node11 -->
<g id="edge10_Node000007_Node000011" class="edge">
<title>Node7&#45;&gt;Node11</title>
<g id="a_edge10_Node000007_Node000011"><a xlink:title=" ">
<path fill="none" stroke="#63b8ff" d="M590.39,-126.98C590.71,-107.01 591.48,-58.64 591.93,-30.96"/>
<polygon fill="#63b8ff" stroke="#63b8ff" points="595.42,-31.13 592.08,-21.07 588.42,-31.02 595.42,-31.13"/>
</a>
</g>
</g>
<!-- Node13 -->
<g id="Node000013" class="node">
<title>Node13</title>
<g id="a_Node000013"><a xlink:title=" ">
<polygon fill="#e0e0e0" stroke="#999999" points="363.62,-80.12 304.88,-80.12 304.88,-60.88 363.62,-60.88 363.62,-80.12"/>
<text text-anchor="middle" x="334.25" y="-65.67" font-family="Arial" font-size="11.00">concepts</text>
</a>
</g>
</g>
<!-- Node12&#45;&gt;Node13 -->
<g id="edge12_Node000012_Node000013" class="edge">
<title>Node12&#45;&gt;Node13</title>
<g id="a_edge12_Node000012_Node000013"><a xlink:title=" ">
<path fill="none" stroke="#63b8ff" d="M199.41,-126.9C226.06,-115.95 271.02,-97.48 301.63,-84.9"/>
<polygon fill="#63b8ff" stroke="#63b8ff" points="302.88,-88.17 310.8,-81.13 300.22,-81.7 302.88,-88.17"/>
</a>
</g>
</g>
<!-- Node14 -->
<g id="Node000014" class="node">
<title>Node14</title>
<g id="a_Node000014"><a xlink:href="../../df/d63/type__traits_8h_source.html" target="_top" xlink:title=" ">
<polygon fill="white" stroke="#666666" points="286.38,-85.75 190.12,-85.75 190.12,-55.25 286.38,-55.25 286.38,-85.75"/>
<text text-anchor="start" x="198.12" y="-71.3" font-family="Arial" font-size="11.00">floppy/detail/type</text>
<text text-anchor="middle" x="238.25" y="-60.05" font-family="Arial" font-size="11.00">_traits.h</text>
</a>
</g>
</g>
<!-- Node12&#45;&gt;Node14 -->
<g id="edge13_Node000012_Node000014" class="edge">
<title>Node12&#45;&gt;Node14</title>
<g id="a_edge13_Node000012_Node000014"><a xlink:title=" ">
<path fill="none" stroke="#63b8ff" d="M185.73,-127.03C193.77,-118.54 206.17,-105.42 216.9,-94.07"/>
<polygon fill="#63b8ff" stroke="#63b8ff" points="219.32,-96.61 223.64,-86.94 214.23,-91.8 219.32,-96.61"/>
</a>
</g>
</g>
<!-- Node16 -->
<g id="Node000016" class="node">
<title>Node16</title>
<g id="a_Node000016"><a xlink:href="../../d9/d49/types_8h_source.html" target="_top" xlink:title=" ">
<polygon fill="white" stroke="#666666" points="172.5,-80.12 62,-80.12 62,-60.88 172.5,-60.88 172.5,-80.12"/>
<text text-anchor="middle" x="117.25" y="-65.67" font-family="Arial" font-size="11.00">floppy/detail/types.h</text>
</a>
</g>
</g>
<!-- Node12&#45;&gt;Node16 -->
<g id="edge15_Node000012_Node000016" class="edge">
<title>Node12&#45;&gt;Node16</title>
<g id="a_edge15_Node000012_Node000016"><a xlink:title=" ">
<path fill="none" stroke="#63b8ff" d="M168.91,-127.03C159.68,-117.12 144.61,-100.91 133.12,-88.56"/>
<polygon fill="#63b8ff" stroke="#63b8ff" points="135.93,-86.44 126.55,-81.5 130.8,-91.21 135.93,-86.44"/>
</a>
</g>
</g>
<!-- Node15 -->
<g id="Node000015" class="node">
<title>Node15</title>
<g id="a_Node000015"><a xlink:title=" ">
<polygon fill="#e0e0e0" stroke="#999999" points="271,-19.25 205.5,-19.25 205.5,0 271,0 271,-19.25"/>
<text text-anchor="middle" x="238.25" y="-4.8" font-family="Arial" font-size="11.00">type_traits</text>
</a>
</g>
</g>
<!-- Node14&#45;&gt;Node15 -->
<g id="edge14_Node000014_Node000015" class="edge">
<title>Node14&#45;&gt;Node15</title>
<g id="a_edge14_Node000014_Node000015"><a xlink:title=" ">
<path fill="none" stroke="#63b8ff" d="M238.25,-54.95C238.25,-47.71 238.25,-38.84 238.25,-30.94"/>
<polygon fill="#63b8ff" stroke="#63b8ff" points="241.75,-31.21 238.25,-21.21 234.75,-31.21 241.75,-31.21"/>
</a>
</g>
</g>
<!-- Node16&#45;&gt;Node11 -->
<g id="edge20_Node000016_Node000011" class="edge">
<title>Node16&#45;&gt;Node11</title>
<g id="a_edge20_Node000016_Node000011"><a xlink:title=" ">
<path fill="none" stroke="#63b8ff" d="M154.68,-60.44C163.37,-58.54 172.6,-56.68 181.25,-55.25 311.42,-33.76 466.55,-20.12 543.69,-14.14"/>
<polygon fill="#63b8ff" stroke="#63b8ff" points="543.73,-17.65 553.43,-13.4 543.19,-10.67 543.73,-17.65"/>
</a>
</g>
</g>
<!-- Node16&#45;&gt;Node15 -->
<g id="edge19_Node000016_Node000015" class="edge">
<title>Node16&#45;&gt;Node15</title>
<g id="a_edge19_Node000016_Node000015"><a xlink:title=" ">
<path fill="none" stroke="#63b8ff" d="M135.89,-60.43C155.58,-50.85 186.86,-35.63 209.67,-24.53"/>
<polygon fill="#63b8ff" stroke="#63b8ff" points="210.96,-27.79 218.43,-20.27 207.9,-21.5 210.96,-27.79"/>
</a>
</g>
</g>
<!-- Node17 -->
<g id="Node000017" class="node">
<title>Node17</title>
<g id="a_Node000017"><a xlink:title=" ">
<polygon fill="#e0e0e0" stroke="#999999" points="50.5,-19.25 0,-19.25 0,0 50.5,0 50.5,-19.25"/>
<text text-anchor="middle" x="25.25" y="-4.8" font-family="Arial" font-size="11.00">cstddef</text>
</a>
</g>
</g>
<!-- Node16&#45;&gt;Node17 -->
<g id="edge16_Node000016_Node000017" class="edge">
<title>Node16&#45;&gt;Node17</title>
<g id="a_edge16_Node000016_Node000017"><a xlink:title=" ">
<path fill="none" stroke="#63b8ff" d="M103.28,-60.56C88.82,-51.31 65.99,-36.7 48.75,-25.67"/>
<polygon fill="#63b8ff" stroke="#63b8ff" points="50.94,-22.91 40.63,-20.47 47.17,-28.81 50.94,-22.91"/>
</a>
</g>
</g>
<!-- Node18 -->
<g id="Node000018" class="node">
<title>Node18</title>
<g id="a_Node000018"><a xlink:title=" ">
<polygon fill="#e0e0e0" stroke="#999999" points="115.62,-19.25 68.88,-19.25 68.88,0 115.62,0 115.62,-19.25"/>
<text text-anchor="middle" x="92.25" y="-4.8" font-family="Arial" font-size="11.00">cstdint</text>
</a>
</g>
</g>
<!-- Node16&#45;&gt;Node18 -->
<g id="edge17_Node000016_Node000018" class="edge">
<title>Node16&#45;&gt;Node18</title>
<g id="a_edge17_Node000016_Node000018"><a xlink:title=" ">
<path fill="none" stroke="#63b8ff" d="M113.45,-60.56C110.04,-52.52 104.91,-40.43 100.54,-30.16"/>
<polygon fill="#63b8ff" stroke="#63b8ff" points="103.8,-28.88 96.67,-21.04 97.36,-31.62 103.8,-28.88"/>
</a>
</g>
</g>
<!-- Node19 -->
<g id="Node000019" class="node">
<title>Node19</title>
<g id="a_Node000019"><a xlink:title=" ">
<polygon fill="#e0e0e0" stroke="#999999" points="187,-19.25 133.5,-19.25 133.5,0 187,0 187,-19.25"/>
<text text-anchor="middle" x="160.25" y="-4.8" font-family="Arial" font-size="11.00">optional</text>
</a>
</g>
</g>
<!-- Node16&#45;&gt;Node19 -->
<g id="edge18_Node000016_Node000019" class="edge">
<title>Node16&#45;&gt;Node19</title>
<g id="a_edge18_Node000016_Node000019"><a xlink:title=" ">
<path fill="none" stroke="#63b8ff" d="M123.78,-60.56C129.91,-52.17 139.25,-39.38 146.94,-28.84"/>
<polygon fill="#63b8ff" stroke="#63b8ff" points="149.69,-31.01 152.77,-20.87 144.04,-26.88 149.69,-31.01"/>
</a>
</g>
</g>
<!-- Node21 -->
<g id="Node000021" class="node">
<title>Node21</title>
<g id="a_Node000021"><a xlink:href="../../d8/d0c/scale_8h.html" target="_top" xlink:title="A scaling factor between two different units of measurement.">
<polygon fill="white" stroke="#666666" points="484.25,-329.25 372.25,-329.25 372.25,-310 484.25,-310 484.25,-329.25"/>
<text text-anchor="middle" x="428.25" y="-314.8" font-family="Arial" font-size="11.00">floppy/euclid/scale.h</text>
</a>
</g>
</g>
<!-- Node20&#45;&gt;Node21 -->
<g id="edge23_Node000020_Node000021" class="edge">
<title>Node20&#45;&gt;Node21</title>
<g id="a_edge23_Node000020_Node000021"><a xlink:title=" ">
<path fill="none" stroke="#63b8ff" d="M287.09,-364.84C314.93,-356.12 357.32,-342.84 388.39,-333.11"/>
<polygon fill="#63b8ff" stroke="#63b8ff" points="389.33,-336.48 397.83,-330.15 387.24,-329.8 389.33,-336.48"/>
</a>
</g>
</g>
<!-- Node28 -->
<g id="Node000028" class="node">
<title>Node28</title>
<g id="a_Node000028"><a xlink:href="../../de/de1/nt__traits_8h_source.html" target="_top" xlink:title=" ">
<polygon fill="white" stroke="#666666" points="396.12,-274 292.38,-274 292.38,-243.5 396.12,-243.5 396.12,-274"/>
<text text-anchor="start" x="300.38" y="-259.55" font-family="Arial" font-size="11.00">floppy/euclid/detail</text>
<text text-anchor="middle" x="344.25" y="-248.3" font-family="Arial" font-size="11.00">/nt_traits.h</text>
</a>
</g>
</g>
<!-- Node20&#45;&gt;Node28 -->
<g id="edge38_Node000020_Node000028" class="edge">
<title>Node20&#45;&gt;Node28</title>
<g id="a_edge38_Node000020_Node000028"><a xlink:title=" ">
<path fill="none" stroke="#63b8ff" d="M265,-364.92C278.13,-347.49 307.5,-308.52 326.56,-283.22"/>
<polygon fill="#63b8ff" stroke="#63b8ff" points="329.18,-285.57 332.4,-275.48 323.58,-281.36 329.18,-285.57"/>
</a>
</g>
</g>
<!-- Node21&#45;&gt;Node2 -->
<g id="edge24_Node000021_Node000002" class="edge">
<title>Node21&#45;&gt;Node2</title>
<g id="a_edge24_Node000021_Node000002"><a xlink:title=" ">
<path fill="none" stroke="#63b8ff" d="M427.8,-309.62C426.84,-290.55 424.59,-245.66 423.27,-219.26"/>
<polygon fill="#63b8ff" stroke="#63b8ff" points="426.78,-219.3 422.78,-209.49 419.79,-219.65 426.78,-219.3"/>
</a>
</g>
</g>
<!-- Node22 -->
<g id="Node000022" class="node">
<title>Node22</title>
<g id="a_Node000022"><a xlink:href="../../dd/dff/traits_8h_source.html" target="_top" xlink:title=" ">
<polygon fill="white" stroke="#666666" points="816.12,-207.5 736.38,-207.5 736.38,-188.25 816.12,-188.25 816.12,-207.5"/>
<text text-anchor="middle" x="776.25" y="-193.05" font-family="Arial" font-size="11.00">floppy/traits.h</text>
</a>
</g>
</g>
<!-- Node21&#45;&gt;Node22 -->
<g id="edge25_Node000021_Node000022" class="edge">
<title>Node21&#45;&gt;Node22</title>
<g id="a_edge25_Node000021_Node000022"><a xlink:title=" ">
<path fill="none" stroke="#63b8ff" d="M454.69,-309.53C516.12,-288.39 668.6,-235.92 739.24,-211.61"/>
<polygon fill="#63b8ff" stroke="#63b8ff" points="740.1,-215.02 748.42,-208.45 737.82,-208.4 740.1,-215.02"/>
</a>
</g>
</g>
<!-- Node21&#45;&gt;Node28 -->
<g id="edge35_Node000021_Node000028" class="edge">
<title>Node21&#45;&gt;Node28</title>
<g id="a_edge35_Node000021_Node000028"><a xlink:title=" ">
<path fill="none" stroke="#63b8ff" d="M415.49,-309.68C404.6,-302.05 388.51,-290.77 374.37,-280.86"/>
<polygon fill="#63b8ff" stroke="#63b8ff" points="376.42,-278.02 366.22,-275.15 372.4,-283.76 376.42,-278.02"/>
</a>
</g>
</g>
<!-- Node22&#45;&gt;Node7 -->
<g id="edge29_Node000022_Node000007" class="edge">
<title>Node22&#45;&gt;Node7</title>
<g id="a_edge29_Node000022_Node000007"><a xlink:title=" ">
<path fill="none" stroke="#63b8ff" d="M747.6,-187.8C716.06,-177.82 665.15,-161.71 629.82,-150.52"/>
<polygon fill="#63b8ff" stroke="#63b8ff" points="630.97,-147.22 620.38,-147.54 628.86,-153.89 630.97,-147.22"/>
</a>
</g>
</g>
<!-- Node22&#45;&gt;Node10 -->
<g id="edge27_Node000022_Node000010" class="edge">
<title>Node22&#45;&gt;Node10</title>
<g id="a_edge27_Node000022_Node000010"><a xlink:title=" ">
<path fill="none" stroke="#63b8ff" d="M784.7,-187.86C797.55,-173.04 819.02,-143.01 804.25,-121.75 798.5,-113.48 746.53,-95.72 708.78,-83.69"/>
<polygon fill="#63b8ff" stroke="#63b8ff" points="710.11,-80.44 699.52,-80.76 708,-87.11 710.11,-80.44"/>
</a>
</g>
</g>
<!-- Node23 -->
<g id="Node000023" class="node">
<title>Node23</title>
<g id="a_Node000023"><a xlink:title=" ">
<polygon fill="#e0e0e0" stroke="#999999" points="1057.75,-146.62 1002.75,-146.62 1002.75,-127.38 1057.75,-127.38 1057.75,-146.62"/>
<text text-anchor="middle" x="1030.25" y="-132.18" font-family="Arial" font-size="11.00">memory</text>
</a>
</g>
</g>
<!-- Node22&#45;&gt;Node23 -->
<g id="edge26_Node000022_Node000023" class="edge">
<title>Node22&#45;&gt;Node23</title>
<g id="a_edge26_Node000022_Node000023"><a xlink:title=" ">
<path fill="none" stroke="#63b8ff" d="M816.55,-190.8C860.7,-183.64 933.34,-170.39 994.25,-152.25 995.63,-151.84 997.03,-151.4 998.43,-150.94"/>
<polygon fill="#63b8ff" stroke="#63b8ff" points="999.51,-154.27 1007.72,-147.58 997.13,-147.68 999.51,-154.27"/>
</a>
</g>
</g>
<!-- Node24 -->
<g id="Node000024" class="node">
<title>Node24</title>
<g id="a_Node000024"><a xlink:title=" ">
<polygon fill="#e0e0e0" stroke="#999999" points="794.88,-152.25 665.62,-152.25 665.62,-121.75 794.88,-121.75 794.88,-152.25"/>
<text text-anchor="start" x="673.62" y="-137.8" font-family="Arial" font-size="11.00">experimental/propagate</text>
<text text-anchor="middle" x="730.25" y="-126.55" font-family="Arial" font-size="11.00">_const</text>
</a>
</g>
</g>
<!-- Node22&#45;&gt;Node24 -->
<g id="edge28_Node000022_Node000024" class="edge">
<title>Node22&#45;&gt;Node24</title>
<g id="a_edge28_Node000022_Node000024"><a xlink:title=" ">
<path fill="none" stroke="#63b8ff" d="M769.26,-187.93C763.76,-180.89 755.83,-170.73 748.55,-161.42"/>
<polygon fill="#63b8ff" stroke="#63b8ff" points="751.45,-159.45 742.54,-153.72 745.93,-163.76 751.45,-159.45"/>
</a>
</g>
</g>
<!-- Node25 -->
<g id="Node000025" class="node">
<title>Node25</title>
<g id="a_Node000025"><a xlink:href="../../d6/d45/formatters_8h_source.html" target="_top" xlink:title=" ">
<polygon fill="white" stroke="#666666" points="985.12,-146.62 851.38,-146.62 851.38,-127.38 985.12,-127.38 985.12,-146.62"/>
<text text-anchor="middle" x="918.25" y="-132.18" font-family="Arial" font-size="11.00">floppy/detail/formatters.h</text>
</a>
</g>
</g>
<!-- Node22&#45;&gt;Node25 -->
<g id="edge30_Node000022_Node000025" class="edge">
<title>Node22&#45;&gt;Node25</title>
<g id="a_edge30_Node000022_Node000025"><a xlink:title=" ">
<path fill="none" stroke="#63b8ff" d="M798.13,-187.8C821.65,-178.05 859.28,-162.45 886.15,-151.31"/>
<polygon fill="#63b8ff" stroke="#63b8ff" points="887.29,-154.63 895.18,-147.56 884.61,-148.16 887.29,-154.63"/>
</a>
</g>
</g>
<!-- Node25&#45;&gt;Node9 -->
<g id="edge31_Node000025_Node000009" class="edge">
<title>Node25&#45;&gt;Node9</title>
<g id="a_edge31_Node000025_Node000009"><a xlink:title=" ">
<path fill="none" stroke="#63b8ff" d="M896.09,-126.9C869.44,-115.95 824.48,-97.48 793.87,-84.9"/>
<polygon fill="#63b8ff" stroke="#63b8ff" points="795.28,-81.7 784.7,-81.13 792.62,-88.17 795.28,-81.7"/>
</a>
</g>
</g>
<!-- Node25&#45;&gt;Node11 -->
<g id="edge34_Node000025_Node000011" class="edge">
<title>Node25&#45;&gt;Node11</title>
<g id="a_edge34_Node000025_Node000011"><a xlink:title=" ">
<path fill="none" stroke="#63b8ff" d="M926.77,-126.9C940.93,-110.67 965.97,-76.47 947.25,-55.25 927.3,-32.64 733.34,-18.65 640.85,-13.22"/>
<polygon fill="#63b8ff" stroke="#63b8ff" points="641.25,-9.74 631.07,-12.65 640.85,-16.72 641.25,-9.74"/>
</a>
</g>
</g>
<!-- Node26 -->
<g id="Node000026" class="node">
<title>Node26</title>
<g id="a_Node000026"><a xlink:title=" ">
<polygon fill="#e0e0e0" stroke="#999999" points="873.38,-80.12 819.12,-80.12 819.12,-60.88 873.38,-60.88 873.38,-80.12"/>
<text text-anchor="middle" x="846.25" y="-65.67" font-family="Arial" font-size="11.00">sstream</text>
</a>
</g>
</g>
<!-- Node25&#45;&gt;Node26 -->
<g id="edge32_Node000025_Node000026" class="edge">
<title>Node25&#45;&gt;Node26</title>
<g id="a_edge32_Node000025_Node000026"><a xlink:title=" ">
<path fill="none" stroke="#63b8ff" d="M908.24,-127.03C896.95,-116.92 878.38,-100.28 864.5,-87.85"/>
<polygon fill="#63b8ff" stroke="#63b8ff" points="867.09,-85.47 857.3,-81.4 862.42,-90.68 867.09,-85.47"/>
</a>
</g>
</g>
<!-- Node27 -->
<g id="Node000027" class="node">
<title>Node27</title>
<g id="a_Node000027"><a xlink:title=" ">
<polygon fill="#e0e0e0" stroke="#999999" points="938.62,-80.12 891.88,-80.12 891.88,-60.88 938.62,-60.88 938.62,-80.12"/>
<text text-anchor="middle" x="915.25" y="-65.67" font-family="Arial" font-size="11.00">iosfwd</text>
</a>
</g>
</g>
<!-- Node25&#45;&gt;Node27 -->
<g id="edge33_Node000025_Node000027" class="edge">
<title>Node25&#45;&gt;Node27</title>
<g id="a_edge33_Node000025_Node000027"><a xlink:title=" ">
<path fill="none" stroke="#63b8ff" d="M917.83,-127.03C917.41,-117.98 916.75,-103.7 916.2,-91.88"/>
<polygon fill="#63b8ff" stroke="#63b8ff" points="919.69,-91.73 915.73,-81.9 912.7,-92.06 919.69,-91.73"/>
</a>
</g>
</g>
<!-- Node28&#45;&gt;Node2 -->
<g id="edge36_Node000028_Node000002" class="edge">
<title>Node28&#45;&gt;Node2</title>
<g id="a_edge36_Node000028_Node000002"><a xlink:title=" ">
<path fill="none" stroke="#63b8ff" d="M363.53,-243.2C374.95,-234.58 389.43,-223.65 401.15,-214.8"/>
<polygon fill="#63b8ff" stroke="#63b8ff" points="403.14,-217.68 409.02,-208.86 398.93,-212.09 403.14,-217.68"/>
</a>
</g>
</g>
<!-- Node28&#45;&gt;Node12 -->
<g id="edge37_Node000028_Node000012" class="edge">
<title>Node28&#45;&gt;Node12</title>
<g id="a_edge37_Node000028_Node000012"><a xlink:title=" ">
<path fill="none" stroke="#63b8ff" d="M323.77,-243.07C292.04,-220.31 231.28,-176.74 198.87,-153.5"/>
<polygon fill="#63b8ff" stroke="#63b8ff" points="201.18,-150.85 191.02,-147.87 197.1,-156.54 201.18,-150.85"/>
</a>
</g>
</g>
<!-- Node29&#45;&gt;Node20 -->
<g id="edge43_Node000029_Node000020" class="edge">
<title>Node29&#45;&gt;Node20</title>
<g id="a_edge43_Node000029_Node000020"><a xlink:title=" ">
<path fill="none" stroke="#63b8ff" d="M340.78,-420.05C323.7,-410.91 301.86,-399.22 284.94,-390.16"/>
<polygon fill="#63b8ff" stroke="#63b8ff" points="286.92,-387.25 276.45,-385.62 283.62,-393.42 286.92,-387.25"/>
</a>
</g>
</g>
<!-- Node29&#45;&gt;Node28 -->
<g id="edge44_Node000029_Node000028" class="edge">
<title>Node29&#45;&gt;Node28</title>
<g id="a_edge44_Node000029_Node000028"><a xlink:title=" ">
<path fill="none" stroke="#63b8ff" d="M366.25,-420.13C362.18,-390.46 352.9,-322.84 347.79,-285.58"/>
<polygon fill="#63b8ff" stroke="#63b8ff" points="351.26,-285.14 346.44,-275.7 344.33,-286.09 351.26,-285.14"/>
</a>
</g>
</g>
<!-- Node30 -->
<g id="Node000030" class="node">
<title>Node30</title>
<g id="a_Node000030"><a xlink:title=" ">
<polygon fill="#e0e0e0" stroke="#999999" points="470.62,-384.5 429.88,-384.5 429.88,-365.25 470.62,-365.25 470.62,-384.5"/>
<text text-anchor="middle" x="450.25" y="-370.05" font-family="Arial" font-size="11.00">array</text>
</a>
</g>
</g>
<!-- Node29&#45;&gt;Node30 -->
<g id="edge40_Node000029_Node000030" class="edge">
<title>Node29&#45;&gt;Node30</title>
<g id="a_edge40_Node000029_Node000030"><a xlink:title=" ">
<path fill="none" stroke="#63b8ff" d="M388.52,-420.2C400.64,-411.49 416.05,-400.43 428.44,-391.53"/>
<polygon fill="#63b8ff" stroke="#63b8ff" points="430.3,-394.51 436.38,-385.83 426.21,-388.82 430.3,-394.51"/>
</a>
</g>
</g>
<!-- Node31 -->
<g id="Node000031" class="node">
<title>Node31</title>
<g id="a_Node000031"><a xlink:title=" ">
<polygon fill="#e0e0e0" stroke="#999999" points="527.88,-384.5 488.62,-384.5 488.62,-365.25 527.88,-365.25 527.88,-384.5"/>
<text text-anchor="middle" x="508.25" y="-370.05" font-family="Arial" font-size="11.00">tuple</text>
</a>
</g>
</g>
<!-- Node29&#45;&gt;Node31 -->
<g id="edge41_Node000029_Node000031" class="edge">
<title>Node29&#45;&gt;Node31</title>
<g id="a_edge41_Node000029_Node000031"><a xlink:title=" ">
<path fill="none" stroke="#63b8ff" d="M403.22,-420.05C426.22,-410.37 456.02,-397.84 478,-388.6"/>
<polygon fill="#63b8ff" stroke="#63b8ff" points="479.15,-391.91 487.01,-384.81 476.43,-385.46 479.15,-391.91"/>
</a>
</g>
</g>
<!-- Node32 -->
<g id="Node000032" class="node">
<title>Node32</title>
<g id="a_Node000032"><a xlink:title=" ">
<polygon fill="#e0e0e0" stroke="#999999" points="412.25,-384.5 372.25,-384.5 372.25,-365.25 412.25,-365.25 412.25,-384.5"/>
<text text-anchor="middle" x="392.25" y="-370.05" font-family="Arial" font-size="11.00">utility</text>
</a>
</g>
</g>
<!-- Node29&#45;&gt;Node32 -->
<g id="edge42_Node000029_Node000032" class="edge">
<title>Node29&#45;&gt;Node32</title>
<g id="a_edge42_Node000029_Node000032"><a xlink:title=" ">
<path fill="none" stroke="#63b8ff" d="M374.18,-420.2C377.24,-412.7 381.01,-403.45 384.31,-395.35"/>
<polygon fill="#63b8ff" stroke="#63b8ff" points="387.44,-396.93 387.98,-386.35 380.96,-394.29 387.44,-396.93"/>
</a>
</g>
</g>
</g>
</svg>

<g id="navigator" transform="translate(0 0)" fill="#404254">
  <rect fill="#f2f5e9" fill-opacity="0.5" stroke="#606060" stroke-width=".5" x="0" y="0" width="60" height="60"/>
  <use id="zoomplus" xlink:href="#zoomPlus" x="17" y="9" onmousedown="handleZoom(evt,'in')"/>
  <use id="zoomminus" xlink:href="#zoomMin" x="42" y="9" onmousedown="handleZoom(evt,'out')"/>
  <use id="reset" xlink:href="#resetDef" x="30" y="36" onmousedown="handleReset()"/>
   <use id="arrowup" xlink:href="#arrowUp" x="0" y="0" onmousedown="handlePan(0,-1)"/>
  <use id="arrowright" xlink:href="#arrowRight" x="0" y="0" onmousedown="handlePan(1,0)"/>
  <use id="arrowdown" xlink:href="#arrowDown" x="0" y="0" onmousedown="handlePan(0,1)"/>
  <use id="arrowleft" xlink:href="#arrowLeft" x="0" y="0" onmousedown="handlePan(-1,0)"/>
</g>
<svg viewBox="0 0 15 15" width="100%" height="30px" preserveAspectRatio="xMaxYMin meet">
 <g id="arrow_out" transform="scale(0.3 0.3)">
  <a xlink:href="size2d_8h__incl_org.svg" target="_base">
   <rect id="button" ry="5" rx="5" y="6" x="6" height="38" width="38"
        fill="#f2f5e9" fill-opacity="0.5" stroke="#606060" stroke-width="1.0"/>
   <path id="arrow"
     d="M 11.500037,31.436501 C 11.940474,20.09759 22.043105,11.32322 32.158766,21.979434 L 37.068811,17.246167 C 37.068811,17.246167 37.088388,32 37.088388,32 L 22.160133,31.978069 C 22.160133,31.978069 26.997745,27.140456 26.997745,27.140456 C 18.528582,18.264221 13.291696,25.230495 11.500037,31.436501 z"
     style="fill:#404040;"/>
  </a>
 </g>
</svg>

<style type='text/css'>
<![CDATA[
[data-mouse-over-selected='false'] { opacity: 0.7; }
[data-mouse-over-selected='true']  { opacity: 1.0; }
]]>
</style>
<script type="application/ecmascript"><![CDATA[
document.addEventListener('DOMContentLoaded', (event) => {
  highlightEdges();
  highlightAdjacentNodes();
});
]]></script>
</svg>
