<?xml version="1.0" encoding="UTF-8" standalone="no"?>
<!DOCTYPE svg PUBLIC "-//W3C//DTD SVG 1.1//EN"
 "http://www.w3.org/Graphics/SVG/1.1/DTD/svg11.dtd">
<!-- Generated by graphviz version 10.0.1 (0)
 -->
<!-- Title: size2d.h Pages: 1 -->
<svg width="1043pt" height="514pt"
 viewBox="0.00 0.00 1043.25 514.25" xmlns="http://www.w3.org/2000/svg" xmlns:xlink="http://www.w3.org/1999/xlink">
<g id="graph0" class="graph" transform="scale(1 1) rotate(0) translate(4 510.25)">
<title>size2d.h</title>
<!-- Node1 -->
<g id="Node000001" class="node">
<title>Node1</title>
<g id="a_Node000001"><a xlink:title="A two&#45;dimensional size tagged with a unit.">
<polygon fill="#999999" stroke="#666666" points="264.25,-506.25 208.5,-506.25 208.5,-487 264.25,-487 264.25,-506.25"/>
<text text-anchor="middle" x="236.38" y="-491.8" font-family="Arial" font-size="11.00">size2d.h</text>
</a>
</g>
</g>
<!-- Node2 -->
<g id="Node000002" class="node">
<title>Node2</title>
<g id="a_Node000002"><a xlink:href="../../df/db1/math_8h_source.html" target="_top" xlink:title=" ">
<polygon fill="white" stroke="#666666" points="355.88,-207.5 246.88,-207.5 246.88,-188.25 355.88,-188.25 355.88,-207.5"/>
<text text-anchor="middle" x="301.38" y="-193.05" font-family="Arial" font-size="11.00">floppy/detail/math.h</text>
</a>
</g>
</g>
<!-- Node1&#45;&gt;Node2 -->
<g id="edge1_Node000001_Node000002" class="edge">
<title>Node1&#45;&gt;Node2</title>
<g id="a_edge1_Node000001_Node000002"><a xlink:title=" ">
<path fill="none" stroke="#63b8ff" d="M264.4,-487.27C307.56,-472.47 385.38,-437.27 385.38,-375.88 385.38,-375.88 385.38,-375.88 385.38,-318.62 385.38,-274.94 347.45,-235.89 322.56,-214.98"/>
<polygon fill="#63b8ff" stroke="#63b8ff" points="324.93,-212.39 314.95,-208.83 320.53,-217.83 324.93,-212.39"/>
</a>
</g>
</g>
<!-- Node10 -->
<g id="Node000010" class="node">
<title>Node10</title>
<g id="a_Node000010"><a xlink:href="../../d9/db1/concepts_8h_source.html" target="_top" xlink:title=" ">
<polygon fill="white" stroke="#666666" points="180.25,-146.62 52.5,-146.62 52.5,-127.38 180.25,-127.38 180.25,-146.62"/>
<text text-anchor="middle" x="116.38" y="-132.18" font-family="Arial" font-size="11.00">floppy/detail/concepts.h</text>
</a>
</g>
</g>
<!-- Node1&#45;&gt;Node10 -->
<g id="edge18_Node000001_Node000010" class="edge">
<title>Node1&#45;&gt;Node10</title>
<g id="a_edge18_Node000001_Node000010"><a xlink:title=" ">
<path fill="none" stroke="#63b8ff" d="M208.31,-490.31C185.41,-484.51 153.93,-472.97 135.38,-451 113.16,-424.69 116.38,-410.32 116.38,-375.88 116.38,-375.88 116.38,-375.88 116.38,-257.75 116.38,-222.84 116.38,-182.21 116.38,-158.38"/>
<polygon fill="#63b8ff" stroke="#63b8ff" points="119.88,-158.53 116.38,-148.53 112.88,-158.53 119.88,-158.53"/>
</a>
</g>
</g>
<!-- Node18 -->
<g id="Node000018" class="node">
<title>Node18</title>
<g id="a_Node000018"><a xlink:href="../../dd/db9/length_8h.html" target="_top" xlink:title="A one&#45;dimensional distance with associated unit of measurement.">
<polygon fill="white" stroke="#666666" points="327.62,-384.5 211.12,-384.5 211.12,-365.25 327.62,-365.25 327.62,-384.5"/>
<text text-anchor="middle" x="269.38" y="-370.05" font-family="Arial" font-size="11.00">floppy/euclid/length.h</text>
</a>
</g>
</g>
<!-- Node1&#45;&gt;Node18 -->
<g id="edge19_Node000001_Node000018" class="edge">
<title>Node1&#45;&gt;Node18</title>
<g id="a_edge19_Node000001_Node000018"><a xlink:title=" ">
<path fill="none" stroke="#63b8ff" d="M241.5,-486.7C246.32,-477.9 253.39,-463.93 257.38,-451 262.97,-432.86 266.07,-411.4 267.7,-396.07"/>
<polygon fill="#63b8ff" stroke="#63b8ff" points="271.17,-396.64 268.62,-386.36 264.2,-395.98 271.17,-396.64"/>
</a>
</g>
</g>
<!-- Node28 -->
<g id="Node000028" class="node">
<title>Node28</title>
<g id="a_Node000028"><a xlink:href="../../da/d53/nt__traits2d_8h_source.html" target="_top" xlink:title=" ">
<polygon fill="white" stroke="#666666" points="248.25,-451 144.5,-451 144.5,-420.5 248.25,-420.5 248.25,-451"/>
<text text-anchor="start" x="152.5" y="-436.55" font-family="Arial" font-size="11.00">floppy/euclid/detail</text>
<text text-anchor="middle" x="196.38" y="-425.3" font-family="Arial" font-size="11.00">/nt_traits2d.h</text>
</a>
</g>
</g>
<!-- Node1&#45;&gt;Node28 -->
<g id="edge36_Node000001_Node000028" class="edge">
<title>Node1&#45;&gt;Node28</title>
<g id="a_edge36_Node000001_Node000028"><a xlink:title=" ">
<path fill="none" stroke="#63b8ff" d="M230.3,-486.68C225.61,-479.79 218.9,-469.91 212.68,-460.75"/>
<polygon fill="#63b8ff" stroke="#63b8ff" points="215.61,-458.84 207.1,-452.53 209.82,-462.77 215.61,-458.84"/>
</a>
</g>
</g>
<!-- Node3 -->
<g id="Node000003" class="node">
<title>Node3</title>
<g id="a_Node000003"><a xlink:title=" ">
<polygon fill="#e0e0e0" stroke="#999999" points="320,-146.62 274.75,-146.62 274.75,-127.38 320,-127.38 320,-146.62"/>
<text text-anchor="middle" x="297.38" y="-132.18" font-family="Arial" font-size="11.00">cmath</text>
</a>
</g>
</g>
<!-- Node2&#45;&gt;Node3 -->
<g id="edge2_Node000002_Node000003" class="edge">
<title>Node2&#45;&gt;Node3</title>
<g id="a_edge2_Node000002_Node000003"><a xlink:title=" ">
<path fill="none" stroke="#63b8ff" d="M300.77,-187.93C300.23,-180.07 299.44,-168.32 298.75,-158.2"/>
<polygon fill="#63b8ff" stroke="#63b8ff" points="302.26,-158.28 298.09,-148.54 295.28,-158.75 302.26,-158.28"/>
</a>
</g>
</g>
<!-- Node4 -->
<g id="Node000004" class="node">
<title>Node4</title>
<g id="a_Node000004"><a xlink:title=" ">
<polygon fill="#e0e0e0" stroke="#999999" points="378.38,-146.62 338.38,-146.62 338.38,-127.38 378.38,-127.38 378.38,-146.62"/>
<text text-anchor="middle" x="358.38" y="-132.18" font-family="Arial" font-size="11.00">limits</text>
</a>
</g>
</g>
<!-- Node2&#45;&gt;Node4 -->
<g id="edge3_Node000002_Node000004" class="edge">
<title>Node2&#45;&gt;Node4</title>
<g id="a_edge3_Node000002_Node000004"><a xlink:title=" ">
<path fill="none" stroke="#63b8ff" d="M310.03,-187.93C318.4,-179.29 331.3,-165.96 341.68,-155.25"/>
<polygon fill="#63b8ff" stroke="#63b8ff" points="344.14,-157.73 348.58,-148.11 339.11,-152.86 344.14,-157.73"/>
</a>
</g>
</g>
<!-- Node5 -->
<g id="Node000005" class="node">
<title>Node5</title>
<g id="a_Node000005"><a xlink:title=" ">
<polygon fill="#e0e0e0" stroke="#999999" points="454.38,-146.62 396.38,-146.62 396.38,-127.38 454.38,-127.38 454.38,-146.62"/>
<text text-anchor="middle" x="425.38" y="-132.18" font-family="Arial" font-size="11.00">numbers</text>
</a>
</g>
</g>
<!-- Node2&#45;&gt;Node5 -->
<g id="edge4_Node000002_Node000005" class="edge">
<title>Node2&#45;&gt;Node5</title>
<g id="a_edge4_Node000002_Node000005"><a xlink:title=" ">
<path fill="none" stroke="#63b8ff" d="M320.48,-187.8C340.65,-178.23 372.71,-163 396.09,-151.91"/>
<polygon fill="#63b8ff" stroke="#63b8ff" points="397.55,-155.08 405.09,-147.63 394.55,-148.76 397.55,-155.08"/>
</a>
</g>
</g>
<!-- Node6 -->
<g id="Node000006" class="node">
<title>Node6</title>
<g id="a_Node000006"><a xlink:title=" ">
<polygon fill="#e0e0e0" stroke="#999999" points="256.38,-146.62 198.38,-146.62 198.38,-127.38 256.38,-127.38 256.38,-146.62"/>
<text text-anchor="middle" x="227.38" y="-132.18" font-family="Arial" font-size="11.00">compare</text>
</a>
</g>
</g>
<!-- Node2&#45;&gt;Node6 -->
<g id="edge5_Node000002_Node000006" class="edge">
<title>Node2&#45;&gt;Node6</title>
<g id="a_edge5_Node000002_Node000006"><a xlink:title=" ">
<path fill="none" stroke="#63b8ff" d="M290.14,-187.93C278.84,-178.94 261.17,-164.89 247.46,-153.98"/>
<polygon fill="#63b8ff" stroke="#63b8ff" points="249.91,-151.46 239.9,-147.97 245.55,-156.93 249.91,-151.46"/>
</a>
</g>
</g>
<!-- Node7 -->
<g id="Node000007" class="node">
<title>Node7</title>
<g id="a_Node000007"><a xlink:href="../../db/db5/export_8h_source.html" target="_top" xlink:title=" ">
<polygon fill="white" stroke="#666666" points="587.88,-146.62 472.88,-146.62 472.88,-127.38 587.88,-127.38 587.88,-146.62"/>
<text text-anchor="middle" x="530.38" y="-132.18" font-family="Arial" font-size="11.00">floppy/detail/export.h</text>
</a>
</g>
</g>
<!-- Node2&#45;&gt;Node7 -->
<g id="edge6_Node000002_Node000007" class="edge">
<title>Node2&#45;&gt;Node7</title>
<g id="a_edge6_Node000002_Node000007"><a xlink:title=" ">
<path fill="none" stroke="#63b8ff" d="M336.65,-187.8C376.24,-177.63 440.61,-161.08 484.18,-149.88"/>
<polygon fill="#63b8ff" stroke="#63b8ff" points="484.78,-153.34 493.59,-147.46 483.03,-146.56 484.78,-153.34"/>
</a>
</g>
</g>
<!-- Node2&#45;&gt;Node10 -->
<g id="edge9_Node000002_Node000010" class="edge">
<title>Node2&#45;&gt;Node10</title>
<g id="a_edge9_Node000002_Node000010"><a xlink:title=" ">
<path fill="none" stroke="#63b8ff" d="M272.87,-187.8C241.5,-177.82 190.87,-161.71 155.73,-150.52"/>
<polygon fill="#63b8ff" stroke="#63b8ff" points="156.94,-147.24 146.35,-147.54 154.82,-153.91 156.94,-147.24"/>
</a>
</g>
</g>
<!-- Node8 -->
<g id="Node000008" class="node">
<title>Node8</title>
<g id="a_Node000008"><a xlink:title=" ">
<polygon fill="#e0e0e0" stroke="#999999" points="551.5,-80.12 509.25,-80.12 509.25,-60.88 551.5,-60.88 551.5,-80.12"/>
<text text-anchor="middle" x="530.38" y="-65.67" font-family="Arial" font-size="11.00">string</text>
</a>
</g>
</g>
<!-- Node7&#45;&gt;Node8 -->
<g id="edge7_Node000007_Node000008" class="edge">
<title>Node7&#45;&gt;Node8</title>
<g id="a_edge7_Node000007_Node000008"><a xlink:title=" ">
<path fill="none" stroke="#63b8ff" d="M530.38,-127.03C530.38,-117.98 530.38,-103.7 530.38,-91.88"/>
<polygon fill="#63b8ff" stroke="#63b8ff" points="533.88,-91.91 530.38,-81.91 526.88,-91.91 533.88,-91.91"/>
</a>
</g>
</g>
<!-- Node9 -->
<g id="Node000009" class="node">
<title>Node9</title>
<g id="a_Node000009"><a xlink:title=" ">
<polygon fill="#e0e0e0" stroke="#999999" points="757.38,-80.12 687.38,-80.12 687.38,-60.88 757.38,-60.88 757.38,-80.12"/>
<text text-anchor="middle" x="722.38" y="-65.67" font-family="Arial" font-size="11.00">string_view</text>
</a>
</g>
</g>
<!-- Node7&#45;&gt;Node9 -->
<g id="edge8_Node000007_Node000009" class="edge">
<title>Node7&#45;&gt;Node9</title>
<g id="a_edge8_Node000007_Node000009"><a xlink:title=" ">
<path fill="none" stroke="#63b8ff" d="M557.48,-126.9C590.78,-115.71 647.47,-96.66 684.92,-84.08"/>
<polygon fill="#63b8ff" stroke="#63b8ff" points="685.61,-87.54 693.98,-81.04 683.38,-80.91 685.61,-87.54"/>
</a>
</g>
</g>
<!-- Node11 -->
<g id="Node000011" class="node">
<title>Node11</title>
<g id="a_Node000011"><a xlink:href="../../df/d63/type__traits_8h_source.html" target="_top" xlink:title=" ">
<polygon fill="white" stroke="#666666" points="285.5,-85.75 189.25,-85.75 189.25,-55.25 285.5,-55.25 285.5,-85.75"/>
<text text-anchor="start" x="197.25" y="-71.3" font-family="Arial" font-size="11.00">floppy/detail/type</text>
<text text-anchor="middle" x="237.38" y="-60.05" font-family="Arial" font-size="11.00">_traits.h</text>
</a>
</g>
</g>
<!-- Node10&#45;&gt;Node11 -->
<g id="edge10_Node000010_Node000011" class="edge">
<title>Node10&#45;&gt;Node11</title>
<g id="a_edge10_Node000010_Node000011"><a xlink:title=" ">
<path fill="none" stroke="#63b8ff" d="M133.45,-126.9C150.66,-117.72 177.78,-103.27 200,-91.43"/>
<polygon fill="#63b8ff" stroke="#63b8ff" points="201.61,-94.53 208.79,-86.74 198.32,-88.35 201.61,-94.53"/>
</a>
</g>
</g>
<!-- Node13 -->
<g id="Node000013" class="node">
<title>Node13</title>
<g id="a_Node000013"><a xlink:href="../../d9/d49/types_8h_source.html" target="_top" xlink:title=" ">
<polygon fill="white" stroke="#666666" points="171.62,-80.12 61.12,-80.12 61.12,-60.88 171.62,-60.88 171.62,-80.12"/>
<text text-anchor="middle" x="116.38" y="-65.67" font-family="Arial" font-size="11.00">floppy/detail/types.h</text>
</a>
</g>
</g>
<!-- Node10&#45;&gt;Node13 -->
<g id="edge12_Node000010_Node000013" class="edge">
<title>Node10&#45;&gt;Node13</title>
<g id="a_edge12_Node000010_Node000013"><a xlink:title=" ">
<path fill="none" stroke="#63b8ff" d="M116.38,-127.03C116.38,-117.98 116.38,-103.7 116.38,-91.88"/>
<polygon fill="#63b8ff" stroke="#63b8ff" points="119.88,-91.91 116.38,-81.91 112.88,-91.91 119.88,-91.91"/>
</a>
</g>
</g>
<!-- Node12 -->
<g id="Node000012" class="node">
<title>Node12</title>
<g id="a_Node000012"><a xlink:title=" ">
<polygon fill="#e0e0e0" stroke="#999999" points="270.12,-19.25 204.62,-19.25 204.62,0 270.12,0 270.12,-19.25"/>
<text text-anchor="middle" x="237.38" y="-4.8" font-family="Arial" font-size="11.00">type_traits</text>
</a>
</g>
</g>
<!-- Node11&#45;&gt;Node12 -->
<g id="edge11_Node000011_Node000012" class="edge">
<title>Node11&#45;&gt;Node12</title>
<g id="a_edge11_Node000011_Node000012"><a xlink:title=" ">
<path fill="none" stroke="#63b8ff" d="M237.38,-54.95C237.38,-47.71 237.38,-38.84 237.38,-30.94"/>
<polygon fill="#63b8ff" stroke="#63b8ff" points="240.88,-31.21 237.38,-21.21 233.88,-31.21 240.88,-31.21"/>
</a>
</g>
</g>
<!-- Node13&#45;&gt;Node12 -->
<g id="edge16_Node000013_Node000012" class="edge">
<title>Node13&#45;&gt;Node12</title>
<g id="a_edge16_Node000013_Node000012"><a xlink:title=" ">
<path fill="none" stroke="#63b8ff" d="M135.02,-60.43C154.7,-50.85 185.99,-35.63 208.79,-24.53"/>
<polygon fill="#63b8ff" stroke="#63b8ff" points="210.09,-27.79 217.55,-20.27 207.03,-21.5 210.09,-27.79"/>
</a>
</g>
</g>
<!-- Node14 -->
<g id="Node000014" class="node">
<title>Node14</title>
<g id="a_Node000014"><a xlink:title=" ">
<polygon fill="#e0e0e0" stroke="#999999" points="186.62,-19.25 136.12,-19.25 136.12,0 186.62,0 186.62,-19.25"/>
<text text-anchor="middle" x="161.38" y="-4.8" font-family="Arial" font-size="11.00">cstddef</text>
</a>
</g>
</g>
<!-- Node13&#45;&gt;Node14 -->
<g id="edge13_Node000013_Node000014" class="edge">
<title>Node13&#45;&gt;Node14</title>
<g id="a_edge13_Node000013_Node000014"><a xlink:title=" ">
<path fill="none" stroke="#63b8ff" d="M123.21,-60.56C129.69,-52.09 139.6,-39.12 147.7,-28.52"/>
<polygon fill="#63b8ff" stroke="#63b8ff" points="150.27,-30.92 153.56,-20.85 144.7,-26.67 150.27,-30.92"/>
</a>
</g>
</g>
<!-- Node15 -->
<g id="Node000015" class="node">
<title>Node15</title>
<g id="a_Node000015"><a xlink:title=" ">
<polygon fill="#e0e0e0" stroke="#999999" points="46.75,-19.25 0,-19.25 0,0 46.75,0 46.75,-19.25"/>
<text text-anchor="middle" x="23.38" y="-4.8" font-family="Arial" font-size="11.00">cstdint</text>
</a>
</g>
</g>
<!-- Node13&#45;&gt;Node15 -->
<g id="edge14_Node000013_Node000015" class="edge">
<title>Node13&#45;&gt;Node15</title>
<g id="a_edge14_Node000013_Node000015"><a xlink:title=" ">
<path fill="none" stroke="#63b8ff" d="M102.25,-60.56C87.64,-51.31 64.56,-36.7 47.13,-25.67"/>
<polygon fill="#63b8ff" stroke="#63b8ff" points="49.23,-22.85 38.91,-20.46 45.49,-28.77 49.23,-22.85"/>
</a>
</g>
</g>
<!-- Node16 -->
<g id="Node000016" class="node">
<title>Node16</title>
<g id="a_Node000016"><a xlink:title=" ">
<polygon fill="#e0e0e0" stroke="#999999" points="118.12,-19.25 64.62,-19.25 64.62,0 118.12,0 118.12,-19.25"/>
<text text-anchor="middle" x="91.38" y="-4.8" font-family="Arial" font-size="11.00">optional</text>
</a>
</g>
</g>
<!-- Node13&#45;&gt;Node16 -->
<g id="edge15_Node000013_Node000016" class="edge">
<title>Node13&#45;&gt;Node16</title>
<g id="a_edge15_Node000013_Node000016"><a xlink:title=" ">
<path fill="none" stroke="#63b8ff" d="M112.58,-60.56C109.16,-52.52 104.03,-40.43 99.67,-30.16"/>
<polygon fill="#63b8ff" stroke="#63b8ff" points="102.93,-28.88 95.8,-21.04 96.49,-31.62 102.93,-28.88"/>
</a>
</g>
</g>
<!-- Node17 -->
<g id="Node000017" class="node">
<title>Node17</title>
<g id="a_Node000017"><a xlink:title=" ">
<polygon fill="#e0e0e0" stroke="#999999" points="656.25,-19.25 582.5,-19.25 582.5,0 656.25,0 656.25,-19.25"/>
<text text-anchor="middle" x="619.38" y="-4.8" font-family="Arial" font-size="11.00">fmt/format.h</text>
</a>
</g>
</g>
<!-- Node13&#45;&gt;Node17 -->
<g id="edge17_Node000013_Node000017" class="edge">
<title>Node13&#45;&gt;Node17</title>
<g id="a_edge17_Node000013_Node000017"><a xlink:title=" ">
<path fill="none" stroke="#63b8ff" d="M153.8,-60.39C162.48,-58.49 171.72,-56.65 180.38,-55.25 321.3,-32.48 489.65,-19.22 570.85,-13.68"/>
<polygon fill="#63b8ff" stroke="#63b8ff" points="570.93,-17.18 580.67,-13.02 570.46,-10.2 570.93,-17.18"/>
</a>
</g>
</g>
<!-- Node19 -->
<g id="Node000019" class="node">
<title>Node19</title>
<g id="a_Node000019"><a xlink:href="../../d8/d0c/scale_8h.html" target="_top" xlink:title="A scaling factor between two different units of measurement.">
<polygon fill="white" stroke="#666666" points="357.38,-329.25 245.38,-329.25 245.38,-310 357.38,-310 357.38,-329.25"/>
<text text-anchor="middle" x="301.38" y="-314.8" font-family="Arial" font-size="11.00">floppy/euclid/scale.h</text>
</a>
</g>
</g>
<!-- Node18&#45;&gt;Node19 -->
<g id="edge20_Node000018_Node000019" class="edge">
<title>Node18&#45;&gt;Node19</title>
<g id="a_edge20_Node000018_Node000019"><a xlink:title=" ">
<path fill="none" stroke="#63b8ff" d="M274.66,-365.08C278.85,-358.11 284.85,-348.12 290.11,-339.37"/>
<polygon fill="#63b8ff" stroke="#63b8ff" points="293.05,-341.28 295.2,-330.91 287.05,-337.68 293.05,-341.28"/>
</a>
</g>
</g>
<!-- Node27 -->
<g id="Node000027" class="node">
<title>Node27</title>
<g id="a_Node000027"><a xlink:href="../../de/de1/nt__traits_8h_source.html" target="_top" xlink:title=" ">
<polygon fill="white" stroke="#666666" points="269.25,-274 165.5,-274 165.5,-243.5 269.25,-243.5 269.25,-274"/>
<text text-anchor="start" x="173.5" y="-259.55" font-family="Arial" font-size="11.00">floppy/euclid/detail</text>
<text text-anchor="middle" x="217.38" y="-248.3" font-family="Arial" font-size="11.00">/nt_traits.h</text>
</a>
</g>
</g>
<!-- Node18&#45;&gt;Node27 -->
<g id="edge35_Node000018_Node000027" class="edge">
<title>Node18&#45;&gt;Node27</title>
<g id="a_edge35_Node000018_Node000027"><a xlink:title=" ">
<path fill="none" stroke="#63b8ff" d="M261.21,-364.96C253.76,-356.39 242.94,-342.77 236.38,-329.25 229.66,-315.41 225.01,-298.83 221.99,-285.33"/>
<polygon fill="#63b8ff" stroke="#63b8ff" points="225.5,-284.99 220.06,-275.9 218.64,-286.4 225.5,-284.99"/>
</a>
</g>
</g>
<!-- Node19&#45;&gt;Node2 -->
<g id="edge21_Node000019_Node000002" class="edge">
<title>Node19&#45;&gt;Node2</title>
<g id="a_edge21_Node000019_Node000002"><a xlink:title=" ">
<path fill="none" stroke="#63b8ff" d="M301.38,-309.62C301.38,-290.55 301.38,-245.66 301.38,-219.26"/>
<polygon fill="#63b8ff" stroke="#63b8ff" points="304.88,-219.49 301.38,-209.49 297.88,-219.49 304.88,-219.49"/>
</a>
</g>
</g>
<!-- Node20 -->
<g id="Node000020" class="node">
<title>Node20</title>
<g id="a_Node000020"><a xlink:href="../../dd/dff/traits_8h_source.html" target="_top" xlink:title=" ">
<polygon fill="white" stroke="#666666" points="710.25,-207.5 630.5,-207.5 630.5,-188.25 710.25,-188.25 710.25,-207.5"/>
<text text-anchor="middle" x="670.38" y="-193.05" font-family="Arial" font-size="11.00">floppy/traits.h</text>
</a>
</g>
</g>
<!-- Node19&#45;&gt;Node20 -->
<g id="edge22_Node000019_Node000020" class="edge">
<title>Node19&#45;&gt;Node20</title>
<g id="a_edge22_Node000019_Node000020"><a xlink:title=" ">
<path fill="none" stroke="#63b8ff" d="M329.41,-309.53C394.68,-288.34 556.89,-235.7 631.59,-211.46"/>
<polygon fill="#63b8ff" stroke="#63b8ff" points="632.51,-214.84 640.94,-208.43 630.35,-208.19 632.51,-214.84"/>
</a>
</g>
</g>
<!-- Node19&#45;&gt;Node27 -->
<g id="edge32_Node000019_Node000027" class="edge">
<title>Node19&#45;&gt;Node27</title>
<g id="a_edge32_Node000019_Node000027"><a xlink:title=" ">
<path fill="none" stroke="#63b8ff" d="M288.62,-309.68C277.73,-302.05 261.63,-290.77 247.5,-280.86"/>
<polygon fill="#63b8ff" stroke="#63b8ff" points="249.55,-278.02 239.35,-275.15 245.53,-283.76 249.55,-278.02"/>
</a>
</g>
</g>
<!-- Node20&#45;&gt;Node7 -->
<g id="edge26_Node000020_Node000007" class="edge">
<title>Node20&#45;&gt;Node7</title>
<g id="a_edge26_Node000020_Node000007"><a xlink:title=" ">
<path fill="none" stroke="#63b8ff" d="M648.81,-187.8C625.62,-178.05 588.52,-162.45 562.02,-151.31"/>
<polygon fill="#63b8ff" stroke="#63b8ff" points="563.71,-148.22 553.13,-147.57 560.99,-154.67 563.71,-148.22"/>
</a>
</g>
</g>
<!-- Node21 -->
<g id="Node000021" class="node">
<title>Node21</title>
<g id="a_Node000021"><a xlink:title=" ">
<polygon fill="#e0e0e0" stroke="#999999" points="660.88,-146.62 605.88,-146.62 605.88,-127.38 660.88,-127.38 660.88,-146.62"/>
<text text-anchor="middle" x="633.38" y="-132.18" font-family="Arial" font-size="11.00">memory</text>
</a>
</g>
</g>
<!-- Node20&#45;&gt;Node21 -->
<g id="edge23_Node000020_Node000021" class="edge">
<title>Node20&#45;&gt;Node21</title>
<g id="a_edge23_Node000020_Node000021"><a xlink:title=" ">
<path fill="none" stroke="#63b8ff" d="M664.76,-187.93C659.54,-179.63 651.61,-167.02 645.03,-156.55"/>
<polygon fill="#63b8ff" stroke="#63b8ff" points="648.14,-154.91 639.85,-148.31 642.21,-158.64 648.14,-154.91"/>
</a>
</g>
</g>
<!-- Node22 -->
<g id="Node000022" class="node">
<title>Node22</title>
<g id="a_Node000022"><a xlink:title=" ">
<polygon fill="#e0e0e0" stroke="#999999" points="736,-146.62 678.75,-146.62 678.75,-127.38 736,-127.38 736,-146.62"/>
<text text-anchor="middle" x="707.38" y="-132.18" font-family="Arial" font-size="11.00">iostream</text>
</a>
</g>
</g>
<!-- Node20&#45;&gt;Node22 -->
<g id="edge24_Node000020_Node000022" class="edge">
<title>Node20&#45;&gt;Node22</title>
<g id="a_edge24_Node000020_Node000022"><a xlink:title=" ">
<path fill="none" stroke="#63b8ff" d="M675.99,-187.93C681.21,-179.63 689.14,-167.02 695.72,-156.55"/>
<polygon fill="#63b8ff" stroke="#63b8ff" points="698.54,-158.64 700.9,-148.31 692.61,-154.91 698.54,-158.64"/>
</a>
</g>
</g>
<!-- Node23 -->
<g id="Node000023" class="node">
<title>Node23</title>
<g id="a_Node000023"><a xlink:title=" ">
<polygon fill="#e0e0e0" stroke="#999999" points="883,-152.25 753.75,-152.25 753.75,-121.75 883,-121.75 883,-152.25"/>
<text text-anchor="start" x="761.75" y="-137.8" font-family="Arial" font-size="11.00">experimental/propagate</text>
<text text-anchor="middle" x="818.38" y="-126.55" font-family="Arial" font-size="11.00">_const</text>
</a>
</g>
</g>
<!-- Node20&#45;&gt;Node23 -->
<g id="edge25_Node000020_Node000023" class="edge">
<title>Node20&#45;&gt;Node23</title>
<g id="a_edge25_Node000020_Node000023"><a xlink:title=" ">
<path fill="none" stroke="#63b8ff" d="M693.18,-187.8C713.84,-179.58 744.96,-167.2 771,-156.85"/>
<polygon fill="#63b8ff" stroke="#63b8ff" points="772.03,-160.2 780.03,-153.25 769.44,-153.7 772.03,-160.2"/>
</a>
</g>
</g>
<!-- Node24 -->
<g id="Node000024" class="node">
<title>Node24</title>
<g id="a_Node000024"><a xlink:href="../../d6/d45/formatters_8h_source.html" target="_top" xlink:title=" ">
<polygon fill="white" stroke="#666666" points="1035.25,-146.62 901.5,-146.62 901.5,-127.38 1035.25,-127.38 1035.25,-146.62"/>
<text text-anchor="middle" x="968.38" y="-132.18" font-family="Arial" font-size="11.00">floppy/detail/formatters.h</text>
</a>
</g>
</g>
<!-- Node20&#45;&gt;Node24 -->
<g id="edge27_Node000020_Node000024" class="edge">
<title>Node20&#45;&gt;Node24</title>
<g id="a_edge27_Node000020_Node000024"><a xlink:title=" ">
<path fill="none" stroke="#63b8ff" d="M710.56,-188.93C762.28,-178.72 852.45,-160.9 911.27,-149.28"/>
<polygon fill="#63b8ff" stroke="#63b8ff" points="911.62,-152.78 920.75,-147.41 910.26,-145.91 911.62,-152.78"/>
</a>
</g>
</g>
<!-- Node24&#45;&gt;Node9 -->
<g id="edge28_Node000024_Node000009" class="edge">
<title>Node24&#45;&gt;Node9</title>
<g id="a_edge28_Node000024_Node000009"><a xlink:title=" ">
<path fill="none" stroke="#63b8ff" d="M933.65,-126.9C890.25,-115.52 815.84,-96.01 767.91,-83.44"/>
<polygon fill="#63b8ff" stroke="#63b8ff" points="768.95,-80.09 758.39,-80.94 767.17,-86.86 768.95,-80.09"/>
</a>
</g>
</g>
<!-- Node24&#45;&gt;Node17 -->
<g id="edge31_Node000024_Node000017" class="edge">
<title>Node24&#45;&gt;Node17</title>
<g id="a_edge31_Node000024_Node000017"><a xlink:title=" ">
<path fill="none" stroke="#63b8ff" d="M965.95,-126.92C960.85,-109.79 947.3,-72.8 921.38,-55.25 881.02,-27.93 742.78,-16.83 668.13,-12.75"/>
<polygon fill="#63b8ff" stroke="#63b8ff" points="668.4,-9.26 658.23,-12.23 668.04,-16.25 668.4,-9.26"/>
</a>
</g>
</g>
<!-- Node25 -->
<g id="Node000025" class="node">
<title>Node25</title>
<g id="a_Node000025"><a xlink:title=" ">
<polygon fill="#e0e0e0" stroke="#999999" points="1022.5,-80.12 968.25,-80.12 968.25,-60.88 1022.5,-60.88 1022.5,-80.12"/>
<text text-anchor="middle" x="995.38" y="-65.67" font-family="Arial" font-size="11.00">sstream</text>
</a>
</g>
</g>
<!-- Node24&#45;&gt;Node25 -->
<g id="edge29_Node000024_Node000025" class="edge">
<title>Node24&#45;&gt;Node25</title>
<g id="a_edge29_Node000024_Node000025"><a xlink:title=" ">
<path fill="none" stroke="#63b8ff" d="M972.13,-127.03C976.04,-117.69 982.28,-102.78 987.31,-90.76"/>
<polygon fill="#63b8ff" stroke="#63b8ff" points="990.44,-92.36 991.07,-81.79 983.98,-89.66 990.44,-92.36"/>
</a>
</g>
</g>
<!-- Node26 -->
<g id="Node000026" class="node">
<title>Node26</title>
<g id="a_Node000026"><a xlink:title=" ">
<polygon fill="#e0e0e0" stroke="#999999" points="912.75,-80.12 866,-80.12 866,-60.88 912.75,-60.88 912.75,-80.12"/>
<text text-anchor="middle" x="889.38" y="-65.67" font-family="Arial" font-size="11.00">iosfwd</text>
</a>
</g>
</g>
<!-- Node24&#45;&gt;Node26 -->
<g id="edge30_Node000024_Node000026" class="edge">
<title>Node24&#45;&gt;Node26</title>
<g id="a_edge30_Node000024_Node000026"><a xlink:title=" ">
<path fill="none" stroke="#63b8ff" d="M957.39,-127.03C944.96,-116.88 924.47,-100.15 909.22,-87.7"/>
<polygon fill="#63b8ff" stroke="#63b8ff" points="911.65,-85.17 901.69,-81.56 907.23,-90.59 911.65,-85.17"/>
</a>
</g>
</g>
<!-- Node27&#45;&gt;Node2 -->
<g id="edge33_Node000027_Node000002" class="edge">
<title>Node27&#45;&gt;Node2</title>
<g id="a_edge33_Node000027_Node000002"><a xlink:title=" ">
<path fill="none" stroke="#63b8ff" d="M238.14,-243.2C250.56,-234.49 266.34,-223.43 279.03,-214.53"/>
<polygon fill="#63b8ff" stroke="#63b8ff" points="281.01,-217.43 287.19,-208.82 276.99,-211.69 281.01,-217.43"/>
</a>
</g>
</g>
<!-- Node27&#45;&gt;Node10 -->
<g id="edge34_Node000027_Node000010" class="edge">
<title>Node27&#45;&gt;Node10</title>
<g id="a_edge34_Node000027_Node000010"><a xlink:title=" ">
<path fill="none" stroke="#63b8ff" d="M204.99,-243.07C186.38,-221 151.25,-179.36 131.27,-155.66"/>
<polygon fill="#63b8ff" stroke="#63b8ff" points="134.05,-153.53 124.93,-148.15 128.7,-158.05 134.05,-153.53"/>
</a>
</g>
</g>
<!-- Node28&#45;&gt;Node18 -->
<g id="edge37_Node000028_Node000018" class="edge">
<title>Node28&#45;&gt;Node18</title>
<g id="a_edge37_Node000028_Node000018"><a xlink:title=" ">
<path fill="none" stroke="#63b8ff" d="M214.42,-420.2C225,-411.66 238.39,-400.87 249.3,-392.06"/>
<polygon fill="#63b8ff" stroke="#63b8ff" points="251.36,-394.9 256.94,-385.9 246.96,-389.45 251.36,-394.9"/>
</a>
</g>
</g>
<!-- Node28&#45;&gt;Node27 -->
<g id="edge38_Node000028_Node000027" class="edge">
<title>Node28&#45;&gt;Node27</title>
<g id="a_edge38_Node000028_Node000027"><a xlink:title=" ">
<path fill="none" stroke="#63b8ff" d="M197.41,-420.08C198.45,-406 200.22,-384.14 202.38,-365.25 205.48,-338.05 210.01,-307.05 213.27,-285.73"/>
<polygon fill="#63b8ff" stroke="#63b8ff" points="216.73,-286.31 214.8,-275.89 209.81,-285.24 216.73,-286.31"/>
</a>
</g>
</g>
</g>
</svg>
