<svg width="21" height="157" viewBox="0 0 21 157" fill="none" xmlns="http://www.w3.org/2000/svg">
<path d="M3.10156 3.51953C2.75 3.47266 2.50391 3.32031 2.36328 3.0625C2.22266 2.80469 2.15234 2.53516 2.15234 2.25391C2.15234 1.97266 2.24609 1.71484 2.43359 1.48047C2.62109 1.24609 2.84375 1.12891 3.10156 1.12891C4.32031 1.12891 5.64453 1.10547 7.07422 1.05859C8.52734 1.01172 9.92188 0.988281 11.2578 0.988281C13.0625 0.988281 14.4805 1 15.5117 1.02344C16.5664 1.04688 17.3633 1.15234 17.9023 1.33984C18.4414 1.50391 18.7812 1.77344 18.9219 2.14844C19.0625 2.52344 19.1328 3.05078 19.1328 3.73047C19.0625 5.53516 18.8047 7.28125 18.3594 8.96875C17.9141 10.6328 17.293 12.1797 16.4961 13.6094C15.7227 15.0156 14.7852 16.2461 13.6836 17.3008C12.582 18.3789 11.3281 19.1992 9.92188 19.7617C9.71094 19.8555 9.47656 19.9023 9.21875 19.9023C8.79688 19.9023 8.46875 19.7617 8.23438 19.4805C8.02344 19.2227 7.91797 18.9414 7.91797 18.6367C7.91797 18.3789 7.97656 18.1445 8.09375 17.9336C8.23438 17.7227 8.46875 17.5586 8.79688 17.4414C9.96875 16.9727 11.0234 16.2695 11.9609 15.332C12.8984 14.3945 13.6836 13.3281 14.3164 12.1328C14.9727 10.9375 15.4766 9.67188 15.8281 8.33594C16.1797 6.97656 16.3555 5.65234 16.3555 4.36328C16.3555 4.19922 16.3438 4.04688 16.3203 3.90625C16.3203 3.76562 16.3203 3.61328 16.3203 3.44922C15.1016 3.44922 13.9414 3.44922 12.8398 3.44922C11.7617 3.42578 10.6953 3.41406 9.64062 3.41406C8.58594 3.41406 7.53125 3.42578 6.47656 3.44922C5.42188 3.47266 4.29688 3.49609 3.10156 3.51953ZM1.41406 50.5586C1.41406 50.4414 1.40234 50.3242 1.37891 50.207C1.37891 50.0898 1.37891 49.9727 1.37891 49.8555C1.37891 49.2461 1.41406 48.7539 1.48438 48.3789C1.57812 48.0039 1.71875 47.7227 1.90625 47.5352C2.09375 47.3242 2.32812 47.1953 2.60938 47.1484C2.91406 47.0781 3.26562 47.043 3.66406 47.043C4.10938 47.043 4.64844 47.043 5.28125 47.043C5.91406 47.0195 6.59375 46.9961 7.32031 46.9727C8.04688 46.9492 8.79688 46.9375 9.57031 46.9375C10.3672 46.9141 11.1289 46.9023 11.8555 46.9023C13.0742 46.9023 14.1172 46.9141 14.9844 46.9375C15.8516 46.9609 16.5664 47.125 17.1289 47.4297C17.6914 47.7109 18.1016 48.1914 18.3594 48.8711C18.6172 49.5508 18.7461 50.5352 18.7461 51.8242C18.7461 53.4883 18.6406 54.9648 18.4297 56.2539C18.2422 57.5195 18.0195 58.5859 17.7617 59.4531C17.5039 60.3203 17.2578 60.9883 17.0234 61.457C16.7891 61.9258 16.6367 62.1953 16.5664 62.2656C16.4258 62.4062 16.0742 62.5117 15.5117 62.582C14.9492 62.6758 14.2461 62.7461 13.4023 62.793C12.582 62.8633 11.6797 62.9102 10.6953 62.9336C9.73438 62.9805 8.78516 63.0156 7.84766 63.0391C6.93359 63.0625 6.07812 63.0742 5.28125 63.0742C4.50781 63.0742 3.89844 63.0742 3.45312 63.0742C3.10156 63.0039 2.83203 62.8516 2.64453 62.6172C2.48047 62.3828 2.39844 62.1367 2.39844 61.8789C2 60.4727 1.73047 58.8555 1.58984 57.0273C1.47266 55.1758 1.41406 53.0195 1.41406 50.5586ZM3.875 49.4336C3.875 50.1836 3.875 51.0508 3.875 52.0352C3.875 52.9961 3.88672 53.9922 3.91016 55.0234C3.95703 56.0312 4.01562 57.0391 4.08594 58.0469C4.17969 59.0312 4.29688 59.9102 4.4375 60.6836L14.7734 60.543C14.9141 60.0977 15.0664 59.5586 15.2305 58.9258C15.418 58.2695 15.582 57.5781 15.7227 56.8516C15.8867 56.1016 16.0156 55.3398 16.1094 54.5664C16.2031 53.793 16.25 53.043 16.25 52.3164C16.1797 51.3789 16.0508 50.6875 15.8633 50.2422C15.6992 49.7969 15.4883 49.5039 15.2305 49.3633C14.9727 49.1992 14.668 49.1289 14.3164 49.1523C13.9883 49.1523 13.625 49.1289 13.2266 49.082H12.2773C11.668 49.082 10.9883 49.1055 10.2383 49.1523C9.51172 49.1758 8.76172 49.2109 7.98828 49.2578C7.23828 49.3047 6.5 49.3516 5.77344 49.3984C5.07031 49.4219 4.4375 49.4336 3.875 49.4336ZM17.4453 93.6602C17.4219 93.6133 17.4102 93.5312 17.4102 93.4141C17.4102 93.1328 17.5391 92.875 17.7969 92.6406C18.0781 92.4062 18.3945 92.2891 18.7461 92.2891C19.1211 92.2891 19.4258 92.418 19.6602 92.6758C19.918 92.9336 20.1172 93.2617 20.2578 93.6602C20.3984 94.0352 20.4922 94.4688 20.5391 94.9609C20.5859 95.4297 20.6094 95.8867 20.6094 96.332C20.6094 97.9961 20.293 99.5781 19.6602 101.078C19.0273 102.578 18.207 103.891 17.1992 105.016C16.2148 106.141 15.1133 107.031 13.8945 107.688C12.6992 108.367 11.5273 108.707 10.3789 108.707C10.0508 108.707 9.76953 108.555 9.53516 108.25C9.30078 107.945 9.18359 107.594 9.18359 107.195C9.18359 106.938 9.26562 106.68 9.42969 106.422C9.61719 106.164 9.92188 105.988 10.3438 105.895C11.4688 105.66 12.4883 105.238 13.4023 104.629C14.3164 103.996 15.0898 103.246 15.7227 102.379C16.3789 101.488 16.8828 100.516 17.2344 99.4609C17.5859 98.3828 17.7617 97.293 17.7617 96.1914C17.7617 95.3477 17.6562 94.5039 17.4453 93.6602ZM1.0625 94.7148C0.617188 94.5273 0.394531 94.2227 0.394531 93.8008C0.394531 93.5195 0.5 93.2617 0.710938 93.0273C0.921875 92.793 1.20312 92.6758 1.55469 92.6758C1.83594 92.6758 2.17578 92.7812 2.57422 92.9922C2.97266 93.1797 3.38281 93.4492 3.80469 93.8008C4.22656 94.1289 4.625 94.5156 5 94.9609C5.39844 95.4062 5.70312 95.8633 5.91406 96.332C5.96094 96.4492 5.98438 96.6016 5.98438 96.7891C5.98438 97.1172 5.85547 97.3984 5.59766 97.6328C5.36328 97.8438 5.11719 97.9492 4.85938 97.9492C4.57812 97.9492 4.36719 97.832 4.22656 97.5977C3.82812 97.0117 3.32422 96.4492 2.71484 95.9102C2.12891 95.3711 1.57812 94.9727 1.0625 94.7148ZM9.28906 91.832C9.05469 91.5977 8.9375 91.3516 8.9375 91.0938C8.9375 90.8125 9.05469 90.5664 9.28906 90.3555C9.52344 90.1211 9.79297 90.0039 10.0977 90.0039C10.4023 90.0039 10.707 90.1445 11.0117 90.4258C11.3398 90.6836 11.6328 91.0234 11.8906 91.4453C12.1719 91.8672 12.4062 92.3477 12.5938 92.8867C12.7812 93.4258 12.8984 93.9648 12.9453 94.5039C12.9453 94.9258 12.8047 95.2539 12.5234 95.4883C12.2656 95.7227 11.9727 95.8398 11.6445 95.8398C11.4336 95.8398 11.2461 95.793 11.082 95.6992C10.918 95.582 10.8125 95.418 10.7656 95.207C10.6484 94.4805 10.4727 93.8594 10.2383 93.3438C10.0273 92.8047 9.71094 92.3008 9.28906 91.832ZM0.359375 135.707V135.496C0.359375 135.074 0.476562 134.781 0.710938 134.617C0.945312 134.453 1.22656 134.371 1.55469 134.371C1.88281 134.371 2.19922 134.465 2.50391 134.652C2.80859 134.84 2.96094 135.074 2.96094 135.355C2.96094 136.059 2.98438 137.055 3.03125 138.344C3.10156 139.633 3.18359 141.027 3.27734 142.527C3.39453 144.004 3.51172 145.492 3.62891 146.992C3.74609 148.492 3.875 149.793 4.01562 150.895C4.13281 151.715 4.39062 152.395 4.78906 152.934C5.1875 153.496 5.84375 153.777 6.75781 153.777C8.1875 153.777 9.67578 153.602 11.2227 153.25C12.7695 152.898 14.1406 152.371 15.3359 151.668C15.5469 151.527 15.7578 151.457 15.9688 151.457C16.2969 151.457 16.5547 151.586 16.7422 151.844C16.9531 152.102 17.0586 152.395 17.0586 152.723C17.0586 153.145 16.8477 153.52 16.4258 153.848C16.0039 154.176 15.4648 154.469 14.8086 154.727C14.1523 154.984 13.4141 155.195 12.5938 155.359C11.7969 155.547 11 155.699 10.2031 155.816C9.40625 155.934 8.66797 156.016 7.98828 156.062C7.30859 156.133 6.76953 156.168 6.37109 156.168C5.97266 156.168 5.52734 156.121 5.03516 156.027C4.56641 155.957 4.10938 155.805 3.66406 155.57C3.24219 155.336 2.85547 154.996 2.50391 154.551C2.15234 154.129 1.90625 153.566 1.76562 152.863C1.55469 151.809 1.36719 150.625 1.20312 149.312C1.0625 148 0.945312 146.605 0.851562 145.129C0.757812 143.652 0.664062 142.117 0.570312 140.523C0.5 138.93 0.429688 137.324 0.359375 135.707ZM12.1016 140.77C12.2656 140.605 12.4883 140.523 12.7695 140.523C13.1211 140.523 13.4375 140.641 13.7188 140.875C14.0234 141.086 14.1758 141.379 14.1758 141.754C14.1758 142.105 14 142.457 13.6484 142.809C12.5703 143.793 11.3867 144.555 10.0977 145.094C8.80859 145.633 7.35547 145.902 5.73828 145.902C5.41016 145.902 5.16406 145.785 5 145.551C4.83594 145.293 4.75391 145.023 4.75391 144.742C4.75391 144.484 4.84766 144.227 5.03516 143.969C5.22266 143.711 5.51562 143.559 5.91406 143.512C7.20312 143.395 8.33984 143.148 9.32422 142.773C10.332 142.375 11.2578 141.707 12.1016 140.77ZM14.4219 134.934C14.4219 134.09 14.7148 133.363 15.3008 132.754C15.8867 132.145 16.6016 131.84 17.4453 131.84C17.8672 131.84 18.2773 131.922 18.6758 132.086C19.0742 132.25 19.4141 132.473 19.6953 132.754C20 133.035 20.2344 133.363 20.3984 133.738C20.5859 134.113 20.6797 134.512 20.6797 134.934C20.6797 135.379 20.5859 135.801 20.3984 136.199C20.2344 136.574 20 136.902 19.6953 137.184C19.4141 137.465 19.0742 137.688 18.6758 137.852C18.2773 138.016 17.8672 138.098 17.4453 138.098C16.6016 138.098 15.8867 137.793 15.3008 137.184C14.7148 136.574 14.4219 135.824 14.4219 134.934ZM16.1094 134.934C16.1094 135.355 16.2266 135.707 16.4609 135.988C16.7188 136.27 17.0469 136.41 17.4453 136.41C17.8672 136.41 18.2305 136.27 18.5352 135.988C18.8398 135.707 18.9922 135.355 18.9922 134.934C18.9922 134.559 18.8516 134.23 18.5703 133.949C18.2891 133.668 17.9375 133.527 17.5156 133.527C17.0938 133.527 16.7539 133.668 16.4961 133.949C16.2383 134.23 16.1094 134.559 16.1094 134.934Z" fill="white"/>
</svg>
