<svg width="69" height="77" viewBox="0 0 69 77" fill="none" xmlns="http://www.w3.org/2000/svg">
<g filter="url(#filter0_d_682_3)">
<path d="M65.2239 56.7499C65.7026 55.9165 66 54.9776 66 54.1344V24.8654C66 24.0222 65.703 23.0835 65.2241 22.2501L35.5 39.5L65.2239 56.7499Z" fill="#209FB5"/>
<path d="M38.1413 73.3674L63.3587 58.733C64.0851 58.3114 64.7453 57.5835 65.2239 56.7499L35.5 39.5L5.77606 56.7501C6.25469 57.5835 6.91513 58.3116 7.64135 58.733L32.8587 73.3674C34.3113 74.2106 36.6887 74.2106 38.1413 73.3674Z" fill="#209FB5"/>
<path d="M65.2241 22.2499C64.7453 21.4163 64.0849 20.6884 63.3587 20.2668L38.1413 5.63239C36.6887 4.7892 34.3113 4.7892 32.8587 5.63239L7.64134 20.2668C6.1885 21.1098 5 23.1792 5 24.8654V54.1344C5 54.9776 5.29723 55.9165 5.77606 56.7499L35.5 39.5L65.2241 22.2499Z" fill="#209FB5"/>
<path d="M65.2241 22.2499C64.7453 21.4163 64.0849 20.6884 63.3587 20.2668L38.1413 5.63239C36.6887 4.7892 34.3113 4.7892 32.8587 5.63239L7.64134 20.2668C6.1885 21.1098 5 23.1792 5 24.8654V54.1344C5 54.9776 5.29723 55.9165 5.77606 56.7499L35.5 39.5L65.2241 22.2499Z" fill="#209FB5"/>
<path d="M47.875 31.0625C47.8333 30.9792 47.8125 30.8333 47.8125 30.625C47.8125 30.125 48.0417 29.6667 48.5 29.25C49 28.8333 49.5625 28.625 50.1875 28.625C50.8542 28.625 51.3958 28.8542 51.8125 29.3125C52.2708 29.7708 52.625 30.3542 52.875 31.0625C53.125 31.7292 53.2917 32.5 53.375 33.375C53.4583 34.2083 53.5 35.0208 53.5 35.8125C53.5 38.7708 52.9375 41.5833 51.8125 44.25C50.6875 46.9167 49.2292 49.25 47.4375 51.25C45.6875 53.25 43.7292 54.8333 41.5625 56C39.4375 57.2083 37.3542 57.8125 35.3125 57.8125C34.7292 57.8125 34.2292 57.5417 33.8125 57C33.3958 56.4583 33.1875 55.8333 33.1875 55.125C33.1875 54.6667 33.3333 54.2083 33.625 53.75C33.9583 53.2917 34.5 52.9792 35.25 52.8125C37.25 52.3958 39.0625 51.6458 40.6875 50.5625C42.3125 49.4375 43.6875 48.1042 44.8125 46.5625C45.9792 44.9792 46.875 43.25 47.5 41.375C48.125 39.4583 48.4375 37.5208 48.4375 35.5625C48.4375 34.0625 48.25 32.5625 47.875 31.0625ZM18.75 32.9375C17.9583 32.6042 17.5625 32.0625 17.5625 31.3125C17.5625 30.8125 17.75 30.3542 18.125 29.9375C18.5 29.5208 19 29.3125 19.625 29.3125C20.125 29.3125 20.7292 29.5 21.4375 29.875C22.1458 30.2083 22.875 30.6875 23.625 31.3125C24.375 31.8958 25.0833 32.5833 25.75 33.375C26.4583 34.1667 27 34.9792 27.375 35.8125C27.4583 36.0208 27.5 36.2917 27.5 36.625C27.5 37.2083 27.2708 37.7083 26.8125 38.125C26.3958 38.5 25.9583 38.6875 25.5 38.6875C25 38.6875 24.625 38.4792 24.375 38.0625C23.6667 37.0208 22.7708 36.0208 21.6875 35.0625C20.6458 34.1042 19.6667 33.3958 18.75 32.9375ZM33.375 27.8125C32.9583 27.3958 32.75 26.9583 32.75 26.5C32.75 26 32.9583 25.5625 33.375 25.1875C33.7917 24.7708 34.2708 24.5625 34.8125 24.5625C35.3542 24.5625 35.8958 24.8125 36.4375 25.3125C37.0208 25.7708 37.5417 26.375 38 27.125C38.5 27.875 38.9167 28.7292 39.25 29.6875C39.5833 30.6458 39.7917 31.6042 39.875 32.5625C39.875 33.3125 39.625 33.8958 39.125 34.3125C38.6667 34.7292 38.1458 34.9375 37.5625 34.9375C37.1875 34.9375 36.8542 34.8542 36.5625 34.6875C36.2708 34.4792 36.0833 34.1875 36 33.8125C35.7917 32.5208 35.4792 31.4167 35.0625 30.5C34.6875 29.5417 34.125 28.6458 33.375 27.8125Z" fill="white"/>
</g>
<defs>
<filter id="filter0_d_682_3" x="0" y="0" width="69" height="77" filterUnits="userSpaceOnUse" color-interpolation-filters="sRGB">
<feFlood flood-opacity="0" result="BackgroundImageFix"/>
<feColorMatrix in="SourceAlpha" type="matrix" values="0 0 0 0 0 0 0 0 0 0 0 0 0 0 0 0 0 0 127 0" result="hardAlpha"/>
<feOffset dx="-1" dy="-1"/>
<feGaussianBlur stdDeviation="2"/>
<feComposite in2="hardAlpha" operator="out"/>
<feColorMatrix type="matrix" values="0 0 0 0 0 0 0 0 0 0 0 0 0 0 0 0 0 0 0.5 0"/>
<feBlend mode="normal" in2="BackgroundImageFix" result="effect1_dropShadow_682_3"/>
<feBlend mode="normal" in="SourceGraphic" in2="effect1_dropShadow_682_3" result="shape"/>
</filter>
</defs>
</svg>
